<?xml version="1.0" encoding="utf-8"?>
<!-- Generator: Adobe Illustrator 17.1.0, SVG Export Plug-In . SVG Version: 6.00 Build 0)  -->
<!DOCTYPE svg PUBLIC "-//W3C//DTD SVG 1.1//EN" "http://www.w3.org/Graphics/SVG/1.1/DTD/svg11.dtd">
<svg version="1.1" id="Layer_1" xmlns="http://www.w3.org/2000/svg" xmlns:xlink="http://www.w3.org/1999/xlink" x="0px" y="0px"
	 viewBox="0 0 32 32" enable-background="new 0 0 32 32" xml:space="preserve">
<g>
	<g>
		<path fill="#010101" d="M7,31.8c-1.5,0-2.8-1.5-2.8-3.2V17.3c0-1.8,1.2-3.2,2.8-3.2h0.5l0,0c0.4-0.7,1-2.1,2.5-2.1h2.8
			c1.3,0,1.8,1.1,2.2,1.8l0.1,0.3h7.7c1.5,0,2.8,1.5,2.8,3.2v11.3c0,1.8-1.2,3.2-2.8,3.2C22.8,31.8,7,31.8,7,31.8z"/>
		<path id="rect5504_2_" fill="#A46E29" d="M10,13.1c-0.8,0-1.2,0.6-1.6,1.5l-0.2,0.6H7c-1,0-1.8,0.9-1.8,2.1v11.3
			c0,1.1,0.8,2.1,1.8,2.1h15.8c1,0,1.8-0.9,1.8-2.1V17.3c0-1.1-0.8-2.1-1.8-2.1h-8.4l-0.2-0.6c-0.4-0.9-0.6-1.5-1.4-1.5H12h-1.2H10
			L10,13.1z"/>
	</g>
	<g>
		<path fill="#020202" d="M22.5,11l1.4-1.8c0.1-0.2,0.1-0.5-0.1-0.6l-2.2-0.9c-0.7-0.3-1.1-1-1-1.7l0.3-2.4c0-0.2-0.2-0.4-0.4-0.4
			l-2.4,0.3c-0.7,0.1-1.4-0.3-1.7-1l-0.9-2.2c-0.1-0.2-0.4-0.3-0.6-0.1L13,1.5c-0.6,0.4-1.4,0.4-2,0L9.1,0.1C8.9-0.1,8.6,0,8.5,0.2
			l-1,2.2c-0.3,0.7-1,1.1-1.7,1L3.5,3.1c-0.2,0-0.4,0.2-0.4,0.4l0.3,2.4c0.1,0.7-0.3,1.4-1,1.7l-2.2,1C0,8.6-0.1,8.9,0.1,9.1L1.5,11
			c0.4,0.6,0.4,1.4,0,2l-1.4,2c-0.1,0.2-0.1,0.5,0.2,0.6l2.2,0.9c0.7,0.3,1.1,1,1,1.7l-0.3,2.4c0,0.2,0.2,0.4,0.4,0.4l2.4-0.3
			c0.7-0.1,1.4,0.3,1.7,1l0.9,2.2c0.1,0.2,0.4,0.3,0.6,0.1l1.9-1.4c0.6-0.4,1.4-0.4,2,0l1.9,1.4c0.2,0.1,0.5,0.1,0.6-0.2l0.9-2.2
			c0.3-0.7,1-1.1,1.7-1l2.4,0.3c0.2,0,0.4-0.2,0.4-0.4l-0.3-2.4c-0.1-0.8,0.3-1.5,1-1.8l2.2-0.9c0.2-0.1,0.3-0.4,0.2-0.6L22.5,13
			C22,12.4,22,11.5,22.5,11z"/>
		<path fill="#76C046" d="M13.5,21.8c-0.6-0.5-1.4-0.6-2.1-0.4c-0.3,0.1-0.6,0.2-0.9,0.4l-1.4,1.1l-0.7-1.6c-0.4-1-1.5-1.6-2.6-1.5
			L4,20l0.2-1.8c0.1-1.1-0.5-2.2-1.5-2.6l-1.7-0.7l1.1-1.5c0.6-0.9,0.6-2.1,0-3L1.1,9.1l1.6-0.7c1-0.4,1.6-1.5,1.5-2.5L4,4l1.7,0.2
			c0.3,0,0.6,0,1-0.1C7.4,4,8,3.5,8.3,2.8l0.7-1.7l1.4,1.1c0.6,0.5,1.4,0.6,2.1,0.4c0.3-0.1,0.6-0.2,0.9-0.4l1.4-1.1l0.7,1.6
			c0.4,1,1.5,1.6,2.6,1.5L20,4l-0.2,1.8c-0.1,1.1,0.5,2.2,1.5,2.6l1.6,0.7l-1.1,1.4c-0.7,0.9-0.7,2.1,0,3l1.1,1.4l-1.6,0.7
			c-1.1,0.4-1.7,1.5-1.5,2.6L20,20l-1.8-0.2c-0.3,0-0.6,0-1,0.1c-0.7,0.2-1.4,0.7-1.7,1.5l-0.7,1.6L13.5,21.8z"/>
		
			<linearGradient id="SVGID_1_" gradientUnits="userSpaceOnUse" x1="4.7855" y1="-4.7649" x2="24.6685" y2="-4.7649" gradientTransform="matrix(0.9659 -0.2588 0.2588 0.9659 -0.9998 20.4061)">
			<stop  offset="0" style="stop-color:#AED48A"/>
			<stop  offset="1" style="stop-color:#269145"/>
		</linearGradient>
		<path fill="url(#SVGID_1_)" d="M14,21.2c-0.8-0.6-1.9-0.8-2.9-0.6c-0.4,0.1-0.8,0.3-1.1,0.6l-0.6,0.4l-0.3-0.7
			c-0.6-1.4-2-2.2-3.5-2L5,19l0.1-0.7c0.2-1.5-0.6-2.9-2-3.5l-0.7-0.3l0.5-0.6c0.9-1.2,0.8-2.8,0-4L2.4,9.4l0.7-0.3
			c1.3-0.6,2.1-1.9,2-3.4L5,5l0.7,0.1c0.4,0.1,0.9,0,1.3-0.1c1-0.3,1.8-0.9,2.2-1.9l0.3-0.7L10,2.8c0.8,0.6,1.9,0.8,2.9,0.6
			c0.4-0.1,0.8-0.3,1.1-0.6l0.6-0.4l0.3,0.7c0.6,1.4,2,2.2,3.5,2L19.1,5L19,5.7c-0.2,1.5,0.6,2.9,2,3.5l0.6,0.3l-0.4,0.5
			c-0.9,1.2-0.9,2.8,0,4l0.4,0.6L21,14.8c-1.4,0.6-2.2,2-2,3.5L19,19l-0.7-0.1c-0.4-0.1-0.9,0-1.3,0.1c-1,0.3-1.8,1-2.2,2l-0.2,0.6
			L14,21.2z"/>
		<g>
			<g>
				<path fill="#76C046" d="M12.3,20.4c-4.6,0-8.4-3.7-8.4-8.4s3.7-8.4,8.4-8.4c2.8,0,5.4,1.4,6.9,3.7l0.9,1.4L15.2,12l4.9,3.3
					l-0.9,1.4C17.6,19,15,20.4,12.3,20.4z M12.3,10.1c-1,0-1.9,0.8-1.9,1.9s0.8,1.9,1.9,1.9c0.6,0,1.2-0.3,1.5-0.8l0.7-1l-0.7-1
					C13.5,10.4,12.9,10.1,12.3,10.1z"/>
				<path fill="#020202" d="M12.3,19.5c-4.1,0-7.5-3.4-7.5-7.5s3.4-7.5,7.5-7.5c2.5,0,4.8,1.2,6.2,3.3l0.5,0.7l-4,2.7l-0.5-0.7
					c-0.5-0.8-1.3-1.2-2.2-1.2c-1.5,0-2.7,1.2-2.7,2.7s1.2,2.7,2.7,2.7c0.9,0,1.7-0.5,2.2-1.2l0.5-0.7l4,2.7l-0.5,0.7
					C17.1,18.3,14.8,19.5,12.3,19.5z"/>
				<path fill="#FFFFFF" d="M12.3,18.7c-3.7,0-6.7-3-6.7-6.7s3-6.7,6.7-6.7c2.2,0,4.3,1.1,5.5,3L15.2,10c-0.7-1-1.8-1.6-2.9-1.6
					c-2,0-3.5,1.6-3.5,3.5s1.6,3.5,3.5,3.5c1.2,0,2.3-0.6,2.9-1.6l2.6,1.8C16.5,17.6,14.5,18.7,12.3,18.7z"/>
			</g>
		</g>
	</g>
	<g>
		<path fill="#010101" d="M7.2,32c-1,0-1.5-0.6-1.7-0.9c-0.4-0.6-0.4-1.5,0-2.3l5-9.4c0.5-1.4,2.1-2.3,3.3-2.3H30
			c1,0,1.5,0.6,1.7,0.9c0.4,0.6,0.4,1.5,0,2.3l-5,9.4C26.1,31,24.5,32,23.2,32H7.2z"/>
		<path id="rect5498_2_" fill="#FBAB1F" d="M13.8,18.1H30c1,0,1.2,0.9,0.8,1.7l-5,9.4c-0.4,0.9-1.6,1.7-2.6,1.7h-16
			c-1,0-1.2-0.9-0.8-1.7l5-9.4C11.8,18.8,13,18.1,13.8,18.1z"/>
		
			<linearGradient id="path16_3_" gradientUnits="userSpaceOnUse" x1="2.021" y1="-115.0648" x2="13.596" y2="-115.0648" gradientTransform="matrix(2 0 0 -2 2.92 -205.6796)">
			<stop  offset="0" style="stop-color:#A56D2A"/>
			<stop  offset="0.5394" style="stop-color:#FBAB1F"/>
			<stop  offset="1" style="stop-color:#FFF5E5"/>
		</linearGradient>
		<path id="path16_2_" fill="url(#path16_3_)" d="M7.2,29.7C7,29.7,7,29.7,7.2,29.7C7,29.7,7,29.7,7.2,29.7l5-9.4
			c0.4-0.6,1.2-1.1,1.8-1.1h16h0.2c0,0,0,0,0,0.2l-5,9.2c-0.4,0.6-1.2,1.1-1.8,1.1H7.2z"/>
	</g>
</g>
</svg>
