<?xml version="1.0" encoding="utf-8"?>
<!-- Generator: Adobe Illustrator 17.1.0, SVG Export Plug-In . SVG Version: 6.00 Build 0)  -->
<!DOCTYPE svg PUBLIC "-//W3C//DTD SVG 1.1//EN" "http://www.w3.org/Graphics/SVG/1.1/DTD/svg11.dtd">
<svg version="1.1" id="Layer_1" xmlns="http://www.w3.org/2000/svg" xmlns:xlink="http://www.w3.org/1999/xlink" x="0px" y="0px"
	 viewBox="0 0 32 32" enable-background="new 0 0 32 32" xml:space="preserve">
<g>
	<path fill="#020202" d="M28.7,14.7l1.7-2.2c0.2-0.2,0.1-0.6-0.2-0.7l-2.6-1.1c-0.8-0.3-1.3-1.2-1.2-2.1l0.4-2.9
		c0-0.3-0.2-0.5-0.5-0.5l-2.9,0.4c-0.9,0.1-1.7-0.4-2.1-1.2l-1.1-2.7c-0.1-0.3-0.4-0.4-0.7-0.2l-2.3,1.7c-0.7,0.5-1.7,0.5-2.4,0
		l-2.3-1.7c-0.2-0.2-0.6-0.1-0.7,0.2l-1.2,2.7c-0.4,0.8-1.2,1.3-2.1,1.2L5.8,5.3c-0.3,0-0.5,0.2-0.5,0.5l0.3,2.9
		c0.1,0.9-0.4,1.7-1.2,2.1l-2.6,1.2c-0.3,0.1-0.3,0.4-0.2,0.7l1.7,2.3c0.5,0.7,0.5,1.7,0,2.4l-1.7,2.4c-0.2,0.2-0.1,0.6,0.2,0.7
		l2.7,1.1c0.8,0.3,1.3,1.2,1.2,2.1l-0.4,2.9c0,0.3,0.2,0.5,0.5,0.5l2.9-0.4c0.9-0.1,1.7,0.4,2.1,1.2l1.1,2.7
		c0.1,0.3,0.4,0.4,0.7,0.2l2.3-1.7c0.7-0.5,1.7-0.5,2.4,0l2.3,1.7c0.2,0.2,0.6,0.1,0.7-0.2l1.1-2.6c0.3-0.8,1.2-1.3,2.1-1.2l2.9,0.4
		c0.3,0,0.5-0.2,0.5-0.5l-0.4-2.9c-0.1-0.9,0.4-1.8,1.2-2.1l2.7-1.1c0.3-0.1,0.4-0.4,0.2-0.7l-1.8-2.3
		C28.1,16.4,28.1,15.4,28.7,14.7z"/>
	<path fill="#76C046" d="M17.8,27.9c-0.7-0.6-1.7-0.7-2.6-0.5c-0.4,0.1-0.7,0.3-1,0.5l-1.7,1.3l-0.8-2c-0.5-1.2-1.8-2-3.1-1.8
		l-2.1,0.3l0.3-2.1c0.2-1.3-0.6-2.6-1.8-3.1l-2-0.8l1.3-1.8c0.8-1.1,0.8-2.5,0-3.6l-1.3-1.7l2-0.9C6,11.1,6.7,9.8,6.6,8.5L6.3,6.4
		l2.1,0.3c0.4,0,0.8,0,1.1-0.1c0.9-0.2,1.6-0.9,2-1.7l0.9-2l1.7,1.3c0.7,0.6,1.7,0.7,2.6,0.5c0.4-0.1,0.7-0.3,1-0.5l1.7-1.3l0.8,2
		c0.5,1.2,1.8,2,3.1,1.8l2.1-0.3l-0.3,2.1c-0.2,1.3,0.6,2.6,1.8,3.1l2,0.8l-1.3,1.7c-0.8,1.1-0.8,2.6,0,3.7l1.3,1.7l-2,0.8
		c-1.3,0.5-2,1.8-1.8,3.2l0.3,2.1l-2.2-0.3c-0.4,0-0.8,0-1.1,0.1c-0.9,0.2-1.7,0.9-2,1.8l-0.8,1.9L17.8,27.9z"/>
	
		<linearGradient id="SVGID_1_" gradientUnits="userSpaceOnUse" x1="5.5374" y1="0.1323" x2="29.5735" y2="0.1323" gradientTransform="matrix(0.9659 -0.2588 0.2588 0.9659 -0.9998 20.4061)">
		<stop  offset="0" style="stop-color:#AED48A"/>
		<stop  offset="1" style="stop-color:#269145"/>
	</linearGradient>
	<path fill="url(#SVGID_1_)" d="M18.4,27.1c-1-0.8-2.2-1-3.5-0.7c-0.5,0.1-1,0.4-1.4,0.7l-0.7,0.5l-0.3-0.8
		c-0.7-1.6-2.4-2.6-4.2-2.4l-0.9,0.1l0.1-0.9c0.2-1.8-0.8-3.5-2.4-4.2l-0.8-0.4l0.6-0.8c1-1.4,1-3.4,0-4.8l-0.5-0.7l0.8-0.4
		c1.6-0.7,2.6-2.4,2.4-4.1L7.5,7.5l0.9,0.1c0.5,0.1,1,0,1.5-0.1c1.2-0.3,2.1-1.1,2.6-2.3l0.4-0.9l0.7,0.5c1,0.8,2.2,1,3.5,0.7
		c0.5-0.1,1-0.4,1.4-0.7l0.7-0.5l0.3,0.8c0.7,1.6,2.4,2.6,4.2,2.4l0.9-0.1l-0.1,0.9c-0.2,1.8,0.8,3.5,2.4,4.2l0.8,0.3l-0.5,0.6
		c-1.1,1.4-1.1,3.4,0,4.9l0.5,0.7l-0.8,0.3c-1.7,0.7-2.7,2.4-2.5,4.3l0.1,0.8l-0.9-0.1c-0.5-0.1-1,0-1.5,0.1
		c-1.2,0.3-2.2,1.2-2.7,2.4l-0.3,0.7L18.4,27.1z"/>
	<g>
		<g>
			<path fill="#76C046" d="M16.3,26.1c-5.6,0-10.1-4.5-10.1-10.1S10.7,5.9,16.3,5.9c3.4,0,6.5,1.7,8.4,4.5l1.1,1.7l-5.9,4l5.9,4
				l-1.1,1.7C22.8,24.4,19.7,26.1,16.3,26.1z M16.3,13.7c-1.3,0-2.3,1-2.3,2.3s1,2.3,2.3,2.3c0.7,0,1.4-0.4,1.9-1L19,16l-0.8-1.3
				C17.8,14.1,17.1,13.7,16.3,13.7z"/>
			<path fill="#020202" d="M16.3,25.1c-5,0-9.1-4.1-9.1-9.1s4.1-9.1,9.1-9.1c3,0,5.8,1.5,7.5,4l0.6,0.8L19.6,15L19,14.2
				c-0.6-0.9-1.6-1.5-2.7-1.5c-1.8,0-3.3,1.5-3.3,3.3s1.5,3.3,3.3,3.3c1.1,0,2.1-0.5,2.7-1.5l0.6-0.8l4.8,3.2l-0.6,0.8
				C22.1,23.6,19.3,25.1,16.3,25.1z"/>
			<path fill="#FFFFFF" d="M16.3,24.1c-4.5,0-8.1-3.6-8.1-8.1s3.6-8.1,8.1-8.1c2.7,0,5.2,1.3,6.7,3.6l-3.2,2.1
				c-0.8-1.2-2.1-1.9-3.5-1.9c-2.4,0-4.3,1.9-4.3,4.3s1.9,4.3,4.3,4.3c1.4,0,2.7-0.7,3.5-1.9l3.2,2.1C21.5,22.8,19,24.1,16.3,24.1z"
				/>
		</g>
	</g>
</g>
</svg>
