<?xml version="1.0" encoding="UTF-8" standalone="no"?>
<!-- Generator: Adobe Illustrator 15.0.0, SVG Export Plug-In . SVG Version: 6.00 Build 0)  -->

<svg
   xmlns:dc="http://purl.org/dc/elements/1.1/"
   xmlns:cc="http://creativecommons.org/ns#"
   xmlns:rdf="http://www.w3.org/1999/02/22-rdf-syntax-ns#"
   xmlns:svg="http://www.w3.org/2000/svg"
   xmlns="http://www.w3.org/2000/svg"
   xmlns:xlink="http://www.w3.org/1999/xlink"
   xmlns:sodipodi="http://sodipodi.sourceforge.net/DTD/sodipodi-0.dtd"
   xmlns:inkscape="http://www.inkscape.org/namespaces/inkscape"
   version="1.1"
   id="Layer_1"
   x="0px"
   y="0px"
   width="32px"
   height="32px"
   viewBox="0 0 32 32"
   enable-background="new 0 0 32 32"
   xml:space="preserve"
   inkscape:version="0.48.0 r9654"
   sodipodi:docname="select handlers.svg"><metadata
   id="metadata3145"><rdf:RDF><cc:Work
       rdf:about=""><dc:format>image/svg+xml</dc:format><dc:type
         rdf:resource="http://purl.org/dc/dcmitype/StillImage" /></cc:Work></rdf:RDF></metadata><defs
   id="defs3143">
	

	

	
	
<linearGradient
   inkscape:collect="always"
   xlink:href="#SVGID_2_"
   id="linearGradient3185"
   gradientUnits="userSpaceOnUse"
   gradientTransform="translate(-568.7451,-922.9336)"
   x1="594.65631"
   y1="934.35938"
   x2="596.52252"
   y2="934.35938" /><linearGradient
   inkscape:collect="always"
   xlink:href="#SVGID_3_"
   id="linearGradient3187"
   gradientUnits="userSpaceOnUse"
   gradientTransform="translate(-568.7451,-922.9336)"
   x1="595.5918"
   y1="923.61908"
   x2="595.5918"
   y2="925.44421" /><linearGradient
   inkscape:collect="always"
   xlink:href="#SVGID_4_"
   id="linearGradient3189"
   gradientUnits="userSpaceOnUse"
   gradientTransform="translate(-568.7451,-922.9336)"
   x1="591.99799"
   y1="947.23932"
   x2="599.21088"
   y2="947.23932" /><linearGradient
   inkscape:collect="always"
   xlink:href="#SVGID_5_"
   id="linearGradient3191"
   gradientUnits="userSpaceOnUse"
   gradientTransform="translate(-568.7451,-922.9336)"
   x1="594.28607"
   y1="944.09277"
   x2="596.88959"
   y2="944.09277" />
		
		
			<linearGradient
   id="SVGID_2_"
   gradientUnits="userSpaceOnUse"
   x1="594.65631"
   y1="934.35938"
   x2="596.52252"
   y2="934.35938"
   gradientTransform="translate(-568.7451,-922.9336)">
			<stop
   offset="0"
   style="stop-color:#FFF7E8"
   id="stop3095" />
			<stop
   offset="0.5394"
   style="stop-color:#F7A700"
   id="stop3097" />
			<stop
   offset="1"
   style="stop-color:#A9661B"
   id="stop3099" />
		</linearGradient>
		
		
		
			<linearGradient
   id="SVGID_3_"
   gradientUnits="userSpaceOnUse"
   x1="595.5918"
   y1="923.61908"
   x2="595.5918"
   y2="925.44421"
   gradientTransform="translate(-568.7451,-922.9336)">
			<stop
   offset="0"
   style="stop-color:#FFF7E8"
   id="stop3106" />
			<stop
   offset="0.5394"
   style="stop-color:#F7A700"
   id="stop3108" />
			<stop
   offset="1"
   style="stop-color:#A9661B"
   id="stop3110" />
		</linearGradient>
		
		
		
		
			<linearGradient
   id="SVGID_4_"
   gradientUnits="userSpaceOnUse"
   x1="591.99799"
   y1="947.23932"
   x2="599.21088"
   y2="947.23932"
   gradientTransform="translate(-568.7451,-922.9336)">
			<stop
   offset="0"
   style="stop-color:#BDD6E1"
   id="stop3119" />
			<stop
   offset="1"
   style="stop-color:#00799F"
   id="stop3121" />
		</linearGradient>
		
		
			<linearGradient
   id="SVGID_5_"
   gradientUnits="userSpaceOnUse"
   x1="594.28607"
   y1="944.09277"
   x2="596.88959"
   y2="944.09277"
   gradientTransform="translate(-568.7451,-922.9336)">
			<stop
   offset="0"
   style="stop-color:#FFFFFF;stop-opacity:0"
   id="stop3126" />
			<stop
   offset="0.9104"
   style="stop-color:#FFFFFF;stop-opacity:0.9104"
   id="stop3128" />
			<stop
   offset="1"
   style="stop-color:#FFFFFF"
   id="stop3130" />
		</linearGradient>
		
	<linearGradient
   inkscape:collect="always"
   xlink:href="#SVGID_5_"
   id="linearGradient3209"
   gradientUnits="userSpaceOnUse"
   gradientTransform="translate(-568.7451,-922.9336)"
   x1="594.28607"
   y1="944.09277"
   x2="596.88959"
   y2="944.09277" /><linearGradient
   inkscape:collect="always"
   xlink:href="#SVGID_4_"
   id="linearGradient3212"
   gradientUnits="userSpaceOnUse"
   gradientTransform="translate(-568.7451,-922.9336)"
   x1="591.99799"
   y1="947.23932"
   x2="599.21088"
   y2="947.23932" /><linearGradient
   inkscape:collect="always"
   xlink:href="#SVGID_3_"
   id="linearGradient3217"
   gradientUnits="userSpaceOnUse"
   gradientTransform="translate(-568.7451,-922.9336)"
   x1="595.5918"
   y1="923.61908"
   x2="595.5918"
   y2="925.44421" /><linearGradient
   inkscape:collect="always"
   xlink:href="#SVGID_2_"
   id="linearGradient3221"
   gradientUnits="userSpaceOnUse"
   gradientTransform="translate(-568.7451,-922.9336)"
   x1="594.65631"
   y1="934.35938"
   x2="596.52252"
   y2="934.35938" /><linearGradient
   inkscape:collect="always"
   xlink:href="#SVGID_1_"
   id="linearGradient3224"
   gradientUnits="userSpaceOnUse"
   gradientTransform="matrix(1,0,0,-1,-1123.8203,-2275.3193)"
   x1="1153.9463"
   y1="-2297.7607"
   x2="1131.0217"
   y2="-2282.0112" /><linearGradient
   inkscape:collect="always"
   xlink:href="#path26098_1_"
   id="linearGradient3226"
   gradientUnits="userSpaceOnUse"
   gradientTransform="matrix(1,0,0,-1,-2430.1143,-5012.9834)"
   x1="2446.1113"
   y1="-5017.5322"
   x2="2446.1113"
   y2="-5014.6826" />
		
	</defs><sodipodi:namedview
   pagecolor="#ffffff"
   bordercolor="#666666"
   borderopacity="1"
   objecttolerance="10"
   gridtolerance="10"
   guidetolerance="10"
   inkscape:pageopacity="0"
   inkscape:pageshadow="2"
   inkscape:window-width="1680"
   inkscape:window-height="988"
   id="namedview3141"
   showgrid="false"
   inkscape:zoom="8.1875"
   inkscape:cx="16"
   inkscape:cy="16"
   inkscape:window-x="0"
   inkscape:window-y="0"
   inkscape:window-maximized="1"
   inkscape:current-layer="Layer_1" />
<g
   id="g3071">
			<path
   id="path4993_17_"
   d="M 3.477,25.473 C 1.561,25.473 0,23.793 0,21.727 V 3.75 C 0,2.768 0.348,1.84 0.98,1.137 1.641,0.404 2.525,0 3.48,0 H 28.527 C 30.443,0 32,1.68 32,3.75 v 17.977 c 0,2.066 -1.557,3.746 -3.473,3.746 H 3.477 l 0,0 z"
   inkscape:connector-curvature="0"
   style="fill:#14120d" />
			<path
   id="rect26074_17_"
   d="m 3.477,1.047 h 25.046 c 1.347,0 2.431,1.205 2.431,2.703 v 17.977 c 0,1.496 -1.084,2.699 -2.431,2.699 H 3.477 c -1.348,0 -2.43,-1.203 -2.43,-2.699 V 3.75 C 1.045,2.254 2.129,1.047 3.477,1.047 z"
   inkscape:connector-curvature="0"
   style="fill:#ffffff" />
			
				<linearGradient
   id="SVGID_1_"
   gradientUnits="userSpaceOnUse"
   x1="1153.9463"
   y1="-2297.7607"
   x2="1131.0217"
   y2="-2282.0112"
   gradientTransform="matrix(1,0,0,-1,-1123.8203,-2275.3193)">
				<stop
   offset="0"
   style="stop-color:#13110C;stop-opacity:0.21"
   id="stop3076" />
				<stop
   offset="1"
   style="stop-color:#13110C;stop-opacity:0"
   id="stop3078" />
			</linearGradient>
			<path
   d="m 3.477,23.379 c -0.764,0 -1.383,-0.74 -1.383,-1.65 V 3.75 c 0,-0.914 0.619,-1.656 1.383,-1.656 h 25.046 c 0.765,0 1.384,0.742 1.384,1.656 v 17.977 c 0,0.912 -0.621,1.652 -1.384,1.652 H 3.477 l 0,0 z"
   id="path3080"
   style="fill:url(#linearGradient3224)"
   inkscape:connector-curvature="0" />
			
				<linearGradient
   id="path26098_1_"
   gradientUnits="userSpaceOnUse"
   x1="2446.1113"
   y1="-5017.5322"
   x2="2446.1113"
   y2="-5014.6826"
   gradientTransform="matrix(1,0,0,-1,-2430.1143,-5012.9834)">
				<stop
   offset="0"
   style="stop-color:#2F57A3"
   id="stop3083" />
				<stop
   offset="1"
   style="stop-color:#C1DCF4"
   id="stop3085" />
			</linearGradient>
			<path
   id="path26098_15_"
   d="m 3.49,1.047 c -1.346,0 -2.455,1.109 -2.455,2.455 V 4.549 H 30.959 V 3.502 c 0,-1.346 -1.109,-2.455 -2.455,-2.455 H 3.49 z"
   style="fill:url(#linearGradient3226)"
   inkscape:connector-curvature="0" />
		</g>
<path
   d="m 24.046,0.001 c -0.332,0 -0.603,0.268 -0.603,0.6 v 1.867 c 0,0.332 0.271,0.6 0.603,0.6 h 1.267 v 13.477 c -0.22,0.09 -0.369,0.303 -0.369,0.555 v 3.008 h -2.59 c -0.32,0 -0.584,0.252 -0.601,0.569 -0.01,0.205 -0.229,5.058 0.558,7.404 0.481,1.439 2.903,3.919 4.535,3.919 1.633,0 4.057,-2.48 4.536,-3.922 0.785,-2.344 0.603,-7.193 0.595,-7.398 -0.015,-0.32 -0.277,-0.574 -0.601,-0.574 l -2.631,-0.002 v -3.008 c 0,-0.246 -0.149,-0.462 -0.367,-0.552 V 3.067 h 1.269 c 0.332,0 0.6,-0.27 0.6,-0.6 V 0.601 c 0,-0.332 -0.268,-0.6 -0.6,-0.6 h -5.601 z"
   id="path3092"
   inkscape:connector-curvature="0"
   style="fill:#13110c" /><rect
   x="25.910999"
   y="2.0929999"
   width="1.8660001"
   height="18.667"
   id="rect3101"
   style="fill:url(#linearGradient3221)" /><rect
   x="26.514"
   y="2.6919999"
   width="0.66600001"
   height="17.468"
   id="rect3103"
   style="fill:#f7a700" /><rect
   x="24.046"
   y="0.65700001"
   width="5.6009998"
   height="1.867"
   id="rect3112"
   style="fill:url(#linearGradient3217)" /><rect
   x="24.646"
   y="1.257"
   width="4.3990002"
   height="0.66799998"
   id="rect3114"
   style="fill:#f7a700" /><path
   d="m 30.813,27.945 c -0.418,1.256 -2.644,3.512 -3.967,3.512 -1.324,0 -3.548,-2.256 -3.968,-3.512 -0.76,-2.271 -0.524,-7.188 -0.524,-7.188 l 3.188,0.002 v -3.606 l 2.604,0.002 v 3.604 l 3.229,0.002 c 0.001,0.001 0.193,4.919 -0.562,7.184 z"
   id="path3116"
   inkscape:connector-curvature="0"
   style="fill:#1ba9d9" /><path
   d="m 26.477,18.086 v 2.676 c 0,0.514 -0.418,0.934 -0.935,0.934 h -2.283 c -0.028,1.689 0.027,4.533 0.505,5.955 0.352,1.05 2.309,2.875 3.084,2.875 0.771,0 2.729,-1.825 3.079,-2.873 0.479,-1.428 0.554,-4.268 0.537,-5.957 h -2.315 c -0.517,0 -0.935,-0.418 -0.935,-0.934 v -2.674 l -0.737,-0.002 z"
   id="path3123"
   style="fill:url(#linearGradient3212)"
   inkscape:connector-curvature="0" /><path
   d="m 28.128,20.762 c 0,0 -0.31,4.402 -1.265,4.402 -0.78,0 -1.266,-4.402 -1.266,-4.402 H 25.54 v -3.607 h 2.604 v 3.605 l -0.016,0.002 z"
   id="path3132"
   style="fill:url(#linearGradient3209)"
   inkscape:connector-curvature="0" />
<path
   fill="#FFFFFF"
   d="M18.104,16.02c-0.551-0.368-0.974-0.65-1.438-0.792c-0.684-1.18-1.889-1.558-2.848-1.75  c-0.106-0.012-0.212-0.018-0.314-0.018c-0.216,0-0.427,0.026-0.628,0.077c-0.434-0.386-0.987-0.679-1.665-0.877  c-0.06-2.57-0.383-5.34-3.178-5.34c-0.354,0-1.43,0-2.27,0.843c-1.159,1.164-1.19,2.71-1.161,8.958  c-0.55-0.164-1.1-0.251-1.62-0.251c-1.927,0-2.936,1.295-2.936,2.574c0,0.313,0.078,0.622,0.226,0.892  c0.316,0.579,0.713,0.946,1.036,1.246c0.379,0.348,0.679,0.623,0.97,1.494c0.074,0.219,0.185,0.418,0.321,0.584  c0.264,0.325,0.752,0.967,1.256,1.823h15.921c0.133-0.701,0.239-1.372,0.286-1.889C20.417,19.677,19.758,17.127,18.104,16.02z"
   id="path3134" />
<path
   inkscape:connector-curvature="0"
   id="path3138"
   d="M 7.387,31.921 C 7.157,31.918 6.936,31.825 6.774,31.658 6.613,31.493 6.524,31.269 6.527,31.039 6.584,27.264 4.129,23.947 3.377,23.019 3.311,22.939 3.259,22.845 3.227,22.747 2.854,21.632 2.412,21.226 1.985,20.834 1.692,20.563 1.388,20.282 1.151,19.846 1.082,19.721 1.047,19.576 1.047,19.434 c 0,-0.785 0.598,-1.574 1.935,-1.574 0.836,0 1.784,0.285 2.628,0.771 C 5.609,18.332 5.607,18.043 5.606,17.763 5.575,11.462 5.566,9.768 6.473,8.858 6.963,8.366 7.598,8.309 8.033,8.309 c 1.888,0 2.153,1.842 2.191,5.235 0.061,-0.006 0.125,-0.009 0.192,-0.009 0.143,0 0.292,0.019 0.466,0.06 0.854,0.234 1.395,0.627 1.729,1.146 0.252,-0.191 0.557,-0.292 0.893,-0.292 0.063,0 0.13,0.003 0.197,0.011 1.265,0.258 1.955,0.754 2.285,1.657 0.01,0 0.021,0 0.029,0 0.451,0 0.812,0.242 1.533,0.723 1.313,0.879 1.832,3.177 1.518,6.655 -0.129,1.421 -0.744,4.178 -1.127,5.277 -0.33,0.951 -0.488,1.449 -0.48,2.353 0.002,0.233 -0.09,0.458 -0.254,0.623 C 17.039,31.908 16.82,32 16.59,32 L 7.387,31.921 z" /><path
   style="fill:#ffffff"
   inkscape:connector-curvature="0"
   d="M 7.395,31.052 C 7.451,27.251 5.201,23.891 4.049,22.473 3.361,20.41 2.384,20.302 1.914,19.434 c 0,-1.158 2.571,-0.848 4.174,0.607 0.415,0.507 0.399,0.359 0.399,1.7 C 6.474,10.493 6.184,9.176 8.03,9.176 c 1.734,0 1.204,3.634 1.366,10.366 0.123,-0.017 0.312,-0.026 0.448,0.013 0.135,-4.591 -0.171,-5.35 0.841,-5.116 1.979,0.542 1.56,2.17 1.547,5.401 0.177,-0.014 0.353,-0.027 0.487,-0.014 0.025,-2.375 -0.324,-4.641 0.883,-4.506 1.148,0.237 1.54,0.637 1.696,1.616 0.024,0.617 -0.003,2.145 0.013,2.982 0.207,-0.008 0.3,-0.051 0.449,-0.01 0.04,-3.204 -0.299,-3.42 1.316,-2.34 0.838,0.561 1.441,2.334 1.121,5.846 -0.121,1.346 -0.729,4.057 -1.08,5.07 -0.336,0.961 -0.539,1.574 -0.529,2.646 L 7.395,31.052 z"
   nodetypes="ccccccccccccccccccc"
   id="path3343" />
</svg>