<?xml version="1.0" encoding="utf-8"?>
<!-- Generator: Adobe Illustrator 14.0.0, SVG Export Plug-In . SVG Version: 6.00 Build 43363)  -->
<!DOCTYPE svg PUBLIC "-//W3C//DTD SVG 1.1//EN" "http://www.w3.org/Graphics/SVG/1.1/DTD/svg11.dtd">
<svg version="1.1" id="Layer_1" xmlns="http://www.w3.org/2000/svg" xmlns:xlink="http://www.w3.org/1999/xlink" x="0px" y="0px"
	 width="32px" height="32px" viewBox="0 0 32 32" enable-background="new 0 0 32 32" xml:space="preserve">
<path fill="#231F20" d="M16,32C7.178,32,0,24.822,0,16C0,7.178,7.178,0,16,0c8.822,0,16,7.178,16,16C32,24.822,24.822,32,16,32
	L16,32z M10.315,25.57l4.979-4.978c0.195-0.194,0.451-0.293,0.707-0.293s0.513,0.099,0.707,0.293l4.979,4.978l3.886-3.889
	l-4.978-4.978c-0.391-0.391-0.391-1.023,0-1.414l4.973-4.973L21.68,6.428l-4.973,4.973c-0.188,0.188-0.442,0.293-0.707,0.293l0,0
	c-0.265,0-0.52-0.105-0.707-0.293l-4.972-4.973L6.43,10.317l4.974,4.973c0.188,0.188,0.293,0.442,0.293,0.707
	s-0.105,0.521-0.293,0.707l-4.979,4.978L10.315,25.57z"/>
<path fill="#EC2727" d="M16,1C7.716,1,1,7.716,1,16c0,8.285,6.716,15,15,15c8.285,0,15-6.715,15-15C31,7.716,24.285,1,16,1z
	 M21.688,26.984L16.001,21.3l-5.686,5.685l-5.302-5.303l5.686-5.685l-5.682-5.68l5.305-5.303l5.679,5.68l5.681-5.68l5.303,5.303
	l-5.68,5.68l5.684,5.685L21.688,26.984z"/>
<linearGradient id="SVGID_1_" gradientUnits="userSpaceOnUse" x1="283.54" y1="-388.8398" x2="311.54" y2="-388.8398" gradientTransform="matrix(1 0 0 -1 -281.54 -372.8398)">
	<stop  offset="0" style="stop-color:#F59699"/>
	<stop  offset="1" style="stop-color:#8F1A1D"/>
</linearGradient>
<path fill="url(#SVGID_1_)" d="M16,30C8.28,30,2,23.721,2,16C2,8.28,8.28,2,16,2c7.721,0,14,6.28,14,14C30,23.721,23.721,30,16,30
	L16,30z M21.688,28.398l6.715-6.717l-5.685-5.685l5.681-5.68L21.682,3.6l-5.681,5.68L10.322,3.6l-6.72,6.717l5.682,5.68
	l-5.685,5.685l6.716,6.717l5.686-5.685L21.688,28.398z"/>
</svg>
