<?xml version="1.0" encoding="utf-8"?>
<!-- Generator: Adobe Illustrator 14.0.0, SVG Export Plug-In . SVG Version: 6.00 Build 43363)  -->
<!DOCTYPE svg PUBLIC "-//W3C//DTD SVG 1.1//EN" "http://www.w3.org/Graphics/SVG/1.1/DTD/svg11.dtd">
<svg version="1.1" id="Layer_1" xmlns="http://www.w3.org/2000/svg" xmlns:xlink="http://www.w3.org/1999/xlink" x="0px" y="0px"
	 width="32px" height="32px" viewBox="0 0 32 32" enable-background="new 0 0 32 32" xml:space="preserve">
<g>
	<path fill="#010101" d="M13.981,32C6.271,32,0,25.729,0,18.019C0,10.309,6.271,4.038,13.981,4.038
		c7.708,0,13.982,6.271,13.982,13.981C27.963,25.729,21.689,32,13.981,32L13.981,32z"/>
	<path d="M13.13,5.871c-0.515,0-0.932-0.418-0.932-0.932V4.35h-1.724c-0.515,0-0.932-0.418-0.932-0.932V0.932
		C9.542,0.417,9.96,0,10.475,0h7.012c0.516,0,0.934,0.417,0.934,0.932v2.486c0,0.514-0.418,0.932-0.934,0.932h-1.725v0.589
		c0,0.514-0.417,0.932-0.932,0.932H13.13z"/>
	<circle fill="#03ADDB" cx="13.981" cy="18.018" r="13.108"/>
	
		<linearGradient id="SVGID_1_" gradientUnits="userSpaceOnUse" x1="-0.7124" y1="-105.8584" x2="23.7549" y2="-105.8584" gradientTransform="matrix(1 0 0 -1 2.46 -87.8398)">
		<stop  offset="0" style="stop-color:#B2D3DC"/>
		<stop  offset="1" style="stop-color:#117C9F"/>
	</linearGradient>
	<path fill="url(#SVGID_1_)" d="M13.981,30.252c-6.745,0-12.233-5.488-12.233-12.233c0-6.746,5.489-12.233,12.233-12.233
		c6.746,0,12.234,5.487,12.234,12.233C26.215,24.764,20.727,30.252,13.981,30.252L13.981,30.252z"/>
	
		<radialGradient id="SVGID_2_" cx="9.0332" cy="-101.2813" r="14.2855" gradientTransform="matrix(1 0 0 -1 2.46 -87.8398)" gradientUnits="userSpaceOnUse">
		<stop  offset="0" style="stop-color:#FFFFFF"/>
		<stop  offset="0.5394" style="stop-color:#F7F8F9"/>
		<stop  offset="1" style="stop-color:#A2A1A2"/>
	</radialGradient>
	<path fill="url(#SVGID_2_)" d="M13.981,27.572c-5.269,0-9.554-4.285-9.554-9.554c0-5.268,4.285-9.553,9.554-9.553
		c5.269,0,9.554,4.285,9.554,9.553C23.535,23.287,19.25,27.572,13.981,27.572L13.981,27.572z"/>
	
		<rect x="10.718" y="10.517" transform="matrix(-0.8138 0.5811 -0.5811 -0.8138 29.4421 19.6832)" fill="#010101" width="1.7" height="8.083"/>
	
		<rect x="9.807" y="16.507" transform="matrix(0.7074 0.7068 -0.7068 0.7074 18.1685 -1.3019)" fill="#010101" width="1.699" height="9.573"/>
	<circle fill="#010101" cx="13.98" cy="18.019" r="1.537"/>
	<polygon fill="#03ADDB" points="17.486,0.932 10.475,0.932 10.475,3.418 13.13,3.418 13.13,4.939 14.83,4.939 14.83,3.418 
		17.486,3.418 	"/>
	<linearGradient id="SVGID_3_" gradientUnits="userSpaceOnUse" x1="11.4067" y1="2.4492" x2="16.5552" y2="2.4492">
		<stop  offset="0" style="stop-color:#B2D3DC"/>
		<stop  offset="1" style="stop-color:#117C9F"/>
	</linearGradient>
	<path fill="url(#SVGID_3_)" d="M13.98,3.034c-0.146-0.323-0.471-0.548-0.85-0.548h-1.724V1.864h5.148v0.622H14.83
		C14.452,2.486,14.126,2.71,13.98,3.034L13.98,3.034z"/>
	<path d="M3.201,8.992c-0.272,0-0.541-0.118-0.726-0.346L1.304,7.197C1.148,7.004,1.076,6.758,1.102,6.513
		C1.128,6.267,1.25,6.041,1.443,5.886l3.625-2.929c0.173-0.139,0.38-0.208,0.585-0.208c0.271,0,0.541,0.118,0.726,0.347L7.55,4.545
		c0.323,0.4,0.261,0.987-0.139,1.311l-3.625,2.93C3.614,8.925,3.407,8.992,3.201,8.992L3.201,8.992z"/>
	
		<rect x="2.097" y="4.939" transform="matrix(0.7778 -0.6286 0.6286 0.7778 -2.7063 4.0874)" fill="#03ADDB" width="4.66" height="1.864"/>
	<path d="M25.254,9.277c0.271,0,0.539-0.118,0.725-0.346l1.172-1.449c0.156-0.193,0.229-0.438,0.201-0.685
		c-0.025-0.246-0.148-0.471-0.34-0.627l-3.625-2.929c-0.172-0.139-0.381-0.208-0.586-0.208c-0.271,0-0.541,0.119-0.725,0.347
		L20.904,4.83c-0.324,0.4-0.262,0.988,0.139,1.311l3.625,2.93C24.84,9.209,25.047,9.277,25.254,9.277L25.254,9.277z"/>
	
		<rect x="21.697" y="5.224" transform="matrix(-0.7778 -0.6285 0.6285 -0.7778 38.8468 26.0455)" fill="#03ADDB" width="4.661" height="1.864"/>
</g>
<g>
	<path id="path4046" fill="#020202" d="M12.967,32c-0.185,0-0.369-0.051-0.535-0.154c-0.428-0.271-0.584-0.817-0.364-1.274
		l6.31-13.195c0,0-2.33,0.037-2.336,0.037c-0.324,0-0.629-0.155-0.814-0.422c-0.19-0.271-0.236-0.615-0.121-0.925l5.68-15.344
		c0.145-0.392,0.518-0.651,0.936-0.651L31,0.065c0.383,0,0.729,0.217,0.896,0.558c0.168,0.342,0.13,0.749-0.104,1.053l-6.281,8.188
		c0,0,4.008-0.035,4.01-0.035c0.387,0,0.736,0.221,0.902,0.566c0.168,0.352,0.117,0.768-0.129,1.065L13.744,31.637
		C13.545,31.873,13.258,32,12.967,32L12.967,32z"/>
	<path id="path5141_12_" fill="#FAA820" d="M16.039,16.41l3.938-0.063L12.969,31l16.552-20.175l-6.054,0.056l7.531-9.813
		l-9.279,0.006L16.039,16.41z"/>
	<linearGradient id="polygon4061_1_" gradientUnits="userSpaceOnUse" x1="17.4316" y1="13.0249" x2="28.9688" y2="13.0249">
		<stop  offset="0" style="stop-color:#FFF3E0"/>
		<stop  offset="0.5394" style="stop-color:#FAA820"/>
		<stop  offset="1" style="stop-color:#A56629"/>
	</linearGradient>
	<polygon id="polygon4061" fill="url(#polygon4061_1_)" points="17.432,23.982 21.573,15.321 17.484,15.387 22.414,2.071 
		28.969,2.067 21.424,11.898 27.389,11.846 	"/>
</g>
</svg>
