<?xml version="1.0" encoding="utf-8"?>
<!-- Generator: Adobe Illustrator 14.0.0, SVG Export Plug-In . SVG Version: 6.00 Build 43363)  -->
<!DOCTYPE svg PUBLIC "-//W3C//DTD SVG 1.1//EN" "http://www.w3.org/Graphics/SVG/1.1/DTD/svg11.dtd">
<svg version="1.1" id="Layer_1" xmlns="http://www.w3.org/2000/svg" xmlns:xlink="http://www.w3.org/1999/xlink" x="0px" y="0px"
	 width="32px" height="32px" viewBox="0 0 32 32" enable-background="new 0 0 32 32" xml:space="preserve">
<g>
	<path fill="#231F20" d="M16,32C7.178,32,0,24.823,0,16S7.178,0,16,0c8.823,0,16,7.177,16,16S24.823,32,16,32L16,32z M25,18.75v-5H7
		v5H25z"/>
	<path fill="#ED2A28" d="M16,1C7.715,1,1,7.714,1,16c0,8.285,6.716,15,15,15c8.289,0,15.001-6.715,15.001-15C31,7.714,24.287,1,16,1
		z M26,19.75H6v-7h20V19.75z"/>
	
		<linearGradient id="SVGID_1_" gradientUnits="userSpaceOnUse" x1="562.6201" y1="-1481.5195" x2="590.6201" y2="-1481.5195" gradientTransform="matrix(1 0 0 -1 -560.6201 -1465.5195)">
		<stop  offset="0" style="stop-color:#F5969A"/>
		<stop  offset="1" style="stop-color:#901C1E"/>
	</linearGradient>
	<path fill="url(#SVGID_1_)" d="M16,30C8.282,30,2,23.721,2,16C2,8.279,8.282,2,16,2c7.721,0,14,6.279,14,14
		C30,23.721,23.721,30,16,30L16,30z M5,20.75h22v-9H5V20.75z"/>
</g>
</svg>
