<?xml version="1.0" encoding="utf-8"?>
<!-- Generator: Adobe Illustrator 14.0.0, SVG Export Plug-In . SVG Version: 6.00 Build 43363)  -->
<!DOCTYPE svg PUBLIC "-//W3C//DTD SVG 1.1//EN" "http://www.w3.org/Graphics/SVG/1.1/DTD/svg11.dtd">
<svg version="1.1"
	 id="svg2" xmlns:dc="http://purl.org/dc/elements/1.1/" xmlns:sodipodi="http://sodipodi.sourceforge.net/DTD/sodipodi-0.dtd" xmlns:inkscape="http://www.inkscape.org/namespaces/inkscape" xmlns:cc="http://creativecommons.org/ns#" xmlns:svg="http://www.w3.org/2000/svg" xmlns:rdf="http://www.w3.org/1999/02/22-rdf-syntax-ns#" sodipodi:docname="workflow.svg" inkscape:version="0.47pre4 "
	 xmlns="http://www.w3.org/2000/svg" xmlns:xlink="http://www.w3.org/1999/xlink" x="0px" y="0px" width="32px" height="32px"
	 viewBox="0 0 32 32" enable-background="new 0 0 32 32" xml:space="preserve">
<path id="path3683" d="M25.201,1.419v15.47h1.031V1.419H25.201z"/>
<path id="path2847" d="M23.217,6.811l2.485-6.758l2.485,6.758C26.721,5.73,24.713,5.737,23.217,6.811L23.217,6.811z"/>
<path id="path3636" d="M0.745,0.004C0.31,0.091-0.003,0.474,0,0.917v14.729c0.006,0.502,0.412,0.908,0.914,0.914h10.767
	c0.502-0.006,0.908-0.412,0.915-0.914V0.917c-0.006-0.502-0.412-0.908-0.915-0.914H0.914C0.858-0.001,0.801-0.001,0.745,0.004z"/>
<rect id="rect3588" x="0.898" y="0.914" fill="#FAA81E" width="10.8" height="14.733"/>
<linearGradient id="SVGID_1_" gradientUnits="userSpaceOnUse" x1="1.8979" y1="8.2803" x2="10.6978" y2="8.2803">
	<stop  offset="0" style="stop-color:#A46729"/>
	<stop  offset="0.5394" style="stop-color:#FAA81E"/>
	<stop  offset="1" style="stop-color:#FFF3E1"/>
</linearGradient>
<rect x="1.898" y="1.914" fill="url(#SVGID_1_)" width="8.8" height="12.733"/>
<rect id="rect4693-1" x="0.853" y="0.914" fill="#FFFFFF" width="10.89" height="3.692"/>
<path id="path3639" fill="none" stroke="#000000" stroke-width="1.0835" d="M0.564,4.605h11.466"/>
<path id="path3636-4" d="M20.148,15.443c-0.436,0.087-0.747,0.471-0.744,0.915v14.729c0.006,0.502,0.412,0.907,0.914,0.913h10.768
	c0.502-0.006,0.908-0.411,0.914-0.913v-14.73c-0.006-0.502-0.412-0.908-0.914-0.915H20.318
	C20.262,15.438,20.205,15.438,20.148,15.443z"/>
<rect id="rect3588-5" x="20.303" y="16.353" fill="#6EBD46" width="10.799" height="14.733"/>
<linearGradient id="SVGID_2_" gradientUnits="userSpaceOnUse" x1="21.3027" y1="23.7188" x2="30.1016" y2="23.7188">
	<stop  offset="0" style="stop-color:#B0D68C"/>
	<stop  offset="1" style="stop-color:#1E9046"/>
</linearGradient>
<rect x="21.303" y="17.353" fill="url(#SVGID_2_)" width="8.799" height="12.733"/>
<rect id="rect4693" x="20.257" y="16.353" fill="#FFFFFF" width="10.891" height="3.691"/>
<path id="path3639-5" fill="none" stroke="#000000" stroke-width="1.0835" d="M19.969,20.085h11.465"/>
<path id="path3681" d="M5.375,16v10.219v0.5h0.5h10.969v-1H6.375V16H5.375z"/>
<path id="path2855" d="M12.419,23.72l6.664,2.45l-6.664,2.451C13.484,27.174,13.478,25.195,12.419,23.72L12.419,23.72z"/>
</svg>
