<?xml version="1.0" encoding="utf-8"?>
<!-- Generator: Adobe Illustrator 14.0.0, SVG Export Plug-In . SVG Version: 6.00 Build 43363)  -->
<!DOCTYPE svg PUBLIC "-//W3C//DTD SVG 1.1//EN" "http://www.w3.org/Graphics/SVG/1.1/DTD/svg11.dtd">
<svg version="1.1" id="Layer_1" xmlns="http://www.w3.org/2000/svg" xmlns:xlink="http://www.w3.org/1999/xlink" x="0px" y="0px"
	 width="32px" height="32px" viewBox="0 0 32 32" enable-background="new 0 0 32 32" xml:space="preserve">
<g id="g2986">
	<g>
		<path id="path2947" fill="#010101" d="M31.067,27.242c0.131,0,0.262-0.025,0.387-0.084C31.786,27.006,32,26.676,32,26.309V5.691
			c0-0.364-0.214-0.696-0.545-0.847c-0.124-0.057-0.257-0.086-0.388-0.086c-0.22,0-0.438,0.079-0.61,0.228L18.559,15.271
			c-0.204,0.177-0.322,0.434-0.322,0.703c0,0.271,0.116,0.528,0.321,0.707l11.897,10.333C30.628,27.164,30.846,27.242,31.067,27.242
			L31.067,27.242z"/>
		<path id="path4348-2-1_20_" fill="#01ADDB" d="M31.067,26.309L19.169,15.976L31.067,5.691V26.309z"/>
		
			<linearGradient id="polygon2961_2_" gradientUnits="userSpaceOnUse" x1="9.7505" y1="-82.2158" x2="9.7505" y2="-66.5512" gradientTransform="matrix(-1 0 0 -1 35.1152 -58.0723)">
			<stop  offset="0" style="stop-color:#B2D3DC"/>
			<stop  offset="1" style="stop-color:#0A7C9F"/>
		</linearGradient>
		<polygon id="polygon2961" fill="url(#polygon2961_2_)" points="30.134,7.73 20.594,15.977 30.134,24.264 		"/>
	</g>
	<g id="g2969">
		<path id="path2965" fill="#010101" d="M3.322,27.241c0.516,0,0.933-0.416,0.933-0.933V5.691c0-0.514-0.417-0.933-0.933-0.933
			h-2.39C0.417,4.759,0,5.178,0,5.691v20.617c0,0.517,0.417,0.933,0.933,0.933H3.322z"/>
		<rect id="rect2967" x="0.933" y="5.691" fill="#01ADDB" width="2.39" height="20.617"/>
		
			<linearGradient id="rect2976_1_" gradientUnits="userSpaceOnUse" x1="27.4141" y1="-113.2148" x2="27.4141" y2="-94.519" gradientTransform="matrix(-1 0 0 -1 29.54 -87.8398)">
			<stop  offset="0" style="stop-color:#B2D3DC"/>
			<stop  offset="1" style="stop-color:#0A7C9F"/>
		</linearGradient>
		<rect id="rect2976" x="1.865" y="6.624" fill="url(#rect2976_1_)" width="0.524" height="18.751"/>
	</g>
	<g>
		<path id="path2947_1_" fill="#010101" d="M17.17,27.241c0.131,0,0.262-0.025,0.387-0.084c0.333-0.151,0.546-0.482,0.546-0.849
			V5.691c0-0.364-0.213-0.696-0.545-0.848c-0.124-0.057-0.257-0.085-0.388-0.085c-0.22,0-0.438,0.078-0.61,0.228L4.661,15.271
			c-0.204,0.177-0.322,0.434-0.322,0.703c0,0.271,0.116,0.528,0.321,0.707l11.897,10.333C16.73,27.163,16.948,27.241,17.17,27.241
			L17.17,27.241z"/>
		<path id="path4348-2-1_1_" fill="#01ADDB" d="M17.17,26.309L5.271,15.976L17.17,5.691V26.309z"/>
		
			<linearGradient id="polygon2961_3_" gradientUnits="userSpaceOnUse" x1="23.6484" y1="-82.2158" x2="23.6484" y2="-66.5507" gradientTransform="matrix(-1 0 0 -1 35.1152 -58.0723)">
			<stop  offset="0" style="stop-color:#B2D3DC"/>
			<stop  offset="1" style="stop-color:#0A7C9F"/>
		</linearGradient>
		<polygon id="polygon2961_1_" fill="url(#polygon2961_3_)" points="16.237,7.729 6.696,15.977 16.237,24.264 		"/>
	</g>
</g>
</svg>
