<?xml version="1.0" encoding="utf-8"?>
<!-- Generator: Adobe Illustrator 14.0.0, SVG Export Plug-In . SVG Version: 6.00 Build 43363)  -->
<!DOCTYPE svg PUBLIC "-//W3C//DTD SVG 1.1//EN" "http://www.w3.org/Graphics/SVG/1.1/DTD/svg11.dtd">
<svg version="1.1" id="Layer_1" xmlns="http://www.w3.org/2000/svg" xmlns:xlink="http://www.w3.org/1999/xlink" x="0px" y="0px"
	 width="32px" height="32px" viewBox="0 0 32 32" enable-background="new 0 0 32 32" xml:space="preserve">
<path id="path4993_9_" fill="#030404" d="M3.688,28.644c-1.918,0-3.478-1.68-3.478-3.748V6.921c0-0.982,0.349-1.91,0.979-2.613
	c0.66-0.732,1.547-1.137,2.5-1.137h25.048c1.916,0,3.473,1.68,3.473,3.75v17.977c0,2.066-1.557,3.746-3.473,3.746H3.688
	L3.688,28.644z"/>
<path id="rect26074_9_" fill="#FFFFFF" d="M3.688,4.218h25.046c1.346,0,2.43,1.203,2.43,2.703v17.977
	c0,1.496-1.084,2.699-2.43,2.699H3.688c-1.348,0-2.431-1.203-2.431-2.699V6.921C1.257,5.427,2.341,4.218,3.688,4.218z"/>
<linearGradient id="SVGID_1_" gradientUnits="userSpaceOnUse" x1="874.9561" y1="-1208.1328" x2="852.0314" y2="-1192.3833" gradientTransform="matrix(1 0 0 -1 -844.6201 -1182.5195)">
	<stop  offset="0" style="stop-color:#020202;stop-opacity:0.21"/>
	<stop  offset="1" style="stop-color:#020202;stop-opacity:0"/>
</linearGradient>
<path fill="url(#SVGID_1_)" d="M3.688,26.55c-0.764,0-1.385-0.74-1.385-1.652V6.921c0-0.914,0.621-1.656,1.385-1.656h25.046
	c0.764,0,1.383,0.742,1.383,1.656v17.977c0,0.912-0.621,1.652-1.383,1.652H3.688z"/>
<linearGradient id="path26098_1_" gradientUnits="userSpaceOnUse" x1="2167.123" y1="-3927.9033" x2="2167.123" y2="-3925.0537" gradientTransform="matrix(1 0 0 -1 -2150.9141 -3920.1836)">
	<stop  offset="0" style="stop-color:#2C61AD"/>
	<stop  offset="1" style="stop-color:#B1D3EF"/>
</linearGradient>
<path id="path26098_9_" fill="url(#path26098_1_)" d="M3.701,4.218c-1.347,0-2.455,1.109-2.455,2.455V7.72h29.925V6.673
	c0-1.346-1.11-2.455-2.455-2.455H3.701z"/>
<polyline fill="none" stroke="#ED2526" points="2.064,15.818 5.178,19.49 8.962,11.07 11.466,21.615 13.915,13.286 15.899,17.74 
	18.899,14.799 20.565,17.111 23.274,13.902 26.616,20.152 29.935,14.799 "/>
<g>
	<rect x="71.985" y="-38.5" fill="#F9A620" width="7.992" height="7.992"/>
	<linearGradient id="SVGID_2_" gradientUnits="userSpaceOnUse" x1="71.9854" y1="-26.5117" x2="79.9775" y2="-26.5117">
		<stop  offset="0" style="stop-color:#FFF3DF"/>
		<stop  offset="0.5394" style="stop-color:#F9A620"/>
		<stop  offset="1" style="stop-color:#A36628"/>
	</linearGradient>
	<rect x="71.985" y="-30.508" fill="url(#SVGID_2_)" width="7.992" height="7.992"/>
	<rect x="63.993" y="-38.5" fill="#ED2526" width="7.992" height="7.992"/>
	<linearGradient id="SVGID_3_" gradientUnits="userSpaceOnUse" x1="63.9932" y1="-26.5117" x2="71.9854" y2="-26.5117">
		<stop  offset="0" style="stop-color:#F59699"/>
		<stop  offset="1" style="stop-color:#8F1A1D"/>
	</linearGradient>
	<rect x="63.993" y="-30.508" fill="url(#SVGID_3_)" width="7.992" height="7.992"/>
	<rect x="80.008" y="-38.5" fill="#00ACDA" width="7.992" height="7.992"/>
	
		<linearGradient id="SVGID_4_" gradientUnits="userSpaceOnUse" x1="79.8252" y1="-26.252" x2="87.8174" y2="-26.252" gradientTransform="matrix(1 -7.000000e-004 7.000000e-004 1 0.2014 -0.2014)">
		<stop  offset="0" style="stop-color:#B1D2DB"/>
		<stop  offset="1" style="stop-color:#0B7C9E"/>
	</linearGradient>
	<polygon fill="url(#SVGID_4_)" points="88.003,-22.519 80.011,-22.513 80.005,-30.505 87.997,-30.511 	"/>
	<rect x="56" y="-38.5" fill="#6EBD46" width="7.993" height="7.992"/>
	<linearGradient id="SVGID_5_" gradientUnits="userSpaceOnUse" x1="56" y1="-26.5117" x2="63.9932" y2="-26.5117">
		<stop  offset="0" style="stop-color:#B0D68C"/>
		<stop  offset="1" style="stop-color:#1E9046"/>
	</linearGradient>
	<rect x="56" y="-30.508" fill="url(#SVGID_5_)" width="7.993" height="7.992"/>
</g>
</svg>
