<?xml version="1.0" encoding="UTF-8" standalone="no"?>
<!-- Generator: Adobe Illustrator 14.0.0, SVG Export Plug-In . SVG Version: 6.00 Build 43363)  -->
<svg
   xmlns:dc="http://purl.org/dc/elements/1.1/"
   xmlns:cc="http://web.resource.org/cc/"
   xmlns:rdf="http://www.w3.org/1999/02/22-rdf-syntax-ns#"
   xmlns:svg="http://www.w3.org/2000/svg"
   xmlns="http://www.w3.org/2000/svg"
   xmlns:sodipodi="http://sodipodi.sourceforge.net/DTD/sodipodi-0.dtd"
   xmlns:inkscape="http://www.inkscape.org/namespaces/inkscape"
   version="1.1"
   id="Layer_1"
   x="0px"
   y="0px"
   width="32px"
   height="32px"
   viewBox="0 0 32 32"
   enable-background="new 0 0 32 32"
   xml:space="preserve"
   sodipodi:version="0.32"
   inkscape:version="0.45.1"
   sodipodi:docname="img66GFVNBEWFCAFCNJ7RLOV3TR5I.svg"
   inkscape:output_extension="org.inkscape.output.svg.inkscape"
   sodipodi:docbase="D:\radix\dev\trunk\org.radixware\ads\Workflow\img"><metadata
   id="metadata65"><rdf:RDF><cc:Work
       rdf:about=""><dc:format>image/svg+xml</dc:format><dc:type
         rdf:resource="http://purl.org/dc/dcmitype/StillImage" /></cc:Work></rdf:RDF></metadata><defs
   id="defs63" /><sodipodi:namedview
   inkscape:window-height="480"
   inkscape:window-width="640"
   inkscape:pageshadow="2"
   inkscape:pageopacity="0.0"
   guidetolerance="10.0"
   gridtolerance="10.0"
   objecttolerance="10.0"
   borderopacity="1.0"
   bordercolor="#666666"
   pagecolor="#ffffff"
   id="base" />
<g
   id="g3"
   transform="translate(2,0)">
	<path
   d="M 13.981,32 C 6.271,32 0,25.729 0,18.019 C 0,10.309 6.271,4.038 13.981,4.038 C 21.689,4.038 27.963,10.309 27.963,18.019 C 27.963,25.729 21.689,32 13.981,32 L 13.981,32 z "
   id="path5"
   style="fill:#010101" />
	<path
   d="M 13.13,5.871 C 12.615,5.871 12.198,5.453 12.198,4.939 L 12.198,4.35 L 10.474,4.35 C 9.959,4.35 9.542,3.932 9.542,3.418 L 9.542,0.932 C 9.542,0.417 9.96,0 10.475,0 L 17.487,0 C 18.003,0 18.421,0.417 18.421,0.932 L 18.421,3.418 C 18.421,3.932 18.003,4.35 17.487,4.35 L 15.762,4.35 L 15.762,4.939 C 15.762,5.453 15.345,5.871 14.83,5.871 L 13.13,5.871 L 13.13,5.871 z "
   id="path7" />
	<circle
   cx="13.981"
   cy="18.018"
   r="13.108"
   id="circle9"
   sodipodi:cx="13.981"
   sodipodi:cy="18.018"
   sodipodi:rx="13.108"
   sodipodi:ry="13.108"
   style="fill:#03addb" />
	
		<linearGradient
   id="SVGID_1_"
   gradientUnits="userSpaceOnUse"
   x1="-0.71240002"
   y1="-105.8584"
   x2="23.7549"
   y2="-105.8584"
   gradientTransform="matrix(1,0,0,-1,2.46,-87.8398)">
		<stop
   offset="0"
   style="stop-color:#B2D3DC"
   id="stop12" />
		<stop
   offset="1"
   style="stop-color:#117C9F"
   id="stop14" />
	</linearGradient>
	<path
   d="M 13.981,30.252 C 7.236,30.252 1.748,24.764 1.748,18.019 C 1.748,11.273 7.237,5.786 13.981,5.786 C 20.727,5.786 26.215,11.273 26.215,18.019 C 26.215,24.764 20.727,30.252 13.981,30.252 L 13.981,30.252 z "
   id="path16"
   style="fill:url(#SVGID_1_)" />
	
		<radialGradient
   id="SVGID_2_"
   cx="9.0332003"
   cy="-101.2813"
   r="14.2855"
   gradientTransform="matrix(1,0,0,-1,2.46,-87.8398)"
   gradientUnits="userSpaceOnUse">
		<stop
   offset="0"
   style="stop-color:#FFFFFF"
   id="stop19" />
		<stop
   offset="0.5394"
   style="stop-color:#F7F8F9"
   id="stop21" />
		<stop
   offset="1"
   style="stop-color:#A2A1A2"
   id="stop23" />
	</radialGradient>
	<path
   d="M 13.981,27.572 C 8.712,27.572 4.427,23.287 4.427,18.018 C 4.427,12.75 8.712,8.465 13.981,8.465 C 19.25,8.465 23.535,12.75 23.535,18.018 C 23.535,23.287 19.25,27.572 13.981,27.572 L 13.981,27.572 z "
   id="path25"
   style="fill:url(#SVGID_2_)" />
	
		<rect
   x="10.718"
   y="10.517"
   transform="matrix(-0.8138,0.5811,-0.5811,-0.8138,29.4421,19.6832)"
   width="1.7"
   height="8.0830002"
   id="rect27"
   style="fill:#010101" />
	
		<rect
   x="9.8070002"
   y="16.507"
   transform="matrix(0.7074,0.7068,-0.7068,0.7074,18.1685,-1.3019)"
   width="1.699"
   height="9.573"
   id="rect29"
   style="fill:#010101" />
	<circle
   cx="13.98"
   cy="18.018999"
   r="1.5369999"
   id="circle31"
   sodipodi:cx="13.98"
   sodipodi:cy="18.018999"
   sodipodi:rx="1.5369999"
   sodipodi:ry="1.5369999"
   style="fill:#010101" />
	<polygon
   points="17.486,0.932 10.475,0.932 10.475,3.418 13.13,3.418 13.13,4.939 14.83,4.939 14.83,3.418 17.486,3.418 17.486,0.932 "
   id="polygon33"
   style="fill:#03addb" />
	<linearGradient
   id="SVGID_3_"
   gradientUnits="userSpaceOnUse"
   x1="11.4067"
   y1="2.4491999"
   x2="16.555201"
   y2="2.4491999">
		<stop
   offset="0"
   style="stop-color:#B2D3DC"
   id="stop36" />
		<stop
   offset="1"
   style="stop-color:#117C9F"
   id="stop38" />
	</linearGradient>
	<path
   d="M 13.98,3.034 C 13.834,2.711 13.509,2.486 13.13,2.486 L 11.406,2.486 L 11.406,1.864 L 16.554,1.864 L 16.554,2.486 L 14.83,2.486 C 14.452,2.486 14.126,2.71 13.98,3.034 L 13.98,3.034 z "
   id="path40"
   style="fill:url(#SVGID_3_)" />
	<path
   d="M 3.201,8.992 C 2.929,8.992 2.66,8.874 2.475,8.646 L 1.304,7.197 C 1.148,7.004 1.076,6.758 1.102,6.513 C 1.128,6.267 1.25,6.041 1.443,5.886 L 5.068,2.957 C 5.241,2.818 5.448,2.749 5.653,2.749 C 5.924,2.749 6.194,2.867 6.379,3.096 L 7.55,4.545 C 7.873,4.945 7.811,5.532 7.411,5.856 L 3.786,8.786 C 3.614,8.925 3.407,8.992 3.201,8.992 L 3.201,8.992 z "
   id="path42" />
	
		<rect
   x="2.0969999"
   y="4.9390001"
   transform="matrix(0.7778,-0.6286,0.6286,0.7778,-2.7063,4.0874)"
   width="4.6599998"
   height="1.864"
   id="rect44"
   style="fill:#03addb" />
	<path
   d="M 25.254,9.277 C 25.525,9.277 25.793,9.159 25.979,8.931 L 27.151,7.482 C 27.307,7.289 27.38,7.044 27.352,6.797 C 27.327,6.551 27.204,6.326 27.012,6.17 L 23.387,3.241 C 23.215,3.102 23.006,3.033 22.801,3.033 C 22.53,3.033 22.26,3.152 22.076,3.38 L 20.904,4.83 C 20.58,5.23 20.642,5.818 21.043,6.141 L 24.668,9.071 C 24.84,9.209 25.047,9.277 25.254,9.277 L 25.254,9.277 z "
   id="path46" />
	
		<rect
   x="21.697001"
   y="5.224"
   transform="matrix(-0.7778,-0.6285,0.6285,-0.7778,38.8468,26.0455)"
   width="4.6609998"
   height="1.864"
   id="rect48"
   style="fill:#03addb" />
</g>
<g
   id="g50">
	
	
	<linearGradient
   id="polygon4061_1_"
   gradientUnits="userSpaceOnUse"
   x1="17.4316"
   y1="13.0249"
   x2="28.9688"
   y2="13.0249">
		<stop
   offset="0"
   style="stop-color:#FFF3E0"
   id="stop55" />
		<stop
   offset="0.5394"
   style="stop-color:#FAA820"
   id="stop57" />
		<stop
   offset="1"
   style="stop-color:#A56629"
   id="stop59" />
	</linearGradient>
	
</g>
</svg>