<?xml version="1.0" encoding="utf-8"?>
<!-- Generator: Adobe Illustrator 14.0.0, SVG Export Plug-In . SVG Version: 6.00 Build 43363)  -->
<!DOCTYPE svg PUBLIC "-//W3C//DTD SVG 1.1//EN" "http://www.w3.org/Graphics/SVG/1.1/DTD/svg11.dtd">
<svg version="1.1" id="Layer_1" xmlns="http://www.w3.org/2000/svg" xmlns:xlink="http://www.w3.org/1999/xlink" x="0px" y="0px"
	 width="32px" height="32px" viewBox="0 0 32 32" enable-background="new 0 0 32 32" xml:space="preserve">
<g>
	<path fill="#231F20" d="M0.926,24.293C0.414,24.293,0,23.878,0,23.368V0.926C0,0.415,0.414,0,0.926,0h26.442
		c0.512,0,0.926,0.415,0.926,0.926v22.442c0,0.51-0.414,0.925-0.926,0.925H0.926z"/>
	<rect x="0.926" y="0.926" fill="#DAEBF2" width="26.442" height="22.442"/>
	
		<linearGradient id="SVGID_1_" gradientUnits="userSpaceOnUse" x1="561.5459" y1="-901.5645" x2="587.9883" y2="-901.5645" gradientTransform="matrix(1 0 0 -1 -560.6201 -897.5195)">
		<stop  offset="0" style="stop-color:#B2D2DB"/>
		<stop  offset="1" style="stop-color:#077D9E"/>
	</linearGradient>
	<rect x="0.926" y="0.926" fill="url(#SVGID_1_)" width="26.442" height="6.238"/>
	<line fill="none" stroke="#231F20" x1="0.926" y1="7.164" x2="27.368" y2="7.164"/>
	<line fill="none" stroke="#231F20" x1="0.926" y1="12.5" x2="27.368" y2="12.5"/>
	<line fill="none" stroke="#231F20" x1="0.926" y1="18.363" x2="27.368" y2="18.363"/>
	<line fill="none" stroke="#231F20" x1="9.47" y1="7.179" x2="9.47" y2="23.382"/>
	<line fill="none" stroke="#231F20" x1="18.882" y1="7.21" x2="18.882" y2="23.413"/>
</g>
<g>
	<path fill="#010101" d="M31.509,0.062c-0.097-0.04-0.2-0.062-0.308-0.061L24.559,0c-0.212,0-0.415,0.084-0.565,0.234
		c-0.149,0.15-0.233,0.353-0.233,0.565v22.774c0,0.009,0.006,0.019,0.006,0.029c0.003,0.087,0.015,0.177,0.048,0.261l2.444,6.259
		c0.006,0.011,0.012,0.017,0.016,0.028c0.006,0.012,0.008,0.026,0.014,0.039l0.688,1.37c0.136,0.27,0.413,0.441,0.715,0.44
		l0.33-0.001c0.215,0,0.418-0.087,0.565-0.234c0.06-0.059,0.108-0.128,0.147-0.205l0.69-1.37c0.007-0.013,0.008-0.027,0.015-0.04
		c0.004-0.009,0.012-0.015,0.014-0.023l2.492-6.259c0.034-0.087,0.046-0.177,0.05-0.267c0.001-0.009,0.006-0.019,0.007-0.029V0.8
		c0.001-0.108-0.022-0.212-0.062-0.309C31.857,0.299,31.702,0.144,31.509,0.062z"/>
	<rect x="24.561" y="0.798" fill="#70BE46" width="6.642" height="22.773"/>
	
		<linearGradient id="SVGID_2_" gradientUnits="userSpaceOnUse" x1="22.8301" y1="-107.7344" x2="26.3219" y2="-111.2261" gradientTransform="matrix(0.7071 -0.7071 -0.7071 -0.7071 -67 -47.8519)">
		<stop  offset="0" style="stop-color:#B0D68C"/>
		<stop  offset="1" style="stop-color:#219146"/>
	</linearGradient>
	<polygon fill="url(#SVGID_2_)" points="25.359,22.772 25.357,1.598 30.402,1.6 30.402,22.772 	"/>
	<polygon fill="#F9A720" points="27.003,29.832 28.709,29.832 31.201,23.572 24.559,23.573 	"/>
	
		<linearGradient id="SVGID_3_" gradientUnits="userSpaceOnUse" x1="12.5161" y1="-117.9517" x2="15.8665" y2="-121.302" gradientTransform="matrix(0.7071 -0.7071 -0.7071 -0.7071 -67 -47.8519)">
		<stop  offset="0" style="stop-color:#FFF3E0"/>
		<stop  offset="0.5394" style="stop-color:#F9A720"/>
		<stop  offset="1" style="stop-color:#A36728"/>
	</linearGradient>
	<polygon fill="url(#SVGID_3_)" points="27.549,29.033 25.73,24.371 30.023,24.372 28.168,29.032 	"/>
	<polygon fill="#231F20" points="27.003,29.832 28.709,29.832 28.021,31.201 27.689,31.201 	"/>
	<rect x="24.56" y="0.798" fill="#ED2A28" width="6.642" height="3.426"/>
	
		<linearGradient id="SVGID_4_" gradientUnits="userSpaceOnUse" x1="29.5684" y1="-100.7983" x2="33.2709" y2="-104.5008" gradientTransform="matrix(0.7071 -0.7071 -0.7071 -0.7071 -67 -47.8519)">
		<stop  offset="0" style="stop-color:#F5969A"/>
		<stop  offset="1" style="stop-color:#901C1E"/>
	</linearGradient>
	<polygon fill="url(#SVGID_4_)" points="25.359,3.428 25.359,1.6 30.402,1.6 30.4,3.426 	"/>
</g>
</svg>
