<?xml version="1.0" encoding="utf-8"?>
<!-- Generator: Adobe Illustrator 14.0.0, SVG Export Plug-In . SVG Version: 6.00 Build 43363)  -->
<!DOCTYPE svg PUBLIC "-//W3C//DTD SVG 1.1//EN" "http://www.w3.org/Graphics/SVG/1.1/DTD/svg11.dtd">
<svg version="1.1" id="Layer_1" xmlns="http://www.w3.org/2000/svg" xmlns:xlink="http://www.w3.org/1999/xlink" x="0px" y="0px"
	 width="32px" height="32px" viewBox="0 0 32 32" enable-background="new 0 0 32 32" xml:space="preserve">
<g>
	<g>
		<g>
			<path id="path4993_4_" fill="#040505" d="M3.478,25.473C1.56,25.473,0,23.793,0,21.725V3.75c0-0.982,0.349-1.91,0.979-2.613
				C1.639,0.405,2.526,0,3.479,0h25.048C30.443,0,32,1.68,32,3.75v17.977c0,2.066-1.557,3.746-3.473,3.746H3.478L3.478,25.473z"/>
			<path id="rect26074_4_" fill="#FFFFFF" d="M3.478,1.047h25.046c1.346,0,2.43,1.203,2.43,2.703v17.977
				c0,1.496-1.084,2.699-2.43,2.699H3.478c-1.348,0-2.431-1.203-2.431-2.699V3.75C1.047,2.256,2.131,1.047,3.478,1.047z"/>
			
				<linearGradient id="SVGID_1_" gradientUnits="userSpaceOnUse" x1="1437.8291" y1="-2012.6416" x2="1414.9045" y2="-1996.8921" gradientTransform="matrix(1 0 0 -1 -1407.7002 -1990.1992)">
				<stop  offset="0" style="stop-color:#030303;stop-opacity:0.21"/>
				<stop  offset="1" style="stop-color:#030303;stop-opacity:0"/>
			</linearGradient>
			<path fill="url(#SVGID_1_)" d="M3.478,23.38c-0.764,0-1.385-0.74-1.385-1.651V3.751c0-0.914,0.621-1.656,1.385-1.656h25.046
				c0.764,0,1.383,0.742,1.383,1.656v17.978c0,0.911-0.621,1.651-1.383,1.651H3.478z"/>
			
				<linearGradient id="path26098_1_" gradientUnits="userSpaceOnUse" x1="2729.9922" y1="-4732.4121" x2="2729.9922" y2="-4729.5625" gradientTransform="matrix(1 0 0 -1 -2713.9941 -4727.8633)">
				<stop  offset="0" style="stop-color:#2D61AD"/>
				<stop  offset="1" style="stop-color:#B3D4EF"/>
			</linearGradient>
			<path id="path26098_4_" fill="url(#path26098_1_)" d="M3.491,1.047c-1.347,0-2.455,1.109-2.455,2.455v1.047h29.925V3.502
				c0-1.346-1.109-2.455-2.455-2.455H3.491z"/>
		</g>
	</g>
	<g>
		<path id="path4948_1_" fill="#030303" d="M21.715,11.562c-0.084,0.084-0.207,0.118-0.322,0.092
			c-0.113-0.026-0.209-0.11-0.25-0.221l-0.313-0.895c-0.045-0.126-0.013-0.266,0.08-0.359l0.244-0.244
			c0.094-0.092,0.229-0.125,0.354-0.083l0.907,0.304c0.113,0.038,0.199,0.132,0.228,0.249c0.027,0.116-0.008,0.238-0.094,0.323
			L21.715,11.562L21.715,11.562z"/>
		<path id="path4951_1_" fill="#030303" d="M24.178,14.033c-0.135,0.136-0.354,0.136-0.486,0l-2.322-2.323
			c-0.064-0.065-0.104-0.152-0.104-0.244c0-0.091,0.035-0.179,0.104-0.244l0.855-0.856c0.137-0.136,0.354-0.135,0.488,0l2.322,2.322
			c0.064,0.065,0.102,0.152,0.102,0.244c0,0.092-0.037,0.179-0.102,0.244L24.178,14.033z"/>
		
			<linearGradient id="rect3806_2_" gradientUnits="userSpaceOnUse" x1="-25.0542" y1="3661.3213" x2="-23.8716" y2="3661.3213" gradientTransform="matrix(0.7071 -0.7071 0.7071 0.7071 -2550.0317 -2595.6284)">
			<stop  offset="0" style="stop-color:#5BCAEC"/>
			<stop  offset="1" style="stop-color:#0B7B94"/>
		</linearGradient>
		<path id="rect3806_1_" fill="url(#rect3806_2_)" d="M21.16,10.415l0.244-0.245l0.908,0.305l-0.836,0.836L21.16,10.415
			L21.16,10.415z"/>
		
			<linearGradient id="rect3809_2_" gradientUnits="userSpaceOnUse" x1="-23.8413" y1="3663.7451" x2="-25.2209" y2="3663.7451" gradientTransform="matrix(0.7071 -0.7071 0.7071 0.7071 -2550.1362 -2595.7339)">
			<stop  offset="0" style="stop-color:#A56829"/>
			<stop  offset="0.5" style="stop-color:#FBA91E"/>
			<stop  offset="1" style="stop-color:#FFF4E2"/>
		</linearGradient>
		<polygon id="rect3809_1_" fill="url(#rect3809_2_)" points="21.618,11.46 22.475,10.602 24.797,12.925 23.939,13.781 		"/>
		
			<rect id="rect4968_1_" x="22.947" y="10.895" transform="matrix(0.7071 -0.7071 0.7071 0.7071 -1.8235 19.9815)" fill="#FBA91E" width="0.522" height="2.594"/>
		<path id="path4971_1_" fill="#030303" d="M21.785,10.783c-0.514,0.514-1.197,0.797-1.926,0.797c-1.502,0-2.725-1.222-2.723-2.723
			c0-0.728,0.283-1.412,0.797-1.926c0.514-0.514,1.197-0.797,1.926-0.797c1.501,0.001,2.723,1.223,2.723,2.723
			C22.582,9.585,22.299,10.269,21.785,10.783L21.785,10.783z"/>
		<path id="path3707_1_" fill="#08ACDA" d="M22.238,8.857c0.001,1.312-1.064,2.378-2.377,2.377c-1.313,0-2.378-1.065-2.378-2.377
			c-0.001-1.312,1.065-2.378,2.378-2.378S22.238,7.544,22.238,8.857z"/>
		
			<linearGradient id="path4980_2_" gradientUnits="userSpaceOnUse" x1="336.125" y1="2373.7441" x2="340.1895" y2="2373.7441" gradientTransform="matrix(0.7071 -0.7071 0.7071 0.7071 -1897.7201 -1430.5127)">
			<stop  offset="0" style="stop-color:#B1D2DB"/>
			<stop  offset="1" style="stop-color:#167D9F"/>
		</linearGradient>
		<path id="path4980_1_" fill="url(#path4980_2_)" d="M21.303,10.288c-0.383,0.384-0.894,0.595-1.438,0.595
			c-1.12,0-2.033-0.912-2.033-2.032c0.002-0.543,0.213-1.055,0.596-1.438c0.387-0.384,0.896-0.596,1.438-0.595
			c1.121,0,2.033,0.912,2.033,2.032C21.898,9.394,21.688,9.904,21.303,10.288L21.303,10.288z"/>
		
			<radialGradient id="path3747_2_" cx="2473.8018" cy="652.4678" r="2.086" gradientTransform="matrix(1.0901 0.4253 -0.5098 1.3173 -2345.2415 -1903.9054)" gradientUnits="userSpaceOnUse">
			<stop  offset="0" style="stop-color:#FFFFFF"/>
			<stop  offset="0.4706" style="stop-color:#FFFFFF;stop-opacity:0.7866"/>
			<stop  offset="1" style="stop-color:#FFFFFF;stop-opacity:0"/>
		</radialGradient>
		<path id="path3747_1_" fill="url(#path3747_2_)" d="M19.729,6.826c-0.648,0.045-1.268,0.411-1.619,1.023
			c-0.443,0.772-0.332,1.695,0.211,2.333c0.371-0.28,0.855-0.719,1.461-1.858c0.318-0.602,0.617-1.033,0.893-1.33
			C20.365,6.86,20.045,6.804,19.729,6.826z"/>
	</g>
	<g>
		<path fill="#010101" d="M9.845,14.088c-0.04,0-0.081-0.01-0.117-0.029l-2.201-1.158l-2.202,1.158
			c-0.036,0.021-0.077,0.029-0.116,0.029c-0.052,0-0.103-0.018-0.147-0.049c-0.077-0.057-0.116-0.15-0.099-0.244l0.42-2.451
			L3.602,9.608C3.533,9.542,3.509,9.442,3.539,9.352c0.029-0.09,0.107-0.156,0.201-0.17l2.461-0.358l1.101-2.23
			c0.042-0.085,0.129-0.14,0.224-0.14l0,0c0.095,0,0.182,0.054,0.224,0.14l1.101,2.23l2.461,0.358
			c0.095,0.014,0.173,0.08,0.201,0.17c0.03,0.09,0.006,0.189-0.063,0.256l-1.78,1.736l0.421,2.451
			c0.016,0.094-0.023,0.188-0.1,0.244C9.948,14.07,9.896,14.088,9.845,14.088L9.845,14.088z"/>
		<polygon fill="#F9A71E" points="7.527,6.705 8.685,9.053 11.277,9.429 9.402,11.257 9.845,13.838 7.527,12.62 5.209,13.838 
			5.652,11.257 3.777,9.429 6.368,9.053 		"/>
		
			<linearGradient id="SVGID_2_" gradientUnits="userSpaceOnUse" x1="567.3945" y1="820.0049" x2="573.8203" y2="820.0049" gradientTransform="matrix(1 0 0 1 -563.0801 -809.6797)">
			<stop  offset="0" style="stop-color:#FFF3E0"/>
			<stop  offset="0.5394" style="stop-color:#F9A71E"/>
			<stop  offset="1" style="stop-color:#A36728"/>
		</linearGradient>
		<polygon fill="url(#SVGID_2_)" points="7.527,12.337 5.541,13.381 5.921,11.17 4.314,9.604 6.534,9.281 7.527,7.27 8.52,9.281 
			10.74,9.604 9.134,11.17 9.513,13.381 		"/>
	</g>
	<g>
		<path fill="#010101" d="M17.868,21.986c-0.138,0-0.25-0.11-0.25-0.25v-5c0-0.138,0.112-0.25,0.25-0.25h7.5
			c0.138,0,0.25,0.112,0.25,0.25v5c0,0.14-0.112,0.25-0.25,0.25H17.868z"/>
		<rect x="17.868" y="16.736" fill="#FFFFFF" width="7.5" height="5"/>
		<line fill="none" stroke="#010101" stroke-width="0.25" x1="17.868" y1="21.736" x2="20.76" y2="18.665"/>
		<line fill="none" stroke="#010101" stroke-width="0.25" x1="25.368" y1="21.736" x2="22.477" y2="18.665"/>
		<polyline fill="none" stroke="#010101" stroke-width="0.25" points="25.368,16.736 21.618,19.236 17.868,16.736 		"/>
		
			<linearGradient id="SVGID_3_" gradientUnits="userSpaceOnUse" x1="584.6992" y1="826.5" x2="584.6992" y2="827.8762" gradientTransform="matrix(1 0 0 1 -563.0801 -809.6797)">
			<stop  offset="0" style="stop-color:#B4B2B4;stop-opacity:0"/>
			<stop  offset="0.9104" style="stop-color:#B4B2B4;stop-opacity:0.9104"/>
			<stop  offset="1" style="stop-color:#B4B2B4"/>
		</linearGradient>
		<polygon fill="url(#SVGID_3_)" points="18.694,16.857 24.543,16.857 21.618,18.809 		"/>
		
			<linearGradient id="SVGID_4_" gradientUnits="userSpaceOnUse" x1="584.6982" y1="828.2461" x2="584.6982" y2="831.3234" gradientTransform="matrix(1 0 0 1 -563.0801 -809.6797)">
			<stop  offset="0" style="stop-color:#B4B2B4;stop-opacity:0"/>
			<stop  offset="0.9104" style="stop-color:#B4B2B4;stop-opacity:0.9104"/>
			<stop  offset="1" style="stop-color:#B4B2B4"/>
		</linearGradient>
		<polygon fill="url(#SVGID_4_)" points="18.447,21.596 21.618,18.227 24.789,21.596 		"/>
		
			<linearGradient id="SVGID_5_" gradientUnits="userSpaceOnUse" x1="583.3389" y1="828.835" x2="581.105" y2="828.835" gradientTransform="matrix(1 0 0 1 -563.0801 -809.6797)">
			<stop  offset="0" style="stop-color:#B4B2B4;stop-opacity:0"/>
			<stop  offset="0.9104" style="stop-color:#B4B2B4;stop-opacity:0.9104"/>
			<stop  offset="1" style="stop-color:#B4B2B4"/>
		</linearGradient>
		<polygon fill="url(#SVGID_5_)" points="18.014,17.204 20.27,18.708 18.014,21.105 		"/>
		
			<linearGradient id="SVGID_6_" gradientUnits="userSpaceOnUse" x1="-494.8232" y1="828.835" x2="-497.0591" y2="828.835" gradientTransform="matrix(-1 0 0 1 -471.8887 -809.6797)">
			<stop  offset="0" style="stop-color:#B4B2B4;stop-opacity:0"/>
			<stop  offset="0.9104" style="stop-color:#B4B2B4;stop-opacity:0.9104"/>
			<stop  offset="1" style="stop-color:#B4B2B4"/>
		</linearGradient>
		<polygon fill="url(#SVGID_6_)" points="25.18,17.204 22.926,18.708 25.18,21.105 		"/>
	</g>
	<g>
		<path fill="#010101" d="M11.058,18.202l-3.343-2.109c-0.041-0.026-0.088-0.038-0.134-0.038c-0.046,0-0.093,0.012-0.134,0.038
			l-3.45,2.177C3.924,18.314,3.88,18.395,3.88,18.48v0.188c0,0.14,0.112,0.25,0.25,0.25h0.496v3.668c0,0.14,0.112,0.25,0.25,0.25
			h5.304c0.138,0,0.25-0.11,0.25-0.25v-3.668h0.495c0.139,0,0.25-0.11,0.25-0.25v-0.256C11.175,18.328,11.131,18.248,11.058,18.202z
			"/>
		<polygon fill="#ED2C2A" points="10.925,18.413 7.581,16.305 4.13,18.48 4.13,18.669 4.876,18.669 4.876,22.587 10.179,22.587 
			10.179,18.669 10.925,18.669 		"/>
		
			<linearGradient id="SVGID_7_" gradientUnits="userSpaceOnUse" x1="567.7764" y1="829.1484" x2="573.5469" y2="829.1484" gradientTransform="matrix(1 0 0 1 -563.0801 -809.6797)">
			<stop  offset="0" style="stop-color:#F5969A"/>
			<stop  offset="1" style="stop-color:#8F1D1E"/>
		</linearGradient>
		<polygon fill="url(#SVGID_7_)" points="5.126,22.337 5.126,18.419 4.696,18.419 7.581,16.6 10.466,18.419 9.929,18.419 
			9.929,22.337 		"/>
		<path fill="#010101" d="M4.06,19.089c-0.072,0-0.144-0.03-0.192-0.091l-0.283-0.34c-0.046-0.057-0.065-0.129-0.055-0.199
			c0.012-0.071,0.053-0.135,0.114-0.172l3.75-2.365c0.04-0.025,0.087-0.038,0.133-0.038c0.047,0,0.093,0.013,0.134,0.038l3.75,2.365
			c0.061,0.037,0.102,0.101,0.113,0.172c0.012,0.07-0.009,0.143-0.055,0.199l-0.283,0.34c-0.049,0.061-0.12,0.091-0.192,0.091
			c-0.045,0-0.091-0.013-0.132-0.038l-3.335-2.086l-3.334,2.086C4.152,19.077,4.106,19.089,4.06,19.089L4.06,19.089z"/>
		<polygon fill="#F9A71E" points="7.527,16.671 10.994,18.839 11.277,18.499 7.527,16.134 3.777,18.499 4.06,18.839 		"/>
		<path fill="#010101" d="M5.803,22.837c-0.138,0-0.25-0.11-0.25-0.25v-3.101c0-0.138,0.112-0.25,0.25-0.25h1.724
			c0.139,0,0.25,0.112,0.25,0.25v3.101c0,0.14-0.111,0.25-0.25,0.25H5.803z"/>
		<rect x="5.803" y="19.486" fill="#F9A71E" width="1.724" height="3.101"/>
		
			<linearGradient id="SVGID_8_" gradientUnits="userSpaceOnUse" x1="569.1328" y1="830.7168" x2="570.3574" y2="830.7168" gradientTransform="matrix(1 0 0 1 -563.0801 -809.6797)">
			<stop  offset="0" style="stop-color:#FFF3E0"/>
			<stop  offset="0.5394" style="stop-color:#F9A71E"/>
			<stop  offset="1" style="stop-color:#A36728"/>
		</linearGradient>
		<rect x="6.053" y="19.736" fill="url(#SVGID_8_)" width="1.224" height="2.601"/>
	</g>
</g>
<g>
	<path fill="#010101" d="M20.736,32c-0.082,0-0.166-0.018-0.242-0.053l-9.262-4.195c-0.213-0.096-0.348-0.309-0.344-0.543
		l0.063-4.135l-2.58-1.021c-0.173-0.068-0.303-0.215-0.352-0.394c-0.047-0.179-0.008-0.37,0.107-0.515l3.032-3.84
		c0.073-0.094,0.175-0.163,0.288-0.197l9.895-3.04c0.056-0.017,0.114-0.026,0.172-0.026c0.063,0,0.127,0.011,0.188,0.031l7.854,2.66
		c0.136,0.046,0.25,0.14,0.321,0.266l2.047,3.596c0.12,0.211,0.099,0.473-0.054,0.66c-0.113,0.139-0.282,0.217-0.455,0.217
		c-0.06,0-0.119-0.01-0.179-0.028l-1.282-0.41v5.516c0,0.212-0.114,0.407-0.298,0.511l-8.632,4.865
		C20.936,31.975,20.836,32,20.736,32L20.736,32z"/>
	<polygon fill="#906326" points="22.364,17.988 31.414,20.884 29.367,17.287 21.515,14.628 	"/>
	<polygon fill="#906326" points="11.619,17.667 21.515,14.628 21.515,23.889 11.476,27.218 	"/>
	<polygon fill="#5B3F16" points="21.515,14.628 29.367,17.287 29.367,26.548 21.515,23.889 	"/>
	<polygon fill="#F9A720" points="11.619,17.667 20.736,19.982 20.736,31.413 11.476,27.218 	"/>
	
		<linearGradient id="SVGID_9_" gradientUnits="userSpaceOnUse" x1="305.6211" y1="-401.6797" x2="305.6211" y2="-395.2443" gradientTransform="matrix(-1 0 0 -1 321.5391 -371.8398)">
		<stop  offset="0" style="stop-color:#FFF3E0"/>
		<stop  offset="0.5394" style="stop-color:#F9A720"/>
		<stop  offset="1" style="stop-color:#A36728"/>
	</linearGradient>
	<polygon fill="url(#SVGID_9_)" points="19.438,30.129 12.233,26.736 12.355,18.628 19.603,20.36 	"/>
	<path fill="#010101" d="M20.736,32c-0.103,0-0.204-0.027-0.296-0.08c-0.181-0.105-0.29-0.299-0.29-0.507V19.982
		c0-0.258,0.166-0.484,0.412-0.561l8.631-2.695c0.057-0.018,0.115-0.025,0.174-0.025c0.123,0,0.245,0.038,0.347,0.113
		c0.15,0.111,0.239,0.285,0.239,0.473v9.261c0,0.212-0.114,0.407-0.298,0.511l-8.632,4.865C20.936,31.975,20.835,32,20.736,32
		L20.736,32z"/>
	<polygon fill="#F9A720" points="20.736,19.982 29.367,17.287 29.367,26.548 20.736,31.413 	"/>
	
		<linearGradient id="SVGID_10_" gradientUnits="userSpaceOnUse" x1="293.1387" y1="-398.4131" x2="300.5138" y2="-393.2253" gradientTransform="matrix(-1 0 0 -1 321.5391 -371.8398)">
		<stop  offset="0" style="stop-color:#FFF3E0"/>
		<stop  offset="0.5394" style="stop-color:#F9A720"/>
		<stop  offset="1" style="stop-color:#A36728"/>
	</linearGradient>
	<polygon fill="url(#SVGID_10_)" points="21.486,30.129 21.486,20.533 28.617,18.307 28.617,26.109 	"/>
	<path fill="#010101" d="M17.198,25.501c-0.073,0-0.146-0.014-0.216-0.042l-8.609-3.407c-0.174-0.068-0.304-0.214-0.352-0.394
		c-0.047-0.178-0.008-0.369,0.106-0.515l3.032-3.841c0.113-0.143,0.284-0.223,0.46-0.223c0.048,0,0.097,0.006,0.145,0.019
		l8.798,2.323c0.183,0.047,0.105,0.113,0.174,0.289c0.068,0.178,0.104,0.264,0,0.422l-3.047,5.102
		C17.58,25.405,17.393,25.501,17.198,25.501L17.198,25.501z"/>
	<polygon fill="#F9A720" points="8.588,21.506 17.198,24.914 20.455,19.91 11.619,17.667 	"/>
	
		<linearGradient id="SVGID_11_" gradientUnits="userSpaceOnUse" x1="307.8125" y1="-394.6812" x2="306.4999" y2="-391.306" gradientTransform="matrix(-1 0 0 -1 321.5391 -371.8398)">
		<stop  offset="0" style="stop-color:#FFF3E0"/>
		<stop  offset="0.5394" style="stop-color:#F9A720"/>
		<stop  offset="1" style="stop-color:#A36728"/>
	</linearGradient>
	<polygon fill="url(#SVGID_11_)" points="16.904,23.992 9.801,21.18 11.907,18.514 19.256,20.379 	"/>
</g>
</svg>
