<?xml version="1.0" encoding="utf-8"?>
<!-- Generator: Adobe Illustrator 14.0.0, SVG Export Plug-In . SVG Version: 6.00 Build 43363)  -->
<!DOCTYPE svg PUBLIC "-//W3C//DTD SVG 1.1//EN" "http://www.w3.org/Graphics/SVG/1.1/DTD/svg11.dtd">
<svg version="1.1"
	 id="Layer_1" xmlns:svg="http://www.w3.org/2000/svg" xmlns:rdf="http://www.w3.org/1999/02/22-rdf-syntax-ns#" xmlns:sodipodi="http://sodipodi.sourceforge.net/DTD/sodipodi-0.dtd" xmlns:cc="http://creativecommons.org/ns#" xmlns:inkscape="http://www.inkscape.org/namespaces/inkscape" xmlns:dc="http://purl.org/dc/elements/1.1/" inkscape:version="0.47pre4 " sodipodi:docname="reserve.svg"
	 xmlns="http://www.w3.org/2000/svg" xmlns:xlink="http://www.w3.org/1999/xlink" x="0px" y="0px" width="32px" height="32px"
	 viewBox="0 0 32 32" enable-background="new 0 0 32 32" xml:space="preserve">
<defs>
	
	
		<inkscape:perspective  id="perspective102" sodipodi:type="inkscape:persp3d" inkscape:vp_y="0 : 1000 : 0" inkscape:vp_x="0 : 16 : 1" inkscape:vp_z="32 : 16 : 1" inkscape:persp3d-origin="16 : 10.666667 : 1">
		</inkscape:perspective>
</defs>
<sodipodi:namedview  id="namedview96" inkscape:cy="-7.4992035" inkscape:cx="-66.352497" inkscape:zoom="5.4700218" guidetolerance="10" showgrid="false" gridtolerance="10" objecttolerance="10" borderopacity="1" bordercolor="#666666" pagecolor="#ffffff" inkscape:window-maximized="1" inkscape:current-layer="Layer_1" inkscape:window-y="-4" inkscape:window-x="-4" inkscape:window-height="981" inkscape:window-width="1680" inkscape:pageshadow="2" inkscape:pageopacity="0">
	</sodipodi:namedview>
<g>
	<g id="g18">
		<path id="path20" d="M28.842,28.354c0,0.908-0.739,1.646-1.646,1.646h-4.919c-0.91,0-1.647-0.736-1.647-1.646l-0.001-13.691
			c0-0.78-0.126-4.665-2.612-4.665c-2.264,0-2.571,3.217-2.608,4.385h3.118c0.609,0,1.171,0.338,1.455,0.875
			c0.129,0.242,0.191,0.508,0.191,0.772c0,0.321-0.098,0.65-0.287,0.926l-6.858,10.057c-0.31,0.447-0.817,0.721-1.361,0.721
			c-0.545,0-1.054-0.271-1.362-0.721L3.445,16.956c-0.189-0.278-0.287-0.603-0.287-0.926c0-0.264,0.063-0.528,0.189-0.772
			c0.287-0.537,0.847-0.875,1.458-0.875h2.392v-1.586C7.197,6.845,12.037,2,17.988,2c0.597,0.003,1.606,0.125,1.738,0.142
			c5.313,0.866,9.115,5.344,9.115,10.655V28.354L28.842,28.354z"/>
		<path id="path22" fill="#FAA820" d="M19.527,3.778c-0.003,0-0.978-0.127-1.479-0.127c-0.01,0-0.047-0.003-0.06-0.003
			c-5.049,0-9.144,4.092-9.144,9.149v3.233H4.804l6.86,10.054l6.859-10.054h-4.768v-1.367c0-3.254,1.229-6.312,4.26-6.312
			c3.027,0,4.259,3.058,4.259,6.312l0.002,13.691h4.912V12.796C27.193,8.246,23.875,4.49,19.527,3.778z"/>
		
			<linearGradient id="path31_1_" gradientUnits="userSpaceOnUse" x1="568.373" y1="826.417" x2="589.7852" y2="826.417" gradientTransform="matrix(-4.371139e-008 -1 1 -4.371139e-008 -809.6801 595.0797)">
			<stop  offset="0" style="stop-color:#FFF3E0"/>
			<stop  offset="0.5394" style="stop-color:#FAA820"/>
			<stop  offset="1" style="stop-color:#A56629"/>
		</linearGradient>
		<path id="path31" fill="url(#path31_1_)" d="M25.548,26.707h-1.625l-0.001-12.044c0-4.837-2.316-7.959-5.906-7.959
			s-5.905,3.122-5.905,7.959v3.014h3.297l-3.742,5.488l-3.742-5.488h2.571v-4.88c0-4.139,3.363-7.502,7.497-7.502
			c0.442,0.003,1.15,0.097,1.305,0.109c3.625,0.608,6.254,3.709,6.254,7.386l0.001,13.917H25.548z"/>
	</g>
</g>
</svg>
