<?xml version="1.0" encoding="UTF-8" standalone="no"?>
<!-- Generator: Adobe Illustrator 14.0.0, SVG Export Plug-In . SVG Version: 6.00 Build 43363)  -->
<svg
   xmlns:dc="http://purl.org/dc/elements/1.1/"
   xmlns:cc="http://web.resource.org/cc/"
   xmlns:rdf="http://www.w3.org/1999/02/22-rdf-syntax-ns#"
   xmlns:svg="http://www.w3.org/2000/svg"
   xmlns="http://www.w3.org/2000/svg"
   xmlns:sodipodi="http://sodipodi.sourceforge.net/DTD/sodipodi-0.dtd"
   xmlns:inkscape="http://www.inkscape.org/namespaces/inkscape"
   version="1.1"
   id="Layer_1"
   x="0px"
   y="0px"
   width="32px"
   height="32px"
   viewBox="0 0 32 32"
   enable-background="new 0 0 32 32"
   xml:space="preserve"
   sodipodi:version="0.32"
   inkscape:version="0.45.1"
   sodipodi:docname="imgD2LY2OKLJZETTLJ734ZBIGGFTU.svg"
   inkscape:output_extension="org.inkscape.output.svg.inkscape"
   sodipodi:docbase="D:\radix\dev\trunk\org.radixware\ads\Workflow\img"><metadata
   id="metadata16"><rdf:RDF><cc:Work
       rdf:about=""><dc:format>image/svg+xml</dc:format><dc:type
         rdf:resource="http://purl.org/dc/dcmitype/StillImage" /></cc:Work></rdf:RDF></metadata><defs
   id="defs14" /><sodipodi:namedview
   inkscape:window-height="480"
   inkscape:window-width="640"
   inkscape:pageshadow="2"
   inkscape:pageopacity="0.0"
   guidetolerance="10.0"
   gridtolerance="10.0"
   objecttolerance="10.0"
   borderopacity="1.0"
   bordercolor="#666666"
   pagecolor="#ffffff"
   id="base" />
<path
   d="M 7.6126393,29.708223 C 6.1676393,29.708223 5.0326393,28.857401 5.0326393,27.768488 L 5.0326393,12.76443 C 5.0326393,11.784934 5.9496393,11.004138 7.1826393,10.85008 L 7.1826393,9.4442968 C 7.1826393,9.4442968 7.2246393,8.5820958 7.2306393,8.5567108 C 7.7436393,4.6466048 11.509639,1.6976127 16.003639,1.6976127 C 20.484639,1.6976127 24.256639,4.6457294 24.768639,8.5567108 C 24.776639,8.5987268 24.813639,9.3628908 24.813639,9.3628908 L 24.813639,10.924483 C 25.844639,11.182706 26.567639,11.898727 26.567639,12.767056 L 26.567639,27.77199 C 26.567639,28.857401 25.429639,29.708223 23.984639,29.708223 L 7.6126393,29.708223 L 7.6126393,29.708223 z M 17.378639,25.828754 L 16.214639,20.071698 C 16.121639,19.620902 16.363639,19.170982 16.815639,18.943395 C 17.409639,18.650159 17.762639,18.131963 17.762639,17.55512 C 17.762639,16.654403 16.920639,15.91825 15.893639,15.91825 C 14.858639,15.91825 14.024639,16.654403 14.024639,17.55512 C 14.024639,18.101326 14.344639,18.608143 14.883639,18.91626 C 15.291639,19.145597 15.508639,19.564881 15.429639,19.988541 L 14.372639,25.829629 L 17.378639,25.829629 L 17.378639,25.828754 z M 20.025639,10.824695 L 20.025639,9.2508488 C 20.012639,9.2175858 20.004639,9.1834478 19.996639,9.1475598 C 19.689639,7.2375862 17.973639,5.7994164 16.006639,5.7994164 C 14.029639,5.7994164 12.313639,7.2384615 12.008639,9.1475598 C 12.000639,9.1869498 11.990639,9.2228378 11.984639,9.2622278 L 11.984639,10.82382 L 20.025639,10.82382 L 20.025639,10.824695 z "
   id="path3"
   style="fill:#231f20" />
<path
   id="rect4086_4_"
   d="M 16.003639,2.7751459 C 12.111639,2.7751459 8.8846393,5.3880106 8.4526393,8.6853848 L 8.4526393,8.7440318 L 8.4196393,9.4162868 L 8.4196393,9.4469228 L 8.4196393,10.24435 L 8.4196393,10.471061 L 8.4196393,11.90748 L 7.6136393,11.90748 C 6.8596393,11.90748 6.2646393,12.293502 6.2646393,12.768807 L 6.2646393,27.771114 C 6.2646393,28.253422 6.8596393,28.635942 7.6136393,28.635942 L 23.987639,28.635942 C 24.746639,28.635942 25.341639,28.252547 25.341639,27.771114 L 25.341639,12.768807 C 25.341639,12.293502 24.746639,11.90748 23.987639,11.90748 L 23.585639,11.90748 L 23.585639,10.471061 L 23.585639,10.245226 L 23.585639,9.4477988 L 23.585639,9.4162868 L 23.552639,8.7414058 L 23.552639,8.6827588 C 23.117639,5.3880106 19.890639,2.7751459 16.003639,2.7751459 z M 16.003639,4.7218833 C 18.647639,4.7218833 20.826639,6.6073475 21.217639,8.9961278 L 21.254639,8.9961278 L 21.254639,9.0941648 C 21.254639,9.1020428 21.250639,9.1160478 21.254639,9.1274268 C 21.254639,9.1326788 21.254639,9.1440588 21.254639,9.1554378 L 21.254639,9.2499738 L 21.254639,11.900478 L 10.749639,11.900478 L 10.749639,9.2508488 C 10.752639,9.2368438 10.752639,9.2289658 10.749639,9.2202118 L 10.749639,9.1895758 C 10.752639,9.1755698 10.752639,9.1676918 10.749639,9.1589388 C 10.752639,9.1449338 10.752639,9.1335548 10.749639,9.1283028 L 10.749639,9.0950398 L 10.749639,8.9996288 L 10.784639,8.9996288 C 11.174639,6.6082228 13.355639,4.7218833 16.003639,4.7218833 z M 15.894639,14.840716 C 17.605639,14.840716 18.992639,16.059178 18.992639,17.558621 C 18.992639,18.565252 18.356639,19.419576 17.426639,19.884377 L 18.848639,26.908913 L 12.937639,26.908913 L 14.215639,19.818727 C 13.367639,19.337295 12.796639,18.509231 12.796639,17.557746 C 12.796639,16.058303 14.181639,14.840716 15.894639,14.840716 z "
   style="fill:#03addb" />
<linearGradient
   id="SVGID_1_"
   gradientUnits="userSpaceOnUse"
   x1="292.0078"
   y1="1113.8926"
   x2="308.6211"
   y2="1113.8926"
   gradientTransform="matrix(1,0,0,0.8753316,-284.51246,-954.75942)">
	<stop
   offset="0"
   style="stop-color:#B2D3DC"
   id="stop7" />
	<stop
   offset="1"
   style="stop-color:#117C9F"
   id="stop9" />
</linearGradient>
<path
   d="M 20.230639,27.553157 L 18.770639,20.359682 C 19.693639,19.654165 20.223639,18.650159 20.223639,17.55512 C 20.223639,15.464828 18.281639,13.763183 15.894639,13.763183 C 13.505639,13.763183 11.561639,15.464828 11.561639,17.55512 C 11.561639,18.588886 12.046639,19.559629 12.890639,20.267772 L 11.577639,27.553157 L 7.6156393,27.553157 C 7.5706393,27.553157 7.5296393,27.550531 7.4956393,27.541777 L 7.4956393,12.987639 C 7.5296393,12.985013 7.5706393,12.978886 7.6156393,12.978886 L 23.990639,12.978886 C 24.035639,12.978886 24.076639,12.985013 24.108639,12.987639 L 24.108639,27.541777 C 24.075639,27.550531 24.035639,27.553157 23.990639,27.553157 L 20.230639,27.553157 z "
   id="path11"
   style="fill:url(#SVGID_1_)" />
</svg>