<?xml version="1.0" encoding="utf-8"?>
<!-- Generator: Adobe Illustrator 14.0.0, SVG Export Plug-In . SVG Version: 6.00 Build 43363)  -->
<!DOCTYPE svg PUBLIC "-//W3C//DTD SVG 1.1//EN" "http://www.w3.org/Graphics/SVG/1.1/DTD/svg11.dtd">
<svg version="1.1" id="Layer_1" xmlns="http://www.w3.org/2000/svg" xmlns:xlink="http://www.w3.org/1999/xlink" x="0px" y="0px"
	 width="32px" height="32px" viewBox="0 0 32 32" enable-background="new 0 0 32 32" xml:space="preserve">
<g>
	<path id="path4993_9_" fill="#030404" d="M3.688,25.473c-1.918,0-3.478-1.68-3.478-3.748V3.75c0-0.982,0.349-1.91,0.979-2.613
		C1.851,0.404,2.737,0,3.69,0h25.048c1.916,0,3.473,1.68,3.473,3.75v17.977c0,2.066-1.557,3.746-3.473,3.746H3.688L3.688,25.473z"/>
	<path id="rect26074_9_" fill="#FFFFFF" d="M3.688,1.047h25.046c1.346,0,2.43,1.203,2.43,2.703v17.977
		c0,1.496-1.084,2.699-2.43,2.699H3.688c-1.348,0-2.431-1.203-2.431-2.699V3.75C1.257,2.256,2.341,1.047,3.688,1.047z"/>
	
		<linearGradient id="SVGID_1_" gradientUnits="userSpaceOnUse" x1="874.957" y1="-1204.9614" x2="852.0322" y2="-1189.2118" gradientTransform="matrix(1 0 0 -1 -844.6201 -1182.5195)">
		<stop  offset="0" style="stop-color:#020202;stop-opacity:0.21"/>
		<stop  offset="1" style="stop-color:#020202;stop-opacity:0"/>
	</linearGradient>
	<path fill="url(#SVGID_1_)" d="M3.688,23.379c-0.764,0-1.385-0.74-1.385-1.652V3.75c0-0.914,0.621-1.656,1.385-1.656h25.046
		c0.764,0,1.383,0.742,1.383,1.656v17.977c0,0.912-0.621,1.652-1.383,1.652H3.688z"/>
	
		<linearGradient id="path26098_1_" gradientUnits="userSpaceOnUse" x1="2167.123" y1="-3924.7324" x2="2167.123" y2="-3921.8828" gradientTransform="matrix(1 0 0 -1 -2150.9141 -3920.1836)">
		<stop  offset="0" style="stop-color:#2C61AD"/>
		<stop  offset="1" style="stop-color:#B1D3EF"/>
	</linearGradient>
	<path id="path26098_9_" fill="url(#path26098_1_)" d="M3.701,1.047c-1.347,0-2.455,1.109-2.455,2.455v1.047h29.925V3.502
		c0-1.346-1.11-2.455-2.455-2.455H3.701z"/>
	<polyline fill="none" stroke="#ED2526" points="2.064,12.647 5.178,16.319 8.962,7.899 11.466,18.444 13.915,10.115 15.899,14.569 
		18.899,11.628 20.565,13.94 23.274,10.731 26.616,16.981 29.935,11.628 	"/>
</g>
<g>
	<path fill="#010101" d="M20.735,32c-0.082,0-0.166-0.018-0.242-0.053l-9.262-4.195c-0.213-0.096-0.349-0.31-0.344-0.543
		l0.063-4.135l-2.58-1.021c-0.173-0.068-0.303-0.216-0.352-0.395c-0.047-0.18-0.009-0.37,0.106-0.516l3.032-3.84
		c0.072-0.095,0.175-0.164,0.287-0.197l9.896-3.041c0.056-0.017,0.114-0.026,0.173-0.026c0.063,0,0.127,0.011,0.188,0.031
		l7.854,2.661c0.137,0.045,0.25,0.141,0.32,0.267l2.047,3.596c0.12,0.212,0.1,0.474-0.054,0.66c-0.113,0.14-0.282,0.218-0.455,0.218
		c-0.062,0-0.119-0.011-0.181-0.027l-1.28-0.41v5.516c0,0.213-0.114,0.407-0.3,0.512l-8.631,4.864
		C20.935,31.975,20.835,32,20.735,32L20.735,32z"/>
	<polygon fill="#906326" points="22.363,17.987 31.413,20.884 29.366,17.287 21.515,14.628 	"/>
	<polygon fill="#906326" points="11.618,17.667 21.515,14.628 21.515,23.89 11.476,27.218 	"/>
	<polygon fill="#5B3F16" points="21.515,14.628 29.366,17.287 29.366,26.548 21.515,23.89 	"/>
	<polygon fill="#F9A720" points="11.618,17.667 20.735,19.981 20.735,31.413 11.476,27.218 	"/>
	
		<linearGradient id="SVGID_2_" gradientUnits="userSpaceOnUse" x1="-257.457" y1="-1211.3594" x2="-257.457" y2="-1204.9241" gradientTransform="matrix(-1 0 0 -1 -241.54 -1181.5195)">
		<stop  offset="0" style="stop-color:#FFF3E0"/>
		<stop  offset="0.5394" style="stop-color:#F9A720"/>
		<stop  offset="1" style="stop-color:#A36728"/>
	</linearGradient>
	<polygon fill="url(#SVGID_2_)" points="19.437,30.129 12.231,26.735 12.354,18.628 19.603,20.358 	"/>
	<path fill="#010101" d="M20.735,32c-0.104,0-0.204-0.027-0.297-0.08c-0.182-0.105-0.289-0.299-0.289-0.507V19.981
		c0-0.258,0.166-0.483,0.412-0.562l8.631-2.694c0.057-0.019,0.115-0.024,0.174-0.024c0.123,0,0.244,0.038,0.347,0.112
		c0.149,0.11,0.239,0.285,0.239,0.474v9.261c0,0.212-0.114,0.407-0.299,0.512l-8.631,4.864C20.935,31.975,20.834,32,20.735,32
		L20.735,32z"/>
	<polygon fill="#F9A720" points="20.735,19.981 29.366,17.287 29.366,26.548 20.735,31.413 	"/>
	
		<linearGradient id="SVGID_3_" gradientUnits="userSpaceOnUse" x1="-269.9404" y1="-1208.0938" x2="-262.5662" y2="-1202.9066" gradientTransform="matrix(-1 0 0 -1 -241.54 -1181.5195)">
		<stop  offset="0" style="stop-color:#FFF3E0"/>
		<stop  offset="0.5394" style="stop-color:#F9A720"/>
		<stop  offset="1" style="stop-color:#A36728"/>
	</linearGradient>
	<polygon fill="url(#SVGID_3_)" points="21.485,30.129 21.485,20.533 28.616,18.308 28.616,26.108 	"/>
	<path fill="#010101" d="M17.197,25.501c-0.073,0-0.146-0.016-0.216-0.042l-8.609-3.407c-0.174-0.066-0.305-0.214-0.352-0.394
		c-0.047-0.179-0.008-0.369,0.105-0.517l3.032-3.841c0.112-0.143,0.284-0.223,0.46-0.223c0.048,0,0.097,0.006,0.145,0.019
		l8.799,2.323c0.183,0.047,0.104,0.113,0.174,0.289c0.068,0.179,0.104,0.265,0,0.422l-3.047,5.103
		C17.579,25.403,17.392,25.501,17.197,25.501L17.197,25.501z"/>
	<polygon fill="#F9A720" points="8.587,21.506 17.197,24.914 20.454,19.91 11.618,17.667 	"/>
	
		<linearGradient id="SVGID_4_" gradientUnits="userSpaceOnUse" x1="-255.2656" y1="-1204.3608" x2="-256.5782" y2="-1200.9857" gradientTransform="matrix(-1 0 0 -1 -241.54 -1181.5195)">
		<stop  offset="0" style="stop-color:#FFF3E0"/>
		<stop  offset="0.5394" style="stop-color:#F9A720"/>
		<stop  offset="1" style="stop-color:#A36728"/>
	</linearGradient>
	<polygon fill="url(#SVGID_4_)" points="16.903,23.992 9.8,21.181 11.906,18.515 19.255,20.379 	"/>
</g>
</svg>
