<?xml version="1.0" encoding="utf-8"?>
<!-- Generator: Adobe Illustrator 14.0.0, SVG Export Plug-In . SVG Version: 6.00 Build 43363)  -->
<!DOCTYPE svg PUBLIC "-//W3C//DTD SVG 1.1//EN" "http://www.w3.org/Graphics/SVG/1.1/DTD/svg11.dtd">
<svg version="1.1" id="Layer_1" xmlns="http://www.w3.org/2000/svg" xmlns:xlink="http://www.w3.org/1999/xlink" x="0px" y="0px"
	 width="32px" height="32px" viewBox="0 0 32 32" enable-background="new 0 0 32 32" xml:space="preserve">
<g>
	<path fill="#010101" d="M6.774,32c-1.809,0-3.51-0.703-4.789-1.979c-2.641-2.641-2.641-6.936-0.001-9.575l4.433-4.487
		c1.248-1.245,2.904-1.929,4.668-1.929c0.713,0,1.416,0.109,2.096,0.326l1.217-1.187c-0.771-2.412-0.174-5.018,1.607-6.798
		l4.437-4.436C21.687,0.688,23.396,0,25.255,0c1.822,0,3.513,0.688,4.759,1.938c1.277,1.277,1.981,2.979,1.981,4.787
		s-0.704,3.508-1.982,4.785l-4.435,4.437c-1.248,1.247-2.912,1.934-4.685,1.934l0,0c-0.799,0-1.604-0.144-2.361-0.418l-1.02,1.019
		c0.904,2.474,0.333,5.251-1.518,7.104L11.56,30.02C10.282,31.297,8.582,32,6.774,32L6.774,32z M6.302,23.447
		c-0.771,0.771-0.891,1.858-0.275,2.475c0.25,0.25,0.611,0.387,1.02,0.387c0.541,0,1.092-0.241,1.512-0.661l1.8-1.799
		c-0.617-0.101-1.185-0.39-1.634-0.838c-0.358-0.36-0.605-0.788-0.742-1.243L6.302,23.447z M21.494,8.256
		C21.958,8.396,22.382,8.648,22.732,9c0.449,0.447,0.738,1.016,0.84,1.633l2.126-2.127c0.396-0.396,0.632-0.885,0.661-1.375
		c0.026-0.432-0.111-0.822-0.388-1.098c-0.273-0.272-0.633-0.424-1.013-0.424c-0.567,0.031-1.115,0.297-1.516,0.697L21.494,8.256z"
		/>
	<path id="path11610_6_" fill="#2DABE2" d="M25.255,1c-1.469,0-2.973,0.506-4.106,1.643l-4.437,4.436
		c-1.723,1.723-2.063,4.24-1.15,6.352l-2.135,2.083c-2.098-0.896-4.582-0.564-6.298,1.147l-4.438,4.492
		c-2.251,2.252-2.251,5.908,0,8.16c2.257,2.25,5.909,2.25,8.161,0l4.435-4.436c1.792-1.793,2.101-4.459,1.042-6.627l1.971-1.971
		c2.153,1.045,4.787,0.742,6.571-1.04l4.435-4.437c2.253-2.252,2.253-5.905,0-8.159C28.182,1.517,26.723,1,25.255,1z M24.816,4.614
		c0.697-0.041,1.369,0.22,1.862,0.711c0.985,0.985,0.917,2.697-0.273,3.888l-3.121,3.123c-0.538,0.537-1.207,0.745-1.862,0.82
		l0.603-0.602c0.784-0.785,0.784-2.066,0-2.848c-0.767-0.77-2.023-0.77-2.793,0l-0.383,0.329c0.144-0.489,0.418-0.967,0.82-1.368
		L22.736,5.6C23.332,5.004,24.115,4.655,24.816,4.614z M10.142,18.799l-0.713,0.709c-0.77,0.77-0.767,2.023,0,2.795
		c0.783,0.781,2.064,0.781,2.848,0l0.932-0.875c-0.09,0.652-0.332,1.318-0.877,1.861l-3.066,3.066
		c-1.188,1.186-2.967,1.252-3.944,0.273c-0.983-0.982-0.917-2.695,0.274-3.889l3.123-3.123C9.136,19.201,9.638,18.945,10.142,18.799
		z"/>
	<linearGradient id="SVGID_1_" gradientUnits="userSpaceOnUse" x1="2.0039" y1="16" x2="29.9951" y2="16">
		<stop  offset="0" style="stop-color:#B1D2DB"/>
		<stop  offset="1" style="stop-color:#107D9F"/>
	</linearGradient>
	<path fill="url(#SVGID_1_)" d="M6.774,30c-1.275,0-2.475-0.496-3.377-1.396c-1.858-1.859-1.858-4.885,0.001-6.745l4.442-4.496
		c0.859-0.857,2.014-1.334,3.244-1.334c0.668,0,1.324,0.137,1.949,0.403l0.614,0.262l3.104-3.03l-0.273-0.631
		c-0.789-1.828-0.421-3.888,0.939-5.248l4.437-4.436C22.725,2.479,23.932,2,25.255,2c1.287,0,2.475,0.479,3.343,1.35
		c0.901,0.902,1.397,2.1,1.397,3.375c0,1.273-0.496,2.471-1.396,3.371l-4.435,4.437c-0.87,0.868-2.031,1.347-3.271,1.347l0,0
		c-0.737,0-1.483-0.172-2.157-0.499l-0.641-0.311l-2.979,2.979l0.314,0.641c0.908,1.86,0.566,4.063-0.852,5.481l-4.434,4.436
		C9.246,29.505,8.048,30,6.774,30L6.774,30z M9.862,17.839c-0.728,0.211-1.35,0.571-1.851,1.069l-3.124,3.125
		c-1.564,1.565-1.684,3.895-0.273,5.303c0.625,0.627,1.489,0.973,2.432,0.973c1.066,0,2.133-0.454,2.926-1.245l3.066-3.067
		c0.636-0.633,1.026-1.451,1.16-2.433l-0.622-1.854l-1.983,1.864c-0.213,0.21-0.467,0.314-0.74,0.314
		c-0.272,0-0.527-0.104-0.717-0.294c-0.379-0.38-0.379-1,0-1.38l1.905-1.965L9.862,17.839z M20.629,10.13
		c0.262,0,0.506,0.101,0.688,0.282c0.191,0.191,0.296,0.445,0.296,0.716c0.001,0.272-0.104,0.528-0.295,0.72l-1.695,1.691
		l1.913,0.61c1.023-0.116,1.827-0.479,2.455-1.106l3.122-3.123c0.742-0.742,1.185-1.689,1.244-2.667
		c0.062-1.013-0.283-1.948-0.971-2.635c-0.654-0.651-1.515-1.009-2.427-1.009c-0.066,0-0.134,0.002-0.201,0.007
		c-0.979,0.058-1.975,0.522-2.729,1.275l-3.067,3.069c-0.505,0.504-0.876,1.124-1.072,1.793l0.443,2.045l1.551-1.334
		C20.122,10.23,20.367,10.13,20.629,10.13L20.629,10.13z"/>
</g>
</svg>
