<?xml version="1.0" encoding="utf-8"?>
<!-- Generator: Adobe Illustrator 14.0.0, SVG Export Plug-In . SVG Version: 6.00 Build 43363)  -->
<!DOCTYPE svg PUBLIC "-//W3C//DTD SVG 1.1//EN" "http://www.w3.org/Graphics/SVG/1.1/DTD/svg11.dtd">
<svg version="1.1"
	 id="svg2" xmlns:svg="http://www.w3.org/2000/svg" xmlns:cc="http://web.resource.org/cc/" xmlns:inkscape="http://www.inkscape.org/namespaces/inkscape" xmlns:sodipodi="http://sodipodi.sourceforge.net/DTD/sodipodi-0.dtd" xmlns:rdf="http://www.w3.org/1999/02/22-rdf-syntax-ns#" xmlns:dc="http://purl.org/dc/elements/1.1/" inkscape:version="0.45.1" sodipodi:docname="wait.svg" sodipodi:version="0.32" inkscape:output_extension="org.inkscape.output.svg.inkscape" xmlns:ns="http://creativecommons.org/ns#" sodipodi:docbase="C:\Radix\dev\trunk\org.radixware\kernel\designer\src\common.resources\src\org\radixware\kernel\designer\resources\icons\workflow\palette"
	 xmlns="http://www.w3.org/2000/svg" xmlns:xlink="http://www.w3.org/1999/xlink" x="0px" y="0px" width="32px" height="32px"
	 viewBox="0 0 32 32" enable-background="new 0 0 32 32" xml:space="preserve">
<sodipodi:namedview  id="base" inkscape:zoom="11" showgrid="true" bordercolor="#000000" inkscape:cx="19.47078" inkscape:cy="10" pagecolor="#ffffff" borderopacity="1.0" inkscape:window-x="-8" inkscape:window-height="944" inkscape:pageshadow="2" inkscape:pageopacity="0.0" inkscape:window-y="-8" inkscape:window-width="1280" inkscape:current-layer="layer1" inkscape:document-units="px">
	</sodipodi:namedview>
<g>
	<path fill="#231F20" d="M8.26,29.328c-0.461,0-0.847-0.349-0.893-0.808c-0.027-0.27-0.622-6.643,2.849-9.972
		c0.946-0.907,1.844-1.208,2.5-1.429c0.758-0.255,0.787-0.265,0.82-0.853c0-0.041-0.004-0.11-0.011-0.175
		c-0.007-0.063-0.007-0.123,0-0.186c0.007-0.064,0.011-0.134,0.009-0.211c-0.031-0.552-0.061-0.562-0.818-0.816
		c-0.655-0.22-1.554-0.522-2.5-1.429C6.745,10.122,7.34,3.75,7.367,3.48C7.413,3.022,7.799,2.673,8.26,2.673l15.153,0
		c0.461,0,0.847,0.349,0.893,0.807c0.027,0.27,0.622,6.642-2.848,9.971c-0.945,0.907-1.843,1.208-2.499,1.429
		c-0.759,0.255-0.787,0.265-0.82,0.853c0.001,0.04,0.003,0.107,0.01,0.169c0.008,0.065,0.008,0.13,0,0.195
		c-0.007,0.063-0.009,0.131-0.008,0.205c0.03,0.552,0.06,0.563,0.817,0.816c0.656,0.221,1.555,0.522,2.5,1.43
		c3.47,3.329,2.875,9.701,2.848,9.971c-0.046,0.458-0.432,0.808-0.893,0.808l-7.576,0.001H8.26z"/>
	<path fill="#00ACDA" d="M17.243,16.317c-0.001-0.116,0.004-0.221,0.015-0.317c-0.011-0.097-0.016-0.201-0.015-0.316
		c0.116-2.094,1.729-1.09,3.594-2.879c3.194-3.065,2.576-9.234,2.576-9.234h-7.576v0H8.26c0,0-0.619,6.169,2.577,9.234
		c1.865,1.789,3.479,0.786,3.594,2.879c0.002,0.116-0.003,0.22-0.014,0.317c0.011,0.098,0.016,0.201,0.014,0.317
		c-0.115,2.094-1.729,1.09-3.594,2.879c-3.196,3.064-2.577,9.234-2.577,9.234h7.577V28.43h7.576c0,0,0.618-6.169-2.576-9.233
		C18.972,17.406,17.359,18.41,17.243,16.317z"/>
	<linearGradient id="SVGID_1_" gradientUnits="userSpaceOnUse" x1="9.1079" y1="16" x2="22.5654" y2="16">
		<stop  offset="0" style="stop-color:#B1D2DB"/>
		<stop  offset="1" style="stop-color:#0B7C9E"/>
	</linearGradient>
	<path fill="url(#SVGID_1_)" d="M9.113,27.534c-0.033-1.684,0.148-5.585,2.345-7.69c0.655-0.629,1.252-0.83,1.828-1.023
		c0.865-0.29,1.941-0.652,2.04-2.454c0.003-0.146-0.001-0.261-0.009-0.366c0.008-0.103,0.012-0.212,0.011-0.331
		c-0.101-1.837-1.177-2.199-2.041-2.489c-0.577-0.194-1.174-0.395-1.829-1.023c-2.203-2.113-2.381-6.009-2.347-7.69l13.448,0
		c0.033,1.684-0.148,5.584-2.343,7.69c-0.656,0.629-1.253,0.829-1.829,1.023c-0.864,0.291-1.94,0.652-2.039,2.454
		c-0.004,0.146,0,0.262,0.009,0.366c-0.009,0.103-0.013,0.213-0.011,0.331c0.101,1.836,1.176,2.198,2.04,2.488
		c0.577,0.194,1.174,0.395,1.83,1.024c2.202,2.112,2.38,6.009,2.345,7.689l-6.725,0.001H9.113z"/>
	<path fill="#231F20" d="M6.625,32c-0.495,0-0.896-0.4-0.896-0.896v-2.673c0-0.495,0.401-0.896,0.896-0.896h18.424
		c0.496,0,0.897,0.401,0.897,0.896v2.673c0,0.496-0.401,0.896-0.897,0.896H6.625z"/>
	<rect id="rect3228" x="6.625" y="28.431" fill="#F9A620" width="18.424" height="2.673"/>
	<linearGradient id="SVGID_2_" gradientUnits="userSpaceOnUse" x1="7.5225" y1="29.7676" x2="24.1523" y2="29.7676">
		<stop  offset="0" style="stop-color:#FFF3DF"/>
		<stop  offset="0.5394" style="stop-color:#F9A620"/>
		<stop  offset="1" style="stop-color:#A36628"/>
	</linearGradient>
	<rect x="7.522" y="29.328" fill="url(#SVGID_2_)" width="16.63" height="0.879"/>
	<path fill="#231F20" d="M6.951,4.466c-0.495,0-0.896-0.402-0.896-0.897V0.897C6.055,0.402,6.456,0,6.951,0h18.424
		c0.495,0,0.896,0.402,0.896,0.897v2.672c0,0.495-0.401,0.897-0.896,0.897H6.951z"/>
	<rect id="rect3228_1_" x="6.951" y="0.897" fill="#F9A620" width="18.424" height="2.672"/>
	<linearGradient id="SVGID_3_" gradientUnits="userSpaceOnUse" x1="7.8477" y1="2.2334" x2="24.4785" y2="2.2334">
		<stop  offset="0" style="stop-color:#FFF3DF"/>
		<stop  offset="0.5394" style="stop-color:#F9A620"/>
		<stop  offset="1" style="stop-color:#A36628"/>
	</linearGradient>
	<rect x="7.848" y="1.793" fill="url(#SVGID_3_)" width="16.631" height="0.879"/>
</g>
</svg>
