<?xml version="1.0" encoding="utf-8"?>
<!-- Generator: Adobe Illustrator 14.0.0, SVG Export Plug-In . SVG Version: 6.00 Build 43363)  -->
<!DOCTYPE svg PUBLIC "-//W3C//DTD SVG 1.1//EN" "http://www.w3.org/Graphics/SVG/1.1/DTD/svg11.dtd">
<svg version="1.1" id="Layer_1" xmlns="http://www.w3.org/2000/svg" xmlns:xlink="http://www.w3.org/1999/xlink" x="0px" y="0px"
	 width="32px" height="32px" viewBox="0 0 32 32" enable-background="new 0 0 32 32" xml:space="preserve">
<g>
	<g>
		<g>
			<path id="path4993_11_" fill="#040404" d="M3.478,28.734C1.56,28.734,0,27.059,0,24.992V7.014c0-0.98,0.349-1.908,0.979-2.611
				c0.662-0.732,1.547-1.137,2.5-1.137h25.048c1.918,0,3.473,1.68,3.473,3.748v17.979c0,2.065-1.555,3.741-3.473,3.741H3.478
				L3.478,28.734z"/>
			<path id="rect26074_11_" fill="#FFFFFF" d="M3.478,4.311h25.045c1.347,0,2.429,1.205,2.429,2.703v17.979
				c0,1.491-1.082,2.698-2.429,2.698H3.478c-1.347,0-2.431-1.207-2.431-2.698V7.014C1.045,5.52,2.131,4.311,3.478,4.311z"/>
			
				<linearGradient id="SVGID_1_" gradientUnits="userSpaceOnUse" x1="1156.2861" y1="1644.0654" x2="1133.3605" y2="1628.3152" gradientTransform="matrix(1 0 0 1 -1126.1602 -1618.3594)">
				<stop  offset="0" style="stop-color:#020202;stop-opacity:0.21"/>
				<stop  offset="1" style="stop-color:#020202;stop-opacity:0"/>
			</linearGradient>
			<path fill="url(#SVGID_1_)" d="M3.478,26.645c-0.765,0-1.384-0.742-1.384-1.651V7.014c0-0.914,0.619-1.656,1.384-1.656h25.045
				c0.765,0,1.384,0.742,1.384,1.656v17.979c0,0.909-0.621,1.651-1.384,1.651H3.478z"/>
			
				<linearGradient id="path26098_1_" gradientUnits="userSpaceOnUse" x1="2448.4521" y1="4363.8369" x2="2448.4521" y2="4360.9873" gradientTransform="matrix(1 0 0 1 -2432.4541 -4356.0234)">
				<stop  offset="0" style="stop-color:#2C60AC"/>
				<stop  offset="1" style="stop-color:#B4D5F0"/>
			</linearGradient>
			<path id="path26098_11_" fill="url(#path26098_1_)" d="M3.49,4.311c-1.347,0-2.455,1.109-2.455,2.457v1.045h29.926V6.768
				c0-1.348-1.111-2.457-2.453-2.457H3.49z"/>
		</g>
		<path fill="#010101" d="M12.39,24.34c-0.535,0-0.973-0.285-0.973-0.641v-2.414c0-0.355,0.438-0.645,0.973-0.645h16.211
			c0.537,0,0.976,0.289,0.976,0.645v2.414c0,0.355-0.438,0.641-0.976,0.641H12.39L12.39,24.34z"/>
		<rect x="12.204" y="21.285" fill="#F2F2F2" width="16.585" height="2.414"/>
		<path fill="#010101" d="M12.39,15.35c-0.535,0-0.973-0.287-0.973-0.645v-2.414c0-0.354,0.438-0.643,0.973-0.643h16.211
			c0.537,0,0.976,0.287,0.976,0.643v2.414c0,0.355-0.438,0.645-0.976,0.645H12.39z"/>
		<rect x="12.204" y="12.291" fill="#F2F2F2" width="16.585" height="2.414"/>
		<g>
			<path fill="#010101" d="M2.517,14.266v-2.168h0.287v1.912H3.87v0.256H2.517z"/>
			<path fill="#010101" d="M4.079,13.48c0-0.291,0.08-0.506,0.242-0.646c0.135-0.115,0.3-0.176,0.492-0.176
				c0.217,0,0.394,0.072,0.529,0.213c0.137,0.143,0.207,0.336,0.207,0.586c0,0.201-0.029,0.361-0.091,0.477
				c-0.062,0.117-0.149,0.207-0.265,0.271c-0.116,0.063-0.242,0.096-0.381,0.096c-0.22,0-0.396-0.07-0.531-0.211
				C4.146,13.947,4.079,13.744,4.079,13.48z M4.353,13.48c0,0.201,0.045,0.352,0.131,0.451c0.088,0.1,0.199,0.148,0.332,0.148
				c0.133,0,0.242-0.049,0.33-0.148c0.088-0.102,0.131-0.254,0.131-0.461c0-0.193-0.045-0.34-0.133-0.441
				c-0.088-0.1-0.197-0.148-0.328-0.148c-0.133,0-0.244,0.051-0.332,0.148C4.396,13.126,4.353,13.279,4.353,13.48z"/>
			<path fill="#010101" d="M5.813,14.395l0.258,0.039c0.012,0.08,0.041,0.137,0.091,0.174c0.065,0.049,0.155,0.074,0.271,0.074
				c0.123,0,0.219-0.025,0.285-0.074C6.785,14.559,6.83,14.49,6.854,14.4c0.015-0.055,0.021-0.168,0.02-0.342
				c-0.118,0.139-0.264,0.207-0.436,0.207c-0.217,0-0.383-0.078-0.502-0.234c-0.117-0.156-0.178-0.342-0.178-0.561
				c0-0.148,0.027-0.287,0.082-0.414c0.055-0.127,0.133-0.225,0.235-0.293c0.104-0.07,0.224-0.104,0.362-0.104
				c0.186,0,0.338,0.074,0.459,0.225v-0.189H7.14v1.357c0,0.244-0.023,0.416-0.074,0.52c-0.049,0.102-0.129,0.184-0.236,0.24
				c-0.107,0.061-0.24,0.09-0.396,0.09c-0.188,0-0.34-0.043-0.455-0.127S5.81,14.564,5.813,14.395z M6.032,13.451
				c0,0.207,0.041,0.357,0.123,0.451c0.082,0.096,0.185,0.143,0.308,0.143c0.122,0,0.226-0.047,0.308-0.141
				c0.082-0.096,0.125-0.242,0.125-0.443c0-0.191-0.043-0.338-0.129-0.436c-0.084-0.096-0.188-0.145-0.309-0.145
				c-0.118,0-0.219,0.047-0.301,0.143C6.074,13.119,6.032,13.264,6.032,13.451z"/>
			<path fill="#010101" d="M7.546,12.404v-0.307h0.268v0.307H7.546z M7.546,14.266v-1.57h0.268v1.57H7.546z"/>
			<path fill="#010101" d="M8.217,14.266v-1.57h0.24v0.223c0.114-0.174,0.28-0.258,0.499-0.258c0.095,0,0.182,0.018,0.261,0.051
				c0.079,0.033,0.14,0.078,0.179,0.135c0.039,0.055,0.066,0.119,0.082,0.195c0.01,0.049,0.016,0.135,0.016,0.258v0.967H9.228
				v-0.955c0-0.109-0.012-0.189-0.031-0.244c-0.021-0.053-0.059-0.096-0.11-0.129c-0.053-0.031-0.114-0.047-0.187-0.047
				c-0.112,0-0.211,0.035-0.293,0.107c-0.082,0.07-0.123,0.207-0.123,0.408v0.859H8.217z"/>
		</g>
		<g>
			<path fill="#010101" d="M2.517,23.641v-2.598h0.979c0.173,0,0.305,0.008,0.396,0.021c0.127,0.022,0.233,0.065,0.32,0.121
				c0.087,0.063,0.155,0.147,0.208,0.254c0.054,0.106,0.079,0.229,0.079,0.354c0,0.22-0.07,0.406-0.211,0.56
				c-0.141,0.152-0.395,0.229-0.762,0.229H2.86v1.056H2.517V23.641z M2.86,22.277h0.672c0.222,0,0.379-0.039,0.473-0.121
				c0.094-0.082,0.141-0.203,0.141-0.352c0-0.105-0.027-0.203-0.084-0.277c-0.054-0.078-0.125-0.129-0.217-0.152
				c-0.058-0.016-0.164-0.023-0.32-0.023H2.86V22.277z"/>
			<path fill="#010101" d="M6.122,23.41c-0.117,0.098-0.23,0.172-0.34,0.211c-0.109,0.043-0.227,0.063-0.352,0.063
				c-0.207,0-0.367-0.051-0.478-0.149c-0.111-0.104-0.166-0.229-0.166-0.39c0-0.09,0.021-0.176,0.063-0.254
				c0.041-0.074,0.096-0.137,0.164-0.18c0.067-0.047,0.146-0.082,0.229-0.105c0.063-0.016,0.155-0.032,0.282-0.047
				c0.258-0.029,0.447-0.063,0.568-0.11c0-0.044,0.002-0.07,0.002-0.082c0-0.13-0.029-0.226-0.091-0.273
				c-0.081-0.073-0.202-0.108-0.362-0.108c-0.149,0-0.262,0.022-0.332,0.078c-0.071,0.055-0.125,0.147-0.158,0.28L4.838,22.3
				c0.027-0.133,0.075-0.241,0.139-0.323c0.065-0.082,0.16-0.146,0.283-0.188c0.122-0.047,0.266-0.065,0.426-0.065
				c0.162,0,0.291,0.02,0.394,0.055c0.101,0.039,0.174,0.086,0.222,0.145c0.047,0.059,0.08,0.129,0.1,0.215
				c0.011,0.055,0.016,0.152,0.016,0.297v0.422c0,0.299,0.007,0.484,0.021,0.564c0.014,0.078,0.039,0.152,0.08,0.227H6.187
				C6.153,23.574,6.133,23.496,6.122,23.41z M6.097,22.695c-0.115,0.051-0.289,0.086-0.521,0.121
				c-0.132,0.02-0.224,0.039-0.278,0.063c-0.054,0.025-0.097,0.059-0.126,0.105c-0.028,0.047-0.045,0.098-0.045,0.147
				c0,0.086,0.033,0.16,0.099,0.216c0.063,0.059,0.157,0.086,0.281,0.086c0.123,0,0.23-0.027,0.327-0.078
				C5.931,23.301,6,23.227,6.045,23.133c0.034-0.074,0.052-0.18,0.052-0.316V22.695z"/>
			<path fill="#010101" d="M6.786,23.082L7.1,23.031c0.018,0.125,0.067,0.223,0.147,0.289c0.081,0.063,0.192,0.098,0.339,0.098
				s0.256-0.027,0.326-0.086c0.07-0.064,0.105-0.129,0.105-0.211c0-0.07-0.031-0.129-0.094-0.168
				c-0.044-0.031-0.152-0.066-0.326-0.109c-0.233-0.059-0.396-0.109-0.486-0.152c-0.09-0.047-0.158-0.102-0.204-0.18
				c-0.048-0.074-0.07-0.16-0.07-0.25c0-0.086,0.021-0.164,0.058-0.234c0.039-0.073,0.09-0.133,0.158-0.18
				c0.049-0.035,0.116-0.065,0.201-0.094c0.086-0.023,0.178-0.035,0.275-0.035c0.146,0,0.277,0.021,0.389,0.063
				s0.193,0.098,0.248,0.172c0.053,0.073,0.09,0.172,0.109,0.289L7.962,22.29c-0.014-0.099-0.056-0.176-0.124-0.229
				c-0.067-0.056-0.163-0.078-0.286-0.078c-0.147,0-0.252,0.022-0.313,0.074c-0.063,0.047-0.095,0.104-0.095,0.168
				c0,0.039,0.014,0.077,0.039,0.108c0.025,0.035,0.066,0.063,0.123,0.086c0.03,0.013,0.125,0.039,0.28,0.082
				c0.226,0.063,0.384,0.108,0.474,0.147c0.088,0.039,0.157,0.095,0.209,0.168c0.051,0.07,0.076,0.164,0.076,0.271
				c0,0.108-0.031,0.207-0.094,0.302c-0.063,0.094-0.15,0.168-0.268,0.219c-0.117,0.053-0.25,0.078-0.397,0.078
				c-0.244,0-0.431-0.052-0.56-0.15C6.901,23.432,6.821,23.281,6.786,23.082z"/>
			<path fill="#010101" d="M8.601,23.082l0.314-0.051c0.018,0.125,0.066,0.223,0.146,0.289c0.082,0.063,0.194,0.098,0.34,0.098
				s0.255-0.027,0.326-0.086c0.07-0.064,0.106-0.129,0.106-0.211c0-0.07-0.032-0.129-0.095-0.168
				c-0.045-0.031-0.152-0.066-0.326-0.109c-0.232-0.059-0.396-0.109-0.486-0.152c-0.091-0.047-0.158-0.102-0.205-0.18
				c-0.047-0.074-0.068-0.16-0.068-0.25c0-0.086,0.019-0.164,0.056-0.234c0.039-0.073,0.092-0.133,0.157-0.18
				c0.05-0.035,0.117-0.065,0.203-0.094c0.086-0.023,0.178-0.035,0.275-0.035c0.146,0,0.276,0.021,0.389,0.063
				c0.111,0.043,0.193,0.098,0.248,0.172c0.053,0.073,0.088,0.172,0.109,0.289L9.777,22.29c-0.016-0.099-0.057-0.176-0.123-0.229
				c-0.068-0.056-0.164-0.078-0.288-0.078c-0.146,0-0.251,0.022-0.313,0.074c-0.063,0.047-0.094,0.104-0.094,0.168
				c0,0.039,0.014,0.077,0.039,0.108c0.025,0.035,0.066,0.063,0.122,0.086c0.032,0.013,0.126,0.039,0.28,0.082
				c0.228,0.063,0.385,0.108,0.473,0.147c0.09,0.039,0.16,0.095,0.211,0.168c0.051,0.07,0.076,0.164,0.076,0.271
				c0,0.108-0.031,0.207-0.094,0.302c-0.063,0.094-0.149,0.168-0.268,0.219c-0.115,0.051-0.248,0.078-0.396,0.078
				c-0.243,0-0.43-0.052-0.559-0.152C8.717,23.43,8.635,23.281,8.601,23.082z"/>
		</g>
	</g>
</g>
</svg>
