<?xml version="1.0" encoding="utf-8"?>
<!-- Generator: Adobe Illustrator 14.0.0, SVG Export Plug-In . SVG Version: 6.00 Build 43363)  -->
<!DOCTYPE svg PUBLIC "-//W3C//DTD SVG 1.1//EN" "http://www.w3.org/Graphics/SVG/1.1/DTD/svg11.dtd">
<svg version="1.1" id="Layer_1" xmlns="http://www.w3.org/2000/svg" xmlns:xlink="http://www.w3.org/1999/xlink" x="0px" y="0px"
	 width="32px" height="32px" viewBox="0 0 32 32" enable-background="new 0 0 32 32" xml:space="preserve">
<g>
	<path fill="#010101" d="M15.905,31c8.021,0,14.547-6.525,14.547-14.546S23.927,1.907,15.905,1.907c-3.219,0-6.34,1.073-8.881,3.04
		L3.13,1.257C2.952,1.089,2.72,1,2.483,1c-0.125,0-0.25,0.025-0.369,0.077c-0.344,0.147-0.566,0.485-0.566,0.86v12.111
		c0,0.518,0.418,0.938,0.938,0.938h12.781c0.383,0,0.729-0.233,0.871-0.59c0.143-0.355,0.053-0.764-0.227-1.027l-4.139-3.92
		c1.248-0.742,2.658-1.129,4.133-1.129c4.484,0,8.135,3.648,8.135,8.135s-3.65,8.135-8.135,8.135c-3.422,0-6.496-2.168-7.65-5.395
		c-0.139-0.383-0.496-0.622-0.883-0.622c-0.096,0-0.188,0.014-0.281,0.043l-4.328,1.356c-0.242,0.074-0.443,0.244-0.557,0.471
		c-0.113,0.226-0.131,0.488-0.053,0.728C4.173,27.05,9.696,31,15.905,31L15.905,31z"/>
	<path fill="#EC2727" d="M2.483,14.049V1.938l4.494,4.26c2.391-2.083,5.508-3.352,8.926-3.352c7.518,0,13.609,6.092,13.609,13.608
		s-6.092,13.608-13.609,13.608c-5.969,0-11.029-3.85-12.861-9.195l4.328-1.356c1.256,3.507,4.598,6.017,8.533,6.017
		c5.012,0,9.072-4.062,9.072-9.072c0-5.01-4.061-9.072-9.072-9.072c-2.121,0-4.068,0.731-5.613,1.952l4.975,4.715L2.483,14.049
		L2.483,14.049z"/>
	
		<linearGradient id="SVGID_1_" gradientUnits="userSpaceOnUse" x1="-277.1172" y1="-388.2935" x2="-251.9629" y2="-388.2935" gradientTransform="matrix(-1 0 0 -1 -248.54 -371.8398)">
		<stop  offset="0" style="stop-color:#F6979A"/>
		<stop  offset="1" style="stop-color:#901A1D"/>
	</linearGradient>
	<path fill="url(#SVGID_1_)" d="M15.905,29.125c6.986,0,12.672-5.686,12.672-12.671c0-6.986-5.686-12.672-12.672-12.672
		c-3.049,0-6.002,1.108-8.311,3.12L6.952,7.463L3.423,4.118v8.993h9.492L8.856,9.27l0.852-0.672c1.785-1.41,3.928-2.154,6.197-2.154
		c5.52,0,10.01,4.49,10.01,10.011c0,5.519-4.49,10.01-10.01,10.01c-3.906,0-7.447-2.298-9.074-5.802l-2.555,0.8
		C6.265,26.083,10.819,29.125,15.905,29.125L15.905,29.125z"/>
</g>
</svg>
