<?xml version="1.0" encoding="utf-8"?>
<!-- Generator: Adobe Illustrator 14.0.0, SVG Export Plug-In . SVG Version: 6.00 Build 43363)  -->
<!DOCTYPE svg PUBLIC "-//W3C//DTD SVG 1.1//EN" "http://www.w3.org/Graphics/SVG/1.1/DTD/svg11.dtd">
<svg version="1.1" id="Layer_1" xmlns="http://www.w3.org/2000/svg" xmlns:xlink="http://www.w3.org/1999/xlink" x="0px" y="0px"
	 width="32px" height="32px" viewBox="0 0 32 32" enable-background="new 0 0 32 32" xml:space="preserve">
<g>
	<path d="M16,31C7.729,31,1,24.271,1,16C1,7.729,7.729,1,16,1c8.271,0,15,6.729,15,15C31,24.271,24.271,31,16,31L16,31z
		 M15.792,23.082c-0.667,0-1.147,0.196-1.513,0.616c-0.394,0.454-0.585,0.966-0.585,1.563c0,0.588,0.181,1.038,0.571,1.417
		c0.392,0.385,0.891,0.569,1.527,0.569c0.675,0,1.197-0.212,1.643-0.669c0.446-0.457,0.663-0.936,0.663-1.465
		c0-0.571-0.197-1.024-0.619-1.426C17.049,23.281,16.498,23.082,15.792,23.082L15.792,23.082z M16.225,19.538
		c0.029-0.454,0.191-1.565,0.942-5.355c1.229-6.221,1.364-7.384,1.366-7.595c0-0.484-0.183-0.886-0.577-1.266
		c-0.392-0.378-1.011-0.57-1.843-0.57c-0.908,0-1.597,0.188-2.048,0.56c-0.408,0.336-0.599,0.7-0.599,1.144
		c0.009,0.171,0.147,1.148,0.97,5.585c1.007,5.25,1.25,6.884,1.296,7.497H16.225z"/>
	<path fill="#F9A720" d="M16,1.938C8.233,1.938,1.938,8.233,1.938,16S8.233,30.063,16,30.063S30.063,23.767,30.063,16
		S23.767,1.938,16,1.938z M18.105,27.233c-0.619,0.636-1.391,0.952-2.313,0.952c-0.886,0-1.612-0.278-2.181-0.835
		c-0.57-0.555-0.855-1.252-0.855-2.089c0-0.828,0.273-1.553,0.816-2.18c0.544-0.624,1.284-0.938,2.22-0.938
		c0.948,0,1.726,0.288,2.332,0.865c0.607,0.576,0.911,1.276,0.911,2.104C19.035,25.892,18.726,26.599,18.105,27.233z M18.087,14.365
		c-0.606,3.062-0.917,4.822-0.93,5.285c0,0.422-0.032,0.665-0.095,0.729s-0.221,0.096-0.475,0.096h-1.233
		c-0.252,0-0.406-0.03-0.463-0.089c-0.057-0.059-0.086-0.271-0.086-0.633c0-0.542-0.429-3.056-1.29-7.542
		c-0.656-3.541-0.986-5.461-0.986-5.756c0-0.728,0.313-1.351,0.94-1.868c0.625-0.515,1.507-0.773,2.644-0.773
		c1.089,0,1.919,0.278,2.495,0.833c0.575,0.556,0.862,1.204,0.862,1.941C19.471,7.101,19.01,9.693,18.087,14.365z"/>
	<linearGradient id="SVGID_1_" gradientUnits="userSpaceOnUse" x1="2.875" y1="16" x2="29.125" y2="16">
		<stop  offset="0" style="stop-color:#FFF3E0"/>
		<stop  offset="0.5394" style="stop-color:#FAA820"/>
		<stop  offset="1" style="stop-color:#A56629"/>
	</linearGradient>
	<path fill="url(#SVGID_1_)" d="M15.778,29.123c0.005,0,0.009,0,0.014,0c1.181,0,2.186-0.416,2.984-1.235
		c0.793-0.812,1.196-1.745,1.196-2.773c0-1.091-0.405-2.027-1.203-2.784c-0.483-0.461-1.051-0.78-1.695-0.958
		c0.232-0.046,0.466-0.141,0.656-0.335c0.307-0.314,0.364-0.73,0.364-1.387c0.006-0.202,0.133-1.171,0.911-5.103
		c1.402-7.098,1.402-7.701,1.402-7.958c0-0.999-0.387-1.879-1.148-2.615c-0.754-0.728-1.813-1.097-3.146-1.097
		c-1.354,0-2.444,0.332-3.24,0.987c-0.839,0.691-1.282,1.587-1.282,2.591c0,0.196,0,0.523,1.001,5.927
		c1.15,5.996,1.274,7.151,1.274,7.371c0,0.582,0.057,0.978,0.345,1.28c0.147,0.153,0.321,0.245,0.501,0.3
		c-0.731,0.182-1.351,0.562-1.849,1.133c-0.695,0.801-1.046,1.74-1.046,2.795c0,1.097,0.383,2.025,1.139,2.761
		c0.691,0.677,1.562,1.045,2.591,1.095C8.519,28.879,2.875,23.086,2.875,16C2.875,8.763,8.763,2.875,16,2.875
		S29.125,8.763,29.125,16S23.237,29.125,16,29.125C16,29.125,15.852,29.124,15.778,29.123z"/>
</g>
</svg>
