<?xml version="1.0" encoding="utf-8"?>
<!-- Generator: Adobe Illustrator 14.0.0, SVG Export Plug-In . SVG Version: 6.00 Build 43363)  -->
<!DOCTYPE svg PUBLIC "-//W3C//DTD SVG 1.1//EN" "http://www.w3.org/Graphics/SVG/1.1/DTD/svg11.dtd">
<svg version="1.1" id="Layer_1" xmlns="http://www.w3.org/2000/svg" xmlns:xlink="http://www.w3.org/1999/xlink" x="0px" y="0px"
	 width="32px" height="32px" viewBox="0 0 32 32" enable-background="new 0 0 32 32" xml:space="preserve">
<g>
	<g>
		<g>
			<path id="path4993_9_" fill="#030404" d="M3.478,28.736C1.56,28.736,0,27.057,0,24.988V7.014C0,6.031,0.349,5.104,0.979,4.4
				c0.66-0.732,1.547-1.137,2.5-1.137h25.048c1.916,0,3.473,1.68,3.473,3.75V24.99c0,2.066-1.557,3.746-3.473,3.746H3.478
				L3.478,28.736z"/>
			<path id="rect26074_9_" fill="#FFFFFF" d="M3.478,4.311h25.046c1.346,0,2.43,1.203,2.43,2.703V24.99
				c0,1.496-1.084,2.699-2.43,2.699H3.478c-1.348,0-2.431-1.203-2.431-2.699V7.014C1.046,5.52,2.13,4.311,3.478,4.311z"/>
			
				<linearGradient id="SVGID_1_" gradientUnits="userSpaceOnUse" x1="874.7461" y1="-1207.2251" x2="851.8215" y2="-1191.4756" gradientTransform="matrix(1 0 0 -1 -844.6201 -1181.5195)">
				<stop  offset="0" style="stop-color:#020202;stop-opacity:0.21"/>
				<stop  offset="1" style="stop-color:#020202;stop-opacity:0"/>
			</linearGradient>
			<path fill="url(#SVGID_1_)" d="M3.478,26.643c-0.764,0-1.385-0.74-1.385-1.652V7.014c0-0.914,0.621-1.656,1.385-1.656h25.046
				c0.764,0,1.383,0.742,1.383,1.656V24.99c0,0.912-0.621,1.652-1.383,1.652H3.478z"/>
			
				<linearGradient id="path26098_1_" gradientUnits="userSpaceOnUse" x1="2166.9121" y1="-3926.9961" x2="2166.9121" y2="-3924.1465" gradientTransform="matrix(1 0 0 -1 -2150.9141 -3919.1836)">
				<stop  offset="0" style="stop-color:#2C61AD"/>
				<stop  offset="1" style="stop-color:#B1D3EF"/>
			</linearGradient>
			<path id="path26098_9_" fill="url(#path26098_1_)" d="M3.49,4.311c-1.347,0-2.455,1.109-2.455,2.455v1.047H30.96V6.766
				c0-1.346-1.11-2.455-2.455-2.455H3.49z"/>
		</g>
	</g>
	<g>
		<path id="path4948_6_" fill="#020202" d="M21.713,14.825c-0.083,0.084-0.206,0.118-0.321,0.093
			c-0.115-0.026-0.209-0.11-0.25-0.222l-0.314-0.896c-0.045-0.126-0.013-0.266,0.08-0.358l0.244-0.244
			c0.094-0.093,0.23-0.125,0.355-0.083l0.907,0.304c0.113,0.038,0.199,0.132,0.228,0.249c0.026,0.115-0.008,0.238-0.094,0.322
			L21.713,14.825L21.713,14.825z"/>
		<path id="path4951_6_" fill="#020202" d="M24.177,17.296c-0.135,0.136-0.354,0.136-0.488,0l-2.322-2.323
			c-0.065-0.064-0.102-0.152-0.102-0.244c0-0.091,0.035-0.178,0.102-0.244l0.857-0.855c0.135-0.136,0.354-0.135,0.488,0l2.322,2.322
			c0.064,0.064,0.102,0.152,0.102,0.244s-0.037,0.178-0.102,0.243L24.177,17.296z"/>
		
			<linearGradient id="rect3806_1_" gradientUnits="userSpaceOnUse" x1="146.5117" y1="2693.1377" x2="147.6943" y2="2693.1377" gradientTransform="matrix(0.7071 -0.7071 0.7071 0.7071 -1986.7445 -1786.4482)">
			<stop  offset="0" style="stop-color:#5AC9EC"/>
			<stop  offset="1" style="stop-color:#077A93"/>
		</linearGradient>
		<path id="rect3806_8_" fill="url(#rect3806_1_)" d="M21.159,13.678l0.244-0.244l0.908,0.305l-0.836,0.836L21.159,13.678
			L21.159,13.678z"/>
		
			<linearGradient id="rect3809_1_" gradientUnits="userSpaceOnUse" x1="147.7236" y1="2695.5615" x2="146.344" y2="2695.5615" gradientTransform="matrix(0.7071 -0.7071 0.7071 0.7071 -1986.849 -1786.5537)">
			<stop  offset="0" style="stop-color:#A46829"/>
			<stop  offset="0.5" style="stop-color:#FAA81D"/>
			<stop  offset="1" style="stop-color:#FFF3E2"/>
		</linearGradient>
		<polygon id="rect3809_8_" fill="url(#rect3809_1_)" points="21.617,14.723 22.474,13.865 24.796,16.188 23.938,17.045 		"/>
		
			<rect id="rect4968_6_" x="22.946" y="14.158" transform="matrix(0.7071 -0.7071 0.7071 0.7071 -4.1316 20.9367)" fill="#FAA81D" width="0.522" height="2.594"/>
		<path id="path4971_6_" fill="#020202" d="M21.784,14.046c-0.514,0.515-1.197,0.798-1.926,0.798c-1.502,0-2.724-1.223-2.723-2.723
			c0-0.729,0.283-1.412,0.797-1.927c0.514-0.514,1.197-0.798,1.926-0.797c1.501,0.001,2.723,1.223,2.723,2.723
			C22.581,12.848,22.298,13.532,21.784,14.046L21.784,14.046z"/>
		<path id="path3707_10_" fill="#02ABD8" d="M22.237,12.119c0.001,1.313-1.064,2.379-2.377,2.378c-1.313,0-2.378-1.065-2.378-2.378
			c-0.001-1.312,1.065-2.377,2.378-2.377S22.237,10.807,22.237,12.119z"/>
		
			<linearGradient id="path4980_1_" gradientUnits="userSpaceOnUse" x1="507.6914" y1="1405.5605" x2="511.7549" y2="1405.5605" gradientTransform="matrix(0.7071 -0.7071 0.7071 0.7071 -1334.433 -621.3325)">
			<stop  offset="0" style="stop-color:#B0D0DA"/>
			<stop  offset="1" style="stop-color:#147D9E"/>
		</linearGradient>
		<path id="path4980_6_" fill="url(#path4980_1_)" d="M21.302,13.551c-0.383,0.385-0.894,0.596-1.438,0.596
			c-1.12,0-2.033-0.912-2.033-2.031c0.002-0.544,0.213-1.055,0.596-1.438c0.385-0.384,0.895-0.597,1.438-0.595
			c1.121,0,2.033,0.912,2.033,2.032C21.897,12.656,21.687,13.167,21.302,13.551L21.302,13.551z"/>
		
			<radialGradient id="path3747_1_" cx="1776.3408" cy="265.1934" r="2.087" gradientTransform="matrix(1.0901 0.4253 -0.5098 1.3173 -1782.3715 -1093.8546)" gradientUnits="userSpaceOnUse">
			<stop  offset="0" style="stop-color:#FFFFFF"/>
			<stop  offset="0.4706" style="stop-color:#FFFFFF;stop-opacity:0.7866"/>
			<stop  offset="1" style="stop-color:#FFFFFF;stop-opacity:0"/>
		</radialGradient>
		<path id="path3747_8_" fill="url(#path3747_1_)" d="M19.728,10.089c-0.648,0.046-1.268,0.411-1.619,1.023
			c-0.443,0.772-0.332,1.695,0.211,2.333c0.371-0.28,0.856-0.719,1.461-1.857c0.318-0.602,0.617-1.033,0.893-1.33
			C20.364,10.123,20.044,10.067,19.728,10.089z"/>
	</g>
	<g>
		<path d="M9.845,17.352c-0.04,0-0.081-0.01-0.117-0.029l-2.201-1.158l-2.201,1.158c-0.036,0.02-0.077,0.029-0.117,0.029
			c-0.051,0-0.103-0.018-0.146-0.049c-0.076-0.057-0.115-0.15-0.1-0.244l0.421-2.451l-1.78-1.736
			c-0.069-0.066-0.094-0.166-0.063-0.256c0.028-0.09,0.106-0.156,0.201-0.17l2.461-0.357l1.101-2.23
			c0.043-0.086,0.129-0.14,0.225-0.14l0,0c0.096,0,0.182,0.054,0.225,0.14l1.101,2.23l2.461,0.357
			c0.095,0.014,0.173,0.08,0.201,0.17c0.03,0.09,0.006,0.189-0.063,0.256l-1.78,1.736l0.421,2.451
			c0.016,0.094-0.023,0.188-0.1,0.244C9.947,17.334,9.896,17.352,9.845,17.352L9.845,17.352z"/>
		<polygon fill="#F9A61C" points="7.526,9.968 8.685,12.316 11.276,12.692 9.401,14.52 9.845,17.102 7.526,15.883 5.208,17.102 
			5.651,14.52 3.776,12.692 6.368,12.316 		"/>
		<linearGradient id="SVGID_2_" gradientUnits="userSpaceOnUse" x1="4.3135" y1="13.5889" x2="10.7393" y2="13.5889">
			<stop  offset="0" style="stop-color:#FFF3DF"/>
			<stop  offset="0.5394" style="stop-color:#F9A61C"/>
			<stop  offset="1" style="stop-color:#A36628"/>
		</linearGradient>
		<polygon fill="url(#SVGID_2_)" points="7.526,15.6 5.54,16.645 5.92,14.434 4.313,12.867 6.533,12.545 7.526,10.533 8.52,12.545 
			10.739,12.867 9.133,14.434 9.513,16.645 		"/>
	</g>
	<g>
		<path d="M17.867,25.25c-0.138,0-0.25-0.111-0.25-0.25v-5c0-0.138,0.112-0.25,0.25-0.25h7.5c0.138,0,0.25,0.112,0.25,0.25v5
			c0,0.139-0.112,0.25-0.25,0.25H17.867z"/>
		<rect x="17.867" y="20" fill="#FFFFFF" width="7.5" height="5"/>
		<line fill="none" stroke="#000000" stroke-width="0.25" x1="17.867" y1="25" x2="20.758" y2="21.928"/>
		<line fill="none" stroke="#000000" stroke-width="0.25" x1="25.367" y1="25" x2="22.477" y2="21.928"/>
		<polyline fill="none" stroke="#000000" stroke-width="0.25" points="25.367,20 21.617,22.5 17.867,20 		"/>
		<linearGradient id="SVGID_3_" gradientUnits="userSpaceOnUse" x1="21.6172" y1="20.083" x2="21.6172" y2="21.4584">
			<stop  offset="0" style="stop-color:#B3B1B3;stop-opacity:0"/>
			<stop  offset="0.9104" style="stop-color:#B3B1B3;stop-opacity:0.9104"/>
			<stop  offset="1" style="stop-color:#B3B1B3"/>
		</linearGradient>
		<polygon fill="url(#SVGID_3_)" points="18.693,20.121 24.542,20.121 21.617,22.071 		"/>
		<linearGradient id="SVGID_4_" gradientUnits="userSpaceOnUse" x1="21.6172" y1="21.8281" x2="21.6172" y2="24.9059">
			<stop  offset="0" style="stop-color:#B3B1B3;stop-opacity:0"/>
			<stop  offset="0.9104" style="stop-color:#B3B1B3;stop-opacity:0.9104"/>
			<stop  offset="1" style="stop-color:#B3B1B3"/>
		</linearGradient>
		<polygon fill="url(#SVGID_4_)" points="18.446,24.859 21.617,21.49 24.788,24.859 		"/>
		<linearGradient id="SVGID_5_" gradientUnits="userSpaceOnUse" x1="20.2568" y1="22.418" x2="18.0229" y2="22.418">
			<stop  offset="0" style="stop-color:#B3B1B3;stop-opacity:0"/>
			<stop  offset="0.9104" style="stop-color:#B3B1B3;stop-opacity:0.9104"/>
			<stop  offset="1" style="stop-color:#B3B1B3"/>
		</linearGradient>
		<polygon fill="url(#SVGID_5_)" points="18.014,20.467 20.269,21.971 18.014,24.369 		"/>
		
			<linearGradient id="SVGID_6_" gradientUnits="userSpaceOnUse" x1="67.2568" y1="22.417" x2="65.022" y2="22.417" gradientTransform="matrix(-1 0 0 1 90.1914 0)">
			<stop  offset="0" style="stop-color:#B3B1B3;stop-opacity:0"/>
			<stop  offset="0.9104" style="stop-color:#B3B1B3;stop-opacity:0.9104"/>
			<stop  offset="1" style="stop-color:#B3B1B3"/>
		</linearGradient>
		<polygon fill="url(#SVGID_6_)" points="25.18,20.467 22.924,21.971 25.18,24.369 		"/>
	</g>
	<g>
		<path d="M11.058,21.465l-3.344-2.108c-0.041-0.026-0.088-0.038-0.134-0.038s-0.093,0.012-0.134,0.038l-3.45,2.176
			c-0.073,0.046-0.117,0.126-0.117,0.212v0.188c0,0.139,0.112,0.25,0.25,0.25h0.496v3.668c0,0.139,0.112,0.25,0.25,0.25h5.304
			c0.138,0,0.25-0.111,0.25-0.25v-3.668h0.495c0.139,0,0.25-0.111,0.25-0.25v-0.256C11.174,21.591,11.13,21.511,11.058,21.465z"/>
		<polygon fill="#ED2A2A" points="10.924,21.676 7.58,19.568 4.129,21.744 4.129,21.932 4.875,21.932 4.875,25.85 10.179,25.85 
			10.179,21.932 10.924,21.932 		"/>
		<linearGradient id="SVGID_7_" gradientUnits="userSpaceOnUse" x1="4.6953" y1="22.7314" x2="10.4648" y2="22.7314">
			<stop  offset="0" style="stop-color:#F49498"/>
			<stop  offset="1" style="stop-color:#8E1D1F"/>
		</linearGradient>
		<polygon fill="url(#SVGID_7_)" points="5.125,25.6 5.125,21.682 4.695,21.682 7.58,19.863 10.465,21.682 9.929,21.682 9.929,25.6 
					"/>
		<path d="M4.06,22.353c-0.072,0-0.144-0.031-0.192-0.091l-0.283-0.34c-0.046-0.057-0.065-0.129-0.055-0.199
			c0.012-0.071,0.053-0.135,0.114-0.172l3.75-2.365c0.04-0.025,0.087-0.038,0.133-0.038c0.047,0,0.093,0.013,0.134,0.038l3.75,2.365
			c0.061,0.037,0.102,0.101,0.113,0.172c0.012,0.07-0.009,0.143-0.055,0.199l-0.283,0.34c-0.049,0.06-0.12,0.091-0.192,0.091
			c-0.045,0-0.091-0.013-0.132-0.038l-3.335-2.086l-3.334,2.086C4.151,22.34,4.105,22.353,4.06,22.353L4.06,22.353z"/>
		<polygon fill="#F9A61C" points="7.526,19.934 10.993,22.103 11.276,21.762 7.526,19.397 3.776,21.762 4.06,22.103 		"/>
		<path d="M5.803,26.1c-0.138,0-0.25-0.111-0.25-0.25v-3.1c0-0.138,0.112-0.25,0.25-0.25h1.724c0.139,0,0.25,0.112,0.25,0.25v3.1
			c0,0.139-0.111,0.25-0.25,0.25H5.803z"/>
		<rect x="5.803" y="22.75" fill="#F9A61C" width="1.724" height="3.1"/>
		<linearGradient id="SVGID_8_" gradientUnits="userSpaceOnUse" x1="6.0527" y1="24.2998" x2="7.2764" y2="24.2998">
			<stop  offset="0" style="stop-color:#FFF3DF"/>
			<stop  offset="0.5394" style="stop-color:#F9A61C"/>
			<stop  offset="1" style="stop-color:#A36628"/>
		</linearGradient>
		<rect x="6.053" y="23" fill="url(#SVGID_8_)" width="1.224" height="2.6"/>
	</g>
</g>
</svg>
