<?xml version="1.0" encoding="UTF-8" standalone="no"?>
<!-- Generator: Adobe Illustrator 14.0.0, SVG Export Plug-In . SVG Version: 6.00 Build 43363)  -->
<svg
   xmlns:dc="http://purl.org/dc/elements/1.1/"
   xmlns:cc="http://web.resource.org/cc/"
   xmlns:rdf="http://www.w3.org/1999/02/22-rdf-syntax-ns#"
   xmlns:svg="http://www.w3.org/2000/svg"
   xmlns="http://www.w3.org/2000/svg"
   xmlns:sodipodi="http://sodipodi.sourceforge.net/DTD/sodipodi-0.dtd"
   xmlns:inkscape="http://www.inkscape.org/namespaces/inkscape"
   version="1.1"
   id="Layer_1"
   x="0px"
   y="0px"
   width="32px"
   height="32px"
   viewBox="0 0 32 32"
   enable-background="new 0 0 32 32"
   xml:space="preserve"
   sodipodi:version="0.32"
   inkscape:version="0.45.1"
   sodipodi:docname="imgRGURYMOTERAO3OAQ72IMY67RAE.svg"
   inkscape:output_extension="org.inkscape.output.svg.inkscape"
   sodipodi:docbase="D:\radix\dev\trunk\org.radixware\ads\Workflow\img"><metadata
   id="metadata17"><rdf:RDF><cc:Work
       rdf:about=""><dc:format>image/svg+xml</dc:format><dc:type
         rdf:resource="http://purl.org/dc/dcmitype/StillImage" /></cc:Work></rdf:RDF></metadata><defs
   id="defs15" /><sodipodi:namedview
   inkscape:window-height="480"
   inkscape:window-width="640"
   inkscape:pageshadow="2"
   inkscape:pageopacity="0.0"
   guidetolerance="10.0"
   gridtolerance="10.0"
   objecttolerance="10.0"
   borderopacity="1.0"
   bordercolor="#666666"
   pagecolor="#ffffff"
   id="base" />
<path
   d="M 13.514069,30.302387 C 12.112705,30.302387 11.014845,29.380711 11.014845,28.209565 L 11.014845,12.762414 C 11.014845,11.732786 11.863532,10.900011 13.018534,10.710414 L 12.998862,8.9795491 C 12.688801,7.0935597 11.146926,5.6811087 9.3849159,5.6811087 C 7.6013613,5.6811087 6.0426246,7.1316605 5.7597289,9.0530291 L 5.7372471,9.1836605 L 5.7372471,11.87521 C 5.7372471,12.539252 5.1817598,13.077199 4.4960655,13.077199 L 2.3275105,13.077199 C 1.6418162,13.077199 1.0863289,12.541067 1.0863289,11.87521 L 1.0863289,9.3442278 C 1.0863289,9.3442278 1.1237985,8.4479522 1.1275455,8.418923 C 1.609967,4.3448594 5.1611515,1.2732095 9.3849159,1.2732095 C 13.610554,1.2732095 17.161738,4.3457665 17.643223,8.4198302 C 17.64978,8.4670027 17.68444,9.2544188 17.68444,9.2544188 L 17.68444,10.673221 L 28.754843,10.673221 C 30.154333,10.673221 31.252194,11.591269 31.252194,12.762414 L 31.252194,28.211379 C 31.252194,29.38434 30.154333,30.302387 28.754843,30.302387 L 13.514069,30.302387 L 13.514069,30.302387 z M 22.488983,26.124907 L 21.423909,20.300929 C 21.331172,19.800175 21.575661,19.299422 22.029044,19.046323 C 22.550808,18.757846 22.86368,18.252557 22.86368,17.694652 C 22.86368,16.81652 22.124591,16.104398 21.218763,16.104398 C 20.312934,16.104398 19.577593,16.817427 19.574783,17.694652 C 19.574783,18.22625 19.857678,18.718839 20.333543,19.016387 C 20.743835,19.274022 20.959286,19.744839 20.884346,20.210213 L 19.922313,26.124907 L 22.488983,26.124907 L 22.488983,26.124907 z "
   id="path3"
   style="fill:#010101" />
<path
   d="M 28.755779,11.87521 L 28.381083,11.87521 L 16.447005,11.87521 L 16.447005,10.397443 L 16.447005,10.166117 L 16.447005,9.3433206 L 16.447005,9.3115701 L 16.413282,8.6194058 L 16.413282,8.558626 C 16.010484,5.1640265 13.007293,2.4733846 9.3877261,2.4733846 C 5.7681595,2.4733846 2.7640317,5.1640265 2.3621699,8.558626 L 2.3621699,8.6194058 L 2.3275105,9.3115701 L 2.3275105,9.3433206 L 2.3275105,10.166117 L 2.3275105,10.397443 L 2.3275105,11.87521 L 4.4970022,11.87521 L 4.4970022,9.0829655 C 4.4988757,9.0675437 4.5307249,8.8861114 4.5307249,8.8861114 C 4.8904334,6.42226 6.9240977,4.4800265 9.3849159,4.4800265 C 11.848544,4.4800265 13.877525,6.42226 14.239107,8.8833899 L 14.271893,11.87521 L 14.259715,11.87521 L 13.512196,11.87521 C 12.810577,11.87521 12.253216,12.272547 12.253216,12.762414 L 12.253216,28.211379 C 12.253216,28.705783 12.807767,29.099491 13.512196,29.099491 L 28.753906,29.099491 C 29.454588,29.099491 30.011012,28.704876 30.011012,28.211379 L 30.011012,12.762414 C 30.011949,12.272547 29.460209,11.87521 28.755779,11.87521 z M 23.96716,27.325989 L 18.468492,27.325989 L 19.655342,20.025151 C 18.867543,19.529841 18.334538,18.676202 18.334538,17.696467 C 18.336411,16.15157 19.628177,14.902409 21.2197,14.902409 C 22.813096,14.902409 24.104861,16.150663 24.104861,17.696467 C 24.104861,18.736075 23.511904,19.614207 22.644482,20.092281 L 23.96716,27.325989 z "
   id="path5"
   style="fill:#00acda" />
<linearGradient
   id="SVGID_1_"
   gradientUnits="userSpaceOnUse"
   x1="292.2305"
   y1="545.8604"
   x2="308.5371"
   y2="545.8604"
   gradientTransform="matrix(0.9367408,0,0,0.9071618,-260.24384,-474.69618)">
	<stop
   offset="0"
   style="stop-color:#B1D2DB"
   id="stop8" />
	<stop
   offset="1"
   style="stop-color:#0B7C9E"
   id="stop10" />
</linearGradient>
<path
   d="M 25.331992,27.898409 L 24.00182,20.618435 C 24.856127,19.876377 25.34698,18.830419 25.34698,17.694652 C 25.34698,15.489342 23.495043,13.698605 21.221573,13.698605 C 18.94623,13.698605 17.097103,15.49025 17.096166,17.68921 C 17.096166,18.766918 17.543929,19.774775 18.323297,20.517741 L 17.122395,27.898409 C 17.122395,27.898409 13.507512,27.898409 13.500955,27.898409 L 13.500955,13.077199 C 13.506576,13.077199 28.770767,13.077199 28.776388,13.077199 L 28.776388,27.898409 C 28.770767,27.898409 28.765147,27.898409 28.759526,27.898409 L 25.331992,27.898409 z "
   id="path12"
   style="fill:url(#SVGID_1_)" />
</svg>