<?xml version="1.0" encoding="utf-8"?>
<!-- Generator: Adobe Illustrator 14.0.0, SVG Export Plug-In . SVG Version: 6.00 Build 43363)  -->
<!DOCTYPE svg PUBLIC "-//W3C//DTD SVG 1.1//EN" "http://www.w3.org/Graphics/SVG/1.1/DTD/svg11.dtd">
<svg version="1.1" id="Layer_1" xmlns="http://www.w3.org/2000/svg" xmlns:xlink="http://www.w3.org/1999/xlink" x="0px" y="0px"
	 width="32px" height="32px" viewBox="0 0 32 32" enable-background="new 0 0 32 32" xml:space="preserve">
<g>
	<path fill="#010101" d="M16,32C7.178,32,0,24.822,0,16S7.178,0,16,0c8.822,0,16,7.178,16,16S24.822,32,16,32L16,32z M18.025,28
		v-4.26h-5.097V28H18.025z M17.846,19.979c0.086-0.645,0.26-1.209,0.521-1.687c0.381-0.696,1.168-1.506,2.479-2.544
		c1.584-1.246,2.629-2.285,3.109-3.092c0.457-0.77,0.68-1.537,0.68-2.35c0-2.048-0.895-3.647-2.732-4.891
		C20.518,4.477,18.641,4,16.323,4c-2.972,0-5.177,0.671-6.552,1.996c-1.204,1.159-1.954,2.611-2.28,4.419l4.803,0.594
		c0.228-1.086,0.611-1.894,1.164-2.452c0.733-0.74,1.662-1.117,2.76-1.117c1.025,0,1.834,0.271,2.402,0.804
		c0.401,0.377,0.882,1.069,0.882,2.22c0,0.965-0.582,1.909-1.779,2.885c-2.133,1.769-2.966,2.582-3.288,2.95
		c-0.422,0.485-0.744,1.028-0.957,1.612c-0.19,0.523-0.297,1.218-0.319,2.066h4.687V19.979z"/>
	<path fill="#70BE46" d="M16,1C7.716,1,1,7.716,1,16s6.716,15,15,15s15-6.716,15-15S24.284,1,16,1z M19.025,29h-7.097v-6.26h7.097
		V29z M24.814,13.167c-0.547,0.918-1.662,2.04-3.35,3.365c-1.174,0.93-1.915,1.677-2.223,2.241c-0.311,0.563-0.465,1.3-0.465,2.205
		h-6.625v-0.662c0-1.127,0.128-2.043,0.384-2.746c0.256-0.703,0.637-1.346,1.142-1.928c0.506-0.582,1.642-1.604,3.409-3.068
		c0.939-0.768,1.412-1.471,1.412-2.11c0-0.639-0.188-1.136-0.564-1.491c-0.379-0.354-0.951-0.531-1.72-0.531
		c-0.825,0-1.508,0.272-2.049,0.819c-0.541,0.548-0.886,1.5-1.038,2.86l-6.766-0.837C6.596,8.796,7.5,6.794,9.075,5.277
		C10.65,3.76,13.067,3,16.323,3c2.534,0,4.579,0.529,6.138,1.587c2.115,1.431,3.174,3.336,3.174,5.72
		C25.635,11.294,25.361,12.248,24.814,13.167z"/>
	
		<linearGradient id="SVGID_1_" gradientUnits="userSpaceOnUse" x1="281.0801" y1="1109.3848" x2="309.0801" y2="1109.3848" gradientTransform="matrix(1 0 0 1 -279.0801 -1093.6797)">
		<stop  offset="0" style="stop-color:#B0D68C"/>
		<stop  offset="1" style="stop-color:#219146"/>
	</linearGradient>
	<path fill="url(#SVGID_1_)" d="M20.025,21.74h-0.244v-0.762c0-0.733,0.113-1.313,0.34-1.728c0.137-0.25,0.572-0.833,1.967-1.938
		c1.799-1.414,2.973-2.604,3.586-3.639c0.639-1.07,0.961-2.205,0.961-3.371c0-2.306-0.871-4.238-2.594-5.761
		C27.643,7.081,30,11.271,30,16c0,6.32-4.211,11.677-9.975,13.41V21.74z M10.928,29.05C5.708,27.014,2,21.932,2,16
		c0-5.673,3.393-10.57,8.255-12.768C9.547,3.595,8.923,4.036,8.383,4.557c-1.745,1.68-2.758,3.912-3.013,6.633l-0.09,0.967
		l8.733,1.08l0.112-1.006c0.156-1.4,0.497-2.006,0.755-2.267c0.353-0.356,0.778-0.522,1.338-0.522c0.494,0,0.853,0.09,1.033,0.262
		c0.108,0.102,0.251,0.29,0.251,0.761c0,0.234-0.273,0.708-1.044,1.334c-1.832,1.519-2.985,2.56-3.532,3.188
		c-0.584,0.671-1.031,1.425-1.328,2.24c-0.299,0.822-0.444,1.834-0.444,3.09v1.425h-0.227v7.31L10.928,29.05L10.928,29.05z
		 M14.114,2.126C14.73,2.043,15.361,2,16,2c0.048,0,0.097,0,0.145,0.001C15.433,2.007,14.755,2.049,14.114,2.126L14.114,2.126z"/>
</g>
</svg>
