<?xml version="1.0" encoding="utf-8"?>
<!-- Generator: Adobe Illustrator 16.0.0, SVG Export Plug-In . SVG Version: 6.00 Build 0)  -->
<!DOCTYPE svg PUBLIC "-//W3C//DTD SVG 1.1//EN" "http://www.w3.org/Graphics/SVG/1.1/DTD/svg11.dtd">
<svg version="1.1" id="Layer_1" xmlns="http://www.w3.org/2000/svg" xmlns:xlink="http://www.w3.org/1999/xlink" x="0px" y="0px"
	 width="32px" height="32px" viewBox="0 0 32 32" enable-background="new 0 0 32 32" xml:space="preserve">
<g>
	<path d="M2.964,32C1.329,32,0,30.671,0,29.036V6.048c0-1.634,1.329-2.964,2.964-2.964h17.384c1.635,0,2.965,1.33,2.965,2.964
		v22.988c0,1.635-1.33,2.964-2.965,2.964H2.964z"/>
	<path fill="#A46829" d="M0.987,6.048c0-1.091,0.885-1.976,1.976-1.976h17.385c1.092,0,1.977,0.885,1.977,1.976v22.988
		c0,1.091-0.885,1.976-1.977,1.976H2.963c-1.091,0-1.976-0.885-1.976-1.976V6.048z"/>
	<path d="M2.903,30.046c-0.546,0-0.988-0.442-0.988-0.987V5.493c0-0.546,0.442-0.987,0.988-0.987h17.464
		c0.547,0,0.988,0.441,0.988,0.987v18.024c0,0.262-0.104,0.514-0.289,0.698l-5.541,5.539c-0.185,0.187-0.436,0.29-0.697,0.29
		L2.903,30.046L2.903,30.046z"/>
	<polygon id="polygon2926_40_" fill="#FFFFFF" points="20.367,23.518 20.367,5.493 2.903,5.493 2.903,29.059 14.828,29.059 	"/>
	<path d="M18.706,2.496l-4.62-1.025C13.617,0.581,12.691,0,11.654,0c-1.035,0-1.963,0.581-2.43,1.471l-4.62,1.025
		c-0.451,0.1-0.773,0.501-0.773,0.964v1.72c0,0.546,0.442,0.988,0.988,0.988h13.673c0.546,0,0.987-0.442,0.987-0.988V3.46
		C19.48,2.997,19.158,2.596,18.706,2.496z M11.656,3.408c-0.594,0-1.072-0.479-1.072-1.071c0-0.592,0.479-1.071,1.072-1.071
		c0.592,0,1.07,0.479,1.07,1.071C12.727,2.93,12.248,3.408,11.656,3.408z"/>
	<path fill="#02ABD8" d="M13.361,2.322c-0.194-0.765-0.881-1.334-1.707-1.334c-0.824,0-1.512,0.568-1.706,1.334L4.819,3.46v1.72
		h13.673V3.46L13.361,2.322z M11.654,3.057c-0.434,0-0.783-0.352-0.783-0.783c0-0.434,0.352-0.785,0.783-0.785
		c0.434,0,0.785,0.352,0.785,0.785C12.439,2.705,12.088,3.057,11.654,3.057z"/>
	<path id="path2930_41_" d="M20.525,22.843c0.334,0,0.639,0.2,0.769,0.513c0.127,0.313,0.056,0.67-0.183,0.908l-5.538,5.537
		c-0.156,0.16-0.369,0.245-0.587,0.245c-0.108,0-0.215-0.021-0.318-0.063c-0.311-0.129-0.514-0.433-0.514-0.769v-5.54
		c0-0.457,0.373-0.831,0.832-0.831H20.525L20.525,22.843z"/>
	<polygon id="polygon2932_41_" fill="#FFFFFF" points="14.986,29.214 20.525,23.674 14.986,23.674 	"/>
</g>
<path fill="#FFFFFF" d="M22.693,10.467c-0.662-1.136-1.89-1.842-3.202-1.842c-1.321,0-2.549,0.71-3.201,1.85L6.485,27.452
	c-0.655,1.141-0.655,2.557,0,3.693C6.671,31.469,6.906,31.752,7.173,32h13.166c1.635,0,2.965-1.329,2.965-2.964V11.524
	L22.693,10.467z"/>
<g>
	<path d="M9.701,32c-0.966-0.002-1.861-0.52-2.34-1.353c-0.479-0.83-0.479-1.864,0-2.697l9.804-16.976
		c0.476-0.831,1.371-1.35,2.335-1.35c0.958,0,1.854,0.516,2.339,1.346l9.801,16.979c0.48,0.837,0.48,1.871-0.001,2.701
		C31.163,31.481,30.267,32,29.302,32H9.701z"/>
	<path fill="#ED2C29" d="M9.701,30.999c-0.607,0-1.17-0.322-1.473-0.85c-0.303-0.525-0.303-1.174,0-1.7l9.803-16.975
		c0.301-0.526,0.863-0.85,1.469-0.85c0.609,0,1.168,0.324,1.475,0.85l9.799,16.975c0.304,0.528,0.304,1.176,0,1.7
		C30.472,30.677,29.909,31,29.302,31L9.701,30.999L9.701,30.999z"/>
	<polygon fill="#FFFFFF" points="10.721,29.022 19.5,13.817 28.281,29.022 	"/>
	<g>
		<path fill="#020202" d="M18.882,24.342l-1.012-5.886c-0.015-0.101-0.024-0.197-0.024-0.3c0-0.844,0.551-1.266,1.654-1.266
			s1.654,0.42,1.654,1.26c0,0.115-0.008,0.216-0.023,0.306l-1.013,5.886H18.882z M19.5,25.551c0.967,0,1.451,0.486,1.451,1.45
			c0,0.966-0.484,1.448-1.451,1.448c-0.963,0-1.448-0.482-1.448-1.448C18.052,26.037,18.537,25.551,19.5,25.551z"/>
	</g>
</g>
</svg>
