<?xml version="1.0" encoding="utf-8"?>
<!-- Generator: Adobe Illustrator 16.0.0, SVG Export Plug-In . SVG Version: 6.00 Build 0)  -->
<!DOCTYPE svg PUBLIC "-//W3C//DTD SVG 1.1//EN" "http://www.w3.org/Graphics/SVG/1.1/DTD/svg11.dtd">
<svg version="1.1" id="Layer_1" xmlns="http://www.w3.org/2000/svg" xmlns:xlink="http://www.w3.org/1999/xlink" x="0px" y="0px"
	 width="32px" height="32px" viewBox="0 0 32 32" enable-background="new 0 0 32 32" xml:space="preserve">
<g>
	<path d="M2.964,32C1.329,32,0,30.671,0,29.036V6.048c0-1.634,1.329-2.964,2.964-2.964h17.384c1.635,0,2.965,1.33,2.965,2.964
		v22.988c0,1.635-1.33,2.964-2.965,2.964H2.964z"/>
	<path fill="#A46829" d="M0.988,6.048c0-1.091,0.885-1.976,1.976-1.976H20.35c1.09,0,1.977,0.885,1.977,1.976v22.988
		c0,1.091-0.887,1.976-1.977,1.976H2.963c-1.091,0-1.976-0.885-1.976-1.976L0.988,6.048L0.988,6.048z"/>
	<path d="M2.904,30.046c-0.546,0-0.988-0.442-0.988-0.987V5.493c0-0.546,0.442-0.987,0.988-0.987h17.465
		c0.547,0,0.986,0.441,0.986,0.987v18.024c0,0.262-0.104,0.514-0.289,0.698l-5.54,5.539c-0.186,0.187-0.436,0.29-0.697,0.29
		L2.904,30.046L2.904,30.046z"/>
	<polygon id="polygon2926_40_" fill="#FFFFFF" points="20.369,23.518 20.369,5.493 2.904,5.493 2.904,29.059 14.83,29.059 	"/>
	<path d="M18.707,2.496l-4.62-1.025C13.619,0.581,12.692,0,11.656,0c-1.035,0-1.963,0.581-2.431,1.471l-4.62,1.025
		c-0.451,0.1-0.773,0.501-0.773,0.964v1.72c0,0.546,0.442,0.988,0.988,0.988h13.674c0.545,0,0.986-0.442,0.986-0.988V3.46
		C19.48,2.997,19.16,2.596,18.707,2.496z M11.658,3.408c-0.594,0-1.072-0.479-1.072-1.071c0-0.592,0.479-1.071,1.072-1.071
		c0.592,0,1.069,0.479,1.069,1.071C12.727,2.93,12.25,3.408,11.658,3.408z"/>
	<path fill="#02ABD8" d="M13.362,2.322c-0.194-0.765-0.881-1.334-1.706-1.334c-0.824,0-1.513,0.568-1.707,1.334L4.82,3.46v1.72
		h13.674V3.46L13.362,2.322z M11.656,3.057c-0.434,0-0.783-0.352-0.783-0.783c0-0.434,0.351-0.785,0.783-0.785
		c0.434,0,0.784,0.352,0.784,0.785C12.44,2.705,12.087,3.057,11.656,3.057z"/>
	<path id="path2930_41_" d="M20.525,22.843c0.334,0,0.641,0.2,0.77,0.513c0.127,0.313,0.057,0.67-0.182,0.908l-5.54,5.537
		c-0.156,0.16-0.369,0.245-0.587,0.245c-0.108,0-0.214-0.021-0.317-0.063c-0.312-0.129-0.515-0.433-0.515-0.769v-5.54
		c0-0.457,0.373-0.831,0.832-0.831H20.525L20.525,22.843z"/>
	<polygon id="polygon2932_41_" fill="#FFFFFF" points="14.987,29.214 20.525,23.674 14.987,23.674 	"/>
</g>
<path fill="#FFFFFF" d="M23.313,26.664V12.523l-7.177,7.176l-3.347-3.347c-0.378-0.378-0.88-0.586-1.414-0.586
	s-1.036,0.208-1.414,0.586l-4.242,4.244c-0.778,0.779-0.779,2.047,0,2.828l8.582,8.581h3.669L23.313,26.664z"/>
<g>
	<path d="M16.142,32c-0.065,0-0.131-0.006-0.195-0.021c-0.193-0.031-0.378-0.125-0.525-0.271l-8.996-8.995
		c-0.391-0.392-0.391-1.022,0-1.413l4.242-4.244c0.188-0.188,0.442-0.293,0.707-0.293c0.266,0,0.52,0.105,0.707,0.293l4.054,4.055
		l9.915-9.915c0.195-0.195,0.451-0.293,0.707-0.293s0.513,0.098,0.707,0.293l4.242,4.243c0.391,0.391,0.391,1.023,0,1.416
		L16.849,31.707C16.652,31.902,16.398,32,16.142,32z"/>
	<polygon fill="#6FBD46" points="30.999,16.143 26.757,11.9 16.134,22.521 11.375,17.762 7.132,22.005 16.129,31 16.134,30.993 
		16.142,31 	"/>
	
		<linearGradient id="SVGID_1_" gradientUnits="userSpaceOnUse" x1="588.5459" y1="780.4561" x2="609.5859" y2="780.4561" gradientTransform="matrix(1 0 0 1 -580 -759)">
		<stop  offset="0" style="stop-color:#AED58A"/>
		<stop  offset="1" style="stop-color:#1E9046"/>
	</linearGradient>
	<path fill="url(#SVGID_1_)" d="M8.546,22.005l2.828-2.829l4.054,4.055c0.195,0.194,0.451,0.293,0.707,0.293
		s0.512-0.099,0.707-0.293l9.916-9.915l2.828,2.829L16.134,29.596L8.546,22.005z"/>
</g>
</svg>
