<?xml version="1.0" encoding="UTF-8" standalone="no"?>
<!-- Generator: Adobe Illustrator 14.0.0, SVG Export Plug-In . SVG Version: 6.00 Build 43363)  -->

<svg
   xmlns:dc="http://purl.org/dc/elements/1.1/"
   xmlns:cc="http://creativecommons.org/ns#"
   xmlns:rdf="http://www.w3.org/1999/02/22-rdf-syntax-ns#"
   xmlns:svg="http://www.w3.org/2000/svg"
   xmlns="http://www.w3.org/2000/svg"
   xmlns:xlink="http://www.w3.org/1999/xlink"
   xmlns:sodipodi="http://sodipodi.sourceforge.net/DTD/sodipodi-0.dtd"
   xmlns:inkscape="http://www.inkscape.org/namespaces/inkscape"
   version="1.1"
   id="Layer_1"
   x="0px"
   y="0px"
   width="32px"
   height="32px"
   viewBox="0 0 32 32"
   enable-background="new 0 0 32 32"
   xml:space="preserve"
   inkscape:version="0.91 r13725"
   sodipodi:docname="xsd_diff.svg"><metadata
     id="metadata53"><rdf:RDF><cc:Work
         rdf:about=""><dc:format>image/svg+xml</dc:format><dc:type
           rdf:resource="http://purl.org/dc/dcmitype/StillImage" /></cc:Work></rdf:RDF></metadata><defs
     id="defs51"><linearGradient
       inkscape:collect="always"
       id="linearGradient5252"><stop
         style="stop-color:#6292c3;stop-opacity:1"
         offset="0"
         id="stop5254" /><stop
         style="stop-color:#91bce6;stop-opacity:1"
         offset="1"
         id="stop5256" /></linearGradient><linearGradient
       inkscape:collect="always"
       id="linearGradient5244"><stop
         style="stop-color:#5bc75a;stop-opacity:1"
         offset="0"
         id="stop5246" /><stop
         style="stop-color:#c0dfc0;stop-opacity:1"
         offset="1"
         id="stop5248" /></linearGradient><linearGradient
       inkscape:collect="always"
       xlink:href="#linearGradient5244"
       id="linearGradient5250"
       x1="-42.233574"
       y1="53.075523"
       x2="-42.402489"
       y2="29.12228"
       gradientUnits="userSpaceOnUse"
       gradientTransform="translate(-75.503,27.998375)" /><linearGradient
       inkscape:collect="always"
       xlink:href="#linearGradient5252"
       id="linearGradient5258"
       x1="-31.262299"
       y1="52.987133"
       x2="-26.389706"
       y2="29.210669"
       gradientUnits="userSpaceOnUse"
       gradientTransform="translate(-77.502502,27.998375)" /></defs><sodipodi:namedview
     pagecolor="#ffffff"
     bordercolor="#666666"
     borderopacity="1"
     objecttolerance="10"
     gridtolerance="10"
     guidetolerance="10"
     inkscape:pageopacity="0"
     inkscape:pageshadow="2"
     inkscape:window-width="1920"
     inkscape:window-height="1017"
     id="namedview49"
     showgrid="false"
     inkscape:zoom="2"
     inkscape:cx="-5.7763796"
     inkscape:cy="-65.30408"
     inkscape:window-x="-8"
     inkscape:window-y="-8"
     inkscape:window-maximized="1"
     inkscape:current-layer="Layer_1" /><linearGradient
     id="rect3806_1_"
     gradientUnits="userSpaceOnUse"
     x1="139.8555"
     y1="2698.291"
     x2="143.4023"
     y2="2698.291"
     gradientTransform="matrix(0.7071 -0.7071 0.7071 0.7071 -1986.7445 -1786.4482)"><stop
       offset="0"
       style="stop-color:#5AC9EC"
       id="stop19" /><stop
       offset="1"
       style="stop-color:#077A93"
       id="stop21" /></linearGradient><linearGradient
     id="rect3809_1_"
     gradientUnits="userSpaceOnUse"
     x1="143.4951"
     y1="2705.2666"
     x2="139.3541"
     y2="2705.2666"
     gradientTransform="matrix(0.7071 -0.7071 0.7071 0.7071 -1986.849 -1786.5537)"><stop
       offset="0"
       style="stop-color:#A46829"
       id="stop25" /><stop
       offset="0.5"
       style="stop-color:#FAA81D"
       id="stop27" /><stop
       offset="1"
       style="stop-color:#FFF3E2"
       id="stop29" /></linearGradient><linearGradient
     id="path4980_1_"
     gradientUnits="userSpaceOnUse"
     x1="498.1758"
     y1="1405.8145"
     x2="510.3643"
     y2="1405.8145"
     gradientTransform="matrix(0.7071 -0.7071 0.7071 0.7071 -1334.433 -621.3325)"><stop
       offset="0"
       style="stop-color:#B0D0DA"
       id="stop36" /><stop
       offset="1"
       style="stop-color:#147D9E"
       id="stop38" /></linearGradient><radialGradient
     id="path3747_1_"
     cx="1772.2803"
     cy="267.8193"
     r="6.2613"
     gradientTransform="matrix(1.0901 0.4253 -0.5098 1.3173 -1782.3715 -1093.8546)"
     gradientUnits="userSpaceOnUse"><stop
       offset="0"
       style="stop-color:#FFFFFF"
       id="stop42" /><stop
       offset="0.4706"
       style="stop-color:#FFFFFF;stop-opacity:0.7866"
       id="stop44" /><stop
       offset="1"
       style="stop-color:#FFFFFF;stop-opacity:0"
       id="stop46" /></radialGradient><g
     id="g5222"
     transform="translate(78.751,-27.998375)"><g
       id="g5272"><path
         style="fill:#3986d2;fill-opacity:1"
         d="m -66.325078,27.998234 -1.445313,1.886719 -2.849609,3.714844 2.849609,3.71875 1.117188,1.455078 -0.544922,0.712891 -2.851562,3.716797 2.851562,3.71875 1.664062,2.167968 -0.513671,0.669922 -2.84961,3.71875 0.214844,0.279297 8.072266,0 c 0.472,0 0.847656,-0.379656 0.847656,-0.847656 l 0,-24.0625 c 0,-0.469 -0.375656,-0.84961 -0.847656,-0.84961 l -5.714844,0 z"
         id="path2924_21_-6-8-9-0"
         inkscape:connector-curvature="0" /><path
         inkscape:connector-curvature="0"
         style="fill:url(#linearGradient5258);fill-opacity:1"
         d="m -66.08158,28.847656 -0.794922,1.03711 -2.849609,3.714843 2.849609,3.71875 1.117188,1.455079 -0.544922,0.71289 -2.851563,3.716797 2.851563,3.71875 1.664062,2.167969 -0.513672,0.669922 -2.412109,3.148437 6.955078,0 0,-24.060547 -5.470703,0 z"
         id="polygon2926_21_-7-5" /><path
         inkscape:connector-curvature="0"
         style="fill:#3986d2;fill-opacity:1"
         d="m -69.33158,33.087891 -0.394531,0.513671 0.09961,0.13086 6.011719,0 0,-0.644531 -5.716797,0 z"
         id="rect6-1-6" /><path
         inkscape:connector-curvature="0"
         style="fill:#3986d2;fill-opacity:1"
         d="m -67.075721,37.060547 0.199219,0.259765 0.296875,0.386719 2.835937,0 0,-0.646484 -3.332031,0 z"
         id="rect10-1-0" /><path
         inkscape:connector-curvature="0"
         style="fill:#3986d2;fill-opacity:1"
         d="m -67.735877,41.355469 -0.496094,0.646484 4.488281,0 0,-0.646484 -3.992187,0 z"
         id="rect12-7-2" /><path
         inkscape:connector-curvature="0"
         style="fill:#3986d2;fill-opacity:1"
         d="m -66.999549,46.017578 0.494141,0.644531 2.761718,0 0,-0.644531 -3.255859,0 z"
         id="rect14-4-5" /><path
         style="fill:#258026;fill-opacity:1"
         d="m -77.901391,27.998609 c -0.472,0 -0.849609,0.380609 -0.849609,0.849609 l 0,24.0625 c 0,0.468 0.377609,0.847657 0.849609,0.847657 l 6.462891,0 -0.214844,-0.279297 2.84961,-3.71875 0.513672,-0.669922 -1.664063,-2.167969 -2.851562,-3.71875 2.851562,-3.716797 0.544922,-0.71289 -1.117187,-1.455079 -2.84961,-3.71875 2.84961,-3.714843 1.445312,-1.886719 -8.820313,0 z"
         id="path2924_21_-5-4-4"
         inkscape:connector-curvature="0" /><path
         inkscape:connector-curvature="0"
         style="fill:url(#linearGradient5250);fill-opacity:1"
         d="m -77.902391,28.847656 0,24.060547 5.746094,0 2.410156,-3.146484 0.513672,-0.669922 -1.664062,-2.167969 -2.851563,-3.71875 2.851563,-3.716797 0.544922,-0.71289 -1.117188,-1.455079 -2.849609,-3.71875 2.849609,-3.714843 0.796875,-1.039063 -7.230469,0 z"
         id="polygon2926_21_-7" /><path
         inkscape:connector-curvature="0"
         style="fill:#258026;fill-opacity:1"
         d="m -74.898484,33.087891 0,0.644531 0.679687,0 -0.09961,-0.13086 0.394531,-0.513671 -0.974609,0 z"
         id="rect6-1" /><path
         inkscape:connector-curvature="0"
         style="fill:#258026;fill-opacity:1"
         d="m -74.769578,37.060547 0,0.646484 3.597656,0 -0.296875,-0.386719 -0.199219,-0.259765 -3.101562,0 z"
         id="rect10-1" /><path
         inkscape:connector-curvature="0"
         style="fill:#258026;fill-opacity:1"
         d="m -74.769578,41.355469 0,0.646484 1.945312,0 0.496094,-0.646484 -2.441406,0 z"
         id="rect12-7" /><path
         inkscape:connector-curvature="0"
         style="fill:#258026;fill-opacity:1"
         d="m -74.769578,46.017578 0,0.644531 3.671875,0 -0.494141,-0.644531 -3.177734,0 z"
         id="rect14-4" /></g></g><g
     id="g4203"><path
       d="M21.732,24.283c-0.25,0.252-0.617,0.354-0.961,0.277c-0.35-0.078-0.629-0.33-0.75-0.664  l-0.947-2.686c-0.133-0.378-0.035-0.797,0.244-1.076l0.732-0.732c0.279-0.277,0.689-0.374,1.064-0.249l2.721,0.911  c0.342,0.113,0.6,0.396,0.682,0.746c0.08,0.349-0.021,0.716-0.277,0.969L21.732,24.283L21.732,24.283z"
       id="path4948_7_"
       fill="#020202" /><path
       d="M29.125,31.696c-0.406,0.405-1.059,0.404-1.465,0l-6.969-6.969  c-0.195-0.195-0.305-0.457-0.303-0.732c0-0.274,0.107-0.536,0.303-0.732l2.572-2.569c0.406-0.406,1.061-0.404,1.465,0l6.967,6.967  c0.195,0.196,0.307,0.457,0.305,0.732c0,0.274-0.109,0.536-0.305,0.73L29.125,31.696z"
       id="path4951_7_"
       fill="#020202" /><path
       d="M20.072,20.842l0.73-0.733l2.725,0.915l-2.508,2.508L20.072,20.842  L20.072,20.842z"
       id="rect3806_9_"
       fill="url(#rect3806_1_)" /><polygon
       points="21.445,23.977 24.016,21.403 30.982,28.372 28.412,30.942 "
       id="rect3809_9_"
       fill="url(#rect3809_1_)" /><rect
       height="7.786"
       width="1.568"
       transform="matrix(0.7065 -0.7077 0.7077 0.7065 -10.8298 26.2356)"
       y="22.281"
       x="25.431"
       id="rect4968_7_"
       fill="#FAA81D" /><path
       d="M21.949,21.945c-1.543,1.542-3.596,2.393-5.779,2.393c-4.504,0-8.17-3.666-8.168-8.168  c0-2.183,0.849-4.235,2.391-5.779C11.935,8.85,13.985,7.998,16.17,8c4.502,0.004,8.168,3.669,8.168,8.169  C24.338,18.352,23.488,20.404,21.949,21.945L21.949,21.945z"
       id="path4971_7_"
       fill="#020202" /><path
       d="M23.309,16.166c0,3.937-3.195,7.134-7.131,7.133c-3.939,0-7.135-3.196-7.135-7.132  c-0.001-3.937,3.195-7.134,7.135-7.134C20.113,9.034,23.307,12.229,23.309,16.166z"
       id="path3707_16_"
       fill="#02ABD8" /><path
       d="M20.502,20.462c-1.15,1.15-2.682,1.783-4.313,1.785  c-3.36-0.002-6.099-2.734-6.099-6.096c0.004-1.63,0.637-3.164,1.785-4.313c1.153-1.152,2.685-1.788,4.313-1.785  c3.362,0.002,6.097,2.736,6.097,6.099C22.287,17.778,21.654,19.309,20.502,20.462L20.502,20.462z"
       id="path4980_7_"
       fill="url(#path4980_1_)" /><path
       d="M15.775,10.074c-1.942,0.137-3.801,1.232-4.854,3.071  c-1.332,2.315-0.999,5.085,0.629,6.998c1.117-0.841,2.572-2.157,4.383-5.573c0.958-1.806,1.852-3.1,2.678-3.99  C17.688,10.178,16.727,10.011,15.775,10.074z"
       id="path3747_9_"
       fill="url(#path3747_1_)" /></g></svg>