<?xml version="1.0" encoding="UTF-8" standalone="no"?>
<!-- Generator: Adobe Illustrator 15.0.0, SVG Export Plug-In . SVG Version: 6.00 Build 0)  -->

<svg
   xmlns:dc="http://purl.org/dc/elements/1.1/"
   xmlns:cc="http://creativecommons.org/ns#"
   xmlns:rdf="http://www.w3.org/1999/02/22-rdf-syntax-ns#"
   xmlns:svg="http://www.w3.org/2000/svg"
   xmlns="http://www.w3.org/2000/svg"
   xmlns:xlink="http://www.w3.org/1999/xlink"
   xmlns:sodipodi="http://sodipodi.sourceforge.net/DTD/sodipodi-0.dtd"
   xmlns:inkscape="http://www.inkscape.org/namespaces/inkscape"
   version="1.1"
   id="svg24779"
   inkscape:output_extension="org.inkscape.output.svg.inkscape"
   sodipodi:version="0.32"
   inkscape:version="0.48.3.1 r9886"
   sodipodi:docname="clip_content.svg"
   x="0px"
   y="0px"
   width="32px"
   height="32px"
   viewBox="0 0 32 32"
   enable-background="new 0 0 32 32"
   xml:space="preserve"><metadata
   id="metadata65"><rdf:RDF><cc:Work
       rdf:about=""><dc:format>image/svg+xml</dc:format><dc:type
         rdf:resource="http://purl.org/dc/dcmitype/StillImage" /><dc:title /></cc:Work></rdf:RDF></metadata>
<defs
   id="defs3">
	
	
		<inkscape:perspective
   id="perspective24787"
   sodipodi:type="inkscape:persp3d"
   inkscape:vp_y="0 : 1000 : 0"
   inkscape:vp_x="0 : 16 : 1"
   inkscape:vp_z="32 : 16 : 1"
   inkscape:persp3d-origin="16 : 10.666667 : 1">
		</inkscape:perspective>
<linearGradient
   inkscape:collect="always"
   xlink:href="#rect24715_4_"
   id="linearGradient3046"
   gradientUnits="userSpaceOnUse"
   x1="15.9995"
   y1="16.8047"
   x2="15.9995"
   y2="30.9516" /><linearGradient
   inkscape:collect="always"
   xlink:href="#rect24715_3_"
   id="linearGradient3002"
   gradientUnits="userSpaceOnUse"
   x1="15.9995"
   y1="0.80470002"
   x2="15.9995"
   y2="14.9516"
   gradientTransform="translate(-2.0844328,-2.2944709)" /><linearGradient
   id="SVGID_1_"
   gradientUnits="userSpaceOnUse"
   x1="11.791"
   y1="10.9746"
   x2="15.7603"
   y2="10.9746"
   gradientTransform="matrix(-1,0,0,1,32,0)"><stop
     offset="0"
     style="stop-color:#B1D2DB"
     id="stop10" /><stop
     offset="1"
     style="stop-color:#0B7C9E"
     id="stop12-0" /></linearGradient><linearGradient
   id="SVGID_2_"
   gradientUnits="userSpaceOnUse"
   x1="12.4971"
   y1="25.1992"
   x2="17.313499"
   y2="25.1992"
   gradientTransform="matrix(-1,0,0,1,32,0)"><stop
     offset="0"
     style="stop-color:#F59699"
     id="stop19" /><stop
     offset="1"
     style="stop-color:#8F1A1D"
     id="stop21" /></linearGradient><linearGradient
   id="SVGID_3_"
   gradientUnits="userSpaceOnUse"
   x1="2.4296999"
   y1="13.6533"
   x2="19.459999"
   y2="13.6533"
   gradientTransform="matrix(-1,0,0,1,32,0)"><stop
     offset="0"
     style="stop-color:#B1D2DB"
     id="stop30" /><stop
     offset="1"
     style="stop-color:#0B7C9E"
     id="stop32" /></linearGradient><linearGradient
   id="SVGID_4_"
   gradientUnits="userSpaceOnUse"
   x1="20.1504"
   y1="16.3374"
   x2="29.726601"
   y2="16.3374"
   gradientTransform="matrix(-1,0,0,1,32,0)"><stop
     offset="0"
     style="stop-color:#F59699"
     id="stop39" /><stop
     offset="1"
     style="stop-color:#8F1A1D"
     id="stop41" /></linearGradient></defs>
<sodipodi:namedview
   id="base"
   inkscape:cy="16"
   inkscape:cx="11.998506"
   inkscape:zoom="15.836083"
   showgrid="true"
   borderopacity="1.0"
   bordercolor="#666666"
   pagecolor="#ffffff"
   inkscape:window-y="24"
   inkscape:window-x="285"
   inkscape:window-height="694"
   inkscape:window-width="1021"
   inkscape:pageshadow="2"
   inkscape:pageopacity="0.0"
   inkscape:current-layer="g9"
   inkscape:document-units="px"
   inkscape:grid-bbox="true"
   inkscape:window-maximized="0"
   inkscape:snap-global="false">
	<inkscape:grid
   type="xygrid"
   id="grid3125" /></sodipodi:namedview>
<g
   id="g7"
   transform="matrix(0.79348626,0,0,0.81023061,3.8400397,3.2149167)">
	<g
   id="g9">
		<linearGradient
   id="rect24715_3_"
   gradientUnits="userSpaceOnUse"
   x1="15.9995"
   y1="0.80470002"
   x2="15.9995"
   y2="14.9516">
			<stop
   offset="0"
   style="stop-color:#FFF3DF"
   id="stop12" />
			<stop
   offset="0.5394"
   style="stop-color:#F9A620"
   id="stop14" />
			<stop
   offset="1"
   style="stop-color:#A36628"
   id="stop16" />
		</linearGradient>
		<rect
   id="rect24715_1_"
   y="-1.2284707"
   width="32"
   height="13.867"
   style="fill:url(#linearGradient3002)"
   x="-2.0844328" />
		<g
   id="g19"
   transform="translate(-2.0844328,-2.2944709)">
			<rect
   y="14.934"
   width="32"
   height="1.066"
   id="rect21"
   x="0"
   style="fill:#f9a620" />
		</g>
		<g
   id="g23"
   style="fill:#000000"
   transform="translate(-2.0844328,-2.2944709)">
			<rect
   width="33.716316"
   height="1.066"
   id="rect25"
   x="-1.3786813"
   y="-0.22043906"
   style="fill:#000000" />
		</g>
	<path
   style="fill:none;stroke:#000000;stroke-width:1.29012561px;stroke-linecap:butt;stroke-linejoin:miter;stroke-opacity:1"
   d="m 30.274397,14.234824 c -33.7141826,0 -33.7141826,0 -33.7141826,0"
   id="path3035"
   inkscape:connector-curvature="0" /><g
   id="g3"
   transform="matrix(1.0123086,0,0,0.9662913,2.8379069,4.4010301)"><path
     d="m 11.769,25.199 c 0,3.749 2.39,6.8 5.327,6.8 2.937,0 5.327,-3.051 5.327,-6.8 0,-2.743 -1.282,-5.106 -3.119,-6.181 -0.259,-0.469 0.315,-1.209 0.322,-1.217 0.111,-0.136 0.189,-0.306 0.217,-0.479 L 22.41,1.157 C 22.455,0.875 22.377,0.587 22.196,0.366 22.014,0.145 21.748,0.012 21.463,0.001 c -0.003,0 -0.005,0 -0.008,0 -0.396,0 -2.096,0.091 -4.407,1.699 -0.149,0.104 -0.268,0.247 -0.342,0.414 -1.018,2.284 -2.226,9.917 -2.464,14.332 -0.031,0.6 0.199,1.18 0.401,1.691 0.084,0.212 0.211,0.531 0.219,0.645 -0.01,0.125 -0.045,0.212 -0.078,0.301 -0.341,0.211 -0.661,0.465 -0.956,0.759 -0.039,0.036 -0.082,0.067 -0.114,0.109 -1.188,1.247 -1.945,3.137 -1.945,5.248 z m 3.759,0 c 0,-1.301 0.732,-2.441 1.567,-2.441 0.835,0 1.567,1.141 1.567,2.441 0,1.3 -0.732,2.441 -1.567,2.441 -0.835,0 -1.567,-1.14 -1.567,-2.441 z"
     id="path5"
     inkscape:connector-curvature="0" /><path
     d="m 15.241,16.499 c -0.038,0.73 0.663,1.74 0.619,2.329 -0.112,1.485 -1.354,1.728 -1.354,1.728 0,0 5.295,0.594 4.093,-0.79 -0.979,-1.127 0.257,-2.601 0.257,-2.601 L 21.423,1 c 0,0 -1.529,-0.062 -3.804,1.521 -0.899,2.019 -2.131,9.396 -2.378,13.978 z"
     id="path7"
     inkscape:connector-curvature="0"
     style="fill:#00acda" /><linearGradient
     id="linearGradient3051"
     gradientUnits="userSpaceOnUse"
     x1="11.791"
     y1="10.9746"
     x2="15.7603"
     y2="10.9746"
     gradientTransform="matrix(-1,0,0,1,32,0)"><stop
       offset="0"
       style="stop-color:#B1D2DB"
       id="stop3053" /><stop
       offset="1"
       style="stop-color:#0B7C9E"
       id="stop3055" /></linearGradient><path
     d="m 16.732,19.683 c 0.264,0 0.479,-0.008 0.653,-0.02 -0.414,-1.088 0.055,-2.231 0.521,-2.901 L 20.209,2.266 c -0.475,0.171 -1.078,0.452 -1.778,0.913 -0.823,2.19 -1.958,9.048 -2.19,13.374 -0.009,0.161 0.154,0.574 0.263,0.848 0.193,0.487 0.393,0.991 0.354,1.502 -0.021,0.287 -0.074,0.546 -0.151,0.78 0.008,0 0.017,0 0.025,0 l 0,0 z"
     id="path14"
     style="fill:url(#SVGID_1_)"
     inkscape:connector-curvature="0" /><path
     d="m 12.769,25.199 c 0,3.203 1.938,5.8 4.327,5.8 2.389,0 4.327,-2.597 4.327,-5.8 0,-3.203 -1.938,-5.8 -4.327,-5.8 -2.389,0 -4.327,2.597 -4.327,5.8 z m 1.759,0 c 0,-1.9 1.149,-3.441 2.567,-3.441 1.418,0 2.567,1.541 2.567,3.441 0,1.901 -1.149,3.441 -2.567,3.441 -1.418,0 -2.567,-1.539 -2.567,-3.441 z"
     id="path16"
     inkscape:connector-curvature="0"
     style="fill:#ed2526" /><linearGradient
     id="linearGradient3059"
     gradientUnits="userSpaceOnUse"
     x1="12.4971"
     y1="25.1992"
     x2="17.313499"
     y2="25.1992"
     gradientTransform="matrix(-1,0,0,1,32,0)"><stop
       offset="0"
       style="stop-color:#F59699"
       id="stop3061" /><stop
       offset="1"
       style="stop-color:#8F1A1D"
       id="stop3063" /></linearGradient><path
     d="m 17.096,29.999 c -0.897,0 -1.727,-0.545 -2.332,-1.413 0.621,0.66 1.433,1.055 2.332,1.055 0.898,0 1.71,-0.394 2.331,-1.053 -0.606,0.867 -1.434,1.411 -2.331,1.411 l 0,0 z m -2.409,-8.073 c 0.611,-0.934 1.473,-1.526 2.409,-1.526 0.936,0 1.797,0.592 2.407,1.525 -0.635,-0.725 -1.48,-1.167 -2.407,-1.167 -0.928,0 -1.774,0.443 -2.409,1.168 l 0,0 z"
     id="path23"
     style="fill:url(#SVGID_2_)"
     inkscape:connector-curvature="0" /><path
     d="m 0.295,17.011 c 0.265,2.663 3.025,4.671 6.422,4.671 0.286,0 0.577,-0.014 0.871,-0.043 1.756,-0.175 3.365,-0.858 4.532,-1.924 0.561,-0.512 0.983,-1.085 1.274,-1.693 0.088,-0.04 0.18,-0.079 0.304,-0.101 0.095,0.004 0.406,0.093 0.633,0.157 0.422,0.12 0.9,0.257 1.379,0.257 0.119,0 0.234,-0.008 0.346,-0.025 4.368,-0.673 11.843,-2.629 14.017,-3.868 0.158,-0.091 0.289,-0.223 0.378,-0.382 1.471,-2.637 1.28,-4.372 1.254,-4.561 C 31.666,9.216 31.507,8.964 31.269,8.805 31.103,8.695 30.91,8.638 30.714,8.638 c -0.085,0 -0.17,0.011 -0.254,0.033 l -15.832,4.154 c -0.175,0.046 -0.335,0.139 -0.461,0.269 -0.16,0.159 -0.615,0.496 -0.974,0.496 -0.066,0 -0.128,-0.017 -0.188,-0.043 -1.105,-1.538 -3.189,-2.552 -5.599,-2.552 -0.287,0 -0.579,0.014 -0.873,0.043 -1.755,0.175 -3.364,0.858 -4.531,1.923 -1.247,1.139 -1.854,2.577 -1.707,4.05 z M 4.632,16.578 C 4.583,16.093 4.926,15.701 5.135,15.511 5.57,15.115 6.215,14.847 6.907,14.778 7.028,14.766 7.148,14.76 7.266,14.76 c 1.173,0 2.149,0.587 2.224,1.336 0.049,0.486 -0.294,0.879 -0.502,1.069 -0.435,0.396 -1.08,0.663 -1.772,0.732 -0.121,0.012 -0.241,0.019 -0.36,0.019 -1.172,0 -2.15,-0.588 -2.224,-1.338 z"
     id="path25"
     inkscape:connector-curvature="0" /><path
     d="m 15.903,17.321 c -0.724,0.111 -1.798,-0.487 -2.379,-0.385 -1.468,0.259 -1.586,1.519 -1.586,1.519 0,0 -1.115,-5.21 0.382,-4.15 1.218,0.862 2.562,-0.513 2.562,-0.513 L 30.714,9.638 c 0,0 0.213,1.515 -1.137,3.935 -1.92,1.094 -9.139,3.05 -13.674,3.748 z"
     id="path27"
     inkscape:connector-curvature="0"
     style="fill:#00acda" /><linearGradient
     id="linearGradient3068"
     gradientUnits="userSpaceOnUse"
     x1="2.4296999"
     y1="13.6533"
     x2="19.459999"
     y2="13.6533"
     gradientTransform="matrix(-1,0,0,1,32,0)"><stop
       offset="0"
       style="stop-color:#B1D2DB"
       id="stop3070" /><stop
       offset="1"
       style="stop-color:#0B7C9E"
       id="stop3072" /></linearGradient><path
     d="m 15.71,16.335 c 4.319,-0.661 11.032,-2.468 13.132,-3.504 0.386,-0.739 0.605,-1.367 0.729,-1.859 l -14.198,3.725 c -0.382,0.323 -1.196,0.893 -2.179,0.893 -0.225,0 -0.442,-0.029 -0.653,-0.087 0.008,0.2 0.024,0.429 0.049,0.678 0.226,-0.1 0.479,-0.178 0.762,-0.228 0.101,-0.019 0.208,-0.027 0.321,-0.027 0.401,0 0.812,0.117 1.208,0.23 0.295,0.083 0.631,0.179 0.829,0.179 l 0,0 z"
     id="path34"
     style="fill:url(#SVGID_3_)"
     inkscape:connector-curvature="0" /><path
     d="m 12.833,15.764 c -0.236,-2.378 -3.013,-4.049 -6.2,-3.731 -3.187,0.318 -5.58,2.501 -5.343,4.879 0.236,2.379 3.012,4.049 6.199,3.732 3.189,-0.318 5.581,-2.502 5.344,-4.88 z m -9.196,0.914 c -0.141,-1.41 1.279,-2.707 3.171,-2.895 1.891,-0.188 3.538,0.803 3.678,2.214 0.141,1.41 -1.278,2.707 -3.17,2.896 -1.892,0.189 -3.539,-0.804 -3.679,-2.215 z"
     id="path36"
     inkscape:connector-curvature="0"
     style="fill:#ed2526" /><linearGradient
     id="linearGradient3076"
     gradientUnits="userSpaceOnUse"
     x1="20.1504"
     y1="16.3374"
     x2="29.726601"
     y2="16.3374"
     gradientTransform="matrix(-1,0,0,1,32,0)"><stop
       offset="0"
       style="stop-color:#F59699"
       id="stop3078" /><stop
       offset="1"
       style="stop-color:#8F1A1D"
       id="stop3080" /></linearGradient><path
     d="M 4.104,19.104 C 3.073,18.588 2.38,17.769 2.286,16.811 2.203,15.984 2.582,15.14 3.352,14.437 c 0.065,-0.06 0.133,-0.118 0.203,-0.175 -0.672,0.722 -1.002,1.622 -0.913,2.515 0.093,0.942 0.64,1.762 1.462,2.327 l 0,0 z m 6.461,-0.689 c 0.673,-0.722 1.004,-1.624 0.915,-2.517 -0.093,-0.942 -0.64,-1.763 -1.461,-2.328 1.031,0.515 1.724,1.335 1.818,2.293 0.083,0.828 -0.296,1.671 -1.066,2.375 -0.066,0.061 -0.206,0.177 -0.206,0.177 z"
     id="path43"
     style="fill:url(#SVGID_4_)"
     inkscape:connector-curvature="0" /></g></g>
	
</g>

<path
   style="fill:none;stroke:#000000;stroke-width:1.05352342px;stroke-linecap:butt;stroke-linejoin:miter;stroke-opacity:1"
   d="m 1.6316052,1.3745117 c 0,13.3189393 0,13.3189393 0,13.3189393"
   id="path3127"
   inkscape:connector-curvature="0" /><path
   style="fill:none;stroke:#000000;stroke-width:1.04698265px;stroke-linecap:butt;stroke-linejoin:miter;stroke-opacity:1"
   d="m 27.346031,1.2336874 c 0,13.1540726 0,13.1540726 0,13.1540726"
   id="path3127-3"
   inkscape:connector-curvature="0" /></svg>