<?xml version="1.0" encoding="utf-8"?>
<!-- Generator: Adobe Illustrator 15.0.0, SVG Export Plug-In . SVG Version: 6.00 Build 0)  -->
<!DOCTYPE svg PUBLIC "-//W3C//DTD SVG 1.1//EN" "http://www.w3.org/Graphics/SVG/1.1/DTD/svg11.dtd">
<svg version="1.1"
	 id="svg24779" xmlns:dc="http://purl.org/dc/elements/1.1/" xmlns:cc="http://creativecommons.org/ns#" xmlns:rdf="http://www.w3.org/1999/02/22-rdf-syntax-ns#" xmlns:svg="http://www.w3.org/2000/svg" xmlns:sodipodi="http://sodipodi.sourceforge.net/DTD/sodipodi-0.dtd" xmlns:inkscape="http://www.inkscape.org/namespaces/inkscape" inkscape:output_extension="org.inkscape.output.svg.inkscape" sodipodi:version="0.32" inkscape:version="0.46" sodipodi:docname="form.svg"
	 xmlns="http://www.w3.org/2000/svg" xmlns:xlink="http://www.w3.org/1999/xlink" x="0px" y="0px" width="32px" height="32px"
	 viewBox="0 0 32 32" enable-background="new 0 0 32 32" xml:space="preserve">
<defs>
	
	
		<inkscape:perspective  id="perspective24787" sodipodi:type="inkscape:persp3d" inkscape:vp_y="0 : 1000 : 0" inkscape:vp_x="0 : 16 : 1" inkscape:vp_z="32 : 16 : 1" inkscape:persp3d-origin="16 : 10.666667 : 1">
		</inkscape:perspective>
</defs>
<sodipodi:namedview  id="base" inkscape:cy="16" inkscape:cx="2.4700676" inkscape:zoom="11.197802" showgrid="true" borderopacity="1.0" bordercolor="#666666" pagecolor="#ffffff" inkscape:window-y="22" inkscape:window-x="0" inkscape:window-height="968" inkscape:window-width="1280" inkscape:pageshadow="2" inkscape:pageopacity="0.0" inkscape:current-layer="layer1" inkscape:document-units="px" inkscape:grid-bbox="true">
	</sodipodi:namedview>
<g>
	<path id="path4993_6_" fill="#040404" d="M3.479,28.734C1.561,28.734,0,27.059,0,24.992V7.014c0-0.98,0.35-1.908,0.98-2.611
		c0.662-0.732,1.547-1.137,2.5-1.137h25.047c1.918,0,3.473,1.68,3.473,3.748v17.979c0,2.066-1.555,3.742-3.473,3.742H3.479z"/>
	<path id="rect26074_6_" fill="#FFFFFF" d="M3.479,4.311h25.045c1.346,0,2.428,1.205,2.428,2.703v17.979
		c0,1.492-1.082,2.699-2.428,2.699H3.479c-1.349,0-2.433-1.207-2.433-2.699V7.014C1.044,5.52,2.13,4.311,3.479,4.311z"/>
	
		<linearGradient id="SVGID_1_" gradientUnits="userSpaceOnUse" x1="872.2861" y1="1928.0654" x2="849.361" y2="1912.3156" gradientTransform="matrix(1 0 0 1 -842.1602 -1902.3594)">
		<stop  offset="0" style="stop-color:#020202;stop-opacity:0.21"/>
		<stop  offset="1" style="stop-color:#020202;stop-opacity:0"/>
	</linearGradient>
	<path fill="url(#SVGID_1_)" d="M3.479,26.645c-0.767,0-1.386-0.742-1.386-1.652V7.014c0-0.914,0.619-1.656,1.386-1.656h25.045
		c0.764,0,1.383,0.742,1.383,1.656v17.979c0,0.91-0.621,1.652-1.383,1.652H3.479z"/>
	
		<linearGradient id="path26098_1_" gradientUnits="userSpaceOnUse" x1="2164.4521" y1="4647.8359" x2="2164.4521" y2="4644.9863" gradientTransform="matrix(1 0 0 1 -2148.4541 -4640.0234)">
		<stop  offset="0" style="stop-color:#2E60AC"/>
		<stop  offset="1" style="stop-color:#B4D4EF"/>
	</linearGradient>
	<path id="path26098_6_" fill="url(#path26098_1_)" d="M3.49,4.311c-1.346,0-2.455,1.109-2.455,2.457v1.045h29.926V6.768
		c0-1.348-1.111-2.457-2.453-2.457H3.49z"/>
	<path fill="#020202" d="M12.391,24.34c-0.535,0-0.974-0.285-0.974-0.641v-2.414c0-0.354,0.438-0.645,0.974-0.645h16.211
		c0.537,0,0.975,0.289,0.975,0.645v2.414c0,0.355-0.438,0.642-0.975,0.642L12.391,24.34L12.391,24.34z"/>
	<rect x="12.205" y="21.285" fill="#F3F2F2" width="16.584" height="2.414"/>
	<path fill="#020202" d="M12.391,15.35c-0.535,0-0.974-0.287-0.974-0.645v-2.414c0-0.354,0.438-0.644,0.974-0.644h16.211
		c0.537,0,0.975,0.287,0.975,0.644v2.414c0,0.354-0.438,0.645-0.975,0.645H12.391z"/>
	<rect x="12.205" y="12.291" fill="#F3F2F2" width="16.584" height="2.414"/>
	<path fill="#020202" d="M2.518,14.266v-2.168h0.287v1.912H3.87v0.256H2.518z"/>
	<path fill="#020202" d="M4.08,13.48c0-0.291,0.08-0.506,0.242-0.646c0.135-0.114,0.299-0.176,0.492-0.176
		c0.217,0,0.393,0.072,0.528,0.213c0.138,0.143,0.207,0.336,0.207,0.586c0,0.201-0.028,0.36-0.092,0.477
		c-0.062,0.117-0.147,0.207-0.265,0.271c-0.116,0.063-0.241,0.096-0.381,0.096c-0.221,0-0.396-0.07-0.53-0.211
		C4.146,13.947,4.08,13.744,4.08,13.48z M4.354,13.48c0,0.201,0.045,0.352,0.131,0.451c0.088,0.1,0.199,0.148,0.332,0.148
		s0.242-0.049,0.33-0.148c0.088-0.102,0.131-0.254,0.131-0.461c0-0.193-0.045-0.34-0.133-0.441c-0.088-0.1-0.197-0.147-0.328-0.147
		c-0.133,0-0.244,0.051-0.332,0.147C4.396,13.127,4.354,13.279,4.354,13.48z"/>
	<path fill="#020202" d="M5.814,14.395l0.258,0.039c0.012,0.08,0.041,0.137,0.09,0.174c0.066,0.049,0.156,0.074,0.271,0.074
		c0.123,0,0.219-0.025,0.284-0.074c0.066-0.049,0.111-0.117,0.138-0.207c0.014-0.055,0.02-0.168,0.02-0.342
		c-0.12,0.139-0.264,0.207-0.436,0.207c-0.217,0-0.383-0.078-0.502-0.234c-0.117-0.156-0.179-0.342-0.179-0.561
		c0-0.148,0.027-0.287,0.082-0.414c0.056-0.127,0.134-0.225,0.234-0.293c0.106-0.07,0.225-0.104,0.364-0.104
		c0.186,0,0.338,0.074,0.459,0.226v-0.19h0.244v1.357c0,0.244-0.023,0.416-0.074,0.52c-0.049,0.103-0.129,0.185-0.236,0.24
		c-0.107,0.061-0.24,0.09-0.396,0.09c-0.188,0-0.34-0.043-0.455-0.127C5.866,14.691,5.811,14.564,5.814,14.395z M6.033,13.451
		c0,0.207,0.041,0.357,0.123,0.451c0.082,0.096,0.184,0.144,0.307,0.144s0.227-0.048,0.309-0.142
		c0.082-0.096,0.125-0.242,0.125-0.443c0-0.19-0.043-0.338-0.129-0.436c-0.084-0.096-0.189-0.145-0.31-0.145s-0.218,0.047-0.3,0.143
		C6.074,13.119,6.033,13.264,6.033,13.451z"/>
	<path fill="#020202" d="M7.546,12.404v-0.307h0.269v0.307H7.546z M7.546,14.266v-1.57h0.269v1.57H7.546z"/>
	<path fill="#020202" d="M8.216,14.266v-1.57h0.24v0.223c0.114-0.174,0.28-0.258,0.5-0.258c0.094,0,0.183,0.019,0.26,0.051
		c0.08,0.033,0.142,0.078,0.181,0.136c0.039,0.055,0.065,0.119,0.082,0.194c0.01,0.05,0.016,0.136,0.016,0.259v0.966H9.229v-0.955
		c0-0.109-0.013-0.189-0.031-0.244c-0.022-0.053-0.059-0.096-0.112-0.129c-0.052-0.031-0.112-0.047-0.185-0.047
		c-0.113,0-0.211,0.035-0.293,0.107c-0.082,0.069-0.123,0.207-0.123,0.408v0.859H8.216z"/>
	<path fill="#020202" d="M2.518,23.641v-2.598h0.979c0.174,0,0.305,0.008,0.396,0.021c0.127,0.022,0.231,0.066,0.319,0.121
		c0.086,0.063,0.154,0.147,0.207,0.254c0.056,0.107,0.08,0.229,0.08,0.354c0,0.22-0.069,0.406-0.211,0.56s-0.396,0.229-0.763,0.229
		H2.861v1.056H2.518V23.641z M2.861,22.277h0.672c0.221,0,0.379-0.039,0.473-0.121s0.141-0.203,0.141-0.352
		c0-0.105-0.026-0.203-0.084-0.277c-0.055-0.078-0.125-0.129-0.217-0.152c-0.059-0.016-0.164-0.022-0.32-0.022H2.861V22.277z"/>
	<path fill="#020202" d="M6.123,23.41c-0.117,0.099-0.23,0.172-0.34,0.211c-0.109,0.043-0.227,0.063-0.352,0.063
		c-0.207,0-0.367-0.051-0.479-0.149c-0.111-0.104-0.166-0.229-0.166-0.39c0-0.09,0.021-0.176,0.063-0.254
		c0.041-0.074,0.096-0.137,0.164-0.181c0.066-0.047,0.146-0.081,0.229-0.104c0.063-0.016,0.155-0.032,0.282-0.047
		c0.259-0.028,0.447-0.063,0.568-0.11c0-0.043,0.002-0.07,0.002-0.082c0-0.129-0.029-0.226-0.092-0.273
		c-0.08-0.074-0.201-0.109-0.361-0.109c-0.149,0-0.262,0.023-0.332,0.078c-0.072,0.055-0.125,0.148-0.158,0.281L4.84,22.301
		c0.027-0.133,0.074-0.242,0.139-0.324c0.065-0.082,0.16-0.145,0.283-0.188c0.121-0.047,0.266-0.066,0.426-0.066
		c0.162,0,0.291,0.02,0.394,0.055c0.103,0.039,0.174,0.086,0.224,0.146c0.047,0.059,0.079,0.129,0.1,0.215
		c0.01,0.055,0.016,0.151,0.016,0.297v0.422c0,0.3,0.006,0.484,0.021,0.564c0.014,0.077,0.039,0.151,0.08,0.227H6.188
		C6.154,23.574,6.132,23.496,6.123,23.41z M6.098,22.695c-0.115,0.051-0.289,0.086-0.521,0.121c-0.131,0.02-0.223,0.039-0.277,0.063
		s-0.098,0.059-0.127,0.104c-0.027,0.047-0.045,0.098-0.045,0.148c0,0.086,0.033,0.16,0.1,0.215
		c0.063,0.059,0.156,0.086,0.281,0.086c0.123,0,0.23-0.027,0.326-0.078c0.098-0.055,0.166-0.129,0.21-0.223
		c0.035-0.074,0.054-0.18,0.054-0.316V22.695z"/>
	<path fill="#020202" d="M6.787,23.082l0.314-0.051c0.018,0.125,0.065,0.223,0.146,0.289c0.082,0.063,0.192,0.098,0.34,0.098
		s0.256-0.027,0.326-0.086c0.069-0.064,0.104-0.129,0.104-0.211c0-0.07-0.031-0.129-0.094-0.168
		c-0.045-0.031-0.152-0.066-0.326-0.109c-0.234-0.059-0.396-0.109-0.486-0.152c-0.09-0.047-0.157-0.102-0.204-0.18
		c-0.048-0.074-0.07-0.16-0.07-0.25c0-0.086,0.021-0.164,0.06-0.234c0.039-0.074,0.09-0.133,0.158-0.18
		c0.049-0.035,0.114-0.066,0.2-0.094c0.086-0.023,0.179-0.035,0.274-0.035c0.146,0,0.277,0.02,0.39,0.063s0.192,0.099,0.248,0.172
		c0.054,0.074,0.09,0.172,0.108,0.289l-0.313,0.047c-0.014-0.098-0.057-0.176-0.125-0.229c-0.066-0.055-0.162-0.078-0.285-0.078
		c-0.148,0-0.252,0.023-0.314,0.074c-0.063,0.047-0.094,0.104-0.094,0.168c0,0.039,0.015,0.078,0.039,0.108
		c0.025,0.035,0.066,0.063,0.123,0.086c0.029,0.013,0.125,0.039,0.279,0.082c0.227,0.063,0.385,0.109,0.475,0.148
		c0.088,0.039,0.156,0.094,0.209,0.168c0.051,0.07,0.076,0.164,0.076,0.27c0,0.109-0.031,0.207-0.094,0.302
		c-0.063,0.094-0.15,0.168-0.268,0.219c-0.117,0.054-0.25,0.078-0.398,0.078c-0.244,0-0.43-0.051-0.559-0.149
		C6.902,23.432,6.822,23.281,6.787,23.082z"/>
	<path fill="#020202" d="M8.602,23.082l0.313-0.051c0.019,0.125,0.065,0.223,0.146,0.289c0.082,0.063,0.193,0.098,0.34,0.098
		c0.147,0,0.254-0.027,0.326-0.086c0.07-0.064,0.105-0.129,0.105-0.211c0-0.07-0.031-0.129-0.094-0.168
		c-0.045-0.031-0.152-0.066-0.326-0.109c-0.232-0.059-0.396-0.109-0.486-0.152c-0.092-0.047-0.158-0.102-0.205-0.18
		c-0.047-0.074-0.068-0.16-0.068-0.25c0-0.086,0.019-0.164,0.056-0.234c0.039-0.074,0.092-0.133,0.158-0.18
		c0.049-0.035,0.116-0.066,0.202-0.094c0.086-0.023,0.179-0.035,0.275-0.035c0.146,0,0.275,0.02,0.389,0.063
		c0.111,0.043,0.193,0.099,0.248,0.172c0.054,0.074,0.088,0.172,0.109,0.289l-0.313,0.047c-0.016-0.098-0.057-0.176-0.123-0.229
		c-0.068-0.055-0.164-0.078-0.289-0.078c-0.145,0-0.25,0.023-0.313,0.074c-0.063,0.047-0.094,0.104-0.094,0.168
		c0,0.039,0.015,0.078,0.039,0.108c0.024,0.035,0.065,0.063,0.121,0.086c0.032,0.013,0.127,0.039,0.28,0.082
		c0.228,0.063,0.386,0.109,0.474,0.148c0.09,0.039,0.16,0.094,0.211,0.168c0.051,0.07,0.076,0.164,0.076,0.27
		c0,0.109-0.031,0.207-0.095,0.302c-0.063,0.094-0.149,0.168-0.268,0.219c-0.115,0.052-0.248,0.078-0.396,0.078
		c-0.243,0-0.43-0.051-0.559-0.151C8.713,23.432,8.634,23.281,8.602,23.082z"/>
</g>
</svg>
