<?xml version="1.0" encoding="UTF-8" standalone="no"?>
<!-- Generator: Adobe Illustrator 15.0.0, SVG Export Plug-In . SVG Version: 6.00 Build 0)  -->

<svg
   xmlns:dc="http://purl.org/dc/elements/1.1/"
   xmlns:cc="http://creativecommons.org/ns#"
   xmlns:rdf="http://www.w3.org/1999/02/22-rdf-syntax-ns#"
   xmlns:svg="http://www.w3.org/2000/svg"
   xmlns="http://www.w3.org/2000/svg"
   xmlns:xlink="http://www.w3.org/1999/xlink"
   xmlns:sodipodi="http://sodipodi.sourceforge.net/DTD/sodipodi-0.dtd"
   xmlns:inkscape="http://www.inkscape.org/namespaces/inkscape"
   version="1.1"
   id="Layer_1"
   x="0px"
   y="0px"
   width="32px"
   height="32px"
   viewBox="0 0 32 32"
   enable-background="new 0 0 32 32"
   xml:space="preserve"
   inkscape:version="0.91 r13725"
   sodipodi:docname="line_spacing.svg"><metadata
     id="metadata17"><rdf:RDF><cc:Work
         rdf:about=""><dc:format>image/svg+xml</dc:format><dc:type
           rdf:resource="http://purl.org/dc/dcmitype/StillImage" /><dc:title /></cc:Work></rdf:RDF></metadata><defs
     id="defs15"><linearGradient
       id="polygon2871_1_"
       gradientUnits="userSpaceOnUse"
       x1="-937.9162"
       y1="402.26141"
       x2="-937.9162"
       y2="385.4657"
       gradientTransform="matrix(0,-1,-1,0,415.1065,-951.4219)"><stop
         offset="0"
         style="stop-color:#B1D2DB"
         id="stop15" /><stop
         offset="1"
         style="stop-color:#0C7C9E"
         id="stop17" /></linearGradient><linearGradient
       id="polygon2871_1_-9"
       gradientUnits="userSpaceOnUse"
       x1="-128.23801"
       y1="965.34149"
       x2="-128.23801"
       y2="948.54797"
       gradientTransform="matrix(0,1,1,0,-935.0355,114.2064)"><stop
         offset="0"
         style="stop-color:#B1D2DB"
         id="stop15-5" /><stop
         offset="1"
         style="stop-color:#0C7C9E"
         id="stop17-8" /></linearGradient><linearGradient
       inkscape:collect="always"
       xlink:href="#polygon2871_1_"
       id="linearGradient3521"
       gradientUnits="userSpaceOnUse"
       gradientTransform="matrix(0,-1,-1,0,415.1065,-951.4219)"
       x1="-937.9162"
       y1="402.26141"
       x2="-937.9162"
       y2="385.4657" /><linearGradient
       inkscape:collect="always"
       xlink:href="#polygon2871_1_"
       id="linearGradient3523"
       gradientUnits="userSpaceOnUse"
       gradientTransform="matrix(0,-1,-1,0,415.1065,-951.4219)"
       x1="-937.9162"
       y1="402.26141"
       x2="-937.9162"
       y2="385.4657" /></defs><sodipodi:namedview
     pagecolor="#ffffff"
     bordercolor="#666666"
     borderopacity="1"
     objecttolerance="10"
     gridtolerance="10"
     guidetolerance="10"
     inkscape:pageopacity="0"
     inkscape:pageshadow="2"
     inkscape:window-width="1920"
     inkscape:window-height="1017"
     id="namedview13"
     showgrid="false"
     inkscape:zoom="7.375"
     inkscape:cx="-11.199556"
     inkscape:cy="14.559022"
     inkscape:window-x="-8"
     inkscape:window-y="-8"
     inkscape:window-maximized="1"
     inkscape:current-layer="Layer_1" /><g
     transform="matrix(1.1761673,0,0,1.1366705,1.1813228,-3.3392703)"
     id="g6"
     style="fill:#000000;fill-opacity:1"><rect
       style="fill:#000000;fill-opacity:1"
       x="8.8540001"
       y="12.503"
       width="14.458"
       height="0.80500001"
       id="rect8" /><rect
       style="fill:#000000;fill-opacity:1"
       x="8.8540001"
       y="17.839001"
       width="14.458"
       height="0.80299997"
       id="rect10" /><rect
       style="fill:#000000;fill-opacity:1"
       x="8.6879997"
       y="7.5669999"
       width="14.458"
       height="0.80199999"
       id="rect12" /><rect
       style="fill:#000000;fill-opacity:1"
       x="8.8540001"
       y="23.629"
       width="14.458"
       height="0.80400002"
       id="rect14" /></g><g
     transform="matrix(0.39238754,0,0,0.42635542,-0.04090826,0.43239646)"
     id="g2881_2_"><g
       id="g20887-2_21_"
       transform="translate(-5.5755111,29.767864)"><g
         id="g2853_3_"><g
           id="g2855_4_"><path
             inkscape:connector-curvature="0"
             id="path2857_2_"
             d="m 9.525,-12.424 c 0,-0.234 0.084,-0.469 0.244,-0.654 l 11.078,-12.754 c 0.19,-0.22 0.467,-0.346 0.757,-0.345 0.291,0 0.565,0.126 0.755,0.347 l 11.024,12.754 c 0.159,0.186 0.243,0.418 0.243,0.654 0,0.141 -0.029,0.283 -0.09,0.416 -0.164,0.355 -0.519,0.584 -0.91,0.584 l -4.282,0 0,9.064 c 0,0.553 -0.447,1 -1,1 l -11.446,0 c -0.553,0 -1,-0.447 -1,-1 l 0,-9.066 -4.373,0 c -0.393,0 -0.747,-0.229 -0.91,-0.584 -0.063,-0.133 -0.09,-0.275 -0.09,-0.416 l 0,0 z" /></g></g></g><g
       id="g20887-2_20_"
       transform="translate(-5.5755111,29.767864)"><path
         style="fill:#00acda"
         inkscape:connector-curvature="0"
         id="path4348-2-1_30_"
         d="m 10.525,-12.424 11.078,-12.755 11.023,12.755 -5.282,0 0,10.066 -11.446,0 0,-10.066 -5.373,0 z" /></g><g
       id="g20887-2_19_"
       transform="translate(-5.5755111,29.767864)"><g
         id="g2862_2_"><g
           id="g2864_3_"><linearGradient
             id="linearGradient3371"
             gradientUnits="userSpaceOnUse"
             x1="-937.9162"
             y1="402.26141"
             x2="-937.9162"
             y2="385.4657"
             gradientTransform="matrix(0,-1,-1,0,415.1065,-951.4219)"><stop
               offset="0"
               style="stop-color:#B1D2DB"
               id="stop3373" /><stop
               offset="1"
               style="stop-color:#0C7C9E"
               id="stop3375" /></linearGradient><polygon
             style="fill:url(#linearGradient3523)"
             id="polygon2871_2_"
             points="16.898,-13.425 12.716,-13.425 21.601,-23.653 30.443,-13.425 26.344,-13.425 26.344,-3.358 16.898,-3.358 " /></g></g></g></g><g
     transform="matrix(0.39238754,0,0,-0.42635542,-0.31209458,29.194721)"
     id="g2881_2_-2"><g
       id="g20887-2_21_-0"
       transform="translate(-5.5755111,29.767864)"><g
         id="g2853_3_-5"><g
           id="g2855_4_-1"><path
             inkscape:connector-curvature="0"
             id="path2857_2_-3"
             d="m 9.525,-12.424 c 0,-0.234 0.084,-0.469 0.244,-0.654 l 11.078,-12.754 c 0.19,-0.22 0.467,-0.346 0.757,-0.345 0.291,0 0.565,0.126 0.755,0.347 l 11.024,12.754 c 0.159,0.186 0.243,0.418 0.243,0.654 0,0.141 -0.029,0.283 -0.09,0.416 -0.164,0.355 -0.519,0.584 -0.91,0.584 l -4.282,0 0,9.064 c 0,0.553 -0.447,1 -1,1 l -11.446,0 c -0.553,0 -1,-0.447 -1,-1 l 0,-9.066 -4.373,0 c -0.393,0 -0.747,-0.229 -0.91,-0.584 -0.063,-0.133 -0.09,-0.275 -0.09,-0.416 l 0,0 z" /></g></g></g><g
       id="g20887-2_20_-4"
       transform="translate(-5.5755111,29.767864)"><path
         style="fill:#00acda"
         inkscape:connector-curvature="0"
         id="path4348-2-1_30_-3"
         d="m 10.525,-12.424 11.078,-12.755 11.023,12.755 -5.282,0 0,10.066 -11.446,0 0,-10.066 -5.373,0 z" /></g><g
       id="g20887-2_19_-9"
       transform="translate(-5.5755111,29.767864)"><g
         id="g2862_2_-6"><g
           id="g2864_3_-2"><linearGradient
             id="linearGradient3516"
             gradientUnits="userSpaceOnUse"
             x1="-937.9162"
             y1="402.26141"
             x2="-937.9162"
             y2="385.4657"
             gradientTransform="matrix(0,-1,-1,0,415.1065,-951.4219)"><stop
               offset="0"
               style="stop-color:#B1D2DB"
               id="stop3373-7" /><stop
               offset="1"
               style="stop-color:#0C7C9E"
               id="stop3375-2" /></linearGradient><polygon
             style="fill:url(#linearGradient3521)"
             id="polygon2871_2_-8"
             points="16.898,-13.425 12.716,-13.425 21.601,-23.653 30.443,-13.425 26.344,-13.425 26.344,-3.358 16.898,-3.358 " /></g></g></g></g></svg>