<?xml version="1.0" encoding="UTF-8" standalone="no"?>
<!-- Generator: Adobe Illustrator 15.0.0, SVG Export Plug-In . SVG Version: 6.00 Build 0)  -->

<svg
   xmlns:dc="http://purl.org/dc/elements/1.1/"
   xmlns:cc="http://creativecommons.org/ns#"
   xmlns:rdf="http://www.w3.org/1999/02/22-rdf-syntax-ns#"
   xmlns:svg="http://www.w3.org/2000/svg"
   xmlns="http://www.w3.org/2000/svg"
   xmlns:sodipodi="http://sodipodi.sourceforge.net/DTD/sodipodi-0.dtd"
   xmlns:inkscape="http://www.inkscape.org/namespaces/inkscape"
   version="1.1"
   id="svg2383"
   inkscape:output_extension="org.inkscape.output.svg.inkscape"
   sodipodi:version="0.32"
   inkscape:version="0.48.4 r9939"
   sodipodi:docname="pre_report.svg"
   x="0px"
   y="0px"
   width="32px"
   height="32px"
   viewBox="0 0 32 32"
   enable-background="new 0 0 32 32"
   xml:space="preserve"><metadata
     id="metadata51"><rdf:RDF><cc:Work
         rdf:about=""><dc:format>image/svg+xml</dc:format><dc:type
           rdf:resource="http://purl.org/dc/dcmitype/StillImage" /></cc:Work></rdf:RDF></metadata><defs
     id="defs3"><inkscape:perspective
       id="perspective2391"
       sodipodi:type="inkscape:persp3d"
       inkscape:vp_y="0 : 1000 : 0"
       inkscape:vp_x="0 : 16 : 1"
       inkscape:vp_z="32 : 16 : 1"
       inkscape:persp3d-origin="16 : 10.666667 : 1" /><inkscape:perspective
       id="perspective8281"
       sodipodi:type="inkscape:persp3d"
       inkscape:vp_y="0 : 1000 : 0"
       inkscape:vp_x="0 : 16 : 1"
       inkscape:vp_z="32 : 16 : 1"
       inkscape:persp3d-origin="16 : 10.666667 : 1" /><inkscape:perspective
       id="perspective5995"
       sodipodi:type="inkscape:persp3d"
       inkscape:vp_y="0 : 1000 : 0"
       inkscape:vp_x="0 : 526.18109 : 1"
       inkscape:vp_z="744.09448 : 526.18109 : 1"
       inkscape:persp3d-origin="372.04724 : 350.78739 : 1" /><inkscape:perspective
       id="perspective3330"
       sodipodi:type="inkscape:persp3d"
       inkscape:vp_y="0 : 1000 : 0"
       inkscape:vp_x="0 : 64 : 1"
       inkscape:vp_z="128 : 64 : 1"
       inkscape:persp3d-origin="64 : 42.666667 : 1" /></defs><sodipodi:namedview
     id="base"
     inkscape:cy="13.289908"
     inkscape:cx="4.1825769"
     inkscape:zoom="8.3623545"
     showgrid="true"
     borderopacity="1.0"
     bordercolor="#666666"
     pagecolor="#ffffff"
     inkscape:pageshadow="2"
     inkscape:pageopacity="0.0"
     inkscape:current-layer="svg2383"
     inkscape:document-units="px"
     inkscape:grid-bbox="true"
     inkscape:guide-bbox="true"
     showguides="true"
     inkscape:window-width="1920"
     inkscape:window-height="999"
     inkscape:window-x="0"
     inkscape:window-y="25"
     inkscape:window-maximized="1" /><g
     id="g10"
     transform="translate(0,12)"><path
       d="M 1,8 C 0.448,8 0,7.552 0,7 V 1 C 0,0.448 0.448,0 1,0 h 24 c 0.553,0 1,0.448 1,1 v 6 c 0,0.552 -0.447,1 -1,1 H 1 z"
       id="path12"
       inkscape:connector-curvature="0"
       style="fill:#1d1d1b" /><rect
       id="rect29088"
       x="1"
       y="1"
       width="24"
       height="6"
       style="fill:#f9a620" /><linearGradient
       id="SVGID_1_"
       gradientUnits="userSpaceOnUse"
       x1="2"
       y1="4"
       x2="24"
       y2="4"><stop
         offset="0"
         style="stop-color:#FFF3DF"
         id="stop16" /><stop
         offset="0.5394"
         style="stop-color:#F9A620"
         id="stop18" /><stop
         offset="1"
         style="stop-color:#A36628"
         id="stop20" /></linearGradient><rect
       x="2"
       y="2"
       width="22"
       height="4"
       id="rect22"
       style="fill:url(#SVGID_1_)" /></g><path
     id="rect29191"
     sodipodi:nodetypes="cccccccc"
     d="m -0.146,3.984 3.969,4 V 4.671 H 8.136 V 3.199 H 3.823 V 0.015 l -3.969,3.969 z"
     inkscape:connector-curvature="0" /><g
     id="g25"><path
       fill="#1D1D1B"
       d="M1,32c-0.552,0-1-0.447-1-1v-6c0-0.553,0.448-1,1-1h24c0.553,0,1,0.447,1,1v6c0,0.553-0.447,1-1,1H1z"
       id="path27" /><rect
       id="rect29088_1_"
       x="1"
       y="25"
       fill="#F9A620"
       width="24"
       height="6" /><linearGradient
       id="SVGID_2_"
       gradientUnits="userSpaceOnUse"
       x1="2"
       y1="28"
       x2="24"
       y2="28"><stop
         offset="0"
         style="stop-color:#FFF3DF"
         id="stop31" /><stop
         offset="0.5394"
         style="stop-color:#F9A620"
         id="stop33" /><stop
         offset="1"
         style="stop-color:#A36628"
         id="stop35" /></linearGradient><rect
       x="2"
       y="26"
       fill="url(#SVGID_2_)"
       width="22"
       height="4"
       id="rect37" /></g><g
     id="g39"
     transform="translate(0,-12)"><path
       d="M 7,20 C 6.448,20 6,19.553 6,19 v -6 c 0,-0.553 0.448,-1 1,-1 h 24 c 0.553,0 1,0.447 1,1 v 6 c 0,0.553 -0.447,1 -1,1 H 7 z"
       id="path41"
       inkscape:connector-curvature="0"
       style="fill:#1d1d1b" /><rect
       id="rect29088_2_"
       x="7"
       y="13"
       width="24"
       height="6"
       style="fill:#ed2526" /><linearGradient
       id="SVGID_3_"
       gradientUnits="userSpaceOnUse"
       x1="8"
       y1="16"
       x2="30"
       y2="16"><stop
         offset="0"
         style="stop-color:#F59699"
         id="stop45" /><stop
         offset="1"
         style="stop-color:#8F1A1D"
         id="stop47" /></linearGradient><rect
       x="8"
       y="14"
       width="22"
       height="4"
       id="rect49"
       style="fill:url(#SVGID_3_)" /></g></svg>