<?xml version="1.0" encoding="UTF-8" standalone="no"?>
<!-- Generator: Adobe Illustrator 14.0.0, SVG Export Plug-In . SVG Version: 6.00 Build 43363)  -->

<svg
   xmlns:dc="http://purl.org/dc/elements/1.1/"
   xmlns:cc="http://creativecommons.org/ns#"
   xmlns:rdf="http://www.w3.org/1999/02/22-rdf-syntax-ns#"
   xmlns:svg="http://www.w3.org/2000/svg"
   xmlns="http://www.w3.org/2000/svg"
   xmlns:sodipodi="http://sodipodi.sourceforge.net/DTD/sodipodi-0.dtd"
   xmlns:inkscape="http://www.inkscape.org/namespaces/inkscape"
   version="1.1"
   id="svg2"
   sodipodi:docname="preview.svg"
   inkscape:version="0.91 r13725"
   sodipodi:version="0.32"
   inkscape:output_extension="org.inkscape.output.svg.inkscape"
   x="0px"
   y="0px"
   width="32px"
   height="32px"
   viewBox="0 0 32 32"
   enable-background="new 0 0 32 32"
   xml:space="preserve"><metadata
     id="metadata63"><rdf:RDF><cc:Work
         rdf:about=""><dc:format>image/svg+xml</dc:format><dc:type
           rdf:resource="http://purl.org/dc/dcmitype/StillImage" /></cc:Work></rdf:RDF></metadata><defs
     id="defs61" /><sodipodi:namedview
     id="base"
     pagecolor="#ffffff"
     bordercolor="#666666"
     borderopacity="1.0"
     objecttolerance="10.0"
     gridtolerance="10.0"
     showgrid="false"
     guidetolerance="10.0"
     inkscape:zoom="16.413786"
     inkscape:cx="-7.8646084"
     inkscape:cy="16.547542"
     inkscape:current-layer="svg2"
     inkscape:pageopacity="0.0"
     inkscape:pageshadow="2"
     inkscape:window-width="1920"
     inkscape:window-height="1017"
     inkscape:window-x="-8"
     inkscape:window-y="-8"
     inkscape:guide-bbox="true"
     showguides="true"
     inkscape:window-maximized="1" /><g
     id="Layer_2" /><g
     id="g5"><path
       id="path2924_13_"
       fill="#020202"
       d="M8.791,32c-0.583,0-1.055-0.469-1.055-1.057V1.055C7.736,0.473,8.208,0,8.791,0h15.128   c0.282,0,0.551,0.109,0.746,0.311l7.026,7.025C31.89,7.534,32,7.802,32,8.082v22.861c0,0.589-0.471,1.056-1.055,1.056L8.791,32   L8.791,32z" /><polygon
       id="polygon2926_13_"
       fill="#02ABD8"
       points="23.919,1.056 8.791,1.056 8.791,30.944 30.945,30.944 30.945,8.082  " /><polygon
       id="polygon2928_13_"
       fill="#FFFFFF"
       points="28.968,7.209 28.968,28.835 10.769,28.835 10.769,3.164 24.923,3.164    26.856,5.361  " /><path
       id="path2930_13_"
       fill="#020202"
       d="M23.919,9.136c-0.583,0-1.054-0.472-1.054-1.055V1.055c0-0.426,0.257-0.812,0.649-0.975   C23.647,0.025,23.783,0,23.919,0c0.276,0,0.547,0.107,0.746,0.311l7.026,7.025c0.301,0.303,0.392,0.756,0.229,1.15   c-0.161,0.395-0.55,0.65-0.975,0.65L23.919,9.136L23.919,9.136z" /><polygon
       id="polygon2932_13_"
       fill="#02ABD8"
       points="23.919,8.081 30.946,8.081 23.919,1.055  " /></g><g
     id="g26"><path
       id="path4948_3_"
       fill="#020202"
       d="M7.191,20.167c-0.401,0.003-0.776-0.211-0.99-0.546c-0.219-0.344-0.241-0.768-0.071-1.132   l1.392-2.903c0.194-0.409,0.607-0.667,1.054-0.667h1.169c0.446,0.004,0.85,0.251,1.05,0.65l1.447,2.905   c0.183,0.362,0.163,0.796-0.052,1.142c-0.213,0.345-0.588,0.556-0.994,0.555L7.191,20.167L7.191,20.167z" /><path
       id="path4951_3_"
       fill="#020202"
       d="M7.174,32c-0.649,0-1.17-0.523-1.171-1.17l0-11.14c0-0.313,0.12-0.611,0.341-0.829   c0.221-0.218,0.514-0.344,0.829-0.341l4.11,0.002c0.648,0,1.169,0.524,1.17,1.17L12.453,30.83c0,0.314-0.118,0.612-0.339,0.829   c-0.22,0.22-0.517,0.342-0.83,0.34L7.174,32z" /><linearGradient
       id="rect3806_1_"
       gradientUnits="userSpaceOnUse"
       x1="-259.665"
       y1="-2815.0654"
       x2="-255.6538"
       y2="-2815.0654"
       gradientTransform="matrix(1 0 0 -1 266.882 -2797.4961)"><stop
         offset="0"
         style="stop-color:#5AC9EC"
         id="stop31" /><stop
         offset="1"
         style="stop-color:#077A93"
         id="stop33" /></linearGradient><path
       id="rect3806_3_"
       fill="url(#rect3806_1_)"
       d="M8.614,16.09l1.168-0.003l1.448,2.91L7.22,18.996L8.614,16.09L8.614,16.09z" /><linearGradient
       id="rect3809_1_"
       gradientUnits="userSpaceOnUse"
       x1="-255.5498"
       y1="-2822.9316"
       x2="-260.2315"
       y2="-2822.9316"
       gradientTransform="matrix(1 0 0 -1 266.883 -2797.6445)"><stop
         offset="0"
         style="stop-color:#A46829"
         id="stop37" /><stop
         offset="0.5"
         style="stop-color:#FAA81D"
         id="stop39" /><stop
         offset="1"
         style="stop-color:#FFF3E2"
         id="stop41" /></linearGradient><polygon
       id="rect3809_3_"
       fill="url(#rect3809_1_)"
       points="7.205,19.691 11.318,19.69 11.316,30.83 7.206,30.828  " /><rect
       id="rect4968_3_"
       x="8.374"
       y="20.861"
       fill="#FAA81D"
       width="1.772"
       height="8.802" /><path
       id="path4971_3_"
       fill="#020202"
       d="M9.231,18.471c-2.465-0.001-4.787-0.962-6.531-2.706C-0.9,12.164-0.9,6.304,2.7,2.707   C4.445,0.962,6.763,0,9.229,0c2.465-0.001,4.783,0.956,6.529,2.704c3.595,3.604,3.597,9.462,0.001,13.061   C14.015,17.51,11.693,18.47,9.231,18.471L9.231,18.471z" /><path
       id="path3707_4_"
       fill="#02ABD8"
       d="M14.938,14.938c-3.146,3.147-8.257,3.146-11.402,0.001   C0.387,11.791,0.387,6.682,3.534,3.536C6.68,0.389,11.79,0.388,14.938,3.537C18.083,6.683,18.084,11.791,14.938,14.938z" /><linearGradient
       id="path4980_1_"
       gradientUnits="userSpaceOnUse"
       x1="98.0957"
       y1="-1521.6309"
       x2="111.873"
       y2="-1521.6309"
       gradientTransform="matrix(1 0 0 -1 -95.7244 -1512.3821)"><stop
         offset="0"
         style="stop-color:#B0D0DA"
         id="stop48" /><stop
         offset="1"
         style="stop-color:#147D9E"
         id="stop50" /></linearGradient><path
       id="path4980_3_"
       fill="url(#path4980_1_)"
       d="M9.261,16.129c-1.837,0-3.57-0.72-4.875-2.021   C1.701,11.42,1.695,7.047,4.382,4.36C5.688,3.06,7.42,2.34,9.258,2.34c1.843,0,3.576,0.716,4.875,2.021   c2.685,2.689,2.685,7.061-0.001,9.747C12.834,15.41,11.104,16.129,9.261,16.129L9.261,16.129z" /><radialGradient
       id="path3747_1_"
       cx="1785.5244"
       cy="-149.1802"
       r="7.0793"
       gradientTransform="matrix(0.4701 1.0715 1.292 -0.571 -637.0934 -1994.4897)"
       gradientUnits="userSpaceOnUse"><stop
         offset="0"
         style="stop-color:#FFFFFF"
         id="stop54" /><stop
         offset="0.4706"
         style="stop-color:#FFFFFF;stop-opacity:0.7866"
         id="stop56" /><stop
         offset="1"
         style="stop-color:#FFFFFF;stop-opacity:0"
         id="stop58" /></radialGradient><path
       id="path3747_3_"
       fill="url(#path3747_1_)"
       d="M13.784,4.048c-1.66-1.443-4.022-2.055-6.333-1.427   C4.535,3.409,2.587,5.889,2.359,8.72c1.566,0.22,3.781,0.331,7.958-0.953c2.208-0.678,3.959-0.996,5.332-1.047   C15.233,5.658,14.599,4.758,13.784,4.048z" /></g></svg>