<?xml version="1.0" encoding="utf-8"?>
<!-- Generator: Adobe Illustrator 15.0.0, SVG Export Plug-In . SVG Version: 6.00 Build 0)  -->
<!DOCTYPE svg PUBLIC "-//W3C//DTD SVG 1.1//EN" "http://www.w3.org/Graphics/SVG/1.1/DTD/svg11.dtd">
<svg version="1.1"
	 id="svg2383" xmlns:dc="http://purl.org/dc/elements/1.1/" xmlns:cc="http://creativecommons.org/ns#" xmlns:rdf="http://www.w3.org/1999/02/22-rdf-syntax-ns#" xmlns:svg="http://www.w3.org/2000/svg" xmlns:sodipodi="http://sodipodi.sourceforge.net/DTD/sodipodi-0.dtd" xmlns:inkscape="http://www.inkscape.org/namespaces/inkscape" inkscape:output_extension="org.inkscape.output.svg.inkscape" sodipodi:version="0.32" inkscape:version="0.46" sodipodi:docname="sum.svg"
	 xmlns="http://www.w3.org/2000/svg" xmlns:xlink="http://www.w3.org/1999/xlink" x="0px" y="0px" width="32px" height="32px"
	 viewBox="0 0 32 32" enable-background="new 0 0 32 32" xml:space="preserve">
<path fill="#1D1D1B" d="M3.5,29.361c-0.552,0-1-0.447-1-1v-0.204c0-0.265,0.105-0.519,0.292-0.706l11.432-11.469L2.802,4.855
	C2.609,4.667,2.5,4.408,2.5,4.139v-0.5c0-0.552,0.448-1,1-1h23.203c0.511,0,0.939,0.385,0.994,0.894l0.489,4.567
	c0.03,0.282-0.061,0.564-0.25,0.775c-0.19,0.211-0.46,0.332-0.744,0.332h-0.726c-0.498,0-0.921-0.367-0.99-0.86
	c-0.171-1.215-0.728-2.609-3.529-2.609h-9.91l9.659,9.427c0.193,0.188,0.302,0.447,0.302,0.717c0,0.27-0.109,0.528-0.303,0.716
	l-8.614,8.378h9.063c0.611,0,1.349-0.087,2.189-0.258c0.716-0.145,1.252-0.39,1.593-0.727c0.363-0.359,0.663-0.917,0.893-1.657
	c0.131-0.424,0.522-0.705,0.954-0.705c0.05,0,0.099,0.004,0.148,0.011l0.726,0.108c0.272,0.041,0.516,0.191,0.673,0.417
	s0.215,0.506,0.159,0.774l-1.162,5.625c-0.096,0.465-0.505,0.798-0.979,0.798H3.5z"/>
<path id="path755" fill="#ED2526" d="M27.338,28.361H3.5v-0.204l12.146-12.185L3.5,4.139v-0.5h23.203l0.489,4.567h-0.726
	c-0.326-2.313-1.834-3.469-4.52-3.469H9.581l11.417,11.143L10.619,25.975h11.525c0.68,0,1.475-0.092,2.389-0.277
	c0.913-0.186,1.613-0.519,2.097-0.996c0.484-0.479,0.865-1.17,1.145-2.073l0.726,0.108L27.338,28.361z"/>
<linearGradient id="SVGID_1_" gradientUnits="userSpaceOnUse" x1="5.4458" y1="16" x2="26.8418" y2="16">
	<stop  offset="0" style="stop-color:#F59699"/>
	<stop  offset="1" style="stop-color:#8F1A1D"/>
</linearGradient>
<path fill="url(#SVGID_1_)" d="M5.705,27.361l10.649-10.684c0.189-0.189,0.293-0.446,0.292-0.713s-0.11-0.522-0.302-0.709
	L5.446,4.638h3.14C8.557,4.936,8.662,5.236,8.883,5.452l10.683,10.426l-9.644,9.38c-0.292,0.284-0.382,0.716-0.229,1.093
	c0.153,0.377,0.519,0.624,0.926,0.624h11.525c0.745,0,1.615-0.1,2.588-0.297c0.838-0.171,1.545-0.458,2.109-0.855l-0.318,1.539
	H5.705z"/>
</svg>
