<?xml version="1.0" encoding="utf-8"?>
<!-- Generator: Adobe Illustrator 15.0.0, SVG Export Plug-In . SVG Version: 6.00 Build 0)  -->
<!DOCTYPE svg PUBLIC "-//W3C//DTD SVG 1.1//EN" "http://www.w3.org/Graphics/SVG/1.1/DTD/svg11.dtd">
<svg version="1.1"
	 id="svg2383" xmlns:dc="http://purl.org/dc/elements/1.1/" xmlns:cc="http://creativecommons.org/ns#" xmlns:rdf="http://www.w3.org/1999/02/22-rdf-syntax-ns#" xmlns:svg="http://www.w3.org/2000/svg" xmlns:sodipodi="http://sodipodi.sourceforge.net/DTD/sodipodi-0.dtd" xmlns:inkscape="http://www.inkscape.org/namespaces/inkscape" inkscape:output_extension="org.inkscape.output.svg.inkscape" sodipodi:version="0.32" inkscape:version="0.46" sodipodi:docname="text.svg"
	 xmlns="http://www.w3.org/2000/svg" xmlns:xlink="http://www.w3.org/1999/xlink" x="0px" y="0px" width="32px" height="32px"
	 viewBox="0 0 32 32" enable-background="new 0 0 32 32" xml:space="preserve">
<defs>
	
	
		<inkscape:perspective  id="perspective2391" sodipodi:type="inkscape:persp3d" inkscape:vp_y="0 : 1000 : 0" inkscape:vp_x="0 : 16 : 1" inkscape:vp_z="32 : 16 : 1" inkscape:persp3d-origin="16 : 10.666667 : 1">
		</inkscape:perspective>
	
		<inkscape:perspective  id="perspective8281" sodipodi:type="inkscape:persp3d" inkscape:vp_y="0 : 1000 : 0" inkscape:vp_x="0 : 16 : 1" inkscape:vp_z="32 : 16 : 1" inkscape:persp3d-origin="16 : 10.666667 : 1">
		</inkscape:perspective>
	
		<inkscape:perspective  id="perspective5995" sodipodi:type="inkscape:persp3d" inkscape:vp_y="0 : 1000 : 0" inkscape:vp_x="0 : 526.18109 : 1" inkscape:vp_z="744.09448 : 526.18109 : 1" inkscape:persp3d-origin="372.04724 : 350.78739 : 1">
		</inkscape:perspective>
	
		<inkscape:perspective  id="perspective3330" sodipodi:type="inkscape:persp3d" inkscape:vp_y="0 : 1000 : 0" inkscape:vp_x="0 : 64 : 1" inkscape:vp_z="128 : 64 : 1" inkscape:persp3d-origin="64 : 42.666667 : 1">
		</inkscape:perspective>
</defs>
<sodipodi:namedview  id="base" inkscape:cy="4.085051" inkscape:cx="-60.599509" inkscape:zoom="4.2889688" showgrid="true" borderopacity="1.0" bordercolor="#666666" pagecolor="#ffffff" inkscape:pageshadow="2" inkscape:pageopacity="0.0" inkscape:current-layer="layer1" inkscape:document-units="px" inkscape:grid-bbox="true" inkscape:guide-bbox="true" showguides="true">
	</sodipodi:namedview>
<g>
	<path fill="#0D7C9F" d="M6.833,21.51c-0.603,0.469-1.185,0.818-1.747,1.055c-0.563,0.234-1.193,0.352-1.893,0.352
		c-0.639,0-1.2-0.127-1.684-0.381c-0.484-0.252-0.855-0.594-1.117-1.023C0.131,21.078,0,20.609,0,20.104
		c0-0.682,0.216-1.262,0.648-1.742c0.432-0.48,1.023-0.801,1.778-0.967c0.158-0.035,0.55-0.117,1.177-0.244
		c0.625-0.129,1.162-0.246,1.609-0.354c0.448-0.105,0.934-0.234,1.456-0.387c-0.03-0.658-0.163-1.14-0.397-1.447
		c-0.233-0.307-0.719-0.46-1.455-0.46c-0.633,0-1.107,0.088-1.428,0.264s-0.593,0.441-0.82,0.793
		c-0.229,0.354-0.389,0.586-0.483,0.698c-0.094,0.113-0.296,0.17-0.606,0.17c-0.28,0-0.521-0.09-0.726-0.271
		c-0.204-0.18-0.306-0.409-0.306-0.688c0-0.438,0.154-0.862,0.465-1.276s0.793-0.754,1.449-1.021c0.658-0.268,1.476-0.4,2.455-0.4
		c1.095,0,1.955,0.129,2.582,0.387c0.625,0.259,1.068,0.668,1.326,1.227c0.26,0.561,0.389,1.303,0.389,2.228
		c0,0.582-0.002,1.08-0.004,1.486c-0.004,0.408-0.008,0.859-0.014,1.359c0,0.467,0.077,0.955,0.231,1.463
		c0.155,0.51,0.233,0.836,0.233,0.982c0,0.254-0.121,0.486-0.36,0.697c-0.24,0.209-0.513,0.314-0.816,0.314
		c-0.256,0-0.508-0.121-0.757-0.361C7.376,22.314,7.111,21.965,6.833,21.51z M6.668,17.906c-0.365,0.133-0.896,0.275-1.592,0.424
		c-0.696,0.148-1.18,0.26-1.446,0.328c-0.269,0.07-0.522,0.207-0.767,0.41C2.621,19.271,2.5,19.559,2.5,19.922
		c0,0.377,0.143,0.699,0.43,0.963c0.285,0.266,0.659,0.396,1.121,0.396c0.493,0,0.948-0.107,1.364-0.322
		c0.417-0.217,0.722-0.494,0.917-0.836c0.225-0.377,0.338-0.996,0.338-1.859v-0.357H6.668z"/>
	<path fill="#0D7C9F" d="M13.691,10.507v3.805c0.469-0.486,0.947-0.859,1.433-1.119c0.485-0.258,1.088-0.387,1.806-0.387
		c0.827,0,1.553,0.195,2.176,0.588s1.106,0.961,1.451,1.707c0.344,0.744,0.516,1.628,0.516,2.649c0,0.754-0.098,1.447-0.288,2.076
		c-0.191,0.629-0.47,1.174-0.834,1.637c-0.365,0.461-0.808,0.818-1.327,1.07c-0.52,0.254-1.094,0.381-1.721,0.381
		c-0.383,0-0.743-0.047-1.082-0.139c-0.336-0.09-0.625-0.211-0.86-0.359c-0.237-0.148-0.438-0.303-0.606-0.461
		s-0.389-0.395-0.662-0.711v0.246c0,0.469-0.112,0.822-0.338,1.063c-0.225,0.24-0.511,0.361-0.856,0.361
		c-0.354,0-0.636-0.121-0.845-0.361c-0.209-0.238-0.314-0.594-0.314-1.063V10.617c0-0.505,0.102-0.886,0.307-1.146
		c0.203-0.259,0.487-0.388,0.854-0.388c0.383,0,0.677,0.124,0.884,0.37C13.588,9.7,13.691,10.052,13.691,10.507z M13.811,17.906
		c0,0.99,0.228,1.752,0.68,2.285c0.453,0.531,1.047,0.797,1.783,0.797c0.627,0,1.166-0.271,1.619-0.816
		c0.453-0.543,0.682-1.322,0.682-2.34c0-0.656-0.096-1.221-0.283-1.696c-0.189-0.475-0.457-0.841-0.805-1.1
		c-0.346-0.258-0.75-0.389-1.211-0.389c-0.476,0-0.897,0.129-1.27,0.389c-0.371,0.258-0.663,0.633-0.875,1.122
		C13.917,16.648,13.811,17.23,13.811,17.906z"/>
	<path fill="#0D7C9F" d="M32,19.83c0,0.313-0.093,0.643-0.277,0.994c-0.186,0.352-0.47,0.689-0.85,1.008
		c-0.379,0.32-0.857,0.578-1.438,0.771c-0.576,0.193-1.229,0.291-1.951,0.291c-1.539,0-2.739-0.447-3.604-1.346
		c-0.862-0.896-1.294-2.1-1.294-3.605c0-1.023,0.196-1.927,0.592-2.71c0.396-0.784,0.967-1.392,1.715-1.82
		c0.748-0.43,1.643-0.643,2.684-0.643c0.645,0,1.234,0.094,1.773,0.283c0.539,0.188,0.994,0.432,1.368,0.729
		s0.659,0.615,0.857,0.953c0.198,0.337,0.296,0.652,0.296,0.943c0,0.299-0.109,0.552-0.332,0.759s-0.492,0.309-0.809,0.309
		c-0.207,0-0.379-0.053-0.516-0.16c-0.137-0.105-0.291-0.277-0.461-0.517c-0.304-0.461-0.621-0.809-0.953-1.039
		s-0.753-0.346-1.263-0.346c-0.737,0-1.33,0.287-1.779,0.861c-0.45,0.575-0.676,1.362-0.676,2.358c0,0.469,0.06,0.9,0.174,1.293
		c0.115,0.391,0.283,0.725,0.502,1.002c0.22,0.277,0.483,0.486,0.793,0.629c0.312,0.145,0.651,0.215,1.022,0.215
		c0.499,0,0.926-0.115,1.281-0.346c0.355-0.232,0.67-0.584,0.943-1.059c0.151-0.279,0.316-0.498,0.492-0.656
		c0.177-0.158,0.393-0.238,0.646-0.238c0.306,0,0.558,0.115,0.758,0.346C31.9,19.322,32,19.568,32,19.83z"/>
</g>
</svg>
