<?xml version="1.0" encoding="utf-8"?>
<!-- Generator: Adobe Illustrator 14.0.0, SVG Export Plug-In . SVG Version: 6.00 Build 43363)  -->
<!DOCTYPE svg PUBLIC "-//W3C//DTD SVG 1.1//EN" "http://www.w3.org/Graphics/SVG/1.1/DTD/svg11.dtd">
<svg version="1.1"
	 id="svg3278" xmlns:ns="http://creativecommons.org/ns#" xmlns:svg="http://www.w3.org/2000/svg" xmlns:cc="http://web.resource.org/cc/" xmlns:dc="http://purl.org/dc/elements/1.1/" xmlns:rdf="http://www.w3.org/1999/02/22-rdf-syntax-ns#" xmlns:inkscape="http://www.inkscape.org/namespaces/inkscape" xmlns:sodipodi="http://sodipodi.sourceforge.net/DTD/sodipodi-0.dtd" sodipodi:version="0.32" inkscape:version="0.45.1" sodipodi:docname="fork.svg" sodipodi:docbase="C:\Radix\dev\trunk\org.radixware\kernel\designer\src\common.resources\src\org\radixware\kernel\designer\resources\icons\workflow\widget" inkscape:output_extension="org.inkscape.output.svg.inkscape"
	 xmlns="http://www.w3.org/2000/svg" xmlns:xlink="http://www.w3.org/1999/xlink" x="0px" y="0px" width="32.001px"
	 height="9.697px" viewBox="-0.342 -0.576 32.001 9.697" enable-background="new -0.342 -0.576 32.001 9.697" xml:space="preserve">
<sodipodi:namedview  id="base" inkscape:cy="16" inkscape:cx="0.68449433" inkscape:zoom="11.197802" showgrid="true" borderopacity="1.0" bordercolor="#666666" pagecolor="#ffffff" inkscape:window-height="944" inkscape:window-width="1280" inkscape:pageshadow="2" inkscape:pageopacity="0.0" inkscape:current-layer="layer1" inkscape:window-y="44" inkscape:window-x="0" inkscape:document-units="px" inkscape:grid-bbox="true">
	</sodipodi:namedview>
<g id="layer1_1_" transform="translate(-0.3414941,-11.727657)" inkscape:label="Layer 1" inkscape:groupmode="layer">
	<path fill="#231F20" d="M26.977,11.151c0.371,0,0.713,0.207,0.886,0.537l4.024,7.696c0.162,0.311,0.15,0.683-0.031,0.982
		c-0.182,0.299-0.506,0.481-0.855,0.481H1c-0.353,0-0.68-0.187-0.86-0.489c-0.18-0.304-0.187-0.68-0.018-0.99l4.198-7.696
		c0.175-0.321,0.512-0.521,0.878-0.521H26.977z"/>
	
		<linearGradient id="rect3797_1_" gradientUnits="userSpaceOnUse" x1="378.0624" y1="-447.0743" x2="378.0624" y2="-454.9324" gradientTransform="matrix(-1 0 0 1 394.0624 466.748)">
		<stop  offset="0" style="stop-color:#FAFAFA"/>
		<stop  offset="1" style="stop-color:#FAFAFA"/>
	</linearGradient>
	<path id="rect3797" sodipodi:nodetypes="ccccc" fill="url(#rect3797_1_)" d="M31,19.849H1l4.198-7.697h21.778L31,19.849z"/>
</g>
</svg>
