<?xml version="1.0" encoding="UTF-8" standalone="no"?>
<!-- Created with Inkscape (http://www.inkscape.org/) -->

<svg
   xmlns:dc="http://purl.org/dc/elements/1.1/"
   xmlns:cc="http://creativecommons.org/ns#"
   xmlns:rdf="http://www.w3.org/1999/02/22-rdf-syntax-ns#"
   xmlns:svg="http://www.w3.org/2000/svg"
   xmlns="http://www.w3.org/2000/svg"
   xmlns:xlink="http://www.w3.org/1999/xlink"
   xmlns:sodipodi="http://sodipodi.sourceforge.net/DTD/sodipodi-0.dtd"
   xmlns:inkscape="http://www.inkscape.org/namespaces/inkscape"
   width="16"
   height="16"
   viewBox="0 0 16 16"
   id="svg2"
   version="1.1"
   inkscape:version="0.91 r13725"
   sodipodi:docname="bg.svg">
  <defs
     id="defs4">
    <polygon
       transform="scale(0.0616,0.0616)"
       points="-0.16245985,0 0,-0.5 0.16245985,0 "
       id="pt"
       style="fill:#ffffff" />
    <g
       id="star">
      <use
         id="use4944"
         transform="matrix(-0.80901699,-0.58778525,0.58778525,-0.80901699,0,0)"
         xlink:href="#pt"
         x="0"
         y="0"
         width="100%"
         height="100%" />
      <use
         id="use4946"
         transform="matrix(0.30901699,-0.95105652,0.95105652,0.30901699,0,0)"
         xlink:href="#pt"
         x="0"
         y="0"
         width="100%"
         height="100%" />
      <use
         id="use4948"
         xlink:href="#pt"
         x="0"
         y="0"
         width="100%"
         height="100%" />
      <use
         id="use4950"
         transform="matrix(0.30901699,0.95105652,-0.95105652,0.30901699,0,0)"
         xlink:href="#pt"
         x="0"
         y="0"
         width="100%"
         height="100%" />
      <use
         id="use4952"
         transform="matrix(-0.80901699,0.58778525,-0.58778525,-0.80901699,0,0)"
         xlink:href="#pt"
         x="0"
         y="0"
         width="100%"
         height="100%" />
    </g>
    <g
       id="s5">
      <use
         id="use4955"
         x="-0.252"
         xlink:href="#star"
         y="0"
         width="100%"
         height="100%" />
      <use
         id="use4957"
         x="-0.126"
         xlink:href="#star"
         y="0"
         width="100%"
         height="100%" />
      <use
         id="use4959"
         xlink:href="#star"
         x="0"
         y="0"
         width="100%"
         height="100%" />
      <use
         id="use4961"
         x="0.126"
         xlink:href="#star"
         y="0"
         width="100%"
         height="100%" />
      <use
         id="use4963"
         x="0.252"
         xlink:href="#star"
         y="0"
         width="100%"
         height="100%" />
    </g>
    <g
       id="s6">
      <use
         id="use4966"
         x="-0.063000001"
         xlink:href="#s5"
         y="0"
         width="100%"
         height="100%" />
      <use
         id="use4968"
         x="0.315"
         xlink:href="#star"
         y="0"
         width="100%"
         height="100%" />
    </g>
    <g
       id="x4">
      <use
         id="use4971"
         xlink:href="#s6"
         x="0"
         y="0"
         width="100%"
         height="100%" />
      <use
         id="use4973"
         y="0.054000001"
         xlink:href="#s5"
         x="0"
         width="100%"
         height="100%" />
      <use
         id="use4975"
         y="0.108"
         xlink:href="#s6"
         x="0"
         width="100%"
         height="100%" />
      <use
         id="use4977"
         y="0.162"
         xlink:href="#s5"
         x="0"
         width="100%"
         height="100%" />
    </g>
    <g
       id="u">
      <use
         id="use4980"
         y="-0.21600001"
         xlink:href="#x4"
         x="0"
         width="100%"
         height="100%" />
      <use
         id="use4982"
         xlink:href="#x4"
         x="0"
         y="0"
         width="100%"
         height="100%" />
      <use
         id="use4984"
         y="0.21600001"
         xlink:href="#s6"
         x="0"
         width="100%"
         height="100%" />
    </g>
    <rect
       height="50"
       width="1300"
       id="stripe"
       x="0"
       y="0"
       style="fill:#b22234" />
    <polygon
       style="fill:#ffffff"
       id="pt-4"
       points="0,-0.5 0.16245985,0 -0.16245985,0 "
       transform="scale(0.0616,0.0616)" />
    <g
       id="star-6">
      <use
         height="100%"
         width="100%"
         y="0"
         x="0"
         xlink:href="#pt-4"
         transform="matrix(-0.80901699,-0.58778525,0.58778525,-0.80901699,0,0)"
         id="use4944-9" />
      <use
         height="100%"
         width="100%"
         y="0"
         x="0"
         xlink:href="#pt-4"
         transform="matrix(0.30901699,-0.95105652,0.95105652,0.30901699,0,0)"
         id="use4946-8" />
      <use
         height="100%"
         width="100%"
         y="0"
         x="0"
         xlink:href="#pt-4"
         id="use4948-5" />
      <use
         height="100%"
         width="100%"
         y="0"
         x="0"
         xlink:href="#pt-4"
         transform="matrix(0.30901699,0.95105652,-0.95105652,0.30901699,0,0)"
         id="use4950-7" />
      <use
         height="100%"
         width="100%"
         y="0"
         x="0"
         xlink:href="#pt-4"
         transform="matrix(-0.80901699,0.58778525,-0.58778525,-0.80901699,0,0)"
         id="use4952-9" />
    </g>
    <g
       id="s5-1">
      <use
         height="100%"
         width="100%"
         y="0"
         xlink:href="#star-6"
         x="-0.252"
         id="use4955-5" />
      <use
         height="100%"
         width="100%"
         y="0"
         xlink:href="#star-6"
         x="-0.126"
         id="use4957-3" />
      <use
         height="100%"
         width="100%"
         y="0"
         x="0"
         xlink:href="#star-6"
         id="use4959-7" />
      <use
         height="100%"
         width="100%"
         y="0"
         xlink:href="#star-6"
         x="0.126"
         id="use4961-1" />
      <use
         height="100%"
         width="100%"
         y="0"
         xlink:href="#star-6"
         x="0.252"
         id="use4963-0" />
    </g>
    <g
       id="s6-4">
      <use
         height="100%"
         width="100%"
         y="0"
         xlink:href="#s5-1"
         x="-0.063000001"
         id="use4966-5" />
      <use
         height="100%"
         width="100%"
         y="0"
         xlink:href="#star-6"
         x="0.315"
         id="use4968-7" />
    </g>
    <g
       id="x4-6">
      <use
         height="100%"
         width="100%"
         y="0"
         x="0"
         xlink:href="#s6-4"
         id="use4971-8" />
      <use
         height="100%"
         width="100%"
         x="0"
         xlink:href="#s5-1"
         y="0.054000001"
         id="use4973-8" />
      <use
         height="100%"
         width="100%"
         x="0"
         xlink:href="#s6-4"
         y="0.108"
         id="use4975-1" />
      <use
         height="100%"
         width="100%"
         x="0"
         xlink:href="#s5-1"
         y="0.162"
         id="use4977-8" />
    </g>
    <g
       id="u-5">
      <use
         height="100%"
         width="100%"
         x="0"
         xlink:href="#x4-6"
         y="-0.21600001"
         id="use4980-3" />
      <use
         height="100%"
         width="100%"
         y="0"
         x="0"
         xlink:href="#x4-6"
         id="use4982-3" />
      <use
         height="100%"
         width="100%"
         x="0"
         xlink:href="#s6-4"
         y="0.21600001"
         id="use4984-4" />
    </g>
    <rect
       style="fill:#b22234"
       y="0"
       x="0"
       id="stripe-3"
       width="1300"
       height="50" />
  </defs>
  <sodipodi:namedview
     id="base"
     pagecolor="#ffffff"
     bordercolor="#666666"
     borderopacity="1.0"
     inkscape:pageopacity="0.0"
     inkscape:pageshadow="2"
     inkscape:zoom="21.953125"
     inkscape:cx="-6.7739787"
     inkscape:cy="13.259979"
     inkscape:document-units="px"
     inkscape:current-layer="layer1"
     showgrid="false"
     inkscape:window-width="1920"
     inkscape:window-height="1017"
     inkscape:window-x="-8"
     inkscape:window-y="-8"
     inkscape:window-maximized="1"
     units="px" />
  <metadata
     id="metadata7">
    <rdf:RDF>
      <cc:Work
         rdf:about="">
        <dc:format>image/svg+xml</dc:format>
        <dc:type
           rdf:resource="http://purl.org/dc/dcmitype/StillImage" />
        <dc:title />
      </cc:Work>
    </rdf:RDF>
  </metadata>
  <g
     inkscape:label="Layer 1"
     inkscape:groupmode="layer"
     id="layer1"
     transform="translate(0,-1036.3622)">
    <rect
       style="opacity:1;fill:#999999;fill-opacity:1;stroke:none;stroke-width:1.25;stroke-miterlimit:4;stroke-dasharray:none;stroke-opacity:1"
       id="rect4176"
       width="16"
       height="10"
       x="0"
       y="1039.3622" />
    <g
       transform="matrix(0.9375,0,0,0.9375,0.5,62.272638)"
       id="layer1-2"
       inkscape:label="Layer 1">
      <g
         transform="matrix(0.8,0,0,0.8,0,1042.7622)"
         id="g5800">
        <rect
           style="fill:#006a4e"
           y="0"
           x="0"
           width="20"
           height="12"
           id="rect5790" />
        <circle
           style="fill:#f42a41"
           cx="9"
           cy="6"
           r="4"
           id="circle5792" />
      </g>
    </g>
  </g>
</svg>
