<?xml version="1.0" encoding="UTF-8" standalone="no"?>
<!-- Created with Inkscape (http://www.inkscape.org/) -->

<svg
   xmlns:dc="http://purl.org/dc/elements/1.1/"
   xmlns:cc="http://creativecommons.org/ns#"
   xmlns:rdf="http://www.w3.org/1999/02/22-rdf-syntax-ns#"
   xmlns:svg="http://www.w3.org/2000/svg"
   xmlns="http://www.w3.org/2000/svg"
   xmlns:xlink="http://www.w3.org/1999/xlink"
   xmlns:sodipodi="http://sodipodi.sourceforge.net/DTD/sodipodi-0.dtd"
   xmlns:inkscape="http://www.inkscape.org/namespaces/inkscape"
   width="16"
   height="16"
   viewBox="0 0 16 16"
   id="svg2"
   version="1.1"
   inkscape:version="0.91 r13725"
   sodipodi:docname="en.svg">
  <defs
     id="defs4">
    <polygon
       transform="scale(0.0616,0.0616)"
       points="-0.16245985,0 0,-0.5 0.16245985,0 "
       id="pt"
       style="fill:#ffffff" />
    <g
       id="star">
      <use
         id="use4944"
         transform="matrix(-0.80901699,-0.58778525,0.58778525,-0.80901699,0,0)"
         xlink:href="#pt"
         x="0"
         y="0"
         width="100%"
         height="100%" />
      <use
         id="use4946"
         transform="matrix(0.30901699,-0.95105652,0.95105652,0.30901699,0,0)"
         xlink:href="#pt"
         x="0"
         y="0"
         width="100%"
         height="100%" />
      <use
         id="use4948"
         xlink:href="#pt"
         x="0"
         y="0"
         width="100%"
         height="100%" />
      <use
         id="use4950"
         transform="matrix(0.30901699,0.95105652,-0.95105652,0.30901699,0,0)"
         xlink:href="#pt"
         x="0"
         y="0"
         width="100%"
         height="100%" />
      <use
         id="use4952"
         transform="matrix(-0.80901699,0.58778525,-0.58778525,-0.80901699,0,0)"
         xlink:href="#pt"
         x="0"
         y="0"
         width="100%"
         height="100%" />
    </g>
    <g
       id="s5">
      <use
         id="use4955"
         x="-0.252"
         xlink:href="#star"
         y="0"
         width="100%"
         height="100%" />
      <use
         id="use4957"
         x="-0.126"
         xlink:href="#star"
         y="0"
         width="100%"
         height="100%" />
      <use
         id="use4959"
         xlink:href="#star"
         x="0"
         y="0"
         width="100%"
         height="100%" />
      <use
         id="use4961"
         x="0.126"
         xlink:href="#star"
         y="0"
         width="100%"
         height="100%" />
      <use
         id="use4963"
         x="0.252"
         xlink:href="#star"
         y="0"
         width="100%"
         height="100%" />
    </g>
    <g
       id="s6">
      <use
         id="use4966"
         x="-0.063000001"
         xlink:href="#s5"
         y="0"
         width="100%"
         height="100%" />
      <use
         id="use4968"
         x="0.315"
         xlink:href="#star"
         y="0"
         width="100%"
         height="100%" />
    </g>
    <g
       id="x4">
      <use
         id="use4971"
         xlink:href="#s6"
         x="0"
         y="0"
         width="100%"
         height="100%" />
      <use
         id="use4973"
         y="0.054000001"
         xlink:href="#s5"
         x="0"
         width="100%"
         height="100%" />
      <use
         id="use4975"
         y="0.108"
         xlink:href="#s6"
         x="0"
         width="100%"
         height="100%" />
      <use
         id="use4977"
         y="0.162"
         xlink:href="#s5"
         x="0"
         width="100%"
         height="100%" />
    </g>
    <g
       id="u">
      <use
         id="use4980"
         y="-0.21600001"
         xlink:href="#x4"
         x="0"
         width="100%"
         height="100%" />
      <use
         id="use4982"
         xlink:href="#x4"
         x="0"
         y="0"
         width="100%"
         height="100%" />
      <use
         id="use4984"
         y="0.21600001"
         xlink:href="#s6"
         x="0"
         width="100%"
         height="100%" />
    </g>
    <rect
       height="50"
       width="1300"
       id="stripe"
       x="0"
       y="0"
       style="fill:#b22234" />
    <polygon
       style="fill:#ffffff"
       id="pt-3"
       points="0,-0.5 0.16245985,0 -0.16245985,0 "
       transform="scale(0.0616,0.0616)" />
    <g
       id="star-3">
      <use
         height="100%"
         width="100%"
         y="0"
         x="0"
         xlink:href="#pt-3"
         transform="matrix(-0.80901699,-0.58778525,0.58778525,-0.80901699,0,0)"
         id="use4944-5" />
      <use
         height="100%"
         width="100%"
         y="0"
         x="0"
         xlink:href="#pt-3"
         transform="matrix(0.30901699,-0.95105652,0.95105652,0.30901699,0,0)"
         id="use4946-8" />
      <use
         height="100%"
         width="100%"
         y="0"
         x="0"
         xlink:href="#pt-3"
         id="use4948-1" />
      <use
         height="100%"
         width="100%"
         y="0"
         x="0"
         xlink:href="#pt-3"
         transform="matrix(0.30901699,0.95105652,-0.95105652,0.30901699,0,0)"
         id="use4950-2" />
      <use
         height="100%"
         width="100%"
         y="0"
         x="0"
         xlink:href="#pt-3"
         transform="matrix(-0.80901699,0.58778525,-0.58778525,-0.80901699,0,0)"
         id="use4952-8" />
    </g>
    <g
       id="s5-2">
      <use
         height="100%"
         width="100%"
         y="0"
         xlink:href="#star-3"
         x="-0.252"
         id="use4955-2" />
      <use
         height="100%"
         width="100%"
         y="0"
         xlink:href="#star-3"
         x="-0.126"
         id="use4957-9" />
      <use
         height="100%"
         width="100%"
         y="0"
         x="0"
         xlink:href="#star-3"
         id="use4959-9" />
      <use
         height="100%"
         width="100%"
         y="0"
         xlink:href="#star-3"
         x="0.126"
         id="use4961-4" />
      <use
         height="100%"
         width="100%"
         y="0"
         xlink:href="#star-3"
         x="0.252"
         id="use4963-9" />
    </g>
    <g
       id="s6-6">
      <use
         height="100%"
         width="100%"
         y="0"
         xlink:href="#s5-2"
         x="-0.063000001"
         id="use4966-4" />
      <use
         height="100%"
         width="100%"
         y="0"
         xlink:href="#star-3"
         x="0.315"
         id="use4968-1" />
    </g>
    <g
       id="x4-8">
      <use
         height="100%"
         width="100%"
         y="0"
         x="0"
         xlink:href="#s6-6"
         id="use4971-9" />
      <use
         height="100%"
         width="100%"
         x="0"
         xlink:href="#s5-2"
         y="0.054000001"
         id="use4973-6" />
      <use
         height="100%"
         width="100%"
         x="0"
         xlink:href="#s6-6"
         y="0.108"
         id="use4975-6" />
      <use
         height="100%"
         width="100%"
         x="0"
         xlink:href="#s5-2"
         y="0.162"
         id="use4977-7" />
    </g>
    <g
       id="u-7">
      <use
         height="100%"
         width="100%"
         x="0"
         xlink:href="#x4-8"
         y="-0.21600001"
         id="use4980-5" />
      <use
         height="100%"
         width="100%"
         y="0"
         x="0"
         xlink:href="#x4-8"
         id="use4982-5" />
      <use
         height="100%"
         width="100%"
         x="0"
         xlink:href="#s6-6"
         y="0.21600001"
         id="use4984-4" />
    </g>
    <rect
       style="fill:#b22234"
       y="0"
       x="0"
       id="stripe-0"
       width="1300"
       height="50" />
    <polygon
       style="fill:#ffffff"
       id="pt-8"
       points="0.16245985,0 -0.16245985,0 0,-0.5 "
       transform="scale(0.0616,0.0616)" />
    <g
       id="star-1">
      <use
         height="100%"
         width="100%"
         y="0"
         x="0"
         xlink:href="#pt-8"
         transform="matrix(-0.80901699,-0.58778525,0.58778525,-0.80901699,0,0)"
         id="use4944-1" />
      <use
         height="100%"
         width="100%"
         y="0"
         x="0"
         xlink:href="#pt-8"
         transform="matrix(0.30901699,-0.95105652,0.95105652,0.30901699,0,0)"
         id="use4946-3" />
      <use
         height="100%"
         width="100%"
         y="0"
         x="0"
         xlink:href="#pt-8"
         id="use4948-4" />
      <use
         height="100%"
         width="100%"
         y="0"
         x="0"
         xlink:href="#pt-8"
         transform="matrix(0.30901699,0.95105652,-0.95105652,0.30901699,0,0)"
         id="use4950-3" />
      <use
         height="100%"
         width="100%"
         y="0"
         x="0"
         xlink:href="#pt-8"
         transform="matrix(-0.80901699,0.58778525,-0.58778525,-0.80901699,0,0)"
         id="use4952-1" />
    </g>
    <g
       id="s5-1">
      <use
         height="100%"
         width="100%"
         y="0"
         xlink:href="#star-1"
         x="-0.252"
         id="use4955-7" />
      <use
         height="100%"
         width="100%"
         y="0"
         xlink:href="#star-1"
         x="-0.126"
         id="use4957-5" />
      <use
         height="100%"
         width="100%"
         y="0"
         x="0"
         xlink:href="#star-1"
         id="use4959-6" />
      <use
         height="100%"
         width="100%"
         y="0"
         xlink:href="#star-1"
         x="0.126"
         id="use4961-2" />
      <use
         height="100%"
         width="100%"
         y="0"
         xlink:href="#star-1"
         x="0.252"
         id="use4963-4" />
    </g>
    <g
       id="s6-3">
      <use
         height="100%"
         width="100%"
         y="0"
         xlink:href="#s5-1"
         x="-0.063000001"
         id="use4966-2" />
      <use
         height="100%"
         width="100%"
         y="0"
         xlink:href="#star-1"
         x="0.315"
         id="use4968-19" />
    </g>
    <g
       id="x4-2">
      <use
         height="100%"
         width="100%"
         y="0"
         x="0"
         xlink:href="#s6-3"
         id="use4971-5" />
      <use
         height="100%"
         width="100%"
         x="0"
         xlink:href="#s5-1"
         y="0.054000001"
         id="use4973-2" />
      <use
         height="100%"
         width="100%"
         x="0"
         xlink:href="#s6-3"
         y="0.108"
         id="use4975-0" />
      <use
         height="100%"
         width="100%"
         x="0"
         xlink:href="#s5-1"
         y="0.162"
         id="use4977-77" />
    </g>
    <g
       id="u-6">
      <use
         height="100%"
         width="100%"
         x="0"
         xlink:href="#x4-2"
         y="-0.21600001"
         id="use4980-3" />
      <use
         height="100%"
         width="100%"
         y="0"
         x="0"
         xlink:href="#x4-2"
         id="use4982-7" />
      <use
         height="100%"
         width="100%"
         x="0"
         xlink:href="#s6-3"
         y="0.21600001"
         id="use4984-5" />
    </g>
    <rect
       style="fill:#b22234"
       y="0"
       x="0"
       id="stripe-6"
       width="1300"
       height="50" />
    <linearGradient
       inkscape:collect="always"
       id="linearGradient3824">
      <stop
         style="stop-color:#ffffff;stop-opacity:1;"
         offset="0"
         id="stop3826" />
      <stop
         style="stop-color:#ffffff;stop-opacity:0;"
         offset="1"
         id="stop3828" />
    </linearGradient>
    <radialGradient
       inkscape:collect="always"
       xlink:href="#linearGradient3824"
       id="radialGradient3830"
       cx="588.34918"
       cy="90.410378"
       fx="588.34918"
       fy="90.410378"
       r="604.21605"
       gradientTransform="matrix(0.99996948,0.00781226,-0.00645161,0.82580642,0.87544744,181.60158)"
       gradientUnits="userSpaceOnUse" />
  </defs>
  <sodipodi:namedview
     id="base"
     pagecolor="#ffffff"
     bordercolor="#666666"
     borderopacity="1.0"
     inkscape:pageopacity="0.0"
     inkscape:pageshadow="2"
     inkscape:zoom="21.953125"
     inkscape:cx="-6.7739787"
     inkscape:cy="13.259979"
     inkscape:document-units="px"
     inkscape:current-layer="layer1"
     showgrid="false"
     inkscape:window-width="1920"
     inkscape:window-height="1017"
     inkscape:window-x="-8"
     inkscape:window-y="-8"
     inkscape:window-maximized="1"
     units="px" />
  <metadata
     id="metadata7">
    <rdf:RDF>
      <cc:Work
         rdf:about="">
        <dc:format>image/svg+xml</dc:format>
        <dc:type
           rdf:resource="http://purl.org/dc/dcmitype/StillImage" />
        <dc:title></dc:title>
      </cc:Work>
    </rdf:RDF>
  </metadata>
  <g
     inkscape:label="Layer 1"
     inkscape:groupmode="layer"
     id="layer1"
     transform="translate(0,-1036.3622)">
    <rect
       style="opacity:1;fill:#999999;fill-opacity:1;stroke:none;stroke-width:1.25;stroke-miterlimit:4;stroke-dasharray:none;stroke-opacity:1"
       id="rect4176"
       width="16"
       height="11"
       x="0"
       y="1038.8622" />
    <g
       transform="matrix(0.9375,0,0,0.93747072,0.5,62.803451)"
       id="layer1-4"
       inkscape:label="Layer 1">
      <g
         transform="matrix(0.01230769,0,0,0.01641077,0,1039.0287)"
         id="g5057">
        <g
           id="g3047"
           transform="matrix(21.665288,0,0,21.643035,-2.0835386,165.3188)">
          <path
             id="path3025"
             d="m 0.09807944,-0.11457048 0,30.00001048 59.99999956,0 0,-30.00000948 z"
             inkscape:connector-curvature="0"
             style="fill:#00247d" />
          <path
             inkscape:connector-curvature="0"
             id="path3016"
             d="m 0.09807944,-0.11457048 0,3.35937498 L 23.379329,14.88543 0.09807944,26.52606 l 0,3.35938 6.72499996,0 23.2749996,-11.625 23.27501,11.625 6.72499,0 0,-3.35938 -23.28125,-11.64062 23.28125,-11.6406345 0,-3.35937498 -6.72499,0 L 30.098079,11.51044 6.8230794,-0.11456948 l -6.72499996,0 z"
             style="fill:#ffffff" />
          <path
             sodipodi:nodetypes="ccccccccccccc"
             inkscape:connector-curvature="0"
             id="path3043"
             d="M 0.09616944,2.1480655 27.838629,15.99909 0.09616944,29.90181 l 4.47915996,0 27.7192796,-13.93713 27.80539,13.93713 0,-2.2568 -27.80539,-13.88547 27.80539,-13.89048448 -4.62631,0 L 27.838629,13.72901 0.09616944,-0.13094448 Z"
             style="fill:#cf142b;fill-opacity:1;stroke:none" />
          <path
             inkscape:connector-curvature="0"
             id="path3012"
             d="m 25.098079,-0.11456748 0,9.99999698 -24.99998956,0 0,10.0000005 24.99998956,0 0,10 10,0 0,-10 25,0 0,-10.0000005 -25,0 0,-9.99999698 -10,0 z"
             style="color:#000000;font-style:normal;font-variant:normal;font-weight:normal;font-stretch:normal;font-size:medium;line-height:normal;font-family:Sans;-inkscape-font-specification:Sans;text-indent:0;text-align:start;text-decoration:none;text-decoration-line:none;letter-spacing:normal;word-spacing:normal;text-transform:none;direction:ltr;block-progression:tb;writing-mode:lr-tb;baseline-shift:baseline;text-anchor:start;display:inline;overflow:visible;visibility:visible;fill:#ffffff;fill-opacity:1;fill-rule:nonzero;stroke:none;stroke-width:10;marker:none;enable-background:accumulate" />
          <path
             inkscape:connector-curvature="0"
             id="path3014"
             d="m 27.098089,-0.11456648 0,11.99999648 -26.99999956,0 0,6 26.99999956,0 0,12 6,0 0,-12 27,0 0,-6 -27,0 0,-11.99999648 -6,0 z"
             style="color:#000000;font-style:normal;font-variant:normal;font-weight:normal;font-stretch:normal;font-size:medium;line-height:normal;font-family:Sans;-inkscape-font-specification:Sans;text-indent:0;text-align:start;text-decoration:none;text-decoration-line:none;letter-spacing:normal;word-spacing:normal;text-transform:none;direction:ltr;block-progression:tb;writing-mode:lr-tb;baseline-shift:baseline;text-anchor:start;display:inline;overflow:visible;visibility:visible;fill:#cf142b;fill-opacity:1;fill-rule:nonzero;stroke:none;stroke-width:6;marker:none;enable-background:accumulate" />
        </g>
      </g>
    </g>
  </g>
</svg>
