<?xml version="1.0" encoding="UTF-8" standalone="no"?>
<!-- Created with Inkscape (http://www.inkscape.org/) -->

<svg
   xmlns:dc="http://purl.org/dc/elements/1.1/"
   xmlns:cc="http://creativecommons.org/ns#"
   xmlns:rdf="http://www.w3.org/1999/02/22-rdf-syntax-ns#"
   xmlns:svg="http://www.w3.org/2000/svg"
   xmlns="http://www.w3.org/2000/svg"
   xmlns:xlink="http://www.w3.org/1999/xlink"
   xmlns:sodipodi="http://sodipodi.sourceforge.net/DTD/sodipodi-0.dtd"
   xmlns:inkscape="http://www.inkscape.org/namespaces/inkscape"
   width="16"
   height="16"
   viewBox="0 0 16 16"
   id="svg2"
   version="1.1"
   inkscape:version="0.91 r13725"
   sodipodi:docname="hi.svg">
  <defs
     id="defs4">
    <polygon
       transform="scale(0.0616,0.0616)"
       points="-0.16245985,0 0,-0.5 0.16245985,0 "
       id="pt"
       style="fill:#ffffff" />
    <g
       id="star">
      <use
         id="use4944"
         transform="matrix(-0.80901699,-0.58778525,0.58778525,-0.80901699,0,0)"
         xlink:href="#pt"
         x="0"
         y="0"
         width="100%"
         height="100%" />
      <use
         id="use4946"
         transform="matrix(0.30901699,-0.95105652,0.95105652,0.30901699,0,0)"
         xlink:href="#pt"
         x="0"
         y="0"
         width="100%"
         height="100%" />
      <use
         id="use4948"
         xlink:href="#pt"
         x="0"
         y="0"
         width="100%"
         height="100%" />
      <use
         id="use4950"
         transform="matrix(0.30901699,0.95105652,-0.95105652,0.30901699,0,0)"
         xlink:href="#pt"
         x="0"
         y="0"
         width="100%"
         height="100%" />
      <use
         id="use4952"
         transform="matrix(-0.80901699,0.58778525,-0.58778525,-0.80901699,0,0)"
         xlink:href="#pt"
         x="0"
         y="0"
         width="100%"
         height="100%" />
    </g>
    <g
       id="s5">
      <use
         id="use4955"
         x="-0.252"
         xlink:href="#star"
         y="0"
         width="100%"
         height="100%" />
      <use
         id="use4957"
         x="-0.126"
         xlink:href="#star"
         y="0"
         width="100%"
         height="100%" />
      <use
         id="use4959"
         xlink:href="#star"
         x="0"
         y="0"
         width="100%"
         height="100%" />
      <use
         id="use4961"
         x="0.126"
         xlink:href="#star"
         y="0"
         width="100%"
         height="100%" />
      <use
         id="use4963"
         x="0.252"
         xlink:href="#star"
         y="0"
         width="100%"
         height="100%" />
    </g>
    <g
       id="s6">
      <use
         id="use4966"
         x="-0.063000001"
         xlink:href="#s5"
         y="0"
         width="100%"
         height="100%" />
      <use
         id="use4968"
         x="0.315"
         xlink:href="#star"
         y="0"
         width="100%"
         height="100%" />
    </g>
    <g
       id="x4">
      <use
         id="use4971"
         xlink:href="#s6"
         x="0"
         y="0"
         width="100%"
         height="100%" />
      <use
         id="use4973"
         y="0.054000001"
         xlink:href="#s5"
         x="0"
         width="100%"
         height="100%" />
      <use
         id="use4975"
         y="0.108"
         xlink:href="#s6"
         x="0"
         width="100%"
         height="100%" />
      <use
         id="use4977"
         y="0.162"
         xlink:href="#s5"
         x="0"
         width="100%"
         height="100%" />
    </g>
    <g
       id="u">
      <use
         id="use4980"
         y="-0.21600001"
         xlink:href="#x4"
         x="0"
         width="100%"
         height="100%" />
      <use
         id="use4982"
         xlink:href="#x4"
         x="0"
         y="0"
         width="100%"
         height="100%" />
      <use
         id="use4984"
         y="0.21600001"
         xlink:href="#s6"
         x="0"
         width="100%"
         height="100%" />
    </g>
    <rect
       height="50"
       width="1300"
       id="stripe"
       x="0"
       y="0"
       style="fill:#b22234" />
    <polygon
       style="fill:#ffffff"
       id="pt-3"
       points="0,-0.5 0.16245985,0 -0.16245985,0 "
       transform="scale(0.0616,0.0616)" />
    <g
       id="star-3">
      <use
         height="100%"
         width="100%"
         y="0"
         x="0"
         xlink:href="#pt-3"
         transform="matrix(-0.80901699,-0.58778525,0.58778525,-0.80901699,0,0)"
         id="use4944-5" />
      <use
         height="100%"
         width="100%"
         y="0"
         x="0"
         xlink:href="#pt-3"
         transform="matrix(0.30901699,-0.95105652,0.95105652,0.30901699,0,0)"
         id="use4946-8" />
      <use
         height="100%"
         width="100%"
         y="0"
         x="0"
         xlink:href="#pt-3"
         id="use4948-1" />
      <use
         height="100%"
         width="100%"
         y="0"
         x="0"
         xlink:href="#pt-3"
         transform="matrix(0.30901699,0.95105652,-0.95105652,0.30901699,0,0)"
         id="use4950-2" />
      <use
         height="100%"
         width="100%"
         y="0"
         x="0"
         xlink:href="#pt-3"
         transform="matrix(-0.80901699,0.58778525,-0.58778525,-0.80901699,0,0)"
         id="use4952-8" />
    </g>
    <g
       id="s5-2">
      <use
         height="100%"
         width="100%"
         y="0"
         xlink:href="#star-3"
         x="-0.252"
         id="use4955-2" />
      <use
         height="100%"
         width="100%"
         y="0"
         xlink:href="#star-3"
         x="-0.126"
         id="use4957-9" />
      <use
         height="100%"
         width="100%"
         y="0"
         x="0"
         xlink:href="#star-3"
         id="use4959-9" />
      <use
         height="100%"
         width="100%"
         y="0"
         xlink:href="#star-3"
         x="0.126"
         id="use4961-4" />
      <use
         height="100%"
         width="100%"
         y="0"
         xlink:href="#star-3"
         x="0.252"
         id="use4963-9" />
    </g>
    <g
       id="s6-6">
      <use
         height="100%"
         width="100%"
         y="0"
         xlink:href="#s5-2"
         x="-0.063000001"
         id="use4966-4" />
      <use
         height="100%"
         width="100%"
         y="0"
         xlink:href="#star-3"
         x="0.315"
         id="use4968-1" />
    </g>
    <g
       id="x4-8">
      <use
         height="100%"
         width="100%"
         y="0"
         x="0"
         xlink:href="#s6-6"
         id="use4971-9" />
      <use
         height="100%"
         width="100%"
         x="0"
         xlink:href="#s5-2"
         y="0.054000001"
         id="use4973-6" />
      <use
         height="100%"
         width="100%"
         x="0"
         xlink:href="#s6-6"
         y="0.108"
         id="use4975-6" />
      <use
         height="100%"
         width="100%"
         x="0"
         xlink:href="#s5-2"
         y="0.162"
         id="use4977-7" />
    </g>
    <g
       id="u-7">
      <use
         height="100%"
         width="100%"
         x="0"
         xlink:href="#x4-8"
         y="-0.21600001"
         id="use4980-5" />
      <use
         height="100%"
         width="100%"
         y="0"
         x="0"
         xlink:href="#x4-8"
         id="use4982-5" />
      <use
         height="100%"
         width="100%"
         x="0"
         xlink:href="#s6-6"
         y="0.21600001"
         id="use4984-4" />
    </g>
    <rect
       style="fill:#b22234"
       y="0"
       x="0"
       id="stripe-0"
       width="1300"
       height="50" />
    <polygon
       style="fill:#ffffff"
       id="pt-8"
       points="0.16245985,0 -0.16245985,0 0,-0.5 "
       transform="scale(0.0616,0.0616)" />
    <g
       id="star-1">
      <use
         height="100%"
         width="100%"
         y="0"
         x="0"
         xlink:href="#pt-8"
         transform="matrix(-0.80901699,-0.58778525,0.58778525,-0.80901699,0,0)"
         id="use4944-1" />
      <use
         height="100%"
         width="100%"
         y="0"
         x="0"
         xlink:href="#pt-8"
         transform="matrix(0.30901699,-0.95105652,0.95105652,0.30901699,0,0)"
         id="use4946-3" />
      <use
         height="100%"
         width="100%"
         y="0"
         x="0"
         xlink:href="#pt-8"
         id="use4948-4" />
      <use
         height="100%"
         width="100%"
         y="0"
         x="0"
         xlink:href="#pt-8"
         transform="matrix(0.30901699,0.95105652,-0.95105652,0.30901699,0,0)"
         id="use4950-3" />
      <use
         height="100%"
         width="100%"
         y="0"
         x="0"
         xlink:href="#pt-8"
         transform="matrix(-0.80901699,0.58778525,-0.58778525,-0.80901699,0,0)"
         id="use4952-1" />
    </g>
    <g
       id="s5-1">
      <use
         height="100%"
         width="100%"
         y="0"
         xlink:href="#star-1"
         x="-0.252"
         id="use4955-7" />
      <use
         height="100%"
         width="100%"
         y="0"
         xlink:href="#star-1"
         x="-0.126"
         id="use4957-5" />
      <use
         height="100%"
         width="100%"
         y="0"
         x="0"
         xlink:href="#star-1"
         id="use4959-6" />
      <use
         height="100%"
         width="100%"
         y="0"
         xlink:href="#star-1"
         x="0.126"
         id="use4961-2" />
      <use
         height="100%"
         width="100%"
         y="0"
         xlink:href="#star-1"
         x="0.252"
         id="use4963-4" />
    </g>
    <g
       id="s6-3">
      <use
         height="100%"
         width="100%"
         y="0"
         xlink:href="#s5-1"
         x="-0.063000001"
         id="use4966-2" />
      <use
         height="100%"
         width="100%"
         y="0"
         xlink:href="#star-1"
         x="0.315"
         id="use4968-19" />
    </g>
    <g
       id="x4-2">
      <use
         height="100%"
         width="100%"
         y="0"
         x="0"
         xlink:href="#s6-3"
         id="use4971-5" />
      <use
         height="100%"
         width="100%"
         x="0"
         xlink:href="#s5-1"
         y="0.054000001"
         id="use4973-2" />
      <use
         height="100%"
         width="100%"
         x="0"
         xlink:href="#s6-3"
         y="0.108"
         id="use4975-0" />
      <use
         height="100%"
         width="100%"
         x="0"
         xlink:href="#s5-1"
         y="0.162"
         id="use4977-77" />
    </g>
    <g
       id="u-6">
      <use
         height="100%"
         width="100%"
         x="0"
         xlink:href="#x4-2"
         y="-0.21600001"
         id="use4980-3" />
      <use
         height="100%"
         width="100%"
         y="0"
         x="0"
         xlink:href="#x4-2"
         id="use4982-7" />
      <use
         height="100%"
         width="100%"
         x="0"
         xlink:href="#s6-3"
         y="0.21600001"
         id="use4984-5" />
    </g>
    <rect
       style="fill:#b22234"
       y="0"
       x="0"
       id="stripe-6"
       width="1300"
       height="50" />
    <linearGradient
       inkscape:collect="always"
       id="linearGradient3824">
      <stop
         style="stop-color:#ffffff;stop-opacity:1;"
         offset="0"
         id="stop3826" />
      <stop
         style="stop-color:#ffffff;stop-opacity:0;"
         offset="1"
         id="stop3828" />
    </linearGradient>
    <radialGradient
       inkscape:collect="always"
       xlink:href="#linearGradient3824"
       id="radialGradient3830"
       cx="588.34918"
       cy="90.410378"
       fx="588.34918"
       fy="90.410378"
       r="604.21605"
       gradientTransform="matrix(0.99996948,0.00781226,-0.00645161,0.82580642,0.87544744,181.60158)"
       gradientUnits="userSpaceOnUse" />
    <polygon
       style="fill:#ffffff"
       id="pt-2"
       points="0,-0.5 0.16245985,0 -0.16245985,0 "
       transform="scale(0.0616,0.0616)" />
    <g
       id="star-39">
      <use
         height="100%"
         width="100%"
         y="0"
         x="0"
         xlink:href="#pt-2"
         transform="matrix(-0.80901699,-0.58778525,0.58778525,-0.80901699,0,0)"
         id="use4944-7" />
      <use
         height="100%"
         width="100%"
         y="0"
         x="0"
         xlink:href="#pt-2"
         transform="matrix(0.30901699,-0.95105652,0.95105652,0.30901699,0,0)"
         id="use4946-6" />
      <use
         height="100%"
         width="100%"
         y="0"
         x="0"
         xlink:href="#pt-2"
         id="use4948-13" />
      <use
         height="100%"
         width="100%"
         y="0"
         x="0"
         xlink:href="#pt-2"
         transform="matrix(0.30901699,0.95105652,-0.95105652,0.30901699,0,0)"
         id="use4950-4" />
      <use
         height="100%"
         width="100%"
         y="0"
         x="0"
         xlink:href="#pt-2"
         transform="matrix(-0.80901699,0.58778525,-0.58778525,-0.80901699,0,0)"
         id="use4952-4" />
    </g>
    <g
       id="s5-7">
      <use
         height="100%"
         width="100%"
         y="0"
         xlink:href="#star-39"
         x="-0.252"
         id="use4955-5" />
      <use
         height="100%"
         width="100%"
         y="0"
         xlink:href="#star-39"
         x="-0.126"
         id="use4957-3" />
      <use
         height="100%"
         width="100%"
         y="0"
         x="0"
         xlink:href="#star-39"
         id="use4959-5" />
      <use
         height="100%"
         width="100%"
         y="0"
         xlink:href="#star-39"
         x="0.126"
         id="use4961-6" />
      <use
         height="100%"
         width="100%"
         y="0"
         xlink:href="#star-39"
         x="0.252"
         id="use4963-0" />
    </g>
    <g
       id="s6-8">
      <use
         height="100%"
         width="100%"
         y="0"
         xlink:href="#s5-7"
         x="-0.063000001"
         id="use4966-42" />
      <use
         height="100%"
         width="100%"
         y="0"
         xlink:href="#star-39"
         x="0.315"
         id="use4968-3" />
    </g>
    <g
       id="x4-6">
      <use
         height="100%"
         width="100%"
         y="0"
         x="0"
         xlink:href="#s6-8"
         id="use4971-8" />
      <use
         height="100%"
         width="100%"
         x="0"
         xlink:href="#s5-7"
         y="0.054000001"
         id="use4973-8" />
      <use
         height="100%"
         width="100%"
         x="0"
         xlink:href="#s6-8"
         y="0.108"
         id="use4975-3" />
      <use
         height="100%"
         width="100%"
         x="0"
         xlink:href="#s5-7"
         y="0.162"
         id="use4977-5" />
    </g>
    <g
       id="u-8">
      <use
         height="100%"
         width="100%"
         x="0"
         xlink:href="#x4-6"
         y="-0.21600001"
         id="use4980-4" />
      <use
         height="100%"
         width="100%"
         y="0"
         x="0"
         xlink:href="#x4-6"
         id="use4982-9" />
      <use
         height="100%"
         width="100%"
         x="0"
         xlink:href="#s6-8"
         y="0.21600001"
         id="use4984-3" />
    </g>
    <rect
       style="fill:#b22234"
       y="0"
       x="0"
       id="stripe-3"
       width="1300"
       height="50" />
    <polygon
       style="fill:#ffffff"
       id="pt-0"
       points="0.16245985,0 -0.16245985,0 0,-0.5 "
       transform="scale(0.0616,0.0616)" />
    <g
       id="star-7">
      <use
         height="100%"
         width="100%"
         y="0"
         x="0"
         xlink:href="#pt-0"
         transform="matrix(-0.80901699,-0.58778525,0.58778525,-0.80901699,0,0)"
         id="use4944-0" />
      <use
         height="100%"
         width="100%"
         y="0"
         x="0"
         xlink:href="#pt-0"
         transform="matrix(0.30901699,-0.95105652,0.95105652,0.30901699,0,0)"
         id="use4946-69" />
      <use
         height="100%"
         width="100%"
         y="0"
         x="0"
         xlink:href="#pt-0"
         id="use4948-3" />
      <use
         height="100%"
         width="100%"
         y="0"
         x="0"
         xlink:href="#pt-0"
         transform="matrix(0.30901699,0.95105652,-0.95105652,0.30901699,0,0)"
         id="use4950-39" />
      <use
         height="100%"
         width="100%"
         y="0"
         x="0"
         xlink:href="#pt-0"
         transform="matrix(-0.80901699,0.58778525,-0.58778525,-0.80901699,0,0)"
         id="use4952-2" />
    </g>
    <g
       id="s5-29">
      <use
         height="100%"
         width="100%"
         y="0"
         xlink:href="#star-7"
         x="-0.252"
         id="use4955-8" />
      <use
         height="100%"
         width="100%"
         y="0"
         xlink:href="#star-7"
         x="-0.126"
         id="use4957-7" />
      <use
         height="100%"
         width="100%"
         y="0"
         x="0"
         xlink:href="#star-7"
         id="use4959-8" />
      <use
         height="100%"
         width="100%"
         y="0"
         xlink:href="#star-7"
         x="0.126"
         id="use4961-9" />
      <use
         height="100%"
         width="100%"
         y="0"
         xlink:href="#star-7"
         x="0.252"
         id="use4963-04" />
    </g>
    <g
       id="s6-5">
      <use
         height="100%"
         width="100%"
         y="0"
         xlink:href="#s5-29"
         x="-0.063000001"
         id="use4966-7" />
      <use
         height="100%"
         width="100%"
         y="0"
         xlink:href="#star-7"
         x="0.315"
         id="use4968-0" />
    </g>
    <g
       id="x4-89">
      <use
         height="100%"
         width="100%"
         y="0"
         x="0"
         xlink:href="#s6-5"
         id="use4971-7" />
      <use
         height="100%"
         width="100%"
         x="0"
         xlink:href="#s5-29"
         y="0.054000001"
         id="use4973-1" />
      <use
         height="100%"
         width="100%"
         x="0"
         xlink:href="#s6-5"
         y="0.108"
         id="use4975-8" />
      <use
         height="100%"
         width="100%"
         x="0"
         xlink:href="#s5-29"
         y="0.162"
         id="use4977-9" />
    </g>
    <g
       id="u-81">
      <use
         height="100%"
         width="100%"
         x="0"
         xlink:href="#x4-89"
         y="-0.21600001"
         id="use4980-7" />
      <use
         height="100%"
         width="100%"
         y="0"
         x="0"
         xlink:href="#x4-89"
         id="use4982-8" />
      <use
         height="100%"
         width="100%"
         x="0"
         xlink:href="#s6-5"
         y="0.21600001"
         id="use4984-2" />
    </g>
    <rect
       style="fill:#b22234"
       y="0"
       x="0"
       id="stripe-2"
       width="1300"
       height="50" />
    <polygon
       style="fill:#ffffff"
       id="pt-08"
       points="0.16245985,0 -0.16245985,0 0,-0.5 "
       transform="scale(0.0616,0.0616)" />
    <g
       id="star-76">
      <use
         height="100%"
         width="100%"
         y="0"
         x="0"
         xlink:href="#pt-08"
         transform="matrix(-0.80901699,-0.58778525,0.58778525,-0.80901699,0,0)"
         id="use4944-02" />
      <use
         height="100%"
         width="100%"
         y="0"
         x="0"
         xlink:href="#pt-08"
         transform="matrix(0.30901699,-0.95105652,0.95105652,0.30901699,0,0)"
         id="use4946-0" />
      <use
         height="100%"
         width="100%"
         y="0"
         x="0"
         xlink:href="#pt-08"
         id="use4948-7" />
      <use
         height="100%"
         width="100%"
         y="0"
         x="0"
         xlink:href="#pt-08"
         transform="matrix(0.30901699,0.95105652,-0.95105652,0.30901699,0,0)"
         id="use4950-1" />
      <use
         height="100%"
         width="100%"
         y="0"
         x="0"
         xlink:href="#pt-08"
         transform="matrix(-0.80901699,0.58778525,-0.58778525,-0.80901699,0,0)"
         id="use4952-47" />
    </g>
    <g
       id="s5-4">
      <use
         height="100%"
         width="100%"
         y="0"
         xlink:href="#star-76"
         x="-0.252"
         id="use4955-9" />
      <use
         height="100%"
         width="100%"
         y="0"
         xlink:href="#star-76"
         x="-0.126"
         id="use4957-6" />
      <use
         height="100%"
         width="100%"
         y="0"
         x="0"
         xlink:href="#star-76"
         id="use4959-4" />
      <use
         height="100%"
         width="100%"
         y="0"
         xlink:href="#star-76"
         x="0.126"
         id="use4961-69" />
      <use
         height="100%"
         width="100%"
         y="0"
         xlink:href="#star-76"
         x="0.252"
         id="use4963-45" />
    </g>
    <g
       id="s6-1">
      <use
         height="100%"
         width="100%"
         y="0"
         xlink:href="#s5-4"
         x="-0.063000001"
         id="use4966-44" />
      <use
         height="100%"
         width="100%"
         y="0"
         xlink:href="#star-76"
         x="0.315"
         id="use4968-6" />
    </g>
    <g
       id="x4-0">
      <use
         height="100%"
         width="100%"
         y="0"
         x="0"
         xlink:href="#s6-1"
         id="use4971-95" />
      <use
         height="100%"
         width="100%"
         x="0"
         xlink:href="#s5-4"
         y="0.054000001"
         id="use4973-17" />
      <use
         height="100%"
         width="100%"
         x="0"
         xlink:href="#s6-1"
         y="0.108"
         id="use4975-68" />
      <use
         height="100%"
         width="100%"
         x="0"
         xlink:href="#s5-4"
         y="0.162"
         id="use4977-0" />
    </g>
    <g
       id="u-0">
      <use
         height="100%"
         width="100%"
         x="0"
         xlink:href="#x4-0"
         y="-0.21600001"
         id="use4980-0" />
      <use
         height="100%"
         width="100%"
         y="0"
         x="0"
         xlink:href="#x4-0"
         id="use4982-2" />
      <use
         height="100%"
         width="100%"
         x="0"
         xlink:href="#s6-1"
         y="0.21600001"
         id="use4984-33" />
    </g>
    <rect
       style="fill:#b22234"
       y="0"
       x="0"
       id="stripe-64"
       width="1300"
       height="50" />
  </defs>
  <sodipodi:namedview
     id="base"
     pagecolor="#ffffff"
     bordercolor="#666666"
     borderopacity="1.0"
     inkscape:pageopacity="0.0"
     inkscape:pageshadow="2"
     inkscape:zoom="21.953125"
     inkscape:cx="-6.7739787"
     inkscape:cy="13.259979"
     inkscape:document-units="px"
     inkscape:current-layer="layer1"
     showgrid="false"
     inkscape:window-width="1920"
     inkscape:window-height="1017"
     inkscape:window-x="-8"
     inkscape:window-y="-8"
     inkscape:window-maximized="1"
     units="px" />
  <metadata
     id="metadata7">
    <rdf:RDF>
      <cc:Work
         rdf:about="">
        <dc:format>image/svg+xml</dc:format>
        <dc:type
           rdf:resource="http://purl.org/dc/dcmitype/StillImage" />
        <dc:title></dc:title>
      </cc:Work>
    </rdf:RDF>
  </metadata>
  <g
     inkscape:label="Layer 1"
     inkscape:groupmode="layer"
     id="layer1"
     transform="translate(0,-1036.3622)">
    <rect
       style="opacity:1;fill:#999999;fill-opacity:1;stroke:none;stroke-width:1.25;stroke-miterlimit:4;stroke-dasharray:none;stroke-opacity:1"
       id="rect4176"
       width="16"
       height="11"
       x="0"
       y="1038.8622" />
    <g
       transform="matrix(0.93750001,0,0,0.93747075,0.5,62.803422)"
       id="layer1-2"
       inkscape:label="Layer 1">
      <g
         transform="matrix(0.07111111,0,0,0.07111333,0,1041.6952)"
         id="g5120">
        <rect
           style="fill:#ff9933"
           y="0"
           x="0"
           width="225"
           height="150"
           id="rect5082" />
        <rect
           style="fill:#ffffff"
           x="0"
           width="225"
           height="50"
           y="50"
           id="rect5084" />
        <rect
           style="fill:#128807"
           x="0"
           width="225"
           height="50"
           y="100"
           id="rect5086" />
        <g
           transform="translate(112.5,75)"
           id="g5088">
          <circle
             style="fill:#000088"
             cy="0"
             cx="0"
             r="20"
             id="circle5090" />
          <circle
             style="fill:#ffffff"
             cy="0"
             cx="0"
             r="17.5"
             id="circle5092" />
          <circle
             style="fill:#000088"
             cy="0"
             cx="0"
             r="3.5"
             id="circle5094" />
          <g
             id="d">
            <g
               id="c">
              <g
                 id="b">
                <g
                   id="a">
                  <circle
                     style="fill:#000088"
                     cy="0"
                     cx="0"
                     r="0.875"
                     transform="matrix(0.99144486,0.13052619,-0.13052619,0.99144486,17.350285,2.2842084)"
                     id="circle5100" />
                  <path
                     style="fill:#000088"
                     inkscape:connector-curvature="0"
                     d="M 0,17.5 0.6,7 C 0.6,7 0,2 0,2 0,2 -0.6,7 -0.6,7 L 0,17.5 Z"
                     id="path5102" />
                </g>
                <use
                   height="100%"
                   width="100%"
                   y="0"
                   x="0"
                   xlink:href="#a"
                   transform="matrix(0.96592583,0.25881905,-0.25881905,0.96592583,0,0)"
                   id="use5104" />
              </g>
              <use
                 height="100%"
                 width="100%"
                 y="0"
                 x="0"
                 xlink:href="#b"
                 transform="matrix(0.8660254,0.5,-0.5,0.8660254,0,0)"
                 id="use5106" />
            </g>
            <use
               height="100%"
               width="100%"
               y="0"
               x="0"
               xlink:href="#c"
               transform="matrix(0.5,0.8660254,-0.8660254,0.5,0,0)"
               id="use5108" />
          </g>
          <use
             height="100%"
             width="100%"
             y="0"
             x="0"
             xlink:href="#d"
             transform="matrix(-0.5,0.8660254,-0.8660254,-0.5,0,0)"
             id="use5110" />
          <use
             height="100%"
             width="100%"
             y="0"
             x="0"
             xlink:href="#d"
             transform="matrix(-0.5,-0.8660254,0.8660254,-0.5,0,0)"
             id="use5112" />
        </g>
      </g>
    </g>
  </g>
</svg>
