<?xml version="1.0" encoding="utf-8"?>
<!-- Generator: Adobe Illustrator 15.0.0, SVG Export Plug-In . SVG Version: 6.00 Build 0)  -->
<!DOCTYPE svg PUBLIC "-//W3C//DTD SVG 1.1//EN" "http://www.w3.org/Graphics/SVG/1.1/DTD/svg11.dtd">
<svg version="1.1" id="Layer_1" xmlns="http://www.w3.org/2000/svg" xmlns:xlink="http://www.w3.org/1999/xlink" x="0px" y="0px"
	 width="32px" height="32px" viewBox="0 0 32 32" enable-background="new 0 0 32 32" xml:space="preserve">
<path id="path175_4_" d="M16.01,8.391c3.856,0,7,3.142,7,7c0,3.859-3.144,7-7,7c-3.857,0-7-3.141-7-7
	C9.01,11.534,12.152,8.391,16.01,8.391L16.01,8.391z"/>
<circle id="circle177_4_" fill="#E41B1A" cx="16.01" cy="15.391" r="6"/>
<linearGradient id="path186_1_" gradientUnits="userSpaceOnUse" x1="1135.5801" y1="-2291.6885" x2="1145.5801" y2="-2291.6885" gradientTransform="matrix(1 0 0 1 -1124.5703 2307.0791)">
	<stop  offset="0" style="stop-color:#F39A9F"/>
	<stop  offset="1" style="stop-color:#931B16"/>
</linearGradient>
<path id="path186_4_" fill="url(#path186_1_)" d="M16.01,10.391c2.758,0,5,2.244,5,5c0,2.757-2.243,5-5,5c-2.759,0-5-2.242-5-5
	C11.01,12.635,13.252,10.391,16.01,10.391L16.01,10.391z"/>
<path fill="#FFFFFF" d="M-0.405-0.413c-0.41,0.411-0.622,0.979-0.58,1.558l0.696,9.546c0.058,0.779,0.566,1.458,1.297,1.729
	c0.225,0.084,0.46,0.126,0.697,0.126c0.535,0,1.037-0.208,1.416-0.587l0.705-0.706l2.625,2.626c0.379,0.378,0.881,0.586,1.414,0.586
	c0.535,0,1.037-0.208,1.414-0.586l4.596-4.595c0.378-0.378,0.586-0.88,0.586-1.414c0-0.534-0.208-1.036-0.586-1.414L11.25,3.831
	l0.742-0.743c0.553-0.552,0.731-1.383,0.459-2.114s-0.953-1.24-1.733-1.294C1.068-1,1.06-1,1.01-1C0.476-1-0.026-0.792-0.405-0.413z
	"/>
<g>
	<path fill="#FFFFFF" d="M30.991,19.468c-0.274-0.732-0.954-1.24-1.733-1.295l-9.567-0.675c-0.578-0.04-1.145,0.171-1.555,0.581
		c-0.411,0.413-0.622,0.981-0.581,1.561l0.695,9.547c0.057,0.777,0.566,1.457,1.299,1.729c0.728,0.273,1.558,0.093,2.109-0.46
		l0.708-0.707l2.625,2.626c0.78,0.781,2.049,0.781,2.829,0l4.594-4.594c0.78-0.78,0.78-2.049,0-2.829l-2.627-2.624l0.743-0.743
		C31.083,21.03,31.265,20.2,30.991,19.468z"/>
	<path d="M27.111,31.669c-0.391,0.391-1.023,0.391-1.414,0l-3.333-3.333l-1.413,1.412c-0.276,0.277-0.689,0.368-1.057,0.231
		c-0.365-0.137-0.619-0.474-0.647-0.864l-0.695-9.548c-0.021-0.289,0.084-0.572,0.289-0.778l0.001-0.001
		c0.205-0.205,0.488-0.311,0.777-0.291l9.566,0.675c0.392,0.028,0.73,0.281,0.867,0.647c0.136,0.367,0.048,0.78-0.229,1.058
		l-1.45,1.449l3.334,3.333c0.392,0.391,0.391,1.023,0,1.414L27.111,31.669z"/>
	<path id="path4348-2-1_2_" fill="#F8A900" d="M26.959,22.327L31,26.366l-4.596,4.596l-4.04-4.041l-2.12,2.12l-0.695-9.546
		l9.567,0.675L26.959,22.327z"/>
	
		<linearGradient id="SVGID_1_" gradientUnits="userSpaceOnUse" x1="-73.2168" y1="-461.498" x2="-66.0612" y2="-454.3424" gradientTransform="matrix(-1 0 0 -1 -45.1476 -433.5002)">
		<stop  offset="0" style="stop-color:#FFF7E8"/>
		<stop  offset="0.5394" style="stop-color:#F8A900"/>
		<stop  offset="1" style="stop-color:#AB651C"/>
	</linearGradient>
	<polygon fill="url(#SVGID_1_)" points="26.395,29.532 22.356,25.494 21.075,26.775 20.621,20.562 26.851,21 25.538,22.313 
		29.576,26.351 	"/>
</g>
<path d="M7.158,13.172L3.826,9.839l-1.414,1.414c-0.19,0.191-0.446,0.293-0.707,0.293c-0.117,0-0.235-0.021-0.348-0.063
	c-0.367-0.136-0.621-0.474-0.649-0.865L0.013,1.072C-0.01,0.783,0.097,0.499,0.302,0.294C0.49,0.105,0.744,0,1.01,0
	c0.023,0,9.639,0.677,9.639,0.677c0.389,0.027,0.729,0.28,0.865,0.647c0.137,0.367,0.048,0.78-0.229,1.057l-1.449,1.45l3.332,3.332
	c0.188,0.187,0.293,0.441,0.293,0.707c0,0.266-0.105,0.519-0.293,0.707l-4.596,4.595c-0.187,0.188-0.44,0.293-0.707,0.293
	C7.602,13.465,7.347,13.359,7.158,13.172z"/>
<path id="path4348-2-1_1_" fill="#1AABDD" d="M8.422,3.831l4.039,4.039l-4.596,4.595l-4.039-4.04l-2.121,2.121L1.01,1l9.568,0.674
	L8.422,3.831z"/>
<linearGradient id="SVGID_2_" gradientUnits="userSpaceOnUse" x1="285.583" y1="-400.0054" x2="292.7393" y2="-392.849" gradientTransform="matrix(-1 0 0 -1 295.1211 -390.4951)">
	<stop  offset="0" style="stop-color:#C0D9E3"/>
	<stop  offset="1" style="stop-color:#0079A0"/>
</linearGradient>
<polygon fill="url(#SVGID_2_)" points="7.865,11.051 3.826,7.011 2.544,8.293 2.091,2.079 8.322,2.518 7.008,3.831 11.047,7.87 "/>
</svg>
