<?xml version="1.0" encoding="utf-8"?>
<!-- Generator: Adobe Illustrator 15.0.0, SVG Export Plug-In . SVG Version: 6.00 Build 0)  -->
<!DOCTYPE svg PUBLIC "-//W3C//DTD SVG 1.1//EN" "http://www.w3.org/Graphics/SVG/1.1/DTD/svg11.dtd">
<svg version="1.1" id="Layer_1" xmlns="http://www.w3.org/2000/svg" xmlns:xlink="http://www.w3.org/1999/xlink" x="0px" y="0px"
	 width="32px" height="32px" viewBox="0 0 32 32" enable-background="new 0 0 32 32" xml:space="preserve">
<g>
	<g>
		<g>
			<g>
				<path id="path4993_17_" fill="#020202" d="M3.477,25.474C1.561,25.474,0,23.794,0,21.726V3.75C0,2.768,0.348,1.84,0.98,1.137
					C1.641,0.405,2.525,0,3.48,0h25.047C30.443,0,32,1.68,32,3.75v17.976c0,2.067-1.557,3.747-3.473,3.747H3.477L3.477,25.474z"/>
				<path id="rect26074_17_" fill="#FFFFFF" d="M3.477,1.047h25.047c1.346,0,2.43,1.206,2.43,2.704v17.976
					c0,1.496-1.084,2.699-2.43,2.699H3.477c-1.348,0-2.43-1.203-2.43-2.699V3.75C1.045,2.254,2.129,1.047,3.477,1.047z"/>
				
					<linearGradient id="SVGID_1_" gradientUnits="userSpaceOnUse" x1="872.2861" y1="1925.8008" x2="849.3614" y2="1910.0511" gradientTransform="matrix(1 0 0 1 -842.1602 -1903.3594)">
					<stop  offset="0" style="stop-color:#000000;stop-opacity:0.21"/>
					<stop  offset="1" style="stop-color:#000000;stop-opacity:0"/>
				</linearGradient>
				<path fill="url(#SVGID_1_)" d="M3.477,23.379c-0.764,0-1.383-0.74-1.383-1.651V3.75c0-0.914,0.619-1.656,1.383-1.656h25.047
					c0.764,0,1.383,0.742,1.383,1.656v17.976c0,0.912-0.621,1.652-1.383,1.652H3.477L3.477,23.379z"/>
				
					<linearGradient id="path26098_1_" gradientUnits="userSpaceOnUse" x1="2164.4512" y1="4645.5723" x2="2164.4512" y2="4642.7227" gradientTransform="matrix(1 0 0 1 -2148.4541 -4641.0234)">
					<stop  offset="0" style="stop-color:#2A60A9"/>
					<stop  offset="1" style="stop-color:#B0D4F0"/>
				</linearGradient>
				<path id="path26098_15_" fill="url(#path26098_1_)" d="M3.49,1.047c-1.346,0-2.455,1.109-2.455,2.455v1.047h29.924V3.502
					c0-1.346-1.109-2.455-2.455-2.455H3.49z"/>
			</g>
		</g>
	</g>
</g>
<g>
	<path fill="#467537" d="M4.784,13.269c-0.156,0-0.284-0.127-0.284-0.285V9.009C4.141,9.261,3.741,9.46,3.307,9.603
		C3.277,9.612,3.248,9.618,3.218,9.618c-0.059,0-0.117-0.019-0.167-0.054c-0.074-0.054-0.118-0.139-0.118-0.23V8.232
		c0-0.122,0.079-0.231,0.195-0.269C3.413,7.87,3.731,7.687,4.074,7.42c0.327-0.255,0.552-0.551,0.671-0.884
		c0.041-0.114,0.147-0.189,0.267-0.189h0.984c0.157,0,0.284,0.127,0.284,0.284v6.354c0,0.157-0.127,0.284-0.284,0.284H4.784
		L4.784,13.269z"/>
	<path fill="#467537" d="M9.861,13.376c-0.704,0-1.279-0.274-1.711-0.817c-0.422-0.529-0.628-1.416-0.628-2.708
		c0-1.269,0.224-2.167,0.683-2.749c0.396-0.501,0.954-0.755,1.656-0.755c0.701,0,1.26,0.256,1.661,0.764
		C11.978,7.686,12.2,8.587,12.2,9.864c0,1.274-0.224,2.176-0.683,2.758C11.118,13.123,10.562,13.376,9.861,13.376L9.861,13.376z
		 M9.861,7.92c-0.081,0-0.149,0.025-0.214,0.078C9.609,8.028,9.538,8.114,9.475,8.353C9.397,8.642,9.359,9.15,9.359,9.865
		c0,0.888,0.056,1.282,0.103,1.456c0.081,0.304,0.164,0.389,0.188,0.408c0.063,0.051,0.129,0.075,0.211,0.075
		c0.081,0,0.149-0.024,0.214-0.076c0.036-0.031,0.108-0.118,0.172-0.355c0.077-0.287,0.116-0.794,0.116-1.508
		c0-0.887-0.056-1.282-0.102-1.457c-0.083-0.305-0.166-0.391-0.189-0.411C10.007,7.944,9.941,7.92,9.861,7.92L9.861,7.92z"/>
	<path fill="#467537" d="M14.617,13.269c-0.157,0-0.284-0.127-0.284-0.285V9.009c-0.359,0.252-0.759,0.451-1.193,0.594
		c-0.029,0.009-0.059,0.015-0.089,0.015c-0.059,0-0.118-0.019-0.166-0.054c-0.074-0.054-0.118-0.139-0.118-0.229V8.233
		c0-0.123,0.08-0.232,0.195-0.27c0.284-0.092,0.602-0.275,0.946-0.543c0.326-0.254,0.552-0.551,0.67-0.884
		c0.041-0.113,0.149-0.188,0.268-0.188h0.984c0.157,0,0.284,0.127,0.284,0.284v6.354c0,0.156-0.127,0.284-0.284,0.284L14.617,13.269
		L14.617,13.269z"/>
	<path fill="#467537" d="M19.046,13.269c-0.156,0-0.283-0.127-0.283-0.285V9.009c-0.361,0.251-0.76,0.451-1.193,0.594
		c-0.031,0.009-0.061,0.015-0.09,0.015c-0.061,0-0.117-0.019-0.166-0.054c-0.074-0.054-0.119-0.139-0.119-0.229V8.233
		c0-0.123,0.08-0.232,0.195-0.27c0.285-0.092,0.604-0.275,0.947-0.543c0.326-0.254,0.551-0.551,0.67-0.884
		c0.041-0.113,0.146-0.188,0.268-0.188h0.984c0.156-0.001,0.283,0.126,0.283,0.283v6.354c0,0.157-0.127,0.284-0.283,0.284H19.046
		L19.046,13.269z"/>
</g>
<g>
	<path fill="#467537" d="M5.245,21.895c-0.157,0-0.284-0.127-0.284-0.285v-3.975c-0.36,0.252-0.759,0.451-1.194,0.594
		c-0.029,0.01-0.059,0.014-0.089,0.014c-0.059,0-0.117-0.018-0.167-0.053c-0.074-0.055-0.118-0.141-0.118-0.23v-1.102
		c0-0.121,0.079-0.23,0.195-0.27c0.284-0.093,0.602-0.275,0.945-0.542c0.327-0.255,0.552-0.551,0.672-0.884
		c0.041-0.114,0.147-0.189,0.267-0.189h0.984c0.157,0,0.284,0.127,0.284,0.284v6.355c0,0.156-0.127,0.283-0.284,0.283H5.245
		L5.245,21.895z"/>
	<path fill="#467537" d="M10.322,22.002c-0.704,0-1.279-0.273-1.711-0.816c-0.422-0.529-0.628-1.416-0.628-2.709
		c0-1.27,0.224-2.167,0.683-2.749c0.397-0.501,0.954-0.755,1.656-0.755c0.701,0,1.26,0.257,1.661,0.764
		c0.457,0.574,0.678,1.476,0.678,2.751s-0.223,2.178-0.683,2.76C11.58,21.748,11.023,22.002,10.322,22.002L10.322,22.002z
		 M10.322,16.545c-0.081,0-0.149,0.025-0.214,0.078c-0.038,0.031-0.109,0.117-0.172,0.355C9.859,17.268,9.82,17.775,9.82,18.49
		c0,0.889,0.056,1.281,0.103,1.455c0.081,0.305,0.164,0.389,0.188,0.408c0.063,0.051,0.129,0.074,0.211,0.074
		c0.081,0,0.149-0.023,0.214-0.076c0.037-0.029,0.108-0.117,0.172-0.354c0.077-0.287,0.116-0.795,0.116-1.51
		c0-0.887-0.056-1.281-0.103-1.455c-0.082-0.305-0.166-0.393-0.189-0.412C10.468,16.57,10.402,16.545,10.322,16.545L10.322,16.545z"
		/>
	<path fill="#467537" d="M15.078,21.895c-0.157,0-0.284-0.127-0.284-0.285v-3.975c-0.359,0.252-0.759,0.451-1.193,0.594
		c-0.029,0.01-0.059,0.014-0.089,0.014c-0.059,0-0.118-0.018-0.166-0.053c-0.074-0.055-0.118-0.141-0.118-0.23v-1.102
		c0-0.121,0.08-0.23,0.196-0.27c0.283-0.091,0.601-0.275,0.944-0.542c0.327-0.254,0.553-0.551,0.671-0.884
		c0.041-0.113,0.149-0.188,0.268-0.188h0.984c0.157,0,0.284,0.127,0.284,0.284v6.354c0,0.156-0.126,0.283-0.284,0.283H15.078
		L15.078,21.895z"/>
	<path fill="#467537" d="M19.507,21.895c-0.156,0-0.283-0.127-0.283-0.285v-3.975c-0.361,0.25-0.76,0.451-1.193,0.594
		c-0.031,0.01-0.061,0.014-0.09,0.014c-0.061,0-0.117-0.018-0.166-0.053c-0.074-0.055-0.119-0.141-0.119-0.23v-1.102
		c0-0.121,0.08-0.23,0.195-0.27c0.283-0.091,0.602-0.275,0.945-0.542c0.328-0.254,0.553-0.551,0.672-0.884
		c0.041-0.113,0.146-0.188,0.268-0.188h0.984c0.156-0.001,0.283,0.126,0.283,0.283v6.355c0,0.156-0.127,0.283-0.283,0.283H19.507
		L19.507,21.895z"/>
</g>
<g>
	<g>
		<path id="path4046_3_" fill="#020202" d="M12.966,32c-0.184,0-0.369-0.051-0.535-0.154c-0.428-0.27-0.584-0.816-0.363-1.273
			l6.309-13.195c0,0-2.33,0.037-2.334,0.037c-0.324,0-0.629-0.154-0.814-0.422c-0.19-0.271-0.236-0.615-0.121-0.925l5.679-15.343
			c0.146-0.392,0.519-0.652,0.937-0.652L31,0.065c0.383,0,0.729,0.217,0.896,0.558s0.129,0.749-0.104,1.052l-6.281,8.188
			c0,0,4.008-0.035,4.01-0.035c0.387,0,0.736,0.221,0.902,0.567c0.168,0.351,0.117,0.767-0.129,1.065l-16.55,20.176
			C13.545,31.873,13.257,32,12.966,32L12.966,32z"/>
		<path id="path5141_3_" fill="#6EBD46" d="M16.041,16.411l3.936-0.063L12.97,31L29.52,10.826l-6.054,0.055l7.532-9.813l-9.28,0.006
			L16.041,16.411z"/>
		<linearGradient id="polygon4061_1_" gradientUnits="userSpaceOnUse" x1="17.4316" y1="13.0249" x2="28.9688" y2="13.0249">
			<stop  offset="0" style="stop-color:#B0D68C"/>
			<stop  offset="1" style="stop-color:#1E9046"/>
		</linearGradient>
		<polygon id="polygon4061_3_" fill="url(#polygon4061_1_)" points="17.432,23.982 21.573,15.321 17.484,15.388 22.414,2.071 
			28.969,2.067 21.424,11.898 27.389,11.845 		"/>
	</g>
</g>
</svg>
