<?xml version="1.0" encoding="utf-8"?>
<!-- Generator: Adobe Illustrator 15.0.0, SVG Export Plug-In . SVG Version: 6.00 Build 0)  -->
<!DOCTYPE svg PUBLIC "-//W3C//DTD SVG 1.1//EN" "http://www.w3.org/Graphics/SVG/1.1/DTD/svg11.dtd">
<svg version="1.1" id="Layer_1" xmlns="http://www.w3.org/2000/svg" xmlns:xlink="http://www.w3.org/1999/xlink" x="0px" y="0px"
	 width="32px" height="32px" viewBox="0 0 32 32" enable-background="new 0 0 32 32" xml:space="preserve">
<g id="Layer_2">
</g>
<g>
	<path fill="#1D1D1B" d="M8.55,28c-0.143,0-0.285-0.035-0.414-0.107c-0.268-0.15-0.434-0.433-0.434-0.739V4.847
		c0-0.306,0.166-0.589,0.434-0.739C8.265,4.036,8.408,4,8.55,4c0.154,0,0.307,0.042,0.443,0.125l18.181,11.153
		c0.251,0.154,0.404,0.428,0.404,0.722s-0.153,0.568-0.404,0.722L8.993,27.875C8.857,27.958,8.704,28,8.55,28z"/>
	<polygon fill="#72B62F" points="8.55,4.847 26.731,16 8.55,27.153 	"/>
	<linearGradient id="SVGID_1_" gradientUnits="userSpaceOnUse" x1="9.397" y1="16" x2="25.1123" y2="16">
		<stop  offset="0" style="stop-color:#BED789"/>
		<stop  offset="1" style="stop-color:#198B38"/>
	</linearGradient>
	<polygon fill="url(#SVGID_1_)" points="9.397,6.36 25.112,16 9.397,25.641 	"/>
</g>
</svg>
