<?xml version="1.0" encoding="utf-8"?>
<!-- Generator: Adobe Illustrator 15.0.0, SVG Export Plug-In . SVG Version: 6.00 Build 0)  -->
<!DOCTYPE svg PUBLIC "-//W3C//DTD SVG 1.1//EN" "http://www.w3.org/Graphics/SVG/1.1/DTD/svg11.dtd">
<svg version="1.1" id="Layer_1" xmlns="http://www.w3.org/2000/svg" xmlns:xlink="http://www.w3.org/1999/xlink" x="0px" y="0px"
	 width="32px" height="32px" viewBox="0 0 32 32" enable-background="new 0 0 32 32" xml:space="preserve">
<g>
	<g>
		<g>
			<path fill="#13110C" d="M4.465,0.008c0-0.553,0.447-1,1-1h1.779c0.553,0,1,0.447,1,1v32c0,0.553-0.447,1-1,1H5.465
				c-0.553,0-1-0.447-1-1V0.008z"/>
			
				<linearGradient id="SVGID_1_" gradientUnits="userSpaceOnUse" x1="15.3682" y1="-150.8584" x2="15.3682" y2="-152.7561" gradientTransform="matrix(-4.371139e-008 1 1 4.371139e-008 158.2125 0.641)">
				<stop  offset="0" style="stop-color:#46AFDE"/>
				<stop  offset="0.5" style="stop-color:#B8D5E6"/>
				<stop  offset="1" style="stop-color:#2773B9"/>
			</linearGradient>
			<rect x="5.467" y="0.008" opacity="0.98" fill="url(#SVGID_1_)" enable-background="new    " width="1.777" height="32"/>
			<path fill="#13110C" d="M4.465,15.239c0-0.553,0.447-1,1-1h11.469c0.553,0,1,0.447,1,1v1.777c0,0.553-0.447,1-1,1H5.465
				c-0.553,0-1-0.447-1-1V15.239z"/>
			
				<linearGradient id="SVGID_2_" gradientUnits="userSpaceOnUse" x1="14.5977" y1="-147.0127" x2="16.375" y2="-147.0127" gradientTransform="matrix(-4.371139e-008 1 1 4.371139e-008 158.2125 0.641)">
				<stop  offset="0" style="stop-color:#46AFDE"/>
				<stop  offset="0.5" style="stop-color:#B8D5E6"/>
				<stop  offset="1" style="stop-color:#2773B9"/>
			</linearGradient>
			<rect x="5.465" y="15.239" opacity="0.98" fill="url(#SVGID_2_)" enable-background="new    " width="11.469" height="1.777"/>
			<path fill="#13110C" d="M3.993,14.889c0-0.551,0.447-1,1-1h5.242c0.553,0,1,0.449,1,1v2.717c0,0.553-0.447,1-1,1H4.993
				c-0.553,0-1-0.447-1-1V14.889z"/>
			<path fill="#13110C" d="M3.991,12.877c0-0.551,0.447-1,1-1h2.717c0.553,0,1,0.449,1,1v6.5c0,0.553-0.447,1-1,1H4.991
				c-0.553,0-1-0.447-1-1V12.877z"/>
			
				<linearGradient id="SVGID_3_" gradientUnits="userSpaceOnUse" x1="14.248" y1="-150.5986" x2="16.9648" y2="-150.5986" gradientTransform="matrix(-4.371139e-008 1 1 4.371139e-008 158.2125 0.641)">
				<stop  offset="0" style="stop-color:#F8AA00"/>
				<stop  offset="0.3939" style="stop-color:#FFF7E8"/>
				<stop  offset="1" style="stop-color:#AB661D"/>
			</linearGradient>
			<rect x="4.993" y="14.889" fill="url(#SVGID_3_)" width="5.242" height="2.717"/>
			
				<linearGradient id="SVGID_4_" gradientUnits="userSpaceOnUse" x1="15.4863" y1="-152.8643" x2="15.4863" y2="-150.692" gradientTransform="matrix(-4.371139e-008 1 1 4.371139e-008 158.2125 0.641)">
				<stop  offset="0" style="stop-color:#F8AA00"/>
				<stop  offset="0.3939" style="stop-color:#FFF7E8"/>
				<stop  offset="1" style="stop-color:#AB661D"/>
			</linearGradient>
			<rect x="4.991" y="12.877" fill="url(#SVGID_4_)" width="2.717" height="6.5"/>
		</g>
		<g>
			<g>
				<path id="path4760_3_" fill="#14120D" d="M17.069,32.008c-1.393,0-2.523-1.133-2.523-2.525V2.531
					c0-1.39,1.129-2.522,2.523-2.522h12.408C30.868,0.009,32,1.141,32,2.531v26.954c0,1.391-1.131,2.523-2.523,2.523H17.069
					L17.069,32.008z"/>
				
					<linearGradient id="rect24553_1_" gradientUnits="userSpaceOnUse" x1="855.3022" y1="-1436.8975" x2="870.644" y2="-1436.8975" gradientTransform="matrix(1 0 0 -1 -839.7002 -1421.0889)">
					<stop  offset="0" style="stop-color:#CDE2F1"/>
					<stop  offset="0.0164" style="stop-color:#C5D8E8"/>
					<stop  offset="0.043" style="stop-color:#AFC2CE"/>
					<stop  offset="0.0667" style="stop-color:#93A7B3"/>
					<stop  offset="0.5455" style="stop-color:#CDE2F1"/>
					<stop  offset="0.5614" style="stop-color:#CFE3F1"/>
					<stop  offset="0.6708" style="stop-color:#E4F0F7"/>
					<stop  offset="0.7715" style="stop-color:#F3FAFD"/>
					<stop  offset="0.8545" style="stop-color:#F6FBFD"/>
					<stop  offset="0.8593" style="stop-color:#F5FAFC"/>
					<stop  offset="0.8965" style="stop-color:#F0F8FB"/>
					<stop  offset="1" style="stop-color:#EFF8FB"/>
				</linearGradient>
				<path id="rect24553_3_" fill="url(#rect24553_1_)" d="M17.069,0.865h12.408c0.811,0,1.467,0.657,1.467,1.47v26.949
					c0,0.813-0.656,1.469-1.467,1.469H17.069c-0.814,0-1.467-0.656-1.467-1.469V2.333C15.602,1.523,16.258,0.865,17.069,0.865z"/>
				
					<linearGradient id="rect24579_1_" gradientUnits="userSpaceOnUse" x1="871.6997" y1="1922.3354" x2="858.9991" y2="1922.3354" gradientTransform="matrix(1 0 0 1 -842.1602 -1902.3594)">
					<stop  offset="0" style="stop-color:#CDE2F1"/>
					<stop  offset="0.0164" style="stop-color:#C5D8E8"/>
					<stop  offset="0.043" style="stop-color:#AFC2CE"/>
					<stop  offset="0.0667" style="stop-color:#93A7B3"/>
					<stop  offset="0.5455" style="stop-color:#CDE2F1"/>
					<stop  offset="0.5614" style="stop-color:#CFE3F1"/>
					<stop  offset="0.6708" style="stop-color:#E4F0F7"/>
					<stop  offset="0.7715" style="stop-color:#F3FAFD"/>
					<stop  offset="0.8545" style="stop-color:#F6FBFD"/>
					<stop  offset="0.8593" style="stop-color:#F5FAFC"/>
					<stop  offset="0.8965" style="stop-color:#F0F8FB"/>
					<stop  offset="1" style="stop-color:#EFF8FB"/>
				</linearGradient>
				<path id="rect24579_3_" fill="url(#rect24579_1_)" d="M18.61,10.537h9.326c0.926,0,1.674,0.75,1.674,1.677v15.529
					c0,0.926-0.748,1.674-1.674,1.674H18.61c-0.926,0-1.676-0.748-1.676-1.674V12.213C16.934,11.287,17.684,10.537,18.61,10.537z"/>
				
					<linearGradient id="rect24583_1_" gradientUnits="userSpaceOnUse" x1="871.436" y1="1905.8101" x2="859.4645" y2="1905.8101" gradientTransform="matrix(1 0 0 1 -842.1602 -1902.3594)">
					<stop  offset="0" style="stop-color:#CDE2F1"/>
					<stop  offset="0.0164" style="stop-color:#C5D8E8"/>
					<stop  offset="0.043" style="stop-color:#AFC2CE"/>
					<stop  offset="0.0667" style="stop-color:#93A7B3"/>
					<stop  offset="0.5455" style="stop-color:#CDE2F1"/>
					<stop  offset="0.5614" style="stop-color:#CFE3F1"/>
					<stop  offset="0.6708" style="stop-color:#E4F0F7"/>
					<stop  offset="0.7715" style="stop-color:#F3FAFD"/>
					<stop  offset="0.8545" style="stop-color:#F6FBFD"/>
					<stop  offset="0.8593" style="stop-color:#F5FAFC"/>
					<stop  offset="0.8965" style="stop-color:#F0F8FB"/>
					<stop  offset="1" style="stop-color:#EFF8FB"/>
				</linearGradient>
				<path id="rect24583_3_" fill="url(#rect24583_1_)" d="M18.401,1.865h9.742c0.813,0,1.469,0.657,1.469,1.469v0.235
					c0,0.813-0.656,1.468-1.469,1.468h-9.742c-0.813,0-1.467-0.655-1.467-1.468V3.333C16.934,2.523,17.59,1.865,18.401,1.865z"/>
				
					<linearGradient id="rect24585_1_" gradientUnits="userSpaceOnUse" x1="871.436" y1="1910.0952" x2="859.4645" y2="1910.0952" gradientTransform="matrix(1 0 0 1 -842.1602 -1902.3594)">
					<stop  offset="0" style="stop-color:#CDE2F1"/>
					<stop  offset="0.0164" style="stop-color:#C5D8E8"/>
					<stop  offset="0.043" style="stop-color:#AFC2CE"/>
					<stop  offset="0.0667" style="stop-color:#93A7B3"/>
					<stop  offset="0.5455" style="stop-color:#CDE2F1"/>
					<stop  offset="0.5614" style="stop-color:#CFE3F1"/>
					<stop  offset="0.6708" style="stop-color:#E4F0F7"/>
					<stop  offset="0.7715" style="stop-color:#F3FAFD"/>
					<stop  offset="0.8545" style="stop-color:#F6FBFD"/>
					<stop  offset="0.8593" style="stop-color:#F5FAFC"/>
					<stop  offset="0.8965" style="stop-color:#F0F8FB"/>
					<stop  offset="1" style="stop-color:#EFF8FB"/>
				</linearGradient>
				<path id="rect24585_3_" fill="url(#rect24585_1_)" d="M18.401,6.151h9.742c0.813,0,1.469,0.657,1.469,1.469v0.233
					c0,0.813-0.656,1.468-1.469,1.468h-9.742c-0.813,0-1.467-0.654-1.467-1.468V7.619C16.934,6.809,17.59,6.151,18.401,6.151z"/>
				<path id="path24587_3_" fill="#3B5926" d="M28.875,12.738c0,0.698-0.566,1.269-1.266,1.269c-0.701,0-1.271-0.567-1.271-1.267
					v-0.002c0-0.698,0.568-1.266,1.27-1.268C28.309,11.47,28.875,12.037,28.875,12.738L28.875,12.738z"/>
				<path id="path24589_3_" fill="#E1211F" d="M28.875,16.007c0,0.7-0.566,1.271-1.266,1.271c-0.701,0-1.271-0.569-1.271-1.269
					v-0.002c0-0.7,0.568-1.268,1.27-1.268S28.875,15.307,28.875,16.007L28.875,16.007z"/>
				
					<linearGradient id="path4874_1_" gradientUnits="userSpaceOnUse" x1="869.0278" y1="1918.3657" x2="870.5063" y2="1918.3657" gradientTransform="matrix(1 0 0 1 -842.1602 -1902.3594)">
					<stop  offset="0" style="stop-color:#F399A0"/>
					<stop  offset="1" style="stop-color:#941917"/>
				</linearGradient>
				<path id="path4874_3_" fill="url(#path4874_1_)" d="M27.612,16.745c-0.41,0-0.744-0.331-0.744-0.735
					c0-0.412,0.332-0.74,0.74-0.74c0.41,0,0.738,0.33,0.738,0.738C28.348,16.415,28.018,16.745,27.612,16.745L27.612,16.745
					L27.612,16.745z"/>
				
					<linearGradient id="path4882_1_" gradientUnits="userSpaceOnUse" x1="869.0278" y1="1915.0112" x2="870.5063" y2="1915.0112" gradientTransform="matrix(1 0 0 1 -842.1602 -1902.3594)">
					<stop  offset="0" style="stop-color:#BAD584"/>
					<stop  offset="1" style="stop-color:#1C8B37"/>
				</linearGradient>
				<path id="path4882_3_" fill="url(#path4882_1_)" d="M27.612,13.39c-0.41,0-0.744-0.331-0.744-0.737
					c0-0.411,0.332-0.739,0.74-0.739c0.41,0,0.738,0.329,0.738,0.736C28.348,13.058,28.018,13.39,27.612,13.39L27.612,13.39
					L27.612,13.39z"/>
			</g>
		</g>
	</g>
	<g>
		<path id="path4266_1_" fill="#14120D" d="M4.246,30.869c1.368-0.554,2.03-2.116,1.478-3.483c-0.555-1.367-2.116-2.029-3.483-1.477
			c-1.368,0.555-2.03,2.116-1.478,3.484C1.316,30.76,2.878,31.423,4.246,30.869z M2.434,26.392c1.1-0.442,2.357,0.089,2.803,1.191
			c0.443,1.1-0.088,2.356-1.189,2.802c-1.099,0.442-2.356-0.086-2.801-1.189C0.801,28.096,1.334,26.84,2.434,26.392z"/>
		<path d="M0,19.807l1.175-0.476c0.18-0.071,0.369-0.108,0.562-0.108c0.62,0,1.172,0.371,1.406,0.947l0.167,0.412
			c0.096-0.223,0.17-0.4,0.17-0.4c0.236-0.565,0.785-0.93,1.4-0.93c0.202,0,0.397,0.038,0.59,0.117l2.717,1.153
			c0.107,0.045,0.204,0.111,0.286,0.194l0.331,0.337c0.17,0.167,0.263,0.396,0.262,0.634l-0.002,0.478
			c-0.001,0.093-0.016,0.187-0.047,0.275c0,0.001-0.197,0.476-0.197,0.476c0.227-0.093,0.406-0.166,0.406-0.166
			c0.106-0.043,0.221-0.064,0.335-0.064c0.004,0,0.491,0.004,0.491,0.004c0.234,0.003,0.46,0.099,0.624,0.267l0.337,0.343
			c0.081,0.083,0.145,0.181,0.188,0.289l1.109,2.738c0.045,0.108,0.066,0.224,0.065,0.341l-0.005,0.481
			c-0.002,0.235-0.097,0.46-0.266,0.626l-0.34,0.335c-0.086,0.085-0.188,0.15-0.297,0.193l-0.407,0.164l0.408,0.174
			c0.106,0.044,0.202,0.11,0.284,0.191l0.336,0.34c0.168,0.168,0.26,0.396,0.258,0.632l-0.004,0.48c0,0.118-0.023,0.232-0.069,0.341
			l-0.586,1.383H9.045c0-0.117,0.018-0.235,0.064-0.347c0,0,0.412-0.974,0.467-1.102c-0.392-0.166-0.771-0.325-0.771-0.326
			c-0.367-0.153-0.586-0.533-0.535-0.928l0.035-0.275c0.025-0.206,0.037-0.418,0.037-0.629c0-0.183-0.01-0.365-0.029-0.542
			l-0.031-0.275C8.237,27.19,8.46,26.812,8.83,26.663c0,0,0.386-0.156,0.778-0.316L9.245,25.45l-0.777,0.314
			c-0.108,0.045-0.221,0.065-0.333,0.065c-0.27,0-0.532-0.123-0.704-0.348l-0.164-0.213c-0.241-0.311-0.52-0.593-0.824-0.837
			l-0.217-0.173c-0.313-0.248-0.42-0.674-0.264-1.041l0.328-0.773l-0.893-0.377L5.07,22.839c-0.14,0.332-0.465,0.542-0.817,0.542
			c-0.037,0-0.076-0.003-0.113-0.007l-0.27-0.036c-0.211-0.025-0.422-0.037-0.633-0.037c-0.183,0-0.365,0.009-0.547,0.028
			l-0.277,0.029c-0.032,0.004-0.063,0.006-0.094,0.006c-0.359,0-0.688-0.217-0.823-0.556c0,0-0.155-0.383-0.313-0.775
			c-0.032,0.012-0.85,0.343-0.85,0.343C0.225,22.42,0.112,22.441,0,22.441V19.807z"/>
		<path d="M6.557,27.052c-0.547-1.352-1.844-2.224-3.304-2.224c-0.458,0-0.907,0.087-1.333,0.261
			C1.053,25.439,0.375,26.102,0,26.957v2.867c0.57,1.294,1.835,2.129,3.259,2.13c0.458,0,0.907-0.089,1.334-0.261
			C6.413,30.956,7.293,28.875,6.557,27.052z M4.418,28.883c-0.133,0.312-0.377,0.553-0.688,0.678
			c-0.152,0.062-0.311,0.093-0.473,0.093c-0.521,0-0.982-0.31-1.176-0.788c-0.262-0.647,0.053-1.387,0.697-1.648
			c0.151-0.062,0.311-0.093,0.472-0.093c0.521,0,0.981,0.31,1.175,0.792C4.553,28.228,4.549,28.572,4.418,28.883z"/>
		<path fill="#FFFFFF" d="M7.44,32.008c0.24-0.226,0.465-0.464,0.66-0.723l1.514,0.641l0.877-2.076l0.4,0.171l-0.841,1.987H7.44z"/>
		
			<linearGradient id="SVGID_5_" gradientUnits="userSpaceOnUse" x1="39.8052" y1="26.3853" x2="52.6448" y2="26.3853" gradientTransform="matrix(-1 0 0 1 50.0596 0)">
			<stop  offset="0" style="stop-color:#FBFBFE"/>
			<stop  offset="0.5773" style="stop-color:#90BF26"/>
			<stop  offset="1" style="stop-color:#FBFBFB"/>
		</linearGradient>
		<path fill="url(#SVGID_5_)" d="M0,32.008h7.479c0.225-0.215,0.435-0.443,0.619-0.688l1.515,0.64l0.878-2.075l-1.203-0.508
			c0.03-0.184,0.048-0.37,0.058-0.556c0.029-0.412,0.018-0.832-0.043-1.25l1.615-0.657l-0.195-0.48l-0.914-2.256L8.19,24.831
			c-0.359-0.497-0.787-0.929-1.266-1.287l0.682-1.604l-0.078-0.034l-2.563-1.085l-0.078-0.033L4.206,22.39
			c-0.59-0.091-1.196-0.099-1.807-0.012l-0.656-1.616L0,21.469V32.008z M1.02,29.327c-0.363-0.896-0.146-1.883,0.473-2.547
			c0.23-0.25,0.52-0.459,0.857-0.595c1.234-0.5,2.645,0.098,3.143,1.331c0.137,0.34,0.189,0.69,0.172,1.033
			c-0.047,0.906-0.605,1.748-1.503,2.111C2.926,31.158,1.518,30.563,1.02,29.327z"/>
		<path fill="#75B72F" d="M0,20.766l1.503-0.61c0.321-0.128,0.686,0.026,0.816,0.349c0,0,0.321,0.79,0.488,1.201
			c0.326-0.024,0.658-0.018,0.988,0.008C3.932,21.382,4.3,20.524,4.3,20.524c0.132-0.32,0.502-0.47,0.822-0.336l2.717,1.152
			l0.337,0.341l0.002,0.001L8.174,22.16c0,0.003-0.344,0.811-0.512,1.211c0.242,0.214,0.472,0.445,0.682,0.695
			c0.322-0.128,1.216-0.494,1.216-0.494l0.481,0.007l0.336,0.343l1.109,2.737l-0.004,0.483l-0.342,0.335c0,0-0.79,0.32-1.199,0.484
			c0.01,0.146,0.023,0.294,0.023,0.44c0,0.185-0.02,0.366-0.035,0.55c0.332,0.141,1.191,0.506,1.191,0.506l0.337,0.34l-0.003,0.481
			l-0.732,1.729H9.926c0.303-0.712,0.762-1.798,0.813-1.918c-0.245-0.105-1.589-0.674-1.589-0.674l0.034-0.275
			c0.03-0.243,0.046-0.493,0.046-0.739c0-0.214-0.014-0.429-0.036-0.644l-0.032-0.273c0,0,1.432-0.58,1.601-0.65
			c-0.071-0.176-0.958-2.367-1.028-2.541c-0.25,0.102-1.601,0.648-1.601,0.648l-0.169-0.22c-0.285-0.366-0.611-0.696-0.971-0.984
			l-0.216-0.173c0,0,0.604-1.425,0.675-1.592c-0.162-0.066-2.354-0.996-2.528-1.068c-0.104,0.244-0.673,1.588-0.673,1.588
			l-0.275-0.035c-0.461-0.057-0.926-0.06-1.383-0.01l-0.275,0.029c0,0-0.58-1.432-0.646-1.6C1.565,20.919,0.694,21.273,0,21.554
			V20.766z"/>
		<path id="path1834_1_" fill="#75B72F" d="M4.258,30.87c1.368-0.554,2.029-2.116,1.477-3.484c-0.555-1.366-2.115-2.027-3.482-1.474
			c-1.369,0.553-2.031,2.114-1.479,3.482C1.327,30.76,2.891,31.423,4.258,30.87z M2.448,26.393c1.1-0.443,2.356,0.088,2.802,1.189
			c0.445,1.1-0.087,2.357-1.187,2.803C2.962,30.828,1.705,30.3,1.26,29.198C0.815,28.1,1.348,26.84,2.448,26.393z"/>
	</g>
</g>
</svg>
