<?xml version="1.0" encoding="UTF-8" standalone="no"?>
<!-- Generator: Adobe Illustrator 15.0.0, SVG Export Plug-In . SVG Version: 6.00 Build 0)  -->

<svg
   xmlns:dc="http://purl.org/dc/elements/1.1/"
   xmlns:cc="http://creativecommons.org/ns#"
   xmlns:rdf="http://www.w3.org/1999/02/22-rdf-syntax-ns#"
   xmlns:svg="http://www.w3.org/2000/svg"
   xmlns="http://www.w3.org/2000/svg"
   xmlns:sodipodi="http://sodipodi.sourceforge.net/DTD/sodipodi-0.dtd"
   xmlns:inkscape="http://www.inkscape.org/namespaces/inkscape"
   version="1.1"
   id="Layer_1"
   x="0px"
   y="0px"
   width="32px"
   height="32px"
   viewBox="0 0 32 32"
   enable-background="new 0 0 32 32"
   xml:space="preserve"
   inkscape:version="0.48.0 r9654"
   sodipodi:docname="RouterJML.svg"><metadata
   id="metadata3421"><rdf:RDF><cc:Work
       rdf:about=""><dc:format>image/svg+xml</dc:format><dc:type
         rdf:resource="http://purl.org/dc/dcmitype/StillImage" /></cc:Work></rdf:RDF></metadata><defs
   id="defs3419">
	
	
</defs><sodipodi:namedview
   pagecolor="#ffffff"
   bordercolor="#666666"
   borderopacity="1"
   objecttolerance="10"
   gridtolerance="10"
   guidetolerance="10"
   inkscape:pageopacity="0"
   inkscape:pageshadow="2"
   inkscape:window-width="640"
   inkscape:window-height="480"
   id="namedview3417"
   showgrid="false"
   inkscape:zoom="8.1875"
   inkscape:cx="16"
   inkscape:cy="16"
   inkscape:window-x="0"
   inkscape:window-y="0"
   inkscape:window-maximized="0"
   inkscape:current-layer="Layer_1" />
<g
   id="g3364">
		<path
   style="fill:#010202"
   inkscape:connector-curvature="0"
   id="path3366"
   d="m 6.456,31.774 c -0.552,0 -0.998,-0.445 -0.998,-0.996 v -5.992 c 0,-0.551 0.446,-0.996 0.998,-0.996 h 13.729 v -7.572 h -2.83 c -0.405,0 -0.768,-0.243 -0.923,-0.616 -0.155,-0.373 -0.07,-0.804 0.218,-1.088 l 6.824,-6.825 c 0.188,-0.187 0.439,-0.292 0.705,-0.292 l 0,0 c 0.264,0 0.52,0.105 0.707,0.292 l 6.824,6.825 c 0.283,0.286 0.371,0.715 0.215,1.088 -0.152,0.373 -0.52,0.616 -0.922,0.616 h -2.83 v 11.564 c 0,2.201 -1.793,3.992 -3.994,3.992 H 6.456 z" />
		<path
   style="fill:#10acda"
   inkscape:connector-curvature="0"
   id="path3368"
   d="M 31.002,15.22 24.178,8.395 17.354,15.22 h 3.828 v 9.566 H 6.456 v 5.992 h 17.723 c 1.654,0 2.996,-1.344 2.996,-2.996 V 15.22 h 3.827 z" />
		
			<linearGradient
   gradientTransform="matrix(1,0,0,-1,-0.02,32.2051)"
   y2="12.4131"
   x2="28.611799"
   y1="12.4131"
   x1="7.4755998"
   gradientUnits="userSpaceOnUse"
   id="SVGID_1_">
			<stop
   id="stop3371"
   style="stop-color:#B1D2DB"
   offset="0" />
			<stop
   id="stop3373"
   style="stop-color:#0F7D9F"
   offset="1" />
		</linearGradient>
		<path
   inkscape:connector-curvature="0"
   style="fill:url(#SVGID_1_)"
   id="path3375"
   d="M 7.456,29.778 V 25.784 H 22.183 V 14.221 h -2.418 l 4.414,-4.415 4.414,4.415 h -2.418 v 13.561 c 0,1.1 -0.896,1.996 -1.996,1.996 H 7.456 l 0,0 z" />
		<path
   style="fill:#010202"
   inkscape:connector-curvature="0"
   id="path3377"
   d="M 2.002,8.82 H 4.834 V 32 h 7.987 V 8.82 h 2.831 c 0.404,0 0.768,-0.243 0.924,-0.616 0.152,-0.373 0.069,-0.802 -0.218,-1.088 L 9.534,0.292 C 9.338,0.097 9.084,0 8.829,0 8.574,0 8.317,0.097 8.122,0.292 L 1.297,7.116 C 1.012,7.402 0.926,7.831 1.081,8.204 1.236,8.577 1.6,8.82 2.002,8.82 z" />
		<polygon
   style="fill:#72b848"
   id="polygon3379"
   points="11.822,7.821 15.652,7.821 8.829,0.998 2.002,7.821 5.833,7.821 5.833,32 11.822,32 " />
		
			<linearGradient
   gradientTransform="matrix(1,0,0,-1,-0.02,32.2051)"
   y2="15.5"
   x2="13.2617"
   y1="15.5"
   x1="4.4345999"
   gradientUnits="userSpaceOnUse"
   id="SVGID_2_">
			<stop
   id="stop3382"
   style="stop-color:#B0D28D"
   offset="0" />
			<stop
   id="stop3384"
   style="stop-color:#209146"
   offset="1" />
		</linearGradient>
		<polygon
   style="fill:url(#SVGID_2_)"
   id="polygon3386"
   points="4.415,6.824 8.829,2.409 13.242,6.824 10.825,6.824 10.825,31 6.831,31 6.831,6.824 " />
	</g><g
   groupmode="layer"
   label="Layer 1"
   id="layer1">
		<path
   style="fill:#ffffff"
   inkscape:connector-curvature="0"
   id="path3389"
   d="m 7.123,32.77 c -0.738,0 -1.42,-0.045 -2.085,-0.137 -2.068,-0.191 -5.6,-0.83 -5.646,-2.906 -0.001,-0.047 0.007,-0.162 0.015,-0.209 0.293,-1.566 2.024,-1.809 3.288,-1.988 0.182,-0.025 0.354,-0.049 0.518,-0.076 l 0.302,-0.053 c 0.045,-0.01 0.147,-0.02 0.193,-0.02 0.52,0 0.968,0.371 1.068,0.881 0.112,0.58 -0.268,1.15 -0.846,1.273 -0.007,0 -0.013,0.002 -0.02,0.004 0.38,0.066 0.832,0.137 1.371,0.209 1.155,0.084 1.935,0.119 2.644,0.119 0.753,0 1.443,-0.041 2.487,-0.104 l 0.11,-0.006 0.06,-0.012 c 1.369,-0.234 2.534,-0.432 3.345,-1.285 0.208,-0.217 0.494,-0.338 0.789,-0.338 0.096,0 0.191,0.012 0.284,0.037 0.756,0.205 1.048,0.822 1.003,1.344 -0.148,1.604 -4.197,2.938 -5.186,3.018 -1.313,0.136 -2.506,0.249 -3.694,0.249 z" />
		<path
   style="fill:#0e6581"
   inkscape:connector-curvature="0"
   id="path3391"
   d="M 7.123,32 C 6.42,32 5.772,31.957 5.143,31.871 4.329,31.795 0.197,31.326 0.161,29.711 c 0,-0.023 0.001,-0.045 0.005,-0.066 0.189,-1.01 1.493,-1.191 2.643,-1.354 0.18,-0.025 0.359,-0.051 0.53,-0.078 L 3.65,28.156 c 0.02,-0.004 0.038,-0.006 0.057,-0.006 0.15,0 0.284,0.109 0.313,0.258 C 4.053,28.58 3.941,28.746 3.77,28.781 3.666,28.802 3.558,28.82 3.446,28.84 L 3.379,28.852 C 2.43,29.022 1.61,29.168 1.447,29.415 1.438,29.429 1.42,29.458 1.423,29.52 c 0.492,0.49 2.165,0.777 3.752,0.992 1.215,0.088 2.017,0.125 2.747,0.125 0.771,0 1.471,-0.041 2.532,-0.105 l 0.16,-0.008 0.112,-0.021 c 1.425,-0.244 2.769,-0.475 3.755,-1.512 0.062,-0.064 0.146,-0.098 0.231,-0.098 0.028,0 0.056,0.004 0.083,0.012 0.441,0.119 0.446,0.439 0.437,0.533 -0.081,0.873 -3.297,2.221 -4.482,2.318 C 9.45,31.889 8.272,32 7.123,32 l 0,0 z" />
		<path
   style="fill:#ffffff"
   inkscape:connector-curvature="0"
   id="path3393"
   d="m 7.496,30.747 c -1.111,0 -2.131,-0.113 -2.799,-0.311 -0.032,-0.01 -0.063,-0.021 -0.093,-0.035 -1.1,-0.486 -2.275,-1.096 -2.308,-2.178 -0.029,-1 0.865,-1.461 1.519,-1.799 0.128,-0.066 0.254,-0.131 0.374,-0.199 0.163,-0.092 0.347,-0.139 0.533,-0.139 0.356,0 0.69,0.174 0.892,0.465 0.248,0.352 0.254,0.814 0.045,1.172 0.063,0.02 0.132,0.037 0.206,0.057 0.56,0.129 1.189,0.197 1.849,0.197 1.573,0 2.658,-0.391 2.89,-0.529 0.199,-0.223 0.498,-0.359 0.81,-0.359 0.142,0 0.287,0.029 0.417,0.084 0.795,0.318 1.189,0.801 1.162,1.43 -0.044,0.969 -0.98,1.256 -1.806,1.508 -0.253,0.078 -0.486,0.146 -0.663,0.223 -0.964,0.344 -2.174,0.413 -3.028,0.413 z" />
		<path
   style="fill:#0e6581"
   inkscape:connector-curvature="0"
   id="path3395"
   d="m 7.496,29.977 c -1.028,0 -1.994,-0.105 -2.582,-0.279 -1.311,-0.58 -1.835,-1.01 -1.85,-1.498 -0.015,-0.516 0.53,-0.797 1.105,-1.094 0.132,-0.068 0.266,-0.139 0.395,-0.211 0.049,-0.027 0.103,-0.039 0.156,-0.039 0.101,0 0.2,0.047 0.261,0.135 0.095,0.135 0.07,0.32 -0.056,0.426 -0.055,0.045 -0.114,0.092 -0.174,0.141 -0.128,0.102 -0.396,0.314 -0.409,0.402 0.003,0.002 0.097,0.24 1.325,0.564 0.638,0.146 1.331,0.223 2.045,0.223 1.845,0 3.245,-0.506 3.448,-0.766 0.062,-0.08 0.156,-0.125 0.252,-0.125 0.039,0 0.082,0.01 0.12,0.025 0.212,0.086 0.709,0.287 0.691,0.688 -0.02,0.424 -0.541,0.586 -1.263,0.807 -0.262,0.08 -0.536,0.162 -0.743,0.252 -0.86,0.304 -2.073,0.349 -2.721,0.349 l 0,0 z" />
		<path
   style="fill:#ffffff"
   inkscape:connector-curvature="0"
   id="path3397"
   d="m 7.706,28.762 c -0.908,0 -1.795,-0.109 -2.637,-0.326 -1.014,-0.205 -3.47,-0.883 -3.545,-2.527 -0.029,-0.646 0.303,-1.527 2.052,-2.055 0.066,-0.025 0.184,-0.045 0.313,-0.045 0.48,0 0.897,0.307 1.039,0.766 0.105,0.336 0.037,0.688 -0.156,0.957 0.249,0.066 0.563,0.137 0.957,0.201 0.765,0.123 1.587,0.188 2.373,0.188 1.567,0 2.391,-0.242 2.689,-0.377 0.056,-0.219 0.18,-0.42 0.362,-0.57 0.202,-0.164 0.445,-0.25 0.694,-0.25 0.103,0 0.209,0.016 0.314,0.047 0.392,0.131 1.489,0.498 1.494,1.529 0.006,1.094 -1.143,1.492 -2.255,1.877 l -0.205,0.07 c -1.191,0.345 -2.353,0.515 -3.489,0.515 z" />
		<path
   style="fill:#0e6581"
   inkscape:connector-curvature="0"
   id="path3399"
   d="M 7.706,27.993 C 6.861,27.993 6.039,27.891 5.261,27.69 3.862,27.405 2.333,26.776 2.292,25.874 2.268,25.331 2.774,24.899 3.798,24.591 3.829,24.581 3.86,24.579 3.89,24.579 c 0.136,0 0.261,0.086 0.304,0.223 0.052,0.166 -0.039,0.344 -0.205,0.396 -0.591,0.193 -0.708,0.381 -0.705,0.418 0.008,0.104 0.425,0.561 2.32,0.877 0.813,0.129 1.677,0.197 2.499,0.197 1.909,0 3.067,-0.346 3.368,-0.686 0.071,-0.082 0.064,-0.133 0.063,-0.154 -0.014,-0.107 0.029,-0.217 0.112,-0.285 0.059,-0.047 0.129,-0.072 0.203,-0.072 0.034,0 0.067,0.006 0.101,0.016 0.435,0.146 0.936,0.369 0.938,0.795 0.003,0.543 -0.803,0.822 -1.738,1.146 l -0.204,0.07 c -1.094,0.316 -2.178,0.473 -3.24,0.473 l 0,0 z" />
		<path
   style="fill:#ffffff"
   inkscape:connector-curvature="0"
   id="path3401"
   d="M 7.866,26.583 C 6.08,26.583 4.559,26.392 3.692,26.056 2.663,25.724 1.044,25.201 1.129,23.868 1.2,22.763 2.269,22.173 5.215,21.614 5.262,21.606 5.37,21.596 5.418,21.596 c 0.509,0 0.956,0.361 1.063,0.859 0.083,0.385 -0.054,0.773 -0.327,1.025 0.822,0.119 1.57,0.176 2.27,0.176 1.659,0 3.078,-0.314 4.602,-1.021 0.141,-0.066 0.299,-0.1 0.457,-0.1 0.152,0 0.3,0.031 0.439,0.09 0.77,0.354 0.931,1.016 0.837,1.48 -0.332,1.77 -4.739,2.398 -5.537,2.441 -0.465,0.025 -0.919,0.037 -1.356,0.037 z" />
		<path
   style="fill:#0e6581"
   inkscape:connector-curvature="0"
   id="path3403"
   d="m 7.866,25.815 c -1.672,0 -3.128,-0.18 -3.896,-0.479 -1.302,-0.42 -2.113,-0.809 -2.074,-1.42 0.03,-0.471 0.469,-0.98 3.461,-1.547 0.021,-0.002 0.04,-0.006 0.06,-0.006 0.148,0 0.279,0.104 0.311,0.252 0.036,0.168 -0.07,0.338 -0.238,0.377 -1.598,0.383 -1.734,0.703 -1.735,0.707 0.028,0.027 0.276,0.186 0.713,0.264 1.499,0.313 2.789,0.463 3.955,0.463 1.775,0 3.293,-0.336 4.926,-1.094 0.042,-0.02 0.088,-0.027 0.133,-0.027 0.045,0 0.09,0.008 0.131,0.025 0.423,0.193 0.416,0.5 0.392,0.623 -0.172,0.918 -3.275,1.744 -4.823,1.826 -0.451,0.022 -0.891,0.036 -1.316,0.036 l 0,0 z" />
		<path
   style="fill:#ffffff"
   inkscape:connector-curvature="0"
   id="path3405"
   d="m 12.83,29.315 c -0.453,0 -0.863,-0.287 -1.021,-0.713 -0.178,-0.494 0.017,-1.043 0.462,-1.309 1.926,-1.156 2.921,-2.398 2.921,-2.748 -10e-4,0.002 -10e-4,0.002 -0.002,0.002 -0.029,0 -0.414,-0.348 -2.029,-0.465 -0.563,-0.039 -1.006,-0.514 -1.009,-1.076 -0.005,-0.559 0.429,-1.039 0.989,-1.09 0.424,-0.039 0.828,-0.059 1.199,-0.059 3.363,0 3.859,1.682 3.916,2.404 0.18,2.227 -2.738,4.633 -5.253,5.039 -0.04,0.007 -0.132,0.015 -0.173,0.015 z" />
		<path
   style="fill:#0e6581"
   inkscape:connector-curvature="0"
   id="path3407"
   d="m 12.83,28.545 c -0.132,0 -0.252,-0.084 -0.299,-0.209 -0.052,-0.145 0.004,-0.305 0.135,-0.383 1.75,-1.051 3.494,-2.66 3.276,-3.574 -0.135,-0.566 -1.103,-0.945 -2.725,-1.063 -0.166,-0.012 -0.294,-0.148 -0.295,-0.314 -0.001,-0.166 0.124,-0.305 0.29,-0.32 0.401,-0.037 0.782,-0.055 1.129,-0.055 2.621,0 3.099,1.063 3.148,1.695 0.133,1.635 -2.28,3.842 -4.608,4.219 -0.017,0.002 -0.034,0.004 -0.051,0.004 l 0,0 z" />
		<path
   style="fill:#ffffff"
   inkscape:connector-curvature="0"
   id="path3409"
   d="M 8.398,24.508 C 8.106,24.508 7.832,24.393 7.625,24.184 7.242,23.793 7.204,23.196 7.531,22.762 l 0.105,-0.137 c 1.042,-1.365 1.042,-1.365 1.032,-2.348 0.047,-2.678 0.419,-4.902 4.529,-5.22 0.02,-0.001 0.063,-0.003 0.083,-0.003 0.458,0 0.869,0.289 1.022,0.718 0.167,0.442 0.013,0.96 -0.378,1.247 -2.496,1.816 -2.267,2.549 -2.046,3.258 0.166,0.531 0.477,1.523 -0.444,2.389 -0.676,0.557 -0.911,0.695 -1.222,0.863 -0.199,0.107 -0.441,0.238 -1.175,0.77 -0.184,0.135 -0.406,0.209 -0.639,0.209 z" />
		<path
   style="fill:#e62c2a"
   inkscape:connector-curvature="0"
   id="path3411"
   d="M 8.398,23.739 C 8.315,23.739 8.232,23.706 8.17,23.643 8.059,23.53 8.049,23.354 8.145,23.227 l 0.103,-0.135 c 1.203,-1.574 1.203,-1.574 1.19,-2.824 0.044,-2.512 0.334,-4.174 3.819,-4.443 0.008,0 0.016,-10e-4 0.024,-10e-4 0.132,0 0.253,0.083 0.298,0.208 0.05,0.134 0.004,0.284 -0.11,0.368 -2.938,2.14 -2.598,3.229 -2.325,4.106 0.156,0.5 0.332,1.066 -0.237,1.602 -0.626,0.512 -0.819,0.615 -1.063,0.746 -0.223,0.119 -0.497,0.27 -1.259,0.822 -0.056,0.043 -0.121,0.063 -0.187,0.063 l 0,0 z" />
		<path
   style="fill:#ffffff"
   inkscape:connector-curvature="0"
   id="path3413"
   d="M 7.593,24.491 C 7.406,24.491 7.222,24.444 7.059,24.352 5.364,23.381 5.003,22.694 4.61,21.676 L 4.573,21.578 C 4.556,21.537 4.544,21.492 4.535,21.447 3.981,18.574 5.644,17.104 6.981,15.924 c 0.859,-0.759 1.6,-1.413 1.832,-2.334 0.11,-0.427 0.459,-0.742 0.891,-0.809 0.038,-0.006 0.125,-0.013 0.165,-0.013 0.377,0 0.723,0.192 0.924,0.514 0.98,1.604 -0.508,3.439 -1.822,5.057 -0.483,0.596 -1.382,1.701 -1.413,2.061 -0.03,0.209 -0.091,0.973 0.917,2.365 0.299,0.42 0.266,0.994 -0.077,1.369 -0.199,0.226 -0.495,0.357 -0.805,0.357 z" />
		<path
   style="fill:#e62c2a"
   inkscape:connector-curvature="0"
   id="path3415"
   d="M 7.593,23.721 C 7.54,23.721 7.485,23.709 7.435,23.68 5.861,22.78 5.638,22.201 5.328,21.397 L 5.291,21.301 c -0.471,-2.439 0.886,-3.641 2.2,-4.8 0.914,-0.808 1.777,-1.57 2.068,-2.722 0.032,-0.124 0.134,-0.217 0.261,-0.237 0.016,-0.002 0.032,-0.004 0.048,-0.004 0.109,0 0.212,0.057 0.272,0.153 0.693,1.134 -0.558,2.675 -1.767,4.165 -0.759,0.936 -1.542,1.9 -1.583,2.494 -0.047,0.291 -0.097,1.268 1.061,2.867 0.087,0.121 0.079,0.289 -0.021,0.398 -0.061,0.071 -0.149,0.106 -0.237,0.106 l 0,0 z" />
	</g>
</svg>