<?xml version="1.0" encoding="utf-8"?>
<!-- Generator: Adobe Illustrator 15.0.0, SVG Export Plug-In . SVG Version: 6.00 Build 0)  -->
<!DOCTYPE svg PUBLIC "-//W3C//DTD SVG 1.1//EN" "http://www.w3.org/Graphics/SVG/1.1/DTD/svg11.dtd">
<svg version="1.1" id="Layer_1" xmlns="http://www.w3.org/2000/svg" xmlns:xlink="http://www.w3.org/1999/xlink" x="0px" y="0px"
	 width="32px" height="32px" viewBox="0 0 32 32" enable-background="new 0 0 32 32" xml:space="preserve">
<g id="Layer_2">
</g>
<g opacity="0.4">
	
		<radialGradient id="SVGID_1_" cx="4.0938" cy="14.5381" r="4.7035" gradientTransform="matrix(1 0 0 1.3608 0 -3.8481)" gradientUnits="userSpaceOnUse">
		<stop  offset="0" style="stop-color:#BED789;stop-opacity:0"/>
		<stop  offset="1" style="stop-color:#198B38"/>
	</radialGradient>
	<path fill="url(#SVGID_1_)" d="M7.718,19.482H2.935v-2.104h4.199c0.259,0,0.469-0.287,0.469-0.64v-2.235
		c0-0.354-0.21-0.639-0.469-0.639H2.935v-1.479h4.562c0.259,0,0.47-0.286,0.47-0.639V9.44c0-0.354-0.21-0.639-0.47-0.639H0.47
		C0.21,8.801,0,9.086,0,9.44v12.991c0,0.354,0.21,0.639,0.47,0.639h7.248c0.259,0,0.469-0.285,0.469-0.639v-2.308
		C8.187,19.771,7.977,19.482,7.718,19.482z"/>
	
		<radialGradient id="SVGID_2_" cx="12.0391" cy="15.7754" r="3.9637" gradientTransform="matrix(1 0 0 1.3608 0 -3.8481)" gradientUnits="userSpaceOnUse">
		<stop  offset="0" style="stop-color:#BED789;stop-opacity:0"/>
		<stop  offset="1" style="stop-color:#198B38"/>
	</radialGradient>
	<path fill="url(#SVGID_2_)" d="M12.133,15.32c0.246,0,0.427,0.085,0.572,0.27c0.142,0.18,0.213,0.411,0.225,0.722
		c0.012,0.342,0.219,0.607,0.47,0.607h1.896c0.128,0,0.251-0.072,0.34-0.198c0.088-0.125,0.136-0.298,0.128-0.472
		c-0.045-1.29-0.412-2.351-1.089-3.146c-0.666-0.786-1.521-1.183-2.542-1.183c-1.162,0-2.102,0.539-2.796,1.598
		c-0.68,1.039-1.025,2.437-1.025,4.16c0,1.759,0.336,3.15,0.997,4.134c0.672,1.001,1.622,1.507,2.824,1.507
		c1.01,0,1.849-0.394,2.493-1.169c0.647-0.776,1.028-1.856,1.137-3.21c0.016-0.181-0.028-0.362-0.117-0.497
		c-0.088-0.135-0.217-0.212-0.349-0.212H13.4c-0.241,0-0.444,0.247-0.468,0.573c-0.028,0.372-0.116,0.655-0.273,0.868
		c-0.145,0.196-0.312,0.291-0.525,0.291c-0.312,0-0.521-0.143-0.678-0.462c-0.19-0.389-0.288-1.004-0.288-1.823
		c0-0.847,0.099-1.48,0.291-1.881C11.616,15.467,11.825,15.32,12.133,15.32z"/>
	
		<radialGradient id="SVGID_3_" cx="19.7861" cy="14.5381" r="4.5246" gradientTransform="matrix(1 0 0 1.3608 0 -3.8481)" gradientUnits="userSpaceOnUse">
		<stop  offset="0" style="stop-color:#BED789;stop-opacity:0"/>
		<stop  offset="1" style="stop-color:#198B38"/>
	</radialGradient>
	<path fill="url(#SVGID_3_)" d="M20.602,11.919c-0.654,0-1.213,0.198-1.68,0.593V9.44c0-0.354-0.211-0.639-0.471-0.639h-1.863
		c-0.26,0-0.47,0.286-0.47,0.639v12.991c0,0.354,0.21,0.639,0.47,0.639h1.863c0.26,0,0.471-0.285,0.471-0.639v-5.427
		c0-0.587,0.091-1.028,0.274-1.307c0.169-0.26,0.422-0.385,0.775-0.385c0.247,0,0.422,0.071,0.518,0.215
		c0.104,0.161,0.161,0.47,0.161,0.894v6.01c0,0.354,0.209,0.639,0.47,0.639h1.864c0.259,0,0.47-0.285,0.47-0.639v-6.469
		c0-1.23-0.257-2.222-0.762-2.943C22.179,12.291,21.476,11.919,20.602,11.919z"/>
	
		<radialGradient id="SVGID_4_" cx="27.916" cy="15.7754" r="4.1361" gradientTransform="matrix(1 0 0 1.3608 0 -3.8481)" gradientUnits="userSpaceOnUse">
		<stop  offset="0" style="stop-color:#BED789;stop-opacity:0"/>
		<stop  offset="1" style="stop-color:#198B38"/>
	</radialGradient>
	<path fill="url(#SVGID_4_)" d="M30.895,13.501c-0.737-1.048-1.739-1.582-2.983-1.582c-1.229,0-2.229,0.532-2.971,1.58
		c-0.734,1.041-1.108,2.445-1.108,4.177c0,1.698,0.374,3.077,1.113,4.098c0.739,1.024,1.738,1.543,2.966,1.543
		c1.239,0,2.242-0.519,2.98-1.544C31.628,20.751,32,19.375,32,17.677C32,15.944,31.628,14.54,30.895,13.501z M27.021,15.828
		c0.198-0.346,0.48-0.508,0.89-0.508c0.414,0,0.697,0.162,0.896,0.51c0.223,0.387,0.335,1,0.335,1.819
		c0,0.796-0.109,1.389-0.331,1.765c-0.201,0.344-0.485,0.504-0.9,0.504c-0.411,0-0.694-0.159-0.894-0.501
		c-0.218-0.376-0.329-0.97-0.329-1.768C26.688,16.83,26.8,16.215,27.021,15.828z"/>
</g>
<g opacity="0.6">
	
		<radialGradient id="SVGID_5_" cx="17.7764" cy="15.4717" r="12.125" gradientTransform="matrix(1.0369 0 0 1.3608 -1.1102 -3.8481)" gradientUnits="userSpaceOnUse">
		<stop  offset="0" style="stop-color:#BED789;stop-opacity:0"/>
		<stop  offset="1" style="stop-color:#198B38"/>
	</radialGradient>
	<path fill="url(#SVGID_5_)" d="M8.638,19.17H4.387v-1.804h3.732c0.23,0,0.417-0.245,0.417-0.549v-1.914
		c0-0.305-0.187-0.55-0.417-0.55H4.387v-1.265h4.055c0.23,0,0.417-0.246,0.417-0.55v-1.975c0-0.304-0.187-0.549-0.417-0.549H2.197
		c-0.23,0-0.417,0.245-0.417,0.549v11.133c0,0.302,0.187,0.549,0.417,0.549h6.441c0.23,0,0.418-0.247,0.418-0.549v-1.978
		C9.056,19.416,8.869,19.17,8.638,19.17z"/>
	
		<radialGradient id="SVGID_6_" cx="17.7744" cy="15.4697" r="12.1244" gradientTransform="matrix(1.0369 0 0 1.3608 -1.1102 -3.8481)" gradientUnits="userSpaceOnUse">
		<stop  offset="0" style="stop-color:#BED789;stop-opacity:0"/>
		<stop  offset="1" style="stop-color:#198B38"/>
	</radialGradient>
	<path fill="url(#SVGID_6_)" d="M12.563,15.602c0.218,0,0.379,0.073,0.508,0.231c0.126,0.154,0.189,0.353,0.2,0.618
		c0.011,0.294,0.195,0.522,0.417,0.522h1.685c0.115,0,0.225-0.062,0.303-0.17c0.078-0.109,0.121-0.256,0.115-0.406
		c-0.04-1.106-0.366-2.014-0.968-2.698c-0.592-0.673-1.352-1.013-2.26-1.013c-1.032,0-1.868,0.461-2.485,1.369
		c-0.604,0.892-0.91,2.09-0.91,3.567c0,1.507,0.297,2.698,0.885,3.543c0.598,0.856,1.442,1.291,2.511,1.291
		c0.898,0,1.644-0.337,2.216-1.002c0.575-0.667,0.914-1.589,1.01-2.752c0.014-0.155-0.025-0.31-0.104-0.425
		c-0.079-0.116-0.192-0.183-0.311-0.183h-1.685c-0.214,0-0.394,0.213-0.416,0.493c-0.025,0.317-0.103,0.561-0.243,0.743
		c-0.129,0.169-0.277,0.25-0.466,0.25c-0.277,0-0.462-0.124-0.603-0.396c-0.168-0.335-0.255-0.859-0.255-1.563
		c0-0.728,0.087-1.27,0.258-1.612C12.104,15.726,12.289,15.602,12.563,15.602z"/>
	
		<radialGradient id="SVGID_7_" cx="17.7754" cy="15.4717" r="12.1244" gradientTransform="matrix(1.0369 0 0 1.3608 -1.1102 -3.8481)" gradientUnits="userSpaceOnUse">
		<stop  offset="0" style="stop-color:#BED789;stop-opacity:0"/>
		<stop  offset="1" style="stop-color:#198B38"/>
	</radialGradient>
	<path fill="url(#SVGID_7_)" d="M20.09,12.687c-0.582,0-1.079,0.17-1.493,0.509v-2.632c0-0.304-0.188-0.549-0.418-0.549h-1.655
		c-0.232,0-0.418,0.245-0.418,0.549v11.133c0,0.302,0.186,0.549,0.418,0.549h1.655c0.23,0,0.418-0.247,0.418-0.549v-4.651
		c0-0.505,0.082-0.881,0.243-1.12c0.151-0.224,0.376-0.331,0.689-0.331c0.22,0,0.376,0.062,0.46,0.187
		c0.094,0.137,0.144,0.401,0.144,0.766v5.15c0,0.302,0.186,0.549,0.417,0.549h1.658c0.229,0,0.417-0.247,0.417-0.549V16.15
		c0-1.054-0.228-1.904-0.678-2.522C21.492,13.004,20.867,12.687,20.09,12.687z"/>
	
		<radialGradient id="SVGID_8_" cx="17.7754" cy="15.4697" r="12.1241" gradientTransform="matrix(1.0369 0 0 1.3608 -1.1102 -3.8481)" gradientUnits="userSpaceOnUse">
		<stop  offset="0" style="stop-color:#BED789;stop-opacity:0"/>
		<stop  offset="1" style="stop-color:#198B38"/>
	</radialGradient>
	<path fill="url(#SVGID_8_)" d="M29.238,14.042c-0.655-0.898-1.546-1.355-2.65-1.355c-1.095,0-1.982,0.456-2.642,1.353
		c-0.653,0.895-0.985,2.099-0.985,3.583c0,1.455,0.332,2.637,0.988,3.512c0.657,0.877,1.546,1.322,2.639,1.322
		c1.101,0,1.991-0.445,2.647-1.323c0.654-0.874,0.985-2.056,0.985-3.511C30.221,16.138,29.89,14.934,29.238,14.042z M25.796,16.038
		c0.175-0.298,0.427-0.437,0.792-0.437c0.366,0,0.618,0.139,0.796,0.438c0.198,0.331,0.298,0.855,0.298,1.558
		c0,0.683-0.098,1.192-0.295,1.515c-0.179,0.294-0.432,0.43-0.799,0.43s-0.619-0.135-0.795-0.427
		c-0.194-0.324-0.292-0.835-0.292-1.518C25.501,16.895,25.599,16.369,25.796,16.038z"/>
</g>
<g>
	<path fill="#1D1D1B" d="M27.033,14.39c-0.684-0.811-1.631-1.24-2.738-1.24c-1.102,0-2.045,0.428-2.732,1.238
		c-0.01,0.011-0.018,0.025-0.025,0.037c-0.07-0.107-0.135-0.218-0.215-0.316c-0.529-0.626-1.262-0.959-2.119-0.959
		c-0.086,0-0.17,0.004-0.25,0.01v-0.409c0-0.779-0.559-1.411-1.246-1.411h-1.298c-0.687,0-1.246,0.632-1.246,1.411v0.925
		c-0.535-0.348-1.156-0.526-1.856-0.526c-0.752,0-1.42,0.231-1.983,0.654v-1.053c0-0.779-0.559-1.411-1.246-1.411H5.186
		c-0.687,0-1.245,0.632-1.245,1.411v7.544c0,0.779,0.559,1.412,1.245,1.412h5.046c0.395,0,0.743-0.213,0.971-0.538
		c0.577,0.449,1.291,0.683,2.104,0.683c0.816,0,1.515-0.256,2.094-0.731c0.227,0.354,0.592,0.587,1.007,0.587h1.298
		c0.369,0,0.701-0.182,0.93-0.471c0.229,0.289,0.561,0.471,0.928,0.471h1.299c0.463,0,0.863-0.291,1.078-0.719
		c0.641,0.557,1.438,0.863,2.354,0.863c1.104,0,2.045-0.417,2.729-1.207c0.688-0.795,1.035-1.841,1.035-3.11
		C28.059,16.253,27.715,15.194,27.033,14.39z"/>
	<path fill="#72B62F" d="M10.232,18.585H6.902v-1.223h2.924c0.18,0,0.327-0.166,0.327-0.37v-1.299c0-0.206-0.146-0.372-0.327-0.372
		H6.902v-0.857h3.176c0.181,0,0.328-0.167,0.328-0.372v-1.341c0-0.203-0.147-0.371-0.328-0.371H5.186
		c-0.181,0-0.327,0.167-0.327,0.371v7.544c0,0.206,0.146,0.372,0.327,0.372h5.046c0.181,0,0.327-0.166,0.327-0.372v-1.339
		C10.56,18.751,10.413,18.585,10.232,18.585z"/>
	<path fill="#72B62F" d="M13.307,16.167c0.171,0,0.297,0.05,0.398,0.156c0.099,0.105,0.149,0.239,0.156,0.42
		c0.009,0.198,0.153,0.354,0.327,0.354h1.32c0.09,0,0.176-0.041,0.237-0.116c0.062-0.073,0.094-0.173,0.09-0.272
		c-0.031-0.751-0.288-1.365-0.76-1.83c-0.463-0.455-1.058-0.685-1.77-0.685c-0.809,0-1.464,0.311-1.947,0.926
		c-0.474,0.605-0.713,1.416-0.713,2.416c0,1.022,0.234,1.83,0.694,2.4c0.468,0.582,1.129,0.877,1.966,0.877
		c0.703,0,1.288-0.229,1.736-0.679c0.449-0.452,0.716-1.078,0.791-1.866c0.011-0.104-0.019-0.209-0.082-0.288
		c-0.062-0.078-0.15-0.122-0.244-0.122h-1.32c-0.167,0-0.309,0.144-0.325,0.333c-0.02,0.216-0.083,0.38-0.19,0.504
		c-0.102,0.114-0.219,0.169-0.366,0.169c-0.216,0-0.362-0.084-0.471-0.271c-0.133-0.226-0.201-0.58-0.201-1.058
		c0-0.491,0.069-0.859,0.202-1.092C12.947,16.252,13.092,16.167,13.307,16.167z"/>
	<path fill="#72B62F" d="M19.203,14.193c-0.455,0-0.844,0.114-1.168,0.343v-1.785c0-0.203-0.146-0.371-0.328-0.371h-1.298
		c-0.181,0-0.327,0.167-0.327,0.371v7.544c0,0.206,0.146,0.372,0.327,0.372h1.298c0.182,0,0.328-0.166,0.328-0.372v-3.151
		c0-0.341,0.063-0.597,0.189-0.757c0.121-0.152,0.295-0.225,0.541-0.225c0.172,0,0.293,0.042,0.359,0.125
		c0.074,0.093,0.113,0.272,0.113,0.52v3.488c0,0.206,0.145,0.372,0.326,0.372h1.299c0.18,0,0.326-0.166,0.326-0.372V16.54
		c0-0.715-0.178-1.29-0.531-1.709C20.303,14.407,19.813,14.193,19.203,14.193z"/>
	<path fill="#72B62F" d="M26.371,15.11c-0.514-0.609-1.211-0.917-2.076-0.917c-0.857,0-1.555,0.308-2.07,0.916
		c-0.512,0.604-0.771,1.422-0.771,2.426c0,0.986,0.26,1.788,0.773,2.38c0.516,0.595,1.211,0.897,2.068,0.897
		c0.861,0,1.561-0.303,2.074-0.897c0.514-0.592,0.771-1.394,0.771-2.38C27.141,16.531,26.883,15.714,26.371,15.11z M23.674,16.463
		c0.137-0.202,0.336-0.296,0.621-0.296s0.482,0.094,0.623,0.296c0.156,0.227,0.232,0.581,0.232,1.057
		c0,0.461-0.076,0.807-0.229,1.025c-0.141,0.2-0.34,0.292-0.627,0.292s-0.484-0.092-0.623-0.29c-0.152-0.218-0.23-0.563-0.23-1.027
		C23.441,17.044,23.52,16.688,23.674,16.463z"/>
</g>
</svg>
