<?xml version="1.0" encoding="utf-8"?>
<!-- Generator: Adobe Illustrator 15.0.0, SVG Export Plug-In . SVG Version: 6.00 Build 0)  -->
<!DOCTYPE svg PUBLIC "-//W3C//DTD SVG 1.1//EN" "http://www.w3.org/Graphics/SVG/1.1/DTD/svg11.dtd">
<svg version="1.1" id="Layer_1" xmlns="http://www.w3.org/2000/svg" xmlns:xlink="http://www.w3.org/1999/xlink" x="0px" y="0px"
	 width="32px" height="32px" viewBox="0 0 32 32" enable-background="new 0 0 32 32" xml:space="preserve">
<g>
	<g>
		<g>
			<path fill="#13110C" d="M2.47,0c0-0.553,0.447-1,1-1H5.25c0.553,0,1,0.447,1,1v25.107c0,0.553-0.447,1-1,1H3.47
				c-0.553,0-1-0.447-1-1V0z"/>
			
				<linearGradient id="SVGID_1_" gradientUnits="userSpaceOnUse" x1="11.9141" y1="-152.8535" x2="11.9141" y2="-154.7512" gradientTransform="matrix(-4.371139e-008 1 1 4.371139e-008 158.2125 0.641)">
				<stop  offset="0" style="stop-color:#46AFDE"/>
				<stop  offset="0.5" style="stop-color:#B8D5E6"/>
				<stop  offset="1" style="stop-color:#2773B9"/>
			</linearGradient>
			<rect x="3.472" y="0" opacity="0.98" fill="url(#SVGID_1_)" enable-background="new    " width="1.777" height="25.107"/>
			<path fill="#13110C" d="M2.47,15.231c0-0.553,0.447-1,1-1h11.469c0.553,0,1,0.447,1,1v1.777c0,0.553-0.447,1-1,1H3.47
				c-0.553,0-1-0.447-1-1V15.231z"/>
			
				<linearGradient id="SVGID_2_" gradientUnits="userSpaceOnUse" x1="14.5898" y1="-149.0078" x2="16.3672" y2="-149.0078" gradientTransform="matrix(-4.371139e-008 1 1 4.371139e-008 158.2125 0.641)">
				<stop  offset="0" style="stop-color:#46AFDE"/>
				<stop  offset="0.5" style="stop-color:#B8D5E6"/>
				<stop  offset="1" style="stop-color:#2773B9"/>
			</linearGradient>
			<rect x="3.47" y="15.231" opacity="0.98" fill="url(#SVGID_2_)" enable-background="new    " width="11.469" height="1.777"/>
			<path fill="#13110C" d="M1.998,14.881c0-0.551,0.447-1,1-1H8.24c0.553,0,1,0.449,1,1v2.717c0,0.553-0.447,1-1,1H2.998
				c-0.553,0-1-0.447-1-1V14.881z"/>
			<path fill="#13110C" d="M1.996,12.87c0-0.551,0.447-1,1-1h2.717c0.553,0,1,0.449,1,1v6.5c0,0.553-0.447,1-1,1H2.996
				c-0.553,0-1-0.447-1-1V12.87z"/>
			
				<linearGradient id="SVGID_3_" gradientUnits="userSpaceOnUse" x1="14.2402" y1="-152.5938" x2="16.957" y2="-152.5938" gradientTransform="matrix(-4.371139e-008 1 1 4.371139e-008 158.2125 0.641)">
				<stop  offset="0" style="stop-color:#F8AA00"/>
				<stop  offset="0.3939" style="stop-color:#FFF7E8"/>
				<stop  offset="1" style="stop-color:#AB661D"/>
			</linearGradient>
			<rect x="2.998" y="14.881" fill="url(#SVGID_3_)" width="5.242" height="2.717"/>
			
				<linearGradient id="SVGID_4_" gradientUnits="userSpaceOnUse" x1="15.4785" y1="-154.8594" x2="15.4785" y2="-152.6871" gradientTransform="matrix(-4.371139e-008 1 1 4.371139e-008 158.2125 0.641)">
				<stop  offset="0" style="stop-color:#F8AA00"/>
				<stop  offset="0.3939" style="stop-color:#FFF7E8"/>
				<stop  offset="1" style="stop-color:#AB661D"/>
			</linearGradient>
			<rect x="2.996" y="12.87" fill="url(#SVGID_4_)" width="2.717" height="6.5"/>
		</g>
		<g>
			<g>
				<path id="path4588_1_" fill="#14120D" d="M14.624,24.744c-0.455,0-0.82-0.365-0.82-0.82v-1.128c0-0.453,0.365-0.82,0.82-0.82
					h3.742v-0.237h-6.356c-0.454,0-0.82-0.366-0.82-0.819V8.078c0-0.452,0.366-0.82,0.82-0.82H31.18c0.453,0,0.82,0.368,0.82,0.82
					v12.841c0,0.453-0.367,0.819-0.82,0.819h-6.356v0.237h3.742c0.453,0,0.82,0.367,0.82,0.82v1.128c0,0.455-0.367,0.82-0.82,0.82
					H14.624z"/>
				<path id="rect24612_1_" fill="#FFFFFF" d="M12.007,8.078v12.841h7.177v1.877h-4.563v1.128h13.944v-1.128h-4.563v-1.877h7.177
					V8.078H12.007z"/>
				<rect id="rect4591_1_" x="19.184" y="20.918" fill="#BEBABB" width="4.819" height="1.877"/>
				<rect id="rect4593_1_" x="14.624" y="22.795" fill="#FFFFFF" width="13.941" height="1.128"/>
				<rect id="rect24614_1_" x="12.924" y="9.04" fill="#1BA9D9" width="17.342" height="10.927"/>
				
					<linearGradient id="SVGID_5_" gradientUnits="userSpaceOnUse" x1="12.981" y1="-106.1968" x2="26.5665" y2="-97.4438" gradientTransform="matrix(1 0 0 -1 2.46 -87.7295)">
					<stop  offset="0" style="stop-color:#44ACDB"/>
					<stop  offset="0.5" style="stop-color:#B6D3E3"/>
					<stop  offset="1" style="stop-color:#2571B8"/>
				</linearGradient>
				<rect x="13.745" y="9.859" fill="url(#SVGID_5_)" width="15.701" height="9.287"/>
			</g>
		</g>
	</g>
	<g>
		<path id="path4266_10_" fill="#14120D" d="M4.247,30.861c1.367-0.554,2.03-2.116,1.477-3.483s-2.115-2.029-3.482-1.477
			c-1.369,0.555-2.031,2.116-1.479,3.484C1.317,30.752,2.879,31.416,4.247,30.861z M2.434,26.384c1.1-0.442,2.358,0.089,2.803,1.191
			c0.443,1.1-0.088,2.356-1.188,2.802c-1.099,0.442-2.356-0.086-2.802-1.189C0.802,28.088,1.334,26.833,2.434,26.384z"/>
		<path d="M0,19.799l1.175-0.476c0.18-0.071,0.368-0.108,0.562-0.108c0.619,0,1.172,0.371,1.406,0.947l0.167,0.412
			c0.095-0.223,0.17-0.4,0.17-0.4c0.236-0.565,0.785-0.93,1.399-0.93c0.203,0,0.398,0.038,0.591,0.117l2.717,1.153
			c0.106,0.045,0.204,0.111,0.286,0.194l0.331,0.337c0.169,0.167,0.263,0.396,0.261,0.634l-0.002,0.478
			c0,0.093-0.016,0.187-0.046,0.275c0,0.001-0.198,0.476-0.198,0.476c0.227-0.093,0.406-0.166,0.407-0.166
			c0.106-0.043,0.22-0.064,0.335-0.064c0.004,0,0.49,0.004,0.49,0.004c0.235,0.003,0.461,0.099,0.625,0.267l0.336,0.343
			c0.082,0.083,0.146,0.181,0.188,0.289l1.108,2.738c0.045,0.108,0.066,0.224,0.066,0.341l-0.006,0.481
			c-0.001,0.235-0.096,0.46-0.265,0.626l-0.341,0.335c-0.086,0.085-0.188,0.15-0.297,0.193l-0.406,0.164l0.408,0.174
			c0.105,0.044,0.201,0.11,0.283,0.191l0.337,0.34c0.167,0.168,0.259,0.396,0.258,0.632l-0.004,0.48
			c-0.001,0.118-0.024,0.232-0.069,0.341L11.688,32H9.045c0-0.117,0.018-0.235,0.064-0.347c0,0,0.413-0.974,0.467-1.102
			c-0.391-0.166-0.771-0.325-0.771-0.326c-0.367-0.153-0.586-0.533-0.536-0.928l0.035-0.275c0.025-0.206,0.037-0.418,0.037-0.629
			c0-0.183-0.01-0.365-0.029-0.542l-0.031-0.275c-0.045-0.395,0.18-0.772,0.549-0.922c0,0,0.385-0.156,0.777-0.316l-0.363-0.896
			l-0.777,0.314c-0.107,0.045-0.221,0.065-0.332,0.065c-0.27,0-0.533-0.123-0.705-0.348l-0.163-0.213
			c-0.241-0.311-0.521-0.593-0.824-0.837l-0.217-0.173c-0.313-0.248-0.42-0.674-0.265-1.041l0.328-0.773L5.397,22.06l-0.326,0.771
			c-0.141,0.332-0.465,0.542-0.818,0.542c-0.037,0-0.075-0.003-0.113-0.007l-0.27-0.036c-0.211-0.025-0.422-0.037-0.633-0.037
			c-0.182,0-0.364,0.009-0.547,0.028l-0.276,0.029c-0.032,0.004-0.063,0.006-0.095,0.006c-0.359,0-0.687-0.217-0.822-0.556
			c0,0-0.155-0.383-0.314-0.775c-0.031,0.012-0.849,0.343-0.849,0.343C0.225,22.413,0.113,22.433,0,22.433V19.799z"/>
		<path d="M6.557,27.044c-0.547-1.352-1.844-2.224-3.303-2.224c-0.459,0-0.908,0.087-1.334,0.261
			c-0.866,0.35-1.545,1.013-1.92,1.867v2.867c0.57,1.294,1.834,2.129,3.259,2.13c0.458,0,0.907-0.089,1.333-0.261
			C6.413,30.948,7.294,28.867,6.557,27.044z M4.418,28.875c-0.132,0.312-0.377,0.553-0.687,0.678
			c-0.152,0.062-0.312,0.093-0.474,0.093c-0.521,0-0.981-0.31-1.176-0.788c-0.261-0.647,0.053-1.387,0.697-1.648
			c0.152-0.062,0.311-0.093,0.473-0.093c0.52,0,0.98,0.31,1.175,0.792C4.554,28.22,4.55,28.564,4.418,28.875z"/>
		<path fill="#FFFFFF" d="M7.44,32c0.24-0.226,0.465-0.464,0.66-0.723l1.514,0.641l0.878-2.076l0.399,0.171L10.051,32H7.44z"/>
		
			<linearGradient id="SVGID_6_" gradientUnits="userSpaceOnUse" x1="39.8042" y1="26.3774" x2="52.6426" y2="26.3774" gradientTransform="matrix(-1 0 0 1 50.0596 0)">
			<stop  offset="0" style="stop-color:#FBFBFE"/>
			<stop  offset="0.5773" style="stop-color:#90BF26"/>
			<stop  offset="1" style="stop-color:#FBFBFB"/>
		</linearGradient>
		<path fill="url(#SVGID_6_)" d="M0,32h7.479c0.225-0.215,0.434-0.443,0.619-0.688l1.514,0.64l0.879-2.075l-1.203-0.508
			c0.029-0.184,0.047-0.37,0.058-0.556c0.029-0.412,0.017-0.832-0.044-1.25l1.615-0.657l-0.195-0.48l-0.913-2.256L8.19,24.823
			c-0.359-0.497-0.786-0.929-1.266-1.287l0.682-1.604l-0.078-0.034l-2.563-1.085L4.887,20.78l-0.682,1.603
			c-0.589-0.091-1.195-0.099-1.807-0.012l-0.656-1.616L0,21.461V32z M1.02,29.319c-0.363-0.896-0.146-1.883,0.473-2.547
			c0.23-0.25,0.521-0.459,0.858-0.595c1.234-0.5,2.644,0.098,3.142,1.331c0.138,0.34,0.189,0.69,0.172,1.033
			c-0.047,0.906-0.605,1.748-1.502,2.111C2.926,31.15,1.518,30.555,1.02,29.319z"/>
		<path fill="#75B72F" d="M0,20.758l1.503-0.61c0.321-0.128,0.686,0.026,0.815,0.349c0,0,0.322,0.79,0.488,1.201
			c0.326-0.024,0.658-0.018,0.988,0.008c0.137-0.331,0.506-1.189,0.506-1.189c0.132-0.32,0.502-0.47,0.822-0.336l2.717,1.152
			l0.336,0.341l0.002,0.001l-0.003,0.478c-0.001,0.003-0.345,0.811-0.513,1.211c0.242,0.214,0.473,0.445,0.683,0.695
			c0.322-0.128,1.216-0.494,1.216-0.494l0.48,0.007l0.337,0.343l1.108,2.737l-0.004,0.483l-0.341,0.335
			c-0.001,0-0.79,0.32-1.199,0.484c0.01,0.146,0.022,0.294,0.022,0.44c0,0.185-0.02,0.366-0.034,0.55
			c0.331,0.141,1.19,0.506,1.19,0.506l0.338,0.34l-0.004,0.481L10.723,32H9.927c0.302-0.712,0.761-1.798,0.813-1.918
			c-0.246-0.105-1.59-0.674-1.59-0.674l0.035-0.275c0.029-0.243,0.045-0.493,0.045-0.739c0-0.214-0.013-0.429-0.035-0.644
			l-0.032-0.273c0,0,1.432-0.58,1.601-0.65c-0.072-0.176-0.958-2.367-1.029-2.541c-0.25,0.102-1.6,0.648-1.6,0.648l-0.169-0.22
			c-0.286-0.366-0.611-0.696-0.971-0.984L6.78,23.557c0,0,0.604-1.425,0.674-1.592c-0.161-0.066-2.354-0.996-2.527-1.068
			c-0.104,0.244-0.674,1.588-0.674,1.588L3.977,22.45c-0.461-0.057-0.926-0.06-1.382-0.01l-0.276,0.029c0,0-0.579-1.432-0.645-1.6
			C1.565,20.912,0.695,21.265,0,21.546V20.758z"/>
		<path id="path1834_19_" fill="#75B72F" d="M4.258,30.862c1.369-0.554,2.03-2.116,1.478-3.484
			c-0.555-1.366-2.116-2.027-3.483-1.474c-1.369,0.553-2.031,2.114-1.478,3.482C1.328,30.752,2.891,31.416,4.258,30.862z
			 M2.448,26.385c1.1-0.443,2.357,0.088,2.803,1.189c0.445,1.1-0.087,2.357-1.188,2.803c-1.1,0.442-2.357-0.085-2.803-1.188
			C0.816,28.092,1.349,26.833,2.448,26.385z"/>
	</g>
</g>
</svg>
