<?xml version="1.0" encoding="utf-8"?>
<!-- Generator: Adobe Illustrator 15.0.0, SVG Export Plug-In . SVG Version: 6.00 Build 0)  -->
<!DOCTYPE svg PUBLIC "-//W3C//DTD SVG 1.1//EN" "http://www.w3.org/Graphics/SVG/1.1/DTD/svg11.dtd">
<svg version="1.1" id="Layer_1" xmlns="http://www.w3.org/2000/svg" xmlns:xlink="http://www.w3.org/1999/xlink" x="0px" y="0px"
	 width="32px" height="32px" viewBox="0 0 32 32" enable-background="new 0 0 32 32" xml:space="preserve">
<g>
	<g>
		<path fill="#13110C" d="M2.47,0c0-0.553,0.447-1,1-1H5.25c0.553,0,1,0.447,1,1v32c0,0.553-0.447,1-1,1H3.47c-0.553,0-1-0.447-1-1
			V0z"/>
		
			<linearGradient id="SVGID_1_" gradientUnits="userSpaceOnUse" x1="15.3604" y1="-152.8535" x2="15.3604" y2="-154.7512" gradientTransform="matrix(-4.371139e-008 1 1 4.371139e-008 158.2125 0.641)">
			<stop  offset="0" style="stop-color:#46AFDE"/>
			<stop  offset="0.5" style="stop-color:#B8D5E6"/>
			<stop  offset="1" style="stop-color:#2773B9"/>
		</linearGradient>
		<rect x="3.472" y="0" opacity="0.98" fill="url(#SVGID_1_)" enable-background="new    " width="1.777" height="32"/>
		<path fill="#13110C" d="M2.47,15.231c0-0.553,0.447-1,1-1h11.469c0.553,0,1,0.447,1,1v1.777c0,0.553-0.447,1-1,1H3.47
			c-0.553,0-1-0.447-1-1V15.231z"/>
		
			<linearGradient id="SVGID_2_" gradientUnits="userSpaceOnUse" x1="14.5898" y1="-149.0078" x2="16.3672" y2="-149.0078" gradientTransform="matrix(-4.371139e-008 1 1 4.371139e-008 158.2125 0.641)">
			<stop  offset="0" style="stop-color:#46AFDE"/>
			<stop  offset="0.5" style="stop-color:#B8D5E6"/>
			<stop  offset="1" style="stop-color:#2773B9"/>
		</linearGradient>
		<rect x="3.47" y="15.231" opacity="0.98" fill="url(#SVGID_2_)" enable-background="new    " width="11.469" height="1.777"/>
		<path fill="#13110C" d="M1.998,14.881c0-0.551,0.447-1,1-1H8.24c0.553,0,1,0.449,1,1v2.717c0,0.553-0.447,1-1,1H2.998
			c-0.553,0-1-0.447-1-1V14.881z"/>
		<path fill="#13110C" d="M1.996,12.87c0-0.551,0.447-1,1-1h2.717c0.553,0,1,0.449,1,1v6.5c0,0.553-0.447,1-1,1H2.996
			c-0.553,0-1-0.447-1-1V12.87z"/>
		
			<linearGradient id="SVGID_3_" gradientUnits="userSpaceOnUse" x1="14.2402" y1="-152.5938" x2="16.957" y2="-152.5938" gradientTransform="matrix(-4.371139e-008 1 1 4.371139e-008 158.2125 0.641)">
			<stop  offset="0" style="stop-color:#F8AA00"/>
			<stop  offset="0.3939" style="stop-color:#FFF7E8"/>
			<stop  offset="1" style="stop-color:#AB661D"/>
		</linearGradient>
		<rect x="2.998" y="14.881" fill="url(#SVGID_3_)" width="5.242" height="2.717"/>
		
			<linearGradient id="SVGID_4_" gradientUnits="userSpaceOnUse" x1="15.4785" y1="-154.8594" x2="15.4785" y2="-152.6871" gradientTransform="matrix(-4.371139e-008 1 1 4.371139e-008 158.2125 0.641)">
			<stop  offset="0" style="stop-color:#F8AA00"/>
			<stop  offset="0.3939" style="stop-color:#FFF7E8"/>
			<stop  offset="1" style="stop-color:#AB661D"/>
		</linearGradient>
		<rect x="2.996" y="12.87" fill="url(#SVGID_4_)" width="2.717" height="6.5"/>
	</g>
	<g>
		<g>
			<path id="path4588_4_" fill="#14120D" d="M14.624,24.744c-0.455,0-0.82-0.365-0.82-0.82v-1.128c0-0.453,0.365-0.82,0.82-0.82
				h3.742v-0.237h-6.356c-0.454,0-0.82-0.366-0.82-0.819V8.078c0-0.452,0.367-0.82,0.82-0.82H31.18c0.453,0,0.82,0.368,0.82,0.82
				v12.841c0,0.453-0.367,0.819-0.82,0.819h-6.356v0.237h3.742c0.453,0,0.82,0.367,0.82,0.82v1.128c0,0.455-0.367,0.82-0.82,0.82
				H14.624z"/>
			<path id="rect24612_5_" fill="#FFFFFF" d="M12.007,8.078v12.841h7.177v1.877h-4.563v1.128h13.944v-1.128h-4.563v-1.877h7.177
				V8.078H12.007z"/>
			<rect id="rect4591_4_" x="19.184" y="20.918" fill="#BEBABB" width="4.819" height="1.877"/>
			<rect id="rect4593_4_" x="14.624" y="22.795" fill="#FFFFFF" width="13.941" height="1.128"/>
			<rect id="rect24614_5_" x="12.924" y="9.04" fill="#1BA9D9" width="17.342" height="10.927"/>
			
				<linearGradient id="SVGID_5_" gradientUnits="userSpaceOnUse" x1="12.98" y1="-106.1973" x2="26.5663" y2="-97.4438" gradientTransform="matrix(1 0 0 -1 2.46 -87.7295)">
				<stop  offset="0" style="stop-color:#44ACDB"/>
				<stop  offset="0.5" style="stop-color:#B6D3E3"/>
				<stop  offset="1" style="stop-color:#2571B8"/>
			</linearGradient>
			<rect x="13.744" y="9.859" fill="url(#SVGID_5_)" width="15.702" height="9.287"/>
		</g>
	</g>
</g>
</svg>
