<?xml version="1.0" encoding="utf-8"?>
<!-- Generator: Adobe Illustrator 16.0.0, SVG Export Plug-In . SVG Version: 6.00 Build 0)  -->
<!DOCTYPE svg PUBLIC "-//W3C//DTD SVG 1.1//EN" "http://www.w3.org/Graphics/SVG/1.1/DTD/svg11.dtd">
<svg version="1.1" id="Layer_1" xmlns="http://www.w3.org/2000/svg" xmlns:xlink="http://www.w3.org/1999/xlink" x="0px" y="0px"
	 width="32px" height="32px" viewBox="0 0 32 32" enable-background="new 0 0 32 32" xml:space="preserve">
<g>
	<path d="M30.808,13.438c0.659,0,1.192-0.533,1.192-1.191v-1.918c0-0.658-0.533-1.191-1.192-1.191h-6.409
		c-0.647,0-1.167,0.516-1.186,1.158c-0.964-0.762-2.248-1.158-3.846-1.158h-5.977c-0.659,0-1.192,0.533-1.192,1.191v1.918
		c0,0.658,0.533,1.191,1.192,1.191h0.251v5.125h-0.251c-0.085,0-0.16,0.031-0.241,0.049c-0.079-0.018-0.154-0.049-0.239-0.049h-0.48
		l-1.626-5.129c0.61-0.053,1.089-0.564,1.089-1.188v-1.918c0-0.658-0.533-1.191-1.192-1.191H3.297c-0.66,0-1.193,0.533-1.193,1.191
		v1.918c0,0.629,0.489,1.145,1.107,1.188l-1.508,5.129H1.192C0.533,18.563,0,19.096,0,19.754v1.918c0,0.658,0.533,1.191,1.192,1.191
		h5.023c0.201,0,0.391-0.049,0.558-0.139c0.168,0.09,0.357,0.139,0.56,0.139h5.577c0.085,0,0.16-0.031,0.239-0.049
		c0.081,0.018,0.156,0.049,0.241,0.049h5.977c0.659,0,1.193-0.533,1.193-1.191v-1.918c0-0.447-0.246-0.836-0.61-1.041
		c0.425-0.027,0.806-0.072,1.15-0.139c0.689-0.129,1.316-0.379,1.864-0.738c0.583-0.387,1.062-0.934,1.424-1.629
		c0.354-0.684,0.534-1.445,0.534-2.266c0-0.176-0.033-0.336-0.048-0.504h0.051v5.125h-0.527c-0.659,0-1.192,0.533-1.192,1.191v1.918
		c0,0.658,0.533,1.191,1.192,1.191h6.409c0.659,0,1.192-0.533,1.192-1.191v-1.918c0-0.658-0.533-1.191-1.192-1.191h-0.544v-5.125
		H30.808z M19.343,14.326c-0.001,0-0.094,0.055-0.364,0.096v-0.961c0.224,0.023,0.321,0.061,0.355,0.105
		c0.021,0.031,0.088,0.127,0.088,0.375S19.353,14.303,19.343,14.326z"/>
	<path fill="#03ADDB" d="M12.91,19.754v1.918H7.333v-1.918h1.451l-0.538-1.947H5.303l-0.604,1.947h1.517v1.918H1.192v-1.918h1.403
		l2.209-7.508H3.297v-1.918H10.7v1.918H9.176l2.381,7.508H12.91z M7.781,16.143l-0.946-3.416l-1.019,3.416H7.781z"/>
	<path fill="#03ADDB" d="M19.367,19.754v1.918h-5.977v-1.918h1.443v-7.508h-1.443v-1.918h5.977c1.393,0,2.468,0.326,3.225,0.979
		c0.76,0.652,1.138,1.531,1.138,2.635c0,0.631-0.133,1.201-0.399,1.717c-0.267,0.512-0.607,0.908-1.022,1.182
		c-0.417,0.273-0.893,0.461-1.428,0.563s-1.205,0.15-2.01,0.15h-1.084v2.201H19.367z M17.786,15.662h0.439
		c1.012,0,1.662-0.164,1.952-0.494c0.292-0.328,0.438-0.738,0.438-1.227c0-0.414-0.101-0.766-0.302-1.055
		c-0.201-0.293-0.433-0.471-0.693-0.539s-0.688-0.102-1.28-0.102h-0.554V15.662z"/>
	<path fill="#03ADDB" d="M24.398,21.672v-1.918h1.721v-7.508h-1.721v-1.918h6.409v1.918H29.07v7.508h1.737v1.918H24.398z"/>
</g>
</svg>
