<?xml version="1.0" encoding="UTF-8" standalone="no"?>
<!-- Generator: Adobe Illustrator 15.0.0, SVG Export Plug-In . SVG Version: 6.00 Build 0)  -->

<svg
   xmlns:dc="http://purl.org/dc/elements/1.1/"
   xmlns:cc="http://creativecommons.org/ns#"
   xmlns:rdf="http://www.w3.org/1999/02/22-rdf-syntax-ns#"
   xmlns:svg="http://www.w3.org/2000/svg"
   xmlns="http://www.w3.org/2000/svg"
   xmlns:sodipodi="http://sodipodi.sourceforge.net/DTD/sodipodi-0.dtd"
   xmlns:inkscape="http://www.inkscape.org/namespaces/inkscape"
   version="1.1"
   id="Layer_1"
   x="0px"
   y="0px"
   width="32px"
   height="32px"
   viewBox="0 0 32 32"
   enable-background="new 0 0 32 32"
   xml:space="preserve"
   inkscape:version="0.48.0 r9654"
   sodipodi:docname="JMLServer.svg"><metadata
   id="metadata211"><rdf:RDF><cc:Work
       rdf:about=""><dc:format>image/svg+xml</dc:format><dc:type
         rdf:resource="http://purl.org/dc/dcmitype/StillImage" /></cc:Work></rdf:RDF></metadata><defs
   id="defs209">
	
	
</defs><sodipodi:namedview
   pagecolor="#ffffff"
   bordercolor="#666666"
   borderopacity="1"
   objecttolerance="10"
   gridtolerance="10"
   guidetolerance="10"
   inkscape:pageopacity="0"
   inkscape:pageshadow="2"
   inkscape:window-width="640"
   inkscape:window-height="480"
   id="namedview207"
   showgrid="false"
   inkscape:zoom="8.1875"
   inkscape:cx="16"
   inkscape:cy="16"
   inkscape:window-x="0"
   inkscape:window-y="0"
   inkscape:window-maximized="0"
   inkscape:current-layer="Layer_1" />
<g
   id="g5">
		<g
   id="g7">
			<g
   id="g9">
				<path
   style="fill:#13110c"
   inkscape:connector-curvature="0"
   id="path11"
   d="m 4.465,0.008 c 0,-0.553 0.447,-1 1,-1 h 1.779 c 0.553,0 1,0.447 1,1 v 32 c 0,0.553 -0.447,1 -1,1 H 5.465 c -0.553,0 -1,-0.447 -1,-1 v -32 z" />
				
					<linearGradient
   gradientTransform="matrix(-4.371139e-8,1,1,4.371139e-8,158.2125,0.641)"
   y2="-152.7561"
   x2="15.3682"
   y1="-150.8584"
   x1="15.3682"
   gradientUnits="userSpaceOnUse"
   id="SVGID_1_">
					<stop
   id="stop14"
   style="stop-color:#46AFDE"
   offset="0" />
					<stop
   id="stop16"
   style="stop-color:#B8D5E6"
   offset="0.5" />
					<stop
   id="stop18"
   style="stop-color:#2773B9"
   offset="1" />
				</linearGradient>
				<rect
   style="opacity:0.98000004;fill:url(#SVGID_1_)"
   id="rect20"
   height="32"
   width="1.777"
   enable-background="new    "
   y="0.0080000004"
   x="5.467" />
				<path
   style="fill:#13110c"
   inkscape:connector-curvature="0"
   id="path22"
   d="m 4.465,15.239 c 0,-0.553 0.447,-1 1,-1 h 11.469 c 0.553,0 1,0.447 1,1 v 1.777 c 0,0.553 -0.447,1 -1,1 H 5.465 c -0.553,0 -1,-0.447 -1,-1 v -1.777 z" />
				
					<linearGradient
   gradientTransform="matrix(-4.371139e-8,1,1,4.371139e-8,158.2125,0.641)"
   y2="-147.0127"
   x2="16.375"
   y1="-147.0127"
   x1="14.5977"
   gradientUnits="userSpaceOnUse"
   id="SVGID_2_">
					<stop
   id="stop25"
   style="stop-color:#46AFDE"
   offset="0" />
					<stop
   id="stop27"
   style="stop-color:#B8D5E6"
   offset="0.5" />
					<stop
   id="stop29"
   style="stop-color:#2773B9"
   offset="1" />
				</linearGradient>
				<rect
   style="opacity:0.98000004;fill:url(#SVGID_2_)"
   id="rect31"
   height="1.777"
   width="11.469"
   enable-background="new    "
   y="15.239"
   x="5.4650002" />
				<path
   style="fill:#13110c"
   inkscape:connector-curvature="0"
   id="path33"
   d="m 3.993,14.889 c 0,-0.551 0.447,-1 1,-1 h 5.242 c 0.553,0 1,0.449 1,1 v 2.717 c 0,0.553 -0.447,1 -1,1 H 4.993 c -0.553,0 -1,-0.447 -1,-1 v -2.717 z" />
				<path
   style="fill:#13110c"
   inkscape:connector-curvature="0"
   id="path35"
   d="m 3.991,12.877 c 0,-0.551 0.447,-1 1,-1 h 2.717 c 0.553,0 1,0.449 1,1 v 6.5 c 0,0.553 -0.447,1 -1,1 H 4.991 c -0.553,0 -1,-0.447 -1,-1 v -6.5 z" />
				
					<linearGradient
   gradientTransform="matrix(-4.371139e-8,1,1,4.371139e-8,158.2125,0.641)"
   y2="-150.5986"
   x2="16.9648"
   y1="-150.5986"
   x1="14.248"
   gradientUnits="userSpaceOnUse"
   id="SVGID_3_">
					<stop
   id="stop38"
   style="stop-color:#F8AA00"
   offset="0" />
					<stop
   id="stop40"
   style="stop-color:#FFF7E8"
   offset="0.3939" />
					<stop
   id="stop42"
   style="stop-color:#AB661D"
   offset="1" />
				</linearGradient>
				<rect
   style="fill:url(#SVGID_3_)"
   id="rect44"
   height="2.717"
   width="5.2420001"
   y="14.889"
   x="4.993" />
				
					<linearGradient
   gradientTransform="matrix(-4.371139e-8,1,1,4.371139e-8,158.2125,0.641)"
   y2="-150.692"
   x2="15.4863"
   y1="-152.8643"
   x1="15.4863"
   gradientUnits="userSpaceOnUse"
   id="SVGID_4_">
					<stop
   id="stop47"
   style="stop-color:#F8AA00"
   offset="0" />
					<stop
   id="stop49"
   style="stop-color:#FFF7E8"
   offset="0.3939" />
					<stop
   id="stop51"
   style="stop-color:#AB661D"
   offset="1" />
				</linearGradient>
				<rect
   style="fill:url(#SVGID_4_)"
   id="rect53"
   height="6.5"
   width="2.717"
   y="12.877"
   x="4.9910002" />
			</g>
			<g
   id="g55">
				<g
   id="g57">
					<path
   style="fill:#14120d"
   inkscape:connector-curvature="0"
   d="m 17.069,32.008 c -1.393,0 -2.523,-1.133 -2.523,-2.525 V 2.531 c 0,-1.39 1.129,-2.522 2.523,-2.522 H 29.477 C 30.868,0.009 32,1.141 32,2.531 v 26.954 c 0,1.391 -1.131,2.523 -2.523,2.523 H 17.069 l 0,0 z"
   id="path4760_4_" />
					
						<linearGradient
   gradientTransform="matrix(1,0,0,-1,-839.7002,-1421.0889)"
   y2="-1436.8975"
   x2="870.64398"
   y1="-1436.8975"
   x1="855.30219"
   gradientUnits="userSpaceOnUse"
   id="rect24553_1_">
						<stop
   id="stop61"
   style="stop-color:#CDE2F1"
   offset="0" />
						<stop
   id="stop63"
   style="stop-color:#C5D8E8"
   offset="0.0164" />
						<stop
   id="stop65"
   style="stop-color:#AFC2CE"
   offset="0.043" />
						<stop
   id="stop67"
   style="stop-color:#93A7B3"
   offset="0.0667" />
						<stop
   id="stop69"
   style="stop-color:#CDE2F1"
   offset="0.5455" />
						<stop
   id="stop71"
   style="stop-color:#CFE3F1"
   offset="0.5614" />
						<stop
   id="stop73"
   style="stop-color:#E4F0F7"
   offset="0.6708" />
						<stop
   id="stop75"
   style="stop-color:#F3FAFD"
   offset="0.7715" />
						<stop
   id="stop77"
   style="stop-color:#F6FBFD"
   offset="0.8545" />
						<stop
   id="stop79"
   style="stop-color:#F5FAFC"
   offset="0.8593" />
						<stop
   id="stop81"
   style="stop-color:#F0F8FB"
   offset="0.8965" />
						<stop
   id="stop83"
   style="stop-color:#EFF8FB"
   offset="1" />
					</linearGradient>
					<path
   inkscape:connector-curvature="0"
   style="fill:url(#rect24553_1_)"
   d="m 17.069,0.865 h 12.408 c 0.811,0 1.467,0.657 1.467,1.47 v 26.949 c 0,0.813 -0.656,1.469 -1.467,1.469 H 17.069 c -0.814,0 -1.467,-0.656 -1.467,-1.469 V 2.333 c 0,-0.81 0.656,-1.468 1.467,-1.468 z"
   id="rect24553_4_" />
					
						<linearGradient
   gradientTransform="translate(-842.1602,-1902.3594)"
   y2="1922.3354"
   x2="858.99908"
   y1="1922.3354"
   x1="871.69971"
   gradientUnits="userSpaceOnUse"
   id="rect24579_1_">
						<stop
   id="stop87"
   style="stop-color:#CDE2F1"
   offset="0" />
						<stop
   id="stop89"
   style="stop-color:#C5D8E8"
   offset="0.0164" />
						<stop
   id="stop91"
   style="stop-color:#AFC2CE"
   offset="0.043" />
						<stop
   id="stop93"
   style="stop-color:#93A7B3"
   offset="0.0667" />
						<stop
   id="stop95"
   style="stop-color:#CDE2F1"
   offset="0.5455" />
						<stop
   id="stop97"
   style="stop-color:#CFE3F1"
   offset="0.5614" />
						<stop
   id="stop99"
   style="stop-color:#E4F0F7"
   offset="0.6708" />
						<stop
   id="stop101"
   style="stop-color:#F3FAFD"
   offset="0.7715" />
						<stop
   id="stop103"
   style="stop-color:#F6FBFD"
   offset="0.8545" />
						<stop
   id="stop105"
   style="stop-color:#F5FAFC"
   offset="0.8593" />
						<stop
   id="stop107"
   style="stop-color:#F0F8FB"
   offset="0.8965" />
						<stop
   id="stop109"
   style="stop-color:#EFF8FB"
   offset="1" />
					</linearGradient>
					<path
   inkscape:connector-curvature="0"
   style="fill:url(#rect24579_1_)"
   d="m 18.61,10.537 h 9.326 c 0.926,0 1.674,0.75 1.674,1.677 v 15.529 c 0,0.926 -0.748,1.674 -1.674,1.674 H 18.61 c -0.926,0 -1.676,-0.748 -1.676,-1.674 v -15.53 c 0,-0.926 0.75,-1.676 1.676,-1.676 z"
   id="rect24579_4_" />
					
						<linearGradient
   gradientTransform="translate(-842.1602,-1902.3594)"
   y2="1905.8101"
   x2="859.46448"
   y1="1905.8101"
   x1="871.43597"
   gradientUnits="userSpaceOnUse"
   id="rect24583_1_">
						<stop
   id="stop113"
   style="stop-color:#CDE2F1"
   offset="0" />
						<stop
   id="stop115"
   style="stop-color:#C5D8E8"
   offset="0.0164" />
						<stop
   id="stop117"
   style="stop-color:#AFC2CE"
   offset="0.043" />
						<stop
   id="stop119"
   style="stop-color:#93A7B3"
   offset="0.0667" />
						<stop
   id="stop121"
   style="stop-color:#CDE2F1"
   offset="0.5455" />
						<stop
   id="stop123"
   style="stop-color:#CFE3F1"
   offset="0.5614" />
						<stop
   id="stop125"
   style="stop-color:#E4F0F7"
   offset="0.6708" />
						<stop
   id="stop127"
   style="stop-color:#F3FAFD"
   offset="0.7715" />
						<stop
   id="stop129"
   style="stop-color:#F6FBFD"
   offset="0.8545" />
						<stop
   id="stop131"
   style="stop-color:#F5FAFC"
   offset="0.8593" />
						<stop
   id="stop133"
   style="stop-color:#F0F8FB"
   offset="0.8965" />
						<stop
   id="stop135"
   style="stop-color:#EFF8FB"
   offset="1" />
					</linearGradient>
					<path
   inkscape:connector-curvature="0"
   style="fill:url(#rect24583_1_)"
   d="m 18.401,1.865 h 9.742 c 0.813,0 1.469,0.657 1.469,1.469 v 0.235 c 0,0.813 -0.656,1.468 -1.469,1.468 h -9.742 c -0.813,0 -1.467,-0.655 -1.467,-1.468 V 3.333 c 0,-0.81 0.656,-1.468 1.467,-1.468 z"
   id="rect24583_4_" />
					
						<linearGradient
   gradientTransform="translate(-842.1602,-1902.3594)"
   y2="1910.0952"
   x2="859.46448"
   y1="1910.0952"
   x1="871.43597"
   gradientUnits="userSpaceOnUse"
   id="rect24585_1_">
						<stop
   id="stop139"
   style="stop-color:#CDE2F1"
   offset="0" />
						<stop
   id="stop141"
   style="stop-color:#C5D8E8"
   offset="0.0164" />
						<stop
   id="stop143"
   style="stop-color:#AFC2CE"
   offset="0.043" />
						<stop
   id="stop145"
   style="stop-color:#93A7B3"
   offset="0.0667" />
						<stop
   id="stop147"
   style="stop-color:#CDE2F1"
   offset="0.5455" />
						<stop
   id="stop149"
   style="stop-color:#CFE3F1"
   offset="0.5614" />
						<stop
   id="stop151"
   style="stop-color:#E4F0F7"
   offset="0.6708" />
						<stop
   id="stop153"
   style="stop-color:#F3FAFD"
   offset="0.7715" />
						<stop
   id="stop155"
   style="stop-color:#F6FBFD"
   offset="0.8545" />
						<stop
   id="stop157"
   style="stop-color:#F5FAFC"
   offset="0.8593" />
						<stop
   id="stop159"
   style="stop-color:#F0F8FB"
   offset="0.8965" />
						<stop
   id="stop161"
   style="stop-color:#EFF8FB"
   offset="1" />
					</linearGradient>
					<path
   inkscape:connector-curvature="0"
   style="fill:url(#rect24585_1_)"
   d="m 18.401,6.151 h 9.742 c 0.813,0 1.469,0.657 1.469,1.469 v 0.233 c 0,0.813 -0.656,1.468 -1.469,1.468 h -9.742 c -0.813,0 -1.467,-0.654 -1.467,-1.468 V 7.619 c 0,-0.81 0.656,-1.468 1.467,-1.468 z"
   id="rect24585_4_" />
					<path
   style="fill:#3b5926"
   inkscape:connector-curvature="0"
   d="m 28.875,12.738 c 0,0.698 -0.566,1.269 -1.266,1.269 -0.701,0 -1.271,-0.567 -1.271,-1.267 v -0.002 c 0,-0.698 0.568,-1.266 1.27,-1.268 0.701,0 1.267,0.567 1.267,1.268 l 0,0 z"
   id="path24587_4_" />
					<path
   style="fill:#e1211f"
   inkscape:connector-curvature="0"
   d="m 28.875,16.007 c 0,0.7 -0.566,1.271 -1.266,1.271 -0.701,0 -1.271,-0.569 -1.271,-1.269 v -0.002 c 0,-0.7 0.568,-1.268 1.27,-1.268 0.702,0 1.267,0.568 1.267,1.268 l 0,0 z"
   id="path24589_4_" />
					
						<linearGradient
   gradientTransform="translate(-842.1602,-1902.3594)"
   y2="1918.3657"
   x2="870.50629"
   y1="1918.3657"
   x1="869.02777"
   gradientUnits="userSpaceOnUse"
   id="path4874_1_">
						<stop
   id="stop167"
   style="stop-color:#F399A0"
   offset="0" />
						<stop
   id="stop169"
   style="stop-color:#941917"
   offset="1" />
					</linearGradient>
					<path
   inkscape:connector-curvature="0"
   style="fill:url(#path4874_1_)"
   d="m 27.612,16.745 c -0.41,0 -0.744,-0.331 -0.744,-0.735 0,-0.412 0.332,-0.74 0.74,-0.74 0.41,0 0.738,0.33 0.738,0.738 0.002,0.407 -0.328,0.737 -0.734,0.737 l 0,0 0,0 z"
   id="path4874_4_" />
					
						<linearGradient
   gradientTransform="translate(-842.1602,-1902.3594)"
   y2="1915.0112"
   x2="870.50629"
   y1="1915.0112"
   x1="869.02777"
   gradientUnits="userSpaceOnUse"
   id="path4882_1_">
						<stop
   id="stop173"
   style="stop-color:#BAD584"
   offset="0" />
						<stop
   id="stop175"
   style="stop-color:#1C8B37"
   offset="1" />
					</linearGradient>
					<path
   inkscape:connector-curvature="0"
   style="fill:url(#path4882_1_)"
   d="m 27.612,13.39 c -0.41,0 -0.744,-0.331 -0.744,-0.737 0,-0.411 0.332,-0.739 0.74,-0.739 0.41,0 0.738,0.329 0.738,0.736 0.002,0.408 -0.328,0.74 -0.734,0.74 l 0,0 0,0 z"
   id="path4882_4_" />
				</g>
			</g>
		</g>
	</g><g
   groupmode="layer"
   label="Layer 1"
   id="layer1_2_">
		<path
   style="fill:#ffffff"
   inkscape:connector-curvature="0"
   id="path179"
   d="m 7.002,32.758 c -0.739,0 -1.42,-0.044 -2.084,-0.136 -2.068,-0.191 -5.601,-0.83 -5.647,-2.906 -0.001,-0.048 0.007,-0.162 0.015,-0.209 0.293,-1.566 2.024,-1.81 3.288,-1.988 0.182,-0.025 0.354,-0.049 0.518,-0.076 L 3.393,27.389 C 3.438,27.38 3.541,27.37 3.586,27.37 c 0.52,0 0.969,0.37 1.068,0.881 0.111,0.58 -0.268,1.15 -0.847,1.272 -0.007,0.001 -0.013,0.003 -0.021,0.004 0.381,0.067 0.832,0.137 1.371,0.21 1.154,0.083 1.934,0.118 2.643,0.118 0.754,0 1.443,-0.041 2.488,-0.103 l 0.109,-0.006 0.059,-0.012 c 1.369,-0.234 2.535,-0.433 3.346,-1.286 0.209,-0.216 0.494,-0.338 0.789,-0.338 0.096,0 0.191,0.013 0.283,0.038 0.756,0.205 1.049,0.822 1.004,1.344 -0.148,1.603 -4.197,2.937 -5.186,3.018 -1.309,0.136 -2.502,0.248 -3.69,0.248 z" />
		<path
   style="fill:#0e6581"
   inkscape:connector-curvature="0"
   id="path181"
   d="M 7.002,31.989 C 6.298,31.989 5.651,31.947 5.021,31.861 4.207,31.785 0.076,31.315 0.04,29.7 c 0,-0.022 0.001,-0.044 0.005,-0.066 0.189,-1.01 1.493,-1.191 2.643,-1.354 0.181,-0.025 0.359,-0.05 0.531,-0.078 L 3.53,28.146 c 0.02,-0.004 0.037,-0.006 0.057,-0.006 0.15,0 0.283,0.108 0.313,0.258 0.033,0.172 -0.078,0.337 -0.249,0.373 -0.104,0.021 -0.212,0.039 -0.323,0.059 l -0.067,0.012 c -0.948,0.17 -1.769,0.315 -1.932,0.563 -0.009,0.013 -0.027,0.042 -0.024,0.104 0.49,0.491 2.162,0.777 3.75,0.991 1.216,0.088 2.018,0.125 2.747,0.125 0.771,0 1.473,-0.041 2.533,-0.104 l 0.16,-0.009 0.111,-0.021 c 1.426,-0.244 2.77,-0.475 3.756,-1.511 0.061,-0.064 0.145,-0.099 0.23,-0.099 0.027,0 0.055,0.004 0.084,0.012 0.439,0.119 0.445,0.439 0.436,0.534 -0.08,0.873 -3.297,2.22 -4.48,2.317 -1.303,0.133 -2.479,0.245 -3.63,0.245 l 0,0 z" />
		<path
   style="fill:#ffffff"
   inkscape:connector-curvature="0"
   id="path183"
   d="M 7.375,30.735 C 6.263,30.735 5.244,30.622 4.576,30.424 4.544,30.415 4.513,30.403 4.482,30.39 3.382,29.903 2.207,29.293 2.174,28.211 2.145,27.212 3.039,26.75 3.693,26.412 c 0.129,-0.066 0.254,-0.131 0.373,-0.199 0.163,-0.091 0.348,-0.139 0.533,-0.139 0.356,0 0.69,0.174 0.893,0.465 0.248,0.352 0.254,0.814 0.045,1.173 0.064,0.019 0.133,0.037 0.206,0.057 0.56,0.128 1.189,0.196 1.849,0.196 1.572,0 2.658,-0.391 2.891,-0.528 0.197,-0.224 0.498,-0.36 0.809,-0.36 0.143,0 0.287,0.029 0.418,0.084 0.795,0.319 1.189,0.802 1.162,1.43 -0.045,0.97 -0.98,1.256 -1.807,1.509 -0.252,0.077 -0.484,0.146 -0.662,0.223 -0.963,0.344 -2.174,0.412 -3.028,0.412 z" />
		<path
   style="fill:#0e6581"
   inkscape:connector-curvature="0"
   id="path185"
   d="m 7.375,29.965 c -1.029,0 -1.995,-0.105 -2.583,-0.278 -1.311,-0.581 -1.835,-1.011 -1.85,-1.499 -0.016,-0.516 0.53,-0.796 1.105,-1.094 0.133,-0.067 0.266,-0.138 0.395,-0.21 0.05,-0.027 0.104,-0.04 0.156,-0.04 0.102,0 0.201,0.047 0.262,0.135 0.095,0.135 0.07,0.321 -0.057,0.426 -0.055,0.046 -0.113,0.093 -0.174,0.141 -0.128,0.102 -0.396,0.314 -0.408,0.403 0.003,0.002 0.096,0.239 1.324,0.563 0.639,0.147 1.331,0.223 2.045,0.223 1.846,0 3.244,-0.506 3.447,-0.765 0.063,-0.081 0.156,-0.125 0.252,-0.125 0.039,0 0.082,0.009 0.121,0.024 0.211,0.086 0.709,0.288 0.691,0.688 -0.02,0.424 -0.541,0.586 -1.264,0.807 -0.262,0.08 -0.535,0.163 -0.742,0.252 -0.858,0.305 -2.071,0.349 -2.72,0.349 l 0,0 z" />
		<path
   style="fill:#ffffff"
   inkscape:connector-curvature="0"
   id="path187"
   d="m 7.586,28.751 c -0.908,0 -1.796,-0.11 -2.638,-0.327 -1.015,-0.205 -3.47,-0.883 -3.545,-2.526 -0.029,-0.646 0.303,-1.528 2.052,-2.055 0.066,-0.025 0.184,-0.046 0.314,-0.046 0.48,0 0.896,0.308 1.038,0.766 0.105,0.337 0.036,0.688 -0.155,0.957 0.248,0.066 0.563,0.137 0.957,0.202 0.765,0.122 1.586,0.187 2.372,0.187 1.568,0 2.391,-0.242 2.689,-0.377 0.057,-0.218 0.182,-0.419 0.363,-0.57 0.201,-0.163 0.445,-0.249 0.693,-0.249 0.104,0 0.209,0.016 0.314,0.046 0.393,0.131 1.49,0.498 1.494,1.53 0.006,1.094 -1.143,1.491 -2.254,1.877 l -0.205,0.07 c -1.192,0.346 -2.354,0.515 -3.489,0.515 z" />
		<path
   style="fill:#0e6581"
   inkscape:connector-curvature="0"
   id="path189"
   d="M 7.586,27.982 C 6.74,27.982 5.918,27.88 5.14,27.679 3.74,27.394 2.212,26.764 2.171,25.863 2.146,25.319 2.653,24.888 3.677,24.58 c 0.03,-0.011 0.061,-0.013 0.092,-0.013 0.135,0 0.261,0.086 0.303,0.223 0.053,0.167 -0.039,0.345 -0.205,0.397 -0.59,0.192 -0.707,0.38 -0.705,0.417 0.009,0.104 0.426,0.562 2.32,0.877 0.813,0.13 1.678,0.197 2.499,0.197 1.91,0 3.068,-0.346 3.369,-0.686 0.07,-0.082 0.064,-0.132 0.063,-0.153 -0.014,-0.108 0.029,-0.217 0.111,-0.286 0.059,-0.047 0.129,-0.072 0.203,-0.072 0.033,0 0.068,0.007 0.102,0.017 0.436,0.146 0.936,0.368 0.938,0.794 0.004,0.543 -0.803,0.823 -1.736,1.146 l -0.205,0.071 c -1.095,0.316 -2.179,0.473 -3.24,0.473 l 0,0 z" />
		<path
   style="fill:#ffffff"
   inkscape:connector-curvature="0"
   id="path191"
   d="M 7.745,26.572 C 5.959,26.572 4.439,26.38 3.572,26.044 2.544,25.713 0.924,25.19 1.009,23.856 c 0.071,-1.105 1.14,-1.695 4.086,-2.253 0.047,-0.009 0.154,-0.019 0.203,-0.019 0.509,0 0.955,0.361 1.063,0.859 0.084,0.386 -0.054,0.773 -0.327,1.026 0.822,0.118 1.57,0.176 2.269,0.176 1.66,0 3.078,-0.315 4.604,-1.022 0.141,-0.065 0.299,-0.1 0.457,-0.1 0.152,0 0.299,0.031 0.439,0.091 0.77,0.353 0.93,1.016 0.836,1.479 -0.332,1.771 -4.738,2.399 -5.535,2.441 -0.467,0.026 -0.922,0.038 -1.359,0.038 z" />
		<path
   style="fill:#0e6581"
   inkscape:connector-curvature="0"
   id="path193"
   d="m 7.745,25.803 c -1.672,0 -3.127,-0.18 -3.895,-0.478 -1.303,-0.421 -2.113,-0.809 -2.074,-1.421 0.029,-0.47 0.469,-0.979 3.461,-1.546 0.021,-0.003 0.041,-0.006 0.061,-0.006 0.147,0 0.278,0.104 0.311,0.252 0.036,0.168 -0.07,0.337 -0.238,0.376 -1.598,0.383 -1.734,0.703 -1.734,0.707 0.027,0.028 0.275,0.186 0.713,0.264 1.498,0.313 2.788,0.464 3.954,0.464 1.775,0 3.295,-0.337 4.928,-1.094 0.041,-0.02 0.088,-0.028 0.133,-0.028 0.045,0 0.09,0.009 0.131,0.026 0.422,0.193 0.416,0.499 0.391,0.622 -0.172,0.918 -3.273,1.744 -4.822,1.826 -0.455,0.024 -0.895,0.036 -1.32,0.036 l 0,0 z" />
		<path
   style="fill:#ffffff"
   inkscape:connector-curvature="0"
   id="path195"
   d="m 12.709,29.303 c -0.453,0 -0.863,-0.287 -1.02,-0.712 -0.18,-0.495 0.016,-1.043 0.461,-1.309 1.926,-1.156 2.922,-2.398 2.922,-2.748 -0.002,0.001 -0.002,0.001 -0.002,0.001 -0.029,0 -0.414,-0.347 -2.029,-0.464 -0.563,-0.04 -1.006,-0.514 -1.008,-1.077 -0.006,-0.559 0.428,-1.039 0.988,-1.09 0.424,-0.039 0.828,-0.059 1.199,-0.059 3.363,0 3.857,1.682 3.914,2.405 0.18,2.226 -2.738,4.632 -5.252,5.038 -0.04,0.008 -0.132,0.015 -0.173,0.015 z" />
		<path
   style="fill:#0e6581"
   inkscape:connector-curvature="0"
   id="path197"
   d="m 12.709,28.534 c -0.133,0 -0.252,-0.083 -0.299,-0.209 -0.051,-0.145 0.004,-0.304 0.135,-0.382 1.75,-1.051 3.494,-2.66 3.277,-3.575 -0.135,-0.566 -1.104,-0.945 -2.725,-1.063 -0.166,-0.012 -0.295,-0.148 -0.297,-0.314 0,-0.166 0.125,-0.305 0.291,-0.319 0.4,-0.037 0.781,-0.056 1.129,-0.056 2.619,0 3.098,1.063 3.146,1.696 0.133,1.635 -2.279,3.842 -4.607,4.218 -0.016,0.002 -0.032,0.004 -0.05,0.004 l 0,0 z" />
		<path
   style="fill:#ffffff"
   inkscape:connector-curvature="0"
   id="path199"
   d="m 8.278,24.497 c -0.291,0 -0.566,-0.115 -0.773,-0.323 -0.383,-0.392 -0.42,-0.988 -0.094,-1.422 l 0.105,-0.138 c 1.043,-1.364 1.043,-1.364 1.031,-2.348 0.047,-2.678 0.42,-4.902 4.529,-5.219 0.02,-0.001 0.064,-0.003 0.084,-0.003 0.457,0 0.869,0.289 1.021,0.718 0.168,0.442 0.014,0.96 -0.377,1.247 -2.496,1.816 -2.268,2.548 -2.047,3.257 0.166,0.532 0.477,1.523 -0.443,2.39 -0.676,0.556 -0.912,0.695 -1.223,0.863 -0.199,0.106 -0.441,0.237 -1.176,0.77 -0.182,0.134 -0.405,0.208 -0.637,0.208 z" />
		<path
   style="fill:#e62c2a"
   inkscape:connector-curvature="0"
   id="path201"
   d="M 8.278,23.727 C 8.196,23.727 8.112,23.694 8.049,23.631 7.94,23.518 7.928,23.342 8.024,23.215 l 0.104,-0.134 c 1.203,-1.575 1.203,-1.575 1.189,-2.824 0.045,-2.513 0.334,-4.175 3.82,-4.443 0.008,0 0.016,-10e-4 0.023,-10e-4 0.133,0 0.254,0.083 0.299,0.208 0.049,0.134 0.004,0.284 -0.111,0.368 -2.938,2.139 -2.598,3.23 -2.324,4.106 0.156,0.5 0.332,1.066 -0.236,1.602 -0.627,0.512 -0.82,0.615 -1.063,0.747 -0.223,0.119 -0.498,0.269 -1.26,0.822 -0.056,0.042 -0.121,0.061 -0.187,0.061 l 0,0 z" />
		<path
   style="fill:#ffffff"
   inkscape:connector-curvature="0"
   id="path203"
   d="M 7.473,24.48 C 7.285,24.48 7.102,24.432 6.94,24.34 5.244,23.37 4.883,22.682 4.49,21.664 L 4.453,21.567 C 4.436,21.525 4.424,21.48 4.415,21.435 3.861,18.562 5.524,17.093 6.862,15.913 7.721,15.154 8.462,14.5 8.692,13.579 8.803,13.152 9.153,12.837 9.585,12.77 9.622,12.764 9.71,12.757 9.749,12.757 c 0.377,0 0.723,0.192 0.924,0.514 0.98,1.604 -0.508,3.439 -1.822,5.058 -0.482,0.595 -1.383,1.701 -1.412,2.061 -0.031,0.209 -0.092,0.972 0.918,2.365 0.299,0.42 0.266,0.993 -0.078,1.368 -0.2,0.225 -0.497,0.357 -0.806,0.357 z" />
		<path
   style="fill:#e62c2a"
   inkscape:connector-curvature="0"
   id="path205"
   d="M 7.473,23.71 C 7.42,23.71 7.364,23.697 7.315,23.669 5.74,22.769 5.518,22.19 5.207,21.386 L 5.17,21.291 c -0.471,-2.44 0.887,-3.641 2.2,-4.8 0.914,-0.808 1.777,-1.57 2.068,-2.722 0.033,-0.124 0.135,-0.217 0.262,-0.237 0.016,-0.002 0.031,-0.004 0.049,-0.004 0.109,0 0.211,0.057 0.271,0.153 0.693,1.134 -0.559,2.675 -1.768,4.164 -0.758,0.936 -1.541,1.9 -1.582,2.494 -0.047,0.291 -0.096,1.268 1.061,2.867 0.088,0.122 0.08,0.289 -0.02,0.398 -0.062,0.07 -0.15,0.106 -0.238,0.106 l 0,0 z" />
	</g>
</svg>