<?xml version="1.0" encoding="utf-8"?>
<!-- Generator: Adobe Illustrator 14.0.0, SVG Export Plug-In . SVG Version: 6.00 Build 43363)  -->
<!DOCTYPE svg PUBLIC "-//W3C//DTD SVG 1.1//EN" "http://www.w3.org/Graphics/SVG/1.1/DTD/svg11.dtd">
<svg version="1.1" id="Layer_1" xmlns="http://www.w3.org/2000/svg" xmlns:xlink="http://www.w3.org/1999/xlink" x="0px" y="0px"
	 width="32px" height="32px" viewBox="0 0 32 32" enable-background="new 0 0 32 32" xml:space="preserve">
<g>
	<path d="M29.517,32.472c0,0.552-0.447,1-1,1h-1.779c-0.553,0-1-0.448-1-1v-33.5c-0.001-0.553,0.447-1,1-1l1.779,0
		c0.552,0,1,0.447,1,1V32.472z"/>
	
		<linearGradient id="SVGID_1_" gradientUnits="userSpaceOnUse" x1="24.0557" y1="-119.0151" x2="24.0557" y2="-120.9128" gradientTransform="matrix(0 -1 -1 0 -92.3872 39.7778)">
		<stop  offset="0" style="stop-color:#3AADDA"/>
		<stop  offset="0.5" style="stop-color:#A8CDDE"/>
		<stop  offset="1" style="stop-color:#2677BC"/>
	</linearGradient>
	<rect x="26.737" y="-1.028" opacity="0.98" fill="url(#SVGID_1_)" enable-background="new    " width="1.777" height="33.5"/>
	<path d="M29.517,16.74c0,0.554-0.447,1.001-1.001,1.001H14.591c-0.553,0-0.999-0.447-1-1l0.001-1.777c-0.001-0.553,0.446-1,1-0.999
		h13.925c0.552,0,1,0.447,1,0.999V16.74z"/>
	
		<linearGradient id="SVGID_2_" gradientUnits="userSpaceOnUse" x1="23.0371" y1="-113.9404" x2="24.8145" y2="-113.9404" gradientTransform="matrix(0 -1 -1 0 -92.3872 39.7778)">
		<stop  offset="0" style="stop-color:#3AADDA"/>
		<stop  offset="0.5" style="stop-color:#A8CDDE"/>
		<stop  offset="1" style="stop-color:#2677BC"/>
	</linearGradient>
	<rect x="14.591" y="14.964" opacity="0.98" fill="url(#SVGID_2_)" enable-background="new    " width="13.925" height="1.777"/>
	<path d="M29.988,17.09c0.001,0.552-0.445,1-1,1h-5.241c-0.554,0-0.999-0.449-0.999-1v-2.716c0-0.553,0.445-1,0.999-1h5.241
		c0.555,0,1.001,0.447,1,1V17.09z"/>
	<path d="M29.99,19.102c0.001,0.552-0.447,1-0.999,1h-2.717c-0.553,0-1.001-0.448-1-1v-6.501c0-0.552,0.447-1,1-1h2.717
		c0.552,0,0.999,0.448,0.999,1V19.102z"/>
	
		<linearGradient id="SVGID_3_" gradientUnits="userSpaceOnUse" x1="22.6885" y1="-118.7544" x2="25.4043" y2="-118.7544" gradientTransform="matrix(0 -1 -1 0 -92.3872 39.7778)">
		<stop  offset="0" style="stop-color:#FAA81E"/>
		<stop  offset="0.3939" style="stop-color:#FFF3E1"/>
		<stop  offset="1" style="stop-color:#A46729"/>
	</linearGradient>
	<rect x="23.748" y="14.375" fill="url(#SVGID_3_)" width="5.24" height="2.716"/>
	
		<linearGradient id="SVGID_4_" gradientUnits="userSpaceOnUse" x1="23.9258" y1="-121.021" x2="23.9258" y2="-118.8487" gradientTransform="matrix(0 -1 -1 0 -92.3872 39.7778)">
		<stop  offset="0" style="stop-color:#FAA81E"/>
		<stop  offset="0.3939" style="stop-color:#FFF3E1"/>
		<stop  offset="1" style="stop-color:#A46729"/>
	</linearGradient>
	<rect x="26.274" y="12.601" fill="url(#SVGID_4_)" width="2.717" height="6.501"/>
</g>
<g>
	<g>
		<path d="M11.683,6.584c-0.161,0.001-0.323-0.016-0.478-0.048C9.691,6.227,8.792,4.561,9.162,2.743C9.488,1.152,10.705,0,12.055,0
			c0.159,0,0.314,0.017,0.472,0.047c1.522,0.313,2.419,1.98,2.044,3.799C14.249,5.433,13.034,6.585,11.683,6.584L11.683,6.584z"/>
		
			<ellipse transform="matrix(0.9799 0.1994 -0.1994 0.9799 0.8947 -2.2998)" fill="#F9A620" cx="11.868" cy="3.293" rx="1.493" ry="2.042"/>
		
			<linearGradient id="SVGID_5_" gradientUnits="userSpaceOnUse" x1="15.9087" y1="-0.3994" x2="16.2798" y2="-0.3994" gradientTransform="matrix(1 0 0 1 -4.2275 3.7031)">
			<stop  offset="0" style="stop-color:#FFF3DF"/>
			<stop  offset="0.5394" style="stop-color:#F9A620"/>
			<stop  offset="1" style="stop-color:#A36628"/>
		</linearGradient>
		<path fill="url(#SVGID_5_)" d="M11.721,3.928c-0.02-0.109-0.073-0.351-0.01-0.667c0.06-0.289,0.186-0.481,0.282-0.582
			c0.048,0.131,0.089,0.355,0.028,0.645C11.959,3.635,11.821,3.832,11.721,3.928L11.721,3.928z"/>
		<path d="M9.651,32c-0.259-0.001-0.517-0.006-0.771-0.015C8.713,31.995,8.455,32,8.198,32c-2.227,0-3.921-0.365-5.181-1.111
			c-0.292-0.174-0.501-0.455-0.583-0.783C1.941,28.133,0.965,24.234,0,13.509C-0.01,7.737,1.028,5.59,1.715,4.169
			c0.083-0.171,0.231-0.38,0.378-0.498c1.504-1.205,4.501-1.641,6.802-1.646c2.359,0.006,5.355,0.441,6.859,1.646
			c0.146,0.119,0.266,0.269,0.348,0.438c0.717,1.483,1.755,3.631,1.746,9.286c-0.96,10.79-1.935,14.704-2.402,16.586
			c-0.082,0.329-0.322,0.734-0.613,0.908C13.571,31.636,11.875,32,9.651,32L9.651,32z"/>
		<path fill="#F9A620" d="M14.961,4.661C13.905,3.816,11.451,3.3,8.948,3.294l0,0C8.94,3.292,8.932,3.292,8.924,3.292
			c-0.008,0-0.017,0-0.024,0.001l0.001,0C6.395,3.299,3.94,3.816,2.885,4.662C2.25,5.977,1.259,7.947,1.264,13.395
			c0.973,10.826,1.966,14.669,2.4,16.402c1.369,0.812,3.352,0.988,5.261,0.921c1.906,0.067,3.886-0.108,5.259-0.921
			c0.432-1.732,1.424-5.576,2.396-16.404C16.59,7.947,15.596,5.977,14.961,4.661z"/>
		
			<linearGradient id="SVGID_6_" gradientUnits="userSpaceOnUse" x1="6.8188" y1="13.3086" x2="19.4736" y2="13.3086" gradientTransform="matrix(1 0 0 1 -4.2275 3.7031)">
			<stop  offset="0" style="stop-color:#FFF3DF"/>
			<stop  offset="0.5394" style="stop-color:#F9A620"/>
			<stop  offset="1" style="stop-color:#A36628"/>
		</linearGradient>
		<path fill="url(#SVGID_6_)" d="M8.973,29.387c-0.322,0.006-0.546,0.01-0.773,0.011c-1.431-0.001-2.567-0.173-3.39-0.517
			c-0.506-2.082-1.361-6.072-2.219-15.606c0-4.606,0.767-6.505,1.342-7.718c0.817-0.478,2.673-0.924,4.971-0.93
			c2.332,0.007,4.189,0.451,5.006,0.93c0.596,1.265,1.344,3.18,1.336,7.837c-0.861,9.537-1.725,13.501-2.209,15.489
			c-0.824,0.343-1.961,0.516-3.39,0.516C9.648,29.397,9.197,29.394,8.973,29.387z"/>
		<path fill="#231F20" d="M8.918,16.055H8.636c-2.462,0-4.178-0.398-5.099-1.188c-0.051-0.045-0.092-0.098-0.122-0.161
			C1.953,11.648,3.323,8.28,4.269,6.545c0.066-0.121,0.18-0.208,0.31-0.24c0.198-0.053,0.796-0.206,4.345-0.209
			c3.55,0.003,4.148,0.156,4.341,0.209c0.135,0.032,0.246,0.12,0.313,0.239c0.945,1.736,2.316,5.104,0.857,8.162
			c-0.029,0.063-0.074,0.116-0.125,0.162c-0.919,0.79-2.637,1.187-5.098,1.187H8.918z"/>
		<path fill="#00ACDA" d="M13.145,6.779c-0.574-0.146-2.377-0.19-4.221-0.191C7.078,6.589,5.275,6.633,4.702,6.779
			c-0.779,1.426-2.271,4.733-0.844,7.718c1.022,0.876,3.096,1.093,5.067,1.066c1.968,0.028,4.042-0.188,5.063-1.066
			C15.418,11.511,13.925,8.204,13.145,6.779z"/>
		
			<linearGradient id="SVGID_7_" gradientUnits="userSpaceOnUse" x1="7.9839" y1="7.375" x2="18.3184" y2="7.375" gradientTransform="matrix(1 0 0 1 -4.2275 3.7031)">
			<stop  offset="0" style="stop-color:#B1D2DB"/>
			<stop  offset="1" style="stop-color:#0B7C9E"/>
		</linearGradient>
		<path fill="url(#SVGID_7_)" d="M8.93,15.073l-0.292,0.002c-2.116,0.001-3.627-0.308-4.382-0.888
			c-1.148-2.529-0.07-5.371,0.768-6.97c0.427-0.062,1.45-0.135,3.9-0.138c2.45,0.003,3.473,0.077,3.9,0.138
			c0.834,1.6,1.916,4.439,0.768,6.969c-0.756,0.581-2.267,0.889-4.381,0.89L8.93,15.073z"/>
		<g display="none">
			<path display="inline" fill="#231F20" d="M8.981,20.111c-1.059,0.001-1.917-0.73-1.918-1.626c0-0.896,0.859-1.624,1.917-1.624
				s1.917,0.729,1.917,1.625C10.897,19.381,10.038,20.112,8.981,20.111L8.981,20.111z"/>
			<path display="inline" fill="#231F20" d="M8.98,23.095c-1.075,0-1.917-0.642-1.917-1.464c0-0.82,0.844-1.464,1.918-1.464
				c1.074,0,1.916,0.644,1.916,1.464C10.897,22.454,10.055,23.095,8.98,23.095L8.98,23.095z"/>
			<path display="inline" fill="#231F20" d="M8.924,25.947c-1.074,0.001-1.918-0.644-1.918-1.464c0-0.818,0.843-1.462,1.918-1.463
				c1.074,0,1.917,0.645,1.918,1.464C10.84,25.303,9.999,25.947,8.924,25.947L8.924,25.947z"/>
			<path display="inline" fill="#231F20" d="M8.924,28.67c-1.076-0.001-1.918-0.641-1.918-1.464
				c-0.001-0.819,0.842-1.464,1.918-1.463c1.074,0,1.916,0.643,1.917,1.463C10.841,28.028,9.998,28.669,8.924,28.67L8.924,28.67z"/>
			<path display="inline" fill="#231F20" d="M12.594,20.042c-0.801,0-1.467-0.447-1.667-1.112c-0.253-0.858,0.37-1.801,1.383-2.1
				c0.209-0.061,0.42-0.093,0.636-0.095c0.799,0.003,1.467,0.448,1.664,1.11c0.129,0.437,0.037,0.908-0.246,1.312
				c-0.262,0.37-0.663,0.652-1.133,0.791C13.019,20.011,12.807,20.041,12.594,20.042L12.594,20.042z"/>
			<path display="inline" fill="#231F20" d="M12.768,22.996c-1.072,0-1.918-0.643-1.918-1.464c0-0.82,0.845-1.462,1.918-1.463
				c1.075,0.001,1.916,0.642,1.918,1.464C14.686,22.354,13.844,22.997,12.768,22.996L12.768,22.996z"/>
			<path display="inline" fill="#231F20" d="M12.711,25.851c-1.076,0-1.916-0.645-1.916-1.465s0.841-1.464,1.918-1.462
				c1.076,0,1.918,0.643,1.916,1.462C14.631,25.207,13.79,25.851,12.711,25.851L12.711,25.851z"/>
			<path display="inline" fill="#231F20" d="M12.711,28.572c-1.074,0-1.915-0.642-1.916-1.461c0.001-0.821,0.841-1.465,1.917-1.465
				c1.077,0,1.919,0.643,1.917,1.465C14.631,27.93,13.788,28.572,12.711,28.572L12.711,28.572z"/>
			<path display="inline" fill="#231F20" d="M5.375,20.218c-0.211,0-0.425-0.033-0.631-0.094c-1.015-0.298-1.634-1.241-1.382-2.101
				c0.196-0.665,0.865-1.112,1.663-1.112c0.216,0.001,0.427,0.03,0.636,0.094c0.472,0.137,0.877,0.419,1.136,0.792
				c0.282,0.402,0.371,0.877,0.245,1.308C6.846,19.771,6.176,20.218,5.375,20.218L5.375,20.218z"/>
			<path display="inline" fill="#231F20" d="M5.201,23.174c-1.076,0-1.918-0.645-1.918-1.467c0-0.819,0.842-1.461,1.918-1.46
				c1.075,0,1.918,0.642,1.919,1.461C7.119,22.529,6.276,23.174,5.201,23.174L5.201,23.174z"/>
			<path display="inline" fill="#231F20" d="M5.257,26.023c-1.072,0.001-1.915-0.641-1.915-1.462c0-0.82,0.842-1.464,1.916-1.464
				c1.075,0,1.917,0.645,1.917,1.465C7.174,25.381,6.333,26.024,5.257,26.023L5.257,26.023z"/>
			<path display="inline" fill="#231F20" d="M5.257,28.749c-1.074,0-1.916-0.644-1.916-1.463c0-0.823,0.842-1.463,1.916-1.463
				c1.075-0.001,1.917,0.64,1.917,1.463C7.175,28.106,6.333,28.748,5.257,28.749L5.257,28.749z"/>
		</g>
		<g>
			<ellipse fill="#231F20" cx="8.981" cy="18.486" rx="1.425" ry="1.136"/>
			<ellipse fill="#231F20" cx="8.981" cy="21.631" rx="1.425" ry="0.972"/>
			<path fill="#231F20" d="M10.348,24.483c0.001,0.538-0.636,0.975-1.423,0.975c-0.788-0.001-1.427-0.437-1.427-0.975
				c0-0.535,0.639-0.974,1.428-0.973C9.712,23.511,10.348,23.948,10.348,24.483z"/>
			<ellipse fill="#231F20" cx="8.923" cy="27.206" rx="1.426" ry="0.973"/>
			<path fill="#231F20" d="M14.139,17.984c0.176,0.603-0.293,1.27-1.049,1.492c-0.757,0.223-1.513-0.084-1.688-0.687
				c-0.177-0.599,0.29-1.268,1.048-1.489C13.204,17.077,13.961,17.383,14.139,17.984z"/>
			<ellipse fill="#231F20" cx="12.769" cy="21.534" rx="1.427" ry="0.973"/>
			<ellipse fill="#231F20" cx="12.711" cy="24.386" rx="1.426" ry="0.974"/>
			<path fill="#231F20" d="M14.139,27.111c0,0.535-0.641,0.969-1.428,0.969c-0.787,0.001-1.426-0.435-1.427-0.969
				c0.001-0.54,0.64-0.975,1.428-0.974C13.5,26.137,14.137,26.571,14.139,27.111z"/>
			<path fill="#231F20" d="M3.832,18.16c-0.176,0.604,0.293,1.271,1.049,1.494c0.754,0.221,1.511-0.085,1.69-0.685
				c0.176-0.602-0.293-1.271-1.049-1.494C4.767,17.253,4.01,17.56,3.832,18.16z"/>
			<ellipse fill="#231F20" cx="5.201" cy="21.708" rx="1.427" ry="0.973"/>
			<ellipse fill="#231F20" cx="5.258" cy="24.561" rx="1.427" ry="0.973"/>
			<ellipse fill="#231F20" cx="5.258" cy="27.286" rx="1.427" ry="0.973"/>
		</g>
		<g>
			
				<linearGradient id="SVGID_8_" gradientUnits="userSpaceOnUse" x1="12.2725" y1="14.7822" x2="14.145" y2="14.7822" gradientTransform="matrix(1 0 0 1 -4.2275 3.7031)">
				<stop  offset="0" style="stop-color:#B1D2DB"/>
				<stop  offset="1" style="stop-color:#0B7C9E"/>
			</linearGradient>
			<path fill="url(#SVGID_8_)" d="M8.981,19.129c-0.508,0-0.936-0.295-0.936-0.643c0-0.35,0.429-0.646,0.935-0.646
				c0.506-0.001,0.938,0.296,0.938,0.646C9.917,18.835,9.486,19.129,8.981,19.129L8.981,19.129z"/>
			
				<linearGradient id="SVGID_9_" gradientUnits="userSpaceOnUse" x1="12.2725" y1="17.9287" x2="14.145" y2="17.9287" gradientTransform="matrix(1 0 0 1 -4.2275 3.7031)">
				<stop  offset="0" style="stop-color:#B1D2DB"/>
				<stop  offset="1" style="stop-color:#0B7C9E"/>
			</linearGradient>
			<path fill="url(#SVGID_9_)" d="M8.981,22.114c-0.572,0-0.937-0.288-0.937-0.483c0-0.198,0.364-0.482,0.936-0.481
				c0.57-0.001,0.936,0.283,0.937,0.481C9.918,21.828,9.552,22.113,8.981,22.114L8.981,22.114z"/>
			
				<linearGradient id="SVGID_10_" gradientUnits="userSpaceOnUse" x1="12.2163" y1="20.7822" x2="14.0874" y2="20.7822" gradientTransform="matrix(1 0 0 1 -4.2275 3.7031)">
				<stop  offset="0" style="stop-color:#B1D2DB"/>
				<stop  offset="1" style="stop-color:#0B7C9E"/>
			</linearGradient>
			<path fill="url(#SVGID_10_)" d="M8.925,24.968c-0.572-0.001-0.936-0.287-0.936-0.484c0-0.198,0.365-0.479,0.935-0.48
				c0.571,0.001,0.936,0.283,0.936,0.481C9.861,24.681,9.495,24.967,8.925,24.968L8.925,24.968z"/>
			
				<linearGradient id="SVGID_11_" gradientUnits="userSpaceOnUse" x1="12.2168" y1="23.5039" x2="14.0864" y2="23.5039" gradientTransform="matrix(1 0 0 1 -4.2275 3.7031)">
				<stop  offset="0" style="stop-color:#B1D2DB"/>
				<stop  offset="1" style="stop-color:#0B7C9E"/>
			</linearGradient>
			<path fill="url(#SVGID_11_)" d="M8.925,27.688c-0.572,0-0.936-0.283-0.936-0.481c-0.001-0.197,0.364-0.479,0.934-0.479
				c0.572,0,0.937,0.283,0.936,0.479C9.86,27.405,9.496,27.688,8.925,27.688L8.925,27.688z"/>
			
				<linearGradient id="SVGID_12_" gradientUnits="userSpaceOnUse" x1="16.0815" y1="14.6865" x2="17.9111" y2="14.6865" gradientTransform="matrix(1 0 0 1 -4.2275 3.7031)">
				<stop  offset="0" style="stop-color:#B1D2DB"/>
				<stop  offset="1" style="stop-color:#0B7C9E"/>
			</linearGradient>
			<path fill="url(#SVGID_12_)" d="M12.593,19.059c-0.36,0-0.651-0.161-0.722-0.407c-0.099-0.333,0.229-0.735,0.715-0.879
				c0.119-0.035,0.242-0.055,0.36-0.053c0.36,0.001,0.649,0.164,0.72,0.404c0.058,0.194-0.041,0.377-0.104,0.467
				c-0.133,0.188-0.357,0.339-0.613,0.417C12.833,19.039,12.711,19.057,12.593,19.059L12.593,19.059z"/>
			
				<linearGradient id="SVGID_13_" gradientUnits="userSpaceOnUse" x1="16.062" y1="17.8311" x2="17.9326" y2="17.8311" gradientTransform="matrix(1 0 0 1 -4.2275 3.7031)">
				<stop  offset="0" style="stop-color:#B1D2DB"/>
				<stop  offset="1" style="stop-color:#0B7C9E"/>
			</linearGradient>
			<path fill="url(#SVGID_13_)" d="M12.768,22.017c-0.57-0.001-0.934-0.286-0.934-0.483c0-0.196,0.363-0.481,0.934-0.481
				c0.572,0.001,0.936,0.286,0.938,0.482C13.704,21.73,13.341,22.016,12.768,22.017L12.768,22.017z"/>
			
				<linearGradient id="SVGID_14_" gradientUnits="userSpaceOnUse" x1="16.0024" y1="20.6836" x2="17.874" y2="20.6836" gradientTransform="matrix(1 0 0 1 -4.2275 3.7031)">
				<stop  offset="0" style="stop-color:#B1D2DB"/>
				<stop  offset="1" style="stop-color:#0B7C9E"/>
			</linearGradient>
			<path fill="url(#SVGID_14_)" d="M12.711,24.869c-0.57,0.001-0.936-0.286-0.937-0.483c0-0.195,0.366-0.48,0.937-0.481
				c0.571,0,0.936,0.286,0.936,0.482C13.647,24.582,13.284,24.87,12.711,24.869L12.711,24.869z"/>
			
				<linearGradient id="SVGID_15_" gradientUnits="userSpaceOnUse" x1="16.0034" y1="23.4082" x2="17.874" y2="23.4082" gradientTransform="matrix(1 0 0 1 -4.2275 3.7031)">
				<stop  offset="0" style="stop-color:#B1D2DB"/>
				<stop  offset="1" style="stop-color:#0B7C9E"/>
			</linearGradient>
			<path fill="url(#SVGID_15_)" d="M12.711,27.592c-0.571,0-0.936-0.283-0.936-0.48c0-0.198,0.364-0.482,0.936-0.481
				c0.572,0,0.936,0.284,0.936,0.48C13.647,27.308,13.282,27.591,12.711,27.592L12.711,27.592z"/>
			
				<linearGradient id="SVGID_16_" gradientUnits="userSpaceOnUse" x1="8.5142" y1="14.8618" x2="10.3433" y2="14.8618" gradientTransform="matrix(1 0 0 1 -4.2275 3.7031)">
				<stop  offset="0" style="stop-color:#B1D2DB"/>
				<stop  offset="1" style="stop-color:#0B7C9E"/>
			</linearGradient>
			<path fill="url(#SVGID_16_)" d="M5.375,19.234c-0.117,0-0.236-0.019-0.355-0.053c-0.487-0.145-0.813-0.548-0.715-0.883
				c0.07-0.243,0.361-0.403,0.72-0.404c0.12,0,0.241,0.019,0.359,0.051c0.256,0.078,0.478,0.229,0.609,0.415
				c0.065,0.092,0.163,0.273,0.106,0.47C6.027,19.072,5.736,19.234,5.375,19.234L5.375,19.234z"/>
			
				<linearGradient id="SVGID_17_" gradientUnits="userSpaceOnUse" x1="8.4922" y1="18.0059" x2="10.3647" y2="18.0059" gradientTransform="matrix(1 0 0 1 -4.2275 3.7031)">
				<stop  offset="0" style="stop-color:#B1D2DB"/>
				<stop  offset="1" style="stop-color:#0B7C9E"/>
			</linearGradient>
			<path fill="url(#SVGID_17_)" d="M5.201,22.189c-0.57,0-0.936-0.285-0.936-0.481c0-0.198,0.366-0.48,0.936-0.48
				c0.573,0.001,0.936,0.283,0.937,0.48C6.136,21.904,5.773,22.189,5.201,22.189L5.201,22.189z"/>
			
				<linearGradient id="SVGID_18_" gradientUnits="userSpaceOnUse" x1="8.5498" y1="20.8594" x2="10.4219" y2="20.8594" gradientTransform="matrix(1 0 0 1 -4.2275 3.7031)">
				<stop  offset="0" style="stop-color:#B1D2DB"/>
				<stop  offset="1" style="stop-color:#0B7C9E"/>
			</linearGradient>
			<path fill="url(#SVGID_18_)" d="M5.258,25.045c-0.572,0-0.935-0.286-0.936-0.484c0-0.198,0.363-0.48,0.935-0.479
				c0.572,0,0.938,0.282,0.938,0.479C6.194,24.757,5.829,25.043,5.258,25.045L5.258,25.045z"/>
			
				<linearGradient id="SVGID_19_" gradientUnits="userSpaceOnUse" x1="8.5488" y1="23.583" x2="10.4214" y2="23.583" gradientTransform="matrix(1 0 0 1 -4.2275 3.7031)">
				<stop  offset="0" style="stop-color:#B1D2DB"/>
				<stop  offset="1" style="stop-color:#0B7C9E"/>
			</linearGradient>
			<path fill="url(#SVGID_19_)" d="M5.256,27.769c-0.57,0-0.935-0.288-0.935-0.483c0-0.199,0.364-0.481,0.936-0.481
				c0.572,0.001,0.937,0.282,0.937,0.481C6.194,27.48,5.83,27.77,5.256,27.769L5.256,27.769z"/>
		</g>
	</g>
</g>
</svg>
