<?xml version="1.0" encoding="UTF-8" standalone="no"?>
<!-- Generator: Adobe Illustrator 14.0.0, SVG Export Plug-In . SVG Version: 6.00 Build 43363)  -->

<svg
   xmlns:dc="http://purl.org/dc/elements/1.1/"
   xmlns:cc="http://creativecommons.org/ns#"
   xmlns:rdf="http://www.w3.org/1999/02/22-rdf-syntax-ns#"
   xmlns:svg="http://www.w3.org/2000/svg"
   xmlns="http://www.w3.org/2000/svg"
   xmlns:xlink="http://www.w3.org/1999/xlink"
   xmlns:sodipodi="http://sodipodi.sourceforge.net/DTD/sodipodi-0.dtd"
   xmlns:inkscape="http://www.inkscape.org/namespaces/inkscape"
   version="1.1"
   id="Layer_1"
   x="0px"
   y="0px"
   width="32px"
   height="32px"
   viewBox="0 0 32 32"
   enable-background="new 0 0 32 32"
   xml:space="preserve"
   inkscape:version="0.47pre4 "
   sodipodi:docname="sent.svg"><metadata
   id="metadata69"><rdf:RDF><cc:Work
       rdf:about=""><dc:format>image/svg+xml</dc:format><dc:type
         rdf:resource="http://purl.org/dc/dcmitype/StillImage" /></cc:Work></rdf:RDF></metadata><defs
   id="defs67"><inkscape:perspective
   sodipodi:type="inkscape:persp3d"
   inkscape:vp_x="0 : 16 : 1"
   inkscape:vp_y="0 : 1000 : 0"
   inkscape:vp_z="32 : 16 : 1"
   inkscape:persp3d-origin="16 : 10.666667 : 1"
   id="perspective71" />
	
	
<linearGradient
   inkscape:collect="always"
   xlink:href="#SVGID_5_"
   id="linearGradient2910"
   gradientUnits="userSpaceOnUse"
   gradientTransform="matrix(0,-1,1,0,-27.2168,73.7637)"
   x1="43.3447"
   y1="43.214802"
   x2="56.714802"
   y2="43.214802" />
		
		
		
			<linearGradient
   id="SVGID_5_"
   gradientUnits="userSpaceOnUse"
   x1="43.3447"
   y1="43.214802"
   x2="56.714802"
   y2="43.214802"
   gradientTransform="matrix(0,-1,1,0,-27.2168,73.7637)">
			<stop
   offset="0"
   style="stop-color:#AED58A"
   id="stop59" />
			<stop
   offset="1"
   style="stop-color:#1E9046"
   id="stop61" />
		</linearGradient>
		
	<linearGradient
   inkscape:collect="always"
   xlink:href="#SVGID_1_"
   id="linearGradient2918"
   gradientUnits="userSpaceOnUse"
   x1="15.9995"
   y1="1.3329999"
   x2="15.9995"
   y2="6.8330002" /><linearGradient
   inkscape:collect="always"
   xlink:href="#SVGID_2_"
   id="linearGradient2920"
   gradientUnits="userSpaceOnUse"
   x1="15.9995"
   y1="8.3129997"
   x2="15.9995"
   y2="20.6257" /><linearGradient
   inkscape:collect="always"
   xlink:href="#SVGID_3_"
   id="linearGradient2922"
   gradientUnits="userSpaceOnUse"
   x1="10.562"
   y1="10.6724"
   x2="1.6224999"
   y2="10.6724" /><linearGradient
   inkscape:collect="always"
   xlink:href="#SVGID_4_"
   id="linearGradient2924"
   gradientUnits="userSpaceOnUse"
   gradientTransform="matrix(-1,0,0,1,90.1914,0)"
   x1="68.920898"
   y1="10.6724"
   x2="59.9814"
   y2="10.6724" />
		
		
		
		
		
		<linearGradient
   id="SVGID_1_"
   gradientUnits="userSpaceOnUse"
   x1="15.9995"
   y1="1.3329999"
   x2="15.9995"
   y2="6.8330002">
			<stop
   offset="0"
   style="stop-color:#B3B1B3;stop-opacity:0"
   id="stop18" />
			<stop
   offset="0.9104"
   style="stop-color:#B3B1B3;stop-opacity:0.9104"
   id="stop20" />
			<stop
   offset="1"
   style="stop-color:#B3B1B3"
   id="stop22" />
		</linearGradient>
		
		<linearGradient
   id="SVGID_2_"
   gradientUnits="userSpaceOnUse"
   x1="15.9995"
   y1="8.3129997"
   x2="15.9995"
   y2="20.6257">
			<stop
   offset="0"
   style="stop-color:#B3B1B3;stop-opacity:0"
   id="stop27" />
			<stop
   offset="0.9104"
   style="stop-color:#B3B1B3;stop-opacity:0.9104"
   id="stop29" />
			<stop
   offset="1"
   style="stop-color:#B3B1B3"
   id="stop31" />
		</linearGradient>
		
		<linearGradient
   id="SVGID_3_"
   gradientUnits="userSpaceOnUse"
   x1="10.562"
   y1="10.6724"
   x2="1.6224999"
   y2="10.6724">
			<stop
   offset="0"
   style="stop-color:#B3B1B3;stop-opacity:0"
   id="stop36" />
			<stop
   offset="0.9104"
   style="stop-color:#B3B1B3;stop-opacity:0.9104"
   id="stop38" />
			<stop
   offset="1"
   style="stop-color:#B3B1B3"
   id="stop40" />
		</linearGradient>
		
		
			<linearGradient
   id="SVGID_4_"
   gradientUnits="userSpaceOnUse"
   x1="68.920898"
   y1="10.6724"
   x2="59.9814"
   y2="10.6724"
   gradientTransform="matrix(-1,0,0,1,90.1914,0)">
			<stop
   offset="0"
   style="stop-color:#B3B1B3;stop-opacity:0"
   id="stop45" />
			<stop
   offset="0.9104"
   style="stop-color:#B3B1B3;stop-opacity:0.9104"
   id="stop47" />
			<stop
   offset="1"
   style="stop-color:#B3B1B3"
   id="stop49" />
		</linearGradient>
		
	</defs><sodipodi:namedview
   pagecolor="#ffffff"
   bordercolor="#666666"
   borderopacity="1"
   objecttolerance="10"
   gridtolerance="10"
   guidetolerance="10"
   inkscape:pageopacity="0"
   inkscape:pageshadow="2"
   inkscape:window-width="640"
   inkscape:window-height="481"
   id="namedview65"
   showgrid="false"
   inkscape:zoom="7.375"
   inkscape:cx="16"
   inkscape:cy="16"
   inkscape:window-x="0"
   inkscape:window-y="0"
   inkscape:window-maximized="0"
   inkscape:current-layer="Layer_1" />
<path
   d="M 1,22 C 0.448,22 0,21.553 0,21 V 1 C 0,0.448 0.448,0 1,0 h 30 c 0.553,0 1,0.448 1,1 v 20 c 0,0.553 -0.447,1 -1,1 H 1 z"
   id="path7" /><rect
   x="1"
   y="1"
   width="30"
   height="20"
   id="rect9"
   style="fill:#ffffff" /><line
   x1="1"
   y1="21"
   x2="12.563"
   y2="8.7089996"
   id="line11"
   style="fill:none;stroke:#000000" /><line
   x1="31"
   y1="21"
   x2="19.438"
   y2="8.7089996"
   id="line13"
   style="fill:none;stroke:#000000" /><polyline
   points="31,1 16,11 1,1   "
   id="polyline15"
   style="fill:none;stroke:#000000" /><polygon
   points="27.697,1.485 16,9.284 4.303,1.485 "
   id="polygon24"
   style="fill:url(#linearGradient2918)" /><polygon
   points="16,6.959 28.686,20.438 3.314,20.438 "
   id="polygon33"
   style="fill:url(#linearGradient2920)" /><polygon
   points="10.607,8.885 1.584,18.477 1.584,2.868 "
   id="polygon42"
   style="fill:url(#linearGradient2922)" /><polygon
   points="21.227,8.885 30.25,18.477 30.25,2.869 "
   id="polygon51"
   style="fill:url(#linearGradient2924)" /><path
   d="m 12.25,32 c -0.553,0 -1,-0.447 -1,-1 V 25.456 H 8.814 c -0.393,0 -0.748,-0.228 -0.91,-0.584 C 7.742,24.516 7.8,24.098 8.056,23.803 l 7.17,-8.295 c 0.189,-0.22 0.465,-0.346 0.755,-0.346 h 10e-4 c 0.289,0 0.564,0.125 0.755,0.344 l 7.203,8.295 c 0.257,0.295 0.317,0.714 0.155,1.07 -0.163,0.356 -0.519,0.585 -0.91,0.585 H 20.692 V 31 c 0,0.553 -0.447,1 -1,1 H 12.25 z"
   id="path55" /><path
   id="path4348-2-1_9_"
   nodetypes="cccccccc"
   d="m 23.186,24.456 -7.203,-8.294 -7.168,8.294 h 3.436 V 31 h 7.442 v -6.544 h 3.493 z"
   style="fill:#6fbd46" /><polygon
   points="10.084,23.875 15.983,17.049 21.912,23.875 19.111,23.875 19.111,30.419 12.83,30.419 12.83,23.875 "
   id="polygon63"
   style="fill:url(#linearGradient2910)" />
</svg>