<?xml version="1.0" encoding="utf-8"?>
<!-- Generator: Adobe Illustrator 15.0.0, SVG Export Plug-In . SVG Version: 6.00 Build 0)  -->
<!DOCTYPE svg PUBLIC "-//W3C//DTD SVG 1.1//EN" "http://www.w3.org/Graphics/SVG/1.1/DTD/svg11.dtd">
<svg version="1.1" id="Layer_1" xmlns="http://www.w3.org/2000/svg" xmlns:xlink="http://www.w3.org/1999/xlink" x="0px" y="0px"
	 width="32px" height="32px" viewBox="0 0 32 32" enable-background="new 0 0 32 32" xml:space="preserve">
<path display="none" fill="#E30613" d="M50.596,29.921c8.775,10.756,7.166,26.646-3.59,35.423L31.088,45.836L50.596,29.921z"/>
<path display="none" d="M40.687,38.089c4.121,5.051,3.169,12.672-2.123,16.991l-7.476-9.161L40.687,38.089z"/>
<g>
	<path d="M22.908,24c-0.082,0-0.158-0.014-0.236-0.037c-2.818-0.884-5.754-1.33-8.723-1.33c-2.969,0-5.904,0.446-8.724,1.33
		C5.148,23.986,5.07,24,4.991,24c-0.193,0-0.382-0.072-0.528-0.205C1.626,21.192,0,17.531,0,13.744C0,6.166,6.258,0,13.949,0
		s13.949,6.166,13.949,13.744c0,3.787-1.627,7.448-4.463,10.051C23.289,23.928,23.1,24,22.908,24z"/>
	<linearGradient id="SVGID_1_" gradientUnits="userSpaceOnUse" x1="13.9487" y1="0.812" x2="13.9487" y2="28.7095">
		<stop  offset="0" style="stop-color:#C0D9E3"/>
		<stop  offset="1" style="stop-color:#0079A0"/>
	</linearGradient>
	<path fill="url(#SVGID_1_)" d="M4.991,23.236c2.826-0.886,5.835-1.367,8.958-1.367s6.131,0.481,8.959,1.367
		c2.586-2.372,4.215-5.744,4.215-9.492c0-7.156-5.91-12.98-13.174-12.98S0.775,6.588,0.775,13.744
		C0.775,17.492,2.405,20.864,4.991,23.236z"/>
	<path fill="#E31718" d="M24.547,21.404c1.611-2.153,2.576-4.804,2.576-7.677c0-3.515-1.43-6.701-3.74-9.041
		C22.965,4.275,22.504,3.873,22,3.476c-0.098-0.074-0.197-0.147-0.297-0.22l-1.559,2.293c4.23,2.975,5.99,9.067,2.268,14.451
		L24.547,21.404z"/>
	<g>
		<path d="M2.17,6.688L4.981,8.54c0.157-0.253,0.324-0.5,0.502-0.74L2.669,5.948C2.494,6.188,2.328,6.436,2.17,6.688z"/>
		<path d="M3.58,12.331c0.047-0.296,0.103-0.585,0.174-0.873l-3.321-0.652c-0.066,0.29-0.121,0.581-0.171,0.874L3.58,12.331z"/>
		<path d="M7.748,5.567c0.245-0.174,0.495-0.338,0.751-0.494l-1.88-2.772C6.363,2.459,6.113,2.622,5.87,2.794L7.748,5.567z"/>
		<path d="M11.46,3.865c0.29-0.07,0.586-0.125,0.885-0.172l-0.659-3.269c-0.299,0.048-0.595,0.102-0.887,0.168L11.46,3.865z"/>
		<path d="M25.229,5.948l-2.814,1.853c0.18,0.239,0.344,0.485,0.5,0.739l2.814-1.852C25.57,6.436,25.402,6.188,25.229,5.948z"/>
		<path d="M3.754,16.36c-0.072-0.286-0.127-0.578-0.174-0.873l-3.318,0.65c0.05,0.295,0.105,0.585,0.172,0.874L3.754,16.36z"/>
		<path d="M15.552,3.693c0.297,0.046,0.595,0.102,0.887,0.171l0.657-3.273c-0.292-0.066-0.585-0.121-0.883-0.168L15.552,3.693z"/>
		<path d="M21.275,2.301l-1.879,2.772c0.26,0.156,0.508,0.32,0.75,0.494l1.883-2.773C21.783,2.622,21.533,2.458,21.275,2.301z"/>
		<path d="M24.316,15.487c-0.047,0.295-0.104,0.586-0.174,0.873l3.322,0.652c0.066-0.286,0.121-0.579,0.172-0.871L24.316,15.487z"/>
		<path d="M5.483,20.018c-0.178-0.237-0.345-0.486-0.502-0.739L2.17,21.13c0.158,0.251,0.324,0.499,0.5,0.739L5.483,20.018z"/>
		<path d="M24.143,11.458c0.07,0.287,0.127,0.578,0.174,0.873l3.32-0.651c-0.051-0.293-0.105-0.584-0.172-0.874L24.143,11.458z"/>
		<path d="M25.729,21.13l-2.814-1.854c-0.158,0.256-0.324,0.505-0.5,0.742l2.814,1.852C25.402,21.629,25.57,21.381,25.729,21.13z"/>
	</g>
	<path d="M13.949,3.132L12.86,14.511c0,0.592,0.488,1.073,1.089,1.073c0.602,0,1.089-0.48,1.089-1.073L13.949,3.132z"/>
	<path d="M8.5,22.725c-0.523,0-0.947-0.418-0.947-0.934v-3.848c0-0.516,0.424-0.932,0.947-0.932h10.898
		c0.523,0,0.947,0.416,0.947,0.932v3.848c0,0.516-0.424,0.934-0.947,0.934H8.5z"/>
	<rect x="8.5" y="17.943" fill="#FFFFFF" width="10.898" height="3.848"/>
	<g>
		<path fill="#72B62F" d="M11.451,18.6h-0.01l-0.593,0.294L10.8,18.547l0.791-0.391h0.374l-0.657,3.422H10.88L11.451,18.6z"/>
		<path fill="#72B62F" d="M12.537,21.578l0.054-0.289l0.518-0.427c0.93-0.773,1.475-1.306,1.475-1.869
			c0-0.248-0.139-0.521-0.54-0.521c-0.31,0-0.556,0.138-0.716,0.249l-0.112-0.316c0.24-0.18,0.598-0.306,0.924-0.306
			c0.652,0,0.903,0.427,0.903,0.837c0,0.727-0.673,1.358-1.501,2.032l-0.294,0.226v0.012h1.459l-0.069,0.373H12.537z"/>
		<path fill="#72B62F" d="M15.402,21.073c0.133,0.079,0.353,0.188,0.668,0.188c0.593,0,0.865-0.399,0.865-0.752
			c0-0.426-0.336-0.605-0.742-0.605h-0.177l0.069-0.342h0.177c0.325,0,0.86-0.211,0.86-0.664c0-0.263-0.161-0.427-0.492-0.427
			c-0.261,0-0.501,0.085-0.656,0.19l-0.096-0.332c0.219-0.131,0.523-0.231,0.829-0.231c0.583,0,0.886,0.343,0.886,0.737
			c0,0.447-0.367,0.773-0.77,0.884v0.011c0.379,0.09,0.578,0.41,0.578,0.773c0,0.648-0.593,1.132-1.346,1.132
			c-0.375,0-0.685-0.11-0.802-0.216L15.402,21.073z"/>
	</g>
</g>
<path fill="#FFFFFF" d="M11.665,22.712h4.583c2.186,0.171,4.341,0.583,6.432,1.238c0.078,0.023,0.154,0.037,0.236,0.037
	c0.191,0,0.381-0.072,0.527-0.205c0.651-0.598,1.23-1.257,1.749-1.954l0.044,0.028c0.174-0.24,0.342-0.488,0.5-0.739l-0.042-0.027
	c1.418-2.189,2.212-4.74,2.212-7.358c0-2.138-0.513-4.155-1.4-5.962h-2.186c-0.921,0-1.67,0.749-1.67,1.67v2.148
	c-0.229-0.118-0.483-0.191-0.758-0.191h-3.307c-0.917,0-1.662,0.747-1.662,1.664v2.121c-0.267-0.168-0.582-0.269-0.923-0.269h-3.499
	c-0.425,0-0.81,0.158-1.108,0.409V7.987c0-0.552-0.448-1-1-1H9.501c-0.552,0-1,0.448-1,1v15.147
	C9.546,22.938,10.602,22.795,11.665,22.712z"/>
<g>
	<g>
		<g>
			<path id="path7_5_" fill="#2C2624" d="M27.662,30.214c0.369,0,0.67-0.299,0.67-0.67V9.452c0-0.371-0.301-0.67-0.67-0.67h-3.35
				c-0.369,0-0.67,0.3-0.67,0.67v20.093c0,0.37,0.301,0.669,0.67,0.669H27.662L27.662,30.214z"/>
			<rect id="rect9_3_" x="24.313" y="9.452" fill="#77B833" width="3.35" height="20.093"/>
			
				<linearGradient id="rect16_1_" gradientUnits="userSpaceOnUse" x1="-1100.958" y1="-1483.1377" x2="-1098.9473" y2="-1483.1377" gradientTransform="matrix(-1 0 0 -1 -1073.9648 -1463.6396)">
				<stop  offset="0" style="stop-color:#B9D585"/>
				<stop  offset="1" style="stop-color:#1C8C37"/>
			</linearGradient>
			<rect id="rect16_2_" x="24.982" y="10.121" fill="url(#rect16_1_)" width="2.011" height="18.754"/>
		</g>
		<g>
			<path id="path20_3_" fill="#2C2624" d="M21.885,30.271c0.364,0,0.662-0.299,0.662-0.664V13.073c0-0.366-0.298-0.664-0.662-0.664
				h-3.307c-0.365,0-0.662,0.297-0.662,0.664v16.536c0,0.365,0.297,0.662,0.662,0.662H21.885L21.885,30.271z"/>
			<rect id="rect22_1_" x="18.578" y="13.073" fill="#E42221" width="3.309" height="16.536"/>
			
				<linearGradient id="rect29_2_" gradientUnits="userSpaceOnUse" x1="-1095.1895" y1="-1484.9795" x2="-1093.2041" y2="-1484.9795" gradientTransform="matrix(-1 0 0 -1 -1073.9648 -1463.6396)">
				<stop  offset="0" style="stop-color:#F3999F"/>
				<stop  offset="1" style="stop-color:#931F19"/>
			</linearGradient>
			<rect id="rect29_1_" x="19.239" y="13.733" fill="url(#rect29_2_)" width="1.985" height="15.214"/>
		</g>
		<g>
			<path id="path33_5_" fill="#2C2624" d="M15.993,30.214c0.387,0,0.698-0.291,0.698-0.651V16.575c0-0.363-0.312-0.649-0.698-0.649
				h-3.499c-0.387,0-0.7,0.286-0.7,0.649v12.987c0,0.359,0.312,0.65,0.7,0.65L15.993,30.214L15.993,30.214z"/>
			<rect id="rect35_1_" x="12.494" y="16.575" fill="#21A9D8" width="3.499" height="12.987"/>
			
				<linearGradient id="rect42_2_" gradientUnits="userSpaceOnUse" x1="-1089.2568" y1="-1486.7085" x2="-1087.1558" y2="-1486.7085" gradientTransform="matrix(-1 0 0 -1 -1073.9648 -1463.6396)">
				<stop  offset="0" style="stop-color:#BCD6E0"/>
				<stop  offset="1" style="stop-color:#047AA0"/>
			</linearGradient>
			<rect id="rect42_1_" x="13.191" y="17.225" fill="url(#rect42_2_)" width="2.101" height="11.688"/>
		</g>
		<rect id="rect68_1_" x="9.494" y="8" fill="#13110E" width="0.892" height="24"/>
		<rect id="rect70_1_" x="9.494" y="31.107" fill="#13110E" width="22.506" height="0.893"/>
	</g>
</g>
</svg>
