<?xml version="1.0" encoding="utf-8"?>
<!-- Generator: Adobe Illustrator 15.0.0, SVG Export Plug-In . SVG Version: 6.00 Build 0)  -->
<!DOCTYPE svg PUBLIC "-//W3C//DTD SVG 1.1//EN" "http://www.w3.org/Graphics/SVG/1.1/DTD/svg11.dtd">
<svg version="1.1" id="Layer_1" xmlns="http://www.w3.org/2000/svg" xmlns:xlink="http://www.w3.org/1999/xlink" x="0px" y="0px"
	 width="32px" height="32px" viewBox="0 0 32 32" enable-background="new 0 0 32 32" xml:space="preserve">
<g>
	<g>
		<g>
			<path id="path7_5_" fill="#2B2523" d="M28.78,30.056c0.401,0,0.729-0.325,0.729-0.729V7.459c0-0.403-0.327-0.73-0.729-0.73
				h-3.645c-0.403,0-0.73,0.327-0.73,0.73v21.869c0,0.402,0.327,0.728,0.73,0.728H28.78L28.78,30.056z"/>
			<rect id="rect9_3_" x="25.136" y="7.459" fill="#77B830" width="3.645" height="21.869"/>
			
				<linearGradient id="rect16_1_" gradientUnits="userSpaceOnUse" x1="-822.3564" y1="1111.0723" x2="-820.1689" y2="1111.0723" gradientTransform="matrix(-1 0 0 1 -794.3047 -1092.6797)">
				<stop  offset="0" style="stop-color:#B9D584"/>
				<stop  offset="1" style="stop-color:#198B38"/>
			</linearGradient>
			<rect id="rect16_2_" x="25.864" y="8.188" fill="url(#rect16_1_)" width="2.188" height="20.411"/>
		</g>
		<g>
			<path id="path20_3_" fill="#2B2523" d="M6.969,30.118c0.397,0,0.721-0.324,0.721-0.724V11.4c0-0.398-0.323-0.722-0.721-0.722
				H3.37c-0.398,0-0.721,0.324-0.721,0.722v17.998c0,0.396,0.323,0.721,0.721,0.721H6.969L6.969,30.118z"/>
			<rect id="rect22_1_" x="3.37" y="11.4" fill="#E41F1F" width="3.601" height="17.998"/>
			
				<linearGradient id="rect29_2_" gradientUnits="userSpaceOnUse" x1="-800.5547" y1="1113.0781" x2="-798.394" y2="1113.0781" gradientTransform="matrix(-1 0 0 1 -794.3047 -1092.6797)">
				<stop  offset="0" style="stop-color:#F2989E"/>
				<stop  offset="1" style="stop-color:#921E18"/>
			</linearGradient>
			<rect id="rect29_1_" x="4.089" y="12.119" fill="url(#rect29_2_)" width="2.161" height="16.559"/>
		</g>
		<g>
			<path id="path33_5_" fill="#2B2523" d="M17.968,30.056c0.422,0,0.762-0.316,0.762-0.709V15.212c0-0.396-0.34-0.706-0.762-0.706
				h-3.809c-0.421,0-0.762,0.311-0.762,0.706v14.135c0,0.393,0.34,0.709,0.762,0.709H17.968z"/>
			<rect id="rect35_1_" x="14.159" y="15.212" fill="#18A8D8" width="3.809" height="14.135"/>
			
				<linearGradient id="rect42_2_" gradientUnits="userSpaceOnUse" x1="-811.5098" y1="1114.959" x2="-809.2236" y2="1114.959" gradientTransform="matrix(-1 0 0 1 -794.3047 -1092.6797)">
				<stop  offset="0" style="stop-color:#BCD6E0"/>
				<stop  offset="1" style="stop-color:#00799F"/>
			</linearGradient>
			<rect id="rect42_1_" x="14.919" y="15.918" fill="url(#rect42_2_)" width="2.286" height="12.722"/>
		</g>
		<rect id="rect68_1_" fill="#13110C" width="0.971" height="32"/>
		<rect id="rect70_1_" y="31.03" fill="#13110C" width="32" height="0.97"/>
		<g>
			<polygon points="16.095,12.037 4.879,6.768 5.46,5.953 16.032,10.763 26.629,1.499 27.287,2.251 			"/>
		</g>
		<rect x="4.071" y="5.469" width="2.521" height="2.521"/>
		<rect x="14.74" y="9.865" width="2.52" height="2.521"/>
		<rect x="25.697" y="0.865" width="2.52" height="2.521"/>
	</g>
</g>
</svg>
