<?xml version="1.0" encoding="utf-8"?>
<!-- Generator: Adobe Illustrator 15.0.0, SVG Export Plug-In . SVG Version: 6.00 Build 0)  -->
<!DOCTYPE svg PUBLIC "-//W3C//DTD SVG 1.1//EN" "http://www.w3.org/Graphics/SVG/1.1/DTD/svg11.dtd">
<svg version="1.1" id="Layer_1" xmlns="http://www.w3.org/2000/svg" xmlns:xlink="http://www.w3.org/1999/xlink" x="0px" y="0px"
	 width="32px" height="32px" viewBox="0 0 32 32" enable-background="new 0 0 32 32" xml:space="preserve">
<g>
	<g>
		<path d="M0,18.009c0-2.719,0.258-3.137,0.595-3.4c1.252-0.972,2.058-0.333,2.593,0.09c0.397,0.312,0.771,0.612,1.496,0.64
			c0.409,0.015,0.804-0.14,1.11-0.438c0.343-0.328,0.537-0.789,0.537-1.269c0-0.925-0.748-1.674-1.701-1.706
			c-0.322-0.013-0.756,0.221-1.176,0.444c-0.802,0.426-2.01,1.074-3.021-0.062c-0.214-0.24-0.334-0.484-0.334-2.729
			c0-0.942,0.024-2,0.045-2.778c0.006-0.196,0.091-0.386,0.234-0.52C0.52,6.145,0.714,6.071,0.912,6.076
			C3.998,6.183,5.838,6.16,6.373,6.09c0.043-0.061,0.043-0.103,0.043-0.134c0-0.229-0.202-0.607-0.397-0.971
			C5.729,4.438,5.397,3.822,5.397,3.128c0.064-1.833,1.467-3.212,3.198-3.212c1.764,0,3.197,1.382,3.197,3.08l-0.001,0.11
			c-0.047,1.211-0.595,1.907-0.959,2.367C10.73,5.6,10.56,5.815,10.554,5.879c0,0,0.001,0.07,0.112,0.234
			c0.789,0.215,4.293,0.147,7.234-0.043c0.205-0.015,0.408,0.059,0.557,0.198c0.15,0.143,0.236,0.337,0.236,0.545v16.171
			c0,0.411-0.334,0.744-0.744,0.744H0.925c-0.392,0-0.719-0.307-0.744-0.694C0.179,23.008,0,20.244,0,18.013V18.009z"/>
		<path fill="#FAA820" d="M17.949,6.813c0,0-7.316,0.478-7.789-0.13c-1.128-1.452,0.807-1.482,0.886-3.603
			c0.048-1.338-1.099-2.42-2.452-2.42c-1.354,0-2.405,1.083-2.452,2.42c-0.044,1.314,1.792,2.635,0.63,3.667
			c-0.279,0.248-4.787,0.11-5.886,0.071c-0.049,1.709-0.104,4.762,0.101,4.992c1.033,1.159,2.354-0.682,3.668-0.634
			c1.335,0.048,2.418,1.097,2.418,2.452s-1.083,2.5-2.418,2.453c-2.122-0.079-2.153-2.013-3.604-0.885
			c-0.608,0.474-0.129,7.788-0.129,7.788h17.026V6.813z"/>
		
			<linearGradient id="SVGID_1_" gradientUnits="userSpaceOnUse" x1="516.2939" y1="-35.7188" x2="537.1318" y2="-35.7188" gradientTransform="matrix(0 1 -1 0 -26.3711 -514.8916)">
			<stop  offset="0" style="stop-color:#FFF3E0"/>
			<stop  offset="0.5394" style="stop-color:#FAA820"/>
			<stop  offset="1" style="stop-color:#A56629"/>
		</linearGradient>
		<path fill="url(#SVGID_1_)" d="M1.488,18.009c0-1.551,0.091-2.121,0.136-2.308c0.163-0.108,0.23-0.112,0.232-0.112
			c0.064,0.005,0.279,0.175,0.407,0.276c0.459,0.363,1.155,0.915,2.367,0.96c0.816,0.031,1.597-0.273,2.197-0.853
			c0.632-0.608,0.992-1.461,0.992-2.342c0-1.729-1.377-3.131-3.135-3.196c-0.725-0.022-1.366,0.318-1.932,0.62
			c-0.742,0.396-0.959,0.452-1.104,0.356c-0.024-0.19-0.061-0.674-0.061-1.833c0-0.654,0.012-1.36,0.025-1.992
			c5.161,0.158,5.413-0.065,5.657-0.284c0.415-0.368,0.636-0.834,0.636-1.348c0-0.603-0.291-1.146-0.574-1.673
			C7.112,3.871,6.887,3.448,6.887,3.126C6.918,2.15,7.67,1.402,8.597,1.402c0.924,0,1.709,0.73,1.709,1.592
			C10.28,3.776,9.979,4.15,9.664,4.549C9.385,4.9,9.066,5.305,9.066,5.879c0,0.408,0.166,0.821,0.512,1.261
			c0.222,0.287,0.682,0.876,7.629,0.465V22.24H1.624c-0.052-0.953-0.136-2.718-0.136-4.228V18.009z"/>
	</g>
</g>
<path fill="#FFFFFF" d="M18.693,23.068V11.409h-0.115c-0.916,0-1.662,0.746-1.662,1.664v2.121c-0.266-0.169-0.582-0.269-0.923-0.269
	h-3.499c-0.426,0-0.81,0.157-1.108,0.409V8c0-0.553-0.447-1-1-1H9.494c-0.553,0-1,0.447-1,1v15.813h9.455
	C18.359,23.813,18.693,23.479,18.693,23.068z"/>
<g>
	<g>
		<g>
			<path id="path7_5_" fill="#2B2523" d="M27.662,30.214c0.369,0,0.67-0.299,0.67-0.67V9.452c0-0.371-0.301-0.67-0.67-0.67h-3.35
				c-0.369,0-0.67,0.3-0.67,0.67v20.093c0,0.37,0.301,0.669,0.67,0.669H27.662L27.662,30.214z"/>
			<rect id="rect9_3_" x="24.313" y="9.452" fill="#77B830" width="3.35" height="20.093"/>
			
				<linearGradient id="rect16_1_" gradientUnits="userSpaceOnUse" x1="-1384.3174" y1="-1081.083" x2="-1382.3066" y2="-1081.083" gradientTransform="matrix(-1 0 0 -1 -1357.3242 -1061.585)">
				<stop  offset="0" style="stop-color:#B9D584"/>
				<stop  offset="1" style="stop-color:#198B38"/>
			</linearGradient>
			<rect id="rect16_2_" x="24.982" y="10.121" fill="url(#rect16_1_)" width="2.011" height="18.754"/>
		</g>
		<g>
			<path id="path20_3_" fill="#2B2523" d="M21.885,30.271c0.364,0,0.662-0.299,0.662-0.664V13.073c0-0.366-0.298-0.664-0.662-0.664
				h-3.307c-0.365,0-0.662,0.297-0.662,0.664v16.536c0,0.365,0.297,0.662,0.662,0.662H21.885L21.885,30.271z"/>
			<rect id="rect22_1_" x="18.578" y="13.073" fill="#E41F1F" width="3.309" height="16.536"/>
			
				<linearGradient id="rect29_2_" gradientUnits="userSpaceOnUse" x1="-1378.5488" y1="-1082.9253" x2="-1376.5625" y2="-1082.9253" gradientTransform="matrix(-1 0 0 -1 -1357.3242 -1061.585)">
				<stop  offset="0" style="stop-color:#F2989E"/>
				<stop  offset="1" style="stop-color:#921E18"/>
			</linearGradient>
			<rect id="rect29_1_" x="19.238" y="13.733" fill="url(#rect29_2_)" width="1.986" height="15.214"/>
		</g>
		<g>
			<path id="path33_5_" fill="#2B2523" d="M15.993,30.214c0.387,0,0.698-0.291,0.698-0.651V16.575c0-0.363-0.312-0.649-0.698-0.649
				h-3.499c-0.388,0-0.7,0.286-0.7,0.649v12.987c0,0.359,0.313,0.65,0.7,0.65L15.993,30.214L15.993,30.214z"/>
			<rect id="rect35_1_" x="12.494" y="16.575" fill="#18A8D8" width="3.499" height="12.987"/>
			
				<linearGradient id="rect42_2_" gradientUnits="userSpaceOnUse" x1="-1372.6162" y1="-1084.6538" x2="-1370.5146" y2="-1084.6538" gradientTransform="matrix(-1 0 0 -1 -1357.3242 -1061.585)">
				<stop  offset="0" style="stop-color:#BCD6E0"/>
				<stop  offset="1" style="stop-color:#00799F"/>
			</linearGradient>
			<rect id="rect42_1_" x="13.19" y="17.225" fill="url(#rect42_2_)" width="2.102" height="11.688"/>
		</g>
		<rect id="rect68_1_" x="9.494" y="8" fill="#13110C" width="0.892" height="24"/>
		<rect id="rect70_1_" x="9.494" y="31.107" fill="#13110C" width="22.506" height="0.893"/>
	</g>
</g>
</svg>
