<?xml version="1.0" encoding="utf-8"?>
<!-- Generator: Adobe Illustrator 16.0.0, SVG Export Plug-In . SVG Version: 6.00 Build 0)  -->
<!DOCTYPE svg PUBLIC "-//W3C//DTD SVG 1.1//EN" "http://www.w3.org/Graphics/SVG/1.1/DTD/svg11.dtd">
<svg version="1.1" id="Layer_1" xmlns="http://www.w3.org/2000/svg" xmlns:xlink="http://www.w3.org/1999/xlink" x="0px" y="0px"
	 width="32px" height="32px" viewBox="0 0 32 32" enable-background="new 0 0 32 32" xml:space="preserve">
<g>
	<path id="path10819_36_" fill="#030303" d="M5.149,32.141c-0.193,0-0.385-0.027-0.566-0.082C4.306,32.021,4.04,31.928,3.8,31.783
		c-2.102-1.277-2.021-4.098-1.995-5.021c0.06-2.283,0.695-5.129,1.367-8.139c0.779-3.471,1.583-7.055,1.629-10.219
		c-0.041,0-0.079,0-0.121,0c-0.446,0-0.984,0.047-1.554,0.139C3.02,8.557,2.912,8.564,2.808,8.564c-0.821,0-1.574-0.496-1.886-1.275
		c-0.395-0.992-0.877-2.412-0.92-3.566c-0.052-1.328,0.952-3.533,2.585-3.84C2.709-0.141,2.833-0.15,2.959-0.15
		c0.072,0,0.146,0.004,0.218,0.012c0.418,0.037,8.704,0.602,13.571,0.602c1.255,0,1.963-0.039,2.333-0.072
		c0.116-0.012,0.235-0.018,0.358-0.018c1.301,0,2.634,0.641,3.754,1.805c1.851,1.928,2.884,4.994,2.757,8.199
		c-0.048,1.393-0.312,2.811-0.777,4.201c-1.078,3.209-1.613,5.674-1.635,7.531c0,0.049,0,0.1,0,0.146
		c0.86-0.035,1.672-0.063,2.272-0.063h0.231c0.516,0.008,1.012,0.215,1.382,0.574c1.067,1.037,1.245,3.281,0.952,5.049
		c-0.414,2.475-1.66,4.008-3.25,4.008c-0.191,0-0.388-0.023-0.579-0.066c-1.186-0.275-3.024-0.414-5.466-0.414
		c-2.264,0-4.953,0.115-8.229,0.352c-2.069,0.238-3.904,0.389-5.096,0.408l-0.479,0.033C5.234,32.141,5.193,32.141,5.149,32.141
		L5.149,32.141z"/>
	<path id="path3443_42_" fill="#F9A720" d="M6.288,7.676c0.18-2.018-0.703-5.68-3.207-6.725C1.765,0.4,0.973,2.582,1.015,3.678
		c0.063,1.619,1.181,3.998,1.181,3.998S5.064,7.004,6.288,7.676z"/>
	<path id="path3445_42_" fill="#F9A720" d="M24.211,14.201c-4.318,12.906,0.999,11.391,1.099,12.752
		c0.153,2.164-19.671,4.623-20.854,3.982c-5.84-3.172,6.413-23.248-1.237-30.072C5.69,1.004,15.475,1.725,19.175,1.393
		C22.652,1.082,26.613,7.021,24.211,14.201z"/>
	
		<linearGradient id="path10830_1_" gradientUnits="userSpaceOnUse" x1="576.9844" y1="-804.9526" x2="576.9844" y2="-780.3272" gradientTransform="matrix(1 0 0 -1 -563.0996 -776.5811)">
		<stop  offset="0" style="stop-color:#A36728"/>
		<stop  offset="0.5394" style="stop-color:#F9A720"/>
		<stop  offset="1" style="stop-color:#FFF3E0"/>
	</linearGradient>
	<path id="path10830_38_" fill="url(#path10830_1_)" d="M5.475,30.068c-0.355,0-0.534-0.016-0.613-0.025
		c-1.89-1.174-0.779-6.135,0.297-10.934c1.343-5.998,2.843-12.686,0.3-17.043c2.983,0.188,7.763,0.473,11.151,0.473l0,0
		c1.095,0,1.989-0.031,2.657-0.09c0.058-0.006,0.113-0.01,0.174-0.01c0.946,0,2.013,0.697,2.854,1.863
		c1.377,1.914,2.353,5.441,0.954,9.623c-3.046,9.098-1.586,11.77,0.594,13.115C21.006,28.359,9.673,30.068,5.475,30.068
		L5.475,30.068z"/>
	<path id="path3447_42_" fill="#F9A720" d="M26.265,23.209c2.138,0.732,1.37,8.205-1.488,7.551c-5-1.148-18.307,0.32-19.773,0.371
		c3.146-1.164,1.939-7.074,0.388-7.977C11.078,24.283,23.331,23.092,26.265,23.209z"/>
	
		<linearGradient id="path10840_1_" gradientUnits="userSpaceOnUse" x1="580.0684" y1="-805.5005" x2="580.0684" y2="-801.8584" gradientTransform="matrix(1 0 0 -1 -563.0996 -776.5811)">
		<stop  offset="0" style="stop-color:#A36728"/>
		<stop  offset="0.5394" style="stop-color:#F9A720"/>
		<stop  offset="1" style="stop-color:#FFF3E0"/>
	</linearGradient>
	<path id="path10840_38_" fill="url(#path10840_1_)" d="M7.548,29.906c0.216-0.516,0.355-1.111,0.411-1.768
		c0.1-1.158-0.083-2.525-0.499-3.674c1.394,0.131,3.066,0.193,5.046,0.193c3.127,0,6.44-0.16,9.104-0.289
		c1.751-0.082,3.263-0.156,4.188-0.156c0.072,0,0.144,0,0.209,0.002c0.281,0.275,0.649,1.549,0.363,3.254
		c-0.242,1.451-0.825,2.314-1.249,2.314l0,0c-0.036,0-0.075-0.006-0.118-0.016c-1.357-0.311-3.294-0.465-5.927-0.465
		C15.07,29.307,10.438,29.666,7.548,29.906L7.548,29.906z"/>
	
		<linearGradient id="path10849_1_" gradientUnits="userSpaceOnUse" x1="567.5234" y1="-780.7803" x2="564.2959" y2="-780.7803" gradientTransform="matrix(1 0 0 -1 -563.0996 -776.5811)">
		<stop  offset="0" style="stop-color:#A36728"/>
		<stop  offset="0.5394" style="stop-color:#F9A720"/>
		<stop  offset="1" style="stop-color:#FFF3E0"/>
	</linearGradient>
	<path id="path10849_38_" fill="url(#path10849_1_)" d="M2.809,6.527C2.476,5.695,2.063,4.482,2.03,3.639
		C2.004,2.945,2.445,1.977,2.697,1.873c1.536,0.656,2.37,2.764,2.56,4.512C5.073,6.371,4.886,6.363,4.684,6.363
		C4.007,6.361,3.322,6.445,2.809,6.527L2.809,6.527z"/>
	<path id="path10851_4_" fill="#030303" d="M23.195,32.148c-0.297-0.02-0.573-0.164-0.752-0.402l-1.261-1.682l-2.063,0.381
		c-0.063,0.01-0.123,0.018-0.187,0.018c-0.231,0-0.46-0.08-0.645-0.23c-0.23-0.189-0.366-0.473-0.37-0.77l-0.03-2.102l-1.895-0.904
		c-0.271-0.131-0.469-0.371-0.542-0.662c-0.076-0.287-0.021-0.596,0.148-0.84l1.207-1.717l-0.999-1.844
		c-0.145-0.266-0.162-0.574-0.054-0.854c0.106-0.277,0.336-0.494,0.617-0.59l1.986-0.684l0.278-2.082
		c0.039-0.297,0.206-0.559,0.459-0.721c0.166-0.105,0.356-0.16,0.547-0.16c0.101,0,0.198,0.016,0.3,0.045l2.006,0.619l1.448-1.521
		c0.19-0.203,0.459-0.316,0.735-0.316c0.022,0,0.041,0,0.061,0.002c0.299,0.018,0.573,0.166,0.753,0.402l1.26,1.678l2.066-0.381
		c0.06-0.01,0.121-0.016,0.184-0.016c0.233,0,0.459,0.078,0.645,0.23c0.233,0.191,0.366,0.475,0.371,0.771l0.033,2.098l1.894,0.91
		c0.27,0.129,0.469,0.369,0.544,0.658c0.075,0.287,0.021,0.594-0.151,0.842l-1.209,1.713l1,1.846
		c0.143,0.264,0.161,0.572,0.053,0.854c-0.108,0.277-0.334,0.494-0.615,0.592l-1.986,0.68l-0.274,2.082
		c-0.04,0.295-0.206,0.561-0.459,0.721c-0.165,0.107-0.355,0.162-0.549,0.162c-0.099,0-0.198-0.018-0.298-0.047l-2.006-0.619
		l-1.454,1.521c-0.19,0.203-0.454,0.318-0.735,0.318C23.256,32.15,23.215,32.15,23.195,32.148z"/>
	<path id="path3251_4_" fill="#E92E2B" d="M30.687,26.371l-2.582,0.885l-0.36,2.705l-2.604-0.803l-1.883,1.975l-1.639-2.182
		l-2.686,0.494l-0.042-2.73l-2.46-1.178L18,23.307l-1.3-2.398l2.58-0.883l0.361-2.705l2.607,0.803l1.881-1.977l1.637,2.18
		l2.685-0.49l0.043,2.73l2.462,1.178l-1.568,2.232L30.687,26.371z"/>
	
		<linearGradient id="polygon10859_1_" gradientUnits="userSpaceOnUse" x1="581.0488" y1="-800.2217" x2="592.5352" y2="-800.2217" gradientTransform="matrix(1 0 0 -1 -563.0996 -776.5811)">
		<stop  offset="0" style="stop-color:#F5969B"/>
		<stop  offset="1" style="stop-color:#911A1E"/>
	</linearGradient>
	<polygon id="polygon10859_4_" fill="url(#polygon10859_1_)" points="22.052,27.838 19.93,28.229 19.897,26.07 17.949,25.141 
		19.191,23.375 18.164,21.48 20.205,20.779 20.49,18.641 22.554,19.275 24.04,17.715 25.334,19.438 27.456,19.049 27.489,21.207 
		29.435,22.139 28.193,23.902 29.222,25.801 27.181,26.498 26.896,28.637 24.834,28.002 23.344,29.566 	"/>
</g>
<path fill="#FFFFFF" d="M31.394,20.801l-1.894-0.91l-0.033-2.098c-0.005-0.297-0.138-0.58-0.371-0.771
	c-0.186-0.152-0.411-0.23-0.645-0.23c-0.063,0-0.124,0.006-0.184,0.016l-2.066,0.381l-1.26-1.678
	c-0.018-0.023-0.045-0.034-0.064-0.055c0.095-0.296,0.188-0.593,0.293-0.902c0.466-1.391,0.729-2.809,0.777-4.201
	c0.03-0.774-0.01-1.539-0.109-2.283c-0.496-0.085-1.002-0.137-1.517-0.137c-4.866,0.004-8.827,3.964-8.829,8.828
	c0,1.062,0.194,2.121,0.566,3.112c-0.07,0.057-0.138,0.118-0.2,0.186c-0.165,0.089-0.314,0.199-0.447,0.331l-6.676,6.678
	c-0.382,0.382-0.59,0.885-0.586,1.408c0,0.534,0.209,1.036,0.586,1.408l1.82,1.82c0.098-0.012,0.194-0.021,0.294-0.033
	c1.482-0.107,2.83-0.186,4.087-0.243l5.752-5.753c0.086-0.085,0.154-0.173,0.21-0.254c0.142-0.106,0.268-0.232,0.376-0.374
	c0.974,0.361,1.994,0.543,3.046,0.543c2.355,0,4.571-0.919,6.241-2.589c0.511-0.51,0.941-1.076,1.307-1.677
	C31.771,21.101,31.616,20.907,31.394,20.801z"/>
<g>
	<path id="path4948_3_" fill="#030303" d="M18.992,24.562c0.239,0.242,0.592,0.34,0.921,0.266c0.337-0.074,0.604-0.316,0.721-0.636
		l0.906-2.574c0.129-0.363,0.035-0.764-0.232-1.031l-0.7-0.701c-0.27-0.266-0.661-0.359-1.021-0.24l-2.609,0.874
		c-0.325,0.108-0.574,0.38-0.653,0.716c-0.078,0.334,0.021,0.685,0.265,0.928L18.992,24.562L18.992,24.562z"/>
	<path id="path4951_3_" fill="#030303" d="M11.909,31.665c0.39,0.39,1.015,0.388,1.403,0l6.677-6.678
		c0.188-0.187,0.296-0.438,0.292-0.701c-0.001-0.264-0.101-0.515-0.292-0.701l-2.465-2.464c-0.388-0.389-1.015-0.387-1.403,0
		l-6.676,6.678C9.257,27.987,9.15,28.237,9.152,28.5c0,0.264,0.104,0.515,0.293,0.701L11.909,31.665z"/>
	
		<linearGradient id="rect3806_1_" gradientUnits="userSpaceOnUse" x1="-245.4746" y1="-2852.2822" x2="-242.0723" y2="-2852.2822" gradientTransform="matrix(-0.7071 -0.7071 0.7071 -0.7071 1863.8223 -2167.4541)">
		<stop  offset="0" style="stop-color:#5BCAEC"/>
		<stop  offset="1" style="stop-color:#0B7B94"/>
	</linearGradient>
	<path id="rect3806_3_" fill="url(#rect3806_1_)" d="M20.583,21.264l-0.698-0.701l-2.613,0.875l2.405,2.405L20.583,21.264
		L20.583,21.264z"/>
	
		<linearGradient id="rect3809_1_" gradientUnits="userSpaceOnUse" x1="-241.9844" y1="-2858.9751" x2="-245.9553" y2="-2858.9751" gradientTransform="matrix(-0.7071 -0.7071 0.7071 -0.7071 1863.9277 -2167.5596)">
		<stop  offset="0" style="stop-color:#A56829"/>
		<stop  offset="0.5" style="stop-color:#FBA91E"/>
		<stop  offset="1" style="stop-color:#FFF4E2"/>
	</linearGradient>
	<polygon id="rect3809_3_" fill="url(#rect3809_1_)" points="19.27,24.269 16.804,21.801 10.127,28.48 12.593,30.943 	"/>
	
		<rect id="rect4968_3_" x="13.947" y="22.644" transform="matrix(0.7065 0.7078 -0.7078 0.7065 22.9816 -2.6606)" fill="#FBA91E" width="1.503" height="7.462"/>
	<path id="path4971_3_" fill="#030303" d="M18.786,22.321c1.479,1.478,3.446,2.293,5.537,2.293c4.317,0,7.831-3.513,7.829-7.828
		c0-2.093-0.813-4.058-2.292-5.537c-1.478-1.479-3.44-2.295-5.535-2.293c-4.314,0.005-7.828,3.516-7.83,7.829
		C16.495,18.877,17.312,20.845,18.786,22.321L18.786,22.321z"/>
	<path id="path3707_4_" fill="#08ACDA" d="M17.483,16.783c-0.002,3.774,3.063,6.836,6.835,6.836c3.775,0,6.838-3.063,6.838-6.835
		s-3.063-6.837-6.838-6.837C20.546,9.948,17.483,13.009,17.483,16.783z"/>
	
		<linearGradient id="path4980_1_" gradientUnits="userSpaceOnUse" x1="113.0225" y1="-1560.1123" x2="124.7031" y2="-1560.1123" gradientTransform="matrix(-0.7071 -0.7071 0.7071 -0.7071 1211.5107 -1002.3389)">
		<stop  offset="0" style="stop-color:#B1D2DB"/>
		<stop  offset="1" style="stop-color:#167D9F"/>
	</linearGradient>
	<path id="path4980_3_" fill="url(#path4980_1_)" d="M20.173,20.9c1.101,1.102,2.57,1.709,4.134,1.71
		c3.221-0.001,5.846-2.62,5.846-5.841c-0.003-1.563-0.61-3.032-1.712-4.135c-1.105-1.104-2.573-1.715-4.134-1.711
		c-3.222,0.002-5.843,2.623-5.843,5.844C18.46,18.326,19.067,19.795,20.173,20.9L20.173,20.9z"/>
	
		<radialGradient id="path3747_1_" cx="1821.7295" cy="-151.3472" r="6.0008" gradientTransform="matrix(-1.0901 0.4253 -0.5098 -1.3173 1936.0166 -960.6958)" gradientUnits="userSpaceOnUse">
		<stop  offset="0" style="stop-color:#FFFFFF"/>
		<stop  offset="0.4706" style="stop-color:#FFFFFF;stop-opacity:0.7866"/>
		<stop  offset="1" style="stop-color:#FFFFFF;stop-opacity:0"/>
	</radialGradient>
	<path id="path3747_3_" fill="url(#path3747_1_)" d="M24.703,10.945c1.861,0.13,3.643,1.18,4.652,2.941
		c1.275,2.22,0.957,4.875-0.604,6.709c-1.07-0.807-2.465-2.068-4.2-5.342c-0.918-1.729-1.774-2.971-2.568-3.824
		C22.868,11.042,23.79,10.883,24.703,10.945z"/>
</g>
</svg>
