<?xml version="1.0" encoding="utf-8"?>
<!-- Generator: Adobe Illustrator 15.0.0, SVG Export Plug-In . SVG Version: 6.00 Build 0)  -->
<!DOCTYPE svg PUBLIC "-//W3C//DTD SVG 1.1//EN" "http://www.w3.org/Graphics/SVG/1.1/DTD/svg11.dtd">
<svg version="1.1"
	 id="svg2" xmlns:dc="http://purl.org/dc/elements/1.1/" xmlns:cc="http://web.resource.org/cc/" xmlns:rdf="http://www.w3.org/1999/02/22-rdf-syntax-ns#" xmlns:svg="http://www.w3.org/2000/svg" xmlns:sodipodi="http://sodipodi.sourceforge.net/DTD/sodipodi-0.dtd" xmlns:inkscape="http://www.inkscape.org/namespaces/inkscape" inkscape:output_extension="org.inkscape.output.svg.inkscape" sodipodi:version="0.32" inkscape:version="0.45.1" sodipodi:docname="copy_text.svg" sodipodi:docbase="C:\Radix\dev\trunk\org.radixware\kernel\designer\src\common.resources\src\org\radixware\kernel\designer\resources\icons\jmledit"
	 xmlns="http://www.w3.org/2000/svg" xmlns:xlink="http://www.w3.org/1999/xlink" x="0px" y="0px" width="32px" height="32px"
	 viewBox="-3 -3 32 32" enable-background="new -3 -3 32 32" xml:space="preserve">
<sodipodi:namedview  id="base" inkscape:cy="13.636364" inkscape:cx="10" inkscape:zoom="22" showgrid="true" borderopacity="1.0" bordercolor="#000000" pagecolor="#ffffff" inkscape:window-y="48" inkscape:window-x="0" inkscape:window-height="816" inkscape:window-width="1139" inkscape:pageshadow="2" inkscape:pageopacity="0.0" inkscape:current-layer="layer1" inkscape:document-units="px">
	</sodipodi:namedview>
<g>
	<path id="path2924_4_" fill="#020202" d="M1.176,28c-0.47,0-0.85-0.379-0.85-0.85V3.09c0-0.468,0.38-0.849,0.85-0.849h12.178
		c0.229,0,0.442,0.088,0.602,0.249l5.656,5.655c0.16,0.16,0.248,0.375,0.248,0.6v18.403c0,0.473-0.379,0.852-0.85,0.852H1.176
		L1.176,28z"/>
	<polygon id="polygon2926_4_" fill="#F9A620" points="13.354,3.09 1.176,3.09 1.176,27.15 19.01,27.15 19.01,8.745 	"/>
	<polygon id="polygon2928_4_" fill="#FFFFFF" points="17.379,7.978 17.379,25.384 2.73,25.384 2.73,4.72 14.123,4.72 15.682,6.489 	
		"/>
	<path id="path2930_4_" fill="#020202" d="M13.354,9.597c-0.471,0-0.849-0.382-0.849-0.852V3.09c0-0.343,0.206-0.653,0.522-0.784
		c0.105-0.043,0.216-0.064,0.324-0.064c0.224,0,0.439,0.087,0.603,0.249l5.657,5.655c0.242,0.242,0.313,0.608,0.184,0.927
		c-0.133,0.317-0.443,0.524-0.785,0.524H13.354z"/>
	<polygon id="polygon2932_4_" fill="#00ACDA" points="13.354,8.745 19.01,8.745 13.354,3.09 	"/>
	<path id="path2924_3_" fill="#020202" d="M6.991,23.759c-0.472,0-0.849-0.379-0.849-0.848V-1.151C6.143-1.62,6.52-2,6.991-2H19.17
		c0.227,0,0.441,0.088,0.598,0.249l5.656,5.654c0.16,0.16,0.25,0.375,0.25,0.602v18.403c0,0.472-0.379,0.851-0.85,0.851H6.991
		L6.991,23.759z"/>
	<polygon id="polygon2926_3_" fill="#F9A620" points="19.17,-1.151 6.991,-1.151 6.991,22.911 24.824,22.911 24.824,4.505 	"/>
	<polygon id="polygon2928_3_" fill="#FFFFFF" points="23.193,3.735 23.193,21.143 8.545,21.143 8.545,0.479 19.938,0.479 
		21.496,2.248 	"/>
	<rect x="10.089" y="3.09" fill="#808284" width="11.638" height="0.646"/>
	<path id="path2930_3_" fill="#020202" d="M19.17,5.354c-0.471,0-0.852-0.381-0.852-0.85v-5.656c0-0.343,0.209-0.652,0.524-0.785
		C18.949-1.979,19.059-2,19.17-2c0.221,0,0.438,0.087,0.598,0.249l5.656,5.654c0.242,0.244,0.316,0.609,0.186,0.927
		s-0.442,0.522-0.784,0.522H19.17V5.354z"/>
	<polygon id="polygon2932_3_" fill="#F9A620" points="19.17,4.505 24.824,4.505 19.17,-1.151 	"/>
	<rect x="10.223" y="7.063" fill="#808284" width="11.639" height="0.647"/>
	<rect x="10.223" y="11.358" fill="#808284" width="11.639" height="0.646"/>
	<rect x="10.223" y="16.02" fill="#808284" width="11.639" height="0.646"/>
</g>
</svg>
