<?xml version="1.0" encoding="utf-8"?>
<!-- Generator: Adobe Illustrator 15.0.0, SVG Export Plug-In . SVG Version: 6.00 Build 0)  -->
<!DOCTYPE svg PUBLIC "-//W3C//DTD SVG 1.1//EN" "http://www.w3.org/Graphics/SVG/1.1/DTD/svg11.dtd">
<svg version="1.1"
	 id="svg2" xmlns:dc="http://purl.org/dc/elements/1.1/" xmlns:cc="http://web.resource.org/cc/" xmlns:rdf="http://www.w3.org/1999/02/22-rdf-syntax-ns#" xmlns:svg="http://www.w3.org/2000/svg" xmlns:sodipodi="http://sodipodi.sourceforge.net/DTD/sodipodi-0.dtd" xmlns:inkscape="http://www.inkscape.org/namespaces/inkscape" inkscape:output_extension="org.inkscape.output.svg.inkscape" sodipodi:version="0.32" inkscape:version="0.45.1" sodipodi:docname="id.svg" sodipodi:docbase="C:\Radix\dev\trunk\org.radixware\kernel\designer\src\common.resources\src\org\radixware\kernel\designer\resources\icons\jmledit"
	 xmlns="http://www.w3.org/2000/svg" xmlns:xlink="http://www.w3.org/1999/xlink" x="0px" y="0px" width="32px" height="32px"
	 viewBox="16 16 32 32" enable-background="new 16 16 32 32" xml:space="preserve">
<sodipodi:namedview  id="base" inkscape:cy="10" inkscape:cx="10" inkscape:zoom="8" showgrid="true" borderopacity="1.0" bordercolor="#000000" pagecolor="#ffffff" inkscape:window-y="%window-y" inkscape:window-x="100" inkscape:window-height="738" inkscape:window-width="1080" inkscape:pageshadow="2" inkscape:pageopacity="0.0" inkscape:current-layer="layer1" inkscape:document-units="px" inkscape:guide-bbox="true" showguides="true">
	</sodipodi:namedview>
<g>
	<path d="M36.057,47.707C35.867,47.895,35.613,48,35.35,48c-0.268,0-0.521-0.105-0.707-0.293L17.606,30.671
		c-0.154-0.153-0.254-0.354-0.284-0.569l-1.312-9.453c-0.043-0.311,0.062-0.623,0.283-0.844l3.512-3.513
		c0.221-0.222,0.534-0.325,0.844-0.282l9.453,1.313c0.215,0.03,0.416,0.13,0.569,0.282l17.034,17.033
		c0.393,0.391,0.393,1.023,0,1.414L36.057,47.707z M20.828,20.826c-0.635,0.636-0.635,1.669,0,2.305
		c0.636,0.635,1.669,0.635,2.305,0c0.636-0.636,0.636-1.669,0-2.305C22.497,20.191,21.464,20.191,20.828,20.826L20.828,20.826z"/>
	<path fill="#FFFFFF" d="M29.965,18.313L29.965,18.313L20.512,17L17,20.512l1.313,9.452L35.35,47L47,35.346L29.965,18.313z
		 M23.84,23.838c-1.026,1.026-2.691,1.026-3.719,0c-1.026-1.025-1.026-2.691,0-3.719c1.027-1.026,2.692-1.026,3.719,0
		C24.867,21.146,24.867,22.813,23.84,23.838z"/>
	
		<linearGradient id="SVGID_1_" gradientUnits="userSpaceOnUse" x1="-335.9771" y1="-182.731" x2="-346.9765" y2="-155.8573" gradientTransform="matrix(0.7071 -0.7071 -0.7071 -0.7071 152.8066 -329.3168)">
		<stop  offset="0" style="stop-color:#000000;stop-opacity:0.21"/>
		<stop  offset="1" style="stop-color:#000000;stop-opacity:0"/>
	</linearGradient>
	<path fill="url(#SVGID_1_)" d="M19.258,29.494l-1.198-8.627l0.9-0.901c-0.939,1.409-0.788,3.337,0.454,4.579
		c1.415,1.415,3.718,1.415,5.133,0s1.415-3.718,0-5.133c-1.242-1.242-3.169-1.395-4.579-0.454l0.899-0.899l8.628,1.198
		l16.091,16.089L35.35,45.586L19.258,29.494z"/>
	<path fill="#F9A61E" d="M21.146,28.555l-0.144-1.033c1.747,0.306,3.611-0.215,4.958-1.563c1.347-1.346,1.867-3.21,1.562-4.956
		l1.033,0.144l14.201,14.199l-7.408,7.412L21.146,28.555z"/>
</g>
</svg>
