<?xml version="1.0" encoding="UTF-8" standalone="no"?>
<!-- Generator: Adobe Illustrator 14.0.0, SVG Export Plug-In . SVG Version: 6.00 Build 43363)  -->

<svg
   xmlns:dc="http://purl.org/dc/elements/1.1/"
   xmlns:cc="http://creativecommons.org/ns#"
   xmlns:rdf="http://www.w3.org/1999/02/22-rdf-syntax-ns#"
   xmlns:svg="http://www.w3.org/2000/svg"
   xmlns="http://www.w3.org/2000/svg"
   xmlns:xlink="http://www.w3.org/1999/xlink"
   xmlns:sodipodi="http://sodipodi.sourceforge.net/DTD/sodipodi-0.dtd"
   xmlns:inkscape="http://www.inkscape.org/namespaces/inkscape"
   version="1.1"
   id="Layer_1"
   x="0px"
   y="0px"
   width="32px"
   height="32px"
   viewBox="0 0 32 32"
   enable-background="new 0 0 32 32"
   xml:space="preserve"
   inkscape:version="0.47pre4 "
   sodipodi:docname="open.svg"><metadata
   id="metadata39"><rdf:RDF><cc:Work
       rdf:about=""><dc:format>image/svg+xml</dc:format><dc:type
         rdf:resource="http://purl.org/dc/dcmitype/StillImage" /></cc:Work></rdf:RDF></metadata><defs
   id="defs37"><inkscape:perspective
   sodipodi:type="inkscape:persp3d"
   inkscape:vp_x="0 : 16 : 1"
   inkscape:vp_y="0 : 1000 : 0"
   inkscape:vp_z="32 : 16 : 1"
   inkscape:persp3d-origin="16 : 10.666667 : 1"
   id="perspective41" />
	
	
	
	
	
	<linearGradient
   y2="24.2676"
   x2="29.9795"
   y1="24.2676"
   x1="3.2598"
   gradientUnits="userSpaceOnUse"
   id="SVGID_1_">
		<stop
   id="stop27"
   style="stop-color:#A56829"
   offset="0" />
		<stop
   id="stop29"
   style="stop-color:#FBA91E"
   offset="0.5394" />
		<stop
   id="stop31"
   style="stop-color:#FFF4E2"
   offset="1" />
	</linearGradient>
	
<linearGradient
   inkscape:collect="always"
   xlink:href="#SVGID_1_"
   id="linearGradient2852"
   gradientUnits="userSpaceOnUse"
   x1="3.2598"
   y1="24.2676"
   x2="29.9795"
   y2="24.2676" /></defs><sodipodi:namedview
   pagecolor="#ffffff"
   bordercolor="#666666"
   borderopacity="1"
   objecttolerance="10"
   gridtolerance="10"
   guidetolerance="10"
   inkscape:pageopacity="0"
   inkscape:pageshadow="2"
   inkscape:window-width="640"
   inkscape:window-height="481"
   id="namedview35"
   showgrid="false"
   inkscape:zoom="7.375"
   inkscape:cx="16"
   inkscape:cy="16"
   inkscape:window-x="0"
   inkscape:window-y="0"
   inkscape:window-maximized="0"
   inkscape:current-layer="Layer_1" />
<path
   style="fill:#231f20"
   id="path5"
   d="m 31.756,17.525 c -0.363,-0.629 -1.073,-0.99 -1.948,-0.99 h -5.365 v -0.486 c 0,-1.711 -1.393,-3.104 -3.104,-3.104 H 12.296 L 12.178,12.726 C 11.747,11.917 11.158,10.812 9.657,10.812 H 6.628 c -1.542,0 -2.146,1.121 -2.668,2.09 L 3.937,12.945 H 3.104 C 1.393,12.945 0,14.338 0,16.049 v 12.82 C 0,30.596 1.393,32 3.104,32 h 0.326 17.908 0.674 c 1.429,0 3.046,-0.932 3.763,-2.168 l 5.862,-10.125 c 0.438,-0.758 0.481,-1.553 0.119,-2.182 z" /><path
   style="fill:#a56929"
   d="m 6.628,11.813 c -0.974,0 -1.329,0.715 -1.791,1.572 L 4.528,13.946 H 3.104 C 1.933,13.945 1,14.877 1,16.049 v 12.82 C 1,30.041 1.933,31 3.104,31 h 18.234 c 1.171,0 2.104,-0.959 2.104,-2.131 v -12.82 c 0,-1.172 -0.933,-2.104 -2.104,-2.104 H 11.703 L 11.394,13.384 C 10.931,12.527 10.628,11.812 9.656,11.812 H 8.815 7.47 6.628 z"
   nodetypes="ccccccccccccccccc"
   id="rect5504" /><g
   id="g8">
		<path
   style="fill:#030303"
   d="m 3.936,25.76 c -0.472,0 -0.849,-0.379 -0.849,-0.848 V 0.851 c 0,-0.47 0.377,-0.85 0.849,-0.85 h 12.179 c 0.227,0 0.441,0.088 0.598,0.249 l 5.656,5.655 c 0.16,0.16 0.25,0.375 0.25,0.601 v 18.403 c 0,0.472 -0.379,0.851 -0.85,0.851 H 3.936 l 0,0 z"
   id="path2924_5_" />
		<polygon
   style="fill:#03addb"
   points="3.936,24.912 21.769,24.912 21.769,6.506 16.114,0.851 3.936,0.851 "
   id="polygon2926_5_" />
		<polygon
   style="fill:#ffffff"
   points="5.489,23.144 5.489,2.48 16.882,2.48 18.44,4.249 20.138,5.737 20.138,23.144 "
   id="polygon2928_5_" />
		<rect
   style="fill:#818285"
   id="rect13"
   height="0.64600003"
   width="11.638"
   y="5.0910001"
   x="7.033" />
		<path
   style="fill:#030303"
   d="m 16.114,7.355 c -0.471,0 -0.852,-0.381 -0.852,-0.85 V 0.851 c 0,-0.344 0.209,-0.653 0.524,-0.785 0.106,-0.043 0.216,-0.064 0.327,-0.064 0.221,0 0.438,0.087 0.598,0.249 l 5.656,5.655 c 0.242,0.244 0.316,0.608 0.186,0.926 -0.131,0.318 -0.442,0.523 -0.784,0.523 l -5.655,0 0,0 z"
   id="path2930_5_" />
		<polygon
   style="fill:#03addb"
   points="16.114,0.851 16.114,6.506 21.769,6.506 "
   id="polygon2932_5_" />
		<rect
   style="fill:#818285"
   id="rect17"
   height="0.64600003"
   width="11.639"
   y="9.0649996"
   x="7.1669998" />
		<rect
   style="fill:#818285"
   id="rect19"
   height="0.64600003"
   width="11.639"
   y="13.359"
   x="7.1669998" />
		<rect
   style="fill:#818285"
   id="rect21"
   height="0.64600003"
   width="11.639"
   y="18.021"
   x="7.1669998" />
	</g><path
   id="path23"
   d="M 3.431,32 C 2.555,32 1.845,31.639 1.482,31.01 1.12,30.38 1.164,29.586 1.603,28.83 l 5.86,-10.126 c 0.715,-1.236 2.333,-2.169 3.762,-2.169 h 18.582 c 0.875,0 1.585,0.361 1.948,0.989 0.362,0.629 0.319,1.424 -0.119,2.182 L 25.775,29.833 C 25.058,31.069 23.44,32 22.013,32 H 3.431 z" /><path
   style="fill:#fba91e"
   d="m 11.226,17.535 h 18.582 c 1.066,0 1.497,0.748 0.964,1.67 L 24.91,29.332 C 24.376,30.252 23.079,31 22.013,31 H 3.431 C 2.365,31 1.934,30.252 2.468,29.332 L 8.329,19.205 c 0.533,-0.922 1.831,-1.67 2.897,-1.67 z"
   id="rect5498" /><path
   style="fill:url(#linearGradient2852)"
   id="path33"
   d="M 3.431,30 C 3.359,30 3.302,29.994 3.26,29.986 3.275,29.947 3.297,29.894 3.333,29.834 L 9.194,19.707 c 0.355,-0.613 1.322,-1.172 2.031,-1.172 h 18.582 c 0.072,0 0.129,0.008 0.172,0.016 -0.015,0.039 -0.037,0.092 -0.074,0.154 L 24.045,28.83 C 23.689,29.443 22.721,30 22.013,30 H 3.431 z" />
</svg>