<?xml version="1.0" encoding="UTF-8" standalone="no"?>
<!-- Created with Inkscape (http://www.inkscape.org/) -->
<svg
   xmlns:dc="http://purl.org/dc/elements/1.1/"
   xmlns:cc="http://web.resource.org/cc/"
   xmlns:rdf="http://www.w3.org/1999/02/22-rdf-syntax-ns#"
   xmlns:svg="http://www.w3.org/2000/svg"
   xmlns="http://www.w3.org/2000/svg"
   xmlns:xlink="http://www.w3.org/1999/xlink"
   xmlns:sodipodi="http://sodipodi.sourceforge.net/DTD/sodipodi-0.dtd"
   xmlns:inkscape="http://www.inkscape.org/namespaces/inkscape"
   width="24"
   height="24"
   id="svg2"
   sodipodi:version="0.32"
   inkscape:version="0.45.1"
   sodipodi:docbase="C:\Radix\dev\trunk\org.radixware\kernel\designer\src\common.resources\src\org\radixware\kernel\designer\resources\icons\jmledit"
   sodipodi:docname="widget_ref.svg"
   version="1.0"
   inkscape:output_extension="org.inkscape.output.svg.inkscape">
  <defs
     id="defs4">
    <linearGradient
       id="linearGradient3136">
      <stop
         style="stop-color:#989898;stop-opacity:1;"
         offset="0"
         id="stop3138" />
      <stop
         style="stop-color:#ffffff;stop-opacity:1;"
         offset="1"
         id="stop3140" />
    </linearGradient>
    <linearGradient
       inkscape:collect="always"
       xlink:href="#linearGradient3136"
       id="linearGradient3142"
       x1="12.396739"
       y1="19.97826"
       x2="12.815217"
       y2="4.543478"
       gradientUnits="userSpaceOnUse"
       gradientTransform="translate(-1.75,-0.8695652)" />
    <filter
       inkscape:collect="always"
       x="-0.13078885"
       width="1.2615777"
       y="-0.13263877"
       height="1.2652775"
       id="filter5092">
      <feGaussianBlur
         inkscape:collect="always"
         stdDeviation="1.0193001"
         id="feGaussianBlur5094" />
    </filter>
  </defs>
  <sodipodi:namedview
     id="base"
     pagecolor="#ffffff"
     bordercolor="#000000"
     borderopacity="1.0"
     inkscape:pageopacity="0.0"
     inkscape:pageshadow="2"
     inkscape:zoom="23"
     inkscape:cx="10"
     inkscape:cy="10"
     inkscape:document-units="px"
     inkscape:current-layer="layer1"
     inkscape:window-width="1070"
     inkscape:window-height="744"
     inkscape:window-x="100"
     inkscape:window-y="%window-y"
     showgrid="true" />
  <metadata
     id="metadata7">
    <rdf:RDF>
      <cc:Work
         rdf:about="">
        <dc:format>image/svg+xml</dc:format>
        <dc:type
           rdf:resource="http://purl.org/dc/dcmitype/StillImage" />
      </cc:Work>
    </rdf:RDF>
  </metadata>
  <g
     inkscape:label="Layer 1"
     inkscape:groupmode="layer"
     id="layer1">
    <rect
       style="opacity:0.8585366;fill:#494949;fill-opacity:1;stroke:#000000;stroke-width:0.5;stroke-linecap:round;stroke-linejoin:round;stroke-miterlimit:4;stroke-dasharray:none;stroke-dashoffset:0;stroke-opacity:1;filter:url(#filter5092)"
       id="rect4113"
       width="15.086957"
       height="14.869565"
       x="5.25"
       y="5.880435" />
    <rect
       style="opacity:1;fill:url(#linearGradient3142);fill-opacity:1;stroke:#000000;stroke-width:0.5;stroke-linecap:round;stroke-linejoin:round;stroke-miterlimit:4;stroke-dasharray:none;stroke-dashoffset:0;stroke-opacity:1"
       id="rect2157"
       width="15.293478"
       height="15.217392"
       x="3"
       y="3"
       ry="1.3043479" />
    <path
       transform="scale(0.8901097,1.1234571)"
       style="font-size:10.78132725px;font-style:normal;font-variant:normal;font-weight:normal;font-stretch:normal;text-align:start;line-height:125%;writing-mode:lr-tb;text-anchor:start;fill:#000000;fill-opacity:1;stroke:none;stroke-width:1px;stroke-linecap:butt;stroke-linejoin:miter;stroke-opacity:1;font-family:Bitstream Vera Sans Mono"
       d="M 8.1388944,7.5563353 C 7.6475551,7.5563405 7.2755436,7.7476106 7.0228586,8.1301461 C 6.7701694,8.512691 6.6438258,9.0794822 6.6438276,9.8305215 C 6.6438258,10.578057 6.7701694,11.144848 7.0228586,11.530897 C 7.2755436,11.913438 7.6475551,12.104708 8.1388944,12.104708 C 8.6337368,12.104708 9.0075031,11.913438 9.2601946,11.530897 C 9.5128773,11.144848 9.6392209,10.578057 9.6392256,9.8305215 C 9.6392209,9.0794822 9.5128773,8.512691 9.2601946,8.1301461 C 9.0075031,7.7476106 8.6337368,7.5563405 8.1388944,7.5563353 M 8.1388944,6.7351014 C 8.9566147,6.7351074 9.5813134,7.0000779 10.012992,7.5300137 C 10.448171,8.0599599 10.665762,8.8267951 10.665768,9.8305215 C 10.665762,10.837763 10.449925,11.606353 10.018257,12.136294 C 9.5865777,12.662726 8.9601243,12.925941 8.1388944,12.925942 C 7.3211676,12.925941 6.696469,12.662726 6.2647965,12.136294 C 5.8331214,11.606353 5.6172845,10.837763 5.6172852,9.8305215 C 5.6172845,8.8267951 5.8331214,8.0599599 6.2647965,7.5300137 C 6.696469,7.0000779 7.3211676,6.7351074 8.1388944,6.7351014 M 12.624095,4.5819945 L 13.624316,4.5819945 L 13.624316,9.3251468 L 16.166982,6.877238 L 17.34619,6.877238 L 15.024625,9.098781 L 17.709428,12.773276 L 16.524956,12.773276 L 14.345527,9.7304994 L 13.624316,10.409597 L 13.624316,12.773276 L 12.624095,12.773276 L 12.624095,4.5819945"
       id="text7034" />
  </g>
</svg>
