<?xml version="1.0" encoding="utf-8"?>
<!-- Generator: Adobe Illustrator 14.0.0, SVG Export Plug-In . SVG Version: 6.00 Build 43363)  -->
<!DOCTYPE svg PUBLIC "-//W3C//DTD SVG 1.1//EN" "http://www.w3.org/Graphics/SVG/1.1/DTD/svg11.dtd">
<svg version="1.1" id="Layer_1" xmlns="http://www.w3.org/2000/svg" xmlns:xlink="http://www.w3.org/1999/xlink" x="0px" y="0px"
	 width="32px" height="32px" viewBox="0 0 32 32" enable-background="new 0 0 32 32" xml:space="preserve">
<path id="path2924_3_" fill="#030303" d="M4.922,32c-0.586,0-1.054-0.472-1.054-1.054V1.054C3.868,0.472,4.336,0,4.922,0h15.129
	c0.281,0,0.549,0.109,0.743,0.31l7.026,7.023c0.199,0.199,0.311,0.466,0.311,0.748v22.861c0,0.586-0.471,1.058-1.056,1.058H4.922
	L4.922,32z"/>
<polygon id="polygon2926_3_" fill="#03ADDB" points="20.052,1.054 4.922,1.054 4.922,30.946 27.076,30.946 27.076,8.081 "/>
<polygon id="polygon2928_3_" fill="#FFFFFF" points="25.051,7.125 25.051,28.749 6.853,28.749 6.853,3.08 21.006,3.08 22.941,5.277 
	"/>
<g>
	<rect x="8.854" y="12.503" fill="#818285" width="14.458" height="0.805"/>
	<rect x="8.854" y="17.839" fill="#818285" width="14.458" height="0.803"/>
	<rect x="8.688" y="7.567" fill="#818285" width="14.458" height="0.802"/>
	<rect x="8.854" y="23.629" fill="#818285" width="14.458" height="0.804"/>
</g>
<path id="path2930_3_" fill="#030303" d="M20.052,9.136c-0.585,0-1.058-0.473-1.058-1.055V1.054c0-0.426,0.26-0.811,0.651-0.976
	C19.778,0.025,19.914,0,20.052,0c0.274,0,0.544,0.107,0.743,0.31l7.026,7.023c0.301,0.304,0.393,0.758,0.23,1.151
	c-0.163,0.395-0.55,0.649-0.975,0.649h-7.025V9.136z"/>
<polygon id="polygon2932_3_" fill="#03ADDB" points="20.052,8.081 27.076,8.081 20.052,1.054 "/>
</svg>
