<?xml version="1.0" encoding="utf-8"?>
<!-- Generator: Adobe Illustrator 14.0.0, SVG Export Plug-In . SVG Version: 6.00 Build 43363)  -->
<!DOCTYPE svg PUBLIC "-//W3C//DTD SVG 1.1//EN" "http://www.w3.org/Graphics/SVG/1.1/DTD/svg11.dtd">
<svg version="1.1"
	 id="svg1" inkscape:output_extension="org.inkscape.output.svg.inkscape" sodipodi:docname="load_image.svg" inkscape:version="0.45.1" sodipodi:version="0.32" sodipodi:docbase="C:\Radix\dev\trunk\org.radixware\kernel\designer\src\common.resources\src\org\radixware\kernel\designer\resources\icons\file" xmlns:dc="http://purl.org/dc/elements/1.1/" xmlns:ns="http://creativecommons.org/ns#" xmlns:sodipodi="http://sodipodi.sourceforge.net/DTD/sodipodi-0.dtd" xmlns:cc="http://web.resource.org/cc/" xmlns:inkscape="http://www.inkscape.org/namespaces/inkscape" xmlns:rdf="http://www.w3.org/1999/02/22-rdf-syntax-ns#" xmlns:svg="http://www.w3.org/2000/svg"
	 xmlns="http://www.w3.org/2000/svg" xmlns:xlink="http://www.w3.org/1999/xlink" x="0px" y="0px" width="32px" height="32px"
	 viewBox="0 0 32 32" enable-background="new 0 0 32 32" xml:space="preserve">
<sodipodi:namedview  id="base" pagecolor="#ffffff" bordercolor="#666666" borderopacity="1.0" showgrid="true" inkscape:zoom="8.0266175" inkscape:cx="18.993583" inkscape:cy="5.4058787" inkscape:window-x="0" inkscape:window-y="0" inkscape:current-layer="svg1" inkscape:pageopacity="0.0" inkscape:pageshadow="2" inkscape:window-width="1264" inkscape:window-height="988" snaptogrid="false">
	</sodipodi:namedview>
<path id="path3_8_" fill="#231F20" d="M31.756,17.523c-0.363-0.629-1.072-0.988-1.947-0.988h-5.365v-0.486
	c0-1.712-1.394-3.104-3.104-3.104h-9.043l-0.118-0.219c-0.431-0.809-1.02-1.914-2.521-1.914H6.628c-1.542,0-2.146,1.121-2.668,2.09
	l-0.022,0.043H3.104C1.393,12.943,0,14.337,0,16.049v12.819C0,30.595,1.393,32,3.104,32H3.43h17.908h0.674
	c1.43,0,3.047-0.932,3.764-2.168l5.861-10.126C32.075,18.948,32.118,18.152,31.756,17.523z"/>
<path id="rect5504_7_" fill="#A36A29" d="M6.628,11.813c-0.974,0-1.329,0.715-1.791,1.571l-0.31,0.562H3.104
	C1.934,13.943,1,14.877,1,16.049v12.819C1,30.04,1.934,31,3.104,31h18.234c1.171,0,2.104-0.96,2.104-2.132V16.049
	c0-1.172-0.933-2.104-2.104-2.104h-9.635l-0.309-0.562c-0.463-0.856-0.767-1.571-1.738-1.571H8.814H7.471H6.628z"/>
<g id="g2855_3_">
	<path id="path2924_25_" fill="#020202" d="M3.074,24c-0.438,0-0.791-0.352-0.791-0.791V0.791C2.283,0.354,2.636,0,3.074,0h11.346
		c0.213,0,0.414,0.082,0.562,0.232l5.269,5.27c0.148,0.148,0.232,0.35,0.232,0.559v17.146c0,0.441-0.354,0.791-0.791,0.791H3.074V24
		z"/>
	<polygon id="polygon2926_25_" fill="#FFFFFF" points="14.419,0.791 3.074,0.791 3.074,23.209 19.691,23.209 19.691,6.061 	"/>
	<polygon id="polygon2928_25_" fill="#FFFFFF" points="18.205,5.786 18.205,22.007 4.558,22.007 4.558,2.752 15.173,2.752 
		16.623,4.4 	"/>
	
		<linearGradient id="polygon11_1_" gradientUnits="userSpaceOnUse" x1="8.9214" y1="-110.752" x2="8.9214" y2="-91.53" gradientTransform="matrix(1 0 0 -1 2.46 -88.8398)">
		<stop  offset="0" style="stop-color:#AECFD9"/>
		<stop  offset="1" style="stop-color:#0C7C9E"/>
	</linearGradient>
	<polygon id="polygon11" fill="url(#polygon11_1_)" points="14.86,2.752 4.558,2.752 4.558,22.007 18.205,22.007 18.205,6.099 	"/>
	<path id="path13_5_" fill="#70BE46" d="M18.205,22.007v-3.683c-1.029-0.002-2.001-0.393-2.957-0.692
		c-0.993-0.313-2.194-0.26-3.188,0.058c-0.799,0.256-1.465,0.807-2.33,0.879c-0.604,0.051-1.234-0.008-1.828-0.063
		c-0.619-0.058-1.438-0.194-2.043-0.004c-0.662,0.209-0.826,0.543-1.299,0.973v2.533H18.205z"/>
	<circle id="circle15" fill="#F9A61C" cx="8.759" cy="9.689" r="2.625"/>
	<path id="path17" fill="#FFFFFF" d="M12.37,6.719c-0.239,0-0.459,0.04-0.651,0.104c0.041-0.104,0.069-0.209,0.069-0.321
		c0-0.733-0.937-1.327-2.092-1.327c-0.726,0-1.361,0.232-1.737,0.588c-0.275-0.094-0.593-0.15-0.934-0.15
		c-1.044,0-1.891,0.496-1.891,1.109c0,0.491,0.549,0.902,1.303,1.049c0.105,0.318,0.654,0.562,1.322,0.562
		c0.088,0,0.176-0.004,0.26-0.013C8.31,8.689,9.044,8.956,9.916,8.956c0.991,0,1.815-0.345,1.993-0.802
		c0.146,0.031,0.298,0.052,0.461,0.052c0.715,0,1.295-0.332,1.295-0.742S13.084,6.719,12.37,6.719z"/>
	<path id="path19_8_" fill="#FFFFFF" d="M16.555,10.128c0-0.004,0.004-0.007,0.004-0.011c0-0.467-1.069-0.844-2.383-0.844
		c-0.136,0-0.269,0.006-0.396,0.015c-0.205-0.086-0.475-0.14-0.771-0.14c-0.6,0-1.086,0.211-1.154,0.481
		c-0.149-0.026-0.309-0.045-0.477-0.045c-0.859,0-1.557,0.378-1.557,0.845c0,0.324,0.344,0.604,0.84,0.743
		c-0.002,0.013-0.008,0.024-0.008,0.037c0,0.294,0.511,0.532,1.141,0.532c0.15,0,0.293-0.016,0.424-0.04
		c0.127,0.334,0.428,0.569,0.779,0.569c0.242,0,0.457-0.115,0.611-0.295c0.268,0.086,0.594,0.139,0.949,0.139
		c0.758,0,1.389-0.229,1.567-0.539c0.089,0.015,0.177,0.023,0.271,0.023c0.618,0,1.118-0.332,1.118-0.742
		C17.512,10.486,17.096,10.18,16.555,10.128z"/>
	<path id="path2930_25_" fill="#020202" d="M14.419,6.852c-0.438,0-0.791-0.354-0.791-0.791v-5.27c0-0.319,0.193-0.609,0.488-0.73
		C14.216,0.02,14.318,0,14.419,0c0.207,0,0.41,0.08,0.562,0.232l5.269,5.27c0.227,0.227,0.295,0.566,0.174,0.861
		c-0.123,0.297-0.414,0.488-0.73,0.488H14.419L14.419,6.852z"/>
	<polygon id="polygon2932_25_" fill="#FFFFFF" points="14.419,6.061 19.691,6.061 14.419,0.791 	"/>
</g>
<path id="path19_5_" d="M3.432,32c-0.875,0-1.586-0.361-1.949-0.99c-0.361-0.629-0.317-1.424,0.121-2.181l5.86-10.125
	c0.716-1.236,2.332-2.169,3.763-2.169h18.582c0.875,0,1.584,0.361,1.947,0.988c0.362,0.629,0.319,1.425-0.119,2.183l-5.861,10.126
	C25.059,31.068,23.441,32,22.014,32H3.432z"/>
<path id="rect5498_7_" fill="#FAA81C" d="M11.227,17.535h18.582c1.065,0,1.496,0.748,0.963,1.67L24.91,29.331
	C24.376,30.252,23.079,31,22.014,31H3.432c-1.066,0-1.498-0.748-0.964-1.669l5.861-10.126C8.861,18.283,10.16,17.535,11.227,17.535z
	"/>
<linearGradient id="path29_1_" gradientUnits="userSpaceOnUse" x1="0.7998" y1="-113.1074" x2="27.5186" y2="-113.1074" gradientTransform="matrix(1 0 0 -1 2.46 -88.8398)">
	<stop  offset="0" style="stop-color:#A46929"/>
	<stop  offset="0.5394" style="stop-color:#FAA81C"/>
	<stop  offset="1" style="stop-color:#FFF3E2"/>
</linearGradient>
<path id="path29_5_" fill="url(#path29_1_)" d="M3.432,30c-0.072,0-0.13-0.006-0.172-0.014c0.016-0.041,0.037-0.092,0.073-0.153
	l5.86-10.127c0.355-0.612,1.322-1.171,2.031-1.171h18.582c0.072,0,0.129,0.007,0.172,0.015c-0.015,0.04-0.037,0.093-0.074,0.155
	L24.045,28.83C23.689,29.441,22.721,30,22.014,30H3.432z"/>
</svg>
