<?xml version="1.0" encoding="utf-8"?>
<!-- Generator: Adobe Illustrator 14.0.0, SVG Export Plug-In . SVG Version: 6.00 Build 43363)  -->
<!DOCTYPE svg PUBLIC "-//W3C//DTD SVG 1.1//EN" "http://www.w3.org/Graphics/SVG/1.1/DTD/svg11.dtd">
<svg version="1.1"
	 id="svg1" sodipodi:docname="load_image.svg" inkscape:version="0.43" sodipodi:version="0.32" sodipodi:docbase="J:\radix\dev\trunk\org.radixware\kernel\designer\src\common.resources\src\org\radixware\kernel\designer\resources\icons\file" xmlns:dc="http://purl.org/dc/elements/1.1/" xmlns:ns="http://creativecommons.org/ns#" xmlns:sodipodi="http://inkscape.sourceforge.net/DTD/sodipodi-0.dtd" xmlns:cc="http://web.resource.org/cc/" xmlns:inkscape="http://www.inkscape.org/namespaces/inkscape" xmlns:rdf="http://www.w3.org/1999/02/22-rdf-syntax-ns#" xmlns:svg="http://www.w3.org/2000/svg"
	 xmlns="http://www.w3.org/2000/svg" xmlns:xlink="http://www.w3.org/1999/xlink" x="0px" y="0px" width="32px" height="32px"
	 viewBox="0 0 32 32" enable-background="new 0 0 32 32" xml:space="preserve">
<sodipodi:namedview  id="base" pagecolor="#ffffff" bordercolor="#666666" borderopacity="1.0" showgrid="true" inkscape:zoom="8.0266175" inkscape:cx="18.993583" inkscape:cy="5.4058787" inkscape:window-x="0" inkscape:window-y="0" inkscape:current-layer="svg1" inkscape:pageopacity="0.0" inkscape:pageshadow="2" inkscape:window-width="1264" inkscape:window-height="988" snaptogrid="false">
	</sodipodi:namedview>
<g>
	<path id="path3_8_" fill="#231F20" d="M31.756,17.523c-0.363-0.629-1.072-0.988-1.947-0.988h-5.365v-0.486
		c0-1.712-1.394-3.104-3.104-3.104h-9.043l-0.118-0.219c-0.431-0.809-1.02-1.914-2.521-1.914H6.628c-1.542,0-2.146,1.121-2.668,2.09
		l-0.022,0.043H3.104C1.393,12.943,0,14.337,0,16.049v12.819C0,30.595,1.393,32,3.104,32H3.43h17.908h0.674
		c1.43,0,3.047-0.932,3.764-2.168l5.861-10.126C32.075,18.948,32.118,18.152,31.756,17.523z"/>
	<path id="rect5504_7_" fill="#A36A29" d="M6.628,11.813c-0.974,0-1.329,0.715-1.791,1.571l-0.31,0.562H3.104
		C1.934,13.943,1,14.877,1,16.049v12.819C1,30.04,1.934,31,3.104,31h18.234c1.171,0,2.104-0.96,2.104-2.132V16.049
		c0-1.172-0.933-2.104-2.104-2.104h-9.635l-0.309-0.562c-0.463-0.856-0.767-1.571-1.738-1.571H8.814H7.471H6.628z"/>
	<path id="path2924_19_" fill="#020202" d="M3.259,25.758c-0.472,0-0.849-0.379-0.849-0.846V0.85C2.41,0.38,2.787,0,3.259,0h12.179
		c0.228,0,0.441,0.088,0.599,0.25l5.655,5.654c0.16,0.16,0.25,0.375,0.25,0.602v18.403c0,0.471-0.379,0.85-0.85,0.85L3.259,25.758
		L3.259,25.758z"/>
	<polygon id="polygon2926_19_" fill="#02ABD8" points="3.259,24.912 21.092,24.912 21.092,6.505 15.438,0.85 3.259,0.85 	"/>
	<polygon id="polygon2928_19_" fill="#FFFFFF" points="4.813,23.143 4.813,2.479 16.205,2.479 17.764,4.248 19.461,5.736 
		19.461,23.143 	"/>
	<rect id="rect9_1_" x="6.355" y="5.089" fill="#808283" width="11.639" height="0.646"/>
	<path id="path2930_19_" fill="#020202" d="M15.438,7.354c-0.471,0-0.852-0.381-0.852-0.849V0.85c0-0.345,0.209-0.654,0.523-0.785
		C15.217,0.021,15.326,0,15.438,0c0.222,0,0.438,0.088,0.599,0.25l5.655,5.654c0.242,0.244,0.316,0.607,0.187,0.926
		c-0.131,0.318-0.442,0.523-0.784,0.523H15.438L15.438,7.354z"/>
	<polygon id="polygon2932_19_" fill="#02ABD8" points="15.438,0.85 15.438,6.505 21.092,6.505 	"/>
	<rect id="rect13" x="6.49" y="9.064" fill="#808283" width="11.639" height="0.646"/>
	<rect id="rect15" x="6.49" y="13.357" fill="#808283" width="11.639" height="0.647"/>
	<rect id="rect17_1_" x="6.49" y="18.02" fill="#808283" width="11.639" height="0.646"/>
	<path id="path19_5_" d="M3.432,32c-0.875,0-1.586-0.361-1.949-0.99c-0.361-0.629-0.317-1.424,0.121-2.181l5.86-10.125
		c0.716-1.236,2.332-2.169,3.763-2.169h18.582c0.875,0,1.584,0.361,1.947,0.988c0.362,0.629,0.319,1.425-0.119,2.183l-5.861,10.126
		C25.059,31.068,23.441,32,22.014,32H3.432z"/>
	<path id="rect5498_7_" fill="#FAA81C" d="M11.227,17.535h18.582c1.065,0,1.496,0.748,0.963,1.67L24.91,29.331
		C24.376,30.252,23.079,31,22.014,31H3.432c-1.066,0-1.498-0.748-0.964-1.669l5.861-10.126C8.861,18.283,10.16,17.535,11.227,17.535
		z"/>
	
		<linearGradient id="path29_1_" gradientUnits="userSpaceOnUse" x1="0.7998" y1="-113.1074" x2="27.5186" y2="-113.1074" gradientTransform="matrix(1 0 0 -1 2.46 -88.8398)">
		<stop  offset="0" style="stop-color:#A46929"/>
		<stop  offset="0.5394" style="stop-color:#FAA81C"/>
		<stop  offset="1" style="stop-color:#FFF3E2"/>
	</linearGradient>
	<path id="path29_5_" fill="url(#path29_1_)" d="M3.432,30c-0.072,0-0.13-0.006-0.172-0.014c0.016-0.041,0.037-0.092,0.073-0.153
		l5.86-10.127c0.355-0.612,1.322-1.171,2.031-1.171h18.582c0.072,0,0.129,0.007,0.172,0.015c-0.015,0.04-0.037,0.093-0.074,0.155
		L24.045,28.83C23.689,29.441,22.721,30,22.014,30H3.432z"/>
</g>
</svg>
