<?xml version="1.0" encoding="utf-8"?>
<!-- Generator: Adobe Illustrator 14.0.0, SVG Export Plug-In . SVG Version: 6.00 Build 43363)  -->
<!DOCTYPE svg PUBLIC "-//W3C//DTD SVG 1.1//EN" "http://www.w3.org/Graphics/SVG/1.1/DTD/svg11.dtd">
<svg version="1.1"
	 id="svg1" sodipodi:docname="save_all.svg" inkscape:version="0.43" sodipodi:version="0.32" sodipodi:docbase="J:\radix\dev\trunk\org.radixware\kernel\designer\src\common.resources\src\org\radixware\kernel\designer\resources\icons\file" xmlns:dc="http://purl.org/dc/elements/1.1/" xmlns:ns="http://creativecommons.org/ns#" xmlns:sodipodi="http://inkscape.sourceforge.net/DTD/sodipodi-0.dtd" xmlns:cc="http://web.resource.org/cc/" xmlns:inkscape="http://www.inkscape.org/namespaces/inkscape" xmlns:rdf="http://www.w3.org/1999/02/22-rdf-syntax-ns#" xmlns:svg="http://www.w3.org/2000/svg"
	 xmlns="http://www.w3.org/2000/svg" xmlns:xlink="http://www.w3.org/1999/xlink" x="0px" y="0px" width="32px" height="32px"
	 viewBox="0 0 32 32" enable-background="new 0 0 32 32" xml:space="preserve">
<sodipodi:namedview  id="base" pagecolor="#ffffff" bordercolor="#666666" borderopacity="1.0" showgrid="true" inkscape:zoom="11.351351" inkscape:cx="7.6507857" inkscape:cy="21.838906" inkscape:window-x="0" inkscape:window-y="0" inkscape:current-layer="svg1" inkscape:pageopacity="0.0" inkscape:pageshadow="2" inkscape:window-width="1264" inkscape:window-height="988" snaptogrid="false">
	</sodipodi:namedview>
<g id="g15899_1_" transform="translate(-166.35036,-161.4577)">
	<g id="polygon15349_2_">
		<path d="M174.429,187.458c-0.263,0-0.514-0.104-0.699-0.289l-1.091-1.092c-0.187-0.186-0.29-0.435-0.29-0.698v-21.802
			c0-0.263,0.103-0.513,0.289-0.699l1.128-1.13c0.187-0.186,0.437-0.29,0.7-0.29h18.885c0.283,0,0.551,0.122,0.738,0.332l4.009,4.51
			c0.162,0.181,0.251,0.414,0.251,0.657v18.62c0,0.264-0.104,0.515-0.289,0.699l-0.892,0.891c-0.186,0.186-0.437,0.29-0.698,0.29
			L174.429,187.458L174.429,187.458z"/>
	</g>
	<polygon id="polygon15349_1_" fill="#00ACDA" points="174.468,162.447 193.353,162.447 197.362,166.958 197.362,185.579 
		196.471,186.469 174.429,186.469 173.339,185.379 173.339,163.576 	"/>
	<g id="polygon15349_3_">
		
			<linearGradient id="SVGID_1_" gradientUnits="userSpaceOnUse" x1="338.2166" y1="-101.8401" x2="360.2654" y2="-101.8401" gradientTransform="matrix(1 0 0 -1 -163.8906 72.6185)">
			<stop  offset="0" style="stop-color:#B1D2DB"/>
			<stop  offset="1" style="stop-color:#0C7C9E"/>
		</linearGradient>
		<polygon fill="url(#SVGID_1_)" points="174.837,185.482 174.326,184.969 174.326,163.985 174.876,163.435 192.909,163.435 
			196.375,167.333 196.375,185.169 196.061,185.482 		"/>
	</g>
	<path id="path15372_1_" fill="#F1F1F1" d="M179.815,173.073h11.121l0.349-0.35v-9.269h-11.872v9.217L179.815,173.073z
		 M187.163,165.854h2.727v4.819h-2.727V165.854z"/>
	<rect id="rect15374_1_" x="177.117" y="174.879" fill="#F3F2F2" width="16.61" height="10.676"/>
	<line id="line15376_1_" fill="none" stroke="#494A87" x1="192.883" y1="183.492" x2="177.964" y2="183.492"/>
	<line id="line15378_1_" fill="none" stroke="#494A87" x1="192.883" y1="181.416" x2="177.964" y2="181.416"/>
	<line id="line15380_1_" fill="none" stroke="#494A87" x1="192.883" y1="179.258" x2="177.964" y2="179.258"/>
	<line id="line15382_1_" fill="none" stroke="#494A87" x1="192.883" y1="176.942" x2="177.964" y2="176.942"/>
</g>
<g id="g15899_2_" transform="translate(-166.35036,-161.4577)">
	<g id="polygon15349_6_">
		<path d="M168.429,193.458c-0.263,0-0.514-0.104-0.699-0.289l-1.091-1.092c-0.187-0.186-0.29-0.435-0.29-0.698v-21.802
			c0-0.263,0.103-0.513,0.289-0.699l1.128-1.13c0.187-0.186,0.437-0.29,0.7-0.29h18.885c0.283,0,0.551,0.122,0.738,0.332l4.009,4.51
			c0.162,0.181,0.251,0.414,0.251,0.657v18.62c0,0.264-0.104,0.515-0.289,0.699l-0.892,0.891c-0.186,0.186-0.437,0.29-0.698,0.29
			L168.429,193.458L168.429,193.458z"/>
	</g>
	<polygon id="polygon15349_5_" fill="#00ACDA" points="168.468,168.447 187.353,168.447 191.362,172.958 191.362,191.579 
		190.471,192.469 168.429,192.469 167.339,191.379 167.339,169.576 	"/>
	<g id="polygon15349_4_">
		
			<linearGradient id="SVGID_2_" gradientUnits="userSpaceOnUse" x1="332.2166" y1="-107.8401" x2="354.2654" y2="-107.8401" gradientTransform="matrix(1 0 0 -1 -163.8906 72.6185)">
			<stop  offset="0" style="stop-color:#B1D2DB"/>
			<stop  offset="1" style="stop-color:#0C7C9E"/>
		</linearGradient>
		<polygon fill="url(#SVGID_2_)" points="168.837,191.482 168.326,190.969 168.326,169.985 168.876,169.435 186.909,169.435 
			190.375,173.333 190.375,191.169 190.061,191.482 		"/>
	</g>
	<path id="path15372_2_" fill="#F1F1F1" d="M173.815,179.073h11.121l0.349-0.35v-9.27h-11.872v9.217L173.815,179.073z
		 M181.163,171.854h2.727v4.819h-2.727V171.854z"/>
	<rect id="rect15374_2_" x="171.117" y="180.879" fill="#F3F2F2" width="16.61" height="10.676"/>
	<line id="line15376_2_" fill="none" stroke="#494A87" x1="186.883" y1="189.492" x2="171.964" y2="189.492"/>
	<line id="line15378_2_" fill="none" stroke="#494A87" x1="186.883" y1="187.416" x2="171.964" y2="187.416"/>
	<line id="line15380_2_" fill="none" stroke="#494A87" x1="186.883" y1="185.258" x2="171.964" y2="185.258"/>
	<line id="line15382_2_" fill="none" stroke="#494A87" x1="186.883" y1="182.942" x2="171.964" y2="182.942"/>
</g>
</svg>
