<?xml version="1.0" encoding="utf-8"?>
<!-- Generator: Adobe Illustrator 14.0.0, SVG Export Plug-In . SVG Version: 6.00 Build 43363)  -->
<!DOCTYPE svg PUBLIC "-//W3C//DTD SVG 1.1//EN" "http://www.w3.org/Graphics/SVG/1.1/DTD/svg11.dtd">
<svg version="1.1"
	 id="svg1" sodipodi:docname="save_image.svg" inkscape:version="0.43" sodipodi:version="0.32" sodipodi:docbase="J:\radix\dev\trunk\org.radixware\kernel\designer\src\common.resources\src\org\radixware\kernel\designer\resources\icons\file" xmlns:dc="http://purl.org/dc/elements/1.1/" xmlns:ns="http://creativecommons.org/ns#" xmlns:sodipodi="http://inkscape.sourceforge.net/DTD/sodipodi-0.dtd" xmlns:cc="http://web.resource.org/cc/" xmlns:inkscape="http://www.inkscape.org/namespaces/inkscape" xmlns:rdf="http://www.w3.org/1999/02/22-rdf-syntax-ns#" xmlns:svg="http://www.w3.org/2000/svg"
	 xmlns="http://www.w3.org/2000/svg" xmlns:xlink="http://www.w3.org/1999/xlink" x="0px" y="0px" width="32px" height="32px"
	 viewBox="0 0 32 32" enable-background="new 0 0 32 32" xml:space="preserve">
<sodipodi:namedview  id="base" pagecolor="#ffffff" bordercolor="#666666" borderopacity="1.0" showgrid="true" inkscape:zoom="8.0266175" inkscape:cx="18.993583" inkscape:cy="5.4058787" inkscape:window-x="0" inkscape:window-y="0" inkscape:current-layer="svg1" inkscape:pageopacity="0.0" inkscape:pageshadow="2" inkscape:window-width="1264" inkscape:window-height="988" snaptogrid="false">
	</sodipodi:namedview>
<g id="g15899_1_" transform="translate(-166.35036,-161.4577)">
	<g id="polygon15349_2_">
		<path d="M169.75,192.458c-0.303,0-0.594-0.119-0.806-0.334l-1.26-1.26c-0.215-0.213-0.334-0.502-0.334-0.805v-25.157
			c0-0.303,0.119-0.593,0.333-0.807l1.303-1.305c0.215-0.213,0.504-0.334,0.807-0.334h21.791c0.326,0,0.636,0.141,0.852,0.384
			l4.626,5.203c0.188,0.209,0.289,0.478,0.289,0.759v21.485c0,0.305-0.12,0.594-0.333,0.807l-1.029,1.027
			c-0.214,0.215-0.503,0.334-0.806,0.334H169.75V192.458z"/>
	</g>
	<polygon id="polygon15349_1_" fill="#00ACDA" points="169.794,163.6 191.585,163.6 196.211,168.804 196.211,190.29 
		195.182,191.317 169.75,191.317 168.492,190.059 168.492,164.903 	"/>
	<g id="polygon15349_3_">
		
			<linearGradient id="SVGID_1_" gradientUnits="userSpaceOnUse" x1="333.5212" y1="-104.8401" x2="358.9617" y2="-104.8401" gradientTransform="matrix(1 0 0 -1 -163.8906 72.6185)">
			<stop  offset="0" style="stop-color:#B1D2DB"/>
			<stop  offset="1" style="stop-color:#0C7C9E"/>
		</linearGradient>
		<polygon fill="url(#SVGID_1_)" points="170.22,190.178 169.631,189.587 169.631,165.374 170.265,164.739 191.073,164.739 
			195.071,169.237 195.071,189.817 194.71,190.178 		"/>
	</g>
	<path id="path15372_1_" fill="#F1F1F1" d="M175.965,175.86h12.831l0.402-0.404v-10.694H175.5v10.635L175.965,175.86z
		 M184.443,167.53h3.145v5.56h-3.145V167.53z"/>
	<rect id="rect15374_1_" x="172.85" y="177.944" fill="#F3F2F2" width="19.166" height="12.319"/>
	<line id="line15376_1_" fill="none" stroke="#494A87" x1="191.042" y1="187.882" x2="173.828" y2="187.882"/>
	<line id="line15378_1_" fill="none" stroke="#494A87" x1="191.042" y1="185.487" x2="173.828" y2="185.487"/>
	<line id="line15380_1_" fill="none" stroke="#494A87" x1="191.042" y1="182.997" x2="173.828" y2="182.997"/>
	<line id="line15382_1_" fill="none" stroke="#494A87" x1="191.042" y1="180.323" x2="173.828" y2="180.323"/>
</g>
</svg>
