<?xml version="1.0" encoding="utf-8"?>
<!-- Generator: Adobe Illustrator 14.0.0, SVG Export Plug-In . SVG Version: 6.00 Build 43363)  -->
<!DOCTYPE svg PUBLIC "-//W3C//DTD SVG 1.1//EN" "http://www.w3.org/Graphics/SVG/1.1/DTD/svg11.dtd">
<svg version="1.1" id="Layer_1" xmlns="http://www.w3.org/2000/svg" xmlns:xlink="http://www.w3.org/1999/xlink" x="0px" y="0px"
	 width="32px" height="32px" viewBox="0 0 32 32" enable-background="new 0 0 32 32" xml:space="preserve">
<g>
	<g>
		<path id="path2924_30_" fill="#030303" d="M8.848,32c-0.584,0-1.055-0.469-1.055-1.055V1.056C7.793,0.472,8.264,0,8.848,0h15.126
			c0.283,0,0.551,0.11,0.746,0.31l7.027,7.026c0.197,0.198,0.309,0.466,0.309,0.746v22.863c0,0.586-0.473,1.055-1.055,1.055H8.848
			L8.848,32z"/>
		<polygon id="polygon2926_30_" fill="#08ACDA" points="23.975,1.056 8.848,1.056 8.848,30.945 31.002,30.945 31.002,8.082 		"/>
		<polygon id="polygon2928_30_" fill="#FFFFFF" points="28.977,7.125 28.977,28.752 10.778,28.752 10.778,3.081 24.932,3.081 
			26.867,5.278 		"/>
		<path id="path2930_30_" fill="#030303" d="M23.975,9.136c-0.582,0-1.055-0.472-1.055-1.055V1.056c0-0.426,0.258-0.813,0.65-0.976
			C23.703,0.026,23.84,0,23.975,0c0.275,0,0.545,0.108,0.746,0.311l7.025,7.025c0.301,0.303,0.393,0.756,0.229,1.15
			C31.813,8.88,31.426,9.136,31,9.136H23.975L23.975,9.136z"/>
		<polygon id="polygon2932_30_" fill="#08ACDA" points="23.975,8.082 31.002,8.082 23.975,1.056 		"/>
	</g>
	<path fill="#010101" d="M0.944,27.223c-0.553,0-1-0.447-1-1V13.819c0-0.554,0.447-1,1-1h27.003c0.553,0,1,0.446,1,1v12.404
		c0,0.553-0.447,1-1,1H0.944z"/>
	
		<linearGradient id="SVGID_1_" gradientUnits="userSpaceOnUse" x1="-1.5161" y1="-107.8604" x2="25.4873" y2="-107.8604" gradientTransform="matrix(1 0 0 -1 2.46 -87.8398)">
		<stop  offset="0" style="stop-color:#FFF3E0"/>
		<stop  offset="0.5394" style="stop-color:#F9A720"/>
		<stop  offset="1" style="stop-color:#A36728"/>
	</linearGradient>
	<rect x="0.944" y="13.819" fill="url(#SVGID_1_)" width="27.003" height="12.404"/>
	<g>
		<path fill="#010101" d="M7.194,24.037c-0.16,0-0.311-0.08-0.396-0.215L5.69,22.125l-1.109,1.697
			c-0.088,0.135-0.238,0.215-0.396,0.215H2.54c-0.174,0-0.332-0.094-0.416-0.246c-0.082-0.15-0.076-0.336,0.016-0.48l2.16-3.395
			l-1.951-3.192c-0.09-0.146-0.094-0.33-0.01-0.479s0.242-0.242,0.414-0.242h1.6c0.166,0,0.32,0.087,0.406,0.229l0.955,1.575
			l0.924-1.57c0.086-0.146,0.242-0.233,0.408-0.233h1.588c0.17,0,0.328,0.092,0.412,0.24s0.082,0.331-0.006,0.479l-1.953,3.249
			l2.156,3.336c0.096,0.145,0.102,0.33,0.02,0.482c-0.084,0.152-0.244,0.248-0.418,0.248H7.194L7.194,24.037z"/>
		<path fill="#010101" d="M16.963,24.037c-0.262,0-0.475-0.211-0.475-0.473v-1.607l-0.41,1.717
			c-0.051,0.215-0.242,0.363-0.461,0.363h-1.318c-0.219,0-0.41-0.148-0.461-0.363l-0.408-1.705v1.596
			c0,0.262-0.211,0.475-0.473,0.475h-1.273c-0.262,0-0.473-0.213-0.473-0.475v-7.088c0-0.262,0.211-0.474,0.473-0.474h2.049
			c0.219,0,0.408,0.149,0.461,0.361l0.768,3.134l0.76-3.133c0.051-0.212,0.242-0.362,0.459-0.362h2.056
			c0.264,0,0.475,0.212,0.475,0.474v7.088c0,0.262-0.211,0.475-0.475,0.475h-1.273V24.037z"/>
		<path fill="#010101" d="M21.535,24.037c-0.264,0-0.475-0.211-0.475-0.473v-7.088c0-0.262,0.211-0.475,0.475-0.475h1.369
			c0.262,0,0.475,0.213,0.475,0.475v5.336h2.93c0.262,0,0.475,0.211,0.475,0.473v1.279c0,0.262-0.213,0.473-0.475,0.473H21.535z"/>
	</g>
</g>
</svg>
