<?xml version="1.0" encoding="utf-8"?>
<!-- Generator: Adobe Illustrator 14.0.0, SVG Export Plug-In . SVG Version: 6.00 Build 43363)  -->
<!DOCTYPE svg PUBLIC "-//W3C//DTD SVG 1.1//EN" "http://www.w3.org/Graphics/SVG/1.1/DTD/svg11.dtd">
<svg version="1.1"
	 id="svg2431" inkscape:output_extension="org.inkscape.output.svg.inkscape" sodipodi:docname="xml_catalog.svg" sodipodi:version="0.32" inkscape:version="0.46" xmlns:dc="http://purl.org/dc/elements/1.1/" xmlns:cc="http://creativecommons.org/ns#" xmlns:rdf="http://www.w3.org/1999/02/22-rdf-syntax-ns#" xmlns:svg="http://www.w3.org/2000/svg" xmlns:sodipodi="http://sodipodi.sourceforge.net/DTD/sodipodi-0.dtd" xmlns:inkscape="http://www.inkscape.org/namespaces/inkscape" inkscape:export-ydpi="90" inkscape:export-xdpi="90" inkscape:export-filename="H:\Work\Radix\for JavaExplorer\tester2.png"
	 xmlns="http://www.w3.org/2000/svg" xmlns:xlink="http://www.w3.org/1999/xlink" x="0px" y="0px" width="32px" height="32px"
	 viewBox="0 0 32 32" enable-background="new 0 0 32 32" xml:space="preserve">
<path id="path4046_2_" fill="#020202" d="M6.962,32c-0.183,0-0.37-0.051-0.537-0.155c-0.427-0.27-0.583-0.817-0.362-1.275
	l6.323-13.223c0,0-2.336,0.037-2.341,0.037c-0.325,0-0.63-0.157-0.815-0.423c-0.193-0.272-0.237-0.617-0.123-0.927l5.693-15.375
	c0.143-0.393,0.518-0.653,0.938-0.653L25.035,0c0.383,0,0.729,0.217,0.898,0.559c0.167,0.342,0.128,0.75-0.104,1.053l-6.294,8.206
	c0,0,4.016-0.034,4.019-0.034c0.388,0,0.736,0.22,0.903,0.566c0.169,0.353,0.117,0.77-0.128,1.068L7.744,31.636
	C7.545,31.872,7.254,32,6.962,32L6.962,32z"/>
<linearGradient id="path5141_1_" gradientUnits="userSpaceOnUse" x1="275.9854" y1="604.1221" x2="269.0319" y2="594.9266" gradientTransform="matrix(2.1007 0.0132 -0.0116 1.8436 -552.8958 -1096.8661)">
	<stop  offset="0" style="stop-color:#C1912E"/>
	<stop  offset="0.1636" style="stop-color:#FACC36"/>
	<stop  offset="0.5" style="stop-color:#CEA348"/>
	<stop  offset="1" style="stop-color:#F3DF9B"/>
</linearGradient>
<path id="path5141_3_" fill="url(#path5141_1_)" d="M10.043,16.379l3.948-0.064L6.967,30.997l16.583-20.216l-6.065,0.056
	l7.547-9.833L15.736,1.01L10.043,16.379z"/>
<polygon id="polygon4061_2_" fill="#FACC36" points="11.436,23.966 15.59,15.288 11.494,15.353 16.431,2.01 22.999,2.005 
	15.439,11.857 21.415,11.805 "/>
</svg>
