<?xml version="1.0" encoding="utf-8"?>
<!-- Generator: Adobe Illustrator 15.0.0, SVG Export Plug-In . SVG Version: 6.00 Build 0)  -->
<!DOCTYPE svg PUBLIC "-//W3C//DTD SVG 1.1//EN" "http://www.w3.org/Graphics/SVG/1.1/DTD/svg11.dtd">
<svg version="1.1"
	 id="svg2" xmlns:dc="http://purl.org/dc/elements/1.1/" xmlns:cc="http://creativecommons.org/ns#" xmlns:rdf="http://www.w3.org/1999/02/22-rdf-syntax-ns#" xmlns:svg="http://www.w3.org/2000/svg" xmlns:sodipodi="http://sodipodi.sourceforge.net/DTD/sodipodi-0.dtd" xmlns:inkscape="http://www.inkscape.org/namespaces/inkscape" inkscape:output_extension="org.inkscape.output.svg.inkscape" sodipodi:version="0.32" inkscape:version="0.46" sodipodi:docname="filter_module.svg" sodipodi:docbase="C:\Radix\dev\trunk\org.radixware\kernel\designer\src\common.resources\src\org\radixware\kernel\designer\resources\icons\ads"
	 xmlns="http://www.w3.org/2000/svg" xmlns:xlink="http://www.w3.org/1999/xlink" x="0px" y="0px" width="32px" height="32px"
	 viewBox="0 0 32 32" enable-background="new 0 0 32 32" xml:space="preserve">
<defs>
	
	
		<inkscape:perspective  id="perspective8300" sodipodi:type="inkscape:persp3d" inkscape:vp_y="0 : 1000 : 0" inkscape:vp_x="0 : 16 : 1" inkscape:vp_z="32 : 16 : 1" inkscape:persp3d-origin="16 : 10.666667 : 1">
		</inkscape:perspective>
</defs>
<sodipodi:namedview  id="base" inkscape:cy="6.804922" inkscape:cx="15.909298" inkscape:zoom="11.313709" showgrid="true" borderopacity="1.0" bordercolor="#000000" pagecolor="#ffffff" inkscape:window-y="-8" inkscape:window-x="-8" inkscape:window-height="944" inkscape:window-width="1280" inkscape:pageshadow="2" inkscape:pageopacity="0.0" inkscape:current-layer="layer1" inkscape:document-units="px">
	</sodipodi:namedview>
<g>
	<g id="g2905">
		<path id="path16_7_" d="M7.714,28.533c-1.848-1.848-1.956-2.308-1.904-2.716c0.188-1.509,1.172-1.623,1.821-1.698
			c0.482-0.059,0.94-0.109,1.449-0.583c0.289-0.268,0.453-0.64,0.459-1.05c0.009-0.457-0.174-0.899-0.5-1.227
			c-0.628-0.627-1.644-0.629-2.313-0.004c-0.227,0.212-0.365,0.665-0.498,1.1c-0.254,0.835-0.636,2.095-2.095,2.012
			c-0.308-0.021-0.554-0.102-2.079-1.626C1.412,22.1,0.711,21.365,0.195,20.82c-0.129-0.136-0.2-0.322-0.195-0.51
			c0.008-0.192,0.088-0.372,0.228-0.503c2.168-2.025,3.402-3.291,3.718-3.7c-0.011-0.071-0.04-0.1-0.062-0.12
			c-0.154-0.155-0.55-0.277-0.931-0.393c-0.566-0.173-1.212-0.368-1.682-0.838c-1.202-1.289-1.186-3.177-0.011-4.353
			c1.197-1.198,3.11-1.234,4.265-0.079l0.073,0.076c0.792,0.854,0.891,1.701,0.955,2.26c0.018,0.155,0.049,0.419,0.089,0.464
			c0,0,0.049,0.047,0.236,0.082c0.681-0.389,3.016-2.813,4.884-4.943c0.129-0.147,0.316-0.235,0.515-0.241
			c0.199-0.006,0.388,0.069,0.53,0.209l10.983,10.982c0.278,0.278,0.279,0.732,0,1.011L12.228,31.789
			c-0.267,0.269-0.696,0.281-0.978,0.034c-0.018-0.015-2.018-1.771-3.533-3.287L7.714,28.533z"/>
		<path id="path18_9_" fill="#6EBD46" d="M12.302,8.737c0,0-4.645,5.294-5.379,5.202c-1.751-0.22-0.46-1.553-1.846-3.048
			c-0.876-0.941-2.391-0.896-3.311,0.023S0.87,13.278,1.746,14.22c0.862,0.924,3.008,0.574,2.921,2.065
			c-0.022,0.36-3.177,3.327-3.949,4.045c1.128,1.193,3.162,3.305,3.459,3.322c1.489,0.085,1.138-2.06,2.063-2.921
			c0.938-0.876,2.386-0.898,3.305,0.021c0.921,0.92,0.965,2.435,0.024,3.31c-1.493,1.389-2.828,0.095-3.049,1.846
			c-0.092,0.736,5.202,5.377,5.202,5.377l11.563-11.563L12.302,8.737z"/>
		
			<linearGradient id="path27_1_" gradientUnits="userSpaceOnUse" x1="-1471.8188" y1="1119.9805" x2="-1456.7207" y2="1119.9805" gradientTransform="matrix(-0.7071 0.7071 0.7071 0.7071 -1817.4639 261.4274)">
			<stop  offset="0" style="stop-color:#B0D68C"/>
			<stop  offset="1" style="stop-color:#1E9046"/>
		</linearGradient>
		<path id="path27_4_" fill="url(#path27_1_)" d="M8.725,27.522c-1.053-1.055-1.378-1.502-1.476-1.66
			c0.037-0.183,0.081-0.232,0.082-0.234c0.046-0.039,0.31-0.071,0.464-0.089c0.558-0.066,1.405-0.164,2.258-0.955
			c0.575-0.535,0.899-1.269,0.915-2.073c0.016-0.842-0.318-1.665-0.916-2.263c-1.175-1.175-3.062-1.191-4.301-0.041
			c-0.508,0.477-0.711,1.143-0.889,1.731c-0.236,0.776-0.345,0.961-0.508,0.994c-0.146-0.114-0.501-0.416-1.289-1.202
			c-0.443-0.444-0.914-0.935-1.336-1.373c3.612-3.396,3.632-3.72,3.649-4.034c0.032-0.532-0.137-0.998-0.484-1.347
			c-0.409-0.41-0.975-0.58-1.525-0.747c-0.428-0.131-0.87-0.266-1.087-0.484c-0.641-0.684-0.639-1.703-0.01-2.331
			c0.628-0.627,1.656-0.665,2.243-0.078c0.512,0.546,0.562,1.005,0.617,1.489c0.05,0.43,0.108,0.92,0.496,1.31
			c0.277,0.277,0.672,0.444,1.206,0.512c0.346,0.043,1.058,0.13,5.499-4.868l9.939,9.941L11.69,30.304
			c-0.684-0.612-1.938-1.755-2.962-2.78L8.725,27.522z"/>
	</g>
</g>
<path fill="#FFFFFF" enable-background="new    " d="M12.808,8.232c-0.143-0.141-0.331-0.215-0.53-0.209
	c-0.198,0.006-0.386,0.094-0.515,0.241c-0.377,0.431-0.775,0.871-1.173,1.307l5.42,5.584l2.166,8.047
	c0.093,0.561,0.45,1.13,1.164,1.474l4.451-4.451c0.279-0.278,0.278-0.732,0-1.011L12.808,8.232z"/>
<g>
	<path fill="#231F20" d="M20.953,24c-1.048,0-1.723-0.379-1.797-1l-2.248-8.354l-6.774-6.98C9.99,7.524,9.908,7.331,9.907,7.129
		l-0.001-5.18c-0.001-0.417,0.336-0.757,0.753-0.759c0.001,0,0.002,0,0.003,0c0.417,0,0.755,0.336,0.756,0.752v4.865l6.707,6.913
		c0.104,0.102,0.176,0.23,0.208,0.37l2.251,8.365c0.184,0.035,0.555,0.035,0.739,0l2.242-8.365c0.033-0.143,0.107-0.273,0.213-0.375
		l6.698-6.824l0.012-4.945c-0.001-0.417,0.338-0.755,0.755-0.756h0.001c0.417,0,0.755,0.337,0.756,0.755l-0.012,5.267
		c0,0.205-0.082,0.402-0.23,0.544l-6.769,6.892l-2.236,8.332C22.692,23.611,22.015,24,20.953,24L20.953,24z"/>
	<path id="path1874_1_" fill="#02ABD8" d="M10.662,1.946v5.18l6.933,7.134l2.311,8.626l0,0c0,0.197,0.469,0.357,1.048,0.357
		S22,23.084,22,22.887c0-0.004-0.001-0.004-0.001-0.006l2.302-8.621l6.931-7.047l0.012-5.267"/>
	
		<linearGradient id="path1888_2_" gradientUnits="userSpaceOnUse" x1="20.4609" y1="-99.0732" x2="11.7183" y2="-101.8978" gradientTransform="matrix(1 0 0 -1 2.46 -88.8398)">
		<stop  offset="0" style="stop-color:#B0D0DA;stop-opacity:0"/>
		<stop  offset="1" style="stop-color:#074A5E"/>
	</linearGradient>
	<path id="path1888_1_" fill="url(#path1888_2_)" d="M10.662,1.946v5.18l6.933,7.134l2.354,8.722c0,0,0.513,0.219,0.795,0.203
		l-0.563-8.159l-2.597-6.779l0.016-5.111"/>
	
		<linearGradient id="path1890_2_" gradientUnits="userSpaceOnUse" x1="20.1006" y1="-101.0615" x2="25.2653" y2="-101.5653" gradientTransform="matrix(1 0 0 -1 2.46 -88.8398)">
		<stop  offset="0" style="stop-color:#B0D0DA;stop-opacity:0"/>
		<stop  offset="1" style="stop-color:#7DD1EC"/>
	</linearGradient>
	<path id="path1890_1_" fill="url(#path1890_2_)" d="M31.243,1.947l-0.012,5.267l-6.945,7.104l-2.308,8.643
		c0,0-0.387,0.279-0.669,0.262l1.481-8.692l2.388-6.282l0.016-5.112"/>
	<path fill="#231F20" d="M20.947,3.893c-11.041,0-11.041-1.414-11.041-1.946S9.906,0,20.947,0c11.042,0,11.042,1.414,11.042,1.946
		S31.989,3.893,20.947,3.893L20.947,3.893z"/>
	
		<linearGradient id="ellipse1925_2_" gradientUnits="userSpaceOnUse" x1="167.4883" y1="-1061.1279" x2="185.6445" y2="-1061.1279" gradientTransform="matrix(1.133 0 0 -1.0789 -179.1027 -1142.9042)">
		<stop  offset="0" style="stop-color:#848D8C"/>
		<stop  offset="0.0727" style="stop-color:#000000"/>
		<stop  offset="0.2061" style="stop-color:#D2D5D4"/>
		<stop  offset="0.6242" style="stop-color:#B2B4B4"/>
		<stop  offset="0.6657" style="stop-color:#8A9190"/>
		<stop  offset="0.7103" style="stop-color:#67726F"/>
		<stop  offset="0.7466" style="stop-color:#525E5C"/>
		<stop  offset="0.7697" style="stop-color:#495755"/>
		<stop  offset="0.7719" style="stop-color:#4F5C5A"/>
		<stop  offset="0.7845" style="stop-color:#6D7776"/>
		<stop  offset="0.7983" style="stop-color:#868D8B"/>
		<stop  offset="0.8136" style="stop-color:#9B9F9E"/>
		<stop  offset="0.8311" style="stop-color:#A8ABAB"/>
		<stop  offset="0.8527" style="stop-color:#B1B1B2"/>
		<stop  offset="0.8909" style="stop-color:#B2B4B4"/>
		<stop  offset="1" style="stop-color:#495755"/>
	</linearGradient>
	
		<ellipse id="ellipse1925_1_" sodipodi:cx="63.969002" sodipodi:rx="49.040001" sodipodi:ry="5.9580002" sodipodi:cy="13.666" fill="url(#ellipse1925_2_)" cx="20.947" cy="1.946" rx="10.286" ry="1.19">
	</ellipse>
	<path id="path1927_1_" fill="none" stroke="#000000" d="M31.624,6.848c0,0.818-4.997,1.48-10.677,1.48s-10.674-0.663-10.674-1.48"
		/>
	<path id="path1929_1_" fill="none" stroke="#000000" d="M24.62,14.377c0,0.424-1.825,0.766-3.676,0.766
		c-1.853,0-3.599-0.342-3.599-0.766"/>
	
		<linearGradient id="ellipse1936_2_" gradientUnits="userSpaceOnUse" x1="167.4883" y1="-1061.1279" x2="185.6445" y2="-1061.1279" gradientTransform="matrix(1.133 0 0 -1.0789 -179.1027 -1142.9042)">
		<stop  offset="0" style="stop-color:#000000"/>
		<stop  offset="1" style="stop-color:#000000;stop-opacity:0"/>
	</linearGradient>
	
		<ellipse id="ellipse1936_1_" sodipodi:cx="63.969002" sodipodi:rx="49.040001" sodipodi:ry="5.9580002" sodipodi:cy="13.666" opacity="0.61" fill="url(#ellipse1936_2_)" enable-background="new    " cx="20.947" cy="1.946" rx="10.286" ry="1.19">
	</ellipse>
</g>
</svg>
