<?xml version="1.0" encoding="utf-8"?>
<!-- Generator: Adobe Illustrator 15.0.0, SVG Export Plug-In . SVG Version: 6.00 Build 0)  -->
<!DOCTYPE svg PUBLIC "-//W3C//DTD SVG 1.1//EN" "http://www.w3.org/Graphics/SVG/1.1/DTD/svg11.dtd">
<svg version="1.1"
	 id="svg2" xmlns:dc="http://purl.org/dc/elements/1.1/" xmlns:cc="http://creativecommons.org/ns#" xmlns:rdf="http://www.w3.org/1999/02/22-rdf-syntax-ns#" xmlns:svg="http://www.w3.org/2000/svg" xmlns:sodipodi="http://sodipodi.sourceforge.net/DTD/sodipodi-0.dtd" xmlns:inkscape="http://www.inkscape.org/namespaces/inkscape" inkscape:output_extension="org.inkscape.output.svg.inkscape" sodipodi:version="0.32" inkscape:version="0.46" sodipodi:docname="filter_object.svg" sodipodi:docbase="C:\Radix\dev\trunk\org.radixware\kernel\designer\src\common.resources\src\org\radixware\kernel\designer\resources\icons\ads"
	 xmlns="http://www.w3.org/2000/svg" xmlns:xlink="http://www.w3.org/1999/xlink" x="0px" y="0px" width="32px" height="32px"
	 viewBox="0 0 32 32" enable-background="new 0 0 32 32" xml:space="preserve">
<defs>
	
	
		<inkscape:perspective  id="perspective8300" sodipodi:type="inkscape:persp3d" inkscape:vp_y="0 : 1000 : 0" inkscape:vp_x="0 : 16 : 1" inkscape:vp_z="32 : 16 : 1" inkscape:persp3d-origin="16 : 10.666667 : 1">
		</inkscape:perspective>
</defs>
<g>
	<path d="M12,32C5.383,32,0,26.617,0,20S5.383,8,12,8c6.617,0,12,5.383,12,12S18.617,32,12,32L12,32z"/>
	<circle fill="#02ABD8" cx="12" cy="20" r="11.2"/>
	
		<radialGradient id="SVGID_1_" cx="14.627" cy="958.8779" r="14.2694" gradientTransform="matrix(1 0 0 1 2.4399 -942.7451)" gradientUnits="userSpaceOnUse">
		<stop  offset="0" style="stop-color:#B0D0DA"/>
		<stop  offset="0.8121" style="stop-color:#0C7C9E"/>
		<stop  offset="0.9879" style="stop-color:#033A4A"/>
	</radialGradient>
	<path fill="url(#SVGID_1_)" d="M12,30.4C6.266,30.4,1.6,25.734,1.6,20S6.266,9.6,12,9.6S22.4,14.266,22.4,20S17.734,30.4,12,30.4
		L12,30.4z"/>
</g>
<sodipodi:namedview  id="base" inkscape:cy="12.275011" inkscape:cx="11.880155" inkscape:zoom="7.2500001" showgrid="true" borderopacity="1.0" bordercolor="#000000" pagecolor="#ffffff" inkscape:window-y="-8" inkscape:window-x="-8" inkscape:window-height="944" inkscape:window-width="1280" inkscape:pageshadow="2" inkscape:pageopacity="0.0" inkscape:current-layer="layer1" inkscape:document-units="px">
	</sodipodi:namedview>
<path fill="#FFFFFF" enable-background="new    " d="M12,8c-0.906,0-1.786,0.109-2.635,0.301c0.018,0.02,0.032,0.043,0.051,0.062
	l6.594,6.794l2.166,8.046C18.322,24.087,19.12,25,20.953,25c1.117,0,1.845-0.352,2.279-0.817C23.721,22.878,24,21.473,24,20
	C24,13.383,18.617,8,12,8z"/>
<g>
	<path fill="#231F20" d="M20.953,24c-1.048,0-1.723-0.379-1.797-1l-2.248-8.354l-6.774-6.98C9.99,7.524,9.908,7.331,9.907,7.129
		l0-5.18C9.905,1.532,10.243,1.192,10.66,1.19c0,0,0.001,0,0.003,0c0.416,0,0.754,0.336,0.756,0.752v4.865l6.707,6.913
		c0.104,0.102,0.176,0.23,0.208,0.37l2.251,8.365c0.184,0.035,0.555,0.035,0.739,0l2.242-8.365c0.033-0.143,0.107-0.272,0.213-0.375
		l6.698-6.823l0.012-4.945c-0.001-0.417,0.338-0.755,0.755-0.756h0.001c0.417,0,0.755,0.337,0.756,0.755l-0.012,5.267
		c0,0.205-0.082,0.402-0.23,0.544l-6.769,6.892l-2.236,8.332C22.692,23.611,22.015,24,20.953,24L20.953,24z"/>
	<path id="path1874_1_" fill="#02ABD8" d="M10.662,1.946l0.001,5.18l6.931,7.134l2.312,8.626l0,0c0,0.197,0.47,0.357,1.048,0.357
		c0.579,0,1.047-0.16,1.047-0.357c0-0.004-0.001-0.004-0.001-0.006l2.302-8.621l6.931-7.047l0.012-5.267"/>
	
		<linearGradient id="path1888_2_" gradientUnits="userSpaceOnUse" x1="20.4609" y1="-99.0737" x2="11.7183" y2="-101.8982" gradientTransform="matrix(1 0 0 -1 2.46 -88.8398)">
		<stop  offset="0" style="stop-color:#B0D0DA;stop-opacity:0"/>
		<stop  offset="1" style="stop-color:#074A5E"/>
	</linearGradient>
	<path id="path1888_1_" fill="url(#path1888_2_)" d="M10.662,1.946l0.001,5.18l6.931,7.134l2.355,8.722c0,0,0.512,0.219,0.795,0.203
		l-0.564-8.159l-2.597-6.779l0.016-5.111"/>
	
		<linearGradient id="path1890_2_" gradientUnits="userSpaceOnUse" x1="20.1006" y1="-101.0615" x2="25.2653" y2="-101.5653" gradientTransform="matrix(1 0 0 -1 2.46 -88.8398)">
		<stop  offset="0" style="stop-color:#B0D0DA;stop-opacity:0"/>
		<stop  offset="1" style="stop-color:#7DD1EC"/>
	</linearGradient>
	<path id="path1890_1_" fill="url(#path1890_2_)" d="M31.243,1.947l-0.012,5.267l-6.945,7.104l-2.308,8.643
		c0,0-0.387,0.279-0.669,0.262l1.481-8.692l2.388-6.282l0.016-5.112"/>
	<path fill="#231F20" d="M20.947,3.893c-11.042,0-11.042-1.414-11.042-1.946S9.906,0,20.947,0c11.042,0,11.042,1.414,11.042,1.946
		S31.989,3.893,20.947,3.893L20.947,3.893z"/>
	
		<linearGradient id="ellipse1925_2_" gradientUnits="userSpaceOnUse" x1="167.4883" y1="-1061.1279" x2="185.6445" y2="-1061.1279" gradientTransform="matrix(1.133 0 0 -1.0789 -179.1027 -1142.9042)">
		<stop  offset="0" style="stop-color:#848D8C"/>
		<stop  offset="0.0727" style="stop-color:#000000"/>
		<stop  offset="0.2061" style="stop-color:#D2D5D4"/>
		<stop  offset="0.6242" style="stop-color:#B2B4B4"/>
		<stop  offset="0.6657" style="stop-color:#8A9190"/>
		<stop  offset="0.7103" style="stop-color:#67726F"/>
		<stop  offset="0.7466" style="stop-color:#525E5C"/>
		<stop  offset="0.7697" style="stop-color:#495755"/>
		<stop  offset="0.7719" style="stop-color:#4F5C5A"/>
		<stop  offset="0.7845" style="stop-color:#6D7776"/>
		<stop  offset="0.7983" style="stop-color:#868D8B"/>
		<stop  offset="0.8136" style="stop-color:#9B9F9E"/>
		<stop  offset="0.8311" style="stop-color:#A8ABAB"/>
		<stop  offset="0.8527" style="stop-color:#B1B1B2"/>
		<stop  offset="0.8909" style="stop-color:#B2B4B4"/>
		<stop  offset="1" style="stop-color:#495755"/>
	</linearGradient>
	
		<ellipse id="ellipse1925_1_" sodipodi:cx="63.969002" sodipodi:rx="49.040001" sodipodi:ry="5.9580002" sodipodi:cy="13.666" fill="url(#ellipse1925_2_)" cx="20.947" cy="1.946" rx="10.286" ry="1.19">
	</ellipse>
	<path id="path1927_1_" fill="none" stroke="#000000" d="M31.624,6.848c0,0.818-4.997,1.48-10.677,1.48
		c-5.68,0-10.674-0.663-10.674-1.48"/>
	<path id="path1929_1_" fill="none" stroke="#000000" d="M24.62,14.376c0,0.424-1.825,0.767-3.676,0.767
		c-1.853,0-3.599-0.343-3.599-0.767"/>
	
		<linearGradient id="ellipse1936_2_" gradientUnits="userSpaceOnUse" x1="167.4883" y1="-1061.1279" x2="185.6445" y2="-1061.1279" gradientTransform="matrix(1.133 0 0 -1.0789 -179.1027 -1142.9042)">
		<stop  offset="0" style="stop-color:#000000"/>
		<stop  offset="1" style="stop-color:#000000;stop-opacity:0"/>
	</linearGradient>
	
		<ellipse id="ellipse1936_1_" sodipodi:cx="63.969002" sodipodi:rx="49.040001" sodipodi:ry="5.9580002" sodipodi:cy="13.666" opacity="0.61" fill="url(#ellipse1936_2_)" enable-background="new    " cx="20.947" cy="1.946" rx="10.286" ry="1.19">
	</ellipse>
</g>
</svg>
