<?xml version="1.0" encoding="UTF-8" standalone="no"?>
<!-- Generator: Adobe Illustrator 14.0.0, SVG Export Plug-In . SVG Version: 6.00 Build 43363)  -->

<svg
   xmlns:dc="http://purl.org/dc/elements/1.1/"
   xmlns:cc="http://creativecommons.org/ns#"
   xmlns:rdf="http://www.w3.org/1999/02/22-rdf-syntax-ns#"
   xmlns:svg="http://www.w3.org/2000/svg"
   xmlns="http://www.w3.org/2000/svg"
   xmlns:sodipodi="http://sodipodi.sourceforge.net/DTD/sodipodi-0.dtd"
   xmlns:inkscape="http://www.inkscape.org/namespaces/inkscape"
   version="1.1"
   id="Layer_1"
   x="0px"
   y="0px"
   width="32px"
   height="32px"
   viewBox="0 0 32 32"
   enable-background="new 0 0 32 32"
   xml:space="preserve"
   inkscape:version="0.47 r22583"
   sodipodi:docname="add_with_popup.svg"><metadata
   id="metadata15"><rdf:RDF><cc:Work
       rdf:about=""><dc:format>image/svg+xml</dc:format><dc:type
         rdf:resource="http://purl.org/dc/dcmitype/StillImage" /></cc:Work></rdf:RDF></metadata><defs
   id="defs13"><inkscape:perspective
     sodipodi:type="inkscape:persp3d"
     inkscape:vp_x="0 : 16 : 1"
     inkscape:vp_y="0 : 1000 : 0"
     inkscape:vp_z="32 : 16 : 1"
     inkscape:persp3d-origin="16 : 10.666667 : 1"
     id="perspective17" /><inkscape:perspective
     id="perspective3040"
     inkscape:persp3d-origin="0.5 : 0.33333333 : 1"
     inkscape:vp_z="1 : 0.5 : 1"
     inkscape:vp_y="0 : 1000 : 0"
     inkscape:vp_x="0 : 0.5 : 1"
     sodipodi:type="inkscape:persp3d" /></defs><sodipodi:namedview
   pagecolor="#ffffff"
   bordercolor="#666666"
   borderopacity="1"
   objecttolerance="10"
   gridtolerance="10"
   guidetolerance="10"
   inkscape:pageopacity="0"
   inkscape:pageshadow="2"
   inkscape:window-width="640"
   inkscape:window-height="480"
   id="namedview11"
   showgrid="false"
   inkscape:zoom="7.84375"
   inkscape:cx="16"
   inkscape:cy="16"
   inkscape:window-x="138"
   inkscape:window-y="445"
   inkscape:window-maximized="0"
   inkscape:current-layer="Layer_1" />
<path
   id="path4992"
   fill="#010101"
   d="M12.25,3.633c-0.033,0.009-0.064,0.019-0.094,0.03c0.004,0-0.098,0.033-0.094,0.031  c0.002,0-0.129,0.033-0.125,0.031c0.002,0-0.098,0.064-0.094,0.063c0.002,0-0.098,0.064-0.094,0.062  c0.002,0-0.098,0.065-0.094,0.062c0.002,0-0.098,0.065-0.094,0.063c0.002,0-0.098,0.098-0.094,0.094  c0.002,0-0.066,0.098-0.063,0.094c0.002,0-0.064,0.098-0.063,0.095c0.002,0-0.064,0.097-0.063,0.094c0,0-0.064,0.129-0.063,0.125  c0,0-0.033,0.097-0.031,0.095c0,0-0.033,0.128-0.031,0.125c0,0-0.033,0.128-0.031,0.125c0,0,0,0.097,0,0.094c0,0,0,0.061,0,0.094  c0,0.011,0,0.031,0,0.031v6.094H5.031c0.001,0-0.013,0-0.031,0c-0.019-0.001-0.032,0-0.031,0c0.002,0-0.065,0-0.063,0  c-0.011,0-0.021,0-0.031,0c0.002,0-0.064,0-0.063,0s-0.064,0.031-0.063,0.031c0.002-0.001-0.064,0-0.063,0  c0.002-0.001-0.064,0.031-0.063,0.03s-0.064,0.001-0.063,0S4.498,11.226,4.5,11.225s-0.064,0.032-0.063,0.03  c0.002,0-0.064,0.033-0.063,0.031c0.002,0-0.064,0.032-0.063,0.031c0.002,0-0.033,0.032-0.031,0.031  c0.002,0-0.064,0.031-0.063,0.031s-0.064,0.033-0.063,0.031c0.002,0-0.033,0.032-0.031,0.03c0.002,0-0.064,0.063-0.063,0.062  c0.002,0-0.033,0.033-0.031,0.031c0.002,0-0.064,0.033-0.063,0.031c0.002,0-0.033,0.064-0.031,0.063  c0.002,0-0.033,0.063-0.031,0.063c0.001,0-0.032,0.033-0.031,0.031c0.001,0-0.063,0.064-0.063,0.063  c0.001,0-0.032,0.063-0.031,0.062c0.001,0-0.032,0.063-0.031,0.062c0.001,0-0.001,0.033,0,0.031c0.001,0-0.031,0.064-0.031,0.063  c0,0-0.031,0.064-0.031,0.063c0,0,0,0.064,0,0.063c0,0-0.031,0.064-0.031,0.063c0,0,0,0.064,0,0.063c0,0-0.031,0.064-0.031,0.063  c0,0,0,0.064,0,0.063c0,0,0,0.064,0,0.063c0,0,0,0.064,0,0.063v7c0,0,0,0.064,0,0.063c0,0,0,0.064,0,0.063c0,0,0,0.064,0,0.063  c0,0,0.031,0.064,0.031,0.063c0,0,0,0.064,0,0.063c0,0,0.031,0.096,0.031,0.094c0,0,0.031,0.064,0.031,0.063  c0,0,0.001,0.064,0,0.063c-0.001,0,0.032,0.063,0.031,0.061c-0.001,0,0.032,0.064,0.031,0.063c-0.001,0,0.032,0.064,0.031,0.063  c-0.001,0,0.032,0.033,0.031,0.031c-0.001,0,0.064,0.063,0.063,0.063s0.033,0.064,0.031,0.063c-0.002,0,0.033,0.063,0.031,0.063  s0.064,0.033,0.063,0.031c-0.002,0,0.033,0.064,0.031,0.063c-0.002,0,0.064,0.031,0.063,0.029c-0.002,0,0.064,0.033,0.063,0.031  c-0.002,0,0.064,0.064,0.063,0.063c-0.002,0,0.033,0.031,0.031,0.031s0.064,0.031,0.063,0.031c-0.002-0.002,0.064,0.031,0.063,0.031  c-0.002-0.002,0.064,0.031,0.063,0.031c-0.002-0.002,0.064,0,0.063,0c-0.002-0.002,0.064,0.031,0.063,0.029  c-0.002,0,0.096,0.033,0.094,0.031c-0.002,0,0.064,0,0.063,0c-0.003,0,0.064,0.033,0.063,0.031c-0.003,0,0.064,0,0.063,0  c-0.003,0,0.064,0,0.063,0c-0.003,0,0.064,0,0.063,0h6.125v6.094v0.031c-0.002,0.018,0,0.031,0,0.031s0,0.064,0,0.063  c0,0.01,0,0.02,0,0.031c0,0,0,0.064,0,0.063c-0.002,0,0.031,0.064,0.031,0.063c-0.002,0,0,0.064,0,0.063  c-0.002,0,0.031,0.064,0.031,0.063c-0.002,0,0,0.064,0,0.063c-0.002,0,0.031,0.064,0.031,0.063c-0.002,0,0.031,0.063,0.031,0.063  c-0.002,0,0.031,0.064,0.031,0.063c-0.002,0,0.031,0.063,0.031,0.063c-0.002,0,0.031,0.033,0.031,0.031  c-0.002,0,0.031,0.063,0.031,0.061c-0.002,0,0.031,0.064,0.031,0.063c-0.002,0,0.031,0.033,0.031,0.031  c-0.002,0,0.063,0.064,0.063,0.063c-0.002,0,0.031,0.033,0.031,0.031c-0.002,0,0.031,0.064,0.031,0.063  c-0.002,0,0.063,0.033,0.063,0.031c-0.002,0,0.063,0.031,0.063,0.031c-0.002,0,0.031,0.031,0.031,0.031  c-0.002,0,0.064,0.063,0.063,0.063s0.064,0.031,0.063,0.031c-0.002-0.002,0.064,0.031,0.063,0.031c-0.002-0.002,0.033,0,0.031,0  c-0.002-0.002,0.064,0.031,0.063,0.029c-0.002,0,0.064,0.033,0.063,0.031c-0.002,0,0.064,0.002,0.063,0  c-0.002,0,0.064,0.033,0.063,0.031c-0.002,0,0.064,0,0.063,0s0.064,0.033,0.063,0.031c-0.002,0,0.064,0,0.063,0s0.064,0,0.063,0  s0.064,0,0.063,0h7c-0.004,0,0.064,0,0.063,0c-0.004,0,0.064,0,0.063,0c-0.004,0,0.064,0,0.063,0c-0.004,0,0.064-0.031,0.063-0.031  c-0.004,0,0.064,0,0.063,0s0.096-0.031,0.094-0.031c-0.002,0.002,0.064-0.031,0.063-0.031c-0.002,0.002,0.064,0,0.063,0  c-0.002,0.002,0.064-0.031,0.063-0.029c-0.002,0,0.064-0.033,0.063-0.031c-0.002,0,0.064-0.033,0.063-0.031  c-0.002,0,0.033-0.033,0.031-0.031c-0.002,0,0.064-0.064,0.063-0.063c-0.002,0,0.063-0.033,0.063-0.031  c-0.002,0,0.063-0.033,0.063-0.031c-0.002,0,0.031-0.063,0.031-0.061c-0.002,0,0.063-0.033,0.063-0.031  c-0.002,0,0.031-0.064,0.031-0.063c-0.002,0,0.031-0.064,0.031-0.063c-0.002,0,0.063-0.064,0.063-0.063  c-0.002,0,0.031-0.033,0.031-0.031c-0.002,0,0.031-0.064,0.031-0.063c-0.002,0,0.031-0.064,0.031-0.063  c-0.002,0,0.031-0.064,0.031-0.063c-0.002,0,0-0.064,0-0.061c-0.002,0,0.031-0.066,0.031-0.063c-0.002,0,0.031-0.096,0.031-0.094  c-0.002,0,0-0.064,0-0.063c-0.002,0,0.031-0.066,0.031-0.063c-0.002,0,0-0.064,0-0.063c0,0,0-0.066,0-0.063c0,0,0-0.064,0-0.063  v-6.125H27c-0.004,0,0.064,0,0.063,0c-0.004,0,0.064-0.002,0.063,0c-0.004,0,0.064-0.002,0.063,0c-0.004,0,0.064-0.033,0.063-0.031  c-0.004,0,0.064-0.002,0.063,0c-0.002,0,0.096-0.033,0.094-0.031c-0.002,0,0.064-0.033,0.063-0.031c-0.002,0,0.064-0.002,0.063,0  c-0.002,0,0.064-0.031,0.063-0.031s0.064-0.031,0.063-0.031c-0.002,0.002,0.064-0.031,0.063-0.031s0.033-0.033,0.031-0.031  c-0.002,0,0.064-0.063,0.063-0.061c-0.002,0,0.063-0.033,0.063-0.031c-0.002,0,0.063-0.033,0.063-0.031  c-0.002,0,0.031-0.064,0.031-0.063c-0.002,0,0.063-0.033,0.063-0.031c-0.002,0,0.031-0.063,0.031-0.063  c-0.002,0,0.031-0.064,0.031-0.063c-0.002,0,0.063-0.063,0.063-0.063c-0.002,0,0.031-0.033,0.031-0.031  c-0.002,0,0.031-0.064,0.031-0.063c-0.002,0,0.031-0.063,0.031-0.061c-0.002,0,0.031-0.064,0.031-0.063c-0.002,0,0-0.064,0-0.063  c-0.002,0,0.031-0.064,0.031-0.063c-0.002,0,0.031-0.096,0.031-0.094c-0.002,0,0-0.064,0-0.063c-0.002,0,0.031-0.064,0.031-0.063  c-0.002,0,0-0.064,0-0.063c0,0,0-0.064,0-0.063c0,0,0-0.064,0-0.063v-7c0,0,0-0.064,0-0.062c0,0,0-0.065,0-0.063  c0,0-0.002-0.064,0-0.062c0,0-0.033-0.065-0.031-0.063c0,0-0.002-0.064,0-0.062c0,0-0.033-0.097-0.031-0.095  c0,0-0.033-0.064-0.031-0.062c0,0-0.002-0.063,0-0.062c0,0-0.033-0.064-0.031-0.063c0,0-0.033-0.064-0.031-0.063  c0,0-0.033-0.063-0.031-0.062c0,0-0.033-0.032-0.031-0.03c0,0-0.064-0.064-0.063-0.063c0,0-0.033-0.064-0.031-0.063  c0,0-0.033-0.064-0.031-0.063c0,0-0.064-0.033-0.063-0.031c0,0-0.033-0.064-0.031-0.063c0,0-0.064-0.032-0.063-0.03  c0,0-0.064-0.033-0.063-0.031c0.002,0-0.064-0.063-0.063-0.062c0.002,0-0.033-0.032-0.031-0.031c0.002,0-0.064-0.032-0.063-0.031  s-0.064-0.031-0.063-0.031s-0.064-0.031-0.063-0.031c0.002,0.002-0.064,0-0.063,0c0.002,0.002-0.064-0.031-0.063-0.03  s-0.096-0.032-0.094-0.031s-0.064,0-0.063,0c0.002,0.001-0.064-0.032-0.063-0.03c0.002,0-0.064-0.001-0.063,0  c0.002,0-0.066,0-0.063,0c0.002,0-0.066,0-0.063,0h-6.125V5.009c0,0,0-0.065,0-0.063c0,0,0-0.064,0-0.063c0,0-0.002-0.065,0-0.063  c0,0-0.033-0.064-0.031-0.063c0,0-0.002-0.065,0-0.063c0,0-0.033-0.096-0.031-0.094c0,0-0.033-0.065-0.031-0.063  c0,0-0.002-0.064,0-0.063c0,0-0.033-0.063-0.031-0.062c0,0-0.033-0.063-0.031-0.062c0,0-0.033-0.064-0.031-0.063  c0,0-0.033-0.033-0.031-0.031c0,0-0.064-0.063-0.063-0.062c0,0-0.033-0.063-0.031-0.063c0,0-0.033-0.063-0.031-0.062  c0,0-0.064-0.033-0.063-0.031c0,0-0.033-0.063-0.031-0.062c0,0-0.064-0.033-0.063-0.031c0,0-0.064-0.033-0.063-0.031  c0.002,0-0.064-0.064-0.063-0.063c0.002,0-0.033-0.031-0.031-0.03c0.002,0-0.064-0.032-0.063-0.031s-0.064-0.032-0.063-0.03  c0.002,0-0.064-0.033-0.063-0.031c0.002,0-0.064-0.001-0.063,0c0.002,0-0.064-0.032-0.063-0.031c0.002,0-0.096-0.032-0.094-0.031  c0.002,0-0.064,0-0.063,0S19.686,3.64,19.688,3.64s-0.066,0-0.063,0c0.002,0-0.066,0-0.063,0c0.002,0-0.066,0-0.063,0h-6.938  c0.002,0-0.066,0-0.063,0c0.002,0-0.066,0-0.063,0c0,0-0.014,0-0.031,0c0,0-0.021,0-0.031,0c0.002,0-0.066,0-0.063,0  c-0.021,0-0.043,0-0.063,0V3.633z" />
<path
   id="rect4855-4"
   fill="#6BBE45"
   d="M12.512,5.005v7.5H5.013v7h7.499v7.5h7v-7.5h7.5v-7h-7.5v-7.5H12.512z" />
<linearGradient
   id="path4903-3_1_"
   gradientUnits="userSpaceOnUse"
   x1="-765.7188"
   y1="-1027.3315"
   x2="-745.4683"
   y2="-1027.3315"
   gradientTransform="matrix(0 -1 -1 0 -1011.3193 -739.5879)">
	<stop
   offset="0"
   style="stop-color:#B2D78E"
   id="stop6" />
	<stop
   offset="1"
   style="stop-color:#1F9045"
   id="stop8" />
</linearGradient>
<path
   id="path4903-3"
   fill="url(#path4903-3_1_)"
   d="M13.387,5.88v7.5H5.888v5.25h7.499v7.5h5.25v-7.5h7.5v-5.25h-7.5v-7.5H13.387z" />
<polygon
   transform="matrix(0.74501992,0,0,0.48474003,7.2948208,16.009558)"
   style="fill:#010202"
   id="polygon142"
   points="24.5,26.807 22,22.477 27,22.477 32,22.477 29.5,26.807 27,31.137 " /></svg>