<?xml version="1.0" encoding="utf-8"?>
<!-- Generator: Adobe Illustrator 15.0.0, SVG Export Plug-In . SVG Version: 6.00 Build 0)  -->
<!DOCTYPE svg PUBLIC "-//W3C//DTD SVG 1.1//EN" "http://www.w3.org/Graphics/SVG/1.1/DTD/svg11.dtd">
<svg version="1.1"
	 id="Layer_1" inkscape:version="0.47pre4 " sodipodi:docname="xml_.svg" xmlns:rdf="http://www.w3.org/1999/02/22-rdf-syntax-ns#" xmlns:dc="http://purl.org/dc/elements/1.1/" xmlns:svg="http://www.w3.org/2000/svg" xmlns:cc="http://creativecommons.org/ns#" xmlns:sodipodi="http://sodipodi.sourceforge.net/DTD/sodipodi-0.dtd" xmlns:inkscape="http://www.inkscape.org/namespaces/inkscape"
	 xmlns="http://www.w3.org/2000/svg" xmlns:xlink="http://www.w3.org/1999/xlink" x="0px" y="0px" width="32px" height="32px"
	 viewBox="0 0 32 32" enable-background="new 0 0 32 32" xml:space="preserve">
<defs>
	
	
		<inkscape:perspective  id="perspective270" sodipodi:type="inkscape:persp3d" inkscape:vp_z="32 : 16 : 1" inkscape:vp_x="0 : 16 : 1" inkscape:vp_y="0 : 1000 : 0" inkscape:persp3d-origin="16 : 10.666667 : 1">
		</inkscape:perspective>
</defs>
<sodipodi:namedview  id="namedview264" pagecolor="#ffffff" bordercolor="#666666" borderopacity="1" objecttolerance="10" gridtolerance="10" showgrid="false" guidetolerance="10" inkscape:zoom="3.8678895" inkscape:cx="64.687682" inkscape:cy="-5.6809521" inkscape:pageopacity="0" inkscape:pageshadow="2" inkscape:window-width="1680" inkscape:window-height="981" inkscape:window-x="-4" inkscape:window-y="-4" inkscape:current-layer="Layer_1" inkscape:window-maximized="1">
	</sodipodi:namedview>
<g>
	<g>
		<path fill="#1D1D1B" d="M24.101,32c-0.127,0-0.254-0.029-0.372-0.086c-0.281-0.143-0.461-0.43-0.461-0.746v-2.621H12.814
			c-0.22,0-0.433-0.088-0.589-0.244s-0.244-0.367-0.244-0.59v-7.119c0-0.459,0.375-0.832,0.833-0.832h3.667
			c0.219,0,0.432,0.088,0.588,0.244s0.245,0.367,0.245,0.588v2.621h5.948L23.251,20.6c-0.004-0.316,0.176-0.605,0.457-0.75
			c0.119-0.059,0.247-0.088,0.375-0.088c0.177,0,0.352,0.057,0.5,0.166l7.066,5.285c0.209,0.156,0.332,0.404,0.332,0.668
			c0,0.262-0.123,0.508-0.332,0.664l-7.049,5.291C24.454,31.945,24.278,32,24.101,32z"/>
		<polygon fill="#E31518" points="31.147,25.881 24.083,20.594 24.101,24.049 16.481,24.049 16.481,20.594 12.814,20.594 
			12.814,27.713 24.101,27.713 24.101,31.168 		"/>
		
			<linearGradient id="SVGID_1_" gradientUnits="userSpaceOnUse" x1="13.6494" y1="60.0889" x2="29.7598" y2="60.0889" gradientTransform="matrix(1 0 0 1 0 -34.625)">
			<stop  offset="0" style="stop-color:#F29A9F"/>
			<stop  offset="1" style="stop-color:#921915"/>
		</linearGradient>
		<polygon fill="url(#SVGID_1_)" points="24.935,26.881 13.649,26.881 13.649,21.428 15.646,21.428 15.646,24.881 24.939,24.881 
			24.925,22.264 29.76,25.881 24.935,29.5 		"/>
	</g>
	<g>
		<g>
			<path id="path4251_1_" fill="#13120D" d="M9.464,24.031c-0.439,0-0.835-0.262-1.005-0.664l-0.315-0.742
				c-0.059,0.002-0.198,0.004-0.207,0.004l-0.303,0.746c-0.025,0.061-0.063,0.119-0.111,0.166l-0.306,0.313
				c-0.097,0.1-0.229,0.154-0.366,0.156c0,0-0.436,0.004-0.438,0.004c-0.067,0-0.135-0.012-0.195-0.037l-2.475-1.002
				c-0.414-0.168-0.682-0.564-0.682-1.012c0-0.145,0.029-0.283,0.083-0.412l0.305-0.756c-0.047-0.045-0.095-0.092-0.142-0.139
				l-0.513,0.219C2.5,21,2.5,21,2.438,21.012c-0.03,0.006-0.06,0.01-0.093,0.01H1.914c-0.137,0-0.267-0.055-0.363-0.148L1.239,20.57
				c-0.049-0.049-0.088-0.105-0.115-0.168l-1.041-2.459c-0.026-0.063-0.041-0.131-0.042-0.201L0.04,17.307
				c-0.001-0.137,0.055-0.27,0.15-0.367l0.304-0.311c0.048-0.049,0.104-0.086,0.168-0.115l0.733-0.311
				c-0.003-0.055-0.004-0.197-0.004-0.217c-0.333-0.133-0.692-0.279-0.73-0.293c-0.065-0.025-0.126-0.064-0.178-0.117l-0.307-0.303
				c-0.099-0.096-0.153-0.229-0.155-0.365l-0.003-0.434c-0.001-0.07,0.012-0.139,0.038-0.201l1.001-2.477
				c0.025-0.063,0.063-0.119,0.111-0.168l0.304-0.311c0.098-0.098,0.229-0.156,0.367-0.156c0,0,0.438-0.006,0.441-0.006
				c0.066,0,0.134,0.014,0.196,0.039l0.759,0.309c0.045-0.047,0.091-0.094,0.138-0.141c0,0-0.33-0.781-0.331-0.783
				c-0.021-0.055-0.031-0.115-0.031-0.174v-0.037c-0.143-0.203-0.127-0.484,0.054-0.666l0.399-0.408
				c0.049-0.047,0.104-0.086,0.167-0.113l2.457-1.041c0.139-0.057,0.278-0.086,0.425-0.086c0.439,0,0.835,0.262,1.005,0.666
				l0.315,0.738c0.055,0,0.195-0.002,0.208-0.002l0.302-0.746c0.168-0.414,0.565-0.68,1.011-0.68c0.14,0,0.275,0.025,0.404,0.078
				l2.477,1.004c0.413,0.168,0.68,0.564,0.68,1.01c0,0.139-0.027,0.273-0.078,0.406l-0.31,0.764c0.047,0.045,0.094,0.09,0.14,0.137
				l0.755-0.318c0.063-0.027,0.131-0.041,0.2-0.041c0,0,0.437-0.004,0.438-0.004c0.138,0,0.269,0.053,0.365,0.148l0.312,0.303
				c0.049,0.049,0.089,0.105,0.115,0.168l1.042,2.461c0.029,0.064,0.041,0.133,0.042,0.201l0.002,0.434
				c0,0.137-0.054,0.27-0.149,0.367l-0.304,0.311c-0.049,0.049-0.104,0.086-0.168,0.115l-0.733,0.311
				c0.004,0.055,0.005,0.197,0.005,0.215l0.731,0.299c0.063,0.025,0.12,0.063,0.168,0.109l0.313,0.303
				c0.1,0.098,0.156,0.229,0.158,0.369l0.005,0.434c0.001,0.07-0.012,0.139-0.038,0.201l-1.001,2.477
				c-0.171,0.414-0.567,0.68-1.012,0.68c-0.14,0-0.273-0.027-0.403-0.078l-0.763-0.309c-0.048,0.047-0.095,0.096-0.142,0.141
				c0.159,0.371,0.328,0.771,0.338,0.797c0.017,0.055,0.027,0.107,0.027,0.164l0.001,0.428c0.001,0.137-0.054,0.268-0.148,0.365
				l-0.305,0.313c-0.048,0.049-0.106,0.088-0.17,0.115l-2.457,1.043C9.751,24.004,9.608,24.031,9.464,24.031L9.464,24.031z
				 M6.284,22.162c0.14-0.342,0.39-0.961,0.39-0.961C6.755,21,6.947,20.873,7.157,20.873c0.019,0,0.037,0.002,0.056,0.004
				l0.248,0.025c0.179,0.02,0.354,0.029,0.531,0.029c0.201,0,0.401-0.012,0.598-0.037l0.252-0.031
				c0.021-0.004,0.042-0.004,0.063-0.004c0.206,0,0.398,0.123,0.48,0.318l0.403,0.955c0.389-0.164,0.932-0.395,1.322-0.559
				l-0.404-0.955c-0.092-0.215-0.03-0.465,0.153-0.611l0.195-0.156c0.293-0.236,0.559-0.506,0.792-0.805l0.152-0.195
				c0.1-0.133,0.254-0.203,0.412-0.203c0.065,0,0.132,0.01,0.195,0.037l0.965,0.389c0.11-0.271,0.537-1.332,0.537-1.332
				l-0.962-0.389c-0.216-0.088-0.348-0.309-0.322-0.539l0.027-0.248c0.02-0.178,0.029-0.35,0.029-0.523
				c0-0.207-0.013-0.41-0.038-0.602l-0.032-0.248c-0.033-0.232,0.098-0.457,0.313-0.547l0.958-0.406l-0.561-1.324
				c-0.421,0.18-0.956,0.406-0.956,0.406c-0.065,0.027-0.135,0.041-0.203,0.041c-0.155,0-0.307-0.07-0.407-0.197l-0.156-0.193
				c-0.235-0.293-0.507-0.559-0.805-0.791l-0.196-0.152c-0.185-0.143-0.251-0.391-0.163-0.607l0.39-0.963L9.693,9.92
				c-0.172,0.424-0.39,0.963-0.39,0.963c-0.08,0.199-0.272,0.326-0.484,0.326c-0.018,0-0.035-0.002-0.055-0.004l-0.25-0.025
				c-0.178-0.02-0.353-0.029-0.53-0.029c-0.2,0-0.402,0.012-0.601,0.037l-0.242,0.031c-0.022,0.004-0.045,0.004-0.067,0.004
				c-0.208,0-0.399-0.123-0.48-0.318L6.188,9.949c-0.39,0.166-0.934,0.396-1.322,0.561l0.404,0.957
				c0.092,0.215,0.028,0.465-0.153,0.609l-0.196,0.158c-0.294,0.232-0.558,0.504-0.792,0.801l-0.15,0.195
				c-0.101,0.131-0.255,0.203-0.413,0.203c-0.066,0-0.132-0.012-0.195-0.037c0,0-0.535-0.217-0.963-0.391
				c0,0-0.413,1.02-0.539,1.332c0.424,0.172,0.962,0.389,0.962,0.389c0.217,0.088,0.349,0.309,0.323,0.541l-0.028,0.248
				c-0.018,0.174-0.028,0.35-0.028,0.523c0,0.199,0.012,0.402,0.037,0.607l0.031,0.248c0.028,0.232-0.1,0.453-0.314,0.545
				c0,0-0.532,0.225-0.955,0.402c0.165,0.391,0.396,0.934,0.561,1.322c0.419-0.178,0.953-0.406,0.953-0.406
				c0.066-0.027,0.137-0.041,0.205-0.041c0.155,0,0.307,0.07,0.408,0.195l0.156,0.195c0.235,0.295,0.506,0.559,0.801,0.789
				l0.198,0.154c0.185,0.141,0.252,0.391,0.164,0.609l-0.39,0.965L6.284,22.162z"/>
			<path id="path1817_1_" fill="#FFFFFF" d="M12.912,14.705c0.078,0.504,0.086,1.021,0.013,1.539l0.561,0.229
				c0.034-0.439,0.021-0.877-0.047-1.303l1.447-0.615l-1.042-2.457l-0.359,0.152l0.793,1.877L12.912,14.705z"/>
			<path id="path1819_1_" fill="#FFFFFF" d="M11.979,18.576C11.672,19,11.306,19.369,10.9,19.674l0.577,1.369l-2.314,0.982
				l-0.579-1.367c-0.503,0.078-1.021,0.086-1.539,0.012l-0.558,1.377l-2.038-0.826l-0.295,0.73l2.472,1.002l0.593-1.461
				c0.549,0.076,1.099,0.07,1.632-0.014l0.613,1.449l2.457-1.041l-0.615-1.447c0.432-0.324,0.82-0.717,1.145-1.164l1.46,0.59
				l1.002-2.473l-0.729-0.295l-0.824,2.039L11.979,18.576z"/>
			<path id="path1821_1_" fill="#FFFFFF" d="M3.611,18.646l-1.368,0.578L1.45,17.35l-0.361,0.154l1.04,2.457l1.449-0.615
				c0.26,0.348,0.564,0.66,0.902,0.941l0.229-0.563C4.287,19.416,3.918,19.051,3.611,18.646z"/>
			
				<linearGradient id="path1830_2_" gradientUnits="userSpaceOnUse" x1="-709.6553" y1="99.6016" x2="-708.9932" y2="99.6016" gradientTransform="matrix(5.1929 22.7877 -22.7877 5.1929 5961.4082 15664.1328)">
				<stop  offset="0" style="stop-color:#FBFAFD"/>
				<stop  offset="0.5773" style="stop-color:#8FBF26"/>
				<stop  offset="1" style="stop-color:#FBFBFA"/>
			</linearGradient>
			<path id="path1830_1_" fill="url(#path1830_2_)" d="M2.525,15.258c-0.055,0.379-0.065,0.758-0.04,1.131
				c0.011,0.168,0.026,0.336,0.054,0.502L1.451,17.35l0.794,1.875l1.368-0.578c0.306,0.406,0.675,0.771,1.098,1.08l-0.229,0.561
				c0.086,0.07,0.171,0.141,0.26,0.203l-0.294,0.73l2.037,0.826l0.558-1.377c0.518,0.072,1.035,0.066,1.54-0.012l0.579,1.367
				l2.315-0.982l-0.579-1.369c0.407-0.305,0.772-0.674,1.08-1.098l1.378,0.559l0.824-2.039l-0.729-0.293
				c0.017-0.111,0.024-0.221,0.033-0.33l-0.561-0.229c0.074-0.518,0.065-1.035-0.012-1.539l1.368-0.578l-0.795-1.877l-1.087,0.463
				c-0.1-0.135-0.209-0.262-0.321-0.385c-0.252-0.279-0.533-0.533-0.84-0.76l0.59-1.459L9.355,9.107l-0.594,1.461
				c-0.551-0.08-1.099-0.07-1.632,0.012L6.514,9.131L6.444,9.16l-2.316,0.98l-0.07,0.031l0.615,1.449
				c-0.433,0.324-0.819,0.715-1.144,1.162l-1.461-0.59L1.242,14.23l-0.176,0.436L2.525,15.258z M7.169,18.051
				c-0.81-0.328-1.314-1.088-1.356-1.908c-0.017-0.309,0.03-0.625,0.154-0.934c0.45-1.113,1.723-1.654,2.839-1.201
				c0.306,0.121,0.567,0.311,0.775,0.537c0.56,0.6,0.755,1.492,0.428,2.303C9.559,17.965,8.286,18.502,7.169,18.051z"/>
			<path id="path4266_1_" fill="#13120D" d="M10.241,16.936c0.5-1.236-0.099-2.646-1.335-3.146
				c-1.235-0.502-2.646,0.098-3.147,1.334c-0.5,1.232,0.099,2.646,1.335,3.146C8.329,18.77,9.741,18.172,10.241,16.936z
				 M9.804,16.758c-0.401,0.996-1.538,1.475-2.531,1.074c-0.995-0.402-1.476-1.539-1.074-2.531c0.402-0.996,1.538-1.477,2.532-1.076
				C9.725,14.629,10.205,15.766,9.804,16.758z"/>
			<path id="path1834_1_" fill="#1D1D1B" d="M10.229,16.936c0.501-1.234-0.099-2.645-1.335-3.146
				c-1.235-0.5-2.646,0.098-3.146,1.334c-0.5,1.234,0.098,2.646,1.334,3.146C8.317,18.77,9.729,18.172,10.229,16.936z M9.792,16.76
				c-0.402,0.994-1.539,1.473-2.533,1.072c-0.994-0.402-1.476-1.539-1.072-2.533c0.402-0.994,1.538-1.475,2.531-1.072
				S10.193,15.766,9.792,16.76z"/>
			<path id="path1838_1_" fill="#74B62E" d="M9.696,23.465l2.457-1.043l0.305-0.313l-0.002-0.428
				c-0.001-0.002-0.311-0.73-0.466-1.096c0.222-0.193,0.426-0.402,0.62-0.627c0.289,0.117,1.098,0.445,1.098,0.445
				c0.29,0.115,0.62-0.025,0.739-0.313l1-2.477l-0.005-0.436l-0.313-0.303c0,0-0.711-0.289-1.079-0.438
				c0.009-0.133,0.022-0.266,0.022-0.396c0-0.166-0.017-0.332-0.033-0.496c0.297-0.127,1.078-0.457,1.078-0.457l0.305-0.311
				l-0.002-0.432l-1.043-2.461l-0.31-0.303l-0.436,0.002c0,0-0.804,0.342-1.091,0.463c-0.196-0.223-0.403-0.428-0.628-0.619
				c0.117-0.289,0.444-1.098,0.444-1.098c0.029-0.07,0.042-0.141,0.042-0.213c0-0.223-0.135-0.438-0.353-0.527L9.572,8.59
				c-0.29-0.115-0.62,0.023-0.738,0.314c0,0-0.289,0.713-0.44,1.084c-0.295-0.02-0.595-0.014-0.893,0.01
				C7.377,9.699,7.044,8.92,7.044,8.92c-0.12-0.287-0.453-0.422-0.743-0.303L3.846,9.66L3.542,9.967l-0.095,0.098L3.54,9.969
				L3.543,10.4c0.001,0.002,0.311,0.732,0.464,1.094c-0.219,0.193-0.427,0.402-0.617,0.629c-0.291-0.117-1.099-0.445-1.099-0.445
				l-0.435,0.004l-0.304,0.311l-1.002,2.475l0.004,0.436l0.308,0.303c0.001,0,0.715,0.289,1.084,0.438
				c-0.009,0.133-0.021,0.266-0.021,0.396c0,0.168,0.018,0.332,0.032,0.498c-0.3,0.127-1.076,0.457-1.076,0.457l-0.305,0.309
				l0.003,0.434l1.041,2.459l0.309,0.303h0.434c0.002-0.002,0.729-0.313,1.095-0.467c0.194,0.223,0.403,0.428,0.627,0.619
				c-0.116,0.289-0.445,1.098-0.445,1.098c-0.03,0.07-0.041,0.143-0.041,0.213c0,0.225,0.134,0.438,0.354,0.527l2.474,1.002
				l0.433-0.004l0.308-0.311c0,0,0.315-0.779,0.438-1.082c0.301,0.02,0.598,0.016,0.893-0.01c0.128,0.301,0.458,1.078,0.458,1.078
				C9.074,23.449,9.407,23.584,9.696,23.465z M7.076,21.627c0,0-0.43,1.063-0.49,1.213c-0.158-0.063-2.143-0.865-2.298-0.93
				c0.09-0.223,0.586-1.445,0.586-1.445l-0.199-0.154c-0.327-0.252-0.626-0.547-0.889-0.875l-0.157-0.197
				c0,0-1.285,0.549-1.437,0.611c-0.064-0.152-0.899-2.127-0.967-2.283c0.223-0.096,1.437-0.609,1.437-0.609L2.63,16.709
				c-0.027-0.221-0.04-0.445-0.04-0.67c0-0.193,0.011-0.387,0.032-0.58l0.027-0.248c0,0-1.293-0.523-1.445-0.586
				c0.065-0.158,0.866-2.141,0.93-2.297c0.226,0.09,1.445,0.584,1.445,0.584l0.153-0.197c0.258-0.33,0.553-0.629,0.877-0.889
				l0.195-0.156c0,0-0.546-1.287-0.609-1.438c0.146-0.061,2.126-0.9,2.283-0.967c0.095,0.221,0.609,1.436,0.609,1.436l0.248-0.031
				c0.416-0.051,0.837-0.055,1.248-0.01l0.251,0.025c0,0,0.523-1.293,0.583-1.445c0.159,0.064,2.143,0.867,2.3,0.932
				c-0.091,0.221-0.587,1.445-0.587,1.445l0.198,0.152c0.326,0.256,0.626,0.551,0.89,0.877l0.156,0.193c0,0,1.286-0.543,1.438-0.607
				c0.067,0.16,0.902,2.129,0.968,2.285c-0.213,0.088-1.439,0.609-1.439,0.609l0.033,0.246c0.029,0.221,0.042,0.445,0.042,0.67
				c0,0.193-0.011,0.385-0.032,0.578l-0.025,0.248c0,0,1.292,0.523,1.444,0.584c-0.064,0.16-0.866,2.143-0.931,2.299
				c-0.151-0.061-1.445-0.584-1.445-0.584l-0.153,0.197c-0.258,0.33-0.552,0.631-0.875,0.891l-0.196,0.156
				c0,0,0.543,1.285,0.608,1.436c-0.155,0.064-2.125,0.902-2.283,0.967c-0.094-0.221-0.607-1.436-0.607-1.436L8.67,21.41
				c-0.409,0.053-0.828,0.055-1.248,0.01l-0.25-0.029L7.076,21.627L7.076,21.627z"/>
		</g>
		<g>
			<path id="path4992_3_" fill="#13120D" d="M12.554,0.006c-0.021,0.008-0.041,0.014-0.06,0.021c0.001,0-0.063,0.021-0.063,0.021
				c0.001,0-0.082,0.02-0.08,0.02s-0.064,0.041-0.064,0.039c0.002,0-0.063,0.043-0.063,0.041c0.002,0-0.063,0.041-0.061,0.041
				c0.003,0-0.063,0.041-0.061,0.039l-0.064,0.063c0.003,0-0.043,0.063-0.041,0.059c0.002,0-0.041,0.064-0.041,0.063
				c0.002,0-0.04,0.063-0.04,0.063s-0.042,0.082-0.039,0.082c0,0-0.022,0.063-0.022,0.061c0,0-0.021,0.084-0.021,0.08l-0.02,0.082
				v0.063c0,0,0,0.039,0,0.063c0,0.008,0,0.02,0,0.02v3.938h-3.93c0,0-0.014,0-0.021,0c-0.012,0-0.02,0-0.02,0
				c0.002,0-0.044,0-0.041,0c-0.011,0-0.018,0-0.021,0H7.739L7.698,4.885c0.002-0.004-0.04,0-0.04,0
				c0.001-0.004-0.042,0.02-0.042,0.02c0.003,0-0.041,0-0.039,0c0,0-0.041,0.02-0.039,0.02L7.497,4.947
				c0.002,0-0.042,0.02-0.041,0.02l-0.04,0.021c0.001,0-0.021,0.021-0.021,0.021S7.356,5.027,7.361,5.027
				c0,0-0.044,0.021-0.042,0.021l-0.021,0.02L7.257,5.109c0.002,0-0.018,0.018-0.018,0.018S7.197,5.148,7.198,5.148L7.177,5.189
				c0.002,0-0.021,0.041-0.021,0.041L7.135,5.252c0,0-0.04,0.043-0.04,0.039c0.001,0-0.021,0.043-0.021,0.043
				s-0.02,0.039-0.02,0.035c0,0-0.002,0.023,0,0.023c0,0-0.021,0.043-0.021,0.039L7.011,5.475v0.039l-0.02,0.043v0.039L6.971,5.639
				v0.039c0,0,0,0.043,0,0.039V5.76v4.52v0.041v0.041v0.041l0.021,0.041c0,0,0,0.041,0,0.039l0.02,0.063l0.022,0.043v0.039
				c0,0,0.021,0.039,0.021,0.037c-0.002,0,0.02,0.043,0.02,0.041c0,0,0.022,0.041,0.021,0.041l0.02,0.021
				c0,0,0.044,0.039,0.041,0.039l0.021,0.043l0.021,0.039c0,0,0.041,0.021,0.041,0.02c-0.002,0,0.021,0.043,0.021,0.043
				c-0.001,0,0.042,0.02,0.042,0.02c-0.003,0,0.041,0.021,0.039,0.021c0,0,0.041,0.037,0.039,0.037l0.021,0.023
				c0,0,0.041,0.02,0.039,0.02l0.041,0.02c-0.002,0,0.041,0.023,0.041,0.023c-0.002-0.004,0.041,0,0.041,0
				c-0.002-0.004,0.04,0.02,0.04,0.02c-0.001,0,0.063,0.02,0.063,0.02s0.041,0,0.039,0c-0.001,0,0.043,0.023,0.041,0.023
				s0.041,0,0.041,0c-0.002,0,0.042,0,0.042,0c-0.003,0,0.04,0,0.04,0h3.96v3.938v0.02c-0.003,0.016,0,0.021,0,0.021v0.041
				c0,0.008,0,0.016,0,0.02v0.043c-0.003,0,0.021,0.039,0.021,0.039c-0.002,0,0,0.043,0,0.039c-0.002,0,0.02,0.043,0.02,0.043v0.039
				l0.022,0.043c-0.003,0,0.021,0.039,0.021,0.039c-0.002,0,0.021,0.043,0.021,0.043c-0.003,0,0.021,0.039,0.021,0.039l0.021,0.023
				c-0.002,0,0.021,0.039,0.021,0.039c-0.002,0,0.021,0.039,0.021,0.039c-0.001,0,0.021,0.02,0.021,0.02s0.042,0.043,0.042,0.039
				l0.021,0.023c-0.002,0,0.021,0.039,0.021,0.039c-0.002,0,0.041,0.021,0.041,0.02c-0.002,0,0.039,0.02,0.039,0.02l0.021,0.023
				c-0.002,0,0.041,0.039,0.041,0.039c-0.002,0,0.042,0.02,0.039,0.02c0,0,0.043,0.023,0.042,0.023c0-0.002,0.021,0,0.021,0
				c-0.002-0.002,0.042,0.02,0.042,0.02c-0.003,0,0.04,0.02,0.04,0.02c-0.001,0,0.041,0.002,0.039,0c0,0,0.043,0.023,0.041,0.023
				h0.041l0.042,0.016c-0.003,0,0.04,0,0.04,0c-0.001,0,0.041,0,0.041,0c-0.002,0,0.041,0,0.039,0h4.523c-0.003,0,0.041,0,0.041,0
				c-0.004,0,0.041,0,0.041,0c-0.004,0,0.04,0,0.04,0c-0.003,0,0.042-0.02,0.04-0.02c-0.004,0,0.043,0,0.041,0
				s0.063-0.021,0.063-0.021c0,0.002,0.041-0.021,0.041-0.021c0,0.004,0.042,0,0.042,0c-0.003,0.004,0.04-0.02,0.04-0.02
				c-0.001,0,0.041-0.02,0.041-0.02c-0.002,0,0.041-0.023,0.041-0.023c-0.002,0,0.021-0.02,0.021-0.02
				c-0.003,0,0.041-0.043,0.039-0.043s0.039-0.02,0.039-0.02l0.041-0.02l0.021-0.043c-0.002,0,0.041-0.02,0.041-0.02
				c-0.002,0,0.021-0.043,0.021-0.041c0,0,0.021-0.041,0.021-0.039c0,0,0.042-0.043,0.042-0.041l0.021-0.02
				c-0.003,0,0.021-0.043,0.021-0.043c-0.002,0,0.021-0.043,0.021-0.043c-0.002,0,0.021-0.039,0.021-0.039s0-0.043,0-0.039
				c0,0,0.021-0.043,0.021-0.039c-0.002,0,0.021-0.064,0.021-0.063c-0.002,0,0-0.043,0-0.043c-0.002,0,0.021-0.043,0.021-0.039
				c-0.001,0,0-0.043,0-0.039V15.17v-0.039v-3.957h3.949c-0.004,0,0.042,0,0.039,0c-0.002,0,0.043,0,0.042,0c-0.003,0,0.04,0,0.04,0
				c-0.001,0,0.041-0.021,0.041-0.021c-0.002,0,0.041-0.002,0.041,0c-0.002,0,0.063-0.021,0.063-0.021
				c-0.002,0,0.042-0.02,0.042-0.02c-0.003,0,0.04-0.002,0.04,0c-0.001,0,0.041-0.023,0.039-0.023c0,0,0.043-0.02,0.041-0.02
				c0,0.002,0.041-0.02,0.041-0.02l0.021-0.023l0.041-0.039l0.041-0.02c-0.002,0,0.04-0.021,0.04-0.021
				c-0.001,0,0.021-0.041,0.021-0.041c-0.002,0,0.042-0.02,0.042-0.02c-0.003,0,0.021-0.043,0.021-0.043
				c-0.002,0,0.021-0.039,0.021-0.039c-0.003,0,0.041-0.043,0.041-0.043c-0.004,0,0.021-0.02,0.021-0.02
				c-0.003,0,0.021-0.041,0.021-0.041l0.021-0.039l0.021-0.041c-0.002,0,0-0.041,0-0.041c-0.002,0,0.021-0.041,0.021-0.041
				c-0.001,0,0.021-0.063,0.021-0.063c-0.002,0,0-0.039,0-0.039c-0.002,0,0.021-0.041,0.021-0.041s0-0.041,0-0.039
				c0,0,0-0.043,0-0.041v-0.041V5.75c0,0,0-0.041,0-0.037V5.67V5.631c0,0-0.021-0.043-0.021-0.039c0,0-0.002-0.043,0-0.043
				l-0.021-0.063L22.95,5.447c0,0-0.002-0.043,0-0.039l-0.021-0.043l-0.021-0.039c0,0-0.021-0.041-0.021-0.039l-0.021-0.02
				l-0.041-0.043l-0.021-0.039l-0.021-0.043l-0.042-0.02L22.721,5.08l-0.04-0.02L22.64,5.039c0.002,0-0.041-0.041-0.041-0.041
				c0.002,0-0.021-0.02-0.021-0.02c0.003,0-0.041-0.023-0.041-0.023c0.002,0-0.041-0.02-0.041-0.02c0.002,0-0.04-0.021-0.039-0.021
				c0,0.002-0.043,0-0.04,0c0.001,0.002-0.042-0.021-0.042-0.021c0,0.002-0.063-0.02-0.063-0.02h-0.041
				c0.002,0-0.041-0.023-0.041-0.023c0.002,0-0.04,0-0.04,0c0.001,0-0.042,0-0.042,0c0.003,0-0.041,0-0.039,0h-3.963V0.893V0.85
				V0.811c0,0-0.002-0.039,0-0.039c0,0-0.021-0.043-0.021-0.039V0.689l-0.021-0.063c0,0-0.021-0.043-0.021-0.039
				c0,0-0.002-0.043,0-0.043l-0.021-0.039l-0.021-0.039l-0.021-0.043l-0.021-0.02c0,0-0.043-0.041-0.041-0.041l-0.021-0.041
				l-0.021-0.039c0,0-0.042-0.02-0.039-0.02l-0.022-0.043l-0.04-0.02l-0.042-0.02c0.003,0-0.041-0.043-0.041-0.039
				c0.002,0-0.02-0.023-0.02-0.021c0.001,0-0.043-0.021-0.041-0.021L17.63,0.08c0.004,0-0.041-0.02-0.041-0.02
				c0.004,0-0.04,0-0.04,0c0.003,0-0.04-0.021-0.039-0.021l-0.063-0.02c0,0-0.044,0-0.042,0l-0.039-0.018c0.003,0-0.041,0-0.039,0
				c0,0-0.043,0-0.041,0s-0.042,0-0.041,0h-4.479c0.001,0-0.043,0-0.041,0s-0.044,0-0.041,0c0,0-0.011,0-0.021,0
				c0,0-0.016,0-0.021,0c0.001,0-0.042,0-0.039,0c-0.017,0-0.03,0-0.042,0V0L12.554,0.006L12.554,0.006z"/>
			<path id="rect4855-4_3_" fill="#74B62E" d="M12.724,0.895V5.74H7.877v4.523h4.847v4.85h4.523v-4.85h4.849V5.74h-4.849V0.895
				H12.724z"/>
			<linearGradient id="path4903-3_1_" gradientUnits="userSpaceOnUse" x1="21.4932" y1="8.0059" x2="8.7202" y2="8.0059">
				<stop  offset="0" style="stop-color:#BAD585"/>
				<stop  offset="1" style="stop-color:#158A38"/>
			</linearGradient>
			<path id="path4903-3_3_" fill="url(#path4903-3_1_)" d="M13.288,1.459v4.852H8.442v3.395h4.846v4.848h3.395V9.705h4.851V6.311
				h-4.851V1.459H13.288z"/>
		</g>
	</g>
</g>
</svg>
