<?xml version="1.0" encoding="utf-8"?>
<!-- Generator: Adobe Illustrator 15.0.0, SVG Export Plug-In . SVG Version: 6.00 Build 0)  -->
<!DOCTYPE svg PUBLIC "-//W3C//DTD SVG 1.1//EN" "http://www.w3.org/Graphics/SVG/1.1/DTD/svg11.dtd">
<svg version="1.1" id="Layer_1" xmlns="http://www.w3.org/2000/svg" xmlns:xlink="http://www.w3.org/1999/xlink" x="0px" y="0px"
	 width="32px" height="32px" viewBox="0 0 32 32" enable-background="new 0 0 32 32" xml:space="preserve">
<g>
	<path d="M13,0c-0.001,0-0.002,0-0.003,0C5.83,0.003,0,5.834,0,13.001c0,7.169,5.832,13.001,13,13.001s13-5.832,13-13.001
		S20.168,0,13,0z"/>
	<path fill="#FCEA03" d="M13,1C6.371,1.001,1,6.374,1,13h12V1z"/>
	<path d="M25,13.001C25,6.372,19.625,1,13,1v12.001H25z"/>
	<path fill="#FCEA03" d="M13,25.002c6.629,0,12-5.373,12-12.001H13V25.002z"/>
	<path d="M1,13.001c0,6.63,5.373,12.001,12,12.001V13.001H1z"/>
</g>
<path fill="#FFFFFF" d="M24.812,18.654l-6.991-3.537c-0.264-0.132-0.558-0.202-0.849-0.202c-0.35,0-0.691,0.097-0.992,0.281
	c-0.562,0.347-0.896,0.948-0.896,1.608v9.11C19.39,25.246,22.996,22.463,24.812,18.654z"/>
<g id="g2889">
	<g id="g3_1_">
		<path d="M31.512,23.123L17.29,15.928c-0.128-0.064-0.265-0.096-0.401-0.096c-0.162,0-0.324,0.044-0.466,0.132
			C16.16,16.125,16,16.412,16,16.721v14.391c0,0.309,0.16,0.596,0.423,0.757C16.564,31.956,16.727,32,16.889,32
			c0.137,0,0.275-0.032,0.402-0.096l14.222-7.195C31.812,24.558,32,24.251,32,23.915C32,23.58,31.812,23.274,31.512,23.123z"/>
		<polygon id="polygon7_1_" fill="#74B730" points="16.889,31.111 16.889,16.721 31.111,23.915 		"/>
		
			<linearGradient id="SVGID_1_" gradientUnits="userSpaceOnUse" x1="299.4375" y1="-395.8755" x2="310.8027" y2="-395.8755" gradientTransform="matrix(1 0 0 -1 -281.6602 -371.96)">
			<stop  offset="0" style="stop-color:#BED789"/>
			<stop  offset="1" style="stop-color:#1C8C37"/>
		</linearGradient>
		<polygon fill="url(#SVGID_1_)" points="17.777,18.166 29.143,23.915 17.777,29.665 		"/>
	</g>
</g>
</svg>
