<?xml version="1.0" encoding="utf-8"?>
<!-- Generator: Adobe Illustrator 14.0.0, SVG Export Plug-In . SVG Version: 6.00 Build 43363)  -->
<!DOCTYPE svg PUBLIC "-//W3C//DTD SVG 1.1//EN" "http://www.w3.org/Graphics/SVG/1.1/DTD/svg11.dtd">
<svg version="1.1" id="Layer_1" xmlns="http://www.w3.org/2000/svg" xmlns:xlink="http://www.w3.org/1999/xlink" x="0px" y="0px"
	 width="32px" height="32px" viewBox="0 0 32 32" enable-background="new 0 0 32 32" xml:space="preserve">
<path d="M16,31C7.729,31,1,24.271,1,16C1,7.729,7.729,1,16,1c8.271,0,15,6.729,15,15C31,24.271,24.271,31,16,31L16,31z
	 M10.694,24.839l4.6-4.599c0.195-0.195,0.451-0.293,0.707-0.293s0.512,0.098,0.707,0.293l4.6,4.599l3.533-3.536l-4.598-4.598
	c-0.391-0.391-0.391-1.023,0-1.414l4.594-4.594l-3.535-3.536l-4.594,4.594c-0.195,0.195-0.451,0.293-0.707,0.293
	s-0.512-0.098-0.707-0.293L10.7,7.161l-3.537,3.536l4.595,4.594c0.188,0.188,0.293,0.442,0.293,0.707s-0.105,0.52-0.293,0.707
	l-4.6,4.598L10.694,24.839z"/>
<path fill="#EC2727" d="M16,2C8.268,2,2,8.268,2,16c0,7.732,6.268,14,14,14c7.732,0,14-6.268,14-14C30,8.268,23.732,2,16,2z
	 M21.308,26.253l-5.307-5.306l-5.307,5.306l-4.949-4.95l5.307-5.305l-5.303-5.301l4.951-4.95l5.301,5.301l5.301-5.301l4.949,4.95
	l-5.301,5.301l5.305,5.305L21.308,26.253z"/>
<linearGradient id="SVGID_1_" gradientUnits="userSpaceOnUse" x1="3" y1="16" x2="29" y2="16">
	<stop  offset="0" style="stop-color:#F6979A"/>
	<stop  offset="1" style="stop-color:#901A1D"/>
</linearGradient>
<path fill="url(#SVGID_1_)" d="M16,29C8.832,29,3,23.168,3,16C3,8.832,8.832,3,16,3c7.168,0,13,5.832,13,13
	C29,23.168,23.168,29,16,29L16,29z M21.308,27.667l6.361-6.364l-5.305-5.305l5.301-5.301l-6.363-6.364l-5.301,5.301L10.7,4.333
	l-6.366,6.364l5.303,5.301l-5.306,5.305l6.363,6.364l5.307-5.306L21.308,27.667z"/>
</svg>
