<?xml version="1.0" encoding="utf-8"?>
<!-- Generator: Adobe Illustrator 14.0.0, SVG Export Plug-In . SVG Version: 6.00 Build 43363)  -->
<!DOCTYPE svg PUBLIC "-//W3C//DTD SVG 1.1//EN" "http://www.w3.org/Graphics/SVG/1.1/DTD/svg11.dtd">
<svg version="1.1" id="Layer_1" xmlns="http://www.w3.org/2000/svg" xmlns:xlink="http://www.w3.org/1999/xlink" x="0px" y="0px"
	 width="32px" height="32px" viewBox="0 0 32 32" enable-background="new 0 0 32 32" xml:space="preserve">
<g>
	<path fill="#020202" d="M27.521,10.785c0.002-0.002,0.016-0.018,0.021-0.022c0.002-0.003-0.021-0.022-0.021-0.022v-0.043v-0.043
		c0,0,0.021-0.021,0.021-0.022c-0.004-0.009-0.02-0.019-0.021-0.022c-0.002-0.011-0.021-0.021-0.021-0.021l0.021-0.021
		c0-0.014-0.023-0.021-0.021-0.022s0-0.044,0-0.044c0.002-0.003,0-0.043,0-0.043s-0.018-0.014-0.021-0.021
		c-0.004-0.011-0.021-0.023-0.021-0.021c-0.006-0.016,0-0.044,0-0.044s0.008-0.025,0-0.044c-0.01-0.014-0.02-0.018-0.021-0.022
		c-0.004-0.009,0.021-0.022,0.021-0.022s-0.016-0.004-0.021-0.021c-0.004-0.016-0.021-0.063-0.021-0.064
		c0,0-0.018-0.012-0.021-0.022c-0.004-0.009,0.002-0.037,0.002-0.043c-0.012-0.01-0.02-0.019-0.023-0.022
		c-0.004-0.008-0.02-0.021-0.02-0.021c-0.004-0.01-0.023-0.021-0.023-0.021l0.023-0.022c-0.006-0.009-0.018-0.011-0.023-0.022
		c0,0-0.018-0.012-0.02-0.021c-0.01-0.008-0.018-0.018-0.021-0.021c-0.008-0.013,0-0.043,0-0.043c-0.002,0-0.02-0.02-0.021-0.021
		c-0.008-0.008-0.018-0.018-0.021-0.022c0,0-0.033-0.032-0.045-0.044c-0.006-0.007-0.018-0.018-0.021-0.021
		c-0.029-0.03-0.01-0.01-0.021-0.022l-4.949-4.95c-0.014-0.012,0.008,0.01-0.021-0.021c-0.008-0.007-0.018-0.017-0.021-0.022
		c-0.01-0.01-0.043-0.043-0.045-0.045c-0.008-0.007-0.016-0.017-0.02-0.021L22.076,4.72l-0.021,0.021c0,0-0.018-0.016-0.021-0.021
		c-0.006-0.007-0.016-0.016-0.02-0.022c0,0-0.012-0.016-0.023-0.021c-0.008-0.005-0.02-0.021-0.02-0.021
		c-0.014-0.004-0.023,0.021-0.023,0.021s-0.014-0.02-0.021-0.021c0,0-0.016-0.019-0.021-0.022c0,0.001-0.066-0.022-0.066-0.021
		c-0.01-0.006-0.02-0.021-0.02-0.021c-0.002,0.001-0.07-0.029-0.094-0.042l-0.02,0.019c0,0-0.016-0.019-0.02-0.021
		c0,0-0.031,0.003-0.045,0c0,0-0.016-0.021-0.021-0.022c-0.01,0.008-0.016,0.016-0.021,0.022c-0.012-0.002-0.018-0.022-0.021-0.022
		l-0.037-0.03c0,0-0.016-0.021-0.021-0.022c-0.012-0.002-0.021,0.021-0.021,0.022c-0.012-0.003-0.016-0.021-0.02-0.021
		c-0.004,0.003-0.023,0.022-0.023,0.022c0,0.001-0.02-0.02-0.02-0.022c-0.002,0.001-0.023,0.022-0.023,0.022s-0.012-0.02-0.02-0.021
		c-0.002,0.002-0.016-0.02-0.023-0.021c0,0.001-0.02,0.021-0.02,0.021h-0.045h-0.045c0,0-0.018-0.023-0.021-0.021
		c-0.006,0.005-0.021,0.021-0.021,0.021c-0.008,0.008-0.018,0.018-0.021,0.022c-0.002,0.002-0.02-0.022-0.021-0.022
		c-0.004,0.004-0.02,0.021-0.021,0.022c0.002,0.001-0.016-0.021-0.021-0.021c-0.014-0.003-0.021,0.021-0.021,0.021
		c-0.004,0.004-0.045,0-0.045,0s-0.016,0.015-0.021,0.021c-0.002,0.002-0.018,0.019-0.021,0.022c0,0.001-0.016-0.021-0.021-0.021
		c-0.002,0.002-0.01,0.024-0.02,0.021c-0.004,0.003-0.035-0.001-0.045,0c0,0-0.01,0.021-0.021,0.021
		c-0.014,0-0.033-0.022-0.033-0.022c-0.002,0-0.006,0.021-0.021,0.022c-0.004,0.004-0.037-0.002-0.043,0
		c0,0-0.016,0.014-0.021,0.021c-0.01,0.008-0.018,0.018-0.021,0.021c-0.004,0.002-0.02-0.022-0.023-0.021
		c-0.002,0.002-0.018,0.02-0.021,0.023c-0.014,0.011-0.02,0.018-0.023,0.021c0,0-0.016,0.018-0.021,0.021
		c-0.006,0.006-0.021,0.022-0.021,0.022s-0.014-0.024-0.021-0.022c0.002,0.002-0.016,0.019-0.021,0.022l-0.088,0.045
		c-0.002,0.001-0.035,0.035-0.045,0.044c0,0-0.025,0.026-0.021,0.022c-0.002,0.001-0.012,0.013-0.021,0.022
		c-0.008,0.008-0.016,0.014-0.021,0.021l-0.021,0.021L16,9.247l-4.395-4.396L11.583,4.83c-0.006-0.008-0.013-0.016-0.021-0.021
		c-0.011-0.01-0.021-0.021-0.022-0.022c0.004,0.004-0.021-0.022-0.021-0.022c-0.011-0.01-0.043-0.043-0.045-0.044l-0.089-0.045
		c-0.007-0.004-0.021-0.021-0.021-0.022c-0.01-0.002-0.022,0.022-0.022,0.022s-0.017-0.017-0.021-0.022
		c-0.006-0.004-0.022-0.021-0.022-0.021c-0.004-0.004-0.011-0.011-0.022-0.021c-0.008-0.004-0.023-0.021-0.024-0.023
		c-0.005-0.001-0.021,0.025-0.022,0.021c-0.006-0.006-0.014-0.014-0.021-0.021s-0.021-0.021-0.021-0.021
		c-0.006-0.002-0.039,0.004-0.043,0c-0.018-0.002-0.021-0.021-0.022-0.022c0,0-0.009,0.022-0.022,0.022
		c-0.013,0-0.021-0.022-0.021-0.022c-0.011-0.001-0.042,0.003-0.045,0c-0.011,0.003-0.019-0.021-0.021-0.022
		c-0.007,0-0.021,0.022-0.021,0.021c-0.004-0.004-0.021-0.021-0.021-0.021c-0.008-0.008-0.021-0.022-0.021-0.022
		s-0.04,0.004-0.045,0c0,0-0.01-0.024-0.021-0.022c-0.007,0-0.023,0.022-0.021,0.021c-0.002-0.004-0.02-0.02-0.021-0.022
		c-0.003,0-0.02,0.025-0.021,0.022c-0.006-0.006-0.016-0.016-0.021-0.022c-0.001-0.001-0.018-0.017-0.021-0.022
		c-0.004,0-0.021,0.022-0.021,0.022h-0.045h-0.044c0,0-0.021-0.021-0.021-0.022c-0.009,0.003-0.021,0.023-0.022,0.022
		c-0.011,0.001-0.021,0.021-0.021,0.021s-0.021-0.021-0.022-0.022c-0.002,0.002-0.021,0.023-0.021,0.022
		c0,0-0.021-0.019-0.022-0.022c-0.007,0-0.011,0.02-0.021,0.021c-0.002-0.002-0.012-0.025-0.021-0.022
		c-0.018,0.002-0.034,0.023-0.034,0.023l-0.022,0.022c-0.004,0-0.011,0.02-0.021,0.021c-0.007-0.008-0.015-0.014-0.022-0.021
		c-0.008,0.002-0.021,0.021-0.021,0.021c-0.014,0.003-0.044,0-0.044,0c-0.005,0.003-0.021,0.021-0.021,0.021l-0.02-0.02
		c-0.023,0.012-0.092,0.043-0.094,0.042c0,0-0.01,0.017-0.021,0.021c0,0-0.065,0.022-0.065,0.021
		c-0.008,0.005-0.021,0.021-0.021,0.021c-0.009,0.002-0.021,0.022-0.021,0.022s-0.012-0.024-0.022-0.022
		c0,0-0.015,0.018-0.021,0.022C10.01,4.674,10,4.691,10,4.691C9.992,4.697,9.982,4.707,9.976,4.713
		C9.97,4.718,9.954,4.736,9.954,4.736L9.931,4.713L9.909,4.736C9.904,4.74,9.896,4.75,9.888,4.756
		C9.886,4.758,9.853,4.792,9.843,4.801C9.838,4.806,9.829,4.816,9.82,4.824c-0.029,0.031-0.008,0.01-0.021,0.021l-4.95,4.95
		C4.837,9.806,4.857,9.787,4.828,9.818C4.824,9.822,4.812,9.833,4.806,9.839C4.794,9.851,4.761,9.883,4.761,9.883
		C4.756,9.888,4.747,9.898,4.739,9.906C4.736,9.908,4.718,9.926,4.718,9.926S4.726,9.958,4.717,9.97
		C4.712,9.976,4.704,9.986,4.695,9.992c-0.004,0.011-0.021,0.022-0.021,0.022c-0.007,0.013-0.017,0.015-0.022,0.022l0.022,0.021
		c0,0-0.019,0.014-0.022,0.022c0,0-0.017,0.014-0.021,0.022c-0.005,0.004-0.012,0.012-0.022,0.021c0,0.007,0.006,0.033,0.002,0.043
		c-0.006,0.011-0.022,0.021-0.022,0.021c0.001,0.002-0.017,0.049-0.021,0.065c-0.006,0.017-0.022,0.022-0.022,0.022
		s0.026,0.013,0.022,0.021c-0.004,0.006-0.014,0.01-0.022,0.021c-0.008,0.02,0,0.045,0,0.045s0.007,0.029,0,0.043
		c0.002,0-0.017,0.013-0.021,0.021C4.519,10.441,4.5,10.455,4.5,10.455S4.498,10.496,4.5,10.498c0,0-0.002,0.043,0,0.044
		c0.001,0.001-0.021,0.01-0.022,0.022L4.5,10.585c0,0-0.021,0.011-0.022,0.021c0,0.004-0.018,0.014-0.021,0.022
		c0.002,0.001,0.021,0.022,0.021,0.022s0.002,0.043,0,0.043l0.002,0.043c0,0-0.025,0.021-0.022,0.022
		c0.006,0.005,0.021,0.021,0.022,0.022c-0.004,0.011,0.024,0.01,0.021,0.021c0,0,0,0.042,0.001,0.043c-0.001,0.006,0,0.045,0,0.045
		c0.001,0.006,0,0.043,0,0.043s0.016,0.016,0.021,0.022c0.002,0.001,0.019,0.019,0.021,0.022c0.002,0.008-0.02,0.012-0.021,0.024
		c0.006,0.005,0.021,0.022,0.021,0.022s-0.007,0.022,0,0.043c0.003,0.018,0.021,0.022,0.021,0.022
		c0.004,0.011-0.021,0.022-0.021,0.022c0.003,0.002,0.021,0.063,0.023,0.065c0.007,0.009,0.015,0.017,0.021,0.022
		c0,0,0.017,0.015,0.022,0.021c0,0,0.022,0.068,0.021,0.066c0.002,0.003,0.025,0.01,0.021,0.021c0.007,0.01-0.004,0.041,0,0.043
		c0,0.016,0.045,0.045,0.045,0.045s0.017,0.017,0.021,0.021c0.012,0.021,0,0.044,0,0.044c0.002,0.001,0.021,0.021,0.021,0.022
		c0.006,0.004,0.017,0.017,0.021,0.021c0.002,0.001,0.012,0.012,0.022,0.021c0.012,0.014,0.012,0.014,0.021,0.022
		c0.03,0.031,0.023,0.024,0.022,0.022c0,0,0.006,0.005,0.022,0.021l4.395,4.395l-4.387,4.393c-0.025,0.027-0.026,0.025-0.021,0.021
		c-0.011,0.012-0.027,0.029-0.021,0.023c-0.023,0.021-0.012,0.012-0.021,0.02c-0.011,0.014-0.021,0.023-0.021,0.023
		s-0.014,0.014-0.023,0.023c-0.012,0.012,0-0.002-0.021,0.021c-0.002,0.002-0.022,0.021-0.022,0.021
		c-0.017,0.014-0.032,0.027-0.044,0.045l0.002,0.002l-0.001,0.043C4.66,20.631,4.646,20.646,4.64,20.65
		c-0.002,0.004-0.015,0.016-0.021,0.021c-0.007,0.006-0.022,0.066-0.022,0.066s-0.02,0.02-0.021,0.021
		c-0.006,0.006-0.021,0.02-0.021,0.02s0.024,0.021,0.021,0.023c-0.008,0.006-0.014,0.014-0.021,0.021
		c-0.01,0.01-0.021,0.021-0.021,0.021c-0.004,0.004,0.023,0.018,0.021,0.021c-0.007,0.008-0.021,0.021-0.021,0.021
		c-0.006,0.006-0.021,0.021-0.021,0.021s0.01,0.023,0,0.045c-0.005,0.018-0.021,0.021-0.021,0.021
		c0.006,0.008,0.013,0.016,0.021,0.021c-0.01,0.008-0.017,0.016-0.021,0.021c0,0-0.02,0.02-0.022,0.021
		c-0.004,0.004,0.021,0.02,0.021,0.021c-0.005,0.004-0.021,0.02-0.021,0.021c-0.003,0.004,0.021,0.02,0.021,0.021
		c-0.005,0.004-0.021,0.02-0.021,0.021c-0.003,0.002,0.022,0.02,0.021,0.021c-0.005,0.004-0.019,0.02-0.021,0.021
		c-0.002,0.002-0.001,0.035,0,0.045c-0.003,0.002,0.021,0.02,0.021,0.02c-0.003,0.051-0.024,0.014-0.021,0.023
		c0.001,0.012,0.021,0.051,0.021,0.021c-0.003,0.021-0.023,0.01-0.021,0.021c-0.003,0.002,0.021,0.02,0.021,0.021
		c-0.001,0-0.023-0.006-0.021,0.021c-0.002,0.018-0.002,0.043,0,0.043c0.001,0.014-0.002,0.043-0.001,0.045
		c0.008,0.008,0.014,0.016,0.022,0.021c-0.003,0.002-0.021,0.02-0.022,0.021c-0.003,0.004,0.021,0.016,0.021,0.021
		c-0.002,0.002-0.026,0.012-0.022,0.021c0.005,0.012,0.022,0.021,0.022,0.021c-0.004,0.002,0,0.045,0,0.045
		c0.004,0.012,0.021,0.021,0.021,0.021c-0.002,0-0.021,0.02-0.021,0.021c0.003,0.012,0.021,0.021,0.021,0.021
		s0.016,0.016,0.021,0.021c-0.002,0.002,0.018,0.008,0.021,0.021c0.005,0.01-0.028,0.006-0.021,0.021c0,0,0.014,0.008,0.021,0.02
		c0.011,0.021,0,0.045,0,0.045s0.017,0.018,0.021,0.021c0.004,0.01,0.022,0.021,0.022,0.021c0.004,0.01-0.003,0.037,0,0.045
		c-0.003,0,0.016,0.014,0.021,0.021c0,0,0.02,0.02,0.022,0.021c0,0-0.008,0.037-0.002,0.045c0,0,0.018,0.016,0.022,0.02
		c0.006,0.008,0.021,0.02,0.021,0.021c0.006,0.01,0.021,0.021,0.022,0.021c0.007,0.014,0,0.045,0,0.045s0.019,0.018,0.021,0.021
		c0.008,0.008,0.021,0.02,0.022,0.021c0.009,0.008,0.017,0.018,0.021,0.021c0.012,0.01,0.021,0.02,0.021,0.021
		c0.027,0.031,0.018,0.018,0.021,0.021c0.01,0.01-0.013-0.012,0.021,0.02l4.949,4.951C9.791,27.15,9.771,27.133,9.8,27.16
		c0.008,0.006,0.018,0.018,0.022,0.021c0.011,0.012,0.043,0.043,0.044,0.045c0.007,0.006,0.017,0.016,0.021,0.021l0.021,0.02
		c0,0,0.031-0.008,0.045,0c0.007,0.008,0.021,0.021,0.021,0.021s0.016,0.016,0.021,0.021c0.019,0.01,0.045,0,0.045,0
		s0.013,0.021,0.021,0.021c0,0,0.015,0.014,0.022,0.021c0.007,0.006,0.011,0.014,0.021,0.021c0.011,0.004,0.037-0.002,0.045,0
		c0.011,0.004,0.017,0.021,0.021,0.021c0,0,0.051,0.018,0.064,0.021c0.018,0.006,0.021,0.02,0.021,0.02s0.013-0.021,0.022-0.02
		c0.011,0.004,0.022,0.02,0.022,0.02s0.017,0.023,0.021,0.023c0.002-0.002,0.02-0.02,0.022-0.023
		c0.01,0.006,0.018,0.025,0.021,0.023c0.011,0.002,0.019-0.02,0.021-0.023c0.01,0.004,0.016,0.023,0.021,0.021
		c0.011,0.006,0.022,0.023,0.022,0.023s0.037-0.002,0.043-0.002c0.002-0.002,0.018,0.023,0.021,0.021
		c0.01,0.006,0.021-0.021,0.021-0.021h0.045c0.01,0.004,0.012,0.021,0.021,0.021c0.002,0,0.013,0.021,0.022,0.021
		c0-0.002,0.021-0.021,0.021-0.021h0.044h0.043c0,0,0.019,0.021,0.022,0.021c0.004-0.004,0.02-0.02,0.021-0.021
		c0.021,0,0.042,0,0.043,0c0.002-0.002,0.021-0.021,0.022-0.023c0.001,0.002,0.018,0.023,0.022,0.023
		c0.01,0.002,0.021-0.021,0.021-0.023c0.003-0.002,0.043,0.002,0.044,0c0,0,0.016-0.014,0.021-0.021
		c0.008-0.006,0.008-0.02,0.022-0.021c0.014,0,0.044,0,0.044,0s0.023,0.01,0.044,0c0.017-0.002,0.022-0.02,0.022-0.02
		c0.012,0,0.021,0.02,0.021,0.02c0.003-0.002,0.063-0.02,0.065-0.021c0.008-0.008,0.015-0.014,0.021-0.021
		c0.002-0.002,0.021-0.021,0.021-0.021c0.005-0.006,0.037,0.004,0.045,0c0.007-0.008,0.021-0.023,0.021-0.023
		c0.008-0.006,0.02-0.018,0.021-0.021c0.007-0.006,0.039,0.006,0.044,0c0.015,0,0.044-0.045,0.044-0.045s0.016-0.016,0.021-0.02
		c0.022-0.008,0.045,0,0.045,0s0.018-0.02,0.021-0.023c0.005-0.006,0.018-0.016,0.021-0.021c0.012-0.01,0.021-0.021,0.021-0.021
		c0.012-0.012,0.014-0.012,0.021-0.021c0.01-0.01,0.025-0.025,0.021-0.021c0,0,0.004-0.004,0.021-0.021L16,22.742l4.413,4.414
		c0.02,0.018,0.023,0.021,0.023,0.021c-0.004-0.004,0.012,0.012,0.02,0.021c0.01,0.01,0.012,0.012,0.023,0.021
		c0,0.002,0.01,0.012,0.021,0.021c0.004,0.006,0.018,0.018,0.021,0.021s0.021,0.023,0.021,0.023s0.021-0.01,0.043,0
		c0.008,0.006,0.023,0.02,0.023,0.02s0.029,0.045,0.043,0.045c0.004,0.004,0.037-0.006,0.045,0c0.002,0.004,0.014,0.018,0.02,0.021
		c0,0,0.018,0.016,0.023,0.023c0.008,0.002,0.039-0.006,0.043,0c0,0,0.021,0.02,0.023,0.021c0.008,0.008,0.014,0.016,0.02,0.02
		c0.004,0.002,0.064,0.021,0.066,0.023c0,0,0.01-0.021,0.021-0.021c0,0,0.006,0.02,0.021,0.021c0.021,0.01,0.045,0,0.045,0
		s0.029,0,0.043,0c0.016,0.002,0.016,0.016,0.021,0.021c0.008,0.008,0.023,0.021,0.023,0.021c0,0.002,0.041-0.002,0.043,0
		s0.012,0.023,0.021,0.021c0.006,0,0.021-0.02,0.021-0.021c0.002,0.002,0.021,0.021,0.021,0.021c0.002,0.002,0.021,0,0.045,0
		c0.002,0.004,0.018,0.02,0.021,0.023c0.004,0,0.021-0.023,0.021-0.023l0.043,0.002h0.045c0,0,0.02,0.021,0.021,0.021
		c0.01-0.002,0.021-0.023,0.021-0.021c0.01-0.002,0.012-0.018,0.021-0.021h0.043c0.002,0.002,0.014,0.025,0.023,0.021
		c0.004,0,0.02-0.023,0.021-0.021c0.004,0,0.043,0.002,0.043,0.002s0.012-0.02,0.021-0.023c0.006,0.002,0.012-0.018,0.021-0.021
		c0.002,0.004,0.012,0.025,0.021,0.023c0.004,0,0.012-0.02,0.021-0.023c0.002,0.004,0.021,0.021,0.021,0.023
		c0.006,0,0.021-0.023,0.021-0.023s0.014-0.018,0.021-0.021c0.012-0.002,0.023,0.021,0.023,0.021c0.002,0,0.004-0.016,0.02-0.021
		c0.016-0.004,0.066-0.02,0.066-0.02c0.006,0,0.012-0.02,0.021-0.021c0.008-0.002,0.033,0.004,0.043,0
		c0.012-0.008,0.016-0.016,0.021-0.021c0.01-0.008,0.021-0.021,0.021-0.021c0.01-0.002,0.021-0.021,0.021-0.021s0.025,0.01,0.045,0
		c0.006-0.006,0.021-0.021,0.021-0.021s0.016-0.016,0.021-0.021c0.014-0.008,0.045,0,0.045,0l0.02-0.021
		c0.008-0.006,0.018-0.016,0.023-0.02c0-0.002,0.033-0.033,0.043-0.045c0.006-0.006,0.016-0.018,0.021-0.021
		c0.031-0.029,0.012-0.012,0.023-0.021l4.949-4.951c0.033-0.031,0.012-0.012,0.02-0.021c0.006-0.004-0.004,0.012,0.023-0.02
		c0-0.002,0.01-0.014,0.02-0.021c0.006-0.006,0.014-0.014,0.021-0.021c0.004-0.004,0.016-0.016,0.021-0.023
		c0.004-0.004,0.021-0.02,0.021-0.02s-0.006-0.031,0-0.045c0.002-0.002,0.018-0.014,0.021-0.021
		c0.002-0.002,0.018-0.014,0.021-0.021c0.006-0.004,0.021-0.021,0.021-0.021c0.008-0.006,0-0.043,0-0.043
		c0.002-0.004,0.021-0.021,0.021-0.021c0.006-0.01,0.023-0.021,0.021-0.021c0.002-0.008-0.004-0.035,0-0.045
		c0,0,0.02-0.012,0.021-0.021c0.006-0.006,0.021-0.021,0.021-0.021s-0.012-0.023,0-0.045c0.008-0.012,0.021-0.021,0.021-0.021
		c0.006-0.014-0.027-0.012-0.021-0.02c0.004-0.014,0.021-0.021,0.021-0.021c0.006-0.008,0.02-0.021,0.02-0.021
		s0.021-0.012,0.023-0.023c-0.002-0.002-0.021-0.02-0.021-0.02s0.018-0.01,0.021-0.023c0,0,0.002-0.041,0-0.043
		c0,0,0.018-0.012,0.021-0.021c0.004-0.012-0.021-0.021-0.021-0.023c0-0.006,0.023-0.018,0.02-0.02
		c-0.002-0.002-0.02-0.021-0.021-0.021c0.01-0.006,0.016-0.014,0.021-0.021c0.002-0.002-0.002-0.031,0-0.045
		c0.002,0,0.002-0.025,0-0.043c0.002-0.027-0.021-0.021-0.021-0.021c0.002-0.002,0.025-0.02,0.021-0.023
		c0.002-0.012-0.02,0.002-0.021-0.02c0.002,0.027,0.021-0.01,0.021-0.023c0.004-0.01-0.02,0.027-0.021-0.021
		c0-0.002,0.025-0.02,0.021-0.021c0-0.01,0.002-0.043,0-0.045c-0.004-0.002-0.018-0.018-0.021-0.02
		c-0.002-0.002,0.023-0.021,0.021-0.021c-0.002-0.004-0.018-0.018-0.021-0.021c0.002-0.002,0.025-0.02,0.021-0.023
		c-0.002-0.002-0.018-0.018-0.021-0.02c0-0.004,0.025-0.02,0.021-0.021c-0.004-0.004-0.021-0.021-0.021-0.021
		c-0.006-0.008-0.014-0.016-0.023-0.021c0.012-0.008,0.018-0.016,0.023-0.021c0,0-0.018-0.004-0.023-0.021
		c-0.008-0.021,0-0.045,0-0.045s-0.016-0.016-0.02-0.021c0,0-0.016-0.016-0.023-0.021c0-0.004,0.027-0.02,0.023-0.021
		c0,0-0.014-0.014-0.023-0.021c-0.008-0.008-0.014-0.016-0.02-0.021c-0.004-0.004,0.02-0.023,0.02-0.023s-0.016-0.016-0.02-0.02
		s-0.023-0.021-0.023-0.021s-0.016-0.061-0.021-0.066c-0.006-0.008-0.02-0.018-0.021-0.021c-0.006-0.006-0.02-0.021-0.021-0.023
		v-0.043l0.002-0.002c-0.012-0.016-0.027-0.029-0.045-0.043l-0.021-0.021c-0.021-0.023-0.012-0.012-0.021-0.021
		c-0.012-0.01-0.021-0.021-0.021-0.021s-0.012-0.012-0.021-0.023c-0.012-0.01,0.002,0.002-0.023-0.02
		c0.006,0.006-0.01-0.014-0.02-0.023c0.004,0.004,0.004,0.006-0.023-0.021l-4.391-4.391l4.395-4.395
		c0.018-0.018,0.021-0.021,0.021-0.021c0,0.002-0.008,0.008,0.021-0.022c0.01-0.009,0.01-0.009,0.021-0.022
		c0.012-0.011,0.021-0.021,0.021-0.021c0.006-0.006,0.018-0.018,0.023-0.021c0.002-0.004,0.02-0.021,0.02-0.022
		c0,0-0.012-0.022,0-0.044c0.006-0.006,0.023-0.022,0.023-0.022s0.045-0.03,0.043-0.044c0.004-0.004-0.006-0.033,0.002-0.043
		c-0.004-0.012,0.02-0.02,0.02-0.021l0.023-0.066c0.006-0.007,0.021-0.021,0.021-0.021c0.008-0.006,0.016-0.014,0.021-0.022
		c0.002-0.003,0.02-0.063,0.023-0.065c0,0-0.025-0.013-0.023-0.022c0,0,0.02-0.005,0.023-0.022c0.006-0.021,0-0.044,0-0.044
		s0.016-0.017,0.02-0.022c0-0.012-0.021-0.016-0.02-0.021c0.004-0.004,0.02-0.021,0.02-0.021c0.008-0.008,0.023-0.022,0.023-0.022
		s-0.002-0.037,0-0.044c0,0,0-0.038,0-0.044c0-0.001,0-0.043,0-0.043C27.494,10.795,27.523,10.795,27.521,10.785z"/>
	<polygon fill="#EC2727" points="26.254,21.307 20.949,16.002 26.25,10.701 21.301,5.751 16,11.052 10.699,5.751 5.749,10.701 
		11.05,16.002 5.745,21.307 10.693,26.258 16,20.951 21.307,26.258 	"/>
	
		<linearGradient id="SVGID_1_" gradientUnits="userSpaceOnUse" x1="288.5215" y1="-387.8438" x2="306.5576" y2="-387.8438" gradientTransform="matrix(1 0 0 -1 -281.54 -371.8398)">
		<stop  offset="0" style="stop-color:#F6979A"/>
		<stop  offset="1" style="stop-color:#901A1D"/>
	</linearGradient>
	<polygon fill="url(#SVGID_1_)" points="25.018,21.307 19.713,16.002 25.014,10.701 21.301,6.988 16,12.29 10.699,6.988 
		6.986,10.701 12.287,16.002 6.982,21.307 10.693,25.02 16,19.715 21.307,25.02 	"/>
</g>
</svg>
