<?xml version="1.0" encoding="utf-8"?>
<!-- Generator: Adobe Illustrator 14.0.0, SVG Export Plug-In . SVG Version: 6.00 Build 43363)  -->
<!DOCTYPE svg PUBLIC "-//W3C//DTD SVG 1.1//EN" "http://www.w3.org/Graphics/SVG/1.1/DTD/svg11.dtd">
<svg version="1.1" id="Layer_1" xmlns="http://www.w3.org/2000/svg" xmlns:xlink="http://www.w3.org/1999/xlink" x="0px" y="0px"
	 width="32px" height="32px" viewBox="0 0 32 32" enable-background="new 0 0 32 32" xml:space="preserve">
<path id="path4235_1_" opacity="0.98" fill="#020202" enable-background="new    " d="M13.578,26.003
	c-0.273,0-0.541-0.088-0.762-0.263L1.485,16.982C1.18,16.749,1,16.385,1,15.997c0-0.386,0.18-0.751,0.485-0.986l11.331-8.754
	c0.222-0.172,0.492-0.259,0.762-0.259c0.185,0,0.365,0.041,0.538,0.122c0.423,0.201,0.7,0.626,0.709,1.096l0.088,3.942
	c6.175,0.423,10.679,2.272,13.405,5.5c3.168,3.752,2.662,7.957,2.638,8.135c-0.069,0.539-0.483,0.975-1.024,1.066
	c-0.07,0.012-0.142,0.017-0.211,0.017c-0.464,0-0.896-0.258-1.111-0.683c-1.895-3.723-5.233-5.383-10.821-5.383
	c-0.858,0-1.774,0.033-2.873,0.112l-0.09,4.856c-0.009,0.473-0.283,0.896-0.708,1.102C13.946,25.964,13.761,26.003,13.578,26.003
	L13.578,26.003z"/>
<path id="path7827_1_" fill="#FAA820" d="M2.244,15.999l11.332-8.755l0.114,5.098C31.238,13.019,29.717,24.63,29.717,24.63
	c-3.25-6.396-10.001-6.379-16.027-5.86l-0.114,5.985L2.244,15.999L2.244,15.999z"/>
<linearGradient id="path4246_2_" gradientUnits="userSpaceOnUse" x1="285.8252" y1="-388.8374" x2="309.1318" y2="-388.8374" gradientTransform="matrix(1 0 0 -1 -281.54 -372.8398)">
	<stop  offset="0" style="stop-color:#A56629"/>
	<stop  offset="0.5394" style="stop-color:#FAA820"/>
	<stop  offset="1" style="stop-color:#FFF3E0"/>
</linearGradient>
<path id="path4246_1_" fill="url(#path4246_2_)" d="M12.376,22.255l-8.091-6.256l8.101-6.259l0.083,3.801l1.17,0.045
	c6.025,0.231,10.313,1.794,12.743,4.643c0.519,0.608,0.913,1.229,1.21,1.834c-3.059-2.39-6.865-2.744-9.805-2.744
	c-1.211,0-2.508,0.064-4.206,0.211l-1.116,0.097L12.376,22.255z"/>
</svg>
