<?xml version="1.0" encoding="utf-8"?>
<!-- Generator: Adobe Illustrator 14.0.0, SVG Export Plug-In . SVG Version: 6.00 Build 43363)  -->
<!DOCTYPE svg PUBLIC "-//W3C//DTD SVG 1.1//EN" "http://www.w3.org/Graphics/SVG/1.1/DTD/svg11.dtd">
<svg version="1.1" id="Layer_1" xmlns="http://www.w3.org/2000/svg" xmlns:xlink="http://www.w3.org/1999/xlink" x="0px" y="0px"
	 width="32px" height="32px" viewBox="0 0 32 32" enable-background="new 0 0 32 32" xml:space="preserve">
<g>
	<path id="path2924" fill="#020202" d="M0.989,30C0.442,30,0,29.56,0,29.011V0.989C0,0.443,0.442,0,0.989,0h14.183
		c0.265,0,0.516,0.104,0.699,0.29l6.587,6.587c0.186,0.186,0.29,0.437,0.29,0.699V29.01c0,0.55-0.442,0.989-0.989,0.989L0.989,30
		L0.989,30z"/>
	<polygon id="polygon2926" fill="#03ADDB" points="15.172,0.989 0.989,0.989 0.989,29.011 21.759,29.011 21.759,7.576 	"/>
	<polygon id="polygon2928" fill="#FFFFFF" points="19.86,6.68 19.86,26.954 2.799,26.954 2.799,2.888 16.068,2.888 17.882,4.948 	
		"/>
	<path id="path2930" fill="#020202" d="M15.172,8.565c-0.547,0-0.989-0.443-0.989-0.989V0.989c0-0.399,0.241-0.761,0.61-0.914
		C14.917,0.024,15.044,0,15.172,0c0.259,0,0.512,0.102,0.699,0.29l6.587,6.587c0.282,0.283,0.367,0.708,0.215,1.079
		c-0.152,0.369-0.516,0.61-0.914,0.61H15.172z"/>
	<polygon id="polygon2932" fill="#03ADDB" points="15.172,7.576 21.759,7.576 15.172,0.989 	"/>
</g>
<g>
	<path fill="#010101" d="M31.983,20.377c0.002-0.001,0.011-0.012,0.015-0.016c0.003-0.002-0.015-0.016-0.015-0.016v-0.029
		c0-0.001,0-0.031,0-0.031S31.998,20.271,32,20.27c-0.004-0.006-0.015-0.013-0.017-0.015c-0.001-0.008-0.015-0.016-0.015-0.016
		l0.015-0.015c0-0.01-0.016-0.016-0.015-0.016c0.001-0.001,0-0.031,0-0.031c0.001-0.002,0-0.029,0-0.029s-0.013-0.01-0.015-0.016
		c-0.003-0.007-0.017-0.016-0.016-0.015c-0.004-0.011,0-0.03,0-0.03s0.006-0.018,0-0.031c-0.006-0.009-0.013-0.012-0.015-0.016
		c-0.003-0.006,0.015-0.016,0.015-0.016s-0.011-0.003-0.015-0.015c-0.004-0.011-0.016-0.044-0.015-0.046
		c0,0-0.012-0.008-0.017-0.016c-0.002-0.006,0.002-0.025,0.002-0.029c-0.009-0.008-0.013-0.013-0.017-0.016
		c-0.003-0.006-0.015-0.016-0.015-0.016c-0.003-0.006-0.015-0.016-0.015-0.016l0.015-0.015c-0.004-0.006-0.011-0.007-0.015-0.015
		c0,0-0.013-0.009-0.016-0.016c-0.005-0.005-0.012-0.012-0.015-0.016c-0.005-0.008,0-0.03,0-0.03
		c-0.001-0.001-0.014-0.013-0.015-0.015c-0.006-0.006-0.013-0.012-0.017-0.016c0,0-0.022-0.023-0.029-0.03
		c-0.006-0.005-0.014-0.013-0.017-0.016c-0.021-0.021-0.007-0.007-0.015-0.015l-3.43-3.431c-0.01-0.009,0.005,0.007-0.016-0.015
		c-0.005-0.006-0.012-0.012-0.016-0.016c-0.007-0.007-0.03-0.029-0.03-0.031c-0.005-0.004-0.012-0.012-0.015-0.015l-0.017-0.015
		l-0.015,0.015c0,0-0.012-0.012-0.015-0.015c-0.006-0.006-0.012-0.012-0.015-0.016c0,0-0.009-0.011-0.017-0.016
		c-0.005-0.003-0.015-0.015-0.015-0.015c-0.008-0.002-0.015,0.015-0.015,0.015s-0.01-0.013-0.017-0.015c0,0-0.01-0.013-0.015-0.016
		c0,0.001-0.046-0.015-0.046-0.015c-0.007-0.004-0.014-0.015-0.014-0.015c-0.002,0.001-0.049-0.021-0.065-0.029l-0.012,0.013
		c0,0-0.013-0.012-0.015-0.014c0,0-0.022,0.002-0.031,0c0,0-0.01-0.015-0.016-0.016c-0.007,0.006-0.011,0.01-0.016,0.016
		c-0.007-0.002-0.011-0.016-0.015-0.016l-0.016-0.016c0,0-0.011-0.014-0.016-0.016c-0.007-0.002-0.014,0.015-0.016,0.016
		c-0.008-0.002-0.011-0.015-0.015-0.015c-0.001,0.002-0.015,0.015-0.015,0.015c-0.002,0.002-0.014-0.014-0.015-0.015
		c-0.002,0.001-0.017,0.015-0.017,0.015s-0.008-0.014-0.015-0.014c0,0-0.01-0.015-0.015-0.016c-0.002,0.001-0.016,0.016-0.016,0.016
		h-0.031h-0.03c0,0-0.013-0.018-0.016-0.016c-0.004,0.004-0.015,0.014-0.015,0.016c-0.006,0.004-0.012,0.011-0.017,0.016
		c-0.001,0.001-0.012-0.016-0.015-0.016c-0.001,0.002-0.014,0.013-0.015,0.016c0.001,0-0.011-0.016-0.015-0.016
		c-0.01-0.002-0.016,0.016-0.016,0.016c-0.004,0.002-0.03,0-0.03,0s-0.012,0.01-0.016,0.015c-0.001,0.001-0.014,0.013-0.016,0.016
		c0,0.001-0.011-0.015-0.016-0.015c-0.001,0.002-0.007,0.018-0.015,0.016c-0.001,0.002-0.022-0.001-0.031,0
		c0,0-0.005,0.015-0.015,0.015s-0.015-0.015-0.015-0.015c-0.002,0-0.004,0.014-0.017,0.015c-0.003,0.004-0.025-0.001-0.029,0
		c0,0-0.01,0.01-0.016,0.015c-0.007,0.006-0.012,0.012-0.016,0.016c-0.002,0.002-0.013-0.016-0.015-0.016
		c-0.002,0.002-0.013,0.014-0.016,0.016c-0.008,0.008-0.014,0.013-0.016,0.016c0,0-0.011,0.012-0.016,0.016
		c-0.004,0.004-0.015,0.016-0.015,0.016s-0.01-0.018-0.016-0.016c0.001,0-0.01,0.012-0.016,0.016l-0.061,0.031
		c-0.001,0-0.024,0.023-0.031,0.03c0,0-0.018,0.019-0.015,0.015c-0.002,0.002-0.009,0.01-0.015,0.016
		c-0.007,0.006-0.012,0.01-0.016,0.016l-0.016,0.016l-3.046,3.045l-3.045-3.045l-0.016-0.016c-0.004-0.006-0.009-0.01-0.015-0.016
		c-0.007-0.006-0.015-0.014-0.016-0.016c0.002,0.004-0.016-0.015-0.016-0.015c-0.007-0.007-0.029-0.03-0.031-0.03l-0.061-0.031
		c-0.004-0.004-0.015-0.016-0.015-0.016c-0.006-0.002-0.015,0.016-0.015,0.016s-0.013-0.012-0.016-0.016
		c-0.004-0.004-0.016-0.016-0.016-0.016c-0.003-0.003-0.007-0.008-0.016-0.016c-0.004-0.002-0.015-0.014-0.015-0.016
		c-0.004,0-0.014,0.018-0.016,0.016c-0.005-0.004-0.01-0.01-0.016-0.016c-0.005-0.005-0.015-0.015-0.015-0.015
		c-0.006-0.001-0.027,0.004-0.031,0c-0.011-0.001-0.014-0.015-0.015-0.015c0,0-0.007,0.015-0.017,0.015
		c-0.009,0-0.015-0.015-0.015-0.015c-0.007-0.001-0.028,0.002-0.031,0c-0.007,0.002-0.012-0.014-0.015-0.016
		c-0.004,0-0.014,0.016-0.015,0.015c-0.003-0.003-0.014-0.015-0.016-0.016c-0.005-0.005-0.015-0.015-0.015-0.015
		s-0.028,0.002-0.031,0c0,0-0.007-0.018-0.015-0.016c-0.006,0-0.017,0.016-0.015,0.016c-0.003-0.003-0.014-0.014-0.017-0.016
		c0,0-0.014,0.017-0.015,0.016c-0.004-0.005-0.011-0.012-0.015-0.016c-0.002-0.002-0.013-0.012-0.017-0.016
		c-0.003-0.002-0.015,0.016-0.015,0.016h-0.031h-0.03c0,0-0.015-0.015-0.015-0.016c-0.005,0.001-0.015,0.016-0.016,0.016
		c-0.007,0-0.016,0.014-0.016,0.014s-0.014-0.014-0.015-0.015c-0.001,0.001-0.015,0.017-0.015,0.015c0,0-0.014-0.013-0.017-0.015
		c-0.004,0-0.007,0.013-0.015,0.015c0-0.001-0.007-0.018-0.015-0.016c-0.004,0.002-0.016,0.016-0.016,0.016l-0.016,0.016
		c-0.003,0-0.007,0.014-0.015,0.016c-0.005-0.006-0.01-0.01-0.016-0.016c-0.005,0.001-0.016,0.016-0.016,0.016
		c-0.01,0.002-0.03,0-0.03,0c-0.004,0.002-0.015,0.014-0.015,0.014L20.04,16.05c-0.017,0.009-0.063,0.03-0.063,0.03
		s-0.008,0.01-0.015,0.014c0,0-0.046,0.016-0.046,0.015c-0.005,0.003-0.016,0.016-0.016,0.016c-0.005,0.002-0.015,0.015-0.015,0.015
		s-0.008-0.017-0.017-0.015c0,0-0.009,0.012-0.015,0.015c-0.008,0.005-0.015,0.016-0.015,0.016c-0.004,0.004-0.011,0.01-0.015,0.016
		c-0.004,0.003-0.016,0.015-0.016,0.015l-0.016-0.015l-0.015,0.015c-0.005,0.003-0.01,0.011-0.016,0.015
		c-0.001,0.002-0.024,0.024-0.031,0.031c-0.002,0.004-0.009,0.01-0.015,0.016c-0.021,0.021-0.007,0.006-0.015,0.015l-3.432,3.431
		c-0.008,0.008,0.007-0.006-0.015,0.015c-0.003,0.003-0.011,0.011-0.015,0.016c-0.008,0.007-0.031,0.03-0.031,0.03
		c-0.003,0.004-0.01,0.01-0.015,0.016c-0.003,0.002-0.015,0.014-0.015,0.015c0,0,0.005,0.022,0,0.03
		c-0.005,0.004-0.01,0.011-0.016,0.016c-0.002,0.007-0.015,0.016-0.015,0.016c-0.005,0.008-0.012,0.009-0.017,0.015l0.017,0.015
		c0,0-0.014,0.01-0.017,0.016c0,0-0.011,0.01-0.015,0.016c-0.003,0.003-0.008,0.008-0.015,0.016c-0.001,0.004,0.003,0.023,0,0.029
		c-0.003,0.008-0.015,0.016-0.015,0.016c0,0.002-0.013,0.035-0.016,0.046c-0.004,0.012-0.016,0.015-0.016,0.015
		s0.019,0.01,0.016,0.016c-0.002,0.004-0.009,0.007-0.016,0.016c-0.006,0.014,0,0.031,0,0.031s0.005,0.02,0,0.03
		c0.001-0.001-0.011,0.008-0.014,0.015c-0.003,0.006-0.017,0.016-0.017,0.016s-0.001,0.027,0.002,0.029c0,0-0.002,0.03,0,0.031
		c0,0-0.016,0.006-0.017,0.016l0.017,0.015c0,0-0.014,0.008-0.017,0.016c0,0.002-0.012,0.009-0.015,0.015
		c0.001,0.002,0.015,0.016,0.015,0.016s0.001,0.03,0,0.031l0.001,0.029c0,0-0.018,0.014-0.016,0.016
		c0.004,0.004,0.015,0.015,0.016,0.016c-0.002,0.008,0.019,0.007,0.016,0.016v0.029c0,0.005,0,0.031,0,0.031
		c0.001,0.004,0,0.03,0,0.03s0.011,0.011,0.016,0.015c0,0.002,0.013,0.014,0.016,0.016c0,0.004-0.016,0.007-0.016,0.016
		c0.003,0.004,0.016,0.016,0.016,0.016s-0.006,0.016,0,0.031c0.001,0.011,0.015,0.015,0.015,0.015
		c0.003,0.007-0.015,0.015-0.015,0.015c0.001,0.002,0.013,0.044,0.016,0.046c0.004,0.007,0.01,0.011,0.015,0.016
		c0,0,0.012,0.011,0.016,0.015l0.016,0.047c0.002,0.002,0.018,0.007,0.016,0.015c0.004,0.007-0.003,0.027,0,0.03
		c0,0.01,0.03,0.031,0.03,0.031s0.012,0.012,0.016,0.015c0.008,0.015,0,0.03,0,0.03c0.001,0.002,0.014,0.014,0.015,0.016
		c0.004,0.004,0.012,0.012,0.017,0.016c0,0,0.007,0.008,0.015,0.016s0.008,0.008,0.015,0.015c0.021,0.021,0.017,0.017,0.017,0.017
		s0.004,0.003,0.015,0.014l3.045,3.046L16.28,27.03c-0.02,0.019-0.02,0.018-0.017,0.015c-0.007,0.008-0.019,0.021-0.015,0.016
		c-0.017,0.016-0.008,0.009-0.015,0.016c-0.009,0.008-0.017,0.016-0.017,0.016s-0.008,0.009-0.015,0.016
		c-0.009,0.008,0-0.002-0.015,0.015c-0.002,0.001-0.017,0.016-0.017,0.016c-0.011,0.009-0.021,0.02-0.03,0.03l0.002,0.002
		l-0.002,0.029c-0.001,0.002-0.011,0.012-0.015,0.016c-0.003,0.004-0.011,0.01-0.015,0.016c-0.006,0.004-0.017,0.046-0.017,0.046
		s-0.014,0.013-0.015,0.015c-0.004,0.004-0.015,0.016-0.015,0.016s0.016,0.014,0.015,0.016c-0.006,0.004-0.01,0.01-0.015,0.016
		c-0.007,0.006-0.017,0.014-0.017,0.014c-0.003,0.004,0.017,0.014,0.017,0.016c-0.006,0.006-0.017,0.016-0.017,0.016
		c-0.003,0.004-0.015,0.016-0.015,0.016s0.007,0.016,0,0.031c-0.003,0.012-0.015,0.015-0.015,0.015
		c0.004,0.005,0.008,0.011,0.015,0.016c-0.007,0.005-0.011,0.011-0.015,0.016c0,0-0.014,0.013-0.017,0.015
		c-0.003,0.003,0.015,0.013,0.015,0.016c-0.003,0.002-0.014,0.013-0.015,0.014c-0.001,0.004,0.015,0.016,0.015,0.016
		c-0.003,0.004-0.014,0.014-0.015,0.016s0.017,0.014,0.015,0.016c-0.003,0.002-0.014,0.014-0.015,0.015s-0.001,0.024,0,0.031
		c-0.003,0.001,0.015,0.013,0.015,0.015c-0.001,0.035-0.018,0.008-0.015,0.016c0,0.009,0.014,0.035,0.015,0.016
		c-0.001,0.016-0.016,0.007-0.015,0.015c-0.003,0.002,0.014,0.015,0.015,0.016c-0.001,0.001-0.016-0.003-0.015,0.016
		c-0.001,0.013-0.001,0.03,0,0.03c0,0.009-0.001,0.029-0.001,0.029c0.005,0.007,0.009,0.012,0.016,0.016
		c-0.001,0.002-0.014,0.014-0.016,0.016s0.015,0.011,0.015,0.015c0,0.001-0.018,0.009-0.015,0.016
		c0.002,0.009,0.015,0.016,0.015,0.016c-0.002,0.001,0,0.03,0,0.03c0.003,0.009,0.017,0.016,0.017,0.016
		c-0.002,0.001-0.016,0.014-0.017,0.016c0.003,0.008,0.017,0.016,0.017,0.016s0.009,0.01,0.015,0.016
		c-0.002,0,0.012,0.005,0.015,0.014c0.003,0.008-0.021,0.006-0.015,0.016c0,0,0.009,0.006,0.015,0.015c0.007,0.015,0,0.03,0,0.03
		c0,0.001,0.011,0.012,0.015,0.016c0.003,0.007,0.015,0.016,0.015,0.016c0.003,0.006-0.001,0.025,0,0.031
		c-0.001,0,0.013,0.009,0.016,0.014c0,0,0.014,0.014,0.016,0.016c0,0-0.005,0.026-0.001,0.031c0,0,0.012,0.012,0.017,0.015
		c0.004,0.005,0.013,0.013,0.015,0.015c0.004,0.006,0.014,0.014,0.015,0.016c0.006,0.009,0,0.03,0,0.03s0.013,0.013,0.015,0.015
		c0.006,0.006,0.014,0.014,0.017,0.016c0.006,0.006,0.011,0.012,0.015,0.016c0.007,0.008,0.014,0.014,0.015,0.016
		c0.02,0.021,0.013,0.012,0.016,0.015c0.007,0.007-0.009-0.007,0.015,0.015l3.43,3.431c0.008,0.009-0.005-0.004,0.017,0.016
		c0.004,0.004,0.012,0.011,0.015,0.015c0.008,0.008,0.029,0.029,0.031,0.031c0.004,0.004,0.011,0.011,0.015,0.016l0.015,0.014
		c0,0,0.022-0.005,0.031,0c0.004,0.006,0.015,0.016,0.015,0.016s0.012,0.011,0.016,0.015c0.012,0.007,0.031,0,0.031,0
		s0.008,0.015,0.015,0.016c0,0,0.01,0.009,0.015,0.016c0.006,0.004,0.008,0.009,0.015,0.015c0.007,0.003,0.026-0.002,0.031,0
		c0.007,0.003,0.011,0.016,0.015,0.016c0,0,0.035,0.012,0.047,0.014c0.011,0.005,0.013,0.016,0.015,0.016
		c0,0,0.008-0.017,0.015-0.016c0.007,0.004,0.017,0.016,0.017,0.016s0.011,0.016,0.015,0.016c0.001-0.001,0.014-0.014,0.015-0.016
		c0.007,0.004,0.013,0.017,0.017,0.016c0.007,0.002,0.012-0.014,0.015-0.016c0.007,0.002,0.011,0.016,0.015,0.015
		c0.007,0.005,0.016,0.017,0.016,0.017s0.026-0.002,0.029-0.002c0.003-0.001,0.013,0.017,0.017,0.016
		c0.007,0.004,0.014-0.014,0.015-0.016h0.031c0.007,0.004,0.008,0.016,0.015,0.016c0.001,0,0.008,0.015,0.015,0.016
		c0.002-0.001,0.017-0.016,0.017-0.016h0.029h0.03c0,0,0.014,0.016,0.017,0.016c0.002-0.003,0.013-0.014,0.015-0.016
		c0.015,0,0.029,0,0.029,0c0.002-0.002,0.016-0.016,0.017-0.016c0,0,0.012,0.016,0.015,0.016c0.008,0.001,0.015-0.016,0.015-0.016
		c0.003-0.002,0.03,0,0.031,0c0,0,0.011-0.01,0.016-0.016c0.005-0.004,0.005-0.014,0.016-0.016c0.01,0,0.03,0,0.03,0
		s0.016,0.008,0.031,0c0.011-0.002,0.015-0.015,0.015-0.015c0.008,0,0.015,0.015,0.015,0.015c0.003-0.002,0.043-0.015,0.046-0.016
		c0.006-0.004,0.01-0.009,0.015-0.016c0.002-0.001,0.017-0.014,0.017-0.014c0.003-0.004,0.024,0.002,0.03,0
		c0.005-0.006,0.016-0.018,0.016-0.018c0.004-0.004,0.014-0.012,0.015-0.014c0.005-0.006,0.027,0.002,0.03,0
		c0.011,0,0.031-0.031,0.031-0.031s0.011-0.012,0.015-0.016c0.017-0.005,0.031,0,0.031,0s0.012-0.013,0.015-0.016
		c0.004-0.004,0.013-0.012,0.015-0.016c0.009-0.007,0.016-0.014,0.017-0.015c0.007-0.008,0.008-0.009,0.015-0.015
		c0.007-0.008,0.018-0.02,0.016-0.016c0,0,0.002-0.004,0.016-0.016l3.058-3.059l3.06,3.059c0.012,0.012,0.015,0.016,0.015,0.016
		c-0.003-0.004,0.009,0.008,0.015,0.016c0.007,0.006,0.008,0.007,0.017,0.015c0,0.001,0.007,0.008,0.015,0.015
		c0.004,0.004,0.012,0.012,0.015,0.016c0.004,0.003,0.017,0.016,0.017,0.016s0.015-0.005,0.029,0
		c0.006,0.004,0.017,0.016,0.017,0.016s0.021,0.031,0.029,0.031c0.003,0.002,0.026-0.006,0.031,0c0.002,0.002,0.01,0.01,0.016,0.014
		c0,0,0.011,0.012,0.015,0.018c0.005,0.002,0.028-0.004,0.031,0c0,0,0.014,0.013,0.015,0.014c0.005,0.007,0.011,0.012,0.015,0.016
		c0.003,0.001,0.045,0.014,0.046,0.016c0,0,0.007-0.015,0.016-0.015c0,0,0.004,0.013,0.016,0.015c0.014,0.008,0.03,0,0.03,0
		s0.021,0,0.031,0c0.011,0.002,0.011,0.012,0.015,0.016c0.005,0.006,0.016,0.016,0.016,0.016s0.028-0.002,0.03,0
		c0.001,0,0.008,0.017,0.015,0.016c0.004,0,0.015-0.016,0.017-0.016c0.001,0,0.014,0.014,0.015,0.016c0.001,0,0.015,0,0.029,0
		c0.003,0.002,0.014,0.013,0.017,0.016c0.003,0,0.015-0.016,0.015-0.016h0.03h0.031c0,0,0.015,0.015,0.015,0.016
		c0.007-0.001,0.015-0.016,0.017-0.016c0.007,0,0.008-0.012,0.015-0.016h0.029c0.002,0.002,0.01,0.02,0.017,0.016
		c0.003,0.001,0.014-0.017,0.015-0.016c0.004,0,0.03,0.002,0.03,0.002s0.008-0.012,0.016-0.017c0.003,0.001,0.007-0.013,0.016-0.015
		c0.001,0.002,0.007,0.018,0.015,0.016c0.003,0.001,0.008-0.012,0.015-0.016c0.003,0.002,0.015,0.015,0.017,0.016
		c0.003,0,0.015-0.016,0.015-0.016s0.008-0.012,0.015-0.016c0.009-0.001,0.017,0.016,0.017,0.016c0.001,0,0.003-0.011,0.015-0.016
		c0.011-0.002,0.045-0.014,0.045-0.014c0.004,0,0.008-0.013,0.016-0.016c0.006-0.002,0.023,0.003,0.03,0
		c0.008-0.006,0.011-0.011,0.015-0.015c0.007-0.007,0.017-0.016,0.017-0.016c0.005-0.001,0.015-0.016,0.015-0.016
		s0.018,0.007,0.031,0c0.004-0.004,0.015-0.015,0.015-0.015s0.01-0.01,0.015-0.016c0.01-0.005,0.031,0,0.031,0l0.014-0.014
		c0.004-0.005,0.011-0.012,0.017-0.016c0-0.002,0.022-0.023,0.029-0.031c0.004-0.004,0.011-0.011,0.017-0.015
		c0.021-0.02,0.007-0.007,0.015-0.016l3.43-3.431c0.024-0.021,0.01-0.008,0.016-0.015c0.004-0.003-0.003,0.007,0.016-0.015
		c0-0.002,0.007-0.008,0.015-0.016c0.003-0.004,0.009-0.01,0.016-0.016c0.001-0.002,0.011-0.01,0.015-0.016
		c0.003-0.002,0.015-0.015,0.015-0.015s-0.004-0.021,0-0.03c0.002-0.002,0.013-0.01,0.017-0.016c0.001-0.002,0.011-0.01,0.015-0.015
		c0.003-0.003,0.015-0.015,0.015-0.015c0.004-0.005,0-0.031,0-0.031c0.002-0.002,0.016-0.016,0.016-0.016
		c0.004-0.005,0.016-0.014,0.015-0.014c0.001-0.006-0.003-0.025,0-0.031c0,0,0.014-0.009,0.016-0.016
		c0.003-0.004,0.016-0.015,0.016-0.016c0,0-0.009-0.016,0-0.03c0.005-0.009,0.015-0.015,0.015-0.015
		c0.004-0.01-0.019-0.008-0.015-0.016c0.002-0.009,0.015-0.014,0.015-0.014c0.004-0.006,0.015-0.016,0.015-0.016
		s0.014-0.008,0.015-0.016c0-0.002-0.013-0.015-0.015-0.016c0,0,0.013-0.007,0.015-0.016c0,0,0.003-0.029,0-0.03
		c0,0,0.014-0.007,0.017-0.016c0.003-0.007-0.015-0.015-0.017-0.016c0-0.004,0.018-0.013,0.016-0.015s-0.014-0.014-0.016-0.016
		c0.006-0.004,0.012-0.009,0.016-0.016c0.001,0-0.002-0.021,0-0.029c0.001,0,0.001-0.018,0-0.03
		c0.001-0.019-0.016-0.015-0.016-0.016c0,0,0.017-0.014,0.016-0.016c0.001-0.008-0.014,0.001-0.016-0.015
		c0,0.02,0.014-0.007,0.016-0.016c0.001-0.008-0.014,0.02-0.016-0.016c0-0.002,0.017-0.014,0.016-0.015c0-0.007,0.001-0.03,0-0.031
		c-0.003-0.001-0.013-0.013-0.016-0.015c-0.001-0.002,0.017-0.014,0.014-0.016c-0.001-0.002-0.012-0.012-0.015-0.016
		c0.001,0,0.018-0.012,0.015-0.016c-0.001-0.001-0.012-0.012-0.015-0.014c0-0.003,0.018-0.013,0.015-0.016
		c-0.001-0.002-0.015-0.015-0.015-0.015c-0.004-0.005-0.01-0.011-0.017-0.016c0.007-0.005,0.013-0.011,0.017-0.016
		c0,0-0.012-0.003-0.017-0.015c-0.005-0.016,0-0.031,0-0.031s-0.011-0.012-0.015-0.016c0,0-0.011-0.01-0.015-0.016
		c-0.001-0.002,0.018-0.012,0.015-0.016c0,0-0.008-0.008-0.015-0.014c-0.006-0.006-0.011-0.012-0.015-0.016
		c-0.003-0.002,0.015-0.016,0.015-0.016s-0.013-0.012-0.015-0.016c-0.003-0.002-0.017-0.015-0.017-0.015s-0.011-0.042-0.015-0.046
		c-0.006-0.006-0.014-0.012-0.015-0.016c-0.006-0.004-0.014-0.014-0.017-0.016V27.17l0.001-0.002
		c-0.008-0.011-0.019-0.021-0.031-0.03c0,0-0.015-0.015-0.015-0.016c-0.016-0.017-0.008-0.007-0.016-0.015
		c-0.007-0.007-0.016-0.016-0.016-0.016s-0.008-0.008-0.015-0.016c-0.007-0.007,0.001,0-0.017-0.016
		c0.005,0.005-0.006-0.008-0.015-0.016c0.004,0.003,0.003,0.004-0.015-0.015l-3.044-3.043l3.045-3.046
		c0.013-0.011,0.017-0.015,0.017-0.015c-0.001,0.001-0.006,0.006,0.015-0.016c0.007-0.007,0.007-0.007,0.015-0.015
		c0.009-0.008,0.016-0.015,0.017-0.016c0.004-0.004,0.011-0.012,0.015-0.016c0.002-0.002,0.016-0.014,0.016-0.016
		c0,0-0.009-0.016,0-0.03c0.004-0.003,0.016-0.015,0.016-0.015s0.031-0.021,0.03-0.031c0.002-0.003-0.004-0.023,0.001-0.03
		c-0.003-0.008,0.014-0.013,0.015-0.015c-0.001,0,0.016-0.047,0.016-0.047c0.005-0.004,0.016-0.015,0.016-0.015
		c0.004-0.005,0.01-0.009,0.015-0.016c0.002-0.002,0.014-0.044,0.017-0.046c0,0-0.018-0.008-0.017-0.015
		c0,0,0.014-0.004,0.017-0.015c0.004-0.016,0-0.031,0-0.031s0.011-0.012,0.015-0.016c-0.001-0.009-0.016-0.012-0.015-0.016
		c0.003-0.002,0.014-0.014,0.015-0.016c0.004-0.004,0.016-0.015,0.016-0.015s0-0.026,0-0.03c0,0,0.001-0.026,0-0.031
		c0.001,0,0.001-0.029,0.001-0.029C31.966,20.384,31.985,20.385,31.983,20.377z"/>
	<polygon fill="#ED2224" points="31.106,27.669 27.429,23.992 31.104,20.318 27.673,16.889 23.999,20.563 20.326,16.889 
		16.896,20.318 20.569,23.992 16.894,27.669 20.323,31.1 23.999,27.422 27.677,31.1 	"/>
	<linearGradient id="SVGID_1_" gradientUnits="userSpaceOnUse" x1="17.75" y1="23.9941" x2="30.248" y2="23.9941">
		<stop  offset="0" style="stop-color:#F69799"/>
		<stop  offset="1" style="stop-color:#8F191C"/>
	</linearGradient>
	<polygon fill="url(#SVGID_1_)" points="30.248,27.669 26.572,23.992 30.246,20.318 27.673,17.746 23.999,21.42 20.326,17.746 
		17.753,20.318 21.426,23.992 17.75,27.669 20.323,30.242 23.999,26.564 27.677,30.242 	"/>
</g>
</svg>
