<?xml version="1.0" encoding="utf-8"?>
<!-- Generator: Adobe Illustrator 15.0.0, SVG Export Plug-In . SVG Version: 6.00 Build 0)  -->
<!DOCTYPE svg PUBLIC "-//W3C//DTD SVG 1.1//EN" "http://www.w3.org/Graphics/SVG/1.1/DTD/svg11.dtd">
<svg version="1.1" id="Layer_1" xmlns="http://www.w3.org/2000/svg" xmlns:xlink="http://www.w3.org/1999/xlink" x="0px" y="0px"
	 width="32px" height="32px" viewBox="0 0 32 32" enable-background="new 0 0 32 32" xml:space="preserve">
<rect x="4.472" y="9.031" fill="none" width="0.88" height="3.254"/>
<g>
	<g>
		<g>
			<path fill="#1BABDC" d="M0.229,10.298c-0.277,0-0.379-0.189-0.228-0.421l2.621-4.002c0.151-0.231,0.152-0.611,0.002-0.843
				L0.297,1.438C0.147,1.206,0.25,1.015,0.527,1.015h1.185c0.277,0,0.623,0.192,0.77,0.427L3.81,3.571
				c0.146,0.235,0.385,0.234,0.529-0.002l1.299-2.124c0.144-0.236,0.489-0.43,0.766-0.43h1.166c0.276,0,0.381,0.191,0.232,0.424
				L5.456,5.1C5.307,5.333,5.31,5.712,5.463,5.943l2.616,3.937c0.153,0.23,0.052,0.419-0.225,0.419H6.6
				c-0.276,0-0.625-0.19-0.774-0.423L4.31,7.512c-0.149-0.233-0.394-0.233-0.544,0l-1.52,2.364c-0.15,0.233-0.499,0.423-0.775,0.423
				H0.229z"/>
		</g>
		<g>
			<path fill="#1BABDC" d="M9.417,5.131c-0.277,0-0.503-0.227-0.503-0.503V4c0-0.276,0.227-0.503,0.503-0.503h5.484
				c0.277,0,0.503,0.227,0.503,0.503v0.627c0,0.277-0.227,0.503-0.503,0.503H9.417z M9.417,7.943c-0.277,0-0.503-0.227-0.503-0.503
				V6.806c0-0.277,0.227-0.503,0.503-0.503h5.484c0.277,0,0.503,0.227,0.503,0.503v0.633c0,0.277-0.227,0.503-0.503,0.503H9.417z"/>
		</g>
		<g>
			<path fill="#1BABDC" d="M19.834,10.298c-0.276,0-0.503-0.227-0.503-0.503V6.895c0-0.276-0.121-0.694-0.269-0.928l-2.863-4.525
				c-0.148-0.234-0.042-0.426,0.234-0.426h1.19c0.276,0,0.619,0.195,0.761,0.433l1.67,2.808c0.142,0.238,0.371,0.237,0.511-0.002
				l1.634-2.803c0.139-0.239,0.479-0.435,0.756-0.435h1.153c0.276,0,0.382,0.191,0.234,0.425l-2.875,4.539
				c-0.147,0.233-0.27,0.651-0.27,0.928v2.888c0,0.276-0.226,0.503-0.503,0.503H19.834z"/>
		</g>
		<g>
			<path fill="#1BABDC" d="M29.354,7.905h-1.111c-0.276,0-0.506-0.168-0.51-0.374c0,0,0,0,0-0.051c0-0.523,0.087-0.954,0.26-1.292
				c0.173-0.338,0.52-0.718,1.038-1.14c0.52-0.422,0.83-0.698,0.932-0.83c0.155-0.207,0.233-0.435,0.233-0.684
				c0-0.346-0.138-0.643-0.414-0.89c-0.276-0.247-0.649-0.371-1.118-0.371c-0.451,0-0.829,0.129-1.133,0.386
				c-0.305,0.258-0.513,0.65-0.627,1.178L25.77,3.699c-0.274-0.034-0.441-0.281-0.371-0.548c0,0,0.24-0.911,0.837-1.438
				c0.598-0.528,1.382-0.792,2.353-0.792c1.021,0,1.835,0.267,2.438,0.801c0.604,0.534,0.905,1.155,0.905,1.865
				c0,0.393-0.11,0.764-0.332,1.114c-0.222,0.351-0.696,0.827-1.422,1.431c-0.376,0.312-0.608,0.563-0.699,0.753
				S29.346,7.415,29.354,7.905z M28.243,10.298c-0.276,0-0.503-0.227-0.503-0.503V9.022c0-0.277,0.227-0.503,0.503-0.503h0.773
				c0.276,0,0.503,0.227,0.503,0.503v0.773c0,0.276-0.227,0.503-0.503,0.503H28.243z"/>
		</g>
	</g>
	<g>
		<path fill="#13110C" d="M28,25.853c0,0.553-0.447,1-1,1H14.457v3.227c0,0.404-0.244,0.77-0.617,0.924
			c-0.373,0.156-0.804,0.07-1.09-0.217l-8.457-8.455C4.105,22.144,4,21.89,4,21.624s0.105-0.52,0.293-0.707l8.457-8.457
			c0.286-0.285,0.716-0.371,1.09-0.217s0.617,0.521,0.617,0.924v3.229H27c0.553,0,1,0.447,1,1V25.853z"/>
		<polygon fill="#74B730" points="5,21.624 13.457,30.079 13.457,25.853 27,25.853 27,17.396 13.457,17.396 13.457,13.167 		"/>
		
			<linearGradient id="SVGID_1_" gradientUnits="userSpaceOnUse" x1="-1.1577" y1="-108.2388" x2="10.9258" y2="-108.2388" gradientTransform="matrix(-4.371139e-008 -1 -1 4.371139e-008 -92.0316 26.5072)">
			<stop  offset="0" style="stop-color:#BED789"/>
			<stop  offset="1" style="stop-color:#1C8C37"/>
		</linearGradient>
		<polygon fill="url(#SVGID_1_)" points="26,24.853 12.457,24.853 12.457,27.665 6.414,21.624 12.457,15.582 12.457,18.396 
			26,18.396 		"/>
	</g>
</g>
</svg>
