<?xml version="1.0" encoding="UTF-8" standalone="no"?>
<!-- Generator: Adobe Illustrator 12.0.0, SVG Export Plug-In . SVG Version: 6.00 Build 51448)  -->

<svg
   xmlns:dc="http://purl.org/dc/elements/1.1/"
   xmlns:cc="http://creativecommons.org/ns#"
   xmlns:rdf="http://www.w3.org/1999/02/22-rdf-syntax-ns#"
   xmlns:svg="http://www.w3.org/2000/svg"
   xmlns="http://www.w3.org/2000/svg"
   xmlns:sodipodi="http://sodipodi.sourceforge.net/DTD/sodipodi-0.dtd"
   xmlns:inkscape="http://www.inkscape.org/namespaces/inkscape"
   height="135.772"
   id="Layer_1"
   inkscape:version="0.48.2 r9819"
   sodipodi:docname="confirmation.svg.2012_01_25_10_37_45.0.svg"
   sodipodi:version="0.32"
   space="preserve"
   style="overflow:visible;enable-background:new 0 0 135.81 135.772;"
   version="1.1"
   viewBox="0 0 135.81 135.772"
   width="135.81">
  <metadata
     id="metadata3">
    <rdf:RDF>
      <cc:Work
         rdf:about="">
        <dc:title></dc:title>
        <dc:description />
        <dc:subject>
          <rdf:Bag>
            <rdf:li>unsorted</rdf:li>
          </rdf:Bag>
        </dc:subject>
        <dc:publisher>
          <cc:Agent
             rdf:about="http://www.openclipart.org/">
            <dc:title>Open Clip Art Library</dc:title>
          </cc:Agent>
        </dc:publisher>
        <dc:creator>
          <cc:Agent>
            <dc:title>Architetto Francesco Rollandin</dc:title>
          </cc:Agent>
        </dc:creator>
        <dc:rights>
          <cc:Agent>
            <dc:title>Architetto Francesco Rollandin</dc:title>
          </cc:Agent>
        </dc:rights>
        <dc:date />
        <dc:format>image/svg+xml</dc:format>
        <dc:type
           rdf:resource="http://purl.org/dc/dcmitype/StillImage" />
        <cc:license
           rdf:resource="http://web.resource.org/cc/PublicDomain" />
        <dc:language>en</dc:language>
      </cc:Work>
      <cc:License
         rdf:about="http://web.resource.org/cc/PublicDomain">
        <cc:permits
           rdf:resource="http://web.resource.org/cc/Reproduction" />
        <cc:permits
           rdf:resource="http://web.resource.org/cc/Distribution" />
        <cc:permits
           rdf:resource="http://web.resource.org/cc/DerivativeWorks" />
      </cc:License>
    </rdf:RDF>
  </metadata>
  <defs
     id="defs23" />
  <sodipodi:namedview
     bordercolor="#666666"
     borderopacity="1.0"
     id="base"
     inkscape:current-layer="g3791"
     inkscape:cx="-47.444879"
     inkscape:cy="91.022427"
     inkscape:pageopacity="0.0"
     inkscape:pageshadow="2"
     inkscape:window-height="708"
     inkscape:window-width="1395"
     inkscape:window-x="169"
     inkscape:window-y="169"
     inkscape:zoom="2.6457771"
     pagecolor="#ffffff"
     showgrid="false"
     inkscape:window-maximized="0"
     showguides="true"
     inkscape:guide-bbox="true" />
  <g
     id="g3">
    <path
       d="M0,67.863c0,34.599,27.14,64.461,61.622,67.631c34.495,3.171,66.772-21.085,73.083-55.199   c6.309-34.104-14.978-68.46-48.403-77.834C52.865-6.917,16.735,11.289,4.405,43.747C1.485,51.434,0,59.64,0,67.863"
       id="path5"
       style="fill:#003f1c;fill-opacity:1" />
    <radialGradient
       cx="67.919899"
       cy="67.862297"
       gradientUnits="userSpaceOnUse"
       id="XMLID_2_"
       r="63.1152">
      <stop
         id="stop8"
         offset="0"
         style="stop-color:#4bff24;stop-opacity:1;" />
      <stop
         id="stop10"
         offset="1"
         style="stop-color:#055c00;stop-opacity:1;" />
    </radialGradient>
    <path
       d="M4.804,67.863c0,34.395,28.719,63.115,63.115,63.115s63.116-28.72,63.116-63.115   c0-34.396-28.72-63.116-63.116-63.116S4.804,33.466,4.804,67.863"
       id="path12"
       style="fill:url(#XMLID_2_);fill-opacity:1.0" />
    <path
       d="M10.891,43.33c-5.1,29.726,12.654,59.582,41.202,69.309c30.278,10.318,64.349-4.932,77.011-34.26   c-6.084,35.493-42.578,58.827-77.351,49.442C15.85,118.132-3.907,77.562,10.891,43.33"
       id="path14"
       style="fill:#0c4500;fill-opacity:1" />
    <path
       d="M28.499,39.845c8.729,1.805,18.779-10.56,26.347-13.707c14.14-5.876,31.802-3.146,44.611,4.856   c13.55,8.466,23.188,24.727,24.67,40.689c0.005,0.046,0.005,0.053,0.001,0.024c-1-9.667-0.325-18.754-4.006-28.096   c-6.099-15.488-19.29-27.615-35.192-32.488c-16.443-5.039-34.424-1.832-48.59,7.768C31.966,21.857,15.129,37.079,28.499,39.845"
       id="path16"
       style="fill:#369d2b;fill-opacity:1" />
    <g
       id="g3787"
       transform="matrix(0.87476672,0,0,0.93927271,10.106615,6.7791269)">
      <path
         transform="matrix(1.1597654,0,0,1.0821446,-16.444033,-10.397022)"
         d="m 86.366083,101.26328 c 0,6.35288 -5.82544,11.50291 -13.011484,11.50291 -7.186044,0 -13.011484,-5.15003 -13.011484,-11.50291 0,-6.352877 5.82544,-11.502903 13.011484,-11.502903 7.186044,0 13.011484,5.150026 13.011484,11.502903 z"
         sodipodi:ry="11.502906"
         sodipodi:rx="13.011484"
         sodipodi:cy="101.26328"
         sodipodi:cx="73.354599"
         id="path3781"
         style="fill:#01460d;fill-opacity:1;stroke:none"
         sodipodi:type="arc" />
      <path
         transform="matrix(1.6514069,0,0,1.8199528,-52.82002,-86.175058)"
         d="m 81.086056,101.64043 c 0,3.4368 -3.377066,6.22288 -7.542889,6.22288 -4.165823,0 -7.542889,-2.78608 -7.542889,-6.22288 0,-3.436807 3.377066,-6.222887 7.542889,-6.222887 4.165823,0 7.542889,2.78608 7.542889,6.222887 z"
         sodipodi:ry="6.2228837"
         sodipodi:rx="7.5428891"
         sodipodi:cy="101.64043"
         sodipodi:cx="73.543167"
         id="path3783"
         style="fill:#ffffff;fill-opacity:1;stroke:none"
         sodipodi:type="arc" />
    </g>
    <g
       id="g3791"
       transform="matrix(0.98251265,0,0,1,1.4112992,0)">
      <path
         inkscape:connector-curvature="0"
         id="path3779"
         d="M 34.229592,41.138945 C 49.355945,10.793659 107.36976,28.363036 104.95356,46.575829 105.53977,60.048166 88.771155,61.968248 83.808216,69.073197 79.518693,73.149519 85.612411,81.706936 69.534434,83.178421 51.072933,82.867208 55.235711,70.153387 68.410996,64.170149 92.420907,49.797363 82.74435,38.855715 68.689815,38.22907 61.421981,38.847844 56.903554,40.09027 57.574391,50.206393 58.54034,61.27893 30.094609,53.003566 34.229592,41.138945 z"
         style="fill:#01460d;fill-opacity:1;stroke:none"
         sodipodi:nodetypes="cccccccc" />
      <path
         inkscape:connector-curvature="0"
         id="path3779-4"
         d="M 37.230572,41.164094 C 51.124054,12.604936 104.40946,29.140178 102.19019,46.280963 102.72863,58.960316 87.326735,60.767381 82.768299,67.454132 78.828393,71.290521 84.425443,79.344247 69.657899,80.72912 52.7011,80.436225 57.678655,70.738507 69.78009,65.107443 91.833078,51.580642 86.792087,37.503413 69.651496,36.15773 62.976027,36.740083 55.748369,39.421222 56.364529,48.94191 57.251749,59.362715 33.43261,52.330363 37.230572,41.164094 z"
         style="fill:#ffffff;fill-opacity:1;stroke:none;overflow:visible"
         sodipodi:nodetypes="cccccccc" />
    </g>
  </g>
</svg>
