<?xml version="1.0" encoding="utf-8"?>
<!-- Generator: Adobe Illustrator 14.0.0, SVG Export Plug-In . SVG Version: 6.00 Build 43363)  -->
<!DOCTYPE svg PUBLIC "-//W3C//DTD SVG 1.1//EN" "http://www.w3.org/Graphics/SVG/1.1/DTD/svg11.dtd">
<svg version="1.1" id="Layer_1" xmlns="http://www.w3.org/2000/svg" xmlns:xlink="http://www.w3.org/1999/xlink" x="0px" y="0px"
	 width="32px" height="32px" viewBox="0 0 32 32" enable-background="new 0 0 32 32" xml:space="preserve">
<g>
	<g>
		<path id="path4993_1_" fill="#020202" d="M3.477,28.736C1.56,28.736,0,27.056,0,24.989V7.013C0,6.03,0.348,5.104,0.979,4.4
			c0.66-0.732,1.547-1.137,2.5-1.137h25.047C30.444,3.264,32,4.944,32,7.013v17.977c0,2.066-1.556,3.747-3.474,3.747H3.477z"/>
		<path id="rect26074_1_" fill="#FFFFFF" d="M3.477,4.311h25.046c1.345,0,2.429,1.204,2.429,2.702v17.977
			c0,1.496-1.084,2.7-2.429,2.7H3.477c-1.347,0-2.431-1.204-2.431-2.7V7.013C1.045,5.518,2.13,4.311,3.477,4.311z"/>
		
			<linearGradient id="SVGID_1_" gradientUnits="userSpaceOnUse" x1="593.2061" y1="835.3848" x2="570.2812" y2="819.6351" gradientTransform="matrix(1 0 0 1 -563.0801 -809.6797)">
			<stop  offset="0" style="stop-color:#000000;stop-opacity:0.21"/>
			<stop  offset="1" style="stop-color:#000000;stop-opacity:0"/>
		</linearGradient>
		<path fill="url(#SVGID_1_)" d="M3.477,26.644c-0.764,0-1.384-0.742-1.384-1.654V7.013c0-0.914,0.62-1.656,1.384-1.656h25.046
			c0.763,0,1.382,0.742,1.382,1.656v17.977c0,0.912-0.621,1.654-1.382,1.654H3.477z"/>
		
			<linearGradient id="path26098_2_" gradientUnits="userSpaceOnUse" x1="1885.3721" y1="3555.1553" x2="1885.3721" y2="3552.3064" gradientTransform="matrix(1 0 0 1 -1869.374 -3547.3438)">
			<stop  offset="0" style="stop-color:#295FAA"/>
			<stop  offset="1" style="stop-color:#B1D5F0"/>
		</linearGradient>
		<path id="path26098_1_" fill="url(#path26098_2_)" d="M3.49,4.311c-1.347,0-2.455,1.109-2.455,2.455v1.046H30.96V6.765
			c0-1.345-1.11-2.455-2.455-2.455H3.49z"/>
	</g>
	<g>
		<path d="M13.234,26.29c-0.199,0-0.396-0.055-0.572-0.159c-0.32-0.199-0.517-0.55-0.517-0.93l-0.002-1.793H7.227
			c-0.603,0-1.09-0.489-1.09-1.09v-1.374c0-0.603,0.487-1.089,1.09-1.089h4.918l-0.002-4.492H7.227c-0.603,0-1.09-0.488-1.09-1.09
			v-1.314c0-0.601,0.487-1.089,1.09-1.089h4.916l0.002-1.794c0-0.378,0.195-0.729,0.517-0.927c0.176-0.107,0.373-0.163,0.572-0.163
			c0.166,0,0.336,0.039,0.49,0.117l7.45,3.75h4.115c0.602,0,1.09,0.486,1.09,1.088v7.395c0,0.289-0.115,0.566-0.32,0.77
			c-0.203,0.206-0.48,0.32-0.77,0.32l-4.115-0.002l-7.449,3.753C13.57,26.252,13.402,26.29,13.234,26.29L13.234,26.29z"/>
		<polygon fill="#01ADDB" points="25.289,21.335 20.916,21.333 13.234,25.2 13.232,22.317 7.227,22.317 7.227,20.944 13.234,20.944 
			13.232,14.273 7.227,14.273 7.227,12.959 13.232,12.959 13.234,10.076 20.916,13.94 25.289,13.94 		"/>
		
			<linearGradient id="SVGID_2_" gradientUnits="userSpaceOnUse" x1="299.2754" y1="-390.4766" x2="289.3984" y2="-390.4766" gradientTransform="matrix(-1 0 0 -1 313.5391 -372.8398)">
			<stop  offset="0" style="stop-color:#B2D3DC"/>
			<stop  offset="1" style="stop-color:#0A7C9F"/>
		</linearGradient>
		<polygon fill="url(#SVGID_2_)" points="14.322,23.435 14.322,11.841 20.658,15.03 24.199,15.03 24.199,20.246 20.658,20.244 		"/>
	</g>
</g>
</svg>
