<?xml version="1.0" encoding="utf-8"?>
<!-- Generator: Adobe Illustrator 14.0.0, SVG Export Plug-In . SVG Version: 6.00 Build 43363)  -->
<!DOCTYPE svg PUBLIC "-//W3C//DTD SVG 1.1//EN" "http://www.w3.org/Graphics/SVG/1.1/DTD/svg11.dtd">
<svg version="1.1"
	 id="Layer_1" xmlns:rdf="http://www.w3.org/1999/02/22-rdf-syntax-ns#" xmlns:dc="http://purl.org/dc/elements/1.1/" xmlns:cc="http://creativecommons.org/ns#" xmlns:inkscape="http://www.inkscape.org/namespaces/inkscape" xmlns:sodipodi="http://sodipodi.sourceforge.net/DTD/sodipodi-0.dtd" xmlns:svg="http://www.w3.org/2000/svg" inkscape:version="0.47pre4 " sodipodi:docname="copy_all.svg"
	 xmlns="http://www.w3.org/2000/svg" xmlns:xlink="http://www.w3.org/1999/xlink" x="0px" y="0px" width="32px" height="32px"
	 viewBox="0 0 32 32" enable-background="new 0 0 32 32" xml:space="preserve">
<path d="M0.926,24.293C0.415,24.293,0,23.878,0,23.368V0.926C0,0.415,0.415,0,0.926,0h26.441c0.512,0,0.926,0.415,0.926,0.926
	v22.442c0,0.51-0.414,0.925-0.926,0.925H0.926z"/>
<rect x="0.926" y="0.926" fill="#D9EAF3" width="26.441" height="22.442"/>
<linearGradient id="SVGID_1_" gradientUnits="userSpaceOnUse" x1="282.4658" y1="-376.8848" x2="308.9072" y2="-376.8848" gradientTransform="matrix(1 0 0 -1 -281.54 -372.8398)">
	<stop  offset="0" style="stop-color:#B1D1DB"/>
	<stop  offset="1" style="stop-color:#067C9D"/>
</linearGradient>
<rect x="0.926" y="0.926" fill="url(#SVGID_1_)" width="26.441" height="6.238"/>
<line fill="none" stroke="#000000" x1="0.926" y1="7.164" x2="27.367" y2="7.164"/>
<line fill="none" stroke="#000000" x1="0.926" y1="12.5" x2="27.367" y2="12.5"/>
<line fill="none" stroke="#000000" x1="0.926" y1="18.364" x2="27.367" y2="18.364"/>
<line fill="none" stroke="#000000" x1="9.471" y1="7.179" x2="9.471" y2="23.382"/>
<line fill="none" stroke="#000000" x1="18.882" y1="7.209" x2="18.882" y2="23.413"/>
<path id="path2924_1_" fill="#020202" d="M14.022,32c-0.344,0-0.623-0.278-0.623-0.623V13.72c0-0.343,0.278-0.623,0.623-0.623h8.937
	c0.166,0,0.325,0.065,0.44,0.183l4.15,4.15c0.118,0.118,0.183,0.274,0.183,0.439v13.506c0,0.346-0.277,0.624-0.623,0.624H14.022
	L14.022,32z"/>
<polygon id="polygon2926_1_" fill="#03ADDB" points="22.959,13.72 14.022,13.72 14.022,31.377 27.109,31.377 27.109,17.87 "/>
<polygon id="polygon2928_1_" fill="#FFFFFF" points="25.914,17.307 25.914,30.081 15.163,30.081 15.163,14.917 23.524,14.917 
	24.666,16.214 "/>
<path id="path2930_1_" fill="#020202" d="M22.959,18.494c-0.345,0-0.624-0.279-0.624-0.624v-4.15c0-0.251,0.152-0.48,0.386-0.575
	c0.078-0.034,0.157-0.048,0.238-0.048c0.164,0,0.322,0.063,0.44,0.183l4.15,4.15c0.179,0.178,0.231,0.445,0.136,0.68
	c-0.097,0.232-0.325,0.384-0.576,0.384H22.959z"/>
<polygon id="polygon2932_1_" fill="#03ADDB" points="22.959,17.87 27.109,17.87 22.959,13.72 "/>
<path id="path2924_2_" fill="#020202" d="M18.29,28.888c-0.345,0-0.624-0.277-0.624-0.622V10.608c0-0.343,0.278-0.623,0.624-0.623
	h8.937c0.167,0,0.325,0.065,0.44,0.183l4.15,4.15C31.935,14.436,32,14.593,32,14.758v13.507c0,0.346-0.278,0.623-0.624,0.623H18.29
	L18.29,28.888z"/>
<polygon id="polygon2926_2_" fill="#03ADDB" points="27.227,10.608 18.29,10.608 18.29,28.266 31.376,28.266 31.376,14.758 "/>
<polygon id="polygon2928_2_" fill="#FFFFFF" points="30.18,14.195 30.18,26.969 19.431,26.969 19.431,11.805 27.791,11.805 
	28.934,13.102 "/>
<rect id="rect215" x="20.563" y="13.72" fill="#808285" width="8.541" height="0.475"/>
<path id="path2930_2_" fill="#020202" d="M27.227,15.382c-0.345,0-0.623-0.28-0.623-0.625v-4.15c0-0.251,0.152-0.479,0.384-0.575
	c0.078-0.033,0.159-0.048,0.239-0.048c0.162,0,0.321,0.063,0.44,0.183l4.15,4.15c0.178,0.178,0.232,0.446,0.135,0.68
	c-0.096,0.233-0.324,0.384-0.576,0.384H27.227z"/>
<polygon id="polygon2932_2_" fill="#03ADDB" points="27.227,14.758 31.376,14.758 27.227,10.608 "/>
<rect id="rect219" x="20.662" y="16.637" fill="#808285" width="8.541" height="0.475"/>
<rect id="rect221" x="20.662" y="19.788" fill="#808285" width="8.541" height="0.475"/>
<rect id="rect223" x="20.662" y="23.208" fill="#808285" width="8.541" height="0.475"/>
</svg>
