<?xml version="1.0" encoding="utf-8"?>
<!-- Generator: Adobe Illustrator 15.0.0, SVG Export Plug-In . SVG Version: 6.00 Build 0)  -->
<!DOCTYPE svg PUBLIC "-//W3C//DTD SVG 1.1//EN" "http://www.w3.org/Graphics/SVG/1.1/DTD/svg11.dtd">
<svg version="1.1" id="Layer_1" xmlns="http://www.w3.org/2000/svg" xmlns:xlink="http://www.w3.org/1999/xlink" x="0px" y="0px"
	 width="32px" height="32px" viewBox="0 0 32 32" enable-background="new 0 0 32 32" xml:space="preserve">
<g>
	<g>
		<path id="path2924_1_" fill="#14120D" d="M3.741,32c-0.472,0-0.849-0.379-0.849-0.848V7.09c0-0.469,0.377-0.849,0.849-0.849H15.92
			c0.227,0,0.441,0.088,0.598,0.249l5.656,5.654c0.16,0.16,0.25,0.375,0.25,0.602v18.403c0,0.472-0.379,0.851-0.85,0.851H3.741
			L3.741,32z"/>
		<polygon id="polygon2926_1_" fill="#F8A900" points="15.92,7.09 3.741,7.09 3.741,31.152 21.574,31.152 21.574,12.746 		"/>
		<polygon id="polygon2928_1_" fill="#FFFFFF" points="19.943,11.977 19.943,29.384 5.295,29.384 5.295,8.721 16.688,8.721 
			18.246,10.489 		"/>
		<rect x="6.839" y="11.331" fill="#898789" width="11.638" height="0.646"/>
		<path id="path2930_1_" fill="#14120D" d="M15.92,13.596c-0.471,0-0.852-0.381-0.852-0.85V7.09c0-0.343,0.209-0.652,0.524-0.785
			c0.106-0.043,0.216-0.063,0.327-0.063c0.221,0,0.438,0.087,0.598,0.249l5.656,5.654c0.242,0.244,0.316,0.609,0.186,0.927
			s-0.442,0.522-0.784,0.522H15.92V13.596z"/>
		<polygon id="polygon2932_1_" fill="#F8A900" points="15.92,12.746 21.574,12.746 15.92,7.09 		"/>
		<rect x="6.973" y="15.305" fill="#898789" width="11.639" height="0.647"/>
		<rect x="6.973" y="19.6" fill="#898789" width="11.639" height="0.646"/>
		<rect x="6.973" y="24.261" fill="#898789" width="11.639" height="0.646"/>
	</g>
	<g>
		<path id="path2924_3_" fill="#14120D" d="M10.425,25.759c-0.472,0-0.849-0.379-0.849-0.848V0.849C9.576,0.38,9.953,0,10.425,0
			h12.179c0.227,0,0.441,0.088,0.598,0.249l5.656,5.654c0.16,0.16,0.25,0.375,0.25,0.602v18.403c0,0.472-0.379,0.851-0.85,0.851
			H10.425L10.425,25.759z"/>
		<polygon id="polygon2926_3_" fill="#F8A900" points="22.604,0.849 10.425,0.849 10.425,24.911 28.258,24.911 28.258,6.505 		"/>
		<polygon id="polygon2928_3_" fill="#FFFFFF" points="26.627,5.735 26.627,23.143 11.979,23.143 11.979,2.479 23.371,2.479 
			24.93,4.248 		"/>
		<rect x="13.522" y="5.09" fill="#898789" width="11.638" height="0.646"/>
		<path id="path2930_3_" fill="#14120D" d="M22.604,7.354c-0.471,0-0.852-0.381-0.852-0.85V0.849c0-0.343,0.209-0.652,0.524-0.785
			C22.383,0.021,22.492,0,22.604,0c0.221,0,0.438,0.087,0.598,0.249l5.656,5.654c0.242,0.244,0.316,0.609,0.186,0.927
			s-0.442,0.522-0.784,0.522h-5.655V7.354z"/>
		<polygon id="polygon2932_3_" fill="#F8A900" points="22.604,6.505 28.258,6.505 22.604,0.849 		"/>
		<rect x="13.656" y="9.063" fill="#898789" width="11.639" height="0.647"/>
		<rect x="13.656" y="13.358" fill="#898789" width="11.639" height="0.646"/>
		<rect x="13.656" y="18.02" fill="#898789" width="11.639" height="0.646"/>
	</g>
</g>
</svg>
