<?xml version="1.0" encoding="UTF-8" standalone="no"?>
<!-- Generator: Adobe Illustrator 14.0.0, SVG Export Plug-In . SVG Version: 6.00 Build 43363)  -->

<svg
   xmlns:dc="http://purl.org/dc/elements/1.1/"
   xmlns:cc="http://creativecommons.org/ns#"
   xmlns:rdf="http://www.w3.org/1999/02/22-rdf-syntax-ns#"
   xmlns:svg="http://www.w3.org/2000/svg"
   xmlns="http://www.w3.org/2000/svg"
   xmlns:sodipodi="http://sodipodi.sourceforge.net/DTD/sodipodi-0.dtd"
   xmlns:inkscape="http://www.inkscape.org/namespaces/inkscape"
   version="1.1"
   id="Layer_1"
   x="0px"
   y="0px"
   width="32px"
   height="32px"
   viewBox="0 0 32 32"
   enable-background="new 0 0 32 32"
   xml:space="preserve"
   inkscape:version="0.91 r13725"
   sodipodi:docname="copy.svg"><metadata
     id="metadata25"><rdf:RDF><cc:Work
         rdf:about=""><dc:format>image/svg+xml</dc:format><dc:type
           rdf:resource="http://purl.org/dc/dcmitype/StillImage" /></cc:Work></rdf:RDF></metadata><defs
     id="defs23" /><sodipodi:namedview
     pagecolor="#ffffff"
     bordercolor="#666666"
     borderopacity="1"
     objecttolerance="10"
     gridtolerance="10"
     guidetolerance="10"
     inkscape:pageopacity="0"
     inkscape:pageshadow="2"
     inkscape:window-width="684"
     inkscape:window-height="487"
     id="namedview21"
     showgrid="false"
     inkscape:zoom="7.375"
     inkscape:cx="15.864407"
     inkscape:cy="16"
     inkscape:window-x="0"
     inkscape:window-y="0"
     inkscape:window-maximized="0"
     inkscape:current-layer="Layer_1" /><path
     id="path2924_1_"
     fill="#020202"
     d="M4.176,31c-0.47,0-0.85-0.379-0.85-0.849V6.09c0-0.468,0.38-0.849,0.85-0.849h12.177  c0.229,0,0.443,0.088,0.602,0.249l5.657,5.656c0.16,0.16,0.248,0.374,0.248,0.599v18.404c0,0.472-0.379,0.851-0.85,0.851H4.176  L4.176,31z" /><polygon
     id="polygon2926_1_"
     fill="#03ADDB"
     points="16.353,6.09 4.176,6.09 4.176,30.151 22.01,30.151 22.01,11.745 " /><polygon
     id="polygon2928_1_"
     fill="#FFFFFF"
     points="20.379,10.977 20.379,28.384 5.73,28.384 5.73,7.72 17.123,7.72 18.682,9.489   " /><path
     id="path2930_1_"
     fill="#020202"
     d="M16.353,12.596c-0.47,0-0.848-0.381-0.848-0.851V6.09c0-0.343,0.206-0.653,0.523-0.784  c0.105-0.044,0.215-0.065,0.324-0.065c0.223,0,0.439,0.087,0.602,0.249l5.657,5.656c0.242,0.242,0.314,0.608,0.184,0.926  c-0.133,0.318-0.443,0.524-0.785,0.524H16.353z" /><polygon
     id="polygon2932_1_"
     fill="#03ADDB"
     points="16.353,11.745 22.01,11.745 16.353,6.09 " /><path
     id="path2924_2_"
     fill="#020202"
     d="M9.991,26.759c-0.471,0-0.849-0.379-0.849-0.848V1.849C9.142,1.38,9.52,1,9.991,1H22.17  c0.227,0,0.441,0.088,0.598,0.249l5.656,5.655c0.16,0.16,0.25,0.375,0.25,0.601v18.403c0,0.472-0.379,0.851-0.85,0.851H9.991  L9.991,26.759z" /><polygon
     id="polygon2926_2_"
     fill="#03ADDB"
     points="22.17,1.849 9.991,1.849 9.991,25.911 27.824,25.911 27.824,7.505 " /><polygon
     id="polygon2928_2_"
     fill="#FFFFFF"
     points="26.193,6.736 26.193,24.143 11.545,24.143 11.545,3.479 22.938,3.479   24.496,5.248 " /><path
     id="path2930_2_"
     fill="#020202"
     d="M22.17,8.354c-0.471,0-0.852-0.381-0.852-0.849V1.849c0-0.343,0.209-0.653,0.525-0.785  C21.949,1.021,22.059,1,22.17,1c0.221,0,0.438,0.087,0.598,0.249l5.656,5.655c0.242,0.244,0.316,0.608,0.186,0.926  c-0.131,0.318-0.443,0.523-0.785,0.523H22.17z" /><polygon
     id="polygon2932_2_"
     fill="#03ADDB"
     points="22.17,7.505 27.824,7.505 22.17,1.849 " /><text
     xml:space="preserve"
     style="font-style:normal;font-weight:normal;font-size:23.60387993px;font-family:'Bitstream Vera Sans';fill:#000000;fill-opacity:1;stroke:none;stroke-width:1px;stroke-linecap:butt;stroke-linejoin:miter;stroke-opacity:1"
     x="12.552391"
     y="22.096865"
     id="text2427"
     transform="scale(1.0295437,0.97130406)"><tspan
       sodipodi:role="line"
       id="tspan2429"
       x="12.552391"
       y="22.096865">/</tspan></text>
</svg>