<?xml version="1.0" encoding="UTF-8" standalone="no"?>
<!-- Generator: Adobe Illustrator 14.0.0, SVG Export Plug-In . SVG Version: 6.00 Build 43363)  -->

<svg
   xmlns:dc="http://purl.org/dc/elements/1.1/"
   xmlns:cc="http://creativecommons.org/ns#"
   xmlns:rdf="http://www.w3.org/1999/02/22-rdf-syntax-ns#"
   xmlns:svg="http://www.w3.org/2000/svg"
   xmlns="http://www.w3.org/2000/svg"
   xmlns:xlink="http://www.w3.org/1999/xlink"
   xmlns:sodipodi="http://sodipodi.sourceforge.net/DTD/sodipodi-0.dtd"
   xmlns:inkscape="http://www.inkscape.org/namespaces/inkscape"
   version="1.1"
   id="Layer_1"
   inkscape:version="0.47 r22583"
   sodipodi:docname="create_folder.svg"
   x="0px"
   y="0px"
   width="32px"
   height="32px"
   viewBox="0 0 32 32"
   enable-background="new 0 0 32 32"
   xml:space="preserve"
   sodipodi:version="0.32"
   inkscape:output_extension="org.inkscape.output.svg.inkscape"><metadata
   id="metadata71"><rdf:RDF><cc:Work
       rdf:about=""><dc:format>image/svg+xml</dc:format><dc:type
         rdf:resource="http://purl.org/dc/dcmitype/StillImage" /></cc:Work></rdf:RDF></metadata>
<defs
   id="defs3">
	
	
		<inkscape:perspective
   id="perspective64"
   sodipodi:type="inkscape:persp3d"
   inkscape:persp3d-origin="16 : 10.666667 : 1"
   inkscape:vp_z="32 : 16 : 1"
   inkscape:vp_y="0 : 1000 : 0"
   inkscape:vp_x="0 : 16 : 1">
		</inkscape:perspective>

	
	
	
	
	
		<linearGradient
   gradientTransform="matrix(1,0,0,-1,-844.6201,-1182.5195)"
   y2="-1189.8164"
   x2="854.7641"
   y1="-1191.4375"
   x1="852.9248"
   gradientUnits="userSpaceOnUse"
   id="path10849_2_">
		<stop
   id="stop14"
   style="stop-color:#B2D3DC"
   offset="0" />
		<stop
   id="stop16"
   style="stop-color:#117C9F"
   offset="1" />
	</linearGradient>
	
	
	
		<linearGradient
   gradientTransform="matrix(1,0,0,-1,-844.6201,-1182.5195)"
   y2="-1207.6863"
   x2="862.3418"
   y1="-1188.855"
   x1="862.3418"
   gradientUnits="userSpaceOnUse"
   id="path10830_2_">
		<stop
   id="stop21"
   style="stop-color:#B2D3DC"
   offset="0" />
		<stop
   id="stop23"
   style="stop-color:#117C9F"
   offset="1" />
	</linearGradient>
	
	
	
	
		<linearGradient
   gradientTransform="matrix(1,0,0,-1,-844.6201,-1182.5195)"
   y2="-1208.8583"
   x2="864.6797"
   y1="-1205.5254"
   x1="864.6797"
   gradientUnits="userSpaceOnUse"
   id="path10840_2_">
		<stop
   id="stop29"
   style="stop-color:#B2D3DC"
   offset="0" />
		<stop
   id="stop31"
   style="stop-color:#117C9F"
   offset="1" />
	</linearGradient>
	
	
	
	
		<linearGradient
   gradientTransform="translate(-563.0801,-809.6797)"
   y2="834.9141"
   x2="593.3115"
   y1="834.9141"
   x1="569.9316"
   gradientUnits="userSpaceOnUse"
   id="path46_1_">
		<stop
   id="stop37"
   style="stop-color:#A46829"
   offset="0" />
		<stop
   id="stop39"
   style="stop-color:#FAA81D"
   offset="0.5394" />
		<stop
   id="stop41"
   style="stop-color:#FFF3E2"
   offset="1" />
	</linearGradient>
	
<linearGradient
   inkscape:collect="always"
   xlink:href="#path46_1_"
   id="linearGradient3249"
   gradientUnits="userSpaceOnUse"
   gradientTransform="translate(-563.0801,-809.6797)"
   x1="569.9316"
   y1="834.9141"
   x2="593.3115"
   y2="834.9141" /><linearGradient
   inkscape:collect="always"
   xlink:href="#path10840_2_"
   id="linearGradient3254"
   gradientUnits="userSpaceOnUse"
   gradientTransform="matrix(1,0,0,-1,-844.6201,-1182.5195)"
   x1="864.6797"
   y1="-1205.5254"
   x2="864.6797"
   y2="-1208.8583" /><inkscape:perspective
   id="perspective3468"
   inkscape:persp3d-origin="16 : 10.666667 : 1"
   inkscape:vp_z="32 : 16 : 1"
   inkscape:vp_y="0 : 1000 : 0"
   inkscape:vp_x="0 : 16 : 1"
   sodipodi:type="inkscape:persp3d" /></defs>
<sodipodi:namedview
   id="namedview58"
   inkscape:window-maximized="1"
   inkscape:current-layer="Layer_1"
   inkscape:pageopacity="0"
   inkscape:pageshadow="2"
   inkscape:window-width="1192"
   inkscape:window-height="1515"
   inkscape:window-x="0"
   inkscape:window-y="0"
   bordercolor="#666666"
   borderopacity="1"
   guidetolerance="10"
   pagecolor="#ffffff"
   showgrid="false"
   inkscape:cy="16"
   inkscape:zoom="7.375"
   objecttolerance="10"
   gridtolerance="10"
   inkscape:cx="16">
	</sodipodi:namedview>
<path
   style="fill:#231f20"
   d="m 31.786,19.335 c -0.317,-0.551 -0.938,-0.866 -1.703,-0.866 h -4.695 v -0.426 c 0,-1.497 -1.219,-2.716 -2.715,-2.716 H 14.76 l -0.103,-0.19 C 14.28,14.429 13.764,13.462 12.451,13.462 H 9.799 c -1.349,0 -1.878,0.98 -2.334,1.828 l -0.02,0.038 H 6.716 C 5.219,15.327 4,16.545 4,18.043 V 29.261 C 4,30.771 5.219,32 6.716,32 h 0.286 15.669 0.59 c 1.251,0 2.666,-0.815 3.293,-1.896 l 5.129,-8.859 c 0.383,-0.664 0.421,-1.36 0.103,-1.91 z"
   id="path5" /><path
   style="fill:#a46929"
   d="m 9.799,14.336 c -0.853,0 -1.163,0.625 -1.567,1.375 l -0.27,0.491 H 6.716 c -1.024,0 -1.841,0.816 -1.841,1.841 v 11.218 c 0,1.025 0.816,1.864 1.841,1.864 h 15.955 c 1.024,0 1.841,-0.839 1.841,-1.864 V 18.043 c 0,-1.025 -0.816,-1.841 -1.841,-1.841 H 14.24 l -0.271,-0.491 c -0.405,-0.749 -0.67,-1.375 -1.521,-1.375 H 11.712 10.535 9.799 z"
   id="rect5504" /><path
   d="m 10.983,28.498 c -0.365,0 -0.683,-0.259 -0.755,-0.622 -0.072,-0.369 0.133,-0.739 0.489,-0.869 0.708,-0.264 0.922,-1.058 0.975,-1.679 0.127,-1.468 -0.501,-2.81 -0.8,-2.983 -0.327,-0.189 -0.467,-0.587 -0.333,-0.937 0.114,-0.307 0.403,-0.498 0.72,-0.498 0.048,0 0.099,0.005 0.149,0.015 1.194,0.237 2.959,0.356 5.249,0.356 l 0,0 c 2.331,0 4.817,-0.121 6.817,-0.216 1.35,-0.066 2.517,-0.12 3.26,-0.12 0.145,0 0.274,0.001 0.39,0.005 0.076,0.003 0.148,0.019 0.22,0.041 1.333,0.458 1.635,2.508 1.353,4.219 -0.313,1.876 -1.259,3.041 -2.467,3.041 -0.143,0 -0.289,-0.02 -0.435,-0.051 -0.902,-0.206 -2.3,-0.311 -4.152,-0.311 -3.282,0 -7.156,0.328 -9.238,0.503 -0.707,0.058 -1.208,0.1 -1.413,0.107 -0.01,-10e-4 -0.019,-10e-4 -0.029,-10e-4 l 0,0 z"
   id="path27" /><path
   style="fill:#03addb"
   d="m 27.112,21.72 c 1.622,0.556 1.039,6.225 -1.128,5.729 -3.794,-0.872 -13.887,0.242 -15.001,0.28 2.387,-0.884 1.473,-5.366 0.294,-6.05 4.316,0.857 13.611,-0.049 15.835,0.041 z"
   id="path3447_2_" /><path
   style="fill:url(#linearGradient3254)"
   d="m 12.916,26.8 c 0.163,-0.394 0.27,-0.843 0.311,-1.34 0.076,-0.879 -0.063,-1.914 -0.38,-2.787 1.058,0.1 2.327,0.147 3.829,0.147 2.37,0 4.884,-0.122 6.905,-0.221 1.328,-0.063 2.475,-0.118 3.177,-0.118 0.056,0 0.109,0 0.161,0.003 0.212,0.207 0.491,1.174 0.274,2.466 -0.185,1.102 -0.629,1.756 -0.948,1.756 l 0,0 c -0.026,0 -0.056,-0.004 -0.092,-0.011 -1.028,-0.237 -2.496,-0.353 -4.494,-0.353 -3.037,0.003 -6.549,0.276 -8.743,0.458 l 0,0 z"
   id="path10840_1_" /><g
   id="g3401"
   transform="matrix(0.71260739,0,0,0.67122188,8.6660273,0.44689128)">
	<path
   id="path3403"
   d="m 16.008,31.878 c -1.389,0 -2.28,-0.502 -2.377,-1.322 L 10.654,19.5 1.691,10.265 C 1.5,10.078 1.392,9.823 1.391,9.556 l 0,-6.855 C 1.389,2.149 1.834,1.699 2.387,1.697 c 10e-4,0 0.002,0 0.004,0 0.551,0 0.998,0.444 1,0.995 v 6.437 l 8.874,9.147 c 0.137,0.134 0.231,0.304 0.274,0.49 l 2.979,11.067 c 0.243,0.047 0.733,0.047 0.978,0.001 l 2.969,-11.068 c 0.043,-0.189 0.141,-0.361 0.279,-0.496 l 8.863,-9.029 0.016,-6.543 c 0,-0.553 0.447,-1 1,-1.001 l 0,0 c 0.553,0 1,0.446 1,0.999 l -0.016,6.969 c 0,0.271 -0.109,0.532 -0.305,0.721 l -8.956,9.118 -2.959,11.025 c -0.079,0.835 -0.977,1.349 -2.379,1.349 l 0,0 z"
   style="fill:#231f20" />
	<path
   d="m 2.39,2.697 10e-4,6.854 9.172,9.439 3.059,11.414 0,0 c 0,0.262 0.621,0.474 1.385,0.474 0.767,0 1.387,-0.212 1.387,-0.474 0,-0.003 -0.002,-0.005 -0.002,-0.007 L 20.438,18.99 29.607,9.666 29.623,2.697"
   id="path1874"
   style="fill:#08acda" />
	
		<linearGradient
   gradientTransform="matrix(1,0,0,-1,2.46,-88.8398)"
   y2="-106.2398"
   x2="4.5823002"
   y1="-102.5024"
   x1="16.1504"
   gradientUnits="userSpaceOnUse"
   id="path1888_1_">
		<stop
   id="stop3407"
   style="stop-color:#B1D2DB;stop-opacity:0"
   offset="0" />
		<stop
   id="stop3409"
   style="stop-color:#0A4B5E"
   offset="1" />
	</linearGradient>
	<path
   d="m 2.39,2.697 10e-4,6.854 9.172,9.439 3.115,11.541 c 0,0 0.678,0.29 1.052,0.269 l -0.746,-10.796 -3.435,-8.969 0.02,-6.763"
   id="path1888"
   style="fill:url(#path1888_1_)" />
	
		<linearGradient
   gradientTransform="matrix(1,0,0,-1,2.46,-88.8398)"
   y2="-105.8007"
   x2="22.506701"
   y1="-105.1343"
   x1="15.6743"
   gradientUnits="userSpaceOnUse"
   id="path1890_1_">
		<stop
   id="stop3413"
   style="stop-color:#B1D2DB;stop-opacity:0"
   offset="0" />
		<stop
   id="stop3415"
   style="stop-color:#7DD2ED"
   offset="1" />
	</linearGradient>
	<path
   d="m 29.621,2.698 -0.016,6.969 -9.189,9.4 -3.053,11.436 c 0,0 -0.511,0.368 -0.885,0.348 l 1.96,-11.502 3.159,-8.313 0.02,-6.764"
   id="path1890"
   style="fill:url(#path1890_1_)" />
	<path
   id="path3418"
   d="M 16,5.272 C 1.39,5.272 1.39,3.401 1.39,2.697 c 0,-0.704 0,-2.575 14.61,-2.575 14.609,0 14.609,1.871 14.609,2.575 0,0.704 0,2.575 -14.609,2.575 l 0,0 z"
   style="fill:#231f20" />
	
		<linearGradient
   gradientTransform="matrix(1.133,0,0,-1.0789,-179.1028,-1142.9048)"
   y2="-1061.8247"
   x2="184.2119"
   y1="-1061.8247"
   x1="160.1875"
   gradientUnits="userSpaceOnUse"
   id="ellipse1925_1_">
		<stop
   id="stop3421"
   style="stop-color:#848E8D"
   offset="0" />
		<stop
   id="stop3423"
   style="stop-color:#010101"
   offset="0.0727" />
		<stop
   id="stop3425"
   style="stop-color:#D3D6D4"
   offset="0.2061" />
		<stop
   id="stop3427"
   style="stop-color:#B4B4B5"
   offset="0.6242" />
		<stop
   id="stop3429"
   style="stop-color:#8B9291"
   offset="0.6657" />
		<stop
   id="stop3431"
   style="stop-color:#677270"
   offset="0.7103" />
		<stop
   id="stop3433"
   style="stop-color:#515E5C"
   offset="0.7466" />
		<stop
   id="stop3435"
   style="stop-color:#495755"
   offset="0.7697" />
		<stop
   id="stop3437"
   style="stop-color:#4F5D5B"
   offset="0.7719" />
		<stop
   id="stop3439"
   style="stop-color:#6E7876"
   offset="0.7845" />
		<stop
   id="stop3441"
   style="stop-color:#878D8C"
   offset="0.7983" />
		<stop
   id="stop3443"
   style="stop-color:#9B9F9E"
   offset="0.8136" />
		<stop
   id="stop3445"
   style="stop-color:#A9ACAC"
   offset="0.8311" />
		<stop
   id="stop3447"
   style="stop-color:#B2B2B2"
   offset="0.8527" />
		<stop
   id="stop3449"
   style="stop-color:#B4B4B5"
   offset="0.8909" />
		<stop
   id="stop3451"
   style="stop-color:#495755"
   offset="1" />
	</linearGradient>
	
		<ellipse
   ry="1.575"
   rx="13.609"
   cy="2.697"
   cx="16"
   id="ellipse1925"
   sodipodi:cx="16"
   sodipodi:cy="2.697"
   sodipodi:rx="13.609"
   sodipodi:ry="1.575"
   style="fill:url(#ellipse1925_1_)"
   d="M 29.609,2.697 C 29.609,3.5668485 23.516043,4.2720001 16,4.2720001 8.4839567,4.2720001 2.3909998,3.5668485 2.3909998,2.697 2.3909998,1.8271515 8.4839567,1.122 16,1.122 c 7.516043,0 13.609,0.7051515 13.609,1.575 z">
	</ellipse>
	<path
   d="m 30.125,9.183 c 0,1.082 -6.611,1.959 -14.127,1.959 -7.515,0 -14.123,-0.877 -14.123,-1.959"
   id="path1927"
   style="fill:none;stroke:#010101" />
	<path
   d="m 20.858,19.146 c 0,0.56 -2.414,1.014 -4.864,1.014 -2.449,0 -4.761,-0.454 -4.761,-1.014"
   id="path1929"
   style="fill:none;stroke:#010101" />
	
		<linearGradient
   gradientTransform="matrix(1.133,0,0,-1.0789,-179.1028,-1142.9048)"
   y2="-1061.8247"
   x2="184.2119"
   y1="-1061.8247"
   x1="160.1875"
   gradientUnits="userSpaceOnUse"
   id="ellipse1936_1_">
		<stop
   id="stop3457"
   style="stop-color:#010101"
   offset="0" />
		<stop
   id="stop3459"
   style="stop-color:#010101;stop-opacity:0"
   offset="1" />
	</linearGradient>
	
		<ellipse
   ry="1.575"
   rx="13.609"
   cy="2.697"
   cx="16"
   enable-background="new    "
   id="ellipse1936"
   sodipodi:cx="16"
   sodipodi:cy="2.697"
   sodipodi:rx="13.609"
   sodipodi:ry="1.575"
   style="opacity:0.61000001;fill:url(#ellipse1936_1_)"
   d="M 29.609,2.697 C 29.609,3.5668485 23.516043,4.2720001 16,4.2720001 8.4839567,4.2720001 2.3909998,3.5668485 2.3909998,2.697 2.3909998,1.8271515 8.4839567,1.122 16,1.122 c 7.516043,0 13.609,0.7051515 13.609,1.575 z">
	</ellipse>
</g><path
   style="fill:#231f20"
   d="M 7.002,32 C 6.236,32 5.614,31.684 5.296,31.134 4.98,30.583 5.018,29.888 5.402,29.227 l 5.127,-8.86 c 0.626,-1.082 2.042,-1.897 3.292,-1.897 H 30.08 c 0.766,0 1.388,0.314 1.705,0.864 0.316,0.551 0.279,1.247 -0.104,1.91 l -5.129,8.861 C 25.927,31.185 24.51,32 23.262,32 H 7.002 z"
   id="path36" /><path
   style="fill:#faa81d"
   d="m 13.823,19.344 h 16.26 c 0.932,0 1.309,0.654 0.842,1.461 l -5.128,8.861 c -0.468,0.805 -1.603,1.459 -2.535,1.459 H 7.002 c -0.933,0 -1.31,-0.654 -0.843,-1.459 l 5.129,-8.861 c 0.466,-0.807 1.602,-1.461 2.535,-1.461 z"
   id="rect5498" /><path
   style="fill:url(#linearGradient3249)"
   d="m 7.002,30.25 c -0.063,0 -0.113,-0.005 -0.15,-0.012 0.013,-0.034 0.033,-0.08 0.064,-0.134 l 5.128,-8.86 c 0.311,-0.537 1.157,-1.025 1.777,-1.025 H 30.08 c 0.063,0 0.112,0.007 0.15,0.014 -0.013,0.034 -0.032,0.08 -0.065,0.135 l -5.127,8.859 C 24.727,29.763 23.88,30.25 23.261,30.25 H 7.002 z"
   id="path46" />
<g
   id="g44">
	<path
   fill="#FFFFFF"
   d="M31.939,20.017c-0.09-0.051-0.188-0.088-0.29-0.109c-0.008-0.003-0.023-0.008-0.023-0.008   c-0.087-0.03-0.176-0.048-0.266-0.053c-0.096-0.016-0.19-0.023-0.263-0.023h-2.963c0,0,0-0.653,0-1.354h-2.747v-0.146   c0.205-0.926,0.501-1.969,0.897-3.148c0.021-0.063,0.036-0.126,0.057-0.189c-0.036-0.004-0.073-0.01-0.108-0.01   c0,0-4.683,0-4.684,0c-0.113,0-0.227,0.02-0.334,0.057c-0.024,0.007-0.076,0.025-0.078,0.026c-0.136,0.028-0.263,0.084-0.372,0.161   c-0.019,0.011-0.21,0.136-0.21,0.136c-0.059,0.039-0.112,0.083-0.16,0.131c-0.085,0.069-0.157,0.151-0.216,0.245v0   c-0.013,0.019-0.071,0.105-0.087,0.131c-0.03,0.043-0.058,0.088-0.082,0.136c-0.043,0.086-0.075,0.169-0.098,0.247l-0.008-0.002   l0.008,0.003c-0.001,0.003-0.002,0.006-0.003,0.01c-0.021,0.049-0.039,0.099-0.052,0.15l0.004,0.001   c-0.01,0.026-0.018,0.052-0.024,0.079l0.032,0.009c0,0.002,0,0.006-0.001,0.008c-0.043,0.13-0.066,0.267-0.066,0.391v2.938h-3.074   c-0.105,0-0.209,0.017-0.307,0.048c-0.017,0.005-0.034,0.009-0.05,0.014c-0.108,0.021-0.211,0.061-0.306,0.114   c-0.016,0.008-0.143,0.075-0.18,0.1c-0.11,0.051-0.21,0.122-0.295,0.209c-0.095,0.074-0.176,0.164-0.24,0.264   c-0.071,0.077-0.129,0.163-0.172,0.257c-0.035,0.059-0.063,0.121-0.083,0.185c-0.029,0.063-0.051,0.137-0.066,0.211   c-0.017,0.059-0.028,0.12-0.036,0.18c-0.021,0.113-0.032,0.229-0.032,0.314v4.645c0,0.089,0.019,0.189,0.047,0.286   c0.011,0.052,0.023,0.103,0.036,0.144c0.018,0.082,0.045,0.163,0.084,0.24c0.004,0.009,0.071,0.134,0.08,0.147   c0.041,0.078,0.092,0.15,0.153,0.217c0.026,0.038,0.054,0.075,0.085,0.109c0.003,0.005,0.007,0.01,0.011,0.015   c0.032,0.042,0.067,0.081,0.105,0.117l0.001-0.002c0.048,0.045,0.104,0.088,0.167,0.127c0.06,0.052,0.135,0.102,0.203,0.139   c0.026,0.015,0.072,0.037,0.083,0.043c0.003,0.002,0.008,0.004,0.008,0.004c0.092,0.052,0.191,0.088,0.292,0.107   c0.009,0.003,0.017,0.006,0.025,0.009l0.001-0.004c0.005,0.001,0.051,0.011,0.069,0.015c0.076,0.021,0.153,0.034,0.231,0.039   c0.073,0.014,0.146,0.021,0.217,0.021h2.96l-0.001,3.082h0.006c0.001,0.014,0.006,0.039,0.006,0.039   c0.003,0.054,0.009,0.107,0.019,0.16c0.008,0.056,0.019,0.11,0.034,0.164c0.021,0.096,0.057,0.197,0.112,0.304   c0,0,0.034,0.065,0.056,0.107h2.62h0.59c1.251,0,2.666-0.815,3.293-1.896l5.129-8.859c0.233-0.403,0.322-0.816,0.298-1.204   c-0.005-0.002-0.008-0.006-0.013-0.008C31.96,20.028,31.941,20.019,31.939,20.017z"
   id="path47" />
	<path
   id="path4992_2_"
   fill="#020202"
   d="M21.543,15.977c-0.021,0.006-0.041,0.012-0.061,0.02c0.002,0-0.063,0.021-0.063,0.02   c0.002,0-0.082,0.021-0.08,0.02c0.002,0-0.063,0.042-0.063,0.041c0.002,0-0.063,0.041-0.063,0.04c0.002,0-0.063,0.042-0.061,0.04   c0.002,0-0.063,0.042-0.061,0.041c0,0-0.063,0.063-0.063,0.061c0.001,0-0.043,0.063-0.041,0.061c0.001,0-0.041,0.063-0.041,0.062   c0.001,0-0.041,0.063-0.041,0.062c0,0-0.041,0.082-0.04,0.08c0,0-0.021,0.063-0.021,0.062c0,0-0.021,0.084-0.021,0.081   c0,0-0.021,0.082-0.021,0.08c0,0,0,0.063,0,0.062c0,0,0,0.039,0,0.063c0,0.01,0,0.021,0,0.021v3.938h-3.93c0,0-0.013,0-0.021,0   c-0.012,0-0.02,0-0.02,0c0.002,0-0.043,0-0.041,0c-0.01,0-0.017,0-0.021,0c0.001,0-0.041,0-0.041,0   c0.001,0-0.041,0.021-0.041,0.021c0.002-0.002-0.041,0-0.04,0c0.001-0.002-0.042,0.021-0.041,0.021s-0.041,0.001-0.04,0   c0-0.001-0.041,0.021-0.039,0.021c0.001,0-0.041,0.021-0.041,0.021c0.002,0-0.042,0.021-0.04,0.021c0,0-0.042,0.021-0.041,0.021   s-0.021,0.021-0.021,0.021s-0.038,0.018-0.035,0.018c0,0-0.043,0.021-0.041,0.02c0.001,0-0.021,0.021-0.021,0.021   s-0.042,0.041-0.041,0.041s-0.018,0.018-0.018,0.018c0.001,0-0.042,0.021-0.041,0.021s-0.021,0.042-0.021,0.041   c0.001,0-0.021,0.041-0.021,0.041s-0.021,0.021-0.021,0.021c0,0-0.041,0.043-0.041,0.041c0.001,0-0.021,0.041-0.02,0.041   c0,0-0.021,0.041-0.021,0.037c0.001,0-0.001,0.021,0,0.021s-0.021,0.043-0.021,0.041l-0.021,0.041v0.041l-0.02,0.041v0.041   l-0.021,0.041c0,0,0,0.041,0,0.039c0,0,0,0.043,0,0.041v0.041v4.521c0,0,0,0.042,0,0.041v0.041v0.041l0.021,0.041   c0,0,0,0.041,0,0.039l0.02,0.063l0.021,0.041c0,0,0.001,0.041,0,0.039c0,0,0.021,0.041,0.021,0.039   c-0.001,0,0.021,0.043,0.021,0.041c-0.001,0,0.021,0.041,0.02,0.041c0,0,0.021,0.021,0.021,0.021c0,0,0.042,0.041,0.041,0.041   c0,0,0.021,0.041,0.021,0.04c-0.001,0,0.021,0.041,0.021,0.041s0.042,0.021,0.041,0.02c-0.001,0,0.021,0.042,0.021,0.041   c-0.002,0,0.041,0.021,0.041,0.021c-0.002,0,0.041,0.021,0.04,0.021S16.371,27,16.369,27l0.021,0.021c0,0,0.042,0.021,0.039,0.021   c0-0.001,0.042,0.021,0.042,0.021c-0.002-0.002,0.04,0.021,0.04,0.021c-0.002-0.002,0.041,0,0.041,0   c-0.002-0.002,0.041,0.021,0.041,0.02c-0.002,0,0.063,0.021,0.063,0.021s0.041,0,0.04,0c-0.002,0,0.042,0.021,0.041,0.021   c-0.002,0,0.041,0,0.041,0c-0.002,0,0.041,0,0.041,0c-0.002,0,0.041,0,0.04,0h3.959v3.938v0.021c-0.001,0.014,0,0.021,0,0.021   v0.041c0,0.007,0,0.015,0,0.021v0.041c-0.001,0,0.021,0.041,0.021,0.041c-0.002,0,0,0.041,0,0.039   c-0.002,0,0.021,0.043,0.021,0.041c-0.001,0,0,0.041,0,0.041c-0.001,0,0.021,0.041,0.021,0.041c-0.002,0,0.021,0.041,0.021,0.041   c-0.001,0,0.021,0.041,0.021,0.041c-0.002,0,0.021,0.041,0.021,0.041c-0.001,0,0.021,0.021,0.021,0.021   c-0.002,0,0.021,0.04,0.021,0.039c-0.001,0,0.021,0.041,0.021,0.04c-0.002,0,0.021,0.021,0.021,0.021   c-0.001,0,0.041,0.041,0.041,0.039c-0.001,0,0.021,0.021,0.021,0.021c-0.002,0,0.021,0.041,0.021,0.041   c-0.001,0,0.041,0.021,0.041,0.02c-0.002,0,0.04,0.02,0.04,0.02c-0.001,0,0.021,0.021,0.021,0.021c-0.002,0,0.041,0.04,0.041,0.04   c-0.002,0,0.041,0.021,0.039,0.021c0,0,0.043,0.021,0.041,0.021c0-0.001,0.021,0,0.021,0c-0.002-0.001,0.041,0.021,0.041,0.02   c-0.002,0,0.041,0.021,0.041,0.021c-0.002,0,0.041,0.001,0.039,0c0,0,0.043,0.021,0.041,0.021h0.041L21.6,32   c-0.002,0,0.041,0,0.041,0c-0.002,0,0.041,0,0.041,0c-0.002,0,0.041,0,0.039,0h4.522c-0.002,0,0.042,0,0.041,0   c-0.003,0,0.041,0,0.041,0c-0.003,0,0.041,0,0.041,0c-0.003,0,0.041-0.021,0.04-0.021c-0.003,0,0.042,0,0.041,0   s0.063-0.021,0.063-0.021c0,0.001,0.041-0.021,0.041-0.021c0,0.002,0.041,0,0.041,0c-0.002,0.002,0.041-0.021,0.041-0.02   c-0.002,0,0.041-0.021,0.041-0.021c-0.002,0,0.041-0.021,0.041-0.021c-0.002,0,0.021-0.021,0.021-0.021   c-0.003,0,0.041-0.041,0.04-0.041c-0.002,0,0.039-0.021,0.039-0.021s0.041-0.021,0.041-0.02l0.021-0.041   c-0.002,0,0.041-0.021,0.041-0.021c-0.002,0,0.021-0.042,0.021-0.041c0,0,0.021-0.041,0.021-0.039c0,0,0.041-0.043,0.041-0.041   l0.021-0.021c-0.002,0,0.021-0.042,0.021-0.041c-0.002,0,0.021-0.042,0.021-0.042c-0.002,0,0.021-0.041,0.021-0.04   c0,0,0-0.042,0-0.039c0,0,0.021-0.043,0.021-0.041c-0.002,0,0.021-0.063,0.021-0.062c-0.002,0,0-0.041,0-0.041   c-0.002,0,0.021-0.043,0.021-0.039c-0.002,0,0-0.043,0-0.041c0,0,0-0.043,0-0.041v-0.041v-3.957h3.95c-0.004,0,0.041,0,0.039,0   s0.043,0,0.041,0s0.041,0,0.041,0c-0.002,0,0.041-0.021,0.041-0.021c-0.002,0,0.041-0.002,0.041,0   c-0.002,0,0.063-0.021,0.063-0.021c-0.003,0,0.04-0.021,0.04-0.021c-0.002,0,0.041-0.001,0.041,0c-0.002,0,0.041-0.021,0.039-0.021   c0,0,0.043-0.021,0.041-0.021c0,0.002,0.041-0.021,0.041-0.021l0.021-0.021c0,0,0.041-0.04,0.041-0.039l0.041-0.021   c-0.002,0,0.041-0.021,0.041-0.021c-0.002,0,0.021-0.042,0.021-0.041c-0.002,0,0.041-0.021,0.041-0.02   c-0.002,0,0.021-0.041,0.021-0.041c-0.002,0,0.021-0.041,0.021-0.041c-0.003,0,0.041-0.041,0.041-0.041   c-0.003,0,0.021-0.021,0.021-0.021c-0.002,0,0.021-0.041,0.021-0.041l0.021-0.039l0.021-0.041c-0.002,0,0-0.041,0-0.041   c-0.002,0,0.021-0.041,0.021-0.041c-0.002,0,0.021-0.061,0.021-0.061c-0.002,0,0-0.041,0-0.041c-0.002,0,0.021-0.041,0.021-0.041   s0-0.041,0-0.039c0,0,0-0.043,0-0.041v-0.041V21.72c0,0,0-0.041,0-0.039c0,0,0-0.043,0-0.041c0,0,0-0.041,0-0.039   c0,0-0.021-0.043-0.021-0.041c0,0-0.002-0.041,0-0.041l-0.021-0.063c0,0-0.021-0.041-0.021-0.04c0,0-0.002-0.041,0-0.039   l-0.021-0.041l-0.021-0.041c0,0-0.021-0.04-0.021-0.038c0,0-0.021-0.021-0.021-0.021c0,0-0.041-0.042-0.041-0.041l-0.021-0.041   l-0.021-0.041l-0.041-0.021l-0.021-0.041c0,0-0.041-0.021-0.041-0.021l-0.041-0.021c0.002,0-0.041-0.041-0.041-0.041   c0.002,0-0.021-0.021-0.021-0.021c0.002,0-0.041-0.021-0.041-0.021c0.002,0-0.041-0.021-0.041-0.021   c0.002,0-0.041-0.021-0.039-0.021c0,0.002-0.043,0-0.041,0c0.002,0.002-0.041-0.021-0.04-0.021c0,0.001-0.063-0.021-0.063-0.021   c0,0.002-0.041,0-0.041,0c0.002,0.002-0.041-0.021-0.041-0.021c0.002,0-0.041,0-0.041,0c0.002,0-0.041,0-0.041,0   c0.002,0-0.041,0-0.039,0h-3.963v-3.959c0,0,0-0.042,0-0.041v-0.04c0,0-0.002-0.041,0-0.04c0,0-0.021-0.042-0.021-0.04   c0,0-0.001-0.043,0-0.041c0,0-0.021-0.063-0.021-0.062c0,0-0.021-0.043-0.021-0.041c0,0-0.002-0.041,0-0.041   c0,0-0.021-0.042-0.021-0.041l-0.021-0.04l-0.021-0.041c0,0-0.021-0.021-0.021-0.02c0,0-0.042-0.041-0.041-0.041l-0.021-0.04   l-0.021-0.04c0,0-0.042-0.021-0.04-0.02l-0.021-0.041c0,0-0.041-0.021-0.041-0.02c0,0-0.041-0.021-0.041-0.02   c0.002,0-0.041-0.042-0.041-0.041c0.002,0-0.021-0.021-0.021-0.02c0.001,0-0.042-0.021-0.04-0.02c0,0-0.041-0.021-0.041-0.02   c0.003,0-0.041-0.021-0.041-0.021c0.003,0-0.041-0.001-0.041,0c0.003,0-0.04-0.021-0.038-0.021c0,0-0.063-0.02-0.063-0.02   s-0.043,0-0.041,0c0,0-0.04-0.018-0.039-0.018s-0.042,0-0.04,0c0.001,0-0.043,0-0.041,0s-0.042,0-0.041,0h-4.479   c0.002,0-0.043,0-0.041,0s-0.043,0-0.041,0c0,0-0.01,0-0.021,0c0,0-0.015,0-0.021,0c0.002,0-0.041,0-0.039,0   c-0.017,0-0.029,0-0.041,0V15.97L21.543,15.977L21.543,15.977z" />
	<path
   id="rect4855-4_2_"
   fill="#6EBD46"
   d="M21.713,16.864v4.847h-4.847v4.524h4.847v4.848h4.523v-4.848h4.848v-4.524h-4.848   v-4.847H21.713z" />
	
		<linearGradient
   id="path4903-3_1_"
   gradientUnits="userSpaceOnUse"
   x1="-2389.5283"
   y1="-2161.5156"
   x2="-2376.4365"
   y2="-2161.5156"
   gradientTransform="matrix(0 -1 -1 0 -2137.5391 -2359.0078)">
		<stop
   offset="0"
   style="stop-color:#B0D68C"
   id="stop52" />
		<stop
   offset="1"
   style="stop-color:#1E9046"
   id="stop54" />
	</linearGradient>
	<path
   id="path4903-3_2_"
   fill="url(#path4903-3_1_)"
   d="M22.278,17.429v4.85h-4.847v3.395h4.847v4.848h3.394v-4.848h4.85v-3.395   h-4.85v-4.85H22.278z" />
</g>


</svg>