<?xml version="1.0" encoding="UTF-8" standalone="no"?>
<!-- Generator: Adobe Illustrator 14.0.0, SVG Export Plug-In . SVG Version: 6.00 Build 43363)  -->

<svg
   xmlns:dc="http://purl.org/dc/elements/1.1/"
   xmlns:cc="http://creativecommons.org/ns#"
   xmlns:rdf="http://www.w3.org/1999/02/22-rdf-syntax-ns#"
   xmlns:svg="http://www.w3.org/2000/svg"
   xmlns="http://www.w3.org/2000/svg"
   xmlns:xlink="http://www.w3.org/1999/xlink"
   xmlns:sodipodi="http://sodipodi.sourceforge.net/DTD/sodipodi-0.dtd"
   xmlns:inkscape="http://www.inkscape.org/namespaces/inkscape"
   version="1.1"
   id="Layer_1"
   inkscape:version="0.47 r22583"
   sodipodi:docname="create_filter_in_group.svg"
   x="0px"
   y="0px"
   width="32px"
   height="32px"
   viewBox="0 0 32 32"
   enable-background="new 0 0 32 32"
   xml:space="preserve"><metadata
   id="metadata42"><rdf:RDF><cc:Work
       rdf:about=""><dc:format>image/svg+xml</dc:format><dc:type
         rdf:resource="http://purl.org/dc/dcmitype/StillImage" /></cc:Work></rdf:RDF></metadata>
<defs
   id="defs3">
	
	
		<inkscape:perspective
   id="perspective64"
   sodipodi:type="inkscape:persp3d"
   inkscape:persp3d-origin="16 : 10.666667 : 1"
   inkscape:vp_z="32 : 16 : 1"
   inkscape:vp_y="0 : 1000 : 0"
   inkscape:vp_x="0 : 16 : 1">
		</inkscape:perspective>
<inkscape:perspective
   id="perspective3068"
   inkscape:persp3d-origin="16 : 10.666667 : 1"
   inkscape:vp_z="32 : 16 : 1"
   inkscape:vp_y="0 : 1000 : 0"
   inkscape:vp_x="0 : 16 : 1"
   sodipodi:type="inkscape:persp3d" /><inkscape:perspective
   id="perspective2843"
   inkscape:persp3d-origin="0.5 : 0.33333333 : 1"
   inkscape:vp_z="1 : 0.5 : 1"
   inkscape:vp_y="0 : 1000 : 0"
   inkscape:vp_x="0 : 0.5 : 1"
   sodipodi:type="inkscape:persp3d" /><inkscape:perspective
   id="perspective2872"
   inkscape:persp3d-origin="0.5 : 0.33333333 : 1"
   inkscape:vp_z="1 : 0.5 : 1"
   inkscape:vp_y="0 : 1000 : 0"
   inkscape:vp_x="0 : 0.5 : 1"
   sodipodi:type="inkscape:persp3d" /><linearGradient
   gradientTransform="matrix(1,0,0,-1,2.46,-88.8398)"
   y2="-106.2398"
   x2="4.5823002"
   y1="-102.5024"
   x1="16.1504"
   gradientUnits="userSpaceOnUse"
   id="path1888_1_-3"><stop
     id="stop3280"
     style="stop-color:#B1D2DB;stop-opacity:0"
     offset="0" /><stop
     id="stop3282"
     style="stop-color:#0A4B5E"
     offset="1" /></linearGradient><linearGradient
   gradientTransform="matrix(1,0,0,-1,2.46,-88.8398)"
   y2="-105.8007"
   x2="22.506701"
   y1="-105.1343"
   x1="15.6743"
   gradientUnits="userSpaceOnUse"
   id="path1890_1_-7"><stop
     id="stop3286"
     style="stop-color:#B1D2DB;stop-opacity:0"
     offset="0" /><stop
     id="stop3288"
     style="stop-color:#7DD2ED"
     offset="1" /></linearGradient><linearGradient
   gradientTransform="matrix(1.133,0,0,-1.0789,-179.1028,-1142.9048)"
   y2="-1061.8247"
   x2="184.2119"
   y1="-1061.8247"
   x1="160.1875"
   gradientUnits="userSpaceOnUse"
   id="ellipse1925_1_-4"><stop
     id="stop3294"
     style="stop-color:#848E8D"
     offset="0" /><stop
     id="stop3296"
     style="stop-color:#010101"
     offset="0.0727" /><stop
     id="stop3298"
     style="stop-color:#D3D6D4"
     offset="0.2061" /><stop
     id="stop3300"
     style="stop-color:#B4B4B5"
     offset="0.6242" /><stop
     id="stop3302"
     style="stop-color:#8B9291"
     offset="0.6657" /><stop
     id="stop3304"
     style="stop-color:#677270"
     offset="0.7103" /><stop
     id="stop3306"
     style="stop-color:#515E5C"
     offset="0.7466" /><stop
     id="stop3308"
     style="stop-color:#495755"
     offset="0.7697" /><stop
     id="stop3310"
     style="stop-color:#4F5D5B"
     offset="0.7719" /><stop
     id="stop3312"
     style="stop-color:#6E7876"
     offset="0.7845" /><stop
     id="stop3314"
     style="stop-color:#878D8C"
     offset="0.7983" /><stop
     id="stop3316"
     style="stop-color:#9B9F9E"
     offset="0.8136" /><stop
     id="stop3318"
     style="stop-color:#A9ACAC"
     offset="0.8311" /><stop
     id="stop3320"
     style="stop-color:#B2B2B2"
     offset="0.8527" /><stop
     id="stop3322"
     style="stop-color:#B4B4B5"
     offset="0.8909" /><stop
     id="stop3324"
     style="stop-color:#495755"
     offset="1" /></linearGradient><linearGradient
   gradientTransform="matrix(1.133,0,0,-1.0789,-179.1028,-1142.9048)"
   y2="-1061.8247"
   x2="184.2119"
   y1="-1061.8247"
   x1="160.1875"
   gradientUnits="userSpaceOnUse"
   id="ellipse1936_1_-5"><stop
     id="stop3330"
     style="stop-color:#010101"
     offset="0" /><stop
     id="stop3332"
     style="stop-color:#010101;stop-opacity:0"
     offset="1" /></linearGradient><linearGradient
   id="path4903-3_1_"
   gradientUnits="userSpaceOnUse"
   x1="-1984.6934"
   y1="1911.9902"
   x2="-1971.6035"
   y2="1911.9902"
   gradientTransform="matrix(0,-0.5134293,0.54830082,0,-1021.1726,-987.86581)"><stop
     offset="0"
     style="stop-color:#B0D68C"
     id="stop34" /><stop
     offset="1"
     style="stop-color:#1E9046"
     id="stop36" /></linearGradient><inkscape:perspective
   id="perspective2979"
   inkscape:persp3d-origin="0.5 : 0.33333333 : 1"
   inkscape:vp_z="1 : 0.5 : 1"
   inkscape:vp_y="0 : 1000 : 0"
   inkscape:vp_x="0 : 0.5 : 1"
   sodipodi:type="inkscape:persp3d" /><linearGradient
   gradientTransform="matrix(1,0,0,-1,2.46,-88.8398)"
   y2="-106.2398"
   x2="4.5823002"
   y1="-102.5024"
   x1="16.1504"
   gradientUnits="userSpaceOnUse"
   id="path1888_1_-0"><stop
     id="stop3280-7"
     style="stop-color:#B1D2DB;stop-opacity:0"
     offset="0" /><stop
     id="stop3282-8"
     style="stop-color:#0A4B5E"
     offset="1" /></linearGradient><linearGradient
   gradientTransform="matrix(1,0,0,-1,2.46,-88.8398)"
   y2="-105.8007"
   x2="22.506701"
   y1="-105.1343"
   x1="15.6743"
   gradientUnits="userSpaceOnUse"
   id="path1890_1_-6"><stop
     id="stop3286-8"
     style="stop-color:#B1D2DB;stop-opacity:0"
     offset="0" /><stop
     id="stop3288-8"
     style="stop-color:#7DD2ED"
     offset="1" /></linearGradient><linearGradient
   gradientTransform="matrix(1.133,0,0,-1.0789,-179.1028,-1142.9048)"
   y2="-1061.8247"
   x2="184.2119"
   y1="-1061.8247"
   x1="160.1875"
   gradientUnits="userSpaceOnUse"
   id="ellipse1925_1_-43"><stop
     id="stop3294-1"
     style="stop-color:#848E8D"
     offset="0" /><stop
     id="stop3296-4"
     style="stop-color:#010101"
     offset="0.0727" /><stop
     id="stop3298-9"
     style="stop-color:#D3D6D4"
     offset="0.2061" /><stop
     id="stop3300-2"
     style="stop-color:#B4B4B5"
     offset="0.6242" /><stop
     id="stop3302-0"
     style="stop-color:#8B9291"
     offset="0.6657" /><stop
     id="stop3304-6"
     style="stop-color:#677270"
     offset="0.7103" /><stop
     id="stop3306-8"
     style="stop-color:#515E5C"
     offset="0.7466" /><stop
     id="stop3308-9"
     style="stop-color:#495755"
     offset="0.7697" /><stop
     id="stop3310-2"
     style="stop-color:#4F5D5B"
     offset="0.7719" /><stop
     id="stop3312-6"
     style="stop-color:#6E7876"
     offset="0.7845" /><stop
     id="stop3314-6"
     style="stop-color:#878D8C"
     offset="0.7983" /><stop
     id="stop3316-4"
     style="stop-color:#9B9F9E"
     offset="0.8136" /><stop
     id="stop3318-9"
     style="stop-color:#A9ACAC"
     offset="0.8311" /><stop
     id="stop3320-5"
     style="stop-color:#B2B2B2"
     offset="0.8527" /><stop
     id="stop3322-0"
     style="stop-color:#B4B4B5"
     offset="0.8909" /><stop
     id="stop3324-4"
     style="stop-color:#495755"
     offset="1" /></linearGradient><linearGradient
   gradientTransform="matrix(1.133,0,0,-1.0789,-179.1028,-1142.9048)"
   y2="-1061.8247"
   x2="184.2119"
   y1="-1061.8247"
   x1="160.1875"
   gradientUnits="userSpaceOnUse"
   id="ellipse1936_1_-8"><stop
     id="stop3330-7"
     style="stop-color:#010101"
     offset="0" /><stop
     id="stop3332-1"
     style="stop-color:#010101;stop-opacity:0"
     offset="1" /></linearGradient><linearGradient
   id="path4903-3_1_-7"
   gradientUnits="userSpaceOnUse"
   x1="-1984.6934"
   y1="1911.9902"
   x2="-1971.6035"
   y2="1911.9902"
   gradientTransform="matrix(0,-0.78852879,0.83120232,0,-1564.0589,-1539.4312)"><stop
     offset="0"
     style="stop-color:#B0D68C"
     id="stop34-2" /><stop
     offset="1"
     style="stop-color:#1E9046"
     id="stop36-7" /></linearGradient><inkscape:perspective
   id="perspective2884"
   inkscape:persp3d-origin="0.5 : 0.33333333 : 1"
   inkscape:vp_z="1 : 0.5 : 1"
   inkscape:vp_y="0 : 1000 : 0"
   inkscape:vp_x="0 : 0.5 : 1"
   sodipodi:type="inkscape:persp3d" /><linearGradient
   id="path1888_1_-9"
   gradientUnits="userSpaceOnUse"
   x1="16.1504"
   y1="-102.5024"
   x2="4.5823002"
   y2="-106.2398"
   gradientTransform="matrix(1,0,0,-1,2.46,-88.8398)"><stop
     offset="0"
     style="stop-color:#B1D2DB;stop-opacity:0"
     id="stop9" /><stop
     offset="1"
     style="stop-color:#0A4B5E"
     id="stop11" /></linearGradient><linearGradient
   id="path1890_1_-4"
   gradientUnits="userSpaceOnUse"
   x1="15.6743"
   y1="-105.1343"
   x2="22.506701"
   y2="-105.8007"
   gradientTransform="matrix(1,0,0,-1,2.46,-88.8398)"><stop
     offset="0"
     style="stop-color:#B1D2DB;stop-opacity:0"
     id="stop15" /><stop
     offset="1"
     style="stop-color:#7DD2ED"
     id="stop17" /></linearGradient><linearGradient
   id="ellipse1925_1_-9"
   gradientUnits="userSpaceOnUse"
   x1="160.1875"
   y1="-1061.8247"
   x2="184.2119"
   y2="-1061.8247"
   gradientTransform="matrix(1.133,0,0,-1.0789,-179.1028,-1142.9048)"><stop
     offset="0"
     style="stop-color:#848E8D"
     id="stop23" /><stop
     offset="0.0727"
     style="stop-color:#010101"
     id="stop25" /><stop
     offset="0.2061"
     style="stop-color:#D3D6D4"
     id="stop27-0" /><stop
     offset="0.6242"
     style="stop-color:#B4B4B5"
     id="stop29-9" /><stop
     offset="0.6657"
     style="stop-color:#8B9291"
     id="stop31" /><stop
     offset="0.7103"
     style="stop-color:#677270"
     id="stop33" /><stop
     offset="0.7466"
     style="stop-color:#515E5C"
     id="stop35-1" /><stop
     offset="0.7697"
     style="stop-color:#495755"
     id="stop37-7" /><stop
     offset="0.7719"
     style="stop-color:#4F5D5B"
     id="stop39-7" /><stop
     offset="0.7845"
     style="stop-color:#6E7876"
     id="stop41" /><stop
     offset="0.7983"
     style="stop-color:#878D8C"
     id="stop43" /><stop
     offset="0.8136"
     style="stop-color:#9B9F9E"
     id="stop45" /><stop
     offset="0.8311"
     style="stop-color:#A9ACAC"
     id="stop47" /><stop
     offset="0.8527"
     style="stop-color:#B2B2B2"
     id="stop49" /><stop
     offset="0.8909"
     style="stop-color:#B4B4B5"
     id="stop51" /><stop
     offset="1"
     style="stop-color:#495755"
     id="stop53" /></linearGradient><linearGradient
   id="ellipse1936_1_-1"
   gradientUnits="userSpaceOnUse"
   x1="160.1875"
   y1="-1061.8247"
   x2="184.2119"
   y2="-1061.8247"
   gradientTransform="matrix(1.133,0,0,-1.0789,-179.1028,-1142.9048)"><stop
     offset="0"
     style="stop-color:#010101"
     id="stop59" /><stop
     offset="1"
     style="stop-color:#010101;stop-opacity:0"
     id="stop61" /></linearGradient><inkscape:perspective
   id="perspective2831"
   inkscape:persp3d-origin="0.5 : 0.33333333 : 1"
   inkscape:vp_z="1 : 0.5 : 1"
   inkscape:vp_y="0 : 1000 : 0"
   inkscape:vp_x="0 : 0.5 : 1"
   sodipodi:type="inkscape:persp3d" /><linearGradient
   id="path4903-3_1_-6"
   gradientUnits="userSpaceOnUse"
   x1="-765.71881"
   y1="-1027.3315"
   x2="-745.46832"
   y2="-1027.3315"
   gradientTransform="matrix(0,-0.44448934,-0.48785197,0,-476.27101,-329.32659)"><stop
     offset="0"
     style="stop-color:#B2D78E"
     id="stop6" /><stop
     offset="1"
     style="stop-color:#1F9045"
     id="stop8" /></linearGradient><inkscape:perspective
   id="perspective2831-5"
   inkscape:persp3d-origin="0.5 : 0.33333333 : 1"
   inkscape:vp_z="1 : 0.5 : 1"
   inkscape:vp_y="0 : 1000 : 0"
   inkscape:vp_x="0 : 0.5 : 1"
   sodipodi:type="inkscape:persp3d" /><linearGradient
   id="path4903-3_1_-63"
   gradientUnits="userSpaceOnUse"
   x1="-765.71881"
   y1="-1027.3315"
   x2="-745.46832"
   y2="-1027.3315"
   gradientTransform="matrix(0,-0.4993394,-0.51468572,0,-503.79456,-370.17895)"><stop
     offset="0"
     style="stop-color:#B2D78E"
     id="stop6-9" /><stop
     offset="1"
     style="stop-color:#1F9045"
     id="stop8-4" /></linearGradient><inkscape:perspective
   id="perspective2831-8"
   inkscape:persp3d-origin="0.5 : 0.33333333 : 1"
   inkscape:vp_z="1 : 0.5 : 1"
   inkscape:vp_y="0 : 1000 : 0"
   inkscape:vp_x="0 : 0.5 : 1"
   sodipodi:type="inkscape:persp3d" /><linearGradient
   id="path4903-3_1_-1"
   gradientUnits="userSpaceOnUse"
   x1="-765.71881"
   y1="-1027.3315"
   x2="-745.46832"
   y2="-1027.3315"
   gradientTransform="matrix(0,-1,-1,0,-1008.722,-739.42116)"><stop
     offset="0"
     style="stop-color:#B2D78E"
     id="stop6-2" /><stop
     offset="1"
     style="stop-color:#1F9045"
     id="stop8-9" /></linearGradient><linearGradient
   inkscape:collect="always"
   xlink:href="#path4903-3_1_-1"
   id="linearGradient3363"
   gradientUnits="userSpaceOnUse"
   gradientTransform="matrix(0,-1,-1,0,-1008.722,-739.42116)"
   x1="-765.71881"
   y1="-1027.3315"
   x2="-745.46832"
   y2="-1027.3315" /></defs>
<sodipodi:namedview
   id="namedview58"
   inkscape:window-maximized="1"
   inkscape:current-layer="Layer_1"
   inkscape:pageopacity="0"
   inkscape:pageshadow="2"
   inkscape:window-width="1192"
   inkscape:window-height="1515"
   inkscape:window-x="0"
   inkscape:window-y="0"
   bordercolor="#666666"
   borderopacity="1"
   guidetolerance="10"
   pagecolor="#ffffff"
   showgrid="false"
   inkscape:cy="16.132531"
   inkscape:zoom="34.625"
   objecttolerance="10"
   gridtolerance="10"
   inkscape:cx="9.2880866">
	</sodipodi:namedview>
<path
   id="path5"
   d="M 18.400838,3.3217224 C 18.191821,3.0180318 17.783574,2.8437356 17.279743,2.8437356 l -3.089203,0 0,-0.2346481 c 0,-0.8260964 -0.802674,-1.4986577 -1.787304,-1.4986577 l -5.2070184,0 -0.067945,-0.1052537 C 6.8800998,0.61457881 6.5409497,0.08106821 5.6766639,0.08106821 l -1.7446941,0 c -0.8878938,0 -1.235681,0.5407528 -1.536252,1.00860049 l -0.013244,0.020761 -0.4796469,0 c -0.98520479,10e-8 -1.78730343,0.6720785 -1.78730343,1.4986578 l 0,6.1896882 c 0,0.833821 0.80209864,1.5116943 1.78730383,1.5116943 l 0.1877129,0 10.3115448,0 0.388094,0 c 0.823403,0 1.754482,-0.4499843 2.167336,-1.0467433 l 3.374802,-4.888502 C 18.584521,4.0092509 18.60928,3.625413 18.400837,3.3217224 z"
   style="fill:#231f20" />
<path
   id="rect5504"
   d="m 3.9319698,0.56388321 c -0.5608356,0 -0.765247,0.3452127 -1.0312696,0.75850239 l -0.1779243,0.2708592 -0.8199486,0 c -0.6742696,0 -1.2114972,0.4499835 -1.2114972,1.0158427 l 0,6.1896882 c 0,0.565859 0.5372276,1.028879 1.2114972,1.028879 l 10.4992577,0 c 0.674269,0 1.211497,-0.46302 1.211497,-1.028879 l 0,-6.1896882 c 0,-0.5658592 -0.537228,-1.0158427 -1.211497,-1.0158427 l -5.5478965,0 L 6.6762642,1.3223856 C 6.4096658,0.90909591 6.2351964,0.56388321 5.6755123,0.56388321 l -0.4842534,0 -0.7744599,0 -0.4848292,0 z"
   style="fill:#a46929" />


<linearGradient
   id="path10849_2_"
   gradientUnits="userSpaceOnUse"
   x1="568"
   y1="815.2998"
   x2="570.1016"
   y2="813.4475"
   gradientTransform="matrix(1 0 0 1 -563.0801 -809.6797)">
	<stop
   offset="0"
   style="stop-color:#B2D3DC"
   id="stop12" />
	<stop
   offset="1"
   style="stop-color:#117C9F"
   id="stop14" />
</linearGradient>


<linearGradient
   id="path10830_2_"
   gradientUnits="userSpaceOnUse"
   x1="578.7617"
   y1="812.3486"
   x2="578.7617"
   y2="833.8696"
   gradientTransform="matrix(1 0 0 1 -563.0801 -809.6797)">
	<stop
   offset="0"
   style="stop-color:#B2D3DC"
   id="stop19" />
	<stop
   offset="1"
   style="stop-color:#117C9F"
   id="stop21" />
</linearGradient>

<path
   id="path27"
   d="m 4.7110362,8.3782437 c -0.2401114,0 -0.449705,-0.142913 -0.4969211,-0.343281 -0.047216,-0.203748 0.088098,-0.408462 0.3218759,-0.479919 0.4664034,-0.145327 0.6069002,-0.58324 0.6414486,-0.926039 C 5.2609315,5.8188417 4.8475024,5.0786857 4.6505765,4.9826057 4.4358006,4.8783177 4.3436716,4.6591197 4.4311942,4.4659939 4.5060491,4.2970087 4.696641,4.1912722 4.905083,4.1912722 c 0.031669,0 0.06449,0.00241 0.097887,0.00821 0.7854002,0.1308429 1.947378,0.1965057 3.4536881,0.1965057 l 5.758e-4,0 c 1.5339489,0 3.1698151,-0.066628 4.4861091,-0.1192553 0.88847,-0.036211 1.656596,-0.066146 2.14488,-0.066146 0.09558,0 0.180803,4.828e-4 0.256234,0.0029 0.05067,0.00145 0.09789,0.00966 0.145103,0.022692 0.876954,0.2525122 1.076183,1.3832647 0.889621,2.3271687 -0.206714,1.035638 -0.82801,1.678264 -1.622623,1.678264 -0.09443,0 -0.191168,-0.01014 -0.286752,-0.028 -0.593656,-0.113461 -1.512644,-0.171399 -2.732778,-0.171399 -2.1592744,0 -4.7083703,0.181055 -6.0782143,0.277618 -0.4652517,0.03187 -0.7951889,0.05504 -0.9299277,0.05939 -0.00518,-9.66e-4 -0.011516,-9.66e-4 -0.01785,-9.66e-4 l 0,0 z" />
<path
   id="path3447_2_"
   d="m 15.324879,4.6378761 c 1.067546,0.3065876 0.684059,3.4347456 -0.742214,3.1614726 -2.496698,-0.481367 -9.1386269,0.13374 -9.8716288,0.154501 1.5708005,-0.487643 0.9690826,-2.961105 0.1940468,-3.3381831 2.8393025,0.4726761 8.95552,-0.02752 10.419796,0.022209 z"
   style="fill:#03addb" />
<linearGradient
   id="path10840_2_"
   gradientUnits="userSpaceOnUse"
   x1="581.4336"
   y1="831.4004"
   x2="581.4336"
   y2="835.21"
   gradientTransform="matrix(0.57580663,0,0,0.48281498,-324.10973,-396.0651)">
	<stop
   offset="0"
   style="stop-color:#B2D3DC"
   id="stop27" />
	<stop
   offset="1"
   style="stop-color:#117C9F"
   id="stop29" />
</linearGradient>
<path
   id="path10840_1_"
   d="m 5.9829931,7.4410997 c 0.1071,-0.216784 0.1773484,-0.464951 0.2044113,-0.73919 0.050095,-0.484746 -0.041458,-1.056399 -0.2499001,-1.538248 0.6961502,0.05504 1.5310699,0.0816 2.519154,0.0816 1.5598597,0 3.2147277,-0.06759 4.5442657,-0.12167 0.87465,-0.03428 1.628381,-0.06566 2.090754,-0.06566 0.03627,0 0.07198,0 0.106524,0.0019 0.139345,0.113944 0.323027,0.647455 0.180227,1.360572 -0.121495,0.607864 -0.414005,0.968527 -0.624174,0.968527 l 0,0 c -0.01727,0 -0.03628,-0.0019 -0.05988,-0.0058 -0.677149,-0.130843 -1.643352,-0.194574 -2.957919,-0.194574 -1.9986239,9.66e-4 -4.3099117,0.152569 -5.7534589,0.252512 l 0,0 z"
   style="fill:url(#path10840_2_)" />


<linearGradient
   id="path46_1_"
   gradientUnits="userSpaceOnUse"
   x1="284.7998"
   y1="-397.1074"
   x2="311.5186"
   y2="-397.1074"
   gradientTransform="matrix(1,0,0,-1,-281.54,-372.8398)">
	<stop
   offset="0"
   style="stop-color:#A46829"
   id="stop35" />
	<stop
   offset="0.5394"
   style="stop-color:#FAA81D"
   id="stop37" />
	<stop
   offset="1"
   style="stop-color:#FFF3E2"
   id="stop39" />
</linearGradient>

<g
   id="g3108"
   transform="matrix(0.57580663,0,0,0.48281498,0.23104694,-5.4572997)"><path
     d="M 3.431,32 C 2.555,32 1.845,31.639 1.482,31.01 1.12,30.38 1.164,29.586 1.603,28.83 l 5.86,-10.126 c 0.715,-1.236 2.333,-2.169 3.762,-2.169 h 18.582 c 0.875,0 1.586,0.359 1.948,0.988 0.362,0.629 0.319,1.425 -0.118,2.183 L 25.776,29.833 C 25.059,31.068 23.439,32 22.014,32 H 3.431 z"
     id="path36"
     style="fill:#231f20" /><path
     d="m 11.226,17.535 h 18.583 c 1.065,0 1.496,0.748 0.963,1.67 L 24.91,29.332 C 24.376,30.252 23.079,31 22.014,31 H 3.431 C 2.365,31 1.934,30.252 2.468,29.332 L 8.329,19.205 c 0.533,-0.922 1.831,-1.67 2.897,-1.67 z"
     id="rect5498"
     style="fill:#faa81d" /><path
     d="M 3.431,30 C 3.359,30 3.302,29.994 3.26,29.986 3.275,29.947 3.297,29.894 3.333,29.834 L 9.194,19.707 c 0.355,-0.613 1.322,-1.172 2.031,-1.172 h 18.582 c 0.072,0 0.129,0.008 0.172,0.016 -0.015,0.039 -0.037,0.092 -0.074,0.154 L 24.045,28.83 C 23.689,29.443 22.721,30 22.014,30 H 3.431 z"
     id="path46"
     style="fill:url(#path46_1_)" /></g><g
   inkscape:groupmode="layer"
   id="layer1"
   inkscape:label="folder" /><polyline
   points="6.437,15.668 6.437,23.678 16,23.678 "
   id="polyline8"
   transform="matrix(0.49377744,0,0,1.0085819,2.5472002,-5.4880409)"
   style="fill:none;stroke:#000000;stroke-width:2" /><path
   style="fill:#ffffff"
   d="m 28.172506,21.281821 c 0.279358,-1.714105 0.11307,-3.884068 -0.893183,-4.884613 -0.349672,-0.345555 -0.813367,-0.545664 -1.302717,-0.552497 l -0.217596,-0.002 c -0.565366,0 -1.328372,0.02636 -2.137939,0.0615 0,-0.04588 0,-0.09371 0,-0.14154 0.019,-1.721914 0.488401,-3.99242 1.419592,-6.9101084 l -3.090035,0 c -0.104519,0 -0.209993,0.017566 -0.308813,0.052711 -0.02565,0.0078 -0.07981,0.027333 -0.08266,0.028311 -0.131127,0.027333 -0.253702,0.082978 -0.358223,0.1610644 -0.01805,0.01077 -0.192889,0.1298264 -0.192889,0.1298264 -0.05701,0.039044 -0.109275,0.082978 -0.155832,0.1317787 -0.07887,0.066378 -0.146331,0.1464221 -0.200492,0.2352508 l 0,0 c -0.01236,0.018544 -0.08932,0.1395875 -0.08932,0.1395875 -0.01615,0.026355 -0.02946,0.053689 -0.04181,0.081022 -0.0247,0.038066 -0.04846,0.07711 -0.06651,0.1171327 -0.01805,0.036123 -0.04656,0.1151892 -0.06176,0.1610632 -0.01143,0.03025 -0.01996,0.06248 -0.02851,0.09469 -0.01236,0.04881 -0.02186,0.09761 -0.02851,0.14447 l -0.0066,-9.77e-4 0.0066,9.77e-4 c -0.0086,0.05369 -0.01331,0.1064 -0.0152,0.157159 -0.0171,0.08102 -0.0247,0.161063 -0.0247,0.237201 l 0,2.867905 -2.9209,0 c -0.106428,0 -0.211894,0.01854 -0.310714,0.05369 -0.109274,0.01952 -0.214744,0.05759 -0.309763,0.111278 -0.01615,0.0078 -0.154882,0.08297 -0.189089,0.106399 -0.09597,0.04686 -0.183388,0.109334 -0.259404,0.185467 -0.09787,0.07125 -0.182437,0.16204 -0.248951,0.26844 -0.0066,0.01077 -0.01331,0.02148 -0.01995,0.03319 -0.05606,0.06638 -0.102622,0.14154 -0.138728,0.221585 -9.51e-4,0.002 -0.0019,0.004 -0.0029,0.0058 -0.03041,0.05467 -0.05511,0.111277 -0.07507,0.170824 -0.02755,0.0615 -0.04846,0.133732 -0.06366,0.206943 -0.01615,0.05857 -0.02755,0.119089 -0.03515,0.17961 -0.01996,0.109334 -0.02946,0.223536 -0.02946,0.305532 l 0,4.535154 c 0,0.0859 0.0171,0.183514 0.04371,0.276249 0.0104,0.05076 0.02186,0.09957 0.03325,0.138612 0.0171,0.08492 0.04466,0.168872 0.08457,0.24794 0.0019,0.0058 0.0048,0.01077 0.0077,0.01562 0.01995,0.0449 0.04275,0.08883 0.06937,0.130802 0.03801,0.07223 0.08552,0.140566 0.140627,0.202062 0.02376,0.03612 0.121625,0.161063 0.146331,0.187419 0.0171,0.01952 0.05416,0.05564 0.05416,0.05564 0.04941,0.04686 0.102621,0.08786 0.159633,0.122988 0.06271,0.05369 0.138729,0.1025 0.207142,0.139588 0.0266,0.01562 0.05511,0.02831 0.08362,0.041 0,0 -0.03041,-0.01367 -0.03991,-0.01854 0.01331,0.0068 0.03896,0.0205 0.03896,0.0205 0.08171,0.0449 0.168184,0.07614 0.257503,0.09469 0.0019,9.76e-4 0.0066,0.002 0.0066,0.002 0.01425,0.002 0.06082,0.01176 0.07126,0.01367 0.07887,0.02342 0.159633,0.03807 0.2404,0.04198 0.06842,0.01367 0.135878,0.0205 0.197641,0.0205 l 2.812577,0 -9.5e-4,2.994803 c 1.862383,0.03026 3.295277,0.163015 4.266377,0.394361 0.177686,0.04198 0.362024,0.06248 0.540661,0.06248 1.499408,-0.002 2.672899,-1.487641 3.059628,-3.878212 z"
   id="path29-5" /><g
   transform="matrix(0.62943389,0,0,0.63897671,8.4828646,11.624224)"
   id="g3"><path
     style="fill:#231f20"
     d="m 16.008,31.878 c -1.389,0 -2.28,-0.502 -2.377,-1.322 L 10.654,19.5 1.691,10.265 C 1.5,10.078 1.392,9.823 1.391,9.556 l 0,-6.855 C 1.389,2.149 1.834,1.699 2.387,1.697 c 10e-4,0 0.002,0 0.004,0 0.551,0 0.998,0.444 1,0.995 v 6.437 l 8.874,9.147 c 0.137,0.134 0.231,0.304 0.274,0.49 l 2.979,11.067 c 0.243,0.047 0.733,0.047 0.978,0.001 l 2.969,-11.068 c 0.043,-0.189 0.141,-0.361 0.279,-0.496 l 8.863,-9.029 0.016,-6.543 c 0,-0.553 0.447,-1 1,-1.001 l 0,0 c 0.553,0 1,0.446 1,0.999 l -0.016,6.969 c 0,0.271 -0.109,0.532 -0.305,0.721 l -8.956,9.118 -2.959,11.025 c -0.079,0.835 -0.977,1.349 -2.379,1.349 l 0,0 z"
     id="path5-1" /><path
     style="fill:#08acda"
     id="path1874-5"
     d="m 2.39,2.697 10e-4,6.854 9.172,9.439 3.059,11.414 0,0 c 0,0.262 0.621,0.474 1.385,0.474 0.767,0 1.387,-0.212 1.387,-0.474 0,-0.003 -0.002,-0.005 -0.002,-0.007 L 20.438,18.99 29.607,9.666 29.623,2.697" /><linearGradient
     id="linearGradient2917"
     gradientUnits="userSpaceOnUse"
     x1="16.1504"
     y1="-102.5024"
     x2="4.5823002"
     y2="-106.2398"
     gradientTransform="matrix(1,0,0,-1,2.46,-88.8398)"><stop
       offset="0"
       style="stop-color:#B1D2DB;stop-opacity:0"
       id="stop2919" /><stop
       offset="1"
       style="stop-color:#0A4B5E"
       id="stop2921" /></linearGradient><path
     style="fill:url(#path1888_1_-9)"
     id="path1888-9"
     d="m 2.39,2.697 10e-4,6.854 9.172,9.439 3.115,11.541 c 0,0 0.678,0.29 1.052,0.269 l -0.746,-10.796 -3.435,-8.969 0.02,-6.763" /><linearGradient
     id="linearGradient2924"
     gradientUnits="userSpaceOnUse"
     x1="15.6743"
     y1="-105.1343"
     x2="22.506701"
     y2="-105.8007"
     gradientTransform="matrix(1,0,0,-1,2.46,-88.8398)"><stop
       offset="0"
       style="stop-color:#B1D2DB;stop-opacity:0"
       id="stop2926" /><stop
       offset="1"
       style="stop-color:#7DD2ED"
       id="stop2928" /></linearGradient><path
     style="fill:url(#path1890_1_-4)"
     id="path1890-7"
     d="m 29.621,2.698 -0.016,6.969 -9.189,9.4 -3.053,11.436 c 0,0 -0.511,0.368 -0.885,0.348 l 1.96,-11.502 3.159,-8.313 0.02,-6.764" /><path
     style="fill:#231f20"
     d="M 16,5.272 C 1.39,5.272 1.39,3.401 1.39,2.697 c 0,-0.704 0,-2.575 14.61,-2.575 14.609,0 14.609,1.871 14.609,2.575 0,0.704 0,2.575 -14.609,2.575 l 0,0 z"
     id="path20" /><linearGradient
     id="linearGradient2932"
     gradientUnits="userSpaceOnUse"
     x1="160.1875"
     y1="-1061.8247"
     x2="184.2119"
     y2="-1061.8247"
     gradientTransform="matrix(1.133,0,0,-1.0789,-179.1028,-1142.9048)"><stop
       offset="0"
       style="stop-color:#848E8D"
       id="stop2934" /><stop
       offset="0.0727"
       style="stop-color:#010101"
       id="stop2936" /><stop
       offset="0.2061"
       style="stop-color:#D3D6D4"
       id="stop2938" /><stop
       offset="0.6242"
       style="stop-color:#B4B4B5"
       id="stop2940" /><stop
       offset="0.6657"
       style="stop-color:#8B9291"
       id="stop2942" /><stop
       offset="0.7103"
       style="stop-color:#677270"
       id="stop2944" /><stop
       offset="0.7466"
       style="stop-color:#515E5C"
       id="stop2946" /><stop
       offset="0.7697"
       style="stop-color:#495755"
       id="stop2948" /><stop
       offset="0.7719"
       style="stop-color:#4F5D5B"
       id="stop2950" /><stop
       offset="0.7845"
       style="stop-color:#6E7876"
       id="stop2952" /><stop
       offset="0.7983"
       style="stop-color:#878D8C"
       id="stop2954" /><stop
       offset="0.8136"
       style="stop-color:#9B9F9E"
       id="stop2956" /><stop
       offset="0.8311"
       style="stop-color:#A9ACAC"
       id="stop2958" /><stop
       offset="0.8527"
       style="stop-color:#B2B2B2"
       id="stop2960" /><stop
       offset="0.8909"
       style="stop-color:#B4B4B5"
       id="stop2962" /><stop
       offset="1"
       style="stop-color:#495755"
       id="stop2964" /></linearGradient><ellipse
     d="M 29.609,2.697 C 29.609,3.5668485 23.516043,4.2720001 16,4.2720001 8.4839567,4.2720001 2.3909998,3.5668485 2.3909998,2.697 2.3909998,1.8271515 8.4839567,1.122 16,1.122 c 7.516043,0 13.609,0.7051515 13.609,1.575 z"
     style="fill:url(#ellipse1925_1_-9)"
     sodipodi:ry="1.575"
     sodipodi:rx="13.609"
     sodipodi:cy="2.697"
     sodipodi:cx="16"
     id="ellipse1925-7"
     cx="16"
     cy="2.697"
     rx="13.609"
     ry="1.575" /><path
     style="fill:none;stroke:#010101"
     id="path1927-6"
     d="m 30.125,9.183 c 0,1.082 -6.611,1.959 -14.127,1.959 -7.515,0 -14.123,-0.877 -14.123,-1.959" /><path
     style="fill:none;stroke:#010101"
     id="path1929-7"
     d="m 20.858,19.146 c 0,0.56 -2.414,1.014 -4.864,1.014 -2.449,0 -4.761,-0.454 -4.761,-1.014" /><linearGradient
     id="linearGradient2969"
     gradientUnits="userSpaceOnUse"
     x1="160.1875"
     y1="-1061.8247"
     x2="184.2119"
     y2="-1061.8247"
     gradientTransform="matrix(1.133,0,0,-1.0789,-179.1028,-1142.9048)"><stop
       offset="0"
       style="stop-color:#010101"
       id="stop2971" /><stop
       offset="1"
       style="stop-color:#010101;stop-opacity:0"
       id="stop2973" /></linearGradient><ellipse
     d="M 29.609,2.697 C 29.609,3.5668485 23.516043,4.2720001 16,4.2720001 8.4839567,4.2720001 2.3909998,3.5668485 2.3909998,2.697 2.3909998,1.8271515 8.4839567,1.122 16,1.122 c 7.516043,0 13.609,0.7051515 13.609,1.575 z"
     style="opacity:0.61000001;fill:url(#ellipse1936_1_-1)"
     sodipodi:ry="1.575"
     sodipodi:rx="13.609"
     sodipodi:cy="2.697"
     sodipodi:cx="16"
     id="ellipse1936-3"
     enable-background="new    "
     cx="16"
     cy="2.697"
     rx="13.609"
     ry="1.575" /></g><g
   id="g3358"
   transform="matrix(0.5136835,0,0,0.5314634,15.815665,16.666699)"><path
     d="m 14.847278,3.7997415 c -0.033,0.009 -0.064,0.019 -0.094,0.03 0.004,0 -0.098,0.033 -0.094,0.031 0.002,0 -0.129,0.033 -0.125,0.031 0.002,0 -0.098,0.064 -0.094,0.063 0.002,0 -0.098,0.064 -0.094,0.062 0.002,0 -0.098,0.065 -0.094,0.062 0.002,0 -0.098,0.065 -0.094,0.063 0.002,0 -0.098,0.098 -0.094,0.094 0.002,0 -0.066,0.098 -0.063,0.094 0.002,0 -0.064,0.098 -0.063,0.095 0.002,0 -0.064,0.097 -0.063,0.094 0,0 -0.064,0.129 -0.063,0.125 0,0 -0.033,0.097 -0.031,0.095 0,0 -0.033,0.128 -0.031,0.125 0,0 -0.033,0.128 -0.031,0.125 0,0 0,0.097 0,0.094 0,0 0,0.061 0,0.094 0,0.011 0,0.031 0,0.031 v 6.0940005 h -6.091 c 0.001,0 -0.013,0 -0.031,0 -0.019,-0.001 -0.032,0 -0.031,0 0.002,0 -0.065,0 -0.063,0 -0.011,0 -0.021,0 -0.031,0 0.002,0 -0.064,0 -0.063,0 0.001,0 -0.064,0.031 -0.063,0.031 0.002,-10e-4 -0.064,0 -0.063,0 0.002,-10e-4 -0.064,0.031 -0.063,0.03 10e-4,-0.001 -0.064,10e-4 -0.063,0 0.001,-0.001 -0.062,0.03 -0.06,0.029 0.002,-0.001 -0.064,0.032 -0.063,0.03 0.002,0 -0.064,0.033 -0.063,0.031 0.002,0 -0.064,0.032 -0.063,0.031 0.002,0 -0.033,0.032 -0.031,0.031 0.002,0 -0.064,0.031 -0.063,0.031 0.001,0 -0.064,0.033 -0.063,0.031 0.002,0 -0.033,0.032 -0.031,0.03 0.002,0 -0.064,0.063 -0.063,0.062 0.002,0 -0.033,0.033 -0.031,0.031 0.002,0 -0.064,0.033 -0.063,0.031 0.002,0 -0.033,0.064 -0.031,0.063 0.002,0 -0.033,0.063 -0.031,0.063 10e-4,0 -0.032,0.033 -0.031,0.031 10e-4,0 -0.063,0.064 -0.063,0.063 0.001,0 -0.032,0.063 -0.031,0.062 10e-4,0 -0.032,0.063 -0.031,0.062 10e-4,0 -0.001,0.033 0,0.031 10e-4,0 -0.031,0.064 -0.031,0.063 0,0 -0.031,0.064 -0.031,0.063 0,0 0,0.064 0,0.063 0,0 -0.031,0.064 -0.031,0.063 0,0 0,0.064 0,0.063 0,0 -0.031,0.064 -0.031,0.063 0,0 0,0.064 0,0.063 0,0 0,0.064 0,0.063 0,0 0,0.064 0,0.063 v 7 c 0,0 0,0.064 0,0.063 0,0 0,0.064 0,0.063 0,0 0,0.064 0,0.063 0,0 0.031,0.064 0.031,0.063 0,0 0,0.064 0,0.063 0,0 0.031,0.096 0.031,0.094 0,0 0.031,0.064 0.031,0.063 0,0 0.001,0.064 0,0.063 -10e-4,0 0.032,0.063 0.031,0.061 -0.001,0 0.032,0.064 0.031,0.063 -0.001,0 0.032,0.064 0.031,0.063 -10e-4,0 0.032,0.033 0.031,0.031 -0.001,0 0.064,0.063 0.063,0.063 -0.001,0 0.033,0.064 0.031,0.063 -0.002,0 0.033,0.063 0.031,0.063 -0.002,0 0.064,0.033 0.063,0.031 -0.002,0 0.033,0.064 0.031,0.063 -0.002,0 0.064,0.031 0.063,0.029 -0.002,0 0.064,0.033 0.063,0.031 -0.002,0 0.064,0.064 0.063,0.063 -0.002,0 0.033,0.031 0.031,0.031 -0.002,0 0.064,0.031 0.063,0.031 -0.002,-0.002 0.064,0.031 0.063,0.031 -0.002,-0.002 0.064,0.031 0.063,0.031 -0.002,-0.002 0.064,0 0.063,0 -0.002,-0.002 0.064,0.031 0.063,0.029 -0.002,0 0.096,0.033 0.094,0.031 -0.002,0 0.064,0 0.063,0 -0.003,0 0.064,0.033 0.063,0.031 -0.003,0 0.064,0 0.063,0 -0.003,0 0.064,0 0.063,0 -0.003,0 0.064,0 0.063,0 h 6.125 v 6.094 0.031 c -0.002,0.018 0,0.031 0,0.031 0,0 0,0.064 0,0.063 0,0.01 0,0.02 0,0.031 0,0 0,0.064 0,0.063 -0.002,0 0.031,0.064 0.031,0.063 -0.002,0 0,0.064 0,0.063 -0.002,0 0.031,0.064 0.031,0.063 -0.002,0 0,0.064 0,0.063 -0.002,0 0.031,0.064 0.031,0.063 -0.002,0 0.031,0.063 0.031,0.063 -0.002,0 0.031,0.064 0.031,0.063 -0.002,0 0.031,0.063 0.031,0.063 -0.002,0 0.031,0.033 0.031,0.031 -0.002,0 0.031,0.063 0.031,0.061 -0.002,0 0.031,0.064 0.031,0.063 -0.002,0 0.031,0.033 0.031,0.031 -0.002,0 0.063,0.064 0.063,0.063 -0.002,0 0.031,0.033 0.031,0.031 -0.002,0 0.031,0.064 0.031,0.063 -0.002,0 0.063,0.033 0.063,0.031 -0.002,0 0.063,0.031 0.063,0.031 -0.002,0 0.031,0.031 0.031,0.031 -0.002,0 0.064,0.063 0.063,0.063 -10e-4,0 0.064,0.031 0.063,0.031 -0.002,-0.002 0.064,0.031 0.063,0.031 -0.002,-0.002 0.033,0 0.031,0 -0.002,-0.002 0.064,0.031 0.063,0.029 -0.002,0 0.064,0.033 0.063,0.031 -0.002,0 0.064,0.002 0.063,0 -0.002,0 0.064,0.033 0.063,0.031 -0.002,0 0.064,0 0.063,0 -10e-4,0 0.064,0.033 0.063,0.031 -0.002,0 0.064,0 0.063,0 -0.001,0 0.064,0 0.063,0 -10e-4,0 0.064,0 0.063,0 h 7 c -0.004,0 0.064,0 0.063,0 -0.004,0 0.064,0 0.063,0 -0.004,0 0.064,0 0.063,0 -0.004,0 0.064,-0.031 0.063,-0.031 -0.004,0 0.064,0 0.063,0 -0.001,0 0.096,-0.031 0.094,-0.031 -0.002,0.002 0.064,-0.031 0.063,-0.031 -0.002,0.002 0.064,0 0.063,0 -0.002,0.002 0.064,-0.031 0.063,-0.029 -0.002,0 0.064,-0.033 0.063,-0.031 -0.002,0 0.064,-0.033 0.063,-0.031 -0.002,0 0.033,-0.033 0.031,-0.031 -0.002,0 0.064,-0.064 0.063,-0.063 -0.002,0 0.063,-0.033 0.063,-0.031 -0.002,0 0.063,-0.033 0.063,-0.031 -0.002,0 0.031,-0.063 0.031,-0.061 -0.002,0 0.063,-0.033 0.063,-0.031 -0.002,0 0.031,-0.064 0.031,-0.063 -0.002,0 0.031,-0.064 0.031,-0.063 -0.002,0 0.063,-0.064 0.063,-0.063 -0.002,0 0.031,-0.033 0.031,-0.031 -0.002,0 0.031,-0.064 0.031,-0.063 -0.002,0 0.031,-0.064 0.031,-0.063 -0.002,0 0.031,-0.064 0.031,-0.063 -0.002,0 0,-0.064 0,-0.061 -0.002,0 0.031,-0.066 0.031,-0.063 -0.002,0 0.031,-0.096 0.031,-0.094 -0.002,0 0,-0.064 0,-0.063 -0.002,0 0.031,-0.066 0.031,-0.063 -0.002,0 0,-0.064 0,-0.063 0,0 0,-0.066 0,-0.063 0,0 0,-0.064 0,-0.063 v -6.125 h 6.112 c -0.004,0 0.064,0 0.063,0 -0.004,0 0.064,-0.002 0.063,0 -0.004,0 0.064,-0.002 0.063,0 -0.004,0 0.064,-0.033 0.063,-0.031 -0.004,0 0.064,-0.002 0.063,0 -0.002,0 0.096,-0.033 0.094,-0.031 -0.002,0 0.064,-0.033 0.063,-0.031 -0.002,0 0.064,-0.002 0.063,0 -0.002,0 0.064,-0.031 0.063,-0.031 -10e-4,0 0.064,-0.031 0.063,-0.031 -0.002,0.002 0.064,-0.031 0.063,-0.031 -0.001,0 0.033,-0.033 0.031,-0.031 -0.002,0 0.064,-0.063 0.063,-0.061 -0.002,0 0.063,-0.033 0.063,-0.031 -0.002,0 0.063,-0.033 0.063,-0.031 -0.002,0 0.031,-0.064 0.031,-0.063 -0.002,0 0.063,-0.033 0.063,-0.031 -0.002,0 0.031,-0.063 0.031,-0.063 -0.002,0 0.031,-0.064 0.031,-0.063 -0.002,0 0.063,-0.063 0.063,-0.063 -0.002,0 0.031,-0.033 0.031,-0.031 -0.002,0 0.031,-0.064 0.031,-0.063 -0.002,0 0.031,-0.063 0.031,-0.061 -0.002,0 0.031,-0.064 0.031,-0.063 -0.002,0 0,-0.064 0,-0.063 -0.002,0 0.031,-0.064 0.031,-0.063 -0.002,0 0.031,-0.096 0.031,-0.094 -0.002,0 0,-0.064 0,-0.063 -0.002,0 0.031,-0.064 0.031,-0.063 -0.002,0 0,-0.064 0,-0.063 0,0 0,-0.064 0,-0.063 0,0 0,-0.064 0,-0.063 v -7 c 0,0 0,-0.064 0,-0.062 0,0 0,-0.065 0,-0.063 0,0 -0.002,-0.064 0,-0.062 0,0 -0.033,-0.065 -0.031,-0.063 0,0 -0.002,-0.064 0,-0.062 0,0 -0.033,-0.097 -0.031,-0.095 0,0 -0.033,-0.064 -0.031,-0.062 0,0 -0.002,-0.063 0,-0.062 0,0 -0.033,-0.064 -0.031,-0.063 0,0 -0.033,-0.064 -0.031,-0.063 0,0 -0.033,-0.063 -0.031,-0.062 0,0 -0.033,-0.032 -0.031,-0.03 0,0 -0.064,-0.064 -0.063,-0.063 0,0 -0.033,-0.064 -0.031,-0.063 0,0 -0.033,-0.064 -0.031,-0.063 0,0 -0.064,-0.033 -0.063,-0.031 0,0 -0.033,-0.064 -0.031,-0.063 0,0 -0.064,-0.032 -0.063,-0.03 0,0 -0.064,-0.033 -0.063,-0.031 0.002,0 -0.064,-0.063 -0.063,-0.062 0.002,0 -0.033,-0.032 -0.031,-0.031 0.002,0 -0.064,-0.032 -0.063,-0.031 10e-4,0.001 -0.064,-0.031 -0.063,-0.031 0.001,0 -0.064,-0.031 -0.063,-0.031 0.002,0.002 -0.064,0 -0.063,0 0.002,0.002 -0.064,-0.031 -0.063,-0.03 0.001,10e-4 -0.096,-0.032 -0.094,-0.031 0.002,10e-4 -0.064,0 -0.063,0 0.002,10e-4 -0.064,-0.032 -0.063,-0.03 0.002,0 -0.064,-0.001 -0.063,0 0.002,0 -0.066,0 -0.063,0 0.002,0 -0.066,0 -0.063,0 h -6.125 V 5.1757415 c 0,0 0,-0.065 0,-0.063 0,0 0,-0.064 0,-0.063 0,0 -0.002,-0.065 0,-0.063 0,0 -0.033,-0.064 -0.031,-0.063 0,0 -0.002,-0.065 0,-0.063 0,0 -0.033,-0.096 -0.031,-0.094 0,0 -0.033,-0.065 -0.031,-0.063 0,0 -0.002,-0.064 0,-0.063 0,0 -0.033,-0.063 -0.031,-0.062 0,0 -0.033,-0.063 -0.031,-0.062 0,0 -0.033,-0.064 -0.031,-0.063 0,0 -0.033,-0.033 -0.031,-0.031 0,0 -0.064,-0.063 -0.063,-0.062 0,0 -0.033,-0.063 -0.031,-0.063 0,0 -0.033,-0.063 -0.031,-0.062 0,0 -0.064,-0.033 -0.063,-0.031 0,0 -0.033,-0.063 -0.031,-0.062 0,0 -0.064,-0.033 -0.063,-0.031 0,0 -0.064,-0.033 -0.063,-0.031 0.002,0 -0.064,-0.064 -0.063,-0.063 0.002,0 -0.033,-0.031 -0.031,-0.03 0.002,0 -0.064,-0.032 -0.063,-0.031 10e-4,10e-4 -0.064,-0.032 -0.063,-0.03 0.002,0 -0.064,-0.033 -0.063,-0.031 0.002,0 -0.064,-0.001 -0.063,0 0.002,0 -0.064,-0.032 -0.063,-0.031 0.002,0 -0.096,-0.032 -0.094,-0.031 0.002,0 -0.064,0 -0.063,0 0.001,0 -0.061,-0.027 -0.059,-0.027 0.002,0 -0.066,0 -0.063,0 0.002,0 -0.066,0 -0.063,0 0.002,0 -0.066,0 -0.063,0 h -6.938 c 0.002,0 -0.066,0 -0.063,0 0.002,0 -0.066,0 -0.063,0 0,0 -0.014,0 -0.031,0 0,0 -0.021,0 -0.031,0 0.002,0 -0.066,0 -0.063,0 -0.021,0 -0.043,0 -0.063,0 v -0.007 z"
     id="path4992"
     style="fill:#010101" /><path
     d="m 15.109278,5.1717415 v 7.5000005 h -7.499 v 7 h 7.499 v 7.5 h 7 v -7.5 h 7.5 v -7 h -7.5 V 5.1717415 h -7 z"
     id="rect4855-4"
     style="fill:#6bbe45" /><path
     d="m 15.984278,6.0467415 v 7.5000005 h -7.499 v 5.25 h 7.499 v 7.5 h 5.25 v -7.5 h 7.5 v -5.25 h -7.5 V 6.0467415 h -5.25 z"
     id="path4903-3"
     style="fill:url(#linearGradient3363)" /></g></svg>