<?xml version="1.0" encoding="UTF-8" standalone="no"?>
<!-- Generator: Adobe Illustrator 14.0.0, SVG Export Plug-In . SVG Version: 6.00 Build 43363)  -->

<svg
   xmlns:dc="http://purl.org/dc/elements/1.1/"
   xmlns:cc="http://creativecommons.org/ns#"
   xmlns:rdf="http://www.w3.org/1999/02/22-rdf-syntax-ns#"
   xmlns:svg="http://www.w3.org/2000/svg"
   xmlns="http://www.w3.org/2000/svg"
   xmlns:sodipodi="http://sodipodi.sourceforge.net/DTD/sodipodi-0.dtd"
   xmlns:inkscape="http://www.inkscape.org/namespaces/inkscape"
   version="1.1"
   id="Layer_1"
   x="0px"
   y="0px"
   width="32px"
   height="32px"
   viewBox="0 0 32 32"
   enable-background="new 0 0 32 32"
   xml:space="preserve"
   inkscape:version="0.47 r22583"
   sodipodi:docname="create.svg"><metadata
   id="metadata43"><rdf:RDF><cc:Work
       rdf:about=""><dc:format>image/svg+xml</dc:format><dc:type
         rdf:resource="http://purl.org/dc/dcmitype/StillImage" /></cc:Work></rdf:RDF></metadata><defs
   id="defs41"><inkscape:perspective
     sodipodi:type="inkscape:persp3d"
     inkscape:vp_x="0 : 16 : 1"
     inkscape:vp_y="0 : 1000 : 0"
     inkscape:vp_z="32 : 16 : 1"
     inkscape:persp3d-origin="16 : 10.666667 : 1"
     id="perspective45" /><inkscape:perspective
     id="perspective3341"
     inkscape:persp3d-origin="16 : 10.666667 : 1"
     inkscape:vp_z="32 : 16 : 1"
     inkscape:vp_y="0 : 1000 : 0"
     inkscape:vp_x="0 : 16 : 1"
     sodipodi:type="inkscape:persp3d" /></defs><sodipodi:namedview
   pagecolor="#ffffff"
   bordercolor="#666666"
   borderopacity="1"
   objecttolerance="10"
   gridtolerance="10"
   guidetolerance="10"
   inkscape:pageopacity="0"
   inkscape:pageshadow="2"
   inkscape:window-width="887"
   inkscape:window-height="841"
   id="namedview39"
   showgrid="false"
   inkscape:zoom="7.84375"
   inkscape:cx="16"
   inkscape:cy="16"
   inkscape:window-x="0"
   inkscape:window-y="0"
   inkscape:window-maximized="0"
   inkscape:current-layer="Layer_1" />


<linearGradient
   id="path10849_2_"
   gradientUnits="userSpaceOnUse"
   x1="564.5361"
   y1="816.1055"
   x2="566.9385"
   y2="813.988"
   gradientTransform="matrix(1 0 0 1 -563.0801 -809.6797)">
	<stop
   offset="0"
   style="stop-color:#B2D3DC"
   id="stop6" />
	<stop
   offset="1"
   style="stop-color:#117C9F"
   id="stop8" />
</linearGradient>



<linearGradient
   id="path10830_2_"
   gradientUnits="userSpaceOnUse"
   x1="576.8359"
   y1="812.7295"
   x2="576.8359"
   y2="837.3241"
   gradientTransform="matrix(1 0 0 1 -563.0801 -809.6797)">
	<stop
   offset="0"
   style="stop-color:#B2D3DC"
   id="stop15" />
	<stop
   offset="1"
   style="stop-color:#117C9F"
   id="stop17" />
</linearGradient>



<linearGradient
   id="path10840_2_"
   gradientUnits="userSpaceOnUse"
   x1="579.8896"
   y1="834.5039"
   x2="579.8896"
   y2="838.8577"
   gradientTransform="matrix(1 0 0 1 -563.0801 -809.6797)">
	<stop
   offset="0"
   style="stop-color:#B2D3DC"
   id="stop24" />
	<stop
   offset="1"
   style="stop-color:#117C9F"
   id="stop26" />
</linearGradient>

<g
   id="g3274"
   transform="matrix(0.96948956,0,0,0.90766246,0.04195185,1.0311855)">
	<path
   id="path3276"
   d="m 16.008,31.878 c -1.389,0 -2.28,-0.502 -2.377,-1.322 L 10.654,19.5 1.691,10.265 C 1.5,10.078 1.392,9.823 1.391,9.556 l 0,-6.855 C 1.389,2.149 1.834,1.699 2.387,1.697 c 10e-4,0 0.002,0 0.004,0 0.551,0 0.998,0.444 1,0.995 v 6.437 l 8.874,9.147 c 0.137,0.134 0.231,0.304 0.274,0.49 l 2.979,11.067 c 0.243,0.047 0.733,0.047 0.978,0.001 l 2.969,-11.068 c 0.043,-0.189 0.141,-0.361 0.279,-0.496 l 8.863,-9.029 0.016,-6.543 c 0,-0.553 0.447,-1 1,-1.001 l 0,0 c 0.553,0 1,0.446 1,0.999 l -0.016,6.969 c 0,0.271 -0.109,0.532 -0.305,0.721 l -8.956,9.118 -2.959,11.025 c -0.079,0.835 -0.977,1.349 -2.379,1.349 l 0,0 z"
   style="fill:#231f20" />
	<path
   d="m 2.39,2.697 10e-4,6.854 9.172,9.439 3.059,11.414 0,0 c 0,0.262 0.621,0.474 1.385,0.474 0.767,0 1.387,-0.212 1.387,-0.474 0,-0.003 -0.002,-0.005 -0.002,-0.007 L 20.438,18.99 29.607,9.666 29.623,2.697"
   id="path1874"
   style="fill:#08acda" />
	
		<linearGradient
   gradientTransform="matrix(1,0,0,-1,2.46,-88.8398)"
   y2="-106.2398"
   x2="4.5823002"
   y1="-102.5024"
   x1="16.1504"
   gradientUnits="userSpaceOnUse"
   id="path1888_1_">
		<stop
   id="stop3280"
   style="stop-color:#B1D2DB;stop-opacity:0"
   offset="0" />
		<stop
   id="stop3282"
   style="stop-color:#0A4B5E"
   offset="1" />
	</linearGradient>
	<path
   d="m 2.39,2.697 10e-4,6.854 9.172,9.439 3.115,11.541 c 0,0 0.678,0.29 1.052,0.269 l -0.746,-10.796 -3.435,-8.969 0.02,-6.763"
   id="path1888"
   style="fill:url(#path1888_1_)" />
	
		<linearGradient
   gradientTransform="matrix(1,0,0,-1,2.46,-88.8398)"
   y2="-105.8007"
   x2="22.506701"
   y1="-105.1343"
   x1="15.6743"
   gradientUnits="userSpaceOnUse"
   id="path1890_1_">
		<stop
   id="stop3286"
   style="stop-color:#B1D2DB;stop-opacity:0"
   offset="0" />
		<stop
   id="stop3288"
   style="stop-color:#7DD2ED"
   offset="1" />
	</linearGradient>
	<path
   d="m 29.621,2.698 -0.016,6.969 -9.189,9.4 -3.053,11.436 c 0,0 -0.511,0.368 -0.885,0.348 l 1.96,-11.502 3.159,-8.313 0.02,-6.764"
   id="path1890"
   style="fill:url(#path1890_1_)" />
	<path
   id="path3291"
   d="M 16,5.272 C 1.39,5.272 1.39,3.401 1.39,2.697 c 0,-0.704 0,-2.575 14.61,-2.575 14.609,0 14.609,1.871 14.609,2.575 0,0.704 0,2.575 -14.609,2.575 l 0,0 z"
   style="fill:#231f20" />
	
		<linearGradient
   gradientTransform="matrix(1.133,0,0,-1.0789,-179.1028,-1142.9048)"
   y2="-1061.8247"
   x2="184.2119"
   y1="-1061.8247"
   x1="160.1875"
   gradientUnits="userSpaceOnUse"
   id="ellipse1925_1_">
		<stop
   id="stop3294"
   style="stop-color:#848E8D"
   offset="0" />
		<stop
   id="stop3296"
   style="stop-color:#010101"
   offset="0.0727" />
		<stop
   id="stop3298"
   style="stop-color:#D3D6D4"
   offset="0.2061" />
		<stop
   id="stop3300"
   style="stop-color:#B4B4B5"
   offset="0.6242" />
		<stop
   id="stop3302"
   style="stop-color:#8B9291"
   offset="0.6657" />
		<stop
   id="stop3304"
   style="stop-color:#677270"
   offset="0.7103" />
		<stop
   id="stop3306"
   style="stop-color:#515E5C"
   offset="0.7466" />
		<stop
   id="stop3308"
   style="stop-color:#495755"
   offset="0.7697" />
		<stop
   id="stop3310"
   style="stop-color:#4F5D5B"
   offset="0.7719" />
		<stop
   id="stop3312"
   style="stop-color:#6E7876"
   offset="0.7845" />
		<stop
   id="stop3314"
   style="stop-color:#878D8C"
   offset="0.7983" />
		<stop
   id="stop3316"
   style="stop-color:#9B9F9E"
   offset="0.8136" />
		<stop
   id="stop3318"
   style="stop-color:#A9ACAC"
   offset="0.8311" />
		<stop
   id="stop3320"
   style="stop-color:#B2B2B2"
   offset="0.8527" />
		<stop
   id="stop3322"
   style="stop-color:#B4B4B5"
   offset="0.8909" />
		<stop
   id="stop3324"
   style="stop-color:#495755"
   offset="1" />
	</linearGradient>
	
		<ellipse
   ry="1.575"
   rx="13.609"
   cy="2.697"
   cx="16"
   id="ellipse1925"
   sodipodi:cx="16"
   sodipodi:cy="2.697"
   sodipodi:rx="13.609"
   sodipodi:ry="1.575"
   style="fill:url(#ellipse1925_1_)"
   d="M 29.609,2.697 C 29.609,3.5668485 23.516043,4.2720001 16,4.2720001 8.4839567,4.2720001 2.3909998,3.5668485 2.3909998,2.697 2.3909998,1.8271515 8.4839567,1.122 16,1.122 c 7.516043,0 13.609,0.7051515 13.609,1.575 z">
	</ellipse>
	<path
   d="m 30.125,9.183 c 0,1.082 -6.611,1.959 -14.127,1.959 -7.515,0 -14.123,-0.877 -14.123,-1.959"
   id="path1927"
   style="fill:none;stroke:#010101" />
	<path
   d="m 20.858,19.146 c 0,0.56 -2.414,1.014 -4.864,1.014 -2.449,0 -4.761,-0.454 -4.761,-1.014"
   id="path1929"
   style="fill:none;stroke:#010101" />
	
		<linearGradient
   gradientTransform="matrix(1.133,0,0,-1.0789,-179.1028,-1142.9048)"
   y2="-1061.8247"
   x2="184.2119"
   y1="-1061.8247"
   x1="160.1875"
   gradientUnits="userSpaceOnUse"
   id="ellipse1936_1_">
		<stop
   id="stop3330"
   style="stop-color:#010101"
   offset="0" />
		<stop
   id="stop3332"
   style="stop-color:#010101;stop-opacity:0"
   offset="1" />
	</linearGradient>
	
		<ellipse
   ry="1.575"
   rx="13.609"
   cy="2.697"
   cx="16"
   enable-background="new    "
   id="ellipse1936"
   sodipodi:cx="16"
   sodipodi:cy="2.697"
   sodipodi:rx="13.609"
   sodipodi:ry="1.575"
   style="opacity:0.61000001;fill:url(#ellipse1936_1_)"
   d="M 29.609,2.697 C 29.609,3.5668485 23.516043,4.2720001 16,4.2720001 8.4839567,4.2720001 2.3909998,3.5668485 2.3909998,2.697 2.3909998,1.8271515 8.4839567,1.122 16,1.122 c 7.516043,0 13.609,0.7051515 13.609,1.575 z">
	</ellipse>
</g><path
   fill="#FFFFFF"
   d="M28.113,27.715c0.294-1.756,0.119-3.979-0.94-5.004c-0.368-0.354-0.856-0.559-1.371-0.566l-0.229-0.002  c-0.595,0-1.398,0.027-2.25,0.063c0-0.047,0-0.096,0-0.145c0.02-1.764,0.514-4.09,1.494-7.079h-3.252  c-0.11,0-0.221,0.018-0.325,0.054c-0.027,0.008-0.084,0.028-0.087,0.029c-0.138,0.028-0.267,0.085-0.377,0.165  c-0.019,0.011-0.203,0.133-0.203,0.133c-0.06,0.04-0.115,0.085-0.164,0.135c-0.083,0.068-0.154,0.15-0.211,0.241v0  c-0.013,0.019-0.094,0.143-0.094,0.143c-0.017,0.027-0.031,0.055-0.044,0.083c-0.026,0.039-0.051,0.079-0.07,0.12  c-0.019,0.037-0.049,0.118-0.065,0.165c-0.012,0.031-0.021,0.064-0.03,0.097c-0.013,0.05-0.023,0.1-0.03,0.148l-0.007-0.001  l0.007,0.001c-0.009,0.055-0.014,0.109-0.016,0.161c-0.018,0.083-0.026,0.165-0.026,0.243v2.938h-3.074  c-0.112,0-0.223,0.019-0.327,0.055c-0.115,0.02-0.226,0.059-0.326,0.114c-0.017,0.008-0.163,0.085-0.199,0.109  c-0.101,0.048-0.193,0.112-0.273,0.19c-0.103,0.073-0.192,0.166-0.262,0.275c-0.007,0.011-0.014,0.022-0.021,0.034  c-0.059,0.068-0.108,0.145-0.146,0.227c-0.001,0.002-0.002,0.004-0.003,0.006c-0.032,0.056-0.058,0.114-0.079,0.175  c-0.029,0.063-0.051,0.137-0.067,0.212c-0.017,0.06-0.029,0.122-0.037,0.184c-0.021,0.112-0.031,0.229-0.031,0.313v4.646  c0,0.088,0.018,0.188,0.046,0.283c0.011,0.052,0.023,0.102,0.035,0.142c0.018,0.087,0.047,0.173,0.089,0.254  c0.002,0.006,0.005,0.011,0.008,0.016c0.021,0.046,0.045,0.091,0.073,0.134c0.04,0.074,0.09,0.144,0.148,0.207  c0.025,0.037,0.128,0.165,0.154,0.192c0.018,0.02,0.057,0.057,0.057,0.057c0.052,0.048,0.108,0.09,0.168,0.126  c0.066,0.055,0.146,0.105,0.218,0.143c0.028,0.016,0.058,0.029,0.088,0.042c0,0-0.032-0.014-0.042-0.019  c0.014,0.007,0.041,0.021,0.041,0.021c0.086,0.046,0.177,0.078,0.271,0.097c0.002,0.001,0.007,0.002,0.007,0.002  c0.015,0.002,0.064,0.012,0.075,0.014c0.083,0.024,0.168,0.039,0.253,0.043c0.072,0.014,0.143,0.021,0.208,0.021h2.96l-0.001,3.068  c1.96,0.031,3.468,0.167,4.49,0.404c0.187,0.043,0.381,0.064,0.569,0.064C26.471,31.686,27.706,30.164,28.113,27.715z"
   id="path29" />
<path
   id="path4992_2_"
   fill="#020202"
   d="M21.559,15.984c-0.021,0.006-0.041,0.012-0.061,0.02c0.002,0-0.063,0.021-0.063,0.02  c0.002,0-0.082,0.021-0.08,0.02c0.002,0-0.063,0.042-0.063,0.041c0.002,0-0.063,0.041-0.063,0.04c0.002,0-0.063,0.042-0.061,0.04  c0.002,0-0.063,0.042-0.061,0.041c0,0-0.063,0.063-0.063,0.061c0.001,0-0.043,0.063-0.041,0.061c0.001,0-0.041,0.063-0.041,0.062  c0.001,0-0.041,0.063-0.041,0.062c0,0-0.041,0.082-0.04,0.08c0,0-0.021,0.063-0.021,0.062c0,0-0.021,0.084-0.021,0.081  c0,0-0.021,0.082-0.021,0.08c0,0,0,0.063,0,0.062c0,0,0,0.039,0,0.062c0,0.009,0,0.021,0,0.021v3.938h-3.93c0,0-0.012,0-0.021,0  c-0.012,0-0.02,0-0.02,0c0.002,0-0.043,0-0.041,0c-0.009,0-0.016,0-0.021,0c0.001,0-0.041,0-0.041,0  c0.001,0-0.041,0.021-0.041,0.021c0.002-0.002-0.041,0-0.04,0c0.001-0.002-0.042,0.021-0.041,0.021s-0.041,0.001-0.04,0  c0-0.001-0.041,0.021-0.039,0.021c0.001,0-0.041,0.021-0.041,0.02c0.002,0-0.042,0.021-0.04,0.02c0,0-0.042,0.021-0.041,0.021  s-0.021,0.021-0.021,0.021S16.362,21,16.364,21c0,0-0.042,0.021-0.041,0.02c0.001,0-0.021,0.021-0.021,0.021  c0,0-0.042,0.041-0.041,0.041c0.001,0-0.018,0.018-0.018,0.018c0.001,0-0.042,0.021-0.041,0.021c0.001,0-0.021,0.042-0.02,0.041  c0.001,0-0.021,0.041-0.021,0.041s-0.021,0.021-0.02,0.021c0,0-0.041,0.043-0.041,0.041c0.001,0-0.021,0.041-0.02,0.041  c0,0-0.021,0.041-0.021,0.038c0.001,0-0.001,0.021,0,0.021c0.001,0-0.021,0.043-0.021,0.041l-0.02,0.041v0.041l-0.02,0.041v0.041  l-0.021,0.041c0,0,0,0.041,0,0.039c0,0,0,0.043,0,0.041v0.041v4.522c0,0,0,0.042,0,0.041v0.041v0.041l0.021,0.041  c0,0,0,0.041,0,0.039l0.02,0.063l0.02,0.041c0,0,0.001,0.041,0,0.039c0,0,0.021,0.041,0.021,0.039c-0.001,0,0.021,0.043,0.021,0.041  c-0.001,0,0.021,0.041,0.02,0.041c0,0,0.021,0.021,0.02,0.021c0,0,0.042,0.041,0.041,0.041c0,0,0.021,0.041,0.021,0.04  c-0.001,0,0.021,0.041,0.02,0.041s0.042,0.021,0.041,0.02c-0.001,0,0.021,0.042,0.021,0.041c-0.002,0,0.041,0.021,0.041,0.02  c-0.002,0,0.041,0.021,0.04,0.021s0.042,0.041,0.04,0.041l0.021,0.021c0,0,0.042,0.02,0.04,0.02c0-0.001,0.042,0.021,0.042,0.021  c-0.002-0.002,0.04,0.021,0.04,0.021c-0.002-0.002,0.041,0,0.041,0c-0.002-0.002,0.041,0.021,0.041,0.019  c-0.002,0,0.063,0.021,0.062,0.021s0.041,0,0.04,0c-0.002,0,0.042,0.021,0.041,0.02c-0.002,0,0.041,0,0.041,0  c-0.002,0,0.041,0,0.041,0c-0.002,0,0.041,0,0.04,0h3.959v3.939v0.02c-0.001,0.014,0,0.021,0,0.021v0.041c0,0.007,0,0.014,0,0.021  v0.041c-0.001,0,0.021,0.041,0.021,0.041c-0.002,0,0,0.041,0,0.039c-0.002,0,0.021,0.043,0.021,0.041c-0.001,0,0,0.041,0,0.041  c-0.001,0,0.021,0.041,0.021,0.041c-0.002,0,0.021,0.041,0.021,0.041c-0.001,0,0.021,0.041,0.021,0.041  c-0.002,0,0.021,0.041,0.021,0.041c-0.001,0,0.021,0.021,0.021,0.021c-0.002,0,0.021,0.04,0.021,0.039  c-0.001,0,0.021,0.041,0.021,0.04c-0.002,0,0.021,0.021,0.021,0.021c-0.001,0,0.041,0.041,0.041,0.039  c-0.001,0,0.021,0.021,0.021,0.021c-0.002,0,0.021,0.041,0.021,0.041c-0.001,0,0.041,0.021,0.041,0.02c-0.002,0,0.04,0.02,0.04,0.02  c-0.001,0,0.021,0.021,0.021,0.021c-0.002,0,0.041,0.04,0.041,0.04c-0.002,0,0.041,0.021,0.039,0.021c0,0,0.043,0.021,0.041,0.021  c0-0.001,0.021,0,0.021,0c-0.002-0.001,0.041,0.021,0.041,0.02c-0.002,0,0.041,0.021,0.041,0.021c-0.002,0,0.041,0.001,0.039,0  c0,0,0.043,0.021,0.041,0.021h0.041l0.041,0.021c-0.002,0,0.041,0,0.041,0c-0.002,0,0.041,0,0.041,0c-0.002,0,0.041,0,0.039,0h4.523  c-0.002,0,0.042,0,0.041,0c-0.003,0,0.041,0,0.041,0c-0.003,0,0.041,0,0.041,0c-0.003,0,0.041-0.021,0.04-0.021  c-0.003,0,0.042,0,0.041,0s0.063-0.021,0.062-0.021c0,0.001,0.041-0.021,0.041-0.021c0,0.002,0.041,0,0.041,0  c-0.002,0.002,0.041-0.021,0.041-0.02c-0.002,0,0.041-0.021,0.041-0.021c-0.002,0,0.041-0.021,0.041-0.021  c-0.002,0,0.021-0.021,0.021-0.021c-0.003,0,0.041-0.041,0.04-0.041c-0.002,0,0.039-0.021,0.039-0.021c0,0,0.041-0.021,0.041-0.02  l0.021-0.041c-0.002,0,0.041-0.021,0.041-0.021c-0.002,0,0.021-0.042,0.021-0.041c0,0,0.021-0.041,0.021-0.039  c0,0,0.041-0.043,0.041-0.041l0.021-0.021c-0.002,0,0.021-0.042,0.021-0.041c-0.002,0,0.021-0.042,0.021-0.042  c-0.002,0,0.021-0.041,0.021-0.04c0,0,0-0.042,0-0.039c0,0,0.021-0.043,0.021-0.041c-0.002,0,0.021-0.063,0.021-0.062  c-0.002,0,0-0.041,0-0.041c-0.002,0,0.021-0.043,0.021-0.039c-0.002,0,0-0.043,0-0.041c0,0,0-0.043,0-0.041v-0.041V27.15h3.95  c-0.004,0,0.041,0,0.039,0s0.043,0,0.041,0s0.041,0,0.041,0c-0.002,0,0.041-0.021,0.041-0.021c-0.002,0,0.041-0.002,0.041,0  c-0.002,0,0.063-0.021,0.063-0.021c-0.003,0,0.04-0.021,0.04-0.021c-0.002,0,0.041-0.001,0.041,0c-0.002,0,0.041-0.021,0.039-0.021  c0,0,0.043-0.021,0.041-0.021c0,0.002,0.041-0.021,0.041-0.021l0.021-0.021c0,0,0.041-0.04,0.041-0.039l0.041-0.021  c-0.002,0,0.041-0.021,0.041-0.021c-0.002,0,0.021-0.042,0.021-0.041c-0.002,0,0.041-0.021,0.041-0.02  c-0.002,0,0.021-0.041,0.021-0.041c-0.002,0,0.021-0.041,0.021-0.041c-0.003,0,0.041-0.041,0.041-0.041  c-0.003,0,0.02-0.021,0.02-0.021c-0.002,0,0.021-0.041,0.021-0.041l0.021-0.039c-0.001,0,0.021-0.041,0.021-0.041  c-0.002,0,0-0.041,0-0.041c-0.002,0,0.021-0.041,0.021-0.041c-0.001,0,0.021-0.061,0.021-0.061c-0.002,0,0-0.041,0-0.041  c-0.002,0,0.021-0.041,0.021-0.041c-0.001,0,0-0.041,0-0.039c0,0,0-0.043,0-0.041V26.25v-4.523c0,0,0-0.041,0-0.039  c0,0,0-0.043,0-0.041c0,0-0.001-0.041,0-0.039c0,0-0.021-0.043-0.021-0.041c0,0-0.002-0.041,0-0.041c0,0-0.021-0.063-0.021-0.063  c0,0-0.021-0.041-0.021-0.04c0,0-0.002-0.041,0-0.039l-0.021-0.041l-0.021-0.041c0,0-0.021-0.04-0.021-0.038  c0,0-0.021-0.021-0.02-0.021c0,0-0.041-0.042-0.041-0.041l-0.021-0.041c0,0-0.021-0.041-0.021-0.041l-0.041-0.021l-0.021-0.041  c0,0-0.041-0.021-0.041-0.02c0,0-0.041-0.021-0.041-0.02c0.002,0-0.041-0.041-0.041-0.041c0.002,0-0.021-0.021-0.021-0.021  c0.002,0-0.041-0.021-0.041-0.021c0.002,0-0.041-0.021-0.041-0.021c0.002,0-0.041-0.021-0.039-0.021c0,0.002-0.043,0-0.041,0  c0.002,0.002-0.041-0.021-0.04-0.021c0,0.001-0.063-0.021-0.063-0.021c0,0.002-0.041,0-0.041,0c0.002,0.002-0.041-0.021-0.041-0.021  c0.002,0-0.041,0-0.041,0c0.002,0-0.041,0-0.041,0c0.002,0-0.041,0-0.039,0H27.15v-3.959c0,0,0-0.042,0-0.041V16.79  c0,0-0.002-0.041,0-0.04c0,0-0.021-0.042-0.021-0.04c0,0-0.001-0.043,0-0.041c0,0-0.021-0.063-0.021-0.062  c0,0-0.021-0.043-0.021-0.041c0,0-0.002-0.041,0-0.041c0,0-0.021-0.041-0.021-0.04l-0.021-0.04l-0.021-0.041  c0,0-0.021-0.021-0.021-0.02c0,0-0.042-0.041-0.041-0.041l-0.021-0.04l-0.021-0.04c0,0-0.042-0.021-0.04-0.02l-0.021-0.041  c0,0-0.041-0.021-0.041-0.02c0,0-0.041-0.021-0.041-0.02c0.002,0-0.041-0.042-0.041-0.041c0.002,0-0.021-0.021-0.021-0.02  c0.001,0-0.042-0.021-0.04-0.02c0,0-0.041-0.021-0.041-0.02c0.002,0-0.041-0.021-0.041-0.021c0.002,0-0.041-0.001-0.041,0  c0.002,0-0.041-0.021-0.039-0.021c0,0-0.063-0.02-0.062-0.02c0.001,0-0.043,0-0.041,0c0,0-0.04-0.018-0.039-0.018s-0.042,0-0.04,0  c0.001,0-0.043,0-0.041,0s-0.042,0-0.041,0H21.77c0.002,0-0.043,0-0.041,0s-0.043,0-0.041,0c0,0-0.01,0-0.021,0c0,0-0.015,0-0.021,0  c0.002,0-0.041,0-0.039,0c-0.016,0-0.029,0-0.041,0v-0.004L21.559,15.984L21.559,15.984z" />
<path
   id="rect4855-4_2_"
   fill="#6EBD46"
   d="M21.729,16.871v4.847h-4.847v4.524h4.847v4.848h4.523v-4.848H31.1v-4.524h-4.848v-4.847  H21.729z" />
<linearGradient
   id="path4903-3_1_"
   gradientUnits="userSpaceOnUse"
   x1="-1984.6934"
   y1="1911.9902"
   x2="-1971.6035"
   y2="1911.9902"
   gradientTransform="matrix(0 -1 1 0 -1887.999 -1954.168)">
	<stop
   offset="0"
   style="stop-color:#B0D68C"
   id="stop34" />
	<stop
   offset="1"
   style="stop-color:#1E9046"
   id="stop36" />
</linearGradient>
<path
   id="path4903-3_2_"
   fill="url(#path4903-3_1_)"
   d="M22.294,17.436v4.849h-4.847v3.394h4.847v4.848h3.394v-4.848h4.849v-3.394  h-4.849v-4.849H22.294z" />
</svg>