<?xml version="1.0" encoding="utf-8"?>
<!-- Generator: Adobe Illustrator 14.0.0, SVG Export Plug-In . SVG Version: 6.00 Build 43363)  -->
<!DOCTYPE svg PUBLIC "-//W3C//DTD SVG 1.1//EN" "http://www.w3.org/Graphics/SVG/1.1/DTD/svg11.dtd">
<svg version="1.1"
	 id="svg2" sodipodi:docbase="C:\Radix\dev\trunk\org.radixware\kernel\designer\src\common.resources\src\org\radixware\kernel\designer\resources\icons\ads\sql" sodipodi:docname="custom_parameter.svg" inkscape:version="0.45.1" sodipodi:version="0.32" inkscape:output_extension="org.inkscape.output.svg.inkscape" xmlns:ns="http://creativecommons.org/ns#" xmlns:dc="http://purl.org/dc/elements/1.1/" xmlns:cc="http://web.resource.org/cc/" xmlns:rdf="http://www.w3.org/1999/02/22-rdf-syntax-ns#" xmlns:svg="http://www.w3.org/2000/svg" xmlns:sodipodi="http://sodipodi.sourceforge.net/DTD/sodipodi-0.dtd" xmlns:inkscape="http://www.inkscape.org/namespaces/inkscape" inkscape:export-filename="H:\Work\Radix\new_order\dds\sequence.png" inkscape:export-ydpi="45" inkscape:export-xdpi="45"
	 xmlns="http://www.w3.org/2000/svg" xmlns:xlink="http://www.w3.org/1999/xlink" x="0px" y="0px" width="32px" height="32px"
	 viewBox="0 0 32 32" enable-background="new 0 0 32 32" xml:space="preserve">
<g>
	<path d="M13.648,13.459c-0.552,0-1-0.448-1-1V1c0-0.552,0.448-1,1-1h11.568c0.553,0,1,0.448,1,1v11.459c0,0.552-0.447,1-1,1H13.648
		z"/>
	
		<linearGradient id="rect3449_1_" gradientUnits="userSpaceOnUse" x1="663.9727" y1="-903.4282" x2="637.5223" y2="-877.3239" gradientTransform="matrix(0.4458 0 0 -0.4476 -270.6508 -391.7863)">
		<stop  offset="0" style="stop-color:#B0D68C"/>
		<stop  offset="1" style="stop-color:#1E9046"/>
	</linearGradient>
	<rect id="rect3449" x="13.648" y="1" fill="url(#rect3449_1_)" width="11.568" height="11.459"/>
	<path id="text3445" d="M21.533,1.832v9.796h-2.061V5.209c-0.334,0.333-0.656,0.602-0.969,0.808
		c-0.311,0.206-0.702,0.403-1.172,0.591V4.414c0.693-0.293,1.232-0.646,1.615-1.058c0.383-0.412,0.684-0.92,0.9-1.524H21.533z"/>
</g>
<sodipodi:namedview  width="48px" height="48px" id="base" pagecolor="#ffffff" bordercolor="#666666" borderopacity="1.0" objecttolerance="10" gridtolerance="10000" showgrid="true" guidetolerance="10" inkscape:zoom="11.107469" inkscape:cx="1.5329079" inkscape:cy="20.407839" inkscape:current-layer="layer1" inkscape:pageopacity="0.0" inkscape:pageshadow="2" inkscape:window-width="1280" inkscape:window-height="944" inkscape:window-x="0" inkscape:window-y="44" inkscape:document-units="px">
	
		<inkscape:grid  type="xygrid" color="#0000ff" id="GridFromPre046Settings" spacingy="2px" spacingx="2px" empopacity="0.4" empcolor="#0000ff" empspacing="5" visible="true" enabled="false" opacity="0.2" originx="0px" originy="0px">
		</inkscape:grid>
</sodipodi:namedview>
<g>
	<path d="M19.433,25.919c-0.553,0-1-0.447-1-1V13.459c0-0.552,0.447-1,1-1H31c0.553,0,1,0.448,1,1v11.459c0,0.553-0.447,1-1,1
		H19.433z"/>
	
		<linearGradient id="rect4046_1_" gradientUnits="userSpaceOnUse" x1="659.9258" y1="-903.7554" x2="633.476" y2="-877.6516" gradientTransform="matrix(0.4458 0 0 -0.4476 -263.0625 -379.4738)">
		<stop  offset="0" style="stop-color:#B0D68C"/>
		<stop  offset="1" style="stop-color:#1E9046"/>
	</linearGradient>
	<rect id="rect4046" x="19.433" y="13.459" fill="url(#rect4046_1_)" width="11.567" height="11.459"/>
	<path id="text4064" d="M28.529,24.172h-6.626c0.076-0.807,0.307-1.564,0.691-2.275s1.106-1.55,2.166-2.517
		c0.647-0.593,1.062-1.043,1.241-1.351c0.182-0.307,0.271-0.6,0.271-0.875c0-0.299-0.09-0.554-0.268-0.766
		c-0.18-0.211-0.404-0.317-0.676-0.317c-0.281,0-0.512,0.108-0.691,0.327c-0.179,0.219-0.299,0.604-0.36,1.156l-2.212-0.221
		c0.086-0.766,0.246-1.364,0.477-1.794c0.231-0.43,0.558-0.76,0.979-0.989c0.422-0.229,1.004-0.344,1.749-0.344
		c0.777,0,1.382,0.109,1.813,0.328c0.432,0.218,0.771,0.553,1.02,1.006c0.248,0.452,0.371,0.959,0.371,1.521
		c0,0.598-0.142,1.168-0.426,1.711c-0.283,0.543-0.799,1.141-1.547,1.791c-0.445,0.379-0.742,0.645-0.893,0.795
		c-0.15,0.152-0.326,0.351-0.529,0.596h3.449V24.172z"/>
</g>
<g enable-background="new    ">
	<path fill="#FFFFFF" d="M5.512,31.906c-0.552,0-1-0.447-1-1v-5.077c0-0.329,0.159-0.621,0.404-0.803
		c-0.137-0.172-0.22-0.39-0.22-0.626v-0.537c0-1.042,0.122-1.883,0.371-2.569c0.248-0.683,0.622-1.314,1.112-1.878
		c0.452-0.52,1.395-1.37,2.881-2.603c0.775-0.631,0.784-0.938,0.784-0.941c0-0.345-0.108-0.447-0.144-0.48
		c-0.107-0.101-0.372-0.161-0.709-0.161c-0.4,0-0.702,0.117-0.951,0.368c-0.154,0.156-0.432,0.588-0.558,1.727
		C7.452,17.592,7.318,17.835,7.108,18c-0.178,0.141-0.396,0.216-0.62,0.216c-0.041,0-0.082-0.003-0.123-0.008l-5.488-0.679
		c-0.537-0.066-0.923-0.547-0.873-1.085c0.21-2.253,1.052-4.104,2.501-5.5c1.465-1.411,3.675-2.125,6.57-2.125
		c2.25,0,4.113,0.491,5.54,1.46c1.999,1.35,3.012,3.189,3.012,5.466c0,0.979-0.271,1.931-0.804,2.831
		c-0.512,0.858-1.479,1.842-2.958,3.005c-1.143,0.904-1.46,1.357-1.543,1.511c-0.168,0.307-0.253,0.747-0.253,1.31
		c0,0.233-0.08,0.449-0.215,0.619c0.25,0.182,0.413,0.477,0.413,0.81v5.077c0,0.553-0.448,1-1,1H5.512z"/>
	<path d="M11.07,24.4H5.696v-0.537c0-0.915,0.104-1.657,0.311-2.228c0.207-0.57,0.516-1.092,0.926-1.563
		c0.41-0.471,1.332-1.301,2.765-2.489c0.764-0.622,1.146-1.192,1.146-1.711s-0.153-0.922-0.46-1.209
		c-0.306-0.288-0.771-0.431-1.393-0.431c-0.669,0-1.223,0.222-1.662,0.665c-0.438,0.443-0.719,1.216-0.841,2.32L1,16.537
		c0.188-2.018,0.922-3.642,2.199-4.873c1.278-1.23,3.236-1.846,5.876-1.846c2.056,0,3.715,0.429,4.979,1.287
		c1.716,1.16,2.574,2.706,2.574,4.639c0,0.801-0.222,1.575-0.665,2.32c-0.443,0.745-1.349,1.654-2.715,2.729
		c-0.953,0.754-1.554,1.36-1.803,1.817C11.195,23.068,11.07,23.665,11.07,24.4z M5.512,25.829h5.756v5.077H5.512V25.829z"/>
</g>
</svg>
