<?xml version="1.0" encoding="utf-8"?>
<!-- Generator: Adobe Illustrator 15.0.0, SVG Export Plug-In . SVG Version: 6.00 Build 0)  -->
<!DOCTYPE svg PUBLIC "-//W3C//DTD SVG 1.1//EN" "http://www.w3.org/Graphics/SVG/1.1/DTD/svg11.dtd">
<svg version="1.1" id="Layer_1" xmlns="http://www.w3.org/2000/svg" xmlns:xlink="http://www.w3.org/1999/xlink" x="0px" y="0px"
	 width="32px" height="32px" viewBox="0 0 32 32" enable-background="new 0 0 32 32" xml:space="preserve">
<g>
	<rect x="3.72" y="15.383" width="7.7" height="1"/>
</g>
<g>
	<rect x="3.72" y="26.209" width="9.221" height="1"/>
</g>
<path id="path175_31_" fill="#020202" d="M12.222,20.535c-2.564,0-4.652-2.087-4.652-4.652s2.088-4.653,4.652-4.653
	c2.565,0,4.652,2.087,4.652,4.653S14.787,20.535,12.222,20.535L12.222,20.535z"/>
<circle id="circle177_31_" fill="#FAA91E" cx="12.222" cy="15.882" r="3.988"/>
<linearGradient id="path186_1_" gradientUnits="userSpaceOnUse" x1="1132.5996" y1="-1723.082" x2="1139.2461" y2="-1723.082" gradientTransform="matrix(1 0 0 -1 -1123.7002 -1707.1992)">
	<stop  offset="0" style="stop-color:#A4672A"/>
	<stop  offset="0.5394" style="stop-color:#FAA91E"/>
	<stop  offset="1" style="stop-color:#FFF3E2"/>
</linearGradient>
<path id="path186_31_" fill="url(#path186_1_)" d="M12.222,19.206c-1.833,0-3.323-1.491-3.323-3.323c0-1.833,1.49-3.323,3.323-3.323
	s3.323,1.49,3.323,3.323C15.545,17.715,14.055,19.206,12.222,19.206L12.222,19.206z"/>
<path id="path175_26_" fill="#020202" d="M12.222,31.362c-2.564,0-4.652-2.089-4.652-4.653s2.088-4.652,4.652-4.652
	c2.565,0,4.652,2.088,4.652,4.652S14.787,31.362,12.222,31.362L12.222,31.362z"/>
<circle id="circle177_26_" fill="#FAA91E" cx="12.222" cy="26.709" r="3.988"/>
<linearGradient id="path186_3_" gradientUnits="userSpaceOnUse" x1="1132.5996" y1="-1733.9092" x2="1139.2461" y2="-1733.9092" gradientTransform="matrix(1 0 0 -1 -1123.7002 -1707.1992)">
	<stop  offset="0" style="stop-color:#A4672A"/>
	<stop  offset="0.5394" style="stop-color:#FAA91E"/>
	<stop  offset="1" style="stop-color:#FFF3E2"/>
</linearGradient>
<path id="path186_26_" fill="url(#path186_3_)" d="M12.222,30.033c-1.833,0-3.323-1.492-3.323-3.324s1.49-3.322,3.323-3.322
	s3.323,1.49,3.323,3.322S14.055,30.033,12.222,30.033L12.222,30.033z"/>
<g>
	<path fill="#020202" d="M27.61,24.742c0,0,0.008-0.006,0.009-0.01c0.002-0.001-0.009-0.01-0.009-0.01v-0.018v-0.02
		c0,0,0.009-0.01,0.01-0.01c-0.002-0.004-0.01-0.008-0.01-0.008c-0.001-0.008-0.01-0.013-0.01-0.013l0.01-0.01
		c0-0.007-0.01-0.01-0.01-0.012c0.001,0,0-0.017,0-0.017c0.001-0.001,0.001-0.019,0.001-0.019s-0.01-0.004-0.012-0.008
		c-0.001-0.007-0.01-0.013-0.009-0.011c-0.004-0.006,0-0.018,0-0.018s0.005-0.012,0-0.018c-0.004-0.007-0.01-0.008-0.011-0.011
		c-0.002-0.004,0.011-0.012,0.011-0.012s-0.009-0.002-0.011-0.009c-0.002-0.008-0.01-0.028-0.01-0.028s-0.009-0.006-0.01-0.01
		c-0.003-0.004,0-0.016,0-0.018c-0.004-0.005-0.008-0.009-0.008-0.01c-0.004-0.004-0.012-0.01-0.012-0.01
		c-0.002-0.006-0.01-0.01-0.01-0.01l0.01-0.012c-0.002-0.003-0.006-0.004-0.01-0.011c0,0-0.008-0.006-0.01-0.01
		c-0.004-0.003-0.008-0.008-0.01-0.009c-0.004-0.007,0-0.02,0-0.02l-0.01-0.009c-0.004-0.004-0.008-0.009-0.01-0.01
		c0,0-0.015-0.016-0.018-0.02c-0.004-0.003-0.01-0.007-0.012-0.01c-0.014-0.014-0.004-0.005-0.009-0.01l-2.138-2.136
		c-0.006-0.006,0.006,0.003-0.01-0.011c-0.002-0.004-0.008-0.008-0.01-0.01c-0.004-0.006-0.018-0.018-0.018-0.02
		c-0.002,0-0.006-0.004-0.007-0.006l-0.01-0.012l-0.011,0.012c0,0-0.008-0.01-0.009-0.011c-0.003-0.003-0.007-0.007-0.01-0.01
		c0,0-0.007-0.007-0.011-0.01s-0.01-0.01-0.01-0.01c-0.006-0.001-0.01,0.01-0.01,0.01s-0.008-0.01-0.011-0.01
		c0,0-0.007-0.01-0.009-0.011l-0.027-0.01c-0.005-0.002-0.012-0.012-0.012-0.012c-0.002,0.002-0.028-0.013-0.041-0.016l-0.002,0.015
		c0,0-0.008-0.01-0.01-0.011c0,0-0.015,0.002-0.018,0c0,0-0.008-0.009-0.01-0.009c-0.005,0.003-0.008,0.006-0.012,0.009
		c-0.005,0-0.008-0.009-0.009-0.009l-0.013-0.015c0,0-0.008-0.009-0.01-0.01c-0.004-0.001-0.01,0.01-0.01,0.01
		c-0.006-0.001-0.008-0.009-0.009-0.009c-0.001,0.001-0.011,0.011-0.011,0.011s-0.01-0.01-0.01-0.011
		c-0.002,0.001-0.01,0.011-0.01,0.011s-0.006-0.01-0.009-0.01c-0.001,0-0.007-0.011-0.01-0.011c-0.001,0-0.01,0.011-0.01,0.011
		h-0.019h-0.02c0,0-0.008-0.011-0.01-0.011c-0.002,0.001-0.01,0.011-0.01,0.011c-0.002,0.003-0.006,0.007-0.01,0.011
		c-0.001,0.001-0.008-0.011-0.01-0.011c0,0.001-0.008,0.009-0.01,0.011c0.002,0-0.006-0.011-0.01-0.011
		c-0.006,0-0.01,0.011-0.01,0.011c-0.002,0.002-0.019,0-0.019,0s-0.007,0.008-0.009,0.011c-0.001,0-0.01,0.008-0.012,0.01
		c0,0-0.008-0.01-0.009-0.01c-0.001,0.001-0.005,0.012-0.01,0.01c-0.002,0.002-0.015,0-0.02,0c0,0-0.003,0.011-0.009,0.011
		s-0.015-0.011-0.015-0.011s-0.001,0.008-0.011,0.01c-0.002,0.002-0.016-0.002-0.018,0c0,0-0.006,0.007-0.011,0.01
		c-0.003,0.003-0.008,0.009-0.01,0.012c-0.001,0-0.009-0.012-0.011-0.012c-0.002,0.001-0.009,0.009-0.01,0.012
		c-0.006,0.005-0.01,0.007-0.01,0.012c0,0-0.009,0.007-0.012,0.008c0.002,0-0.006,0.009-0.006,0.009s0-0.013-0.004-0.013
		c0.001,0-0.006,0.009-0.008,0.011l-0.039,0.019c-0.002,0-0.016,0.016-0.02,0.018c0,0-0.012,0.013-0.008,0.012
		c-0.002,0-0.008,0.006-0.014,0.01c-0.003,0.003-0.006,0.007-0.008,0.01l-0.011,0.011l-1.899,1.896l-1.896-1.896l-0.009-0.012
		c-0.002-0.004-0.006-0.006-0.01-0.01s-0.01-0.009-0.01-0.009c0.002,0.001-0.011-0.012-0.011-0.012
		c-0.003-0.004-0.017-0.018-0.019-0.018l-0.037-0.019c-0.004-0.002-0.01-0.011-0.01-0.011c-0.005,0-0.011,0.011-0.011,0.011
		s-0.007-0.008-0.009-0.011c-0.004-0.001-0.011-0.009-0.011-0.009c-0.001-0.003-0.005-0.006-0.011-0.011
		c-0.004-0.002-0.01-0.01-0.01-0.011c-0.004,0-0.011,0.012-0.012,0.011c-0.002-0.003-0.007-0.008-0.011-0.011
		c-0.003-0.003-0.009-0.011-0.009-0.011c-0.004-0.001-0.017,0.003-0.018,0c-0.009-0.001-0.01-0.009-0.01-0.01
		c0,0-0.005,0.01-0.012,0.01c-0.006,0-0.01-0.01-0.01-0.01c-0.006,0-0.018,0.001-0.019,0c-0.005,0.001-0.009-0.009-0.011-0.011
		c-0.002,0-0.008,0.011-0.008,0.011c-0.003-0.002-0.012-0.011-0.012-0.011c-0.002-0.002-0.01-0.01-0.01-0.01s-0.016,0.002-0.018,0
		c0,0-0.005-0.012-0.01-0.01c-0.002,0-0.011,0.01-0.011,0.01c0-0.002-0.009-0.01-0.009-0.011c-0.002,0-0.01,0.013-0.011,0.011
		c-0.003-0.004-0.007-0.008-0.01-0.011c0-0.001-0.008-0.009-0.011-0.01c-0.001-0.001-0.009,0.01-0.009,0.01h-0.019h-0.015L20.302,22
		c-0.005,0-0.01,0.011-0.01,0.01c-0.007,0.001-0.011,0.009-0.011,0.009s-0.01-0.009-0.01-0.01c0,0.002-0.01,0.012-0.01,0.01
		c0,0-0.009-0.008-0.01-0.01c-0.004,0-0.004,0.009-0.01,0.01c-0.002,0-0.006-0.012-0.011-0.01c-0.005,0.003-0.013,0.012-0.013,0.012
		l-0.01,0.01c-0.002,0-0.006,0.01-0.01,0.012c-0.004-0.004-0.008-0.009-0.01-0.012c-0.004,0.002-0.012,0.012-0.012,0.012
		c-0.006,0-0.017,0-0.017,0c-0.003,0-0.011,0.008-0.011,0.008l-0.008-0.008c-0.011,0.005-0.039,0.018-0.041,0.018
		c0,0-0.004,0.009-0.01,0.01c0-0.001-0.029,0.01-0.029,0.009c-0.002,0.003-0.01,0.011-0.01,0.011
		c-0.003,0.002-0.01,0.011-0.01,0.011s-0.004-0.012-0.009-0.011c0,0-0.007,0.009-0.011,0.011c-0.006,0.003-0.01,0.01-0.01,0.01
		c-0.004,0.003-0.009,0.008-0.012,0.01c-0.003,0.003-0.01,0.011-0.01,0.011l-0.009-0.012l-0.009,0.011
		c-0.003,0.003-0.008,0.007-0.01,0.01c-0.002,0-0.016,0.015-0.02,0.02c-0.002,0.002-0.006,0.006-0.011,0.009
		c-0.013,0.014-0.004,0.005-0.009,0.011l-2.137,2.137c-0.007,0.004,0.004-0.004-0.012,0.01c-0.001,0.002-0.006,0.007-0.008,0.01
		c-0.006,0.006-0.02,0.019-0.02,0.019c-0.002,0.002-0.007,0.007-0.01,0.01c-0.002,0.002-0.01,0.011-0.01,0.011s0.002,0.014,0,0.018
		c-0.004,0.003-0.006,0.006-0.011,0.01c-0.003,0.005-0.009,0.011-0.009,0.011c-0.004,0.006-0.009,0.006-0.012,0.011l0.012,0.011
		c0,0-0.01,0.004-0.012,0.009c0,0-0.008,0.007-0.009,0.01c-0.003,0.002-0.005,0.005-0.011,0.011c0,0.003,0.002,0.016,0.001,0.018
		c-0.003,0.005-0.011,0.012-0.011,0.012s-0.008,0.02-0.01,0.026c-0.003,0.008-0.01,0.01-0.01,0.01s0.012,0.008,0.01,0.011
		s-0.006,0.005-0.01,0.012c-0.004,0.008,0,0.017,0,0.017s0.002,0.015,0,0.02c0.001-0.002-0.008,0.005-0.01,0.009
		c-0.002,0.005-0.013,0.012-0.013,0.012s0,0.018,0.002,0.018c0,0-0.002,0.017,0,0.019c0,0-0.011,0.005-0.011,0.009l0.011,0.011
		c0,0-0.011,0.006-0.011,0.011c0,0.002-0.009,0.006-0.01,0.011l0.01,0.009v0.019v0.02c0,0-0.012,0.008-0.01,0.008
		c0.002,0.004,0.01,0.011,0.01,0.011c-0.002,0.006,0.013,0.005,0.011,0.01c0,0,0,0.018,0,0.019c0,0.003,0,0.018,0,0.018
		c0.001,0.004,0,0.02,0,0.02s0.007,0.006,0.01,0.009c0.001,0.001,0.009,0.009,0.011,0.011c0,0.004-0.01,0.006-0.011,0.012
		c0.003,0.003,0.011,0.01,0.011,0.01s-0.004,0.011,0,0.02c0.001,0.007,0.01,0.01,0.01,0.01c0.002,0.005-0.01,0.01-0.01,0.01
		c0.001,0.002,0.01,0.026,0.01,0.028c0.004,0.005,0.008,0.007,0.01,0.01c0,0,0.008,0.008,0.011,0.012l0.01,0.027
		c0,0.002,0.012,0.005,0.011,0.011c0.002,0.004-0.002,0.016,0,0.018c0,0.007,0.018,0.018,0.018,0.018s0.008,0.009,0.01,0.01
		c0.006,0.011,0,0.019,0,0.019c0.002,0,0.011,0.01,0.011,0.011c0.003,0.003,0.009,0.007,0.01,0.011c0,0,0.005,0.005,0.011,0.01
		c0.005,0.006,0.005,0.006,0.01,0.009c0.013,0.016,0.01,0.012,0.01,0.012s0.003,0.001,0.01,0.01l1.898,1.896l-1.883,1.891
		c-0.012,0.013-0.012,0.011-0.011,0.01c-0.005,0.006-0.011,0.013-0.009,0.01c-0.012,0.012-0.006,0.006-0.01,0.011
		c-0.005,0.005-0.011,0.01-0.011,0.01s-0.005,0.009-0.01,0.013c-0.007,0.004,0-0.001-0.011,0.009c-0.001,0.001-0.01,0.01-0.01,0.01
		c-0.008,0.005-0.015,0.013-0.02,0.02h0.002v0.02c-0.002,0-0.008,0.007-0.01,0.009c-0.004,0.002-0.008,0.006-0.01,0.009
		c-0.004,0.003-0.012,0.029-0.012,0.029s-0.008,0.008-0.01,0.01c-0.003,0.003-0.01,0.009-0.01,0.009s0.012,0.01,0.01,0.012
		c-0.004,0.003-0.007,0.006-0.01,0.012c-0.005,0.004-0.01,0.008-0.01,0.008c-0.002,0.002,0.012,0.009,0.01,0.01l-0.008,0.007
		c-0.002,0.003-0.009,0.011-0.009,0.011s0.005,0.01,0,0.018c-0.003,0.009-0.011,0.01-0.011,0.01c0.002,0.005,0.006,0.009,0.011,0.01
		c-0.005,0.005-0.009,0.008-0.011,0.011c0,0-0.01,0.01-0.01,0.011c-0.002,0.002,0.01,0.009,0.01,0.009
		c-0.002,0.003-0.01,0.01-0.01,0.01c-0.002,0.001,0.01,0.011,0.01,0.011c-0.002,0.002-0.01,0.008-0.01,0.011
		c-0.002,0,0.01,0.009,0.01,0.009c-0.002,0.002-0.01,0.01-0.01,0.012c-0.001,0-0.001,0.014,0,0.017
		c-0.002,0.001,0.01,0.011,0.01,0.011c-0.002,0.021-0.012,0.006-0.01,0.01c0,0.006,0.01,0.022,0.01,0.01
		c-0.002,0.011-0.011,0.004-0.01,0.011c-0.002,0.001,0.01,0.008,0.01,0.01c0,0-0.011-0.003-0.01,0.01
		c-0.001,0.009-0.001,0.018,0,0.018c0,0.006-0.001,0.018-0.001,0.018c0.005,0.005,0.007,0.008,0.011,0.011
		c-0.002,0.001-0.01,0.01-0.011,0.01c-0.001,0.003,0.011,0.007,0.011,0.01c-0.002,0.002-0.013,0.007-0.011,0.012
		c0.001,0.004,0.011,0.008,0.011,0.008c-0.002,0.002,0,0.02,0,0.02c0.001,0.006,0.01,0.01,0.01,0.01c-0.002,0-0.01,0.009-0.01,0.009
		c0.001,0.007,0.01,0.012,0.01,0.012s0.006,0.005,0.01,0.01c-0.001,0,0.008,0.005,0.01,0.01s-0.014,0.003-0.01,0.01
		c0,0,0.006,0.005,0.01,0.009c0.004,0.01,0,0.02,0,0.02s0.006,0.008,0.01,0.01c0.002,0.004,0.01,0.01,0.01,0.01
		c0.002,0.005,0,0.015,0,0.02c0,0,0.008,0.005,0.011,0.008c0,0,0.009,0.011,0.01,0.012c0,0-0.005,0.015-0.001,0.018
		c0,0,0.008,0.008,0.01,0.011c0.003,0.003,0.01,0.008,0.01,0.008c0.004,0.005,0.009,0.011,0.012,0.011c0.002,0.007,0,0.019,0,0.019
		s0.007,0.009,0.008,0.011c0.004,0.003,0.01,0.01,0.012,0.01c0.003,0.004,0.007,0.008,0.008,0.01
		c0.007,0.004,0.011,0.008,0.011,0.01c0.013,0.015,0.009,0.009,0.011,0.01c0.004,0.005-0.006-0.006,0.008,0.009l2.138,2.137
		c0.005,0.006-0.003-0.003,0.01,0.012c0.003,0.003,0.007,0.007,0.011,0.01c0.005,0.005,0.018,0.017,0.018,0.018
		c0.004,0.003,0.008,0.007,0.01,0.01l0.01,0.01c0,0,0.015-0.004,0.02,0c0.004,0.003,0.01,0.01,0.01,0.01s0.008,0.008,0.01,0.009
		c0.008,0.006,0.018,0,0.018,0s0.006,0.01,0.01,0.012c0,0,0.008,0.006,0.012,0.009c0.002,0.003,0.004,0.007,0.008,0.01
		c0.006,0.003,0.016,0,0.02,0c0.006,0.003,0.008,0.011,0.01,0.011c0,0,0.022,0.009,0.027,0.009c0.008,0.003,0.012,0.011,0.012,0.011
		s0.004-0.011,0.008-0.011c0.006,0.003,0.012,0.011,0.012,0.011s0.008,0.011,0.01,0.011c0-0.001,0.009-0.01,0.01-0.011
		c0.006,0.002,0.008,0.011,0.011,0.011c0.005,0,0.009-0.01,0.009-0.011c0.006,0.001,0.008,0.011,0.01,0.01
		c0.006,0.002,0.011,0.01,0.011,0.01s0.03-0.024,0.032-0.024c0.002-0.002,0.008,0.01,0.01,0.01c0.005,0.001,0.01-0.01,0.01-0.01
		h0.02c0.004,0.001,0.004,0.01,0.01,0.01c0,0,0.006,0.008,0.01,0.008l0.01-0.008h0.02h0.018c0,0,0.007,0.008,0.01,0.008
		c0.002-0.001,0.008-0.008,0.008-0.008c0.012,0,0.02,0,0.02,0c0-0.003,0.009-0.01,0.01-0.012c0,0.002,0.009,0.012,0.011,0.012
		c0.005,0,0.011-0.01,0.011-0.012c0-0.001,0.018,0.002,0.018,0c0,0,0.008-0.007,0.009-0.011c0.004-0.001,0.004-0.008,0.012-0.008
		c0.007,0,0.017,0,0.017,0s0.013,0.004,0.02,0c0.008-0.001,0.01-0.012,0.01-0.012c0.006,0,0.01,0.012,0.01,0.012
		c0-0.001,0.027-0.012,0.028-0.012c0.003-0.003,0.008-0.006,0.01-0.01c0.001-0.002,0.01-0.01,0.01-0.01
		c0.003-0.003,0.017,0.001,0.02,0c0.003-0.004,0.01-0.011,0.01-0.011c0.003-0.002,0.009-0.008,0.01-0.01
		c0.003-0.003,0.016,0.002,0.019,0c0.006,0,0.018-0.019,0.018-0.019s0.008-0.007,0.01-0.011c0.011-0.002,0.019,0,0.019,0
		s0.009-0.007,0.01-0.01c0.003-0.001,0.008-0.009,0.011-0.01c0.006-0.006,0.01-0.01,0.01-0.01c0.004-0.006,0.006-0.006,0.01-0.01
		s0.011-0.012,0.01-0.01c0,0,0.001-0.002,0.01-0.011l1.914-1.893l1.905,1.904c0.008,0.009,0.011,0.01,0.011,0.01
		c-0.003-0.001,0.006,0.006,0.009,0.01c0.004,0.004,0.005,0.006,0.01,0.01c0,0,0.005,0.008,0.01,0.012
		c0.003,0.002,0.009,0.007,0.011,0.01c0.002,0.002,0.009,0.01,0.009,0.01s0.012-0.003,0.019,0c0.004,0.002,0.01,0.009,0.01,0.009
		s0.016,0.02,0.019,0.02c0.003,0.002,0.016-0.004,0.019,0c0.001,0.002,0.008,0.008,0.011,0.01c0,0,0.007,0.007,0.01,0.012
		c0.003,0,0.017-0.005,0.019,0l0.01,0.008c0.004,0.005,0.006,0.01,0.01,0.011c0.003,0.001,0.027,0.011,0.027,0.012
		c0,0,0.006-0.011,0.01-0.011c0,0,0.004,0.01,0.012,0.011c0.009,0.004,0.018,0,0.018,0s0.014,0,0.018,0
		c0.01,0,0.01,0.006,0.011,0.009c0.003,0.004,0.011,0.01,0.011,0.01c0,0.001,0.018,0,0.018,0c0.001,0.001,0.005,0.011,0.01,0.01
		c0.003,0,0.01-0.009,0.01-0.01c0.002,0.001,0.01,0.01,0.012,0.01c0,0.001,0.01,0,0.016,0c0.002,0.001,0.009,0.009,0.012,0.011
		c0.002,0,0.01-0.011,0.01-0.011l0.018,0.001h0.019l0.01,0.01c0.004-0.002,0.011-0.011,0.011-0.01
		c0.004-0.001,0.006-0.009,0.01-0.01h0.018c0.002,0,0.006,0.011,0.01,0.01c0.002,0,0.009-0.011,0.01-0.01c0.004,0,0.019,0,0.019,0
		s0.006-0.009,0.01-0.01c0.003,0,0.007-0.009,0.011-0.01c0.001,0.001,0.006,0.011,0.01,0.01c0.002,0,0.006-0.009,0.01-0.01
		c0.002,0.001,0.009,0.01,0.009,0.01c0.003,0,0.011-0.01,0.011-0.01s0.006-0.008,0.01-0.009c0.006-0.002,0.012,0.009,0.012,0.009
		s0.002-0.008,0.01-0.009c0.008-0.003,0.027-0.012,0.027-0.012c0.003,0,0.006-0.009,0.01-0.009c0.004-0.001,0.015,0.002,0.02,0
		c0.004-0.004,0.006-0.008,0.008-0.01c0.006-0.004,0.012-0.011,0.012-0.011c0.003,0,0.01-0.01,0.01-0.01s0.012,0.006,0.018,0
		c0.003-0.002,0.01-0.009,0.01-0.009s0.008-0.009,0.01-0.012c0.006-0.003,0.02,0,0.02,0l0.01-0.009
		c0.003-0.003,0.008-0.009,0.01-0.01c0-0.001,0.014-0.016,0.018-0.02c0.004-0.001,0.008-0.007,0.012-0.008
		c0.014-0.015,0.005-0.006,0.01-0.01l2.136-2.139c0.015-0.015,0.007-0.004,0.009-0.01c0.003-0.002-0.001,0.006,0.012-0.009
		c0,0,0.004-0.006,0.009-0.01c0.003-0.003,0.007-0.008,0.009-0.01c0.003-0.002,0.01-0.008,0.012-0.012
		c0.002-0.001,0.009-0.008,0.009-0.008s-0.003-0.015,0-0.02c0.001,0,0.009-0.006,0.011-0.009c0.001-0.001,0.008-0.007,0.01-0.011
		c0.002-0.002,0.01-0.009,0.01-0.009c0.004-0.003,0-0.02,0-0.02c0.002-0.001,0.01-0.01,0.01-0.01
		c0.002-0.003,0.012-0.009,0.01-0.009c0.002-0.006-0.002-0.015,0-0.02c0,0,0.01-0.006,0.01-0.01c0.004-0.001,0.01-0.01,0.01-0.01
		s-0.004-0.01,0-0.018s0.01-0.012,0.01-0.012c0.005-0.006-0.01-0.005-0.01-0.009c0.002-0.007,0.01-0.01,0.01-0.01
		c0.005-0.003,0.01-0.01,0.01-0.01s0.01-0.006,0.01-0.011c0-0.001-0.01-0.009-0.01-0.009s0.009-0.005,0.01-0.013
		c0,0,0.004-0.016,0-0.016c0,0,0.01-0.006,0.012-0.012c0-0.004-0.01-0.009-0.012-0.01c0-0.003,0.012-0.009,0.012-0.01
		c-0.003-0.001-0.012-0.009-0.012-0.009c0.005-0.002,0.008-0.007,0.012-0.012c0,0-0.002-0.012-0.002-0.017
		c0.002,0,0.002-0.013,0-0.019c0.002-0.013-0.01-0.01-0.01-0.01c0-0.001,0.012-0.01,0.01-0.011c0.002-0.005-0.01,0.001-0.01-0.01
		c0,0.014,0.01-0.004,0.01-0.01c0.002-0.006-0.01,0.012-0.01-0.012c0,0,0.012-0.008,0.01-0.008c0.002-0.004,0.002-0.02,0-0.02
		c-0.001-0.001-0.008-0.009-0.01-0.01c-0.001,0,0.012-0.01,0.01-0.01c-0.001-0.001-0.008-0.007-0.01-0.01
		c0,0,0.012-0.009,0.01-0.011c-0.001-0.001-0.008-0.009-0.01-0.009c0-0.001,0.012-0.01,0.01-0.011
		c-0.001-0.002-0.01-0.009-0.01-0.009c-0.002-0.004-0.005-0.007-0.011-0.011c0.006-0.003,0.009-0.006,0.011-0.01
		c0,0-0.01-0.002-0.011-0.009c-0.004-0.011,0-0.02,0-0.02s-0.007-0.009-0.009-0.01c0,0-0.008-0.007-0.01-0.011
		c0-0.001,0.012-0.01,0.01-0.011c0,0-0.006-0.006-0.01-0.009c-0.004-0.004-0.008-0.007-0.01-0.01
		c-0.003-0.001,0.01-0.011,0.01-0.011s-0.008-0.008-0.01-0.01c-0.003-0.001-0.012-0.01-0.012-0.01s-0.007-0.026-0.01-0.027
		c-0.003-0.005-0.008-0.011-0.01-0.012c-0.003-0.003-0.01-0.01-0.01-0.01v-0.02l0,0c-0.006-0.007-0.012-0.014-0.018-0.018
		c0,0-0.01-0.009-0.01-0.012c-0.01-0.01-0.006-0.004-0.01-0.008c-0.004-0.005-0.011-0.01-0.011-0.01s-0.005-0.005-0.01-0.01
		s0,0-0.011-0.011c0.003,0.003-0.004-0.006-0.011-0.01c0.003,0.001,0.003,0.003-0.009-0.012l-1.896-1.894l1.896-1.897
		c0.009-0.008,0.011-0.011,0.011-0.011c0,0.001-0.003,0.004,0.011-0.009c0.004-0.007,0.004-0.007,0.009-0.011
		c0.007-0.006,0.011-0.01,0.011-0.011c0.004-0.002,0.008-0.007,0.011-0.01c0-0.002,0.01-0.009,0.01-0.01c0,0-0.005-0.012,0-0.019
		c0.003-0.003,0.011-0.01,0.011-0.01s0.019-0.014,0.018-0.02c0.001-0.001-0.004-0.015,0.001-0.018
		c-0.003-0.006,0.009-0.009,0.009-0.01c0,0.001,0.011-0.028,0.011-0.028c0.003-0.003,0.011-0.011,0.011-0.011
		c0.002-0.001,0.006-0.006,0.01-0.01c0.002-0.001,0.01-0.026,0.01-0.027c0,0-0.012-0.008-0.01-0.012c0,0,0.01-0.001,0.01-0.01
		c0.003-0.01,0-0.018,0-0.018s0.008-0.008,0.01-0.011c0-0.006-0.01-0.008-0.01-0.011c0.002-0.002,0.01-0.01,0.01-0.01
		c0.003-0.002,0.01-0.011,0.01-0.011s-0.002-0.016,0-0.018c0,0,0-0.016,0-0.019v-0.021C27.6,24.747,27.61,24.747,27.61,24.742z"/>
	<polygon fill="#EA2A29" points="27.064,29.284 24.773,26.995 27.063,24.708 24.926,22.571 22.638,24.858 20.35,22.571 
		18.215,24.708 20.502,26.995 18.213,29.284 20.348,31.421 22.638,29.13 24.928,31.421 	"/>
	
		<linearGradient id="SVGID_1_" gradientUnits="userSpaceOnUse" x1="860.9063" y1="1929.3555" x2="868.6895" y2="1929.3555" gradientTransform="matrix(1 0 0 1 -842.1602 -1902.3594)">
		<stop  offset="0" style="stop-color:#F5969A"/>
		<stop  offset="1" style="stop-color:#901A1E"/>
	</linearGradient>
	<polygon fill="url(#SVGID_1_)" points="26.529,29.284 24.24,26.995 26.528,24.708 24.926,23.105 22.638,25.394 20.35,23.105 
		18.748,24.708 21.035,26.995 18.746,29.284 20.348,30.887 22.638,28.597 24.928,30.887 	"/>
</g>
<polygon points="3,0 3,10.731 3,21.125 3,32 5,32 5,21.125 5,10.731 5,0 "/>
<g>
	<rect x="3.72" y="4.508" width="7.7" height="1"/>
</g>
<path id="path175_2_" fill="#020202" d="M12.222,9.66c-2.564,0-4.652-2.087-4.652-4.652s2.088-4.653,4.652-4.653
	c2.565,0,4.652,2.087,4.652,4.653S14.787,9.66,12.222,9.66L12.222,9.66z"/>
<circle id="circle177_2_" fill="#FAA91E" cx="12.222" cy="5.007" r="3.988"/>
<linearGradient id="path186_4_" gradientUnits="userSpaceOnUse" x1="1132.5996" y1="-1712.207" x2="1139.2461" y2="-1712.207" gradientTransform="matrix(1 0 0 -1 -1123.7002 -1707.1992)">
	<stop  offset="0" style="stop-color:#A4672A"/>
	<stop  offset="0.5394" style="stop-color:#FAA91E"/>
	<stop  offset="1" style="stop-color:#FFF3E2"/>
</linearGradient>
<path id="path186_2_" fill="url(#path186_4_)" d="M12.222,8.331c-1.833,0-3.323-1.491-3.323-3.323c0-1.833,1.49-3.323,3.323-3.323
	s3.323,1.49,3.323,3.323C15.545,6.84,14.055,8.331,12.222,8.331L12.222,8.331z"/>
<g>
	<path fill="#020202" d="M27.61,2.742c0,0,0.008-0.006,0.009-0.01c0.002-0.001-0.009-0.01-0.009-0.01V2.705v-0.02
		c0,0,0.009-0.01,0.01-0.01c-0.002-0.004-0.01-0.008-0.01-0.008c-0.001-0.008-0.01-0.013-0.01-0.013l0.01-0.01
		c0-0.007-0.01-0.01-0.01-0.012c0.001,0,0-0.017,0-0.017c0.001-0.001,0.001-0.019,0.001-0.019s-0.01-0.004-0.012-0.008
		c-0.001-0.007-0.01-0.013-0.009-0.011c-0.004-0.006,0-0.018,0-0.018s0.005-0.012,0-0.018c-0.004-0.007-0.01-0.008-0.011-0.011
		c-0.002-0.004,0.011-0.012,0.011-0.012s-0.009-0.002-0.011-0.009c-0.002-0.008-0.01-0.028-0.01-0.028s-0.009-0.006-0.01-0.01
		c-0.003-0.004,0-0.016,0-0.018c-0.004-0.005-0.008-0.009-0.008-0.01c-0.004-0.004-0.012-0.01-0.012-0.01
		c-0.002-0.006-0.01-0.01-0.01-0.01l0.01-0.012c-0.002-0.003-0.006-0.004-0.01-0.011c0,0-0.008-0.006-0.01-0.01
		c-0.004-0.003-0.008-0.008-0.01-0.009c-0.004-0.007,0-0.02,0-0.02l-0.01-0.009c-0.004-0.004-0.008-0.009-0.01-0.01
		c0,0-0.015-0.016-0.018-0.02c-0.004-0.003-0.01-0.007-0.012-0.01c-0.014-0.014-0.004-0.005-0.009-0.01l-2.138-2.136
		c-0.006-0.006,0.006,0.003-0.01-0.011c-0.002-0.004-0.008-0.008-0.01-0.01c-0.004-0.006-0.018-0.018-0.018-0.02
		c-0.002,0-0.006-0.004-0.007-0.006l-0.01-0.012l-0.011,0.012c0,0-0.008-0.01-0.009-0.011c-0.003-0.003-0.007-0.007-0.01-0.01
		c0,0-0.007-0.007-0.011-0.01s-0.01-0.01-0.01-0.01c-0.006-0.001-0.01,0.01-0.01,0.01s-0.008-0.01-0.011-0.01
		c0,0-0.007-0.01-0.009-0.011l-0.027-0.01c-0.005-0.002-0.012-0.012-0.012-0.012c-0.002,0.002-0.028-0.013-0.041-0.016l-0.002,0.015
		c0,0-0.008-0.01-0.01-0.011c0,0-0.015,0.002-0.018,0c0,0-0.008-0.009-0.01-0.009c-0.005,0.003-0.008,0.006-0.012,0.009
		c-0.005,0-0.008-0.009-0.009-0.009l-0.013-0.015c0,0-0.008-0.009-0.01-0.01c-0.004-0.001-0.01,0.01-0.01,0.01
		c-0.006-0.001-0.008-0.009-0.009-0.009c-0.001,0.001-0.011,0.011-0.011,0.011s-0.01-0.01-0.01-0.011
		c-0.002,0.001-0.01,0.011-0.01,0.011s-0.006-0.01-0.009-0.01c-0.001,0-0.007-0.011-0.01-0.011c-0.001,0-0.01,0.011-0.01,0.011
		h-0.019h-0.02c0,0-0.008-0.011-0.01-0.011c-0.002,0.001-0.01,0.011-0.01,0.011c-0.002,0.003-0.006,0.007-0.01,0.011
		c-0.001,0.001-0.008-0.011-0.01-0.011c0,0.001-0.008,0.009-0.01,0.011c0.002,0-0.006-0.011-0.01-0.011
		c-0.006,0-0.01,0.011-0.01,0.011c-0.002,0.002-0.019,0-0.019,0s-0.007,0.008-0.009,0.011c-0.001,0-0.01,0.008-0.012,0.01
		c0,0-0.008-0.01-0.009-0.01c-0.001,0.001-0.005,0.012-0.01,0.01c-0.002,0.002-0.015,0-0.02,0c0,0-0.003,0.011-0.009,0.011
		s-0.015-0.011-0.015-0.011s-0.001,0.008-0.011,0.01c-0.002,0.002-0.016-0.002-0.018,0c0,0-0.006,0.007-0.011,0.01
		c-0.003,0.003-0.008,0.009-0.01,0.012c-0.001,0-0.009-0.012-0.011-0.012c-0.002,0.001-0.009,0.009-0.01,0.012
		c-0.006,0.005-0.01,0.007-0.01,0.012c0,0-0.009,0.007-0.012,0.008c0.002,0-0.006,0.009-0.006,0.009s0-0.013-0.004-0.013
		c0.001,0-0.006,0.009-0.008,0.011L24.58,0.121c-0.002,0-0.016,0.016-0.02,0.018c0,0-0.012,0.013-0.008,0.012
		c-0.002,0-0.008,0.006-0.014,0.01c-0.003,0.003-0.006,0.007-0.008,0.01l-0.011,0.011l-1.899,1.896l-1.896-1.896l-0.009-0.012
		c-0.002-0.004-0.006-0.006-0.01-0.01s-0.01-0.009-0.01-0.009c0.002,0.001-0.011-0.012-0.011-0.012
		c-0.003-0.004-0.017-0.018-0.019-0.018l-0.037-0.019c-0.004-0.002-0.01-0.011-0.01-0.011c-0.005,0-0.011,0.011-0.011,0.011
		s-0.007-0.008-0.009-0.011c-0.004-0.001-0.011-0.009-0.011-0.009C20.59,0.08,20.586,0.077,20.58,0.072
		c-0.004-0.002-0.01-0.01-0.01-0.011c-0.004,0-0.011,0.012-0.012,0.011c-0.002-0.003-0.007-0.008-0.011-0.011
		c-0.003-0.003-0.009-0.011-0.009-0.011c-0.004-0.001-0.017,0.003-0.018,0c-0.009-0.001-0.01-0.009-0.01-0.01
		c0,0-0.005,0.01-0.012,0.01c-0.006,0-0.01-0.01-0.01-0.01c-0.006,0-0.018,0.001-0.019,0c-0.005,0.001-0.009-0.009-0.011-0.011
		c-0.002,0-0.008,0.011-0.008,0.011C20.45,0.039,20.441,0.03,20.441,0.03c-0.002-0.002-0.01-0.01-0.01-0.01s-0.016,0.002-0.018,0
		c0,0-0.005-0.012-0.01-0.01c-0.002,0-0.011,0.01-0.011,0.01c0-0.002-0.009-0.01-0.009-0.011c-0.002,0-0.01,0.013-0.011,0.011
		c-0.003-0.004-0.007-0.008-0.01-0.011c0-0.001-0.008-0.009-0.011-0.01c-0.001-0.001-0.009,0.01-0.009,0.01h-0.019h-0.015L20.302,0
		c-0.005,0-0.01,0.011-0.01,0.01c-0.007,0.001-0.011,0.009-0.011,0.009s-0.01-0.009-0.01-0.01c0,0.002-0.01,0.012-0.01,0.01
		c0,0-0.009-0.008-0.01-0.01c-0.004,0-0.004,0.009-0.01,0.01c-0.002,0-0.006-0.012-0.011-0.01c-0.005,0.003-0.013,0.012-0.013,0.012
		l-0.01,0.01c-0.002,0-0.006,0.01-0.01,0.012c-0.004-0.004-0.008-0.009-0.01-0.012c-0.004,0.002-0.012,0.012-0.012,0.012
		c-0.006,0-0.017,0-0.017,0c-0.003,0-0.011,0.008-0.011,0.008l-0.008-0.008c-0.011,0.005-0.039,0.018-0.041,0.018
		c0,0-0.004,0.009-0.01,0.01c0-0.001-0.029,0.01-0.029,0.009c-0.002,0.003-0.01,0.011-0.01,0.011C20.05,0.091,20.043,0.1,20.043,0.1
		s-0.004-0.012-0.009-0.011c0,0-0.007,0.009-0.011,0.011c-0.006,0.003-0.01,0.01-0.01,0.01c-0.004,0.003-0.009,0.008-0.012,0.01
		c-0.003,0.003-0.01,0.011-0.01,0.011l-0.009-0.012l-0.009,0.011c-0.003,0.003-0.008,0.007-0.01,0.01
		c-0.002,0-0.016,0.015-0.02,0.02c-0.002,0.002-0.006,0.006-0.011,0.009c-0.013,0.014-0.004,0.005-0.009,0.011l-2.137,2.137
		c-0.007,0.004,0.004-0.004-0.012,0.01c-0.001,0.002-0.006,0.007-0.008,0.01c-0.006,0.006-0.02,0.019-0.02,0.019
		c-0.002,0.002-0.007,0.007-0.01,0.01c-0.002,0.002-0.01,0.011-0.01,0.011s0.002,0.014,0,0.018c-0.004,0.003-0.006,0.006-0.011,0.01
		c-0.003,0.005-0.009,0.011-0.009,0.011c-0.004,0.006-0.009,0.006-0.012,0.011l0.012,0.011c0,0-0.01,0.004-0.012,0.009
		c0,0-0.008,0.007-0.009,0.01c-0.003,0.002-0.005,0.005-0.011,0.011c0,0.003,0.002,0.016,0.001,0.018
		c-0.003,0.005-0.011,0.012-0.011,0.012s-0.008,0.02-0.01,0.026c-0.003,0.008-0.01,0.01-0.01,0.01s0.012,0.008,0.01,0.011
		s-0.006,0.005-0.01,0.012c-0.004,0.008,0,0.017,0,0.017s0.002,0.015,0,0.02c0.001-0.002-0.008,0.005-0.01,0.009
		c-0.002,0.005-0.013,0.012-0.013,0.012s0,0.018,0.002,0.018c0,0-0.002,0.017,0,0.019c0,0-0.011,0.005-0.011,0.009l0.011,0.011
		c0,0-0.011,0.006-0.011,0.011c0,0.002-0.009,0.006-0.01,0.011l0.01,0.009v0.019v0.02c0,0-0.012,0.008-0.01,0.008
		c0.002,0.004,0.01,0.011,0.01,0.011c-0.002,0.006,0.013,0.005,0.011,0.01c0,0,0,0.018,0,0.019c0,0.003,0,0.018,0,0.018
		c0.001,0.004,0,0.02,0,0.02s0.007,0.006,0.01,0.009c0.001,0.001,0.009,0.009,0.011,0.011c0,0.004-0.01,0.006-0.011,0.012
		c0.003,0.003,0.011,0.01,0.011,0.01s-0.004,0.011,0,0.02c0.001,0.007,0.01,0.01,0.01,0.01c0.002,0.005-0.01,0.01-0.01,0.01
		c0.001,0.002,0.01,0.026,0.01,0.028c0.004,0.005,0.008,0.007,0.01,0.01c0,0,0.008,0.008,0.011,0.012l0.01,0.027
		c0,0.002,0.012,0.005,0.011,0.011c0.002,0.004-0.002,0.016,0,0.018c0,0.007,0.018,0.018,0.018,0.018s0.008,0.009,0.01,0.01
		c0.006,0.011,0,0.019,0,0.019c0.002,0,0.011,0.01,0.011,0.011c0.003,0.003,0.009,0.007,0.01,0.011c0,0,0.005,0.005,0.011,0.01
		c0.005,0.006,0.005,0.006,0.01,0.009c0.013,0.016,0.01,0.012,0.01,0.012s0.003,0.001,0.01,0.01l1.898,1.896l-1.883,1.891
		c-0.012,0.013-0.012,0.011-0.011,0.01c-0.005,0.006-0.011,0.013-0.009,0.01c-0.012,0.012-0.006,0.006-0.01,0.011
		c-0.005,0.005-0.011,0.01-0.011,0.01s-0.005,0.009-0.01,0.013c-0.007,0.004,0-0.001-0.011,0.009c-0.001,0.001-0.01,0.01-0.01,0.01
		c-0.008,0.005-0.015,0.013-0.02,0.02h0.002v0.02c-0.002,0-0.008,0.007-0.01,0.009c-0.004,0.002-0.008,0.006-0.01,0.009
		c-0.004,0.003-0.012,0.029-0.012,0.029s-0.008,0.008-0.01,0.01c-0.003,0.003-0.01,0.009-0.01,0.009s0.012,0.01,0.01,0.012
		c-0.004,0.003-0.007,0.006-0.01,0.012c-0.005,0.004-0.01,0.008-0.01,0.008c-0.002,0.002,0.012,0.009,0.01,0.01l-0.008,0.007
		c-0.002,0.003-0.009,0.011-0.009,0.011s0.005,0.01,0,0.018c-0.003,0.009-0.011,0.01-0.011,0.01c0.002,0.005,0.006,0.009,0.011,0.01
		c-0.005,0.005-0.009,0.008-0.011,0.011c0,0-0.01,0.01-0.01,0.011c-0.002,0.002,0.01,0.009,0.01,0.009
		c-0.002,0.003-0.01,0.01-0.01,0.01c-0.002,0.001,0.01,0.011,0.01,0.011c-0.002,0.002-0.01,0.008-0.01,0.011
		c-0.002,0,0.01,0.009,0.01,0.009c-0.002,0.002-0.01,0.01-0.01,0.012c-0.001,0-0.001,0.014,0,0.017
		c-0.002,0.001,0.01,0.011,0.01,0.011c-0.002,0.021-0.012,0.006-0.01,0.01c0,0.006,0.01,0.022,0.01,0.01
		c-0.002,0.011-0.011,0.004-0.01,0.011c-0.002,0.001,0.01,0.008,0.01,0.01c0,0-0.011-0.003-0.01,0.01
		c-0.001,0.009-0.001,0.018,0,0.018c0,0.006-0.001,0.018-0.001,0.018c0.005,0.005,0.007,0.008,0.011,0.011
		c-0.002,0.001-0.01,0.01-0.011,0.01c-0.001,0.003,0.011,0.007,0.011,0.01c-0.002,0.002-0.013,0.007-0.011,0.012
		c0.001,0.004,0.011,0.008,0.011,0.008c-0.002,0.002,0,0.02,0,0.02c0.001,0.006,0.01,0.01,0.01,0.01c-0.002,0-0.01,0.009-0.01,0.009
		c0.001,0.007,0.01,0.012,0.01,0.012s0.006,0.005,0.01,0.01c-0.001,0,0.008,0.005,0.01,0.01s-0.014,0.003-0.01,0.01
		c0,0,0.006,0.005,0.01,0.009c0.004,0.01,0,0.02,0,0.02s0.006,0.008,0.01,0.01c0.002,0.004,0.01,0.01,0.01,0.01
		c0.002,0.005,0,0.015,0,0.02c0,0,0.008,0.005,0.011,0.008c0,0,0.009,0.011,0.01,0.012c0,0-0.005,0.015-0.001,0.018
		c0,0,0.008,0.008,0.01,0.011c0.003,0.003,0.01,0.008,0.01,0.008c0.004,0.005,0.009,0.011,0.012,0.011c0.002,0.007,0,0.019,0,0.019
		s0.007,0.009,0.008,0.011c0.004,0.003,0.01,0.01,0.012,0.01c0.003,0.004,0.007,0.008,0.008,0.01
		c0.007,0.004,0.011,0.008,0.011,0.01c0.013,0.015,0.009,0.009,0.011,0.01c0.004,0.005-0.006-0.006,0.008,0.009l2.138,2.137
		c0.005,0.006-0.003-0.003,0.01,0.012c0.003,0.003,0.007,0.007,0.011,0.01c0.005,0.005,0.018,0.017,0.018,0.018
		c0.004,0.003,0.008,0.007,0.01,0.01l0.01,0.01c0,0,0.015-0.004,0.02,0c0.004,0.003,0.01,0.01,0.01,0.01s0.008,0.008,0.01,0.009
		c0.008,0.006,0.018,0,0.018,0s0.006,0.01,0.01,0.012c0,0,0.008,0.006,0.012,0.009c0.002,0.003,0.004,0.007,0.008,0.01
		c0.006,0.003,0.016,0,0.02,0c0.006,0.003,0.008,0.011,0.01,0.011c0,0,0.022,0.009,0.027,0.009c0.008,0.003,0.012,0.011,0.012,0.011
		s0.004-0.011,0.008-0.011c0.006,0.003,0.012,0.011,0.012,0.011s0.008,0.011,0.01,0.011c0-0.001,0.009-0.01,0.01-0.011
		c0.006,0.002,0.008,0.011,0.011,0.011c0.005,0,0.009-0.01,0.009-0.011c0.006,0.001,0.008,0.011,0.01,0.01
		c0.006,0.002,0.011,0.01,0.011,0.01s0.03-0.024,0.032-0.024c0.002-0.002,0.008,0.01,0.01,0.01c0.005,0.001,0.01-0.01,0.01-0.01
		h0.02c0.004,0.001,0.004,0.01,0.01,0.01c0,0,0.006,0.008,0.01,0.008l0.01-0.008h0.02h0.018c0,0,0.007,0.008,0.01,0.008
		c0.002-0.001,0.008-0.008,0.008-0.008c0.012,0,0.02,0,0.02,0c0-0.003,0.009-0.01,0.01-0.012c0,0.002,0.009,0.012,0.011,0.012
		c0.005,0,0.011-0.01,0.011-0.012c0-0.001,0.018,0.002,0.018,0c0,0,0.008-0.007,0.009-0.011c0.004-0.001,0.004-0.008,0.012-0.008
		c0.007,0,0.017,0,0.017,0s0.013,0.004,0.02,0c0.008-0.001,0.01-0.012,0.01-0.012c0.006,0,0.01,0.012,0.01,0.012
		c0-0.001,0.027-0.012,0.028-0.012c0.003-0.003,0.008-0.006,0.01-0.01c0.001-0.002,0.01-0.01,0.01-0.01
		c0.003-0.003,0.017,0.001,0.02,0c0.003-0.004,0.01-0.011,0.01-0.011c0.003-0.002,0.009-0.008,0.01-0.01
		c0.003-0.003,0.016,0.002,0.019,0c0.006,0,0.018-0.019,0.018-0.019s0.008-0.007,0.01-0.011c0.011-0.002,0.019,0,0.019,0
		s0.009-0.007,0.01-0.01c0.003-0.001,0.008-0.009,0.011-0.01c0.006-0.006,0.01-0.01,0.01-0.01c0.004-0.006,0.006-0.006,0.01-0.01
		s0.011-0.012,0.01-0.01c0,0,0.001-0.002,0.01-0.011l1.914-1.893l1.905,1.904c0.008,0.009,0.011,0.01,0.011,0.01
		c-0.003-0.001,0.006,0.006,0.009,0.01c0.004,0.004,0.005,0.006,0.01,0.01c0,0,0.005,0.008,0.01,0.012
		c0.003,0.002,0.009,0.007,0.011,0.01c0.002,0.002,0.009,0.01,0.009,0.01s0.012-0.003,0.019,0c0.004,0.002,0.01,0.009,0.01,0.009
		s0.016,0.02,0.019,0.02c0.003,0.002,0.016-0.004,0.019,0c0.001,0.002,0.008,0.008,0.011,0.01c0,0,0.007,0.007,0.01,0.012
		c0.003,0,0.017-0.005,0.019,0l0.01,0.008c0.004,0.005,0.006,0.01,0.01,0.011c0.003,0.001,0.027,0.011,0.027,0.012
		c0,0,0.006-0.011,0.01-0.011c0,0,0.004,0.01,0.012,0.011c0.009,0.004,0.018,0,0.018,0s0.014,0,0.018,0
		c0.01,0,0.01,0.006,0.011,0.009c0.003,0.004,0.011,0.01,0.011,0.01c0,0.001,0.018,0,0.018,0c0.001,0.001,0.005,0.011,0.01,0.01
		c0.003,0,0.01-0.009,0.01-0.01c0.002,0.001,0.01,0.01,0.012,0.01c0,0.001,0.01,0,0.016,0C24.908,9.99,24.915,9.998,24.918,10
		c0.002,0,0.01-0.011,0.01-0.011l0.018,0.001h0.019l0.01,0.01c0.004-0.002,0.011-0.011,0.011-0.01
		c0.004-0.001,0.006-0.009,0.01-0.01h0.018c0.002,0,0.006,0.011,0.01,0.01c0.002,0,0.009-0.011,0.01-0.01c0.004,0,0.019,0,0.019,0
		s0.006-0.009,0.01-0.01c0.003,0,0.007-0.009,0.011-0.01c0.001,0.001,0.006,0.011,0.01,0.01c0.002,0,0.006-0.009,0.01-0.01
		c0.002,0.001,0.009,0.01,0.009,0.01c0.003,0,0.011-0.01,0.011-0.01s0.006-0.008,0.01-0.009c0.006-0.002,0.012,0.009,0.012,0.009
		s0.002-0.008,0.01-0.009c0.008-0.003,0.027-0.012,0.027-0.012c0.003,0,0.006-0.009,0.01-0.009c0.004-0.001,0.015,0.002,0.02,0
		c0.004-0.004,0.006-0.008,0.008-0.01c0.006-0.004,0.012-0.011,0.012-0.011c0.003,0,0.01-0.01,0.01-0.01s0.012,0.006,0.018,0
		c0.003-0.002,0.01-0.009,0.01-0.009s0.008-0.009,0.01-0.012c0.006-0.003,0.02,0,0.02,0l0.01-0.009
		c0.003-0.003,0.008-0.009,0.01-0.01c0-0.001,0.014-0.016,0.018-0.02c0.004-0.001,0.008-0.007,0.012-0.008
		c0.014-0.015,0.005-0.006,0.01-0.01l2.136-2.139c0.015-0.015,0.007-0.004,0.009-0.01c0.003-0.002-0.001,0.006,0.012-0.009
		c0,0,0.004-0.006,0.009-0.01c0.003-0.003,0.007-0.008,0.009-0.01c0.003-0.002,0.01-0.008,0.012-0.012
		c0.002-0.001,0.009-0.008,0.009-0.008s-0.003-0.015,0-0.02c0.001,0,0.009-0.006,0.011-0.009c0.001-0.001,0.008-0.007,0.01-0.011
		c0.002-0.002,0.01-0.009,0.01-0.009c0.004-0.003,0-0.02,0-0.02c0.002-0.001,0.01-0.01,0.01-0.01
		c0.002-0.003,0.012-0.009,0.01-0.009c0.002-0.006-0.002-0.015,0-0.02c0,0,0.01-0.006,0.01-0.01c0.004-0.001,0.01-0.01,0.01-0.01
		s-0.004-0.01,0-0.018s0.01-0.012,0.01-0.012c0.005-0.006-0.01-0.005-0.01-0.009c0.002-0.007,0.01-0.01,0.01-0.01
		c0.005-0.003,0.01-0.01,0.01-0.01s0.01-0.006,0.01-0.011c0-0.001-0.01-0.009-0.01-0.009s0.009-0.005,0.01-0.013
		c0,0,0.004-0.016,0-0.016c0,0,0.01-0.006,0.012-0.012c0-0.004-0.01-0.009-0.012-0.01c0-0.003,0.012-0.009,0.012-0.01
		c-0.003-0.001-0.012-0.009-0.012-0.009c0.005-0.002,0.008-0.007,0.012-0.012c0,0-0.002-0.012-0.002-0.017
		c0.002,0,0.002-0.013,0-0.019c0.002-0.013-0.01-0.01-0.01-0.01c0-0.001,0.012-0.01,0.01-0.011c0.002-0.005-0.01,0.001-0.01-0.01
		c0,0.014,0.01-0.004,0.01-0.01c0.002-0.006-0.01,0.012-0.01-0.012c0,0,0.012-0.008,0.01-0.008c0.002-0.004,0.002-0.02,0-0.02
		c-0.001-0.001-0.008-0.009-0.01-0.01c-0.001,0,0.012-0.01,0.01-0.01c-0.001-0.001-0.008-0.007-0.01-0.01
		c0,0,0.012-0.009,0.01-0.011c-0.001-0.001-0.008-0.009-0.01-0.009c0-0.001,0.012-0.01,0.01-0.011
		c-0.001-0.002-0.01-0.009-0.01-0.009c-0.002-0.004-0.005-0.007-0.011-0.011c0.006-0.003,0.009-0.006,0.011-0.01
		c0,0-0.01-0.002-0.011-0.009c-0.004-0.011,0-0.02,0-0.02s-0.007-0.009-0.009-0.01c0,0-0.008-0.007-0.01-0.011
		c0-0.001,0.012-0.01,0.01-0.011c0,0-0.006-0.006-0.01-0.009c-0.004-0.004-0.008-0.007-0.01-0.01
		c-0.003-0.001,0.01-0.011,0.01-0.011s-0.008-0.008-0.01-0.01c-0.003-0.001-0.012-0.01-0.012-0.01s-0.007-0.026-0.01-0.027
		c-0.003-0.005-0.008-0.011-0.01-0.012c-0.003-0.003-0.01-0.01-0.01-0.01v-0.02l0,0c-0.006-0.007-0.012-0.014-0.018-0.018
		c0,0-0.01-0.009-0.01-0.012c-0.01-0.01-0.006-0.004-0.01-0.008c-0.004-0.005-0.011-0.01-0.011-0.01s-0.005-0.005-0.01-0.01
		s0,0-0.011-0.011c0.003,0.003-0.004-0.006-0.011-0.01c0.003,0.001,0.003,0.003-0.009-0.012l-1.896-1.894l1.896-1.897
		c0.009-0.008,0.011-0.011,0.011-0.011c0,0.001-0.003,0.004,0.011-0.009c0.004-0.007,0.004-0.007,0.009-0.011
		c0.007-0.006,0.011-0.01,0.011-0.011c0.004-0.002,0.008-0.007,0.011-0.01c0-0.002,0.01-0.009,0.01-0.01c0,0-0.005-0.012,0-0.019
		c0.003-0.003,0.011-0.01,0.011-0.01s0.019-0.014,0.018-0.02c0.001-0.001-0.004-0.015,0.001-0.018
		c-0.003-0.006,0.009-0.009,0.009-0.01c0,0.001,0.011-0.028,0.011-0.028c0.003-0.003,0.011-0.011,0.011-0.011
		c0.002-0.001,0.006-0.006,0.01-0.01c0.002-0.001,0.01-0.026,0.01-0.027c0,0-0.012-0.008-0.01-0.012c0,0,0.01-0.001,0.01-0.01
		c0.003-0.01,0-0.018,0-0.018s0.008-0.008,0.01-0.011c0-0.006-0.01-0.008-0.01-0.011c0.002-0.002,0.01-0.01,0.01-0.01
		c0.003-0.002,0.01-0.011,0.01-0.011s-0.002-0.016,0-0.018c0,0,0-0.016,0-0.019V2.736C27.6,2.747,27.61,2.747,27.61,2.742z"/>
	<polygon fill="#EA2A29" points="27.064,7.284 24.773,4.995 27.063,2.708 24.926,0.571 22.638,2.858 20.35,0.571 18.215,2.708 
		20.502,4.995 18.213,7.284 20.348,9.421 22.638,7.13 24.928,9.421 	"/>
	
		<linearGradient id="SVGID_2_" gradientUnits="userSpaceOnUse" x1="860.9063" y1="1907.3555" x2="868.6895" y2="1907.3555" gradientTransform="matrix(1 0 0 1 -842.1602 -1902.3594)">
		<stop  offset="0" style="stop-color:#F5969A"/>
		<stop  offset="1" style="stop-color:#901A1E"/>
	</linearGradient>
	<polygon fill="url(#SVGID_2_)" points="26.529,7.284 24.24,4.995 26.528,2.708 24.926,1.105 22.638,3.394 20.35,1.105 
		18.748,2.708 21.035,4.995 18.746,7.284 20.348,8.887 22.638,6.597 24.928,8.887 	"/>
</g>
</svg>
