<?xml version="1.0" encoding="utf-8"?>
<!-- Generator: Adobe Illustrator 14.0.0, SVG Export Plug-In . SVG Version: 6.00 Build 43363)  -->
<!DOCTYPE svg PUBLIC "-//W3C//DTD SVG 1.1//EN" "http://www.w3.org/Graphics/SVG/1.1/DTD/svg11.dtd">
<svg version="1.1" id="Layer_1" xmlns="http://www.w3.org/2000/svg" xmlns:xlink="http://www.w3.org/1999/xlink" x="0px" y="0px"
	 width="32px" height="32px" viewBox="0 0 32 32" enable-background="new 0 0 32 32" xml:space="preserve">
<g>
	<path d="M0.911,24.281c-0.511,0-0.926-0.414-0.926-0.924V0.914c0-0.51,0.415-0.926,0.926-0.926h26.442
		c0.511,0,0.926,0.416,0.926,0.926v22.443c0,0.51-0.415,0.924-0.926,0.924H0.911z"/>
	<rect x="0.911" y="0.914" fill="#DAEBF3" width="26.442" height="22.443"/>
	
		<linearGradient id="SVGID_1_" gradientUnits="userSpaceOnUse" x1="282.4512" y1="-375.873" x2="308.8936" y2="-375.873" gradientTransform="matrix(1 0 0 -1 -281.54 -371.8398)">
		<stop  offset="0" style="stop-color:#B1D2DB"/>
		<stop  offset="1" style="stop-color:#0C7C9E"/>
	</linearGradient>
	<rect x="0.911" y="0.914" fill="url(#SVGID_1_)" width="26.442" height="6.238"/>
	
		<linearGradient id="SVGID_2_" gradientUnits="userSpaceOnUse" x1="282.4512" y1="-387.3311" x2="308.8936" y2="-387.3311" gradientTransform="matrix(1 0 0 -1 -281.54 -371.8398)">
		<stop  offset="0" style="stop-color:#F59699"/>
		<stop  offset="1" style="stop-color:#8F1A1D"/>
	</linearGradient>
	<rect x="0.911" y="7.625" fill="url(#SVGID_2_)" width="26.442" height="15.732"/>
	<line fill="none" stroke="#000000" x1="0.911" y1="7.152" x2="27.354" y2="7.152"/>
	<line fill="none" stroke="#000000" x1="0.911" y1="12.488" x2="27.354" y2="12.488"/>
	<line fill="none" stroke="#000000" x1="0.911" y1="18.354" x2="27.354" y2="18.354"/>
	<line fill="none" stroke="#000000" x1="9.456" y1="7.168" x2="9.456" y2="23.371"/>
	<line fill="none" stroke="#000000" x1="18.867" y1="7.197" x2="18.867" y2="23.402"/>
	<path fill="#020202" d="M31.968,20.365c0.002,0,0.012-0.012,0.016-0.016c0.003-0.002-0.016-0.016-0.016-0.016v-0.029
		c0-0.002,0-0.031,0-0.031s0.016-0.014,0.018-0.016c-0.004-0.006-0.016-0.012-0.018-0.014c0-0.008-0.015-0.016-0.015-0.016
		l0.015-0.016c0-0.01-0.016-0.016-0.015-0.016c0.001-0.002,0-0.031,0-0.031c0.001-0.002,0-0.029,0-0.029s-0.013-0.01-0.015-0.016
		c-0.003-0.008-0.018-0.016-0.016-0.016c-0.004-0.012,0-0.029,0-0.029s0.006-0.02,0-0.031c-0.006-0.01-0.014-0.012-0.016-0.016
		c-0.003-0.006,0.016-0.018,0.016-0.018s-0.012-0.002-0.016-0.014s-0.016-0.045-0.015-0.047c0,0-0.013-0.008-0.017-0.016
		c-0.002-0.006,0.002-0.025,0.002-0.029c-0.01-0.008-0.014-0.014-0.018-0.016c-0.003-0.006-0.016-0.016-0.016-0.016
		c-0.002-0.006-0.014-0.016-0.014-0.016l0.014-0.016c-0.004-0.006-0.01-0.008-0.014-0.016c0,0-0.014-0.008-0.017-0.016
		c-0.005-0.006-0.013-0.012-0.015-0.016c-0.006-0.008,0-0.031,0-0.031c-0.002,0-0.015-0.012-0.016-0.014
		c-0.006-0.006-0.013-0.012-0.017-0.016c0,0-0.022-0.023-0.029-0.031c-0.006-0.004-0.015-0.012-0.017-0.016
		c-0.021-0.021-0.008-0.008-0.016-0.016l-3.43-3.43c-0.01-0.008,0.005,0.006-0.016-0.016c-0.006-0.005-0.012-0.012-0.017-0.016
		c-0.007-0.008-0.03-0.03-0.03-0.031c-0.004-0.005-0.012-0.012-0.015-0.015l-0.017-0.015l-0.016,0.015c0,0-0.012-0.013-0.015-0.015
		c-0.006-0.006-0.013-0.012-0.015-0.017c0,0-0.01-0.011-0.018-0.015c-0.005-0.004-0.015-0.016-0.015-0.016
		c-0.009-0.002-0.015,0.016-0.015,0.016s-0.01-0.014-0.018-0.016c0,0-0.01-0.012-0.015-0.016c0,0.001-0.046-0.016-0.046-0.016
		c-0.008-0.002-0.014-0.015-0.014-0.015c-0.002,0-0.05-0.021-0.065-0.028l-0.013,0.013c0,0-0.013-0.013-0.015-0.015
		c0,0-0.022,0.002-0.03,0c0,0-0.011-0.015-0.017-0.016c-0.007,0.005-0.011,0.01-0.017,0.016c-0.006-0.002-0.01-0.017-0.015-0.016
		l-0.016-0.016c0,0-0.011-0.014-0.017-0.016s-0.014,0.014-0.016,0.016c-0.008-0.002-0.011-0.016-0.016-0.016
		c0,0.002-0.014,0.016-0.014,0.016c-0.002,0-0.015-0.014-0.016-0.016c-0.002,0.002-0.018,0.016-0.018,0.016
		s-0.008-0.014-0.015-0.016c0,0.002-0.01-0.014-0.015-0.015c-0.002,0.001-0.016,0.015-0.016,0.015h-0.031h-0.03
		c0,0-0.013-0.017-0.017-0.015c-0.004,0.003-0.014,0.015-0.014,0.015c-0.007,0.004-0.013,0.012-0.018,0.016
		c-0.001,0.002-0.012-0.016-0.016-0.016c0,0.002-0.014,0.014-0.015,0.016c0.001,0-0.011-0.014-0.015-0.014
		c-0.01-0.002-0.016,0.014-0.016,0.014c-0.004,0.004-0.031,0-0.031,0s-0.012,0.012-0.016,0.016c0,0.001-0.014,0.014-0.016,0.016
		c0,0-0.012-0.015-0.016-0.015c-0.002,0.001-0.008,0.017-0.016,0.015c-0.001,0.002-0.021,0-0.031,0c0,0-0.004,0.016-0.015,0.016
		c-0.01,0-0.015-0.016-0.015-0.016c-0.002,0-0.004,0.015-0.018,0.016c-0.003,0.004-0.025-0.001-0.029,0c0,0-0.01,0.01-0.016,0.015
		c-0.007,0.007-0.012,0.013-0.016,0.017c-0.002,0.002-0.014-0.017-0.016-0.017c-0.002,0.001-0.013,0.013-0.016,0.017
		c-0.008,0.008-0.014,0.012-0.016,0.015c0,0-0.012,0.012-0.016,0.017c-0.005,0.002-0.016,0.014-0.016,0.014s-0.01-0.016-0.016-0.014
		c0,0-0.01,0.012-0.017,0.014l-0.062,0.031c0,0-0.023,0.024-0.03,0.031c0,0-0.019,0.018-0.015,0.016
		c-0.002,0-0.01,0.008-0.016,0.015c-0.007,0.005-0.012,0.01-0.016,0.017l-0.016,0.014l-3.047,3.045l-3.045-3.045l-0.016-0.014
		c-0.004-0.006-0.01-0.011-0.016-0.017c-0.006-0.007-0.015-0.015-0.016-0.015c0.002,0.002-0.016-0.016-0.016-0.016
		c-0.008-0.007-0.029-0.029-0.031-0.031l-0.061-0.031c-0.004-0.002-0.016-0.014-0.016-0.014c-0.006-0.002-0.015,0.014-0.015,0.014
		s-0.013-0.012-0.017-0.014c-0.004-0.004-0.016-0.017-0.016-0.017c-0.003-0.003-0.007-0.007-0.016-0.015
		c-0.004-0.002-0.016-0.016-0.016-0.017c-0.004,0-0.014,0.019-0.016,0.017c-0.005-0.004-0.01-0.01-0.016-0.017
		c-0.006-0.005-0.016-0.015-0.016-0.015c-0.006-0.001-0.027,0.004-0.031,0c-0.011-0.001-0.014-0.016-0.015-0.016
		c0,0-0.007,0.016-0.017,0.016s-0.016-0.016-0.016-0.016c-0.007,0-0.027,0.002-0.031,0c-0.006,0.002-0.012-0.014-0.015-0.015
		c-0.004,0-0.014,0.017-0.015,0.015c-0.003-0.002-0.014-0.014-0.016-0.016c-0.006-0.004-0.016-0.016-0.016-0.016
		s-0.027,0.004-0.031,0c0,0-0.007-0.016-0.015-0.014c-0.006,0-0.017,0.016-0.015,0.014c-0.004-0.002-0.014-0.014-0.018-0.016
		c-0.001,0-0.014,0.018-0.015,0.016c-0.004-0.004-0.011-0.01-0.015-0.016c-0.002,0-0.014-0.012-0.018-0.015
		c-0.003-0.001-0.015,0.015-0.015,0.015h-0.031h-0.03l-0.015-0.015c-0.005,0.001-0.015,0.017-0.017,0.015
		c-0.006,0.002-0.016,0.016-0.016,0.016s-0.014-0.014-0.015-0.016c-0.001,0.002-0.015,0.016-0.015,0.016s-0.015-0.014-0.018-0.016
		c-0.004,0-0.007,0.014-0.016,0.016c0-0.002-0.006-0.018-0.014-0.016c-0.005,0.002-0.017,0.016-0.017,0.016l-0.017,0.016
		c-0.002,0-0.006,0.014-0.015,0.016c-0.005-0.006-0.01-0.011-0.016-0.016c-0.005,0.001-0.017,0.016-0.017,0.016
		c-0.01,0.002-0.029,0-0.029,0c-0.004,0.002-0.016,0.015-0.016,0.015l0.024-0.005c-0.017,0.009-0.063,0.029-0.063,0.029
		s-0.008,0.01-0.015,0.014c0,0-0.046,0.017-0.046,0.016c-0.005,0.003-0.016,0.016-0.016,0.016c-0.006,0.002-0.016,0.016-0.016,0.016
		s-0.008-0.018-0.017-0.016c0,0-0.009,0.013-0.015,0.016c-0.008,0.004-0.016,0.015-0.016,0.015
		c-0.004,0.005-0.011,0.011-0.015,0.017c-0.005,0.002-0.017,0.015-0.017,0.015l-0.016-0.015l-0.016,0.015
		c-0.004,0.003-0.01,0.01-0.016,0.015c-0.001,0.002-0.023,0.024-0.031,0.031c-0.002,0.003-0.008,0.01-0.015,0.016
		c-0.021,0.021-0.007,0.006-0.015,0.016l-3.432,3.43c-0.009,0.01,0.006-0.006-0.016,0.016c-0.003,0.004-0.011,0.012-0.016,0.016
		c-0.008,0.008-0.03,0.031-0.03,0.031c-0.003,0.004-0.011,0.01-0.015,0.016c-0.004,0.002-0.016,0.014-0.016,0.016
		c0,0,0.006,0.021,0,0.029c-0.005,0.004-0.01,0.012-0.016,0.016c-0.002,0.008-0.016,0.016-0.016,0.016
		c-0.004,0.008-0.012,0.01-0.017,0.016l0.017,0.016c0,0-0.014,0.01-0.017,0.016c0,0-0.011,0.01-0.015,0.016
		c-0.004,0.004-0.008,0.008-0.016,0.016c0,0.004,0.004,0.023,0,0.029c-0.002,0.008-0.015,0.016-0.015,0.016
		c0,0.002-0.013,0.035-0.017,0.047s-0.016,0.016-0.016,0.016s0.02,0.01,0.016,0.016c-0.002,0.004-0.008,0.006-0.016,0.016
		c-0.006,0.014,0,0.031,0,0.031s0.006,0.02,0,0.029c0.001,0-0.011,0.008-0.014,0.016c-0.003,0.006-0.018,0.016-0.018,0.016
		s0,0.027,0.002,0.029c0,0-0.002,0.029,0,0.031c0,0-0.016,0.006-0.017,0.016l0.017,0.016c0,0-0.014,0.008-0.017,0.016
		c0,0.002-0.012,0.008-0.015,0.014c0.001,0.002,0.015,0.018,0.015,0.018s0.001,0.029,0,0.031l0.001,0.027
		c0,0-0.018,0.016-0.016,0.018c0.004,0.004,0.015,0.014,0.016,0.016c-0.002,0.008,0.02,0.006,0.016,0.016v0.029
		c0,0.004,0,0.031,0,0.031c0.002,0.004,0,0.029,0,0.029s0.012,0.012,0.017,0.016c0,0.002,0.013,0.014,0.017,0.016
		c0,0.004-0.017,0.006-0.017,0.016c0.003,0.004,0.017,0.016,0.017,0.016s-0.007,0.016,0,0.031c0,0.012,0.014,0.016,0.014,0.016
		c0.004,0.006-0.014,0.016-0.014,0.016c0,0.002,0.012,0.043,0.016,0.045c0.004,0.008,0.01,0.012,0.015,0.016
		c0,0,0.013,0.012,0.017,0.016l0.016,0.047c0.002,0.002,0.018,0.008,0.016,0.016c0.004,0.006-0.003,0.027,0,0.029
		c0,0.01,0.03,0.031,0.03,0.031s0.012,0.012,0.017,0.016c0.008,0.014,0,0.029,0,0.029c0,0.002,0.014,0.014,0.014,0.016
		c0.005,0.004,0.013,0.012,0.018,0.016c0,0.002,0.007,0.008,0.016,0.018c0.008,0.008,0.008,0.008,0.015,0.014
		c0.021,0.021,0.017,0.018,0.017,0.016c0,0,0.004,0.004,0.016,0.016l3.045,3.047l-3.039,3.027c-0.02,0.02-0.02,0.02-0.016,0.016
		c-0.008,0.008-0.02,0.021-0.016,0.016c-0.018,0.018-0.008,0.01-0.016,0.018s-0.017,0.016-0.017,0.016s-0.008,0.008-0.015,0.016
		c-0.01,0.008,0-0.002-0.016,0.016c-0.002,0-0.017,0.016-0.017,0.016c-0.011,0.008-0.021,0.02-0.03,0.029l0.002,0.002l-0.002,0.029
		c0,0.002-0.011,0.012-0.015,0.016c-0.003,0.004-0.011,0.01-0.015,0.016c-0.006,0.004-0.018,0.047-0.018,0.047
		s-0.014,0.014-0.015,0.016c-0.004,0.004-0.015,0.016-0.015,0.016s0.016,0.014,0.015,0.016c-0.007,0.004-0.011,0.01-0.015,0.016
		c-0.008,0.006-0.018,0.014-0.018,0.014c-0.003,0.004,0.018,0.016,0.018,0.018c-0.006,0.006-0.018,0.016-0.018,0.016
		c-0.003,0.004-0.016,0.016-0.016,0.016s0.008,0.016,0,0.031c-0.002,0.012-0.014,0.016-0.014,0.016
		c0.004,0.004,0.008,0.01,0.014,0.016c-0.006,0.004-0.01,0.01-0.014,0.016c0,0-0.015,0.014-0.018,0.016s0.016,0.012,0.016,0.016
		c-0.004,0.002-0.015,0.012-0.016,0.014c-0.001,0.004,0.016,0.016,0.016,0.016c-0.004,0.004-0.015,0.014-0.016,0.016
		s0.018,0.016,0.016,0.018c-0.004,0.002-0.015,0.014-0.016,0.014c-0.001,0.002-0.001,0.025,0,0.031
		c-0.003,0.002,0.016,0.014,0.016,0.016c-0.002,0.035-0.019,0.008-0.016,0.016c0,0.01,0.014,0.035,0.016,0.016
		c-0.002,0.016-0.017,0.008-0.016,0.016c-0.003,0.002,0.014,0.016,0.016,0.016c-0.002,0.002-0.017-0.004-0.016,0.016
		c-0.001,0.014-0.001,0.031,0,0.031c0,0.008-0.001,0.027-0.001,0.027c0.005,0.008,0.009,0.014,0.017,0.018
		c-0.002,0.002-0.015,0.014-0.017,0.016s0.015,0.01,0.015,0.014c0,0.002-0.018,0.01-0.015,0.018
		c0.002,0.008,0.015,0.016,0.015,0.016c-0.002,0,0,0.029,0,0.029c0.004,0.01,0.018,0.016,0.018,0.016
		c-0.002,0.002-0.016,0.016-0.018,0.018c0.004,0.008,0.018,0.016,0.018,0.016s0.009,0.01,0.015,0.016
		c-0.002,0,0.013,0.006,0.015,0.014c0.004,0.008-0.021,0.006-0.015,0.016c0,0,0.009,0.006,0.015,0.016c0.008,0.016,0,0.029,0,0.029
		c0,0.002,0.012,0.014,0.016,0.018c0.003,0.006,0.015,0.016,0.015,0.016c0.003,0.006-0.001,0.025,0,0.031
		c-0.001,0,0.013,0.008,0.017,0.014c0,0,0.014,0.014,0.016,0.016c0,0-0.005,0.025-0.001,0.031c0,0,0.012,0.012,0.017,0.016
		c0.004,0.004,0.014,0.012,0.016,0.014c0.004,0.006,0.014,0.014,0.015,0.016c0.006,0.01,0,0.031,0,0.031s0.013,0.012,0.015,0.014
		c0.006,0.008,0.014,0.016,0.018,0.018c0.006,0.006,0.011,0.012,0.015,0.016c0.007,0.008,0.015,0.014,0.015,0.016
		c0.021,0.021,0.014,0.012,0.017,0.016c0.007,0.006-0.009-0.008,0.015,0.014l3.43,3.432c0.009,0.01-0.004-0.004,0.018,0.016
		c0.004,0.004,0.012,0.012,0.016,0.016c0.008,0.008,0.028,0.029,0.03,0.031c0.004,0.004,0.011,0.01,0.015,0.016l0.016,0.014
		c0,0,0.021-0.004,0.031,0c0.004,0.006,0.015,0.016,0.015,0.016s0.012,0.012,0.017,0.016c0.012,0.008,0.03,0,0.03,0
		s0.008,0.016,0.015,0.016c0,0,0.01,0.01,0.016,0.016s0.008,0.01,0.015,0.016c0.007,0.004,0.026-0.002,0.031,0
		c0.007,0.004,0.011,0.016,0.015,0.016c0,0,0.035,0.012,0.047,0.014c0.012,0.006,0.014,0.018,0.016,0.018
		c0,0,0.008-0.018,0.015-0.018c0.007,0.006,0.017,0.018,0.017,0.018s0.012,0.016,0.016,0.016c0.001-0.002,0.014-0.014,0.015-0.016
		c0.007,0.004,0.013,0.016,0.017,0.016c0.008,0.002,0.013-0.014,0.016-0.016c0.007,0.002,0.011,0.016,0.016,0.014
		c0.006,0.006,0.016,0.018,0.016,0.018s0.025-0.002,0.029-0.002c0.002,0,0.012,0.018,0.017,0.016
		C20.192,32,20.199,31.982,20.2,31.98h0.031c0.007,0.004,0.008,0.016,0.015,0.016c0.001,0,0.009,0.016,0.015,0.016
		c0.002,0,0.018-0.016,0.018-0.016h0.029h0.029c0,0,0.015,0.016,0.018,0.016c0.002-0.002,0.013-0.014,0.015-0.016
		c0.015,0,0.029,0,0.029,0c0.002-0.002,0.017-0.016,0.017-0.016s0.012,0.016,0.016,0.016c0.008,0.002,0.015-0.016,0.015-0.016
		c0.003-0.002,0.03,0,0.031,0c0,0,0.011-0.01,0.016-0.016c0.005-0.004,0.005-0.014,0.017-0.016c0.01,0,0.029,0,0.029,0
		s0.016,0.008,0.031,0c0.012-0.002,0.016-0.016,0.016-0.016c0.008,0,0.014,0.016,0.014,0.016c0.004-0.002,0.044-0.016,0.047-0.018
		c0.006-0.004,0.01-0.008,0.015-0.016c0.002,0,0.017-0.014,0.017-0.014c0.004-0.004,0.024,0.002,0.031,0
		c0.004-0.006,0.016-0.018,0.016-0.018c0.004-0.004,0.014-0.012,0.015-0.014c0.005-0.006,0.026,0.002,0.03,0
		c0.011,0,0.031-0.031,0.031-0.031s0.011-0.012,0.015-0.016c0.017-0.006,0.03,0,0.03,0s0.013-0.014,0.016-0.018
		c0.004-0.004,0.014-0.012,0.016-0.016c0.008-0.006,0.016-0.014,0.017-0.014c0.007-0.008,0.008-0.01,0.015-0.016
		c0.008-0.008,0.018-0.02,0.016-0.016c0,0,0.002-0.004,0.017-0.016l3.058-3.061l3.061,3.061c0.012,0.012,0.015,0.016,0.015,0.016
		c-0.003-0.004,0.009,0.008,0.015,0.016c0.008,0.006,0.008,0.008,0.018,0.016c0,0,0.007,0.008,0.015,0.014
		c0.005,0.004,0.013,0.012,0.015,0.016c0.004,0.004,0.018,0.018,0.018,0.018s0.016-0.006,0.029,0
		c0.006,0.004,0.017,0.016,0.017,0.016s0.021,0.031,0.029,0.031c0.003,0.002,0.026-0.006,0.03,0c0.002,0.002,0.011,0.01,0.017,0.014
		c0,0,0.011,0.012,0.015,0.018c0.006,0.002,0.028-0.004,0.031,0c0,0,0.014,0.014,0.016,0.014c0.004,0.008,0.01,0.012,0.014,0.016
		c0.004,0.002,0.046,0.016,0.047,0.018c0,0,0.007-0.016,0.016-0.016c0,0,0.004,0.014,0.016,0.016c0.015,0.008,0.031,0,0.031,0
		s0.021,0,0.03,0c0.011,0.002,0.011,0.012,0.015,0.016c0.006,0.006,0.017,0.016,0.017,0.016s0.028-0.002,0.03,0
		c0,0,0.008,0.018,0.015,0.016c0.004,0,0.015-0.016,0.017-0.016s0.014,0.014,0.016,0.016c0,0,0.015,0,0.029,0
		c0.002,0.002,0.014,0.014,0.017,0.016c0.003,0,0.015-0.016,0.015-0.016h0.03h0.03l0.016,0.016c0.007,0,0.016-0.016,0.018-0.016
		c0.006,0,0.008-0.012,0.014-0.016h0.029c0.002,0.002,0.01,0.02,0.018,0.016c0.003,0.002,0.014-0.016,0.015-0.016
		c0.005,0,0.03,0.002,0.03,0.002s0.008-0.012,0.016-0.018c0.004,0.002,0.008-0.012,0.016-0.014c0.002,0.002,0.008,0.018,0.016,0.016
		c0.003,0,0.008-0.012,0.016-0.016c0.002,0.002,0.015,0.014,0.017,0.016c0.003,0,0.015-0.016,0.015-0.016s0.008-0.012,0.016-0.018
		c0.008,0,0.017,0.018,0.017,0.018c0.001,0,0.003-0.012,0.015-0.018c0.012-0.002,0.045-0.014,0.045-0.014
		c0.004,0,0.008-0.012,0.017-0.016c0.006-0.002,0.022,0.004,0.03,0c0.008-0.006,0.01-0.01,0.015-0.016
		c0.007-0.006,0.017-0.016,0.017-0.016c0.006,0,0.016-0.016,0.016-0.016s0.018,0.008,0.031,0c0.004-0.004,0.014-0.016,0.014-0.016
		s0.011-0.01,0.016-0.016c0.01-0.004,0.031,0,0.031,0l0.014-0.014c0.004-0.006,0.012-0.012,0.018-0.016
		c0-0.002,0.021-0.023,0.028-0.031c0.005-0.004,0.011-0.012,0.017-0.016c0.021-0.02,0.008-0.006,0.016-0.016l3.43-3.432
		c0.024-0.02,0.01-0.008,0.016-0.014c0.005-0.004-0.002,0.006,0.017-0.016c0-0.002,0.007-0.008,0.015-0.016
		c0.004-0.004,0.01-0.01,0.017-0.016c0.001-0.002,0.011-0.01,0.015-0.018c0.004-0.002,0.016-0.014,0.016-0.014s-0.004-0.021,0-0.031
		c0.002-0.002,0.013-0.01,0.017-0.016c0.001-0.002,0.011-0.01,0.015-0.014s0.016-0.016,0.016-0.016c0.004-0.006,0-0.031,0-0.031
		c0.002-0.002,0.016-0.016,0.016-0.016c0.004-0.006,0.016-0.014,0.016-0.014c0-0.006-0.004-0.025,0-0.031
		c0,0,0.014-0.01,0.016-0.016c0.003-0.004,0.016-0.016,0.016-0.018c0,0-0.009-0.016,0-0.029c0.006-0.01,0.016-0.016,0.016-0.016
		c0.004-0.01-0.02-0.008-0.016-0.016c0.002-0.008,0.016-0.014,0.016-0.014c0.004-0.006,0.015-0.016,0.015-0.016
		s0.014-0.008,0.015-0.016c0-0.002-0.013-0.016-0.015-0.018c0,0,0.013-0.006,0.015-0.016c0,0,0.004-0.029,0-0.029
		c0,0,0.014-0.008,0.018-0.016c0.003-0.008-0.016-0.016-0.018-0.018c0-0.004,0.018-0.012,0.016-0.014s-0.014-0.014-0.016-0.016
		c0.006-0.004,0.012-0.01,0.016-0.018c0.002,0-0.002-0.02,0-0.027c0.002,0,0.002-0.02,0-0.031c0.002-0.02-0.016-0.014-0.016-0.016
		c0,0,0.018-0.014,0.016-0.016c0.002-0.008-0.014,0-0.016-0.016c0,0.02,0.014-0.006,0.016-0.016c0.002-0.008-0.014,0.02-0.016-0.016
		c0-0.002,0.018-0.014,0.016-0.016c0-0.006,0.002-0.029,0-0.031c-0.002,0-0.012-0.012-0.016-0.014
		c-0.001-0.002,0.018-0.016,0.014-0.018c0-0.002-0.012-0.012-0.015-0.016c0.001,0,0.019-0.012,0.015-0.016
		c0-0.002-0.012-0.012-0.015-0.014c0-0.004,0.019-0.014,0.015-0.016c0-0.002-0.015-0.016-0.015-0.016
		c-0.004-0.006-0.01-0.012-0.017-0.016c0.007-0.006,0.013-0.012,0.017-0.016c0,0-0.012-0.004-0.017-0.016
		c-0.006-0.016,0-0.031,0-0.031s-0.012-0.012-0.016-0.016c0,0-0.011-0.01-0.015-0.016c-0.001-0.002,0.019-0.014,0.015-0.018
		c0,0-0.008-0.008-0.015-0.014c-0.006-0.006-0.011-0.012-0.015-0.016c-0.004-0.002,0.015-0.016,0.015-0.016
		s-0.013-0.012-0.015-0.016c-0.004-0.002-0.018-0.016-0.018-0.016s-0.011-0.043-0.015-0.047c-0.006-0.006-0.015-0.012-0.015-0.016
		c-0.006-0.004-0.014-0.014-0.018-0.016v-0.031l0.001-0.002c-0.008-0.01-0.019-0.021-0.03-0.029l-0.016-0.016
		c-0.016-0.018-0.008-0.008-0.016-0.016s-0.016-0.016-0.016-0.016s-0.009-0.008-0.016-0.016s0.001,0-0.018-0.018
		c0.006,0.006-0.006-0.008-0.015-0.016c0.005,0.004,0.003,0.004-0.015-0.016l-3.044-3.043l3.045-3.045
		c0.013-0.012,0.017-0.016,0.017-0.016c0,0.002-0.006,0.006,0.016-0.016c0.007-0.008,0.007-0.008,0.015-0.016
		c0.009-0.008,0.017-0.014,0.017-0.014c0.004-0.006,0.012-0.014,0.016-0.018c0.002-0.002,0.016-0.014,0.016-0.016
		c0,0-0.009-0.016,0-0.031c0.004-0.002,0.016-0.014,0.016-0.014s0.031-0.021,0.031-0.031c0.002-0.004-0.005-0.023,0-0.031
		c-0.003-0.008,0.014-0.012,0.016-0.014c-0.002,0,0.016-0.047,0.016-0.047c0.005-0.004,0.016-0.016,0.016-0.016
		c0.004-0.004,0.01-0.01,0.016-0.016c0.002-0.002,0.014-0.045,0.017-0.047c0,0-0.018-0.008-0.017-0.014c0,0,0.014-0.004,0.017-0.016
		c0.005-0.016,0-0.031,0-0.031s0.011-0.012,0.015-0.016c0-0.01-0.016-0.012-0.015-0.016c0.003-0.002,0.015-0.014,0.015-0.016
		c0.004-0.006,0.017-0.016,0.017-0.016s0-0.025,0-0.031c0,0,0.001-0.025,0-0.029c0.001,0,0.001-0.029,0.001-0.029
		C31.951,20.373,31.97,20.373,31.968,20.365z"/>
	<polygon fill="#ED2526" points="31.091,27.658 27.415,23.98 31.089,20.307 27.658,16.877 23.984,20.551 20.312,16.877 
		16.882,20.307 20.554,23.98 16.88,27.658 20.309,31.088 23.984,27.41 27.662,31.088 	"/>
	
		<linearGradient id="SVGID_3_" gradientUnits="userSpaceOnUse" x1="299.2754" y1="-395.8223" x2="311.7734" y2="-395.8223" gradientTransform="matrix(1 0 0 -1 -281.54 -371.8398)">
		<stop  offset="0" style="stop-color:#F59699"/>
		<stop  offset="1" style="stop-color:#8F1A1D"/>
	</linearGradient>
	<polygon fill="url(#SVGID_3_)" points="30.233,27.658 26.558,23.98 30.231,20.307 27.658,17.734 23.984,21.408 20.312,17.734 
		17.738,20.307 21.411,23.98 17.735,27.658 20.309,30.23 23.984,26.553 27.662,30.23 	"/>
</g>
</svg>
