<?xml version="1.0" encoding="utf-8"?>
<!-- Generator: Adobe Illustrator 14.0.0, SVG Export Plug-In . SVG Version: 6.00 Build 43363)  -->
<!DOCTYPE svg PUBLIC "-//W3C//DTD SVG 1.1//EN" "http://www.w3.org/Graphics/SVG/1.1/DTD/svg11.dtd">
<svg version="1.1" id="Layer_1" xmlns="http://www.w3.org/2000/svg" xmlns:xlink="http://www.w3.org/1999/xlink" x="0px" y="0px"
	 width="32px" height="32px" viewBox="0 0 32 32" enable-background="new 0 0 32 32" xml:space="preserve">
<path id="path5004" fill="#010101" d="M4.75,11.231l-0.031,0.03c-0.004,0-0.022,0.001-0.031,0c-0.006,0.001-0.021,0-0.031,0
	s-0.063,0.031-0.063,0.031s-0.027,0-0.031,0c-0.008,0.001-0.031,0-0.031,0s0.004,0.03,0,0.031c-0.01,0-0.019,0-0.031,0
	c-0.014,0-0.031,0-0.031,0c-0.005,0,0.004,0.029,0,0.031c-0.01,0-0.031,0-0.031,0c-0.007,0.001-0.031,0-0.031,0
	s-0.01,0.023-0.031,0.031c-0.016,0.01-0.031,0-0.031,0c-0.001,0.01-0.001,0.021,0,0.031c-0.011-0.001-0.021-0.001-0.031,0
	c0,0-0.027,0-0.031,0c-0.006,0,0.002,0.028,0,0.03c-0.006,0-0.027,0-0.031,0s0,0.03,0,0.031c-0.006,0-0.027,0-0.031,0
	s0.002,0.03,0,0.03c-0.005,0-0.027,0-0.031,0c-0.002,0-0.024,0.024-0.031,0.031c-0.004,0,0.002,0.029,0,0.031
	c-0.037,0.033-0.024-0.01-0.031,0c-0.008,0.01-0.021,0.051,0,0.031c-0.017,0.015-0.023-0.01-0.031,0c-0.004,0,0.001,0.029,0,0.031
	c-0.002,0-0.014-0.021-0.031,0c-0.013,0.012-0.03,0.029-0.031,0.031c-0.008,0.01-0.03,0.029-0.031,0.03C4,11.707,4,11.716,4,11.727
	c-0.002,0-0.027,0-0.031,0s0.005,0.026,0,0.03c-0.002,0-0.027-0.01-0.031,0c-0.005,0.011,0,0.031,0,0.031
	c-0.004,0-0.031,0.031-0.031,0.031c-0.006,0.012,0,0.031,0,0.031c-0.002,0-0.029,0-0.031,0c-0.006,0.01,0,0.031,0,0.031
	s0,0.021,0,0.031c-0.002,0,0.006,0.019,0,0.03c-0.004,0.011-0.024-0.015-0.031,0c0,0,0.004,0.017,0,0.031
	c-0.008,0.022-0.031,0.03-0.031,0.03c0,0.001,0,0.024,0,0.031c-0.003,0.01,0,0.031,0,0.031c-0.004,0.01-0.027,0.024-0.031,0.031
	c-0.002,0,0.003,0.021,0,0.031c0,0,0,0.026,0,0.031c0,0-0.031,0.021-0.031,0.03c0,0,0,0.024,0,0.031c-0.001,0.01,0,0.028,0,0.03
	c-0.002,0.011,0,0.029,0,0.031c-0.004,0.015-0.031,0.031-0.031,0.031c0,0.001,0,0.025,0,0.031c0,0.01,0,0.027,0,0.031
	c0,0.013,0,0.023,0,0.031c0,0.015,0,0.028,0,0.03c-0.003,0.042,0,0.024,0,0.031c0,0.013-0.002-0.017,0,0.03v7
	c0,0.016-0.002-0.01,0,0.031c0,0.01,0,0.023,0,0.031c0,0.016,0,0.061,0,0.063c0,0.01,0,0.023,0,0.031v0.029
	c0,0,0.027,0.018,0.031,0.031c0.001,0.01,0,0.031,0,0.031s0,0.021,0,0.031c0.006,0.02,0.031,0.031,0.031,0.031s-0.006,0.023,0,0.031
	c0,0,0,0.02,0,0.031c0,0.01-0.002,0.018,0,0.031c0.004,0.01,0.027,0.023,0.031,0.029c0.004,0.012-0.003,0.027,0,0.031
	c0,0,0.023,0.049,0.031,0.063c0.008,0.016-0.002,0.029,0,0.031c0,0,0.025-0.01,0.031,0c0.005,0.01,0,0.031,0,0.031
	s-0.004,0.027,0,0.031c0.002,0,0.028,0,0.031,0c0.005,0.01-0.003,0.029,0,0.031c0.006,0.01,0.027,0,0.031,0
	c0.006,0.01-0.004,0.027,0,0.029c0.004,0.012,0,0.031,0,0.031s0.027,0.027,0.031,0.031c0.004,0-0.004,0.027,0,0.031
	c0.005,0.01,0.029,0,0.031,0c0.001,0,0.031,0.031,0.031,0.031c0.004,0.01-0.005,0.023,0,0.031c0.002,0-0.005,0.023,0,0.031
	c0.002,0,0.031,0,0.031,0l0.031,0.031l0.031,0.029c0,0-0.004,0.029,0,0.031c0.007,0,0.027,0,0.031,0
	c0.016,0.016,0.029,0.031,0.031,0.031c0.003,0,0.029,0,0.031,0c0,0.002-0.004,0.027,0,0.031c0.007,0.01,0.03,0,0.031,0
	c0.004,0,0.03,0.031,0.031,0.031c0,0,0.021,0,0.031,0s0.02-0.01,0.031,0c0.01,0.01,0.031,0.031,0.031,0.031s0.01,0.023,0.031,0.031
	c0.014,0.01,0.031,0,0.031,0c0.009,0.01,0,0.031,0,0.031c0.004,0,0.059,0.029,0.063,0.029c0.01,0.002,0.021,0.002,0.031,0
	c0.002,0,0.031,0,0.031,0c0.007,0,0.023,0.029,0.031,0.031c0.01,0,0.031,0,0.031,0c0.011,0.002,0.027,0,0.031,0
	c0.011,0,0.025,0.031,0.031,0.031c0.01,0.01,0.063,0,0.063,0s0.021,0,0.031,0c0.022,0.01,0.031,0.031,0.031,0.031s0.025,0,0.031,0
	c0.008,0,0.023,0,0.031,0c0.016,0,0.029,0,0.031,0c0.016,0,0.018,0,0.031,0s0.037,0,0.031,0c0,0,0.006,0,0.031,0h22
	c0.023,0,0.031,0,0.031,0c-0.002,0-0.012,0,0.031,0c0.014,0,0.014,0,0.031,0c0.016,0,0.029,0,0.031,0c0.008,0,0.023,0,0.031,0
	c0.004,0,0.029,0,0.031,0c0,0,0.008-0.025,0.031-0.031c0.008,0,0.031,0,0.031,0s0.053,0.01,0.063,0c0.006,0,0.02-0.029,0.031-0.031
	c0.006-0.01,0.027,0,0.031,0c-0.002,0,0.063-0.031,0.063-0.031c0.01,0,0.031,0,0.031,0c0.01,0.002,0.02,0.002,0.031,0
	c0.004,0,0.059-0.029,0.063-0.029c0,0-0.01-0.027,0-0.031c0,0,0.018,0.01,0.031,0c0.02-0.01,0.031-0.031,0.031-0.031
	s0.023,0,0.031,0c0.008-0.01-0.004-0.029,0-0.031c0.006,0,0.029,0,0.031,0c0.01,0,0.031,0,0.031,0s0.025-0.027,0.031-0.031
	c0,0,0.027-0.027,0.031-0.031c0.002,0,0.031-0.031,0.031-0.031c0.006-0.01,0.025,0.01,0.031,0c0.002,0,0.023,0,0.031,0
	c0.004,0,0-0.031,0-0.031l0.031-0.029c0-0.002,0.031-0.031,0.031-0.031s0.029,0,0.031,0c0.004-0.01-0.002-0.029,0-0.031
	c0.006-0.01,0-0.031,0-0.031h0.031c0.008-0.01-0.002-0.031,0-0.031s0.031-0.031,0.031-0.031c0.004,0,0.031-0.031,0.031-0.031
	s-0.004-0.021,0-0.031s0-0.031,0-0.029c0.006-0.016,0.031-0.031,0.031-0.031s0.023-0.012,0.031-0.031
	c0.002-0.016-0.002-0.025,0-0.031c0.004-0.01,0.031,0,0.031,0s-0.008-0.016,0-0.031s0.029-0.061,0.031-0.063c0,0-0.004-0.02,0-0.031
	c0.004-0.01,0.027-0.023,0.031-0.029c0-0.016,0-0.025,0-0.031c0.002-0.01,0-0.031,0-0.031c0.004-0.01,0-0.031,0-0.031h0.031
	c0.002-0.01-0.004-0.018,0-0.031c0,0-0.004-0.021,0-0.031c0-0.01,0-0.023,0-0.031c0.004-0.014,0.031-0.031,0.031-0.031
	s0-0.025,0-0.029c0-0.012,0-0.025,0-0.031c0,0,0-0.047,0-0.063c0-0.01,0-0.025,0-0.031c0-0.043,0-0.016,0-0.031v-7
	c0-0.018,0,0.013,0-0.03c0-0.011,0-0.024,0-0.031c0-0.015,0-0.062,0-0.063c0-0.01,0-0.023,0-0.03v-0.031h-0.031c0,0,0-0.024,0-0.03
	c0-0.011,0-0.023,0-0.031c0,0,0.004-0.019,0-0.031c-0.002-0.01,0-0.031,0-0.031c-0.006-0.01-0.031,0-0.031,0s0.004-0.023,0-0.031
	c0,0,0.002-0.022,0-0.031c0,0.001-0.031-0.063-0.031-0.062c-0.004-0.011,0-0.03,0-0.03c-0.002,0-0.057-0.146-0.031-0.095h-0.031
	c0,0,0.002-0.024,0-0.03c0,0-0.023-0.02-0.031-0.031c0,0,0.004-0.024,0-0.031c-0.012-0.001-0.021-0.001-0.031,0
	c-0.006-0.01,0.004-0.028,0-0.031v-0.031c0,0,0.004-0.025,0-0.031c-0.006-0.01-0.029,0-0.031,0c-0.006-0.01,0.004-0.026,0-0.03
	c-0.004,0-0.031,0-0.031,0c-0.002,0,0-0.028,0-0.031c-0.002,0-0.031,0-0.031,0s0.006-0.022,0-0.03c-0.002,0,0.004-0.024,0-0.031
	c-0.002,0-0.031,0-0.031,0l-0.031-0.031l-0.031-0.031c0,0,0.004-0.029,0-0.031c-0.008,0-0.029,0-0.031,0c-0.01,0-0.023,0-0.031,0
	c-0.004,0,0.002-0.029,0-0.031c-0.004,0-0.027,0-0.031,0c0,0.002,0.004-0.025,0-0.03c-0.008-0.011-0.031,0-0.031,0
	c-0.006,0-0.031-0.031-0.031-0.031s-0.021,0-0.031,0c-0.002,0-0.025,0-0.031,0c-0.002,0,0.004-0.026,0-0.03
	c-0.004,0-0.025,0.01-0.031,0c-0.004,0-0.023-0.024-0.031-0.031c0,0-0.021,0.01-0.031,0s0-0.031,0-0.031
	c-0.002-0.001-0.018,0.01-0.031,0c-0.008,0-0.025-0.028-0.031-0.031c0,0-0.02,0-0.031,0s-0.023,0-0.031,0
	c-0.004,0,0.004-0.029,0-0.031c-0.002,0-0.025,0.001-0.031,0c-0.016,0-0.025,0-0.031,0c0,0-0.023,0-0.031,0s-0.031,0-0.031,0
	s0.008-0.026,0-0.031c0,0.001-0.023,0.002-0.031,0l-0.094-0.03c-0.002-0.001-0.049,0-0.063,0c0,0-0.037,0-0.031,0
	c-0.002,0-0.018,0-0.031,0c-0.012-0.001-0.021-0.001-0.031,0h-0.031H5.032c-0.037,0-0.037-0.001-0.031,0c-0.016,0-0.039,0-0.031,0
	c-0.033-0.001-0.018,0-0.031,0c-0.016,0-0.031,0-0.031,0s-0.018,0-0.031,0c-0.016,0,0.002-0.001-0.031,0c-0.002,0-0.03,0-0.031,0
	c-0.021-0.003-0.042-0.003-0.063,0V11.231z"/>
<rect id="rect4855" x="5" y="12.511" fill="#ED2224" width="22" height="7"/>
<linearGradient id="path4903_1_" gradientUnits="userSpaceOnUse" x1="-8.3203" y1="-1210.2373" x2="11.9302" y2="-1210.2373" gradientTransform="matrix(1 0 0 -1 14.1958 -1194.2256)">
	<stop  offset="0" style="stop-color:#F69799"/>
	<stop  offset="1" style="stop-color:#8F191C"/>
</linearGradient>
<path id="path4903" fill="url(#path4903_1_)" d="M5.875,13.386v5.25h20.25v-5.25H5.875z"/>
</svg>
