<?xml version="1.0" encoding="utf-8"?>
<!-- Generator: Adobe Illustrator 15.0.0, SVG Export Plug-In . SVG Version: 6.00 Build 0)  -->
<!DOCTYPE svg PUBLIC "-//W3C//DTD SVG 1.1//EN" "http://www.w3.org/Graphics/SVG/1.1/DTD/svg11.dtd">
<svg version="1.1"
	 id="svg2" xmlns:dc="http://purl.org/dc/elements/1.1/" xmlns:cc="http://creativecommons.org/ns#" xmlns:rdf="http://www.w3.org/1999/02/22-rdf-syntax-ns#" xmlns:svg="http://www.w3.org/2000/svg" xmlns:sodipodi="http://sodipodi.sourceforge.net/DTD/sodipodi-0.dtd" xmlns:inkscape="http://www.inkscape.org/namespaces/inkscape" inkscape:output_extension="org.inkscape.output.svg.inkscape" sodipodi:docname="domain.svg" inkscape:version="0.46" sodipodi:docbase="C:\Radix\dev\trunk\org.radixware\kernel\designer\src\common.resources\src\org\radixware\kernel\designer\resources\icons\ads" sodipodi:version="0.32"
	 xmlns="http://www.w3.org/2000/svg" xmlns:xlink="http://www.w3.org/1999/xlink" x="0px" y="0px" width="32px" height="32px"
	 viewBox="0 0 32 32" enable-background="new 0 0 32 32" xml:space="preserve">
<defs>
	
	
		<inkscape:perspective  id="perspective28" sodipodi:type="inkscape:persp3d" inkscape:vp_y="0 : 1000 : 0" inkscape:vp_x="0 : 10 : 1" inkscape:vp_z="20 : 10 : 1" inkscape:persp3d-origin="10 : 6.6666667 : 1">
		</inkscape:perspective>
	
		<inkscape:perspective  id="perspective5149" sodipodi:type="inkscape:persp3d" inkscape:vp_y="0 : 1000 : 0" inkscape:vp_x="0 : 16 : 1" inkscape:vp_z="32 : 16 : 1" inkscape:persp3d-origin="16 : 10.666667 : 1">
		</inkscape:perspective>
	
		<inkscape:perspective  id="perspective9105" sodipodi:type="inkscape:persp3d" inkscape:vp_y="0 : 1000 : 0" inkscape:vp_x="0 : 16 : 1" inkscape:vp_z="32 : 16 : 1" inkscape:persp3d-origin="16 : 10.666667 : 1">
		</inkscape:perspective>
</defs>
<sodipodi:namedview  width="20px" height="20px" id="base" inkscape:cy="16.51908" inkscape:cx="13.098775" inkscape:zoom="20.4" guidetolerance="10" showgrid="true" gridtolerance="10000" objecttolerance="10" borderopacity="1.0" bordercolor="#666666" pagecolor="#ffffff" inkscape:window-y="25" inkscape:window-x="0" inkscape:window-height="977" inkscape:window-width="1679" inkscape:pageshadow="2" inkscape:pageopacity="0.0" inkscape:current-layer="layer1" inkscape:document-units="px">
	</sodipodi:namedview>
<g>
	<path id="path4993_1_" fill="#020202" d="M7.042,32C5.364,32,4,30.345,4,28.312V10.615c0-0.966,0.304-1.879,0.858-2.572
		c0.577-0.72,1.353-1.118,2.187-1.118h21.916c1.678,0,3.039,1.654,3.039,3.69v17.696C32,30.345,30.639,32,28.961,32H7.042z"/>
	<path id="rect26074_1_" fill="#FFFFFF" d="M7.042,7.955h21.916c1.177,0,2.125,1.186,2.125,2.661v17.696
		c0,1.474-0.948,2.656-2.125,2.656H7.042c-1.179,0-2.127-1.183-2.127-2.656V10.615C4.915,9.144,5.863,7.955,7.042,7.955z"/>
	
		<linearGradient id="SVGID_1_" gradientUnits="userSpaceOnUse" x1="309.9609" y1="1121.9912" x2="289.0558" y2="1107.6292" gradientTransform="matrix(1 0 0 1 -279.0801 -1093.6797)">
		<stop  offset="0" style="stop-color:#000000;stop-opacity:0.21"/>
		<stop  offset="1" style="stop-color:#000000;stop-opacity:0"/>
	</linearGradient>
	<path fill="url(#SVGID_1_)" d="M7.042,29.938c-0.668,0-1.211-0.73-1.211-1.627V10.615c0-0.899,0.543-1.63,1.211-1.63h21.916
		c0.667,0,1.208,0.73,1.208,1.63v17.696c0,0.896-0.543,1.627-1.208,1.627H7.042z"/>
</g>
<path fill="#FFFFFF" d="M29,6.93c-0.014,0-0.025-0.005-0.039-0.005H7.045c-0.834,0-1.61,0.398-2.187,1.118
	C4.304,8.736,4,9.649,4,10.615v15.46h20.961c2.228,0,4.039-2.104,4.039-4.688V6.93z"/>
<g>
	<g>
		<path id="path4993" fill="#020202" d="M3.042,25.075C1.364,25.075,0,23.42,0,21.387V3.69c0-0.966,0.304-1.879,0.858-2.572
			C1.435,0.398,2.211,0,3.045,0h21.916C26.639,0,28,1.654,28,3.69v17.696c0,2.033-1.361,3.688-3.039,3.688H3.042z"/>
		<path id="rect26074" fill="#FFFFFF" d="M3.042,1.03h21.916c1.177,0,2.125,1.186,2.125,2.661v17.696
			c0,1.474-0.948,2.656-2.125,2.656H3.042c-1.179,0-2.127-1.183-2.127-2.656V3.69C0.915,2.219,1.863,1.03,3.042,1.03z"/>
		
			<linearGradient id="SVGID_2_" gradientUnits="userSpaceOnUse" x1="305.9619" y1="1115.0664" x2="285.0562" y2="1100.7039" gradientTransform="matrix(1 0 0 1 -279.0801 -1093.6797)">
			<stop  offset="0" style="stop-color:#000000;stop-opacity:0.21"/>
			<stop  offset="1" style="stop-color:#000000;stop-opacity:0"/>
		</linearGradient>
		<path fill="url(#SVGID_2_)" d="M3.042,23.014c-0.668,0-1.211-0.73-1.211-1.627V3.69c0-0.899,0.543-1.63,1.211-1.63h21.916
			c0.667,0,1.208,0.73,1.208,1.63v17.696c0,0.896-0.543,1.627-1.208,1.627H3.042z"/>
	</g>
	<g>
		<path id="path6086_5_" fill="#231F20" d="M9.637,13.654c-0.08,0-0.16-0.014-0.234-0.041l-5.097-1.81
			c-0.277-0.098-0.464-0.362-0.464-0.656V4.548c0-0.357,0.271-0.652,0.617-0.691l4.946-1.754c0.075-0.027,0.152-0.04,0.232-0.04
			c0.079,0,0.16,0.015,0.232,0.04l5.006,1.775c0.305,0.082,0.558,0.351,0.558,0.67v6.599c0,0.295-0.187,0.559-0.465,0.656l-5.1,1.81
			C9.794,13.642,9.716,13.654,9.637,13.654L9.637,13.654z"/>
		<polygon id="polygon5202_10_" fill="#AA3D25" points="4.546,4.548 9.644,6.358 9.644,12.957 4.546,11.147 		"/>
		<polygon id="polygon5204_10_" fill="#E9B6AE" points="14.741,4.548 9.644,6.358 9.644,12.957 14.741,11.147 		"/>
		<polygon id="polygon5206_10_" fill="#DF8078" points="14.689,4.548 9.644,2.759 4.599,4.548 4.546,4.548 4.569,4.558 4.546,4.569 
			4.599,4.569 9.644,6.358 14.689,4.569 14.741,4.569 14.717,4.558 14.741,4.548 		"/>
		
			<linearGradient id="polygon6538_1_" gradientUnits="userSpaceOnUse" x1="1570.7695" y1="-2131.23" x2="1576.9016" y2="-2125.1543" gradientTransform="matrix(0.5772 0 0 -0.5772 -902.3153 -1218.6886)">
			<stop  offset="0" style="stop-color:#3A1813"/>
			<stop  offset="1" style="stop-color:#AA3D25;stop-opacity:0"/>
		</linearGradient>
		<polygon id="polygon6538_8_" fill="url(#polygon6538_1_)" points="4.739,4.819 9.464,6.496 9.464,12.611 4.739,10.936 		"/>
		
			<linearGradient id="polygon6548_1_" gradientUnits="userSpaceOnUse" x1="1650.1309" y1="-2220.021" x2="1643.1615" y2="-2212.5176" gradientTransform="matrix(0.5627 0 0 -0.5627 -913.4598 -1237.2736)">
			<stop  offset="0" style="stop-color:#FDF0ED"/>
			<stop  offset="1" style="stop-color:#E9B6AE;stop-opacity:0"/>
		</linearGradient>
		<polygon id="polygon6548_8_" fill="url(#polygon6548_1_)" points="14.399,4.933 9.791,6.566 9.791,12.53 14.399,10.896 		"/>
		
			<linearGradient id="path6572_1_" gradientUnits="userSpaceOnUse" x1="-3892.8882" y1="3425.4736" x2="-3900.8218" y2="3425.4937" gradientTransform="matrix(0 -0.6226 0.6226 0 -2123.1074 -2416.8923)">
			<stop  offset="0" style="stop-color:#FFFFFF"/>
			<stop  offset="1" style="stop-color:#FFFFFF;stop-opacity:0"/>
		</linearGradient>
		<path id="path6572_10_" fill="url(#path6572_1_)" d="M9.301,6.287l0.276,6.547H9.572l0.309-6.638L9.301,6.287L9.301,6.287z"/>
		
			<linearGradient id="path6582_1_" gradientUnits="userSpaceOnUse" x1="-1730.3877" y1="-2416.7344" x2="-1737.1476" y2="-2416.7312" gradientTransform="matrix(-0.5857 0.2112 -0.2112 -0.5857 -1513.9835 -1043.7559)">
			<stop  offset="0" style="stop-color:#FFFFFF"/>
			<stop  offset="1" style="stop-color:#FFFFFF;stop-opacity:0"/>
		</linearGradient>
		<path id="path6582_14_" fill="url(#path6582_1_)" d="M9.662,6.669l5.081-2.121L9.377,6.156L9.662,6.669z"/>
		
			<linearGradient id="path6586_1_" gradientUnits="userSpaceOnUse" x1="2336.2734" y1="-950.29" x2="2329.7686" y2="-950.2841" gradientTransform="matrix(0.5857 0.2112 0.2112 -0.5857 -1158.4844 -1043.7861)">
			<stop  offset="0" style="stop-color:#FFFFFF"/>
			<stop  offset="1" style="stop-color:#FFFFFF;stop-opacity:0"/>
		</linearGradient>
		<path id="path6586_10_" fill="url(#path6586_1_)" d="M9.502,6.647L4.547,4.548l5.24,1.587L9.502,6.647z"/>
		<circle fill="#231F20" cx="19.549" cy="11.179" r="5.581"/>
		
			<radialGradient id="SVGID_3_" cx="299.8486" cy="1101.8525" r="5.83" gradientTransform="matrix(1 0 0 1 -279.0801 -1092.6797)" gradientUnits="userSpaceOnUse">
			<stop  offset="0.0061" style="stop-color:#FFF3E2"/>
			<stop  offset="0.5394" style="stop-color:#FAA81C"/>
			<stop  offset="1" style="stop-color:#A46929"/>
		</radialGradient>
		<path fill="url(#SVGID_3_)" d="M19.549,16.063c-2.693,0-4.882-2.192-4.882-4.885c0-2.691,2.188-4.883,4.882-4.883
			s4.884,2.191,4.884,4.883C24.433,13.871,22.242,16.063,19.549,16.063L19.549,16.063z"/>
		<path fill="#231F20" d="M13.169,23.009c-0.134,0-0.268-0.038-0.384-0.115c-0.196-0.129-0.313-0.347-0.313-0.582V10.508
			c0-0.296,0.188-0.561,0.469-0.659c0.074-0.026,0.152-0.04,0.229-0.04c0.209,0,0.412,0.094,0.546,0.264l6.974,8.789
			c0.134,0.17,0.184,0.392,0.129,0.604c-0.052,0.208-0.199,0.383-0.4,0.469l-6.972,3.015C13.357,22.988,13.264,23.009,13.169,23.009
			L13.169,23.009z"/>
		<path fill="#231F20" d="M13.181,23.009c-0.095,0-0.188-0.021-0.276-0.055L5.65,19.811c-0.202-0.086-0.35-0.262-0.402-0.478
			c-0.05-0.215,0.002-0.441,0.146-0.606l7.252-8.665c0.135-0.162,0.333-0.251,0.535-0.251c0.079,0,0.161,0.015,0.238,0.042
			c0.276,0.101,0.46,0.363,0.46,0.656v11.803c0,0.235-0.118,0.457-0.314,0.582C13.449,22.971,13.314,23.009,13.181,23.009
			L13.181,23.009z"/>
		<polygon fill="#03AAD6" points="13.181,10.508 5.928,19.173 13.181,22.312 		"/>
		
			<linearGradient id="SVGID_4_" gradientUnits="userSpaceOnUse" x1="292.9375" y1="1109.3623" x2="286.708" y2="1109.3542" gradientTransform="matrix(1 0 0 1 -279.0801 -1092.6797)">
			<stop  offset="0" style="stop-color:#AECFD9;stop-opacity:0"/>
			<stop  offset="1" style="stop-color:#0C7C9E"/>
		</linearGradient>
		<polygon fill="url(#SVGID_4_)" points="6.532,19.055 12.757,11.614 12.757,21.75 		"/>
		<polygon fill="#03AAD6" points="13.169,10.508 20.144,19.295 13.169,22.312 		"/>
		
			<linearGradient id="SVGID_5_" gradientUnits="userSpaceOnUse" x1="298.2725" y1="1109.2861" x2="290.4281" y2="1109.4264" gradientTransform="matrix(1 0 0 1 -279.0801 -1092.6797)">
			<stop  offset="0" style="stop-color:#AECFD9"/>
			<stop  offset="1" style="stop-color:#0C7C9E;stop-opacity:0"/>
		</linearGradient>
		<polygon fill="url(#SVGID_5_)" points="13.591,11.663 19.549,19.175 13.591,21.75 		"/>
		
			<linearGradient id="path6582_2_" gradientUnits="userSpaceOnUse" x1="171.7783" y1="-1180.0605" x2="158.3474" y2="-1180.0542" gradientTransform="matrix(0.2112 0.5857 -0.5857 0.2112 -712.7519 169.3995)">
			<stop  offset="0" style="stop-color:#FFFFFF"/>
			<stop  offset="1" style="stop-color:#FFFFFF;stop-opacity:0"/>
		</linearGradient>
		<path id="path6582_13_" fill="url(#path6582_2_)" d="M13.403,22.239l-0.223-11.731l-0.167,11.731H13.403z"/>
	</g>
</g>
</svg>
