<?xml version="1.0" encoding="utf-8"?>
<!-- Generator: Adobe Illustrator 14.0.0, SVG Export Plug-In . SVG Version: 6.00 Build 43363)  -->
<!DOCTYPE svg PUBLIC "-//W3C//DTD SVG 1.1//EN" "http://www.w3.org/Graphics/SVG/1.1/DTD/svg11.dtd">
<svg version="1.1" id="Layer_1" xmlns="http://www.w3.org/2000/svg" xmlns:xlink="http://www.w3.org/1999/xlink" x="0px" y="0px"
	 width="32px" height="32px" viewBox="0 0 32 32" enable-background="new 0 0 32 32" xml:space="preserve">
<path id="path4993" fill="#020202" d="M4.034,28.17c-1.832,0-3.322-1.605-3.322-3.58V7.412c0-0.938,0.332-1.824,0.937-2.496
	C2.279,4.217,3.126,3.83,4.037,3.83h23.934c1.832,0,3.318,1.606,3.318,3.582V24.59c0,1.975-1.486,3.58-3.318,3.58H4.034z"/>
<path id="rect26074" fill="#FFFFFF" d="M4.034,4.83h23.933c1.285,0,2.32,1.151,2.32,2.582V24.59c0,1.43-1.035,2.58-2.32,2.58H4.034
	c-1.287,0-2.322-1.15-2.322-2.58V7.412C1.711,5.984,2.747,4.83,4.034,4.83z"/>
<linearGradient id="SVGID_1_" gradientUnits="userSpaceOnUse" x1="311.0371" y1="-398.1128" x2="289.1324" y2="-383.064" gradientTransform="matrix(1 0 0 -1 -281.54 -372.8398)">
	<stop  offset="0" style="stop-color:#000000;stop-opacity:0.21"/>
	<stop  offset="1" style="stop-color:#000000;stop-opacity:0"/>
</linearGradient>
<path fill="url(#SVGID_1_)" d="M4.034,26.17c-0.729,0-1.322-0.709-1.322-1.58V7.412c0-0.873,0.593-1.582,1.322-1.582h23.933
	c0.729,0,1.32,0.709,1.32,1.582V24.59c0,0.871-0.594,1.58-1.32,1.58H4.034z"/>
<linearGradient id="path26098_1_" gradientUnits="userSpaceOnUse" x1="1603.832" y1="-3118.6797" x2="1603.832" y2="-3115.9573" gradientTransform="matrix(1 0 0 -1 -1587.834 -3110.5039)">
	<stop  offset="0" style="stop-color:#295EAA"/>
	<stop  offset="1" style="stop-color:#B2D5F1"/>
</linearGradient>
<path id="path26098" fill="url(#path26098_1_)" d="M4.047,4.83c-1.286,0-2.346,1.06-2.346,2.346v1h28.595v-1
	c0-1.286-1.062-2.346-2.346-2.346H4.047z"/>
<path d="M1,31.42c-0.552,0-1-0.447-1-1V8.817c0-0.126,0.024-0.252,0.071-0.37L2.433,2.51l0.69-1.38
	c0.17-0.337,0.515-0.55,0.893-0.55H4.33c0.378,0,0.724,0.213,0.894,0.552l0.652,1.3l2.356,6.022C8.277,8.57,8.301,8.693,8.301,8.817
	V30.42c0,0.553-0.448,1-1,1H1z"/>
<linearGradient id="SVGID_2_" gradientUnits="userSpaceOnUse" x1="282.54" y1="-392.458" x2="288.8408" y2="-392.458" gradientTransform="matrix(1 0 0 -1 -281.54 -372.8398)">
	<stop  offset="0" style="stop-color:#B2D78E"/>
	<stop  offset="1" style="stop-color:#1F9045"/>
</linearGradient>
<rect x="1" y="8.817" fill="url(#SVGID_2_)" width="6.301" height="21.603"/>
<rect x="2.08" y="9.897" fill="#6BBE45" width="4.141" height="19.442"/>
<linearGradient id="SVGID_3_" gradientUnits="userSpaceOnUse" x1="288.9307" y1="-378.6865" x2="282.6299" y2="-378.6865" gradientTransform="matrix(1 0 0 -1 -281.54 -372.8398)">
	<stop  offset="0" style="stop-color:#A56629"/>
	<stop  offset="0.5394" style="stop-color:#FAA820"/>
	<stop  offset="1" style="stop-color:#FFF3E0"/>
</linearGradient>
<polygon fill="url(#SVGID_3_)" points="4.982,2.879 3.362,2.879 1,8.817 7.301,8.817 "/>
<polygon fill="#FAA820" points="2.592,7.737 4.096,3.959 4.245,3.959 5.72,7.737 "/>
<polygon points="4.982,2.879 3.362,2.879 4.017,1.58 4.331,1.58 "/>
<linearGradient id="SVGID_4_" gradientUnits="userSpaceOnUse" x1="282.4492" y1="-401.6348" x2="288.75" y2="-401.6348" gradientTransform="matrix(1 0 0 -1 -281.54 -372.8398)">
	<stop  offset="0" style="stop-color:#F69799"/>
	<stop  offset="1" style="stop-color:#8F191C"/>
</linearGradient>
<rect x="1" y="27.17" fill="url(#SVGID_4_)" width="6.301" height="3.25"/>
</svg>
