<?xml version="1.0" encoding="utf-8"?>
<!-- Generator: Adobe Illustrator 14.0.0, SVG Export Plug-In . SVG Version: 6.00 Build 43363)  -->
<!DOCTYPE svg PUBLIC "-//W3C//DTD SVG 1.1//EN" "http://www.w3.org/Graphics/SVG/1.1/DTD/svg11.dtd">
<svg version="1.1" id="Layer_1" xmlns="http://www.w3.org/2000/svg" xmlns:xlink="http://www.w3.org/1999/xlink" x="0px" y="0px"
	 width="32px" height="32px" viewBox="0 0 32 32" enable-background="new 0 0 32 32" xml:space="preserve">
<g id="g20887-2_2_" transform="translate(-5.5755111,29.767864)">
	<g>
		<g nodetypes="cccccccc">
			<path d="M17.105-1.716c-0.141,0-0.282-0.029-0.415-0.09c-0.356-0.163-0.585-0.519-0.585-0.91V-7.09H7.04c-0.552,0-1-0.447-1-1
				v-11.447c0-0.552,0.448-1,1-1h9.065v-4.283c0-0.391,0.228-0.747,0.584-0.909c0.133-0.061,0.275-0.091,0.416-0.091
				c0.235,0,0.469,0.083,0.654,0.244l12.756,11.025c0.219,0.189,0.346,0.465,0.346,0.755c0,0.29-0.125,0.566-0.345,0.756
				L17.761-1.961C17.576-1.8,17.342-1.716,17.105-1.716L17.105-1.716z"/>
		</g>
	</g>
</g>
<g id="g20887-2_1_" transform="translate(-5.5755111,29.767864)">
	<path id="path4348-2-1_1_" nodetypes="cccccccc" fill="#00ADDC" d="M17.105-2.716l12.755-11.079L17.105-24.82v5.283H7.04
		V-8.09h10.065V-2.716z"/>
</g>
<g id="g20887-2_3_" transform="translate(-5.5755111,29.767864)">
	<g>
		<g nodetypes="cccccccc">
			<linearGradient id="SVGID_1_" gradientUnits="userSpaceOnUse" x1="18.1868" y1="-5.0374" x2="18.1868" y2="-21.8313">
				<stop  offset="0" style="stop-color:#B2D3DC"/>
				<stop  offset="1" style="stop-color:#027C9E"/>
			</linearGradient>
			<polygon fill="url(#SVGID_1_)" points="18.105,-9.09 8.04,-9.09 8.04,-18.537 18.105,-18.537 18.105,-22.634 28.333,-13.793 
				18.105,-4.909 			"/>
		</g>
	</g>
</g>
<g>
	<path d="M27.975,28.052c-0.553,0-1-0.447-1-1V4.948c0-0.552,0.447-1,1-1h2.561c0.553,0,1,0.448,1,1v22.104c0,0.553-0.447,1-1,1
		H27.975z"/>
</g>
<rect x="27.975" y="4.948" fill="#00ADDC" width="2.561" height="22.104"/>
<g>
	<linearGradient id="SVGID_2_" gradientUnits="userSpaceOnUse" x1="29.2549" y1="26.0518" x2="29.2549" y2="6.0074">
		<stop  offset="0" style="stop-color:#B2D3DC"/>
		<stop  offset="1" style="stop-color:#027C9E"/>
	</linearGradient>
	<rect x="28.975" y="5.948" fill="url(#SVGID_2_)" width="0.561" height="20.104"/>
</g>
</svg>
