<?xml version="1.0" encoding="UTF-8" standalone="no"?>
<!-- Created with Inkscape (http://www.inkscape.org/) -->
<svg
   xmlns:dc="http://purl.org/dc/elements/1.1/"
   xmlns:cc="http://web.resource.org/cc/"
   xmlns:rdf="http://www.w3.org/1999/02/22-rdf-syntax-ns#"
   xmlns:svg="http://www.w3.org/2000/svg"
   xmlns="http://www.w3.org/2000/svg"
   xmlns:xlink="http://www.w3.org/1999/xlink"
   xmlns:sodipodi="http://inkscape.sourceforge.net/DTD/sodipodi-0.dtd"
   xmlns:inkscape="http://www.inkscape.org/namespaces/inkscape"
   width="20"
   height="20"
   id="svg2"
   sodipodi:version="0.32"
   inkscape:version="0.43"
   sodipodi:docbase="C:\DOCUME~1\akrylov.MGN\LOCALS~1\Temp"
   sodipodi:docname="opInkscape4.svg"
   version="1.0">
  <defs
     id="defs4">
    <linearGradient
       id="linearGradient4808">
      <stop
         style="stop-color:#000000;stop-opacity:0.54148471;"
         offset="0"
         id="stop4810" />
      <stop
         style="stop-color:#000000;stop-opacity:0;"
         offset="1"
         id="stop4812" />
    </linearGradient>
    <linearGradient
       inkscape:collect="always"
       xlink:href="#linearGradient4808"
       id="linearGradient4814"
       x1="19.182556"
       y1="19.213057"
       x2="-2.446296"
       y2="-0.78694451"
       gradientUnits="userSpaceOnUse" />
  </defs>
  <sodipodi:namedview
     id="base"
     pagecolor="#ffffff"
     bordercolor="#000000"
     borderopacity="1.0"
     inkscape:pageopacity="0.0"
     inkscape:pageshadow="2"
     inkscape:zoom="27"
     inkscape:cx="10"
     inkscape:cy="10"
     inkscape:document-units="px"
     inkscape:current-layer="layer1"
     inkscape:window-width="1080"
     inkscape:window-height="738"
     inkscape:window-x="100"
     inkscape:window-y="%window-y"
     showgrid="true" />
  <metadata
     id="metadata7">
    <rdf:RDF>
      <cc:Work
         rdf:about="">
        <dc:format>image/svg+xml</dc:format>
        <dc:type
           rdf:resource="http://purl.org/dc/dcmitype/StillImage" />
      </cc:Work>
    </rdf:RDF>
  </metadata>
  <g
     inkscape:label="Layer 1"
     inkscape:groupmode="layer"
     id="layer1">
    <path
       style="fill:url(#linearGradient4814);fill-opacity:1.0;fill-rule:evenodd;stroke:none;stroke-width:0.30000007;stroke-linecap:round;stroke-linejoin:round;stroke-miterlimit:4;stroke-dasharray:none;stroke-opacity:1"
       d="M 9.3293563,2.5423035 C 9.2767493,2.5482285 9.2100023,2.5674685 9.1575833,2.5709315 C 4.6722492,2.8673015 1.2745621,6.7315175 1.5709316,11.216852 C 1.8673012,15.702186 5.7315172,19.128501 10.216852,18.832132 C 14.702186,18.535762 18.128502,14.642918 17.832132,10.157583 L 17.803503,10.128954 C 17.496137,5.7619845 13.811662,2.4204325 9.4725013,2.5423035 C 9.4204313,2.5437655 9.3819643,2.5363775 9.3293563,2.5423035 z M 9.4725013,5.2906755 C 9.5123443,5.2843385 9.5523033,5.2916495 9.5870163,5.2906755 C 12.479791,5.2094285 14.936107,7.4466725 15.141018,10.357985 C 15.21758,11.516697 14.926443,12.612225 14.368038,13.53579 L 6.9245312,6.0922835 L 6.9245312,6.0636545 C 7.6366112,5.6347655 8.4702632,5.3779605 9.3579853,5.3193035 C 9.3929313,5.3169945 9.4326583,5.2970115 9.4725013,5.2906755 z M 5.0922832,7.9245315 L 12.53579,15.368038 C 12.531115,15.370874 12.540476,15.393845 12.53579,15.396667 C 11.823711,15.825557 10.990058,16.082361 10.102336,16.141018 C 7.1121132,16.338597 4.5168832,14.092559 4.3193032,11.102336 C 4.2427412,9.9436258 4.5338782,8.8480955 5.0922832,7.9245315 z "
       id="path3933" />
    <path
       style="fill:#ff1f00;fill-opacity:1;fill-rule:evenodd;stroke:#000000;stroke-width:0.30000007;stroke-linecap:round;stroke-linejoin:round;stroke-miterlimit:4;stroke-dasharray:none;stroke-opacity:1"
       d="M 8.3293568,0.54230255 C 8.2767496,0.54822825 8.2100025,0.56746785 8.1575835,0.57093145 C 3.6722489,0.86730085 0.2745622,4.7315171 0.57093174,9.2168516 C 0.86730114,13.702186 4.7315171,17.128501 9.2168519,16.832132 C 13.702186,16.535762 17.128502,12.642918 16.832132,8.1575833 L 16.803503,8.1289544 C 16.496137,3.7619838 12.811662,0.42043176 8.4725012,0.54230255 C 8.4204312,0.54376505 8.381964,0.53637685 8.3293568,0.54230255 z M 8.4725012,3.2906745 C 8.5123441,3.2843383 8.5523034,3.2916494 8.5870167,3.2906745 C 11.479791,3.2094275 13.936107,5.4466719 14.141018,8.3579854 C 14.21758,9.5166974 13.926443,10.612225 13.368038,11.53579 L 5.9245313,4.092283 L 5.9245313,4.0636541 C 6.636611,3.6347645 7.4702632,3.3779599 8.3579857,3.3193034 C 8.3929317,3.3169943 8.4326582,3.2970107 8.4725012,3.2906745 z M 4.0922833,5.924531 L 11.53579,13.368038 C 11.531115,13.370874 11.540476,13.393845 11.53579,13.396667 C 10.823711,13.825557 9.9900583,14.082361 9.1023364,14.141018 C 6.1121133,14.338597 3.5168833,12.092559 3.3193037,9.1023361 C 3.2427416,7.9436247 3.5338788,6.8480954 4.0922833,5.924531 z "
       id="path1304" />
  </g>
</svg>
