<?xml version="1.0" encoding="utf-8"?>
<!-- Generator: Adobe Illustrator 14.0.0, SVG Export Plug-In . SVG Version: 6.00 Build 43363)  -->
<!DOCTYPE svg PUBLIC "-//W3C//DTD SVG 1.1//EN" "http://www.w3.org/Graphics/SVG/1.1/DTD/svg11.dtd">
<svg version="1.1" id="Layer_1" xmlns="http://www.w3.org/2000/svg" xmlns:xlink="http://www.w3.org/1999/xlink" x="0px" y="0px"
	 width="32px" height="32px" viewBox="0 0 32 32" enable-background="new 0 0 32 32" xml:space="preserve">
<g>
	<rect x="0.757" fill="#010101" width="2.167" height="32"/>
	<line fill="none" stroke="#010101" x1="1.84" y1="7.75" x2="13.424" y2="7.75"/>
	<line fill="none" stroke="#010101" x1="1.84" y1="24.039" x2="15.714" y2="24.039"/>
	<path id="path175_6_" fill="#020202" d="M14.632,14.75c-3.858,0-7-3.141-7-7s3.142-7,7-7c3.858,0,6.999,3.141,6.999,7
		S18.49,14.75,14.632,14.75L14.632,14.75z"/>
	<circle id="circle177_6_" fill="#FBAA1F" cx="14.632" cy="7.75" r="6"/>
	
		<linearGradient id="path186_1_" gradientUnits="userSpaceOnUse" x1="1417.334" y1="-1998.9492" x2="1427.3311" y2="-1998.9492" gradientTransform="matrix(1 0 0 -1 -1407.7002 -1991.1992)">
		<stop  offset="0" style="stop-color:#A5682A"/>
		<stop  offset="0.5394" style="stop-color:#FBAA1F"/>
		<stop  offset="1" style="stop-color:#FFF4E2"/>
	</linearGradient>
	<path id="path186_6_" fill="url(#path186_1_)" d="M14.632,12.75c-2.757,0-4.999-2.244-4.999-5c0-2.758,2.242-5,4.999-5
		c2.756,0,4.999,2.242,4.999,5C19.631,10.506,17.389,12.75,14.632,12.75L14.632,12.75z"/>
	<path id="path175_5_" fill="#020202" d="M14.632,31.039c-3.858,0-7-3.143-7-7c0-3.859,3.142-7,7-7c3.858,0,6.999,3.141,6.999,7
		C21.631,27.896,18.49,31.039,14.632,31.039L14.632,31.039z"/>
	<circle id="circle177_5_" fill="#FBAA1F" cx="14.632" cy="24.039" r="6"/>
	
		<linearGradient id="path186_2_" gradientUnits="userSpaceOnUse" x1="1417.334" y1="-2015.2383" x2="1427.3311" y2="-2015.2383" gradientTransform="matrix(1 0 0 -1 -1407.7002 -1991.1992)">
		<stop  offset="0" style="stop-color:#A5682A"/>
		<stop  offset="0.5394" style="stop-color:#FBAA1F"/>
		<stop  offset="1" style="stop-color:#FFF4E2"/>
	</linearGradient>
	<path id="path186_5_" fill="url(#path186_2_)" d="M14.632,29.039c-2.757,0-4.999-2.244-4.999-5c0-2.758,2.242-5,4.999-5
		c2.756,0,4.999,2.242,4.999,5C19.631,26.795,17.389,29.039,14.632,29.039L14.632,29.039z"/>
</g>
</svg>
