<?xml version="1.0" encoding="UTF-8" standalone="no"?>
<!-- Generator: Adobe Illustrator 14.0.0, SVG Export Plug-In . SVG Version: 6.00 Build 43363)  -->

<svg
   xmlns:dc="http://purl.org/dc/elements/1.1/"
   xmlns:cc="http://creativecommons.org/ns#"
   xmlns:rdf="http://www.w3.org/1999/02/22-rdf-syntax-ns#"
   xmlns:svg="http://www.w3.org/2000/svg"
   xmlns="http://www.w3.org/2000/svg"
   xmlns:xlink="http://www.w3.org/1999/xlink"
   xmlns:sodipodi="http://sodipodi.sourceforge.net/DTD/sodipodi-0.dtd"
   xmlns:inkscape="http://www.inkscape.org/namespaces/inkscape"
   version="1.1"
   id="Layer_1"
   x="0px"
   y="0px"
   width="32px"
   height="32px"
   viewBox="0 0 32 32"
   enable-background="new 0 0 32 32"
   xml:space="preserve"
   inkscape:version="0.48.3.1 r9886"
   sodipodi:docname="export_s.svg"><metadata
   id="metadata28"><rdf:RDF><cc:Work
       rdf:about=""><dc:format>image/svg+xml</dc:format><dc:type
         rdf:resource="http://purl.org/dc/dcmitype/StillImage" /></cc:Work></rdf:RDF></metadata><defs
   id="defs26"><linearGradient
     inkscape:collect="always"
     xlink:href="#SVGID_1_"
     id="linearGradient3014"
     gradientUnits="userSpaceOnUse"
     gradientTransform="translate(-563.0801,-799.32377)"
     x1="564.3359"
     y1="815.3359"
     x2="594.2422"
     y2="815.3359" /><linearGradient
     id="path7827_1_"
     gradientUnits="userSpaceOnUse"
     x1="-359.63181"
     y1="-3009.3496"
     x2="-335.80081"
     y2="-3009.3496"
     gradientTransform="matrix(-0.6552,0,0,-0.6552,-217.3318,-1964.7927)"><stop
       offset="0"
       style="stop-color:#24A64A"
       id="stop10-3" /><stop
       offset="0.5"
       style="stop-color:#B3D78C"
       id="stop12" /><stop
       offset="1"
       style="stop-color:#216634"
       id="stop14" /></linearGradient><linearGradient
     id="SVGID_1_-7"
     gradientUnits="userSpaceOnUse"
     x1="564.33588"
     y1="815.33588"
     x2="594.24219"
     y2="815.33588"
     gradientTransform="translate(-563.15301,-809.58344)"><stop
       offset="0"
       style="stop-color:#B0D0DA"
       id="stop8-6" /><stop
       offset="1"
       style="stop-color:#0C7C9E"
       id="stop10-8" /></linearGradient><linearGradient
     inkscape:collect="always"
     xlink:href="#SVGID_1_-7"
     id="linearGradient3046"
     gradientUnits="userSpaceOnUse"
     gradientTransform="translate(-563.15301,-809.58344)"
     x1="564.33588"
     y1="815.33588"
     x2="594.24219"
     y2="815.33588" /></defs><sodipodi:namedview
   pagecolor="#ffffff"
   bordercolor="#666666"
   borderopacity="1"
   objecttolerance="10"
   gridtolerance="10"
   guidetolerance="10"
   inkscape:pageopacity="0"
   inkscape:pageshadow="2"
   inkscape:window-width="908"
   inkscape:window-height="680"
   id="namedview24"
   showgrid="false"
   inkscape:zoom="7.375"
   inkscape:cx="19.141466"
   inkscape:cy="14.02908"
   inkscape:window-x="70"
   inkscape:window-y="457"
   inkscape:window-maximized="0"
   inkscape:current-layer="Layer_1" />


<linearGradient
   id="SVGID_1_"
   gradientUnits="userSpaceOnUse"
   x1="564.3359"
   y1="815.3359"
   x2="594.2422"
   y2="815.3359"
   gradientTransform="translate(-563.0801,-799.32377)">
	<stop
   offset="0"
   style="stop-color:#B0D0DA"
   id="stop8" />
	<stop
   offset="1"
   style="stop-color:#0C7C9E"
   id="stop10" />
</linearGradient>






<g
   id="g3034"
   transform="matrix(0.87428519,0,0,0.87342602,0.00788975,-0.92737103)"><path
     id="path3"
     d="M 1.1820935,28.653254 C 0.60509347,28.653254 0.13509347,28.182254 0.13509347,27.606254 V 2.2252543 C 0.13509347,1.6472543 0.60509347,1.1762543 1.1820935,1.1762543 H 31.089093 C 31.667093,1.1762543 32.136093,1.6452543 32.136093,2.2252543 V 27.606254 C 32.136093,28.182254 31.667093,28.654254 31.089093,28.654254 L 1.1820935,28.653254 L 1.1820935,28.653254 z"
     inkscape:connector-curvature="0" /><rect
     id="rect5"
     height="25.381001"
     width="29.907"
     y="2.2252543"
     x="1.1820929"
     style="fill:#daebf2" /><rect
     id="rect12"
     height="7.0549998"
     width="29.907"
     y="2.2252543"
     x="1.1820929"
     style="fill:url(#linearGradient3046)" /><line
     id="line14"
     y2="9.2802544"
     x2="31.089094"
     y1="9.2802544"
     x1="1.1820929"
     style="fill:none;stroke:#000000" /><line
     id="line16"
     y2="15.315253"
     x2="31.089094"
     y1="15.315253"
     x1="1.1820929"
     style="fill:none;stroke:#000000" /><line
     id="line18"
     y2="21.948254"
     x2="31.089094"
     y1="21.948254"
     x1="1.1820929"
     style="fill:none;stroke:#000000" /><line
     id="line20"
     y2="27.621254"
     x2="10.847094"
     y1="9.2962542"
     x1="10.847094"
     style="fill:none;stroke:#000000" /><line
     id="line22"
     y2="27.657255"
     x2="21.491093"
     y1="9.3302546"
     x1="21.491093"
     style="fill:none;stroke:#000000" /></g><g
   transform="matrix(1.1240185,0,0,1.2857,9.9998113,15.152111)"
   id="g3169"><path
     style="fill:#010101"
     inkscape:connector-curvature="0"
     d="M 11.889,12.867 C 11.743,12.867 11.594,12.834 11.457,12.767 C 11.114,12.603 10.895,12.263 10.889,11.884 L 10.842,9.421 C 10.35,9.392 9.924,9.377 9.52,9.377 C 6.499,9.377 4.698,10.262 3.688,12.248 C 3.516,12.586 3.168,12.793 2.797,12.793 C 2.74,12.793 2.684,12.789 2.627,12.779 C 2.195,12.705 1.861,12.357 1.805,11.925 C 1.791,11.82 1.488,9.326 3.357,7.113 C 4.904,5.279 7.422,4.21 10.846,3.93 L 10.889,1.979 C 10.899,1.602 11.118,1.261 11.459,1.099 C 11.596,1.035 11.742,1.002 11.889,1.002 C 12.108,1.002 12.323,1.073 12.5,1.21 L 18.883,6.143 C 19.129,6.332 19.272,6.624 19.272,6.934 C 19.272,7.245 19.129,7.537 18.883,7.726 L 12.5,12.658 C 12.32,12.795 12.105,12.867 11.889,12.867 L 11.889,12.867 z"
     id="path9179" /><path
     style="opacity:0.98000004;fill:url(#path7827_1_)"
     inkscape:connector-curvature="0"
     d="M 11.855,2 L 11.791,4.872 C 1.904,5.253 2.765,11.792 2.765,11.792 C 4.596,8.189 8.397,8.2 11.791,8.491 L 11.854,11.865 L 18.237,6.931 L 11.855,2 z"
     enable-background="new    "
     id="path7827_6_" /><path
     style="opacity:0.98000004;fill:#06a14b"
     inkscape:connector-curvature="0"
     d="M 12.529,10.455 L 12.48,7.848 L 11.85,7.794 C 10.895,7.71 10.164,7.675 9.483,7.675 C 7.831,7.675 5.684,7.874 3.963,9.218 C 4.127,8.886 4.342,8.544 4.625,8.208 C 5.988,6.593 8.408,5.706 11.816,5.573 L 12.476,5.548 L 12.524,3.407 L 17.088,6.932 L 12.529,10.455 z"
     enable-background="new    "
     id="path4454_3_" /></g></svg>