<?xml version="1.0" encoding="UTF-8" standalone="no"?>
<!-- Generator: Adobe Illustrator 14.0.0, SVG Export Plug-In . SVG Version: 6.00 Build 43363)  -->

<svg
   xmlns:dc="http://purl.org/dc/elements/1.1/"
   xmlns:cc="http://creativecommons.org/ns#"
   xmlns:rdf="http://www.w3.org/1999/02/22-rdf-syntax-ns#"
   xmlns:svg="http://www.w3.org/2000/svg"
   xmlns="http://www.w3.org/2000/svg"
   xmlns:sodipodi="http://sodipodi.sourceforge.net/DTD/sodipodi-0.dtd"
   xmlns:inkscape="http://www.inkscape.org/namespaces/inkscape"
   version="1.1"
   id="Layer_1"
   sodipodi:docname="export_r.svg"
   inkscape:version="0.47 r22583"
   x="0px"
   y="0px"
   width="32px"
   height="32px"
   viewBox="0 0 32 32"
   enable-background="new 0 0 32 32"
   xml:space="preserve"><metadata
   id="metadata32"><rdf:RDF><cc:Work
       rdf:about=""><dc:format>image/svg+xml</dc:format><dc:type
         rdf:resource="http://purl.org/dc/dcmitype/StillImage" /></cc:Work></rdf:RDF></metadata><defs
   id="defs30"><inkscape:perspective
     sodipodi:type="inkscape:persp3d"
     inkscape:vp_x="0 : 16 : 1"
     inkscape:vp_y="0 : 1000 : 0"
     inkscape:vp_z="32 : 16 : 1"
     inkscape:persp3d-origin="16 : 10.666667 : 1"
     id="perspective34" /><inkscape:perspective
     id="perspective2884"
     inkscape:persp3d-origin="0.5 : 0.33333333 : 1"
     inkscape:vp_z="1 : 0.5 : 1"
     inkscape:vp_y="0 : 1000 : 0"
     inkscape:vp_x="0 : 0.5 : 1"
     sodipodi:type="inkscape:persp3d" /><linearGradient
     id="path1888_1_"
     gradientUnits="userSpaceOnUse"
     x1="16.1504"
     y1="-102.5024"
     x2="4.5823002"
     y2="-106.2398"
     gradientTransform="matrix(1,0,0,-1,2.46,-88.8398)"><stop
       offset="0"
       style="stop-color:#B1D2DB;stop-opacity:0"
       id="stop9" /><stop
       offset="1"
       style="stop-color:#0A4B5E"
       id="stop11" /></linearGradient><linearGradient
     id="path1890_1_"
     gradientUnits="userSpaceOnUse"
     x1="15.6743"
     y1="-105.1343"
     x2="22.506701"
     y2="-105.8007"
     gradientTransform="matrix(1,0,0,-1,2.46,-88.8398)"><stop
       offset="0"
       style="stop-color:#B1D2DB;stop-opacity:0"
       id="stop15" /><stop
       offset="1"
       style="stop-color:#7DD2ED"
       id="stop17" /></linearGradient><linearGradient
     id="ellipse1925_1_"
     gradientUnits="userSpaceOnUse"
     x1="160.1875"
     y1="-1061.8247"
     x2="184.2119"
     y2="-1061.8247"
     gradientTransform="matrix(1.133,0,0,-1.0789,-179.1028,-1142.9048)"><stop
       offset="0"
       style="stop-color:#848E8D"
       id="stop23-3" /><stop
       offset="0.0727"
       style="stop-color:#010101"
       id="stop25-7" /><stop
       offset="0.2061"
       style="stop-color:#D3D6D4"
       id="stop27" /><stop
       offset="0.6242"
       style="stop-color:#B4B4B5"
       id="stop29" /><stop
       offset="0.6657"
       style="stop-color:#8B9291"
       id="stop31" /><stop
       offset="0.7103"
       style="stop-color:#677270"
       id="stop33" /><stop
       offset="0.7466"
       style="stop-color:#515E5C"
       id="stop35" /><stop
       offset="0.7697"
       style="stop-color:#495755"
       id="stop37" /><stop
       offset="0.7719"
       style="stop-color:#4F5D5B"
       id="stop39" /><stop
       offset="0.7845"
       style="stop-color:#6E7876"
       id="stop41" /><stop
       offset="0.7983"
       style="stop-color:#878D8C"
       id="stop43" /><stop
       offset="0.8136"
       style="stop-color:#9B9F9E"
       id="stop45" /><stop
       offset="0.8311"
       style="stop-color:#A9ACAC"
       id="stop47" /><stop
       offset="0.8527"
       style="stop-color:#B2B2B2"
       id="stop49" /><stop
       offset="0.8909"
       style="stop-color:#B4B4B5"
       id="stop51" /><stop
       offset="1"
       style="stop-color:#495755"
       id="stop53" /></linearGradient><linearGradient
     id="ellipse1936_1_"
     gradientUnits="userSpaceOnUse"
     x1="160.1875"
     y1="-1061.8247"
     x2="184.2119"
     y2="-1061.8247"
     gradientTransform="matrix(1.133,0,0,-1.0789,-179.1028,-1142.9048)"><stop
       offset="0"
       style="stop-color:#010101"
       id="stop59" /><stop
       offset="1"
       style="stop-color:#010101;stop-opacity:0"
       id="stop61" /></linearGradient><inkscape:perspective
     id="perspective2884-4"
     inkscape:persp3d-origin="0.5 : 0.33333333 : 1"
     inkscape:vp_z="1 : 0.5 : 1"
     inkscape:vp_y="0 : 1000 : 0"
     inkscape:vp_x="0 : 0.5 : 1"
     sodipodi:type="inkscape:persp3d" /><linearGradient
     id="path1888_1_-5"
     gradientUnits="userSpaceOnUse"
     x1="16.1504"
     y1="-102.5024"
     x2="4.5823002"
     y2="-106.2398"
     gradientTransform="matrix(1,0,0,-1,2.46,-88.8398)"><stop
       offset="0"
       style="stop-color:#B1D2DB;stop-opacity:0"
       id="stop9-2" /><stop
       offset="1"
       style="stop-color:#0A4B5E"
       id="stop11-5" /></linearGradient><linearGradient
     id="path1890_1_-4"
     gradientUnits="userSpaceOnUse"
     x1="15.6743"
     y1="-105.1343"
     x2="22.506701"
     y2="-105.8007"
     gradientTransform="matrix(1,0,0,-1,2.46,-88.8398)"><stop
       offset="0"
       style="stop-color:#B1D2DB;stop-opacity:0"
       id="stop15-7" /><stop
       offset="1"
       style="stop-color:#7DD2ED"
       id="stop17-4" /></linearGradient><linearGradient
     id="ellipse1925_1_-4"
     gradientUnits="userSpaceOnUse"
     x1="160.1875"
     y1="-1061.8247"
     x2="184.2119"
     y2="-1061.8247"
     gradientTransform="matrix(1.133,0,0,-1.0789,-179.1028,-1142.9048)"><stop
       offset="0"
       style="stop-color:#848E8D"
       id="stop23-30" /><stop
       offset="0.0727"
       style="stop-color:#010101"
       id="stop25-78" /><stop
       offset="0.2061"
       style="stop-color:#D3D6D4"
       id="stop27-6" /><stop
       offset="0.6242"
       style="stop-color:#B4B4B5"
       id="stop29-8" /><stop
       offset="0.6657"
       style="stop-color:#8B9291"
       id="stop31-8" /><stop
       offset="0.7103"
       style="stop-color:#677270"
       id="stop33-4" /><stop
       offset="0.7466"
       style="stop-color:#515E5C"
       id="stop35-3" /><stop
       offset="0.7697"
       style="stop-color:#495755"
       id="stop37-1" /><stop
       offset="0.7719"
       style="stop-color:#4F5D5B"
       id="stop39-4" /><stop
       offset="0.7845"
       style="stop-color:#6E7876"
       id="stop41-9" /><stop
       offset="0.7983"
       style="stop-color:#878D8C"
       id="stop43-2" /><stop
       offset="0.8136"
       style="stop-color:#9B9F9E"
       id="stop45-0" /><stop
       offset="0.8311"
       style="stop-color:#A9ACAC"
       id="stop47-6" /><stop
       offset="0.8527"
       style="stop-color:#B2B2B2"
       id="stop49-8" /><stop
       offset="0.8909"
       style="stop-color:#B4B4B5"
       id="stop51-9" /><stop
       offset="1"
       style="stop-color:#495755"
       id="stop53-2" /></linearGradient><linearGradient
     id="ellipse1936_1_-6"
     gradientUnits="userSpaceOnUse"
     x1="160.1875"
     y1="-1061.8247"
     x2="184.2119"
     y2="-1061.8247"
     gradientTransform="matrix(1.133,0,0,-1.0789,-179.1028,-1142.9048)"><stop
       offset="0"
       style="stop-color:#010101"
       id="stop59-6" /><stop
       offset="1"
       style="stop-color:#010101;stop-opacity:0"
       id="stop61-4" /></linearGradient><inkscape:perspective
     id="perspective2884-9"
     inkscape:persp3d-origin="0.5 : 0.33333333 : 1"
     inkscape:vp_z="1 : 0.5 : 1"
     inkscape:vp_y="0 : 1000 : 0"
     inkscape:vp_x="0 : 0.5 : 1"
     sodipodi:type="inkscape:persp3d" /><linearGradient
     id="path1888_1_-50"
     gradientUnits="userSpaceOnUse"
     x1="16.1504"
     y1="-102.5024"
     x2="4.5823002"
     y2="-106.2398"
     gradientTransform="matrix(1,0,0,-1,2.46,-88.8398)"><stop
       offset="0"
       style="stop-color:#B1D2DB;stop-opacity:0"
       id="stop9-4" /><stop
       offset="1"
       style="stop-color:#0A4B5E"
       id="stop11-8" /></linearGradient><linearGradient
     id="path1890_1_-7"
     gradientUnits="userSpaceOnUse"
     x1="15.6743"
     y1="-105.1343"
     x2="22.506701"
     y2="-105.8007"
     gradientTransform="matrix(1,0,0,-1,2.46,-88.8398)"><stop
       offset="0"
       style="stop-color:#B1D2DB;stop-opacity:0"
       id="stop15-1" /><stop
       offset="1"
       style="stop-color:#7DD2ED"
       id="stop17-7" /></linearGradient><linearGradient
     id="ellipse1925_1_-2"
     gradientUnits="userSpaceOnUse"
     x1="160.1875"
     y1="-1061.8247"
     x2="184.2119"
     y2="-1061.8247"
     gradientTransform="matrix(1.133,0,0,-1.0789,-179.1028,-1142.9048)"><stop
       offset="0"
       style="stop-color:#848E8D"
       id="stop23-7" /><stop
       offset="0.0727"
       style="stop-color:#010101"
       id="stop25-2" /><stop
       offset="0.2061"
       style="stop-color:#D3D6D4"
       id="stop27-2" /><stop
       offset="0.6242"
       style="stop-color:#B4B4B5"
       id="stop29-6" /><stop
       offset="0.6657"
       style="stop-color:#8B9291"
       id="stop31-1" /><stop
       offset="0.7103"
       style="stop-color:#677270"
       id="stop33-0" /><stop
       offset="0.7466"
       style="stop-color:#515E5C"
       id="stop35-6" /><stop
       offset="0.7697"
       style="stop-color:#495755"
       id="stop37-15" /><stop
       offset="0.7719"
       style="stop-color:#4F5D5B"
       id="stop39-9" /><stop
       offset="0.7845"
       style="stop-color:#6E7876"
       id="stop41-4" /><stop
       offset="0.7983"
       style="stop-color:#878D8C"
       id="stop43-9" /><stop
       offset="0.8136"
       style="stop-color:#9B9F9E"
       id="stop45-09" /><stop
       offset="0.8311"
       style="stop-color:#A9ACAC"
       id="stop47-1" /><stop
       offset="0.8527"
       style="stop-color:#B2B2B2"
       id="stop49-7" /><stop
       offset="0.8909"
       style="stop-color:#B4B4B5"
       id="stop51-7" /><stop
       offset="1"
       style="stop-color:#495755"
       id="stop53-1" /></linearGradient><linearGradient
     id="ellipse1936_1_-1"
     gradientUnits="userSpaceOnUse"
     x1="160.1875"
     y1="-1061.8247"
     x2="184.2119"
     y2="-1061.8247"
     gradientTransform="matrix(1.133,0,0,-1.0789,-179.1028,-1142.9048)"><stop
       offset="0"
       style="stop-color:#010101"
       id="stop59-5" /><stop
       offset="1"
       style="stop-color:#010101;stop-opacity:0"
       id="stop61-9" /></linearGradient><inkscape:perspective
     id="perspective2884-7"
     inkscape:persp3d-origin="0.5 : 0.33333333 : 1"
     inkscape:vp_z="1 : 0.5 : 1"
     inkscape:vp_y="0 : 1000 : 0"
     inkscape:vp_x="0 : 0.5 : 1"
     sodipodi:type="inkscape:persp3d" /><linearGradient
     id="path1888_1_-7"
     gradientUnits="userSpaceOnUse"
     x1="16.1504"
     y1="-102.5024"
     x2="4.5823002"
     y2="-106.2398"
     gradientTransform="matrix(1,0,0,-1,2.46,-88.8398)"><stop
       offset="0"
       style="stop-color:#B1D2DB;stop-opacity:0"
       id="stop9-6" /><stop
       offset="1"
       style="stop-color:#0A4B5E"
       id="stop11-7" /></linearGradient><linearGradient
     id="path1890_1_-3"
     gradientUnits="userSpaceOnUse"
     x1="15.6743"
     y1="-105.1343"
     x2="22.506701"
     y2="-105.8007"
     gradientTransform="matrix(1,0,0,-1,2.46,-88.8398)"><stop
       offset="0"
       style="stop-color:#B1D2DB;stop-opacity:0"
       id="stop15-6" /><stop
       offset="1"
       style="stop-color:#7DD2ED"
       id="stop17-5" /></linearGradient><linearGradient
     id="ellipse1925_1_-6"
     gradientUnits="userSpaceOnUse"
     x1="160.1875"
     y1="-1061.8247"
     x2="184.2119"
     y2="-1061.8247"
     gradientTransform="matrix(1.133,0,0,-1.0789,-179.1028,-1142.9048)"><stop
       offset="0"
       style="stop-color:#848E8D"
       id="stop23-39" /><stop
       offset="0.0727"
       style="stop-color:#010101"
       id="stop25-4" /><stop
       offset="0.2061"
       style="stop-color:#D3D6D4"
       id="stop27-8" /><stop
       offset="0.6242"
       style="stop-color:#B4B4B5"
       id="stop29-1" /><stop
       offset="0.6657"
       style="stop-color:#8B9291"
       id="stop31-2" /><stop
       offset="0.7103"
       style="stop-color:#677270"
       id="stop33-9" /><stop
       offset="0.7466"
       style="stop-color:#515E5C"
       id="stop35-39" /><stop
       offset="0.7697"
       style="stop-color:#495755"
       id="stop37-0" /><stop
       offset="0.7719"
       style="stop-color:#4F5D5B"
       id="stop39-8" /><stop
       offset="0.7845"
       style="stop-color:#6E7876"
       id="stop41-8" /><stop
       offset="0.7983"
       style="stop-color:#878D8C"
       id="stop43-5" /><stop
       offset="0.8136"
       style="stop-color:#9B9F9E"
       id="stop45-096" /><stop
       offset="0.8311"
       style="stop-color:#A9ACAC"
       id="stop47-3" /><stop
       offset="0.8527"
       style="stop-color:#B2B2B2"
       id="stop49-85" /><stop
       offset="0.8909"
       style="stop-color:#B4B4B5"
       id="stop51-6" /><stop
       offset="1"
       style="stop-color:#495755"
       id="stop53-11" /></linearGradient><linearGradient
     id="ellipse1936_1_-5"
     gradientUnits="userSpaceOnUse"
     x1="160.1875"
     y1="-1061.8247"
     x2="184.2119"
     y2="-1061.8247"
     gradientTransform="matrix(1.133,0,0,-1.0789,-179.1028,-1142.9048)"><stop
       offset="0"
       style="stop-color:#010101"
       id="stop59-9" /><stop
       offset="1"
       style="stop-color:#010101;stop-opacity:0"
       id="stop61-8" /></linearGradient><inkscape:perspective
     id="perspective2884-48"
     inkscape:persp3d-origin="0.5 : 0.33333333 : 1"
     inkscape:vp_z="1 : 0.5 : 1"
     inkscape:vp_y="0 : 1000 : 0"
     inkscape:vp_x="0 : 0.5 : 1"
     sodipodi:type="inkscape:persp3d" /><linearGradient
     id="path1888_1_-1"
     gradientUnits="userSpaceOnUse"
     x1="16.1504"
     y1="-102.5024"
     x2="4.5823002"
     y2="-106.2398"
     gradientTransform="matrix(1,0,0,-1,2.46,-88.8398)"><stop
       offset="0"
       style="stop-color:#B1D2DB;stop-opacity:0"
       id="stop9-0" /><stop
       offset="1"
       style="stop-color:#0A4B5E"
       id="stop11-3" /></linearGradient><linearGradient
     id="path1890_1_-0"
     gradientUnits="userSpaceOnUse"
     x1="15.6743"
     y1="-105.1343"
     x2="22.506701"
     y2="-105.8007"
     gradientTransform="matrix(1,0,0,-1,2.46,-88.8398)"><stop
       offset="0"
       style="stop-color:#B1D2DB;stop-opacity:0"
       id="stop15-4" /><stop
       offset="1"
       style="stop-color:#7DD2ED"
       id="stop17-44" /></linearGradient><linearGradient
     id="ellipse1925_1_-47"
     gradientUnits="userSpaceOnUse"
     x1="160.1875"
     y1="-1061.8247"
     x2="184.2119"
     y2="-1061.8247"
     gradientTransform="matrix(1.133,0,0,-1.0789,-179.1028,-1142.9048)"><stop
       offset="0"
       style="stop-color:#848E8D"
       id="stop23-6" /><stop
       offset="0.0727"
       style="stop-color:#010101"
       id="stop25-3" /><stop
       offset="0.2061"
       style="stop-color:#D3D6D4"
       id="stop27-1" /><stop
       offset="0.6242"
       style="stop-color:#B4B4B5"
       id="stop29-7" /><stop
       offset="0.6657"
       style="stop-color:#8B9291"
       id="stop31-5" /><stop
       offset="0.7103"
       style="stop-color:#677270"
       id="stop33-96" /><stop
       offset="0.7466"
       style="stop-color:#515E5C"
       id="stop35-2" /><stop
       offset="0.7697"
       style="stop-color:#495755"
       id="stop37-17" /><stop
       offset="0.7719"
       style="stop-color:#4F5D5B"
       id="stop39-85" /><stop
       offset="0.7845"
       style="stop-color:#6E7876"
       id="stop41-7" /><stop
       offset="0.7983"
       style="stop-color:#878D8C"
       id="stop43-4" /><stop
       offset="0.8136"
       style="stop-color:#9B9F9E"
       id="stop45-1" /><stop
       offset="0.8311"
       style="stop-color:#A9ACAC"
       id="stop47-8" /><stop
       offset="0.8527"
       style="stop-color:#B2B2B2"
       id="stop49-5" /><stop
       offset="0.8909"
       style="stop-color:#B4B4B5"
       id="stop51-97" /><stop
       offset="1"
       style="stop-color:#495755"
       id="stop53-5" /></linearGradient><linearGradient
     id="ellipse1936_1_-3"
     gradientUnits="userSpaceOnUse"
     x1="160.1875"
     y1="-1061.8247"
     x2="184.2119"
     y2="-1061.8247"
     gradientTransform="matrix(1.133,0,0,-1.0789,-179.1028,-1142.9048)"><stop
       offset="0"
       style="stop-color:#010101"
       id="stop59-8" /><stop
       offset="1"
       style="stop-color:#010101;stop-opacity:0"
       id="stop61-83" /></linearGradient></defs><sodipodi:namedview
   pagecolor="#ffffff"
   bordercolor="#666666"
   borderopacity="1"
   objecttolerance="10"
   gridtolerance="10"
   guidetolerance="10"
   inkscape:pageopacity="0"
   inkscape:pageshadow="2"
   inkscape:window-width="658"
   inkscape:window-height="480"
   id="namedview28"
   showgrid="false"
   inkscape:zoom="7.84375"
   inkscape:cx="11.29831"
   inkscape:cy="16"
   inkscape:window-x="182"
   inkscape:window-y="452"
   inkscape:window-maximized="0"
   inkscape:current-layer="Layer_1" />
<path
   id="path9169"
   fill="#010101"
   d="M20.127,16.668c-0.553,0-1-0.445-1-1V1c0-0.553,0.447-1,1-1h7.426  c0.268,0,0.521,0.104,0.707,0.293l3.447,3.448C31.896,3.93,32,4.183,32,4.448v11.22c0,0.555-0.447,1-1,1H20.127z" />
<polygon
   id="polygon9171"
   fill="#FBCD36"
   points="27.576,1 20.152,1 20.152,15.668 31.023,15.668 31.023,4.448 " />
<polygon
   id="polygon9173"
   fill="#FFFFFF"
   points="30.03,3.979 30.03,14.592 21.1,14.592 21.1,1.995 28.045,1.995 28.996,3.072 " />
<path
   id="path9175"
   fill="#010101"
   d="M27.576,5.448c-0.553,0-1-0.447-1-1V1c0-0.404,0.243-0.77,0.617-0.924  C27.316,0.024,27.447,0,27.576,0c0.262,0,0.518,0.102,0.707,0.293l3.447,3.448c0.286,0.285,0.372,0.716,0.217,1.09  c-0.152,0.374-0.521,0.616-0.924,0.616H27.576z" />
<polygon
   id="polygon9177"
   fill="#FBCD36"
   points="27.576,4.448 31.023,4.448 27.576,1 " />
<path
   id="path9179"
   fill="#010101"
   d="M11.889,12.867c-0.146,0-0.295-0.033-0.432-0.1c-0.343-0.164-0.562-0.504-0.568-0.883  l-0.047-2.463C10.35,9.392,9.924,9.377,9.52,9.377c-3.021,0-4.822,0.885-5.832,2.871c-0.172,0.338-0.52,0.545-0.891,0.545  c-0.057,0-0.113-0.004-0.17-0.014c-0.432-0.074-0.766-0.422-0.822-0.854C1.791,11.82,1.488,9.326,3.357,7.113  C4.904,5.279,7.422,4.21,10.846,3.93l0.043-1.951c0.01-0.377,0.229-0.718,0.57-0.88c0.137-0.064,0.283-0.097,0.43-0.097  c0.219,0,0.434,0.071,0.611,0.208l6.383,4.933c0.246,0.189,0.389,0.481,0.389,0.791c0,0.311-0.143,0.603-0.389,0.792L12.5,12.658  C12.32,12.795,12.105,12.867,11.889,12.867L11.889,12.867z" />
<linearGradient
   id="path7827_1_"
   gradientUnits="userSpaceOnUse"
   x1="-359.6318"
   y1="-3009.3496"
   x2="-335.8008"
   y2="-3009.3496"
   gradientTransform="matrix(-0.6552 0 0 -0.6552 -217.3318 -1964.7927)">
	<stop
   offset="0"
   style="stop-color:#24A64A"
   id="stop10" />
	<stop
   offset="0.5"
   style="stop-color:#B3D78C"
   id="stop12" />
	<stop
   offset="1"
   style="stop-color:#216634"
   id="stop14" />
</linearGradient>
<path
   id="path7827_6_"
   opacity="0.98"
   fill="url(#path7827_1_)"
   enable-background="new    "
   d="M11.855,2l-0.064,2.872  c-9.887,0.381-9.026,6.92-9.026,6.92c1.831-3.603,5.632-3.592,9.026-3.301l0.063,3.374l6.383-4.934L11.855,2z" />
<path
   id="path4454_3_"
   opacity="0.98"
   fill="#06A14B"
   enable-background="new    "
   d="M12.529,10.455L12.48,7.848L11.85,7.794  c-0.955-0.084-1.686-0.119-2.367-0.119c-1.652,0-3.799,0.199-5.52,1.543c0.164-0.332,0.379-0.674,0.662-1.01  c1.363-1.615,3.783-2.502,7.191-2.635l0.66-0.025l0.048-2.141l4.564,3.525L12.529,10.455z" />


<linearGradient
   id="path186_2_"
   gradientUnits="userSpaceOnUse"
   x1="846.8809"
   y1="-1203.3853"
   x2="858.3096"
   y2="-1203.3853"
   gradientTransform="matrix(1 0 0 -1 -844.6201 -1182.5195)">
	<stop
   offset="0"
   style="stop-color:#A46729"
   id="stop21" />
	<stop
   offset="0.5394"
   style="stop-color:#FAA81E"
   id="stop23" />
	<stop
   offset="1"
   style="stop-color:#FFF3E1"
   id="stop25" />
</linearGradient>

<g
   transform="matrix(0.5,0,0,0.5,-0.35059762,14.055776)"
   id="g3"><path
     style="fill:#231f20"
     d="m 16.008,31.878 c -1.389,0 -2.28,-0.502 -2.377,-1.322 L 10.654,19.5 1.691,10.265 C 1.5,10.078 1.392,9.823 1.391,9.556 l 0,-6.855 C 1.389,2.149 1.834,1.699 2.387,1.697 c 10e-4,0 0.002,0 0.004,0 0.551,0 0.998,0.444 1,0.995 v 6.437 l 8.874,9.147 c 0.137,0.134 0.231,0.304 0.274,0.49 l 2.979,11.067 c 0.243,0.047 0.733,0.047 0.978,0.001 l 2.969,-11.068 c 0.043,-0.189 0.141,-0.361 0.279,-0.496 l 8.863,-9.029 0.016,-6.543 c 0,-0.553 0.447,-1 1,-1.001 l 0,0 c 0.553,0 1,0.446 1,0.999 l -0.016,6.969 c 0,0.271 -0.109,0.532 -0.305,0.721 l -8.956,9.118 -2.959,11.025 c -0.079,0.835 -0.977,1.349 -2.379,1.349 l 0,0 z"
     id="path5" /><path
     style="fill:#08acda"
     id="path1874"
     d="m 2.39,2.697 10e-4,6.854 9.172,9.439 3.059,11.414 0,0 c 0,0.262 0.621,0.474 1.385,0.474 0.767,0 1.387,-0.212 1.387,-0.474 0,-0.003 -0.002,-0.005 -0.002,-0.007 L 20.438,18.99 29.607,9.666 29.623,2.697" /><linearGradient
     id="linearGradient2917"
     gradientUnits="userSpaceOnUse"
     x1="16.1504"
     y1="-102.5024"
     x2="4.5823002"
     y2="-106.2398"
     gradientTransform="matrix(1,0,0,-1,2.46,-88.8398)"><stop
       offset="0"
       style="stop-color:#B1D2DB;stop-opacity:0"
       id="stop2919" /><stop
       offset="1"
       style="stop-color:#0A4B5E"
       id="stop2921" /></linearGradient><path
     style="fill:url(#path1888_1_-1)"
     id="path1888"
     d="m 2.39,2.697 10e-4,6.854 9.172,9.439 3.115,11.541 c 0,0 0.678,0.29 1.052,0.269 l -0.746,-10.796 -3.435,-8.969 0.02,-6.763" /><linearGradient
     id="linearGradient2924"
     gradientUnits="userSpaceOnUse"
     x1="15.6743"
     y1="-105.1343"
     x2="22.506701"
     y2="-105.8007"
     gradientTransform="matrix(1,0,0,-1,2.46,-88.8398)"><stop
       offset="0"
       style="stop-color:#B1D2DB;stop-opacity:0"
       id="stop2926" /><stop
       offset="1"
       style="stop-color:#7DD2ED"
       id="stop2928" /></linearGradient><path
     style="fill:url(#path1890_1_-0)"
     id="path1890"
     d="m 29.621,2.698 -0.016,6.969 -9.189,9.4 -3.053,11.436 c 0,0 -0.511,0.368 -0.885,0.348 l 1.96,-11.502 3.159,-8.313 0.02,-6.764" /><path
     style="fill:#231f20"
     d="M 16,5.272 C 1.39,5.272 1.39,3.401 1.39,2.697 c 0,-0.704 0,-2.575 14.61,-2.575 14.609,0 14.609,1.871 14.609,2.575 0,0.704 0,2.575 -14.609,2.575 l 0,0 z"
     id="path20" /><linearGradient
     id="linearGradient2932"
     gradientUnits="userSpaceOnUse"
     x1="160.1875"
     y1="-1061.8247"
     x2="184.2119"
     y2="-1061.8247"
     gradientTransform="matrix(1.133,0,0,-1.0789,-179.1028,-1142.9048)"><stop
       offset="0"
       style="stop-color:#848E8D"
       id="stop2934" /><stop
       offset="0.0727"
       style="stop-color:#010101"
       id="stop2936" /><stop
       offset="0.2061"
       style="stop-color:#D3D6D4"
       id="stop2938" /><stop
       offset="0.6242"
       style="stop-color:#B4B4B5"
       id="stop2940" /><stop
       offset="0.6657"
       style="stop-color:#8B9291"
       id="stop2942" /><stop
       offset="0.7103"
       style="stop-color:#677270"
       id="stop2944" /><stop
       offset="0.7466"
       style="stop-color:#515E5C"
       id="stop2946" /><stop
       offset="0.7697"
       style="stop-color:#495755"
       id="stop2948" /><stop
       offset="0.7719"
       style="stop-color:#4F5D5B"
       id="stop2950" /><stop
       offset="0.7845"
       style="stop-color:#6E7876"
       id="stop2952" /><stop
       offset="0.7983"
       style="stop-color:#878D8C"
       id="stop2954" /><stop
       offset="0.8136"
       style="stop-color:#9B9F9E"
       id="stop2956" /><stop
       offset="0.8311"
       style="stop-color:#A9ACAC"
       id="stop2958" /><stop
       offset="0.8527"
       style="stop-color:#B2B2B2"
       id="stop2960" /><stop
       offset="0.8909"
       style="stop-color:#B4B4B5"
       id="stop2962" /><stop
       offset="1"
       style="stop-color:#495755"
       id="stop2964" /></linearGradient><ellipse
     d="M 29.609,2.697 C 29.609,3.5668485 23.516043,4.2720001 16,4.2720001 8.4839567,4.2720001 2.3909998,3.5668485 2.3909998,2.697 2.3909998,1.8271515 8.4839567,1.122 16,1.122 c 7.516043,0 13.609,0.7051515 13.609,1.575 z"
     style="fill:url(#ellipse1925_1_-47)"
     sodipodi:ry="1.575"
     sodipodi:rx="13.609"
     sodipodi:cy="2.697"
     sodipodi:cx="16"
     id="ellipse1925"
     cx="16"
     cy="2.697"
     rx="13.609"
     ry="1.575" /><path
     style="fill:none;stroke:#010101"
     id="path1927"
     d="m 30.125,9.183 c 0,1.082 -6.611,1.959 -14.127,1.959 -7.515,0 -14.123,-0.877 -14.123,-1.959" /><path
     style="fill:none;stroke:#010101"
     id="path1929"
     d="m 20.858,19.146 c 0,0.56 -2.414,1.014 -4.864,1.014 -2.449,0 -4.761,-0.454 -4.761,-1.014" /><linearGradient
     id="linearGradient2969"
     gradientUnits="userSpaceOnUse"
     x1="160.1875"
     y1="-1061.8247"
     x2="184.2119"
     y2="-1061.8247"
     gradientTransform="matrix(1.133,0,0,-1.0789,-179.1028,-1142.9048)"><stop
       offset="0"
       style="stop-color:#010101"
       id="stop2971" /><stop
       offset="1"
       style="stop-color:#010101;stop-opacity:0"
       id="stop2973" /></linearGradient><ellipse
     d="M 29.609,2.697 C 29.609,3.5668485 23.516043,4.2720001 16,4.2720001 8.4839567,4.2720001 2.3909998,3.5668485 2.3909998,2.697 2.3909998,1.8271515 8.4839567,1.122 16,1.122 c 7.516043,0 13.609,0.7051515 13.609,1.575 z"
     style="opacity:0.61000001;fill:url(#ellipse1936_1_-3)"
     sodipodi:ry="1.575"
     sodipodi:rx="13.609"
     sodipodi:cy="2.697"
     sodipodi:cx="16"
     id="ellipse1936"
     enable-background="new    "
     cx="16"
     cy="2.697"
     rx="13.609"
     ry="1.575" /></g></svg>