<?xml version="1.0" encoding="UTF-8" standalone="no"?>
<!-- Generator: Adobe Illustrator 14.0.0, SVG Export Plug-In . SVG Version: 6.00 Build 43363)  -->

<svg
   xmlns:dc="http://purl.org/dc/elements/1.1/"
   xmlns:cc="http://creativecommons.org/ns#"
   xmlns:rdf="http://www.w3.org/1999/02/22-rdf-syntax-ns#"
   xmlns:svg="http://www.w3.org/2000/svg"
   xmlns="http://www.w3.org/2000/svg"
   xmlns:sodipodi="http://sodipodi.sourceforge.net/DTD/sodipodi-0.dtd"
   xmlns:inkscape="http://www.inkscape.org/namespaces/inkscape"
   version="1.1"
   id="Layer_1"
   x="0px"
   y="0px"
   width="32px"
   height="32px"
   viewBox="0 0 32 32"
   enable-background="new 0 0 32 32"
   xml:space="preserve"
   inkscape:version="0.48.4 r9939"
   sodipodi:docname="favorites.svg"><metadata
     id="metadata75"><rdf:RDF><cc:Work
         rdf:about=""><dc:format>image/svg+xml</dc:format><dc:type
           rdf:resource="http://purl.org/dc/dcmitype/StillImage" /></cc:Work></rdf:RDF></metadata><defs
     id="defs73" /><sodipodi:namedview
     pagecolor="#ffffff"
     bordercolor="#666666"
     borderopacity="1"
     objecttolerance="10"
     gridtolerance="10"
     guidetolerance="10"
     inkscape:pageopacity="0"
     inkscape:pageshadow="2"
     inkscape:window-width="956"
     inkscape:window-height="922"
     id="namedview71"
     showgrid="false"
     inkscape:zoom="7.375"
     inkscape:cx="16"
     inkscape:cy="16"
     inkscape:window-x="0"
     inkscape:window-y="0"
     inkscape:window-maximized="0"
     inkscape:current-layer="Layer_1" /><g
     id="g3"
     transform="matrix(1.2,0,0,1.2,0.51849196,1.0447237)"><path
       d="M 20.531,24.807 C 20.402,24.807 20.273,24.776 20.154,24.713 L 13,20.952 L 5.846,24.713 C 5.727,24.776 5.597,24.807 5.468,24.807 C 5.3,24.807 5.132,24.755 4.99,24.652 C 4.74,24.469 4.615,24.162 4.668,23.857 L 6.034,15.891 L 0.246,10.25 C 0.025,10.034 -0.054,9.712 0.041,9.417 C 0.136,9.124 0.391,8.909 0.696,8.865 L 8.696,7.702 L 12.273,0.455 C 12.408,0.176 12.69,0 13,0 L 13,0 C 13.31,0 13.592,0.176 13.729,0.453 L 17.305,7.7 L 25.303,8.863 C 25.61,8.907 25.864,9.122 25.961,9.415 C 26.055,9.709 25.977,10.033 25.754,10.248 L 19.967,15.889 L 21.332,23.855 C 21.385,24.16 21.26,24.467 21.01,24.65 C 20.869,24.755 20.699,24.807 20.531,24.807 L 20.531,24.807 z"
       id="path5"
       inkscape:connector-curvature="0" /><polygon
       points="19.094,15.608 20.531,23.994 13,20.035 5.467,23.994 6.906,15.608 0.812,9.667 9.234,8.443 13,0.813 16.766,8.443 25.188,9.667 "
       id="polygon7"
       style="fill:#f9a61e" /><linearGradient
       id="SVGID_1_"
       gradientUnits="userSpaceOnUse"
       x1="2.5576"
       y1="12.5791"
       x2="23.441401"
       y2="12.5791"><stop
         offset="0"
         style="stop-color:#FFF3DF"
         id="stop10" /><stop
         offset="0.5394"
         style="stop-color:#F9A61E"
         id="stop12" /><stop
         offset="1"
         style="stop-color:#A36628"
         id="stop14" /></linearGradient><polygon
       points="2.558,10.234 9.773,9.186 13,2.649 16.226,9.186 23.441,10.234 18.221,15.323 19.453,22.509 13,19.116 6.546,22.509 7.778,15.323 "
       id="polygon16"
       style="fill:url(#SVGID_1_)" /></g><g
     id="g31"><rect
       x="8.137"
       y="-29.625"
       fill="#F9A620"
       width="7.992"
       height="7.992"
       id="rect33" /><linearGradient
       id="SVGID_3_"
       gradientUnits="userSpaceOnUse"
       x1="8.1367"
       y1="-17.6367"
       x2="16.1289"
       y2="-17.6367"><stop
         offset="0"
         style="stop-color:#FFF3DF"
         id="stop36" /><stop
         offset="0.5394"
         style="stop-color:#F9A620"
         id="stop38" /><stop
         offset="1"
         style="stop-color:#A36628"
         id="stop40" /></linearGradient><rect
       x="8.137"
       y="-21.633"
       fill="url(#SVGID_3_)"
       width="7.992"
       height="7.992"
       id="rect42" /><rect
       x="0.145"
       y="-29.625"
       fill="#ED2526"
       width="7.992"
       height="7.992"
       id="rect44" /><linearGradient
       id="SVGID_4_"
       gradientUnits="userSpaceOnUse"
       x1="0.1445"
       y1="-17.6367"
       x2="8.1367"
       y2="-17.6367"><stop
         offset="0"
         style="stop-color:#F59699"
         id="stop47" /><stop
         offset="1"
         style="stop-color:#8F1A1D"
         id="stop49" /></linearGradient><rect
       x="0.145"
       y="-21.633"
       fill="url(#SVGID_4_)"
       width="7.992"
       height="7.992"
       id="rect51" /><rect
       x="16.159"
       y="-29.625"
       fill="#00ACDA"
       width="7.992"
       height="7.992"
       id="rect53" /><linearGradient
       id="SVGID_5_"
       gradientUnits="userSpaceOnUse"
       x1="15.9707"
       y1="-17.4219"
       x2="23.9629"
       y2="-17.4219"
       gradientTransform="matrix(1 -7.000000e-004 7.000000e-004 1 0.201 -0.201)"><stop
         offset="0"
         style="stop-color:#B1D2DB"
         id="stop56" /><stop
         offset="1"
         style="stop-color:#0B7C9E"
         id="stop58" /></linearGradient><polygon
       fill="url(#SVGID_5_)"
       points="24.154,-13.644 16.162,-13.638 16.156,-21.63 24.148,-21.636  "
       id="polygon60" /><rect
       x="-7.849"
       y="-29.625"
       fill="#6EBD46"
       width="7.993"
       height="7.992"
       id="rect62" /><linearGradient
       id="SVGID_6_"
       gradientUnits="userSpaceOnUse"
       x1="-7.8486"
       y1="-17.6367"
       x2="0.1445"
       y2="-17.6367"><stop
         offset="0"
         style="stop-color:#B0D68C"
         id="stop65" /><stop
         offset="1"
         style="stop-color:#1E9046"
         id="stop67" /></linearGradient><rect
       x="-7.849"
       y="-21.633"
       fill="url(#SVGID_6_)"
       width="7.993"
       height="7.992"
       id="rect69" /></g></svg>