<?xml version="1.0" encoding="UTF-8" standalone="no"?>
<!-- Generator: Adobe Illustrator 14.0.0, SVG Export Plug-In . SVG Version: 6.00 Build 43363)  -->

<svg
   xmlns:dc="http://purl.org/dc/elements/1.1/"
   xmlns:cc="http://creativecommons.org/ns#"
   xmlns:rdf="http://www.w3.org/1999/02/22-rdf-syntax-ns#"
   xmlns:svg="http://www.w3.org/2000/svg"
   xmlns="http://www.w3.org/2000/svg"
   xmlns:sodipodi="http://sodipodi.sourceforge.net/DTD/sodipodi-0.dtd"
   xmlns:inkscape="http://www.inkscape.org/namespaces/inkscape"
   version="1.1"
   id="svg2"
   sodipodi:docname="filter_param_editor.svg"
   inkscape:version="0.47 r22583"
   sodipodi:version="0.32"
   inkscape:output_extension="org.inkscape.output.svg.inkscape"
   inkscape:export-filename="H:\Work\Radix\new_order\dds\sequence.png"
   inkscape:export-ydpi="45"
   inkscape:export-xdpi="45"
   x="0px"
   y="0px"
   width="32px"
   height="32px"
   viewBox="0 0 32 32"
   enable-background="new 0 0 32 32"
   xml:space="preserve"><metadata
   id="metadata35"><rdf:RDF><cc:Work
       rdf:about=""><dc:format>image/svg+xml</dc:format><dc:type
         rdf:resource="http://purl.org/dc/dcmitype/StillImage" /></cc:Work></rdf:RDF></metadata><defs
   id="defs33"><inkscape:perspective
     sodipodi:type="inkscape:persp3d"
     inkscape:vp_x="0 : 16 : 1"
     inkscape:vp_y="0 : 1000 : 0"
     inkscape:vp_z="32 : 16 : 1"
     inkscape:persp3d-origin="16 : 10.666667 : 1"
     id="perspective37" /><inkscape:perspective
     id="perspective2869"
     inkscape:persp3d-origin="0.5 : 0.33333333 : 1"
     inkscape:vp_z="1 : 0.5 : 1"
     inkscape:vp_y="0 : 1000 : 0"
     inkscape:vp_x="0 : 0.5 : 1"
     sodipodi:type="inkscape:persp3d" /><linearGradient
     id="SVGID_4_"
     gradientUnits="userSpaceOnUse"
     x1="282.44919"
     y1="-401.6348"
     x2="288.75"
     y2="-401.6348"
     gradientTransform="matrix(1,0,0,-1,-281.18903,-372.68499)"><stop
       offset="0"
       style="stop-color:#F69799"
       id="stop43" /><stop
       offset="1"
       style="stop-color:#8F191C"
       id="stop45" /></linearGradient><linearGradient
     id="SVGID_3_"
     gradientUnits="userSpaceOnUse"
     x1="288.93069"
     y1="-378.68649"
     x2="282.62991"
     y2="-378.68649"
     gradientTransform="matrix(1,0,0,-1,-281.54,-372.8398)"><stop
       offset="0"
       style="stop-color:#A56629"
       id="stop30" /><stop
       offset="0.5394"
       style="stop-color:#FAA820"
       id="stop32" /><stop
       offset="1"
       style="stop-color:#FFF3E0"
       id="stop34" /></linearGradient><linearGradient
     id="SVGID_2_"
     gradientUnits="userSpaceOnUse"
     x1="282.54001"
     y1="-392.45801"
     x2="288.84079"
     y2="-392.45801"
     gradientTransform="matrix(1,0,0,-1,-281.18903,-372.68499)"><stop
       offset="0"
       style="stop-color:#B2D78E"
       id="stop21-6" /><stop
       offset="1"
       style="stop-color:#1F9045"
       id="stop23-5" /></linearGradient></defs>
<g
   id="g3"
   transform="matrix(0.73835465,0,0,0.67552358,8.3726512,0)">
	<path
   d="m 13.648,13.459 c -0.552,0 -1,-0.448 -1,-1 V 1 c 0,-0.552 0.448,-1 1,-1 h 11.568 c 0.553,0 1,0.448 1,1 v 11.459 c 0,0.552 -0.447,1 -1,1 H 13.648 z"
   id="path5" />
	
		<linearGradient
   id="rect3449_1_"
   gradientUnits="userSpaceOnUse"
   x1="663.97272"
   y1="-903.42822"
   x2="637.52228"
   y2="-877.32391"
   gradientTransform="matrix(0.4458,0,0,-0.4476,-270.6508,-391.7863)">
		<stop
   offset="0"
   style="stop-color:#B0D68C"
   id="stop8" />
		<stop
   offset="1"
   style="stop-color:#1E9046"
   id="stop10" />
	</linearGradient>
	<rect
   id="rect3449"
   x="13.648"
   y="1"
   width="11.568"
   height="11.459"
   style="fill:url(#rect3449_1_)" />
	<path
   id="text3445"
   d="m 21.533,1.832 v 9.796 H 19.472 V 5.209 C 19.138,5.542 18.816,5.811 18.503,6.017 18.192,6.223 17.801,6.42 17.331,6.608 V 4.414 c 0.693,-0.293 1.232,-0.646 1.615,-1.058 0.383,-0.412 0.684,-0.92 0.9,-1.524 h 1.687 z" />
</g>
<sodipodi:namedview
   width="48px"
   height="48px"
   id="base"
   pagecolor="#ffffff"
   bordercolor="#666666"
   borderopacity="1.0"
   objecttolerance="10"
   gridtolerance="10000"
   showgrid="true"
   guidetolerance="10"
   inkscape:zoom="11.107469"
   inkscape:cx="1.5329079"
   inkscape:cy="28.76932"
   inkscape:current-layer="svg2"
   inkscape:pageopacity="0.0"
   inkscape:pageshadow="2"
   inkscape:window-width="1192"
   inkscape:window-height="944"
   inkscape:window-x="0"
   inkscape:window-y="44"
   inkscape:document-units="px"
   inkscape:window-maximized="0">
	
		<inkscape:grid
   type="xygrid"
   color="#0000ff"
   id="GridFromPre046Settings"
   spacingy="2px"
   spacingx="2px"
   empopacity="0.4"
   empcolor="#0000ff"
   empspacing="5"
   visible="true"
   enabled="false"
   opacity="0.2"
   originx="0px"
   originy="0px">
		</inkscape:grid>
</sodipodi:namedview>
<g
   id="g16"
   transform="matrix(0.73835465,0,0,0.67552358,8.3726512,0)">
	<path
   d="m 19.433,25.919 c -0.553,0 -1,-0.447 -1,-1 v -11.46 c 0,-0.552 0.447,-1 1,-1 H 31 c 0.553,0 1,0.448 1,1 v 11.459 c 0,0.553 -0.447,1 -1,1 H 19.433 z"
   id="path18" />
	
		<linearGradient
   id="rect4046_1_"
   gradientUnits="userSpaceOnUse"
   x1="659.92578"
   y1="-903.75537"
   x2="633.47601"
   y2="-877.65161"
   gradientTransform="matrix(0.4458,0,0,-0.4476,-263.0625,-379.4738)">
		<stop
   offset="0"
   style="stop-color:#B0D68C"
   id="stop21" />
		<stop
   offset="1"
   style="stop-color:#1E9046"
   id="stop23" />
	</linearGradient>
	<rect
   id="rect4046"
   x="19.433001"
   y="13.459"
   width="11.567"
   height="11.459"
   style="fill:url(#rect4046_1_)" />
	<path
   id="text4064"
   d="m 28.529,24.172 h -6.626 c 0.076,-0.807 0.307,-1.564 0.691,-2.275 0.384,-0.711 1.106,-1.55 2.166,-2.517 0.647,-0.593 1.062,-1.043 1.241,-1.351 0.182,-0.307 0.271,-0.6 0.271,-0.875 0,-0.299 -0.09,-0.554 -0.268,-0.766 -0.18,-0.211 -0.404,-0.317 -0.676,-0.317 -0.281,0 -0.512,0.108 -0.691,0.327 -0.179,0.219 -0.299,0.604 -0.36,1.156 l -2.212,-0.221 c 0.086,-0.766 0.246,-1.364 0.477,-1.794 0.231,-0.43 0.558,-0.76 0.979,-0.989 0.422,-0.229 1.004,-0.344 1.749,-0.344 0.777,0 1.382,0.109 1.813,0.328 0.432,0.218 0.771,0.553 1.02,1.006 0.248,0.452 0.371,0.959 0.371,1.521 0,0.598 -0.142,1.168 -0.426,1.711 -0.283,0.543 -0.799,1.141 -1.547,1.791 -0.445,0.379 -0.742,0.645 -0.893,0.795 -0.15,0.152 -0.326,0.351 -0.529,0.596 h 3.449 v 2.218 z" />
</g>
<g
   enable-background="new    "
   id="g27"
   transform="matrix(0.73835465,0,0,0.67552358,8.3726512,0)">
	<path
   d="m 5.512,31.906 c -0.552,0 -1,-0.447 -1,-1 v -5.077 c 0,-0.329 0.159,-0.621 0.404,-0.803 -0.137,-0.172 -0.22,-0.39 -0.22,-0.626 v -0.537 c 0,-1.042 0.122,-1.883 0.371,-2.569 0.248,-0.683 0.622,-1.314 1.112,-1.878 0.452,-0.52 1.395,-1.37 2.881,-2.603 0.775,-0.631 0.784,-0.938 0.784,-0.941 0,-0.345 -0.108,-0.447 -0.144,-0.48 -0.107,-0.101 -0.372,-0.161 -0.709,-0.161 -0.4,0 -0.702,0.117 -0.951,0.368 -0.154,0.156 -0.432,0.588 -0.558,1.727 -0.03,0.266 -0.164,0.509 -0.374,0.674 -0.178,0.141 -0.396,0.216 -0.62,0.216 -0.041,0 -0.082,-0.003 -0.123,-0.008 L 0.877,17.529 C 0.34,17.463 -0.046,16.982 0.004,16.444 0.214,14.191 1.056,12.34 2.505,10.944 3.97,9.533 6.18,8.819 9.075,8.819 c 2.25,0 4.113,0.491 5.54,1.46 1.999,1.35 3.012,3.189 3.012,5.466 0,0.979 -0.271,1.931 -0.804,2.831 -0.512,0.858 -1.479,1.842 -2.958,3.005 -1.143,0.904 -1.46,1.357 -1.543,1.511 -0.168,0.307 -0.253,0.747 -0.253,1.31 0,0.233 -0.08,0.449 -0.215,0.619 0.25,0.182 0.413,0.477 0.413,0.81 v 5.077 c 0,0.553 -0.448,1 -1,1 H 5.512 z"
   id="path29"
   style="fill:#ffffff" />
	<path
   d="M 11.07,24.4 H 5.696 v -0.537 c 0,-0.915 0.104,-1.657 0.311,-2.228 0.207,-0.57 0.516,-1.092 0.926,-1.563 0.41,-0.471 1.332,-1.301 2.765,-2.489 0.764,-0.622 1.146,-1.192 1.146,-1.711 0,-0.519 -0.153,-0.922 -0.46,-1.209 -0.306,-0.288 -0.771,-0.431 -1.393,-0.431 -0.669,0 -1.223,0.222 -1.662,0.665 -0.438,0.443 -0.719,1.216 -0.841,2.32 L 1,16.537 c 0.188,-2.018 0.922,-3.642 2.199,-4.873 1.278,-1.23 3.236,-1.846 5.876,-1.846 2.056,0 3.715,0.429 4.979,1.287 1.716,1.16 2.574,2.706 2.574,4.639 0,0.801 -0.222,1.575 -0.665,2.32 -0.443,0.745 -1.349,1.654 -2.715,2.729 -0.953,0.754 -1.554,1.36 -1.803,1.817 -0.25,0.458 -0.375,1.055 -0.375,1.79 z m -5.558,1.429 h 5.756 v 5.077 H 5.512 v -5.077 z"
   id="path31" />
</g>
<path
   d="m 1.3509752,31.574806 c -0.55200002,0 -1.00000002,-0.447 -1.00000002,-1 V 8.9718058 c 0,-0.126 0.024,-0.252 0.071,-0.37 l 2.36200002,-5.937 0.69,-1.38 c 0.17,-0.33700003 0.515,-0.55000003 0.893,-0.55000003 h 0.314 c 0.378,0 0.724,0.213 0.894,0.55200003 l 0.652,1.3 2.3559996,6.022 c 0.045,0.116 0.069,0.239 0.069,0.363 V 30.574806 c 0,0.553 -0.448,1 -0.9999996,1 h -6.301 z"
   id="path18-6" /><rect
   x="1.3509761"
   y="8.9718075"
   width="6.3010001"
   height="21.603001"
   id="rect25"
   style="fill:url(#SVGID_2_)" /><rect
   x="2.4309757"
   y="10.051807"
   width="4.1409998"
   height="19.441999"
   id="rect27"
   style="fill:#6bbe45" /><polygon
   points="3.362,2.879 1,8.817 7.301,8.817 4.982,2.879 "
   id="polygon36"
   style="fill:url(#SVGID_3_)"
   transform="translate(0.35097518,0.15480576)" /><polygon
   points="4.096,3.959 4.245,3.959 5.72,7.737 2.592,7.737 "
   id="polygon38"
   transform="translate(0.35097518,0.15480576)"
   style="fill:#faa820" /><polygon
   points="3.362,2.879 4.017,1.58 4.331,1.58 4.982,2.879 "
   id="polygon40"
   transform="translate(0.35097518,0.15480576)" /><rect
   x="1.3509761"
   y="27.324806"
   width="6.3010001"
   height="3.25"
   id="rect47"
   style="fill:url(#SVGID_4_)" /></svg>