<?xml version="1.0" encoding="utf-8"?>
<!-- Generator: Adobe Illustrator 14.0.0, SVG Export Plug-In . SVG Version: 6.00 Build 43363)  -->
<!DOCTYPE svg PUBLIC "-//W3C//DTD SVG 1.1//EN" "http://www.w3.org/Graphics/SVG/1.1/DTD/svg11.dtd">
<svg version="1.1" id="Layer_1" xmlns="http://www.w3.org/2000/svg" xmlns:xlink="http://www.w3.org/1999/xlink" x="0px" y="0px"
	 width="32px" height="32px" viewBox="0 0 32 32" enable-background="new 0 0 32 32" xml:space="preserve">
<g>
	<path id="path4948" fill="#020202" d="M18.166,21.354c-0.313,0.315-0.771,0.442-1.202,0.346c-0.437-0.096-0.787-0.412-0.938-0.829
		l-1.183-3.358c-0.168-0.472-0.046-0.995,0.304-1.345l0.916-0.915c0.348-0.347,0.861-0.468,1.329-0.311l3.403,1.138
		c0.426,0.143,0.748,0.496,0.851,0.933c0.101,0.436-0.027,0.895-0.346,1.212L18.166,21.354L18.166,21.354z"/>
	<path id="path4951" fill="#020202" d="M27.406,30.62c-0.508,0.507-1.324,0.506-1.832,0l-8.71-8.711
		c-0.244-0.244-0.382-0.571-0.379-0.915c0.002-0.343,0.134-0.671,0.379-0.916l3.216-3.211c0.507-0.507,1.325-0.506,1.831,0
		l8.708,8.708c0.245,0.245,0.384,0.572,0.38,0.915c0,0.344-0.135,0.671-0.38,0.915L27.406,30.62z"/>
	
		<linearGradient id="rect3806_1_" gradientUnits="userSpaceOnUse" x1="226.0977" y1="-2175.9541" x2="230.5313" y2="-2175.9541" gradientTransform="matrix(0.7071 -0.7071 -0.7071 -0.7071 -1682.3701 -1359.4808)">
		<stop  offset="0" style="stop-color:#59CAEE"/>
		<stop  offset="1" style="stop-color:#097A94"/>
	</linearGradient>
	<path id="rect3806_3_" fill="url(#rect3806_1_)" d="M16.091,17.053l0.913-0.917l3.405,1.143l-3.135,3.135L16.091,17.053
		L16.091,17.053z"/>
	
		<linearGradient id="rect3809_1_" gradientUnits="userSpaceOnUse" x1="230.6475" y1="-2184.6362" x2="225.4715" y2="-2184.6362" gradientTransform="matrix(0.7071 -0.7071 -0.7071 -0.7071 -1682.4741 -1359.5863)">
		<stop  offset="0" style="stop-color:#A56629"/>
		<stop  offset="0.5" style="stop-color:#FAA820"/>
		<stop  offset="1" style="stop-color:#FFF3E0"/>
	</linearGradient>
	<polygon id="rect3809_3_" fill="url(#rect3809_1_)" points="17.806,20.97 21.019,17.754 29.729,26.465 26.514,29.678 	"/>
	
		<rect id="rect4968" x="22.789" y="18.851" transform="matrix(-0.7066 0.7076 -0.7076 -0.7066 57.3461 23.6574)" fill="#FAA820" width="1.96" height="9.732"/>
	<path id="path4971" fill="#020202" d="M18.435,18.431c-1.927,1.928-4.493,2.991-7.223,2.991c-5.63,0.001-10.213-4.582-10.211-10.21
		c0-2.728,1.061-5.294,2.988-7.223C5.917,2.063,8.481,0.998,11.211,1c5.629,0.006,10.211,4.586,10.212,10.211
		C21.423,13.94,20.359,16.505,18.435,18.431L18.435,18.431z"/>
	<path id="path3707_6_" fill="#03ADDB" d="M20.135,11.208c0.001,4.92-3.995,8.917-8.914,8.916c-4.924-0.001-8.919-3.996-8.918-8.915
		c-0.002-4.921,3.994-8.917,8.917-8.917C16.14,2.293,20.132,6.285,20.135,11.208z"/>
	
		<linearGradient id="path4980_1_" gradientUnits="userSpaceOnUse" x1="583.3418" y1="-881.6533" x2="598.5752" y2="-881.6533" gradientTransform="matrix(0.7071 -0.7071 -0.7071 -0.7071 -1030.0586 -194.3656)">
		<stop  offset="0" style="stop-color:#B2D3DC"/>
		<stop  offset="1" style="stop-color:#117C9F"/>
	</linearGradient>
	<path id="path4980" fill="url(#path4980_1_)" d="M16.627,16.577c-1.437,1.438-3.354,2.23-5.392,2.232
		c-4.202-0.003-7.623-3.419-7.623-7.619c0.003-2.037,0.794-3.955,2.231-5.392c1.441-1.441,3.355-2.236,5.392-2.231
		c4.203,0.002,7.62,3.42,7.621,7.622C18.859,13.222,18.068,15.136,16.627,16.577L16.627,16.577z"/>
	
		<radialGradient id="path3747_1_" cx="1416.7021" cy="-38.5903" r="7.8262" gradientTransform="matrix(1.0901 0.4253 0.5098 -1.3173 -1517.3539 -646.4901)" gradientUnits="userSpaceOnUse">
		<stop  offset="0" style="stop-color:#FFFFFF"/>
		<stop  offset="0.4706" style="stop-color:#FFFFFF;stop-opacity:0.7866"/>
		<stop  offset="1" style="stop-color:#FFFFFF;stop-opacity:0"/>
	</radialGradient>
	<path id="path3747_3_" fill="url(#path3747_1_)" d="M10.719,3.594C8.29,3.763,5.968,5.134,4.65,7.431
		c-1.664,2.895-1.247,6.357,0.788,8.748c1.395-1.051,3.214-2.696,5.478-6.966c1.196-2.257,2.314-3.874,3.348-4.988
		C13.11,3.722,11.907,3.513,10.719,3.594z"/>
</g>
</svg>
