<?xml version="1.0" encoding="utf-8"?>
<!-- Generator: Adobe Illustrator 17.1.0, SVG Export Plug-In . SVG Version: 6.00 Build 0)  -->
<!DOCTYPE svg PUBLIC "-//W3C//DTD SVG 1.1//EN" "http://www.w3.org/Graphics/SVG/1.1/DTD/svg11.dtd">
<svg version="1.1" id="Layer_1" xmlns="http://www.w3.org/2000/svg" xmlns:xlink="http://www.w3.org/1999/xlink" xmlns:sodipodi="http://sodipodi.sourceforge.net/DTD/sodipodi-0.dtd" x="0px" y="0px"
	 viewBox="0 0 16 16" enable-background="new 0 0 16 16" xml:space="preserve">
<g id="g3_6_">
	
		<rect id="rect5_6_" x="2" y="8" transform="matrix(-0.9999 1.289013e-002 -1.289013e-002 -0.9999 11.9559 16.4229)" fill="#010101" width="7.8" height="0.5"/>
</g>
<g>
	<g id="g7_2_">
		<rect id="rect9_2_" x="1.4" y="13.1" fill="#010101" width="4.6" height="0.5"/>
	</g>
	<path id="path175_6_" fill="#030303" d="M5.7,15.7c-1.3,0-2.3-1-2.3-2.3s1-2.3,2.3-2.3C7,11,8,12.1,8,13.4S7,15.7,5.7,15.7
		L5.7,15.7z"/>
	<circle id="circle177_6_" fill="#F9A91F" cx="5.7" cy="13.4" r="2"/>
	
		<linearGradient id="path186_15_" gradientUnits="userSpaceOnUse" x1="1127.7251" y1="1736.5542" x2="1131.0481" y2="1736.5542" gradientTransform="matrix(1 0 0 1 -1123.7002 -1723.1992)">
		<stop  offset="0" style="stop-color:#A5682A"/>
		<stop  offset="0.5394" style="stop-color:#F9A91F"/>
		<stop  offset="1" style="stop-color:#FFF4E3"/>
	</linearGradient>
	<path id="path186_6_" fill="url(#path186_15_)" d="M5.7,15C4.8,15,4,14.3,4,13.4s0.7-1.7,1.7-1.7s1.7,0.7,1.7,1.7S6.6,15,5.7,15
		L5.7,15z"/>
	<polygon id="polygon44_2_" fill="#010101" points="1,0 1,5.4 1,10.6 1,16 2,16 2,10.6 2,5.4 2,0 	"/>
	<g id="g46_2_">
		<rect id="rect48_2_" x="1.4" y="2.3" fill="#010101" width="3.8" height="0.5"/>
	</g>
	<path id="path175_5_" fill="#030303" d="M5.7,4.8c-1.3,0-2.3-1-2.3-2.3s1-2.3,2.3-2.3C7,0.2,8,1.2,8,2.5S7,4.8,5.7,4.8L5.7,4.8z"/>
	<circle id="circle177_5_" fill="#F9A91F" cx="5.7" cy="2.5" r="2"/>
	
		<linearGradient id="path186_16_" gradientUnits="userSpaceOnUse" x1="1127.7251" y1="1725.7032" x2="1131.0481" y2="1725.7032" gradientTransform="matrix(1 0 0 1 -1123.7002 -1723.1992)">
		<stop  offset="0" style="stop-color:#A5682A"/>
		<stop  offset="0.5394" style="stop-color:#F9A91F"/>
		<stop  offset="1" style="stop-color:#FFF4E3"/>
	</linearGradient>
	<path id="path186_5_" fill="url(#path186_16_)" d="M5.7,4.2C4.8,4.2,4,3.4,4,2.5c0-0.9,0.7-1.7,1.7-1.7s1.7,0.7,1.7,1.7
		C7.3,3.4,6.6,4.2,5.7,4.2L5.7,4.2z"/>
	<path id="path175_12_" fill="#030303" d="M11,12c-2.2,0-4-1.8-4-4s1.8-4,4-4c2.2,0,4,1.8,4,4S13.2,12,11,12L11,12z"/>
	
		<circle id="circle177_12_" sodipodi:ry="3.9879999" sodipodi:cx="12.222" sodipodi:cy="15.882" sodipodi:rx="3.9879999" fill="#5690CC" cx="11" cy="8" r="3.5">
	</circle>
	
		<linearGradient id="path186_17_" gradientUnits="userSpaceOnUse" x1="1131.7007" y1="1731.1992" x2="1137.7007" y2="1731.1992" gradientTransform="matrix(1 0 0 1 -1123.7002 -1723.1992)">
		<stop  offset="0" style="stop-color:#3974BA"/>
		<stop  offset="0.5394" style="stop-color:#6AB6E5"/>
		<stop  offset="1" style="stop-color:#85D3E9"/>
	</linearGradient>
	<path id="path186_12_" fill="url(#path186_17_)" d="M11,11c-1.7,0-3-1.3-3-3c0-1.7,1.3-3,3-3s3,1.3,3,3C14,9.7,12.7,11,11,11L11,11
		z"/>
</g>
</svg>
