<?xml version="1.0" encoding="utf-8"?>
<!-- Generator: Adobe Illustrator 14.0.0, SVG Export Plug-In . SVG Version: 6.00 Build 43363)  -->
<!DOCTYPE svg PUBLIC "-//W3C//DTD SVG 1.1//EN" "http://www.w3.org/Graphics/SVG/1.1/DTD/svg11.dtd">
<svg version="1.1"
	 id="svg2383" sodipodi:docbase="C:\Radix\dev\trunk\org.radixware\kernel\designer\src\common.resources\src\org\radixware\kernel\designer\resources\icons\debug" sodipodi:docname="if.svg" inkscape:version="0.45.1" sodipodi:version="0.32" inkscape:output_extension="org.inkscape.output.svg.inkscape" xmlns:ns="http://creativecommons.org/ns#" xmlns:dc="http://purl.org/dc/elements/1.1/" xmlns:cc="http://web.resource.org/cc/" xmlns:rdf="http://www.w3.org/1999/02/22-rdf-syntax-ns#" xmlns:svg="http://www.w3.org/2000/svg" xmlns:sodipodi="http://sodipodi.sourceforge.net/DTD/sodipodi-0.dtd" xmlns:inkscape="http://www.inkscape.org/namespaces/inkscape"
	 xmlns="http://www.w3.org/2000/svg" xmlns:xlink="http://www.w3.org/1999/xlink" x="0px" y="0px" width="32px" height="32px"
	 viewBox="0 0 32 32" enable-background="new 0 0 32 32" xml:space="preserve">
<sodipodi:namedview  id="base" pagecolor="#ffffff" bordercolor="#666666" borderopacity="1.0" showgrid="true" inkscape:zoom="4.5747118" inkscape:cx="40.025868" inkscape:cy="51.385488" inkscape:current-layer="layer1" inkscape:pageopacity="0.0" inkscape:pageshadow="2" inkscape:window-width="1280" inkscape:window-height="944" inkscape:window-x="0" inkscape:window-y="44" inkscape:document-units="px" inkscape:grid-bbox="true">
	</sodipodi:namedview>
<polygon points="16.5,4.377 16.5,0 15.5,0 15.5,4.377 14.545,4.377 16,6.894 17.455,4.377 "/>
<polygon points="1,12.746 1,12.748 23.495,12.748 23.495,13.748 22.495,13.748 1,13.748 0.999,24.834 14.826,24.834 14.826,25.029 
	14.838,25.029 14.837,29.482 15.792,29.482 14.337,32 12.883,29.482 13.838,29.482 13.838,25.834 0.999,25.834 0,25.834 0,24.834 
	0,13.748 0,12.748 0,12.746 "/>
<g>
	<path d="M16,19.484c-0.113,0-0.229-0.024-0.334-0.075L4.103,13.885c-0.267-0.129-0.437-0.396-0.437-0.695
		c0-0.297,0.17-0.568,0.437-0.696l11.563-5.524c0.105-0.05,0.219-0.075,0.334-0.075c0.113,0,0.227,0.025,0.333,0.075l11.563,5.524
		c0.268,0.128,0.438,0.399,0.438,0.696s-0.17,0.566-0.438,0.693l-11.563,5.526C16.227,19.46,16.113,19.484,16,19.484L16,19.484z"/>
	<polygon id="rect8924" fill="#00ACDA" points="16,7.664 27.564,13.189 16,18.713 4.437,13.189 	"/>
	
		<linearGradient id="SVGID_1_" gradientUnits="userSpaceOnUse" x1="3.7646" y1="-102.0288" x2="23.3154" y2="-102.0288" gradientTransform="matrix(1 0 0 -1 2.46 -88.8398)">
		<stop  offset="0" style="stop-color:#B1D2DB"/>
		<stop  offset="1" style="stop-color:#0B7C9E"/>
	</linearGradient>
	<polygon fill="url(#SVGID_1_)" points="6.225,13.189 16,8.52 25.775,13.189 16,17.858 	"/>
</g>
</svg>
