<?xml version="1.0" encoding="utf-8"?>
<!-- Generator: Adobe Illustrator 14.0.0, SVG Export Plug-In . SVG Version: 6.00 Build 43363)  -->
<!DOCTYPE svg PUBLIC "-//W3C//DTD SVG 1.1//EN" "http://www.w3.org/Graphics/SVG/1.1/DTD/svg11.dtd">
<svg version="1.1"
	 id="svg2383" sodipodi:docname="if-else.svg" inkscape:version="0.46" sodipodi:version="0.32" inkscape:output_extension="org.inkscape.output.svg.inkscape" xmlns:dc="http://purl.org/dc/elements/1.1/" xmlns:cc="http://creativecommons.org/ns#" xmlns:rdf="http://www.w3.org/1999/02/22-rdf-syntax-ns#" xmlns:svg="http://www.w3.org/2000/svg" xmlns:sodipodi="http://sodipodi.sourceforge.net/DTD/sodipodi-0.dtd" xmlns:inkscape="http://www.inkscape.org/namespaces/inkscape"
	 xmlns="http://www.w3.org/2000/svg" xmlns:xlink="http://www.w3.org/1999/xlink" x="0px" y="0px" width="32px" height="32px"
	 viewBox="0 0 32 32" enable-background="new 0 0 32 32" xml:space="preserve">
<defs>
	
	
		<inkscape:perspective  id="perspective2391" sodipodi:type="inkscape:persp3d" inkscape:vp_z="32 : 16 : 1" inkscape:vp_x="0 : 16 : 1" inkscape:vp_y="0 : 1000 : 0" inkscape:persp3d-origin="16 : 10.666667 : 1">
		</inkscape:perspective>
</defs>
<sodipodi:namedview  id="base" pagecolor="#ffffff" bordercolor="#666666" borderopacity="1.0" showgrid="true" inkscape:zoom="4.5747118" inkscape:cx="40.025868" inkscape:cy="51.385488" inkscape:current-layer="layer1" inkscape:pageopacity="0.0" inkscape:pageshadow="2" inkscape:window-width="1280" inkscape:window-height="944" inkscape:window-x="-8" inkscape:window-y="-8" inkscape:document-units="px" inkscape:grid-bbox="true">
	</sodipodi:namedview>
<polygon points="16.5,4.377 16.5,0 15.5,0 15.5,4.377 14.545,4.377 16,6.894 17.455,4.377 "/>
<polygon points="31.045,29.482 31.045,13.748 31.045,12.748 31.045,12.746 30.045,12.746 30.045,12.748 1.955,12.748 1.955,12.746 
	0.955,12.746 0.955,12.748 0.955,13.748 0.955,29.482 0,29.482 1.455,32 2.91,29.482 1.955,29.482 1.955,13.748 30.045,13.748 
	30.045,29.482 29.09,29.482 30.545,32 32,29.482 "/>
<g>
	<path d="M15.999,19.484c-0.113,0-0.227-0.024-0.333-0.075L4.103,13.885c-0.268-0.129-0.438-0.396-0.438-0.695
		c0-0.297,0.17-0.568,0.438-0.696l11.563-5.524c0.106-0.05,0.22-0.076,0.333-0.076s0.229,0.025,0.334,0.076l11.563,5.524
		c0.268,0.128,0.438,0.399,0.438,0.696s-0.171,0.566-0.438,0.693l-11.563,5.526C16.228,19.46,16.112,19.484,15.999,19.484
		L15.999,19.484z"/>
	<polygon id="rect8924" fill="#6EBD46" points="15.999,7.665 27.563,13.189 15.999,18.713 4.437,13.189 	"/>
	
		<linearGradient id="SVGID_1_" gradientUnits="userSpaceOnUse" x1="3.7656" y1="-102.0288" x2="23.3154" y2="-102.0288" gradientTransform="matrix(1 0 0 -1 2.46 -88.8398)">
		<stop  offset="0" style="stop-color:#B0D68C"/>
		<stop  offset="1" style="stop-color:#1E9046"/>
	</linearGradient>
	<polygon fill="url(#SVGID_1_)" points="6.226,13.189 15.999,8.52 25.775,13.189 15.999,17.858 	"/>
</g>
</svg>
