<?xml version="1.0" encoding="UTF-8" standalone="no"?>
<!-- Generator: Adobe Illustrator 14.0.0, SVG Export Plug-In . SVG Version: 6.00 Build 43363)  -->

<svg
   xmlns:dc="http://purl.org/dc/elements/1.1/"
   xmlns:cc="http://creativecommons.org/ns#"
   xmlns:rdf="http://www.w3.org/1999/02/22-rdf-syntax-ns#"
   xmlns:svg="http://www.w3.org/2000/svg"
   xmlns="http://www.w3.org/2000/svg"
   xmlns:sodipodi="http://sodipodi.sourceforge.net/DTD/sodipodi-0.dtd"
   xmlns:inkscape="http://www.inkscape.org/namespaces/inkscape"
   version="1.1"
   id="Layer_1"
   x="0px"
   y="0px"
   width="32px"
   height="32px"
   viewBox="0 0 32 32"
   enable-background="new 0 0 32 32"
   xml:space="preserve"
   inkscape:version="0.48.3.1 r9886"
   sodipodi:docname="import_key.svg"><metadata
   id="metadata53"><rdf:RDF><cc:Work
       rdf:about=""><dc:format>image/svg+xml</dc:format><dc:type
         rdf:resource="http://purl.org/dc/dcmitype/StillImage" /></cc:Work></rdf:RDF></metadata><defs
   id="defs51"><linearGradient
     id="path7827_1_"
     gradientUnits="userSpaceOnUse"
     x1="70.1035"
     y1="2423.46"
     x2="93.936501"
     y2="2423.46"
     gradientTransform="matrix(-0.73148543,0,0,0.6252495,70.467044,-1489.369)"><stop
       offset="0"
       style="stop-color:#39ADDB"
       id="stop20-6" /><stop
       offset="0.5"
       style="stop-color:#A8CEDE"
       id="stop22-2" /><stop
       offset="1"
       style="stop-color:#2175BB"
       id="stop24" /></linearGradient></defs><sodipodi:namedview
   pagecolor="#ffffff"
   bordercolor="#666666"
   borderopacity="1"
   objecttolerance="10"
   gridtolerance="10"
   guidetolerance="10"
   inkscape:pageopacity="0"
   inkscape:pageshadow="2"
   inkscape:window-width="1061"
   inkscape:window-height="916"
   id="namedview49"
   showgrid="false"
   inkscape:zoom="7.375"
   inkscape:cx="16"
   inkscape:cy="16"
   inkscape:window-x="0"
   inkscape:window-y="0"
   inkscape:window-maximized="0"
   inkscape:current-layer="Layer_1" />
<g
   id="g3"
   transform="matrix(0.75508531,0,0,0.79322034,6.5626624,0.46101695)">
	<path
   id="path10819"
   d="M 8.858,32 C 8.666,32 8.477,31.973 8.295,31.919 C 8.023,31.882 7.758,31.79 7.521,31.646 C 5.439,30.38 5.52,27.585 5.545,26.667 C 5.602,24.405 6.233,21.588 6.9,18.604 C 7.671,15.163 8.467,11.613 8.51,8.477 C 8.472,8.475 8.434,8.475 8.393,8.475 C 7.951,8.475 7.419,8.522 6.854,8.614 C 6.747,8.629 6.64,8.638 6.536,8.638 C 5.723,8.638 4.977,8.147 4.668,7.372 C 4.276,6.391 3.799,4.982 3.755,3.839 C 3.705,2.523 4.701,0.338 6.316,0.034 C 6.438,0.012 6.562,0 6.686,0 C 6.759,0 6.832,0.006 6.902,0.014 C 7.318,0.052 15.528,0.609 20.352,0.609 C 21.595,0.609 22.296,0.569 22.665,0.536 C 22.78,0.526 22.895,0.519 23.019,0.519 C 24.308,0.519 25.628,1.155 26.74,2.306 C 28.574,4.218 29.597,7.257 29.472,10.434 C 29.423,11.815 29.163,13.218 28.702,14.596 C 27.634,17.777 27.102,20.219 27.081,22.059 C 27.081,22.108 27.081,22.159 27.081,22.205 C 27.933,22.169 28.735,22.142 29.333,22.142 L 29.562,22.144 C 30.074,22.152 30.564,22.356 30.931,22.711 C 31.99,23.739 32.165,25.962 31.874,27.715 C 31.464,30.167 30.229,31.688 28.653,31.688 C 28.464,31.688 28.27,31.665 28.079,31.622 C 26.903,31.35 25.081,31.211 22.663,31.211 C 20.42,31.211 17.756,31.325 14.51,31.56 C 12.459,31.797 10.64,31.946 9.459,31.964 L 8.986,31.997 C 8.943,32 8.901,32 8.858,32 L 8.858,32 z"
   inkscape:connector-curvature="0"
   style="fill:#020202" />
	<path
   id="path3443"
   d="M 9.986,7.758 C 10.164,5.757 9.289,2.128 6.808,1.093 C 5.503,0.546 4.719,2.708 4.76,3.793 C 4.822,5.398 5.931,7.757 5.931,7.757 C 5.931,7.757 8.774,7.091 9.986,7.758 z"
   inkscape:connector-curvature="0"
   style="fill:#faa820" />
	<path
   id="path3445"
   d="M 27.747,14.224 C 23.466,27.014 28.737,25.51 28.837,26.861 C 28.987,29.006 9.343,31.442 8.17,30.805 C 2.384,27.662 14.526,7.767 6.943,1.005 C 9.394,1.146 19.09,1.859 22.757,1.53 C 26.202,1.221 30.128,7.107 27.747,14.224 z"
   inkscape:connector-curvature="0"
   style="fill:#faa820" />
	
		<linearGradient
   id="path10830_1_"
   gradientUnits="userSpaceOnUse"
   x1="296.5928"
   y1="1120.9453"
   x2="296.5928"
   y2="1096.5393"
   gradientTransform="translate(-279.0801,-1092.6797)">
		<stop
   offset="0"
   style="stop-color:#A56629"
   id="stop9" />
		<stop
   offset="0.5394"
   style="stop-color:#FAA820"
   id="stop11" />
		<stop
   offset="1"
   style="stop-color:#FFF3E0"
   id="stop13" />
	</linearGradient>
	<path
   id="path10830"
   d="M 9.18,29.946 C 8.828,29.946 8.65,29.93 8.572,29.922 C 6.7,28.758 7.801,23.842 8.867,19.087 C 10.2,13.142 11.684,6.516 9.165,2.195 C 12.121,2.382 16.858,2.665 20.216,2.665 L 20.216,2.665 C 21.299,2.665 22.186,2.635 22.848,2.577 C 22.907,2.571 22.963,2.569 23.022,2.569 C 23.96,2.569 25.016,3.259 25.848,4.413 C 27.213,6.309 28.178,9.808 26.795,13.949 C 23.775,22.967 25.223,25.616 27.383,26.948 C 24.571,28.255 13.342,29.946 9.18,29.946 L 9.18,29.946 z"
   style="fill:url(#path10830_1_)"
   inkscape:connector-curvature="0" />
	<path
   id="path3447_3_"
   d="M 29.782,23.147 C 31.899,23.875 31.139,31.28 28.307,30.631 C 23.353,29.494 10.167,30.95 8.712,31 C 11.83,29.846 10.634,23.988 9.097,23.098 C 14.733,24.214 26.874,23.033 29.782,23.147 z"
   inkscape:connector-curvature="0"
   style="fill:#faa820" />
	
		<linearGradient
   id="path10840_1_"
   gradientUnits="userSpaceOnUse"
   x1="299.64841"
   y1="1121.4893"
   x2="299.64841"
   y2="1117.88"
   gradientTransform="translate(-279.0801,-1092.6797)">
		<stop
   offset="0"
   style="stop-color:#A56629"
   id="stop18" />
		<stop
   offset="0.5394"
   style="stop-color:#FAA820"
   id="stop20" />
		<stop
   offset="1"
   style="stop-color:#FFF3E0"
   id="stop22" />
	</linearGradient>
	<path
   id="path10840"
   d="M 11.235,29.787 C 11.447,29.273 11.586,28.686 11.642,28.036 C 11.74,26.888 11.559,25.532 11.146,24.394 C 12.528,24.524 14.186,24.585 16.147,24.585 C 19.247,24.585 22.527,24.427 25.168,24.299 C 26.902,24.217 28.4,24.144 29.318,24.144 C 29.39,24.144 29.463,24.144 29.527,24.146 C 29.806,24.418 30.17,25.681 29.886,27.372 C 29.646,28.808 29.07,29.664 28.648,29.664 L 28.648,29.664 C 28.613,29.664 28.574,29.659 28.531,29.649 C 27.187,29.34 25.267,29.189 22.658,29.189 C 18.688,29.191 14.1,29.55 11.235,29.787 L 11.235,29.787 z"
   style="fill:url(#path10840_1_)"
   inkscape:connector-curvature="0" />
	
		<linearGradient
   id="path10849_1_"
   gradientUnits="userSpaceOnUse"
   x1="287.21579"
   y1="1096.9922"
   x2="284.01761"
   y2="1096.9922"
   gradientTransform="translate(-279.0801,-1092.6797)">
		<stop
   offset="0"
   style="stop-color:#A56629"
   id="stop26" />
		<stop
   offset="0.5394"
   style="stop-color:#FAA820"
   id="stop28" />
		<stop
   offset="1"
   style="stop-color:#FFF3E0"
   id="stop30" />
	</linearGradient>
	<path
   id="path10849"
   d="M 6.538,6.618 C 6.208,5.796 5.8,4.592 5.766,3.754 C 5.74,3.07 6.179,2.107 6.429,2.007 C 7.95,2.657 8.778,4.745 8.963,6.476 C 8.783,6.462 8.596,6.455 8.396,6.455 C 7.726,6.454 7.047,6.536 6.538,6.618 L 6.538,6.618 z"
   style="fill:url(#path10849_1_)"
   inkscape:connector-curvature="0" />
</g>
<g
   id="g33"
   transform="matrix(0.75508531,0,0,0.79322034,6.5626624,0.46101695)">
	<path
   id="path2935_6_"
   d="M 4.282,30.027 C 4.12,29.865 4.026,29.644 4.026,29.412 V 27.885 C 4.026,27.742 4.063,27.6 4.13,27.475 L 4.443,26.895 L 4.13,26.309 C 4.013,26.087 3.995,25.83 4.083,25.596 L 4.397,24.755 L 4.168,23.332 C 4.143,23.167 4.164,22.998 4.231,22.844 L 4.559,22.094 L 4.071,20.629 C 3.979,20.35 4.034,20.04 4.217,19.811 L 4.881,18.979 L 4.162,17.854 C 4.072,17.713 4.025,17.55 4.025,17.383 V 15.86 H 3.589 C 3.351,15.86 3.13,15.761 2.974,15.604 C 2.816,15.446 2.72,15.229 2.716,14.991 V 12.844 C 2.504,12.675 2.301,12.494 2.11,12.304 C 0.752,10.943 0.002,9.134 0,7.21 C 0.002,5.283 0.752,3.475 2.111,2.111 C 3.474,0.75 5.286,0 7.212,0 C 9.138,0 10.948,0.751 12.31,2.111 C 13.669,3.47 14.419,5.282 14.419,7.209 C 14.419,9.406 13.411,11.479 11.702,12.841 V 14.99 C 11.702,15.22 11.61,15.441 11.448,15.605 C 11.284,15.769 11.061,15.861 10.831,15.861 H 10.395 L 10.397,29.411 C 10.399,29.685 10.268,29.947 10.043,30.111 L 7.729,31.828 C 7.418,32.057 6.999,32.057 6.69,31.828 L 4.377,30.111 C 4.345,30.086 4.313,30.059 4.282,30.027 L 4.282,30.027 z M 7.995,3.141 C 7.786,2.932 7.509,2.818 7.212,2.818 C 6.603,2.816 6.104,3.314 6.104,3.925 C 6.104,4.223 6.219,4.501 6.426,4.71 C 6.637,4.92 6.914,5.034 7.211,5.033 C 7.82,5.033 8.318,4.536 8.318,3.925 C 8.321,3.629 8.204,3.35 7.995,3.141 L 7.995,3.141 z"
   inkscape:connector-curvature="0"
   style="fill:#231f20" />
	<path
   id="path3790_6_"
   d="M 7.212,0.874 C 10.714,0.874 13.548,3.71 13.548,7.211 C 13.548,9.365 12.474,11.264 10.833,12.407 V 14.992 H 9.524 L 9.528,29.412 L 7.21,31.13 L 4.897,29.413 V 27.886 L 5.426,26.899 L 4.899,25.903 L 5.294,24.848 L 5.028,23.198 L 5.491,22.141 L 4.897,20.358 L 5.954,19.037 L 4.897,17.388 V 14.992 L 3.586,14.994 V 12.41 C 1.946,11.265 0.872,9.367 0.872,7.212 C 0.875,3.709 3.712,0.872 7.212,0.874 L 7.212,0.874 z M 7.212,1.945 C 6.116,1.945 5.233,2.831 5.233,3.924 C 5.233,5.021 6.118,5.905 7.212,5.904 C 8.308,5.904 9.191,5.02 9.192,3.925 C 9.19,2.83 8.308,1.945 7.212,1.945 z"
   inkscape:connector-curvature="0"
   style="fill:#03addb" />
	
		<linearGradient
   id="path2946_1_"
   gradientUnits="userSpaceOnUse"
   x1="-0.71780002"
   y1="-103.9868"
   x2="10.2168"
   y2="-103.9868"
   gradientTransform="matrix(1,0,0,-1,2.46,-87.8398)">
		<stop
   offset="0"
   style="stop-color:#B2D3DC"
   id="stop38" />
		<stop
   offset="1"
   style="stop-color:#117C9F"
   id="stop40" />
	</linearGradient>
	<path
   id="path2946_6_"
   d="M 5.771,28.104 L 6.416,26.899 L 5.853,25.84 L 6.193,24.936 L 5.933,23.311 L 6.423,22.184 L 5.874,20.53 L 7.024,19.092 L 5.768,17.131 L 5.77,14.118 H 4.46 L 4.458,11.953 L 4.087,11.693 C 3.821,11.507 3.571,11.298 3.343,11.07 C 2.313,10.04 1.744,8.668 1.742,7.21 C 1.742,5.75 2.31,4.377 3.345,3.345 C 3.806,2.884 4.333,2.518 4.907,2.25 C 4.565,2.721 4.362,3.298 4.362,3.924 C 4.362,4.688 4.657,5.403 5.196,5.944 C 5.735,6.48 6.452,6.777 7.214,6.775 C 8.78,6.777 10.062,5.5 10.064,3.927 C 10.064,3.316 9.873,2.736 9.523,2.253 C 10.093,2.519 10.619,2.886 11.078,3.345 C 12.111,4.376 12.678,5.749 12.678,7.21 C 12.678,8.993 11.801,10.669 10.336,11.692 L 9.961,11.952 V 14.119 L 8.652,14.118 L 8.656,28.972 L 7.21,30.044 L 5.769,28.975 L 5.771,28.104 z"
   style="fill:url(#path2946_1_)"
   inkscape:connector-curvature="0" />
	
		<linearGradient
   id="rect3802_1_"
   gradientUnits="userSpaceOnUse"
   x1="-974.72272"
   y1="-1005.3931"
   x2="-973.63922"
   y2="-1005.3931"
   gradientTransform="matrix(-1.0994,0,0,-1.0994,-1063.1969,-1083.3531)">
		<stop
   offset="0"
   style="stop-color:#B2D3DC"
   id="stop44" />
		<stop
   offset="1"
   style="stop-color:#117C9F"
   id="stop46" />
	</linearGradient>
	<path
   id="rect3802_6_"
   d="M 8.015,15.074 H 7.595 C 7.382,15.074 7.21,15.245 7.21,15.458 V 28.491 C 7.21,28.706 7.382,28.877 7.595,28.877 H 8.017 C 8.23,28.877 8.402,28.706 8.402,28.491 V 15.456 C 8.399,15.247 8.229,15.074 8.015,15.074 z"
   style="fill:url(#rect3802_1_)"
   inkscape:connector-curvature="0" />
</g>
<path
   inkscape:connector-curvature="0"
   id="path10238"
   d="M 12.029375,31.559619 C 11.866377,31.559619 11.700029,31.529081 11.547078,31.465144 C 11.165258,31.308641 10.92076,30.984183 10.912945,30.622508 L 10.860473,28.272096 C 10.311188,28.243467 9.8355896,28.230107 9.3845514,28.230107 C 6.0118138,28.230107 4.0011226,29.074651 2.8735264,30.968914 C 2.6815011,31.292418 2.2929835,31.489955 1.8787873,31.489955 C 1.8140341,31.489955 1.7526304,31.485184 1.6889936,31.475641 C 1.2055796,31.405024 0.83269225,31.073886 0.77128846,30.66068 C 0.75565807,30.560479 0.41849606,28.180485 2.5051049,26.068645 C 4.2322239,24.318481 7.0422796,23.299302 10.864939,23.032101 L 10.912945,21.170286 C 10.924109,20.810518 11.168608,20.485106 11.549311,20.330512 C 11.702262,20.268483 11.866377,20.236991 12.029375,20.236991 C 12.273874,20.236991 12.513906,20.304746 12.711514,20.435484 L 19.837693,25.14394 C 20.112335,25.323346 20.271984,25.601999 20.271984,25.898782 C 20.271984,26.194611 20.112335,26.473263 19.837693,26.653624 L 12.711514,31.361127 C 12.511673,31.491864 12.271641,31.559619 12.029375,31.559619 L 12.029375,31.559619 z"
   style="fill:#020202" /><path
   inkscape:connector-curvature="0"
   id="path7827_14_"
   enable-background="new    "
   d="M 11.992534,21.191279 L 11.922198,23.931995 C 0.8829315,24.296532 1.8441784,30.535667 1.8441784,30.535667 C 3.8872467,27.098322 8.1307994,27.107865 11.922198,27.385562 L 11.992534,30.604376 L 19.11871,25.897828 L 11.992534,21.191279 z"
   style="opacity:0.98000004;fill:url(#path7827_1_)" /><path
   inkscape:connector-curvature="0"
   id="path4454_2_"
   enable-background="new    "
   d="M 12.745008,29.25883 L 12.690303,26.771001 L 11.985835,26.720424 C 10.919643,26.640264 10.103533,26.606864 9.3432437,26.606864 C 7.5000161,26.606864 5.1019226,26.796767 3.1805454,28.079331 C 3.3636404,27.762507 3.6036734,27.43614 3.9196227,27.1155 C 5.4413176,25.575278 8.1430802,24.727871 11.947877,24.60095 L 12.68472,24.578047 L 12.738309,22.533009 L 17.833699,25.897828 L 12.745008,29.25883 z"
   style="opacity:0.98000004;fill:#1d78a0" /></svg>