<?xml version="1.0" encoding="UTF-8" standalone="no"?>
<!-- Generator: Adobe Illustrator 14.0.0, SVG Export Plug-In . SVG Version: 6.00 Build 43363)  -->

<svg
   xmlns:dc="http://purl.org/dc/elements/1.1/"
   xmlns:cc="http://creativecommons.org/ns#"
   xmlns:rdf="http://www.w3.org/1999/02/22-rdf-syntax-ns#"
   xmlns:svg="http://www.w3.org/2000/svg"
   xmlns="http://www.w3.org/2000/svg"
   xmlns:sodipodi="http://sodipodi.sourceforge.net/DTD/sodipodi-0.dtd"
   xmlns:inkscape="http://www.inkscape.org/namespaces/inkscape"
   version="1.1"
   id="Layer_1"
   sodipodi:docname="import_r.svg"
   inkscape:version="0.47 r22583"
   x="0px"
   y="0px"
   width="32px"
   height="32px"
   viewBox="0 0 32 32"
   enable-background="new 0 0 32 32"
   xml:space="preserve"><metadata
   id="metadata32"><rdf:RDF><cc:Work
       rdf:about=""><dc:format>image/svg+xml</dc:format><dc:type
         rdf:resource="http://purl.org/dc/dcmitype/StillImage" /></cc:Work></rdf:RDF></metadata><defs
   id="defs30"><inkscape:perspective
     sodipodi:type="inkscape:persp3d"
     inkscape:vp_x="0 : 16 : 1"
     inkscape:vp_y="0 : 1000 : 0"
     inkscape:vp_z="32 : 16 : 1"
     inkscape:persp3d-origin="16 : 10.666667 : 1"
     id="perspective34" /><inkscape:perspective
     id="perspective2884"
     inkscape:persp3d-origin="0.5 : 0.33333333 : 1"
     inkscape:vp_z="1 : 0.5 : 1"
     inkscape:vp_y="0 : 1000 : 0"
     inkscape:vp_x="0 : 0.5 : 1"
     sodipodi:type="inkscape:persp3d" /><linearGradient
     id="path1888_1_"
     gradientUnits="userSpaceOnUse"
     x1="16.1504"
     y1="-102.5024"
     x2="4.5823002"
     y2="-106.2398"
     gradientTransform="matrix(1,0,0,-1,2.46,-88.8398)"><stop
       offset="0"
       style="stop-color:#B1D2DB;stop-opacity:0"
       id="stop9" /><stop
       offset="1"
       style="stop-color:#0A4B5E"
       id="stop11" /></linearGradient><linearGradient
     id="path1890_1_"
     gradientUnits="userSpaceOnUse"
     x1="15.6743"
     y1="-105.1343"
     x2="22.506701"
     y2="-105.8007"
     gradientTransform="matrix(1,0,0,-1,2.46,-88.8398)"><stop
       offset="0"
       style="stop-color:#B1D2DB;stop-opacity:0"
       id="stop15" /><stop
       offset="1"
       style="stop-color:#7DD2ED"
       id="stop17" /></linearGradient><linearGradient
     id="ellipse1925_1_"
     gradientUnits="userSpaceOnUse"
     x1="160.1875"
     y1="-1061.8247"
     x2="184.2119"
     y2="-1061.8247"
     gradientTransform="matrix(1.133,0,0,-1.0789,-179.1028,-1142.9048)"><stop
       offset="0"
       style="stop-color:#848E8D"
       id="stop23" /><stop
       offset="0.0727"
       style="stop-color:#010101"
       id="stop25" /><stop
       offset="0.2061"
       style="stop-color:#D3D6D4"
       id="stop27" /><stop
       offset="0.6242"
       style="stop-color:#B4B4B5"
       id="stop29" /><stop
       offset="0.6657"
       style="stop-color:#8B9291"
       id="stop31" /><stop
       offset="0.7103"
       style="stop-color:#677270"
       id="stop33" /><stop
       offset="0.7466"
       style="stop-color:#515E5C"
       id="stop35" /><stop
       offset="0.7697"
       style="stop-color:#495755"
       id="stop37" /><stop
       offset="0.7719"
       style="stop-color:#4F5D5B"
       id="stop39" /><stop
       offset="0.7845"
       style="stop-color:#6E7876"
       id="stop41" /><stop
       offset="0.7983"
       style="stop-color:#878D8C"
       id="stop43" /><stop
       offset="0.8136"
       style="stop-color:#9B9F9E"
       id="stop45" /><stop
       offset="0.8311"
       style="stop-color:#A9ACAC"
       id="stop47" /><stop
       offset="0.8527"
       style="stop-color:#B2B2B2"
       id="stop49" /><stop
       offset="0.8909"
       style="stop-color:#B4B4B5"
       id="stop51" /><stop
       offset="1"
       style="stop-color:#495755"
       id="stop53" /></linearGradient><linearGradient
     id="ellipse1936_1_"
     gradientUnits="userSpaceOnUse"
     x1="160.1875"
     y1="-1061.8247"
     x2="184.2119"
     y2="-1061.8247"
     gradientTransform="matrix(1.133,0,0,-1.0789,-179.1028,-1142.9048)"><stop
       offset="0"
       style="stop-color:#010101"
       id="stop59" /><stop
       offset="1"
       style="stop-color:#010101;stop-opacity:0"
       id="stop61" /></linearGradient><inkscape:perspective
     id="perspective2884-3"
     inkscape:persp3d-origin="0.5 : 0.33333333 : 1"
     inkscape:vp_z="1 : 0.5 : 1"
     inkscape:vp_y="0 : 1000 : 0"
     inkscape:vp_x="0 : 0.5 : 1"
     sodipodi:type="inkscape:persp3d" /><linearGradient
     id="path1888_1_-7"
     gradientUnits="userSpaceOnUse"
     x1="16.1504"
     y1="-102.5024"
     x2="4.5823002"
     y2="-106.2398"
     gradientTransform="matrix(1,0,0,-1,2.46,-88.8398)"><stop
       offset="0"
       style="stop-color:#B1D2DB;stop-opacity:0"
       id="stop9-4" /><stop
       offset="1"
       style="stop-color:#0A4B5E"
       id="stop11-5" /></linearGradient><linearGradient
     id="path1890_1_-2"
     gradientUnits="userSpaceOnUse"
     x1="15.6743"
     y1="-105.1343"
     x2="22.506701"
     y2="-105.8007"
     gradientTransform="matrix(1,0,0,-1,2.46,-88.8398)"><stop
       offset="0"
       style="stop-color:#B1D2DB;stop-opacity:0"
       id="stop15-5" /><stop
       offset="1"
       style="stop-color:#7DD2ED"
       id="stop17-4" /></linearGradient><linearGradient
     id="ellipse1925_1_-7"
     gradientUnits="userSpaceOnUse"
     x1="160.1875"
     y1="-1061.8247"
     x2="184.2119"
     y2="-1061.8247"
     gradientTransform="matrix(1.133,0,0,-1.0789,-179.1028,-1142.9048)"><stop
       offset="0"
       style="stop-color:#848E8D"
       id="stop23-4" /><stop
       offset="0.0727"
       style="stop-color:#010101"
       id="stop25-4" /><stop
       offset="0.2061"
       style="stop-color:#D3D6D4"
       id="stop27-3" /><stop
       offset="0.6242"
       style="stop-color:#B4B4B5"
       id="stop29-0" /><stop
       offset="0.6657"
       style="stop-color:#8B9291"
       id="stop31-7" /><stop
       offset="0.7103"
       style="stop-color:#677270"
       id="stop33-8" /><stop
       offset="0.7466"
       style="stop-color:#515E5C"
       id="stop35-6" /><stop
       offset="0.7697"
       style="stop-color:#495755"
       id="stop37-8" /><stop
       offset="0.7719"
       style="stop-color:#4F5D5B"
       id="stop39-8" /><stop
       offset="0.7845"
       style="stop-color:#6E7876"
       id="stop41-4" /><stop
       offset="0.7983"
       style="stop-color:#878D8C"
       id="stop43-3" /><stop
       offset="0.8136"
       style="stop-color:#9B9F9E"
       id="stop45-1" /><stop
       offset="0.8311"
       style="stop-color:#A9ACAC"
       id="stop47-4" /><stop
       offset="0.8527"
       style="stop-color:#B2B2B2"
       id="stop49-9" /><stop
       offset="0.8909"
       style="stop-color:#B4B4B5"
       id="stop51-2" /><stop
       offset="1"
       style="stop-color:#495755"
       id="stop53-0" /></linearGradient><linearGradient
     id="ellipse1936_1_-6"
     gradientUnits="userSpaceOnUse"
     x1="160.1875"
     y1="-1061.8247"
     x2="184.2119"
     y2="-1061.8247"
     gradientTransform="matrix(1.133,0,0,-1.0789,-179.1028,-1142.9048)"><stop
       offset="0"
       style="stop-color:#010101"
       id="stop59-8" /><stop
       offset="1"
       style="stop-color:#010101;stop-opacity:0"
       id="stop61-9" /></linearGradient><inkscape:perspective
     id="perspective2884-2"
     inkscape:persp3d-origin="0.5 : 0.33333333 : 1"
     inkscape:vp_z="1 : 0.5 : 1"
     inkscape:vp_y="0 : 1000 : 0"
     inkscape:vp_x="0 : 0.5 : 1"
     sodipodi:type="inkscape:persp3d" /><linearGradient
     id="path1888_1_-6"
     gradientUnits="userSpaceOnUse"
     x1="16.1504"
     y1="-102.5024"
     x2="4.5823002"
     y2="-106.2398"
     gradientTransform="matrix(1,0,0,-1,2.46,-88.8398)"><stop
       offset="0"
       style="stop-color:#B1D2DB;stop-opacity:0"
       id="stop9-6" /><stop
       offset="1"
       style="stop-color:#0A4B5E"
       id="stop11-4" /></linearGradient><linearGradient
     id="path1890_1_-9"
     gradientUnits="userSpaceOnUse"
     x1="15.6743"
     y1="-105.1343"
     x2="22.506701"
     y2="-105.8007"
     gradientTransform="matrix(1,0,0,-1,2.46,-88.8398)"><stop
       offset="0"
       style="stop-color:#B1D2DB;stop-opacity:0"
       id="stop15-50" /><stop
       offset="1"
       style="stop-color:#7DD2ED"
       id="stop17-48" /></linearGradient><linearGradient
     id="ellipse1925_1_-71"
     gradientUnits="userSpaceOnUse"
     x1="160.1875"
     y1="-1061.8247"
     x2="184.2119"
     y2="-1061.8247"
     gradientTransform="matrix(1.133,0,0,-1.0789,-179.1028,-1142.9048)"><stop
       offset="0"
       style="stop-color:#848E8D"
       id="stop23-7" /><stop
       offset="0.0727"
       style="stop-color:#010101"
       id="stop25-2" /><stop
       offset="0.2061"
       style="stop-color:#D3D6D4"
       id="stop27-7" /><stop
       offset="0.6242"
       style="stop-color:#B4B4B5"
       id="stop29-2" /><stop
       offset="0.6657"
       style="stop-color:#8B9291"
       id="stop31-2" /><stop
       offset="0.7103"
       style="stop-color:#677270"
       id="stop33-6" /><stop
       offset="0.7466"
       style="stop-color:#515E5C"
       id="stop35-1" /><stop
       offset="0.7697"
       style="stop-color:#495755"
       id="stop37-0" /><stop
       offset="0.7719"
       style="stop-color:#4F5D5B"
       id="stop39-6" /><stop
       offset="0.7845"
       style="stop-color:#6E7876"
       id="stop41-1" /><stop
       offset="0.7983"
       style="stop-color:#878D8C"
       id="stop43-5" /><stop
       offset="0.8136"
       style="stop-color:#9B9F9E"
       id="stop45-9" /><stop
       offset="0.8311"
       style="stop-color:#A9ACAC"
       id="stop47-49" /><stop
       offset="0.8527"
       style="stop-color:#B2B2B2"
       id="stop49-0" /><stop
       offset="0.8909"
       style="stop-color:#B4B4B5"
       id="stop51-9" /><stop
       offset="1"
       style="stop-color:#495755"
       id="stop53-1" /></linearGradient><linearGradient
     id="ellipse1936_1_-7"
     gradientUnits="userSpaceOnUse"
     x1="160.1875"
     y1="-1061.8247"
     x2="184.2119"
     y2="-1061.8247"
     gradientTransform="matrix(1.133,0,0,-1.0789,-179.1028,-1142.9048)"><stop
       offset="0"
       style="stop-color:#010101"
       id="stop59-7" /><stop
       offset="1"
       style="stop-color:#010101;stop-opacity:0"
       id="stop61-1" /></linearGradient><inkscape:perspective
     id="perspective2884-1"
     inkscape:persp3d-origin="0.5 : 0.33333333 : 1"
     inkscape:vp_z="1 : 0.5 : 1"
     inkscape:vp_y="0 : 1000 : 0"
     inkscape:vp_x="0 : 0.5 : 1"
     sodipodi:type="inkscape:persp3d" /><linearGradient
     id="path1888_1_-5"
     gradientUnits="userSpaceOnUse"
     x1="16.1504"
     y1="-102.5024"
     x2="4.5823002"
     y2="-106.2398"
     gradientTransform="matrix(1,0,0,-1,2.46,-88.8398)"><stop
       offset="0"
       style="stop-color:#B1D2DB;stop-opacity:0"
       id="stop9-9" /><stop
       offset="1"
       style="stop-color:#0A4B5E"
       id="stop11-7" /></linearGradient><linearGradient
     id="path1890_1_-7"
     gradientUnits="userSpaceOnUse"
     x1="15.6743"
     y1="-105.1343"
     x2="22.506701"
     y2="-105.8007"
     gradientTransform="matrix(1,0,0,-1,2.46,-88.8398)"><stop
       offset="0"
       style="stop-color:#B1D2DB;stop-opacity:0"
       id="stop15-6" /><stop
       offset="1"
       style="stop-color:#7DD2ED"
       id="stop17-7" /></linearGradient><linearGradient
     id="ellipse1925_1_-3"
     gradientUnits="userSpaceOnUse"
     x1="160.1875"
     y1="-1061.8247"
     x2="184.2119"
     y2="-1061.8247"
     gradientTransform="matrix(1.133,0,0,-1.0789,-179.1028,-1142.9048)"><stop
       offset="0"
       style="stop-color:#848E8D"
       id="stop23-6" /><stop
       offset="0.0727"
       style="stop-color:#010101"
       id="stop25-5" /><stop
       offset="0.2061"
       style="stop-color:#D3D6D4"
       id="stop27-6" /><stop
       offset="0.6242"
       style="stop-color:#B4B4B5"
       id="stop29-3" /><stop
       offset="0.6657"
       style="stop-color:#8B9291"
       id="stop31-9" /><stop
       offset="0.7103"
       style="stop-color:#677270"
       id="stop33-4" /><stop
       offset="0.7466"
       style="stop-color:#515E5C"
       id="stop35-8" /><stop
       offset="0.7697"
       style="stop-color:#495755"
       id="stop37-1" /><stop
       offset="0.7719"
       style="stop-color:#4F5D5B"
       id="stop39-2" /><stop
       offset="0.7845"
       style="stop-color:#6E7876"
       id="stop41-9" /><stop
       offset="0.7983"
       style="stop-color:#878D8C"
       id="stop43-39" /><stop
       offset="0.8136"
       style="stop-color:#9B9F9E"
       id="stop45-0" /><stop
       offset="0.8311"
       style="stop-color:#A9ACAC"
       id="stop47-8" /><stop
       offset="0.8527"
       style="stop-color:#B2B2B2"
       id="stop49-8" /><stop
       offset="0.8909"
       style="stop-color:#B4B4B5"
       id="stop51-5" /><stop
       offset="1"
       style="stop-color:#495755"
       id="stop53-09" /></linearGradient><linearGradient
     id="ellipse1936_1_-63"
     gradientUnits="userSpaceOnUse"
     x1="160.1875"
     y1="-1061.8247"
     x2="184.2119"
     y2="-1061.8247"
     gradientTransform="matrix(1.133,0,0,-1.0789,-179.1028,-1142.9048)"><stop
       offset="0"
       style="stop-color:#010101"
       id="stop59-85" /><stop
       offset="1"
       style="stop-color:#010101;stop-opacity:0"
       id="stop61-6" /></linearGradient></defs><sodipodi:namedview
   pagecolor="#ffffff"
   bordercolor="#666666"
   borderopacity="1"
   objecttolerance="10"
   gridtolerance="10"
   guidetolerance="10"
   inkscape:pageopacity="0"
   inkscape:pageshadow="2"
   inkscape:window-width="1192"
   inkscape:window-height="1515"
   id="namedview28"
   showgrid="false"
   inkscape:zoom="11.092738"
   inkscape:cx="24.264513"
   inkscape:cy="55.11391"
   inkscape:window-x="0"
   inkscape:window-y="0"
   inkscape:window-maximized="1"
   inkscape:current-layer="Layer_1" />


<linearGradient
   id="path186_1_"
   gradientUnits="userSpaceOnUse"
   x1="581.3662"
   y1="817.6797"
   x2="592.7949"
   y2="817.6797"
   gradientTransform="matrix(1 0 0 1 -563.0801 -809.6797)">
	<stop
   offset="0"
   style="stop-color:#A46729"
   id="stop6" />
	<stop
   offset="0.5394"
   style="stop-color:#FAA81E"
   id="stop8" />
	<stop
   offset="1"
   style="stop-color:#FFF3E1"
   id="stop10" />
</linearGradient>

<path
   id="path10065"
   fill="#020202"
   d="M1,32c-0.553,0-1-0.447-1-1V16.332c0-0.552,0.447-1,1-1h7.426  c0.267,0,0.521,0.104,0.707,0.293l3.447,3.449c0.188,0.188,0.293,0.441,0.293,0.705V31c0,0.553-0.447,1-1,1H1z" />
<polygon
   id="polygon10067"
   fill="#FACC36"
   points="8.449,16.332 1.024,16.332 1.024,31 11.896,31 11.896,19.779 " />
<polygon
   id="polygon10069"
   fill="#FFFFFF"
   points="10.902,19.311 10.902,29.924 1.973,29.924 1.973,17.326 8.918,17.326   9.867,18.404 " />
<path
   id="path10071"
   fill="#020202"
   d="M8.449,20.779c-0.554,0-1-0.447-1-1v-3.447c0-0.403,0.242-0.769,0.616-0.924  c0.123-0.052,0.254-0.076,0.384-0.076c0.26,0,0.516,0.103,0.706,0.293l3.447,3.449c0.286,0.285,0.372,0.715,0.217,1.09  c-0.153,0.373-0.521,0.615-0.924,0.615H8.449z" />
<polygon
   id="polygon10073"
   fill="#FACC36"
   points="8.449,19.779 11.896,19.779 8.449,16.332 " />
<path
   id="path10238"
   d="m 10.71759,13.50245 c -0.146,0 -0.295,-0.032 -0.432,-0.099 -0.3420004,-0.164 -0.5610004,-0.504 -0.5680004,-0.883 l -0.047,-2.463 c -0.492,-0.03 -0.918,-0.044 -1.322,-0.044 -3.021,0 -4.822,0.885 -5.832,2.87 -0.172,0.339 -0.52,0.546 -0.891,0.546 -0.058,0 -0.113,-0.005 -0.17,-0.015 -0.433,-0.074 -0.76699996,-0.421 -0.82199996,-0.854 -0.014,-0.105 -0.316,-2.5989998 1.55299996,-4.8119998 1.547,-1.834 4.064,-2.902 7.488,-3.182 l 0.043,-1.951 c 0.01,-0.377 0.229,-0.718 0.5700004,-0.88 0.137,-0.065 0.284,-0.098 0.43,-0.098 0.219,0 0.434,0.071 0.611,0.208 l 6.383,4.934 c 0.246,0.188 0.389,0.48 0.389,0.791 0,0.31 -0.143,0.602 -0.389,0.791 l -6.383,4.9329998 c -0.179,0.137 -0.394,0.208 -0.611,0.208 l 0,0 z"
   style="fill:#020202" />
<linearGradient
   id="path7827_1_"
   gradientUnits="userSpaceOnUse"
   x1="70.1035"
   y1="2423.46"
   x2="93.9365"
   y2="2423.46"
   gradientTransform="matrix(-0.6552,0,0,0.6552,63.06089,-1580.2812)">
	<stop
   offset="0"
   style="stop-color:#39ADDB"
   id="stop20" />
	<stop
   offset="0.5"
   style="stop-color:#A8CEDE"
   id="stop22" />
	<stop
   offset="1"
   style="stop-color:#2175BB"
   id="stop24" />
</linearGradient>
<path
   id="path7827_14_"
   enable-background="new    "
   d="m 10.68459,2.6374502 -0.063,2.872 c -9.88800036,0.382 -9.0270004,6.9199998 -9.0270004,6.9199998 1.83,-3.6019998 5.631,-3.5919998 9.0270004,-3.3009998 l 0.063,3.3729998 6.383,-4.9319998 -6.383,-4.932 z"
   style="opacity:0.98000004;fill:url(#path7827_1_)" />
<path
   id="path4454_2_"
   enable-background="new    "
   d="m 11.35859,11.09145 -0.049,-2.6069998 -0.631,-0.053 c -0.9550004,-0.084 -1.6860004,-0.119 -2.3670004,-0.119 -1.651,0 -3.799,0.199 -5.52,1.543 0.164,-0.332 0.379,-0.674 0.662,-1.01 1.363,-1.614 3.783,-2.502 7.1910004,-2.635 l 0.66,-0.024 0.048,-2.143 4.564,3.526 -4.558,3.5219998 z"
   style="opacity:0.98000004;fill:#1d78a0" />
<g
   transform="matrix(0.5,0,0,0.5,16.2501,0.47109222)"
   id="g3"><path
     style="fill:#231f20"
     d="m 16.008,31.878 c -1.389,0 -2.28,-0.502 -2.377,-1.322 L 10.654,19.5 1.691,10.265 C 1.5,10.078 1.392,9.823 1.391,9.556 l 0,-6.855 C 1.389,2.149 1.834,1.699 2.387,1.697 c 10e-4,0 0.002,0 0.004,0 0.551,0 0.998,0.444 1,0.995 v 6.437 l 8.874,9.147 c 0.137,0.134 0.231,0.304 0.274,0.49 l 2.979,11.067 c 0.243,0.047 0.733,0.047 0.978,0.001 l 2.969,-11.068 c 0.043,-0.189 0.141,-0.361 0.279,-0.496 l 8.863,-9.029 0.016,-6.543 c 0,-0.553 0.447,-1 1,-1.001 l 0,0 c 0.553,0 1,0.446 1,0.999 l -0.016,6.969 c 0,0.271 -0.109,0.532 -0.305,0.721 l -8.956,9.118 -2.959,11.025 c -0.079,0.835 -0.977,1.349 -2.379,1.349 l 0,0 z"
     id="path5" /><path
     style="fill:#08acda"
     id="path1874"
     d="m 2.39,2.697 10e-4,6.854 9.172,9.439 3.059,11.414 0,0 c 0,0.262 0.621,0.474 1.385,0.474 0.767,0 1.387,-0.212 1.387,-0.474 0,-0.003 -0.002,-0.005 -0.002,-0.007 L 20.438,18.99 29.607,9.666 29.623,2.697" /><linearGradient
     id="linearGradient2917"
     gradientUnits="userSpaceOnUse"
     x1="16.1504"
     y1="-102.5024"
     x2="4.5823002"
     y2="-106.2398"
     gradientTransform="matrix(1,0,0,-1,2.46,-88.8398)"><stop
       offset="0"
       style="stop-color:#B1D2DB;stop-opacity:0"
       id="stop2919" /><stop
       offset="1"
       style="stop-color:#0A4B5E"
       id="stop2921" /></linearGradient><path
     style="fill:url(#path1888_1_-5)"
     id="path1888"
     d="m 2.39,2.697 10e-4,6.854 9.172,9.439 3.115,11.541 c 0,0 0.678,0.29 1.052,0.269 l -0.746,-10.796 -3.435,-8.969 0.02,-6.763" /><linearGradient
     id="linearGradient2924"
     gradientUnits="userSpaceOnUse"
     x1="15.6743"
     y1="-105.1343"
     x2="22.506701"
     y2="-105.8007"
     gradientTransform="matrix(1,0,0,-1,2.46,-88.8398)"><stop
       offset="0"
       style="stop-color:#B1D2DB;stop-opacity:0"
       id="stop2926" /><stop
       offset="1"
       style="stop-color:#7DD2ED"
       id="stop2928" /></linearGradient><path
     style="fill:url(#path1890_1_-7)"
     id="path1890"
     d="m 29.621,2.698 -0.016,6.969 -9.189,9.4 -3.053,11.436 c 0,0 -0.511,0.368 -0.885,0.348 l 1.96,-11.502 3.159,-8.313 0.02,-6.764" /><path
     style="fill:#231f20"
     d="M 16,5.272 C 1.39,5.272 1.39,3.401 1.39,2.697 c 0,-0.704 0,-2.575 14.61,-2.575 14.609,0 14.609,1.871 14.609,2.575 0,0.704 0,2.575 -14.609,2.575 l 0,0 z"
     id="path20" /><linearGradient
     id="linearGradient2932"
     gradientUnits="userSpaceOnUse"
     x1="160.1875"
     y1="-1061.8247"
     x2="184.2119"
     y2="-1061.8247"
     gradientTransform="matrix(1.133,0,0,-1.0789,-179.1028,-1142.9048)"><stop
       offset="0"
       style="stop-color:#848E8D"
       id="stop2934" /><stop
       offset="0.0727"
       style="stop-color:#010101"
       id="stop2936" /><stop
       offset="0.2061"
       style="stop-color:#D3D6D4"
       id="stop2938" /><stop
       offset="0.6242"
       style="stop-color:#B4B4B5"
       id="stop2940" /><stop
       offset="0.6657"
       style="stop-color:#8B9291"
       id="stop2942" /><stop
       offset="0.7103"
       style="stop-color:#677270"
       id="stop2944" /><stop
       offset="0.7466"
       style="stop-color:#515E5C"
       id="stop2946" /><stop
       offset="0.7697"
       style="stop-color:#495755"
       id="stop2948" /><stop
       offset="0.7719"
       style="stop-color:#4F5D5B"
       id="stop2950" /><stop
       offset="0.7845"
       style="stop-color:#6E7876"
       id="stop2952" /><stop
       offset="0.7983"
       style="stop-color:#878D8C"
       id="stop2954" /><stop
       offset="0.8136"
       style="stop-color:#9B9F9E"
       id="stop2956" /><stop
       offset="0.8311"
       style="stop-color:#A9ACAC"
       id="stop2958" /><stop
       offset="0.8527"
       style="stop-color:#B2B2B2"
       id="stop2960" /><stop
       offset="0.8909"
       style="stop-color:#B4B4B5"
       id="stop2962" /><stop
       offset="1"
       style="stop-color:#495755"
       id="stop2964" /></linearGradient><ellipse
     d="M 29.609,2.697 C 29.609,3.5668485 23.516043,4.2720001 16,4.2720001 8.4839567,4.2720001 2.3909998,3.5668485 2.3909998,2.697 2.3909998,1.8271515 8.4839567,1.122 16,1.122 c 7.516043,0 13.609,0.7051515 13.609,1.575 z"
     style="fill:url(#ellipse1925_1_-3)"
     sodipodi:ry="1.575"
     sodipodi:rx="13.609"
     sodipodi:cy="2.697"
     sodipodi:cx="16"
     id="ellipse1925"
     cx="16"
     cy="2.697"
     rx="13.609"
     ry="1.575" /><path
     style="fill:none;stroke:#010101"
     id="path1927"
     d="m 30.125,9.183 c 0,1.082 -6.611,1.959 -14.127,1.959 -7.515,0 -14.123,-0.877 -14.123,-1.959" /><path
     style="fill:none;stroke:#010101"
     id="path1929"
     d="m 20.858,19.146 c 0,0.56 -2.414,1.014 -4.864,1.014 -2.449,0 -4.761,-0.454 -4.761,-1.014" /><linearGradient
     id="linearGradient2969"
     gradientUnits="userSpaceOnUse"
     x1="160.1875"
     y1="-1061.8247"
     x2="184.2119"
     y2="-1061.8247"
     gradientTransform="matrix(1.133,0,0,-1.0789,-179.1028,-1142.9048)"><stop
       offset="0"
       style="stop-color:#010101"
       id="stop2971" /><stop
       offset="1"
       style="stop-color:#010101;stop-opacity:0"
       id="stop2973" /></linearGradient><ellipse
     d="M 29.609,2.697 C 29.609,3.5668485 23.516043,4.2720001 16,4.2720001 8.4839567,4.2720001 2.3909998,3.5668485 2.3909998,2.697 2.3909998,1.8271515 8.4839567,1.122 16,1.122 c 7.516043,0 13.609,0.7051515 13.609,1.575 z"
     style="opacity:0.61000001;fill:url(#ellipse1936_1_-63)"
     sodipodi:ry="1.575"
     sodipodi:rx="13.609"
     sodipodi:cy="2.697"
     sodipodi:cx="16"
     id="ellipse1936"
     enable-background="new    "
     cx="16"
     cy="2.697"
     rx="13.609"
     ry="1.575" /></g></svg>