<?xml version="1.0" encoding="utf-8"?>
<!-- Generator: Adobe Illustrator 14.0.0, SVG Export Plug-In . SVG Version: 6.00 Build 43363)  -->
<!DOCTYPE svg PUBLIC "-//W3C//DTD SVG 1.1//EN" "http://www.w3.org/Graphics/SVG/1.1/DTD/svg11.dtd">
<svg version="1.1"
	 id="svg2" sodipodi:docbase="C:\Radix\dev\trunk\org.radixware\kernel\designer\src\common.resources\src\org\radixware\kernel\designer\resources\icons\widgets" inkscape:version="0.46" sodipodi:docname="dateedit.svg" sodipodi:version="0.32" inkscape:output_extension="org.inkscape.output.svg.inkscape" xmlns:sodipodi="http://sodipodi.sourceforge.net/DTD/sodipodi-0.dtd" xmlns:cc="http://creativecommons.org/ns#" xmlns:dc="http://purl.org/dc/elements/1.1/" xmlns:rdf="http://www.w3.org/1999/02/22-rdf-syntax-ns#" xmlns:svg="http://www.w3.org/2000/svg" xmlns:inkscape="http://www.inkscape.org/namespaces/inkscape"
	 xmlns="http://www.w3.org/2000/svg" xmlns:xlink="http://www.w3.org/1999/xlink" x="0px" y="0px" width="24px" height="24px"
	 viewBox="4 4 24 24" enable-background="new 4 4 24 24" xml:space="preserve">
<g>
	<g>
		<path fill="#FFFFFF" stroke="#000000" stroke-width="1.0238" d="M5.537,20.938c-0.566,0-1.024-0.458-1.024-1.023v-7.827
			c0-0.565,0.458-1.024,1.024-1.024h20.928c0.566,0,1.023,0.459,1.023,1.024v7.827c0,0.565-0.457,1.023-1.023,1.023H5.537z"/>
		<rect x="5.537" y="12.087" fill="#FFFFFF" width="20.928" height="7.827"/>
	</g>
	<g>
		<path d="M8.046,17.04l-0.896,1.783H6.414l2.924-5.646h0.813l0.787,5.646h-0.712L9.991,17.04H8.046z M9.941,16.487l-0.218-1.634
			c-0.034-0.293-0.076-0.712-0.101-1.039H9.605c-0.15,0.335-0.293,0.688-0.46,1.03l-0.847,1.643H9.941z"/>
		<path d="M13.66,13.254c0.352-0.067,0.754-0.117,1.215-0.117c0.578,0,1.004,0.117,1.297,0.385c0.268,0.218,0.413,0.511,0.413,0.879
			c0,0.721-0.58,1.248-1.216,1.416v0.018c0.503,0.15,0.922,0.577,0.922,1.256c0,0.578-0.302,1.039-0.671,1.315
			c-0.451,0.334-1.072,0.46-1.834,0.46c-0.485,0-0.904-0.033-1.164-0.083L13.66,13.254z M13.399,18.271
			c0.177,0.025,0.378,0.034,0.571,0.034c0.82,0,1.59-0.344,1.59-1.248c0-0.662-0.561-0.955-1.188-0.955h-0.57L13.399,18.271z
			 M13.911,15.574h0.52c0.812,0,1.433-0.419,1.433-1.106c0-0.545-0.41-0.778-1.023-0.778c-0.259,0-0.467,0.017-0.576,0.05
			L13.911,15.574z"/>
	</g>
	<g>
		<polyline fill="none" stroke="#000000" stroke-width="0.6984" stroke-linecap="round" points="20.598,13.359 21.811,13.359 
			22.586,14.059 23.545,13.359 24.822,13.359 		"/>
		<polyline fill="none" stroke="#000000" stroke-width="0.6984" stroke-linecap="round" points="20.055,18.642 21.275,18.642 
			22.197,17.943 23.021,18.642 24.311,18.642 		"/>
		<line fill="none" stroke="#000000" stroke-width="0.6984" x1="22.621" y1="13.709" x2="22.197" y2="17.943"/>
	</g>
</g>
</svg>
