<?xml version="1.0" encoding="UTF-8" standalone="no"?>
<!-- Created with Inkscape (http://www.inkscape.org/) -->
<svg
   xmlns:dc="http://purl.org/dc/elements/1.1/"
   xmlns:cc="http://creativecommons.org/ns#"
   xmlns:rdf="http://www.w3.org/1999/02/22-rdf-syntax-ns#"
   xmlns:svg="http://www.w3.org/2000/svg"
   xmlns="http://www.w3.org/2000/svg"
   xmlns:xlink="http://www.w3.org/1999/xlink"
   xmlns:sodipodi="http://sodipodi.sourceforge.net/DTD/sodipodi-0.dtd"
   xmlns:inkscape="http://www.inkscape.org/namespaces/inkscape"
   width="32px"
   height="32px"
   id="svg2470"
   sodipodi:version="0.32"
   inkscape:version="0.46"
   sodipodi:docbase="D:\dbp\JavaExplorer\src\images"
   sodipodi:docname="pretty_text.svg"
   inkscape:output_extension="org.inkscape.output.svg.inkscape">
  <defs
     id="defs2472">
    <filter
       inkscape:collect="always"
       id="filter9240"
       x="-0.23204215"
       width="1.4640843"
       y="-0.24858561"
       height="1.4971712">
      <feGaussianBlur
         inkscape:collect="always"
         stdDeviation="4.0515571"
         id="feGaussianBlur9242" />
    </filter>
    <linearGradient
       id="linearGradient9094">
      <stop
         style="stop-color:#303030;stop-opacity:1;"
         offset="0"
         id="stop9096" />
      <stop
         style="stop-color:#dfdfdf;stop-opacity:1;"
         offset="1"
         id="stop9098" />
    </linearGradient>
    <linearGradient
       inkscape:collect="always"
       xlink:href="#linearGradient9094"
       id="linearGradient9522"
       gradientUnits="userSpaceOnUse"
       gradientTransform="matrix(0.7980725,0,0,0.5118952,12.622274,31.069864)"
       x1="-32.178493"
       y1="-10.55899"
       x2="-27.468493"
       y2="-10.55899" />
    <linearGradient
       id="linearGradient9196">
      <stop
         style="stop-color:#ffffff;stop-opacity:1;"
         offset="0"
         id="stop9198" />
      <stop
         style="stop-color:#869cff;stop-opacity:1;"
         offset="1"
         id="stop9200" />
    </linearGradient>
    <radialGradient
       inkscape:collect="always"
       xlink:href="#linearGradient9196"
       id="radialGradient9520"
       gradientUnits="userSpaceOnUse"
       gradientTransform="matrix(1,0,0,0.8731217,0,-2.2534509)"
       cx="13.503325"
       cy="-24.096737"
       fx="13.503325"
       fy="-24.096737"
       r="35.513508" />
    <inkscape:perspective
       sodipodi:type="inkscape:persp3d"
       inkscape:vp_x="0 : 16 : 1"
       inkscape:vp_y="0 : 1000 : 0"
       inkscape:vp_z="32 : 16 : 1"
       inkscape:persp3d-origin="16 : 10.666667 : 1"
       id="perspective15" />
  </defs>
  <sodipodi:namedview
     id="base"
     pagecolor="#ffffff"
     bordercolor="#666666"
     borderopacity="1.0"
     inkscape:pageopacity="0.0"
     inkscape:pageshadow="2"
     inkscape:zoom="9.4932979"
     inkscape:cx="-3.9378864"
     inkscape:cy="24.815871"
     inkscape:current-layer="layer1"
     showgrid="true"
     inkscape:grid-bbox="true"
     inkscape:document-units="px"
     inkscape:window-width="1280"
     inkscape:window-height="944"
     inkscape:window-x="0"
     inkscape:window-y="44" />
  <metadata
     id="metadata2475">
    <rdf:RDF>
      <cc:Work
         rdf:about="">
        <dc:format>image/svg+xml</dc:format>
        <dc:type
           rdf:resource="http://purl.org/dc/dcmitype/StillImage" />
      </cc:Work>
    </rdf:RDF>
  </metadata>
  <g
     id="layer1"
     inkscape:label="Layer 1"
     inkscape:groupmode="layer">
    <g
       id="g3570"
       transform="matrix(1.1609704,0,0,1.1609704,-12.000503,-14.26932)">
      <path
         id="path1321"
         d="M 16.251227,13.394505 C 11.251227,17.890088 11.251227,17.890088 11.251227,17.890088 C 16.251227,22.394504 16.251227,22.394504 16.251227,22.394504"
         style="fill:none;fill-opacity:0.75;fill-rule:evenodd;stroke:#000000;stroke-width:1px;stroke-linecap:butt;stroke-linejoin:miter;stroke-opacity:1" />
      <path
         transform="scale(0.8238112,1.2138703)"
         style="font-size:9.88573074px;font-style:normal;font-weight:normal;fill:#ff0000;fill-opacity:1;stroke:none;stroke-width:1px;stroke-linecap:butt;stroke-linejoin:miter;stroke-opacity:1;font-family:Bitstream Vera Sans"
         d="M 24.760717,16.857605 C 24.438912,17.131137 24.129178,17.324217 23.831516,17.436847 C 23.533847,17.549478 23.21446,17.605793 22.873353,17.605793 C 22.310199,17.605793 21.877377,17.468223 21.574885,17.193083 C 21.272392,16.917944 21.121145,16.566376 21.121146,16.13838 C 21.121145,15.887376 21.178265,15.658093 21.292505,15.45053 C 21.406744,15.24297 21.556381,15.076438 21.741417,14.950934 C 21.926452,14.825434 22.134818,14.730503 22.366516,14.66614 C 22.537069,14.62109 22.79451,14.577647 23.138839,14.53581 C 23.840362,14.452145 24.356853,14.352387 24.688311,14.236535 C 24.691525,14.117472 24.693134,14.041849 24.693138,14.009665 C 24.693134,13.655688 24.611075,13.406292 24.44696,13.261478 C 24.224914,13.065183 23.895068,12.967034 23.457422,12.96703 C 23.048732,12.967034 22.747044,13.038635 22.552356,13.181832 C 22.357665,13.325037 22.213659,13.578456 22.120338,13.942087 L 21.270783,13.826239 C 21.348015,13.462607 21.475126,13.168964 21.652118,12.945308 C 21.829107,12.721661 22.084939,12.549498 22.419613,12.428817 C 22.754285,12.308147 23.142055,12.247809 23.582924,12.247804 C 24.020571,12.247809 24.376161,12.299297 24.649695,12.402269 C 24.923222,12.50525 25.124347,12.634775 25.253072,12.790843 C 25.381788,12.946922 25.471892,13.144025 25.523385,13.382153 C 25.552343,13.530186 25.566824,13.79728 25.566828,14.183438 L 25.566828,15.341922 C 25.566824,16.149644 25.585327,16.660503 25.622339,16.8745 C 25.659341,17.088498 25.732551,17.293646 25.841968,17.489944 L 24.934489,17.489944 C 24.844381,17.309736 24.786457,17.098956 24.760717,16.857605 L 24.760717,16.857605 z M 24.688311,14.917144 C 24.372943,15.045867 23.899895,15.15528 23.269168,15.245382 C 22.911967,15.296872 22.659353,15.354796 22.511327,15.419154 C 22.363297,15.483516 22.249057,15.577643 22.168608,15.701535 C 22.088157,15.82543 22.047932,15.963 22.047933,16.114245 C 22.047932,16.345943 22.135622,16.539023 22.311005,16.693487 C 22.486385,16.847952 22.743022,16.925184 23.080915,16.925183 C 23.415585,16.925184 23.713251,16.851974 23.973913,16.705554 C 24.234568,16.559136 24.42604,16.358815 24.548328,16.104591 C 24.641646,15.908293 24.688307,15.618673 24.688311,15.235728 L 24.688311,14.917144 z M 27.719678,17.489944 L 26.913566,17.489944 L 26.913566,10.413538 L 27.782429,10.413538 L 27.782429,12.938067 C 28.149281,12.477897 28.617501,12.247809 29.187091,12.247804 C 29.502453,12.247809 29.800923,12.311365 30.082503,12.438471 C 30.364075,12.565588 30.595771,12.744187 30.777593,12.97427 C 30.959406,13.204362 31.101803,13.481915 31.204784,13.806931 C 31.307756,14.131953 31.359244,14.479498 31.359249,14.849566 C 31.359244,15.728085 31.142028,16.407085 30.707602,16.886567 C 30.273166,17.366051 29.751849,17.605793 29.143648,17.605793 C 28.53866,17.605793 28.064004,17.353179 27.719678,16.847951 L 27.719678,17.489944 z M 27.710024,14.888182 C 27.710023,15.502824 27.793691,15.94691 27.961029,16.220439 C 28.234558,16.667743 28.604629,16.891395 29.071243,16.891394 C 29.450965,16.891395 29.779202,16.726472 30.055954,16.396625 C 30.332699,16.06678 30.471074,15.57523 30.471078,14.921971 C 30.471074,14.252628 30.338331,13.758664 30.072849,13.440077 C 29.807359,13.121498 29.486363,12.962207 29.109859,12.962203 C 28.730131,12.962207 28.401894,13.12713 28.125148,13.456972 C 27.848397,13.786822 27.710023,14.263891 27.710024,14.888182 L 27.710024,14.888182 z M 35.766316,15.612235 L 36.620698,15.723256 C 36.527371,16.312153 36.288433,16.773133 35.903886,17.106197 C 35.519329,17.439261 35.047087,17.605793 34.487156,17.605793 C 33.785628,17.605793 33.221672,17.37651 32.795287,16.917943 C 32.3689,16.459377 32.155707,15.802099 32.155707,14.946107 C 32.155707,14.392612 32.24742,13.908301 32.430847,13.493174 C 32.614273,13.078055 32.893435,12.766713 33.268334,12.559147 C 33.643231,12.35159 34.051113,12.247809 34.491983,12.247804 C 35.048696,12.247809 35.504044,12.388597 35.858029,12.670168 C 36.212006,12.951749 36.438875,13.351586 36.538638,13.869682 L 35.69391,14.000011 C 35.613456,13.655688 35.471059,13.396638 35.266719,13.222861 C 35.062372,13.049093 34.81539,12.962207 34.525772,12.962203 C 34.08812,12.962207 33.73253,13.119085 33.459001,13.432837 C 33.185469,13.746597 33.048704,14.242974 33.048705,14.921971 C 33.048704,15.610628 33.180642,16.111028 33.44452,16.423174 C 33.708395,16.735322 34.052722,16.891395 34.477502,16.891394 C 34.818608,16.891395 35.103402,16.78681 35.331884,16.577638 C 35.560359,16.368469 35.705169,16.046668 35.766316,15.612235 L 35.766316,15.612235 z"
         id="text1325" />
    </g>
    <g
       id="g3564"
       transform="matrix(0.9967731,0,0,0.9967731,8.4868171,3.1664557)">
      <path
         id="path1323"
         d="M 17.017174,24.053484 C 22.017174,19.557901 22.017174,19.557901 22.017174,19.557901 C 17.017174,15.053484 17.017174,15.053484 17.017174,15.053484"
         style="fill:none;fill-opacity:0.75;fill-rule:evenodd;stroke:#000000;stroke-width:1px;stroke-linecap:butt;stroke-linejoin:miter;stroke-opacity:1" />
      <path
         id="path1329"
         d="M 16.427871,13.157016 C 10.894996,24.588812 10.894996,24.588812 10.894996,24.588812"
         style="fill:none;fill-opacity:0.75;fill-rule:evenodd;stroke:#000000;stroke-width:1px;stroke-linecap:butt;stroke-linejoin:miter;stroke-opacity:1" />
      <text
         transform="scale(0.9725168,1.0282598)"
         id="text2204"
         y="23.270733"
         x="-0.10101869"
         style="font-size:11.67020321px;font-style:normal;font-weight:normal;fill:#ff0000;fill-opacity:1;stroke:none;stroke-width:1px;stroke-linecap:butt;stroke-linejoin:miter;stroke-opacity:1;font-family:Bitstream Vera Sans"
         xml:space="preserve"><tspan
           y="23.270733"
           x="-0.10101869"
           id="tspan2206"
           sodipodi:role="line"
           style="fill:#ff0000;fill-opacity:1">...</tspan></text>
    </g>
    <g
       transform="matrix(-0.5666731,-0.566673,-0.566673,0.5666731,25.080454,18.700239)"
       id="g3527">
      <path
         sodipodi:type="arc"
         style="fill:none;fill-opacity:1;fill-rule:evenodd;stroke:#000000;stroke-width:6.94038153;stroke-linecap:square;stroke-linejoin:miter;stroke-miterlimit:4;stroke-dasharray:none;stroke-opacity:1"
         id="path8566"
         sodipodi:cx="-5.6813426"
         sodipodi:cy="-17.760727"
         sodipodi:rx="35.263508"
         sodipodi:ry="30.757614"
         d="M 29.582165,-17.760727 A 35.263508,30.757614 0 1 1 -40.94485,-17.760727 A 35.263508,30.757614 0 1 1 29.582165,-17.760727 z"
         transform="matrix(-0.201863,2.5687565e-3,-2.9450089e-3,0.2314352,9.6144972,12.503178)" />
      <path
         sodipodi:type="arc"
         style="opacity:0.6;fill:url(#radialGradient9520);fill-opacity:1;fill-rule:evenodd;stroke:#000000;stroke-width:0.5;stroke-linecap:square;stroke-linejoin:miter;stroke-miterlimit:4;stroke-dasharray:none;stroke-opacity:1"
         id="path9077"
         sodipodi:cx="-5.6813426"
         sodipodi:cy="-17.760727"
         sodipodi:rx="35.263508"
         sodipodi:ry="30.757614"
         d="M 29.582165,-17.760727 A 35.263508,30.757614 0 1 1 -40.94485,-17.760727 A 35.263508,30.757614 0 1 1 29.582165,-17.760727 z"
         transform="matrix(-0.1972115,2.5095927e-3,-2.8771469e-3,0.2261023,9.6421297,12.408125)" />
      <path
         style="fill:#000000;fill-opacity:1;fill-rule:evenodd;stroke:#000000;stroke-width:0.20281853;stroke-linecap:square;stroke-linejoin:miter;stroke-miterlimit:4;stroke-opacity:1"
         d="M 11.88277,15.731326 L 12.462246,19.910714 L 11.028293,19.929882 L 10.599019,19.935619 L 9.1650649,19.954787 L 9.8460069,15.75855 L 10.649752,15.747808 L 11.079025,15.742069 L 11.88277,15.731326 z"
         id="path9085" />
      <rect
         style="fill:url(#linearGradient9522);fill-opacity:1;fill-rule:evenodd;stroke:none;stroke-width:0.2;stroke-linecap:square;stroke-linejoin:miter;stroke-miterlimit:4;stroke-dasharray:none;stroke-opacity:1"
         id="rect9092"
         width="3.451726"
         height="11.234564"
         x="-12.904901"
         y="20.047485"
         ry="0"
         transform="matrix(-0.9999605,8.8869658e-3,-1.8217014e-2,0.9998341,0,0)" />
      <rect
         style="fill:none;fill-opacity:1;fill-rule:evenodd;stroke:#000000;stroke-width:0.12771969;stroke-linecap:square;stroke-linejoin:miter;stroke-miterlimit:4;stroke-dasharray:none;stroke-opacity:1"
         id="rect9102"
         width="3.4456527"
         height="11.234488"
         x="-12.908176"
         y="19.992447"
         ry="0"
         transform="matrix(-0.9999617,8.7494916e-3,-1.8503166e-2,0.9998288,0,0)" />
      <path
         sodipodi:type="arc"
         style="fill:#ffffff;fill-opacity:1;fill-rule:evenodd;stroke:none;stroke-width:0.5;stroke-linecap:square;stroke-linejoin:miter;stroke-miterlimit:4;stroke-dasharray:none;stroke-opacity:1;filter:url(#filter9240)"
         id="path9236"
         sodipodi:cx="-5.6813426"
         sodipodi:cy="-17.760727"
         sodipodi:rx="35.263508"
         sodipodi:ry="30.757614"
         d="M 29.582165,-17.760727 A 35.263508,30.757614 0 0 1 -21.434337,9.7572702"
         transform="matrix(-3.1310338e-2,-0.1673455,-0.1965797,3.3363562e-2,7.6609281,8.0589799)"
         sodipodi:start="0"
         sodipodi:end="2.0338947"
         sodipodi:open="true" />
    </g>
  </g>
</svg>
