<?xml version="1.0" encoding="utf-8"?>
<!-- Generator: Adobe Illustrator 14.0.0, SVG Export Plug-In . SVG Version: 6.00 Build 43363)  -->
<!DOCTYPE svg PUBLIC "-//W3C//DTD SVG 1.1//EN" "http://www.w3.org/Graphics/SVG/1.1/DTD/svg11.dtd">
<svg version="1.1" id="Layer_1" xmlns="http://www.w3.org/2000/svg" xmlns:xlink="http://www.w3.org/1999/xlink" x="0px" y="0px"
	 width="32px" height="32px" viewBox="0 0 32 32" enable-background="new 0 0 32 32" xml:space="preserve">
<g id="g20887-2_2_" transform="translate(-5.5755111,29.767864)">
	<g>
		<g nodetypes="cccccccc">
			<path d="M22.92-1.716c-0.236,0-0.47-0.084-0.656-0.245L9.51-13.04c-0.219-0.19-0.345-0.466-0.344-0.756
				c0-0.291,0.126-0.566,0.346-0.755l12.755-11.025c0.185-0.16,0.418-0.244,0.654-0.244c0.141,0,0.283,0.03,0.416,0.091
				c0.355,0.163,0.584,0.518,0.584,0.909v4.283h9.065c0.553,0,1,0.448,1,1V-8.09c0,0.553-0.447,1-1,1H23.92v4.374
				c0,0.392-0.229,0.747-0.585,0.91C23.202-1.745,23.061-1.716,22.92-1.716L22.92-1.716z"/>
		</g>
	</g>
</g>
<g id="g20887-2_1_" transform="translate(-5.5755111,29.767864)">
	<path id="path4348-2-1_1_" nodetypes="cccccccc" fill="#00ADDC" d="M22.92-2.716L10.165-13.795L22.92-24.82v5.283h10.065
		V-8.09H22.92V-2.716z"/>
</g>
<g id="g20887-2_3_" transform="translate(-5.5755111,29.767864)">
	<g>
		<g nodetypes="cccccccc">
			
				<linearGradient id="SVGID_1_" gradientUnits="userSpaceOnUse" x1="21.3123" y1="-5.0374" x2="21.3123" y2="-21.8313" gradientTransform="matrix(-1 0 0 1 43.151 0)">
				<stop  offset="0" style="stop-color:#B2D3DC"/>
				<stop  offset="1" style="stop-color:#027C9E"/>
			</linearGradient>
			<polygon fill="url(#SVGID_1_)" points="11.692,-13.793 21.92,-22.634 21.92,-18.537 31.986,-18.537 31.986,-9.09 21.92,-9.09 
				21.92,-4.909 			"/>
		</g>
	</g>
</g>
</svg>
