<?xml version="1.0" encoding="utf-8"?>
<!-- Generator: Adobe Illustrator 14.0.0, SVG Export Plug-In . SVG Version: 6.00 Build 43363)  -->
<!DOCTYPE svg PUBLIC "-//W3C//DTD SVG 1.1//EN" "http://www.w3.org/Graphics/SVG/1.1/DTD/svg11.dtd">
<svg version="1.1"
	 id="svg2" xmlns:ns="http://creativecommons.org/ns#" xmlns:dc="http://purl.org/dc/elements/1.1/" xmlns:cc="http://web.resource.org/cc/" xmlns:rdf="http://www.w3.org/1999/02/22-rdf-syntax-ns#" xmlns:svg="http://www.w3.org/2000/svg" xmlns:sodipodi="http://sodipodi.sourceforge.net/DTD/sodipodi-0.dtd" xmlns:inkscape="http://www.inkscape.org/namespaces/inkscape" sodipodi:version="0.32" inkscape:version="0.45.1" sodipodi:docname="property_dynamic.svg" sodipodi:docbase="C:\Radix\dev\trunk\org.radixware\kernel\designer\src\common.resources\src\org\radixware\kernel\designer\resources\icons\ads\property" inkscape:output_extension="org.inkscape.output.svg.inkscape"
	 xmlns="http://www.w3.org/2000/svg" xmlns:xlink="http://www.w3.org/1999/xlink" x="0px" y="0px" width="32px" height="32px"
	 viewBox="0 0 32 32" enable-background="new 0 0 32 32" xml:space="preserve">
<linearGradient id="rect5697_1_" gradientUnits="userSpaceOnUse" x1="304.752" y1="-1542.7466" x2="282.8492" y2="-1542.994" gradientTransform="matrix(1 0 0 -0.2584 -281.3633 -372.1537)">
	<stop  offset="0" style="stop-color:#000000;stop-opacity:0.35"/>
	<stop  offset="0.1791" style="stop-color:#020301;stop-opacity:0.2873"/>
	<stop  offset="0.3265" style="stop-color:#080D05;stop-opacity:0.2357"/>
	<stop  offset="0.4627" style="stop-color:#121F0B;stop-opacity:0.1881"/>
	<stop  offset="0.5921" style="stop-color:#203714;stop-opacity:0.1428"/>
	<stop  offset="0.7168" style="stop-color:#325620;stop-opacity:0.0991"/>
	<stop  offset="0.8379" style="stop-color:#487D2E;stop-opacity:0.0567"/>
	<stop  offset="0.954" style="stop-color:#62A93F;stop-opacity:0.0161"/>
	<stop  offset="1" style="stop-color:#6EBD46;stop-opacity:0"/>
</linearGradient>
<rect id="rect5697" y="25.213" fill="url(#rect5697_1_)" width="21.662" height="2.715"/>
<linearGradient id="rect5693_1_" gradientUnits="userSpaceOnUse" x1="304.71" y1="-226.5439" x2="285.5635" y2="-226.5439" gradientTransform="matrix(1 0 0 -1.618 -281.9531 -350.3044)">
	<stop  offset="0" style="stop-color:#000000;stop-opacity:0.35"/>
	<stop  offset="0.1791" style="stop-color:#020301;stop-opacity:0.2873"/>
	<stop  offset="0.3265" style="stop-color:#080D05;stop-opacity:0.2357"/>
	<stop  offset="0.4627" style="stop-color:#121F0B;stop-opacity:0.1881"/>
	<stop  offset="0.5921" style="stop-color:#203714;stop-opacity:0.1428"/>
	<stop  offset="0.7168" style="stop-color:#325620;stop-opacity:0.0991"/>
	<stop  offset="0.8379" style="stop-color:#487D2E;stop-opacity:0.0567"/>
	<stop  offset="0.954" style="stop-color:#62A93F;stop-opacity:0.0161"/>
	<stop  offset="1" style="stop-color:#6EBD46;stop-opacity:0"/>
</linearGradient>
<rect id="rect5693" x="-0.001" y="7.742" fill="url(#rect5693_1_)" width="21.073" height="16.999"/>
<linearGradient id="rect5689_1_" gradientUnits="userSpaceOnUse" x1="-0.0015" y1="25.2129" x2="22.3164" y2="25.2129">
	<stop  offset="0" style="stop-color:#6EBD46;stop-opacity:0"/>
	<stop  offset="0.046" style="stop-color:#62A93F;stop-opacity:0.0161"/>
	<stop  offset="0.1621" style="stop-color:#487D2E;stop-opacity:0.0567"/>
	<stop  offset="0.2832" style="stop-color:#325620;stop-opacity:0.0991"/>
	<stop  offset="0.4079" style="stop-color:#203714;stop-opacity:0.1428"/>
	<stop  offset="0.5373" style="stop-color:#121F0B;stop-opacity:0.1881"/>
	<stop  offset="0.6735" style="stop-color:#080D05;stop-opacity:0.2357"/>
	<stop  offset="0.8209" style="stop-color:#020301;stop-opacity:0.2873"/>
	<stop  offset="1" style="stop-color:#000000;stop-opacity:0.35"/>
</linearGradient>
<rect id="rect5689" x="-0.001" y="19.96" fill="url(#rect5689_1_)" width="22.318" height="10.506"/>
<linearGradient id="rect5679_1_" gradientUnits="userSpaceOnUse" x1="305.6338" y1="-380.0596" x2="285.8757" y2="-380.3145" gradientTransform="matrix(1 0 0 -1 -281.54 -372.8398)">
	<stop  offset="0" style="stop-color:#000000;stop-opacity:0.35"/>
	<stop  offset="0.1791" style="stop-color:#020301;stop-opacity:0.2873"/>
	<stop  offset="0.3265" style="stop-color:#080D05;stop-opacity:0.2357"/>
	<stop  offset="0.4627" style="stop-color:#121F0B;stop-opacity:0.1881"/>
	<stop  offset="0.5921" style="stop-color:#203714;stop-opacity:0.1428"/>
	<stop  offset="0.7168" style="stop-color:#325620;stop-opacity:0.0991"/>
	<stop  offset="0.8379" style="stop-color:#487D2E;stop-opacity:0.0567"/>
	<stop  offset="0.954" style="stop-color:#62A93F;stop-opacity:0.0161"/>
	<stop  offset="1" style="stop-color:#6EBD46;stop-opacity:0"/>
</linearGradient>
<rect id="rect5679" x="-0.001" y="2.134" fill="url(#rect5679_1_)" width="22.318" height="10.506"/>
<g>
	<path d="M32,7.604c0-0.027-0.01-0.053-0.012-0.08c-0.006-0.06-0.011-0.121-0.026-0.178c-0.01-0.036-0.028-0.068-0.042-0.103
		c-0.02-0.047-0.036-0.094-0.062-0.137c-0.02-0.034-0.047-0.063-0.071-0.095c-0.029-0.038-0.056-0.077-0.091-0.11
		c-0.028-0.028-0.062-0.049-0.094-0.074c-0.031-0.023-0.058-0.051-0.091-0.071c-0.01-0.006-0.021-0.007-0.03-0.013
		c-0.009-0.005-0.016-0.013-0.025-0.018l-8.737-4.481c-0.143-0.074-0.3-0.11-0.456-0.11s-0.313,0.037-0.456,0.11l-8.738,4.481
		c-0.009,0.005-0.017,0.013-0.026,0.018c-0.01,0.005-0.021,0.007-0.03,0.013c-0.035,0.021-0.062,0.049-0.093,0.073
		c-0.031,0.023-0.063,0.045-0.091,0.072c-0.037,0.036-0.065,0.076-0.096,0.117c-0.022,0.029-0.048,0.056-0.066,0.088
		c-0.027,0.045-0.045,0.095-0.064,0.145c-0.013,0.032-0.03,0.062-0.039,0.096c-0.017,0.058-0.021,0.119-0.027,0.18
		c-0.002,0.026-0.011,0.051-0.012,0.078c0,0.002,0,0.003,0,0.005s0,0.003,0,0.005v17.026c0,0.367,0.202,0.705,0.525,0.88
		l8.737,4.719c0.046,0.024,0.096,0.039,0.144,0.056c0.027,0.01,0.052,0.023,0.079,0.03c0.083,0.022,0.168,0.034,0.253,0.034
		s0.17-0.012,0.253-0.034c0.027-0.007,0.052-0.021,0.079-0.03c0.048-0.017,0.098-0.031,0.144-0.056l8.737-4.719
		C31.799,25.346,32,25.008,32,24.641V7.615c0-0.002-0.001-0.003-0.001-0.005S32,7.606,32,7.604z"/>
	<polygon id="polygon4208" fill="#AEFF85" points="31,7.615 22.263,12.334 13.525,7.615 22.263,3.134 	"/>
	<polygon id="polygon4212" fill="#335720" points="22.263,29.359 13.525,24.641 13.525,7.615 22.263,12.334 	"/>
	<polygon id="polygon4214" fill="#6EBD46" points="22.263,29.359 31,24.641 31,7.615 22.263,12.334 	"/>
	<linearGradient id="polygon4214_2_" gradientUnits="userSpaceOnUse" x1="30.7598" y1="21.7598" x2="18.3996" y2="11.9645">
		<stop  offset="0" style="stop-color:#FFFFFF"/>
		<stop  offset="1" style="stop-color:#6EBD46;stop-opacity:0"/>
	</linearGradient>
	<polygon id="polygon4214_1_" fill="url(#polygon4214_2_)" points="22.263,29.359 31,24.641 31,7.615 22.263,12.334 	"/>
	<linearGradient id="polygon4212_2_" gradientUnits="userSpaceOnUse" x1="13.3384" y1="23.6953" x2="22.1368" y2="13.6401">
		<stop  offset="0" style="stop-color:#000000"/>
		<stop  offset="1" style="stop-color:#6EBD46;stop-opacity:0"/>
	</linearGradient>
	<polygon id="polygon4212_1_" fill="url(#polygon4212_2_)" points="22.263,29.359 13.525,24.641 13.525,7.615 22.263,12.334 	"/>
</g>
</svg>
