<?xml version="1.0" encoding="utf-8"?>
<!-- Generator: Adobe Illustrator 14.0.0, SVG Export Plug-In . SVG Version: 6.00 Build 43363)  -->
<!DOCTYPE svg PUBLIC "-//W3C//DTD SVG 1.1//EN" "http://www.w3.org/Graphics/SVG/1.1/DTD/svg11.dtd">
<svg version="1.1"
	 id="svg2" sodipodi:docbase="C:\Radix\dev\trunk\org.radixware\kernel\designer\src\common.resources\src\org\radixware\kernel\designer\resources\icons\widgets" inkscape:version="0.46" sodipodi:docname="dateedit.svg" sodipodi:version="0.32" inkscape:output_extension="org.inkscape.output.svg.inkscape" xmlns:sodipodi="http://sodipodi.sourceforge.net/DTD/sodipodi-0.dtd" xmlns:cc="http://creativecommons.org/ns#" xmlns:dc="http://purl.org/dc/elements/1.1/" xmlns:rdf="http://www.w3.org/1999/02/22-rdf-syntax-ns#" xmlns:svg="http://www.w3.org/2000/svg" xmlns:inkscape="http://www.inkscape.org/namespaces/inkscape"
	 xmlns="http://www.w3.org/2000/svg" xmlns:xlink="http://www.w3.org/1999/xlink" x="0px" y="0px" width="24px" height="24px"
	 viewBox="4 4 24 24" enable-background="new 4 4 24 24" xml:space="preserve">
<g>
	<g>
		<g>
			<path fill="#FFFFFF" stroke="#000000" stroke-width="1.0238" d="M5.537,14.387c-0.566,0-1.025-0.459-1.025-1.023V5.536
				c0-0.565,0.459-1.024,1.025-1.024h20.928c0.566,0,1.023,0.459,1.023,1.024v7.828c0,0.564-0.457,1.023-1.023,1.023H5.537z"/>
			<rect x="5.537" y="5.536" fill="#FFFFFF" width="20.928" height="7.828"/>
		</g>
		<g>
			<path d="M8.047,10.488L7.15,12.271H6.414l2.924-5.645h0.813l0.787,5.645h-0.713L9.99,10.488H8.047z M9.941,9.936L9.723,8.302
				c-0.033-0.293-0.076-0.712-0.1-1.039H9.605c-0.15,0.335-0.293,0.688-0.461,1.03L8.299,9.936H9.941z"/>
			<path d="M13.66,6.703c0.352-0.067,0.754-0.117,1.215-0.117c0.578,0,1.004,0.117,1.297,0.385c0.268,0.218,0.412,0.511,0.412,0.879
				c0,0.721-0.58,1.249-1.217,1.417v0.018c0.504,0.15,0.922,0.576,0.922,1.256c0,0.578-0.301,1.039-0.67,1.314
				c-0.451,0.334-1.072,0.461-1.834,0.461c-0.486,0-0.904-0.033-1.164-0.084L13.66,6.703z M13.398,11.719
				c0.178,0.025,0.379,0.035,0.572,0.035c0.82,0,1.59-0.344,1.59-1.248c0-0.662-0.561-0.955-1.188-0.955h-0.57L13.398,11.719z
				 M13.91,9.023h0.52c0.813,0,1.434-0.419,1.434-1.107c0-0.545-0.41-0.778-1.023-0.778c-0.26,0-0.467,0.017-0.576,0.05L13.91,9.023
				z"/>
		</g>
		<g>
			<polyline fill="none" stroke="#000000" stroke-width="0.6984" stroke-linecap="round" points="20.598,6.808 21.811,6.808 
				22.586,7.507 23.545,6.808 24.822,6.808 			"/>
			<polyline fill="none" stroke="#000000" stroke-width="0.6984" stroke-linecap="round" points="20.055,12.09 21.275,12.09 
				22.197,11.393 23.021,12.09 24.311,12.09 			"/>
			<line fill="none" stroke="#000000" stroke-width="0.6984" x1="22.621" y1="7.158" x2="22.197" y2="11.393"/>
		</g>
	</g>
	<g>
		<path fill="#02ABD8" stroke="#000000" stroke-width="0.8896" d="M12.242,27.555c-0.248,0-0.486-0.104-0.654-0.287
			c-0.17-0.184-0.252-0.428-0.232-0.676c0.307-3.66,3.863-6.525,8.1-6.525c4.235,0,7.792,2.865,8.097,6.525
			c0.021,0.248-0.063,0.492-0.23,0.676s-0.406,0.287-0.654,0.287H12.242z"/>
		<path id="path5814_4_" fill="#02ABD8" d="M26.667,26.666c-0.266-3.189-3.39-5.711-7.212-5.711c-3.824,0-6.945,2.521-7.213,5.711
			H26.667z"/>
		
			<linearGradient id="path5823_1_" gradientUnits="userSpaceOnUse" x1="855.0742" y1="1925.1699" x2="868.1553" y2="1925.1699" gradientTransform="matrix(1 0 0 1 -842.1602 -1901.3594)">
			<stop  offset="0" style="stop-color:#B0D0DA"/>
			<stop  offset="1" style="stop-color:#147D9E"/>
		</linearGradient>
		<path id="path5823_4_" fill="url(#path5823_1_)" d="M12.914,26.088c0.576-2.6,3.318-4.555,6.541-4.555
			c3.225,0,5.964,1.955,6.54,4.555H12.914z"/>
		<path id="path5827_4_" d="M18.396,26.564c-0.318,0-0.578-0.26-0.578-0.58v-4.238c0-0.318,0.258-0.576,0.578-0.576h1.857
			c0.32,0,0.576,0.256,0.576,0.576v4.238c0,0.32-0.256,0.58-0.576,0.58H18.396z"/>
		<rect id="rect5829_4_" x="18.396" y="21.748" fill="#FAA81D" width="1.857" height="4.236"/>
		<path d="M26.843,16.318c0-0.867-0.568-1.594-1.348-1.854C24.7,11.883,22.295,10,19.455,10s-5.246,1.883-6.041,4.465
			c-0.779,0.258-1.348,0.986-1.348,1.854c0,0.865,0.568,1.594,1.348,1.852c0.795,2.584,3.201,4.467,6.041,4.467
			s5.245-1.885,6.04-4.467C26.274,17.912,26.843,17.184,26.843,16.318z"/>
		<rect id="rect5831_4_" x="18.057" y="23.107" width="2.65" height="0.703"/>
		<path id="path5837_4_" fill="#EFD9CA" d="M24.884,16.318c0,2.998-2.433,5.428-5.429,5.428c-2.998,0-5.43-2.43-5.43-5.428
			s2.432-5.428,5.43-5.428C22.451,10.889,24.884,13.318,24.884,16.318z"/>
		
			<circle id="circle5839_4_" sodipodi:cy="12.352" sodipodi:ry="1.925" sodipodi:rx="1.925" sodipodi:cx="6.237" fill="#EFD9CA" cx="14.025" cy="16.318" r="1.07">
		</circle>
		
			<circle id="circle5841_4_" sodipodi:cy="12.352" sodipodi:ry="1.925" sodipodi:rx="1.925" sodipodi:cx="25.764999" fill="#EFD9CA" cx="24.884" cy="16.318" r="1.07">
		</circle>
		
			<linearGradient id="path5850_1_" gradientUnits="userSpaceOnUse" x1="856.7637" y1="1917.6768" x2="866.4658" y2="1917.6768" gradientTransform="matrix(1 0 0 1 -842.1602 -1901.3594)">
			<stop  offset="0" style="stop-color:#E0B59B;stop-opacity:0"/>
			<stop  offset="1" style="stop-color:#E0B59B"/>
		</linearGradient>
		<path id="path5850_4_" fill="url(#path5850_1_)" d="M19.455,21.17c-2.676,0-4.852-2.18-4.852-4.852
			c0-2.676,2.176-4.854,4.852-4.854c2.674,0,4.851,2.178,4.851,4.854C24.306,18.99,22.129,21.17,19.455,21.17L19.455,21.17z"/>
		<path id="path5852_4_" d="M14.141,15.291c-0.049,0.545,0.072,1.621,0.176,2.15c-0.006-0.666-0.104-1.752,0.209-2.336
			c0.436-0.818,5.078,0.156,6.816-3.354c-0.07,1.021-0.236,1.961,2.616,4.029c0.146,0.105,0.799,1.76,0.754,1.895
			c-0.045-0.43,0.182-1.504,0.18-1.955c-0.01-0.936-0.102-1.543-0.387-1.965c-0.324-0.48-1.153-1.395-1.569-1.803
			c-1.424-1.395-3.645-1.695-5.514-1.018c-0.969,0.352-1.602,1.129-2.266,1.775c-0.266,0.258-1.725,2.281-1.148,2.447"/>
	</g>
</g>
</svg>
