<?xml version="1.0" encoding="utf-8"?>
<!-- Generator: Adobe Illustrator 14.0.0, SVG Export Plug-In . SVG Version: 6.00 Build 43363)  -->
<!DOCTYPE svg PUBLIC "-//W3C//DTD SVG 1.1//EN" "http://www.w3.org/Graphics/SVG/1.1/DTD/svg11.dtd">
<svg version="1.1"
	 id="svg2" sodipodi:docbase="C:\Radix\dev\trunk\org.radixware\kernel\designer\src\common.resources\src\org\radixware\kernel\designer\resources\icons\widgets" inkscape:version="0.46" sodipodi:docname="dateedit.svg" sodipodi:version="0.32" inkscape:output_extension="org.inkscape.output.svg.inkscape" xmlns:sodipodi="http://sodipodi.sourceforge.net/DTD/sodipodi-0.dtd" xmlns:cc="http://creativecommons.org/ns#" xmlns:dc="http://purl.org/dc/elements/1.1/" xmlns:rdf="http://www.w3.org/1999/02/22-rdf-syntax-ns#" xmlns:svg="http://www.w3.org/2000/svg" xmlns:inkscape="http://www.inkscape.org/namespaces/inkscape"
	 xmlns="http://www.w3.org/2000/svg" xmlns:xlink="http://www.w3.org/1999/xlink" x="0px" y="0px" width="24px" height="24px"
	 viewBox="4 4 24 24" enable-background="new 4 4 24 24" xml:space="preserve">
<g>
	<g>
		<g>
			<path d="M7.429,24.429c-0.553,0-1-0.447-1-1V8.571c0-0.552,0.447-1,1-1h17.143c0.553,0,1,0.448,1,1v14.857c0,0.553-0.447,1-1,1
				H7.429z"/>
			<rect x="7.429" y="8.571" fill="#FFFFFF" width="17.143" height="14.857"/>
			
				<linearGradient id="SVGID_1_" gradientUnits="userSpaceOnUse" x1="297.54" y1="-382.1099" x2="297.54" y2="-395.4313" gradientTransform="matrix(1 0 0 -1 -281.54 -372.8398)">
				<stop  offset="0" style="stop-color:#CFCFCF;stop-opacity:0"/>
				<stop  offset="1" style="stop-color:#949494"/>
			</linearGradient>
			<rect x="8.125" y="9.248" fill="url(#SVGID_1_)" width="15.75" height="13.504"/>
		</g>
		<g>
			<path d="M9.626,16.044c0-0.727,0.108-1.335,0.325-1.828c0.162-0.362,0.384-0.688,0.664-0.977s0.587-0.502,0.921-0.642
				c0.443-0.188,0.956-0.282,1.536-0.282c1.05,0,1.89,0.326,2.521,0.977c0.629,0.651,0.944,1.558,0.944,2.717
				c0,1.15-0.313,2.051-0.938,2.699c-0.626,0.65-1.462,0.975-2.508,0.975c-1.06,0-1.902-0.322-2.527-0.969
				C9.938,18.068,9.626,17.178,9.626,16.044z M11.108,15.995c0,0.807,0.187,1.419,0.559,1.835c0.373,0.416,0.846,0.625,1.42,0.625
				c0.573,0,1.044-0.207,1.411-0.62c0.368-0.413,0.552-1.033,0.552-1.859c0-0.816-0.179-1.426-0.536-1.827
				c-0.358-0.401-0.834-0.603-1.427-0.603c-0.594,0-1.071,0.203-1.435,0.609C11.29,14.562,11.108,15.175,11.108,15.995z"/>
			<path d="M17.602,19.563v-7.125h1.366v3.781l1.599-1.817h1.682l-1.765,1.885l1.891,3.276h-1.473l-1.297-2.318l-0.637,0.666v1.652
				H17.602z"/>
		</g>
	</g>
</g>
</svg>
