<?xml version="1.0" encoding="utf-8"?>
<!-- Generator: Adobe Illustrator 14.0.0, SVG Export Plug-In . SVG Version: 6.00 Build 43363)  -->
<!DOCTYPE svg PUBLIC "-//W3C//DTD SVG 1.1//EN" "http://www.w3.org/Graphics/SVG/1.1/DTD/svg11.dtd">
<svg version="1.1" id="Layer_1" xmlns="http://www.w3.org/2000/svg" xmlns:xlink="http://www.w3.org/1999/xlink" x="0px" y="0px"
	 width="32px" height="32px" viewBox="0 0 32 32" enable-background="new 0 0 32 32" xml:space="preserve">
<g>
	<path d="M16.094,31C8.073,31,1.548,24.475,1.548,16.454S8.073,1.907,16.094,1.907c3.218,0,6.34,1.074,8.881,3.04l3.895-3.689
		C29.048,1.089,29.279,1,29.515,1c0.125,0,0.251,0.025,0.37,0.077c0.345,0.147,0.567,0.486,0.567,0.861v12.111
		c0,0.518-0.419,0.938-0.938,0.938H16.733c-0.384,0-0.729-0.234-0.871-0.59c-0.143-0.356-0.053-0.764,0.226-1.028l4.138-3.92
		c-1.247-0.742-2.657-1.129-4.132-1.129c-4.485,0-8.135,3.649-8.135,8.135s3.649,8.135,8.135,8.135c3.421,0,6.496-2.168,7.651-5.395
		c0.138-0.382,0.496-0.622,0.883-0.622c0.094,0,0.187,0.014,0.28,0.043l4.328,1.356c0.242,0.075,0.443,0.245,0.557,0.472
		c0.114,0.225,0.132,0.487,0.052,0.727C27.827,27.05,22.303,31,16.094,31L16.094,31z"/>
	<path fill="#03ADDB" d="M29.515,14.049V1.938l-4.493,4.259c-2.39-2.083-5.508-3.352-8.927-3.352
		c-7.516,0-13.609,6.093-13.609,13.609s6.093,13.609,13.609,13.609c5.97,0,11.03-3.85,12.863-9.196l-4.329-1.356
		c-1.256,3.506-4.598,6.017-8.534,6.017c-5.011,0-9.072-4.062-9.072-9.073c0-5.01,4.061-9.072,9.072-9.072
		c2.122,0,4.07,0.731,5.615,1.952l-4.976,4.715H29.515z"/>
	<linearGradient id="SVGID_1_" gradientUnits="userSpaceOnUse" x1="3.4229" y1="16.4536" x2="28.5771" y2="16.4536">
		<stop  offset="0" style="stop-color:#B2D3DC"/>
		<stop  offset="1" style="stop-color:#117C9F"/>
	</linearGradient>
	<path fill="url(#SVGID_1_)" d="M16.094,29.125c-6.987,0-12.671-5.685-12.671-12.671S9.107,3.782,16.094,3.782
		c3.049,0,6.001,1.108,8.31,3.121l0.643,0.56l3.53-3.345v8.994h-9.492l4.057-3.842l-0.85-0.671c-1.786-1.41-3.928-2.154-6.198-2.154
		c-5.52,0-10.01,4.49-10.01,10.01c0,5.519,4.49,10.01,10.01,10.01c3.907,0,7.448-2.298,9.074-5.802l2.555,0.8
		C25.735,26.083,21.179,29.125,16.094,29.125L16.094,29.125z"/>
</g>
</svg>
