<?xml version="1.0" encoding="utf-8"?>
<!-- Generator: Adobe Illustrator 14.0.0, SVG Export Plug-In . SVG Version: 6.00 Build 43363)  -->
<!DOCTYPE svg PUBLIC "-//W3C//DTD SVG 1.1//EN" "http://www.w3.org/Graphics/SVG/1.1/DTD/svg11.dtd">
<svg version="1.1" id="Layer_1" xmlns="http://www.w3.org/2000/svg" xmlns:xlink="http://www.w3.org/1999/xlink" x="0px" y="0px"
	 width="32px" height="32px" viewBox="0 0 32 32" enable-background="new 0 0 32 32" xml:space="preserve">
<rect x="1.178" width="2.167" height="32"/>
<line fill="none" stroke="#000000" x1="2.261" y1="7.75" x2="13.845" y2="7.75"/>
<line fill="none" stroke="#000000" x1="2.261" y1="24.039" x2="16.135" y2="24.039"/>
<path id="path175" fill="#010101" d="M15.053,14.75c-3.858,0-7-3.141-7-7s3.142-7,7-7c3.859,0,7,3.141,7,7
	S18.912,14.75,15.053,14.75L15.053,14.75z"/>
<circle id="circle177" fill="#FBA91F" cx="15.053" cy="7.75" r="6"/>
<linearGradient id="path186_2_" gradientUnits="userSpaceOnUse" x1="1136.2148" y1="1627.1094" x2="1146.2129" y2="1627.1094" gradientTransform="matrix(1 0 0 1 -1126.1602 -1619.3594)">
	<stop  offset="0" style="stop-color:#A5672A"/>
	<stop  offset="0.5394" style="stop-color:#FBA91F"/>
	<stop  offset="1" style="stop-color:#FFF3E1"/>
</linearGradient>
<path id="path186" fill="url(#path186_2_)" d="M15.053,12.75c-2.757,0-4.999-2.244-4.999-5c0-2.758,2.242-5,4.999-5s5,2.242,5,5
	C20.053,10.506,17.811,12.75,15.053,12.75L15.053,12.75z"/>
<path id="path175_1_" fill="#010101" d="M15.053,31.039c-3.858,0-7-3.143-7-7c0-3.859,3.142-7,7-7c3.859,0,7,3.141,7,7
	C22.053,27.896,18.912,31.039,15.053,31.039L15.053,31.039z"/>
<circle id="circle177_1_" fill="#FBA91F" cx="15.053" cy="24.039" r="6"/>
<linearGradient id="path186_3_" gradientUnits="userSpaceOnUse" x1="1136.2148" y1="1643.3984" x2="1146.2129" y2="1643.3984" gradientTransform="matrix(1 0 0 1 -1126.1602 -1619.3594)">
	<stop  offset="0" style="stop-color:#A5672A"/>
	<stop  offset="0.5394" style="stop-color:#FBA91F"/>
	<stop  offset="1" style="stop-color:#FFF3E1"/>
</linearGradient>
<path id="path186_1_" fill="url(#path186_3_)" d="M15.053,29.039c-2.757,0-4.999-2.244-4.999-5c0-2.758,2.242-5,4.999-5s5,2.242,5,5
	C20.053,26.795,17.811,29.039,15.053,29.039L15.053,29.039z"/>
<path fill="#020202" d="M31.986,20.874c0,0,0.011-0.009,0.013-0.013c0.003-0.002-0.013-0.014-0.013-0.014v-0.025v-0.027
	c0,0,0.013-0.013,0.014-0.013c-0.003-0.007-0.014-0.013-0.014-0.013c-0.002-0.01-0.014-0.016-0.014-0.016l0.014-0.014
	c0-0.01-0.014-0.014-0.014-0.016c0.002,0,0-0.024,0-0.024c0.002-0.002,0.002-0.026,0.002-0.026s-0.015-0.008-0.017-0.014
	c-0.002-0.008-0.015-0.016-0.013-0.014c-0.006-0.008,0-0.025,0-0.025s0.006-0.016,0-0.025c-0.006-0.009-0.014-0.011-0.016-0.015
	c-0.002-0.005,0.016-0.015,0.016-0.015s-0.012-0.004-0.016-0.014c-0.002-0.01-0.013-0.039-0.012-0.039c0,0-0.012-0.008-0.014-0.014
	c-0.004-0.006,0-0.021,0-0.025c-0.006-0.006-0.01-0.012-0.012-0.014c-0.004-0.005-0.016-0.014-0.016-0.014
	c-0.002-0.008-0.014-0.014-0.014-0.014l0.014-0.015c-0.003-0.005-0.009-0.006-0.014-0.015c0,0-0.012-0.008-0.014-0.014
	c-0.004-0.004-0.011-0.011-0.014-0.013c-0.005-0.009,0-0.026,0-0.026s-0.012-0.013-0.013-0.014
	c-0.005-0.005-0.011-0.012-0.013-0.014c0,0-0.021-0.021-0.026-0.026s-0.013-0.011-0.015-0.014c-0.02-0.019-0.006-0.007-0.013-0.015
	l-3.003-3c-0.009-0.008,0.008,0.004-0.014-0.015c-0.004-0.005-0.012-0.011-0.014-0.013c-0.006-0.008-0.025-0.026-0.025-0.028
	c-0.006-0.004-0.012-0.01-0.014-0.013l-0.014-0.016l-0.015,0.016c0,0-0.011-0.012-0.013-0.014c-0.004-0.004-0.01-0.01-0.013-0.014
	c0,0-0.009-0.01-0.015-0.014c-0.006-0.003-0.014-0.014-0.014-0.014c-0.008-0.002-0.014,0.014-0.014,0.014s-0.01-0.014-0.015-0.014
	c0,0-0.009-0.013-0.013-0.015l-0.039-0.014c-0.006-0.002-0.014-0.015-0.014-0.015c-0.003,0.002-0.041-0.019-0.059-0.023l-0.002,0.02
	c0,0-0.012-0.013-0.014-0.014c0,0-0.021,0.002-0.026,0c0,0-0.009-0.012-0.013-0.013c-0.006,0.004-0.01,0.009-0.016,0.013
	c-0.007-0.001-0.011-0.013-0.013-0.013l-0.021-0.021c0,0-0.012-0.013-0.015-0.014c-0.006-0.001-0.013,0.014-0.013,0.014
	c-0.01-0.002-0.012-0.013-0.014-0.013c-0.002,0.002-0.014,0.016-0.014,0.016c-0.001,0-0.014-0.015-0.014-0.016
	c-0.002,0.001-0.014,0.016-0.014,0.016s-0.009-0.015-0.014-0.015c-0.001,0-0.01-0.015-0.014-0.015c-0.002,0-0.014,0.015-0.014,0.015
	H28.2h-0.027c0,0-0.011-0.015-0.013-0.015c-0.004,0.002-0.014,0.014-0.014,0.015c-0.004,0.004-0.01,0.01-0.014,0.015
	c-0.002,0.002-0.013-0.015-0.014-0.015c-0.001,0.001-0.012,0.012-0.014,0.015c0.002,0-0.01-0.015-0.015-0.015
	c-0.007-0.001-0.013,0.015-0.013,0.015c-0.003,0.002-0.026,0-0.026,0s-0.009,0.01-0.013,0.014c-0.001,0-0.012,0.012-0.016,0.014
	c0,0.001-0.01-0.014-0.012-0.014c-0.002,0.002-0.008,0.017-0.014,0.015c-0.003,0.002-0.021-0.001-0.027,0
	c0,0-0.004,0.015-0.013,0.015s-0.021-0.016-0.021-0.016s-0.002,0.012-0.015,0.014c-0.003,0.004-0.021-0.002-0.024,0
	c0,0-0.01,0.01-0.015,0.014c-0.004,0.004-0.011,0.012-0.014,0.016c-0.002,0.001-0.011-0.016-0.015-0.016
	c-0.002,0.002-0.012,0.013-0.014,0.016c-0.008,0.007-0.013,0.011-0.014,0.016c0,0-0.012,0.01-0.016,0.012
	c-0.002,0.004-0.013,0.015-0.013,0.015s0-0.017-0.005-0.017c0.001,0-0.009,0.012-0.012,0.015l-0.055,0.026
	c-0.002,0-0.021,0.021-0.027,0.025c0,0-0.016,0.018-0.012,0.016c-0.002,0-0.01,0.008-0.017,0.013
	c-0.005,0.005-0.009,0.01-0.012,0.014l-0.015,0.015l-2.668,2.664l-2.664-2.664L22.3,17.259c-0.003-0.005-0.008-0.009-0.013-0.014
	c-0.006-0.005-0.014-0.013-0.014-0.013c0.002,0.002-0.015-0.016-0.015-0.016c-0.006-0.006-0.024-0.025-0.026-0.025l-0.053-0.026
	c-0.006-0.003-0.015-0.015-0.015-0.015c-0.006,0-0.015,0.015-0.015,0.015s-0.01-0.011-0.012-0.015
	c-0.004-0.002-0.015-0.012-0.015-0.012c-0.002-0.005-0.007-0.009-0.015-0.016c-0.004-0.003-0.014-0.014-0.014-0.016
	c-0.005,0-0.015,0.017-0.016,0.016c-0.004-0.004-0.01-0.012-0.016-0.016c-0.004-0.004-0.012-0.014-0.012-0.014
	c-0.004-0.002-0.023,0.004-0.025,0c-0.012-0.002-0.014-0.013-0.014-0.014c0,0-0.006,0.014-0.016,0.014
	c-0.007,0-0.012-0.014-0.012-0.014c-0.008,0-0.025,0.002-0.027,0c-0.007,0.002-0.012-0.012-0.014-0.014
	c-0.004,0-0.012,0.014-0.012,0.014c-0.004-0.003-0.016-0.014-0.016-0.014c-0.004-0.004-0.014-0.015-0.014-0.015
	s-0.022,0.003-0.026,0c0,0-0.006-0.016-0.013-0.014c-0.004,0-0.016,0.014-0.016,0.014c0-0.003-0.012-0.014-0.012-0.015
	c-0.002,0-0.013,0.018-0.014,0.015c-0.004-0.005-0.01-0.011-0.014-0.015c0-0.001-0.011-0.012-0.015-0.014
	c-0.002-0.002-0.013,0.014-0.013,0.014h-0.026H21.73l-0.013-0.014c-0.006,0-0.014,0.015-0.014,0.014
	c-0.009,0.001-0.015,0.013-0.015,0.013s-0.014-0.013-0.014-0.014c0,0.002-0.013,0.016-0.013,0.014c0,0-0.013-0.012-0.015-0.014
	c-0.004,0-0.006,0.012-0.012,0.014c-0.003-0.001-0.009-0.016-0.016-0.014c-0.01,0.001-0.021,0.014-0.021,0.014l-0.014,0.015
	c-0.002,0-0.007,0.013-0.013,0.015c-0.005-0.005-0.011-0.011-0.015-0.015c-0.004,0.002-0.015,0.015-0.015,0.015
	c-0.008,0.001-0.024,0-0.024,0c-0.004,0.001-0.015,0.012-0.015,0.012l-0.012-0.011c-0.015,0.007-0.056,0.025-0.058,0.025
	c0,0-0.006,0.011-0.012,0.013c0-0.001-0.041,0.014-0.041,0.013c-0.004,0.003-0.014,0.014-0.014,0.014
	c-0.005,0.002-0.014,0.015-0.014,0.015s-0.006-0.017-0.013-0.015c0,0-0.01,0.012-0.015,0.015c-0.008,0.004-0.014,0.014-0.014,0.014
	c-0.006,0.004-0.012,0.011-0.016,0.015s-0.014,0.014-0.014,0.014l-0.016-0.014l-0.013,0.014c-0.004,0.004-0.01,0.01-0.014,0.014
	c-0.002,0.001-0.021,0.021-0.027,0.027c-0.002,0.003-0.008,0.009-0.015,0.013c-0.018,0.019-0.006,0.007-0.012,0.015l-3.004,3.002
	c-0.008,0.006,0.006-0.006-0.014,0.014c-0.002,0.003-0.01,0.01-0.013,0.014c-0.007,0.008-0.026,0.026-0.026,0.026
	c-0.004,0.003-0.01,0.01-0.014,0.014c-0.003,0.002-0.014,0.015-0.014,0.015s0.004,0.019,0,0.024
	c-0.004,0.005-0.008,0.009-0.015,0.015c-0.004,0.006-0.012,0.014-0.012,0.014c-0.006,0.008-0.013,0.009-0.017,0.015l0.017,0.015
	c0,0-0.015,0.006-0.017,0.013c0,0-0.01,0.009-0.012,0.014c-0.004,0.003-0.008,0.007-0.016,0.015c0,0.004,0.004,0.021,0.002,0.025
	c-0.004,0.007-0.014,0.016-0.014,0.016s-0.012,0.027-0.015,0.037c-0.004,0.012-0.014,0.014-0.014,0.014s0.017,0.01,0.014,0.015
	c-0.002,0.004-0.008,0.007-0.014,0.015c-0.004,0.012,0,0.025,0,0.025s0.004,0.02,0,0.027c0.002-0.002-0.011,0.006-0.013,0.012
	c-0.004,0.008-0.018,0.016-0.018,0.016s0,0.025,0.003,0.026c0,0-0.003,0.024,0,0.026c0,0-0.015,0.006-0.015,0.012l0.015,0.015
	c0,0-0.015,0.007-0.015,0.015c0,0.002-0.012,0.008-0.014,0.015l0.014,0.013v0.026v0.026c0,0-0.016,0.012-0.014,0.012
	c0.004,0.005,0.014,0.015,0.014,0.015c-0.002,0.008,0.018,0.007,0.015,0.015c0,0,0,0.024,0,0.025c0,0.004,0,0.025,0,0.025
	c0.001,0.005,0,0.027,0,0.027s0.009,0.008,0.013,0.012c0.002,0.002,0.013,0.013,0.015,0.016c0,0.005-0.013,0.008-0.015,0.016
	c0.004,0.004,0.015,0.014,0.015,0.014s-0.004,0.015,0,0.027c0.002,0.01,0.014,0.014,0.014,0.014
	c0.003,0.006-0.014,0.013-0.014,0.013c0.002,0.003,0.014,0.038,0.014,0.041c0.007,0.006,0.011,0.009,0.015,0.014
	c0,0,0.01,0.009,0.014,0.015l0.014,0.039c0,0.002,0.016,0.006,0.014,0.015c0.004,0.006-0.002,0.022,0,0.024
	c0,0.01,0.025,0.026,0.025,0.026s0.012,0.011,0.014,0.013c0.008,0.015,0,0.027,0,0.027c0.002,0,0.015,0.012,0.015,0.014
	c0.004,0.004,0.012,0.01,0.014,0.015c0,0,0.007,0.007,0.015,0.014c0.008,0.009,0.008,0.009,0.013,0.013
	c0.019,0.021,0.015,0.016,0.015,0.016s0.004,0.002,0.014,0.014l2.666,2.665L18.21,26.7c-0.017,0.017-0.017,0.015-0.015,0.013
	c-0.006,0.008-0.016,0.018-0.012,0.014c-0.017,0.016-0.009,0.008-0.015,0.015c-0.007,0.008-0.015,0.014-0.015,0.014
	s-0.008,0.011-0.014,0.017c-0.009,0.006,0-0.002-0.015,0.013c-0.001,0.001-0.013,0.013-0.013,0.013
	c-0.012,0.008-0.021,0.018-0.027,0.027l0.001,0.001v0.026c-0.002,0-0.011,0.01-0.014,0.014c-0.003,0.002-0.009,0.009-0.013,0.013
	s-0.016,0.04-0.016,0.04s-0.012,0.012-0.013,0.014c-0.005,0.004-0.015,0.012-0.015,0.012s0.017,0.014,0.015,0.016
	c-0.007,0.004-0.011,0.009-0.015,0.016c-0.006,0.006-0.014,0.012-0.014,0.012c-0.002,0.002,0.016,0.012,0.014,0.014l-0.01,0.01
	c-0.004,0.004-0.013,0.014-0.013,0.014s0.006,0.015,0,0.026c-0.003,0.011-0.015,0.013-0.015,0.013
	c0.004,0.006,0.01,0.012,0.015,0.015c-0.007,0.005-0.011,0.01-0.015,0.014c0,0-0.013,0.013-0.014,0.015
	c-0.002,0.002,0.014,0.012,0.014,0.013c-0.002,0.003-0.014,0.013-0.014,0.013c-0.002,0.003,0.014,0.014,0.014,0.014
	c-0.002,0.004-0.014,0.013-0.014,0.016c-0.002,0.001,0.014,0.012,0.014,0.013c-0.002,0.002-0.013,0.013-0.014,0.015
	c-0.001,0-0.001,0.021,0,0.024c-0.002,0.002,0.014,0.015,0.014,0.015c-0.002,0.029-0.016,0.008-0.014,0.014
	c0,0.008,0.014,0.031,0.014,0.014c-0.002,0.014-0.015,0.006-0.014,0.014c-0.002,0.002,0.014,0.012,0.014,0.015
	c0,0-0.015-0.005-0.014,0.013c-0.001,0.012-0.001,0.025,0,0.025c0,0.009-0.001,0.025-0.001,0.025
	c0.007,0.006,0.009,0.01,0.015,0.014c-0.002,0.002-0.014,0.014-0.015,0.015c-0.001,0.003,0.015,0.01,0.015,0.013
	c-0.002,0.002-0.018,0.01-0.015,0.016c0.002,0.006,0.015,0.013,0.015,0.013c-0.002,0.002,0,0.026,0,0.026
	c0.002,0.008,0.013,0.015,0.013,0.015c-0.001,0-0.013,0.012-0.013,0.012c0.002,0.009,0.013,0.015,0.013,0.015
	s0.01,0.009,0.014,0.015c-0.001,0,0.011,0.005,0.013,0.013c0.004,0.006-0.018,0.004-0.013,0.014c0,0,0.009,0.006,0.013,0.012
	c0.006,0.015,0,0.027,0,0.027s0.01,0.012,0.015,0.014c0.003,0.007,0.014,0.014,0.014,0.014c0.002,0.006-0.001,0.021,0,0.027
	c-0.001,0,0.011,0.008,0.015,0.013c0,0,0.012,0.013,0.013,0.015c0,0-0.005,0.021-0.001,0.025c0,0,0.011,0.01,0.015,0.014
	c0.003,0.004,0.013,0.012,0.013,0.012c0.004,0.007,0.013,0.015,0.016,0.015c0.003,0.009,0,0.026,0,0.026s0.01,0.012,0.012,0.014
	c0.004,0.005,0.014,0.014,0.016,0.014c0.004,0.006,0.01,0.012,0.012,0.014c0.008,0.006,0.014,0.012,0.014,0.015
	c0.018,0.019,0.012,0.011,0.014,0.013c0.006,0.006-0.008-0.007,0.012,0.012l3.003,3.002c0.008,0.009-0.005-0.004,0.014,0.016
	c0.005,0.004,0.011,0.01,0.015,0.014c0.008,0.008,0.025,0.024,0.025,0.026c0.005,0.004,0.012,0.01,0.014,0.013l0.014,0.014
	c0,0,0.02-0.006,0.027,0c0.006,0.004,0.014,0.014,0.014,0.014s0.01,0.01,0.013,0.013c0.011,0.007,0.026,0,0.026,0
	s0.008,0.013,0.013,0.015c0,0,0.01,0.009,0.015,0.013c0.004,0.004,0.006,0.009,0.012,0.014c0.009,0.003,0.022-0.001,0.027,0
	c0.008,0.003,0.012,0.015,0.014,0.015c0,0,0.031,0.012,0.039,0.012c0.01,0.004,0.015,0.014,0.015,0.014s0.007-0.014,0.013-0.014
	c0.008,0.004,0.016,0.014,0.016,0.014s0.01,0.016,0.014,0.016c0-0.002,0.012-0.013,0.013-0.016c0.007,0.004,0.011,0.016,0.015,0.016
	c0.006,0,0.013-0.013,0.013-0.016c0.007,0.003,0.011,0.016,0.014,0.014c0.007,0.004,0.015,0.015,0.015,0.015S21.646,31,21.648,31
	c0.002-0.001,0.011,0.014,0.014,0.014C21.668,31.016,21.675,31,21.675,31h0.027c0.006,0.002,0.007,0.014,0.013,0.014
	c0.001,0,0.008,0.012,0.014,0.012l0.015-0.012h0.026h0.025c0,0,0.01,0.012,0.014,0.012c0.002-0.002,0.012-0.012,0.012-0.012
	c0.016,0,0.027,0,0.027,0c0-0.003,0.012-0.014,0.014-0.015c0,0.001,0.012,0.015,0.015,0.015c0.006,0,0.015-0.014,0.015-0.015
	c0-0.002,0.024,0.001,0.024,0c0,0,0.01-0.01,0.013-0.015c0.006-0.002,0.006-0.012,0.016-0.012c0.009,0,0.024,0,0.024,0
	s0.017,0.006,0.027,0c0.01-0.002,0.014-0.015,0.014-0.015c0.009,0,0.015,0.015,0.015,0.015c0-0.002,0.037-0.015,0.039-0.016
	c0.004-0.004,0.01-0.008,0.013-0.014c0.002-0.002,0.014-0.014,0.014-0.014c0.003-0.004,0.022,0.002,0.027,0
	c0.004-0.005,0.013-0.015,0.013-0.015c0.005-0.003,0.012-0.011,0.014-0.013c0.004-0.004,0.023,0.002,0.026,0
	c0.009,0,0.026-0.027,0.026-0.027s0.01-0.01,0.013-0.014c0.015-0.004,0.026,0,0.026,0s0.012-0.01,0.014-0.014
	c0.004-0.002,0.011-0.011,0.014-0.014c0.008-0.007,0.014-0.014,0.014-0.014c0.007-0.008,0.01-0.008,0.014-0.014
	c0.006-0.006,0.016-0.016,0.014-0.014c0,0,0.002-0.002,0.014-0.014l2.688-2.66l2.679,2.676c0.01,0.012,0.014,0.014,0.014,0.014
	c-0.004-0.002,0.008,0.008,0.013,0.015c0.006,0.006,0.007,0.007,0.013,0.013c0,0.001,0.008,0.01,0.014,0.016
	c0.005,0.002,0.013,0.01,0.015,0.013s0.013,0.014,0.013,0.014s0.016-0.005,0.027,0c0.004,0.004,0.014,0.013,0.014,0.013
	s0.02,0.027,0.025,0.027c0.004,0.002,0.021-0.005,0.025,0c0.002,0.002,0.011,0.01,0.016,0.014c0,0,0.009,0.01,0.013,0.016
	c0.005,0.001,0.023-0.006,0.027,0c0,0,0.012,0.012,0.013,0.012c0.006,0.006,0.01,0.012,0.014,0.014s0.039,0.014,0.039,0.016
	c0,0,0.008-0.014,0.014-0.014c0,0,0.004,0.012,0.014,0.014c0.014,0.006,0.027,0,0.027,0s0.018,0,0.025,0
	c0.012,0.001,0.012,0.009,0.014,0.013c0.004,0.005,0.015,0.013,0.015,0.013c0,0.002,0.024,0,0.024,0
	c0.002,0.002,0.008,0.016,0.015,0.014c0.003,0,0.013-0.012,0.013-0.014c0.002,0.002,0.014,0.014,0.016,0.014
	c0,0.002,0.014,0,0.024,0c0.001,0.002,0.011,0.014,0.015,0.016c0.002,0,0.014-0.016,0.014-0.016l0.025,0.002h0.025l0.014,0.014
	c0.006-0.001,0.015-0.016,0.015-0.014c0.006-0.002,0.009-0.012,0.014-0.014h0.025c0.002,0,0.009,0.017,0.015,0.014
	c0.002,0,0.012-0.016,0.014-0.014c0.004,0,0.025,0,0.025,0s0.007-0.011,0.014-0.014c0.004,0.001,0.008-0.011,0.014-0.013
	c0.002,0.002,0.008,0.016,0.014,0.014c0.003,0,0.008-0.012,0.014-0.014c0.002,0.002,0.012,0.013,0.012,0.014
	c0.005,0,0.016-0.014,0.016-0.014s0.008-0.011,0.014-0.013c0.008-0.002,0.016,0.013,0.016,0.013s0.002-0.011,0.013-0.013
	c0.011-0.004,0.038-0.015,0.038-0.015c0.005,0,0.008-0.012,0.014-0.013s0.021,0.002,0.027,0c0.006-0.006,0.009-0.012,0.012-0.014
	c0.008-0.006,0.016-0.015,0.016-0.015c0.004-0.001,0.013-0.014,0.013-0.014s0.017,0.007,0.026,0
	c0.004-0.003,0.013-0.013,0.013-0.013s0.011-0.011,0.015-0.015c0.008-0.004,0.026,0,0.026,0l0.014-0.013
	c0.004-0.004,0.011-0.012,0.013-0.014c0-0.002,0.021-0.021,0.026-0.026c0.004-0.003,0.011-0.011,0.015-0.013
	c0.02-0.02,0.008-0.008,0.014-0.014l3.002-3.003c0.021-0.021,0.008-0.007,0.013-0.014c0.003-0.002-0.003,0.008,0.015-0.013
	c0,0,0.006-0.008,0.013-0.013c0.004-0.005,0.008-0.01,0.013-0.015c0.003-0.002,0.012-0.01,0.016-0.016
	c0.002-0.002,0.012-0.012,0.012-0.012s-0.004-0.02,0-0.027c0.002,0,0.012-0.008,0.014-0.012c0.003-0.002,0.012-0.01,0.014-0.015
	c0.004-0.003,0.014-0.013,0.014-0.013c0.005-0.004,0-0.026,0-0.026c0.003-0.002,0.013-0.015,0.013-0.015
	c0.005-0.004,0.017-0.012,0.015-0.012c0.002-0.007-0.002-0.021,0-0.027c0,0,0.014-0.008,0.014-0.014
	c0.004-0.002,0.014-0.014,0.014-0.014s-0.006-0.014,0-0.025c0.005-0.009,0.014-0.015,0.014-0.015
	c0.006-0.009-0.016-0.007-0.014-0.013c0.002-0.01,0.014-0.014,0.014-0.014c0.006-0.004,0.014-0.014,0.014-0.014
	s0.013-0.007,0.013-0.014c0-0.002-0.013-0.014-0.013-0.014s0.011-0.006,0.013-0.015c0,0,0.004-0.024,0-0.024
	c0,0,0.013-0.008,0.015-0.015s-0.013-0.013-0.015-0.015c0-0.003,0.017-0.012,0.015-0.014c-0.003-0.002-0.015-0.012-0.015-0.012
	c0.006-0.004,0.011-0.01,0.015-0.015c0-0.001-0.002-0.019-0.002-0.026c0.002,0,0.002-0.016,0-0.025
	c0.002-0.018-0.013-0.014-0.013-0.014c0-0.002,0.017-0.013,0.013-0.015c0.002-0.007-0.013,0.001-0.013-0.013
	c0,0.018,0.013-0.006,0.013-0.014c0.004-0.007-0.013,0.016-0.013-0.015c0-0.001,0.017-0.013,0.013-0.013
	c0.002-0.006,0.002-0.026,0-0.027c-0.001-0.001-0.011-0.012-0.013-0.014c-0.002,0,0.015-0.014,0.013-0.014
	c-0.001-0.002-0.011-0.01-0.013-0.014c0,0,0.017-0.011,0.013-0.014c-0.001-0.002-0.011-0.012-0.013-0.012
	c0-0.002,0.017-0.013,0.013-0.015c-0.001-0.002-0.013-0.013-0.013-0.013c-0.004-0.006-0.008-0.01-0.015-0.016
	c0.007-0.004,0.011-0.008,0.015-0.014c0,0-0.013-0.002-0.015-0.012c-0.006-0.014,0-0.027,0-0.027s-0.01-0.011-0.014-0.014
	c0,0-0.01-0.01-0.014-0.014c0-0.002,0.018-0.013,0.014-0.015c0,0-0.008-0.008-0.014-0.013c-0.004-0.006-0.01-0.01-0.012-0.014
	c-0.004-0.002,0.012-0.016,0.012-0.016s-0.01-0.009-0.012-0.012c-0.004-0.002-0.016-0.014-0.016-0.014s-0.011-0.037-0.015-0.039
	c-0.004-0.006-0.011-0.013-0.013-0.015c-0.004-0.004-0.014-0.014-0.014-0.015V26.8l0,0c-0.007-0.01-0.018-0.021-0.025-0.026
	c0,0-0.014-0.012-0.014-0.015c-0.014-0.014-0.008-0.006-0.014-0.012c-0.006-0.007-0.014-0.015-0.014-0.015s-0.008-0.006-0.014-0.014
	c-0.007-0.006,0,0-0.014-0.014c0.003,0.004-0.007-0.008-0.016-0.014c0.005,0.002,0.005,0.004-0.012-0.015l-2.664-2.661l2.664-2.666
	c0.012-0.011,0.015-0.015,0.015-0.015c0,0.002-0.005,0.006,0.015-0.013c0.006-0.008,0.006-0.008,0.012-0.014
	c0.01-0.008,0.016-0.014,0.016-0.016c0.004-0.002,0.01-0.01,0.014-0.014c0.001-0.002,0.014-0.012,0.014-0.014
	c0,0-0.008-0.015,0-0.026c0.004-0.003,0.015-0.013,0.015-0.013s0.026-0.019,0.024-0.027c0.002-0.002-0.004-0.021,0.002-0.025
	c-0.004-0.008,0.012-0.012,0.012-0.014c0,0.002,0.015-0.039,0.015-0.039c0.005-0.005,0.015-0.016,0.015-0.016
	c0.004-0.002,0.01-0.008,0.014-0.013c0.002-0.002,0.014-0.038,0.014-0.04c0,0-0.016-0.009-0.014-0.015c0,0,0.014-0.002,0.014-0.013
	c0.004-0.014,0-0.026,0-0.026s0.01-0.011,0.014-0.015c0-0.008-0.014-0.01-0.014-0.014c0.003-0.004,0.014-0.014,0.014-0.014
	c0.004-0.004,0.014-0.016,0.014-0.016s-0.002-0.021,0-0.025c0,0,0-0.021,0-0.025v-0.025C31.971,20.882,31.986,20.882,31.986,20.874z
	"/>
<polygon fill="#EC2727" points="31.219,27.256 28.001,24.039 31.216,20.825 28.214,17.823 24.999,21.037 21.785,17.823 
	18.784,20.825 21.998,24.039 18.781,27.256 21.781,30.258 24.999,27.04 28.218,30.258 "/>
<linearGradient id="SVGID_1_" gradientUnits="userSpaceOnUse" x1="864.1514" y1="-1205.5601" x2="875.0879" y2="-1205.5601" gradientTransform="matrix(1 0 0 -1 -844.6201 -1181.5195)">
	<stop  offset="0" style="stop-color:#F6979A"/>
	<stop  offset="1" style="stop-color:#901A1D"/>
</linearGradient>
<polygon fill="url(#SVGID_1_)" points="30.468,27.256 27.251,24.039 30.466,20.825 28.214,18.573 24.999,21.788 21.785,18.573 
	19.533,20.825 22.748,24.039 19.531,27.256 21.781,29.508 24.999,26.29 28.218,29.508 "/>
<path fill="#020202" d="M31.986,4.664c0,0,0.011-0.009,0.013-0.013c0.003-0.002-0.013-0.014-0.013-0.014V4.612V4.584
	c0,0,0.013-0.013,0.014-0.013c-0.003-0.007-0.014-0.013-0.014-0.013c-0.002-0.01-0.014-0.016-0.014-0.016l0.014-0.014
	c0-0.01-0.014-0.014-0.014-0.016c0.002,0,0-0.024,0-0.024c0.002-0.002,0.002-0.026,0.002-0.026S31.96,4.456,31.958,4.45
	c-0.002-0.008-0.015-0.016-0.013-0.014c-0.006-0.008,0-0.025,0-0.025s0.006-0.016,0-0.025c-0.006-0.009-0.014-0.011-0.016-0.015
	c-0.002-0.005,0.016-0.015,0.016-0.015s-0.012-0.004-0.016-0.014c-0.002-0.01-0.013-0.039-0.012-0.039c0,0-0.012-0.008-0.014-0.014
	c-0.004-0.006,0-0.021,0-0.025c-0.006-0.006-0.01-0.012-0.012-0.014c-0.004-0.005-0.016-0.014-0.016-0.014
	c-0.002-0.008-0.014-0.014-0.014-0.014l0.014-0.015c-0.003-0.005-0.009-0.006-0.014-0.015c0,0-0.012-0.008-0.014-0.014
	c-0.004-0.004-0.011-0.011-0.014-0.013c-0.005-0.009,0-0.026,0-0.026s-0.012-0.013-0.013-0.014
	c-0.005-0.005-0.011-0.012-0.013-0.014c0,0-0.021-0.021-0.026-0.026s-0.013-0.011-0.015-0.014c-0.02-0.019-0.006-0.007-0.013-0.015
	l-3.003-3c-0.009-0.008,0.008,0.004-0.014-0.015c-0.004-0.005-0.012-0.011-0.014-0.013c-0.006-0.008-0.025-0.026-0.025-0.028
	C28.695,1,28.689,0.994,28.688,0.991l-0.014-0.016l-0.015,0.016c0,0-0.011-0.012-0.013-0.014c-0.004-0.004-0.01-0.01-0.013-0.014
	c0,0-0.009-0.01-0.015-0.014c-0.006-0.003-0.014-0.014-0.014-0.014c-0.008-0.002-0.014,0.014-0.014,0.014s-0.01-0.014-0.015-0.014
	c0,0-0.009-0.013-0.013-0.015l-0.039-0.014c-0.006-0.002-0.014-0.015-0.014-0.015c-0.003,0.002-0.041-0.019-0.059-0.023l-0.002,0.02
	c0,0-0.012-0.013-0.014-0.014c0,0-0.021,0.002-0.026,0c0,0-0.009-0.012-0.013-0.013c-0.006,0.004-0.01,0.009-0.016,0.013
	c-0.007-0.001-0.011-0.013-0.013-0.013L28.35,0.841c0,0-0.012-0.013-0.015-0.014c-0.006-0.001-0.013,0.014-0.013,0.014
	c-0.01-0.002-0.012-0.013-0.014-0.013c-0.002,0.002-0.014,0.016-0.014,0.016c-0.001,0-0.014-0.015-0.014-0.016
	c-0.002,0.001-0.014,0.016-0.014,0.016S28.259,0.83,28.254,0.83c-0.001,0-0.01-0.015-0.014-0.015c-0.002,0-0.014,0.015-0.014,0.015
	H28.2h-0.027c0,0-0.011-0.015-0.013-0.015c-0.004,0.002-0.014,0.014-0.014,0.015c-0.004,0.004-0.01,0.01-0.014,0.015
	C28.131,0.846,28.12,0.83,28.119,0.83c-0.001,0.001-0.012,0.012-0.014,0.015c0.002,0-0.01-0.015-0.015-0.015
	c-0.007-0.001-0.013,0.015-0.013,0.015c-0.003,0.002-0.026,0-0.026,0s-0.009,0.01-0.013,0.014c-0.001,0-0.012,0.012-0.016,0.014
	c0,0.001-0.01-0.014-0.012-0.014c-0.002,0.002-0.008,0.017-0.014,0.015c-0.003,0.002-0.021-0.001-0.027,0
	c0,0-0.004,0.015-0.013,0.015s-0.021-0.016-0.021-0.016s-0.002,0.012-0.015,0.014c-0.003,0.004-0.021-0.002-0.024,0
	c0,0-0.01,0.01-0.015,0.014c-0.004,0.004-0.011,0.012-0.014,0.016c-0.002,0.001-0.011-0.016-0.015-0.016
	c-0.002,0.002-0.012,0.013-0.014,0.016c-0.008,0.007-0.013,0.011-0.014,0.016c0,0-0.012,0.01-0.016,0.012
	C27.811,0.946,27.8,0.957,27.8,0.957s0-0.017-0.005-0.017c0.001,0-0.009,0.012-0.012,0.015l-0.055,0.026
	c-0.002,0-0.021,0.021-0.027,0.025c0,0-0.016,0.018-0.012,0.016c-0.002,0-0.01,0.008-0.017,0.013
	c-0.005,0.005-0.009,0.01-0.012,0.014l-0.015,0.015l-2.668,2.664l-2.664-2.664L22.3,1.048c-0.003-0.005-0.008-0.009-0.013-0.014
	c-0.006-0.005-0.014-0.013-0.014-0.013c0.002,0.002-0.015-0.016-0.015-0.016C22.253,1,22.234,0.981,22.232,0.981L22.18,0.955
	c-0.006-0.003-0.015-0.015-0.015-0.015c-0.006,0-0.015,0.015-0.015,0.015s-0.01-0.011-0.012-0.015
	c-0.004-0.002-0.015-0.012-0.015-0.012c-0.002-0.005-0.007-0.009-0.015-0.016c-0.004-0.003-0.014-0.014-0.014-0.016
	c-0.005,0-0.015,0.017-0.016,0.016c-0.004-0.004-0.01-0.012-0.016-0.016c-0.004-0.004-0.012-0.014-0.012-0.014
	c-0.004-0.002-0.023,0.004-0.025,0c-0.012-0.002-0.014-0.013-0.014-0.014c0,0-0.006,0.014-0.016,0.014
	c-0.007,0-0.012-0.014-0.012-0.014c-0.008,0-0.025,0.002-0.027,0c-0.007,0.002-0.012-0.012-0.014-0.014
	c-0.004,0-0.012,0.014-0.012,0.014c-0.004-0.003-0.016-0.014-0.016-0.014c-0.004-0.004-0.014-0.015-0.014-0.015
	s-0.022,0.003-0.026,0c0,0-0.006-0.016-0.013-0.014c-0.004,0-0.016,0.014-0.016,0.014c0-0.003-0.012-0.014-0.012-0.015
	c-0.002,0-0.013,0.018-0.014,0.015c-0.004-0.005-0.01-0.011-0.014-0.015c0-0.001-0.011-0.012-0.015-0.014
	c-0.002-0.002-0.013,0.014-0.013,0.014h-0.026H21.73l-0.013-0.014c-0.006,0-0.014,0.015-0.014,0.014
	c-0.009,0.001-0.015,0.013-0.015,0.013s-0.014-0.013-0.014-0.014c0,0.002-0.013,0.016-0.013,0.014c0,0-0.013-0.012-0.015-0.014
	c-0.004,0-0.006,0.012-0.012,0.014c-0.003-0.001-0.009-0.016-0.016-0.014C21.611,0.827,21.6,0.839,21.6,0.839l-0.014,0.015
	c-0.002,0-0.007,0.013-0.013,0.015c-0.005-0.005-0.011-0.011-0.015-0.015c-0.004,0.002-0.015,0.015-0.015,0.015
	c-0.008,0.001-0.024,0-0.024,0C21.516,0.87,21.505,0.88,21.505,0.88L21.493,0.87c-0.015,0.007-0.056,0.025-0.058,0.025
	c0,0-0.006,0.011-0.012,0.013c0-0.001-0.041,0.014-0.041,0.013c-0.004,0.003-0.014,0.014-0.014,0.014
	c-0.005,0.002-0.014,0.015-0.014,0.015s-0.006-0.017-0.013-0.015c0,0-0.01,0.012-0.015,0.015c-0.008,0.004-0.014,0.014-0.014,0.014
	c-0.006,0.004-0.012,0.011-0.016,0.015s-0.014,0.014-0.014,0.014L21.27,0.977l-0.013,0.014c-0.004,0.004-0.01,0.01-0.014,0.014
	c-0.002,0.001-0.021,0.021-0.027,0.027c-0.002,0.003-0.008,0.009-0.015,0.013c-0.018,0.019-0.006,0.007-0.012,0.015l-3.004,3.002
	c-0.008,0.006,0.006-0.006-0.014,0.014c-0.002,0.003-0.01,0.01-0.013,0.014c-0.007,0.008-0.026,0.026-0.026,0.026
	c-0.004,0.003-0.01,0.01-0.014,0.014c-0.003,0.002-0.014,0.015-0.014,0.015s0.004,0.019,0,0.024
	c-0.004,0.005-0.008,0.009-0.015,0.015c-0.004,0.006-0.012,0.014-0.012,0.014c-0.006,0.008-0.013,0.009-0.017,0.015l0.017,0.015
	c0,0-0.015,0.006-0.017,0.013c0,0-0.01,0.009-0.012,0.014c-0.004,0.003-0.008,0.007-0.016,0.015c0,0.004,0.004,0.021,0.002,0.025
	c-0.004,0.007-0.014,0.016-0.014,0.016s-0.012,0.027-0.015,0.037c-0.004,0.012-0.014,0.014-0.014,0.014s0.017,0.01,0.014,0.015
	c-0.002,0.004-0.008,0.007-0.014,0.015c-0.004,0.012,0,0.025,0,0.025s0.004,0.02,0,0.027c0.002-0.002-0.011,0.006-0.013,0.012
	c-0.004,0.008-0.018,0.016-0.018,0.016s0,0.025,0.003,0.026c0,0-0.003,0.024,0,0.026c0,0-0.015,0.006-0.015,0.012l0.015,0.015
	c0,0-0.015,0.007-0.015,0.015c0,0.002-0.012,0.008-0.014,0.015l0.014,0.013v0.026v0.026c0,0-0.016,0.012-0.014,0.012
	c0.004,0.005,0.014,0.015,0.014,0.015c-0.002,0.008,0.018,0.007,0.015,0.015c0,0,0,0.024,0,0.025c0,0.004,0,0.025,0,0.025
	c0.001,0.005,0,0.027,0,0.027s0.009,0.008,0.013,0.012c0.002,0.002,0.013,0.013,0.015,0.016c0,0.005-0.013,0.008-0.015,0.016
	c0.004,0.004,0.015,0.014,0.015,0.014s-0.004,0.015,0,0.027c0.002,0.01,0.014,0.014,0.014,0.014
	c0.003,0.006-0.014,0.013-0.014,0.013c0.002,0.003,0.014,0.038,0.014,0.041c0.007,0.006,0.011,0.009,0.015,0.014
	c0,0,0.01,0.009,0.014,0.015l0.014,0.039c0,0.002,0.016,0.006,0.014,0.015c0.004,0.006-0.002,0.022,0,0.024
	c0,0.01,0.025,0.026,0.025,0.026s0.012,0.011,0.014,0.013c0.008,0.015,0,0.027,0,0.027c0.002,0,0.015,0.012,0.015,0.014
	c0.004,0.004,0.012,0.01,0.014,0.015c0,0,0.007,0.007,0.015,0.014c0.008,0.009,0.008,0.009,0.013,0.013
	c0.019,0.021,0.015,0.016,0.015,0.016s0.004,0.002,0.014,0.014l2.666,2.665l-2.644,2.656c-0.017,0.018-0.017,0.016-0.015,0.014
	c-0.006,0.008-0.016,0.018-0.012,0.014c-0.017,0.016-0.009,0.008-0.015,0.014c-0.007,0.008-0.015,0.014-0.015,0.014
	s-0.008,0.012-0.014,0.018c-0.009,0.006,0-0.002-0.015,0.012c-0.001,0.002-0.013,0.014-0.013,0.014
	c-0.012,0.008-0.021,0.018-0.027,0.027h0.001v0.027c-0.002,0-0.011,0.01-0.014,0.014c-0.003,0.002-0.009,0.008-0.013,0.012
	s-0.016,0.041-0.016,0.041s-0.012,0.012-0.013,0.014c-0.005,0.004-0.015,0.012-0.015,0.012s0.017,0.014,0.015,0.016
	c-0.007,0.004-0.011,0.008-0.015,0.016c-0.006,0.006-0.014,0.012-0.014,0.012c-0.002,0.002,0.016,0.012,0.014,0.014l-0.01,0.01
	c-0.004,0.004-0.013,0.014-0.013,0.014s0.006,0.014,0,0.025c-0.003,0.012-0.015,0.014-0.015,0.014
	c0.004,0.006,0.01,0.012,0.015,0.014c-0.007,0.006-0.011,0.01-0.015,0.014c0,0-0.013,0.014-0.014,0.016
	c-0.002,0.002,0.014,0.012,0.014,0.012c-0.002,0.004-0.014,0.014-0.014,0.014c-0.002,0.002,0.014,0.014,0.014,0.014
	c-0.002,0.004-0.014,0.012-0.014,0.016c-0.002,0,0.014,0.012,0.014,0.012c-0.002,0.002-0.013,0.014-0.014,0.016
	c-0.001,0-0.001,0.02,0,0.023c-0.002,0.002,0.014,0.016,0.014,0.016c-0.002,0.029-0.016,0.008-0.014,0.014
	c0,0.008,0.014,0.031,0.014,0.014c-0.002,0.014-0.015,0.006-0.014,0.014c-0.002,0.002,0.014,0.012,0.014,0.014
	c0,0-0.015-0.004-0.014,0.014c-0.001,0.012-0.001,0.025,0,0.025c0,0.008-0.001,0.025-0.001,0.025
	c0.007,0.006,0.009,0.01,0.015,0.014c-0.002,0.002-0.014,0.014-0.015,0.014c-0.001,0.004,0.015,0.01,0.015,0.014
	c-0.002,0.002-0.018,0.01-0.015,0.016c0.002,0.006,0.015,0.012,0.015,0.012c-0.002,0.002,0,0.027,0,0.027
	c0.002,0.008,0.013,0.014,0.013,0.014c-0.001,0-0.013,0.012-0.013,0.012c0.002,0.01,0.013,0.016,0.013,0.016s0.01,0.008,0.014,0.014
	c-0.001,0,0.011,0.006,0.013,0.014c0.004,0.006-0.018,0.004-0.013,0.014c0,0,0.009,0.006,0.013,0.012c0.006,0.014,0,0.027,0,0.027
	s0.01,0.012,0.015,0.014c0.003,0.006,0.014,0.014,0.014,0.014c0.002,0.006-0.001,0.021,0,0.027c-0.001,0,0.011,0.008,0.015,0.012
	c0,0,0.012,0.014,0.013,0.016c0,0-0.005,0.021-0.001,0.025c0,0,0.011,0.01,0.015,0.014c0.003,0.004,0.013,0.012,0.013,0.012
	c0.004,0.006,0.013,0.014,0.016,0.014c0.003,0.01,0,0.027,0,0.027s0.01,0.012,0.012,0.014c0.004,0.004,0.014,0.014,0.016,0.014
	c0.004,0.006,0.01,0.012,0.012,0.014c0.008,0.006,0.014,0.012,0.014,0.014c0.018,0.02,0.012,0.012,0.014,0.014
	c0.006,0.006-0.008-0.008,0.012,0.012l3.003,3.002c0.008,0.008-0.005-0.004,0.014,0.016c0.005,0.004,0.011,0.01,0.015,0.014
	c0.008,0.008,0.025,0.023,0.025,0.025c0.005,0.004,0.012,0.01,0.014,0.014l0.014,0.014c0,0,0.02-0.006,0.027,0
	c0.006,0.004,0.014,0.014,0.014,0.014s0.01,0.01,0.013,0.012c0.011,0.008,0.026,0,0.026,0s0.008,0.014,0.013,0.016
	c0,0,0.01,0.008,0.015,0.012c0.004,0.004,0.006,0.01,0.012,0.014c0.009,0.004,0.022,0,0.027,0c0.008,0.004,0.012,0.016,0.014,0.016
	c0,0,0.031,0.012,0.039,0.012c0.01,0.004,0.015,0.014,0.015,0.014s0.007-0.014,0.013-0.014c0.008,0.004,0.016,0.014,0.016,0.014
	s0.01,0.016,0.014,0.016c0-0.002,0.012-0.014,0.013-0.016c0.007,0.004,0.011,0.016,0.015,0.016c0.006,0,0.013-0.014,0.013-0.016
	c0.007,0.002,0.011,0.016,0.014,0.014c0.007,0.004,0.015,0.014,0.015,0.014s0.043-0.035,0.045-0.035
	c0.002-0.002,0.011,0.014,0.014,0.014c0.006,0.002,0.013-0.014,0.013-0.014h0.027c0.006,0.002,0.007,0.014,0.013,0.014
	c0.001,0,0.008,0.012,0.014,0.012l0.015-0.012h0.026h0.025c0,0,0.01,0.012,0.014,0.012c0.002-0.002,0.012-0.012,0.012-0.012
	c0.016,0,0.027,0,0.027,0c0-0.004,0.012-0.014,0.014-0.016c0,0.002,0.012,0.016,0.015,0.016c0.006,0,0.015-0.014,0.015-0.016
	s0.024,0.002,0.024,0c0,0,0.01-0.01,0.013-0.014c0.006-0.002,0.006-0.012,0.016-0.012c0.009,0,0.024,0,0.024,0s0.017,0.006,0.027,0
	c0.01-0.002,0.014-0.016,0.014-0.016c0.009,0,0.015,0.016,0.015,0.016c0-0.002,0.037-0.016,0.039-0.016
	c0.004-0.004,0.01-0.008,0.013-0.014c0.002-0.002,0.014-0.014,0.014-0.014c0.003-0.004,0.022,0.002,0.027,0
	c0.004-0.006,0.013-0.016,0.013-0.016c0.005-0.002,0.012-0.01,0.014-0.012c0.004-0.004,0.023,0.002,0.026,0
	c0.009,0,0.026-0.027,0.026-0.027s0.01-0.01,0.013-0.014c0.015-0.004,0.026,0,0.026,0s0.012-0.01,0.014-0.014
	c0.004-0.002,0.011-0.012,0.014-0.014c0.008-0.008,0.014-0.014,0.014-0.014c0.007-0.008,0.01-0.008,0.014-0.014
	c0.006-0.006,0.016-0.016,0.014-0.014c0,0,0.002-0.002,0.014-0.014l2.688-2.66l2.679,2.676c0.01,0.012,0.014,0.014,0.014,0.014
	c-0.004-0.002,0.008,0.008,0.013,0.014c0.006,0.006,0.007,0.008,0.013,0.014c0,0,0.008,0.01,0.014,0.016
	c0.005,0.002,0.013,0.01,0.015,0.012c0.002,0.004,0.013,0.014,0.013,0.014s0.016-0.004,0.027,0c0.004,0.004,0.014,0.014,0.014,0.014
	s0.02,0.027,0.025,0.027c0.004,0.002,0.021-0.006,0.025,0c0.002,0.002,0.011,0.01,0.016,0.014c0,0,0.009,0.01,0.013,0.016
	c0.005,0,0.023-0.006,0.027,0c0,0,0.012,0.012,0.013,0.012c0.006,0.006,0.01,0.012,0.014,0.014s0.039,0.014,0.039,0.016
	c0,0,0.008-0.014,0.014-0.014c0,0,0.004,0.012,0.014,0.014c0.014,0.006,0.027,0,0.027,0s0.018,0,0.025,0
	c0.012,0,0.012,0.008,0.014,0.012c0.004,0.006,0.015,0.014,0.015,0.014c0,0.002,0.024,0,0.024,0
	c0.002,0.002,0.008,0.016,0.015,0.014c0.003,0,0.013-0.012,0.013-0.014c0.002,0.002,0.014,0.014,0.016,0.014
	c0,0.002,0.014,0,0.024,0c0.001,0.002,0.011,0.014,0.015,0.016c0.002,0,0.014-0.016,0.014-0.016l0.025,0.002h0.025l0.014,0.014
	c0.006-0.002,0.015-0.016,0.015-0.014c0.006-0.002,0.009-0.012,0.014-0.014h0.025c0.002,0,0.009,0.016,0.015,0.014
	c0.002,0,0.012-0.016,0.014-0.014c0.004,0,0.025,0,0.025,0s0.007-0.012,0.014-0.014c0.004,0,0.008-0.012,0.014-0.014
	c0.002,0.002,0.008,0.016,0.014,0.014c0.003,0,0.008-0.012,0.014-0.014c0.002,0.002,0.012,0.014,0.012,0.014
	c0.005,0,0.016-0.014,0.016-0.014s0.008-0.01,0.014-0.012c0.008-0.002,0.016,0.012,0.016,0.012s0.002-0.01,0.013-0.012
	c0.011-0.004,0.038-0.016,0.038-0.016c0.005,0,0.008-0.012,0.014-0.012c0.006-0.002,0.021,0.002,0.027,0
	c0.006-0.006,0.009-0.012,0.012-0.014c0.008-0.006,0.016-0.016,0.016-0.016c0.004,0,0.013-0.014,0.013-0.014s0.017,0.008,0.026,0
	c0.004-0.002,0.013-0.012,0.013-0.012s0.011-0.012,0.015-0.016c0.008-0.004,0.026,0,0.026,0l0.014-0.012
	c0.004-0.004,0.011-0.012,0.013-0.014c0-0.002,0.021-0.021,0.026-0.027c0.004-0.002,0.011-0.01,0.015-0.012
	c0.02-0.02,0.008-0.008,0.014-0.014l3.002-3.004c0.021-0.02,0.008-0.006,0.013-0.014c0.003-0.002-0.003,0.008,0.015-0.012
	c0,0,0.006-0.008,0.013-0.014c0.004-0.004,0.008-0.01,0.013-0.014c0.003-0.002,0.012-0.01,0.016-0.016
	c0.002-0.002,0.012-0.012,0.012-0.012s-0.004-0.02,0-0.027c0.002,0,0.012-0.008,0.014-0.012c0.003-0.002,0.012-0.01,0.014-0.016
	c0.004-0.002,0.014-0.012,0.014-0.012c0.005-0.004,0-0.027,0-0.027c0.003-0.002,0.013-0.014,0.013-0.014
	c0.005-0.004,0.017-0.012,0.015-0.012c0.002-0.008-0.002-0.021,0-0.027c0,0,0.014-0.008,0.014-0.014
	c0.004-0.002,0.014-0.014,0.014-0.014s-0.006-0.014,0-0.025c0.005-0.01,0.014-0.016,0.014-0.016
	c0.006-0.008-0.016-0.006-0.014-0.012c0.002-0.01,0.014-0.014,0.014-0.014c0.006-0.004,0.014-0.014,0.014-0.014
	s0.013-0.008,0.013-0.014c0-0.002-0.013-0.014-0.013-0.014s0.011-0.006,0.013-0.016c0,0,0.004-0.023,0-0.023
	c0,0,0.013-0.008,0.015-0.016c0.002-0.006-0.013-0.012-0.015-0.014c0-0.004,0.017-0.012,0.015-0.014
	c-0.003-0.002-0.015-0.012-0.015-0.012c0.006-0.004,0.011-0.01,0.015-0.016c0,0-0.002-0.018-0.002-0.025
	c0.002,0,0.002-0.016,0-0.025c0.002-0.018-0.013-0.014-0.013-0.014c0-0.002,0.017-0.014,0.013-0.016
	c0.002-0.006-0.013,0.002-0.013-0.012c0,0.018,0.013-0.006,0.013-0.014c0.004-0.008-0.013,0.016-0.013-0.016
	c0,0,0.017-0.012,0.013-0.012c0.002-0.006,0.002-0.027,0-0.027c-0.001-0.002-0.011-0.012-0.013-0.014
	c-0.002,0,0.015-0.014,0.013-0.014c-0.001-0.002-0.011-0.01-0.013-0.014c0,0,0.017-0.012,0.013-0.014
	c-0.001-0.002-0.011-0.012-0.013-0.012c0-0.002,0.017-0.014,0.013-0.016c-0.001-0.002-0.013-0.012-0.013-0.012
	c-0.004-0.006-0.008-0.01-0.015-0.016c0.007-0.004,0.011-0.008,0.015-0.014c0,0-0.013-0.002-0.015-0.012
	c-0.006-0.014,0-0.027,0-0.027s-0.01-0.012-0.014-0.014c0,0-0.01-0.01-0.014-0.014c0-0.002,0.018-0.014,0.014-0.016
	c0,0-0.008-0.008-0.014-0.012c-0.004-0.006-0.01-0.01-0.012-0.014c-0.004-0.002,0.012-0.016,0.012-0.016s-0.01-0.01-0.012-0.012
	c-0.004-0.002-0.016-0.014-0.016-0.014s-0.011-0.037-0.015-0.039c-0.004-0.006-0.011-0.014-0.013-0.016
	c-0.004-0.004-0.014-0.014-0.014-0.014v-0.027l0,0c-0.007-0.01-0.018-0.02-0.025-0.025c0,0-0.014-0.012-0.014-0.016
	c-0.014-0.014-0.008-0.006-0.014-0.012s-0.014-0.014-0.014-0.014s-0.008-0.006-0.014-0.014c-0.007-0.006,0,0-0.014-0.014
	c0.003,0.004-0.007-0.008-0.016-0.014c0.005,0.002,0.005,0.004-0.012-0.016l-2.664-2.661l2.664-2.666
	c0.012-0.011,0.015-0.015,0.015-0.015c0,0.002-0.005,0.006,0.015-0.013c0.006-0.008,0.006-0.008,0.012-0.014
	c0.01-0.008,0.016-0.014,0.016-0.016c0.004-0.002,0.01-0.01,0.014-0.014c0.001-0.002,0.014-0.012,0.014-0.014
	c0,0-0.008-0.015,0-0.026c0.004-0.003,0.015-0.013,0.015-0.013s0.026-0.019,0.024-0.027c0.002-0.002-0.004-0.021,0.002-0.025
	c-0.004-0.008,0.012-0.012,0.012-0.014c0,0.002,0.015-0.039,0.015-0.039c0.005-0.005,0.015-0.016,0.015-0.016
	c0.004-0.002,0.01-0.008,0.014-0.013c0.002-0.002,0.014-0.038,0.014-0.04c0,0-0.016-0.009-0.014-0.015c0,0,0.014-0.002,0.014-0.013
	c0.004-0.014,0-0.026,0-0.026s0.01-0.011,0.014-0.015c0-0.008-0.014-0.01-0.014-0.014c0.003-0.004,0.014-0.014,0.014-0.014
	c0.004-0.004,0.014-0.016,0.014-0.016s-0.002-0.021,0-0.025c0,0,0-0.021,0-0.025V4.655C31.971,4.671,31.986,4.671,31.986,4.664z"/>
<polygon fill="#EC2727" points="31.219,11.046 28.001,7.829 31.216,4.615 28.214,1.613 24.999,4.827 21.785,1.613 18.784,4.615 
	21.998,7.829 18.781,11.046 21.781,14.048 24.999,10.829 28.218,14.048 "/>
<linearGradient id="SVGID_2_" gradientUnits="userSpaceOnUse" x1="864.1514" y1="-1189.3496" x2="875.0879" y2="-1189.3496" gradientTransform="matrix(1 0 0 -1 -844.6201 -1181.5195)">
	<stop  offset="0" style="stop-color:#F6979A"/>
	<stop  offset="1" style="stop-color:#901A1D"/>
</linearGradient>
<polygon fill="url(#SVGID_2_)" points="30.468,11.046 27.251,7.829 30.466,4.615 28.214,2.363 24.999,5.578 21.785,2.363 
	19.533,4.615 22.748,7.829 19.531,11.046 21.781,13.298 24.999,10.08 28.218,13.298 "/>
</svg>
