<?xml version="1.0" encoding="utf-8"?>
<!-- Generator: Adobe Illustrator 14.0.0, SVG Export Plug-In . SVG Version: 6.00 Build 43363)  -->
<!DOCTYPE svg PUBLIC "-//W3C//DTD SVG 1.1//EN" "http://www.w3.org/Graphics/SVG/1.1/DTD/svg11.dtd">
<svg version="1.1" id="Layer_1" xmlns="http://www.w3.org/2000/svg" xmlns:xlink="http://www.w3.org/1999/xlink" x="0px" y="0px"
	 width="32px" height="32px" viewBox="0 0 32 32" enable-background="new 0 0 32 32" xml:space="preserve">
<path id="path4251_1_" fill="#020202" d="M13.822,23.417c-0.641,0-1.219-0.382-1.469-0.972l-0.461-1.084
	c-0.087,0.002-0.291,0.004-0.305,0.004l-0.443,1.09c-0.037,0.092-0.092,0.177-0.162,0.247l-0.447,0.454
	c-0.142,0.145-0.334,0.227-0.537,0.228c0,0-0.637,0.007-0.64,0.007c-0.099,0-0.196-0.019-0.286-0.056L5.45,21.868
	c-0.605-0.246-0.995-0.826-0.995-1.479c0-0.209,0.041-0.414,0.119-0.604l0.447-1.104c-0.068-0.067-0.139-0.135-0.205-0.201
	l-0.752,0.317c-0.434,0.185-0.434,0.185-0.52,0.199C3.5,19.006,3.455,19.01,3.408,19.01l-0.632,0.001
	c-0.2,0-0.392-0.079-0.534-0.218l-0.453-0.441c-0.072-0.072-0.129-0.156-0.169-0.248l-1.524-3.599
	c-0.038-0.092-0.059-0.192-0.061-0.293l-0.003-0.635c-0.001-0.201,0.078-0.395,0.22-0.539l0.443-0.453
	c0.07-0.071,0.154-0.129,0.247-0.167l1.073-0.455c-0.004-0.08-0.006-0.291-0.006-0.317c-0.484-0.195-1.012-0.41-1.068-0.431
	c-0.096-0.037-0.185-0.095-0.26-0.168l-0.449-0.443c-0.144-0.142-0.225-0.335-0.229-0.536L0,9.431
	c-0.001-0.101,0.018-0.2,0.057-0.294l1.465-3.622c0.037-0.092,0.093-0.176,0.162-0.248l0.445-0.454
	c0.143-0.145,0.334-0.227,0.538-0.229c0,0,0.642-0.006,0.644-0.006c0.098,0,0.197,0.02,0.287,0.057l1.111,0.451
	c0.066-0.071,0.133-0.14,0.201-0.207c0,0-0.482-1.145-0.484-1.146C4.396,3.65,4.381,3.564,4.379,3.476V3.421
	c-0.208-0.296-0.184-0.708,0.08-0.975l0.584-0.595C5.115,1.78,5.197,1.724,5.289,1.685L8.886,0.16
	c0.2-0.083,0.407-0.124,0.618-0.124c0.645,0,1.223,0.382,1.471,0.975l0.461,1.081c0.082-0.001,0.287-0.003,0.306-0.003l0.442-1.092
	C12.432,0.391,13.012,0,13.664,0c0.205,0,0.403,0.039,0.593,0.116l3.623,1.468c0.604,0.249,0.995,0.828,0.995,1.479
	c0,0.201-0.039,0.401-0.114,0.593l-0.454,1.117c0.068,0.067,0.139,0.134,0.205,0.203l1.104-0.469c0.093-0.039,0.19-0.059,0.293-0.06
	c0,0,0.64-0.005,0.642-0.005c0.2,0,0.391,0.078,0.533,0.218l0.456,0.443c0.071,0.071,0.129,0.155,0.168,0.248l1.524,3.601
	c0.041,0.093,0.061,0.193,0.063,0.294l0.003,0.633c0,0.202-0.077,0.395-0.22,0.539l-0.444,0.453
	C22.563,10.943,22.48,11,22.389,11.04l-1.074,0.455c0.006,0.079,0.006,0.29,0.006,0.316l1.072,0.435
	c0.092,0.038,0.176,0.091,0.246,0.16l0.455,0.444c0.146,0.143,0.229,0.336,0.232,0.54l0.006,0.637
	c0.002,0.1-0.018,0.201-0.055,0.293l-1.467,3.624c-0.25,0.605-0.83,0.994-1.479,0.994c-0.204,0-0.401-0.039-0.592-0.112
	l-1.117-0.452c-0.065,0.068-0.138,0.137-0.204,0.206c0.23,0.541,0.479,1.127,0.493,1.167c0.024,0.078,0.04,0.156,0.04,0.238
	l0.001,0.625c0.002,0.199-0.078,0.394-0.22,0.535l-0.443,0.457c-0.068,0.071-0.154,0.129-0.247,0.17l-3.597,1.524
	C14.244,23.377,14.036,23.417,13.822,23.417L13.822,23.417z M9.17,20.684c0.204-0.5,0.572-1.408,0.572-1.408
	c0.117-0.291,0.398-0.479,0.707-0.479c0.025,0,0.055,0.002,0.08,0.005l0.363,0.038c0.26,0.028,0.519,0.042,0.775,0.042
	c0.295,0,0.59-0.018,0.875-0.055l0.369-0.045c0.031-0.007,0.063-0.007,0.092-0.007c0.303,0,0.584,0.183,0.703,0.468l0.592,1.397
	c0.569-0.242,1.364-0.58,1.936-0.82l-0.592-1.396c-0.135-0.313-0.043-0.678,0.223-0.895l0.286-0.229
	c0.429-0.345,0.82-0.74,1.16-1.178l0.224-0.287c0.146-0.191,0.37-0.297,0.604-0.297c0.096,0,0.191,0.018,0.285,0.055l1.411,0.571
	c0.161-0.399,0.787-1.95,0.787-1.95l-1.407-0.57c-0.314-0.128-0.509-0.449-0.473-0.787l0.04-0.362
	c0.026-0.26,0.042-0.515,0.042-0.768c0-0.304-0.021-0.6-0.057-0.88l-0.049-0.362c-0.046-0.34,0.146-0.669,0.459-0.802L20.58,9.09
	l-0.82-1.937c-0.615,0.261-1.4,0.593-1.4,0.593c-0.096,0.041-0.194,0.061-0.297,0.061c-0.227,0-0.446-0.102-0.596-0.287
	l-0.229-0.285c-0.346-0.427-0.743-0.818-1.177-1.156l-0.289-0.224c-0.27-0.209-0.367-0.573-0.238-0.891l0.57-1.407l-1.948-0.789
	c-0.251,0.62-0.569,1.408-0.569,1.408c-0.118,0.291-0.399,0.477-0.709,0.477c-0.025,0-0.053-0.001-0.079-0.003l-0.366-0.039
	c-0.26-0.028-0.516-0.042-0.775-0.042c-0.291,0-0.588,0.017-0.879,0.053l-0.355,0.047c-0.033,0.004-0.066,0.007-0.1,0.007
	c-0.303,0-0.581-0.182-0.701-0.467L9.029,2.81c-0.57,0.243-1.365,0.579-1.936,0.82l0.592,1.4C7.82,5.346,7.727,5.711,7.461,5.924
	L7.174,6.152c-0.428,0.344-0.817,0.74-1.157,1.176L5.795,7.612C5.646,7.803,5.422,7.909,5.191,7.909
	c-0.098,0-0.194-0.018-0.287-0.055c0,0-0.784-0.318-1.409-0.571c0,0-0.604,1.493-0.788,1.949c0.618,0.25,1.407,0.569,1.407,0.569
	c0.317,0.128,0.51,0.45,0.473,0.791l-0.04,0.364c-0.027,0.253-0.041,0.51-0.041,0.767c0,0.29,0.017,0.588,0.055,0.887l0.045,0.363
	c0.041,0.338-0.146,0.664-0.461,0.796c0,0-0.778,0.329-1.398,0.59c0.242,0.572,0.579,1.366,0.82,1.936
	c0.613-0.261,1.396-0.594,1.396-0.594c0.098-0.041,0.199-0.061,0.299-0.061c0.227,0,0.449,0.101,0.598,0.286l0.229,0.286
	c0.345,0.431,0.739,0.819,1.172,1.155l0.29,0.224c0.271,0.208,0.37,0.573,0.241,0.892l-0.57,1.412L9.17,20.684z"/>
<path id="path1817_1_" fill="#FFFFFF" d="M18.87,9.77c0.112,0.735,0.126,1.493,0.019,2.251l0.82,0.333
	c0.052-0.642,0.029-1.283-0.066-1.907l2.118-0.898l-1.524-3.598l-0.527,0.224l1.163,2.747L18.87,9.77z"/>
<path id="path1819_1_" fill="#FFFFFF" d="M17.505,15.435c-0.448,0.62-0.983,1.161-1.579,1.607l0.848,2.002l-3.391,1.438
	l-0.848-2.002c-0.737,0.115-1.496,0.123-2.254,0.02l-0.815,2.016l-2.983-1.209l-0.432,1.066L9.67,21.84l0.867-2.138
	c0.802,0.114,1.605,0.104,2.387-0.021l0.897,2.12l3.596-1.522l-0.899-2.12c0.633-0.474,1.2-1.048,1.676-1.702l2.138,0.861
	l1.467-3.618l-1.067-0.433l-1.205,2.984L17.505,15.435z"/>
<path id="path1821_1_" fill="#FFFFFF" d="M5.26,15.536l-2.003,0.847l-1.161-2.745l-0.528,0.227L3.09,17.46l2.12-0.897
	c0.38,0.506,0.826,0.965,1.321,1.375l0.334-0.82C6.248,16.664,5.708,16.13,5.26,15.536z"/>
<linearGradient id="path1830_2_" gradientUnits="userSpaceOnUse" x1="-424.5874" y1="-185.0762" x2="-425.5569" y2="-185.0762" gradientTransform="matrix(5.1929 22.7877 -22.7877 5.1929 -1998.5883 10658.9336)">
	<stop  offset="0" style="stop-color:#B1D2DB"/>
	<stop  offset="1" style="stop-color:#C3DCE3"/>
</linearGradient>
<path id="path1830_1_" fill="url(#path1830_2_)" d="M3.67,10.578c-0.08,0.554-0.096,1.109-0.061,1.657
	c0.016,0.244,0.04,0.49,0.078,0.731l-1.59,0.673l1.16,2.745l2.003-0.847c0.447,0.595,0.987,1.129,1.606,1.579l-0.333,0.821
	c0.126,0.104,0.251,0.205,0.38,0.299l-0.432,1.068l2.982,1.209l0.816-2.016c0.758,0.104,1.517,0.098,2.254-0.021l0.848,2.002
	l3.393-1.438l-0.85-2.002c0.596-0.445,1.131-0.987,1.58-1.607l2.018,0.815l1.205-2.982l-1.065-0.432
	c0.022-0.162,0.034-0.321,0.049-0.481l-0.819-0.333c0.106-0.759,0.096-1.515-0.019-2.251l2.001-0.848l-1.164-2.746L18.117,6.85
	c-0.146-0.197-0.307-0.383-0.471-0.564c-0.369-0.406-0.778-0.781-1.229-1.11l0.861-2.136l-3.616-1.466l-0.869,2.137
	c-0.805-0.116-1.608-0.104-2.389,0.017l-0.898-2.12L9.404,1.652l-3.39,1.436L5.911,3.132l0.9,2.121
	C6.178,5.729,5.613,6.3,5.137,6.957L3,6.091L1.793,9.075L1.534,9.712L3.67,10.578z M10.466,14.666
	c-1.186-0.479-1.925-1.594-1.987-2.793c-0.023-0.452,0.045-0.917,0.227-1.366c0.66-1.631,2.521-2.422,4.156-1.758
	c0.447,0.178,0.83,0.455,1.135,0.785c0.819,0.879,1.105,2.185,0.625,3.369C13.963,14.539,12.101,15.325,10.466,14.666z"/>
<path id="path4266_1_" fill="#020202" d="M14.963,13.033c0.731-1.807-0.146-3.874-1.954-4.606C11.2,7.694,9.135,8.569,8.402,10.38
	c-0.732,1.806,0.144,3.874,1.952,4.606C12.163,15.718,14.23,14.841,14.963,13.033z M14.32,12.774
	c-0.589,1.457-2.251,2.158-3.705,1.569c-1.455-0.587-2.16-2.251-1.571-3.706c0.589-1.456,2.251-2.16,3.706-1.571
	C14.205,9.656,14.908,11.319,14.32,12.774z"/>
<path id="path1834_1_" fill="#007FA1" d="M14.944,13.034c0.731-1.809-0.145-3.873-1.954-4.606C11.182,7.696,9.117,8.57,8.385,10.38
	c-0.732,1.806,0.143,3.874,1.951,4.606C12.146,15.718,14.213,14.842,14.944,13.034z M14.303,12.775
	c-0.588,1.457-2.252,2.157-3.707,1.57c-1.455-0.589-2.158-2.253-1.568-3.708c0.588-1.455,2.25-2.159,3.705-1.569
	C14.186,9.657,14.891,11.322,14.303,12.775z"/>
<path id="path1838_1_" fill="#00ACDA" d="M14.163,22.588l3.597-1.525l0.445-0.457l-0.003-0.625
	c-0.001-0.004-0.454-1.067-0.681-1.604c0.324-0.284,0.623-0.588,0.905-0.919c0.425,0.171,1.606,0.649,1.606,0.649
	c0.424,0.17,0.904-0.037,1.081-0.457l1.464-3.623l-0.006-0.637l-0.457-0.446c0,0-1.041-0.423-1.58-0.64
	c0.013-0.195,0.031-0.387,0.031-0.58c0-0.244-0.023-0.485-0.047-0.727c0.437-0.185,1.578-0.669,1.578-0.669l0.444-0.453
	l-0.003-0.632l-1.525-3.601L20.564,5.2l-0.639,0.005c0,0-1.177,0.499-1.597,0.678c-0.287-0.327-0.591-0.628-0.919-0.907
	c0.172-0.422,0.648-1.607,0.648-1.607c0.043-0.103,0.063-0.209,0.063-0.31c0-0.328-0.196-0.642-0.518-0.772L13.983,0.82
	c-0.424-0.171-0.908,0.034-1.082,0.458c0,0-0.422,1.045-0.643,1.588c-0.433-0.03-0.869-0.023-1.306,0.011
	c-0.185-0.436-0.669-1.574-0.669-1.574c-0.178-0.422-0.664-0.62-1.088-0.444L5.601,2.384l-0.444,0.45L5.018,2.977l0.136-0.139
	l0.005,0.63c0.001,0.003,0.455,1.071,0.678,1.6c-0.32,0.283-0.625,0.59-0.903,0.92c-0.425-0.17-1.607-0.651-1.607-0.651L2.688,5.343
	L2.244,5.797L0.778,9.419l0.006,0.637l0.45,0.443c0.002,0,1.047,0.424,1.588,0.643c-0.014,0.192-0.031,0.388-0.031,0.58
	c0,0.244,0.024,0.485,0.045,0.728c-0.438,0.187-1.576,0.669-1.576,0.669L0.813,13.57l0.005,0.634l1.523,3.598l0.453,0.443h0.633
	c0.004-0.003,1.068-0.457,1.602-0.683c0.284,0.326,0.592,0.627,0.918,0.904c-0.17,0.424-0.652,1.607-0.652,1.607
	c-0.041,0.103-0.059,0.208-0.059,0.31c0,0.33,0.195,0.644,0.517,0.772l3.622,1.468l0.633-0.008l0.45-0.453
	c0,0,0.462-1.142,0.642-1.584c0.439,0.026,0.875,0.021,1.307-0.015c0.186,0.438,0.669,1.578,0.669,1.578
	C13.254,22.566,13.742,22.766,14.163,22.588z M10.33,19.898c0,0-0.631,1.555-0.72,1.774c-0.23-0.093-3.136-1.271-3.362-1.358
	c0.131-0.325,0.857-2.119,0.857-2.119l-0.291-0.225c-0.479-0.369-0.917-0.802-1.302-1.281l-0.229-0.287c0,0-1.88,0.801-2.102,0.894
	c-0.095-0.225-1.318-3.114-1.416-3.342c0.326-0.138,2.102-0.89,2.102-0.89l-0.045-0.364c-0.04-0.324-0.061-0.652-0.061-0.979
	c0-0.284,0.018-0.567,0.047-0.849l0.039-0.364c0,0-1.893-0.767-2.115-0.859c0.096-0.231,1.27-3.133,1.363-3.362
	C3.423,6.421,5.21,7.145,5.21,7.145l0.223-0.289c0.378-0.485,0.809-0.922,1.283-1.302l0.285-0.229c0,0-0.798-1.885-0.891-2.104
	c0.215-0.09,3.112-1.318,3.342-1.415c0.139,0.325,0.891,2.103,0.891,2.103l0.364-0.047c0.608-0.073,1.224-0.079,1.825-0.012
	l0.365,0.037c0,0,0.768-1.892,0.855-2.116c0.232,0.093,3.137,1.269,3.366,1.362C16.984,3.458,16.26,5.25,16.26,5.25l0.29,0.224
	c0.478,0.373,0.916,0.804,1.302,1.282l0.229,0.285c0,0,1.88-0.796,2.103-0.891c0.101,0.233,1.321,3.116,1.416,3.343
	c-0.312,0.13-2.104,0.892-2.104,0.892l0.048,0.361c0.043,0.324,0.063,0.652,0.063,0.98c0,0.282-0.018,0.563-0.047,0.847
	l-0.037,0.362c0,0,1.891,0.767,2.111,0.857c-0.094,0.233-1.268,3.135-1.359,3.362c-0.225-0.088-2.114-0.854-2.114-0.854
	l-0.226,0.289c-0.377,0.484-0.809,0.923-1.281,1.304l-0.286,0.229c0,0,0.795,1.88,0.891,2.103c-0.228,0.096-3.111,1.319-3.342,1.416
	c-0.137-0.324-0.889-2.104-0.889-2.104L12.66,19.58c-0.599,0.076-1.212,0.082-1.826,0.018l-0.365-0.041L10.33,19.898L10.33,19.898z"
	/>
<path d="M24,32c-4.411,0-8-3.589-8-8c0-4.412,3.589-8,8-8c4.412,0,8,3.588,8,8C32,28.411,28.412,32,24,32L24,32z M21.17,28.713
	l2.453-2.451c0.104-0.104,0.241-0.156,0.377-0.156c0.137,0,0.273,0.053,0.377,0.156l2.453,2.451l1.885-1.885l-2.451-2.452
	c-0.209-0.209-0.209-0.546,0-0.754l2.449-2.45l-1.885-1.886l-2.451,2.448c-0.104,0.104-0.24,0.156-0.377,0.156
	c-0.136,0-0.271-0.052-0.377-0.156l-2.449-2.448l-1.887,1.886l2.451,2.45c0.1,0.101,0.156,0.235,0.156,0.377
	s-0.058,0.276-0.156,0.377l-2.453,2.452L21.17,28.713z"/>
<path fill="#EC2727" d="M24,16.533c-4.123,0-7.467,3.343-7.467,7.467s3.344,7.467,7.467,7.467c4.124,0,7.467-3.343,7.467-7.467
	S28.124,16.533,24,16.533z M26.83,29.468L24,26.639l-2.83,2.829l-2.639-2.64l2.83-2.829l-2.828-2.827l2.641-2.641L24,21.357
	l2.828-2.826l2.639,2.641l-2.826,2.827l2.828,2.829L26.83,29.468z"/>
<linearGradient id="SVGID_1_" gradientUnits="userSpaceOnUse" x1="298.6064" y1="-396.8398" x2="312.4736" y2="-396.8398" gradientTransform="matrix(1 0 0 -1 -281.54 -372.8398)">
	<stop  offset="0" style="stop-color:#F6979A"/>
	<stop  offset="1" style="stop-color:#901A1D"/>
</linearGradient>
<path fill="url(#SVGID_1_)" d="M24,30.934c-3.823,0-6.934-3.11-6.934-6.934s3.109-6.934,6.934-6.934
	c3.822,0,6.934,3.109,6.934,6.934C30.934,27.822,27.822,30.934,24,30.934L24,30.934z M26.83,30.223l3.395-3.395l-2.83-2.829
	l2.826-2.827l-3.393-3.395L24,20.604l-2.826-2.826l-3.395,3.395l2.828,2.827l-2.832,2.829l3.395,3.395l2.83-2.83L26.83,30.223z"/>
</svg>
