<?xml version="1.0" encoding="UTF-8" standalone="no"?>
<!-- Created with Inkscape (http://www.inkscape.org/) -->
<svg
   xmlns:dc="http://purl.org/dc/elements/1.1/"
   xmlns:cc="http://web.resource.org/cc/"
   xmlns:rdf="http://www.w3.org/1999/02/22-rdf-syntax-ns#"
   xmlns:svg="http://www.w3.org/2000/svg"
   xmlns="http://www.w3.org/2000/svg"
   xmlns:xlink="http://www.w3.org/1999/xlink"
   xmlns:sodipodi="http://inkscape.sourceforge.net/DTD/sodipodi-0.dtd"
   xmlns:inkscape="http://www.inkscape.org/namespaces/inkscape"
   width="20"
   height="20"
   id="svg2"
   sodipodi:version="0.32"
   inkscape:version="0.43"
   sodipodi:docbase="C:\DOCUME~1\akrylov.MGN\LOCALS~1\Temp"
   sodipodi:docname="opInkscape2.svg"
   version="1.0">
  <defs
     id="defs4">
    <linearGradient
       id="linearGradient7447">
      <stop
         style="stop-color:#006dff;stop-opacity:1;"
         offset="0"
         id="stop7449" />
      <stop
         style="stop-color:#000008;stop-opacity:1;"
         offset="1"
         id="stop7451" />
    </linearGradient>
    <linearGradient
       id="linearGradient2179">
      <stop
         style="stop-color:#ff0000;stop-opacity:1;"
         offset="0"
         id="stop2181" />
      <stop
         style="stop-color:#8f0101;stop-opacity:1;"
         offset="1"
         id="stop2183" />
    </linearGradient>
    <linearGradient
       inkscape:collect="always"
       xlink:href="#linearGradient2179"
       id="linearGradient4817"
       gradientUnits="userSpaceOnUse"
       x1="3.8149128"
       y1="9.3495064"
       x2="10.865777"
       y2="10.05321" />
    <linearGradient
       inkscape:collect="always"
       xlink:href="#linearGradient7447"
       id="linearGradient7453"
       x1="8.7238426"
       y1="12.910493"
       x2="16.247223"
       y2="13.799383"
       gradientUnits="userSpaceOnUse" />
  </defs>
  <sodipodi:namedview
     id="base"
     pagecolor="#ffffff"
     bordercolor="#000000"
     borderopacity="1.0"
     inkscape:pageopacity="0.0"
     inkscape:pageshadow="2"
     inkscape:zoom="27"
     inkscape:cx="10"
     inkscape:cy="10"
     inkscape:document-units="px"
     inkscape:current-layer="layer1"
     inkscape:window-width="1080"
     inkscape:window-height="738"
     inkscape:window-x="100"
     inkscape:window-y="%window-y"
     showgrid="true" />
  <metadata
     id="metadata7">
    <rdf:RDF>
      <cc:Work
         rdf:about="">
        <dc:format>image/svg+xml</dc:format>
        <dc:type
           rdf:resource="http://purl.org/dc/dcmitype/StillImage" />
      </cc:Work>
    </rdf:RDF>
  </metadata>
  <g
     inkscape:label="Layer 1"
     inkscape:groupmode="layer"
     id="layer1">
    <path
       style="fill:url(#linearGradient4817);fill-opacity:1;fill-rule:evenodd;stroke:#000000;stroke-width:0.3;stroke-linecap:round;stroke-linejoin:round;stroke-miterlimit:4;stroke-dasharray:none;stroke-opacity:1"
       d="M 13.85,0.15000001 C 11.157774,3.528449 4.0933384,4.0978258 1.00625,0.36875001 L 2.81875,11.0875 C 4.9165976,15.090989 10.44505,14.985843 11.975,11.15 L 13.85,0.15000001 z M 4.63125,4.11875 C 4.637346,4.1174651 4.6564743,4.1198092 4.6625,4.11875 C 4.6678561,4.1178085 4.6885885,4.1191408 4.69375,4.11875 C 4.7087216,4.1195721 4.74041,4.118211 4.75625,4.11875 C 4.7617721,4.1186071 4.7816631,4.119361 4.7875,4.11875 C 5.8545698,4.2784138 5.8889081,5.5369847 5.7875,6.9625 C 5.7199846,7.0273148 5.637447,7.0993634 5.56875,7.15 C 5.0178241,7.5388888 4.4140432,7.4810182 3.7875,6.9625 C 3.8009921,6.1949651 3.5785215,5.2714193 3.85,4.68125 C 3.8575861,4.665658 3.8714403,4.6350397 3.88125,4.61875 C 3.9076445,4.5779201 3.9483488,4.5274458 3.975,4.49375 C 4.0066689,4.4584583 4.0688325,4.395873 4.1,4.36875 C 4.1054484,4.363186 4.1257558,4.3430324 4.13125,4.3375 C 4.1420395,4.3321577 4.1827711,4.311462 4.19375,4.30625 C 4.2431611,4.2754859 4.3219025,4.2364328 4.38125,4.2125 C 4.4496893,4.186726 4.5451847,4.1395685 4.63125,4.11875 z M 9.94375,4.24375 C 10.996124,4.3738804 11.063451,5.5938718 10.94375,6.99375 C 10.277083,7.5825111 9.610417,7.5901636 8.94375,6.99375 C 8.8866961,5.5914938 9.0671772,4.8903223 9.35,4.55625 C 9.3644095,4.5403898 9.3975767,4.5079954 9.4125,4.49375 C 9.473175,4.4398542 9.5638197,4.3701649 9.63125,4.3375 C 9.7249388,4.295641 9.842139,4.2607099 9.94375,4.24375 z M 10.31875,10.0875 C 7.9483787,15.074924 5.8905092,12.485446 4.63125,10.11875 L 10.31875,10.0875 z "
       id="path1304" />
    <path
       style="fill:url(#linearGradient7453);fill-opacity:1.0;fill-rule:evenodd;stroke:#000000;stroke-width:0.30000001;stroke-linecap:round;stroke-linejoin:round;stroke-miterlimit:4;stroke-dasharray:none;stroke-opacity:1"
       d="M 17.875 6.1875 C 14.427389 8.1786308 10.518485 7.9783363 6.28125 6.21875 C 7.7836365 10.807593 5.5975455 19.903322 12.375 18.25 C 18.676438 19.58701 16.49008 10.591621 17.875 6.1875 z M 14.0625 9.71875 C 14.068516 9.7166745 14.087809 9.7206032 14.09375 9.71875 C 14.099595 9.7171419 14.119271 9.7200903 14.125 9.71875 C 14.128726 9.718411 14.152314 9.7187456 14.15625 9.71875 C 14.168603 9.7197255 14.207364 9.7190744 14.21875 9.71875 C 14.221466 9.7188626 14.247363 9.7187041 14.25 9.71875 C 14.326448 9.7126884 14.426918 9.7067613 14.5 9.71875 C 14.690443 9.7558359 14.885166 9.86076 15.03125 10 C 15.041482 10.01024 15.077529 10.046094 15.09375 10.0625 C 15.099749 10.069432 15.119119 10.086649 15.125 10.09375 C 15.142281 10.115551 15.171367 10.164264 15.1875 10.1875 C 15.20323 10.211194 15.235536 10.256237 15.25 10.28125 C 15.278043 10.332117 15.321425 10.413242 15.34375 10.46875 C 15.397009 10.609286 15.428478 10.776254 15.4375 10.9375 C 15.46467 11.430924 15.25761 11.90017 14.9375 12.15625 C 14.914783 12.173485 14.867571 12.203474 14.84375 12.21875 C 14.810444 12.237235 14.748497 12.267498 14.71875 12.28125 C 14.686491 12.29507 14.633998 12.328796 14.59375 12.34375 C 14.587466 12.345815 14.568175 12.342243 14.5625 12.34375 C 14.528125 12.351792 14.477427 12.368191 14.4375 12.375 C 14.431123 12.375841 14.412226 12.374526 14.40625 12.375 C 14.358438 12.378791 14.296612 12.378393 14.25 12.375 C 14.203675 12.37022 14.141329 12.356713 14.09375 12.34375 C 14.0273 12.323607 13.93556 12.28135 13.875 12.25 C 13.858132 12.240698 13.828352 12.228657 13.8125 12.21875 C 13.765606 12.187696 13.69879 12.13239 13.65625 12.09375 C 13.642333 12.080472 13.607121 12.045306 13.59375 12.03125 C 13.541395 11.97351 13.479931 11.88143 13.4375 11.8125 C 13.396421 11.742289 13.341869 11.642023 13.3125 11.5625 C 13.284272 11.480672 13.267802 11.37529 13.25 11.28125 C 13.241988 11.234085 13.221317 11.171617 13.21875 11.125 C 13.205481 10.884025 13.261007 10.639924 13.34375 10.4375 C 13.434565 10.228261 13.583406 10.032642 13.75 9.90625 C 13.773093 9.8896567 13.819578 9.8583505 13.84375 9.84375 C 13.910147 9.8060667 13.984294 9.7457318 14.0625 9.71875 z M 9.65625 9.9375 C 9.6810006 9.9316026 9.7245865 9.9411407 9.75 9.9375 C 9.7585399 9.936544 9.7726438 9.938195 9.78125 9.9375 C 9.8070512 9.9354163 9.8495621 9.9371898 9.875 9.9375 C 9.9087334 9.9389537 9.9671132 9.9320052 10 9.9375 C 10.024485 9.9423565 10.069854 9.9617411 10.09375 9.96875 C 10.117433 9.9764585 10.164506 9.9902463 10.1875 10 C 10.255742 10.031253 10.345792 10.077031 10.40625 10.125 C 10.419465 10.136043 10.455992 10.175709 10.46875 10.1875 C 10.475011 10.193578 10.49386 10.212493 10.5 10.21875 C 10.55414 10.276657 10.61328 10.366498 10.65625 10.4375 C 10.670118 10.461608 10.706299 10.505875 10.71875 10.53125 C 10.790525 10.685927 10.833356 10.873305 10.84375 11.0625 C 10.856829 11.304431 10.80803 11.552264 10.71875 11.75 C 10.702566 11.783891 10.674962 11.843237 10.65625 11.875 C 10.64176 11.898397 10.609563 11.946688 10.59375 11.96875 C 10.534205 12.047936 10.449967 12.12957 10.375 12.1875 C 10.333432 12.217921 10.26407 12.25832 10.21875 12.28125 C 10.203452 12.288453 10.171916 12.306197 10.15625 12.3125 C 10.124565 12.324184 10.064251 12.335887 10.03125 12.34375 C 9.9979448 12.350624 9.9406749 12.37222 9.90625 12.375 C 9.8634071 12.377128 9.7916924 12.379382 9.75 12.375 C 9.7251477 12.371617 9.6805625 12.349343 9.65625 12.34375 C 9.6321342 12.337439 9.5859755 12.320913 9.5625 12.3125 C 9.5392547 12.303405 9.4912545 12.292339 9.46875 12.28125 C 9.4242685 12.257778 9.3534655 12.218356 9.3125 12.1875 C 9.2856195 12.166151 9.2437998 12.118094 9.21875 12.09375 C 9.2126089 12.087484 9.1935169 12.068942 9.1875 12.0625 C 9.1757202 12.049268 9.1362551 12.013909 9.125 12 C 9.1085234 11.978642 9.0777081 11.929037 9.0625 11.90625 C 9.0181945 11.836514 8.9688062 11.737152 8.9375 11.65625 C 8.8912437 11.528682 8.8517112 11.366012 8.84375 11.21875 C 8.8380633 11.113563 8.8597473 11.005301 8.875 10.90625 C 8.9128667 10.690101 9.0059106 10.470872 9.125 10.3125 C 9.1749756 10.249139 9.2522001 10.174132 9.3125 10.125 C 9.3465761 10.098668 9.4007266 10.052507 9.4375 10.03125 C 9.4524105 10.023173 9.484702 10.007203 9.5 10 C 9.530969 9.9864874 9.5926374 9.978551 9.625 9.96875 C 9.6331717 9.9665403 9.6479998 9.9394658 9.65625 9.9375 z M 12.28125 14 C 12.310107 13.996047 12.345451 14.003268 12.375 14 C 12.378814 13.999845 12.402347 13.999971 12.40625 14 C 12.418216 14.000559 12.457093 14.000304 12.46875 14 C 12.472616 13.999867 12.496118 13.99998 12.5 14 C 12.511728 14.000458 12.550674 14.000231 12.5625 14 C 13.011711 14.037226 13.370808 14.16459 13.65625 14.34375 C 14.490816 14.886759 14.734456 15.963838 15 17 C 13.333333 16.178416 11.666667 16.045873 10 17 C 10.125245 15.928152 10.362397 14.911697 11.21875 14.375 C 11.499412 14.205148 11.848399 14.059302 12.28125 14 z "
       id="path4823" />
  </g>
</svg>
