<?xml version="1.0" encoding="utf-8"?>
<!-- Generator: Adobe Illustrator 14.0.0, SVG Export Plug-In . SVG Version: 6.00 Build 43363)  -->
<!DOCTYPE svg PUBLIC "-//W3C//DTD SVG 1.1//EN" "http://www.w3.org/Graphics/SVG/1.1/DTD/svg11.dtd">
<svg version="1.1" id="Layer_1" xmlns="http://www.w3.org/2000/svg" xmlns:xlink="http://www.w3.org/1999/xlink" x="0px" y="0px"
	 width="32px" height="32px" viewBox="0 0 32 32" enable-background="new 0 0 32 32" xml:space="preserve">
<g>
	<path d="M1.047,29.738C0.47,29.738,0,29.268,0,28.691V3.31c0-0.578,0.47-1.048,1.047-1.048h29.907C31.531,2.262,32,2.731,32,3.31
		v25.382c0,0.576-0.469,1.047-1.046,1.047H1.047z"/>
	<rect x="1.047" y="3.31" fill="#DAEBF3" width="29.907" height="25.382"/>
	
		<linearGradient id="SVGID_1_" gradientUnits="userSpaceOnUse" x1="282.5869" y1="-378.6768" x2="312.4941" y2="-378.6768" gradientTransform="matrix(1 0 0 -1 -281.54 -371.8398)">
		<stop  offset="0" style="stop-color:#B1D2DB"/>
		<stop  offset="1" style="stop-color:#0C7C9E"/>
	</linearGradient>
	<rect x="1.047" y="3.31" fill="url(#SVGID_1_)" width="29.907" height="7.055"/>
	
		<linearGradient id="SVGID_2_" gradientUnits="userSpaceOnUse" x1="282.5869" y1="-391.8223" x2="312.4941" y2="-391.8223" gradientTransform="matrix(1 0 0 -1 -281.54 -371.8398)">
		<stop  offset="0" style="stop-color:#B0D68C"/>
		<stop  offset="1" style="stop-color:#1E9046"/>
	</linearGradient>
	<rect x="1.047" y="16.93" fill="url(#SVGID_2_)" width="29.907" height="6.104"/>
	<line fill="none" stroke="#000000" x1="1.047" y1="10.365" x2="30.954" y2="10.365"/>
	<line fill="none" stroke="#000000" x1="1.047" y1="16.4" x2="30.954" y2="16.4"/>
	<line fill="none" stroke="#000000" x1="1.047" y1="23.033" x2="30.954" y2="23.033"/>
	<line fill="none" stroke="#000000" x1="10.712" y1="10.382" x2="10.712" y2="28.707"/>
	<line fill="none" stroke="#000000" x1="21.356" y1="10.416" x2="21.356" y2="28.742"/>
</g>
<g>
	<path id="path36" d="M24.831,11.355c0.135,0,0.269,0.028,0.395,0.085c0.34,0.155,0.556,0.492,0.556,0.865v2.369h5.269
		c0.524,0,0.95,0.424,0.95,0.95v7.072c0,0.526-0.426,0.95-0.95,0.95h-5.269v2.314c0,0.372-0.216,0.71-0.555,0.864
		c-0.126,0.057-0.261,0.086-0.396,0.086c-0.224,0-0.446-0.079-0.621-0.231l-7.881-6.811C16.12,19.69,16,19.427,16,19.151
		s0.119-0.537,0.327-0.718l7.881-6.845C24.385,11.436,24.607,11.355,24.831,11.355L24.831,11.355z"/>
	<path id="path4348-2-1_5_" fill="#ED2526" d="M24.831,12.306L16.95,19.15l7.881,6.812v-3.265h6.219v-7.072h-6.219V12.306z"/>
	
		<linearGradient id="polygon44_1_" gradientUnits="userSpaceOnUse" x1="98.5371" y1="94.3096" x2="110.2354" y2="94.3096" gradientTransform="matrix(-1 0 0 -1 128.6367 113.4473)">
		<stop  offset="0" style="stop-color:#F59699"/>
		<stop  offset="1" style="stop-color:#8F1A1D"/>
	</linearGradient>
	<polygon id="polygon44" fill="url(#polygon44_1_)" points="23.881,16.575 30.1,16.575 30.1,21.749 23.881,21.749 23.881,23.885 
		18.401,19.148 23.881,14.39 	"/>
</g>
</svg>
