<?xml version="1.0" encoding="utf-8"?>
<!-- Generator: Adobe Illustrator 15.0.0, SVG Export Plug-In . SVG Version: 6.00 Build 0)  -->
<!DOCTYPE svg PUBLIC "-//W3C//DTD SVG 1.1//EN" "http://www.w3.org/Graphics/SVG/1.1/DTD/svg11.dtd">
<svg version="1.1" id="Layer_1" xmlns="http://www.w3.org/2000/svg" xmlns:xlink="http://www.w3.org/1999/xlink" x="0px" y="0px"
	 width="32px" height="32px" viewBox="0 0 32 32" enable-background="new 0 0 32 32" xml:space="preserve">
<g>
	<path id="path4251_2_" fill="#020202" d="M21.775,13.172c-0.361,0-0.687-0.215-0.826-0.547l-0.26-0.609
		c-0.049,0.001-0.164,0.002-0.172,0.002l-0.25,0.613c-0.021,0.052-0.052,0.1-0.091,0.139l-0.252,0.256
		c-0.079,0.081-0.188,0.127-0.302,0.128c0,0-0.357,0.004-0.359,0.004c-0.057,0-0.109-0.011-0.16-0.031l-2.037-0.825
		c-0.342-0.139-0.562-0.465-0.562-0.832c0-0.118,0.022-0.233,0.065-0.34l0.252-0.62c-0.037-0.038-0.077-0.077-0.114-0.113
		l-0.423,0.178c-0.244,0.104-0.244,0.104-0.292,0.112c-0.025,0.005-0.05,0.008-0.077,0.008h-0.355c-0.112,0-0.221-0.044-0.3-0.122
		l-0.255-0.249c-0.041-0.04-0.072-0.088-0.095-0.139l-0.857-2.024c-0.021-0.052-0.033-0.108-0.034-0.165l-0.002-0.357
		c-0.001-0.113,0.044-0.222,0.124-0.303l0.249-0.255c0.04-0.04,0.087-0.073,0.139-0.094l0.604-0.256
		c-0.002-0.045-0.003-0.164-0.003-0.178c-0.272-0.109-0.569-0.229-0.601-0.242c-0.054-0.021-0.104-0.054-0.146-0.095L14.13,5.965
		c-0.081-0.08-0.126-0.188-0.129-0.302L14,5.305c0-0.057,0.01-0.113,0.032-0.166l0.824-2.038c0.021-0.052,0.053-0.099,0.091-0.139
		l0.25-0.255c0.08-0.082,0.188-0.128,0.302-0.129c0,0,0.361-0.003,0.362-0.003c0.055,0,0.111,0.011,0.162,0.032l0.625,0.254
		c0.037-0.04,0.074-0.079,0.113-0.116c0,0-0.271-0.645-0.273-0.645c-0.017-0.046-0.025-0.095-0.026-0.145V1.924
		c-0.117-0.167-0.104-0.398,0.045-0.548l0.328-0.335c0.041-0.04,0.088-0.071,0.139-0.093l2.023-0.857
		c0.113-0.047,0.229-0.07,0.348-0.07c0.363,0,0.688,0.215,0.828,0.548l0.26,0.608c0.045,0,0.16-0.002,0.172-0.002l0.248-0.614
		C20.993,0.22,21.318,0,21.686,0c0.115,0,0.228,0.022,0.334,0.065l2.039,0.826c0.34,0.14,0.56,0.466,0.56,0.832
		c0,0.113-0.022,0.225-0.063,0.333l-0.256,0.628c0.038,0.038,0.077,0.076,0.115,0.114l0.621-0.264
		C25.087,2.512,25.143,2.501,25.2,2.5c0,0,0.358-0.003,0.36-0.003c0.112,0,0.219,0.044,0.299,0.123l0.258,0.249
		c0.04,0.04,0.072,0.087,0.095,0.139l0.856,2.026c0.022,0.052,0.035,0.108,0.035,0.166l0.002,0.356c0,0.113-0.043,0.222-0.123,0.303
		l-0.25,0.255c-0.041,0.04-0.086,0.072-0.139,0.095L25.99,6.465c0.003,0.045,0.003,0.164,0.003,0.178l0.604,0.245
		c0.051,0.021,0.098,0.051,0.139,0.09l0.256,0.25c0.082,0.081,0.129,0.189,0.131,0.304l0.003,0.358
		c0.001,0.056-0.01,0.113-0.03,0.165l-0.824,2.038c-0.142,0.341-0.467,0.56-0.832,0.56c-0.115,0-0.228-0.022-0.334-0.063
		l-0.629-0.255c-0.035,0.038-0.076,0.077-0.113,0.116c0.129,0.305,0.269,0.634,0.277,0.656c0.014,0.044,0.021,0.088,0.021,0.134
		v0.352c0.002,0.112-0.044,0.222-0.123,0.301l-0.25,0.257c-0.038,0.041-0.086,0.073-0.139,0.096l-2.023,0.857
		C22.012,13.149,21.896,13.172,21.775,13.172L21.775,13.172z M19.158,11.635c0.115-0.281,0.322-0.792,0.322-0.792
		c0.063-0.164,0.223-0.27,0.396-0.27c0.015,0,0.031,0.001,0.045,0.003l0.205,0.021c0.146,0.016,0.292,0.023,0.437,0.023
		c0.166,0,0.332-0.01,0.492-0.031l0.207-0.024c0.018-0.004,0.035-0.004,0.053-0.004c0.17,0,0.328,0.103,0.395,0.263l0.334,0.786
		c0.32-0.137,0.768-0.326,1.088-0.462l-0.332-0.785c-0.076-0.176-0.023-0.381,0.125-0.503l0.161-0.129
		c0.241-0.194,0.461-0.416,0.651-0.663l0.127-0.162c0.082-0.107,0.207-0.167,0.34-0.167c0.054,0,0.107,0.01,0.16,0.031l0.794,0.321
		C25.248,8.868,25.6,7.995,25.6,7.995l-0.791-0.32c-0.177-0.072-0.285-0.253-0.267-0.443l0.022-0.204
		c0.016-0.146,0.023-0.29,0.023-0.432c0-0.171-0.013-0.338-0.031-0.495l-0.029-0.204c-0.024-0.191,0.082-0.376,0.26-0.451
		l0.789-0.333l-0.461-1.09c-0.348,0.147-0.788,0.334-0.788,0.334c-0.054,0.023-0.108,0.034-0.167,0.034
		c-0.128,0-0.251-0.058-0.335-0.162l-0.13-0.16c-0.193-0.24-0.418-0.46-0.661-0.65l-0.163-0.126
		c-0.15-0.118-0.206-0.322-0.133-0.501l0.32-0.791l-1.097-0.444c-0.142,0.349-0.319,0.792-0.319,0.792
		c-0.066,0.164-0.226,0.268-0.398,0.268c-0.014,0-0.029,0-0.045-0.001l-0.205-0.022c-0.146-0.016-0.291-0.024-0.438-0.024
		c-0.162,0-0.33,0.01-0.494,0.03l-0.199,0.026c-0.018,0.002-0.037,0.004-0.057,0.004c-0.17,0-0.326-0.103-0.395-0.263L19.077,1.58
		c-0.32,0.137-0.769,0.326-1.089,0.461l0.332,0.788c0.076,0.178,0.025,0.383-0.125,0.502l-0.16,0.129
		c-0.24,0.194-0.459,0.417-0.65,0.662l-0.125,0.16c-0.084,0.107-0.21,0.167-0.34,0.167c-0.055,0-0.109-0.01-0.162-0.031
		c0,0-0.44-0.179-0.792-0.321c0,0-0.339,0.84-0.443,1.096c0.348,0.141,0.792,0.32,0.792,0.32c0.179,0.072,0.289,0.253,0.266,0.445
		l-0.022,0.205c-0.015,0.143-0.021,0.287-0.021,0.432c0,0.163,0.009,0.331,0.029,0.499l0.025,0.204
		c0.021,0.19-0.082,0.374-0.259,0.448c0,0-0.438,0.185-0.786,0.332c0.136,0.322,0.326,0.769,0.461,1.089
		c0.345-0.147,0.785-0.334,0.785-0.334c0.057-0.023,0.113-0.035,0.169-0.035c0.128,0,0.253,0.057,0.337,0.161l0.129,0.161
		c0.193,0.242,0.415,0.461,0.658,0.65l0.163,0.125c0.153,0.117,0.208,0.322,0.136,0.502l-0.32,0.794L19.158,11.635z"/>
	<path id="path1817_4_" fill="#FFFFFF" d="M24.613,5.496c0.063,0.414,0.072,0.84,0.012,1.266l0.461,0.188
		c0.03-0.361,0.018-0.722-0.037-1.073l1.192-0.505l-0.858-2.023l-0.296,0.125l0.654,1.545L24.613,5.496z"/>
	<path id="path1819_4_" fill="#FFFFFF" d="M23.848,8.682c-0.252,0.349-0.555,0.653-0.89,0.904l0.478,1.126l-1.908,0.81l-0.477-1.126
		c-0.414,0.064-0.842,0.069-1.268,0.011l-0.459,1.134l-1.678-0.68l-0.244,0.6l2.037,0.825l0.488-1.203
		c0.449,0.064,0.901,0.06,1.342-0.011l0.504,1.191l2.022-0.855l-0.506-1.192c0.356-0.267,0.675-0.59,0.942-0.958l1.203,0.484
		l0.824-2.035l-0.6-0.244l-0.678,1.678L23.848,8.682z"/>
	<path id="path1821_4_" fill="#FFFFFF" d="M16.959,8.739l-1.127,0.476l-0.653-1.544l-0.297,0.128l0.856,2.022l1.192-0.505
		c0.215,0.284,0.465,0.543,0.743,0.773l0.188-0.461C17.516,9.374,17.211,9.073,16.959,8.739z"/>
	
		<linearGradient id="path1830_1_" gradientUnits="userSpaceOnUse" x1="-948.7456" y1="-201.2773" x2="-949.2909" y2="-201.2773" gradientTransform="matrix(5.1929 22.7877 -22.7877 5.1929 361.9745 22677.5898)">
		<stop  offset="0" style="stop-color:#B1D2DB"/>
		<stop  offset="1" style="stop-color:#C3DCE3"/>
	</linearGradient>
	<path id="path1830_4_" fill="url(#path1830_1_)" d="M16.064,5.95c-0.045,0.312-0.054,0.624-0.035,0.932
		c0.009,0.137,0.023,0.275,0.044,0.411L15.18,7.672l0.652,1.544l1.127-0.476c0.251,0.334,0.555,0.635,0.902,0.888l-0.188,0.462
		c0.071,0.059,0.143,0.115,0.215,0.168l-0.244,0.601l1.678,0.681l0.459-1.135c0.428,0.059,0.854,0.056,1.269-0.012l0.478,1.127
		l1.908-0.81l-0.479-1.126c0.335-0.25,0.636-0.556,0.889-0.904l1.135,0.458l0.679-1.678l-0.599-0.242
		c0.013-0.091,0.019-0.181,0.026-0.271l-0.46-0.188c0.061-0.427,0.055-0.853-0.011-1.266l1.125-0.477l-0.654-1.545l-0.897,0.381
		c-0.082-0.111-0.172-0.215-0.265-0.317c-0.207-0.229-0.438-0.439-0.69-0.625l0.483-1.202l-2.032-0.824l-0.49,1.202
		c-0.452-0.065-0.904-0.059-1.344,0.01l-0.504-1.193l-0.06,0.025l-1.906,0.808l-0.058,0.025l0.506,1.193
		c-0.355,0.268-0.674,0.589-0.941,0.959l-1.202-0.487l-0.679,1.679l-0.146,0.358L16.064,5.95z M19.887,8.25
		c-0.666-0.27-1.082-0.896-1.117-1.571c-0.014-0.254,0.025-0.516,0.127-0.769c0.373-0.917,1.42-1.362,2.338-0.989
		c0.252,0.1,0.468,0.256,0.64,0.441c0.461,0.495,0.622,1.229,0.353,1.895C21.854,8.178,20.807,8.621,19.887,8.25z"/>
	<path id="path4266_2_" fill="#020202" d="M22.416,7.331c0.412-1.017-0.082-2.179-1.1-2.591c-1.017-0.413-2.178,0.08-2.59,1.099
		c-0.412,1.016,0.08,2.179,1.098,2.591C20.842,8.842,22.004,8.348,22.416,7.331z M22.055,7.186c-0.33,0.819-1.266,1.214-2.084,0.882
		c-0.818-0.33-1.215-1.266-0.883-2.084c0.33-0.819,1.266-1.215,2.084-0.884C21.99,5.432,22.387,6.367,22.055,7.186z"/>
	<path id="path1834_6_" fill="#007FA1" d="M22.406,7.332c0.41-1.018-0.082-2.178-1.1-2.591c-1.018-0.412-2.179,0.08-2.591,1.098
		c-0.411,1.016,0.08,2.179,1.099,2.591C20.832,8.842,21.994,8.349,22.406,7.332z M22.045,7.186c-0.33,0.819-1.268,1.213-2.084,0.883
		c-0.818-0.331-1.215-1.267-0.883-2.085c0.331-0.818,1.266-1.214,2.084-0.883C21.979,5.432,22.377,6.369,22.045,7.186z"/>
	<path id="path1838_4_" fill="#00ACDA" d="M21.967,12.706l2.023-0.858l0.25-0.257l-0.002-0.352c0-0.003-0.256-0.601-0.383-0.902
		c0.183-0.16,0.351-0.331,0.508-0.517c0.24,0.096,0.904,0.365,0.904,0.365c0.238,0.096,0.508-0.021,0.607-0.257l0.823-2.039
		l-0.005-0.358L26.438,7.28c0,0-0.586-0.238-0.889-0.36c0.008-0.11,0.018-0.218,0.018-0.326c0-0.137-0.014-0.271-0.026-0.409
		c0.246-0.104,0.888-0.376,0.888-0.376l0.25-0.255l-0.002-0.355l-0.857-2.025l-0.252-0.249l-0.358,0.002
		c0,0-0.662,0.281-0.897,0.381c-0.162-0.184-0.334-0.353-0.518-0.51c0.098-0.237,0.364-0.904,0.364-0.904
		c0.022-0.058,0.034-0.117,0.034-0.174c0-0.185-0.109-0.361-0.291-0.434L21.865,0.46c-0.238-0.096-0.51,0.02-0.608,0.258
		c0,0-0.237,0.588-0.362,0.894c-0.242-0.017-0.487-0.013-0.733,0.006c-0.104-0.245-0.376-0.885-0.376-0.885
		c-0.102-0.237-0.374-0.349-0.612-0.25L17.15,1.341L16.9,1.594l-0.078,0.081l0.076-0.079l0.004,0.354c0,0.002,0.256,0.603,0.381,0.9
		c-0.18,0.159-0.352,0.332-0.508,0.518c-0.239-0.096-0.904-0.366-0.904-0.366l-0.359,0.003l-0.25,0.255l-0.825,2.038l0.003,0.358
		l0.253,0.249c0.001,0,0.589,0.238,0.894,0.362C15.58,6.375,15.57,6.486,15.57,6.594c0,0.137,0.014,0.273,0.025,0.41
		c-0.247,0.105-0.887,0.376-0.887,0.376l-0.251,0.253L14.46,7.99l0.857,2.024l0.255,0.249h0.356c0.002-0.002,0.601-0.257,0.9-0.384
		c0.16,0.184,0.334,0.353,0.518,0.508c-0.096,0.239-0.367,0.904-0.367,0.904c-0.022,0.058-0.033,0.117-0.033,0.174
		c0,0.187,0.109,0.363,0.291,0.435l2.037,0.826l0.355-0.005l0.254-0.255c0,0,0.26-0.643,0.361-0.891
		c0.246,0.015,0.492,0.012,0.734-0.009c0.104,0.247,0.377,0.888,0.377,0.888C21.455,12.693,21.73,12.806,21.967,12.706z
		 M19.811,11.192c0,0-0.354,0.875-0.403,0.998c-0.13-0.052-1.765-0.715-1.892-0.764c0.072-0.183,0.48-1.192,0.48-1.192l-0.163-0.126
		c-0.271-0.208-0.517-0.451-0.731-0.721l-0.129-0.162c0,0-1.059,0.451-1.183,0.502c-0.054-0.127-0.742-1.751-0.797-1.879
		c0.184-0.078,1.183-0.5,1.183-0.5L16.15,7.144c-0.022-0.183-0.034-0.367-0.034-0.551c0-0.16,0.01-0.319,0.026-0.478l0.022-0.205
		c0,0-1.065-0.431-1.19-0.483c0.054-0.13,0.714-1.762,0.767-1.891c0.184,0.075,1.188,0.482,1.188,0.482l0.127-0.163
		c0.211-0.272,0.455-0.519,0.721-0.732l0.16-0.128c0,0-0.449-1.061-0.5-1.184c0.121-0.051,1.75-0.742,1.879-0.796
		c0.078,0.183,0.502,1.183,0.502,1.183l0.203-0.026c0.344-0.041,0.688-0.044,1.026-0.007l0.205,0.021c0,0,0.433-1.064,0.481-1.19
		c0.129,0.053,1.765,0.714,1.894,0.766c-0.075,0.183-0.481,1.191-0.481,1.191l0.162,0.126c0.27,0.21,0.516,0.452,0.731,0.721
		l0.13,0.16c0,0,1.057-0.448,1.184-0.501c0.057,0.131,0.742,1.753,0.795,1.88c-0.174,0.073-1.183,0.501-1.183,0.501l0.026,0.204
		c0.023,0.182,0.035,0.366,0.035,0.551c0,0.159-0.01,0.317-0.025,0.478L24.98,7.276c0,0,1.063,0.432,1.188,0.482
		c-0.053,0.131-0.713,1.764-0.765,1.892c-0.127-0.05-1.188-0.481-1.188-0.481l-0.127,0.163c-0.212,0.272-0.455,0.52-0.721,0.733
		l-0.161,0.129c0,0,0.447,1.058,0.501,1.183c-0.128,0.054-1.75,0.742-1.88,0.797c-0.077-0.183-0.5-1.184-0.5-1.184l-0.207,0.024
		c-0.337,0.043-0.682,0.046-1.027,0.01l-0.205-0.022L19.811,11.192L19.811,11.192z"/>
	<path id="path4735_1_" fill="#020202" d="M28.271,18c-0.295,0-0.561-0.176-0.674-0.445l-0.113-0.268l-0.108,0.27
		c-0.019,0.051-0.051,0.096-0.088,0.135l-0.171,0.172c-0.076,0.078-0.182,0.123-0.292,0.126c0,0-0.242,0.002-0.244,0.002
		c-0.054,0-0.106-0.011-0.155-0.03l-1.371-0.556c-0.275-0.111-0.455-0.38-0.455-0.679c0-0.098,0.019-0.19,0.055-0.277l0.105-0.264
		l-0.183,0.079c-0.079,0.035-0.132,0.053-0.132,0.053c-0.037,0.013-0.075,0.017-0.114,0.017l-0.24,0.001
		c-0.106,0-0.213-0.044-0.292-0.119l-0.173-0.169c-0.039-0.038-0.069-0.083-0.092-0.134l-0.577-1.363
		c-0.021-0.052-0.032-0.106-0.032-0.159l-0.002-0.242c0-0.109,0.043-0.217,0.12-0.293l0.168-0.172
		c0.037-0.039,0.084-0.069,0.135-0.092l0.268-0.113c-0.135-0.054-0.247-0.099-0.266-0.105c-0.053-0.021-0.101-0.053-0.141-0.092
		l-0.17-0.168c-0.08-0.078-0.123-0.183-0.125-0.294l-0.002-0.241c-0.001-0.056,0.01-0.108,0.029-0.159l0.556-1.371
		c0.021-0.05,0.051-0.097,0.089-0.134l0.169-0.173c0.076-0.078,0.183-0.125,0.293-0.126c0,0,0.244-0.003,0.245-0.003
		c0.055,0,0.107,0.011,0.157,0.031l0.266,0.107l-0.118-0.284c-0.016-0.04-0.025-0.083-0.027-0.128
		c-0.09-0.158-0.066-0.362,0.065-0.496l0.222-0.226c0.039-0.039,0.084-0.07,0.135-0.091l1.361-0.576
		c0.094-0.039,0.188-0.058,0.285-0.058c0.295,0,0.559,0.176,0.674,0.446l0.112,0.264l0.11-0.269
		c0.111-0.277,0.379-0.458,0.678-0.458c0.094,0,0.184,0.018,0.271,0.053l1.371,0.556c0.276,0.113,0.457,0.38,0.457,0.678
		c0,0.095-0.019,0.187-0.056,0.274l-0.106,0.269l0.268-0.112c0.05-0.022,0.105-0.034,0.159-0.034c0,0,0.243-0.002,0.245-0.002
		c0.107,0,0.213,0.042,0.289,0.119l0.174,0.167c0.039,0.037,0.07,0.083,0.093,0.135l0.577,1.363
		c0.021,0.052,0.033,0.105,0.033,0.161v0.24c0,0.109-0.041,0.215-0.117,0.293L31.7,13.207c-0.038,0.039-0.084,0.07-0.136,0.092
		l-0.267,0.112l0.267,0.108c0.052,0.02,0.097,0.05,0.136,0.088l0.173,0.168c0.081,0.078,0.126,0.183,0.127,0.293v0.243
		c0,0.056-0.01,0.108-0.031,0.16l-0.555,1.371c-0.114,0.279-0.381,0.457-0.68,0.457c-0.094,0-0.185-0.018-0.271-0.053l-0.269-0.108
		c0.063,0.148,0.115,0.273,0.115,0.275c0.021,0.049,0.029,0.103,0.029,0.153l0.001,0.235c0,0.109-0.043,0.216-0.118,0.293
		l-0.168,0.173c-0.039,0.039-0.084,0.07-0.137,0.094l-1.361,0.576C28.465,17.98,28.369,18,28.271,18L28.271,18z M26.439,16.671
		l0.168-0.414c0.063-0.158,0.218-0.262,0.386-0.262c0.016,0,0.03,0.001,0.044,0.003l0.139,0.014c0.094,0.01,0.186,0.015,0.279,0.015
		c0.105,0,0.211-0.006,0.314-0.02l0.142-0.018c0.019-0.002,0.034-0.003,0.05-0.003c0.167,0,0.318,0.099,0.387,0.254l0.176,0.412
		c0.156-0.066,0.34-0.146,0.498-0.211c-0.088-0.205-0.176-0.412-0.176-0.412c-0.072-0.172-0.023-0.37,0.122-0.486l0.107-0.088
		c0.151-0.123,0.292-0.266,0.418-0.425l0.082-0.107c0.082-0.105,0.202-0.16,0.329-0.16c0.055,0,0.105,0.009,0.156,0.029l0.416,0.169
		c0.062-0.153,0.201-0.502,0.201-0.502l-0.414-0.17c-0.173-0.07-0.277-0.246-0.258-0.43l0.016-0.138
		c0.01-0.096,0.013-0.185,0.013-0.275c0-0.105-0.007-0.212-0.019-0.316l-0.019-0.139c-0.024-0.186,0.078-0.363,0.251-0.438
		l0.412-0.175l-0.213-0.498l-0.409,0.176c-0.056,0.021-0.106,0.033-0.163,0.033c-0.125,0-0.246-0.057-0.325-0.156l-0.087-0.107
		c-0.125-0.152-0.27-0.295-0.425-0.417l-0.106-0.084c-0.148-0.112-0.201-0.313-0.132-0.485l0.168-0.413l-0.502-0.203L28.3,10.639
		c-0.063,0.156-0.218,0.26-0.387,0.26c-0.015,0-0.028-0.001-0.044-0.002l-0.139-0.018c-0.094-0.01-0.187-0.016-0.279-0.016
		c-0.105,0-0.213,0.008-0.318,0.02l-0.13,0.018c-0.019,0.002-0.036,0.004-0.058,0.004c-0.166,0-0.315-0.099-0.383-0.254
		l-0.176-0.411c-0.156,0.064-0.34,0.145-0.496,0.212l0.174,0.41c0.072,0.173,0.022,0.371-0.123,0.488l-0.108,0.086
		c-0.153,0.125-0.295,0.269-0.417,0.424l-0.083,0.108c-0.081,0.105-0.202,0.162-0.33,0.162c-0.052,0-0.104-0.011-0.153-0.032
		l-0.416-0.168c0,0-0.14,0.349-0.201,0.504c0.205,0.081,0.414,0.168,0.414,0.168c0.174,0.069,0.276,0.246,0.258,0.431l-0.014,0.138
		c-0.012,0.091-0.016,0.184-0.016,0.276c0,0.107,0.007,0.215,0.021,0.32l0.016,0.136c0.023,0.184-0.08,0.363-0.25,0.435
		l-0.412,0.175c0.066,0.158,0.145,0.34,0.211,0.498c0.204-0.086,0.411-0.177,0.411-0.177c0.054-0.021,0.108-0.034,0.163-0.034
		c0.125,0,0.244,0.057,0.324,0.155l0.088,0.109c0.126,0.154,0.268,0.295,0.423,0.415l0.108,0.083
		c0.148,0.114,0.198,0.314,0.129,0.486l-0.168,0.415L26.439,16.671z"/>
	<path id="path1817_2_" fill="#FFFFFF" d="M30.184,12.705c0.043,0.278,0.047,0.564,0.008,0.852l0.311,0.128
		c0.021-0.244,0.012-0.485-0.023-0.722l0.801-0.34l-0.574-1.362l-0.2,0.084l0.44,1.04L30.184,12.705z"/>
	<path id="path1819_2_" fill="#FFFFFF" d="M29.665,14.851c-0.17,0.233-0.372,0.439-0.599,0.607l0.322,0.759l-1.285,0.543
		l-0.32-0.757c-0.279,0.044-0.566,0.047-0.854,0.008l-0.311,0.763l-1.131-0.458l-0.164,0.404l1.371,0.556l0.328-0.81
		c0.303,0.044,0.606,0.039,0.903-0.009l0.341,0.805l1.361-0.574l-0.34-0.807c0.238-0.179,0.456-0.396,0.634-0.645l0.81,0.327
		l0.554-1.371l-0.404-0.164l-0.457,1.13L29.665,14.851L29.665,14.851z"/>
	<path id="path1821_2_" fill="#FFFFFF" d="M25.029,14.888l-0.76,0.321l-0.438-1.04l-0.2,0.085l0.575,1.363l0.804-0.34
		c0.145,0.191,0.313,0.365,0.502,0.521l0.125-0.311C25.402,15.314,25.198,15.112,25.029,14.888z"/>
	
		<linearGradient id="path1830_3_" gradientUnits="userSpaceOnUse" x1="-948.8076" y1="-201.501" x2="-948.4409" y2="-201.501" gradientTransform="matrix(5.1929 22.7877 -22.7877 5.1929 361.9745 22677.5898)">
		<stop  offset="0" style="stop-color:#FFCB94"/>
		<stop  offset="0.5394" style="stop-color:#FAA81E"/>
		<stop  offset="1" style="stop-color:#FFF3E1"/>
	</linearGradient>
	<path id="path1830_2_" fill="url(#path1830_3_)" d="M24.427,13.01c-0.028,0.21-0.036,0.421-0.022,0.628
		c0.007,0.093,0.016,0.186,0.029,0.277l-0.602,0.254l0.439,1.039l0.758-0.321c0.171,0.226,0.373,0.427,0.607,0.599l-0.127,0.312
		c0.049,0.039,0.096,0.078,0.145,0.113l-0.164,0.405l1.13,0.458l0.31-0.763c0.288,0.039,0.573,0.036,0.854-0.008l0.319,0.757
		l1.283-0.543l-0.32-0.759c0.226-0.168,0.431-0.374,0.599-0.607l0.765,0.308l0.457-1.13l-0.404-0.164
		c0.009-0.06,0.013-0.12,0.019-0.182l-0.31-0.126c0.039-0.288,0.035-0.574-0.01-0.854l0.758-0.32l-0.44-1.04l-0.603,0.254
		c-0.056-0.075-0.117-0.146-0.179-0.214c-0.14-0.152-0.293-0.294-0.466-0.42l0.328-0.81l-1.371-0.552l-0.328,0.809
		c-0.305-0.044-0.609-0.039-0.904,0.007l-0.34-0.803L26.602,9.63l-1.285,0.545l-0.039,0.016l0.342,0.805
		c-0.239,0.18-0.457,0.396-0.635,0.645l-0.81-0.327l-0.457,1.13l-0.1,0.241L24.427,13.01L24.427,13.01z M27,14.558
		c-0.449-0.181-0.729-0.603-0.753-1.058c-0.011-0.17,0.019-0.346,0.085-0.517c0.25-0.617,0.954-0.917,1.574-0.667
		c0.169,0.069,0.314,0.174,0.431,0.298c0.31,0.334,0.419,0.827,0.235,1.276C28.324,14.51,27.62,14.809,27,14.558z"/>
	<path id="path4750_1_" fill="#020202" d="M28.703,13.94c0.277-0.685-0.055-1.468-0.738-1.744c-0.686-0.278-1.467,0.054-1.746,0.738
		c-0.275,0.683,0.055,1.465,0.738,1.744C27.643,14.957,28.425,14.626,28.703,13.94L28.703,13.94z M28.46,13.842
		c-0.224,0.55-0.853,0.817-1.403,0.595c-0.551-0.223-0.818-0.854-0.595-1.403c0.222-0.551,0.853-0.817,1.404-0.596
		C28.415,12.662,28.682,13.291,28.46,13.842z"/>
	<path id="path1834_4_" fill="#A87214" d="M28.695,13.941c0.277-0.686-0.055-1.467-0.739-1.744
		c-0.685-0.278-1.465,0.053-1.744,0.738c-0.276,0.685,0.056,1.467,0.738,1.744C27.639,14.957,28.418,14.626,28.695,13.941z
		 M28.453,13.843c-0.225,0.551-0.854,0.816-1.403,0.594c-0.551-0.223-0.817-0.854-0.595-1.403c0.222-0.551,0.854-0.817,1.4-0.595
		C28.409,12.663,28.676,13.292,28.453,13.843z"/>
	<path id="path1838_2_" fill="#FAA81E" d="M28.398,17.559l1.363-0.578l0.17-0.172l-0.004-0.238c0,0-0.171-0.404-0.257-0.605
		c0.125-0.107,0.238-0.223,0.345-0.348c0.158,0.064,0.607,0.247,0.607,0.247c0.161,0.063,0.343-0.015,0.411-0.174l0.553-1.371
		l-0.002-0.241l-0.173-0.169c0,0-0.395-0.16-0.6-0.244c0.006-0.074,0.013-0.146,0.013-0.22c0-0.092-0.011-0.183-0.019-0.274
		c0.164-0.07,0.598-0.253,0.598-0.253l0.171-0.171l-0.001-0.241l-0.578-1.362l-0.171-0.168l-0.243,0.001
		c0,0-0.445,0.188-0.604,0.257c-0.107-0.124-0.223-0.236-0.348-0.343c0.063-0.158,0.247-0.608,0.247-0.608
		c0.015-0.038,0.022-0.079,0.022-0.115c0-0.127-0.074-0.244-0.195-0.294L28.334,9.32c-0.16-0.063-0.342,0.012-0.41,0.174
		c0,0-0.158,0.396-0.242,0.599c-0.164-0.012-0.332-0.009-0.496,0.006c-0.07-0.165-0.252-0.597-0.252-0.597
		c-0.067-0.159-0.252-0.235-0.41-0.17L25.16,9.91l-0.168,0.171l-0.053,0.055l0.052-0.054l0.001,0.239
		c0.001,0.002,0.175,0.406,0.258,0.605c-0.123,0.107-0.236,0.222-0.342,0.349c-0.16-0.064-0.608-0.246-0.608-0.246l-0.241,0.002
		l-0.17,0.172l-0.554,1.372l0.002,0.241l0.171,0.167c0,0,0.396,0.16,0.602,0.244c-0.008,0.072-0.012,0.146-0.012,0.219
		c0,0.093,0.008,0.185,0.016,0.275c-0.166,0.071-0.598,0.252-0.598,0.252l-0.168,0.172v0.241l0.576,1.363l0.174,0.167h0.238
		c0.001-0.001,0.404-0.174,0.605-0.258c0.107,0.125,0.226,0.237,0.35,0.341c-0.064,0.161-0.247,0.608-0.247,0.608
		c-0.017,0.039-0.022,0.08-0.022,0.117c0,0.127,0.074,0.244,0.195,0.293l1.372,0.556l0.241-0.003l0.168-0.172
		c0,0,0.177-0.434,0.245-0.6c0.166,0.012,0.329,0.01,0.493-0.006c0.07,0.166,0.255,0.598,0.255,0.598
		C28.057,17.55,28.24,17.625,28.398,17.559L28.398,17.559L28.398,17.559z M26.948,16.54c0,0-0.238,0.588-0.271,0.671
		c-0.087-0.035-1.187-0.48-1.274-0.514c0.05-0.125,0.324-0.804,0.324-0.804l-0.109-0.084c-0.18-0.14-0.348-0.304-0.493-0.484
		l-0.086-0.108c0,0-0.713,0.303-0.795,0.339c-0.036-0.084-0.501-1.18-0.536-1.266c0.123-0.053,0.794-0.338,0.794-0.338l-0.017-0.137
		c-0.014-0.124-0.021-0.247-0.021-0.373c0-0.105,0.008-0.214,0.018-0.318l0.013-0.139c0,0-0.716-0.29-0.802-0.323
		c0.037-0.086,0.48-1.186,0.517-1.273c0.126,0.05,0.804,0.322,0.804,0.322l0.082-0.108c0.145-0.183,0.307-0.349,0.485-0.493
		l0.108-0.086c0,0-0.303-0.714-0.34-0.795c0.082-0.036,1.18-0.501,1.264-0.536c0.056,0.123,0.342,0.795,0.342,0.795l0.137-0.018
		c0.229-0.027,0.463-0.029,0.691-0.004l0.139,0.013c0,0,0.291-0.716,0.321-0.802c0.088,0.035,1.188,0.48,1.274,0.516
		c-0.049,0.123-0.324,0.802-0.324,0.802l0.111,0.082c0.18,0.142,0.346,0.305,0.493,0.487l0.085,0.107c0,0,0.712-0.304,0.796-0.339
		c0.039,0.089,0.501,1.181,0.536,1.266c-0.117,0.05-0.797,0.339-0.797,0.339l0.02,0.137c0.016,0.122,0.023,0.246,0.023,0.371
		c0,0.105-0.008,0.214-0.02,0.321l-0.013,0.136c0,0,0.716,0.291,0.8,0.323c-0.035,0.087-0.479,1.187-0.516,1.276
		c-0.083-0.035-0.801-0.324-0.801-0.324l-0.083,0.108c-0.146,0.183-0.306,0.35-0.484,0.493l-0.108,0.088
		c0,0,0.302,0.712,0.338,0.795c-0.084,0.034-1.18,0.5-1.266,0.536c-0.053-0.125-0.336-0.796-0.336-0.796l-0.14,0.016
		c-0.226,0.028-0.46,0.031-0.69,0.007l-0.138-0.015L26.948,16.54L26.948,16.54z"/>
	<path id="path1834_2_" fill="#020202" d="M28.414,13.826c0.214-0.529-0.043-1.135-0.572-1.348
		c-0.527-0.216-1.136,0.041-1.349,0.572c-0.214,0.528,0.042,1.134,0.571,1.348C27.596,14.613,28.2,14.355,28.414,13.826z
		 M28.229,13.75c-0.174,0.426-0.66,0.632-1.086,0.461c-0.427-0.174-0.634-0.661-0.461-1.087c0.172-0.426,0.659-0.633,1.086-0.459
		C28.191,12.838,28.398,13.324,28.229,13.75z"/>
</g>
<g>
	<path id="path10065" fill="#020202" d="M1,32c-0.553,0-1-0.447-1-1V16.332c0-0.552,0.447-1,1-1h7.426
		c0.266,0,0.52,0.104,0.707,0.293l3.447,3.449c0.188,0.188,0.293,0.441,0.293,0.705V31c0,0.553-0.447,1-1,1H1z"/>
	<polygon id="polygon10067" fill="#FACC36" points="8.448,16.332 1.023,16.332 1.023,31 11.896,31 11.896,19.779 	"/>
	<polygon id="polygon10069" fill="#FFFFFF" points="10.902,19.311 10.902,29.924 1.973,29.924 1.973,17.326 8.918,17.326 
		9.867,18.404 	"/>
	<path id="path10071" fill="#020202" d="M8.448,20.779c-0.554,0-1-0.447-1-1v-3.447c0-0.402,0.243-0.769,0.616-0.924
		c0.123-0.052,0.254-0.076,0.384-0.076c0.261,0,0.517,0.104,0.706,0.293l3.447,3.449c0.287,0.285,0.373,0.715,0.217,1.09
		c-0.152,0.373-0.521,0.615-0.924,0.615H8.448z"/>
	<polygon id="polygon10073" fill="#FACC36" points="8.448,19.779 11.896,19.779 8.448,16.332 	"/>
	<path id="path10238" fill="#020202" d="M11.865,12.865c-0.146,0-0.295-0.032-0.432-0.099c-0.343-0.164-0.562-0.504-0.568-0.884
		L10.818,9.42C10.326,9.391,9.9,9.376,9.496,9.376c-3.021,0-4.822,0.885-5.832,2.87c-0.172,0.339-0.52,0.546-0.891,0.546
		c-0.058,0-0.113-0.005-0.17-0.015c-0.433-0.074-0.767-0.421-0.822-0.854c-0.014-0.104-0.316-2.599,1.553-4.812
		c1.547-1.834,4.064-2.902,7.488-3.182l0.043-1.951c0.01-0.377,0.229-0.719,0.57-0.88C11.572,1.033,11.719,1,11.865,1
		c0.219,0,0.434,0.071,0.611,0.208l6.383,4.935c0.246,0.188,0.389,0.479,0.389,0.791c0,0.31-0.143,0.602-0.389,0.791l-6.383,4.933
		C12.297,12.794,12.082,12.865,11.865,12.865L11.865,12.865z"/>
	
		<linearGradient id="path7827_1_" gradientUnits="userSpaceOnUse" x1="-925.0654" y1="-2889.7095" x2="-901.2339" y2="-2889.7095" gradientTransform="matrix(-0.6552 0 0 -0.6552 -587.8279 -1886.406)">
		<stop  offset="0" style="stop-color:#39ADDB"/>
		<stop  offset="0.5" style="stop-color:#A8CEDE"/>
		<stop  offset="1" style="stop-color:#2175BB"/>
	</linearGradient>
	<path id="path7827_31_" opacity="0.98" fill="url(#path7827_1_)" enable-background="new    " d="M11.832,2l-0.064,2.872
		c-9.887,0.382-9.026,6.92-9.026,6.92C4.572,8.19,8.373,8.2,11.768,8.491l0.063,3.373l6.383-4.932L11.832,2z"/>
	<path id="path4454_16_" opacity="0.98" fill="#1D78A0" enable-background="new    " d="M12.506,10.454l-0.049-2.606l-0.631-0.054
		C10.871,7.71,10.14,7.675,9.459,7.675c-1.652,0-3.799,0.199-5.52,1.543c0.164-0.332,0.379-0.674,0.662-1.01
		c1.362-1.614,3.782-2.502,7.19-2.635l0.66-0.024L12.5,3.406l4.564,3.526L12.506,10.454z"/>
</g>
</svg>
