<?xml version="1.0" encoding="UTF-8" standalone="no"?>
<svg
   xmlns:dc="http://purl.org/dc/elements/1.1/"
   xmlns:cc="http://creativecommons.org/ns#"
   xmlns:rdf="http://www.w3.org/1999/02/22-rdf-syntax-ns#"
   xmlns:svg="http://www.w3.org/2000/svg"
   xmlns="http://www.w3.org/2000/svg"
   xmlns:xlink="http://www.w3.org/1999/xlink"
   version="1.1"
   width="48.000000px"
   height="48.000000px"
   id="svg249">
  <defs
     id="defs3">
    <linearGradient
       id="linearGradient7925">
      <stop
         id="stop7926"
         offset="0.0000000"
         style="stop-color:#d0d0d0;stop-opacity:1.0000000;" />
      <stop
         id="stop7927"
         offset="1.0000000"
         style="stop-color:#a6a3a3;stop-opacity:1.0000000;" />
    </linearGradient>
    <linearGradient
       id="linearGradient3040">
      <stop
         id="stop3042"
         offset="0"
         style="stop-color:#000000;stop-opacity:1;" />
      <stop
         id="stop3044"
         offset="1"
         style="stop-color:#000000;stop-opacity:0;" />
    </linearGradient>
    <linearGradient
       id="linearGradient2992">
      <stop
         id="stop2994"
         offset="0"
         style="stop-color:#000000;stop-opacity:1;" />
      <stop
         style="stop-color:#000000;stop-opacity:0.49803922;"
         offset="0.91666669"
         id="stop3000" />
      <stop
         id="stop2996"
         offset="1"
         style="stop-color:#000000;stop-opacity:0;" />
    </linearGradient>
    <linearGradient
       id="linearGradient2980">
      <stop
         id="stop2982"
         offset="0"
         style="stop-color:#000000;stop-opacity:1;" />
      <stop
         id="stop2984"
         offset="1"
         style="stop-color:#000000;stop-opacity:0;" />
    </linearGradient>
    <linearGradient
       id="linearGradient15662">
      <stop
         style="stop-color:#ffffff;stop-opacity:1.0000000;"
         offset="0.0000000"
         id="stop15664" />
      <stop
         style="stop-color:#f8f8f8;stop-opacity:1.0000000;"
         offset="1.0000000"
         id="stop15666" />
    </linearGradient>
    <linearGradient
       id="linearGradient269">
      <stop
         style="stop-color:#000000;stop-opacity:1;"
         offset="0"
         id="stop270" />
      <stop
         style="stop-color:#000000;stop-opacity:1;"
         offset="1"
         id="stop271" />
    </linearGradient>
    <linearGradient
       id="linearGradient259">
      <stop
         style="stop-color:#ffffff;stop-opacity:1;"
         offset="0"
         id="stop260" />
      <stop
         style="stop-color:#c8c8c8;stop-opacity:1;"
         offset="1"
         id="stop261" />
    </linearGradient>
    <linearGradient
       id="linearGradient2609">
      <stop
         style="stop-color:#ffffff;stop-opacity:1"
         offset="0"
         id="stop2611" />
      <stop
         style="stop-color:#eeeeec"
         offset="1"
         id="stop2613" />
    </linearGradient>
    <linearGradient
       id="linearGradient2617">
      <stop
         style="stop-color:#fbfbfa;stop-opacity:1;"
         offset="0"
         id="stop2619" />
      <stop
         style="stop-color:#d3d7cf"
         offset="1"
         id="stop2621" />
    </linearGradient>
    <linearGradient
       id="linearGradient2635">
      <stop
         style="stop-color:#ffffff;stop-opacity:1;"
         offset="0"
         id="stop2637" />
      <stop
         id="stop2655"
         offset="0.55952382"
         style="stop-color:#ffffff;stop-opacity:0.71951222;" />
      <stop
         style="stop-color:#ffffff;stop-opacity:0;"
         offset="1"
         id="stop2639" />
    </linearGradient>
    <linearGradient
       id="linearGradient2670">
      <stop
         style="stop-color:#888a85;stop-opacity:1;"
         offset="0"
         id="stop2672" />
      <stop
         style="stop-color:#555753"
         offset="1"
         id="stop2674" />
    </linearGradient>
    <linearGradient
       id="linearGradient2690">
      <stop
         style="stop-color:#2e3436"
         offset="0"
         id="stop2692" />
      <stop
         style="stop-color:#555753"
         offset="1"
         id="stop2694" />
    </linearGradient>
    <linearGradient
       id="linearGradient2698">
      <stop
         style="stop-color:#555753"
         offset="0"
         id="stop2700" />
      <stop
         id="stop2706"
         offset="0.70238096"
         style="stop-color:#a3a5a2;stop-opacity:1;" />
      <stop
         style="stop-color:#888a85"
         offset="1"
         id="stop2702" />
    </linearGradient>
    <linearGradient
       id="linearGradient2759">
      <stop
         style="stop-color:#ffffff;stop-opacity:1;"
         offset="0"
         id="stop2761" />
      <stop
         style="stop-color:#ffffff;stop-opacity:0;"
         offset="1"
         id="stop2763" />
    </linearGradient>
    <radialGradient
       r="9.25"
       fy="37.572186"
       fx="64.597321"
       cy="37.572186"
       cx="64.597321"
       gradientTransform="matrix(1.317389,3.513009e-16,-3.513009e-16,1.317389,-20.57979,-12.04281)"
       gradientUnits="userSpaceOnUse"
       id="radialGradient1907"
       xlink:href="#linearGradient2635" />
    <radialGradient
       r="10.55559"
       fy="10.901535"
       fx="59.787472"
       cy="10.901535"
       cx="59.787472"
       gradientTransform="matrix(4.928248e-11,-1.686609,1.66336,-1.770202e-15,41.65431,111.7396)"
       gradientUnits="userSpaceOnUse"
       id="radialGradient1909"
       xlink:href="#linearGradient2617" />
    <radialGradient
       r="10.498367"
       fy="-2.6936908"
       fx="45.094624"
       cy="-2.6936908"
       cx="45.094624"
       gradientTransform="matrix(-5.801069e-17,1.925926,-2.100716,-2.103013e-6,39.43594,-89.54261)"
       gradientUnits="userSpaceOnUse"
       id="radialGradient1911"
       xlink:href="#linearGradient2609" />
    <linearGradient
       y2="4.5"
       x2="62.95472"
       y1="4.5"
       x1="42.04528"
       gradientUnits="userSpaceOnUse"
       id="linearGradient1913"
       xlink:href="#linearGradient2670" />
    <linearGradient
       y2="53.524273"
       x2="82.687302"
       y1="55.365707"
       x1="80.845871"
       gradientUnits="userSpaceOnUse"
       id="linearGradient1915"
       xlink:href="#linearGradient2698" />
    <linearGradient
       y2="54.615208"
       x2="83.629295"
       y1="57.148193"
       x1="81.096306"
       gradientUnits="userSpaceOnUse"
       id="linearGradient1917"
       xlink:href="#linearGradient2690" />
    <linearGradient
       y2="35.41238"
       x2="-19.5625"
       y1="31.99976"
       x1="-19.5625"
       gradientUnits="userSpaceOnUse"
       id="linearGradient1919"
       xlink:href="#linearGradient2759" />
    <radialGradient
       gradientUnits="userSpaceOnUse"
       gradientTransform="matrix(1,0,0,0.34,-1.437739e-14,19.89607)"
       r="13.258252"
       fy="30.145554"
       fx="28.284271"
       cy="30.145554"
       cx="28.284271"
       id="radialGradient2986"
       xlink:href="#linearGradient2980" />
    <radialGradient
       r="10.909439"
       fy="4.5"
       fx="52.5"
       cy="4.5"
       cx="52.5"
       gradientUnits="userSpaceOnUse"
       id="radialGradient3004"
       xlink:href="#linearGradient2992" />
    <linearGradient
       gradientTransform="translate(0,4)"
       gradientUnits="userSpaceOnUse"
       y2="41.58287"
       x2="35.623859"
       y1="34.511803"
       x1="37.37262"
       id="linearGradient3046"
       xlink:href="#linearGradient3040" />
    <radialGradient
       r="86.708450"
       fy="14.9373"
       fx="30.653816"
       cy="14.9373"
       cx="30.653816"
       gradientTransform="matrix(0.148355,1.009137e-2,-1.104438e-2,0.162365,23.06011,12.81706)"
       gradientUnits="userSpaceOnUse"
       id="radialGradient2240"
       xlink:href="#linearGradient259" />
    <radialGradient
       r="37.751713"
       fy="2.3667307"
       fx="31.863327"
       cy="2.3667307"
       cx="31.863327"
       gradientTransform="matrix(0.331735,0,0,0.353831,18.10526,9.5823)"
       gradientUnits="userSpaceOnUse"
       id="radialGradient2242"
       xlink:href="#linearGradient269" />
    <radialGradient
       r="86.708450"
       fy="35.736916"
       fx="33.966679"
       cy="35.736916"
       cx="33.966679"
       gradientTransform="matrix(0.960493,0,0,1.041132,-2,0)"
       gradientUnits="userSpaceOnUse"
       id="radialGradient2251"
       xlink:href="#linearGradient259" />
    <radialGradient
       gradientUnits="userSpaceOnUse"
       gradientTransform="matrix(1.0901,0.4253,-0.5098,1.3173,-1768.1663,-1078.3171)"
       r="6.2613001"
       cy="267.81931"
       cx="1772.2803"
       id="path3747_1_">
      <stop
         id="stop42"
         style="stop-color:#FFFFFF"
         offset="0" />
      <stop
         id="stop44"
         style="stop-color:#FFFFFF;stop-opacity:0.7866"
         offset="0.4706" />
      <stop
         id="stop46"
         style="stop-color:#FFFFFF;stop-opacity:0"
         offset="1" />
    </radialGradient>
    <linearGradient
       gradientTransform="matrix(0.7071,-0.7071,0.7071,0.7071,-1320.2278,-605.79495)"
       y2="1405.8145"
       x2="510.36429"
       y1="1405.8145"
       x1="498.17581"
       gradientUnits="userSpaceOnUse"
       id="path4980_1_">
      <stop
         id="stop36"
         style="stop-color:#B0D0DA"
         offset="0" />
      <stop
         id="stop38"
         style="stop-color:#147D9E"
         offset="1" />
    </linearGradient>
    <linearGradient
       gradientTransform="matrix(0.7071,-0.7071,0.7071,0.7071,-1986.849,-1786.5537)"
       y2="2705.2666"
       x2="139.3541"
       y1="2705.2666"
       x1="143.4951"
       gradientUnits="userSpaceOnUse"
       id="rect3809_1_">
      <stop
         id="stop25"
         style="stop-color:#A46829"
         offset="0" />
      <stop
         id="stop27"
         style="stop-color:#FAA81D"
         offset="0.5" />
      <stop
         id="stop29"
         style="stop-color:#FFF3E2"
         offset="1" />
    </linearGradient>
    <linearGradient
       gradientTransform="matrix(0.7071,-0.7071,0.7071,0.7071,-1972.5393,-1770.9107)"
       y2="2698.291"
       x2="143.4023"
       y1="2698.291"
       x1="139.8555"
       gradientUnits="userSpaceOnUse"
       id="rect3806_1_">
      <stop
         id="stop19"
         style="stop-color:#5AC9EC"
         offset="0" />
      <stop
         id="stop21"
         style="stop-color:#077A93"
         offset="1" />
    </linearGradient>
  </defs>
  <metadata
     id="metadata4">
    <rdf:RDF>
      <cc:Work
         rdf:about="">
        <dc:format>image/svg+xml</dc:format>
        <dc:type
           rdf:resource="http://purl.org/dc/dcmitype/StillImage" />
        <dc:title></dc:title>
        <dc:subject>
          <rdf:Bag>
            <rdf:li>document</rdf:li>
            <rdf:li>search</rdf:li>
            <rdf:li>find</rdf:li>
          </rdf:Bag>
        </dc:subject>
        <cc:license
           rdf:resource="http://creativecommons.org/licenses/GPL/2.0/" />
        <dc:creator>
          <cc:Agent>
            <dc:title>Lapo Calamandrei</dc:title>
          </cc:Agent>
        </dc:creator>
        <dc:source />
        <dc:contributor>
          <cc:Agent>
            <dc:title>Jakub Steiner</dc:title>
          </cc:Agent>
        </dc:contributor>
        <dc:date>2006-04-21</dc:date>
      </cc:Work>
      <cc:License
         rdf:about="http://creativecommons.org/licenses/GPL/2.0/">
        <cc:permits
           rdf:resource="http://web.resource.org/cc/Reproduction" />
        <cc:permits
           rdf:resource="http://web.resource.org/cc/Distribution" />
        <cc:requires
           rdf:resource="http://web.resource.org/cc/Notice" />
        <cc:permits
           rdf:resource="http://web.resource.org/cc/DerivativeWorks" />
        <cc:requires
           rdf:resource="http://web.resource.org/cc/ShareAlike" />
        <cc:requires
           rdf:resource="http://web.resource.org/cc/SourceCode" />
      </cc:License>
    </rdf:RDF>
  </metadata>
  <g
     id="layer6" />
  <g
     id="layer1"
     style="display:inline" />
  <g
     style="display:inline"
     id="layer5">
    <path
       id="rect15391"
       d="M 5.7526014,3.6464462 L 29.199616,3.6308212 C 29.199616,3.6308212 39.478553,13.174533 39.478553,13.811106 L 39.478553,43.417892 C 39.478553,44.054465 38.966077,44.56694 38.329504,44.56694 L 5.7526014,44.56694 C 5.1160285,44.56694 4.6035528,44.054465 4.6035528,43.417892 L 4.6035528,4.7954948 C 4.6035528,4.1589219 5.1160285,3.6464462 5.7526014,3.6464462 z "
       style="color:#000000;fill:url(#radialGradient2251);fill-opacity:1;fill-rule:nonzero;stroke:#000000;stroke-width:2;stroke-linecap:round;stroke-linejoin:round;marker:none;marker-start:none;marker-mid:none;marker-end:none;stroke-miterlimit:4;stroke-dashoffset:0;stroke-opacity:1;visibility:visible;display:block;overflow:visible;stroke-dasharray:none" />
    <path
       id="path2210"
       d="M 39.410559,13.739267 C 39.423724,12.324125 33.058025,3.5320142 29.175441,3.6354934 C 30.148479,3.8684884 30.925796,9.803523 29.536076,12.616023 C 32.286076,12.616023 38.446694,11.881093 39.410559,13.739267 z "
       style="color:#000000;fill:url(#radialGradient2240);fill-opacity:1;fill-rule:nonzero;stroke:url(#radialGradient2242);stroke-width:2;stroke-linecap:butt;stroke-linejoin:round;marker:none;marker-start:none;marker-mid:none;marker-end:none;stroke-miterlimit:4;stroke-dasharray:none;stroke-dashoffset:0;stroke-opacity:1;visibility:visible;display:block;overflow:visible" />
    <g
       transform="matrix(0.6662762,0,0,0.6421736,4.0399037,7.3194047)"
       id="g2586">
      <path
         style="font-size:12px;font-style:normal;font-variant:normal;font-weight:normal;font-stretch:normal;text-align:start;line-height:100%;writing-mode:lr-tb;text-anchor:start;fill:#000064;fill-opacity:1;stroke:none;stroke-width:1px;stroke-linecap:butt;stroke-linejoin:miter;stroke-opacity:1;font-family:Arial"
         d="M 4.8625038,21.640529 L 4.8625038,13.633951 L 3.4817601,13.633951 L 3.4817601,12.418201 L 4.8625038,12.418201 L 4.8625038,11.436918 C 4.8625022,10.817476 4.9175004,10.357228 5.0274983,10.056174 C 5.1780178,9.6509371 5.4428772,9.3223961 5.8220772,9.0705498 C 6.2012724,8.8187292 6.7324377,8.6928112 7.4155767,8.6927997 C 7.855558,8.6928112 8.3418566,8.7449161 8.8744762,8.8491093 L 8.6400098,10.212485 C 8.3158048,10.154604 8.0089732,10.125658 7.7195138,10.125646 C 7.2447894,10.125658 6.9090114,10.22697 6.7121787,10.429584 C 6.5153409,10.63222 6.4169226,11.011417 6.4169264,11.567179 L 6.4169264,12.418201 L 8.2144984,12.418201 L 8.2144984,13.633951 L 6.4169264,13.633951 L 6.4169264,21.640529 L 4.8625038,21.640529 z M 8.8397409,17.029365 C 8.8397396,15.321533 9.3144601,14.056576 10.263904,13.234491 C 11.057033,12.551364 12.023841,12.209797 13.164335,12.209787 C 14.432181,12.209797 15.468461,12.625178 16.273179,13.455931 C 17.07788,14.286701 17.480234,15.434424 17.480243,16.899106 C 17.480234,18.085913 17.302214,19.019434 16.946182,19.699671 C 16.590134,20.379914 16.071993,20.908185 15.39176,21.284487 C 14.711513,21.660792 13.969039,21.848942 13.164335,21.848942 C 11.87332,21.848942 10.829803,21.435009 10.03378,20.607141 C 9.2377526,19.779277 8.8397396,18.586686 8.8397409,17.029365 L 8.8397409,17.029365 z M 10.446267,17.029365 C 10.446264,18.210382 10.703886,19.094694 11.219135,19.682304 C 11.734378,20.269918 12.382777,20.563723 13.164335,20.563722 C 13.940093,20.563723 14.585597,20.26847 15.100849,19.677961 C 15.616088,19.087457 15.873711,18.187225 15.873718,16.977262 C 15.873711,15.836779 15.61464,14.972729 15.096507,14.38511 C 14.57836,13.797507 13.934302,13.503701 13.164335,13.503692 C 12.382777,13.503701 11.734378,13.796059 11.219135,14.380768 C 10.703886,14.965492 10.446264,15.848356 10.446267,17.029365 L 10.446267,17.029365 z M 19.303867,21.640529 L 19.303867,12.418201 L 20.710663,12.418201 L 20.710663,13.816314 C 21.069595,13.162133 21.401031,12.730832 21.704972,12.522409 C 22.008905,12.314004 22.343236,12.209797 22.707965,12.209787 C 23.234784,12.209797 23.770293,12.377686 24.314491,12.713455 L 23.776087,14.163671 C 23.393989,13.937896 23.011898,13.825005 22.629811,13.824997 C 22.288239,13.825005 21.981407,13.927764 21.709315,14.133277 C 21.437215,14.338803 21.243274,14.623924 21.127492,14.988642 C 20.953809,15.544421 20.866972,16.152293 20.866973,16.812267 L 20.866973,21.640529 L 19.303867,21.640529 z M 28.248308,25.383298 C 27.385702,24.294911 26.656254,23.02127 26.05996,21.562372 C 25.463661,20.103475 25.165513,18.592475 25.165515,17.029365 C 25.165513,15.651522 25.388402,14.331566 25.834177,13.069497 C 26.355211,11.604817 27.159919,10.14592 28.248308,8.6927997 L 29.368534,8.6927997 C 28.668025,9.8969802 28.204885,10.756689 27.979106,11.271924 C 27.625956,12.070854 27.348071,12.90451 27.145451,13.772894 C 26.896508,14.855496 26.772039,15.943881 26.77204,17.038049 C 26.772039,19.822694 27.637534,22.604443 29.368534,25.383298 L 28.248308,25.383298 z M 34.732741,25.276427 L 33.612515,25.276427 C 35.343506,22.497572 36.209004,19.715823 36.209007,16.931178 C 36.209004,15.842799 36.084535,14.763099 35.8356,13.692075 C 35.638761,12.823691 35.363769,11.990035 35.010626,11.191105 C 34.784842,10.670081 34.318805,9.8016886 33.612515,8.5859287 L 34.732741,8.5859287 C 35.821122,10.03905 36.625831,11.497946 37.146871,12.962626 C 37.592641,14.224695 37.815527,15.544651 37.815533,16.922494 C 37.815527,18.485604 37.515932,19.996604 36.916748,21.455501 C 36.317552,22.914399 35.589551,24.18804 34.732741,25.276427 L 34.732741,25.276427 z M 40.830527,16.337266 C 41.276301,16.325693 41.639578,16.205566 41.920359,15.976884 C 42.201137,15.748213 42.387842,15.434144 42.480473,15.034678 C 42.5731,14.635224 42.622307,13.95209 42.6281,12.985272 C 42.633885,12.018471 42.651254,11.381651 42.680203,11.074809 C 42.732304,10.588521 42.829274,10.197745 42.971114,9.9024794 C 43.112948,9.6072387 43.288074,9.3713244 43.496491,9.1947391 C 43.704902,9.0181794 43.971209,8.8835792 44.295413,8.7909371 C 44.515401,8.7330585 44.874336,8.7041109 45.372219,8.7040981 L 45.858519,8.7040981 L 45.858519,10.067474 L 45.589316,10.067474 C 44.987227,10.067485 44.587766,10.176034 44.390936,10.393122 C 44.194096,10.610231 44.095678,11.095082 44.095682,11.847678 C 44.095678,13.364477 44.063837,14.322603 44.00016,14.722056 C 43.895948,15.341516 43.717928,15.819133 43.466097,16.154904 C 43.21426,16.490687 42.819143,16.788835 42.280743,17.049348 C 42.91756,17.315659 43.379254,17.722356 43.665828,18.269439 C 43.952394,18.81653 44.095678,19.71242 44.095682,20.957114 C 44.095678,22.086022 44.107257,22.757579 44.130417,22.971784 C 44.176728,23.365454 44.29396,23.640443 44.482117,23.796755 C 44.670264,23.953065 45.039329,24.03122 45.589316,24.031222 L 45.858519,24.031222 L 45.858519,25.394597 L 45.372219,25.394597 C 44.804865,25.394595 44.393826,25.34828 44.139102,25.255655 C 43.768584,25.122499 43.461752,24.906848 43.218606,24.608703 C 42.975454,24.310552 42.817696,23.932802 42.745332,23.47545 C 42.672963,23.018096 42.633885,22.268385 42.6281,21.226315 C 42.622307,20.184246 42.5731,19.463482 42.480473,19.064018 C 42.387842,18.664561 42.201137,18.349045 41.920359,18.117471 C 41.639578,17.885904 41.276301,17.764328 40.830527,17.752745 L 40.830527,16.337266 z M 23.550305,34.110641 L 23.550305,35.52612 C 23.104526,35.537702 22.74125,35.659279 22.460474,35.890845 C 22.179689,36.12242 21.992984,36.436488 21.90036,36.833051 C 21.807729,37.22962 21.758519,37.911306 21.752733,38.878115 C 21.746941,39.844925 21.729572,40.481745 21.70063,40.788578 C 21.648524,41.280666 21.551552,41.672888 21.409719,41.96525 C 21.267878,42.257606 21.092752,42.492071 20.884341,42.668647 C 20.675924,42.845218 20.409618,42.979818 20.085421,43.07245 C 19.865425,43.136128 19.506492,43.16797 19.008614,43.167972 L 18.522314,43.167972 L 18.522314,41.804597 L 18.791517,41.804597 C 19.393599,41.804595 19.79306,41.696046 19.989898,41.47895 C 20.186731,41.261849 20.285149,40.774103 20.28515,40.015708 C 20.285149,38.568389 20.3112,37.650789 20.363306,37.262905 C 20.455933,36.620297 20.641189,36.1065 20.919078,35.721509 C 21.19696,35.336525 21.59063,35.036931 22.100091,34.822723 C 21.43432,34.504318 20.965389,34.083147 20.693295,33.559212 C 20.421197,33.035289 20.285149,32.150976 20.28515,30.906274 C 20.285149,29.777374 20.270675,29.102923 20.24173,28.882919 C 20.201203,28.495049 20.086866,28.224399 19.898715,28.070973 C 19.710562,27.917568 19.341497,27.84086 18.791517,27.840849 L 18.522314,27.840849 L 18.522314,26.477474 L 19.008614,26.477474 C 19.575962,26.477486 19.987001,26.523799 20.24173,26.616417 C 20.612244,26.743793 20.919075,26.957997 21.162226,27.259025 C 21.405372,27.560081 21.563131,27.939277 21.6355,28.396619 C 21.707863,28.853983 21.746941,29.603694 21.752733,30.645757 C 21.758519,31.687835 21.807729,32.407152 21.90036,32.803711 C 21.992984,33.200284 22.179689,33.514351 22.460474,33.745916 C 22.74125,33.977493 23.104526,34.099068 23.550305,34.110641 L 23.550305,34.110641 z"
         id="text2157" />
    </g>
    <path
       d="m 35.937278,39.820557 c -0.25,0.252 -0.617,0.354 -0.961,0.277 -0.35,-0.078 -0.629,-0.33 -0.75,-0.664 l -0.947,-2.686 c -0.133,-0.378 -0.035,-0.797 0.244,-1.076 l 0.732,-0.732 c 0.279,-0.277 0.689,-0.374 1.064,-0.249 l 2.721,0.911 c 0.342,0.113 0.6,0.396 0.682,0.746 0.08,0.349 -0.021,0.716 -0.277,0.969 l -2.508,2.504 0,0 z"
       id="path4948_7_"
       style="fill:#020202" />
    <path
       d="m 43.330278,47.233557 c -0.406,0.405 -1.059,0.404 -1.465,0 l -6.969,-6.969 c -0.195,-0.195 -0.305,-0.457 -0.303,-0.732 0,-0.274 0.107,-0.536 0.303,-0.732 l 2.572,-2.569 c 0.406,-0.406 1.061,-0.404 1.465,0 l 6.967,6.967 c 0.195,0.196 0.307,0.457 0.305,0.732 0,0.274 -0.109,0.536 -0.305,0.73 l -2.57,2.573 z"
       id="path4951_7_"
       style="fill:#020202" />
    <path
       d="m 34.277278,36.379557 0.73,-0.733 2.725,0.915 -2.508,2.508 -0.947,-2.69 0,0 z"
       id="rect3806_9_"
       style="fill:url(#rect3806_1_)" />
    <polygon
       points="28.412,30.942 21.445,23.977 24.016,21.403 30.982,28.372 "
       id="rect3809_9_"
       style="fill:url(#rect3809_1_)"
       transform="translate(14.205278,15.537557)" />
    <rect
       height="7.7859278"
       width="1.5679855"
       transform="matrix(0.70650652,-0.70770653,0.70770653,0.70650652,0,0)"
       y="54.182648"
       x="-1.7475736"
       id="rect4968_7_"
       style="fill:#faa81d" />
    <path
       d="m 36.154278,37.482557 c -1.543,1.542 -3.596,2.393 -5.779,2.393 -4.504,0 -8.17,-3.666 -8.168,-8.168 0,-2.183 0.849,-4.235 2.391,-5.779 1.542,-1.541 3.592,-2.393 5.777,-2.391 4.502,0.004 8.168,3.669 8.168,8.169 0,2.183 -0.85,4.235 -2.389,5.776 l 0,0 z"
       id="path4971_7_"
       style="fill:#020202" />
    <path
       d="m 37.514278,31.703557 c 0,3.937 -3.195,7.134 -7.131,7.133 -3.939,0 -7.135,-3.196 -7.135,-7.132 -10e-4,-3.937 3.195,-7.134 7.135,-7.134 3.935,10e-4 7.129,3.196 7.131,7.133 z"
       id="path3707_16_"
       style="fill:#02abd8" />
    <path
       d="m 34.707278,35.999557 c -1.15,1.15 -2.682,1.783 -4.313,1.785 -3.36,-0.002 -6.099,-2.734 -6.099,-6.096 0.004,-1.63 0.637,-3.164 1.785,-4.313 1.153,-1.152 2.685,-1.788 4.313,-1.785 3.362,0.002 6.097,2.736 6.097,6.099 0.002,1.626 -0.631,3.157 -1.783,4.31 l 0,0 z"
       id="path4980_7_"
       style="fill:url(#path4980_1_)" />
    <path
       d="m 29.980278,25.611557 c -1.942,0.137 -3.801,1.232 -4.854,3.071 -1.332,2.315 -0.999,5.085 0.629,6.998 1.117,-0.841 2.572,-2.157 4.383,-5.573 0.958,-1.806 1.852,-3.1 2.678,-3.99 -0.923,-0.402 -1.884,-0.569 -2.836,-0.506 z"
       id="path3747_9_"
       style="fill:url(#path3747_1_)" />
  </g>
</svg>
