<?xml version="1.0" encoding="UTF-8" standalone="no"?>
<!-- Generator: Adobe Illustrator 14.0.0, SVG Export Plug-In . SVG Version: 6.00 Build 43363)  -->

<svg
   xmlns:dc="http://purl.org/dc/elements/1.1/"
   xmlns:cc="http://creativecommons.org/ns#"
   xmlns:rdf="http://www.w3.org/1999/02/22-rdf-syntax-ns#"
   xmlns:svg="http://www.w3.org/2000/svg"
   xmlns="http://www.w3.org/2000/svg"
   xmlns:sodipodi="http://sodipodi.sourceforge.net/DTD/sodipodi-0.dtd"
   xmlns:inkscape="http://www.inkscape.org/namespaces/inkscape"
   version="1.1"
   id="Layer_1"
   x="0px"
   y="0px"
   width="32px"
   height="32px"
   viewBox="0 0 32 32"
   enable-background="new 0 0 32 32"
   xml:space="preserve"
   inkscape:version="0.47 r22583"
   sodipodi:docname="table_id.svg"><metadata
   id="metadata28"><rdf:RDF><cc:Work
       rdf:about=""><dc:format>image/svg+xml</dc:format><dc:type
         rdf:resource="http://purl.org/dc/dcmitype/StillImage" /></cc:Work></rdf:RDF></metadata><defs
   id="defs26"><inkscape:perspective
     sodipodi:type="inkscape:persp3d"
     inkscape:vp_x="0 : 16 : 1"
     inkscape:vp_y="0 : 1000 : 0"
     inkscape:vp_z="32 : 16 : 1"
     inkscape:persp3d-origin="16 : 10.666667 : 1"
     id="perspective30" /><inkscape:perspective
     id="perspective2837"
     inkscape:persp3d-origin="0.5 : 0.33333333 : 1"
     inkscape:vp_z="1 : 0.5 : 1"
     inkscape:vp_y="0 : 1000 : 0"
     inkscape:vp_x="0 : 0.5 : 1"
     sodipodi:type="inkscape:persp3d" /><linearGradient
     id="SVGID_1_-3"
     gradientUnits="userSpaceOnUse"
     x1="-335.97711"
     y1="-182.731"
     x2="-346.9765"
     y2="-155.8573"
     gradientTransform="matrix(0.7071,-0.7071,-0.7071,-0.7071,152.8066,-329.3168)"><stop
       offset="0"
       style="stop-color:#000000;stop-opacity:0.21"
       id="stop11" /><stop
       offset="1"
       style="stop-color:#000000;stop-opacity:0"
       id="stop13" /></linearGradient></defs><sodipodi:namedview
   pagecolor="#ffffff"
   bordercolor="#666666"
   borderopacity="1"
   objecttolerance="10"
   gridtolerance="10"
   guidetolerance="10"
   inkscape:pageopacity="0"
   inkscape:pageshadow="2"
   inkscape:window-width="960"
   inkscape:window-height="777"
   id="namedview24"
   showgrid="false"
   inkscape:zoom="7.84375"
   inkscape:cx="16"
   inkscape:cy="16"
   inkscape:window-x="0"
   inkscape:window-y="0"
   inkscape:window-maximized="0"
   inkscape:current-layer="Layer_1" />
<path
   d="M 1.0858661,19.221434 C 0.66713866,19.221434 0.32606083,18.897164 0.32606083,18.500605 L 0.32606083,1.0265294 C 0.32606083,0.62859334 0.66713866,0.30432364 1.0858661,0.30432364 L 22.789301,0.30432364 C 23.208754,0.30432364 23.549106,0.62721644 23.549106,1.0265294 L 23.549106,18.500605 C 23.549106,18.897164 23.208754,19.222122 22.789301,19.222122 L 1.0858661,19.221434 L 1.0858661,19.221434 z"
   id="path3" />
<rect
   x="1.0858661"
   y="1.0265293"
   width="21.703434"
   height="17.474075"
   id="rect5"
   style="fill:#daebf2" />
<linearGradient
   id="SVGID_1_"
   gradientUnits="userSpaceOnUse"
   x1="564.3359"
   y1="815.3359"
   x2="594.2422"
   y2="815.3359"
   gradientTransform="matrix(0.7256975,0,0,0.68847074,-408.4507,-557.88001)">
	<stop
   offset="0"
   style="stop-color:#B0D0DA"
   id="stop8" />
	<stop
   offset="1"
   style="stop-color:#0C7C9E"
   id="stop10" />
</linearGradient>
<rect
   x="1.0858661"
   y="1.0265293"
   width="21.703434"
   height="4.857161"
   id="rect12"
   style="fill:url(#SVGID_1_)" />
<line
   x1="1.0858661"
   y1="5.8836904"
   x2="22.789301"
   y2="5.8836904"
   id="line14"
   style="fill:none;stroke:#000000;stroke-width:0.70683908" />
<line
   x1="1.0858661"
   y1="10.038611"
   x2="22.789301"
   y2="10.038611"
   id="line16"
   style="fill:none;stroke:#000000;stroke-width:0.70683908" />
<line
   x1="1.0858661"
   y1="14.605238"
   x2="22.789301"
   y2="14.605238"
   id="line18"
   style="fill:none;stroke:#000000;stroke-width:0.70683908" />
<line
   x1="8.0997324"
   y1="5.8947058"
   x2="8.0997324"
   y2="18.510933"
   id="line20"
   style="fill:none;stroke:#000000;stroke-width:0.70683908" />
<line
   x1="15.824056"
   y1="5.9181142"
   x2="15.824056"
   y2="18.535717"
   id="line22"
   style="fill:none;stroke:#000000;stroke-width:0.70683908" />
<g
   transform="matrix(0.61752056,0,0,0.60955671,2.6775036,2.8048165)"
   id="g4"><path
     d="M 36.057,47.707 C 35.867,47.895 35.613,48 35.35,48 C 35.082,48 34.829,47.895 34.643,47.707 L 17.606,30.671 C 17.452,30.518 17.352,30.317 17.322,30.102 L 16.01,20.649 C 15.967,20.338 16.072,20.026 16.293,19.805 L 19.805,16.292 C 20.026,16.07 20.339,15.967 20.649,16.01 L 30.102,17.323 C 30.317,17.353 30.518,17.453 30.671,17.605 L 47.705,34.638 C 48.098,35.029 48.098,35.661 47.705,36.052 L 36.057,47.707 z M 20.828,20.826 C 20.193,21.462 20.193,22.495 20.828,23.131 C 21.464,23.766 22.497,23.766 23.133,23.131 C 23.769,22.495 23.769,21.462 23.133,20.826 C 22.497,20.191 21.464,20.191 20.828,20.826 L 20.828,20.826 z"
     id="path6" /><path
     style="fill:#ffffff"
     d="M 29.965,18.313 L 29.965,18.313 L 20.512,17 L 17,20.512 L 18.313,29.964 L 35.35,47 L 47,35.346 L 29.965,18.313 z M 23.84,23.838 C 22.814,24.864 21.149,24.864 20.121,23.838 C 19.095,22.813 19.095,21.147 20.121,20.119 C 21.148,19.093 22.813,19.093 23.84,20.119 C 24.867,21.146 24.867,22.813 23.84,23.838 z"
     id="path8" /><linearGradient
     id="linearGradient2847"
     gradientUnits="userSpaceOnUse"
     x1="-335.97711"
     y1="-182.731"
     x2="-346.9765"
     y2="-155.8573"
     gradientTransform="matrix(0.7071,-0.7071,-0.7071,-0.7071,152.8066,-329.3168)"><stop
       offset="0"
       style="stop-color:#000000;stop-opacity:0.21"
       id="stop2849" /><stop
       offset="1"
       style="stop-color:#000000;stop-opacity:0"
       id="stop2851" /></linearGradient><path
     style="fill:url(#SVGID_1_-3)"
     d="M 19.258,29.494 L 18.06,20.867 L 18.96,19.966 C 18.021,21.375 18.172,23.303 19.414,24.545 C 20.829,25.96 23.132,25.96 24.547,24.545 C 25.962,23.13 25.962,20.827 24.547,19.412 C 23.305,18.17 21.378,18.017 19.968,18.958 L 20.867,18.059 L 29.495,19.257 L 45.586,35.346 L 35.35,45.586 L 19.258,29.494 z"
     id="path15" /><path
     style="fill:#f9a61e"
     d="M 21.146,28.555 L 21.002,27.522 C 22.749,27.828 24.613,27.307 25.96,25.959 C 27.307,24.613 27.827,22.749 27.522,21.003 L 28.555,21.147 L 42.756,35.346 L 35.348,42.758 L 21.146,28.555 z"
     id="path17" /></g></svg>