<?xml version="1.0" encoding="utf-8"?>
<!-- Generator: Adobe Illustrator 14.0.0, SVG Export Plug-In . SVG Version: 6.00 Build 43363)  -->
<!DOCTYPE svg PUBLIC "-//W3C//DTD SVG 1.1//EN" "http://www.w3.org/Graphics/SVG/1.1/DTD/svg11.dtd">
<svg version="1.1"
	 id="svg2431" xmlns:dc="http://purl.org/dc/elements/1.1/" xmlns:sodipodi="http://sodipodi.sourceforge.net/DTD/sodipodi-0.dtd" xmlns:inkscape="http://www.inkscape.org/namespaces/inkscape" xmlns:cc="http://creativecommons.org/ns#" xmlns:rdf="http://www.w3.org/1999/02/22-rdf-syntax-ns#" xmlns:svg="http://www.w3.org/2000/svg" sodipodi:docname="tester2.svg" inkscape:version="0.46" inkscape:export-filename="H:\Work\Radix\for JavaExplorer\tester2.png" inkscape:output_extension="org.inkscape.output.svg.inkscape" sodipodi:version="0.32" inkscape:export-xdpi="90" inkscape:export-ydpi="90"
	 xmlns="http://www.w3.org/2000/svg" xmlns:xlink="http://www.w3.org/1999/xlink" x="0px" y="0px" width="32px" height="32px"
	 viewBox="0 0 32 32" enable-background="new 0 0 32 32" xml:space="preserve">
<filter  id="filter5859" inkscape:collect="always">
	<feGaussianBlur  id="feGaussianBlur5861" stdDeviation="0.055897489" inkscape:collect="always"></feGaussianBlur>
</filter>
<filter  id="filter5804" inkscape:collect="always">
	<feGaussianBlur  id="feGaussianBlur5806" stdDeviation="0.029042384" inkscape:collect="always"></feGaussianBlur>
</filter>
<path d="M24.385,20.543c-0.436,0-0.835-0.285-0.961-0.724c-0.152-0.531,0.154-1.085,0.685-1.237c3.935-1.131,5.833-4.01,5.346-8.107
	c-0.462-3.883-2.423-5.216-5.585-7.07c-0.477-0.279-0.636-0.892-0.356-1.369c0.278-0.477,0.891-0.638,1.368-0.357
	c2.929,1.717,5.957,3.493,6.56,8.56c0.599,5.036-1.936,8.873-6.779,10.265C24.568,20.53,24.476,20.543,24.385,20.543L24.385,20.543z
	"/>
<path d="M13.651,24.356c-0.108,0.16-0.188,0.342-0.188,0.55v2.365c0,0.23,0.091,0.433,0.222,0.602
	c-0.172,0.18-0.28,0.421-0.28,0.689v2.365c0,0.553,0.447,1,1,1h0.672c0.002,0.024,0.003,0.048,0.005,0.072h8.622
	c-0.002-0.024-0.005-0.048-0.008-0.072c0.553,0,1-0.447,1-1v-2.365c0-0.23-0.091-0.433-0.222-0.602
	c0.173-0.18,0.281-0.421,0.281-0.689v-2.365c0-0.32-0.16-0.593-0.394-0.775c0.108-0.16,0.187-0.342,0.187-0.55v-2.365
	c0-0.553-0.447-1-1-1h-0.511c0.096-0.86,0.234-1.726,0.452-2.602c0.075-0.303,0.005-0.625-0.191-0.868
	c-0.19-0.236-0.478-0.373-0.779-0.373c-0.01,0-4.896,0.143-4.896,0.143c-0.448,0.014-0.833,0.324-0.941,0.759
	c-0.252,1.013-0.473,1.984-0.677,2.941h-1.749c-0.552,0-1,0.447-1,1v2.365C13.257,23.901,13.417,24.174,13.651,24.356z"/>
<path d="M6.039,28.688c-0.288,0-0.715-0.085-1.113-0.492c-1.506-1.538-1.532-7.736-1.529-8.51c-0.023-0.208-0.027-0.391-0.03-0.553
	c0-0.006,0-0.013,0-0.019c-0.012-0.004-0.024-0.009-0.038-0.014c-0.085-0.029-0.215-0.061-0.367-0.101
	C1.93,18.734,0.37,18.33,0.479,17.029c0.015-0.179,0.077-0.351,0.181-0.497c1.409-1.984,3.021-4.106,4.433-5.945
	c0.083-0.562-0.004-1.02-0.103-1.541c-0.141-0.745-0.301-1.59,0.013-2.732c0.016-0.058,0.037-0.114,0.063-0.168l0.151-0.322
	c0.437-0.941,0.888-1.915,2.632-3.18c1.45-1.052,5.617-2.609,9.958-2.609c2.62,0,4.987,0.546,7.034,1.622
	c0.339,0.178,0.546,0.532,0.535,0.914c-0.086,2.947-0.054,6.44-0.022,9.818c0.023,2.532,0.046,4.924,0.022,7.122
	c-0.005,0.425-0.276,0.8-0.679,0.937c-1.041,0.353-2.367,0.552-3.771,0.763c-1.089,0.164-2.21,0.332-3.265,0.579
	c-0.431,1.285-1.039,2.088-1.729,3c-0.235,0.312-0.489,0.646-0.76,1.032c-0.032,0.047-0.069,0.091-0.109,0.131
	c-2.023,2.04-6.911,2.591-8.919,2.732C6.119,28.687,6.063,28.688,6.039,28.688L6.039,28.688z"/>
<radialGradient id="path5738_1_" cx="289.3828" cy="-163.9272" r="3.2926" gradientTransform="matrix(1.0733 0 0 -2.3805 -283.1441 -381.9341)" gradientUnits="userSpaceOnUse">
	<stop  offset="0" style="stop-color:#FFFFFF"/>
	<stop  offset="1" style="stop-color:#8C8C8C"/>
</radialGradient>
<path id="path5738" sodipodi:nodetypes="czc" fill="url(#path5738_1_)" d="M24.375,2.542c3.076,1.804,5.542,3.356,6.072,7.815
	c0.53,4.457-1.554,7.89-6.063,9.186"/>
<linearGradient id="SVGID_1_" gradientUnits="userSpaceOnUse" x1="18.6221" y1="13.4429" x2="19.5829" y2="29.4275">
	<stop  offset="0" style="stop-color:#B1D2DB"/>
	<stop  offset="1" style="stop-color:#0B7C9E"/>
</linearGradient>
<path fill="url(#SVGID_1_)" d="M22.699,32c-0.55-5.124-1.422-9.638-0.18-14.627l-4.866,0.143c-1.274,5.137-1.989,9.399-1.569,14.484
	H22.699z"/>
<linearGradient id="rect5822_1_" gradientUnits="userSpaceOnUse" x1="329.9502" y1="-365.8555" x2="340.9019" y2="-365.8555" gradientTransform="matrix(0.889 0 0 -1.0767 -279.0789 -367.8207)">
	<stop  offset="0" style="stop-color:#B1D2DB"/>
	<stop  offset="1" style="stop-color:#0B7C9E"/>
</linearGradient>
<rect id="rect5822" x="14.464" y="24.906" fill="url(#rect5822_1_)" width="9.292" height="2.365"/>
<linearGradient id="rect5810_1_" gradientUnits="userSpaceOnUse" x1="329.9502" y1="-365.8564" x2="340.9019" y2="-365.8564" gradientTransform="matrix(0.889 0 0 -1.0767 -279.2859 -371.5121)">
	<stop  offset="0" style="stop-color:#B1D2DB"/>
	<stop  offset="1" style="stop-color:#0B7C9E"/>
</linearGradient>
<rect id="rect5810" x="14.257" y="21.216" fill="url(#rect5810_1_)" width="9.292" height="2.365"/>
<linearGradient id="rect5826_1_" gradientUnits="userSpaceOnUse" x1="329.9502" y1="-365.8564" x2="340.9009" y2="-365.8564" gradientTransform="matrix(0.889 0 0 -1.0767 -279.138 -364.1644)">
	<stop  offset="0" style="stop-color:#B1D2DB"/>
	<stop  offset="1" style="stop-color:#0B7C9E"/>
</linearGradient>
<rect id="rect5826" x="14.405" y="28.563" fill="url(#rect5826_1_)" width="9.291" height="2.365"/>
<linearGradient id="path5736_1_" gradientUnits="userSpaceOnUse" x1="265.0234" y1="-359.5435" x2="286.6813" y2="-359.5435" gradientTransform="matrix(1.0733 0 0 -1.0733 -283.1441 -371.5375)">
	<stop  offset="0" style="stop-color:#FFF3DF"/>
	<stop  offset="0.5394" style="stop-color:#F9A620"/>
	<stop  offset="1" style="stop-color:#A36628"/>
</linearGradient>
<path id="path5736" sodipodi:nodetypes="cccccccsccczc" fill="url(#path5736_1_)" d="M24.375,2.542
	c-0.148,5.116,0.055,11.75,0,16.958c-1.854,0.628-4.906,0.759-7.51,1.458c-0.503,1.903-1.358,2.64-2.514,4.29
	c-1.428,1.439-5.075,2.213-8.279,2.439c-1.479,0.104-1.701-6.811-1.675-8.059c-0.107-0.803,0.183-1.153-0.744-1.473
	c-0.487-0.168-2.227-0.461-2.179-1.045c1.448-2.041,3.087-4.193,4.558-6.106c0.381-1.778-0.554-2.65-0.066-4.426
	c0.5-1.04,0.748-1.876,2.47-3.126S18.101-0.755,24.375,2.542z"/>
<path d="M17.608,16.591c-1.571-0.001-3.049-0.593-4.162-1.667c-1.124-1.084-1.742-2.528-1.741-4.065
	c0.003-3.161,2.653-5.729,5.908-5.729c1.576,0.001,3.055,0.593,4.168,1.668c1.123,1.084,1.741,2.527,1.74,4.065
	c-0.002,3.16-2.652,5.728-5.908,5.728H17.608z"/>
<path id="path5748" sodipodi:rx="14.645731" sodipodi:ry="14.109912" sodipodi:cy="-71.055939" sodipodi:cx="-90.374878" sodipodi:type="arc" sodipodi:start="3.1415927" sodipodi:end="4.712389" d="
	M22.521,10.86c0-2.611-2.196-4.729-4.906-4.729l-0.002,4.728L22.521,10.86z"/>
<path id="path5750" sodipodi:rx="14.645731" sodipodi:ry="14.109912" sodipodi:cy="-71.055939" sodipodi:cx="-90.374878" sodipodi:type="arc" sodipodi:start="3.1415927" sodipodi:end="4.712389" d="
	M12.705,10.86c0,2.611,2.196,4.729,4.907,4.729l0.001-4.728L12.705,10.86z"/>
<path id="path5752" sodipodi:rx="14.645731" sodipodi:ry="14.109912" sodipodi:cy="-71.055939" sodipodi:cx="-90.374878" sodipodi:type="arc" sodipodi:start="3.1415927" sodipodi:end="4.712389" fill="#FFF508" d="
	M12.705,10.86c0-2.611,2.196-4.729,4.907-4.729l0.001,4.728L12.705,10.86z"/>
<path id="path5754" sodipodi:rx="14.645731" sodipodi:ry="14.109912" sodipodi:cy="-71.055939" sodipodi:cx="-90.374878" sodipodi:type="arc" sodipodi:start="3.1415927" sodipodi:end="4.712389" fill="#FFF508" d="
	M22.521,10.86c0,2.611-2.196,4.729-4.906,4.729l-0.002-4.728L22.521,10.86z"/>
<path id="path5798" sodipodi:nodetypes="czcsc" fill="#A96E0B" d="M6.072,27.688c3.822-1.284,5.862-1.459,7.392-2.781
	s2.224-2.508,3.401-3.948c0,0-0.643,3.413-3.003,4.698C10.895,27.272,7.135,27.851,6.072,27.688z"/>
<g id="path5802" sodipodi:nodetypes="cccc" filter="url(#filter5804)">
	<path fill="#A16809" d="M1.584,17.373c0.854,0.547,3.052,1.04,3.618,1.666c0.87-0.164,0.87-1.666,0.662-2.529
		C4.94,17.65,3.114,17.506,1.584,17.373z"/>
</g>
<g id="path5808" sodipodi:nodetypes="ccccc" filter="url(#filter5859)">
	<path fill="#9C6508" d="M6.146,9.804c2.035,0.015,3.547,1.795,5.931,2.572c-0.896,1.093-2.579-1.027-6.145,3.215
		C7.385,12.188,6.541,10.86,6.146,9.804z"/>
</g>
</svg>
