<?xml version="1.0" encoding="UTF-8" standalone="no"?>
<!-- Created with Inkscape (http://www.inkscape.org/) -->
<svg
   xmlns:dc="http://purl.org/dc/elements/1.1/"
   xmlns:cc="http://creativecommons.org/ns#"
   xmlns:rdf="http://www.w3.org/1999/02/22-rdf-syntax-ns#"
   xmlns:svg="http://www.w3.org/2000/svg"
   xmlns="http://www.w3.org/2000/svg"
   xmlns:xlink="http://www.w3.org/1999/xlink"
   xmlns:sodipodi="http://sodipodi.sourceforge.net/DTD/sodipodi-0.dtd"
   xmlns:inkscape="http://www.inkscape.org/namespaces/inkscape"
   width="32px"
   height="32px"
   id="svg2470"
   sodipodi:version="0.32"
   inkscape:version="0.46"
   sodipodi:docbase="D:\dbp\JavaExplorer\src\images"
   sodipodi:docname="text.svg"
   inkscape:output_extension="org.inkscape.output.svg.inkscape">
  <defs
     id="defs2472">
    <linearGradient
       id="linearGradient9094">
      <stop
         style="stop-color:#303030;stop-opacity:1;"
         offset="0"
         id="stop9096" />
      <stop
         style="stop-color:#dfdfdf;stop-opacity:1;"
         offset="1"
         id="stop9098" />
    </linearGradient>
    <linearGradient
       inkscape:collect="always"
       xlink:href="#linearGradient9094"
       id="linearGradient9522"
       gradientUnits="userSpaceOnUse"
       gradientTransform="matrix(0.7980725,0,0,0.5118952,12.622274,31.069864)"
       x1="-32.178493"
       y1="-10.55899"
       x2="-27.468493"
       y2="-10.55899" />
    <linearGradient
       id="linearGradient9196">
      <stop
         style="stop-color:#ffffff;stop-opacity:1;"
         offset="0"
         id="stop9198" />
      <stop
         style="stop-color:#869cff;stop-opacity:1;"
         offset="1"
         id="stop9200" />
    </linearGradient>
    <radialGradient
       inkscape:collect="always"
       xlink:href="#linearGradient9196"
       id="radialGradient9520"
       gradientUnits="userSpaceOnUse"
       gradientTransform="matrix(1,0,0,0.8731217,0,-2.2534509)"
       cx="13.503325"
       cy="-24.096737"
       fx="13.503325"
       fy="-24.096737"
       r="35.513508" />
    <inkscape:perspective
       sodipodi:type="inkscape:persp3d"
       inkscape:vp_x="0 : 16 : 1"
       inkscape:vp_y="0 : 1000 : 0"
       inkscape:vp_z="32 : 16 : 1"
       inkscape:persp3d-origin="16 : 10.666667 : 1"
       id="perspective15" />
  </defs>
  <sodipodi:namedview
     id="base"
     pagecolor="#ffffff"
     bordercolor="#666666"
     borderopacity="1.0"
     inkscape:pageopacity="0.0"
     inkscape:pageshadow="2"
     inkscape:zoom="13.836873"
     inkscape:cx="22.643392"
     inkscape:cy="19.515028"
     inkscape:current-layer="layer1"
     showgrid="true"
     inkscape:grid-bbox="true"
     inkscape:document-units="px"
     inkscape:window-width="1280"
     inkscape:window-height="944"
     inkscape:window-x="0"
     inkscape:window-y="44" />
  <metadata
     id="metadata2475">
    <rdf:RDF>
      <cc:Work
         rdf:about="">
        <dc:format>image/svg+xml</dc:format>
        <dc:type
           rdf:resource="http://purl.org/dc/dcmitype/StillImage" />
      </cc:Work>
    </rdf:RDF>
  </metadata>
  <g
     id="layer1"
     inkscape:label="Layer 1"
     inkscape:groupmode="layer">
    <path
       style="fill:none;fill-opacity:0.75;fill-rule:evenodd;stroke:#000000;stroke-width:1.16097045px;stroke-linecap:butt;stroke-linejoin:miter;stroke-opacity:1"
       d="M 6.9618185,1.5765318 C 1.1569665,6.7957706 1.1569665,6.7957706 1.1569665,6.7957706 C 6.9618185,12.025264 6.9618185,12.025264 6.9618185,12.025264"
       id="path4357" />
    <path
       transform="scale(0.8238112,1.2138703)"
       style="font-size:11.47704029000000000px;font-style:normal;font-weight:normal;fill:#0044ff;fill-opacity:1;stroke:none;stroke-width:1px;stroke-linecap:butt;stroke-linejoin:miter;stroke-opacity:1;font-family:Bitstream Vera Sans"
       d="M 14.294877,8.0591669 C 13.921271,8.3767286 13.56168,8.6008893 13.216102,8.7316497 C 12.870517,8.8624102 12.499718,8.9277904 12.103703,8.9277905 C 11.449899,8.9277904 10.947405,8.7680759 10.596221,8.4486465 C 10.245035,8.1292178 10.069442,7.7210585 10.069443,7.2241674 C 10.069442,6.93276 10.135757,6.6665691 10.268386,6.425594 C 10.401013,6.1846236 10.574738,5.991285 10.78956,5.8455776 C 11.004379,5.699876 11.246286,5.5896637 11.515281,5.5149402 C 11.713288,5.4626393 12.012169,5.4122031 12.411925,5.3636315 C 13.226373,5.2664986 13.826002,5.1506823 14.210816,5.0161821 C 14.214548,4.8779534 14.216416,4.7901571 14.21642,4.752793 C 14.216416,4.3418357 14.121147,4.0522947 13.930615,3.8841693 C 13.672826,3.6562775 13.289885,3.5423291 12.78179,3.5423239 C 12.307314,3.5423291 11.957062,3.6254554 11.731036,3.7917029 C 11.505005,3.9579604 11.337819,4.2521714 11.229476,4.6743366 L 10.243168,4.5398401 C 10.332831,4.117675 10.480404,3.7767639 10.685885,3.5171058 C 10.891365,3.2574582 11.188378,3.0575816 11.576925,2.9174752 C 11.965469,2.7773807 12.415658,2.7073304 12.927495,2.7073243 C 13.435589,2.7073304 13.848419,2.7671066 14.165984,2.8866531 C 14.483541,3.0062114 14.717041,3.1565859 14.866487,3.337777 C 15.015922,3.518979 15.120531,3.7478098 15.180312,4.0242699 C 15.213931,4.1961312 15.230743,4.5062202 15.230749,4.9545378 L 15.230749,6.2995035 C 15.230743,7.237245 15.252225,7.8303369 15.295195,8.0787809 C 15.338153,8.3272265 15.423148,8.5653972 15.550178,8.793294 L 14.496621,8.793294 C 14.392008,8.5840773 14.32476,8.3393685 14.294877,8.0591669 L 14.294877,8.0591669 z M 14.210816,5.8063494 C 13.844683,5.9557929 13.295489,6.0828173 12.563233,6.187423 C 12.148533,6.2472018 11.855256,6.31445 11.683402,6.3891678 C 11.511543,6.4638905 11.378915,6.5731688 11.285516,6.7170032 C 11.192114,6.8608418 11.145414,7.0205563 11.145415,7.1961472 C 11.145414,7.4651417 11.24722,7.6893024 11.450835,7.8686301 C 11.654446,8.0479596 11.952392,8.1376238 12.344676,8.1376232 C 12.733219,8.1376238 13.0788,8.0526296 13.381421,7.8826401 C 13.684034,7.7126525 13.906327,7.4800857 14.0483,7.1849392 C 14.15664,6.9570441 14.210812,6.620803 14.210816,6.1762149 L 14.210816,5.8063494 z M 17.730143,8.793294 L 16.794271,8.793294 L 16.794271,0.57779539 L 17.802996,0.57779539 L 17.802996,3.5086997 C 18.228899,2.9744553 18.772489,2.7073304 19.433766,2.7073243 C 19.799892,2.7073304 20.146407,2.7811167 20.473313,2.9286833 C 20.800209,3.0762616 21.069202,3.2836103 21.280292,3.5507299 C 21.491372,3.81786 21.65669,4.140091 21.776248,4.517424 C 21.895795,4.8947654 21.955571,5.2982547 21.955577,5.7278931 C 21.955571,6.7478274 21.70339,7.5361259 21.199034,8.092791 C 20.694667,8.6494575 20.089433,8.9277904 19.38333,8.9277905 C 18.680957,8.9277904 18.129895,8.6345134 17.730143,8.0479588 L 17.730143,8.793294 z M 17.718935,5.7727252 C 17.718933,6.4863066 17.81607,7.0018762 18.010344,7.3194358 C 18.327903,7.8387429 18.757545,8.0983957 19.29927,8.098395 C 19.740116,8.0983957 20.121189,7.9069251 20.442491,7.5239826 C 20.763783,7.1410427 20.924432,6.5703668 20.924437,5.8119534 C 20.924432,5.0348659 20.770321,4.4613881 20.462105,4.0915182 C 20.153879,3.7216577 19.781212,3.5367251 19.344102,3.5367198 C 18.903249,3.5367251 18.522176,3.7281957 18.200881,4.1111323 C 17.879582,4.4940782 17.718933,5.0479419 17.718935,5.7727252 L 17.718935,5.7727252 z M 27.072051,6.6133288 L 28.063963,6.7422213 C 27.955613,7.4259136 27.678214,7.9610973 27.231765,8.3477741 C 26.785307,8.7344518 26.237047,8.9277904 25.586984,8.9277905 C 24.772531,8.9277904 24.117795,8.6615995 23.622774,8.1292172 C 23.127751,7.5968361 22.880241,6.8337557 22.880241,5.8399735 C 22.880241,5.1973824 22.986717,4.6351126 23.19967,4.1531624 C 23.412622,3.6712215 23.736721,3.3097624 24.171968,3.0687839 C 24.607212,2.8278168 25.080752,2.7073304 25.592588,2.7073243 C 26.238915,2.7073304 26.767561,2.870781 27.178527,3.1976764 C 27.589484,3.5245831 27.852872,3.9887825 27.968694,4.5902763 L 26.98799,4.7415849 C 26.894585,4.3418357 26.729267,4.0410867 26.492034,3.8393371 C 26.254793,3.6375974 25.968054,3.5367251 25.631817,3.5367198 C 25.123716,3.5367251 24.710886,3.7188557 24.393327,4.0831121 C 24.075764,4.447378 23.916984,5.0236579 23.916985,5.8119534 C 23.916984,6.611463 24.07016,7.1924128 24.376515,7.5548047 C 24.682866,7.9171991 25.08262,8.0983957 25.575776,8.098395 C 25.97179,8.0983957 26.302428,7.9769753 26.567688,7.7341335 C 26.832941,7.4912938 27.001062,7.1176926 27.072051,6.6133288 L 27.072051,6.6133288 z"
       id="text4359" />
    <path
       style="fill:none;fill-opacity:0.75;fill-rule:evenodd;stroke:#000000;stroke-width:0.99677312px;stroke-linecap:butt;stroke-linejoin:miter;stroke-opacity:1"
       d="M 25.544206,27.43755 C 30.528072,22.956473 30.528072,22.956473 30.528072,22.956473 C 25.544206,18.466592 25.544206,18.466592 25.544206,18.466592"
       id="path4365" />
    <path
       style="fill:none;fill-opacity:0.75;fill-rule:evenodd;stroke:#000000;stroke-width:0.99677312px;stroke-linecap:butt;stroke-linejoin:miter;stroke-opacity:1"
       d="M 24.956805,16.576243 C 19.441784,27.97115 19.441784,27.97115 19.441784,27.97115"
       id="path4367" />
    <path
       transform="scale(0.9725168,1.0282598)"
       style="font-size:11.63254452000000000px;font-style:normal;font-weight:normal;fill:#0044ff;fill-opacity:1;stroke:none;stroke-width:1px;stroke-linecap:butt;stroke-linejoin:miter;stroke-opacity:1;font-family:Bitstream Vera Sans"
       d="M 9.7802481,26.562185 L 9.7802481,25.397795 L 10.944639,25.397795 L 10.944639,26.562185 L 9.7802481,26.562185 z M 13.006462,26.562185 L 13.006462,25.397795 L 14.170852,25.397795 L 14.170852,26.562185 L 13.006462,26.562185 z M 16.232675,26.562185 L 16.232675,25.397795 L 17.397065,25.397795 L 17.397065,26.562185 L 16.232675,26.562185 z"
       id="text4369" />
    <path
       style="fill:#fafafa;fill-opacity:1;fill-rule:nonzero;stroke:#000000;stroke-width:0.96341866;stroke-linecap:square;stroke-linejoin:bevel;stroke-miterlimit:4;stroke-dasharray:none;stroke-dashoffset:0;stroke-opacity:1"
       d="M 1.625715,15.671849 C 1.58924,15.671849 1.549766,15.724263 1.549766,15.774628 L 1.549766,17.871278 C 1.549766,17.921639 1.589239,17.974053 1.625715,17.974053 L 5.005443,17.974053 L 5.005443,28.580638 L 1.625715,28.580638 C 1.58924,28.580638 1.549766,28.612497 1.549766,28.66286 L 1.549766,30.780066 C 1.549766,30.830432 1.589239,30.862289 1.625715,30.862289 L 11.043384,30.862289 C 11.079861,30.862289 11.100348,30.830432 11.100348,30.780066 L 11.100348,28.66286 C 11.100348,28.612498 11.079861,28.580638 11.043384,28.580638 L 7.663656,28.580638 L 7.663656,17.974053 L 11.043384,17.974053 C 11.079861,17.974053 11.100348,17.921639 11.100348,17.871278 L 11.100348,15.774628 C 11.100348,15.724263 11.079861,15.671849 11.043384,15.671849 L 1.625715,15.671849 z"
       id="path4373" />
  </g>
</svg>
