<?xml version="1.0" encoding="utf-8"?>
<!-- Generator: Adobe Illustrator 14.0.0, SVG Export Plug-In . SVG Version: 6.00 Build 43363)  -->
<!DOCTYPE svg PUBLIC "-//W3C//DTD SVG 1.1//EN" "http://www.w3.org/Graphics/SVG/1.1/DTD/svg11.dtd">
<svg version="1.1"
	 id="svg2" sodipodi:docbase="C:\Radix\dev\trunk\org.radixware\kernel\designer\src\common.resources\src\org\radixware\kernel\designer\resources\icons\widgets" inkscape:version="0.46" sodipodi:docname="dateedit.svg" sodipodi:version="0.32" inkscape:output_extension="org.inkscape.output.svg.inkscape" xmlns:sodipodi="http://sodipodi.sourceforge.net/DTD/sodipodi-0.dtd" xmlns:cc="http://creativecommons.org/ns#" xmlns:dc="http://purl.org/dc/elements/1.1/" xmlns:rdf="http://www.w3.org/1999/02/22-rdf-syntax-ns#" xmlns:svg="http://www.w3.org/2000/svg" xmlns:inkscape="http://www.inkscape.org/namespaces/inkscape"
	 xmlns="http://www.w3.org/2000/svg" xmlns:xlink="http://www.w3.org/1999/xlink" x="0px" y="0px" width="24px" height="24px"
	 viewBox="4 4 24 24" enable-background="new 4 4 24 24" xml:space="preserve">
<g>
	
		<linearGradient id="SVGID_1_" gradientUnits="userSpaceOnUse" x1="297.541" y1="-381.6611" x2="297.541" y2="-395.8708" gradientTransform="matrix(1 0 0 -1 -281.54 -372.8398)">
		<stop  offset="0" style="stop-color:#CFCFCF;stop-opacity:0"/>
		<stop  offset="1" style="stop-color:#CFCFCF"/>
	</linearGradient>
	<rect x="7.602" y="8.798" fill="url(#SVGID_1_)" width="16.799" height="14.404"/>
	<path d="M17.813,22.239c0.311,0,0.598-0.027,0.867-0.055c0.184-0.018,0.355-0.037,0.518-0.037c0.244,0,0.316,0.049,0.385,0.109
		l1.836,1.668h3.725V18.8l-0.814-0.811c-0.439-0.498-0.557-1.441-0.68-2.439c-0.154-1.26-0.33-2.688-1.283-3.64
		c-1.129-1.131-2.633-1.754-4.229-1.754c-1.221,0-2.396,0.365-3.4,1.057c-0.246,0.17-0.383,0.459-0.357,0.757
		c0.025,0.299,0.209,0.56,0.481,0.686l3.271,1.512l-0.143,1.75l-1.459,1.395l-3.174-1.631c-0.12-0.063-0.251-0.092-0.381-0.092
		c-0.158,0-0.314,0.045-0.451,0.133c-0.251,0.16-0.396,0.443-0.381,0.74c0.073,1.502,0.699,2.904,1.762,3.947
		C15.182,21.657,16.424,22.239,17.813,22.239z"/>
	<path fill="#94C8D8" d="M26,24.255v-3.428c-1.031-1.025-1.869-1.857-2.299-2.287c-1.266-1.438-0.479-4.596-1.924-6.041
		c-1.787-1.788-4.557-1.985-6.568-0.601l3.801,1.757l-0.219,2.646l-2.113,2.021l-3.703-1.902c0.061,1.232,0.565,2.463,1.512,3.393
		c2.916,2.848,4.498,0.781,5.656,1.826l2.092,1.902l1.189,1.186h2.098C25.785,24.728,26,24.517,26,24.255z"/>
	<linearGradient id="SVGID_2_" gradientUnits="userSpaceOnUse" x1="19.7949" y1="21.3818" x2="26" y2="21.3818">
		<stop  offset="0" style="stop-color:#34899F;stop-opacity:0"/>
		<stop  offset="1" style="stop-color:#34849B;stop-opacity:0.6842"/>
	</linearGradient>
	<path fill="url(#SVGID_2_)" d="M26,24.255v-2.758c-1.066-1.055-1.934-1.9-2.357-2.281c-0.213-0.217-0.668-0.885-0.779-1.18
		c-0.711,1.385-1.535,2.338-3.068,2.975c0.219,0.027,0.832,0.428,1.02,0.582l3.152,3.135h1.557C25.787,24.728,26,24.517,26,24.255z"
		/>
	
		<linearGradient id="rect3484_2_" gradientUnits="userSpaceOnUse" x1="-1489.1729" y1="5544.6211" x2="-1488.189" y2="5558.9326" gradientTransform="matrix(0 -0.1902 0.1902 0 -1040.6337 -264.2175)">
		<stop  offset="0" style="stop-color:#DBECF1"/>
		<stop  offset="1" style="stop-color:#DBECF1;stop-opacity:0"/>
	</linearGradient>
	<path id="rect3484_1_" fill="url(#rect3484_2_)" d="M14.469,19.222c-0.643-0.828-0.773-1.455-0.986-2.111l3.131,1.602l0.137,2.107
		C15.815,20.524,15.143,19.872,14.469,19.222z"/>
	
		<linearGradient id="rect3495_2_" gradientUnits="userSpaceOnUse" x1="-1446.5776" y1="5562.5322" x2="-1457.4967" y2="5572.1982" gradientTransform="matrix(0 -0.1902 0.1902 0 -1040.6337 -264.2175)">
		<stop  offset="0" style="stop-color:#DBECF1"/>
		<stop  offset="1" style="stop-color:#DBECF1;stop-opacity:0"/>
	</linearGradient>
	<path id="rect3495_1_" fill="url(#rect3495_2_)" d="M16,11.905c0.349-0.366,1.133-0.477,1.838-0.576
		c1.113,0.054,1.986,0.132,2.996,0.884l-1.531,1.19L16,11.905z"/>
	<path d="M25.168,7.222H6.834C6.373,7.222,6,7.595,6,8.055v15.892c0,0.459,0.373,0.832,0.834,0.832h18.334
		c0.459,0,0.832-0.373,0.832-0.832V8.055C26,7.595,25.627,7.222,25.168,7.222z M25.168,23.946H6.834V8.055h18.334V23.946z"/>
</g>
</svg>
