<?xml version="1.0" encoding="utf-8"?>
<!-- Generator: Adobe Illustrator 15.0.0, SVG Export Plug-In . SVG Version: 6.00 Build 0)  -->
<!DOCTYPE svg PUBLIC "-//W3C//DTD SVG 1.1//EN" "http://www.w3.org/Graphics/SVG/1.1/DTD/svg11.dtd">
<svg version="1.1"
	 id="Layer_1" inkscape:version="0.47pre4 " sodipodi:docname="xml_.svg" xmlns:rdf="http://www.w3.org/1999/02/22-rdf-syntax-ns#" xmlns:dc="http://purl.org/dc/elements/1.1/" xmlns:svg="http://www.w3.org/2000/svg" xmlns:cc="http://creativecommons.org/ns#" xmlns:sodipodi="http://sodipodi.sourceforge.net/DTD/sodipodi-0.dtd" xmlns:inkscape="http://www.inkscape.org/namespaces/inkscape"
	 xmlns="http://www.w3.org/2000/svg" xmlns:xlink="http://www.w3.org/1999/xlink" x="0px" y="0px" width="32px" height="32px"
	 viewBox="0 0 32 32" enable-background="new 0 0 32 32" xml:space="preserve">
<defs>
	
	
		<inkscape:perspective  id="perspective270" sodipodi:type="inkscape:persp3d" inkscape:vp_z="32 : 16 : 1" inkscape:vp_x="0 : 16 : 1" inkscape:vp_y="0 : 1000 : 0" inkscape:persp3d-origin="16 : 10.666667 : 1">
		</inkscape:perspective>
</defs>
<sodipodi:namedview  id="namedview264" pagecolor="#ffffff" bordercolor="#666666" borderopacity="1" objecttolerance="10" gridtolerance="10" showgrid="false" guidetolerance="10" inkscape:zoom="3.8678895" inkscape:cx="64.687682" inkscape:cy="-5.6809521" inkscape:pageopacity="0" inkscape:pageshadow="2" inkscape:window-width="1680" inkscape:window-height="981" inkscape:window-x="-4" inkscape:window-y="-4" inkscape:current-layer="Layer_1" inkscape:window-maximized="1">
	</sodipodi:namedview>
<g id="g177">
	<g id="g179">
		<g id="g181">
			<g id="g5">
				<polyline id="polyline7" fill="none" stroke="#000000" points="16.3,28.359 7.626,28.359 7.626,10.082 				"/>
				<line id="line9" fill="none" stroke="#000000" x1="16.495" y1="18.624" x2="7.626" y2="18.624"/>
				<g id="g11">
					<path id="path175_10_" fill="#14120D" d="M16.3,22.636c-2.209,0-4.011-1.799-4.011-4.012c0-2.21,1.801-4.008,4.011-4.008
						s4.01,1.798,4.01,4.008C20.31,20.837,18.51,22.636,16.3,22.636L16.3,22.636z"/>
					<circle id="circle177_10_" fill="#E41F1C" cx="16.3" cy="18.625" r="3.436"/>
					
						<linearGradient id="path186_2_" gradientUnits="userSpaceOnUse" x1="1418.7969" y1="2162.7861" x2="1424.5215" y2="2162.7861" gradientTransform="matrix(1 0 0 1 -1405.3604 -2144.1592)">
						<stop  offset="0" style="stop-color:#F39AA0"/>
						<stop  offset="1" style="stop-color:#941C17"/>
					</linearGradient>
					<path id="path186_10_" fill="url(#path186_2_)" d="M16.3,21.49c-1.578,0-2.863-1.284-2.863-2.864s1.285-2.862,2.863-2.862
						c1.579,0,2.861,1.282,2.861,2.862S17.88,21.49,16.3,21.49L16.3,21.49z"/>
					<g id="g195">
						<path id="path175_9_" fill="#14120D" d="M16.3,31.966c-2.209,0-4.011-1.8-4.011-4.01c0-2.213,1.801-4.01,4.011-4.01
							s4.01,1.797,4.01,4.01C20.31,30.166,18.51,31.966,16.3,31.966L16.3,31.966z"/>
						<circle id="circle177_9_" fill="#77B830" cx="16.3" cy="27.956" r="3.436"/>
						
							<linearGradient id="path186_3_" gradientUnits="userSpaceOnUse" x1="1418.7969" y1="2172.1152" x2="1424.5215" y2="2172.1152" gradientTransform="matrix(1 0 0 1 -1405.3604 -2144.1592)">
							<stop  offset="0" style="stop-color:#BCD686"/>
							<stop  offset="1" style="stop-color:#1C8C37"/>
						</linearGradient>
						<path id="path186_9_" fill="url(#path186_3_)" d="M16.3,30.82c-1.578,0-2.863-1.286-2.863-2.864s1.285-2.863,2.863-2.863
							c1.579,0,2.861,1.285,2.861,2.863S17.88,30.82,16.3,30.82L16.3,30.82z"/>
					</g>
					<g id="g205">
						<path id="path175_1_" fill="#14120D" d="M16.3,22.635c-2.209,0-4.011-1.8-4.011-4.011c0-2.21,1.801-4.008,4.011-4.008
							s4.01,1.798,4.01,4.008C20.31,20.835,18.51,22.635,16.3,22.635L16.3,22.635z"/>
						<circle id="circle177_1_" fill="#77B830" cx="16.3" cy="18.625" r="3.436"/>
						
							<linearGradient id="path186_4_" gradientUnits="userSpaceOnUse" x1="1418.7969" y1="2162.7852" x2="1424.5215" y2="2162.7852" gradientTransform="matrix(1 0 0 1 -1405.3604 -2144.1592)">
							<stop  offset="0" style="stop-color:#BCD686"/>
							<stop  offset="1" style="stop-color:#1C8C37"/>
						</linearGradient>
						<path id="path186_1_" fill="url(#path186_4_)" d="M16.3,21.49c-1.578,0-2.863-1.286-2.863-2.864s1.285-2.863,2.863-2.863
							c1.579,0,2.861,1.285,2.861,2.863S17.88,21.49,16.3,21.49L16.3,21.49z"/>
					</g>
				</g>
				<g id="g29">
					<path id="path31" fill="#2B2523" d="M17.383,3.352c-0.181-0.314-0.537-0.496-0.974-0.496h-2.68V2.614
						c0-0.853-0.695-1.552-1.551-1.552H7.662L7.605,0.955C7.39,0.552,7.097,0,6.348,0H4.832c-0.77,0-1.071,0.56-1.331,1.043
						L3.487,1.064H3.072c-0.854,0-1.551,0.695-1.551,1.551v6.402c0,0.862,0.694,1.563,1.551,1.563h0.164h8.942h0.337
						c0.714,0,1.521-0.467,1.881-1.082l2.927-5.059C17.543,4.063,17.564,3.666,17.383,3.352z"/>
					<path id="rect5504_2_" fill="#AB6A1B" d="M4.831,0.499c-0.485,0-0.662,0.357-0.895,0.786L3.784,1.563H3.072
						c-0.585,0-1.052,0.467-1.052,1.052v6.403c0,0.587,0.467,1.063,1.052,1.063h9.106c0.586,0,1.051-0.477,1.051-1.063V2.614
						c0-0.585-0.465-1.052-1.051-1.052H7.37L7.216,1.285C6.983,0.856,6.833,0.499,6.348,0.499H5.926h-0.67H4.831z"/>
					<path id="path218" fill="#13110C" d="M3.235,10.582c-0.438,0-0.791-0.18-0.975-0.496C2.08,9.774,2.104,9.376,2.323,9
						l2.928-5.06c0.354-0.614,1.165-1.083,1.878-1.083h9.282c0.438,0,0.792,0.183,0.974,0.496c0.182,0.313,0.158,0.71-0.061,1.09
						l-2.928,5.058c-0.358,0.617-1.167,1.083-1.879,1.083H3.235V10.582z"/>
					<path id="rect5498_2_" fill="#F8AB00" d="M7.128,3.355h9.281c0.532,0,0.749,0.374,0.482,0.835l-2.928,5.058
						c-0.269,0.46-0.916,0.833-1.446,0.833H3.235c-0.532,0-0.747-0.373-0.48-0.833l2.93-5.058C5.948,3.729,6.597,3.355,7.128,3.355z
						"/>
					
						<linearGradient id="path44_2_" gradientUnits="userSpaceOnUse" x1="282.3506" y1="531.5205" x2="295.6973" y2="531.5205" gradientTransform="matrix(1 0 0 1 -279.2002 -524.7998)">
						<stop  offset="0" style="stop-color:#AB691C"/>
						<stop  offset="0.5394" style="stop-color:#F8AB00"/>
						<stop  offset="1" style="stop-color:#FFF8EA"/>
					</linearGradient>
					<path id="path44_1_" fill="url(#path44_2_)" d="M3.235,9.583c-0.038,0-0.063-0.003-0.085-0.008
						C3.158,9.554,3.17,9.53,3.188,9.499l2.926-5.057C6.293,4.136,6.776,3.856,7.13,3.856h9.282c0.036,0,0.063,0.004,0.085,0.008
						c-0.007,0.021-0.019,0.047-0.038,0.078L13.533,9c-0.179,0.306-0.661,0.585-1.016,0.585L3.235,9.583L3.235,9.583z"/>
				</g>
			</g>
		</g>
	</g>
	<g id="g229">
		<path id="path231" fill="#13110C" d="M30.077,6.081c-0.079-0.033-0.163-0.052-0.249-0.051h-5.392
			c-0.172,0-0.337,0.068-0.458,0.189c-0.122,0.121-0.19,0.286-0.19,0.458l0.001,18.484c0,0.008,0.005,0.016,0.005,0.023
			c0.001,0.071,0.013,0.145,0.038,0.212l1.983,5.079c0.005,0.01,0.011,0.014,0.014,0.021c0.005,0.011,0.007,0.023,0.012,0.033
			l0.559,1.111c0.108,0.22,0.335,0.357,0.58,0.357h0.268c0.174-0.002,0.34-0.07,0.46-0.19c0.047-0.047,0.087-0.104,0.12-0.167
			l0.56-1.111c0.005-0.01,0.007-0.022,0.012-0.033c0.004-0.008,0.01-0.012,0.012-0.02l2.021-5.076
			c0.028-0.072,0.038-0.146,0.041-0.219c0-0.009,0.004-0.016,0.006-0.023V6.68c0-0.088-0.019-0.174-0.052-0.252
			C30.361,6.273,30.235,6.147,30.077,6.081z"/>
		<rect id="rect233" x="24.438" y="6.678" fill="#75B72F" width="5.391" height="18.482"/>
		
			<linearGradient id="polygon240_1_" gradientUnits="userSpaceOnUse" x1="-61.6646" y1="620.1572" x2="-58.8304" y2="622.9913" gradientTransform="matrix(0.7071 -0.7071 0.7071 0.7071 -369.8528 -466.1963)">
			<stop  offset="0" style="stop-color:#BCD686"/>
			<stop  offset="1" style="stop-color:#198B38"/>
		</linearGradient>
		<polygon id="polygon240" fill="url(#polygon240_1_)" points="25.086,24.513 25.085,7.327 29.18,7.327 29.18,24.513 		"/>
		<polygon id="polygon242" fill="#F7A800" points="26.42,30.242 27.807,30.242 29.828,25.162 24.437,25.162 		"/>
		
			<linearGradient id="polygon251_1_" gradientUnits="userSpaceOnUse" x1="-70.0293" y1="628.4424" x2="-67.31" y2="631.1617" gradientTransform="matrix(0.7071 -0.7071 0.7071 0.7071 -369.8528 -466.1963)">
			<stop  offset="0" style="stop-color:#FFF7E8"/>
			<stop  offset="0.5394" style="stop-color:#F7A800"/>
			<stop  offset="1" style="stop-color:#A9661B"/>
		</linearGradient>
		<polygon id="polygon251" fill="url(#polygon251_1_)" points="26.864,29.593 25.388,25.81 28.871,25.813 27.366,29.593 		"/>
		<polygon id="polygon253" fill="#2B2523" points="26.42,30.242 27.807,30.242 27.245,31.354 26.978,31.354 		"/>
		<rect id="rect255" x="24.438" y="6.68" fill="#E41B1A" width="5.391" height="2.778"/>
		
			<linearGradient id="polygon262_1_" gradientUnits="userSpaceOnUse" x1="-56.1934" y1="614.5264" x2="-53.1884" y2="617.5312" gradientTransform="matrix(0.7071 -0.7071 0.7071 0.7071 -369.8528 -466.1963)">
			<stop  offset="0" style="stop-color:#F39A9F"/>
			<stop  offset="1" style="stop-color:#931B16"/>
		</linearGradient>
		<polygon id="polygon262" fill="url(#polygon262_1_)" points="25.086,8.813 25.086,7.327 29.18,7.327 29.179,8.811 		"/>
	</g>
</g>
</svg>
