<?xml version="1.0" encoding="utf-8"?>
<!-- Generator: Adobe Illustrator 14.0.0, SVG Export Plug-In . SVG Version: 6.00 Build 43363)  -->
<!DOCTYPE svg PUBLIC "-//W3C//DTD SVG 1.1//EN" "http://www.w3.org/Graphics/SVG/1.1/DTD/svg11.dtd">
<svg version="1.1" id="Layer_1" xmlns="http://www.w3.org/2000/svg" xmlns:xlink="http://www.w3.org/1999/xlink" x="0px" y="0px"
	 width="32px" height="32px" viewBox="0 0 32 32" enable-background="new 0 0 32 32" xml:space="preserve">
<g>
	<path d="M15.906,31c8.021,0,14.546-6.525,14.546-14.546S23.927,1.907,15.906,1.907c-3.218,0-6.34,1.074-8.881,3.04L3.13,1.257
		C2.952,1.089,2.721,1,2.485,1C2.36,1,2.234,1.025,2.115,1.077C1.771,1.224,1.548,1.563,1.548,1.938v12.111
		c0,0.518,0.419,0.938,0.938,0.938h12.781c0.384,0,0.729-0.234,0.871-0.59c0.143-0.356,0.053-0.764-0.226-1.028l-4.138-3.92
		c1.247-0.742,2.657-1.129,4.132-1.129c4.485,0,8.134,3.649,8.134,8.135s-3.649,8.135-8.134,8.135c-3.421,0-6.496-2.168-7.651-5.395
		c-0.138-0.382-0.496-0.622-0.883-0.622c-0.094,0-0.187,0.014-0.28,0.043l-4.328,1.356c-0.242,0.075-0.443,0.245-0.557,0.472
		c-0.114,0.225-0.132,0.487-0.052,0.727C4.173,27.05,9.697,31,15.906,31L15.906,31z"/>
	<path fill="#03ADDB" d="M2.485,14.049V1.938l4.493,4.259c2.39-2.083,5.508-3.352,8.927-3.352c7.516,0,13.609,6.093,13.609,13.609
		s-6.093,13.609-13.609,13.609c-5.97,0-11.03-3.85-12.863-9.196l4.329-1.356c1.256,3.506,4.598,6.017,8.534,6.017
		c5.011,0,9.072-4.062,9.072-9.073c0-5.01-4.061-9.072-9.072-9.072c-2.122,0-4.07,0.731-5.615,1.952l4.976,4.715H2.485z"/>
	
		<linearGradient id="SVGID_1_" gradientUnits="userSpaceOnUse" x1="3.4229" y1="16.4536" x2="28.5771" y2="16.4536" gradientTransform="matrix(-1 0 0 1 32 0)">
		<stop  offset="0" style="stop-color:#B2D3DC"/>
		<stop  offset="1" style="stop-color:#117C9F"/>
	</linearGradient>
	<path fill="url(#SVGID_1_)" d="M15.906,29.125c6.987,0,12.671-5.685,12.671-12.671S22.893,3.782,15.906,3.782
		c-3.049,0-6.001,1.108-8.31,3.121l-0.643,0.56l-3.53-3.345v8.994h9.492L8.858,9.269l0.85-0.671c1.786-1.41,3.928-2.154,6.198-2.154
		c5.519,0,10.009,4.49,10.009,10.01c0,5.519-4.49,10.01-10.009,10.01c-3.907,0-7.448-2.298-9.074-5.802l-2.555,0.8
		C6.265,26.083,10.821,29.125,15.906,29.125L15.906,29.125z"/>
</g>
</svg>
