<?xml version="1.0" encoding="utf-8"?>
<!-- Generator: Adobe Illustrator 14.0.0, SVG Export Plug-In . SVG Version: 6.00 Build 43363)  -->
<!DOCTYPE svg PUBLIC "-//W3C//DTD SVG 1.1//EN" "http://www.w3.org/Graphics/SVG/1.1/DTD/svg11.dtd">
<svg version="1.1"
	 id="Layer_1" inkscape:version="0.47pre4 " sodipodi:docname="prev.svg" xmlns:sodipodi="http://sodipodi.sourceforge.net/DTD/sodipodi-0.dtd" xmlns:inkscape="http://www.inkscape.org/namespaces/inkscape" xmlns:cc="http://creativecommons.org/ns#" xmlns:svg="http://www.w3.org/2000/svg" xmlns:rdf="http://www.w3.org/1999/02/22-rdf-syntax-ns#" xmlns:dc="http://purl.org/dc/elements/1.1/"
	 xmlns="http://www.w3.org/2000/svg" xmlns:xlink="http://www.w3.org/1999/xlink" x="0px" y="0px" width="32px" height="32px"
	 viewBox="0 0 32 32" enable-background="new 0 0 32 32" xml:space="preserve">
<defs>
	
	
		<inkscape:perspective  id="perspective2879" sodipodi:type="inkscape:persp3d" inkscape:vp_x="0 : 16 : 1" inkscape:vp_y="0 : 1000 : 0" inkscape:vp_z="32 : 16 : 1" inkscape:persp3d-origin="16 : 10.666667 : 1">
		</inkscape:perspective>
</defs>
<sodipodi:namedview  id="namedview2873" inkscape:window-maximized="0" inkscape:cx="16" gridtolerance="10" objecttolerance="10" inkscape:zoom="7.375" inkscape:cy="16" showgrid="false" pagecolor="#ffffff" guidetolerance="10" borderopacity="1" bordercolor="#666666" inkscape:current-layer="Layer_1" inkscape:window-y="0" inkscape:window-x="0" inkscape:window-height="481" inkscape:window-width="640" inkscape:pageshadow="2" inkscape:pageopacity="0">
	</sodipodi:namedview>
<g id="g2881">
	<g id="g20887-2_2_" transform="translate(-5.5755111,29.767864)">
		<g id="g2853">
			<g id="g2855">
				<path id="path2857" d="M9.524-12.423c0-0.235,0.084-0.47,0.245-0.655l11.078-12.754c0.19-0.219,0.467-0.345,0.757-0.344
					c0.291,0,0.565,0.126,0.755,0.346l11.024,12.754c0.159,0.187,0.243,0.418,0.243,0.654c0,0.141-0.029,0.283-0.09,0.416
					c-0.164,0.355-0.519,0.584-0.91,0.584h-4.282v9.064c0,0.553-0.447,1-1,1H15.898c-0.553,0-1-0.447-1-1v-9.065h-4.374
					c-0.392,0-0.747-0.229-0.91-0.585C9.552-12.141,9.524-12.283,9.524-12.423L9.524-12.423z"/>
			</g>
		</g>
	</g>
	<g id="g20887-2_1_" transform="translate(-5.5755111,29.767864)">
		<path id="path4348-2-1_1_" fill="#00ADDC" d="M10.524-12.423l11.079-12.756l11.023,12.756h-5.282v10.065H15.898v-10.065H10.524z"
			/>
	</g>
	<g id="g20887-2_3_" transform="translate(-5.5755111,29.767864)">
		<g id="g2862">
			<g id="g2864">
				
					<linearGradient id="polygon2871_1_" gradientUnits="userSpaceOnUse" x1="-653.9162" y1="118.2614" x2="-653.9162" y2="101.4657" gradientTransform="matrix(4.371139e-008 -1 -1 -4.371139e-008 131.1068 -667.4222)">
					<stop  offset="0" style="stop-color:#B2D3DC"/>
					<stop  offset="1" style="stop-color:#027C9E"/>
				</linearGradient>
				<polygon id="polygon2871" fill="url(#polygon2871_1_)" points="21.601,-23.652 30.443,-13.424 26.344,-13.424 26.344,-3.358 
					16.898,-3.358 16.898,-13.424 12.716,-13.424 				"/>
			</g>
		</g>
	</g>
</g>
</svg>
