<?xml version="1.0" encoding="UTF-8" standalone="no"?>
<!-- Generator: Adobe Illustrator 14.0.0, SVG Export Plug-In . SVG Version: 6.00 Build 43363)  -->

<svg
   xmlns:dc="http://purl.org/dc/elements/1.1/"
   xmlns:cc="http://creativecommons.org/ns#"
   xmlns:rdf="http://www.w3.org/1999/02/22-rdf-syntax-ns#"
   xmlns:svg="http://www.w3.org/2000/svg"
   xmlns="http://www.w3.org/2000/svg"
   xmlns:xlink="http://www.w3.org/1999/xlink"
   xmlns:sodipodi="http://sodipodi.sourceforge.net/DTD/sodipodi-0.dtd"
   xmlns:inkscape="http://www.inkscape.org/namespaces/inkscape"
   version="1.1"
   id="Layer_1"
   x="0px"
   y="0px"
   width="32px"
   height="32px"
   viewBox="0 0 32 32"
   enable-background="new 0 0 32 32"
   xml:space="preserve"
   inkscape:version="0.47 r22583"
   sodipodi:docname="sorting.svg"><metadata
   id="metadata48"><rdf:RDF><cc:Work
       rdf:about=""><dc:format>image/svg+xml</dc:format><dc:type
         rdf:resource="http://purl.org/dc/dcmitype/StillImage" /></cc:Work></rdf:RDF></metadata><defs
   id="defs46"><inkscape:perspective
     sodipodi:type="inkscape:persp3d"
     inkscape:vp_x="0 : 16 : 1"
     inkscape:vp_y="0 : 1000 : 0"
     inkscape:vp_z="32 : 16 : 1"
     inkscape:persp3d-origin="16 : 10.666667 : 1"
     id="perspective50" /><inkscape:perspective
     id="perspective2929"
     inkscape:persp3d-origin="0.5 : 0.33333333 : 1"
     inkscape:vp_z="1 : 0.5 : 1"
     inkscape:vp_y="0 : 1000 : 0"
     inkscape:vp_x="0 : 0.5 : 1"
     sodipodi:type="inkscape:persp3d" /><linearGradient
     id="path5823_1_"
     gradientUnits="userSpaceOnUse"
     x1="562.44043"
     y1="-916.64062"
     x2="580.76862"
     y2="-916.64062"
     gradientTransform="matrix(1,0,0,-1,-560.6201,-896.5195)"><stop
       offset="0"
       style="stop-color:#B2D3DC"
       id="stop7" /><stop
       offset="1"
       style="stop-color:#157DA0"
       id="stop9" /></linearGradient><linearGradient
     id="path5850_1_"
     gradientUnits="userSpaceOnUse"
     x1="564.80762"
     y1="-906.14258"
     x2="578.40143"
     y2="-906.14258"
     gradientTransform="matrix(1,0,0,-1,-560.6201,-896.5195)"><stop
       offset="0"
       style="stop-color:#E2B69D;stop-opacity:0"
       id="stop20" /><stop
       offset="1"
       style="stop-color:#E2B69D"
       id="stop22" /></linearGradient><linearGradient
     inkscape:collect="always"
     xlink:href="#SVGID_1_"
     id="linearGradient2987"
     gradientUnits="userSpaceOnUse"
     x1="1.2222"
     y1="7.9868002"
     x2="14.7964"
     y2="7.9868002" /><linearGradient
     inkscape:collect="always"
     xlink:href="#SVGID_2_"
     id="linearGradient2989"
     gradientUnits="userSpaceOnUse"
     x1="1.23"
     y1="24.0137"
     x2="14.8481"
     y2="24.0137" /><linearGradient
     inkscape:collect="always"
     xlink:href="#SVGID_3_"
     id="linearGradient2991"
     gradientUnits="userSpaceOnUse"
     x1="18.558599"
     y1="16.167"
     x2="29.4688"
     y2="16.167" /></defs><sodipodi:namedview
   pagecolor="#ffffff"
   bordercolor="#666666"
   borderopacity="1"
   objecttolerance="10"
   gridtolerance="10"
   guidetolerance="10"
   inkscape:pageopacity="0"
   inkscape:pageshadow="2"
   inkscape:window-width="981"
   inkscape:window-height="480"
   id="namedview44"
   showgrid="false"
   inkscape:zoom="7.84375"
   inkscape:cx="10.065209"
   inkscape:cy="16"
   inkscape:window-x="12"
   inkscape:window-y="38"
   inkscape:window-maximized="0"
   inkscape:current-layer="Layer_1" />
<g
   id="g2961"
   transform="matrix(0.8,0,0,0.8,6.3545817,-0.08207171)"><g
     transform="matrix(0.84304981,0,0,0.81181503,5.011911,1.0105536)"
     id="g3">
	
	
	<g
   id="g2915"><g
     id="g2938"><g
       id="g5">
		<path
   style="fill:#231f20"
   id="path7"
   d="M 12.244,15.987 C 12.036,15.987 11.85,15.859 11.775,15.665 L 10.588,12.58 H 5.291 L 4.172,15.657 C 4.1,15.855 3.911,15.987 3.701,15.987 H 0.488 C 0.322,15.987 0.167,15.905 0.073,15.769 C -0.02,15.632 -0.04,15.457 0.02,15.303 L 5.862,0.307 C 5.937,0.114 6.123,-0.013 6.33,-0.013 H 9.532 C 9.738,-0.013 9.922,0.112 9.998,0.302 L 16.004,15.298 C 16.066,15.453 16.047,15.628 15.954,15.766 C 15.861,15.903 15.705,15.986 15.538,15.986 H 12.244 z M 9.24,9.05 L 7.9,5.441 L 6.585,9.05 H 9.24 z" />
		<path
   style="fill:#ed2a28"
   id="path9"
   d="M 15.538,15.485 H 12.244 L 10.934,12.078 H 4.938 L 3.7,15.485 H 0.488 L 6.33,0.488 H 9.532 L 15.538,15.485 z M 9.961,9.552 L 7.895,3.987 L 5.869,9.552 H 9.961 z" />
		<linearGradient
   y2="7.9868002"
   x2="14.7964"
   y1="7.9868002"
   x1="1.2222"
   gradientUnits="userSpaceOnUse"
   id="SVGID_1_">
			<stop
   id="stop12"
   style="stop-color:#F5969A"
   offset="0" />
			<stop
   id="stop14"
   style="stop-color:#901C1E"
   offset="1" />
		</linearGradient>
		<path
   style="fill:url(#linearGradient2987)"
   id="path16"
   d="M 12.588,14.983 L 11.278,11.576 H 4.588 L 3.35,14.983 H 1.222 L 6.673,0.99 H 9.193 L 14.797,14.983 H 12.588 z M 5.153,10.054 H 10.683 L 7.89,2.533 L 5.153,10.054 z" />
	</g><g
       id="g18">
		<path
   style="fill:#231f20"
   id="path20"
   d="M 0.622,32.014 C 0.286,32.014 0.014,31.789 0.014,31.514 V 28.782 C 0.014,28.667 0.063,28.555 0.149,28.468 L 8.935,19.552 H 1.706 C 1.37,19.552 1.098,19.327 1.098,19.052 V 16.514 C 1.098,16.238 1.37,16.014 1.706,16.014 H 15.07 C 15.406,16.014 15.678,16.238 15.678,16.514 V 18.866 C 15.678,18.981 15.629,19.093 15.541,19.182 L 6.345,28.487 H 15.456 C 15.792,28.487 16.064,28.71 16.064,28.987 V 31.514 C 16.064,31.789 15.792,32.014 15.456,32.014 H 0.622 z" />
		<path
   style="fill:#08acda"
   id="path22"
   d="M 0.622,31.514 V 28.782 L 10.212,19.052 H 1.706 V 16.514 H 15.07 V 18.866 L 5.068,28.986 H 15.456 V 31.513 H 0.622 z" />
		<linearGradient
   y2="24.0137"
   x2="14.8481"
   y1="24.0137"
   x1="1.23"
   gradientUnits="userSpaceOnUse"
   id="SVGID_2_">
			<stop
   id="stop25"
   style="stop-color:#B1D2DB"
   offset="0" />
			<stop
   id="stop27"
   style="stop-color:#107D9F"
   offset="1" />
		</linearGradient>
		<polygon
   style="fill:url(#linearGradient2989)"
   id="polygon29"
   points="14.848,31.014 1.23,31.014 1.23,28.957 11.487,18.551 2.314,18.551 2.314,17.014 14.461,17.014 14.461,18.689 3.789,29.486 14.848,29.486 " />
	</g><g
       id="g31">
		<path
   style="fill:#231f20"
   id="path33"
   d="M 21.035,27.844 C 20.623,27.844 20.291,27.51 20.291,27.098 V 12.928 H 16.759 C 16.457,12.928 16.185,12.746 16.07,12.468 C 15.955,12.189 16.019,11.869 16.232,11.655 L 23.486,4.401 C 23.632,4.255 23.822,4.182 24.013,4.182 C 24.204,4.182 24.394,4.255 24.54,4.401 L 31.794,11.655 C 32.007,11.868 32.071,12.189 31.956,12.468 C 31.841,12.746 31.567,12.928 31.267,12.928 H 27.736 V 27.097 C 27.736,27.509 27.402,27.843 26.99,27.843 H 21.035 z" />
		<polygon
   style="fill:#70be46"
   id="polygon35"
   points="16.759,12.183 21.035,12.183 21.035,27.098 26.99,27.098 26.99,12.183 31.268,12.183 24.014,4.929 " />
		<linearGradient
   y2="16.167"
   x2="29.4688"
   y1="16.167"
   x1="18.558599"
   gradientUnits="userSpaceOnUse"
   id="SVGID_3_">
			<stop
   id="stop38"
   style="stop-color:#B0D68C"
   offset="0" />
			<stop
   id="stop40"
   style="stop-color:#219146"
   offset="1" />
		</linearGradient>
		<polygon
   style="fill:url(#linearGradient2991)"
   id="polygon42"
   points="18.559,11.438 24.014,5.983 29.469,11.438 26.246,11.438 26.246,26.352 21.781,26.352 21.781,11.438 " />
	</g></g></g>
</g></g>
<g
   id="g2880_3_"
   transform="matrix(0.81937363,0,0,0.80224629,0.30677264,11.800797)"><path
     id="path5812_12_"
     d="M 0,24.93 L 0.073,24.055 C 0.482,19.153 5.277,15.313 10.986,15.313 C 16.693,15.313 21.486,19.153 21.894,24.055 L 21.968,24.93 H 0 z"
     style="fill:#231f20" /><path
     id="path5814_12_"
     d="M 21.09,24.121 C 20.717,19.652 16.342,16.121 10.986,16.121 C 5.628,16.121 1.255,19.652 0.88,24.121 H 21.09 z"
     style="fill:#03addb" /><linearGradient
     id="linearGradient2942"
     gradientUnits="userSpaceOnUse"
     x1="562.44043"
     y1="-916.64062"
     x2="580.76862"
     y2="-916.64062"
     gradientTransform="matrix(1,0,0,-1,-560.6201,-896.5195)"><stop
       offset="0"
       style="stop-color:#B2D3DC"
       id="stop2944" /><stop
       offset="1"
       style="stop-color:#157DA0"
       id="stop2946" /></linearGradient><path
     id="path5823_12_"
     d="M 1.82,23.313 C 2.629,19.67 6.468,16.93 10.986,16.93 C 15.504,16.93 19.341,19.67 20.148,23.313 H 1.82 z"
     style="fill:url(#path5823_1_)" /><path
     id="path5827_10_"
     d="M 9.504,23.979 C 9.057,23.979 8.693,23.618 8.693,23.166 V 17.228 C 8.693,16.783 9.054,16.419 9.504,16.419 H 12.106 C 12.553,16.419 12.915,16.778 12.915,17.228 V 23.166 C 12.915,23.615 12.556,23.979 12.106,23.979 H 9.504 z"
     style="fill:#231f20" /><rect
     id="rect5829_10_"
     x="9.5039997"
     y="17.23"
     width="2.602"
     height="5.9380002"
     style="fill:#fba91f" /><rect
     id="rect5831_10_"
     x="9.0270004"
     y="19.136999"
     width="3.7119999"
     height="0.98400003"
     style="fill:#231f20" /><path
     id="path5835_15_"
     d="M 10.986,18.039 C 7.192,18.039 3.877,15.482 2.877,11.878 C 1.844,11.649 1.068,10.724 1.068,9.624 C 1.068,8.521 1.841,7.599 2.877,7.37 C 3.875,3.764 7.19,1.207 10.986,1.207 C 14.779,1.207 18.093,3.764 19.093,7.37 C 20.125,7.599 20.9,8.521 20.9,9.624 C 20.9,10.724 20.127,11.646 19.093,11.878 C 18.094,15.484 14.779,18.039 10.986,18.039 L 10.986,18.039 z"
     style="fill:#231f20" /><path
     id="path5837_15_"
     d="M 18.592,9.624 C 18.592,13.824 15.186,17.228 10.987,17.228 C 6.786,17.228 3.38,13.824 3.38,9.624 C 3.38,5.422 6.786,2.018 10.987,2.018 C 15.186,2.016 18.592,5.421 18.592,9.624 z"
     style="fill:#f0dbcb" /><circle
     id="circle5839_15_"
     cx="3.3789999"
     cy="9.6239996"
     r="1.5"
     d="M 4.8789999,9.6239996 C 4.8789999,10.452427 4.2074271,11.124 3.3789999,11.124 C 2.5505728,11.124 1.8789999,10.452427 1.8789999,9.6239996 C 1.8789999,8.7955725 2.5505728,8.1239996 3.3789999,8.1239996 C 4.2074271,8.1239996 4.8789999,8.7955725 4.8789999,9.6239996 z"
     sodipodi:cx="3.3789999"
     sodipodi:cy="9.6239996"
     sodipodi:rx="1.5"
     sodipodi:ry="1.5"
     style="fill:#f0dbcb" /><circle
     id="circle5841_15_"
     cx="18.591999"
     cy="9.6239996"
     r="1.5"
     d="M 20.091999,9.6239996 C 20.091999,10.452427 19.420426,11.124 18.591999,11.124 C 17.763572,11.124 17.091999,10.452427 17.091999,9.6239996 C 17.091999,8.7955725 17.763572,8.1239996 18.591999,8.1239996 C 19.420426,8.1239996 20.091999,8.7955725 20.091999,9.6239996 z"
     sodipodi:cx="18.591999"
     sodipodi:cy="9.6239996"
     sodipodi:rx="1.5"
     sodipodi:ry="1.5"
     style="fill:#f0dbcb" /><linearGradient
     id="linearGradient2956"
     gradientUnits="userSpaceOnUse"
     x1="564.80762"
     y1="-906.14258"
     x2="578.40143"
     y2="-906.14258"
     gradientTransform="matrix(1,0,0,-1,-560.6201,-896.5195)"><stop
       offset="0"
       style="stop-color:#E2B69D;stop-opacity:0"
       id="stop2958" /><stop
       offset="1"
       style="stop-color:#E2B69D"
       id="stop2960" /></linearGradient><path
     id="path5850_15_"
     d="M 10.986,16.42 C 7.236,16.42 4.187,13.37 4.187,9.624 C 4.187,5.875 7.237,2.826 10.986,2.826 C 14.732,2.826 17.781,5.876 17.781,9.624 C 17.781,13.37 14.732,16.42 10.986,16.42 L 10.986,16.42 z"
     style="fill:url(#path5850_1_)" /><path
     id="path5852_15_"
     d="M 3.539,8.184 C 3.473,8.95 3.641,10.456 3.786,11.2 C 3.778,10.266 3.642,8.744 4.08,7.924 C 4.69,6.779 11.195,8.143 13.631,3.225 C 13.531,4.659 13.301,5.974 17.295,8.871 C 17.502,9.019 18.414,11.336 18.353,11.525 C 18.29,10.924 18.609,9.418 18.605,8.787 C 18.592,7.476 18.463,6.626 18.064,6.033 C 17.609,5.361 16.447,4.08 15.863,3.509 C 13.869,1.555 10.759,1.131 8.139,2.083 C 6.781,2.574 5.895,3.665 4.965,4.568 C 4.592,4.931 2.547,7.767 3.356,8.001"
     style="fill:#231f20" /><path
     id="path5854_15_"
     d="M 13.172,1.816 C 13.172,1.211 13.172,0.605 13.168,0 C 13.734,1.509 14.092,1.695 15.262,0.863 C 14.853,1.771 14.816,2.093 14.816,2.093 C 15.441,1.814 15.392,1.739 16.078,1.784 C 15.75,1.929 15.17,2.33 14.879,2.54 C 14.879,2.648 14.598,2.423 14.58,2.533 C 13.746,2.001 14.371,2.15 13.354,1.908"
     style="fill:#231f20" /></g></svg>