<?xml version="1.0" encoding="UTF-8" standalone="no"?>
<!-- Generator: Adobe Illustrator 14.0.0, SVG Export Plug-In . SVG Version: 6.00 Build 43363)  -->

<svg
   xmlns:dc="http://purl.org/dc/elements/1.1/"
   xmlns:cc="http://creativecommons.org/ns#"
   xmlns:rdf="http://www.w3.org/1999/02/22-rdf-syntax-ns#"
   xmlns:svg="http://www.w3.org/2000/svg"
   xmlns="http://www.w3.org/2000/svg"
   xmlns:xlink="http://www.w3.org/1999/xlink"
   xmlns:sodipodi="http://sodipodi.sourceforge.net/DTD/sodipodi-0.dtd"
   xmlns:inkscape="http://www.inkscape.org/namespaces/inkscape"
   version="1.1"
   id="Layer_1"
   x="0px"
   y="0px"
   width="32px"
   height="32px"
   viewBox="0 0 32 32"
   enable-background="new 0 0 32 32"
   xml:space="preserve"
   inkscape:version="0.48.3.1 r9886"
   sodipodi:docname="zoomIn.svg"><metadata
   id="metadata82"><rdf:RDF><cc:Work
       rdf:about=""><dc:format>image/svg+xml</dc:format><dc:type
         rdf:resource="http://purl.org/dc/dcmitype/StillImage" /></cc:Work></rdf:RDF></metadata><defs
   id="defs80">
	
	
	
	
	
	
		<linearGradient
   gradientTransform="translate(-1126.1602,-1619.3594)"
   y2="1627.1094"
   x2="1145.624"
   y1="1627.1094"
   x1="1135.625"
   gradientUnits="userSpaceOnUse"
   id="path186_1_">
		<stop
   id="stop14"
   style="stop-color:#F5969A"
   offset="0" />
		<stop
   id="stop16"
   style="stop-color:#901C1E"
   offset="1" />
	</linearGradient>
	
	
	
	
		<linearGradient
   gradientTransform="translate(-1126.1602,-1619.3594)"
   y2="1643.3975"
   x2="1145.624"
   y1="1643.3975"
   x1="1135.625"
   gradientUnits="userSpaceOnUse"
   id="path186_2_">
		<stop
   id="stop22"
   style="stop-color:#B0D68C"
   offset="0" />
		<stop
   id="stop24"
   style="stop-color:#219146"
   offset="1" />
	</linearGradient>
	
	
	
	
		<linearGradient
   gradientTransform="matrix(0.7071,-0.7071,0.7071,0.7071,-2579.3472,-2639.4038)"
   y2="3720.5625"
   x2="-41.1719"
   y1="3720.5625"
   x1="-44.5981"
   gradientUnits="userSpaceOnUse"
   id="rect3806_1_">
		<stop
   id="stop30"
   style="stop-color:#5BCAEC"
   offset="0" />
		<stop
   id="stop32"
   style="stop-color:#0B7B94"
   offset="1" />
	</linearGradient>
	
	
		<linearGradient
   gradientTransform="matrix(0.7071,-0.7071,0.7071,0.7071,-2579.4517,-2639.5093)"
   y2="3727.3047"
   x2="-40.8568"
   y1="3727.3047"
   x1="-44.8535"
   gradientUnits="userSpaceOnUse"
   id="rect3809_1_">
		<stop
   id="stop36"
   style="stop-color:#A56829"
   offset="0" />
		<stop
   id="stop38"
   style="stop-color:#FBA91E"
   offset="0.5" />
		<stop
   id="stop40"
   style="stop-color:#FFF4E2"
   offset="1" />
	</linearGradient>
	
	
		
	
	
	
	
	
	
	
		<linearGradient
   gradientTransform="matrix(1,0,0,-1,-281.54,-371.8398)"
   y2="-392.7998"
   x2="301.4863"
   y1="-392.7998"
   x1="291.7559"
   gradientUnits="userSpaceOnUse"
   id="SVGID_1_">
		<stop
   id="stop54"
   style="stop-color:#B0D68C"
   offset="0" />
		<stop
   id="stop56"
   style="stop-color:#219146"
   offset="1" />
	</linearGradient>
	
	
	
		<linearGradient
   gradientTransform="matrix(1,0,0,-1,-281.54,-371.8398)"
   y2="-383.4219"
   x2="300.8633"
   y1="-383.4219"
   x1="292.3906"
   gradientUnits="userSpaceOnUse"
   id="SVGID_2_">
		<stop
   id="stop63"
   style="stop-color:#F5969A"
   offset="0" />
		<stop
   id="stop65"
   style="stop-color:#901C1E"
   offset="1" />
	</linearGradient>
	
	
		<radialGradient
   gradientUnits="userSpaceOnUse"
   gradientTransform="matrix(1.0901,0.4253,-0.5098,1.3173,-2374.9749,-1946.8116)"
   r="6.0441"
   cy="678.3242"
   cx="2507.9463"
   id="path3747_1_">
		<stop
   id="stop70"
   style="stop-color:#FFFFFF"
   offset="0" />
		<stop
   id="stop72"
   style="stop-color:#FFFFFF;stop-opacity:0.7866"
   offset="0.4706" />
		<stop
   id="stop74"
   style="stop-color:#FFFFFF;stop-opacity:0"
   offset="1" />
	</radialGradient>
	
	
<radialGradient
   inkscape:collect="always"
   xlink:href="#path3747_1_"
   id="radialGradient3084"
   gradientUnits="userSpaceOnUse"
   gradientTransform="matrix(1.7036223,0.66147803,-0.79672198,2.0488244,-3724.0738,-3041.3555)"
   cx="2507.9463"
   cy="678.3242"
   r="6.0441" /><linearGradient
   inkscape:collect="always"
   xlink:href="#rect3806_1_"
   id="linearGradient3102"
   gradientUnits="userSpaceOnUse"
   gradientTransform="matrix(0.97124782,-1.0011402,0.97124782,1.0011402,-3553.9034,-3749.7059)"
   x1="-44.5981"
   y1="3720.5625"
   x2="-41.1719"
   y2="3720.5625" /><linearGradient
   inkscape:collect="always"
   xlink:href="#SVGID_2_"
   id="linearGradient3119"
   gradientUnits="userSpaceOnUse"
   gradientTransform="matrix(1.3422442,0,0,-1.3480499,-388.30669,-512.66738)"
   x1="292.3906"
   y1="-383.4219"
   x2="300.8633"
   y2="-383.4219" /><linearGradient
   inkscape:collect="always"
   xlink:href="#rect3809_1_"
   id="linearGradient3121"
   gradientUnits="userSpaceOnUse"
   gradientTransform="matrix(0.7071,-0.7071,0.7071,0.7071,-2579.4517,-2639.5093)"
   x1="-44.8535"
   y1="3727.3047"
   x2="-40.8568"
   y2="3727.3047" /><linearGradient
   id="path4903-3_1_"
   gradientUnits="userSpaceOnUse"
   x1="-765.71881"
   y1="-1027.3315"
   x2="-745.46832"
   y2="-1027.3315"
   gradientTransform="matrix(0,-1,-1,0,-989.42299,-727.11987)"><stop
     offset="0"
     style="stop-color:#B2D78E"
     id="stop6" /><stop
     offset="1"
     style="stop-color:#1F9045"
     id="stop8" /></linearGradient><linearGradient
   inkscape:collect="always"
   xlink:href="#rect3806_1_"
   id="linearGradient3914"
   x1="37.750408"
   y1="18.642525"
   x2="37.660423"
   y2="38.57473"
   gradientUnits="userSpaceOnUse"
   gradientTransform="matrix(0.679577,0,0,0.60732315,-12.950477,-4.491235)" /></defs><sodipodi:namedview
   pagecolor="#ffffff"
   bordercolor="#666666"
   borderopacity="1"
   objecttolerance="10"
   gridtolerance="10"
   guidetolerance="10"
   inkscape:pageopacity="0"
   inkscape:pageshadow="2"
   inkscape:window-width="1021"
   inkscape:window-height="923"
   id="namedview78"
   showgrid="false"
   inkscape:zoom="14.75"
   inkscape:cx="18.274168"
   inkscape:cy="8.8066181"
   inkscape:window-x="0"
   inkscape:window-y="0"
   inkscape:window-maximized="0"
   inkscape:current-layer="Layer_1" />
<path
   style="fill:#030303"
   inkscape:connector-curvature="0"
   d="M 20.607758,23.706189 C 20.278043,24.035375 19.802383,24.167589 19.35105,24.070453 C 18.894311,23.970618 18.528107,23.641432 18.371357,23.202966 L 17.136269,19.703338 C 16.961952,19.210909 17.088974,18.663166 17.449771,18.301599 L 18.405141,17.34777 C 18.771342,16.983506 19.305107,16.860736 19.78752,17.023981 L 23.34279,18.20986 C 23.786018,18.356915 24.121138,18.726574 24.229243,19.182578 C 24.334643,19.635884 24.200866,20.114822 23.867095,20.448055 L 20.607758,23.706189 L 20.607758,23.706189 z"
   id="path4948_4_" /><path
   style="fill:#030303"
   inkscape:connector-curvature="0"
   d="M 28.675119,31.471188 C 28.25148,31.903891 27.568895,31.901688 27.14309,31.471188 L 19.852411,24.061294 C 19.648718,23.8543 19.532786,23.577944 19.534953,23.282868 C 19.537119,22.989997 19.648718,22.710337 19.852411,22.504446 L 22.543753,19.773904 C 22.967389,19.341204 23.649978,19.341204 24.075781,19.773904 L 31.366461,27.182698 C 31.570154,27.390791 31.686086,27.668248 31.683919,27.961122 C 31.683919,28.256197 31.571237,28.533656 31.366461,28.739547 L 28.675119,31.471188 z"
   id="path4951_4_" /><polygon
   style="fill:url(#linearGradient3121)"
   points="21.218,24.249 23.7,21.765 30.429,28.493 27.946,30.978 "
   id="rect3809_6_"
   transform="matrix(1.0834715,0,0,1.1010244,-2.3490043,-3.4378892)" /><rect
   style="fill:#fba91e"
   height="8.2127991"
   width="1.6537009"
   transform="matrix(0.70140242,-0.71276549,0.70140242,0.71276549,0,0)"
   y="32.122814"
   x="-0.5125556"
   id="rect4968_4_" /><path
   style="fill:#030303"
   inkscape:connector-curvature="0"
   d="M 21.486744,21.226415 C 19.158154,23.540734 16.059096,24.820762 12.763124,24.820762 C 5.9633245,24.820762 0.43252979,19.31648 0.43565541,12.55239 C 0.43565541,9.2784377 1.7140364,6.1895696 4.0426277,3.8736965 C 6.369656,1.5593789 9.4655884,0.27934968 12.761559,0.27934968 C 19.559797,0.28868151 25.090591,5.7914074 25.093716,12.55239 C 25.09528,15.827895 23.809086,18.912098 21.486744,21.226415 L 21.486744,21.226415 z"
   id="path4971_4_" /><path
   style="fill:#ffffff"
   inkscape:connector-curvature="0"
   d="M 23.538719,12.549278 C 23.541843,18.4595 18.715879,23.259219 12.770938,23.259219 C 6.8259969,23.259219 2.0031566,18.4595 2.0047196,12.549278 C 2.0031566,6.6312807 6.8259969,1.8346708 12.770938,1.8346708 C 18.719002,1.8346708 23.535593,6.6312807 23.538719,12.549278 z"
   id="path3707_8_" /><path
   style="fill:#ffffff"
   inkscape:connector-curvature="0"
   d="M 19.305059,18.996084 C 17.568773,20.724047 15.254246,21.679013 12.792818,21.679013 C 7.7152374,21.675902 3.586286,17.5683 3.586286,12.521283 C 3.5878489,10.077872 4.5427275,7.7728862 6.2805756,6.0449246 C 8.0199863,4.3154076 10.332949,3.3557746 12.792818,3.361996 C 17.870395,3.3651065 21.993096,7.4727088 21.996221,12.521283 C 21.999347,14.966247 21.044468,17.268122 19.305059,18.996084 L 19.305059,18.996084 z"
   id="path4980_4_" />
<path
   style="fill:#0000ff;stroke:#000000;stroke-width:0.64243501;stroke-opacity:1"
   inkscape:connector-curvature="0"
   id="rect4855-4"
   d="M 10.432615,6.120542 V 10.675466 H 5.3364675 V 14.926728 H 10.432615 V 19.481651 H 15.189655 V 14.926728 H 20.286482 V 10.675466 H 15.189655 V 6.120542 H 10.432615 z" /><path
   style="opacity:0.34000017;fill:#ffffff"
   inkscape:connector-curvature="0"
   d="M 23.580805,12.717875 C 23.583042,16.346914 16.892703,23.283334 12.640199,23.283334 C 8.3854596,23.283334 1.9341706,15.799368 1.9352892,12.170329 C 1.9341706,8.5365158 8.2275849,1.8366672 12.482324,1.8366672 C 16.737066,1.8366672 23.578568,9.0850163 23.580805,12.717875 z"
   enable-background="new    "
   id="path3707_7_"
   sodipodi:nodetypes="sscss" /><path
   style="fill:url(#linearGradient3914);fill-opacity:1.0;stroke:none"
   inkscape:connector-curvature="0"
   id="path4903-3"
   d="M 11.027246,6.6519503 V 11.206873 H 5.9310974 V 14.395319 H 11.027246 V 18.950243 H 14.595025 V 14.395319 H 19.691852 V 11.206873 H 14.595025 V 6.6519503 H 11.027246 z" /></svg>