<?xml version="1.0" encoding="UTF-8" standalone="no"?>
<!-- Generator: Adobe Illustrator 14.0.0, SVG Export Plug-In . SVG Version: 6.00 Build 43363)  -->

<svg
   xmlns:dc="http://purl.org/dc/elements/1.1/"
   xmlns:cc="http://creativecommons.org/ns#"
   xmlns:rdf="http://www.w3.org/1999/02/22-rdf-syntax-ns#"
   xmlns:svg="http://www.w3.org/2000/svg"
   xmlns="http://www.w3.org/2000/svg"
   xmlns:xlink="http://www.w3.org/1999/xlink"
   xmlns:sodipodi="http://sodipodi.sourceforge.net/DTD/sodipodi-0.dtd"
   xmlns:inkscape="http://www.inkscape.org/namespaces/inkscape"
   version="1.1"
   id="Layer_1"
   x="0px"
   y="0px"
   width="32px"
   height="32px"
   viewBox="0 0 32 32"
   enable-background="new 0 0 32 32"
   xml:space="preserve"
   inkscape:version="0.48.3.1 r9886"
   sodipodi:docname="zoom2Fit.svg"><metadata
   id="metadata53"><rdf:RDF><cc:Work
       rdf:about=""><dc:format>image/svg+xml</dc:format><dc:type
         rdf:resource="http://purl.org/dc/dcmitype/StillImage" /></cc:Work></rdf:RDF></metadata><defs
   id="defs51"><linearGradient
     inkscape:collect="always"
     xlink:href="#linearGradient4010-0"
     id="linearGradient4016-9"
     x1="26.152353"
     y1="63.407455"
     x2="6.1311665"
     y2="63.407459"
     gradientUnits="userSpaceOnUse"
     gradientTransform="matrix(0.63100415,0,0,0.56563756,2.5263468,-23.081528)" /><linearGradient
     inkscape:collect="always"
     id="linearGradient4010-0"><stop
       style="stop-color:#0000ff;stop-opacity:1;"
       offset="0"
       id="stop4012-4" /><stop
       style="stop-color:#0000ff;stop-opacity:0;"
       offset="1"
       id="stop4014-9" /></linearGradient><linearGradient
     inkscape:collect="always"
     xlink:href="#rect3809_1_-4"
     id="linearGradient3121-4"
     gradientUnits="userSpaceOnUse"
     gradientTransform="matrix(0.7071,-0.7071,0.7071,0.7071,-2579.4517,-2639.5093)"
     x1="-44.8535"
     y1="3727.3047"
     x2="-40.8568"
     y2="3727.3047" /><linearGradient
     gradientTransform="matrix(0.7071,-0.7071,0.7071,0.7071,-2579.4517,-2639.5093)"
     y2="3727.3047"
     x2="-40.8568"
     y1="3727.3047"
     x1="-44.8535"
     gradientUnits="userSpaceOnUse"
     id="rect3809_1_-4"><stop
       id="stop36-6"
       style="stop-color:#A56829"
       offset="0" /><stop
       id="stop38-8"
       style="stop-color:#FBA91E"
       offset="0.5" /><stop
       id="stop40-7"
       style="stop-color:#FFF4E2"
       offset="1" /></linearGradient></defs><sodipodi:namedview
   pagecolor="#ffffff"
   bordercolor="#666666"
   borderopacity="1"
   objecttolerance="10"
   gridtolerance="10"
   guidetolerance="10"
   inkscape:pageopacity="0"
   inkscape:pageshadow="2"
   inkscape:window-width="1000"
   inkscape:window-height="856"
   id="namedview49"
   showgrid="false"
   inkscape:zoom="10.429825"
   inkscape:cx="-13.175756"
   inkscape:cy="19.748742"
   inkscape:window-x="117"
   inkscape:window-y="492"
   inkscape:window-maximized="0"
   inkscape:current-layer="Layer_1" />











<linearGradient
   id="rect3806_1_"
   gradientUnits="userSpaceOnUse"
   x1="139.8555"
   y1="2698.291"
   x2="143.4023"
   y2="2698.291"
   gradientTransform="matrix(0.7071 -0.7071 0.7071 0.7071 -1986.7445 -1786.4482)">
	<stop
   offset="0"
   style="stop-color:#5AC9EC"
   id="stop19" />
	<stop
   offset="1"
   style="stop-color:#077A93"
   id="stop21" />
</linearGradient>

<linearGradient
   id="rect3809_1_"
   gradientUnits="userSpaceOnUse"
   x1="143.4951"
   y1="2705.2666"
   x2="139.3541"
   y2="2705.2666"
   gradientTransform="matrix(0.7071 -0.7071 0.7071 0.7071 -1986.849 -1786.5537)">
	<stop
   offset="0"
   style="stop-color:#A46829"
   id="stop25" />
	<stop
   offset="0.5"
   style="stop-color:#FAA81D"
   id="stop27" />
	<stop
   offset="1"
   style="stop-color:#FFF3E2"
   id="stop29" />
</linearGradient>




<linearGradient
   id="path4980_1_"
   gradientUnits="userSpaceOnUse"
   x1="498.1758"
   y1="1405.8145"
   x2="510.3643"
   y2="1405.8145"
   gradientTransform="matrix(0.7071 -0.7071 0.7071 0.7071 -1334.433 -621.3325)">
	<stop
   offset="0"
   style="stop-color:#B0D0DA"
   id="stop36" />
	<stop
   offset="1"
   style="stop-color:#147D9E"
   id="stop38" />
</linearGradient>

<radialGradient
   id="path3747_1_"
   cx="1772.2803"
   cy="267.8193"
   r="6.2613"
   gradientTransform="matrix(1.0901 0.4253 -0.5098 1.3173 -1782.3715 -1093.8546)"
   gradientUnits="userSpaceOnUse">
	<stop
   offset="0"
   style="stop-color:#FFFFFF"
   id="stop42" />
	<stop
   offset="0.4706"
   style="stop-color:#FFFFFF;stop-opacity:0.7866"
   id="stop44" />
	<stop
   offset="1"
   style="stop-color:#FFFFFF;stop-opacity:0"
   id="stop46" />
</radialGradient>

<path
   style="fill:#030303"
   inkscape:connector-curvature="0"
   d="M 20.819144,23.669069 C 20.489429,23.998255 20.013769,24.130469 19.562436,24.033333 C 19.105697,23.933498 18.739493,23.604312 18.582743,23.165846 L 17.347655,19.666218 C 17.173338,19.173789 17.30036,18.626046 17.661157,18.264479 L 18.616527,17.31065 C 18.982728,16.946386 19.516493,16.823616 19.998906,16.986861 L 23.554176,18.17274 C 23.997404,18.319795 24.332524,18.689454 24.440629,19.145458 C 24.546029,19.598764 24.412252,20.077702 24.078481,20.410935 L 20.819144,23.669069 L 20.819144,23.669069 z"
   id="path4948_4_" /><path
   style="fill:#030303"
   inkscape:connector-curvature="0"
   d="M 28.886505,31.434068 C 28.462866,31.866771 27.780281,31.864568 27.354476,31.434068 L 20.063797,24.024174 C 19.860104,23.81718 19.744172,23.540824 19.746339,23.245748 C 19.748505,22.952877 19.860104,22.673217 20.063797,22.467326 L 22.755139,19.736784 C 23.178775,19.304084 23.861364,19.304084 24.287167,19.736784 L 31.577847,27.145578 C 31.78154,27.353671 31.897472,27.631128 31.895305,27.924002 C 31.895305,28.219077 31.782623,28.496536 31.577847,28.702427 L 28.886505,31.434068 z"
   id="path4951_4_" /><polygon
   style="fill:url(#linearGradient3121-4)"
   points="21.218,24.249 23.7,21.765 30.429,28.493 27.946,30.978 "
   id="rect3809_6_"
   transform="matrix(1.0834715,0,0,1.1010244,-2.1376202,-3.4750092)" /><rect
   style="fill:#fba91e"
   height="8.2127991"
   width="1.6537009"
   transform="matrix(0.70140242,-0.71276549,0.70140242,0.71276549,0,0)"
   y="32.247463"
   x="-0.33582914"
   id="rect4968_4_" /><path
   style="fill:#030303"
   inkscape:connector-curvature="0"
   d="M 21.69813,21.189295 C 19.36954,23.503614 16.270482,24.783642 12.97451,24.783642 C 6.1747088,24.783642 0.64391378,19.27936 0.64703978,12.51527 C 0.64703978,9.2413178 1.9254208,6.1524498 4.2540118,3.8365768 C 6.5810408,1.5222598 9.6769728,0.24222983 12.972945,0.24222983 C 19.771183,0.25156183 25.301977,5.7542878 25.305102,12.51527 C 25.306666,15.790775 24.020472,18.874978 21.69813,21.189295 L 21.69813,21.189295 z"
   id="path4971_4_" /><path
   style="fill:#ffffff"
   inkscape:connector-curvature="0"
   d="M 23.750105,12.512158 C 23.753229,18.42238 18.927265,23.222099 12.982324,23.222099 C 7.0373808,23.222099 2.2145408,18.42238 2.2161038,12.512158 C 2.2145408,6.5941608 7.0373808,1.7975508 12.982324,1.7975508 C 18.930388,1.7975508 23.746979,6.5941608 23.750105,12.512158 z"
   id="path3707_8_" /><path
   style="fill:#ffffff"
   inkscape:connector-curvature="0"
   d="M 19.516445,18.958964 C 17.780159,20.686927 15.465632,21.641893 13.004204,21.641893 C 7.9266218,21.638782 3.7976708,17.53118 3.7976708,12.484163 C 3.7992328,10.040752 4.7541118,7.7357668 6.4919598,6.0078048 C 8.2313708,4.2782878 10.544335,3.3186548 13.004204,3.3248768 C 18.081781,3.3279868 22.204482,7.4355888 22.207607,12.484163 C 22.210733,14.929127 21.255854,17.231002 19.516445,18.958964 L 19.516445,18.958964 z"
   id="path4980_4_" /><rect
   style="fill:#ffffff;fill-opacity:1;fill-rule:evenodd;stroke:#000000;stroke-width:0.7;stroke-linecap:round;stroke-miterlimit:1;stroke-opacity:1;stroke-dasharray:none;stroke-dashoffset:0.80600000999999999"
   id="rect3073"
   width="11.279858"
   height="14.731496"
   x="7.5913577"
   y="5.0749598" /><rect
   x="8.2650642"
   y="8.3358707"
   width="10.067463"
   height="0.36121553"
   id="rect6"
   style="fill:#808283;stroke-width:0.7;stroke-miterlimit:1;stroke-dasharray:none" /><rect
   x="8.2650642"
   y="10.305703"
   width="10.067463"
   height="0.36121553"
   id="rect6-7"
   style="fill:#808283;stroke-width:0.7;stroke-miterlimit:1;stroke-dasharray:none" /><rect
   x="8.2650642"
   y="12.275536"
   width="10.067463"
   height="0.36121553"
   id="rect6-4"
   style="fill:#808283;stroke-width:0.7;stroke-miterlimit:1;stroke-dasharray:none" /><rect
   x="8.2650642"
   y="14.245368"
   width="10.067463"
   height="0.36121553"
   id="rect6-8"
   style="fill:#808283;stroke-width:0.7;stroke-miterlimit:1;stroke-dasharray:none" /><rect
   x="8.2650642"
   y="6.3660383"
   width="10.067463"
   height="0.36121553"
   id="rect6-3"
   style="fill:#808283;stroke-width:0.7;stroke-miterlimit:1;stroke-dasharray:none" /><rect
   x="8.2650642"
   y="16.2152"
   width="10.067463"
   height="0.36121553"
   id="rect6-8-2"
   style="fill:#808283;stroke-width:0.7;stroke-miterlimit:1;stroke-dasharray:none" /><rect
   x="8.2650642"
   y="18.185032"
   width="10.067463"
   height="0.36121553"
   id="rect6-8-2-3"
   style="fill:#808283;stroke-width:0.7;stroke-miterlimit:1;stroke-dasharray:none" /></svg>