<?xml version="1.0" encoding="utf-8"?>
<!-- Generator: Adobe Illustrator 14.0.0, SVG Export Plug-In . SVG Version: 6.00 Build 43363)  -->
<!DOCTYPE svg PUBLIC "-//W3C//DTD SVG 1.1//EN" "http://www.w3.org/Graphics/SVG/1.1/DTD/svg11.dtd">
<svg version="1.1"
	 id="svg2" xmlns:rdf="http://www.w3.org/1999/02/22-rdf-syntax-ns#" xmlns:svg="http://www.w3.org/2000/svg" xmlns:dc="http://purl.org/dc/elements/1.1/" xmlns:sodipodi="http://sodipodi.sourceforge.net/DTD/sodipodi-0.dtd" xmlns:ns="http://creativecommons.org/ns#" xmlns:cc="http://web.resource.org/cc/" xmlns:inkscape="http://www.inkscape.org/namespaces/inkscape" inkscape:version="0.45.1" sodipodi:docbase="C:\Radix\dev\trunk\org.radixware\kernel\designer\src\common.resources\src\org\radixware\kernel\designer\resources\icons\ads" sodipodi:docname="access_area.svg" sodipodi:version="0.32" inkscape:output_extension="org.inkscape.output.svg.inkscape"
	 xmlns="http://www.w3.org/2000/svg" xmlns:xlink="http://www.w3.org/1999/xlink" x="0px" y="0px" width="32px" height="32px"
	 viewBox="0 0 32 32" enable-background="new 0 0 32 32" xml:space="preserve">
<sodipodi:namedview  height="48px" width="48px" id="base" pagecolor="#ffffff" bordercolor="#000000" borderopacity="1.0" showgrid="false" inkscape:zoom="6.0072935" inkscape:cx="-13.987735" inkscape:cy="-5.5834246" inkscape:pageshadow="2" inkscape:window-width="1280" inkscape:window-height="944" inkscape:window-x="0" inkscape:window-y="23" inkscape:current-layer="layer1" inkscape:pageopacity="0.0" inkscape:document-units="px">
	</sodipodi:namedview>
<g>
	<path id="path4625" fill="none" stroke="#000000" stroke-width="0.9637" d="M1.666,2.267V32"/>
	<path id="path4679" fill="none" stroke="#000000" stroke-width="0.9497" d="M28.877,30.074H0"/>
	<path id="path4685" sodipodi:nodetypes="ccccc" stroke="#000000" stroke-width="0.5" stroke-linecap="square" d="M2.83,4.445
		L1.666,4.328L0.441,4.387l1.225-3.81L2.83,4.445z"/>
	<path id="path5458" sodipodi:nodetypes="ccccc" stroke="#000000" stroke-width="0.5" stroke-linecap="square" d="M27.569,31.345
		l0.118-1.165l-0.059-1.224l3.809,1.224L27.569,31.345z"/>
</g>
<g>
	<path d="M4.563,24.167c-0.5,0-0.909-0.415-0.909-0.924V0.823c0-0.512,0.409-0.927,0.909-0.927h25.965
		c0.502,0,0.909,0.415,0.909,0.927v22.42c0,0.509-0.407,0.924-0.909,0.924H4.563L4.563,24.167z"/>
	<rect x="4.563" y="0.823" fill="#DAEBF1" width="25.965" height="22.42"/>
	
		<linearGradient id="SVGID_1_" gradientUnits="userSpaceOnUse" x1="565.1836" y1="-901.4585" x2="591.1484" y2="-901.4585" gradientTransform="matrix(1 0 0 -1 -560.6201 -897.5195)">
		<stop  offset="0" style="stop-color:#B0D68C"/>
		<stop  offset="1" style="stop-color:#1E9046"/>
	</linearGradient>
	<rect x="4.563" y="0.823" fill="url(#SVGID_1_)" width="25.965" height="6.231"/>
	<line fill="none" stroke="#000000" x1="4.563" y1="7.055" x2="30.528" y2="7.055"/>
	<linearGradient id="rect5534_1_" gradientUnits="userSpaceOnUse" x1="30.4863" y1="15.1929" x2="4.5633" y2="15.1929">
		<stop  offset="0" style="stop-color:#B1D2DB"/>
		<stop  offset="1" style="stop-color:#0B7C9E"/>
	</linearGradient>
	<rect id="rect5534" x="4.563" y="11.973" opacity="0.56" fill="url(#rect5534_1_)" width="25.965" height="6.44"/>
	<line fill="none" stroke="#000000" x1="4.563" y1="12.385" x2="30.528" y2="12.385"/>
	<line fill="none" stroke="#000000" x1="4.563" y1="18.243" x2="30.528" y2="18.243"/>
	<line fill="none" stroke="#000000" x1="12.954" y1="7.068" x2="12.954" y2="23.257"/>
	<line fill="none" stroke="#000000" x1="22.194" y1="7.099" x2="22.194" y2="23.285"/>
</g>
<g>
	<path d="M23.007,27.652c-0.449,0-0.813-0.363-0.813-0.813V7.426c0-0.449,0.363-0.813,0.813-0.813h7.603
		c0.449,0,0.813,0.363,0.813,0.813V26.84c0,0.449-0.363,0.813-0.813,0.813H23.007z"/>
	<g id="g5556" transform="translate(-54.619364,45.343438)">
		
			<path id="path5558" sodipodi:cy="5.6922517" sodipodi:ry="3.5900953" sodipodi:rx="3.5900953" sodipodi:cx="-4.2374897" sodipodi:type="arc" fill="#ED2526" d="
			M84.345-35.013c0,1.611-1.306,2.917-2.918,2.917c-1.61,0-2.916-1.306-2.916-2.917c0-1.61,1.306-2.916,2.916-2.916
			C83.039-37.929,84.345-36.624,84.345-35.013z"/>
		
			<path id="path5560" sodipodi:cy="5.6922517" sodipodi:ry="3.5900953" sodipodi:rx="3.5900953" sodipodi:cx="-4.2374897" sodipodi:type="arc" fill="#ED2526" d="
			M84.345-35.013c0,1.611-1.306,2.917-2.918,2.917c-1.61,0-2.916-1.306-2.916-2.917c0-1.61,1.306-2.916,2.916-2.916
			C83.039-37.929,84.345-36.624,84.345-35.013z"/>
	</g>
	<g id="g5562" transform="translate(-54.619364,45.343438)">
		
			<path id="path5564" sodipodi:cy="5.6922517" sodipodi:ry="3.5900953" sodipodi:rx="3.5900953" sodipodi:cx="-4.2374897" sodipodi:type="arc" fill="#F9A620" d="
			M84.345-28.258c0,1.61-1.306,2.917-2.918,2.917c-1.61,0-2.916-1.307-2.916-2.917s1.306-2.917,2.916-2.917
			C83.039-31.175,84.345-29.869,84.345-28.258z"/>
		
			<path id="path5566" sodipodi:cy="5.6922517" sodipodi:ry="3.5900953" sodipodi:rx="3.5900953" sodipodi:cx="-4.2374897" sodipodi:type="arc" fill="#F9A620" d="
			M84.345-28.258c0,1.61-1.306,2.917-2.918,2.917c-1.61,0-2.916-1.307-2.916-2.917s1.306-2.917,2.916-2.917
			C83.039-31.175,84.345-29.869,84.345-28.258z"/>
	</g>
	<g id="g5568" transform="translate(-54.619364,45.343438)">
		
			<path id="path5570" sodipodi:cy="5.6922517" sodipodi:ry="3.5900953" sodipodi:rx="3.5900953" sodipodi:cx="-4.2374897" sodipodi:type="arc" fill="#6EBD46" d="
			M84.345-21.438c0,1.611-1.306,2.917-2.918,2.917c-1.61,0-2.916-1.306-2.916-2.917c0-1.61,1.306-2.916,2.916-2.916
			C83.039-24.354,84.345-23.049,84.345-21.438z"/>
		
			<path id="path5572" sodipodi:cy="5.6922517" sodipodi:ry="3.5900953" sodipodi:rx="3.5900953" sodipodi:cx="-4.2374897" sodipodi:type="arc" fill="#6EBD46" d="
			M84.345-21.438c0,1.611-1.306,2.917-2.918,2.917c-1.61,0-2.916-1.306-2.916-2.917c0-1.61,1.306-2.916,2.916-2.916
			C83.039-24.354,84.345-23.049,84.345-21.438z"/>
	</g>
</g>
</svg>
