<?xml version="1.0" encoding="utf-8"?>
<!-- Generator: Adobe Illustrator 14.0.0, SVG Export Plug-In . SVG Version: 6.00 Build 43363)  -->
<!DOCTYPE svg PUBLIC "-//W3C//DTD SVG 1.1//EN" "http://www.w3.org/Graphics/SVG/1.1/DTD/svg11.dtd">
<svg version="1.1"
	 id="svg2" xmlns:rdf="http://www.w3.org/1999/02/22-rdf-syntax-ns#" xmlns:svg="http://www.w3.org/2000/svg" xmlns:dc="http://purl.org/dc/elements/1.1/" xmlns:sodipodi="http://sodipodi.sourceforge.net/DTD/sodipodi-0.dtd" xmlns:ns="http://creativecommons.org/ns#" xmlns:cc="http://web.resource.org/cc/" xmlns:inkscape="http://www.inkscape.org/namespaces/inkscape" inkscape:version="0.45.1" sodipodi:docbase="C:\Radix\dev\trunk\org.radixware\kernel\designer\src\common.resources\src\org\radixware\kernel\designer\resources\icons\ads" sodipodi:docname="access_partition.svg" sodipodi:version="0.32" inkscape:output_extension="org.inkscape.output.svg.inkscape"
	 xmlns="http://www.w3.org/2000/svg" xmlns:xlink="http://www.w3.org/1999/xlink" x="0px" y="0px" width="32px" height="32px"
	 viewBox="0 0 32 32" enable-background="new 0 0 32 32" xml:space="preserve">
<sodipodi:namedview  height="48px" width="48px" id="base" pagecolor="#ffffff" bordercolor="#000000" borderopacity="1.0" showgrid="false" inkscape:zoom="6.0072935" inkscape:cx="-13.987735" inkscape:cy="-5.5834246" inkscape:pageshadow="2" inkscape:window-width="1280" inkscape:window-height="944" inkscape:window-x="0" inkscape:window-y="44" inkscape:current-layer="layer1" inkscape:pageopacity="0.0" inkscape:document-units="px">
	</sodipodi:namedview>
<g>
	<path d="M0.981,25.76C0.441,25.76,0,25.318,0,24.777V0.984C0,0.442,0.441,0,0.981,0h28.037C29.561,0,30,0.439,30,0.984v23.793
		c0,0.541-0.439,0.982-0.981,0.982H0.981L0.981,25.76z"/>
	<rect x="0.981" y="0.984" fill="#DAEBF1" width="28.037" height="23.793"/>
	
		<linearGradient id="SVGID_1_" gradientUnits="userSpaceOnUse" x1="561.6016" y1="-901.8105" x2="589.6387" y2="-901.8105" gradientTransform="matrix(1 0 0 -1 -560.6201 -897.5195)">
		<stop  offset="0" style="stop-color:#B0D68C"/>
		<stop  offset="1" style="stop-color:#1E9046"/>
	</linearGradient>
	<rect x="0.981" y="0.984" fill="url(#SVGID_1_)" width="28.037" height="6.614"/>
	<line fill="none" stroke="#000000" x1="0.981" y1="7.598" x2="29.019" y2="7.598"/>
	<linearGradient id="rect5534_1_" gradientUnits="userSpaceOnUse" x1="28.9736" y1="16.2349" x2="0.9817" y2="16.2349">
		<stop  offset="0" style="stop-color:#B1D2DB"/>
		<stop  offset="1" style="stop-color:#0B7C9E"/>
	</linearGradient>
	<rect id="rect5534" x="0.981" y="12.817" opacity="0.56" fill="url(#rect5534_1_)" width="28.037" height="6.835"/>
	<line fill="none" stroke="#000000" x1="0.981" y1="13.255" x2="29.019" y2="13.255"/>
	<line fill="none" stroke="#000000" x1="0.981" y1="19.473" x2="29.019" y2="19.473"/>
	<line fill="none" stroke="#000000" x1="10.042" y1="7.612" x2="10.042" y2="24.793"/>
	<line fill="none" stroke="#000000" x1="20.021" y1="7.645" x2="20.021" y2="24.824"/>
</g>
<g>
	<path d="M21.643,32c-0.553,0-1-0.447-1-1V7.105c0-0.553,0.447-1,1-1H31c0.553,0,1,0.447,1,1V31c0,0.553-0.447,1-1,1H21.643z"/>
	<g id="g5556" transform="translate(-54.619364,45.343438)">
		
			<path id="path5558" sodipodi:cy="5.6922517" sodipodi:ry="3.5900953" sodipodi:rx="3.5900953" sodipodi:cx="-4.2374897" sodipodi:type="arc" fill="#ED2526" d="
			M84.531-34.663c0,1.982-1.607,3.59-3.591,3.59c-1.982,0-3.59-1.607-3.59-3.59s1.607-3.59,3.59-3.59
			C82.924-38.253,84.531-36.645,84.531-34.663z"/>
		
			<path id="path5560" sodipodi:cy="5.6922517" sodipodi:ry="3.5900953" sodipodi:rx="3.5900953" sodipodi:cx="-4.2374897" sodipodi:type="arc" fill="#ED2526" d="
			M84.531-34.663c0,1.982-1.607,3.59-3.591,3.59c-1.982,0-3.59-1.607-3.59-3.59s1.607-3.59,3.59-3.59
			C82.924-38.253,84.531-36.645,84.531-34.663z"/>
	</g>
	<g id="g5562" transform="translate(-54.619364,45.343438)">
		
			<path id="path5564" sodipodi:cy="5.6922517" sodipodi:ry="3.5900953" sodipodi:rx="3.5900953" sodipodi:cx="-4.2374897" sodipodi:type="arc" fill="#F9A620" d="
			M84.531-26.349c0,1.982-1.607,3.59-3.591,3.59c-1.982,0-3.59-1.607-3.59-3.59s1.607-3.59,3.59-3.59
			C82.924-29.939,84.531-28.332,84.531-26.349z"/>
		
			<path id="path5566" sodipodi:cy="5.6922517" sodipodi:ry="3.5900953" sodipodi:rx="3.5900953" sodipodi:cx="-4.2374897" sodipodi:type="arc" fill="#F9A620" d="
			M84.531-26.349c0,1.982-1.607,3.59-3.591,3.59c-1.982,0-3.59-1.607-3.59-3.59s1.607-3.59,3.59-3.59
			C82.924-29.939,84.531-28.332,84.531-26.349z"/>
	</g>
	<g id="g5568" transform="translate(-54.619364,45.343438)">
		
			<path id="path5570" sodipodi:cy="5.6922517" sodipodi:ry="3.5900953" sodipodi:rx="3.5900953" sodipodi:cx="-4.2374897" sodipodi:type="arc" fill="#6EBD46" d="
			M84.531-17.955c0,1.982-1.607,3.59-3.591,3.59c-1.982,0-3.59-1.607-3.59-3.59s1.607-3.59,3.59-3.59
			C82.924-21.545,84.531-19.937,84.531-17.955z"/>
		
			<path id="path5572" sodipodi:cy="5.6922517" sodipodi:ry="3.5900953" sodipodi:rx="3.5900953" sodipodi:cx="-4.2374897" sodipodi:type="arc" fill="#6EBD46" d="
			M84.531-17.955c0,1.982-1.607,3.59-3.591,3.59c-1.982,0-3.59-1.607-3.59-3.59s1.607-3.59,3.59-3.59
			C82.924-21.545,84.531-19.937,84.531-17.955z"/>
	</g>
</g>
</svg>
