<?xml version="1.0" encoding="utf-8"?>
<!-- Generator: Adobe Illustrator 14.0.0, SVG Export Plug-In . SVG Version: 6.00 Build 43363)  -->
<!DOCTYPE svg PUBLIC "-//W3C//DTD SVG 1.1//EN" "http://www.w3.org/Graphics/SVG/1.1/DTD/svg11.dtd">
<svg version="1.1"
	 id="svg2" sodipodi:docbase="C:\Radix\dev\trunk\org.radixware\kernel\designer\src\common.resources\src\org\radixware\kernel\designer\resources\icons\ads" sodipodi:docname="class_catalog.svg" inkscape:version="0.45.1" sodipodi:version="0.32" inkscape:output_extension="org.inkscape.output.svg.inkscape" xmlns:ns="http://creativecommons.org/ns#" xmlns:dc="http://purl.org/dc/elements/1.1/" xmlns:cc="http://web.resource.org/cc/" xmlns:rdf="http://www.w3.org/1999/02/22-rdf-syntax-ns#" xmlns:svg="http://www.w3.org/2000/svg" xmlns:sodipodi="http://sodipodi.sourceforge.net/DTD/sodipodi-0.dtd" xmlns:inkscape="http://www.inkscape.org/namespaces/inkscape"
	 xmlns="http://www.w3.org/2000/svg" xmlns:xlink="http://www.w3.org/1999/xlink" x="0px" y="0px" width="32px" height="32px"
	 viewBox="0 0 32 32" enable-background="new 0 0 32 32" xml:space="preserve">
<sodipodi:namedview  id="base" pagecolor="#ffffff" bordercolor="#000000" borderopacity="1.0" showgrid="true" inkscape:zoom="12.216255" inkscape:cx="26.048466" inkscape:cy="7.8684641" inkscape:current-layer="layer3" inkscape:pageopacity="0.0" inkscape:pageshadow="2" inkscape:window-width="1280" inkscape:window-height="944" inkscape:window-x="-8" inkscape:window-y="-8" inkscape:document-units="px">
	</sodipodi:namedview>
<path id="path5_7_" fill="#231F20" d="M31.756,17.524c-0.363-0.629-1.072-0.989-1.947-0.989h-5.365v-0.486
	c0-1.711-1.394-3.104-3.104-3.104h-9.043l-0.118-0.219c-0.431-0.81-1.02-1.914-2.521-1.914H6.628c-1.542,0-2.146,1.119-2.668,2.089
	l-0.022,0.043H3.104C1.393,12.944,0,14.338,0,16.049v12.82C0,30.596,1.393,32,3.104,32H3.43h17.908h0.674
	c1.43,0,3.047-0.932,3.764-2.168l5.863-10.126C32.075,18.948,32.118,18.153,31.756,17.524z"/>
<path id="rect5504_5_" fill="#A36A29" d="M6.628,11.813c-0.974,0-1.329,0.715-1.791,1.57l-0.31,0.562H3.104
	C1.934,13.944,1,14.877,1,16.049v12.82C1,30.041,1.934,31,3.104,31h18.234c1.171,0,2.104-0.959,2.104-2.131v-12.82
	c0-1.172-0.933-2.104-2.104-2.104h-9.635l-0.309-0.561c-0.463-0.856-0.767-1.571-1.738-1.571H8.814H7.471L6.628,11.813L6.628,11.813
	z"/>
<path d="M9.649,3.932c4.399,0,7.965,3.567,7.965,7.966c0,4.401-3.565,7.967-7.965,7.967c-4.402,0-7.967-3.566-7.967-7.967
	C1.683,7.5,5.247,3.932,9.649,3.932z"/>
<radialGradient id="SVGID_1_" cx="8.5229" cy="-99.5723" r="9.218" fx="7.0952" fy="-99.4003" gradientTransform="matrix(1 0 0 -1 2.46 -88.8398)" gradientUnits="userSpaceOnUse">
	<stop  offset="0" style="stop-color:#FFFFFF"/>
	<stop  offset="0.2182" style="stop-color:#F59699"/>
	<stop  offset="0.7818" style="stop-color:#7A272A"/>
	<stop  offset="1" style="stop-color:#AB373A"/>
</radialGradient>
<path fill="url(#SVGID_1_)" d="M9.649,18.869c-3.846,0-6.972-3.127-6.972-6.971c0-3.842,3.126-6.969,6.972-6.969
	c3.843,0,6.971,3.127,6.971,6.969C16.62,15.742,13.492,18.869,9.649,18.869L9.649,18.869z"/>
<path d="M22.154,0c4.399,0,7.965,3.567,7.965,7.966c0,4.399-3.565,7.966-7.965,7.966c-4.402,0-7.967-3.567-7.967-7.966
	C14.188,3.567,17.752,0,22.154,0z"/>
<radialGradient id="SVGID_2_" cx="22.0264" cy="-94.4736" r="11.4255" gradientTransform="matrix(1 0 0 -1 2.46 -88.8398)" gradientUnits="userSpaceOnUse">
	<stop  offset="0" style="stop-color:#FFFFFF"/>
	<stop  offset="0.2061" style="stop-color:#B0D68C"/>
	<stop  offset="0.7879" style="stop-color:#276938"/>
	<stop  offset="1" style="stop-color:#1E9046"/>
</radialGradient>
<path fill="url(#SVGID_2_)" d="M22.154,14.938c-3.846,0-6.972-3.128-6.972-6.971c0-3.843,3.126-6.97,6.972-6.97
	c3.843,0,6.971,3.127,6.971,6.97C29.125,11.81,25.997,14.938,22.154,14.938L22.154,14.938z"/>
<path d="M16.621,9.23c4.399,0,7.965,3.567,7.965,7.965c0,4.4-3.565,7.967-7.965,7.967c-4.402,0-7.967-3.566-7.967-7.967
	C8.654,12.797,12.219,9.23,16.621,9.23z"/>
<radialGradient id="SVGID_3_" cx="16.3267" cy="-104.0371" r="9.5045" gradientTransform="matrix(1 0 0 -1 2.46 -88.8398)" gradientUnits="userSpaceOnUse">
	<stop  offset="0" style="stop-color:#FFFFFF"/>
	<stop  offset="0.1879" style="stop-color:#B1D2DB"/>
	<stop  offset="0.7758" style="stop-color:#1F5D70"/>
	<stop  offset="1" style="stop-color:#0B7C9E"/>
</radialGradient>
<path fill="url(#SVGID_3_)" d="M16.621,24.168c-3.846,0-6.972-3.129-6.972-6.973c0-3.841,3.126-6.969,6.972-6.969
	c3.843,0,6.971,3.127,6.971,6.969C23.592,21.039,20.464,24.168,16.621,24.168L16.621,24.168z"/>
<path d="M3.432,32c-0.876,0-1.587-0.361-1.949-0.991C1.12,30.38,1.164,29.586,1.603,28.83l5.86-10.126
	c0.714-1.236,2.332-2.169,3.763-2.169h18.582c0.875,0,1.584,0.36,1.947,0.989c0.362,0.629,0.319,1.424-0.119,2.182l-5.861,10.127
	C25.058,31.069,23.441,32,22.014,32H3.432z"/>
<path id="rect5498_5_" fill="#FAA81C" d="M11.227,17.535h18.582c1.065,0,1.496,0.748,0.963,1.67L24.91,29.332
	C24.376,30.252,23.079,31,22.014,31H3.432c-1.066,0-1.498-0.748-0.964-1.668l5.861-10.127C8.861,18.283,10.16,17.535,11.227,17.535z
	"/>
<linearGradient id="path16_1_" gradientUnits="userSpaceOnUse" x1="0.7998" y1="-113.1074" x2="27.5186" y2="-113.1074" gradientTransform="matrix(1 0 0 -1 2.46 -88.8398)">
	<stop  offset="0" style="stop-color:#A46929"/>
	<stop  offset="0.5394" style="stop-color:#FAA81C"/>
	<stop  offset="1" style="stop-color:#FFF3E2"/>
</linearGradient>
<path id="path16_2_" fill="url(#path16_1_)" d="M3.432,30c-0.072,0-0.13-0.006-0.172-0.014c0.016-0.039,0.037-0.092,0.073-0.152
	l5.86-10.128c0.355-0.612,1.322-1.171,2.031-1.171h18.582c0.072,0,0.129,0.007,0.172,0.016c-0.015,0.039-0.037,0.092-0.074,0.154
	L24.045,28.83C23.689,29.443,22.721,30,22.014,30H3.432z"/>
</svg>
