<?xml version="1.0" encoding="utf-8"?>
<!-- Generator: Adobe Illustrator 14.0.0, SVG Export Plug-In . SVG Version: 6.00 Build 43363)  -->
<!DOCTYPE svg PUBLIC "-//W3C//DTD SVG 1.1//EN" "http://www.w3.org/Graphics/SVG/1.1/DTD/svg11.dtd">
<svg version="1.1"
	 id="svg2" sodipodi:docbase="C:\Radix\dev\trunk\org.radixware\kernel\designer\src\common.resources\src\org\radixware\kernel\designer\resources\icons\ads" sodipodi:docname="command.svg" inkscape:version="0.45.1" sodipodi:version="0.32" inkscape:output_extension="org.inkscape.output.svg.inkscape" xmlns:ns="http://creativecommons.org/ns#" xmlns:dc="http://purl.org/dc/elements/1.1/" xmlns:cc="http://web.resource.org/cc/" xmlns:rdf="http://www.w3.org/1999/02/22-rdf-syntax-ns#" xmlns:svg="http://www.w3.org/2000/svg" xmlns:sodipodi="http://sodipodi.sourceforge.net/DTD/sodipodi-0.dtd" xmlns:inkscape="http://www.inkscape.org/namespaces/inkscape"
	 xmlns="http://www.w3.org/2000/svg" xmlns:xlink="http://www.w3.org/1999/xlink" x="0px" y="0px" width="32px" height="32px"
	 viewBox="0 0 32 32" enable-background="new 0 0 32 32" xml:space="preserve">
<sodipodi:namedview  id="base" pagecolor="#ffffff" bordercolor="#000000" borderopacity="1.0" showgrid="true" inkscape:zoom="14.5" inkscape:cx="8.4858884" inkscape:cy="17.267465" inkscape:current-layer="layer1" inkscape:pageopacity="0.0" inkscape:pageshadow="2" inkscape:window-width="1280" inkscape:window-height="944" inkscape:window-x="-8" inkscape:window-y="-8" inkscape:document-units="px">
	</sodipodi:namedview>
<path d="M25.533,30.363c-0.172,0-0.344-0.044-0.499-0.134l-11.242-6.481H6.736C3.022,23.748,0,20.727,0,17.013V8.374
	c0-3.715,3.022-6.737,6.736-6.737h18.526C28.978,1.637,32,4.659,32,8.374v8.639c0,3.714-3.022,6.735-6.737,6.735h-0.185l1.422,5.358
	c0.104,0.391-0.038,0.806-0.358,1.051C25.963,30.294,25.748,30.363,25.533,30.363L25.533,30.363z"/>
<path id="rect3160" fill="#F9A620" d="M6.736,2.637C3.559,2.637,1,5.195,1,8.374v8.639c0,3.177,2.559,5.735,5.736,5.735h7.323
	l11.474,6.615l-1.755-6.615h1.484c3.178,0,5.737-2.559,5.737-5.735V8.374c0-3.179-2.56-5.737-5.737-5.737H6.736z"/>
<linearGradient id="SVGID_1_" gradientUnits="userSpaceOnUse" x1="16.0005" y1="28.0576" x2="16.0005" y2="3.9215">
	<stop  offset="0" style="stop-color:#FFF3DF"/>
	<stop  offset="0.5394" style="stop-color:#F9A620"/>
	<stop  offset="1" style="stop-color:#A36628"/>
</linearGradient>
<path fill="url(#SVGID_1_)" d="M14.327,21.748H6.736C4.125,21.748,2,19.624,2,17.013V8.374c0-2.612,2.125-4.737,4.736-4.737h18.526
	C27.875,3.637,30,5.762,30,8.374v8.639c0,2.611-2.125,4.735-4.737,4.735h-2.784l1.472,5.548L14.327,21.748z"/>
<path d="M15.518,22.548c-0.467,0-0.885-0.329-0.979-0.805l-0.771-3.868c-0.052-0.26,0.001-0.53,0.149-0.751
	c0.147-0.221,0.376-0.374,0.636-0.426l0.146-0.028c-0.245-0.113-0.441-0.323-0.531-0.596L11.842,9.02
	c-0.013-0.038-0.023-0.077-0.031-0.117l-0.717-3.6c-0.052-0.26,0.002-0.53,0.149-0.751c0.147-0.221,0.376-0.373,0.636-0.426
	l4.687-0.934c0.065-0.013,0.132-0.019,0.196-0.019c0.468,0,0.885,0.328,0.979,0.805l0.718,3.6c0.009,0.04,0.014,0.082,0.017,0.123
	l0.535,7.41c0.021,0.286-0.081,0.555-0.264,0.752l0.18-0.036c0.064-0.013,0.13-0.019,0.195-0.019c0.196,0,0.39,0.058,0.556,0.168
	c0.221,0.147,0.373,0.377,0.425,0.637l0.77,3.868c0.108,0.542-0.243,1.068-0.785,1.176l-4.374,0.871
	C15.648,22.542,15.582,22.548,15.518,22.548L15.518,22.548z"/>
<path id="path3171" sodipodi:nodetypes="cccccccccccc" fill="#ED2526" d="M12.075,5.107l4.687-0.934l0.718,3.6l0.535,7.41
	l-2.898,0.578l-2.324-7.055L12.075,5.107z M14.747,17.68l4.376-0.871l0.77,3.868l-4.374,0.871L14.747,17.68z"/>
</svg>
