<?xml version="1.0" encoding="utf-8"?>
<!-- Generator: Adobe Illustrator 14.0.0, SVG Export Plug-In . SVG Version: 6.00 Build 43363)  -->
<!DOCTYPE svg PUBLIC "-//W3C//DTD SVG 1.1//EN" "http://www.w3.org/Graphics/SVG/1.1/DTD/svg11.dtd">
<svg version="1.1"
	 id="svg2" inkscape:output_extension="org.inkscape.output.svg.inkscape" sodipodi:docname="editor_page2.svg" inkscape:version="0.46" sodipodi:version="0.32" sodipodi:docbase="C:\Radix\dev\trunk\org.radixware\kernel\designer\src\common.resources\src\org\radixware\kernel\designer\resources\icons\ads" xmlns:dc="http://purl.org/dc/elements/1.1/" xmlns:sodipodi="http://sodipodi.sourceforge.net/DTD/sodipodi-0.dtd" xmlns:cc="http://creativecommons.org/ns#" xmlns:inkscape="http://www.inkscape.org/namespaces/inkscape" xmlns:rdf="http://www.w3.org/1999/02/22-rdf-syntax-ns#" xmlns:svg="http://www.w3.org/2000/svg"
	 xmlns="http://www.w3.org/2000/svg" xmlns:xlink="http://www.w3.org/1999/xlink" x="0px" y="0px" width="32px" height="32px"
	 viewBox="0 0 32 32" enable-background="new 0 0 32 32" xml:space="preserve">
<defs>
	
	
		<inkscape:perspective  id="perspective26" sodipodi:type="inkscape:persp3d" inkscape:vp_z="20 : 10 : 1" inkscape:vp_x="0 : 10 : 1" inkscape:vp_y="0 : 1000 : 0" inkscape:persp3d-origin="10 : 6.6666667 : 1">
		</inkscape:perspective>
	
		<inkscape:perspective  id="perspective4992" sodipodi:type="inkscape:persp3d" inkscape:vp_z="32 : 16 : 1" inkscape:vp_x="0 : 16 : 1" inkscape:vp_y="0 : 1000 : 0" inkscape:persp3d-origin="16 : 10.666667 : 1">
		</inkscape:perspective>
</defs>
<sodipodi:namedview  id="base" pagecolor="#ffffff" bordercolor="#000000" borderopacity="1.0" showgrid="true" inkscape:zoom="19.79899" inkscape:cx="5.236426" inkscape:cy="15.95855" inkscape:window-x="0" inkscape:window-y="44" inkscape:current-layer="layer1" inkscape:pageopacity="0.0" inkscape:pageshadow="2" inkscape:window-width="1280" inkscape:window-height="944" inkscape:document-units="px">
	</sodipodi:namedview>
<g id="layer1" inkscape:groupmode="layer" inkscape:label="Layer 1">
	<path fill="#231F20" d="M21.858,9.148c-1.34,0-2.389-1.288-2.389-2.932c0-0.065,0.006-0.13,0.019-0.193l0.64-3.245
		C20.538,0.927,21.334,0,22.498,0h5.641c1.163,0,1.959,0.926,2.366,2.753l0.645,3.269c0.013,0.063,0.019,0.128,0.019,0.193
		c0,1.644-1.05,2.932-2.39,2.932H21.858z"/>
	<path id="path3186" fill="#00ACDA" d="M22.498,1c-0.771,0-1.165,0.961-1.389,1.971l-0.64,3.245c0,1.073,0.618,1.932,1.389,1.932
		h3.446h0.027h3.446c0.771,0,1.39-0.859,1.39-1.932l-0.64-3.245C29.304,1.961,28.91,1,28.139,1h-2.807h-0.027H22.498z"/>
	<path fill="#231F20" d="M13.55,9.205c-1.34,0-2.39-1.288-2.39-2.931c0-0.065,0.006-0.13,0.019-0.193l0.64-3.246
		c0.41-1.851,1.206-2.777,2.37-2.777h5.641c1.164,0,1.96,0.926,2.366,2.754l0.645,3.269c0.013,0.063,0.019,0.128,0.019,0.193
		c0,1.644-1.05,2.931-2.39,2.931H13.55z"/>
	<path id="path3184" fill="#00ACDA" d="M14.188,1.058c-0.771,0-1.165,0.96-1.389,1.971l-0.64,3.246c0,1.072,0.618,1.931,1.39,1.931
		h3.445h0.028h3.445c0.771,0,1.39-0.859,1.39-1.931l-0.64-3.246c-0.225-1.01-0.617-1.971-1.39-1.971h-2.806h-0.028H14.188z"/>
	<path fill="#231F20" d="M2.583,27.35c-1.416,0-2.567-1.246-2.567-2.777V6.594c0-1.447,1.028-2.639,2.336-2.765l0.189-0.978
		c0.515-2.318,1.585-2.799,2.393-2.799h5.643c1.154,0,1.946,0.933,2.355,2.773l0.193,0.993h16.324c1.415,0,2.566,1.246,2.566,2.776
		v17.979c0,1.531-1.151,2.777-2.566,2.777H2.583z"/>
	<path id="rect3169" fill="#00ACDA" d="M4.934,1.051c-0.771,0-1.186,0.979-1.411,1.99L3.179,4.817H2.583
		c-0.87,0-1.567,0.791-1.567,1.776v17.979c0,0.986,0.697,1.777,1.567,1.777h26.866c0.868,0,1.566-0.791,1.566-1.777V6.594
		c0-0.986-0.698-1.776-1.566-1.776H12.301l-0.345-1.776c-0.225-1.01-0.608-1.99-1.379-1.99H7.755H7.724H4.934z"/>
	<linearGradient id="SVGID_1_" gradientUnits="userSpaceOnUse" x1="16.0161" y1="25.1875" x2="16.0161" y2="2.5081">
		<stop  offset="0" style="stop-color:#B1D2DB"/>
		<stop  offset="1" style="stop-color:#0B7C9E"/>
	</linearGradient>
	<path fill="url(#SVGID_1_)" d="M2.583,25.35c-0.307,0-0.567-0.355-0.567-0.777V6.594c0-0.421,0.26-0.776,0.567-0.776h1.42
		l0.501-2.586c0.222-0.994,0.494-1.196,0.497-1.198l2.723,0.018h2.842c-0.024,0.015,0.199,0.241,0.414,1.207l0.496,2.56h17.973
		c0.307,0,0.566,0.355,0.566,0.776v17.979c0,0.422-0.26,0.777-0.566,0.777H2.583z"/>
</g>
<g>
	<path d="M31.926,6.541c-0.05-0.121-0.123-0.232-0.218-0.326l-5.875-5.877c-0.188-0.188-0.441-0.293-0.707-0.293
		s-0.52,0.105-0.707,0.293L4.272,20.484c-0.008,0.008-0.012,0.021-0.021,0.031c-0.075,0.08-0.144,0.17-0.188,0.273l-3.375,7.698
		c-0.004,0.015-0.004,0.025-0.01,0.039c-0.006,0.017-0.017,0.031-0.023,0.047l-0.604,1.82c-0.119,0.358-0.025,0.756,0.243,1.022
		l0.292,0.291C0.776,31.896,1.033,32,1.294,32c0.105,0,0.211-0.018,0.313-0.051l1.822-0.602c0.018-0.006,0.032-0.018,0.049-0.023
		c0.012-0.004,0.022-0.002,0.033-0.008l7.741-3.332c0.106-0.047,0.197-0.115,0.28-0.191c0.009-0.008,0.021-0.012,0.031-0.021
		L31.708,7.629c0.095-0.095,0.168-0.207,0.218-0.328C32.024,7.059,32.024,6.784,31.926,6.541z"/>
	
		<rect x="13.839" y="-0.189" transform="matrix(0.707 0.7072 -0.7072 0.707 15.2112 -8.6064)" fill="#6FBD46" width="8.309" height="28.49"/>
	
		<linearGradient id="SVGID_2_" gradientUnits="userSpaceOnUse" x1="13.27" y1="-100.6338" x2="17.6375" y2="-105.0012" gradientTransform="matrix(1 0 0 -1 2.46 -88.8398)">
		<stop  offset="0" style="stop-color:#AED58A"/>
		<stop  offset="1" style="stop-color:#1E9046"/>
	</linearGradient>
	<polygon fill="url(#SVGID_2_)" points="6.396,21.191 25.126,2.459 29.587,6.922 10.856,25.652 	"/>
	<polygon fill="#F9A61E" points="1.604,28.891 3.114,30.4 10.856,27.066 4.979,21.191 	"/>
	
		<linearGradient id="SVGID_3_" gradientUnits="userSpaceOnUse" x1="0.3667" y1="-113.4141" x2="4.5584" y2="-117.6058" gradientTransform="matrix(1 0 0 -1 2.46 -88.8398)">
		<stop  offset="0" style="stop-color:#FFF3DF"/>
		<stop  offset="0.5394" style="stop-color:#F9A61E"/>
		<stop  offset="1" style="stop-color:#A36628"/>
	</linearGradient>
	<polygon fill="url(#SVGID_3_)" points="2.795,28.666 5.31,22.934 9.106,26.732 3.343,29.213 	"/>
	<polygon fill="#231F20" points="1.604,28.891 3.114,30.4 1.293,31.002 1.001,30.709 	"/>
	
		<rect x="22.395" y="3.356" transform="matrix(0.7071 0.7071 -0.7071 0.7071 11.6642 -17.1627)" fill="#ED2828" width="8.309" height="4.285"/>
	
		<linearGradient id="SVGID_4_" gradientUnits="userSpaceOnUse" x1="21.7021" y1="-91.9541" x2="26.334" y2="-96.5858" gradientTransform="matrix(1 0 0 -1 2.46 -88.8398)">
		<stop  offset="0" style="stop-color:#F49599"/>
		<stop  offset="1" style="stop-color:#8E1B1E"/>
	</linearGradient>
	<polygon fill="url(#SVGID_4_)" points="23.509,4.078 25.126,2.461 29.587,6.922 27.97,8.537 	"/>
</g>
</svg>
