<?xml version="1.0" encoding="utf-8"?>
<!-- Generator: Adobe Illustrator 14.0.0, SVG Export Plug-In . SVG Version: 6.00 Build 43363)  -->
<!DOCTYPE svg PUBLIC "-//W3C//DTD SVG 1.1//EN" "http://www.w3.org/Graphics/SVG/1.1/DTD/svg11.dtd">
<svg version="1.1"
	 id="svg1307" inkscape:output_extension="org.inkscape.output.svg.inkscape" sodipodi:docname="_entity_group.svg" inkscape:version="0.46" sodipodi:version="0.32" sodipodi:docbase="C:\Radix\dev\trunk\org.radixware\kernel\designer\src\common.resources\src\org\radixware\kernel\designer\resources\icons\ads\class" xmlns:dc="http://purl.org/dc/elements/1.1/" xmlns:sodipodi="http://sodipodi.sourceforge.net/DTD/sodipodi-0.dtd" xmlns:cc="http://creativecommons.org/ns#" xmlns:inkscape="http://www.inkscape.org/namespaces/inkscape" xmlns:rdf="http://www.w3.org/1999/02/22-rdf-syntax-ns#" xmlns:svg="http://www.w3.org/2000/svg"
	 xmlns="http://www.w3.org/2000/svg" xmlns:xlink="http://www.w3.org/1999/xlink" x="0px" y="0px" width="32px" height="32px"
	 viewBox="0 0 32 32" enable-background="new 0 0 32 32" xml:space="preserve">
<defs>
	
	
		<inkscape:perspective  id="perspective29" sodipodi:type="inkscape:persp3d" inkscape:vp_z="64 : 32 : 1" inkscape:vp_x="0 : 32 : 1" inkscape:vp_y="0 : 1000 : 0" inkscape:persp3d-origin="32 : 21.333333 : 1">
		</inkscape:perspective>
	
		<inkscape:perspective  id="perspective5070" sodipodi:type="inkscape:persp3d" inkscape:vp_z="32 : 16 : 1" inkscape:vp_x="0 : 16 : 1" inkscape:vp_y="0 : 1000 : 0" inkscape:persp3d-origin="16 : 10.666667 : 1">
		</inkscape:perspective>
</defs>
<sodipodi:namedview  id="base" pagecolor="#ffffff" bordercolor="#666666" borderopacity="1.0" showgrid="true" inkscape:zoom="9.2417582" inkscape:cx="9.5" inkscape:cy="15.5" inkscape:window-x="110" inkscape:window-y="145" inkscape:current-layer="layer1" inkscape:pageopacity="0.0" inkscape:pageshadow="2" inkscape:window-width="859" inkscape:window-height="540" inkscape:document-units="px" inkscape:grid-bbox="true">
	</sodipodi:namedview>
<g>
	<path fill="#231F20" d="M8.787,32C8.353,32,8,31.646,8,31.215V12.18c0-0.435,0.352-0.787,0.786-0.787h22.429
		c0.434,0,0.785,0.353,0.785,0.787v19.035c0,0.432-0.352,0.785-0.785,0.785H8.787z"/>
	<rect x="8.787" y="12.18" fill="#DAEBF2" width="22.429" height="19.035"/>
	
		<linearGradient id="SVGID_1_" gradientUnits="userSpaceOnUse" x1="6.3267" y1="-103.665" x2="28.7559" y2="-103.665" gradientTransform="matrix(1 0 0 -1 2.46 -88.8398)">
		<stop  offset="0" style="stop-color:#FFF3DF"/>
		<stop  offset="0.5394" style="stop-color:#F9A61E"/>
		<stop  offset="1" style="stop-color:#A36628"/>
	</linearGradient>
	<rect x="8.787" y="12.18" fill="url(#SVGID_1_)" width="22.429" height="5.291"/>
	<line fill="none" stroke="#231F20" stroke-width="0.8482" x1="8.787" y1="17.471" x2="31.216" y2="17.471"/>
	<line fill="none" stroke="#231F20" stroke-width="0.8482" x1="8.787" y1="21.996" x2="31.216" y2="21.996"/>
	<line fill="none" stroke="#231F20" stroke-width="0.8482" x1="8.787" y1="26.971" x2="31.216" y2="26.971"/>
	<line fill="none" stroke="#231F20" stroke-width="0.8482" x1="16.034" y1="17.482" x2="16.034" y2="31.227"/>
	<line fill="none" stroke="#231F20" stroke-width="0.8482" x1="24.019" y1="17.508" x2="24.019" y2="31.253"/>
	<path fill="#231F20" d="M4.439,28.723c-0.434,0-0.785-0.353-0.785-0.785V8.9c0-0.434,0.351-0.785,0.785-0.785h22.43
		c0.434,0,0.784,0.352,0.784,0.785v19.037c0,0.434-0.352,0.785-0.784,0.785H4.439z"/>
	<rect x="4.439" y="8.9" fill="#DAEBF2" width="22.43" height="19.037"/>
	
		<linearGradient id="SVGID_2_" gradientUnits="userSpaceOnUse" x1="1.9795" y1="-100.3867" x2="24.4092" y2="-100.3867" gradientTransform="matrix(1 0 0 -1 2.46 -88.8398)">
		<stop  offset="0" style="stop-color:#FFF3DF"/>
		<stop  offset="0.5394" style="stop-color:#F9A61E"/>
		<stop  offset="1" style="stop-color:#A36628"/>
	</linearGradient>
	<rect x="4.439" y="8.9" fill="url(#SVGID_2_)" width="22.43" height="5.293"/>
	<line fill="none" stroke="#231F20" stroke-width="0.8483" x1="4.439" y1="14.191" x2="26.869" y2="14.191"/>
	<line fill="none" stroke="#231F20" stroke-width="0.8483" x1="4.439" y1="18.718" x2="26.869" y2="18.718"/>
	<line fill="none" stroke="#231F20" stroke-width="0.8483" x1="4.439" y1="23.693" x2="26.869" y2="23.693"/>
	<line fill="none" stroke="#231F20" stroke-width="0.8483" x1="11.688" y1="14.205" x2="11.688" y2="27.949"/>
	<line fill="none" stroke="#231F20" stroke-width="0.8483" x1="19.671" y1="14.23" x2="19.671" y2="27.977"/>
	<path id="path4046_9_" fill="#020202" d="M0.813,26c-0.15,0-0.301-0.041-0.436-0.126c-0.349-0.219-0.476-0.664-0.296-1.036
		L5.22,14.094c0,0-1.897,0.03-1.902,0.03c-0.264,0-0.512-0.126-0.664-0.344c-0.155-0.22-0.192-0.501-0.098-0.753L7.18,0.535
		c0.118-0.319,0.422-0.53,0.762-0.53L15.495,0c0.313,0,0.596,0.176,0.73,0.454c0.137,0.276,0.106,0.608-0.084,0.856l-5.114,6.666
		c0,0,3.263-0.028,3.264-0.028c0.315,0,0.599,0.18,0.735,0.461c0.136,0.286,0.095,0.625-0.105,0.868L1.446,25.704
		C1.285,25.896,1.05,26,0.813,26L0.813,26z"/>
	<path id="path5141_9_" fill="#F9A61E" d="M3.315,13.309l3.206-0.053l-5.705,11.93L14.292,8.76l-4.93,0.045l6.132-7.99L7.939,0.82
		L3.315,13.309z"/>
	
		<linearGradient id="polygon4061_1_" gradientUnits="userSpaceOnUse" x1="1.9888" y1="-99.3911" x2="11.3813" y2="-99.3911" gradientTransform="matrix(1 0 0 -1 2.46 -88.8398)">
		<stop  offset="0" style="stop-color:#FFF3DF"/>
		<stop  offset="0.5394" style="stop-color:#F9A61E"/>
		<stop  offset="1" style="stop-color:#A36628"/>
	</linearGradient>
	<polygon id="polygon4061_9_" fill="url(#polygon4061_1_)" points="4.449,19.473 7.82,12.421 4.492,12.475 8.505,1.633 13.841,1.63 
		7.699,9.634 12.556,9.59 	"/>
</g>
</svg>
