<?xml version="1.0" encoding="utf-8"?>
<!-- Generator: Adobe Illustrator 15.0.0, SVG Export Plug-In . SVG Version: 6.00 Build 0)  -->
<!DOCTYPE svg PUBLIC "-//W3C//DTD SVG 1.1//EN" "http://www.w3.org/Graphics/SVG/1.1/DTD/svg11.dtd">
<svg version="1.1"
	 id="svg2383" xmlns:dc="http://purl.org/dc/elements/1.1/" xmlns:cc="http://web.resource.org/cc/" xmlns:ns="http://creativecommons.org/ns#" xmlns:rdf="http://www.w3.org/1999/02/22-rdf-syntax-ns#" xmlns:svg="http://www.w3.org/2000/svg" xmlns:sodipodi="http://sodipodi.sourceforge.net/DTD/sodipodi-0.dtd" xmlns:inkscape="http://www.inkscape.org/namespaces/inkscape" inkscape:output_extension="org.inkscape.output.svg.inkscape" sodipodi:docname="localizing_bundle.svg" inkscape:version="0.45.1" sodipodi:docbase="C:\Radix\dev\trunk\org.radixware\kernel\designer\src\common.resources\src\org\radixware\kernel\designer\resources\icons\ads" sodipodi:version="0.32"
	 xmlns="http://www.w3.org/2000/svg" xmlns:xlink="http://www.w3.org/1999/xlink" x="0px" y="0px" width="32px" height="32px"
	 viewBox="0 0 32 32" enable-background="new 0 0 32 32" xml:space="preserve">
<sodipodi:namedview  id="base" inkscape:cy="27.652671" inkscape:cx="27.579714" inkscape:zoom="6.7653387" showgrid="true" borderopacity="1.0" bordercolor="#666666" pagecolor="#ffffff" inkscape:window-y="-8" inkscape:window-x="-8" inkscape:window-height="944" inkscape:window-width="1280" inkscape:pageshadow="2" inkscape:pageopacity="0.0" inkscape:current-layer="layer1" inkscape:document-units="px" inkscape:grid-bbox="true">
	</sodipodi:namedview>
<g>
	<path fill="#ED2526" d="M2.665,9.012L0.272,8.443C0.541,7.172,1.004,6.231,1.661,5.62c0.657-0.61,1.633-0.916,2.928-0.916
		c1.176,0,2.052,0.184,2.627,0.551c0.575,0.368,0.981,0.833,1.215,1.399c0.235,0.565,0.352,1.603,0.352,3.113l-0.028,4.061
		c0,1.155,0.042,2.007,0.126,2.556c0.085,0.552,0.243,1.138,0.474,1.765H6.747c-0.069-0.232-0.154-0.574-0.253-1.027
		C6.45,16.916,6.419,16.779,6.4,16.713c-0.451,0.578-0.933,1.01-1.446,1.299s-1.06,0.436-1.642,0.436
		c-1.026,0-1.835-0.369-2.426-1.105C0.296,16.609,0,15.682,0,14.559c0-0.743,0.135-1.405,0.404-1.987
		c0.269-0.582,0.646-1.027,1.13-1.337s1.184-0.58,2.098-0.811c1.232-0.305,2.086-0.591,2.562-0.854V9.223
		c0-0.668-0.125-1.146-0.375-1.43C5.567,7.508,5.096,7.365,4.401,7.365c-0.469,0-0.835,0.122-1.098,0.366
		C3.04,7.975,2.828,8.401,2.665,9.012z M6.193,11.835c-0.337,0.148-0.873,0.326-1.604,0.532c-0.732,0.207-1.21,0.409-1.436,0.607
		c-0.344,0.321-0.516,0.73-0.516,1.226c0,0.487,0.137,0.908,0.412,1.262c0.276,0.354,0.626,0.532,1.052,0.532
		c0.475,0,0.929-0.207,1.361-0.619c0.319-0.313,0.528-0.696,0.628-1.151c0.068-0.296,0.103-0.861,0.103-1.696V11.835z"/>
	<path fill="#ED2526" d="M11.27,18.148V0h2.636v6.536c0.813-1.222,1.777-1.832,2.891-1.832c1.215,0,2.219,0.58,3.012,1.739
		C20.604,7.603,21,9.269,21,11.438c0,2.246-0.404,3.975-1.215,5.189c-0.811,1.213-1.793,1.82-2.951,1.82
		c-0.569,0-1.13-0.191-1.685-0.566c-0.553-0.375-1.03-0.93-1.43-1.663v1.93H11.27z M13.888,11.291c0,1.361,0.163,2.369,0.489,3.021
		c0.455,0.924,1.063,1.386,1.82,1.386c0.581,0,1.079-0.329,1.487-0.984c0.41-0.656,0.615-1.69,0.615-3.102
		c0-1.502-0.207-2.585-0.619-3.249c-0.412-0.665-0.941-0.998-1.587-0.998c-0.631,0-1.157,0.324-1.576,0.972
		C14.097,8.985,13.888,9.97,13.888,11.291z"/>
</g>
<g>
	<path fill="#00ACDA" d="M18.788,18.922h2.149c-0.34,0.689-0.623,1.572-0.852,2.646c-0.228,1.073-0.344,1.824-0.344,2.253
		c0,0.553,0.104,1.275,0.313,2.167c0.209,0.892,0.47,1.695,0.785,2.409h-2.105c-0.03-0.118-0.083-0.285-0.16-0.5
		c-0.125-0.357-0.232-0.714-0.321-1.07c-0.73,1.189-1.775,1.784-3.131,1.784c-1.279,0-2.286-0.52-3.02-1.557
		C11.368,26.015,11,24.806,11,23.419c0-1.309,0.365-2.422,1.097-3.336c0.732-0.917,1.749-1.375,3.052-1.375
		c1.285,0,2.322,0.616,3.113,1.848C18.37,20.121,18.544,19.576,18.788,18.922z M13.569,23.686c0,0.874,0.186,1.584,0.558,2.129
		c0.372,0.543,0.855,0.816,1.45,0.816c0.569,0,1.037-0.241,1.4-0.723c0.362-0.481,0.545-1.224,0.545-2.223
		c0-0.98-0.194-1.724-0.581-2.229c-0.387-0.507-0.854-0.758-1.4-0.758c-0.572,0-1.043,0.262-1.415,0.783
		C13.755,22.007,13.569,22.739,13.569,23.686z"/>
	<path fill="#00ACDA" d="M22.821,32V19.976c0-1.868,0.458-3.148,1.383-3.841c0.922-0.692,1.94-1.04,3.059-1.04
		c1.13,0,2.082,0.313,2.855,0.941c0.773,0.628,1.158,1.443,1.158,2.449c0,0.653-0.209,1.229-0.624,1.726
		c-0.414,0.496-0.932,0.823-1.552,0.977c0.998,0.168,1.731,0.597,2.199,1.289c0.466,0.693,0.7,1.466,0.7,2.315
		c0,1.048-0.314,1.944-0.945,2.693c-0.631,0.75-1.491,1.125-2.578,1.125c-1.256,0-2.306-0.532-3.149-1.598V32H22.821z M26.46,20.617
		c0.761-0.012,1.356-0.193,1.783-0.544c0.429-0.352,0.644-0.798,0.644-1.338c0-0.494-0.171-0.893-0.513-1.2
		c-0.342-0.307-0.756-0.46-1.236-0.46c-0.416,0-0.771,0.126-1.065,0.38c-0.294,0.252-0.492,0.578-0.593,0.977
		c-0.102,0.398-0.152,0.981-0.152,1.749v2.694c0,0.809,0.071,1.457,0.21,1.949c0.14,0.491,0.421,0.913,0.842,1.271
		c0.423,0.356,0.882,0.536,1.375,0.536c0.477,0,0.873-0.178,1.195-0.531c0.321-0.354,0.481-0.808,0.481-1.362
		c0-0.808-0.241-1.465-0.727-1.971c-0.485-0.505-1.232-0.757-2.244-0.757V20.617z"/>
</g>
</svg>
