<?xml version="1.0" encoding="utf-8"?>
<!-- Generator: Adobe Illustrator 14.0.0, SVG Export Plug-In . SVG Version: 6.00 Build 43363)  -->
<!DOCTYPE svg PUBLIC "-//W3C//DTD SVG 1.1//EN" "http://www.w3.org/Graphics/SVG/1.1/DTD/svg11.dtd">
<svg version="1.1"
	 id="svg1" inkscape:output_extension="org.inkscape.output.svg.inkscape" sodipodi:docname="all_images.svg" inkscape:version="0.45.1" sodipodi:version="0.32" sodipodi:docbase="C:\Radix\dev\trunk\org.radixware\kernel\designer\src\common.resources\src\org\radixware\kernel\designer\resources\icons\edit" xmlns:dc="http://purl.org/dc/elements/1.1/" xmlns:ns="http://creativecommons.org/ns#" xmlns:sodipodi="http://sodipodi.sourceforge.net/DTD/sodipodi-0.dtd" xmlns:cc="http://web.resource.org/cc/" xmlns:inkscape="http://www.inkscape.org/namespaces/inkscape" xmlns:rdf="http://www.w3.org/1999/02/22-rdf-syntax-ns#" xmlns:svg="http://www.w3.org/2000/svg"
	 xmlns="http://www.w3.org/2000/svg" xmlns:xlink="http://www.w3.org/1999/xlink" x="0px" y="0px" width="32px" height="32px"
	 viewBox="0 0 32 32" enable-background="new 0 0 32 32" xml:space="preserve">
<sodipodi:namedview  id="base" pagecolor="#ffffff" bordercolor="#666666" borderopacity="1.0" showgrid="true" inkscape:zoom="8.0266175" inkscape:cx="18.993583" inkscape:cy="5.4058787" inkscape:window-x="0" inkscape:window-y="0" inkscape:current-layer="svg1" inkscape:pageopacity="0.0" inkscape:pageshadow="2" inkscape:window-width="1264" inkscape:window-height="988" snaptogrid="false">
	</sodipodi:namedview>
<g id="g2855_3_">
	<path id="path2924_25_" fill="#020202" d="M0.923,28C0.413,28,0,27.59,0,27.077V0.923C0,0.413,0.413,0,0.923,0h13.236
		c0.249,0,0.483,0.096,0.655,0.271l6.147,6.148c0.174,0.173,0.271,0.408,0.271,0.652v20.004c0,0.515-0.413,0.923-0.923,0.923H0.923
		V28z"/>
	<polygon id="polygon2926_25_" fill="#FFFFFF" points="14.159,0.923 0.923,0.923 0.923,27.077 20.31,27.077 20.31,7.071 	"/>
	<polygon id="polygon2928_25_" fill="#FFFFFF" points="18.576,6.75 18.576,25.675 2.655,25.675 2.655,3.21 15.039,3.21 16.73,5.134 
			"/>
	
		<linearGradient id="polygon11_2_" gradientUnits="userSpaceOnUse" x1="8.1558" y1="-114.4043" x2="8.1558" y2="-91.9783" gradientTransform="matrix(1 0 0 -1 2.46 -88.8398)">
		<stop  offset="0" style="stop-color:#AECFD9"/>
		<stop  offset="1" style="stop-color:#0C7C9E"/>
	</linearGradient>
	<polygon id="polygon11" fill="url(#polygon11_2_)" points="14.673,3.21 2.655,3.21 2.655,25.675 18.576,25.675 18.576,7.115 	"/>
	<path id="path13_5_" fill="#70BE46" d="M18.576,25.675v-4.297c-1.201-0.002-2.335-0.458-3.449-0.808
		c-1.159-0.365-2.561-0.303-3.72,0.067c-0.932,0.299-1.709,0.941-2.718,1.025c-0.705,0.06-1.44-0.009-2.133-0.074
		c-0.723-0.067-1.677-0.227-2.383-0.005c-0.772,0.244-0.964,0.634-1.516,1.135v2.956H18.576z"/>
	<circle id="circle15" fill="#F9A61C" cx="7.556" cy="11.304" r="3.063"/>
	<path id="path17" fill="#FFFFFF" d="M11.768,7.838c-0.279,0-0.536,0.047-0.76,0.121c0.048-0.121,0.081-0.244,0.081-0.375
		c0-0.855-1.093-1.548-2.44-1.548c-0.847,0-1.588,0.271-2.027,0.686C6.3,6.613,5.93,6.546,5.532,6.546
		c-1.218,0-2.206,0.579-2.206,1.294c0,0.573,0.641,1.053,1.52,1.224C4.97,9.436,5.61,9.72,6.389,9.72
		c0.103,0,0.205-0.005,0.303-0.015c0.339,0.433,1.196,0.744,2.212,0.744c1.157,0,2.118-0.402,2.326-0.936
		c0.169,0.037,0.347,0.061,0.538,0.061c0.834,0,1.511-0.387,1.511-0.866S12.602,7.838,11.768,7.838z"/>
	<path id="path19_8_" fill="#FFFFFF" d="M16.65,11.816c0-0.004,0.004-0.008,0.004-0.013c0-0.544-1.246-0.984-2.78-0.984
		c-0.158,0-0.313,0.007-0.462,0.017c-0.239-0.1-0.554-0.163-0.9-0.163c-0.699,0-1.267,0.246-1.347,0.562
		c-0.174-0.031-0.36-0.052-0.556-0.052c-1.003,0-1.816,0.441-1.816,0.985c0,0.378,0.401,0.704,0.98,0.867
		c-0.002,0.015-0.009,0.028-0.009,0.043c0,0.343,0.596,0.621,1.331,0.621c0.175,0,0.342-0.018,0.494-0.047
		c0.148,0.39,0.499,0.665,0.909,0.665c0.283,0,0.533-0.135,0.713-0.344c0.312,0.1,0.693,0.162,1.107,0.162
		c0.884,0,1.62-0.268,1.829-0.629c0.104,0.017,0.206,0.027,0.315,0.027c0.721,0,1.304-0.387,1.304-0.866
		C17.767,12.234,17.281,11.876,16.65,11.816z"/>
	<path id="path2930_25_" fill="#020202" d="M14.159,7.994c-0.51,0-0.923-0.413-0.923-0.923V0.923c0-0.373,0.226-0.711,0.57-0.852
		C13.922,0.023,14.041,0,14.159,0c0.242,0,0.479,0.093,0.655,0.271l6.147,6.148c0.264,0.264,0.344,0.661,0.202,1.005
		c-0.144,0.346-0.483,0.57-0.853,0.57H14.159L14.159,7.994z"/>
	<polygon id="polygon2932_25_" fill="#FFFFFF" points="14.159,7.071 20.31,7.071 14.159,0.923 	"/>
</g>
<g id="g2855_1_">
	<path id="path2924_1_" fill="#020202" d="M11.689,32c-0.511,0-0.923-0.41-0.923-0.923V4.923c0-0.51,0.412-0.923,0.923-0.923h13.236
		c0.249,0,0.483,0.096,0.655,0.271l6.147,6.148C31.902,10.592,32,10.827,32,11.071v20.004c0,0.515-0.413,0.923-0.923,0.923H11.689
		V32z"/>
	<polygon id="polygon2926_1_" fill="#FFFFFF" points="24.926,4.923 11.689,4.923 11.689,31.077 31.076,31.077 31.076,11.071 	"/>
	<polygon id="polygon2928_1_" fill="#FFFFFF" points="29.343,10.75 29.343,29.675 13.421,29.675 13.421,7.21 25.806,7.21 
		27.497,9.134 	"/>
	
		<linearGradient id="polygon11_3_" gradientUnits="userSpaceOnUse" x1="18.9219" y1="-118.4043" x2="18.9219" y2="-95.9783" gradientTransform="matrix(1 0 0 -1 2.46 -88.8398)">
		<stop  offset="0" style="stop-color:#AECFD9"/>
		<stop  offset="1" style="stop-color:#0C7C9E"/>
	</linearGradient>
	<polygon id="polygon11_1_" fill="url(#polygon11_3_)" points="25.439,7.21 13.421,7.21 13.421,29.675 29.343,29.675 29.343,11.115 
			"/>
	<path id="path13_1_" fill="#70BE46" d="M29.343,29.675v-4.297c-1.201-0.002-2.335-0.458-3.449-0.808
		c-1.159-0.365-2.561-0.303-3.72,0.067c-0.933,0.299-1.709,0.941-2.719,1.025c-0.705,0.06-1.44-0.009-2.133-0.074
		c-0.723-0.067-1.677-0.227-2.384-0.005c-0.772,0.244-0.964,0.634-1.515,1.136v2.955H29.343z"/>
	<circle id="circle15_1_" fill="#F9A61C" cx="18.322" cy="15.304" r="3.063"/>
	<path id="path17_1_" fill="#FFFFFF" d="M22.534,11.838c-0.278,0-0.535,0.047-0.76,0.121c0.048-0.121,0.081-0.244,0.081-0.375
		c0-0.855-1.093-1.548-2.44-1.548c-0.847,0-1.588,0.271-2.026,0.686c-0.321-0.109-0.692-0.176-1.09-0.176
		c-1.218,0-2.206,0.579-2.206,1.294c0,0.573,0.64,1.053,1.52,1.224c0.123,0.372,0.764,0.655,1.543,0.655
		c0.103,0,0.205-0.005,0.303-0.015c0.34,0.433,1.196,0.744,2.213,0.744c1.156,0,2.117-0.402,2.325-0.936
		c0.17,0.037,0.348,0.061,0.537,0.061c0.834,0,1.511-0.387,1.511-0.866S23.368,11.838,22.534,11.838z"/>
	<path id="path19_1_" fill="#FFFFFF" d="M27.417,15.816c0-0.005,0.004-0.009,0.004-0.013c0-0.545-1.246-0.984-2.779-0.984
		c-0.159,0-0.313,0.007-0.463,0.017c-0.239-0.1-0.554-0.163-0.9-0.163c-0.699,0-1.267,0.246-1.347,0.563
		c-0.174-0.031-0.359-0.053-0.556-0.053c-1.003,0-1.816,0.44-1.816,0.985c0,0.378,0.401,0.704,0.98,0.867
		c-0.003,0.015-0.01,0.028-0.01,0.043c0,0.343,0.596,0.621,1.331,0.621c0.176,0,0.342-0.019,0.494-0.047
		c0.148,0.39,0.499,0.664,0.909,0.664c0.283,0,0.533-0.134,0.714-0.344c0.312,0.101,0.692,0.162,1.107,0.162
		c0.884,0,1.62-0.268,1.828-0.629c0.104,0.017,0.206,0.027,0.315,0.027c0.721,0,1.304-0.388,1.304-0.866
		C28.533,16.234,28.048,15.876,27.417,15.816z"/>
	<path id="path2930_1_" fill="#020202" d="M24.926,11.994c-0.51,0-0.923-0.413-0.923-0.923V4.923c0-0.373,0.226-0.711,0.57-0.852
		C24.689,4.023,24.808,4,24.926,4c0.242,0,0.479,0.093,0.655,0.271l6.147,6.148c0.264,0.264,0.344,0.661,0.202,1.005
		c-0.144,0.346-0.483,0.57-0.853,0.57H24.926L24.926,11.994z"/>
	<polygon id="polygon2932_1_" fill="#FFFFFF" points="24.926,11.071 31.076,11.071 24.926,4.923 	"/>
</g>
</svg>
