<?xml version="1.0" encoding="utf-8"?>
<!-- Generator: Adobe Illustrator 14.0.0, SVG Export Plug-In . SVG Version: 6.00 Build 43363)  -->
<!DOCTYPE svg PUBLIC "-//W3C//DTD SVG 1.1//EN" "http://www.w3.org/Graphics/SVG/1.1/DTD/svg11.dtd">
<svg version="1.1"
	 id="svg2383" sodipodi:docname="multilingual_string.svg" inkscape:version="0.45.1" sodipodi:version="0.32" sodipodi:docbase="C:\Radix\dev\trunk\org.radixware\kernel\designer\src\common.resources\src\org\radixware\kernel\designer\resources\icons\ads" inkscape:output_extension="org.inkscape.output.svg.inkscape" xmlns:ns="http://creativecommons.org/ns#" xmlns:dc="http://purl.org/dc/elements/1.1/" xmlns:cc="http://web.resource.org/cc/" xmlns:rdf="http://www.w3.org/1999/02/22-rdf-syntax-ns#" xmlns:svg="http://www.w3.org/2000/svg" xmlns:sodipodi="http://sodipodi.sourceforge.net/DTD/sodipodi-0.dtd" xmlns:inkscape="http://www.inkscape.org/namespaces/inkscape"
	 xmlns="http://www.w3.org/2000/svg" xmlns:xlink="http://www.w3.org/1999/xlink" x="0px" y="0px" width="32px" height="32px"
	 viewBox="0 0 32 32" enable-background="new 0 0 32 32" xml:space="preserve">
<sodipodi:namedview  id="base" pagecolor="#ffffff" bordercolor="#666666" borderopacity="1.0" showgrid="true" inkscape:zoom="6.7653387" inkscape:cx="27.579714" inkscape:cy="27.652671" inkscape:current-layer="layer1" inkscape:pageopacity="0.0" inkscape:pageshadow="2" inkscape:window-width="1280" inkscape:window-height="944" inkscape:window-x="-8" inkscape:window-y="-8" inkscape:document-units="px" inkscape:grid-bbox="true">
	</sodipodi:namedview>
<g>
	<path id="path11924" d="M22.273,28.582c-2.276,0-4.14-0.87-5.538-2.588c-1.344-1.653-2.027-3.888-2.027-6.64
		c0-2.83,0.689-5.077,2.048-6.678c1.4-1.652,3.271-2.49,5.563-2.49c1.42,0,2.616,0.304,3.56,0.907
		c0.396,0.253,0.782,0.564,1.153,0.932c0.068-0.228,0.149-0.481,0.238-0.766c0.138-0.43,0.538-0.722,0.987-0.722h2.708
		c0.329,0,0.642,0.158,0.835,0.425c0.194,0.267,0.251,0.611,0.152,0.926c-0.664,2.081-1.277,4.604-1.831,7.5
		c0.657,3.591,1.263,6.084,1.803,7.415c0.129,0.318,0.091,0.682-0.102,0.968c-0.194,0.287-0.514,0.457-0.859,0.457H28.33
		c-0.413,0-0.787-0.244-0.951-0.625c-0.117-0.271-0.227-0.541-0.328-0.811C26.082,27.803,24.585,28.582,22.273,28.582L22.273,28.582
		z M22.758,14.449c-0.932,0-1.619,0.349-2.159,1.1c-0.602,0.835-0.907,2.116-0.907,3.806c0,1.662,0.294,2.956,0.875,3.847
		c0.503,0.773,1.153,1.134,2.045,1.134c0.896,0,1.604-0.375,2.225-1.179c0.665-0.861,1.003-2.179,1.003-3.918
		c0-1.676-0.31-2.928-0.923-3.717C24.352,14.79,23.664,14.449,22.758,14.449L22.758,14.449z"/>
	<path id="path11928" d="M6.815,29.082c-2.175,0-3.888-0.755-5.088-2.241C0.581,25.418,0,23.604,0,21.446
		c0-1.255,0.215-2.425,0.64-3.479c0.432-1.07,1.017-1.951,1.738-2.618c0.704-0.652,1.511-1.152,2.399-1.489
		c0.641-0.232,1.533-0.439,2.745-0.64c1.826-0.296,3.253-0.636,4.256-1.015c0.002-0.153,0.003-0.262,0.003-0.329
		c0-1.751-0.358-2.443-0.573-2.7C10.677,8.534,9.87,8.225,8.741,8.225c-1.056,0-1.813,0.223-2.251,0.661
		C6.154,9.222,5.682,9.997,5.35,11.765c-0.095,0.498-0.529,0.844-1.018,0.844c-0.063,0-0.126-0.004-0.19-0.018L1.339,12.07
		c-0.551-0.103-0.921-0.623-0.835-1.178C0.778,9.137,1.244,7.684,1.89,6.571C2.574,5.39,3.574,4.47,4.861,3.838
		c1.241-0.61,2.686-0.919,4.294-0.919c1.626,0,2.933,0.265,3.993,0.81c1.071,0.549,1.879,1.266,2.402,2.132
		c0.491,0.812,0.838,1.831,1.03,3.033c0.104,0.732,0.155,1.96,0.155,3.764v5.209c0,3.571,0.059,5.848,0.174,6.763
		c0.111,0.869,0.332,1.711,0.658,2.505c0.129,0.321,0.093,0.685-0.102,0.971c-0.192,0.287-0.514,0.458-0.858,0.458h-2.993
		c-0.434,0-0.821-0.27-0.972-0.677c-0.116-0.316-0.217-0.651-0.305-1.004c-0.635,0.563-1.259,1.001-1.886,1.323
		C9.326,28.787,8.103,29.082,6.815,29.082L6.815,29.082z M11.766,17.544c-0.943,0.338-2.085,0.638-3.446,0.904
		c-1.318,0.257-1.906,0.497-2.168,0.653c-0.312,0.187-0.549,0.456-0.724,0.824c-0.202,0.421-0.299,0.884-0.299,1.412
		c0,0.799,0.206,1.436,0.627,1.94c0.375,0.451,0.946,0.67,1.745,0.67c0.877,0,1.636-0.253,2.318-0.774
		c0.701-0.538,1.208-1.267,1.546-2.225C11.622,20.209,11.757,19.063,11.766,17.544L11.766,17.544z"/>
	
		<linearGradient id="path116779_1_" gradientUnits="userSpaceOnUse" x1="332.2197" y1="-1265.1343" x2="348.1777" y2="-1265.1343" gradientTransform="matrix(0.9538 0 0 -0.9538 -301.1273 -1187.3004)">
		<stop  offset="0" style="stop-color:#F5969A"/>
		<stop  offset="1" style="stop-color:#901A1E"/>
	</linearGradient>
	<path id="path116779" fill="url(#path116779_1_)" d="M28.259,11.575h2.706c-0.687,2.157-1.319,4.761-1.896,7.808
		c0.687,3.786,1.319,6.389,1.896,7.811h-2.633c-0.423-0.98-0.74-1.932-0.955-2.854c-0.813,2.136-2.518,3.206-5.104,3.206
		c-1.963,0-3.539-0.736-4.736-2.206c-1.195-1.472-1.793-3.467-1.793-5.985c0-2.588,0.6-4.591,1.801-6.007
		c1.2-1.417,2.79-2.125,4.773-2.125c1.227,0,2.224,0.246,2.999,0.743c0.774,0.496,1.495,1.246,2.161,2.258
		C27.549,13.878,27.808,12.997,28.259,11.575z M22.758,13.413c-1.265,0-2.265,0.51-3.001,1.531
		c-0.734,1.018-1.101,2.488-1.101,4.411c0,1.873,0.346,3.344,1.042,4.412c0.695,1.07,1.667,1.604,2.913,1.604
		c1.217,0,2.23-0.526,3.044-1.581c0.815-1.053,1.22-2.57,1.22-4.552c0-1.921-0.38-3.372-1.139-4.352
		C24.975,13.906,23.983,13.413,22.758,13.413z"/>
	
		<linearGradient id="path116782_1_" gradientUnits="userSpaceOnUse" x1="229.6299" y1="-821.6914" x2="262.8722" y2="-821.6914" gradientTransform="matrix(1.0613 0 0 -1.447 -252.4509 -1172.9878)">
		<stop  offset="0" style="stop-color:#B1D2DB"/>
		<stop  offset="1" style="stop-color:#0B7C9E"/>
	</linearGradient>
	<path id="path116782" fill="url(#path116782_1_)" d="M13.041,24.681c-1.062,1.23-2.083,2.099-3.064,2.604
		c-0.981,0.507-2.035,0.761-3.16,0.761c-1.857,0-3.285-0.621-4.283-1.855c-0.997-1.238-1.496-2.82-1.496-4.744
		c0-1.127,0.188-2.159,0.564-3.093c0.377-0.932,0.87-1.682,1.48-2.244c0.611-0.564,1.299-0.992,2.062-1.281
		c0.562-0.204,1.412-0.399,2.548-0.587c2.314-0.375,4.018-0.825,5.11-1.346c0.011-0.534,0.017-0.874,0.017-1.018
		c0-1.593-0.271-2.714-0.813-3.365C11.275,7.63,10.187,7.19,8.744,7.19c-1.347,0-2.342,0.322-2.985,0.965
		C5.116,8.8,4.641,9.94,4.334,11.575l-2.802-0.52c0.251-1.639,0.671-2.959,1.255-3.964C3.371,6.083,4.215,5.31,5.319,4.768
		c1.103-0.541,2.382-0.813,3.837-0.813c1.444,0,2.615,0.233,3.518,0.695c0.902,0.462,1.565,1.044,1.989,1.747
		c0.426,0.702,0.722,1.588,0.892,2.658c0.097,0.667,0.145,1.869,0.145,3.603v5.209c0,3.634,0.061,5.931,0.184,6.894
		c0.122,0.963,0.363,1.884,0.725,2.767h-2.994C13.316,26.714,13.124,25.767,13.041,24.681z M12.802,15.955
		c-1.04,0.58-2.602,1.072-4.681,1.477c-1.179,0.231-2.012,0.49-2.5,0.78s-0.865,0.713-1.13,1.271
		c-0.266,0.557-0.398,1.176-0.398,1.855c0,1.042,0.29,1.912,0.867,2.606c0.578,0.694,1.424,1.041,2.54,1.041
		c1.103,0,2.086-0.329,2.947-0.987c0.858-0.659,1.49-1.561,1.893-2.702c0.307-0.884,0.461-2.186,0.461-3.908L12.802,15.955
		L12.802,15.955z"/>
</g>
</svg>
