<?xml version="1.0" encoding="utf-8"?>
<!-- Generator: Adobe Illustrator 15.0.0, SVG Export Plug-In . SVG Version: 6.00 Build 0)  -->
<!DOCTYPE svg PUBLIC "-//W3C//DTD SVG 1.1//EN" "http://www.w3.org/Graphics/SVG/1.1/DTD/svg11.dtd">
<svg version="1.1"
	 id="svg2" xmlns:dc="http://purl.org/dc/elements/1.1/" xmlns:cc="http://creativecommons.org/ns#" xmlns:rdf="http://www.w3.org/1999/02/22-rdf-syntax-ns#" xmlns:svg="http://www.w3.org/2000/svg" xmlns:sodipodi="http://sodipodi.sourceforge.net/DTD/sodipodi-0.dtd" xmlns:inkscape="http://www.inkscape.org/namespaces/inkscape" inkscape:output_extension="org.inkscape.output.svg.inkscape" sodipodi:docname="selector_presentation2.svg" inkscape:version="0.46" sodipodi:docbase="C:\Radix\dev\trunk\org.radixware\kernel\designer\src\common.resources\src\org\radixware\kernel\designer\resources\icons\ads" sodipodi:version="0.32"
	 xmlns="http://www.w3.org/2000/svg" xmlns:xlink="http://www.w3.org/1999/xlink" x="0px" y="0px" width="32px" height="32px"
	 viewBox="0 0 32 32" enable-background="new 0 0 32 32" xml:space="preserve">
<defs>
	
	
		<inkscape:perspective  id="perspective9745" sodipodi:type="inkscape:persp3d" inkscape:vp_y="0 : 1000 : 0" inkscape:vp_x="0 : 10 : 1" inkscape:vp_z="20 : 10 : 1" inkscape:persp3d-origin="10 : 6.6666667 : 1">
		</inkscape:perspective>
	
		<inkscape:perspective  id="perspective11509" sodipodi:type="inkscape:persp3d" inkscape:vp_y="0 : 1000 : 0" inkscape:vp_x="0 : 16 : 1" inkscape:vp_z="32 : 16 : 1" inkscape:persp3d-origin="16 : 10.666667 : 1">
		</inkscape:perspective>
	
		<inkscape:perspective  id="perspective11612" sodipodi:type="inkscape:persp3d" inkscape:vp_y="0 : 1000 : 0" inkscape:vp_x="0 : 64 : 1" inkscape:vp_z="128 : 64 : 1" inkscape:persp3d-origin="64 : 42.666667 : 1">
		</inkscape:perspective>
	
		<inkscape:perspective  id="perspective11711" sodipodi:type="inkscape:persp3d" inkscape:vp_y="0 : 1000 : 0" inkscape:vp_x="0 : 64 : 1" inkscape:vp_z="128 : 64 : 1" inkscape:persp3d-origin="64 : 42.666667 : 1">
		</inkscape:perspective>
	
		<inkscape:perspective  id="perspective2601" sodipodi:type="inkscape:persp3d" inkscape:vp_y="0 : 1000 : 0" inkscape:vp_x="0 : 16 : 1" inkscape:vp_z="32 : 16 : 1" inkscape:persp3d-origin="16 : 10.666667 : 1">
		</inkscape:perspective>
</defs>
<sodipodi:namedview  id="base" inkscape:cy="28.782782" inkscape:cx="12.264538" inkscape:zoom="9.1488739" showgrid="true" borderopacity="1.0" bordercolor="#000000" pagecolor="#ffffff" inkscape:window-y="-8" inkscape:window-x="-8" inkscape:window-height="944" inkscape:window-width="1280" inkscape:pageshadow="2" inkscape:pageopacity="0.0" inkscape:current-layer="layer1" showguides="true" inkscape:guide-bbox="true" inkscape:document-units="px">
	</sodipodi:namedview>
<g>
	<path d="M0.916,24.042C0.411,24.042,0,23.629,0,23.126V0.917C0,0.412,0.411,0,0.916,0h26.168C27.59,0,28,0.41,28,0.917v22.208
		c0,0.503-0.41,0.918-0.916,0.918L0.916,24.042L0.916,24.042z"/>
	<rect x="0.916" y="0.917" fill="#DAEBF1" width="26.168" height="22.208"/>
	
		<linearGradient id="SVGID_1_" gradientUnits="userSpaceOnUse" x1="561.5566" y1="1743.4277" x2="587.7246" y2="1743.4277" gradientTransform="matrix(1 0 0 1 -560.6406 -1739.4248)">
		<stop  offset="0" style="stop-color:#B0D68C"/>
		<stop  offset="1" style="stop-color:#1E9046"/>
	</linearGradient>
	<rect x="0.916" y="0.917" fill="url(#SVGID_1_)" width="26.168" height="6.173"/>
	<g>
		<rect x="0.916" y="6.591" width="26.168" height="1"/>
	</g>
	<g>
		<rect x="0.916" y="11.871" width="26.168" height="1"/>
	</g>
	<g>
		<rect x="0.916" y="17.675" width="26.168" height="1"/>
	</g>
	<g>
		<rect x="8.873" y="7.105" width="1" height="16.036"/>
	</g>
	<g>
		<rect x="18.186" y="7.135" width="1" height="16.034"/>
	</g>
</g>
<rect id="rect5534" x="9.873" y="7.591" fill="#F9A620" width="8.313" height="4.28"/>
<g>
	<g>
		<path d="M26.503,25.688c-0.321-0.045-0.61-0.215-0.808-0.474l-2.812-3.702l-0.558,1.859c-0.155,0.518-0.633,0.87-1.172,0.87
			c-0.004,0-0.01,0-0.012,0c-0.545-0.007-1.021-0.37-1.168-0.896L16.239,9.897c-0.133-0.482,0.038-1,0.439-1.299
			c0.217-0.167,0.479-0.251,0.737-0.251c0.22,0,0.438,0.06,0.633,0.177l11.953,7.208c0.466,0.284,0.69,0.836,0.55,1.364
			c-0.14,0.524-0.611,0.896-1.156,0.905l-1.938,0.039l2.812,3.7c0.409,0.539,0.303,1.305-0.232,1.713l-2.626,1.992
			c-0.212,0.162-0.474,0.252-0.738,0.252C26.67,25.698,26.559,25.693,26.503,25.688z"/>
		<polygon fill="#FFFFFF" points="29.373,16.779 17.416,9.57 21.156,23.02 22.4,18.855 26.67,24.475 29.296,22.479 25.027,16.863 		
			"/>
	</g>
</g>
<g>
	<path id="path6086_7_" fill="#231F20" d="M6.559,32c-0.09,0-0.18-0.016-0.264-0.046l-5.746-2.04
		c-0.313-0.111-0.523-0.408-0.523-0.74v-7.439c0-0.402,0.305-0.734,0.695-0.778l5.576-1.979c0.084-0.028,0.172-0.045,0.263-0.045
		c0.089,0,0.179,0.017,0.262,0.045l5.644,2.002c0.345,0.092,0.629,0.396,0.629,0.756v7.439c0,0.333-0.209,0.631-0.523,0.74
		l-5.749,2.04C6.736,31.984,6.647,32,6.559,32L6.559,32z"/>
	<polygon id="polygon5202_15_" fill="#AA3C25" points="0.818,21.734 6.566,23.773 6.566,31.214 0.818,29.174 	"/>
	<polygon id="polygon5204_15_" fill="#E9B7AF" points="12.313,21.734 6.566,23.773 6.566,31.214 12.313,29.174 	"/>
	<polygon id="polygon5206_15_" fill="#DF8178" points="12.254,21.734 6.566,19.718 0.879,21.734 0.818,21.734 0.846,21.745 
		0.818,21.756 0.879,21.756 6.566,23.773 12.254,21.756 12.313,21.756 12.285,21.745 12.313,21.734 	"/>
	
		<linearGradient id="polygon6538_1_" gradientUnits="userSpaceOnUse" x1="1283.0996" y1="-2327.3745" x2="1290.0132" y2="-2320.5247" gradientTransform="matrix(0.5772 0 0 -0.5772 -740.0243 -1313.837)">
		<stop  offset="0" style="stop-color:#3A1813"/>
		<stop  offset="1" style="stop-color:#AA3C25;stop-opacity:0"/>
	</linearGradient>
	<polygon id="polygon6538_9_" fill="url(#polygon6538_1_)" points="1.037,22.039 6.364,23.93 6.364,30.825 1.037,28.936 	"/>
	
		<linearGradient id="polygon6548_1_" gradientUnits="userSpaceOnUse" x1="1364.7432" y1="-2417.1274" x2="1356.8866" y2="-2408.6689" gradientTransform="matrix(0.5627 0 0 -0.5627 -755.2587 -1330.0587)">
		<stop  offset="0" style="stop-color:#FDF0ED"/>
		<stop  offset="1" style="stop-color:#E9B7AF;stop-opacity:0"/>
	</linearGradient>
	<polygon id="polygon6548_9_" fill="url(#polygon6548_1_)" points="11.928,22.168 6.732,24.009 6.732,30.732 11.928,28.891 	"/>
	
		<linearGradient id="path6572_1_" gradientUnits="userSpaceOnUse" x1="-4204.6689" y1="3258.2871" x2="-4213.6138" y2="3258.3098" gradientTransform="matrix(0 -0.6226 0.6226 0 -2022.101 -2593.5313)">
		<stop  offset="0" style="stop-color:#FFFFFF"/>
		<stop  offset="1" style="stop-color:#FFFFFF;stop-opacity:0"/>
	</linearGradient>
	<path id="path6572_15_" fill="url(#path6572_1_)" d="M6.18,23.693l0.312,7.382H6.485l0.349-7.485L6.18,23.693L6.18,23.693z"/>
	
		<linearGradient id="path6582_1_" gradientUnits="userSpaceOnUse" x1="-1998.4526" y1="-2606.2476" x2="-2006.0732" y2="-2606.2439" gradientTransform="matrix(-0.5857 0.2112 -0.2112 -0.5857 -1714.0568 -1080.7324)">
		<stop  offset="0" style="stop-color:#FFFFFF"/>
		<stop  offset="1" style="stop-color:#FFFFFF;stop-opacity:0"/>
	</linearGradient>
	<path id="path6582_20_" fill="url(#path6582_1_)" d="M6.586,24.126l5.728-2.392l-6.048,1.813L6.586,24.126z"/>
	
		<linearGradient id="path6586_1_" gradientUnits="userSpaceOnUse" x1="2060.3164" y1="-1142.6362" x2="2052.9836" y2="-1142.6296" gradientTransform="matrix(0.5857 0.2112 0.2112 -0.5857 -959.3715 -1080.7627)">
		<stop  offset="0" style="stop-color:#FFFFFF"/>
		<stop  offset="1" style="stop-color:#FFFFFF;stop-opacity:0"/>
	</linearGradient>
	<path id="path6586_15_" fill="url(#path6586_1_)" d="M6.406,24.1l-5.587-2.365l5.908,1.789L6.406,24.1z"/>
</g>
</svg>
