<?xml version="1.0" encoding="utf-8"?>
<!-- Generator: Adobe Illustrator 14.0.0, SVG Export Plug-In . SVG Version: 6.00 Build 43363)  -->
<!DOCTYPE svg PUBLIC "-//W3C//DTD SVG 1.1//EN" "http://www.w3.org/Graphics/SVG/1.1/DTD/svg11.dtd">
<svg version="1.1"
	 id="svg2" sodipodi:docbase="C:\Radix\dev\trunk\org.radixware\kernel\designer\src\common.resources\src\org\radixware\kernel\designer\resources\icons\ads" sodipodi:docname="xml_scheme2.svg" inkscape:version="0.46" sodipodi:version="0.32" inkscape:output_extension="org.inkscape.output.svg.inkscape" xmlns:dc="http://purl.org/dc/elements/1.1/" xmlns:cc="http://creativecommons.org/ns#" xmlns:rdf="http://www.w3.org/1999/02/22-rdf-syntax-ns#" xmlns:svg="http://www.w3.org/2000/svg" xmlns:sodipodi="http://sodipodi.sourceforge.net/DTD/sodipodi-0.dtd" xmlns:inkscape="http://www.inkscape.org/namespaces/inkscape"
	 xmlns="http://www.w3.org/2000/svg" xmlns:xlink="http://www.w3.org/1999/xlink" x="0px" y="0px" width="32px" height="32px"
	 viewBox="0 0 32 32" enable-background="new 0 0 32 32" xml:space="preserve">
<defs>
	
	
		<inkscape:perspective  id="perspective19" sodipodi:type="inkscape:persp3d" inkscape:vp_z="48 : 24 : 1" inkscape:vp_x="0 : 24 : 1" inkscape:vp_y="0 : 1000 : 0" inkscape:persp3d-origin="24 : 16 : 1">
		</inkscape:perspective>
	
		<inkscape:perspective  id="perspective3236" sodipodi:type="inkscape:persp3d" inkscape:vp_z="32 : 16 : 1" inkscape:vp_x="0 : 16 : 1" inkscape:vp_y="0 : 1000 : 0" inkscape:persp3d-origin="16 : 10.666667 : 1">
		</inkscape:perspective>
</defs>
<sodipodi:namedview  id="base" pagecolor="#ffffff" bordercolor="#000000" borderopacity="1.0" showgrid="true" inkscape:zoom="11" inkscape:cx="27.55765" inkscape:cy="13.636364" inkscape:current-layer="layer1" inkscape:pageopacity="0.0" inkscape:pageshadow="2" inkscape:window-width="1280" inkscape:window-height="944" inkscape:window-x="-8" inkscape:window-y="-8" inkscape:document-units="px">
	</sodipodi:namedview>
<g>
	<g>
		<path id="path4993_5_" fill="#020303" d="M3.477,28.736C1.559,28.736,0,27.055,0,24.988V7.012C0,6.031,0.348,5.104,0.98,4.4
			c0.66-0.732,1.545-1.137,2.5-1.137h25.047c1.916,0,3.473,1.68,3.473,3.748v17.977c0,2.066-1.557,3.748-3.473,3.748H3.477z"/>
		<path id="rect26074_5_" fill="#FFFFFF" d="M3.477,4.311h25.047c1.344,0,2.428,1.203,2.428,2.701v17.977
			c0,1.496-1.084,2.701-2.428,2.701H3.477c-1.348,0-2.431-1.205-2.431-2.701V7.012C1.045,5.518,2.129,4.311,3.477,4.311z"/>
		
			<linearGradient id="SVGID_1_" gradientUnits="userSpaceOnUse" x1="590.7461" y1="-924.2231" x2="567.8217" y2="-908.4738" gradientTransform="matrix(1 0 0 -1 -560.6201 -898.5195)">
			<stop  offset="0" style="stop-color:#020202;stop-opacity:0.21"/>
			<stop  offset="1" style="stop-color:#020202;stop-opacity:0"/>
		</linearGradient>
		<path fill="url(#SVGID_1_)" d="M3.477,26.643c-0.764,0-1.384-0.742-1.384-1.654V7.012c0-0.914,0.62-1.656,1.384-1.656h25.047
			c0.762,0,1.381,0.742,1.381,1.656v17.977c0,0.912-0.621,1.654-1.381,1.654H3.477z"/>
		
			<linearGradient id="path26098_1_" gradientUnits="userSpaceOnUse" x1="1882.9111" y1="-3643.9941" x2="1882.9111" y2="-3641.1462" gradientTransform="matrix(1 0 0 -1 -1866.9141 -3636.1836)">
			<stop  offset="0" style="stop-color:#2D61AB"/>
			<stop  offset="1" style="stop-color:#B1D5F0"/>
		</linearGradient>
		<path id="path26098_5_" fill="url(#path26098_1_)" d="M3.49,4.311c-1.346,0-2.455,1.109-2.455,2.453v1.047h29.924V6.764
			c0-1.344-1.109-2.453-2.455-2.453H3.49z"/>
	</g>
	<g display="none">
		<rect x="11.965" y="8.805" display="inline" fill="#020202" width="0.805" height="14.596"/>
		<line display="inline" fill="none" stroke="#020202" stroke-width="0.75" x1="12.161" y1="17.408" x2="22.619" y2="17.408"/>
		<line display="inline" fill="none" stroke="#020202" stroke-width="0.75" x1="11.965" y1="23.783" x2="23.117" y2="23.783"/>
		<path id="path175_24_" display="inline" fill="#020202" d="M20.924,20.334c-1.611,0-2.922-1.313-2.922-2.924
			c0-1.613,1.311-2.926,2.922-2.926c1.613,0,2.926,1.313,2.926,2.926C23.85,19.02,22.537,20.334,20.924,20.334L20.924,20.334z"/>
		<circle id="circle177_24_" display="inline" fill="#ED2C29" cx="20.924" cy="17.409" r="2.507"/>
		
			<linearGradient id="path186_1_" gradientUnits="userSpaceOnUse" x1="1146.8086" y1="-1725.6074" x2="1142.6328" y2="-1725.6074" gradientTransform="matrix(1 0 0 -1 -1123.7002 -1708.1992)">
			<stop  offset="0" style="stop-color:#F4959A"/>
			<stop  offset="1" style="stop-color:#901D1E"/>
		</linearGradient>
		<path id="path186_24_" display="inline" fill="url(#path186_1_)" d="M20.924,19.498c-1.15,0-2.086-0.938-2.086-2.088
			c0-1.152,0.936-2.09,2.086-2.09c1.152,0,2.09,0.938,2.09,2.09C23.014,18.561,22.076,19.498,20.924,19.498L20.924,19.498z"/>
		<path id="path175_23_" display="inline" fill="#020202" d="M20.924,26.836c-1.611,0-2.922-1.313-2.922-2.924
			c0-1.613,1.311-2.924,2.922-2.924c1.613,0,2.926,1.311,2.926,2.924C23.85,25.521,22.537,26.836,20.924,26.836L20.924,26.836z"/>
		<circle id="circle177_23_" display="inline" fill="#73BE46" cx="20.924" cy="23.911" r="2.507"/>
		
			<linearGradient id="path186_2_" gradientUnits="userSpaceOnUse" x1="1146.7129" y1="-1732.1094" x2="1142.5371" y2="-1732.1094" gradientTransform="matrix(1 0 0 -1 -1123.7002 -1708.1992)">
			<stop  offset="0" style="stop-color:#AED58A"/>
			<stop  offset="1" style="stop-color:#219046"/>
		</linearGradient>
		<path id="path186_23_" display="inline" fill="url(#path186_2_)" d="M20.924,26c-1.15,0-2.086-0.938-2.086-2.088
			c0-1.152,0.936-2.09,2.086-2.09c1.152,0,2.09,0.938,2.09,2.09C23.014,25.063,22.076,26,20.924,26L20.924,26z"/>
		<path display="inline" fill="#231F20" d="M8.594,13.689c-0.244,0-0.443-0.199-0.443-0.445V8.805c0-0.246,0.199-0.443,0.443-0.443
			h7.549c0.246,0,0.444,0.197,0.444,0.443v4.438c0,0.246-0.198,0.445-0.444,0.445L8.594,13.689L8.594,13.689z"/>
		<rect x="8.594" y="8.805" display="inline" fill="#FAA91E" width="7.549" height="4.438"/>
		
			<linearGradient id="SVGID_2_" gradientUnits="userSpaceOnUse" x1="6.5781" y1="-99.8643" x2="13.2393" y2="-99.8643" gradientTransform="matrix(1 0 0 -1 2.46 -88.8398)">
			<stop  offset="0" style="stop-color:#A5692A"/>
			<stop  offset="0.5394" style="stop-color:#FAA91E"/>
			<stop  offset="1" style="stop-color:#FFF3E2"/>
		</linearGradient>
		<rect x="9.038" y="9.248" display="inline" fill="url(#SVGID_2_)" width="6.661" height="3.553"/>
	</g>
</g>
<g enable-background="new    ">
	<path d="M3.601,13.166h2.61l1.357,2.359l1.321-2.359h2.584l-2.387,3.713l2.612,3.955H9.037l-1.515-2.463l-1.515,2.463H3.36
		l2.646-3.996L3.601,13.166z"/>
	<path d="M12.432,13.166h3.116l1.202,4.667l1.193-4.667h3.114v7.668h-1.94v-5.848l-1.495,5.848h-1.758l-1.492-5.848v5.848h-1.94
		V13.166z"/>
	<path d="M22.571,13.166h2.369v5.78h3.699v1.889h-6.068V13.166z"/>
</g>
</svg>
