<?xml version="1.0" encoding="utf-8"?>
<!-- Generator: Adobe Illustrator 14.0.0, SVG Export Plug-In . SVG Version: 6.00 Build 43363)  -->
<!DOCTYPE svg PUBLIC "-//W3C//DTD SVG 1.1//EN" "http://www.w3.org/Graphics/SVG/1.1/DTD/svg11.dtd">
<svg version="1.1" id="Layer_1" xmlns="http://www.w3.org/2000/svg" xmlns:xlink="http://www.w3.org/1999/xlink" x="0px" y="0px"
	 width="32px" height="32px" viewBox="0 0 32 32" enable-background="new 0 0 32 32" xml:space="preserve">
<path id="path4760" fill="#010101" d="M17.865,31.146c-1.316,0-2.389-1.072-2.389-2.39V3.242c0-1.315,1.07-2.389,2.389-2.389h11.746
	C30.928,0.854,32,1.926,32,3.242v25.516c0,1.315-1.07,2.389-2.389,2.389H17.865L17.865,31.146z"/>
<linearGradient id="rect24553_2_" gradientUnits="userSpaceOnUse" x1="577.0967" y1="-912.3311" x2="591.6201" y2="-912.3311" gradientTransform="matrix(1 0 0 -1 -560.6201 -896.5195)">
	<stop  offset="0" style="stop-color:#BFDDED"/>
	<stop  offset="0.0164" style="stop-color:#B7D3E3"/>
	<stop  offset="0.043" style="stop-color:#A3BCC9"/>
	<stop  offset="0.0667" style="stop-color:#8CA2B0"/>
	<stop  offset="0.5455" style="stop-color:#BFDDED"/>
	<stop  offset="0.5614" style="stop-color:#C3DDED"/>
	<stop  offset="0.6708" style="stop-color:#DAEBF4"/>
	<stop  offset="0.7715" style="stop-color:#ECF7FA"/>
	<stop  offset="0.8545" style="stop-color:#F1F9FB"/>
	<stop  offset="0.8593" style="stop-color:#EFF8FB"/>
	<stop  offset="0.8965" style="stop-color:#E8F6F9"/>
	<stop  offset="1" style="stop-color:#E7F5F9"/>
</linearGradient>
<path id="rect24553_1_" fill="url(#rect24553_2_)" d="M17.865,1.665h11.746c0.768,0,1.389,0.622,1.389,1.39v25.514
	c0,0.767-0.621,1.39-1.389,1.39H17.865c-0.77,0-1.389-0.623-1.389-1.39V3.054C16.477,2.287,17.098,1.665,17.865,1.665z"/>
<linearGradient id="rect24579_1_" gradientUnits="userSpaceOnUse" x1="592.751" y1="829.4365" x2="580.7275" y2="829.4365" gradientTransform="matrix(1 0 0 1 -563.0801 -809.6797)">
	<stop  offset="0" style="stop-color:#BFDDED"/>
	<stop  offset="0.0164" style="stop-color:#B7D3E3"/>
	<stop  offset="0.043" style="stop-color:#A3BCC9"/>
	<stop  offset="0.0667" style="stop-color:#8CA2B0"/>
	<stop  offset="0.5455" style="stop-color:#BFDDED"/>
	<stop  offset="0.5614" style="stop-color:#C3DDED"/>
	<stop  offset="0.6708" style="stop-color:#DAEBF4"/>
	<stop  offset="0.7715" style="stop-color:#ECF7FA"/>
	<stop  offset="0.8545" style="stop-color:#F1F9FB"/>
	<stop  offset="0.8593" style="stop-color:#EFF8FB"/>
	<stop  offset="0.8965" style="stop-color:#E8F6F9"/>
	<stop  offset="1" style="stop-color:#E7F5F9"/>
</linearGradient>
<path id="rect24579_3_" fill="url(#rect24579_1_)" d="M19.324,10.821h8.828c0.877,0,1.586,0.71,1.586,1.586v14.702
	c0,0.875-0.709,1.584-1.586,1.584h-8.828c-0.877,0-1.586-0.709-1.586-1.584V12.407C17.738,11.531,18.447,10.821,19.324,10.821z"/>
<linearGradient id="rect24583_1_" gradientUnits="userSpaceOnUse" x1="592.501" y1="813.792" x2="581.1676" y2="813.792" gradientTransform="matrix(1 0 0 1 -563.0801 -809.6797)">
	<stop  offset="0" style="stop-color:#BFDDED"/>
	<stop  offset="0.0164" style="stop-color:#B7D3E3"/>
	<stop  offset="0.043" style="stop-color:#A3BCC9"/>
	<stop  offset="0.0667" style="stop-color:#8CA2B0"/>
	<stop  offset="0.5455" style="stop-color:#BFDDED"/>
	<stop  offset="0.5614" style="stop-color:#C3DDED"/>
	<stop  offset="0.6708" style="stop-color:#DAEBF4"/>
	<stop  offset="0.7715" style="stop-color:#ECF7FA"/>
	<stop  offset="0.8545" style="stop-color:#F1F9FB"/>
	<stop  offset="0.8593" style="stop-color:#EFF8FB"/>
	<stop  offset="0.8965" style="stop-color:#E8F6F9"/>
	<stop  offset="1" style="stop-color:#E7F5F9"/>
</linearGradient>
<path id="rect24583_3_" fill="url(#rect24583_1_)" d="M19.127,2.612h9.223c0.769,0,1.39,0.622,1.39,1.389v0.224
	c0,0.768-0.621,1.389-1.39,1.389h-9.223c-0.768,0-1.389-0.621-1.389-1.389V4C17.738,3.234,18.359,2.612,19.127,2.612z"/>
<linearGradient id="rect24585_1_" gradientUnits="userSpaceOnUse" x1="592.501" y1="817.8486" x2="581.1676" y2="817.8486" gradientTransform="matrix(1 0 0 1 -563.0801 -809.6797)">
	<stop  offset="0" style="stop-color:#BFDDED"/>
	<stop  offset="0.0164" style="stop-color:#B7D3E3"/>
	<stop  offset="0.043" style="stop-color:#A3BCC9"/>
	<stop  offset="0.0667" style="stop-color:#8CA2B0"/>
	<stop  offset="0.5455" style="stop-color:#BFDDED"/>
	<stop  offset="0.5614" style="stop-color:#C3DDED"/>
	<stop  offset="0.6708" style="stop-color:#DAEBF4"/>
	<stop  offset="0.7715" style="stop-color:#ECF7FA"/>
	<stop  offset="0.8545" style="stop-color:#F1F9FB"/>
	<stop  offset="0.8593" style="stop-color:#EFF8FB"/>
	<stop  offset="0.8965" style="stop-color:#E8F6F9"/>
	<stop  offset="1" style="stop-color:#E7F5F9"/>
</linearGradient>
<path id="rect24585_3_" fill="url(#rect24585_1_)" d="M19.127,6.668h9.223c0.769,0,1.39,0.622,1.39,1.39V8.28
	c0,0.769-0.621,1.389-1.39,1.389h-9.223c-0.768,0-1.389-0.62-1.389-1.389V8.058C17.738,7.291,18.359,6.668,19.127,6.668z"/>
<path id="path24587_3_" fill="#335629" d="M29.043,12.905c0,0.661-0.537,1.2-1.199,1.2s-1.201-0.537-1.201-1.199v-0.001
	c0-0.662,0.537-1.199,1.199-1.2C28.506,11.704,29.043,12.241,29.043,12.905L29.043,12.905z"/>
<path id="path24589_9_" fill="#EC2727" d="M29.043,15.999c0,0.663-0.537,1.202-1.199,1.202s-1.201-0.539-1.201-1.2v-0.002
	c0-0.663,0.537-1.199,1.199-1.199C28.506,14.8,29.043,15.336,29.043,15.999L29.043,15.999z"/>
<linearGradient id="path4874_1_" gradientUnits="userSpaceOnUse" x1="590.2227" y1="825.6777" x2="591.6221" y2="825.6777" gradientTransform="matrix(1 0 0 1 -563.0801 -809.6797)">
	<stop  offset="0" style="stop-color:#F6979A"/>
	<stop  offset="1" style="stop-color:#901A1D"/>
</linearGradient>
<path id="path4874" fill="url(#path4874_1_)" d="M27.846,16.697c-0.388,0-0.703-0.313-0.703-0.696c0-0.39,0.313-0.701,0.699-0.701
	c0.389,0,0.7,0.313,0.7,0.699C28.543,16.385,28.23,16.697,27.846,16.697L27.846,16.697L27.846,16.697z"/>
<linearGradient id="path4882_1_" gradientUnits="userSpaceOnUse" x1="590.2227" y1="822.502" x2="591.6221" y2="822.502" gradientTransform="matrix(1 0 0 1 -563.0801 -809.6797)">
	<stop  offset="0" style="stop-color:#B2D78E"/>
	<stop  offset="1" style="stop-color:#219146"/>
</linearGradient>
<path id="path4882" fill="url(#path4882_1_)" d="M27.846,13.521c-0.388,0-0.703-0.313-0.703-0.698c0-0.389,0.313-0.701,0.699-0.701
	c0.389,0,0.7,0.313,0.7,0.699C28.543,13.207,28.23,13.521,27.846,13.521L27.846,13.521L27.846,13.521z"/>
<path id="path4735" fill="#010101" d="M12.867,32c-0.707,0-1.342-0.42-1.617-1.07l-0.271-0.639l-0.26,0.645
	c-0.05,0.121-0.123,0.23-0.215,0.324l-0.406,0.412c-0.186,0.188-0.438,0.296-0.701,0.299c0,0-0.582,0.006-0.586,0.006
	c-0.127,0-0.256-0.023-0.375-0.072L5.145,30.57c-0.666-0.271-1.094-0.91-1.094-1.627c0-0.232,0.045-0.459,0.133-0.67l0.254-0.629
	L4,27.83c-0.191,0.082-0.318,0.127-0.318,0.127c-0.09,0.025-0.182,0.039-0.274,0.039l-0.576,0.002c-0.26,0-0.513-0.104-0.698-0.285
	L1.719,27.31c-0.095-0.093-0.17-0.203-0.222-0.324l-1.385-3.271c-0.052-0.121-0.078-0.252-0.078-0.385L0.03,22.754
	c0-0.266,0.103-0.52,0.286-0.707l0.404-0.411c0.092-0.095,0.202-0.168,0.323-0.22l0.64-0.271c-0.317-0.13-0.594-0.24-0.633-0.257
	c-0.125-0.05-0.242-0.124-0.34-0.222l-0.408-0.402c-0.188-0.186-0.293-0.438-0.297-0.701L0,18.986
	c-0.001-0.133,0.023-0.264,0.072-0.385l1.332-3.293c0.049-0.119,0.121-0.23,0.213-0.324l0.404-0.412
	c0.186-0.188,0.438-0.299,0.703-0.301c0,0,0.586-0.007,0.59-0.007c0.129,0,0.258,0.024,0.377,0.073l0.639,0.261
	c0,0-0.286-0.681-0.287-0.683c-0.037-0.099-0.059-0.2-0.063-0.306c-0.215-0.379-0.162-0.866,0.156-1.19l0.532-0.541
	c0.093-0.094,0.201-0.168,0.322-0.219l3.269-1.386c0.223-0.093,0.448-0.139,0.682-0.139c0.707,0,1.344,0.422,1.617,1.073
	l0.271,0.637l0.264-0.646c0.271-0.666,0.91-1.096,1.627-1.096c0.226,0,0.445,0.043,0.654,0.127l3.293,1.334
	c0.666,0.271,1.096,0.91,1.096,1.627c0,0.227-0.045,0.446-0.131,0.658l-0.26,0.643l0.639-0.271c0.12-0.054,0.252-0.079,0.383-0.079
	c0,0,0.584-0.005,0.586-0.005c0.261,0,0.513,0.103,0.697,0.284l0.412,0.402c0.096,0.092,0.172,0.202,0.223,0.323L21.7,18.42
	c0.053,0.123,0.08,0.254,0.08,0.388l0.002,0.573c0,0.265-0.103,0.517-0.287,0.703l-0.403,0.412c-0.092,0.095-0.201,0.17-0.322,0.222
	l-0.641,0.271l0.641,0.26c0.119,0.049,0.229,0.121,0.322,0.211l0.414,0.402c0.19,0.188,0.299,0.439,0.303,0.707l0.006,0.578
	c0.002,0.133-0.022,0.264-0.072,0.385l-1.332,3.293c-0.275,0.668-0.914,1.096-1.629,1.096c-0.227,0-0.444-0.043-0.652-0.127
	l-0.646-0.262c0.15,0.354,0.279,0.66,0.281,0.662c0.047,0.117,0.07,0.242,0.07,0.367l0.002,0.568
	c0.001,0.264-0.102,0.516-0.285,0.703l-0.406,0.414c-0.092,0.095-0.2,0.17-0.323,0.222l-3.269,1.388
	C13.33,31.953,13.102,32,12.867,32L12.867,32z M8.471,28.81l0.403-0.994c0.153-0.383,0.522-0.627,0.927-0.627
	c0.035,0,0.07,0.002,0.105,0.006l0.33,0.035c0.225,0.022,0.447,0.036,0.67,0.036c0.254,0,0.508-0.018,0.756-0.049l0.34-0.041
	c0.041-0.006,0.081-0.008,0.121-0.008c0.396,0,0.764,0.236,0.92,0.609l0.419,0.99c0.378-0.16,0.815-0.348,1.194-0.508
	c-0.209-0.49-0.42-0.988-0.42-0.988c-0.174-0.41-0.055-0.889,0.295-1.168l0.26-0.209c0.369-0.297,0.708-0.641,1.005-1.021l0.2-0.258
	c0.193-0.252,0.488-0.39,0.791-0.39c0.127,0,0.254,0.022,0.375,0.071l0.996,0.404c0.148-0.371,0.486-1.205,0.486-1.205l-0.994-0.402
	c-0.414-0.168-0.668-0.59-0.619-1.032l0.035-0.33c0.023-0.228,0.035-0.442,0.035-0.662c0-0.254-0.015-0.508-0.047-0.758
	l-0.043-0.334c-0.06-0.444,0.188-0.873,0.602-1.05l0.992-0.42l-0.508-1.196l-0.988,0.42c-0.127,0.054-0.26,0.078-0.391,0.078
	c-0.298,0-0.588-0.133-0.781-0.375l-0.207-0.259c-0.301-0.37-0.646-0.709-1.021-1.002l-0.26-0.202
	c-0.354-0.272-0.481-0.75-0.313-1.166l0.403-0.994l-1.203-0.487l-0.403,0.998c-0.152,0.379-0.521,0.622-0.926,0.622
	c-0.035,0-0.068-0.002-0.105-0.004l-0.332-0.034c-0.225-0.024-0.446-0.037-0.67-0.037c-0.254,0-0.51,0.016-0.766,0.045l-0.316,0.043
	c-0.045,0.006-0.088,0.009-0.133,0.009c-0.396,0-0.762-0.235-0.92-0.608l-0.418-0.99c-0.379,0.16-0.816,0.346-1.195,0.508
	l0.42,0.988c0.174,0.412,0.054,0.891-0.297,1.172l-0.26,0.207c-0.373,0.301-0.709,0.644-1.002,1.018l-0.197,0.259
	c-0.195,0.252-0.49,0.392-0.793,0.392c-0.125,0-0.252-0.023-0.375-0.074l-0.996-0.402c0,0-0.336,0.836-0.486,1.203
	c0.492,0.199,0.994,0.402,0.994,0.402c0.416,0.168,0.668,0.592,0.619,1.035l-0.035,0.332c-0.023,0.217-0.036,0.438-0.036,0.661
	c0,0.259,0.017,0.517,0.047,0.771l0.041,0.328c0.056,0.441-0.19,0.869-0.603,1.043l-0.988,0.418c0.162,0.38,0.346,0.814,0.507,1.193
	c0.489-0.207,0.987-0.42,0.987-0.42c0.127-0.054,0.261-0.08,0.393-0.08c0.297,0,0.586,0.135,0.779,0.375l0.209,0.262
	c0.299,0.373,0.641,0.709,1.014,0.998l0.264,0.201c0.354,0.274,0.484,0.752,0.315,1.168L7.27,28.322L8.471,28.81z"/>
<path id="path1817_1_" fill="#FFFFFF" d="M17.453,19.293c0.104,0.668,0.113,1.354,0.018,2.045l0.744,0.303
	c0.049-0.583,0.027-1.164-0.061-1.732l1.926-0.814l-1.385-3.271l-0.482,0.203l1.059,2.496L17.453,19.293z"/>
<path id="path1819_1_" fill="#FFFFFF" d="M16.212,24.44c-0.407,0.563-0.894,1.056-1.435,1.459l0.77,1.82l-3.08,1.305l-0.771-1.817
	c-0.67,0.104-1.359,0.112-2.049,0.02l-0.742,1.829l-2.711-1.099l-0.393,0.971l3.289,1.333l0.788-1.94
	c0.729,0.104,1.46,0.094,2.171-0.02l0.815,1.928l3.269-1.384l-0.816-1.929c0.574-0.433,1.092-0.95,1.521-1.547l1.94,0.785
	l1.332-3.289l-0.972-0.395l-1.096,2.711L16.212,24.44L16.212,24.44z"/>
<path id="path1821_1_" fill="#FFFFFF" d="M5.085,24.531l-1.819,0.771l-1.054-2.494L1.73,23.013l1.384,3.269l1.928-0.815
	c0.345,0.461,0.75,0.878,1.201,1.25l0.303-0.746C5.982,25.557,5.492,25.072,5.085,24.531z"/>
<linearGradient id="path1830_2_" gradientUnits="userSpaceOnUse" x1="-464.6372" y1="-168.6782" x2="-463.7566" y2="-168.6782" gradientTransform="matrix(5.1929 22.7877 -22.7877 5.1929 -1421.9938 11476.9277)">
	<stop  offset="0" style="stop-color:#F7F8FC"/>
	<stop  offset="0.5773" style="stop-color:#F9E6A5"/>
	<stop  offset="1" style="stop-color:#F7F8F7"/>
</linearGradient>
<path id="path1830_1_" fill="url(#path1830_2_)" d="M3.641,20.024c-0.071,0.505-0.086,1.011-0.055,1.507
	c0.016,0.223,0.035,0.444,0.07,0.666l-1.444,0.609l1.054,2.494l1.819-0.771c0.407,0.541,0.897,1.024,1.459,1.438L6.24,26.713
	c0.115,0.093,0.229,0.187,0.347,0.271l-0.394,0.974l2.711,1.099l0.74-1.829c0.689,0.094,1.379,0.088,2.049-0.02l0.771,1.817
	l3.081-1.305l-0.771-1.82c0.543-0.403,1.029-0.896,1.437-1.459l1.833,0.741l1.096-2.711l-0.971-0.393
	c0.021-0.146,0.032-0.293,0.045-0.438l-0.744-0.302c0.098-0.688,0.086-1.377-0.019-2.047l1.817-0.771l-1.059-2.494l-1.445,0.612
	c-0.133-0.18-0.279-0.348-0.428-0.514c-0.335-0.368-0.707-0.709-1.117-1.01l0.785-1.939l-3.287-1.331l-0.787,1.94
	c-0.731-0.104-1.463-0.094-2.17,0.017l-0.818-1.927l-0.094,0.039L5.766,13.22l-0.094,0.039l0.818,1.93
	c-0.575,0.433-1.09,0.95-1.521,1.547l-1.94-0.784L1.93,18.662L1.696,19.24L3.641,20.024L3.641,20.024z M9.816,23.74
	c-1.078-0.437-1.748-1.447-1.807-2.539c-0.021-0.408,0.041-0.832,0.205-1.24c0.602-1.48,2.293-2.199,3.776-1.598
	c0.405,0.163,0.754,0.413,1.032,0.715c0.744,0.799,1.005,1.983,0.568,3.062C12.992,23.625,11.303,24.342,9.816,23.74z"/>
<path id="path4750" fill="#010101" d="M13.902,22.258c0.666-1.643-0.131-3.521-1.774-4.186c-1.644-0.666-3.521,0.129-4.187,1.772
	c-0.664,1.641,0.131,3.521,1.772,4.187C11.359,24.697,13.236,23.901,13.902,22.258L13.902,22.258z M13.32,22.021
	c-0.537,1.324-2.047,1.961-3.369,1.429c-1.322-0.535-1.963-2.048-1.428-3.369c0.533-1.321,2.047-1.961,3.369-1.429
	C13.213,19.188,13.854,20.699,13.32,22.021z"/>
<path id="path1834_1_" fill="#FBCD36" d="M13.885,22.26c0.666-1.645-0.131-3.52-1.774-4.186s-3.519,0.127-4.185,1.771
	s0.129,3.521,1.771,4.188C11.344,24.697,13.221,23.901,13.885,22.26z M13.303,22.022c-0.537,1.323-2.047,1.961-3.369,1.427
	c-1.321-0.535-1.961-2.048-1.426-3.369c0.533-1.32,2.045-1.961,3.367-1.426C13.197,19.19,13.837,20.701,13.303,22.022z"/>
<path id="path1838_1_" fill="#FBCD36" d="M13.176,30.94l3.269-1.387l0.405-0.416l-0.004-0.568c0-0.002-0.412-0.972-0.617-1.454
	c0.295-0.261,0.567-0.535,0.824-0.836c0.383,0.153,1.461,0.592,1.461,0.592c0.385,0.153,0.824-0.033,0.982-0.416l1.33-3.291
	l-0.006-0.578l-0.414-0.404c0,0-0.945-0.385-1.438-0.582c0.012-0.178,0.029-0.354,0.029-0.527c0-0.221-0.023-0.439-0.044-0.658
	c0.396-0.17,1.435-0.608,1.435-0.608l0.406-0.412l-0.004-0.574l-1.386-3.271l-0.412-0.401l-0.58,0.004c0,0-1.067,0.453-1.45,0.615
	c-0.259-0.296-0.535-0.568-0.833-0.822c0.156-0.384,0.591-1.461,0.591-1.461c0.039-0.095,0.057-0.189,0.057-0.281
	c0-0.299-0.18-0.582-0.469-0.701l-3.293-1.334c-0.385-0.153-0.822,0.031-0.98,0.418c0,0-0.385,0.949-0.584,1.441
	c-0.395-0.025-0.791-0.021-1.188,0.01c-0.168-0.396-0.608-1.43-0.608-1.43c-0.16-0.384-0.603-0.563-0.986-0.404l-3.271,1.388
	l-0.403,0.409L4.87,13.127L4.993,13l0.004,0.572c0.002,0.004,0.414,0.975,0.617,1.455c-0.293,0.258-0.567,0.537-0.82,0.836
	c-0.385-0.154-1.463-0.595-1.463-0.595l-0.577,0.007L2.35,15.688L1.018,18.98l0.006,0.578l0.408,0.4c0,0,0.949,0.386,1.44,0.584
	c-0.012,0.176-0.028,0.354-0.028,0.527c0,0.223,0.022,0.44,0.041,0.661c-0.396,0.17-1.435,0.606-1.435,0.606l-0.403,0.41
	l0.004,0.576l1.383,3.271l0.412,0.403l0.575-0.002c0.003-0.002,0.972-0.414,1.456-0.617c0.26,0.295,0.538,0.568,0.835,0.82
	C5.559,27.584,5.12,28.66,5.12,28.66c-0.037,0.094-0.056,0.189-0.056,0.283c0,0.299,0.179,0.582,0.472,0.701l3.291,1.332
	l0.576-0.007l0.405-0.412c0,0,0.422-1.036,0.584-1.438c0.398,0.025,0.793,0.021,1.188-0.012c0.169,0.396,0.607,1.434,0.607,1.434
	C12.35,30.92,12.793,31.101,13.176,30.94L13.176,30.94z M9.691,28.496c0,0-0.572,1.412-0.652,1.612
	c-0.209-0.084-2.85-1.151-3.057-1.235c0.119-0.295,0.777-1.924,0.777-1.924l-0.265-0.205c-0.435-0.336-0.834-0.729-1.183-1.164
	l-0.209-0.261c0,0-1.707,0.728-1.909,0.813c-0.087-0.204-1.197-2.83-1.287-3.038c0.295-0.125,1.907-0.81,1.907-0.81l-0.041-0.33
	c-0.034-0.295-0.055-0.594-0.055-0.891c0-0.259,0.017-0.516,0.043-0.771l0.035-0.33c0,0-1.721-0.694-1.922-0.778
	c0.087-0.209,1.152-2.849,1.238-3.056c0.299,0.119,1.924,0.777,1.924,0.777l0.201-0.264c0.345-0.439,0.734-0.837,1.166-1.184
	l0.26-0.207c0,0-0.725-1.713-0.811-1.911c0.195-0.082,2.828-1.198,3.035-1.287c0.125,0.296,0.813,1.909,0.813,1.909l0.33-0.043
	c0.553-0.064,1.113-0.068,1.66-0.01l0.33,0.034c0,0,0.697-1.721,0.777-1.924c0.211,0.084,2.85,1.152,3.059,1.237
	c-0.119,0.296-0.779,1.925-0.779,1.925l0.266,0.202c0.435,0.339,0.832,0.729,1.185,1.165l0.207,0.26c0,0,1.706-0.726,1.911-0.812
	c0.091,0.213,1.199,2.832,1.287,3.039c-0.283,0.117-1.914,0.812-1.914,0.812l0.043,0.328c0.039,0.294,0.058,0.592,0.058,0.891
	c0,0.257-0.015,0.513-0.043,0.771l-0.033,0.33c0,0,1.72,0.695,1.92,0.777c-0.086,0.211-1.151,2.85-1.235,3.057
	c-0.203-0.08-1.922-0.777-1.922-0.777l-0.205,0.264c-0.342,0.439-0.73,0.84-1.162,1.185l-0.262,0.209c0,0,0.723,1.708,0.811,1.909
	c-0.207,0.086-2.828,1.199-3.037,1.287c-0.125-0.295-0.809-1.912-0.809-1.912l-0.332,0.041c-0.543,0.068-1.103,0.074-1.658,0.016
	L9.82,28.187L9.691,28.496L9.691,28.496z"/>
<path id="path1834_5_" fill="#010101" d="M13.209,21.983c0.514-1.271-0.102-2.722-1.373-3.235c-1.27-0.517-2.721,0.1-3.236,1.371
	C8.085,21.39,8.7,22.842,9.971,23.354C11.242,23.869,12.695,23.254,13.209,21.983z M12.76,21.803
	c-0.416,1.021-1.584,1.516-2.604,1.104c-1.022-0.414-1.519-1.584-1.104-2.604c0.413-1.021,1.582-1.519,2.604-1.104
	S13.172,20.779,12.76,21.803z"/>
</svg>
