<?xml version="1.0" encoding="UTF-8" standalone="no"?>
<!-- Generator: Adobe Illustrator 14.0.0, SVG Export Plug-In . SVG Version: 6.00 Build 43363)  -->

<svg
   xmlns:dc="http://purl.org/dc/elements/1.1/"
   xmlns:cc="http://creativecommons.org/ns#"
   xmlns:rdf="http://www.w3.org/1999/02/22-rdf-syntax-ns#"
   xmlns:svg="http://www.w3.org/2000/svg"
   xmlns="http://www.w3.org/2000/svg"
   xmlns:xlink="http://www.w3.org/1999/xlink"
   xmlns:sodipodi="http://sodipodi.sourceforge.net/DTD/sodipodi-0.dtd"
   xmlns:inkscape="http://www.inkscape.org/namespaces/inkscape"
   version="1.1"
   id="Layer_1"
   x="0px"
   y="0px"
   width="32px"
   height="32px"
   viewBox="0 0 32 32"
   enable-background="new 0 0 32 32"
   xml:space="preserve"
   inkscape:version="0.47pre4 "
   sodipodi:docname="misc.svg"><metadata
   id="metadata6204"><rdf:RDF><cc:Work
       rdf:about=""><dc:format>image/svg+xml</dc:format><dc:type
         rdf:resource="http://purl.org/dc/dcmitype/StillImage" /></cc:Work></rdf:RDF></metadata><defs
   id="defs6202"><inkscape:perspective
   sodipodi:type="inkscape:persp3d"
   inkscape:vp_x="0 : 16 : 1"
   inkscape:vp_y="0 : 1000 : 0"
   inkscape:vp_z="32 : 16 : 1"
   inkscape:persp3d-origin="16 : 10.666667 : 1"
   id="perspective6206" />
	
	
<linearGradient
   inkscape:collect="always"
   xlink:href="#polygon6538_2_"
   id="linearGradient6288"
   gradientUnits="userSpaceOnUse"
   gradientTransform="matrix(0.7013,0,0,0.7013,-353.4597,-1472.5182)"
   x1="411.7533"
   y1="372.70081"
   x2="420.54379"
   y2="363.99109" /><linearGradient
   inkscape:collect="always"
   xlink:href="#polygon6548_2_"
   id="linearGradient6290"
   gradientUnits="userSpaceOnUse"
   gradientTransform="matrix(0.6837,0,0,0.6837,-361.8761,-1489.6691)"
   x1="462.0054"
   y1="408.59052"
   x2="452.01761"
   y2="397.83759" /><linearGradient
   inkscape:collect="always"
   xlink:href="#path6572_2_"
   id="linearGradient6292"
   gradientUnits="userSpaceOnUse"
   gradientTransform="matrix(0,-0.7564,-0.7564,0,-1399.6555,-2492.1265)"
   x1="-1682.8497"
   y1="-1776.9893"
   x2="-1694.2255"
   y2="-1777.0182" /><linearGradient
   inkscape:collect="always"
   xlink:href="#path6582_2_"
   id="linearGradient6294"
   gradientUnits="userSpaceOnUse"
   gradientTransform="matrix(-0.7116,0.2566,0.2566,0.7116,-778.1237,-1335.626)"
   x1="-847.52612"
   y1="467.85629"
   x2="-857.21637"
   y2="467.85172" /><linearGradient
   inkscape:collect="always"
   xlink:href="#path6586_2_"
   id="linearGradient6296"
   gradientUnits="userSpaceOnUse"
   gradientTransform="matrix(0.7116,0.2566,-0.2566,0.7116,-586.7371,-1335.6627)"
   x1="711.42078"
   y1="-94.370399"
   x2="702.09601"
   y2="-94.3787" /><linearGradient
   inkscape:collect="always"
   xlink:href="#polygon6686_2_"
   id="linearGradient6298"
   gradientUnits="userSpaceOnUse"
   gradientTransform="matrix(0.7013,0,0,0.7013,-369.559,-1472.4441)"
   x1="408.9675"
   y1="372.59521"
   x2="417.75729"
   y2="363.88611" /><linearGradient
   inkscape:collect="always"
   xlink:href="#polygon6688_2_"
   id="linearGradient6300"
   gradientUnits="userSpaceOnUse"
   gradientTransform="matrix(0.6837,0,0,0.6837,-377.9748,-1489.5955)"
   x1="459.1413"
   y1="408.48019"
   x2="449.15359"
   y2="397.72729" /><linearGradient
   inkscape:collect="always"
   xlink:href="#path6690_2_"
   id="linearGradient6302"
   gradientUnits="userSpaceOnUse"
   gradientTransform="matrix(0,-0.7564,-0.7564,0,-1415.7549,-2492.053)"
   x1="-1682.7524"
   y1="-1774.4045"
   x2="-1694.1277"
   y2="-1774.4336" /><linearGradient
   inkscape:collect="always"
   xlink:href="#path6692_2_"
   id="linearGradient6304"
   gradientUnits="userSpaceOnUse"
   gradientTransform="matrix(-0.7116,0.2566,0.2566,0.7116,-794.2217,-1335.5524)"
   x1="-845.12817"
   y1="466.88571"
   x2="-854.81897"
   y2="466.8811" /><linearGradient
   inkscape:collect="always"
   xlink:href="#path6694_2_"
   id="linearGradient6306"
   gradientUnits="userSpaceOnUse"
   gradientTransform="matrix(0.7116,0.2566,-0.2566,0.7116,-602.8358,-1335.588)"
   x1="708.95422"
   y1="-93.584999"
   x2="699.63013"
   y2="-93.593102" /><linearGradient
   inkscape:collect="always"
   xlink:href="#polygon6714_2_"
   id="linearGradient6308"
   gradientUnits="userSpaceOnUse"
   gradientTransform="matrix(0.7013,0,0,0.7013,-361.3759,-1459.3121)"
   x1="410.15991"
   y1="332.34509"
   x2="418.94901"
   y2="323.63681" /><linearGradient
   inkscape:collect="always"
   xlink:href="#polygon6716_2_"
   id="linearGradient6310"
   gradientUnits="userSpaceOnUse"
   gradientTransform="matrix(0.6837,0,0,0.6837,-369.7923,-1476.4635)"
   x1="460.35861"
   y1="367.1908"
   x2="450.3717"
   y2="356.43881" /><linearGradient
   inkscape:collect="always"
   xlink:href="#path6718_2_"
   id="linearGradient6312"
   gradientUnits="userSpaceOnUse"
   gradientTransform="matrix(0,-0.7564,-0.7564,0,-1407.5729,-2478.9209)"
   x1="-1645.4299"
   y1="-1775.5079"
   x2="-1656.8063"
   y2="-1775.537" /><linearGradient
   inkscape:collect="always"
   xlink:href="#path6720_2_"
   id="linearGradient6314"
   gradientUnits="userSpaceOnUse"
   gradientTransform="matrix(-0.7116,0.2566,0.2566,0.7116,-786.0434,-1322.4205)"
   x1="-858.82672"
   y1="432.1575"
   x2="-868.51532"
   y2="432.15289" /><linearGradient
   inkscape:collect="always"
   xlink:href="#path6722_2_"
   id="linearGradient6316"
   gradientUnits="userSpaceOnUse"
   gradientTransform="matrix(0.7116,0.2566,-0.2566,0.7116,-594.6544,-1322.4561)"
   x1="697.33142"
   y1="-129.063"
   x2="688.00958"
   y2="-129.0712" />
		
		
		
	
		
		
		
	
			
		
			
		
			
		<linearGradient
   inkscape:collect="always"
   xlink:href="#polygon6714_2_"
   id="linearGradient6399"
   gradientUnits="userSpaceOnUse"
   gradientTransform="matrix(0.7013,0,0,0.7013,-361.3759,-1459.3121)"
   x1="410.15991"
   y1="332.34509"
   x2="418.94901"
   y2="323.63681" /><linearGradient
   inkscape:collect="always"
   xlink:href="#polygon6716_2_"
   id="linearGradient6401"
   gradientUnits="userSpaceOnUse"
   gradientTransform="matrix(0.6837,0,0,0.6837,-369.7923,-1476.4635)"
   x1="460.35861"
   y1="367.1908"
   x2="450.3717"
   y2="356.43881" /><linearGradient
   inkscape:collect="always"
   xlink:href="#path6718_2_"
   id="linearGradient6403"
   gradientUnits="userSpaceOnUse"
   gradientTransform="matrix(0,-0.7564,-0.7564,0,-1407.5729,-2478.9209)"
   x1="-1645.4299"
   y1="-1775.5079"
   x2="-1656.8063"
   y2="-1775.537" /><linearGradient
   inkscape:collect="always"
   xlink:href="#path6720_2_"
   id="linearGradient6405"
   gradientUnits="userSpaceOnUse"
   gradientTransform="matrix(-0.7116,0.2566,0.2566,0.7116,-786.0434,-1322.4205)"
   x1="-858.82672"
   y1="432.1575"
   x2="-868.51532"
   y2="432.15289" /><linearGradient
   inkscape:collect="always"
   xlink:href="#path6722_2_"
   id="linearGradient6407"
   gradientUnits="userSpaceOnUse"
   gradientTransform="matrix(0.7116,0.2566,-0.2566,0.7116,-594.6544,-1322.4561)"
   x1="697.33142"
   y1="-129.063"
   x2="688.00958"
   y2="-129.0712" />
			
			
			
			
				<linearGradient
   gradientTransform="matrix(0.7013,0,0,0.7013,-361.3759,-1459.3121)"
   y2="323.63681"
   x2="418.94901"
   y1="332.34509"
   x1="410.15991"
   gradientUnits="userSpaceOnUse"
   id="polygon6714_2_">
				<stop
   id="stop6171"
   style="stop-color:#0E293B"
   offset="0" />
				<stop
   id="stop6173"
   style="stop-color:#2A76A8;stop-opacity:0"
   offset="1" />
			</linearGradient>
			
			
				<linearGradient
   gradientTransform="matrix(0.6837,0,0,0.6837,-369.7923,-1476.4635)"
   y2="356.43881"
   x2="450.3717"
   y1="367.1908"
   x1="460.35861"
   gradientUnits="userSpaceOnUse"
   id="polygon6716_2_">
				<stop
   id="stop6177"
   style="stop-color:#EBF7FE"
   offset="0" />
				<stop
   id="stop6179"
   style="stop-color:#B3D7ED;stop-opacity:0"
   offset="1" />
			</linearGradient>
			
			
				<linearGradient
   gradientTransform="matrix(0,-0.7564,-0.7564,0,-1407.5729,-2478.9209)"
   y2="-1775.537"
   x2="-1656.8063"
   y1="-1775.5079"
   x1="-1645.4299"
   gradientUnits="userSpaceOnUse"
   id="path6718_2_">
				<stop
   id="stop6183"
   style="stop-color:#FFFFFF"
   offset="0" />
				<stop
   id="stop6185"
   style="stop-color:#FFFFFF;stop-opacity:0"
   offset="1" />
			</linearGradient>
			
			
				<linearGradient
   gradientTransform="matrix(-0.7116,0.2566,0.2566,0.7116,-786.0434,-1322.4205)"
   y2="432.15289"
   x2="-868.51532"
   y1="432.1575"
   x1="-858.82672"
   gradientUnits="userSpaceOnUse"
   id="path6720_2_">
				<stop
   id="stop6189"
   style="stop-color:#FFFFFF"
   offset="0" />
				<stop
   id="stop6191"
   style="stop-color:#FFFFFF;stop-opacity:0"
   offset="1" />
			</linearGradient>
			
			
				<linearGradient
   gradientTransform="matrix(0.7116,0.2566,-0.2566,0.7116,-594.6544,-1322.4561)"
   y2="-129.0712"
   x2="688.00958"
   y1="-129.063"
   x1="697.33142"
   gradientUnits="userSpaceOnUse"
   id="path6722_2_">
				<stop
   id="stop6195"
   style="stop-color:#FFFFFF"
   offset="0" />
				<stop
   id="stop6197"
   style="stop-color:#FFFFFF;stop-opacity:0"
   offset="1" />
			</linearGradient>
			
		<linearGradient
   inkscape:collect="always"
   xlink:href="#path6722_2_"
   id="linearGradient6425"
   gradientUnits="userSpaceOnUse"
   gradientTransform="matrix(0.58570169,0.21120159,-0.21120159,0.58570169,-420.36773,-64.248671)"
   x1="697.33142"
   y1="-129.063"
   x2="688.00958"
   y2="-129.0712" /><linearGradient
   inkscape:collect="always"
   xlink:href="#path6720_2_"
   id="linearGradient6428"
   gradientUnits="userSpaceOnUse"
   gradientTransform="matrix(-0.58570169,0.21120159,0.21120159,0.58570169,-577.89564,-64.21937)"
   x1="-858.82672"
   y1="432.1575"
   x2="-868.51532"
   y2="432.15289" /><linearGradient
   inkscape:collect="always"
   xlink:href="#path6718_2_"
   id="linearGradient6431"
   gradientUnits="userSpaceOnUse"
   gradientTransform="matrix(0,-0.62257554,-0.62257554,0,-1089.4624,-1016.1084)"
   x1="-1645.4299"
   y1="-1775.5079"
   x2="-1656.8063"
   y2="-1775.537" /><linearGradient
   inkscape:collect="always"
   xlink:href="#polygon6686_2_"
   id="linearGradient6438"
   gradientUnits="userSpaceOnUse"
   gradientTransform="matrix(0.7013,0,0,0.7013,-369.559,-1472.4441)"
   x1="408.9675"
   y1="372.59521"
   x2="417.75729"
   y2="363.88611" /><linearGradient
   inkscape:collect="always"
   xlink:href="#polygon6688_2_"
   id="linearGradient6440"
   gradientUnits="userSpaceOnUse"
   gradientTransform="matrix(0.6837,0,0,0.6837,-377.9748,-1489.5955)"
   x1="459.1413"
   y1="408.48019"
   x2="449.15359"
   y2="397.72729" /><linearGradient
   inkscape:collect="always"
   xlink:href="#path6690_2_"
   id="linearGradient6442"
   gradientUnits="userSpaceOnUse"
   gradientTransform="matrix(0,-0.7564,-0.7564,0,-1415.7549,-2492.053)"
   x1="-1682.7524"
   y1="-1774.4045"
   x2="-1694.1277"
   y2="-1774.4336" /><linearGradient
   inkscape:collect="always"
   xlink:href="#path6692_2_"
   id="linearGradient6444"
   gradientUnits="userSpaceOnUse"
   gradientTransform="matrix(-0.7116,0.2566,0.2566,0.7116,-794.2217,-1335.5524)"
   x1="-845.12817"
   y1="466.88571"
   x2="-854.81897"
   y2="466.8811" /><linearGradient
   inkscape:collect="always"
   xlink:href="#path6694_2_"
   id="linearGradient6446"
   gradientUnits="userSpaceOnUse"
   gradientTransform="matrix(0.7116,0.2566,-0.2566,0.7116,-602.8358,-1335.588)"
   x1="708.95422"
   y1="-93.584999"
   x2="699.63013"
   y2="-93.593102" />
			
			
			
			
				<linearGradient
   gradientTransform="matrix(0.7013,0,0,0.7013,-369.559,-1472.4441)"
   y2="363.88611"
   x2="417.75729"
   y1="372.59521"
   x1="408.9675"
   gradientUnits="userSpaceOnUse"
   id="polygon6686_2_">
				<stop
   id="stop6137"
   style="stop-color:#293C1E"
   offset="0" />
				<stop
   id="stop6139"
   style="stop-color:#60A845;stop-opacity:0"
   offset="1" />
			</linearGradient>
			
			
				<linearGradient
   gradientTransform="matrix(0.6837,0,0,0.6837,-377.9748,-1489.5955)"
   y2="397.72729"
   x2="449.15359"
   y1="408.48019"
   x1="459.1413"
   gradientUnits="userSpaceOnUse"
   id="polygon6688_2_">
				<stop
   id="stop6143"
   style="stop-color:#F3F8EC"
   offset="0" />
				<stop
   id="stop6145"
   style="stop-color:#CDE4B2;stop-opacity:0"
   offset="1" />
			</linearGradient>
			
			
				<linearGradient
   gradientTransform="matrix(0,-0.7564,-0.7564,0,-1415.7549,-2492.053)"
   y2="-1774.4336"
   x2="-1694.1277"
   y1="-1774.4045"
   x1="-1682.7524"
   gradientUnits="userSpaceOnUse"
   id="path6690_2_">
				<stop
   id="stop6149"
   style="stop-color:#FFFFFF"
   offset="0" />
				<stop
   id="stop6151"
   style="stop-color:#FFFFFF;stop-opacity:0"
   offset="1" />
			</linearGradient>
			
			
				<linearGradient
   gradientTransform="matrix(-0.7116,0.2566,0.2566,0.7116,-794.2217,-1335.5524)"
   y2="466.8811"
   x2="-854.81897"
   y1="466.88571"
   x1="-845.12817"
   gradientUnits="userSpaceOnUse"
   id="path6692_2_">
				<stop
   id="stop6155"
   style="stop-color:#FFFFFF"
   offset="0" />
				<stop
   id="stop6157"
   style="stop-color:#FFFFFF;stop-opacity:0"
   offset="1" />
			</linearGradient>
			
			
				<linearGradient
   gradientTransform="matrix(0.7116,0.2566,-0.2566,0.7116,-602.8358,-1335.588)"
   y2="-93.593102"
   x2="699.63013"
   y1="-93.584999"
   x1="708.95422"
   gradientUnits="userSpaceOnUse"
   id="path6694_2_">
				<stop
   id="stop6161"
   style="stop-color:#FFFFFF"
   offset="0" />
				<stop
   id="stop6163"
   style="stop-color:#FFFFFF;stop-opacity:0"
   offset="1" />
			</linearGradient>
			
		<linearGradient
   inkscape:collect="always"
   xlink:href="#path6694_2_"
   id="linearGradient6464"
   gradientUnits="userSpaceOnUse"
   gradientTransform="matrix(0.58570169,0.21120159,-0.21120159,0.58570169,-427.10166,-75.057238)"
   x1="708.95422"
   y1="-93.584999"
   x2="699.63013"
   y2="-93.593102" /><linearGradient
   inkscape:collect="always"
   xlink:href="#path6692_2_"
   id="linearGradient6467"
   gradientUnits="userSpaceOnUse"
   gradientTransform="matrix(-0.58570169,0.21120159,0.21120159,0.58570169,-584.62701,-75.027936)"
   x1="-845.12817"
   y1="466.88571"
   x2="-854.81897"
   y2="466.8811" /><linearGradient
   inkscape:collect="always"
   xlink:href="#path6690_2_"
   id="linearGradient6470"
   gradientUnits="userSpaceOnUse"
   gradientTransform="matrix(0,-0.62257554,-0.62257554,0,-1096.1968,-1026.9171)"
   x1="-1682.7524"
   y1="-1774.4045"
   x2="-1694.1277"
   y2="-1774.4336" /><linearGradient
   inkscape:collect="always"
   xlink:href="#polygon6538_2_"
   id="linearGradient6477"
   gradientUnits="userSpaceOnUse"
   gradientTransform="matrix(0.7013,0,0,0.7013,-353.4597,-1472.5182)"
   x1="411.7533"
   y1="372.70081"
   x2="420.54379"
   y2="363.99109" /><linearGradient
   inkscape:collect="always"
   xlink:href="#polygon6548_2_"
   id="linearGradient6479"
   gradientUnits="userSpaceOnUse"
   gradientTransform="matrix(0.6837,0,0,0.6837,-361.8761,-1489.6691)"
   x1="462.0054"
   y1="408.59052"
   x2="452.01761"
   y2="397.83759" /><linearGradient
   inkscape:collect="always"
   xlink:href="#path6572_2_"
   id="linearGradient6481"
   gradientUnits="userSpaceOnUse"
   gradientTransform="matrix(0,-0.7564,-0.7564,0,-1399.6555,-2492.1265)"
   x1="-1682.8497"
   y1="-1776.9893"
   x2="-1694.2255"
   y2="-1777.0182" /><linearGradient
   inkscape:collect="always"
   xlink:href="#path6582_2_"
   id="linearGradient6483"
   gradientUnits="userSpaceOnUse"
   gradientTransform="matrix(-0.7116,0.2566,0.2566,0.7116,-778.1237,-1335.626)"
   x1="-847.52612"
   y1="467.85629"
   x2="-857.21637"
   y2="467.85172" /><linearGradient
   inkscape:collect="always"
   xlink:href="#path6586_2_"
   id="linearGradient6485"
   gradientUnits="userSpaceOnUse"
   gradientTransform="matrix(0.7116,0.2566,-0.2566,0.7116,-586.7371,-1335.6627)"
   x1="711.42078"
   y1="-94.370399"
   x2="702.09601"
   y2="-94.3787" />
			
			
			
			
				<linearGradient
   gradientTransform="matrix(0.7013,0,0,0.7013,-353.4597,-1472.5182)"
   y2="363.99109"
   x2="420.54379"
   y1="372.70081"
   x1="411.7533"
   gradientUnits="userSpaceOnUse"
   id="polygon6538_2_">
				<stop
   id="stop6103"
   style="stop-color:#3A1712"
   offset="0" />
				<stop
   id="stop6105"
   style="stop-color:#AA3A25;stop-opacity:0"
   offset="1" />
			</linearGradient>
			
			
				<linearGradient
   gradientTransform="matrix(0.6837,0,0,0.6837,-361.8761,-1489.6691)"
   y2="397.83759"
   x2="452.01761"
   y1="408.59052"
   x1="462.0054"
   gradientUnits="userSpaceOnUse"
   id="polygon6548_2_">
				<stop
   id="stop6109"
   style="stop-color:#FEF1ED"
   offset="0" />
				<stop
   id="stop6111"
   style="stop-color:#EBBAB1;stop-opacity:0"
   offset="1" />
			</linearGradient>
			
			
				<linearGradient
   gradientTransform="matrix(0,-0.7564,-0.7564,0,-1399.6555,-2492.1265)"
   y2="-1777.0182"
   x2="-1694.2255"
   y1="-1776.9893"
   x1="-1682.8497"
   gradientUnits="userSpaceOnUse"
   id="path6572_2_">
				<stop
   id="stop6115"
   style="stop-color:#FFFFFF"
   offset="0" />
				<stop
   id="stop6117"
   style="stop-color:#FFFFFF;stop-opacity:0"
   offset="1" />
			</linearGradient>
			
			
				<linearGradient
   gradientTransform="matrix(-0.7116,0.2566,0.2566,0.7116,-778.1237,-1335.626)"
   y2="467.85172"
   x2="-857.21637"
   y1="467.85629"
   x1="-847.52612"
   gradientUnits="userSpaceOnUse"
   id="path6582_2_">
				<stop
   id="stop6121"
   style="stop-color:#FFFFFF"
   offset="0" />
				<stop
   id="stop6123"
   style="stop-color:#FFFFFF;stop-opacity:0"
   offset="1" />
			</linearGradient>
			
			
				<linearGradient
   gradientTransform="matrix(0.7116,0.2566,-0.2566,0.7116,-586.7371,-1335.6627)"
   y2="-94.3787"
   x2="702.09601"
   y1="-94.370399"
   x1="711.42078"
   gradientUnits="userSpaceOnUse"
   id="path6586_2_">
				<stop
   id="stop6127"
   style="stop-color:#FFFFFF"
   offset="0" />
				<stop
   id="stop6129"
   style="stop-color:#FFFFFF;stop-opacity:0"
   offset="1" />
			</linearGradient>
			
		<linearGradient
   inkscape:collect="always"
   xlink:href="#path6586_2_"
   id="linearGradient6503"
   gradientUnits="userSpaceOnUse"
   gradientTransform="matrix(0.58570169,0.21120159,-0.21120159,0.58570169,-413.85118,-75.118722)"
   x1="711.42078"
   y1="-94.370399"
   x2="702.09601"
   y2="-94.3787" /><linearGradient
   inkscape:collect="always"
   xlink:href="#path6582_2_"
   id="linearGradient6506"
   gradientUnits="userSpaceOnUse"
   gradientTransform="matrix(-0.58570169,0.21120159,0.21120159,0.58570169,-571.37712,-75.088515)"
   x1="-847.52612"
   y1="467.85629"
   x2="-857.21637"
   y2="467.85172" /><linearGradient
   inkscape:collect="always"
   xlink:href="#path6572_2_"
   id="linearGradient6509"
   gradientUnits="userSpaceOnUse"
   gradientTransform="matrix(0,-0.62257554,-0.62257554,0,-1082.9457,-1026.9776)"
   x1="-1682.8497"
   y1="-1776.9893"
   x2="-1694.2255"
   y2="-1777.0182" /></defs><sodipodi:namedview
   pagecolor="#ffffff"
   bordercolor="#666666"
   borderopacity="1"
   objecttolerance="10"
   gridtolerance="10"
   guidetolerance="10"
   inkscape:pageopacity="0"
   inkscape:pageshadow="2"
   inkscape:window-width="640"
   inkscape:window-height="481"
   id="namedview6200"
   showgrid="false"
   inkscape:zoom="7.375"
   inkscape:cx="16"
   inkscape:cy="16"
   inkscape:window-x="0"
   inkscape:window-y="0"
   inkscape:window-maximized="0"
   inkscape:current-layer="Layer_1" />
<path
   style="fill:#231f20"
   id="path6086"
   d="m 23.43,30.521 c -0.113,0 -0.227,-0.02 -0.335,-0.058 l -7.306,-2.594 c -0.399,-0.142 -0.666,-0.52 -0.666,-0.942 v -9.459 c 0,-0.513 0.387,-0.936 0.885,-0.993 l 7.088,-2.514 c 0.107,-0.039 0.221,-0.058 0.334,-0.058 0.113,0 0.227,0.019 0.334,0.058 l 7.175,2.544 c 0.438,0.118 0.8,0.505 0.8,0.963 v 9.459 c 0,0.424 -0.267,0.801 -0.666,0.942 l -7.309,2.594 c -0.108,0.039 -0.221,0.058 -0.334,0.058 l 0,0 z" /><path
   style="fill:#231f20"
   id="path6090"
   d="m 8.57,30.521 c -0.113,0 -0.226,-0.02 -0.334,-0.058 L 0.927,27.87 C 0.528,27.728 0.261,27.351 0.261,26.928 v -9.459 c 0,-0.514 0.387,-0.937 0.886,-0.994 l 7.088,-2.513 c 0.108,-0.039 0.221,-0.058 0.334,-0.058 0.113,0 0.226,0.019 0.334,0.058 l 7.175,2.544 c 0.438,0.118 0.799,0.505 0.799,0.963 v 9.459 c 0,0.423 -0.267,0.801 -0.666,0.942 l -7.308,2.594 c -0.107,0.038 -0.22,0.057 -0.333,0.057 l 0,0 z" /><path
   style="fill:#231f20"
   id="path6094"
   d="m 15.991,18.096 c -0.113,0 -0.226,-0.02 -0.334,-0.058 L 8.348,15.444 C 7.949,15.302 7.682,14.925 7.682,14.502 V 5.045 c 0,-0.317 0.15,-0.616 0.405,-0.804 0.14,-0.103 0.302,-0.167 0.47,-0.188 l 7.1,-2.517 c 0.108,-0.039 0.221,-0.058 0.334,-0.058 0.113,0 0.226,0.019 0.334,0.058 l 7.178,2.545 c 0.437,0.121 0.796,0.508 0.796,0.963 v 9.457 c 0,0.423 -0.267,0.801 -0.666,0.942 l -7.308,2.594 c -0.108,0.039 -0.221,0.059 -0.334,0.059 l 0,0 z" /><polygon
   style="fill:#aa3a25"
   points="-64.328,-1223.173 -55.45,-1220.023 -55.45,-1208.53 -64.328,-1211.681 "
   id="polygon5202_1_"
   transform="matrix(0.82307713,0,0,0.82307713,69.078704,1024.2347)" /><polygon
   style="fill:#ebbab1"
   points="-46.572,-1223.173 -55.45,-1220.023 -55.45,-1208.53 -46.572,-1211.681 "
   id="polygon5204_1_"
   transform="matrix(0.82307713,0,0,0.82307713,69.078704,1024.2347)" /><polygon
   style="fill:#e18378"
   points="-46.662,-1223.173 -55.45,-1226.29 -64.237,-1223.173 -64.328,-1223.173 -64.285,-1223.158 -64.328,-1223.141 -64.237,-1223.14 -55.45,-1220.023 -46.662,-1223.14 -46.572,-1223.141 -46.615,-1223.158 -46.572,-1223.173 "
   id="polygon5206_1_"
   transform="matrix(0.82307713,0,0,0.82307713,69.078704,1024.2347)" /><polygon
   style="fill:url(#linearGradient6477)"
   points="-63.993,-1222.705 -55.76,-1219.782 -55.76,-1209.13 -63.993,-1212.049 "
   id="polygon6538_1_"
   transform="matrix(0.82307713,0,0,0.82307713,69.078704,1024.2347)" /><polygon
   style="fill:url(#linearGradient6479)"
   points="-47.168,-1222.505 -55.193,-1219.66 -55.193,-1209.275 -47.168,-1212.12 "
   id="polygon6548_1_"
   transform="matrix(0.82307713,0,0,0.82307713,69.078704,1024.2347)" /><path
   style="fill:url(#linearGradient6509)"
   d="m 22.946877,19.959609 0.396723,9.386372 h -0.0058 l 0.441169,-9.518887 -0.832131,0.132515 z"
   nodetypes="ccccc"
   id="path6572_1_" /><path
   style="fill:url(#linearGradient6506)"
   d="m 23.464593,20.510248 7.28094,-3.042093 -7.689187,2.305439 0.408247,0.736654 z"
   nodetypes="ccccc"
   id="path6582_1_" /><path
   style="fill:url(#linearGradient6503)"
   d="m 23.2366,20.474855 -7.104802,-3.005877 7.513048,2.272516 -0.408246,0.733361 z"
   nodetypes="ccccc"
   id="path6586_1_" /><polygon
   style="fill:#60a845"
   points="-82.384,-1223.173 -73.505,-1220.023 -73.505,-1208.53 -82.384,-1211.681 "
   id="polygon6680_1_"
   transform="matrix(0.82307713,0,0,0.82307713,69.078704,1024.2347)" /><polygon
   style="fill:#cde4b2"
   points="-64.625,-1223.173 -73.505,-1220.023 -73.505,-1208.53 -64.625,-1211.681 "
   id="polygon6682_1_"
   transform="matrix(0.82307713,0,0,0.82307713,69.078704,1024.2347)" /><polygon
   style="fill:#aad279"
   points="-64.718,-1223.173 -73.505,-1226.29 -82.292,-1223.173 -82.384,-1223.173 -82.339,-1223.158 -82.384,-1223.141 -82.292,-1223.14 -73.505,-1220.023 -64.718,-1223.14 -64.625,-1223.141 -64.671,-1223.158 -64.625,-1223.173 "
   id="polygon6684_1_"
   transform="matrix(0.82307713,0,0,0.82307713,69.078704,1024.2347)" /><polygon
   style="fill:url(#linearGradient6438)"
   points="-82.047,-1222.702 -73.816,-1219.782 -73.816,-1209.13 -82.047,-1212.049 "
   id="polygon6686_1_"
   transform="matrix(0.82307713,0,0,0.82307713,69.078704,1024.2347)" /><polygon
   style="fill:url(#linearGradient6440)"
   points="-65.224,-1222.505 -73.248,-1219.66 -73.248,-1209.275 -65.224,-1212.12 "
   id="polygon6688_1_"
   transform="matrix(0.82307713,0,0,0.82307713,69.078704,1024.2347)" /><path
   style="fill:url(#linearGradient6470)"
   d="m 8.0870425,19.959609 0.3959001,9.386372 h -0.00494 l 0.4387002,-9.518887 -0.8296618,0.132515 z"
   nodetypes="ccccc"
   id="path6690_1_" /><path
   style="fill:url(#linearGradient6467)"
   d="m 8.6022888,20.510248 7.2850552,-3.042093 -7.6908322,2.305439 0.405777,0.736654 z"
   nodetypes="ccccc"
   id="path6692_1_" /><path
   style="fill:url(#linearGradient6464)"
   d="M 8.3751195,20.474855 1.2694946,17.468978 8.7825427,19.741494 8.3751195,20.474855 z"
   nodetypes="ccccc"
   id="path6694_1_" /><polygon
   style="fill:#277aa9"
   points="-73.368,-1238.268 -64.489,-1235.119 -64.489,-1223.628 -73.368,-1226.778 "
   id="polygon6708_1_"
   transform="matrix(0.82307713,0,0,0.82307713,69.078704,1024.2347)" /><polygon
   style="fill:#b2cfeb"
   points="-55.611,-1238.268 -64.489,-1235.119 -64.489,-1223.628 -55.611,-1226.778 "
   id="polygon6710_1_"
   transform="matrix(0.82307713,0,0,0.82307713,69.078704,1024.2347)" /><polygon
   style="fill:#7bb9e1"
   points="-55.703,-1238.271 -64.489,-1241.387 -73.276,-1238.271 -73.368,-1238.268 -73.322,-1238.254 -73.368,-1238.238 -73.276,-1238.235 -64.489,-1235.119 -55.703,-1238.235 -55.611,-1238.238 -55.656,-1238.254 -55.611,-1238.268 "
   id="polygon6712_1_"
   transform="matrix(0.82307713,0,0,0.82307713,69.078704,1024.2347)" /><polygon
   style="fill:url(#linearGradient6399)"
   points="-73.03,-1237.799 -64.798,-1234.88 -64.798,-1224.227 -73.03,-1227.148 "
   id="polygon6714_1_"
   transform="matrix(0.82307713,0,0,0.82307713,69.078704,1024.2347)" /><polygon
   style="fill:url(#linearGradient6401)"
   points="-56.209,-1237.602 -64.232,-1234.757 -64.232,-1224.372 -56.209,-1227.217 "
   id="polygon6716_1_"
   transform="matrix(0.82307713,0,0,0.82307713,69.078704,1024.2347)" /><path
   style="fill:url(#linearGradient6431)"
   d="m 15.507906,7.5344367 0.395077,9.3855483 h -0.0041 l 0.440346,-9.5188868 -0.831308,0.1333385 z"
   nodetypes="ccccc"
   id="path6718_1_" /><path
   style="fill:url(#linearGradient6428)"
   d="m 16.024798,8.0850753 7.282587,-3.0404469 -7.689187,2.3037929 0.4066,0.736654 z"
   nodetypes="ccccc"
   id="path6720_1_" /><path
   style="fill:url(#linearGradient6425)"
   d="M 15.797629,8.0505061 8.690358,5.0454515 16.202583,7.3154982 15.797629,8.0505061 z"
   nodetypes="ccccc"
   id="path6722_1_" />
</svg>