<?xml version="1.0" encoding="utf-8"?>
<!-- Generator: Adobe Illustrator 14.0.0, SVG Export Plug-In . SVG Version: 6.00 Build 43363)  -->
<!DOCTYPE svg PUBLIC "-//W3C//DTD SVG 1.1//EN" "http://www.w3.org/Graphics/SVG/1.1/DTD/svg11.dtd">
<svg version="1.1"
	 id="svg2" sodipodi:docname="constructor_private.svg" inkscape:version="0.47 r22583" sodipodi:version="0.32" inkscape:output_extension="org.inkscape.output.svg.inkscape" xmlns:dc="http://purl.org/dc/elements/1.1/" xmlns:cc="http://creativecommons.org/ns#" xmlns:rdf="http://www.w3.org/1999/02/22-rdf-syntax-ns#" xmlns:svg="http://www.w3.org/2000/svg" xmlns:sodipodi="http://sodipodi.sourceforge.net/DTD/sodipodi-0.dtd" xmlns:inkscape="http://www.inkscape.org/namespaces/inkscape"
	 xmlns="http://www.w3.org/2000/svg" xmlns:xlink="http://www.w3.org/1999/xlink" x="0px" y="0px" width="32px" height="32px"
	 viewBox="0 0 32 32" enable-background="new 0 0 32 32" xml:space="preserve">
<linearGradient id="rect3870_2_" gradientUnits="userSpaceOnUse" x1="616.4697" y1="-4688.6426" x2="594.9297" y2="-4688.6426" gradientTransform="matrix(1.0208 0 0 -0.2736 -605.1596 -1279.9448)">
	<stop  offset="0" style="stop-color:#6B4200"/>
	<stop  offset="0.2996" style="stop-color:#6E4402;stop-opacity:0.7004"/>
	<stop  offset="0.5383" style="stop-color:#784B09;stop-opacity:0.4617"/>
	<stop  offset="0.7559" style="stop-color:#895615;stop-opacity:0.2441"/>
	<stop  offset="0.9599" style="stop-color:#A06625;stop-opacity:0.0401"/>
	<stop  offset="1" style="stop-color:#A66A29;stop-opacity:0"/>
</linearGradient>
<rect id="rect3870_1_" x="-0.006" y="0" opacity="0.5" fill="url(#rect3870_2_)" enable-background="new    " width="20.107" height="5.736"/>
<linearGradient id="rect3872_2_" gradientUnits="userSpaceOnUse" x1="365.7529" y1="-1877.7803" x2="356.0927" y2="-1877.7803" gradientTransform="matrix(1.4465 0 0 -0.7523 -511.9229 -1401.5011)">
	<stop  offset="0" style="stop-color:#6B4200"/>
	<stop  offset="0.2996" style="stop-color:#6E4402;stop-opacity:0.7004"/>
	<stop  offset="0.5383" style="stop-color:#784B09;stop-opacity:0.4617"/>
	<stop  offset="0.7559" style="stop-color:#895615;stop-opacity:0.2441"/>
	<stop  offset="0.9599" style="stop-color:#A06625;stop-opacity:0.0401"/>
	<stop  offset="1" style="stop-color:#A66A29;stop-opacity:0"/>
</linearGradient>
<rect id="rect3872_1_" x="-0.004" y="4.66" opacity="0.5" fill="url(#rect3872_2_)" enable-background="new    " width="14.686" height="12.988"/>
<linearGradient id="rect3874_2_" gradientUnits="userSpaceOnUse" x1="668.6104" y1="-763.8369" x2="640.3174" y2="-763.8369" gradientTransform="matrix(0.9632 0 0 -2.3944 -617.4583 -1810.3048)">
	<stop  offset="0" style="stop-color:#6B4200"/>
	<stop  offset="0.2996" style="stop-color:#6E4402;stop-opacity:0.7004"/>
	<stop  offset="0.5383" style="stop-color:#784B09;stop-opacity:0.4617"/>
	<stop  offset="0.7559" style="stop-color:#895615;stop-opacity:0.2441"/>
	<stop  offset="0.9599" style="stop-color:#A06625;stop-opacity:0.0401"/>
	<stop  offset="1" style="stop-color:#A66A29;stop-opacity:0"/>
</linearGradient>
<rect id="rect3874_1_" x="-0.006" y="14.198" opacity="0.5" fill="url(#rect3874_2_)" enable-background="new    " width="20.107" height="8.866"/>
<path d="M31.988,9.477c-0.002-0.038-0.006-0.072-0.012-0.107c-0.01-0.049-0.021-0.097-0.035-0.143
	c-0.012-0.034-0.023-0.066-0.037-0.099c-0.021-0.045-0.045-0.088-0.072-0.129c-0.018-0.028-0.035-0.06-0.059-0.086
	c-0.031-0.041-0.07-0.077-0.109-0.113c-0.02-0.018-0.033-0.04-0.055-0.056L20.635,0.21C20.455,0.072,20.24,0,20.021,0
	c-0.109,0-0.219,0.018-0.324,0.055l-0.521,0.18L8.914,3.731C8.726,3.794,8.566,3.917,8.449,4.069
	C8.432,4.09,8.422,4.113,8.406,4.133C8.382,4.168,8.359,4.202,8.338,4.24C8.315,4.281,8.297,4.323,8.279,4.368
	C8.264,4.409,8.252,4.45,8.242,4.493C8.236,4.514,8.225,4.534,8.221,4.556c-0.004,0.026,0,0.053-0.002,0.08
	C8.217,4.66,8.209,4.685,8.207,4.709l-0.082,8.769c-0.002,0.313,0.141,0.607,0.387,0.799l10.977,8.536
	c0.004,0.004,0.01,0.004,0.014,0.008c0.01,0.006,0.014,0.012,0.02,0.017c0.004,0.003,0.008,0.003,0.012,0.006l0.02,0.015
	c0.18,0.141,0.396,0.211,0.613,0.211c0.146,0,0.295-0.031,0.434-0.1c0.068-0.033,0.129-0.078,0.188-0.125l10.549-3.761
	C31.734,18.939,32,18.563,32,18.141V9.538C31.996,9.516,31.99,9.496,31.988,9.477z"/>
<polygon id="polygon3780_1_" fill="#F9C46E" points="30.996,9.535 20.236,13.253 9.207,4.717 20.02,0.999 "/>
<polygon id="polygon3782_1_" fill="#7D5310" points="20.236,13.253 20.102,22.021 9.125,13.486 9.207,4.717 "/>
<linearGradient id="SVGID_1_" gradientUnits="userSpaceOnUse" x1="240.7813" y1="540.9531" x2="251.6875" y2="537.3005" gradientTransform="matrix(1 0 0 1 -231.2744 -525.8594)">
	<stop  offset="0" style="stop-color:#754F0F"/>
	<stop  offset="1" style="stop-color:#3D2908;stop-opacity:0"/>
</linearGradient>
<polygon fill="url(#SVGID_1_)" points="9.125,13.486 9.207,4.717 20.236,13.253 20.102,22.021 "/>
<polygon id="polygon3784_1_" fill="#F9A620" points="30.996,18.139 20.102,22.021 20.236,13.253 30.996,9.535 "/>
<linearGradient id="SVGID_2_" gradientUnits="userSpaceOnUse" x1="251.376" y1="541.6377" x2="262.2705" y2="541.6377" gradientTransform="matrix(1 0 0 1 -231.2744 -525.8594)">
	<stop  offset="0" style="stop-color:#F9E4C2;stop-opacity:0"/>
	<stop  offset="1" style="stop-color:#F9E4C2"/>
</linearGradient>
<polygon fill="url(#SVGID_2_)" points="20.236,13.253 30.996,9.535 30.996,18.139 20.102,22.021 "/>
<path d="M26.248,6.87V6.819c0.002-0.217-0.084-0.425-0.236-0.58C25.857,6.086,25.65,6,25.434,6l-5.018,0.001
	c-0.232,0-0.441,0.104-0.592,0.263c-0.004-0.006-0.006-0.014-0.014-0.021c-0.152-0.153-0.359-0.24-0.578-0.24l-2.703,0.001
	c-0.451,0-0.814,0.363-0.816,0.812l-0.02,4.512c-0.002,0.216,0.084,0.425,0.237,0.58c0.153,0.153,0.36,0.239,0.579,0.239
	l2.705-0.001c0.43,0,0.771-0.334,0.803-0.756l1.266,1.392c0.082,0.089,0.184,0.154,0.293,0.2l-0.012,2.49
	c-0.324,0.105-0.564,0.401-0.566,0.761l-0.059,13.369c-0.002,0.154,0.057,0.301,0.139,0.43l-0.004,1.15
	c-0.002,0.217,0.084,0.426,0.236,0.578c0.154,0.154,0.361,0.24,0.578,0.24l2.479-0.002c0.449,0,0.814-0.361,0.816-0.813l0.004-1.149
	c0.082-0.126,0.143-0.269,0.143-0.429l0.061-13.369c0-0.218-0.086-0.425-0.24-0.58c-0.088-0.09-0.201-0.149-0.32-0.189l0.014-2.451
	c0.232-0.059,0.438-0.217,0.543-0.441l0.566-1.21c1.26,0.061,3.279,0.575,4.494,3.026c0.143,0.284,0.426,0.454,0.73,0.454
	c0.061,0,0.123-0.006,0.186-0.021c0.365-0.084,0.627-0.411,0.631-0.789C32.029,9.595,28.725,7.554,26.248,6.87z"/>
<linearGradient id="rect3338_2_" gradientUnits="userSpaceOnUse" x1="41.0879" y1="-1430.0581" x2="43.548" y2="-1430.0581" gradientTransform="matrix(1.0252 -4.000000e-004 0.0045 -1.026 -17.1055 -1458.2054)">
	<stop  offset="0" style="stop-color:#E5E5E4"/>
	<stop  offset="0.7255" style="stop-color:#98BDCB"/>
	<stop  offset="1" style="stop-color:#B0D7E5"/>
</linearGradient>
<polygon id="rect3338_1_" fill="url(#rect3338_2_)" points="18.693,7.833 21.006,7.832 20.996,10.201 18.684,10.203 "/>
<linearGradient id="rect3340_2_" gradientUnits="userSpaceOnUse" x1="161.7871" y1="-1159.3477" x2="161.7871" y2="-1162.9656" gradientTransform="matrix(0.8057 -3.000000e-004 0.0058 -1.3055 -105.7453 -1506.7673)">
	<stop  offset="0" style="stop-color:#DBEDF1"/>
	<stop  offset="1" style="stop-color:#348196"/>
</linearGradient>
<polygon id="rect3340_1_" fill="url(#rect3340_2_)" points="16.529,6.819 19.234,6.819 19.215,11.331 16.51,11.332 "/>
<linearGradient id="rect3342_2_" gradientUnits="userSpaceOnUse" x1="44.7178" y1="-1435.4736" x2="46.5162" y2="-1435.4736" gradientTransform="matrix(1.0252 -4.000000e-004 0.0045 -1.026 -17.1055 -1458.2054)">
	<stop  offset="0" style="stop-color:#E5E5E4"/>
	<stop  offset="0.7255" style="stop-color:#98BDCB"/>
	<stop  offset="1" style="stop-color:#B0D7E5"/>
</linearGradient>
<polygon id="rect3342_1_" fill="url(#rect3342_2_)" points="22.396,11.95 24.031,11.949 24.008,17.195 22.373,17.195 "/>
<linearGradient id="rect3344_2_" gradientUnits="userSpaceOnUse" x1="47.0654" y1="-1443.6089" x2="44.1706" y2="-1443.6089" gradientTransform="matrix(1.0252 -4.000000e-004 0.0045 -1.026 -17.1055 -1458.2054)">
	<stop  offset="0" style="stop-color:#F79A42"/>
	<stop  offset="0.2217" style="stop-color:#F37A20"/>
	<stop  offset="1" style="stop-color:#FFFFFF"/>
</linearGradient>
<polygon id="rect3344_1_" fill="url(#rect3344_2_)" points="21.814,16.236 24.574,16.234 24.516,29.604 21.756,29.604 "/>
<linearGradient id="rect3346_2_" gradientUnits="userSpaceOnUse" x1="44.3086" y1="-1450.894" x2="46.9277" y2="-1450.894" gradientTransform="matrix(1.0252 -4.000000e-004 0.0045 -1.026 -17.1055 -1458.2054)">
	<stop  offset="0" style="stop-color:#E5E5E4"/>
	<stop  offset="0.7255" style="stop-color:#98BDCB"/>
	<stop  offset="1" style="stop-color:#B0D7E5"/>
</linearGradient>
<polygon id="rect3346_1_" fill="url(#rect3346_2_)" points="21.896,29.604 24.375,29.604 24.369,31.184 21.891,31.186 "/>
<linearGradient id="path3348_2_" gradientUnits="userSpaceOnUse" x1="50.1963" y1="-1431.9526" x2="52.4893" y2="-1428.6193" gradientTransform="matrix(1.0252 -4.000000e-004 0.0045 -1.026 -17.1055 -1458.2054)">
	<stop  offset="0" style="stop-color:#E5E5E4"/>
	<stop  offset="0.7255" style="stop-color:#98BDCB"/>
	<stop  offset="1" style="stop-color:#B0D7E5"/>
</linearGradient>
<path id="path3348_1_" fill="url(#path3348_2_)" d="M31.18,14.033c-2.066-4.174-6.24-3.438-6.24-3.438l0.014-3.16
	C24.951,7.435,31.225,8.166,31.18,14.033z"/>
<polygon id="polygon3350_2_" fill="#AFE1F9" points="20.4,10.596 20.418,6.817 25.434,6.815 25.416,10.593 25.416,10.593 
	24.648,12.23 21.887,12.232 "/>
<path id="path3144" fill="#231F20" d="M16.552,31.065c0.149,0,0.296-0.053,0.412-0.151c0.144-0.121,0.228-0.3,0.228-0.488V13.575
	c0-0.18-0.076-0.351-0.209-0.473c-0.118-0.108-0.272-0.167-0.431-0.167c-0.021,0-0.039,0-0.058,0.002L3.39,14.123
	c-0.33,0.03-0.582,0.307-0.582,0.637v13.412c0,0.311,0.225,0.577,0.531,0.63l13.104,2.255
	C16.478,31.063,16.515,31.065,16.552,31.065L16.552,31.065z"/>
<path id="path3897_3_" fill="#F9A620" d="M3.446,14.758V28.17l13.105,2.254V13.575L3.446,14.758z"/>
<linearGradient id="polygon3155_1_" gradientUnits="userSpaceOnUse" x1="13.6611" y1="-110.8096" x2="25.4863" y2="-110.8096" gradientTransform="matrix(-1 0 0 -1 29.5732 -88.8398)">
	<stop  offset="0" style="stop-color:#A36628"/>
	<stop  offset="0.5394" style="stop-color:#F9A620"/>
	<stop  offset="1" style="stop-color:#FFF3DF"/>
</linearGradient>
<polygon id="polygon3155" fill="url(#polygon3155_1_)" points="4.087,27.629 15.912,29.665 15.912,14.274 4.087,15.343 "/>
<linearGradient id="path1710_1_" gradientUnits="userSpaceOnUse" x1="-7296.9946" y1="-11239.127" x2="-7287.4536" y2="-11239.127" gradientTransform="matrix(0.1243 0 0 -0.108 920.5964 -1191.826)">
	<stop  offset="0" style="stop-color:#F3F4EE"/>
	<stop  offset="1" style="stop-color:#B1B3AE"/>
</linearGradient>
<path id="path1710_2_" fill="url(#path1710_1_)" d="M1.107,14.968v13.062l11.738,1.928l2.303-0.424V14.389l-2.303-0.346
	L1.107,14.968z"/>
<path id="path3164" fill="#231F20" d="M12.809,32c0.146,0,0.289-0.05,0.404-0.144c0.149-0.122,0.235-0.305,0.235-0.496V12.64
	c0-0.182-0.077-0.355-0.212-0.476C13.118,12.058,12.966,12,12.809,12c-0.023,0-0.046,0.001-0.068,0.004L0.571,13.32
	C0.246,13.356,0,13.629,0,13.956v14.901c0,0.305,0.213,0.565,0.511,0.627l12.168,2.503C12.723,31.996,12.766,32,12.809,32L12.809,32
	z"/>
<path id="path2443_3_" fill="#F9A620" d="M0.64,13.955v14.902l12.169,2.502v-18.72L0.64,13.955z"/>
<linearGradient id="polygon3175_1_" gradientUnits="userSpaceOnUse" x1="17.4043" y1="-110.7236" x2="28.2939" y2="-110.7236" gradientTransform="matrix(-1 0 0 -1 29.5732 -88.8398)">
	<stop  offset="0" style="stop-color:#A36628"/>
	<stop  offset="0.5394" style="stop-color:#F9A620"/>
	<stop  offset="1" style="stop-color:#FFF3DF"/>
</linearGradient>
<polygon id="polygon3175" fill="url(#polygon3175_1_)" points="1.279,28.257 12.169,30.494 12.169,13.273 1.279,14.451 "/>
<linearGradient id="path7549_1_" gradientUnits="userSpaceOnUse" x1="-8097.8945" y1="-10714.0977" x2="-8099.8794" y2="-10823.668" gradientTransform="matrix(0.1119 0 0 -0.1119 912.896 -1191.459)">
	<stop  offset="0" style="stop-color:#FFFFFF;stop-opacity:0.624"/>
	<stop  offset="1" style="stop-color:#FFFFFF;stop-opacity:0"/>
</linearGradient>
<path id="path7549_2_" fill="url(#path7549_1_)" d="M1.222,14.717v8.295c3.255-6.264,7.805-3.555,10.605,1.187V13.478L1.222,14.717z
	"/>
<radialGradient id="path3736_1_" cx="-5730.1147" cy="-6361.5146" r="39.1688" gradientTransform="matrix(0.1648 0 0 -0.1902 948.4973 -1192.7985)" gradientUnits="userSpaceOnUse">
	<stop  offset="0" style="stop-color:#FFFFFF;stop-opacity:0.3519"/>
	<stop  offset="1" style="stop-color:#FFFFFF;stop-opacity:0"/>
</radialGradient>
<path id="path3736_2_" fill="url(#path3736_1_)" d="M1.107,14.292v13.411l11.233,2.252V13.106L1.107,14.292z"/>
<path id="path3191" fill="#231F20" d="M3.048,21.779c0.182,0,0.359-0.078,0.482-0.219l1.016-1.166l1.124,0.611
	c0.096,0.053,0.201,0.078,0.307,0.078c0.127,0,0.255-0.038,0.363-0.112c0.199-0.138,0.304-0.375,0.271-0.614
	c-0.106-0.771-0.369-2.926-0.313-3.645c0.044-0.527,0.533-2.269,0.831-3.243c0.063-0.203,0.02-0.424-0.114-0.589
	c-0.121-0.152-0.306-0.239-0.497-0.239c-0.018,0-0.036,0.001-0.053,0.002L3.761,12.87c-0.243,0.021-0.455,0.178-0.543,0.407
	c-0.158,0.407-0.95,2.479-1.03,3.226c-0.127,1.183,0.21,4.56,0.225,4.702c0.025,0.254,0.199,0.469,0.441,0.547
	C2.918,21.77,2.983,21.779,3.048,21.779L3.048,21.779z"/>
<path id="path3193" fill="#EA2A29" d="M2.746,16.545c-0.124,1.176,0.236,4.758,0.236,4.758l1.406-1.615l1.642,0.892
	c0,0-0.407-2.954-0.329-3.94c0.065-0.826,0.893-3.519,0.893-3.519l-2.814,0.235C3.781,13.354,2.824,15.813,2.746,16.545z"/>
<linearGradient id="path3202_1_" gradientUnits="userSpaceOnUse" x1="23.6621" y1="-105.6309" x2="26.4111" y2="-105.6309" gradientTransform="matrix(-1 0 0 -1 29.5732 -88.8398)">
	<stop  offset="0" style="stop-color:#F5969A"/>
	<stop  offset="1" style="stop-color:#901A1E"/>
</linearGradient>
<path id="path3202" fill="url(#path3202_1_)" d="M4.216,19.131l1.163,0.633c-0.123-1.068-0.266-2.527-0.208-3.234
	c0.051-0.65,0.457-2.134,0.74-3.112l-1.769,0.148c-0.391,1.039-0.905,2.514-0.955,2.978c-0.072,0.688,0.024,2.314,0.128,3.622
	L4.216,19.131z"/>
</svg>
