<?xml version="1.0" encoding="utf-8"?>
<!-- Generator: Adobe Illustrator 14.0.0, SVG Export Plug-In . SVG Version: 6.00 Build 43363)  -->
<!DOCTYPE svg PUBLIC "-//W3C//DTD SVG 1.1//EN" "http://www.w3.org/Graphics/SVG/1.1/DTD/svg11.dtd">
<svg version="1.1"
	 id="svg2" sodipodi:docname="constructor_protected.svg" inkscape:version="0.45.1" sodipodi:version="0.32" sodipodi:docbase="C:\Radix\dev\trunk\org.radixware\kernel\designer\src\common.resources\src\org\radixware\kernel\designer\resources\icons\ads\method" inkscape:output_extension="org.inkscape.output.svg.inkscape" xmlns:ns="http://creativecommons.org/ns#" xmlns:dc="http://purl.org/dc/elements/1.1/" xmlns:cc="http://web.resource.org/cc/" xmlns:rdf="http://www.w3.org/1999/02/22-rdf-syntax-ns#" xmlns:svg="http://www.w3.org/2000/svg" xmlns:sodipodi="http://sodipodi.sourceforge.net/DTD/sodipodi-0.dtd" xmlns:inkscape="http://www.inkscape.org/namespaces/inkscape"
	 xmlns="http://www.w3.org/2000/svg" xmlns:xlink="http://www.w3.org/1999/xlink" x="0px" y="0px" width="32px" height="32px"
	 viewBox="0 0 32 32" enable-background="new 0 0 32 32" xml:space="preserve">
<linearGradient id="rect3870_2_" gradientUnits="userSpaceOnUse" x1="892.4482" y1="6200.9814" x2="870.9093" y2="6200.9814" gradientTransform="matrix(1.0208 0 0 0.2736 -886.8803 -1693.7202)">
	<stop  offset="0" style="stop-color:#6B4200"/>
	<stop  offset="0.2996" style="stop-color:#6E4402;stop-opacity:0.7004"/>
	<stop  offset="0.5383" style="stop-color:#784B09;stop-opacity:0.4617"/>
	<stop  offset="0.7559" style="stop-color:#895615;stop-opacity:0.2441"/>
	<stop  offset="0.9599" style="stop-color:#A06625;stop-opacity:0.0401"/>
	<stop  offset="1" style="stop-color:#A66A29;stop-opacity:0"/>
</linearGradient>
<rect id="rect3870_1_" x="-0.007" opacity="0.5" fill="url(#rect3870_2_)" enable-background="new    " width="20.106" height="5.736"/>
<linearGradient id="rect3872_2_" gradientUnits="userSpaceOnUse" x1="560.5117" y1="2448.1572" x2="550.8514" y2="2448.1572" gradientTransform="matrix(1.4465 0 0 0.7523 -793.6436 -1830.5946)">
	<stop  offset="0" style="stop-color:#6B4200"/>
	<stop  offset="0.2996" style="stop-color:#6E4402;stop-opacity:0.7004"/>
	<stop  offset="0.5383" style="stop-color:#784B09;stop-opacity:0.4617"/>
	<stop  offset="0.7559" style="stop-color:#895615;stop-opacity:0.2441"/>
	<stop  offset="0.9599" style="stop-color:#A06625;stop-opacity:0.0401"/>
	<stop  offset="1" style="stop-color:#A66A29;stop-opacity:0"/>
</linearGradient>
<rect id="rect3872_1_" x="-0.005" y="4.66" opacity="0.5" fill="url(#rect3872_2_)" enable-background="new    " width="14.686" height="12.986"/>
<linearGradient id="rect3874_2_" gradientUnits="userSpaceOnUse" x1="961.0928" y1="964.9922" x2="932.7998" y2="964.9922" gradientTransform="matrix(0.9632 0 0 2.3944 -899.179 -2291.9451)">
	<stop  offset="0" style="stop-color:#6B4200"/>
	<stop  offset="0.2996" style="stop-color:#6E4402;stop-opacity:0.7004"/>
	<stop  offset="0.5383" style="stop-color:#784B09;stop-opacity:0.4617"/>
	<stop  offset="0.7559" style="stop-color:#895615;stop-opacity:0.2441"/>
	<stop  offset="0.9599" style="stop-color:#A06625;stop-opacity:0.0401"/>
	<stop  offset="1" style="stop-color:#A66A29;stop-opacity:0"/>
</linearGradient>
<rect id="rect3874_1_" x="-0.007" y="14.197" opacity="0.5" fill="url(#rect3874_2_)" enable-background="new    " width="20.106" height="8.866"/>
<path d="M31.988,9.477c-0.004-0.037-0.008-0.072-0.014-0.106c-0.01-0.05-0.021-0.097-0.035-0.144
	c-0.012-0.033-0.021-0.065-0.037-0.099c-0.021-0.045-0.045-0.088-0.07-0.129c-0.02-0.028-0.036-0.06-0.061-0.086
	c-0.03-0.041-0.068-0.077-0.107-0.113c-0.021-0.019-0.034-0.04-0.057-0.056L20.634,0.21C20.455,0.072,20.238,0,20.021,0
	c-0.108,0-0.219,0.019-0.324,0.056l-0.521,0.18L8.914,3.731C8.725,3.794,8.566,3.917,8.449,4.069
	C8.431,4.09,8.421,4.113,8.406,4.133C8.381,4.168,8.359,4.202,8.338,4.24C8.315,4.281,8.296,4.323,8.279,4.368
	C8.263,4.409,8.251,4.45,8.241,4.493C8.236,4.515,8.224,4.534,8.22,4.557c-0.004,0.025,0,0.053-0.002,0.08
	C8.216,4.66,8.208,4.686,8.207,4.709l-0.082,8.77c-0.003,0.313,0.14,0.606,0.386,0.799l10.977,8.535
	c0.004,0.004,0.01,0.004,0.014,0.008c0.01,0.007,0.014,0.013,0.02,0.018c0.004,0.003,0.008,0.003,0.013,0.006l0.019,0.016
	c0.18,0.141,0.396,0.211,0.613,0.211c0.146,0,0.295-0.031,0.434-0.1c0.068-0.033,0.129-0.078,0.188-0.125l10.549-3.762
	C31.732,18.939,32,18.563,32,18.141V9.538C31.995,9.516,31.988,9.496,31.988,9.477z"/>
<polygon id="polygon3780_1_" fill="#F9C46E" points="30.995,9.535 20.234,13.253 9.206,4.717 20.02,0.999 "/>
<polygon id="polygon3782_1_" fill="#7D5310" points="20.234,13.253 20.102,22.021 9.125,13.486 9.206,4.717 "/>
<linearGradient id="SVGID_1_" gradientUnits="userSpaceOnUse" x1="522.501" y1="-913.9722" x2="533.4052" y2="-910.3202" gradientTransform="matrix(1 0 0 -1 -512.9941 -898.8789)">
	<stop  offset="0" style="stop-color:#754F0F"/>
	<stop  offset="1" style="stop-color:#3D2908;stop-opacity:0"/>
</linearGradient>
<polygon fill="url(#SVGID_1_)" points="9.125,13.486 9.206,4.717 20.234,13.253 20.102,22.021 "/>
<polygon id="polygon3784_1_" fill="#F9A620" points="30.995,18.139 20.102,22.021 20.234,13.253 30.995,9.535 "/>
<linearGradient id="SVGID_2_" gradientUnits="userSpaceOnUse" x1="533.0957" y1="-914.6572" x2="543.9902" y2="-914.6572" gradientTransform="matrix(1 0 0 -1 -512.9941 -898.8789)">
	<stop  offset="0" style="stop-color:#F9E4C2;stop-opacity:0"/>
	<stop  offset="1" style="stop-color:#F9E4C2"/>
</linearGradient>
<polygon fill="url(#SVGID_2_)" points="20.234,13.253 30.995,9.535 30.995,18.139 20.102,22.021 "/>
<path d="M26.248,6.87V6.819c0.001-0.217-0.085-0.425-0.236-0.58C25.855,6.086,25.648,6,25.434,6l-5.018,0.001
	c-0.232,0-0.441,0.104-0.592,0.264c-0.006-0.007-0.008-0.015-0.016-0.021c-0.151-0.153-0.358-0.24-0.578-0.24l-2.703,0.001
	c-0.449,0-0.813,0.363-0.815,0.813l-0.02,4.512c-0.001,0.216,0.085,0.425,0.238,0.58c0.153,0.152,0.361,0.238,0.579,0.238h2.705
	c0.431,0,0.772-0.334,0.804-0.756l1.266,1.392c0.082,0.089,0.184,0.153,0.293,0.2l-0.012,2.49c-0.324,0.104-0.563,0.4-0.565,0.76
	l-0.06,13.37c-0.002,0.153,0.057,0.301,0.14,0.43l-0.005,1.15c-0.002,0.217,0.085,0.426,0.236,0.578
	c0.153,0.153,0.36,0.239,0.578,0.239l2.479-0.002c0.447,0,0.813-0.36,0.814-0.813l0.004-1.148c0.082-0.126,0.144-0.27,0.144-0.43
	l0.062-13.369c0-0.217-0.086-0.424-0.24-0.579c-0.088-0.091-0.201-0.149-0.32-0.188l0.014-2.451c0.232-0.06,0.438-0.217,0.543-0.441
	l0.567-1.21c1.259,0.062,3.278,0.575,4.493,3.026c0.143,0.283,0.427,0.453,0.73,0.453c0.061,0,0.122-0.006,0.186-0.021
	c0.365-0.084,0.628-0.411,0.631-0.789C32.027,9.596,28.725,7.555,26.248,6.87z"/>
<linearGradient id="rect3338_2_" gradientUnits="userSpaceOnUse" x1="317.6162" y1="1856.9229" x2="320.0763" y2="1856.9229" gradientTransform="matrix(1.0252 -4.000000e-004 -0.0045 1.026 -298.6821 -1896.0576)">
	<stop  offset="0" style="stop-color:#E5E5E4"/>
	<stop  offset="0.7255" style="stop-color:#98BDCB"/>
	<stop  offset="1" style="stop-color:#B0D7E5"/>
</linearGradient>
<polygon id="rect3338_1_" fill="url(#rect3338_2_)" points="18.693,7.833 21.005,7.832 20.995,10.201 18.684,10.203 "/>
<linearGradient id="rect3340_2_" gradientUnits="userSpaceOnUse" x1="513.6797" y1="1501.6699" x2="513.6797" y2="1505.2874" gradientTransform="matrix(0.8057 -3.000000e-004 -0.0058 1.3055 -387.2798 -1953.5637)">
	<stop  offset="0" style="stop-color:#DBEDF1"/>
	<stop  offset="1" style="stop-color:#348196"/>
</linearGradient>
<polygon id="rect3340_1_" fill="url(#rect3340_2_)" points="16.529,6.819 19.232,6.819 19.214,11.331 16.509,11.332 "/>
<linearGradient id="rect3342_2_" gradientUnits="userSpaceOnUse" x1="321.2461" y1="1862.3379" x2="323.0456" y2="1862.3379" gradientTransform="matrix(1.0252 -4.000000e-004 -0.0045 1.026 -298.6821 -1896.0576)">
	<stop  offset="0" style="stop-color:#E5E5E4"/>
	<stop  offset="0.7255" style="stop-color:#98BDCB"/>
	<stop  offset="1" style="stop-color:#B0D7E5"/>
</linearGradient>
<polygon id="rect3342_1_" fill="url(#rect3342_2_)" points="22.396,11.95 24.031,11.949 24.007,17.195 22.373,17.195 "/>
<linearGradient id="rect3344_2_" gradientUnits="userSpaceOnUse" x1="323.5947" y1="1870.4736" x2="320.6979" y2="1870.4736" gradientTransform="matrix(1.0252 -4.000000e-004 -0.0045 1.026 -298.6821 -1896.0576)">
	<stop  offset="0" style="stop-color:#F79A42"/>
	<stop  offset="0.2217" style="stop-color:#F37A20"/>
	<stop  offset="1" style="stop-color:#FFFFFF"/>
</linearGradient>
<polygon id="rect3344_1_" fill="url(#rect3344_2_)" points="21.813,16.236 24.574,16.234 24.516,29.604 21.755,29.604 "/>
<linearGradient id="rect3346_2_" gradientUnits="userSpaceOnUse" x1="320.8369" y1="1877.7578" x2="323.456" y2="1877.7578" gradientTransform="matrix(1.0252 -4.000000e-004 -0.0045 1.026 -298.6821 -1896.0576)">
	<stop  offset="0" style="stop-color:#E5E5E4"/>
	<stop  offset="0.7255" style="stop-color:#98BDCB"/>
	<stop  offset="1" style="stop-color:#B0D7E5"/>
</linearGradient>
<polygon id="rect3346_1_" fill="url(#rect3346_2_)" points="21.896,29.604 24.375,29.604 24.368,31.184 21.891,31.186 "/>
<linearGradient id="path3348_2_" gradientUnits="userSpaceOnUse" x1="326.7236" y1="1858.8164" x2="329.0166" y2="1855.4833" gradientTransform="matrix(1.0252 -4.000000e-004 -0.0045 1.026 -298.6821 -1896.0576)">
	<stop  offset="0" style="stop-color:#E5E5E4"/>
	<stop  offset="0.7255" style="stop-color:#98BDCB"/>
	<stop  offset="1" style="stop-color:#B0D7E5"/>
</linearGradient>
<path id="path3348_1_" fill="url(#path3348_2_)" d="M31.18,14.033c-2.066-4.174-6.24-3.438-6.24-3.438l0.014-3.16
	C24.951,7.436,31.225,8.166,31.18,14.033z"/>
<polygon id="polygon3350_2_" fill="#AFE1F9" points="20.398,10.596 20.417,6.817 25.434,6.815 25.416,10.593 25.416,10.593 
	24.646,12.23 21.887,12.232 "/>
<g>
	<path id="path2935_9_" fill="#231F20" d="M3.209,30.521c-0.121-0.123-0.191-0.288-0.19-0.462l0.001-1.146
		c-0.001-0.106,0.025-0.215,0.077-0.309l0.233-0.433l-0.233-0.44c-0.089-0.166-0.101-0.36-0.035-0.534l0.234-0.63l-0.172-1.068
		c-0.02-0.125-0.002-0.25,0.047-0.366l0.246-0.563l-0.365-1.1c-0.071-0.208-0.027-0.44,0.11-0.614l0.499-0.623L3.12,21.39
		c-0.067-0.105-0.102-0.225-0.102-0.354v-1.142H2.691c-0.18,0-0.344-0.075-0.462-0.191c-0.119-0.118-0.19-0.279-0.192-0.459v-1.611
		c-0.158-0.127-0.312-0.263-0.455-0.405C0.563,16.208,0,14.851,0,13.408c0-1.445,0.564-2.803,1.583-3.825
		C2.605,8.561,3.962,8,5.407,8c1.446,0,2.802,0.563,3.824,1.583c1.02,1.02,1.583,2.377,1.583,3.823
		c-0.001,1.648-0.757,3.203-2.038,4.226v1.612c0,0.173-0.07,0.337-0.192,0.462c-0.121,0.121-0.289,0.19-0.461,0.19H7.795
		l0.001,10.162c0.001,0.205-0.098,0.402-0.264,0.526l-1.736,1.287c-0.231,0.172-0.547,0.173-0.78,0l-1.734-1.289
		C3.259,30.563,3.232,30.543,3.209,30.521L3.209,30.521z M5.996,10.354c-0.157-0.157-0.365-0.241-0.589-0.241
		c-0.456-0.001-0.829,0.37-0.83,0.829c0.001,0.226,0.086,0.432,0.242,0.587c0.157,0.159,0.366,0.244,0.588,0.244
		c0.458,0,0.83-0.375,0.832-0.832C6.239,10.721,6.152,10.511,5.996,10.354L5.996,10.354z"/>
	<path id="path3790_10_" fill="#FAA920" d="M5.407,8.656c2.626,0,4.753,2.126,4.753,4.751c0,1.616-0.806,3.039-2.037,3.897v1.939
		h-0.98l0.001,10.813l-1.736,1.289l-1.735-1.288v-1.144l0.398-0.74l-0.397-0.748l0.297-0.792l-0.2-1.237l0.349-0.792L3.674,23.27
		l0.793-0.991l-0.793-1.236v-1.798l-0.981,0.001v-1.937c-1.23-0.86-2.036-2.283-2.037-3.899C0.655,10.781,2.782,8.654,5.407,8.656
		L5.407,8.656z M5.407,9.459c-0.821,0-1.484,0.664-1.484,1.486c0,0.823,0.665,1.485,1.484,1.483c0.822,0,1.483-0.661,1.485-1.483
		C6.892,10.123,6.229,9.459,5.407,9.459z"/>
	
		<linearGradient id="path2946_1_" gradientUnits="userSpaceOnUse" x1="191.8516" y1="-1554.709" x2="200.0527" y2="-1554.709" gradientTransform="matrix(1 0 0 -1 -190.543 -1534.5996)">
		<stop  offset="0" style="stop-color:#A5692A"/>
		<stop  offset="0.5394" style="stop-color:#FAA920"/>
		<stop  offset="1" style="stop-color:#FFF3E2"/>
	</linearGradient>
	<path id="path2946_9_" fill="url(#path2946_1_)" d="M4.326,29.074l0.484-0.902L4.39,27.38l0.255-0.678l-0.197-1.221l0.369-0.844
		l-0.411-1.24l0.861-1.077l-0.941-1.473v-2.259H3.344v-1.624l-0.278-0.194c-0.198-0.139-0.386-0.298-0.557-0.47
		c-0.773-0.772-1.199-1.8-1.2-2.895c0-1.094,0.426-2.124,1.201-2.898c0.347-0.345,0.743-0.622,1.172-0.821
		c-0.258,0.354-0.41,0.787-0.409,1.254c0,0.574,0.222,1.11,0.625,1.516c0.404,0.403,0.942,0.625,1.515,0.625
		c1.174,0.001,2.135-0.958,2.137-2.136c0-0.46-0.144-0.894-0.405-1.254c0.427,0.199,0.823,0.474,1.165,0.818
		c0.775,0.773,1.2,1.803,1.2,2.898c0,1.337-0.657,2.596-1.758,3.363L7.47,16.965v1.624H6.486l0.004,11.14l-1.083,0.804l-1.083-0.804
		L4.326,29.074z"/>
	
		<linearGradient id="rect3802_1_" gradientUnits="userSpaceOnUse" x1="-1148.354" y1="-2374.9863" x2="-1147.5415" y2="-2374.9863" gradientTransform="matrix(-1.0994 0 0 -1.0994 -1256.1978 -2586.5786)">
		<stop  offset="0" style="stop-color:#A5692A"/>
		<stop  offset="0.5394" style="stop-color:#FAA920"/>
		<stop  offset="1" style="stop-color:#2B2012"/>
	</linearGradient>
	<path id="rect3802_10_" fill="url(#rect3802_1_)" d="M6.01,19.305H5.695c-0.16,0-0.288,0.128-0.288,0.289v9.773
		c0,0.162,0.128,0.29,0.29,0.29h0.315c0.161,0,0.288-0.128,0.288-0.29v-9.775C6.298,19.436,6.17,19.305,6.01,19.305z"/>
</g>
</svg>
