<?xml version="1.0" encoding="utf-8"?>
<!-- Generator: Adobe Illustrator 14.0.0, SVG Export Plug-In . SVG Version: 6.00 Build 43363)  -->
<!DOCTYPE svg PUBLIC "-//W3C//DTD SVG 1.1//EN" "http://www.w3.org/Graphics/SVG/1.1/DTD/svg11.dtd">
<svg version="1.1"
	 id="svg2" sodipodi:docbase="C:\Radix\dev\trunk\org.radixware\kernel\designer\src\common.resources\src\org\radixware\kernel\designer\resources\icons\ads\method" sodipodi:docname="method_static_protected.svg" inkscape:version="0.45.1" sodipodi:version="0.32" inkscape:output_extension="org.inkscape.output.svg.inkscape" xmlns:ns="http://creativecommons.org/ns#" xmlns:dc="http://purl.org/dc/elements/1.1/" xmlns:cc="http://web.resource.org/cc/" xmlns:rdf="http://www.w3.org/1999/02/22-rdf-syntax-ns#" xmlns:svg="http://www.w3.org/2000/svg" xmlns:sodipodi="http://sodipodi.sourceforge.net/DTD/sodipodi-0.dtd" xmlns:inkscape="http://www.inkscape.org/namespaces/inkscape"
	 xmlns="http://www.w3.org/2000/svg" xmlns:xlink="http://www.w3.org/1999/xlink" x="0px" y="0px" width="32px" height="32px"
	 viewBox="0 0 32 32" enable-background="new 0 0 32 32" xml:space="preserve">
<sodipodi:namedview  id="base" pagecolor="#ffffff" bordercolor="#000000" borderopacity="1.0" showgrid="true" inkscape:zoom="9.5861449" inkscape:cx="21.270549" inkscape:cy="6.4748695" inkscape:current-layer="layer1" inkscape:pageopacity="0.0" inkscape:pageshadow="2" inkscape:window-width="1280" inkscape:window-height="944" inkscape:window-x="0" inkscape:window-y="44" inkscape:document-units="px" inkscape:guide-bbox="true" showguides="true">
	</sodipodi:namedview>
<g>
	<g id="g3841_1_" transform="translate(23.992961,2.2949789)">
		<path d="M7.997,8.82C7.993,8.777,7.989,8.736,7.983,8.695C7.971,8.639,7.958,8.582,7.941,8.527
			C7.927,8.488,7.914,8.451,7.898,8.412C7.872,8.359,7.845,8.309,7.814,8.26C7.792,8.227,7.772,8.19,7.744,8.16
			C7.707,8.111,7.662,8.068,7.617,8.027C7.593,8.006,7.576,7.979,7.552,7.961L-5.321-2.049C-5.53-2.21-5.783-2.295-6.04-2.295
			c-0.129,0-0.257,0.021-0.382,0.064L-7.034-2.02l-12.034,4.1c-0.222,0.075-0.408,0.219-0.545,0.396
			c-0.021,0.024-0.033,0.053-0.051,0.076c-0.03,0.041-0.055,0.081-0.08,0.126c-0.027,0.048-0.049,0.097-0.069,0.149
			c-0.018,0.049-0.033,0.097-0.044,0.147C-19.863,3-19.877,3.023-19.881,3.05c-0.005,0.03,0,0.062-0.002,0.094
			c-0.002,0.028-0.012,0.058-0.013,0.086l-0.096,10.284c-0.003,0.369,0.164,0.713,0.453,0.938l12.874,10.012
			c0.005,0.004,0.012,0.004,0.017,0.01c0.009,0.006,0.014,0.012,0.021,0.018c0.005,0.004,0.009,0.004,0.015,0.008l0.021,0.018
			c0.211,0.164,0.465,0.246,0.72,0.246c0.172,0,0.346-0.037,0.509-0.115c0.08-0.039,0.151-0.092,0.22-0.146l12.373-4.412
			c0.467-0.168,0.778-0.611,0.778-1.105V8.893C8.005,8.866,7.998,8.844,7.997,8.82z"/>
		<polygon id="polygon3780_1_" fill="#7CC5D9" points="6.832,8.889 -5.788,13.25 -18.724,3.238 -6.043,-1.123 		"/>
		<polygon id="polygon3782_1_" fill="#006882" points="-5.788,13.25 -5.946,23.535 -18.82,13.523 -18.724,3.238 		"/>
		
			<linearGradient id="SVGID_1_" gradientUnits="userSpaceOnUse" x1="-44.825" y1="-106.5435" x2="-32.0336" y2="-102.2596" gradientTransform="matrix(1 0 0 -1 26.4531 -91.1349)">
			<stop  offset="0" style="stop-color:#0A485C"/>
			<stop  offset="1" style="stop-color:#B0D0DA;stop-opacity:0"/>
		</linearGradient>
		<polygon fill="url(#SVGID_1_)" points="-18.82,13.523 -18.724,3.238 -5.788,13.25 -5.946,23.535 		"/>
		<polygon id="polygon3784_1_" fill="#02ABD8" points="6.832,18.98 -5.946,23.535 -5.788,13.25 6.832,8.889 		"/>
		
			<linearGradient id="SVGID_2_" gradientUnits="userSpaceOnUse" x1="-32.3992" y1="-107.3467" x2="-19.6209" y2="-107.3467" gradientTransform="matrix(1 0 0 -1 26.4531 -91.1349)">
			<stop  offset="0" style="stop-color:#B0D0DA;stop-opacity:0"/>
			<stop  offset="1" style="stop-color:#A0DCF4"/>
		</linearGradient>
		<polygon fill="url(#SVGID_2_)" points="-5.747,13.09 6.832,8.889 6.832,18.98 -5.946,23.535 		"/>
	</g>
</g>
<path fill="#FFFFFF" d="M9.776,19.244v-1.155c1.3-1.21,2.037-2.89,2.038-4.683c0-1.711-0.666-3.32-1.877-4.532
	C8.725,7.666,7.116,7,5.407,7C4.956,7,4.513,7.049,4.082,7.139L4,15.809c-0.003,0.369,0.164,0.713,0.453,0.938l4.771,3.71
	c0.022-0.02,0.051-0.028,0.072-0.049C9.605,20.094,9.776,19.68,9.776,19.244z"/>
<g>
	<path id="path2935_9_" fill="#231F20" d="M3.209,30.521c-0.121-0.123-0.191-0.289-0.19-0.463l0.001-1.146
		c-0.001-0.106,0.025-0.216,0.077-0.31l0.233-0.433l-0.233-0.44c-0.089-0.166-0.101-0.359-0.035-0.533l0.234-0.631l-0.172-1.067
		c-0.02-0.125-0.002-0.25,0.047-0.366l0.246-0.563l-0.365-1.1c-0.071-0.209-0.027-0.441,0.11-0.615l0.499-0.623L3.12,21.391
		c-0.067-0.105-0.102-0.226-0.102-0.354v-1.142H2.691c-0.18,0-0.344-0.076-0.462-0.191c-0.119-0.118-0.19-0.279-0.192-0.459v-1.611
		c-0.158-0.127-0.312-0.263-0.455-0.404C0.563,16.208,0,14.851,0,13.408c0-1.445,0.564-2.803,1.583-3.825
		C2.605,8.561,3.962,8,5.407,8c1.446,0,2.801,0.563,3.824,1.583c1.021,1.021,1.583,2.377,1.583,3.823
		c-0.001,1.648-0.757,3.204-2.038,4.226v1.612c0,0.173-0.069,0.337-0.192,0.462c-0.121,0.121-0.289,0.19-0.461,0.19H7.794
		l0.002,10.162c0,0.205-0.099,0.401-0.264,0.525l-1.737,1.287c-0.231,0.172-0.547,0.173-0.78,0l-1.734-1.289
		C3.259,30.563,3.232,30.543,3.209,30.521L3.209,30.521z M5.996,10.353c-0.156-0.157-0.365-0.241-0.588-0.241
		c-0.456-0.001-0.829,0.37-0.83,0.829c0.001,0.227,0.086,0.433,0.242,0.588c0.157,0.158,0.366,0.244,0.588,0.244
		c0.458,0,0.83-0.375,0.832-0.832C6.239,10.72,6.152,10.511,5.996,10.353L5.996,10.353z"/>
	<path id="path3790_10_" fill="#FAA920" d="M5.407,8.655c2.625,0,4.752,2.126,4.752,4.751c0,1.616-0.806,3.038-2.037,3.898v1.938
		H7.143l0.001,10.813l-1.736,1.289l-1.735-1.289v-1.144l0.398-0.74l-0.397-0.748l0.297-0.792l-0.2-1.236l0.349-0.793L3.674,23.27
		l0.793-0.99l-0.793-1.236v-1.798l-0.981,0.001v-1.938c-1.23-0.86-2.036-2.284-2.037-3.899C0.655,10.781,2.782,8.653,5.407,8.655
		L5.407,8.655z M5.407,9.458c-0.821,0-1.484,0.664-1.484,1.486s0.665,1.484,1.484,1.482c0.822,0,1.483-0.66,1.485-1.482
		C6.892,10.123,6.229,9.458,5.407,9.458z"/>
	
		<linearGradient id="path2946_1_" gradientUnits="userSpaceOnUse" x1="473.5723" y1="1991.7285" x2="481.7734" y2="1991.7285" gradientTransform="matrix(1 0 0 1 -472.2637 -1971.6191)">
		<stop  offset="0" style="stop-color:#A5692A"/>
		<stop  offset="0.5394" style="stop-color:#FAA920"/>
		<stop  offset="1" style="stop-color:#FFF3E2"/>
	</linearGradient>
	<path id="path2946_9_" fill="url(#path2946_1_)" d="M4.326,29.074l0.484-0.902L4.39,27.38l0.255-0.678L4.448,25.48l0.369-0.844
		l-0.411-1.24l0.861-1.076l-0.941-1.473v-2.26H3.344v-1.624L3.066,16.77c-0.198-0.139-0.386-0.297-0.557-0.47
		c-0.773-0.772-1.199-1.8-1.2-2.896c0-1.094,0.426-2.123,1.201-2.897c0.347-0.345,0.743-0.622,1.172-0.821
		c-0.258,0.354-0.41,0.787-0.409,1.253c0,0.574,0.222,1.11,0.625,1.517c0.404,0.403,0.942,0.625,1.515,0.625
		c1.174,0.001,2.135-0.958,2.137-2.136c0-0.461-0.145-0.895-0.405-1.254c0.427,0.199,0.823,0.474,1.165,0.818
		c0.775,0.773,1.2,1.804,1.2,2.898c0,1.337-0.657,2.596-1.759,3.363L7.47,16.965v1.624H6.486l0.004,11.14l-1.083,0.805l-1.083-0.805
		L4.326,29.074z"/>
	
		<linearGradient id="rect3802_1_" gradientUnits="userSpaceOnUse" x1="-1404.6035" y1="2775.3867" x2="-1403.791" y2="2775.3867" gradientTransform="matrix(-1.0994 0 0 1.0994 -1537.9175 -3026.7798)">
		<stop  offset="0" style="stop-color:#A5692A"/>
		<stop  offset="0.5394" style="stop-color:#FAA920"/>
		<stop  offset="1" style="stop-color:#2B2012"/>
	</linearGradient>
	<path id="rect3802_10_" fill="url(#rect3802_1_)" d="M6.01,19.305H5.695c-0.16,0-0.288,0.129-0.288,0.289v9.773
		c0,0.162,0.128,0.29,0.29,0.29h0.315c0.161,0,0.288-0.128,0.288-0.29v-9.775C6.298,19.436,6.169,19.305,6.01,19.305z"/>
</g>
</svg>
