<?xml version="1.0" encoding="utf-8"?>
<!-- Generator: Adobe Illustrator 14.0.0, SVG Export Plug-In . SVG Version: 6.00 Build 43363)  -->
<!DOCTYPE svg PUBLIC "-//W3C//DTD SVG 1.1//EN" "http://www.w3.org/Graphics/SVG/1.1/DTD/svg11.dtd">
<svg version="1.1"
	 id="svg2" sodipodi:docbase="C:\Radix\dev\trunk\org.radixware\kernel\designer\src\common.resources\src\org\radixware\kernel\designer\resources\icons\ads\method" sodipodi:docname="method_abstract_static.svg" inkscape:version="0.45.1" sodipodi:version="0.32" inkscape:output_extension="org.inkscape.output.svg.inkscape" xmlns:ns="http://creativecommons.org/ns#" xmlns:dc="http://purl.org/dc/elements/1.1/" xmlns:cc="http://web.resource.org/cc/" xmlns:rdf="http://www.w3.org/1999/02/22-rdf-syntax-ns#" xmlns:svg="http://www.w3.org/2000/svg" xmlns:sodipodi="http://sodipodi.sourceforge.net/DTD/sodipodi-0.dtd" xmlns:inkscape="http://www.inkscape.org/namespaces/inkscape"
	 xmlns="http://www.w3.org/2000/svg" xmlns:xlink="http://www.w3.org/1999/xlink" x="0px" y="0px" width="32px" height="32px"
	 viewBox="0 0 32 32" enable-background="new 0 0 32 32" xml:space="preserve">
<sodipodi:namedview  id="base" pagecolor="#ffffff" bordercolor="#000000" borderopacity="1.0" showgrid="true" inkscape:zoom="9.5861449" inkscape:cx="5.0492211" inkscape:cy="6.4748695" inkscape:current-layer="layer1" inkscape:pageopacity="0.0" inkscape:pageshadow="2" inkscape:window-width="1280" inkscape:window-height="944" inkscape:window-x="0" inkscape:window-y="44" inkscape:document-units="px" inkscape:guide-bbox="true" showguides="true">
	</sodipodi:namedview>
<g>
	<path d="M29.986,13.584c-0.002-0.043-0.007-0.083-0.014-0.125c-0.014-0.058-0.025-0.114-0.041-0.168
		c-0.014-0.039-0.028-0.077-0.044-0.117c-0.025-0.053-0.053-0.104-0.085-0.151c-0.021-0.032-0.041-0.071-0.068-0.101
		c-0.037-0.048-0.083-0.091-0.128-0.133c-0.023-0.021-0.039-0.045-0.064-0.065L16.671,2.717c-0.21-0.161-0.462-0.246-0.719-0.246
		c-0.127,0-0.256,0.023-0.38,0.066L14.96,2.747L2.925,6.846C2.706,6.92,2.518,7.064,2.38,7.243C2.36,7.267,2.348,7.294,2.33,7.317
		C2.301,7.359,2.275,7.399,2.25,7.443c-0.027,0.048-0.048,0.098-0.068,0.15C2.163,7.642,2.149,7.69,2.137,7.74
		C2.13,7.764,2.117,7.788,2.112,7.814c-0.004,0.029,0,0.062-0.002,0.094C2.108,7.936,2.099,7.966,2.096,7.993L2,18.278
		c-0.002,0.367,0.165,0.712,0.454,0.938l12.873,10.009c0.007,0.006,0.014,0.006,0.018,0.011c0.014,0.009,0.019,0.016,0.025,0.021
		c0.004,0.005,0.009,0.005,0.014,0.007l0.023,0.019c0.211,0.165,0.465,0.247,0.719,0.247c0.172,0,0.346-0.037,0.509-0.117
		c0.08-0.039,0.151-0.091,0.221-0.146l12.371-4.412C29.688,24.683,30,24.24,30,23.745V13.656
		C29.995,13.63,29.988,13.607,29.986,13.584z"/>
	<polygon id="polygon3339_1_" fill="#DF8078" points="28.848,13.656 16.228,18.017 3.294,8.005 15.974,3.646 	"/>
	<polygon id="polygon3341_1_" fill="#AA3D25" points="16.228,18.017 16.07,28.299 3.198,18.289 3.294,8.005 	"/>
	<polygon id="polygon3343_1_" fill="#E9B6AE" points="28.848,23.743 16.07,28.299 16.228,18.017 28.848,13.656 	"/>
	
		<linearGradient id="polygon3387_2_" gradientUnits="userSpaceOnUse" x1="1912.3145" y1="2801.2441" x2="1948.0319" y2="2780.5139" gradientTransform="matrix(0.298 0 0 0.298 -567.512 -812.3674)">
		<stop  offset="0" style="stop-color:#3A1813"/>
		<stop  offset="1" style="stop-color:#AA3D25;stop-opacity:0"/>
	</linearGradient>
	<polygon id="polygon3387_1_" fill="url(#polygon3387_2_)" points="16.228,18.017 16.07,28.299 3.198,18.289 3.294,8.007 	"/>
	
		<linearGradient id="polygon3343_3_" gradientUnits="userSpaceOnUse" x1="310.3926" y1="-396.9092" x2="297.882" y2="-391.0456" gradientTransform="matrix(1 0 0 -1 -281.7207 -373.0195)">
		<stop  offset="0" style="stop-color:#FDF0EC"/>
		<stop  offset="1" style="stop-color:#E9B6AE;stop-opacity:0"/>
	</linearGradient>
	<polygon id="polygon3343_2_" fill="url(#polygon3343_3_)" points="28.848,23.743 16.07,28.299 16.228,18.017 28.848,13.656 	"/>
</g>
</svg>
