<?xml version="1.0" encoding="utf-8"?>
<!-- Generator: Adobe Illustrator 14.0.0, SVG Export Plug-In . SVG Version: 6.00 Build 43363)  -->
<!DOCTYPE svg PUBLIC "-//W3C//DTD SVG 1.1//EN" "http://www.w3.org/Graphics/SVG/1.1/DTD/svg11.dtd">
<svg version="1.1"
	 id="svg2" sodipodi:docname="method_static_private.svg" inkscape:version="0.47 r22583" sodipodi:version="0.32" inkscape:output_extension="org.inkscape.output.svg.inkscape" xmlns:dc="http://purl.org/dc/elements/1.1/" xmlns:cc="http://creativecommons.org/ns#" xmlns:rdf="http://www.w3.org/1999/02/22-rdf-syntax-ns#" xmlns:svg="http://www.w3.org/2000/svg" xmlns:sodipodi="http://sodipodi.sourceforge.net/DTD/sodipodi-0.dtd" xmlns:inkscape="http://www.inkscape.org/namespaces/inkscape"
	 xmlns="http://www.w3.org/2000/svg" xmlns:xlink="http://www.w3.org/1999/xlink" x="0px" y="0px" width="32px" height="32px"
	 viewBox="0 0 32 32" enable-background="new 0 0 32 32" xml:space="preserve">
<defs>
	
	
		<inkscape:perspective  id="perspective32" sodipodi:type="inkscape:persp3d" inkscape:vp_z="32 : 16 : 1" inkscape:vp_x="0 : 16 : 1" inkscape:vp_y="0 : 1000 : 0" inkscape:persp3d-origin="16 : 10.666667 : 1">
		</inkscape:perspective>
	
		<inkscape:perspective  id="perspective2884" sodipodi:type="inkscape:persp3d" inkscape:vp_z="1 : 0.5 : 1" inkscape:vp_x="0 : 0.5 : 1" inkscape:vp_y="0 : 1000 : 0" inkscape:persp3d-origin="0.5 : 0.33333333 : 1">
		</inkscape:perspective>
</defs>
<sodipodi:namedview  id="base" pagecolor="#ffffff" bordercolor="#000000" borderopacity="1.0" showgrid="true" inkscape:zoom="9.5861449" inkscape:cx="21.270549" inkscape:cy="2.8669512" inkscape:current-layer="layer1" inkscape:pageopacity="0.0" inkscape:pageshadow="2" inkscape:window-width="1280" inkscape:window-height="944" inkscape:window-maximized="0" inkscape:window-x="0" inkscape:window-y="44" inkscape:document-units="px" inkscape:guide-bbox="true" showguides="true">
	</sodipodi:namedview>
<g>
	<g id="g3841_1_" transform="translate(23.992961,2.2949789)">
		<path d="M7.997,8.82C7.993,8.777,7.989,8.737,7.983,8.696C7.971,8.638,7.958,8.582,7.941,8.527
			C7.927,8.488,7.914,8.451,7.898,8.412C7.872,8.359,7.845,8.309,7.814,8.26C7.792,8.227,7.772,8.19,7.744,8.16
			C7.707,8.111,7.662,8.069,7.617,8.027C7.593,8.006,7.576,7.979,7.552,7.961L-5.321-2.048C-5.53-2.21-5.783-2.295-6.04-2.295
			c-0.129,0-0.257,0.021-0.382,0.064l-0.612,0.21l-12.034,4.101c-0.222,0.075-0.408,0.218-0.545,0.396
			c-0.021,0.024-0.033,0.052-0.051,0.076c-0.03,0.041-0.055,0.081-0.08,0.126c-0.027,0.048-0.049,0.097-0.069,0.15
			c-0.018,0.048-0.033,0.096-0.044,0.147c-0.006,0.024-0.02,0.048-0.024,0.074c-0.005,0.031,0,0.062-0.002,0.094
			c-0.002,0.029-0.012,0.058-0.013,0.086l-0.096,10.285c-0.003,0.368,0.164,0.712,0.453,0.937l12.874,10.012
			c0.005,0.004,0.012,0.004,0.017,0.01c0.009,0.006,0.014,0.012,0.021,0.018c0.005,0.004,0.009,0.004,0.015,0.008l0.021,0.018
			c0.211,0.164,0.465,0.246,0.72,0.246c0.172,0,0.346-0.037,0.509-0.115c0.08-0.039,0.151-0.092,0.22-0.146l12.373-4.412
			c0.467-0.168,0.778-0.611,0.778-1.105V8.893C8.005,8.866,7.998,8.843,7.997,8.82z"/>
		<polygon id="polygon3780_1_" fill="#7CC5D9" points="6.832,8.889 -5.788,13.25 -18.724,3.238 -6.043,-1.123 		"/>
		<polygon id="polygon3782_1_" fill="#006882" points="-5.788,13.25 -5.946,23.535 -18.82,13.524 -18.724,3.238 		"/>
		
			<linearGradient id="SVGID_1_" gradientUnits="userSpaceOnUse" x1="-44.825" y1="-106.5435" x2="-32.0336" y2="-102.2596" gradientTransform="matrix(1 0 0 -1 26.4531 -91.1349)">
			<stop  offset="0" style="stop-color:#0A485C"/>
			<stop  offset="1" style="stop-color:#B0D0DA;stop-opacity:0"/>
		</linearGradient>
		<polygon fill="url(#SVGID_1_)" points="-18.82,13.524 -18.724,3.238 -5.788,13.25 -5.946,23.535 		"/>
		<polygon id="polygon3784_1_" fill="#02ABD8" points="6.832,18.98 -5.946,23.535 -5.788,13.25 6.832,8.889 		"/>
		
			<linearGradient id="SVGID_2_" gradientUnits="userSpaceOnUse" x1="-32.3992" y1="-107.3467" x2="-19.6209" y2="-107.3467" gradientTransform="matrix(1 0 0 -1 26.4531 -91.1349)">
			<stop  offset="0" style="stop-color:#B0D0DA;stop-opacity:0"/>
			<stop  offset="1" style="stop-color:#A0DCF4"/>
		</linearGradient>
		<polygon fill="url(#SVGID_2_)" points="-5.747,13.089 6.832,8.889 6.832,18.98 -5.946,23.535 		"/>
	</g>
</g>
<g>
	<path id="path3144" fill="#231F20" d="M16.553,31.064c0.148,0,0.295-0.053,0.411-0.15c0.144-0.121,0.228-0.301,0.228-0.488V13.575
		c0-0.18-0.075-0.351-0.209-0.473c-0.117-0.108-0.271-0.167-0.43-0.167c-0.021,0-0.039,0-0.059,0.002L3.39,14.123
		c-0.33,0.03-0.582,0.307-0.582,0.637v13.412c0,0.311,0.225,0.577,0.531,0.631l13.104,2.254
		C16.479,31.063,16.516,31.064,16.553,31.064L16.553,31.064z"/>
	<path id="path3897_3_" fill="#F9A620" d="M3.446,14.758V28.17l13.105,2.254V13.575L3.446,14.758z"/>
	
		<linearGradient id="polygon3155_1_" gradientUnits="userSpaceOnUse" x1="-268.0586" y1="547.8301" x2="-256.2334" y2="547.8301" gradientTransform="matrix(-1 0 0 1 -252.1465 -525.8594)">
		<stop  offset="0" style="stop-color:#A36628"/>
		<stop  offset="0.5394" style="stop-color:#F9A620"/>
		<stop  offset="1" style="stop-color:#FFF3DF"/>
	</linearGradient>
	<polygon id="polygon3155" fill="url(#polygon3155_1_)" points="4.087,27.629 15.912,29.665 15.912,14.274 4.087,15.343 	"/>
	
		<linearGradient id="path1710_1_" gradientUnits="userSpaceOnUse" x1="-5030.5371" y1="15021.3203" x2="-5020.9956" y2="15021.3203" gradientTransform="matrix(0.1243 0 0 0.108 638.8758 -1600.3024)">
		<stop  offset="0" style="stop-color:#F3F4EE"/>
		<stop  offset="1" style="stop-color:#B1B3AE"/>
	</linearGradient>
	<path id="path1710_2_" fill="url(#path1710_1_)" d="M1.107,14.968v13.062l11.739,1.929l2.303-0.424V14.389l-2.303-0.346
		L1.107,14.968z"/>
	<path id="path3164" fill="#231F20" d="M12.809,32c0.146,0,0.289-0.05,0.404-0.145c0.148-0.121,0.234-0.305,0.234-0.496V12.64
		c0-0.182-0.076-0.355-0.211-0.476C13.118,12.058,12.966,12,12.809,12c-0.022,0-0.045,0.001-0.067,0.004L0.571,13.32
		C0.246,13.356,0,13.629,0,13.956v14.901c0,0.305,0.213,0.564,0.511,0.627l12.168,2.502C12.723,31.996,12.766,32,12.809,32
		L12.809,32z"/>
	<path id="path2443_3_" fill="#F9A620" d="M0.64,13.955v14.902l12.168,2.502v-18.72L0.64,13.955z"/>
	
		<linearGradient id="polygon3175_1_" gradientUnits="userSpaceOnUse" x1="-264.3154" y1="547.7432" x2="-253.4253" y2="547.7432" gradientTransform="matrix(-1 0 0 1 -252.1465 -525.8594)">
		<stop  offset="0" style="stop-color:#A36628"/>
		<stop  offset="0.5394" style="stop-color:#F9A620"/>
		<stop  offset="1" style="stop-color:#FFF3DF"/>
	</linearGradient>
	<polygon id="polygon3175" fill="url(#polygon3175_1_)" points="1.279,28.257 12.169,30.494 12.169,13.273 1.279,14.451 	"/>
	
		<linearGradient id="path7549_1_" gradientUnits="userSpaceOnUse" x1="-5580.2813" y1="14365.5801" x2="-5582.2661" y2="14475.1504" gradientTransform="matrix(0.1119 0 0 0.1119 631.1758 -1600.0599)">
		<stop  offset="0" style="stop-color:#FFFFFF;stop-opacity:0.624"/>
		<stop  offset="1" style="stop-color:#FFFFFF;stop-opacity:0"/>
	</linearGradient>
	<path id="path7549_2_" fill="url(#path7549_1_)" d="M1.222,14.717v8.295c3.255-6.264,7.805-3.555,10.605,1.188V13.478L1.222,14.717
		z"/>
	
		<radialGradient id="path3736_1_" cx="-4020.6475" cy="8522.959" r="39.1684" gradientTransform="matrix(0.1648 0 0 0.1902 666.7775 -1603.9047)" gradientUnits="userSpaceOnUse">
		<stop  offset="0" style="stop-color:#FFFFFF;stop-opacity:0.3519"/>
		<stop  offset="1" style="stop-color:#FFFFFF;stop-opacity:0"/>
	</radialGradient>
	<path id="path3736_2_" fill="url(#path3736_1_)" d="M1.107,14.292v13.411l11.233,2.252V13.106L1.107,14.292z"/>
	<path id="path3191" fill="#231F20" d="M3.048,21.779c0.182,0,0.359-0.078,0.482-0.219l1.016-1.166l1.124,0.61
		c0.096,0.054,0.201,0.078,0.307,0.078c0.127,0,0.255-0.038,0.363-0.112c0.199-0.138,0.304-0.375,0.271-0.613
		c-0.106-0.771-0.369-2.926-0.313-3.646c0.044-0.527,0.533-2.269,0.831-3.243c0.063-0.203,0.02-0.424-0.114-0.589
		c-0.121-0.152-0.306-0.239-0.497-0.239c-0.018,0-0.036,0.001-0.053,0.002L3.761,12.87c-0.243,0.021-0.455,0.178-0.543,0.407
		c-0.158,0.407-0.95,2.479-1.03,3.226c-0.127,1.183,0.21,4.56,0.225,4.702c0.025,0.254,0.199,0.469,0.441,0.547
		C2.918,21.77,2.983,21.779,3.048,21.779L3.048,21.779z"/>
	<path id="path3193" fill="#EA2A29" d="M2.746,16.545c-0.124,1.176,0.236,4.758,0.236,4.758l1.406-1.615L6.03,20.58
		c0,0-0.407-2.954-0.329-3.939c0.065-0.827,0.893-3.52,0.893-3.52L3.78,13.356C3.781,13.354,2.824,15.813,2.746,16.545z"/>
	
		<linearGradient id="path3202_1_" gradientUnits="userSpaceOnUse" x1="-258.0576" y1="542.6514" x2="-255.3086" y2="542.6514" gradientTransform="matrix(-1 0 0 1 -252.1465 -525.8594)">
		<stop  offset="0" style="stop-color:#F5969A"/>
		<stop  offset="1" style="stop-color:#901A1E"/>
	</linearGradient>
	<path id="path3202" fill="url(#path3202_1_)" d="M4.216,19.131l1.163,0.633c-0.123-1.068-0.266-2.527-0.208-3.234
		c0.051-0.649,0.457-2.133,0.74-3.111l-1.769,0.148c-0.391,1.039-0.905,2.514-0.955,2.978c-0.072,0.688,0.024,2.313,0.128,3.622
		L4.216,19.131z"/>
</g>
</svg>
