<?xml version="1.0" encoding="utf-8"?>
<!-- Generator: Adobe Illustrator 14.0.0, SVG Export Plug-In . SVG Version: 6.00 Build 43363)  -->
<!DOCTYPE svg PUBLIC "-//W3C//DTD SVG 1.1//EN" "http://www.w3.org/Graphics/SVG/1.1/DTD/svg11.dtd">
<svg version="1.1"
	 id="svg2" sodipodi:docbase="C:\Radix\dev\trunk\org.radixware\kernel\designer\src\common.resources\src\org\radixware\kernel\designer\resources\icons\ads\method" sodipodi:docname="method_abstract_static_private.svg" inkscape:version="0.45.1" sodipodi:version="0.32" inkscape:output_extension="org.inkscape.output.svg.inkscape" xmlns:ns="http://creativecommons.org/ns#" xmlns:dc="http://purl.org/dc/elements/1.1/" xmlns:cc="http://web.resource.org/cc/" xmlns:rdf="http://www.w3.org/1999/02/22-rdf-syntax-ns#" xmlns:svg="http://www.w3.org/2000/svg" xmlns:sodipodi="http://sodipodi.sourceforge.net/DTD/sodipodi-0.dtd" xmlns:inkscape="http://www.inkscape.org/namespaces/inkscape"
	 xmlns="http://www.w3.org/2000/svg" xmlns:xlink="http://www.w3.org/1999/xlink" x="0px" y="0px" width="32px" height="32px"
	 viewBox="0 0 32 32" enable-background="new 0 0 32 32" xml:space="preserve">
<sodipodi:namedview  id="base" pagecolor="#ffffff" bordercolor="#000000" borderopacity="1.0" showgrid="true" inkscape:zoom="9.5861449" inkscape:cx="21.270549" inkscape:cy="13.17617" inkscape:current-layer="layer1" inkscape:pageopacity="0.0" inkscape:pageshadow="2" inkscape:window-width="1280" inkscape:window-height="944" inkscape:window-x="0" inkscape:window-y="44" inkscape:document-units="px" inkscape:guide-bbox="true" showguides="true">
	</sodipodi:namedview>
<g>
	<path d="M31.986,11.114c-0.002-0.044-0.007-0.084-0.014-0.125c-0.014-0.058-0.025-0.113-0.041-0.168
		c-0.014-0.039-0.028-0.077-0.044-0.117c-0.025-0.053-0.053-0.104-0.085-0.151c-0.021-0.032-0.041-0.071-0.068-0.101
		c-0.037-0.049-0.083-0.091-0.128-0.133c-0.023-0.021-0.039-0.046-0.064-0.065L18.671,0.246C18.461,0.085,18.209,0,17.951,0
		c-0.127,0-0.256,0.022-0.379,0.066l-0.612,0.21L4.926,4.375C4.705,4.449,4.518,4.594,4.381,4.772
		C4.359,4.796,4.348,4.823,4.33,4.847C4.301,4.888,4.275,4.929,4.25,4.973C4.223,5.021,4.201,5.07,4.182,5.123
		C4.162,5.171,4.148,5.22,4.137,5.27c-0.006,0.024-0.02,0.048-0.024,0.074c-0.005,0.028,0,0.062-0.003,0.095
		C4.107,5.466,4.099,5.495,4.096,5.522L4,15.808c-0.002,0.367,0.165,0.712,0.453,0.938l12.873,10.009
		c0.008,0.006,0.014,0.006,0.019,0.011c0.014,0.009,0.019,0.016,0.025,0.021c0.005,0.005,0.009,0.005,0.014,0.007l0.022,0.019
		c0.211,0.165,0.465,0.247,0.72,0.247c0.172,0,0.346-0.037,0.509-0.117c0.08-0.039,0.151-0.091,0.221-0.146l12.371-4.412
		C31.688,22.212,32,21.77,32,21.274v-10.09C31.995,11.159,31.988,11.137,31.986,11.114z"/>
	<polygon id="polygon3339_1_" fill="#DF8078" points="30.848,11.185 18.229,15.546 5.294,5.534 17.974,1.175 	"/>
	<polygon id="polygon3341_1_" fill="#AA3D25" points="18.229,15.546 18.07,25.828 5.197,15.818 5.294,5.534 	"/>
	<polygon id="polygon3343_1_" fill="#E9B6AE" points="30.848,21.272 18.07,25.828 18.229,15.546 30.848,11.185 	"/>
	
		<linearGradient id="polygon3387_2_" gradientUnits="userSpaceOnUse" x1="1919.0244" y1="2792.9551" x2="1954.7443" y2="2772.2234" gradientTransform="matrix(0.298 0 0 0.298 -567.512 -812.3674)">
		<stop  offset="0" style="stop-color:#3A1813"/>
		<stop  offset="1" style="stop-color:#AA3D25;stop-opacity:0"/>
	</linearGradient>
	<polygon id="polygon3387_1_" fill="url(#polygon3387_2_)" points="18.229,15.546 18.07,25.828 5.197,15.818 5.294,5.536 	"/>
	
		<linearGradient id="polygon3343_3_" gradientUnits="userSpaceOnUse" x1="312.3926" y1="-394.4385" x2="299.882" y2="-388.5749" gradientTransform="matrix(1 0 0 -1 -281.7207 -373.0195)">
		<stop  offset="0" style="stop-color:#FDF0EC"/>
		<stop  offset="1" style="stop-color:#E9B6AE;stop-opacity:0"/>
	</linearGradient>
	<polygon id="polygon3343_2_" fill="url(#polygon3343_3_)" points="30.848,21.272 18.07,25.828 18.229,15.546 30.848,11.185 	"/>
</g>
<path fill="#FFFFFF" d="M15.836,15.255l-0.001-0.731l-0.039-0.76C15.354,9.908,12.099,7,8.227,7C6.699,7,5.271,7.458,4.07,8.243
	L4,15.808c-0.002,0.367,0.165,0.712,0.453,0.938l12.699,9.874v-9.135C17.152,16.563,16.646,15.736,15.836,15.255z M6.21,14.822
	v-0.248c0.004-0.022,0.007-0.042,0.009-0.052c0.161-1.145,1.023-2.009,2.006-2.009c0.982,0,1.846,0.864,2.015,2.054
	c0,0.002,0.001,0.254,0.001,0.254H6.21z"/>
<g>
	<rect x="3.914" y="18.596" fill="#FFFFFF" width="8.809" height="11.904"/>
	<path fill="#231F20" d="M1.936,32C0.851,32,0,31.27,0,30.338V17.484c0-0.84,0.688-1.514,1.613-1.643v-1.205
		c0,0,0.031-0.74,0.034-0.76C2.033,10.527,4.86,8,8.226,8c3.364,0,6.192,2.527,6.577,5.879c0.006,0.035,0.033,0.688,0.033,0.688
		l0.002,1.341c0.771,0.219,1.314,0.834,1.314,1.577v12.854c0,0.934-0.853,1.662-1.937,1.662H1.936L1.936,32z M9.258,28.678
		l-0.873-4.934c-0.068-0.387,0.111-0.771,0.451-0.963c0.443-0.256,0.711-0.699,0.711-1.193c0-0.773-0.631-1.402-1.403-1.402
		s-1.4,0.629-1.4,1.402c0,0.467,0.241,0.902,0.646,1.166c0.307,0.197,0.468,0.557,0.41,0.918l-0.791,5.006H9.258z M11.241,15.822
		c0,0,0-1.348,0-1.35c-0.007-0.029-0.013-0.058-0.019-0.089c-0.231-1.637-1.521-2.87-2.998-2.87c-1.478,0-2.767,1.233-2.996,2.87
		c-0.005,0.033-0.011,0.063-0.019,0.097v1.342H11.241z"/>
	<path id="rect4086_6_" fill="#ED2C29" d="M8.226,8.924c-2.917,0-5.337,2.238-5.661,5.061v0.054L2.54,14.611v0.027v0.687v0.19v1.23
		H1.936c-0.566,0-1.014,0.33-1.014,0.738v12.854c0,0.412,0.446,0.74,1.014,0.74h12.281c0.565,0,1.014-0.328,1.014-0.74V17.484
		c0-0.408-0.446-0.738-1.014-0.738h-0.303v-1.23v-0.19v-0.687v-0.027l-0.027-0.573v-0.054C13.563,11.162,11.143,8.924,8.226,8.924z
		 M8.226,10.592c1.985,0,3.62,1.617,3.911,3.664h0.027v0.084c0.002,0.008-0.002,0.018,0,0.027c0,0.008,0,0.016,0,0.025v0.082v2.271
		H4.286v-2.271c0.003-0.011,0.003-0.019,0-0.025v-0.027c0.003-0.012,0.003-0.02,0-0.027c0.003-0.012,0.003-0.02,0-0.026V14.34
		v-0.082h0.028C4.604,12.209,6.242,10.592,8.226,10.592z M8.144,19.264c1.284,0,2.325,1.039,2.325,2.324
		c0,0.865-0.477,1.596-1.176,1.994l1.064,6.02H5.928l0.957-6.074C6.25,23.116,5.82,22.404,5.82,21.589
		C5.82,20.303,6.861,19.264,8.144,19.264z"/>
	
		<linearGradient id="SVGID_1_" gradientUnits="userSpaceOnUse" x1="562.8262" y1="-922.79" x2="575.2852" y2="-922.79" gradientTransform="matrix(1 0 0 -1 -560.9805 -898.8789)">
		<stop  offset="0" style="stop-color:#F4959A"/>
		<stop  offset="1" style="stop-color:#901D1E"/>
	</linearGradient>
	<path fill="url(#SVGID_1_)" d="M11.396,30.154l-1.094-6.162c0.691-0.605,1.09-1.467,1.09-2.404c0-1.791-1.457-3.248-3.249-3.248
		c-1.79,0-3.247,1.457-3.247,3.248c0,0.885,0.363,1.719,0.994,2.324l-0.984,6.242H1.936c-0.034,0-0.064-0.004-0.09-0.01V17.676
		c0.024-0.004,0.056-0.008,0.09-0.008h12.281c0.033,0,0.063,0.004,0.088,0.008v12.469c-0.022,0.006-0.055,0.01-0.088,0.01H11.396
		L11.396,30.154z"/>
</g>
</svg>
