<?xml version="1.0" encoding="utf-8"?>
<!-- Generator: Adobe Illustrator 14.0.0, SVG Export Plug-In . SVG Version: 6.00 Build 43363)  -->
<!DOCTYPE svg PUBLIC "-//W3C//DTD SVG 1.1//EN" "http://www.w3.org/Graphics/SVG/1.1/DTD/svg11.dtd">
<svg version="1.1"
	 id="svg2" sodipodi:docbase="C:\Radix\dev\trunk\org.radixware\kernel\designer\src\common.resources\src\org\radixware\kernel\designer\resources\icons\ads\method" sodipodi:docname="method_private.svg" inkscape:version="0.45.1" sodipodi:version="0.32" inkscape:output_extension="org.inkscape.output.svg.inkscape" xmlns:ns="http://creativecommons.org/ns#" xmlns:dc="http://purl.org/dc/elements/1.1/" xmlns:cc="http://web.resource.org/cc/" xmlns:rdf="http://www.w3.org/1999/02/22-rdf-syntax-ns#" xmlns:svg="http://www.w3.org/2000/svg" xmlns:sodipodi="http://sodipodi.sourceforge.net/DTD/sodipodi-0.dtd" xmlns:inkscape="http://www.inkscape.org/namespaces/inkscape"
	 xmlns="http://www.w3.org/2000/svg" xmlns:xlink="http://www.w3.org/1999/xlink" x="0px" y="0px" width="32px" height="32px"
	 viewBox="0 0 32 32" enable-background="new 0 0 32 32" xml:space="preserve">
<sodipodi:namedview  id="base" pagecolor="#ffffff" bordercolor="#000000" borderopacity="1.0" showgrid="true" inkscape:zoom="9.5861449" inkscape:cx="21.270549" inkscape:cy="6.4748695" inkscape:current-layer="layer1" inkscape:pageopacity="0.0" inkscape:pageshadow="2" inkscape:window-width="1280" inkscape:window-height="944" inkscape:window-x="0" inkscape:window-y="44" inkscape:document-units="px" inkscape:guide-bbox="true" showguides="true">
	</sodipodi:namedview>
<g>
	<path id="path9179_19_" fill="#020202" d="M10.32,32c-0.149,0-0.303-0.031-0.442-0.1c-0.349-0.164-0.572-0.504-0.578-0.883
		l-0.05-2.463c-0.5-0.029-0.938-0.043-1.348-0.043c-3.084,0-4.922,0.885-5.952,2.867c-0.176,0.342-0.532,0.549-0.911,0.549
		c-0.058,0-0.113-0.008-0.174-0.02c-0.44-0.072-0.781-0.422-0.838-0.854c-0.015-0.105-0.322-2.602,1.586-4.813
		c1.578-1.834,4.146-2.902,7.642-3.186L9.3,21.109c0.01-0.377,0.233-0.719,0.58-0.881c0.142-0.064,0.291-0.1,0.44-0.1
		c0.224,0,0.441,0.072,0.621,0.209l6.517,4.936c0.251,0.188,0.396,0.48,0.396,0.793c0,0.311-0.146,0.602-0.396,0.791l-6.515,4.934
		C10.76,31.93,10.542,32,10.32,32L10.32,32z"/>
	<path id="path7827_61_" fill="#6EBD46" d="M10.286,21.135l-0.063,2.873c-10.093,0.381-9.214,6.92-9.214,6.92
		c1.868-3.604,5.748-3.592,9.214-3.301L10.286,31l6.514-4.934L10.286,21.135z"/>
	
		<linearGradient id="path4454_1_" gradientUnits="userSpaceOnUse" x1="565.6699" y1="836.1045" x2="579.0664" y2="836.1045" gradientTransform="matrix(1 0 0 1 -563.4414 -810.0391)">
		<stop  offset="0" style="stop-color:#B0D68C"/>
		<stop  offset="1" style="stop-color:#1E9046"/>
	</linearGradient>
	<path id="path4454_29_" fill="url(#path4454_1_)" d="M10.975,29.59l-0.051-2.607l-0.645-0.053
		c-0.974-0.084-1.721-0.119-2.416-0.119c-1.685,0-3.877,0.199-5.635,1.543c0.167-0.332,0.387-0.674,0.676-1.01
		c1.391-1.615,3.86-2.502,7.339-2.635l0.674-0.025l0.049-2.143l4.658,3.525L10.975,29.59z"/>
</g>
<g>
	<g id="g3921_1_" transform="translate(-24.618865,-30.356312)">
		
			<linearGradient id="rect3870_2_" gradientUnits="userSpaceOnUse" x1="340.4909" y1="3240.3083" x2="318.952" y2="3240.3083" gradientTransform="matrix(1.0208 0 0 0.2736 -298.8201 -853.3234)">
			<stop  offset="0" style="stop-color:#000000"/>
			<stop  offset="0.1734" style="stop-color:#030405;stop-opacity:0.8266"/>
			<stop  offset="0.3161" style="stop-color:#070E11;stop-opacity:0.6839"/>
			<stop  offset="0.448" style="stop-color:#0A1621;stop-opacity:0.552"/>
			<stop  offset="0.5733" style="stop-color:#072036;stop-opacity:0.4267"/>
			<stop  offset="0.694" style="stop-color:#113256;stop-opacity:0.306"/>
			<stop  offset="0.8113" style="stop-color:#11497D;stop-opacity:0.1887"/>
			<stop  offset="0.9236" style="stop-color:#0061A9;stop-opacity:0.0764"/>
			<stop  offset="1" style="stop-color:#2773B9;stop-opacity:0"/>
		</linearGradient>
		
			<rect id="rect3870_1_" x="24.615" y="30.356" opacity="0.5" fill="url(#rect3870_2_)" enable-background="new    " width="20.107" height="5.736"/>
		
			<linearGradient id="rect3872_2_" gradientUnits="userSpaceOnUse" x1="170.9939" y1="1371.4081" x2="161.3336" y2="1371.4081" gradientTransform="matrix(1.4465 0 0 0.7523 -205.5832 -990.1989)">
			<stop  offset="0" style="stop-color:#000000"/>
			<stop  offset="0.1331" style="stop-color:#040507;stop-opacity:0.8669"/>
			<stop  offset="0.2731" style="stop-color:#091014;stop-opacity:0.7269"/>
			<stop  offset="0.4163" style="stop-color:#071826;stop-opacity:0.5837"/>
			<stop  offset="0.5618" style="stop-color:#062743;stop-opacity:0.4382"/>
			<stop  offset="0.7091" style="stop-color:#153E69;stop-opacity:0.2909"/>
			<stop  offset="0.8555" style="stop-color:#005696;stop-opacity:0.1445"/>
			<stop  offset="1" style="stop-color:#2773B9;stop-opacity:0"/>
		</linearGradient>
		
			<rect id="rect3872_1_" x="24.617" y="35.016" opacity="0.5" fill="url(#rect3872_2_)" enable-background="new    " width="14.686" height="12.988"/>
		
			<linearGradient id="rect3874_2_" gradientUnits="userSpaceOnUse" x1="376.1286" y1="626.6864" x2="347.8356" y2="626.6864" gradientTransform="matrix(0.9632 0 0 2.3944 -311.1196 -1451.5493)">
			<stop  offset="0" style="stop-color:#000000"/>
			<stop  offset="0.1086" style="stop-color:#040608;stop-opacity:0.8914"/>
			<stop  offset="0.2519" style="stop-color:#0A1319;stop-opacity:0.7481"/>
			<stop  offset="0.4144" style="stop-color:#061D31;stop-opacity:0.5856"/>
			<stop  offset="0.5912" style="stop-color:#123357;stop-opacity:0.4088"/>
			<stop  offset="0.7796" style="stop-color:#064F88;stop-opacity:0.2204"/>
			<stop  offset="0.9749" style="stop-color:#206FB7;stop-opacity:0.0251"/>
			<stop  offset="1" style="stop-color:#2773B9;stop-opacity:0"/>
		</linearGradient>
		
			<rect id="rect3874_1_" x="24.615" y="44.554" opacity="0.5" fill="url(#rect3874_2_)" enable-background="new    " width="20.107" height="8.866"/>
	</g>
	<g id="g3841_1_" transform="translate(23.992961,2.2949789)">
		<path d="M7.998,7.182C7.995,7.144,7.991,7.11,7.986,7.075C7.976,7.026,7.965,6.978,7.95,6.932
			C7.939,6.898,7.928,6.866,7.913,6.833C7.892,6.788,7.868,6.745,7.842,6.704c-0.019-0.028-0.036-0.06-0.06-0.086
			C7.751,6.577,7.713,6.541,7.674,6.505C7.654,6.487,7.64,6.465,7.618,6.449L-3.356-2.085c-0.179-0.138-0.395-0.21-0.613-0.21
			c-0.109,0-0.219,0.018-0.325,0.055l-0.522,0.18l-10.26,3.496c-0.189,0.063-0.348,0.186-0.465,0.338
			c-0.018,0.021-0.028,0.044-0.043,0.064c-0.025,0.035-0.047,0.069-0.068,0.107c-0.023,0.041-0.042,0.083-0.059,0.128
			c-0.016,0.041-0.028,0.082-0.038,0.125c-0.005,0.021-0.017,0.041-0.021,0.063c-0.004,0.026,0,0.053-0.002,0.08
			c-0.002,0.024-0.01,0.049-0.011,0.073l-0.082,8.769c-0.003,0.313,0.14,0.607,0.386,0.799l10.977,8.535
			c0.004,0.004,0.01,0.004,0.014,0.009c0.008,0.005,0.012,0.011,0.018,0.016c0.004,0.003,0.008,0.003,0.013,0.006l0.019,0.015
			c0.18,0.14,0.396,0.211,0.613,0.211c0.146,0,0.295-0.032,0.434-0.1c0.068-0.033,0.129-0.078,0.188-0.125l10.549-3.761
			c0.398-0.144,0.664-0.521,0.664-0.942V7.243C8.005,7.221,7.999,7.201,7.998,7.182z"/>
		<polygon id="polygon3780_1_" fill="#7CC5D9" points="7.005,7.24 -3.755,10.958 -14.784,2.422 -3.971,-1.296 		"/>
		<polygon id="polygon3782_1_" fill="#006882" points="-3.755,10.958 -3.889,19.727 -14.865,11.191 -14.784,2.422 		"/>
		
			<linearGradient id="SVGID_1_" gradientUnits="userSpaceOnUse" x1="-40.9363" y1="-103.9327" x2="-30.0311" y2="-100.2804" gradientTransform="matrix(1 0 0 -1 26.4531 -91.1349)">
			<stop  offset="0" style="stop-color:#0A485C"/>
			<stop  offset="1" style="stop-color:#B0D0DA;stop-opacity:0"/>
		</linearGradient>
		<polygon fill="url(#SVGID_1_)" points="-14.865,11.191 -14.784,2.422 -3.755,10.958 -3.889,19.727 		"/>
		<polygon id="polygon3784_1_" fill="#02ABD8" points="7.005,15.844 -3.889,19.727 -3.755,10.958 7.005,7.24 		"/>
		
			<linearGradient id="SVGID_2_" gradientUnits="userSpaceOnUse" x1="-30.3426" y1="-104.6182" x2="-19.448" y2="-104.6182" gradientTransform="matrix(1 0 0 -1 26.4531 -91.1349)">
			<stop  offset="0" style="stop-color:#B0D0DA;stop-opacity:0"/>
			<stop  offset="1" style="stop-color:#A0DCF4"/>
		</linearGradient>
		<polygon fill="url(#SVGID_2_)" points="-3.72,10.821 7.005,7.24 7.005,15.844 -3.889,19.727 		"/>
	</g>
</g>
</svg>
