<?xml version="1.0" encoding="utf-8"?>
<!-- Generator: Adobe Illustrator 14.0.0, SVG Export Plug-In . SVG Version: 6.00 Build 43363)  -->
<!DOCTYPE svg PUBLIC "-//W3C//DTD SVG 1.1//EN" "http://www.w3.org/Graphics/SVG/1.1/DTD/svg11.dtd">
<svg version="1.1"
	 id="svg2" sodipodi:docname="method_slot_protected.svg" inkscape:version="0.47 r22583" sodipodi:version="0.32" inkscape:output_extension="org.inkscape.output.svg.inkscape" xmlns:dc="http://purl.org/dc/elements/1.1/" xmlns:cc="http://creativecommons.org/ns#" xmlns:rdf="http://www.w3.org/1999/02/22-rdf-syntax-ns#" xmlns:svg="http://www.w3.org/2000/svg" xmlns:sodipodi="http://sodipodi.sourceforge.net/DTD/sodipodi-0.dtd" xmlns:inkscape="http://www.inkscape.org/namespaces/inkscape"
	 xmlns="http://www.w3.org/2000/svg" xmlns:xlink="http://www.w3.org/1999/xlink" x="0px" y="0px" width="32px" height="32px"
	 viewBox="0 0 32 32" enable-background="new 0 0 32 32" xml:space="preserve">
<defs>
	
	
		<inkscape:perspective  id="perspective59" sodipodi:type="inkscape:persp3d" inkscape:vp_z="32 : 16 : 1" inkscape:vp_x="0 : 16 : 1" inkscape:vp_y="0 : 1000 : 0" inkscape:persp3d-origin="16 : 10.666667 : 1">
		</inkscape:perspective>
</defs>
<g>
	<g id="g3921_1_" transform="translate(-24.618865,-30.356312)">
		
			<linearGradient id="rect3870_2_" gradientUnits="userSpaceOnUse" x1="340.4909" y1="3240.3083" x2="318.952" y2="3240.3083" gradientTransform="matrix(1.0208 0 0 0.2736 -298.8201 -853.3234)">
			<stop  offset="0" style="stop-color:#000000"/>
			<stop  offset="0.1734" style="stop-color:#030405;stop-opacity:0.8266"/>
			<stop  offset="0.3161" style="stop-color:#070E11;stop-opacity:0.6839"/>
			<stop  offset="0.448" style="stop-color:#0A1621;stop-opacity:0.552"/>
			<stop  offset="0.5733" style="stop-color:#072036;stop-opacity:0.4267"/>
			<stop  offset="0.694" style="stop-color:#113256;stop-opacity:0.306"/>
			<stop  offset="0.8113" style="stop-color:#11497D;stop-opacity:0.1887"/>
			<stop  offset="0.9236" style="stop-color:#0061A9;stop-opacity:0.0764"/>
			<stop  offset="1" style="stop-color:#2773B9;stop-opacity:0"/>
		</linearGradient>
		
			<rect id="rect3870_1_" x="24.615" y="30.356" opacity="0.5" fill="url(#rect3870_2_)" enable-background="new    " width="20.107" height="5.736"/>
		
			<linearGradient id="rect3872_2_" gradientUnits="userSpaceOnUse" x1="170.9939" y1="1371.4081" x2="161.3336" y2="1371.4081" gradientTransform="matrix(1.4465 0 0 0.7523 -205.5832 -990.1989)">
			<stop  offset="0" style="stop-color:#000000"/>
			<stop  offset="0.1331" style="stop-color:#040507;stop-opacity:0.8669"/>
			<stop  offset="0.2731" style="stop-color:#091014;stop-opacity:0.7269"/>
			<stop  offset="0.4163" style="stop-color:#071826;stop-opacity:0.5837"/>
			<stop  offset="0.5618" style="stop-color:#062743;stop-opacity:0.4382"/>
			<stop  offset="0.7091" style="stop-color:#153E69;stop-opacity:0.2909"/>
			<stop  offset="0.8555" style="stop-color:#005696;stop-opacity:0.1445"/>
			<stop  offset="1" style="stop-color:#2773B9;stop-opacity:0"/>
		</linearGradient>
		
			<rect id="rect3872_1_" x="24.617" y="35.016" opacity="0.5" fill="url(#rect3872_2_)" enable-background="new    " width="14.686" height="12.988"/>
		
			<linearGradient id="rect3874_2_" gradientUnits="userSpaceOnUse" x1="376.1286" y1="626.6864" x2="347.8356" y2="626.6864" gradientTransform="matrix(0.9632 0 0 2.3944 -311.1196 -1451.5493)">
			<stop  offset="0" style="stop-color:#000000"/>
			<stop  offset="0.1086" style="stop-color:#040608;stop-opacity:0.8914"/>
			<stop  offset="0.2519" style="stop-color:#0A1319;stop-opacity:0.7481"/>
			<stop  offset="0.4144" style="stop-color:#061D31;stop-opacity:0.5856"/>
			<stop  offset="0.5912" style="stop-color:#123357;stop-opacity:0.4088"/>
			<stop  offset="0.7796" style="stop-color:#064F88;stop-opacity:0.2204"/>
			<stop  offset="0.9749" style="stop-color:#206FB7;stop-opacity:0.0251"/>
			<stop  offset="1" style="stop-color:#2773B9;stop-opacity:0"/>
		</linearGradient>
		
			<rect id="rect3874_1_" x="24.615" y="44.554" opacity="0.5" fill="url(#rect3874_2_)" enable-background="new    " width="20.107" height="8.866"/>
	</g>
	<g id="g3841_1_" transform="translate(23.992961,2.2949789)">
		<path d="M7.998,7.182C7.995,7.144,7.991,7.11,7.986,7.075C7.976,7.026,7.965,6.978,7.95,6.932
			C7.939,6.898,7.928,6.866,7.913,6.833C7.892,6.788,7.868,6.745,7.842,6.704c-0.019-0.028-0.036-0.06-0.06-0.086
			C7.751,6.577,7.713,6.541,7.674,6.505C7.654,6.487,7.64,6.465,7.618,6.449L-3.356-2.085c-0.179-0.138-0.395-0.21-0.613-0.21
			c-0.109,0-0.219,0.018-0.325,0.055l-0.522,0.18l-10.26,3.496c-0.189,0.063-0.348,0.186-0.465,0.338
			c-0.018,0.021-0.028,0.044-0.043,0.064c-0.025,0.035-0.047,0.069-0.068,0.107c-0.023,0.041-0.042,0.083-0.059,0.128
			c-0.016,0.041-0.028,0.082-0.038,0.125c-0.005,0.021-0.017,0.041-0.021,0.063c-0.004,0.026,0,0.053-0.002,0.08
			c-0.002,0.024-0.01,0.049-0.011,0.073l-0.082,8.769c-0.003,0.313,0.14,0.607,0.386,0.799l10.977,8.535
			c0.004,0.004,0.01,0.004,0.014,0.009c0.008,0.005,0.012,0.011,0.018,0.016c0.004,0.003,0.008,0.003,0.013,0.006l0.019,0.015
			c0.18,0.14,0.396,0.211,0.613,0.211c0.146,0,0.295-0.032,0.434-0.1c0.068-0.033,0.129-0.078,0.188-0.125l10.549-3.761
			c0.398-0.144,0.664-0.521,0.664-0.942V7.243C8.005,7.221,7.999,7.201,7.998,7.182z"/>
		<polygon id="polygon3780_1_" fill="#7CC5D9" points="7.005,7.24 -3.755,10.958 -14.784,2.422 -3.971,-1.296 		"/>
		<polygon id="polygon3782_1_" fill="#006882" points="-3.755,10.958 -3.889,19.727 -14.865,11.191 -14.784,2.422 		"/>
		
			<linearGradient id="SVGID_1_" gradientUnits="userSpaceOnUse" x1="-40.9363" y1="-103.9327" x2="-30.0311" y2="-100.2804" gradientTransform="matrix(1 0 0 -1 26.4531 -91.1349)">
			<stop  offset="0" style="stop-color:#0A485C"/>
			<stop  offset="1" style="stop-color:#B0D0DA;stop-opacity:0"/>
		</linearGradient>
		<polygon fill="url(#SVGID_1_)" points="-14.865,11.191 -14.784,2.422 -3.755,10.958 -3.889,19.727 		"/>
		<polygon id="polygon3784_1_" fill="#02ABD8" points="7.005,15.844 -3.889,19.727 -3.755,10.958 7.005,7.24 		"/>
		
			<linearGradient id="SVGID_2_" gradientUnits="userSpaceOnUse" x1="-30.3426" y1="-104.6182" x2="-19.448" y2="-104.6182" gradientTransform="matrix(1 0 0 -1 26.4531 -91.1349)">
			<stop  offset="0" style="stop-color:#B0D0DA;stop-opacity:0"/>
			<stop  offset="1" style="stop-color:#A0DCF4"/>
		</linearGradient>
		<polygon fill="url(#SVGID_2_)" points="-3.72,10.821 7.005,7.24 7.005,15.844 -3.889,19.727 		"/>
	</g>
</g>
<sodipodi:namedview  id="base" pagecolor="#ffffff" bordercolor="#000000" borderopacity="1.0" showgrid="true" inkscape:zoom="19.17229" inkscape:cx="13.200174" inkscape:cy="13.814467" inkscape:current-layer="layer1" inkscape:pageopacity="0.0" inkscape:pageshadow="2" inkscape:window-width="1280" inkscape:window-height="944" inkscape:window-maximized="0" inkscape:window-x="0" inkscape:window-y="25" inkscape:document-units="px" inkscape:guide-bbox="true" showguides="true">
	</sodipodi:namedview>
<g>
	<g>
		<g>
			<path id="path4046_12_" fill="#020202" d="M17.695,32c-0.139,0-0.277-0.038-0.402-0.116c-0.32-0.202-0.439-0.612-0.273-0.956
				l4.742-9.914c0,0-1.75,0.025-1.755,0.025c-0.243,0-0.474-0.116-0.612-0.316c-0.143-0.203-0.178-0.463-0.092-0.695l4.27-11.533
				c0.109-0.294,0.391-0.49,0.705-0.49L31.249,8c0.287,0,0.549,0.163,0.672,0.419c0.128,0.256,0.101,0.563-0.077,0.791l-4.721,6.153
				c0,0,3.014-0.025,3.016-0.025c0.289,0,0.551,0.166,0.676,0.426c0.127,0.264,0.088,0.576-0.097,0.801L18.279,31.727
				C18.13,31.904,17.914,32,17.695,32L17.695,32z"/>
			<path id="path5141_13_" fill="#F9A61E" d="M20.004,20.283l2.96-0.047l-5.267,11.012l12.439-15.162l-4.552,0.042l5.659-7.375
				l-6.971,0.004L20.004,20.283z"/>
			
				<linearGradient id="polygon4061_1_" gradientUnits="userSpaceOnUse" x1="581.8516" y1="-1484.4385" x2="590.5234" y2="-1484.4385" gradientTransform="matrix(1 0 0 -1 -560.8008 -1466.6992)">
				<stop  offset="0" style="stop-color:#FFF3DF"/>
				<stop  offset="0.5394" style="stop-color:#F9A61E"/>
				<stop  offset="1" style="stop-color:#A36628"/>
			</linearGradient>
			<polygon id="polygon4061_12_" fill="url(#polygon4061_1_)" points="21.051,25.975 24.164,19.467 21.091,19.514 24.795,9.508 
				29.723,9.504 24.053,16.893 28.534,16.854 			"/>
		</g>
	</g>
</g>
<g>
	<path id="path2935_9_" fill="#231F20" d="M3.209,30.522c-0.121-0.123-0.191-0.289-0.189-0.463v-1.146
		c0-0.105,0.025-0.217,0.078-0.311L3.33,28.17l-0.232-0.44c-0.09-0.166-0.102-0.358-0.035-0.533l0.233-0.631l-0.172-1.066
		c-0.021-0.125-0.002-0.25,0.047-0.366l0.246-0.563l-0.364-1.1c-0.072-0.209-0.027-0.441,0.109-0.615l0.499-0.623l-0.541-0.84
		c-0.067-0.104-0.103-0.226-0.103-0.354v-1.143H2.691c-0.18,0-0.344-0.076-0.463-0.19c-0.119-0.118-0.189-0.279-0.191-0.459v-1.611
		c-0.158-0.127-0.313-0.263-0.455-0.403C0.563,16.208,0,14.852,0,13.409c0-1.445,0.564-2.803,1.583-3.825
		C2.605,8.561,3.962,8,5.407,8C6.854,8,8.208,8.563,9.23,9.583c1.021,1.021,1.584,2.377,1.584,3.823
		c-0.002,1.648-0.758,3.204-2.039,4.226v1.612c0,0.173-0.068,0.337-0.191,0.462c-0.121,0.121-0.289,0.19-0.461,0.19H7.794
		L7.796,30.06c0,0.205-0.099,0.4-0.264,0.524l-1.737,1.287c-0.23,0.172-0.547,0.173-0.779,0l-1.734-1.289
		C3.259,30.563,3.232,30.544,3.209,30.522L3.209,30.522z M5.996,10.354c-0.156-0.158-0.365-0.242-0.588-0.242
		c-0.456,0-0.829,0.371-0.83,0.83c0.001,0.227,0.086,0.433,0.242,0.588c0.156,0.158,0.365,0.244,0.588,0.244
		c0.458,0,0.83-0.375,0.832-0.832C6.238,10.721,6.152,10.512,5.996,10.354L5.996,10.354z"/>
	<path id="path3790_10_" fill="#FAA920" d="M5.407,8.655c2.625,0,4.752,2.127,4.752,4.752c0,1.615-0.806,3.037-2.037,3.899v1.938
		H7.143l0.002,10.813l-1.736,1.289l-1.735-1.289v-1.144l0.397-0.74l-0.396-0.748l0.297-0.792l-0.199-1.236l0.349-0.793l-0.446-1.332
		l0.793-0.99l-0.793-1.235v-1.798l-0.98,0.001V17.31c-1.23-0.86-2.036-2.284-2.037-3.899C0.654,10.782,2.782,8.653,5.407,8.655
		L5.407,8.655z M5.407,9.458c-0.821,0-1.484,0.664-1.484,1.485c0,0.822,0.665,1.484,1.484,1.482c0.821,0,1.483-0.66,1.485-1.482
		C6.893,10.124,6.229,9.458,5.407,9.458z"/>
	
		<linearGradient id="path2946_1_" gradientUnits="userSpaceOnUse" x1="755.293" y1="-2364.749" x2="763.4941" y2="-2364.749" gradientTransform="matrix(1 0 0 -1 -753.9844 -2344.6387)">
		<stop  offset="0" style="stop-color:#A5692A"/>
		<stop  offset="0.5394" style="stop-color:#FAA920"/>
		<stop  offset="1" style="stop-color:#FFF3E2"/>
	</linearGradient>
	<path id="path2946_9_" fill="url(#path2946_1_)" d="M4.326,29.075l0.484-0.902l-0.42-0.792l0.254-0.678l-0.197-1.222l0.369-0.844
		l-0.41-1.24l0.861-1.076l-0.941-1.473v-2.261H3.344v-1.624l-0.277-0.193c-0.198-0.139-0.387-0.297-0.558-0.47
		c-0.772-0.772-1.198-1.8-1.2-2.896c0-1.094,0.426-2.123,1.201-2.897c0.348-0.345,0.743-0.622,1.172-0.821
		c-0.258,0.354-0.41,0.787-0.408,1.254c0,0.574,0.222,1.109,0.625,1.517c0.404,0.403,0.941,0.625,1.515,0.625
		c1.174,0.001,2.135-0.958,2.137-2.136c0-0.461-0.146-0.896-0.405-1.254c0.428,0.199,0.823,0.474,1.166,0.817
		c0.774,0.773,1.199,1.804,1.199,2.898c0,1.337-0.656,2.596-1.759,3.363l-0.28,0.195v1.624H6.486l0.004,11.14l-1.083,0.806
		l-1.083-0.806L4.326,29.075z"/>
	
		<linearGradient id="rect3802_1_" gradientUnits="userSpaceOnUse" x1="-1660.8525" y1="-3111.7891" x2="-1660.0405" y2="-3111.7891" gradientTransform="matrix(-1.0994 0 0 -1.0994 -1819.6372 -3396.6187)">
		<stop  offset="0" style="stop-color:#A5692A"/>
		<stop  offset="0.5394" style="stop-color:#FAA920"/>
		<stop  offset="1" style="stop-color:#2B2012"/>
	</linearGradient>
	<path id="rect3802_10_" fill="url(#rect3802_1_)" d="M6.01,19.306H5.695c-0.16,0-0.288,0.129-0.288,0.289v9.773
		c0,0.162,0.128,0.29,0.29,0.29h0.314c0.161,0,0.288-0.128,0.288-0.29v-9.775C6.298,19.437,6.169,19.306,6.01,19.306z"/>
</g>
</svg>
