<?xml version="1.0" encoding="utf-8"?>
<!-- Generator: Adobe Illustrator 14.0.0, SVG Export Plug-In . SVG Version: 6.00 Build 43363)  -->
<!DOCTYPE svg PUBLIC "-//W3C//DTD SVG 1.1//EN" "http://www.w3.org/Graphics/SVG/1.1/DTD/svg11.dtd">
<svg version="1.1"
	 id="svg2" sodipodi:docbase="C:\Radix\dev\trunk\org.radixware\kernel\designer\src\common.resources\src\org\radixware\kernel\designer\resources\icons\ads\method" sodipodi:docname="method_abstract_protected.svg" inkscape:version="0.45.1" sodipodi:version="0.32" inkscape:output_extension="org.inkscape.output.svg.inkscape" xmlns:ns="http://creativecommons.org/ns#" xmlns:dc="http://purl.org/dc/elements/1.1/" xmlns:cc="http://web.resource.org/cc/" xmlns:rdf="http://www.w3.org/1999/02/22-rdf-syntax-ns#" xmlns:svg="http://www.w3.org/2000/svg" xmlns:sodipodi="http://sodipodi.sourceforge.net/DTD/sodipodi-0.dtd" xmlns:inkscape="http://www.inkscape.org/namespaces/inkscape"
	 xmlns="http://www.w3.org/2000/svg" xmlns:xlink="http://www.w3.org/1999/xlink" x="0px" y="0px" width="32px" height="32px"
	 viewBox="0 0 32 32" enable-background="new 0 0 32 32" xml:space="preserve">
<sodipodi:namedview  id="base" pagecolor="#ffffff" bordercolor="#000000" borderopacity="1.0" showgrid="true" inkscape:zoom="9.5861449" inkscape:cx="21.270549" inkscape:cy="6.4748695" inkscape:current-layer="layer1" inkscape:pageopacity="0.0" inkscape:pageshadow="2" inkscape:window-width="1280" inkscape:window-height="944" inkscape:window-x="0" inkscape:window-y="44" inkscape:document-units="px" inkscape:guide-bbox="true" showguides="true">
	</sodipodi:namedview>
<g>
	
		<linearGradient id="rect3408_2_" gradientUnits="userSpaceOnUse" x1="299.5439" y1="-1450.1709" x2="277.5846" y2="-1450.1709" gradientTransform="matrix(1.0208 0 0 -0.2736 -281.5694 -392.8764)">
		<stop  offset="0" style="stop-color:#480000"/>
		<stop  offset="1" style="stop-color:#FF7373;stop-opacity:0"/>
	</linearGradient>
	
		<rect id="rect3408_1_" x="-0.399" y="1.068" opacity="0.5" fill="url(#rect3408_2_)" enable-background="new    " width="20.498" height="5.737"/>
	
		<linearGradient id="rect3428_2_" gradientUnits="userSpaceOnUse" x1="217.9307" y1="-518.0259" x2="198.9205" y2="-518.0259" gradientTransform="matrix(1.4465 0 0 -0.7523 -288.5827 -378.5847)">
		<stop  offset="0" style="stop-color:#480000"/>
		<stop  offset="1" style="stop-color:#FF7373;stop-opacity:0"/>
	</linearGradient>
	
		<rect id="rect3428_1_" x="-7.077" y="4.615" opacity="0.5" fill="url(#rect3428_2_)" enable-background="new    " width="28.896" height="12.987"/>
	
		<linearGradient id="rect3418_2_" gradientUnits="userSpaceOnUse" x1="318.8496" y1="-141.3418" x2="290.0072" y2="-141.3418" gradientTransform="matrix(0.9632 0 0 -2.3944 -280.3445 -320.823)">
		<stop  offset="0" style="stop-color:#480000"/>
		<stop  offset="1" style="stop-color:#FF7373;stop-opacity:0"/>
	</linearGradient>
	
		<rect id="rect3418_1_" x="-0.296" y="13.169" opacity="0.5" fill="url(#rect3418_2_)" enable-background="new    " width="20.498" height="8.867"/>
	<path d="M31.988,9.478c-0.002-0.038-0.006-0.072-0.012-0.107c-0.011-0.049-0.021-0.097-0.035-0.143
		c-0.012-0.034-0.023-0.066-0.037-0.1c-0.021-0.045-0.045-0.088-0.072-0.129c-0.018-0.027-0.035-0.06-0.059-0.086
		c-0.031-0.041-0.07-0.077-0.109-0.113c-0.02-0.018-0.033-0.039-0.055-0.056L20.635,0.21C20.455,0.072,20.24,0,20.021,0
		c-0.109,0-0.219,0.019-0.324,0.056l-0.521,0.18L8.914,3.731C8.727,3.794,8.566,3.917,8.449,4.069
		C8.432,4.09,8.422,4.113,8.406,4.133C8.382,4.168,8.359,4.202,8.338,4.24C8.314,4.281,8.297,4.323,8.279,4.368
		C8.264,4.409,8.252,4.45,8.242,4.493C8.236,4.515,8.225,4.534,8.221,4.557c-0.004,0.025,0,0.053-0.002,0.08
		C8.217,4.66,8.209,4.686,8.207,4.709l-0.082,8.77c-0.002,0.313,0.141,0.607,0.387,0.799l10.977,8.535
		c0.005,0.004,0.011,0.004,0.015,0.008c0.011,0.008,0.015,0.014,0.021,0.018c0.004,0.004,0.008,0.004,0.012,0.006l0.02,0.016
		c0.18,0.141,0.396,0.211,0.613,0.211c0.146,0,0.295-0.031,0.434-0.1c0.068-0.033,0.129-0.078,0.188-0.125l10.549-3.762
		C31.734,18.939,32,18.563,32,18.141V9.538C31.996,9.517,31.99,9.496,31.988,9.478z"/>
	<polygon id="polygon3339_1_" fill="#DF8078" points="31.017,9.537 20.257,13.255 9.228,4.719 20.04,1.002 	"/>
	<polygon id="polygon3341_1_" fill="#AA3D25" points="20.257,13.255 20.122,22.023 9.146,13.488 9.228,4.719 	"/>
	<polygon id="polygon3343_1_" fill="#E9B6AE" points="31.017,18.14 20.122,22.023 20.257,13.255 31.017,9.537 	"/>
	
		<linearGradient id="polygon3387_2_" gradientUnits="userSpaceOnUse" x1="987.2383" y1="-1391.8335" x2="1017.6938" y2="-1374.1572" gradientTransform="matrix(0.298 0 0 -0.298 -285.792 -397.8116)">
		<stop  offset="0" style="stop-color:#3A1813"/>
		<stop  offset="1" style="stop-color:#AA3D25;stop-opacity:0"/>
	</linearGradient>
	<polygon id="polygon3387_1_" fill="url(#polygon3387_2_)" points="20.257,13.256 20.122,22.023 9.146,13.488 9.228,4.72 	"/>
	<linearGradient id="polygon3343_3_" gradientUnits="userSpaceOnUse" x1="30.8672" y1="18.2637" x2="20.2002" y2="13.2642">
		<stop  offset="0" style="stop-color:#FDF0EC"/>
		<stop  offset="1" style="stop-color:#E9B6AE;stop-opacity:0"/>
	</linearGradient>
	<polygon id="polygon3343_2_" fill="url(#polygon3343_3_)" points="31.017,18.14 20.122,22.023 20.257,13.255 31.017,9.537 	"/>
</g>
<g>
	<path id="path2935_9_" fill="#231F20" d="M3.209,30.521c-0.121-0.123-0.191-0.289-0.19-0.463l0.001-1.146
		c-0.001-0.106,0.025-0.216,0.077-0.31l0.233-0.433l-0.233-0.44c-0.089-0.166-0.101-0.359-0.035-0.533l0.234-0.631l-0.172-1.067
		c-0.02-0.125-0.002-0.25,0.047-0.366l0.246-0.563l-0.365-1.1c-0.071-0.209-0.027-0.441,0.11-0.615l0.499-0.623L3.12,21.391
		c-0.067-0.105-0.102-0.226-0.102-0.354v-1.142H2.691c-0.18,0-0.344-0.076-0.462-0.191c-0.119-0.118-0.19-0.279-0.192-0.459v-1.611
		c-0.158-0.127-0.312-0.263-0.455-0.404C0.563,16.208,0,14.851,0,13.408c0-1.445,0.564-2.803,1.583-3.825
		C2.605,8.561,3.962,8,5.407,8C6.854,8,8.209,8.563,9.23,9.583c1.021,1.02,1.584,2.377,1.584,3.823
		c-0.002,1.648-0.758,3.204-2.039,4.227v1.612c0,0.173-0.069,0.337-0.191,0.462c-0.121,0.121-0.289,0.19-0.461,0.19H7.795
		l0.001,10.162c0.001,0.205-0.099,0.401-0.264,0.525l-1.736,1.287c-0.231,0.172-0.547,0.173-0.78,0l-1.734-1.289
		C3.259,30.563,3.232,30.543,3.209,30.521L3.209,30.521z M5.996,10.354c-0.157-0.157-0.365-0.241-0.589-0.241
		c-0.456-0.001-0.829,0.37-0.83,0.829c0.001,0.226,0.086,0.432,0.242,0.587c0.157,0.159,0.366,0.244,0.588,0.244
		c0.458,0,0.83-0.375,0.832-0.832C6.239,10.721,6.152,10.511,5.996,10.354L5.996,10.354z"/>
	<path id="path3790_10_" fill="#FAA920" d="M5.407,8.655c2.626,0,4.753,2.126,4.753,4.751c0,1.616-0.807,3.039-2.037,3.898v1.938
		h-0.98l0.002,10.813l-1.736,1.289l-1.735-1.289v-1.144l0.398-0.74l-0.397-0.748l0.297-0.792l-0.2-1.236l0.349-0.793L3.674,23.27
		l0.793-0.99l-0.793-1.236v-1.798l-0.981,0.001v-1.938c-1.23-0.86-2.036-2.283-2.037-3.899C0.655,10.78,2.782,8.653,5.407,8.655
		L5.407,8.655z M5.407,9.458c-0.821,0-1.484,0.664-1.484,1.486c0,0.823,0.665,1.485,1.484,1.483c0.822,0,1.483-0.661,1.485-1.483
		C6.893,10.123,6.229,9.458,5.407,9.458z"/>
	
		<linearGradient id="path2946_1_" gradientUnits="userSpaceOnUse" x1="473.5723" y1="1991.7285" x2="481.7734" y2="1991.7285" gradientTransform="matrix(1 0 0 1 -472.2637 -1971.6191)">
		<stop  offset="0" style="stop-color:#A5692A"/>
		<stop  offset="0.5394" style="stop-color:#FAA920"/>
		<stop  offset="1" style="stop-color:#FFF3E2"/>
	</linearGradient>
	<path id="path2946_9_" fill="url(#path2946_1_)" d="M4.326,29.074l0.484-0.902L4.39,27.38l0.255-0.678L4.448,25.48l0.369-0.844
		l-0.411-1.24l0.861-1.076l-0.941-1.473v-2.26H3.344v-1.624L3.066,16.77c-0.198-0.139-0.386-0.298-0.557-0.47
		c-0.773-0.772-1.199-1.8-1.2-2.895c0-1.094,0.426-2.124,1.201-2.898c0.347-0.345,0.743-0.622,1.172-0.821
		c-0.258,0.354-0.41,0.787-0.409,1.254c0,0.574,0.222,1.11,0.625,1.516c0.404,0.403,0.942,0.625,1.515,0.625
		c1.174,0.001,2.135-0.958,2.137-2.136c0-0.46-0.144-0.894-0.405-1.254c0.428,0.199,0.823,0.474,1.166,0.818
		c0.774,0.773,1.199,1.803,1.199,2.898c0,1.337-0.656,2.596-1.758,3.363l-0.281,0.195v1.624H6.486l0.004,11.14l-1.083,0.805
		l-1.083-0.805L4.326,29.074z"/>
	
		<linearGradient id="rect3802_1_" gradientUnits="userSpaceOnUse" x1="-1404.603" y1="2775.3867" x2="-1403.791" y2="2775.3867" gradientTransform="matrix(-1.0994 0 0 1.0994 -1537.9175 -3026.7798)">
		<stop  offset="0" style="stop-color:#A5692A"/>
		<stop  offset="0.5394" style="stop-color:#FAA920"/>
		<stop  offset="1" style="stop-color:#2B2012"/>
	</linearGradient>
	<path id="rect3802_10_" fill="url(#rect3802_1_)" d="M6.01,19.305H5.695c-0.16,0-0.288,0.129-0.288,0.289v9.773
		c0,0.162,0.128,0.29,0.29,0.29h0.315c0.161,0,0.288-0.128,0.288-0.29v-9.775C6.298,19.436,6.17,19.305,6.01,19.305z"/>
</g>
</svg>
