<?xml version="1.0" encoding="utf-8"?>
<!-- Generator: Adobe Illustrator 14.0.0, SVG Export Plug-In . SVG Version: 6.00 Build 43363)  -->
<!DOCTYPE svg PUBLIC "-//W3C//DTD SVG 1.1//EN" "http://www.w3.org/Graphics/SVG/1.1/DTD/svg11.dtd">
<svg version="1.1"
	 id="svg2" sodipodi:docbase="C:\Radix\dev\trunk\org.radixware\kernel\designer\src\common.resources\src\org\radixware\kernel\designer\resources\icons\ads\method" sodipodi:docname="method_abstract_private.svg" inkscape:version="0.45.1" sodipodi:version="0.32" inkscape:output_extension="org.inkscape.output.svg.inkscape" xmlns:ns="http://creativecommons.org/ns#" xmlns:dc="http://purl.org/dc/elements/1.1/" xmlns:cc="http://web.resource.org/cc/" xmlns:rdf="http://www.w3.org/1999/02/22-rdf-syntax-ns#" xmlns:svg="http://www.w3.org/2000/svg" xmlns:sodipodi="http://sodipodi.sourceforge.net/DTD/sodipodi-0.dtd" xmlns:inkscape="http://www.inkscape.org/namespaces/inkscape"
	 xmlns="http://www.w3.org/2000/svg" xmlns:xlink="http://www.w3.org/1999/xlink" x="0px" y="0px" width="32px" height="32px"
	 viewBox="0 0 32 32" enable-background="new 0 0 32 32" xml:space="preserve">
<sodipodi:namedview  id="base" pagecolor="#ffffff" bordercolor="#000000" borderopacity="1.0" showgrid="true" inkscape:zoom="9.5861449" inkscape:cx="21.270549" inkscape:cy="6.4748695" inkscape:current-layer="layer1" inkscape:pageopacity="0.0" inkscape:pageshadow="2" inkscape:window-width="1280" inkscape:window-height="944" inkscape:window-x="0" inkscape:window-y="44" inkscape:document-units="px" inkscape:guide-bbox="true" showguides="true">
	</sodipodi:namedview>
<g>
	
		<linearGradient id="rect3408_2_" gradientUnits="userSpaceOnUse" x1="299.5439" y1="-1450.1709" x2="277.5846" y2="-1450.1709" gradientTransform="matrix(1.0208 0 0 -0.2736 -281.5694 -392.8764)">
		<stop  offset="0" style="stop-color:#480000"/>
		<stop  offset="1" style="stop-color:#FF7373;stop-opacity:0"/>
	</linearGradient>
	
		<rect id="rect3408_1_" x="-0.399" y="1.068" opacity="0.5" fill="url(#rect3408_2_)" enable-background="new    " width="20.498" height="5.737"/>
	
		<linearGradient id="rect3428_2_" gradientUnits="userSpaceOnUse" x1="217.9307" y1="-518.0259" x2="198.9205" y2="-518.0259" gradientTransform="matrix(1.4465 0 0 -0.7523 -288.5827 -378.5847)">
		<stop  offset="0" style="stop-color:#480000"/>
		<stop  offset="1" style="stop-color:#FF7373;stop-opacity:0"/>
	</linearGradient>
	
		<rect id="rect3428_1_" x="-7.077" y="4.615" opacity="0.5" fill="url(#rect3428_2_)" enable-background="new    " width="28.896" height="12.987"/>
	
		<linearGradient id="rect3418_2_" gradientUnits="userSpaceOnUse" x1="318.8496" y1="-141.3418" x2="290.0072" y2="-141.3418" gradientTransform="matrix(0.9632 0 0 -2.3944 -280.3445 -320.823)">
		<stop  offset="0" style="stop-color:#480000"/>
		<stop  offset="1" style="stop-color:#FF7373;stop-opacity:0"/>
	</linearGradient>
	
		<rect id="rect3418_1_" x="-0.296" y="13.169" opacity="0.5" fill="url(#rect3418_2_)" enable-background="new    " width="20.498" height="8.867"/>
	<path d="M31.988,9.478c-0.002-0.038-0.006-0.072-0.012-0.107c-0.011-0.049-0.021-0.097-0.035-0.143
		c-0.012-0.034-0.023-0.066-0.037-0.1c-0.021-0.045-0.045-0.088-0.072-0.129c-0.018-0.027-0.035-0.06-0.059-0.086
		c-0.031-0.041-0.07-0.077-0.109-0.113c-0.02-0.018-0.033-0.039-0.055-0.056L20.635,0.21C20.455,0.072,20.24,0,20.021,0
		c-0.109,0-0.219,0.019-0.324,0.056l-0.521,0.18L8.914,3.731C8.727,3.794,8.566,3.917,8.449,4.069
		C8.432,4.09,8.422,4.113,8.406,4.133C8.382,4.168,8.359,4.202,8.338,4.24C8.314,4.281,8.297,4.323,8.279,4.368
		C8.264,4.409,8.252,4.45,8.242,4.493C8.236,4.515,8.225,4.534,8.221,4.557c-0.004,0.025,0,0.053-0.002,0.08
		C8.217,4.66,8.209,4.686,8.207,4.709l-0.082,8.77c-0.002,0.313,0.141,0.607,0.387,0.799l10.977,8.535
		c0.005,0.004,0.011,0.004,0.015,0.008c0.011,0.008,0.015,0.014,0.021,0.018c0.004,0.004,0.008,0.004,0.012,0.006l0.02,0.016
		c0.18,0.141,0.396,0.211,0.613,0.211c0.146,0,0.295-0.031,0.434-0.1c0.068-0.033,0.129-0.078,0.188-0.125l10.549-3.762
		C31.734,18.939,32,18.563,32,18.141V9.538C31.996,9.517,31.99,9.496,31.988,9.478z"/>
	<polygon id="polygon3339_1_" fill="#DF8078" points="31.017,9.537 20.257,13.255 9.228,4.719 20.04,1.002 	"/>
	<polygon id="polygon3341_1_" fill="#AA3D25" points="20.257,13.255 20.122,22.023 9.146,13.488 9.228,4.719 	"/>
	<polygon id="polygon3343_1_" fill="#E9B6AE" points="31.017,18.14 20.122,22.023 20.257,13.255 31.017,9.537 	"/>
	
		<linearGradient id="polygon3387_2_" gradientUnits="userSpaceOnUse" x1="987.2383" y1="-1391.8335" x2="1017.6938" y2="-1374.1572" gradientTransform="matrix(0.298 0 0 -0.298 -285.792 -397.8116)">
		<stop  offset="0" style="stop-color:#3A1813"/>
		<stop  offset="1" style="stop-color:#AA3D25;stop-opacity:0"/>
	</linearGradient>
	<polygon id="polygon3387_1_" fill="url(#polygon3387_2_)" points="20.257,13.256 20.122,22.023 9.146,13.488 9.228,4.72 	"/>
	<linearGradient id="polygon3343_3_" gradientUnits="userSpaceOnUse" x1="30.8672" y1="18.2637" x2="20.2002" y2="13.2642">
		<stop  offset="0" style="stop-color:#FDF0EC"/>
		<stop  offset="1" style="stop-color:#E9B6AE;stop-opacity:0"/>
	</linearGradient>
	<polygon id="polygon3343_2_" fill="url(#polygon3343_3_)" points="31.017,18.14 20.122,22.023 20.257,13.255 31.017,9.537 	"/>
</g>
<path fill="#FFFFFF" d="M17.09,20.926v-3.51c0-0.922-0.506-1.75-1.316-2.23l-0.001-0.729l-0.038-0.76
	c-0.442-3.857-3.698-6.766-7.571-6.766c-0.013,0-0.023,0.001-0.037,0.002l-0.051,5.521c0.029-0.002,0.057-0.01,0.088-0.01
	c0.98,0,1.844,0.864,2.014,2.055c0,0.002,0.002,0.254,0.002,0.254H9.152L17.09,20.926z"/>
<g>
	<rect x="3.914" y="18.725" fill="#FFFFFF" width="8.809" height="11.904"/>
	<path fill="#231F20" d="M1.936,32.129C0.852,32.129,0,31.398,0,30.467V17.613c0-0.84,0.688-1.514,1.613-1.643v-1.205
		c0,0,0.031-0.74,0.033-0.76c0.387-3.35,3.213-5.877,6.58-5.877c3.363,0,6.191,2.527,6.576,5.879
		c0.006,0.035,0.033,0.688,0.033,0.688l0.002,1.341c0.771,0.219,1.314,0.833,1.314,1.578v12.854c0,0.934-0.853,1.662-1.937,1.662
		H1.936L1.936,32.129z M9.258,28.807l-0.873-4.934c-0.068-0.387,0.111-0.771,0.451-0.963c0.443-0.256,0.711-0.699,0.711-1.193
		c0-0.773-0.631-1.402-1.402-1.402c-0.772,0-1.4,0.629-1.4,1.402c0,0.467,0.24,0.902,0.646,1.166
		c0.307,0.197,0.467,0.557,0.409,0.918l-0.791,5.006H9.258z M11.241,15.951c0,0,0-1.348,0-1.35
		c-0.007-0.029-0.013-0.058-0.019-0.089c-0.231-1.637-1.521-2.87-2.998-2.87c-1.478,0-2.767,1.233-2.996,2.87
		c-0.004,0.033-0.011,0.063-0.019,0.097v1.342H11.241z"/>
	<path id="rect4086_6_" fill="#ED2C29" d="M8.227,9.052c-2.918,0-5.338,2.238-5.662,5.061v0.054L2.54,14.74v0.027v0.687v0.19v1.231
		H1.936c-0.565,0-1.014,0.33-1.014,0.738v12.854c0,0.412,0.446,0.74,1.014,0.74h12.281c0.565,0,1.014-0.328,1.014-0.74V17.613
		c0-0.408-0.446-0.738-1.014-0.738h-0.303v-1.231v-0.19v-0.687V14.74l-0.027-0.573v-0.054C13.563,11.291,11.143,9.052,8.227,9.052z
		 M8.227,10.72c1.984,0,3.619,1.617,3.91,3.664h0.027v0.084c0.002,0.008-0.002,0.018,0,0.027c0,0.008,0,0.016,0,0.025v0.082v2.27
		H4.286v-2.27c0.003-0.011,0.003-0.019,0-0.025V14.55c0.003-0.012,0.003-0.02,0-0.027c0.003-0.012,0.003-0.02,0-0.026v-0.028v-0.082
		h0.028C4.604,12.337,6.242,10.72,8.227,10.72z M8.145,19.393c1.283,0,2.324,1.039,2.324,2.324c0,0.865-0.477,1.596-1.176,1.994
		l1.064,6.02h-4.43l0.957-6.074C6.25,23.244,5.82,22.533,5.82,21.717C5.82,20.432,6.861,19.393,8.145,19.393z"/>
	
		<linearGradient id="SVGID_1_" gradientUnits="userSpaceOnUse" x1="562.8262" y1="-922.9189" x2="575.2852" y2="-922.9189" gradientTransform="matrix(1 0 0 -1 -560.9805 -898.8789)">
		<stop  offset="0" style="stop-color:#F4959A"/>
		<stop  offset="1" style="stop-color:#901D1E"/>
	</linearGradient>
	<path fill="url(#SVGID_1_)" d="M11.396,30.283l-1.094-6.162c0.691-0.605,1.09-1.467,1.09-2.404c0-1.791-1.457-3.248-3.248-3.248
		s-3.248,1.457-3.248,3.248c0,0.885,0.363,1.719,0.994,2.324l-0.983,6.242H1.936c-0.033,0-0.063-0.004-0.09-0.01V17.805
		c0.024-0.004,0.057-0.008,0.09-0.008h12.281c0.033,0,0.063,0.004,0.088,0.008v12.469c-0.022,0.006-0.055,0.01-0.088,0.01H11.396
		L11.396,30.283z"/>
</g>
</svg>
