<?xml version="1.0" encoding="utf-8"?>
<!-- Generator: Adobe Illustrator 14.0.0, SVG Export Plug-In . SVG Version: 6.00 Build 43363)  -->
<!DOCTYPE svg PUBLIC "-//W3C//DTD SVG 1.1//EN" "http://www.w3.org/Graphics/SVG/1.1/DTD/svg11.dtd">
<svg version="1.1"
	 id="svg2" sodipodi:docbase="C:\Radix\dev\trunk\org.radixware\kernel\designer\src\common.resources\src\org\radixware\kernel\designer\resources\icons\ads\method" sodipodi:docname="method_static.svg" inkscape:version="0.45.1" sodipodi:version="0.32" inkscape:output_extension="org.inkscape.output.svg.inkscape" xmlns:ns="http://creativecommons.org/ns#" xmlns:dc="http://purl.org/dc/elements/1.1/" xmlns:cc="http://web.resource.org/cc/" xmlns:rdf="http://www.w3.org/1999/02/22-rdf-syntax-ns#" xmlns:svg="http://www.w3.org/2000/svg" xmlns:sodipodi="http://sodipodi.sourceforge.net/DTD/sodipodi-0.dtd" xmlns:inkscape="http://www.inkscape.org/namespaces/inkscape"
	 xmlns="http://www.w3.org/2000/svg" xmlns:xlink="http://www.w3.org/1999/xlink" x="0px" y="0px" width="32px" height="32px"
	 viewBox="0 0 32 32" enable-background="new 0 0 32 32" xml:space="preserve">
<sodipodi:namedview  id="base" pagecolor="#ffffff" bordercolor="#000000" borderopacity="1.0" showgrid="true" inkscape:zoom="9.5861449" inkscape:cx="21.270549" inkscape:cy="6.4748695" inkscape:current-layer="layer1" inkscape:pageopacity="0.0" inkscape:pageshadow="2" inkscape:window-width="1280" inkscape:window-height="944" inkscape:window-x="-8" inkscape:window-y="-8" inkscape:document-units="px" inkscape:guide-bbox="true" showguides="true">
	</sodipodi:namedview>
<g>
	<g id="g3841_1_" transform="translate(23.992961,2.2949789)">
		<path d="M5.997,11.292c-0.004-0.043-0.008-0.084-0.015-0.125c-0.012-0.057-0.024-0.113-0.042-0.168
			c-0.014-0.039-0.026-0.076-0.043-0.115c-0.025-0.053-0.053-0.104-0.084-0.152c-0.021-0.033-0.042-0.069-0.069-0.1
			c-0.037-0.049-0.082-0.092-0.127-0.133c-0.024-0.021-0.041-0.048-0.065-0.066L-7.321,0.423C-7.53,0.262-7.783,0.177-8.04,0.177
			c-0.129,0-0.257,0.021-0.382,0.064l-0.612,0.211l-12.034,4.1c-0.222,0.075-0.407,0.219-0.545,0.396
			c-0.021,0.024-0.033,0.053-0.051,0.076c-0.03,0.041-0.055,0.081-0.08,0.126c-0.027,0.048-0.05,0.097-0.069,0.149
			c-0.018,0.049-0.033,0.097-0.044,0.147c-0.006,0.024-0.02,0.048-0.024,0.074c-0.004,0.03,0,0.062-0.002,0.094
			c-0.002,0.028-0.012,0.058-0.013,0.086l-0.097,10.284c-0.003,0.369,0.164,0.713,0.453,0.938l12.874,10.012
			c0.005,0.004,0.012,0.004,0.017,0.01c0.009,0.006,0.014,0.012,0.021,0.018c0.005,0.004,0.009,0.004,0.015,0.008l0.021,0.018
			c0.211,0.164,0.465,0.246,0.72,0.246c0.172,0,0.346-0.037,0.509-0.115c0.08-0.039,0.151-0.092,0.22-0.146L5.229,22.56
			c0.467-0.168,0.778-0.611,0.778-1.105v-10.09C6.005,11.338,5.998,11.315,5.997,11.292z"/>
		<polygon id="polygon3780_1_" fill="#7CC5D9" points="4.832,11.36 -7.788,15.722 -20.724,5.71 -8.043,1.349 		"/>
		<polygon id="polygon3782_1_" fill="#006882" points="-7.788,15.722 -7.946,26.007 -20.819,15.995 -20.724,5.71 		"/>
		
			<linearGradient id="SVGID_1_" gradientUnits="userSpaceOnUse" x1="-46.8245" y1="-109.0152" x2="-34.0342" y2="-104.7316" gradientTransform="matrix(1 0 0 -1 26.4531 -91.1349)">
			<stop  offset="0" style="stop-color:#0A485C"/>
			<stop  offset="1" style="stop-color:#B0D0DA;stop-opacity:0"/>
		</linearGradient>
		<polygon fill="url(#SVGID_1_)" points="-20.819,15.995 -20.724,5.71 -7.788,15.722 -7.946,26.007 		"/>
		<polygon id="polygon3784_1_" fill="#02ABD8" points="4.832,21.452 -7.946,26.007 -7.788,15.722 4.832,11.36 		"/>
		
			<linearGradient id="SVGID_2_" gradientUnits="userSpaceOnUse" x1="-34.3992" y1="-109.8184" x2="-21.6209" y2="-109.8184" gradientTransform="matrix(1 0 0 -1 26.4531 -91.1349)">
			<stop  offset="0" style="stop-color:#B0D0DA;stop-opacity:0"/>
			<stop  offset="1" style="stop-color:#A0DCF4"/>
		</linearGradient>
		<polygon fill="url(#SVGID_2_)" points="-7.747,15.561 4.832,11.36 4.832,21.452 -7.946,26.007 		"/>
	</g>
</g>
</svg>
