<?xml version="1.0" encoding="utf-8"?>
<!-- Generator: Adobe Illustrator 14.0.0, SVG Export Plug-In . SVG Version: 6.00 Build 43363)  -->
<!DOCTYPE svg PUBLIC "-//W3C//DTD SVG 1.1//EN" "http://www.w3.org/Graphics/SVG/1.1/DTD/svg11.dtd">
<svg version="1.1"
	 id="svg2" sodipodi:docbase="C:\Radix\dev\trunk\org.radixware\kernel\designer\src\common.resources\src\org\radixware\kernel\designer\resources\icons\ads\method" sodipodi:docname="method_group.svg" inkscape:version="0.45.1" sodipodi:version="0.32" inkscape:output_extension="org.inkscape.output.svg.inkscape" xmlns:ns="http://creativecommons.org/ns#" xmlns:dc="http://purl.org/dc/elements/1.1/" xmlns:cc="http://web.resource.org/cc/" xmlns:rdf="http://www.w3.org/1999/02/22-rdf-syntax-ns#" xmlns:svg="http://www.w3.org/2000/svg" xmlns:sodipodi="http://sodipodi.sourceforge.net/DTD/sodipodi-0.dtd" xmlns:inkscape="http://www.inkscape.org/namespaces/inkscape"
	 xmlns="http://www.w3.org/2000/svg" xmlns:xlink="http://www.w3.org/1999/xlink" x="0px" y="0px" width="32px" height="32px"
	 viewBox="0 0 32 32" enable-background="new 0 0 32 32" xml:space="preserve">
<sodipodi:namedview  id="base" pagecolor="#ffffff" bordercolor="#000000" borderopacity="1.0" showgrid="true" inkscape:zoom="9.5861449" inkscape:cx="-6.0722908" inkscape:cy="-4.490314" inkscape:current-layer="layer1" inkscape:pageopacity="0.0" inkscape:pageshadow="2" inkscape:window-width="1280" inkscape:window-height="944" inkscape:window-x="-8" inkscape:window-y="-8" inkscape:document-units="px" inkscape:guide-bbox="true" showguides="true">
	</sodipodi:namedview>
<g>
	<path fill="#231F20" d="M2.568,27.299C1.151,27.299,0,26.051,0,24.52V6.542c0-1.447,1.028-2.637,2.335-2.765L2.525,2.8
		C3.042,0.481,4.11,0,4.917,0h5.644c1.154,0,1.946,0.931,2.354,2.773l0.195,0.994h16.324C30.848,3.767,32,5.013,32,6.542V24.52
		c0,1.531-1.152,2.775-2.566,2.775H2.568V27.299z"/>
	<path id="rect3169_1_" fill="#6FBD46" d="M4.917,0.999c-0.771,0-1.184,0.978-1.409,1.988L3.164,4.765H2.568
		c-0.871,0-1.57,0.79-1.57,1.775v17.98c0,0.986,0.698,1.777,1.57,1.777h26.866c0.867,0,1.566-0.791,1.566-1.777V6.542
		c0-0.987-0.698-1.775-1.566-1.775H12.286L11.942,2.99c-0.228-1.01-0.608-1.989-1.379-1.989H7.739H7.71H4.917V0.999z"/>
	
		<linearGradient id="SVGID_1_" gradientUnits="userSpaceOnUse" x1="297.7197" y1="-375.2666" x2="297.7197" y2="-398.4769" gradientTransform="matrix(1 0 0 -1 -281.7207 -373.0195)">
		<stop  offset="0" style="stop-color:#AED58A"/>
		<stop  offset="1" style="stop-color:#1E9046"/>
	</linearGradient>
	<path fill="url(#SVGID_1_)" d="M2.568,25.299c-0.309,0-0.569-0.357-0.569-0.779V6.542c0-0.422,0.26-0.776,0.569-0.776h1.417
		L4.489,3.18C4.71,2.186,4.982,1.984,4.984,1.982l2.726,0.02h2.842c-0.025,0.014,0.198,0.24,0.412,1.207l0.497,2.558h17.974
		c0.305,0,0.565,0.355,0.565,0.777v17.978c0,0.422-0.262,0.779-0.565,0.779H2.568V25.299z"/>
</g>
<g>
	<g id="g3841_1_" transform="translate(23.992961,2.2949789)">
		<path d="M7.998,16.113c-0.003-0.037-0.007-0.071-0.013-0.106c-0.01-0.049-0.021-0.097-0.035-0.144
			c-0.012-0.033-0.022-0.065-0.037-0.099c-0.021-0.045-0.045-0.088-0.071-0.129c-0.019-0.028-0.036-0.06-0.06-0.086
			c-0.031-0.041-0.069-0.077-0.108-0.113c-0.021-0.018-0.034-0.04-0.056-0.056L-3.356,6.847c-0.179-0.138-0.395-0.21-0.613-0.21
			c-0.109,0-0.219,0.018-0.325,0.055l-0.522,0.18l-10.26,3.496c-0.189,0.063-0.348,0.186-0.465,0.338
			c-0.018,0.021-0.028,0.044-0.043,0.064c-0.025,0.035-0.047,0.069-0.068,0.107c-0.023,0.041-0.042,0.083-0.059,0.128
			c-0.016,0.041-0.028,0.082-0.038,0.125c-0.005,0.021-0.017,0.041-0.021,0.063c-0.004,0.026,0,0.053-0.002,0.08
			c-0.002,0.024-0.01,0.049-0.011,0.073l-0.082,8.769c-0.003,0.313,0.14,0.607,0.386,0.799l10.977,8.535
			c0.004,0.004,0.01,0.004,0.014,0.009c0.008,0.005,0.012,0.011,0.018,0.016c0.004,0.003,0.008,0.003,0.013,0.006l0.019,0.015
			c0.18,0.14,0.396,0.211,0.613,0.211c0.146,0,0.295-0.032,0.434-0.1c0.068-0.033,0.129-0.078,0.188-0.125L7.343,25.72
			c0.398-0.144,0.664-0.521,0.664-0.942v-8.603C8.005,16.152,7.999,16.133,7.998,16.113z"/>
		<polygon id="polygon3780_1_" fill="#7CC5D9" points="7.005,16.172 -3.755,19.89 -14.784,11.353 -3.971,7.636 		"/>
		<polygon id="polygon3782_1_" fill="#006882" points="-3.755,19.89 -3.889,28.658 -14.865,20.123 -14.784,11.353 		"/>
		
			<linearGradient id="SVGID_2_" gradientUnits="userSpaceOnUse" x1="-40.9363" y1="-112.8653" x2="-30.0311" y2="-109.213" gradientTransform="matrix(1 0 0 -1 26.4531 -91.1349)">
			<stop  offset="0" style="stop-color:#0A485C"/>
			<stop  offset="1" style="stop-color:#B0D0DA;stop-opacity:0"/>
		</linearGradient>
		<polygon fill="url(#SVGID_2_)" points="-14.865,20.123 -14.784,11.353 -3.755,19.89 -3.889,28.658 		"/>
		<polygon id="polygon3784_1_" fill="#02ABD8" points="7.005,24.775 -3.889,28.658 -3.755,19.89 7.005,16.172 		"/>
		
			<linearGradient id="SVGID_3_" gradientUnits="userSpaceOnUse" x1="-30.3426" y1="-113.5499" x2="-19.448" y2="-113.5499" gradientTransform="matrix(1 0 0 -1 26.4531 -91.1349)">
			<stop  offset="0" style="stop-color:#B0D0DA;stop-opacity:0"/>
			<stop  offset="1" style="stop-color:#A0DCF4"/>
		</linearGradient>
		<polygon fill="url(#SVGID_3_)" points="-3.72,19.753 7.005,16.172 7.005,24.775 -3.889,28.658 		"/>
	</g>
</g>
</svg>
