<?xml version="1.0" encoding="utf-8"?>
<!-- Generator: Adobe Illustrator 14.0.0, SVG Export Plug-In . SVG Version: 6.00 Build 43363)  -->
<!DOCTYPE svg PUBLIC "-//W3C//DTD SVG 1.1//EN" "http://www.w3.org/Graphics/SVG/1.1/DTD/svg11.dtd">
<svg version="1.1"
	 id="svg2" sodipodi:docname="method_abstract_private.svg" inkscape:version="0.47 r22583" sodipodi:version="0.32" inkscape:output_extension="org.inkscape.output.svg.inkscape" xmlns:dc="http://purl.org/dc/elements/1.1/" xmlns:cc="http://creativecommons.org/ns#" xmlns:rdf="http://www.w3.org/1999/02/22-rdf-syntax-ns#" xmlns:svg="http://www.w3.org/2000/svg" xmlns:sodipodi="http://sodipodi.sourceforge.net/DTD/sodipodi-0.dtd" xmlns:inkscape="http://www.inkscape.org/namespaces/inkscape"
	 xmlns="http://www.w3.org/2000/svg" xmlns:xlink="http://www.w3.org/1999/xlink" x="0px" y="0px" width="32px" height="32px"
	 viewBox="0 0 32 32" enable-background="new 0 0 32 32" xml:space="preserve">
<defs>
	
	
		<inkscape:perspective  id="perspective39" sodipodi:type="inkscape:persp3d" inkscape:vp_z="32 : 16 : 1" inkscape:vp_x="0 : 16 : 1" inkscape:vp_y="0 : 1000 : 0" inkscape:persp3d-origin="16 : 10.666667 : 1">
		</inkscape:perspective>
	
		<inkscape:perspective  id="perspective2884" sodipodi:type="inkscape:persp3d" inkscape:vp_z="1 : 0.5 : 1" inkscape:vp_x="0 : 0.5 : 1" inkscape:vp_y="0 : 1000 : 0" inkscape:persp3d-origin="0.5 : 0.33333333 : 1">
		</inkscape:perspective>
</defs>
<sodipodi:namedview  id="base" pagecolor="#ffffff" bordercolor="#000000" borderopacity="1.0" showgrid="true" inkscape:zoom="9.5861449" inkscape:cx="21.270549" inkscape:cy="6.4748695" inkscape:current-layer="layer1" inkscape:pageopacity="0.0" inkscape:pageshadow="2" inkscape:window-width="1280" inkscape:window-height="944" inkscape:window-maximized="0" inkscape:window-x="0" inkscape:window-y="44" inkscape:document-units="px" inkscape:guide-bbox="true" showguides="true">
	</sodipodi:namedview>
<g>
	
		<linearGradient id="rect3408_2_" gradientUnits="userSpaceOnUse" x1="299.5439" y1="-1450.1709" x2="277.5846" y2="-1450.1709" gradientTransform="matrix(1.0208 0 0 -0.2736 -281.5694 -392.8764)">
		<stop  offset="0" style="stop-color:#480000"/>
		<stop  offset="1" style="stop-color:#FF7373;stop-opacity:0"/>
	</linearGradient>
	
		<rect id="rect3408_1_" x="-0.399" y="1.068" opacity="0.5" fill="url(#rect3408_2_)" enable-background="new    " width="20.498" height="5.737"/>
	
		<linearGradient id="rect3428_2_" gradientUnits="userSpaceOnUse" x1="217.9307" y1="-518.0259" x2="198.9205" y2="-518.0259" gradientTransform="matrix(1.4465 0 0 -0.7523 -288.5827 -378.5847)">
		<stop  offset="0" style="stop-color:#480000"/>
		<stop  offset="1" style="stop-color:#FF7373;stop-opacity:0"/>
	</linearGradient>
	
		<rect id="rect3428_1_" x="-7.077" y="4.615" opacity="0.5" fill="url(#rect3428_2_)" enable-background="new    " width="28.896" height="12.987"/>
	
		<linearGradient id="rect3418_2_" gradientUnits="userSpaceOnUse" x1="318.8496" y1="-141.3418" x2="290.0072" y2="-141.3418" gradientTransform="matrix(0.9632 0 0 -2.3944 -280.3445 -320.823)">
		<stop  offset="0" style="stop-color:#480000"/>
		<stop  offset="1" style="stop-color:#FF7373;stop-opacity:0"/>
	</linearGradient>
	
		<rect id="rect3418_1_" x="-0.296" y="13.169" opacity="0.5" fill="url(#rect3418_2_)" enable-background="new    " width="20.498" height="8.867"/>
	<path d="M31.988,9.478c-0.002-0.038-0.006-0.072-0.012-0.107c-0.011-0.049-0.021-0.097-0.035-0.143
		c-0.012-0.034-0.023-0.066-0.037-0.1c-0.021-0.045-0.045-0.088-0.072-0.129c-0.018-0.027-0.035-0.06-0.059-0.086
		c-0.031-0.041-0.07-0.077-0.109-0.113c-0.02-0.018-0.033-0.039-0.055-0.056L20.635,0.21C20.455,0.072,20.24,0,20.021,0
		c-0.109,0-0.219,0.019-0.324,0.056l-0.521,0.18L8.914,3.731C8.727,3.794,8.566,3.917,8.449,4.069
		C8.432,4.09,8.422,4.113,8.406,4.133C8.382,4.168,8.359,4.202,8.338,4.24C8.314,4.281,8.297,4.323,8.279,4.368
		C8.264,4.409,8.252,4.45,8.242,4.493C8.236,4.515,8.225,4.534,8.221,4.557c-0.004,0.025,0,0.053-0.002,0.08
		C8.217,4.66,8.209,4.686,8.207,4.709l-0.082,8.77c-0.002,0.313,0.141,0.607,0.387,0.799l10.977,8.535
		c0.005,0.004,0.011,0.004,0.015,0.008c0.011,0.008,0.015,0.014,0.021,0.018c0.004,0.004,0.008,0.004,0.012,0.006l0.02,0.016
		c0.18,0.141,0.396,0.211,0.613,0.211c0.146,0,0.295-0.031,0.434-0.1c0.068-0.033,0.129-0.078,0.188-0.125l10.549-3.762
		C31.734,18.939,32,18.563,32,18.141V9.538C31.996,9.517,31.99,9.496,31.988,9.478z"/>
	<polygon id="polygon3339_1_" fill="#DF8078" points="31.017,9.537 20.257,13.255 9.228,4.719 20.04,1.002 	"/>
	<polygon id="polygon3341_1_" fill="#AA3D25" points="20.257,13.255 20.122,22.023 9.146,13.488 9.228,4.719 	"/>
	<polygon id="polygon3343_1_" fill="#E9B6AE" points="31.017,18.14 20.122,22.023 20.257,13.255 31.017,9.537 	"/>
	
		<linearGradient id="polygon3387_2_" gradientUnits="userSpaceOnUse" x1="987.2383" y1="-1391.8335" x2="1017.6938" y2="-1374.1572" gradientTransform="matrix(0.298 0 0 -0.298 -285.792 -397.8116)">
		<stop  offset="0" style="stop-color:#3A1813"/>
		<stop  offset="1" style="stop-color:#AA3D25;stop-opacity:0"/>
	</linearGradient>
	<polygon id="polygon3387_1_" fill="url(#polygon3387_2_)" points="20.257,13.256 20.122,22.023 9.146,13.488 9.228,4.72 	"/>
	<linearGradient id="polygon3343_3_" gradientUnits="userSpaceOnUse" x1="30.8672" y1="18.2637" x2="20.2002" y2="13.2642">
		<stop  offset="0" style="stop-color:#FDF0EC"/>
		<stop  offset="1" style="stop-color:#E9B6AE;stop-opacity:0"/>
	</linearGradient>
	<polygon id="polygon3343_2_" fill="url(#polygon3343_3_)" points="31.017,18.14 20.122,22.023 20.257,13.255 31.017,9.537 	"/>
</g>
<g>
	<path id="path3144" fill="#231F20" d="M16.553,31.064c0.148,0,0.295-0.053,0.411-0.15c0.144-0.121,0.228-0.301,0.228-0.488V13.575
		c0-0.181-0.075-0.351-0.209-0.474c-0.117-0.107-0.271-0.166-0.43-0.166c-0.021,0-0.039,0-0.059,0.002L3.39,14.123
		c-0.33,0.029-0.582,0.307-0.582,0.637v13.412c0,0.311,0.225,0.577,0.531,0.631l13.104,2.254
		C16.478,31.063,16.516,31.064,16.553,31.064L16.553,31.064z"/>
	<path id="path3897_3_" fill="#F9A620" d="M3.446,14.758V28.17l13.105,2.254V13.575L3.446,14.758z"/>
	
		<linearGradient id="polygon3155_1_" gradientUnits="userSpaceOnUse" x1="-268.0586" y1="547.8291" x2="-256.2334" y2="547.8291" gradientTransform="matrix(-1 0 0 1 -252.1465 -525.8594)">
		<stop  offset="0" style="stop-color:#A36628"/>
		<stop  offset="0.5394" style="stop-color:#F9A620"/>
		<stop  offset="1" style="stop-color:#FFF3DF"/>
	</linearGradient>
	<polygon id="polygon3155" fill="url(#polygon3155_1_)" points="4.087,27.629 15.912,29.665 15.912,14.273 4.087,15.343 	"/>
	
		<linearGradient id="path1710_1_" gradientUnits="userSpaceOnUse" x1="-5030.541" y1="15021.3203" x2="-5021" y2="15021.3203" gradientTransform="matrix(0.1243 0 0 0.108 638.8758 -1600.3024)">
		<stop  offset="0" style="stop-color:#F3F4EE"/>
		<stop  offset="1" style="stop-color:#B1B3AE"/>
	</linearGradient>
	<path id="path1710_2_" fill="url(#path1710_1_)" d="M1.107,14.968v13.062l11.738,1.929l2.303-0.424V14.389l-2.303-0.346
		L1.107,14.968z"/>
	<path id="path3164" fill="#231F20" d="M12.809,32c0.146,0,0.289-0.05,0.404-0.145c0.149-0.121,0.235-0.305,0.235-0.496V12.641
		c0-0.183-0.077-0.355-0.212-0.477C13.118,12.059,12.966,12,12.809,12c-0.023,0-0.046,0.001-0.068,0.004L0.571,13.32
		C0.246,13.355,0,13.629,0,13.956v14.901c0,0.305,0.213,0.564,0.511,0.627l12.168,2.502C12.723,31.996,12.766,32,12.809,32
		L12.809,32z"/>
	<path id="path2443_3_" fill="#F9A620" d="M0.64,13.955v14.902l12.169,2.502V12.639L0.64,13.955z"/>
	
		<linearGradient id="polygon3175_1_" gradientUnits="userSpaceOnUse" x1="-264.3154" y1="547.7432" x2="-253.4253" y2="547.7432" gradientTransform="matrix(-1 0 0 1 -252.1465 -525.8594)">
		<stop  offset="0" style="stop-color:#A36628"/>
		<stop  offset="0.5394" style="stop-color:#F9A620"/>
		<stop  offset="1" style="stop-color:#FFF3DF"/>
	</linearGradient>
	<polygon id="polygon3175" fill="url(#polygon3175_1_)" points="1.279,28.257 12.169,30.494 12.169,13.273 1.279,14.451 	"/>
	
		<linearGradient id="path7549_1_" gradientUnits="userSpaceOnUse" x1="-5580.2813" y1="14365.5859" x2="-5582.2661" y2="14475.1514" gradientTransform="matrix(0.1119 0 0 0.1119 631.1758 -1600.0599)">
		<stop  offset="0" style="stop-color:#FFFFFF;stop-opacity:0.624"/>
		<stop  offset="1" style="stop-color:#FFFFFF;stop-opacity:0"/>
	</linearGradient>
	<path id="path7549_2_" fill="url(#path7549_1_)" d="M1.222,14.717v8.295c3.255-6.264,7.805-3.555,10.605,1.188V13.479L1.222,14.717
		z"/>
	
		<radialGradient id="path3736_1_" cx="-4020.6475" cy="8522.9551" r="39.1699" gradientTransform="matrix(0.1648 0 0 0.1902 666.7775 -1603.9047)" gradientUnits="userSpaceOnUse">
		<stop  offset="0" style="stop-color:#FFFFFF;stop-opacity:0.3519"/>
		<stop  offset="1" style="stop-color:#FFFFFF;stop-opacity:0"/>
	</radialGradient>
	<path id="path3736_2_" fill="url(#path3736_1_)" d="M1.107,14.292v13.411l11.233,2.252v-16.85L1.107,14.292z"/>
	<path id="path3191" fill="#231F20" d="M3.048,21.779c0.182,0,0.359-0.078,0.482-0.219l1.016-1.166l1.124,0.61
		c0.096,0.054,0.201,0.078,0.307,0.078c0.127,0,0.255-0.038,0.363-0.112c0.199-0.138,0.304-0.375,0.271-0.613
		c-0.106-0.771-0.369-2.926-0.313-3.646c0.044-0.526,0.533-2.269,0.831-3.243c0.063-0.203,0.02-0.424-0.114-0.589
		c-0.121-0.151-0.306-0.239-0.497-0.239c-0.018,0-0.036,0.002-0.053,0.002L3.761,12.87c-0.243,0.021-0.455,0.178-0.543,0.407
		c-0.158,0.406-0.95,2.479-1.03,3.226c-0.127,1.183,0.21,4.56,0.225,4.702c0.025,0.254,0.199,0.469,0.441,0.547
		C2.918,21.77,2.983,21.779,3.048,21.779L3.048,21.779z"/>
	<path id="path3193" fill="#EA2A29" d="M2.746,16.545c-0.124,1.176,0.236,4.758,0.236,4.758l1.406-1.615L6.03,20.58
		c0,0-0.407-2.954-0.329-3.939c0.065-0.826,0.893-3.52,0.893-3.52L3.78,13.355C3.781,13.354,2.824,15.813,2.746,16.545z"/>
	
		<linearGradient id="path3202_1_" gradientUnits="userSpaceOnUse" x1="-258.0576" y1="542.6514" x2="-255.3086" y2="542.6514" gradientTransform="matrix(-1 0 0 1 -252.1465 -525.8594)">
		<stop  offset="0" style="stop-color:#F5969A"/>
		<stop  offset="1" style="stop-color:#901A1E"/>
	</linearGradient>
	<path id="path3202" fill="url(#path3202_1_)" d="M4.216,19.131l1.163,0.633c-0.123-1.068-0.266-2.527-0.208-3.234
		c0.051-0.649,0.457-2.133,0.74-3.111l-1.769,0.148c-0.391,1.039-0.905,2.514-0.955,2.978c-0.072,0.688,0.024,2.313,0.128,3.622
		L4.216,19.131z"/>
</g>
</svg>
