<?xml version="1.0" encoding="utf-8"?>
<!-- Generator: Adobe Illustrator 14.0.0, SVG Export Plug-In . SVG Version: 6.00 Build 43363)  -->
<!DOCTYPE svg PUBLIC "-//W3C//DTD SVG 1.1//EN" "http://www.w3.org/Graphics/SVG/1.1/DTD/svg11.dtd">
<svg version="1.1"
	 id="svg2" sodipodi:docname="method_command_private.svg" inkscape:version="0.47 r22583" sodipodi:version="0.32" inkscape:output_extension="org.inkscape.output.svg.inkscape" xmlns:dc="http://purl.org/dc/elements/1.1/" xmlns:cc="http://creativecommons.org/ns#" xmlns:rdf="http://www.w3.org/1999/02/22-rdf-syntax-ns#" xmlns:svg="http://www.w3.org/2000/svg" xmlns:sodipodi="http://sodipodi.sourceforge.net/DTD/sodipodi-0.dtd" xmlns:inkscape="http://www.inkscape.org/namespaces/inkscape"
	 xmlns="http://www.w3.org/2000/svg" xmlns:xlink="http://www.w3.org/1999/xlink" x="0px" y="0px" width="32px" height="32px"
	 viewBox="0 0 32 32" enable-background="new 0 0 32 32" xml:space="preserve">
<defs>
	
	
		<inkscape:perspective  id="perspective54" sodipodi:type="inkscape:persp3d" inkscape:vp_z="32 : 16 : 1" inkscape:vp_x="0 : 16 : 1" inkscape:vp_y="0 : 1000 : 0" inkscape:persp3d-origin="16 : 10.666667 : 1">
		</inkscape:perspective>
	
		<inkscape:perspective  id="perspective3000" sodipodi:type="inkscape:persp3d" inkscape:vp_z="1 : 0.5 : 1" inkscape:vp_x="0 : 0.5 : 1" inkscape:vp_y="0 : 1000 : 0" inkscape:persp3d-origin="0.5 : 0.33333333 : 1">
		</inkscape:perspective>
</defs>
<sodipodi:namedview  id="base" pagecolor="#ffffff" bordercolor="#000000" borderopacity="1.0" showgrid="true" inkscape:zoom="19.17229" inkscape:cx="0.12392476" inkscape:cy="13.814467" inkscape:current-layer="layer1" inkscape:pageopacity="0.0" inkscape:pageshadow="2" inkscape:window-width="1280" inkscape:window-height="944" inkscape:window-maximized="0" inkscape:window-x="0" inkscape:window-y="25" inkscape:document-units="px" inkscape:guide-bbox="true" showguides="true">
	</sodipodi:namedview>
<g>
	<path id="path9179_19_" fill="#020202" d="M10.32,32c-0.149,0-0.303-0.031-0.442-0.1c-0.349-0.164-0.571-0.504-0.578-0.883
		l-0.05-2.463c-0.5-0.029-0.938-0.043-1.348-0.043c-3.084,0-4.922,0.885-5.952,2.867c-0.177,0.342-0.532,0.549-0.911,0.549
		c-0.059,0-0.113-0.008-0.174-0.019c-0.44-0.073-0.781-0.423-0.838-0.854c-0.016-0.104-0.322-2.602,1.586-4.813
		c1.578-1.834,4.146-2.902,7.642-3.186L9.3,21.109c0.011-0.377,0.233-0.719,0.58-0.881c0.142-0.063,0.291-0.099,0.44-0.099
		c0.224,0,0.441,0.071,0.621,0.209l6.517,4.935c0.251,0.188,0.396,0.481,0.396,0.793s-0.146,0.603-0.396,0.791l-6.515,4.935
		C10.76,31.93,10.542,32,10.32,32L10.32,32z"/>
	<path id="path7827_61_" fill="#6EBD46" d="M10.286,21.135l-0.063,2.873c-10.093,0.381-9.214,6.92-9.214,6.92
		c1.868-3.603,5.748-3.592,9.214-3.301L10.286,31l6.514-4.934L10.286,21.135z"/>
	
		<linearGradient id="path4454_1_" gradientUnits="userSpaceOnUse" x1="565.6699" y1="836.1045" x2="579.0664" y2="836.1045" gradientTransform="matrix(1 0 0 1 -563.4414 -810.0391)">
		<stop  offset="0" style="stop-color:#B0D68C"/>
		<stop  offset="1" style="stop-color:#1E9046"/>
	</linearGradient>
	<path id="path4454_29_" fill="url(#path4454_1_)" d="M10.975,29.59l-0.051-2.607l-0.645-0.053
		c-0.975-0.084-1.721-0.119-2.416-0.119c-1.684,0-3.877,0.199-5.635,1.543c0.168-0.332,0.388-0.674,0.676-1.01
		c1.392-1.615,3.861-2.502,7.34-2.635l0.674-0.025l0.049-2.143l4.658,3.525L10.975,29.59z"/>
</g>
<g>
	<g>
		
			<linearGradient id="rect3408_2_" gradientUnits="userSpaceOnUse" x1="575.5244" y1="2962.6787" x2="553.5651" y2="2962.6787" gradientTransform="matrix(1.0208 0 0 0.2736 -563.2895 -806.6519)">
			<stop  offset="0" style="stop-color:#336633"/>
			<stop  offset="0.4364" style="stop-color:#336633;stop-opacity:0.7394"/>
			<stop  offset="1" style="stop-color:#336633;stop-opacity:0"/>
		</linearGradient>
		
			<rect id="rect3408_1_" x="-0.398" y="1.068" opacity="0.5" fill="url(#rect3408_2_)" enable-background="new    " width="20.498" height="5.737"/>
		
			<linearGradient id="rect3428_2_" gradientUnits="userSpaceOnUse" x1="412.6895" y1="1088.3779" x2="393.6802" y2="1088.3779" gradientTransform="matrix(1.4465 0 0 0.7523 -570.3028 -807.6781)">
			<stop  offset="0" style="stop-color:#336633"/>
			<stop  offset="0.5152" style="stop-color:#336633;stop-opacity:0.8848"/>
			<stop  offset="1" style="stop-color:#336633;stop-opacity:0"/>
		</linearGradient>
		
			<rect id="rect3428_1_" x="-7.077" y="4.615" opacity="0.5" fill="url(#rect3428_2_)" enable-background="new    " width="28.896" height="12.986"/>
		
			<linearGradient id="rect3418_2_" gradientUnits="userSpaceOnUse" x1="611.333" y1="342.4941" x2="582.4906" y2="342.4941" gradientTransform="matrix(0.9632 0 0 2.3944 -562.0647 -802.4626)">
			<stop  offset="0.3091" style="stop-color:#336633"/>
			<stop  offset="1" style="stop-color:#336633;stop-opacity:0"/>
		</linearGradient>
		
			<rect id="rect3418_1_" x="-0.296" y="13.169" opacity="0.5" fill="url(#rect3418_2_)" enable-background="new    " width="20.498" height="8.867"/>
		<path d="M31.988,9.477c-0.002-0.038-0.006-0.072-0.012-0.107c-0.012-0.049-0.021-0.097-0.035-0.143
			c-0.012-0.034-0.023-0.066-0.037-0.1c-0.021-0.045-0.045-0.088-0.072-0.129c-0.018-0.027-0.035-0.06-0.059-0.086
			c-0.031-0.041-0.07-0.077-0.109-0.113c-0.02-0.018-0.033-0.039-0.055-0.056L20.635,0.21C20.455,0.072,20.24,0,20.021,0
			c-0.108,0-0.219,0.019-0.324,0.056l-0.521,0.179L8.914,3.731C8.727,3.794,8.566,3.917,8.449,4.069
			C8.432,4.09,8.422,4.113,8.406,4.133C8.382,4.168,8.359,4.202,8.338,4.24C8.314,4.281,8.297,4.323,8.279,4.368
			C8.264,4.409,8.252,4.45,8.242,4.493C8.236,4.514,8.225,4.534,8.221,4.556c-0.004,0.025,0,0.053-0.002,0.08
			C8.217,4.66,8.209,4.685,8.207,4.709l-0.082,8.77c-0.002,0.313,0.141,0.607,0.387,0.8l10.977,8.534
			c0.006,0.005,0.012,0.005,0.016,0.009c0.012,0.008,0.016,0.014,0.021,0.019c0.004,0.004,0.008,0.004,0.012,0.006l0.02,0.016
			c0.18,0.141,0.396,0.211,0.613,0.211c0.146,0,0.295-0.031,0.434-0.1c0.068-0.033,0.129-0.078,0.188-0.125l10.549-3.763
			C31.734,18.939,32,18.563,32,18.141V9.537C31.996,9.516,31.99,9.496,31.988,9.477z"/>
		<polygon id="polygon3339_1_" fill="#B6D77B" points="31.018,9.537 20.257,13.256 9.229,4.719 20.04,1.002 		"/>
		<polygon id="polygon3341_1_" fill="#355829" points="20.257,13.256 20.122,22.023 9.146,13.488 9.229,4.719 		"/>
		<polygon id="polygon3343_1_" fill="#6FBD46" points="31.018,18.139 20.122,22.023 20.257,13.256 31.018,9.537 		"/>
		
			<linearGradient id="polygon3387_2_" gradientUnits="userSpaceOnUse" x1="1932.6914" y1="2783.1006" x2="1963.1462" y2="2765.4248" gradientTransform="matrix(0.298 0 0 0.298 -567.512 -812.3674)">
			<stop  offset="0" style="stop-color:#000000"/>
			<stop  offset="1" style="stop-color:#6FBD46;stop-opacity:0"/>
		</linearGradient>
		<polygon id="polygon3387_1_" fill="url(#polygon3387_2_)" points="20.257,13.256 20.122,22.023 9.146,13.488 9.229,4.72 		"/>
		
			<linearGradient id="polygon3343_3_" gradientUnits="userSpaceOnUse" x1="312.5879" y1="-391.2837" x2="301.92" y2="-386.2838" gradientTransform="matrix(1 0 0 -1 -281.7207 -373.0195)">
			<stop  offset="0" style="stop-color:#FFFFFF"/>
			<stop  offset="1" style="stop-color:#6FBD46;stop-opacity:0"/>
		</linearGradient>
		<polygon id="polygon3343_2_" fill="url(#polygon3343_3_)" points="31.018,18.139 20.122,22.023 20.257,13.256 31.018,9.537 		"/>
	</g>
	<g>
		<g>
			<path id="path4046_12_" fill="#020202" d="M17.695,32c-0.138,0-0.277-0.038-0.402-0.116c-0.321-0.202-0.439-0.612-0.273-0.956
				l4.742-9.914c0,0-1.75,0.025-1.755,0.025c-0.244,0-0.474-0.116-0.613-0.317c-0.142-0.203-0.177-0.462-0.091-0.694l4.269-11.534
				c0.109-0.294,0.391-0.49,0.705-0.49L31.249,8c0.287,0,0.549,0.163,0.672,0.419c0.128,0.256,0.1,0.563-0.077,0.791l-4.721,6.153
				c0,0,3.013-0.025,3.015-0.025c0.29,0,0.552,0.166,0.677,0.426c0.126,0.264,0.087,0.576-0.097,0.8L18.279,31.727
				C18.13,31.904,17.914,32,17.695,32L17.695,32z"/>
			<path id="path5141_13_" fill="#F9A61E" d="M20.004,20.283l2.96-0.047l-5.267,11.012l12.439-15.162l-4.551,0.042l5.659-7.375
				l-6.971,0.004L20.004,20.283z"/>
			
				<linearGradient id="polygon4061_1_" gradientUnits="userSpaceOnUse" x1="300.1309" y1="1111.4189" x2="308.8018" y2="1111.4189" gradientTransform="matrix(1 0 0 1 -279.0801 -1093.6797)">
				<stop  offset="0" style="stop-color:#FFF3DF"/>
				<stop  offset="0.5394" style="stop-color:#F9A61E"/>
				<stop  offset="1" style="stop-color:#A36628"/>
			</linearGradient>
			<polygon id="polygon4061_12_" fill="url(#polygon4061_1_)" points="21.051,25.975 24.164,19.467 21.091,19.514 24.795,9.508 
				29.722,9.504 24.052,16.893 28.534,16.854 			"/>
		</g>
	</g>
</g>
</svg>
