<?xml version="1.0" encoding="UTF-8" standalone="no"?>
<!-- Created with Inkscape (http://www.inkscape.org/) -->
<svg
   xmlns:dc="http://purl.org/dc/elements/1.1/"
   xmlns:cc="http://creativecommons.org/ns#"
   xmlns:rdf="http://www.w3.org/1999/02/22-rdf-syntax-ns#"
   xmlns:svg="http://www.w3.org/2000/svg"
   xmlns="http://www.w3.org/2000/svg"
   xmlns:xlink="http://www.w3.org/1999/xlink"
   xmlns:sodipodi="http://sodipodi.sourceforge.net/DTD/sodipodi-0.dtd"
   xmlns:inkscape="http://www.inkscape.org/namespaces/inkscape"
   width="32px"
   height="32px"
   id="svg3472"
   sodipodi:version="0.32"
   inkscape:version="0.46"
   sodipodi:docname="dialogcreator.svg"
   inkscape:output_extension="org.inkscape.output.svg.inkscape">
  <defs
     id="defs3474">
    <linearGradient
       id="linearGradient9677">
      <stop
         style="stop-color:#03ff48;stop-opacity:1;"
         offset="0"
         id="stop9679" />
      <stop
         id="stop9685"
         offset="0.20325203"
         style="stop-color:#1d863b;stop-opacity:1;" />
      <stop
         style="stop-color:#25e85a;stop-opacity:1;"
         offset="0.44292417"
         id="stop9687" />
      <stop
         style="stop-color:#ffffff;stop-opacity:1;"
         offset="1"
         id="stop9681" />
    </linearGradient>
    <linearGradient
       inkscape:collect="always"
       xlink:href="#linearGradient9677"
       id="linearGradient24803"
       x1="19.718229"
       y1="20.844107"
       x2="12.005211"
       y2="11.96286"
       gradientUnits="userSpaceOnUse"
       gradientTransform="matrix(1.5046436,0,0,1.4813561,0.1204219,0.3739461)" />
    <linearGradient
       id="linearGradient3996">
      <stop
         style="stop-color:#f7a400;stop-opacity:1;"
         offset="0"
         id="stop3998" />
      <stop
         style="stop-color:#eff5ff;stop-opacity:1;"
         offset="1"
         id="stop4000" />
    </linearGradient>
    <inkscape:perspective
       sodipodi:type="inkscape:persp3d"
       inkscape:vp_x="0 : 16 : 1"
       inkscape:vp_y="0 : 1000 : 0"
       inkscape:vp_z="32 : 16 : 1"
       inkscape:persp3d-origin="16 : 10.666667 : 1"
       id="perspective3480" />
    <filter
       inkscape:collect="always"
       id="filter4166"
       x="-0.098709681"
       width="1.1974194"
       y="-0.15299999"
       height="1.306">
      <feGaussianBlur
         inkscape:collect="always"
         stdDeviation="0.34158485"
         id="feGaussianBlur4168" />
    </filter>
    <filter
       inkscape:collect="always"
       id="filter4186"
       x="-0.099784315"
       width="1.1995686"
       y="-0.15048792"
       height="1.3009758">
      <feGaussianBlur
         inkscape:collect="always"
         stdDeviation="0.53481591"
         id="feGaussianBlur4188" />
    </filter>
    <linearGradient
       inkscape:collect="always"
       xlink:href="#linearGradient3996"
       id="linearGradient4248"
       gradientUnits="userSpaceOnUse"
       gradientTransform="matrix(1.0595517,0,0,1.0547716,-1.0533099,-0.197178)"
       x1="30.300356"
       y1="29.553381"
       x2="11.304128"
       y2="1.4228611" />
  </defs>
  <sodipodi:namedview
     id="base"
     pagecolor="#ffffff"
     bordercolor="#666666"
     borderopacity="1.0"
     inkscape:pageopacity="0.0"
     inkscape:pageshadow="2"
     inkscape:zoom="11.197802"
     inkscape:cx="7.1223583"
     inkscape:cy="10.034985"
     inkscape:current-layer="layer1"
     showgrid="true"
     inkscape:grid-bbox="true"
     inkscape:document-units="px"
     inkscape:window-width="1280"
     inkscape:window-height="944"
     inkscape:window-x="-8"
     inkscape:window-y="-8" />
  <metadata
     id="metadata3477">
    <rdf:RDF>
      <cc:Work
         rdf:about="">
        <dc:format>image/svg+xml</dc:format>
        <dc:type
           rdf:resource="http://purl.org/dc/dcmitype/StillImage" />
      </cc:Work>
    </rdf:RDF>
  </metadata>
  <g
     id="layer1"
     inkscape:label="Layer 1"
     inkscape:groupmode="layer">
    <path
       style="fill:url(#linearGradient4248);fill-opacity:1;fill-rule:nonzero;stroke:#000000;stroke-width:1.05715895;stroke-linecap:butt;stroke-linejoin:miter;stroke-miterlimit:4;stroke-dasharray:none;stroke-dashoffset:0;stroke-opacity:1"
       d="M 7.6217696,0.69278547 C 3.8189997,0.69278547 0.73468345,3.7302254 0.73468345,7.515839 L 0.73468345,17.635054 C 0.73468345,21.420667 3.8189994,24.491067 7.6217696,24.491069 L 8.2839894,24.491069 C 8.2609609,24.587205 8.2311934,24.685255 8.2177674,24.787723 C 7.6500384,29.120671 1.0326825,31.676699 1.0326825,31.6767 C 1.2219252,31.770896 11.537899,29.789152 13.714191,26.303958 C 14.159262,25.591206 14.605879,25.00478 15.038632,24.491069 L 24.640818,24.491069 C 28.443589,24.491069 31.494793,21.420667 31.494794,17.635054 L 31.494794,7.515839 C 31.494794,3.7302253 28.443589,0.69278547 24.640818,0.69278547 L 7.6217696,0.69278547 z"
       id="rect3482" />
    <path
       style="fill:#ffffff;fill-opacity:1;fill-rule:evenodd;stroke:none;stroke-width:1px;stroke-linecap:butt;stroke-linejoin:miter;stroke-opacity:1;filter:url(#filter4166)"
       d="M -2.4111868,11.144119 C 0.22188816,10.597116 2.7682036,9.1424718 4.5544666,8.4650208 C 5.7475016,7.1511868 7.7299166,4.5381588 8.1265946,3.3747378 C 7.9070356,6.8891358 7.3537246,9.7332608 5.7154086,10.786906 C 2.8299336,11.472063 -2.0730528,10.941239 -2.4111868,11.144119 z"
       id="path4170"
       sodipodi:nodetypes="ccccc"
       transform="matrix(-1.3811921,0.1774933,-0.1782977,-1.3749609,14.613199,18.122899)" />
    <path
       style="fill:none;fill-rule:evenodd;stroke:#000000;stroke-width:1.54496038px;stroke-linecap:butt;stroke-linejoin:miter;stroke-opacity:1"
       d="M 5.5683238,6.8074253 L 27.393975,6.8074253"
       id="path4140" />
    <path
       style="fill:none;fill-rule:evenodd;stroke:#000000;stroke-width:1.53875315px;stroke-linecap:butt;stroke-linejoin:miter;stroke-opacity:1"
       d="M 5.4348826,11.893929 L 27.686911,11.893929"
       id="path4142" />
    <path
       style="fill:#ffffff;fill-opacity:1;fill-rule:evenodd;stroke:none;stroke-width:1px;stroke-linecap:butt;stroke-linejoin:miter;stroke-opacity:1;filter:url(#filter4166)"
       d="M 12.323847,16.729146 C 14.956922,16.182143 17.503237,14.727499 19.2895,14.050048 C 20.482535,12.736214 22.46495,10.123186 22.861628,8.9597648 C 22.642069,12.474163 22.088758,15.318288 20.450442,16.371933 C 17.564967,17.05709 12.661981,16.526266 12.323847,16.729146 z"
       id="path4160"
       sodipodi:nodetypes="ccccc"
       transform="matrix(1.3926528,0,0,1.3863699,-1.4488676,-0.311165)" />
    <path
       style="fill:none;fill-rule:evenodd;stroke:#000000;stroke-width:1.53875315px;stroke-linecap:butt;stroke-linejoin:miter;stroke-opacity:1"
       d="M 5.482191,17.168822 L 27.734221,17.168822"
       id="path4144" />
    <path
       style="fill:#ffffff;fill-opacity:1;fill-rule:evenodd;stroke:none;stroke-width:1px;stroke-linecap:butt;stroke-linejoin:miter;stroke-opacity:1;filter:url(#filter4186)"
       d="M 2.5676264,18.07507 C 5.2007014,17.528067 6.0277648,21.756227 7.8140278,21.078776 C 9.0070628,19.764942 11.5331,13.477337 13.298442,12.544738 C 11.843947,16.839985 10.3156,23.209844 8.6772839,24.263489 C 5.7918089,24.948646 2.9057604,17.87219 2.5676264,18.07507 z"
       id="path4180"
       sodipodi:nodetypes="ccccc"
       transform="matrix(-0.1777611,-0.5129075,0.515232,-0.1769592,0.2287103,31.331789)" />
    <path
       style="opacity:1;fill:url(#linearGradient24803);fill-opacity:1;fill-rule:evenodd;stroke:#000000;stroke-width:0.52672631;stroke-linecap:square;stroke-linejoin:miter;stroke-miterlimit:4;stroke-dasharray:none;stroke-opacity:1"
       d="M 20.150634,14.137749 L 20.150634,20.398478 L 14.197613,20.398478 L 14.197613,25.736575 L 20.150634,25.736575 L 20.150634,31.733693 L 25.478752,31.733693 L 25.478752,25.736575 L 31.793555,25.736575 L 31.793555,20.398478 L 25.478752,20.398478 L 25.478752,14.137749 L 20.150634,14.137749 z"
       id="rect9658" />
  </g>
</svg>
