<?xml version="1.0" encoding="UTF-8" standalone="no"?>
<!-- Created with Inkscape (http://www.inkscape.org/) -->
<svg
   xmlns:dc="http://purl.org/dc/elements/1.1/"
   xmlns:cc="http://creativecommons.org/ns#"
   xmlns:rdf="http://www.w3.org/1999/02/22-rdf-syntax-ns#"
   xmlns:svg="http://www.w3.org/2000/svg"
   xmlns="http://www.w3.org/2000/svg"
   xmlns:xlink="http://www.w3.org/1999/xlink"
   xmlns:sodipodi="http://sodipodi.sourceforge.net/DTD/sodipodi-0.dtd"
   xmlns:inkscape="http://www.inkscape.org/namespaces/inkscape"
   width="32px"
   height="32px"
   id="svg7043"
   sodipodi:version="0.32"
   inkscape:version="0.46"
   sodipodi:docname="reportgenerator.svg"
   inkscape:output_extension="org.inkscape.output.svg.inkscape">
  <defs
     id="defs7045"><linearGradient
   id="linearGradient9424">
  <stop
     style="stop-color:#7c82e1;stop-opacity:1;"
     offset="0"
     id="stop9426" />
  <stop
     style="stop-color:#cccfff;stop-opacity:1;"
     offset="1"
     id="stop9428" />
</linearGradient>
<linearGradient
   id="SVGID_5_"
   gradientUnits="userSpaceOnUse"
   x1="201.1118"
   y1="787.957"
   x2="209.0344"
   y2="787.957"
   gradientTransform="matrix(17.7134,25.4152,25.4152,-17.7134,-23273.623,9148.8965)">
			<stop
   offset="0"
   style="stop-color:#F8F8FB"
   id="stop9343" />

			<stop
   offset="0.5773"
   style="stop-color:#DCD1DC"
   id="stop9345" />

			<stop
   offset="1"
   style="stop-color:#F7F6F6"
   id="stop9347" />

		</linearGradient>
<linearGradient
   id="linearGradient7566">
  <stop
     style="stop-color:#18daff;stop-opacity:1;"
     offset="0"
     id="stop7568" />
  <stop
     style="stop-color:#ffffff;stop-opacity:1;"
     offset="1"
     id="stop7570" />
</linearGradient>
<inkscape:perspective
   sodipodi:type="inkscape:persp3d"
   inkscape:vp_x="0 : 16 : 1"
   inkscape:vp_y="0 : 1000 : 0"
   inkscape:vp_z="32 : 16 : 1"
   inkscape:persp3d-origin="16 : 10.666667 : 1"
   id="perspective7051" />

	

		
		
		
		
			<linearGradient
   id="linearGradient9374"
   gradientUnits="userSpaceOnUse"
   x1="201.1118"
   y1="787.95697"
   x2="209.03439"
   y2="787.95697"
   gradientTransform="matrix(17.7134,25.4152,25.4152,-17.7134,-23273.623,9148.8965)">
			<stop
   offset="0"
   style="stop-color:#F8F8FB"
   id="stop9376" />

			<stop
   offset="0.5773"
   style="stop-color:#DCD1DC"
   id="stop9378" />

			<stop
   offset="1"
   style="stop-color:#F7F6F6"
   id="stop9380" />

		</linearGradient>

		
		
		
		
	<linearGradient
   inkscape:collect="always"
   xlink:href="#SVGID_5_"
   id="linearGradient9422"
   gradientUnits="userSpaceOnUse"
   gradientTransform="matrix(1.4699218,2.1090449,2.1090449,-1.4699218,-1914.763,746.37642)"
   x1="201.1118"
   y1="787.957"
   x2="209.0344"
   y2="787.957" />
<linearGradient
   inkscape:collect="always"
   xlink:href="#linearGradient7566"
   id="linearGradient9443"
   gradientUnits="userSpaceOnUse"
   x1="41.383217"
   y1="41.43327"
   x2="3.9239457"
   y2="7.5873423" />
<linearGradient
   inkscape:collect="always"
   xlink:href="#linearGradient9424"
   id="linearGradient9445"
   gradientUnits="userSpaceOnUse"
   x1="0.92885199"
   y1="4.0475955"
   x2="29.03582"
   y2="4.0475955" />
</defs>
  <sodipodi:namedview
     id="base"
     pagecolor="#ffffff"
     bordercolor="#666666"
     borderopacity="1.0"
     inkscape:pageopacity="0.0"
     inkscape:pageshadow="2"
     inkscape:zoom="8.637329"
     inkscape:cx="21.075565"
     inkscape:cy="16.789009"
     inkscape:current-layer="layer1"
     showgrid="true"
     inkscape:grid-bbox="true"
     inkscape:document-units="px"
     inkscape:window-width="1280"
     inkscape:window-height="944"
     inkscape:window-x="-8"
     inkscape:window-y="-8" />
  <metadata
     id="metadata7048">
    <rdf:RDF>
      <cc:Work
         rdf:about="">
        <dc:format>image/svg+xml</dc:format>
        <dc:type
           rdf:resource="http://purl.org/dc/dcmitype/StillImage" />
      </cc:Work>
    </rdf:RDF>
  </metadata>
  <g
     id="layer1"
     inkscape:label="Layer 1"
     inkscape:groupmode="layer">
    <g
       id="g9432"
       transform="matrix(0.9691505,0,0,0.9691505,-0.9001974,-1.0152776)">
      <rect
         y="1.5737802"
         x="1.5207866"
         height="28.994738"
         width="26.994738"
         id="rect7562"
         style="opacity:1;fill:url(#linearGradient9443);fill-opacity:1;fill-rule:nonzero;stroke:#000000;stroke-width:1.00526333;stroke-linecap:butt;stroke-linejoin:miter;stroke-miterlimit:4;stroke-dasharray:none;stroke-dashoffset:0;stroke-opacity:1" />
      <rect
         y="1.540396"
         x="1.4216526"
         height="5.0143991"
         width="27.121367"
         id="rect7564"
         style="opacity:1;fill:url(#linearGradient9445);fill-opacity:1;fill-rule:nonzero;stroke:#000000;stroke-width:0.98560113;stroke-linecap:butt;stroke-linejoin:miter;stroke-miterlimit:4;stroke-dasharray:none;stroke-dashoffset:0;stroke-opacity:1" />
      <path
         id="path7574"
         d="M 4.0186458,10.120706 L 25.004907,10.120706"
         style="fill:none;fill-rule:evenodd;stroke:#000000;stroke-width:1px;stroke-linecap:butt;stroke-linejoin:miter;stroke-opacity:1" />
      <path
         id="path7576"
         d="M 4.1972523,14.675171 L 14.020609,14.675171"
         style="fill:none;fill-rule:evenodd;stroke:#000000;stroke-width:1px;stroke-linecap:butt;stroke-linejoin:miter;stroke-opacity:1" />
      <path
         id="path7578"
         d="M 18.307164,14.853778 L 25.004907,14.853778"
         style="fill:none;fill-rule:evenodd;stroke:#000000;stroke-width:1px;stroke-linecap:butt;stroke-linejoin:miter;stroke-opacity:1" />
      <path
         id="path7580"
         d="M 4.2865556,19.140333 L 23.933269,19.140333"
         style="fill:none;fill-rule:evenodd;stroke:#000000;stroke-width:1px;stroke-linecap:butt;stroke-linejoin:miter;stroke-opacity:1" />
      <path
         id="path7582"
         d="M 4.1972522,23.248283 L 16.074583,23.248283"
         style="fill:none;fill-rule:evenodd;stroke:#000000;stroke-width:1px;stroke-linecap:butt;stroke-linejoin:miter;stroke-opacity:1" />
      <path
         id="path7584"
         d="M 19.468106,23.605495 L 25.272817,23.605495"
         style="fill:none;fill-rule:evenodd;stroke:#000000;stroke-width:1px;stroke-linecap:butt;stroke-linejoin:miter;stroke-opacity:1" />
      <path
         id="path7586"
         d="M 4.6437685,27.445535 L 24.736998,27.445535"
         style="fill:none;fill-rule:evenodd;stroke:#000000;stroke-width:1px;stroke-linecap:butt;stroke-linejoin:miter;stroke-opacity:1" />
    </g>
    <g
       id="g9413"
       transform="matrix(1.1067004,0,0,1.1067004,-31.334483,0.1570012)">
      <path
         style="fill:#ffffff"
         id="path9336"
         d="M 52.806927,14.946355 C 53.152471,15.521016 53.416442,16.150447 53.582741,16.818465 L 54.380379,16.818465 C 54.207026,16.264964 53.971934,15.738848 53.679085,15.252149 L 55.145239,13.785248 L 52.65988,11.29964 L 52.293756,11.6651 L 54.190347,13.563018 L 52.806927,14.946355 z" />
      <path
         style="fill:#ffffff"
         id="path9338"
         d="M 53.582741,20.132996 C 53.417686,20.802259 53.153715,21.433017 52.806927,22.007181 L 54.190347,23.390518 L 51.846143,25.734638 L 50.462723,24.351966 C 49.887979,24.698173 49.257884,24.960816 48.590032,25.127115 L 48.590032,27.084616 L 45.692908,27.084616 L 45.692908,28.120085 L 49.207845,28.120085 L 49.207845,26.046159 C 49.916857,25.870317 50.584792,25.590828 51.194307,25.224206 L 52.65988,26.690444 L 55.145239,24.204836 L 53.679085,22.738764 C 54.046453,22.129167 54.325776,21.460734 54.501867,20.752303 L 56.57571,20.752303 L 56.576291,17.236702 L 55.539079,17.236702 L 55.539079,20.133079 L 53.582741,20.133079 L 53.582741,20.132996 z" />
      <path
         style="fill:#ffffff"
         id="path9340"
         d="M 43.401316,24.351966 L 42.01798,25.734638 L 40.122053,23.838131 L 39.755349,24.203591 L 42.24079,26.690361 L 43.707028,25.224123 C 44.194556,25.517553 44.720424,25.751899 45.27409,25.925999 L 45.27409,25.127115 C 44.606155,24.960816 43.976227,24.698173 43.401316,24.351966 z" />
      <path
         style="fill:url(#linearGradient9422)"
         id="path9349"
         d="M 40.398886,20.75222 C 40.520872,21.24091 40.694308,21.709104 40.910065,22.154726 C 41.005745,22.353886 41.107898,22.549064 41.221503,22.738598 L 40.12197,23.838048 L 42.017897,25.734555 L 43.401233,24.351883 C 43.976061,24.69809 44.606072,24.960733 45.274007,25.127032 L 45.274007,25.925916 C 45.412673,25.968403 45.551421,26.010725 45.692742,26.045993 L 45.692742,27.084533 L 48.589866,27.084533 L 48.589866,25.127032 C 49.257718,24.960733 49.887813,24.69809 50.462557,24.351883 L 51.845977,25.734555 L 54.190181,23.390435 L 52.806761,22.007098 C 53.153549,21.432934 53.41752,20.802176 53.582575,20.132913 L 55.53883,20.132913 L 55.53883,17.236536 L 54.501618,17.236536 C 54.466931,17.095796 54.423862,16.957131 54.380213,16.818382 L 53.582575,16.818382 C 53.416276,16.150447 53.152305,15.521016 52.806761,14.946272 L 54.190181,13.562935 L 52.29359,11.665017 L 51.194141,12.765131 C 51.004689,12.65219 50.808184,12.55012 50.609604,12.454357 C 50.164563,12.237853 49.69695,12.065081 49.207679,11.943676 L 49.207679,9.8693349 L 45.692742,9.8693349 L 45.692742,11.943676 C 44.983648,12.119684 44.315713,12.399671 43.706945,12.765048 L 42.24079,11.29964 L 42.169508,11.370342 L 39.825387,13.715127 L 39.755349,13.785165 L 41.22225,15.252066 C 40.854881,15.861498 40.574895,16.528105 40.398969,17.236536 L 38.325209,17.236536 L 38.324545,20.132913 L 38.324545,20.752137 L 40.398886,20.752137 L 40.398886,20.75222 z M 47.450003,21.868432 C 46.298523,21.868432 45.307533,21.188299 44.849546,20.210005 C 44.676774,19.840147 44.577277,19.429876 44.577277,18.995125 C 44.577277,17.4074 45.863689,16.122233 47.450003,16.122233 C 47.884837,16.122233 48.295855,16.221896 48.664468,16.394004 C 49.643841,16.85199 50.323311,17.843478 50.323311,18.995125 C 50.323311,20.582518 49.036982,21.868432 47.450003,21.868432 z" />
      <path
         style="fill:none"
         id="path9351"
         d="M 49.207845,28.432021 C 49.379953,28.432021 49.519282,28.291944 49.519282,28.120002 C 49.519282,28.120002 49.519282,26.627376 49.519282,26.270878 C 50.082575,26.110969 50.62255,25.88683 51.132567,25.602363 C 51.385003,25.855463 52.440056,26.909852 52.440056,26.909852 C 52.561461,27.032585 52.759377,27.032585 52.880035,26.909852 L 55.366141,24.42441 C 55.423898,24.36599 55.456759,24.287653 55.456759,24.204753 C 55.456759,24.122018 55.423898,24.043101 55.366141,23.984597 C 55.366141,23.984597 54.310341,22.928631 54.057988,22.676942 C 54.343119,22.167754 54.566594,21.627531 54.72584,21.063657 C 55.083582,21.063657 56.575544,21.063657 56.575544,21.063657 C 56.747652,21.063657 56.886982,20.924411 56.886982,20.752303 L 56.886982,17.236702 C 56.886982,17.153802 56.854867,17.076129 56.7957,17.017045 C 56.737943,16.959288 56.658362,16.925846 56.576125,16.925846 C 56.576125,16.925846 55.082337,16.925846 54.72584,16.925846 C 54.566594,16.363881 54.343119,15.823823 54.057324,15.313142 C 54.310341,15.060125 55.366141,14.004906 55.366141,14.004906 C 55.423898,13.946568 55.456759,13.866904 55.456759,13.785331 C 55.456759,13.703094 55.423898,13.622185 55.366141,13.564927 L 52.880035,11.07824 C 52.822279,11.020401 52.742615,10.988369 52.659797,10.988369 C 52.57756,10.988369 52.498643,11.020401 52.440056,11.07824 C 52.440056,11.07824 51.38492,12.135368 51.132567,12.38714 C 50.621305,12.101926 50.081828,11.878451 49.519282,11.719786 C 49.519282,11.362708 49.519282,9.8695009 49.519282,9.8695009 C 49.519282,9.6979738 49.379953,9.5579804 49.207845,9.5579804 L 45.692908,9.5579804 C 45.5208,9.5579804 45.381969,9.6980568 45.381969,9.8695009 C 45.381969,9.8695009 45.381969,11.362708 45.381969,11.719786 C 44.818759,11.878368 44.279947,12.101843 43.768768,12.38714 C 43.516331,12.135368 42.461112,11.079485 42.461112,11.079485 C 42.339043,10.958163 42.141957,10.958163 42.020552,11.079485 L 39.535027,13.564927 C 39.474615,13.626003 39.443828,13.704422 39.443828,13.785331 C 39.443828,13.864995 39.474615,13.943913 39.535027,14.004906 C 39.535027,14.004906 40.590247,15.060125 40.8426,15.313142 C 40.558132,15.823741 40.334574,16.363798 40.174665,16.925846 C 39.817586,16.925846 38.325043,16.925846 38.325043,16.925846 C 38.152935,16.925846 38.013606,17.065922 38.013606,17.236785 L 38.013606,20.752386 C 38.013606,20.834623 38.046384,20.914868 38.104722,20.971297 C 38.163142,21.0298 38.242806,21.06374 38.324379,21.06374 C 38.324379,21.06374 39.817586,21.06374 40.174665,21.06374 C 40.334574,21.627033 40.558132,22.165928 40.8426,22.677025 C 40.590247,22.928714 39.535027,23.98468 39.535027,23.98468 C 39.474615,24.045009 39.443828,24.124756 39.443828,24.203757 C 39.443828,24.284749 39.474615,24.364413 39.535027,24.424576 L 42.020552,26.910018 C 42.078972,26.968522 42.158056,27.001466 42.24079,27.001466 C 42.323027,27.001466 42.402691,26.968605 42.461112,26.910018 C 42.461112,26.910018 43.515668,25.855629 43.768768,25.602529 C 44.278702,25.886996 44.817514,26.111135 45.381969,26.271044 C 45.381969,26.627542 45.381969,28.120168 45.381969,28.120168 C 45.381969,28.292027 45.5208,28.432186 45.692908,28.432186 L 49.207845,28.432186 L 49.207845,28.432021 z M 46.004346,27.809063 C 46.004346,27.360204 46.004346,26.046076 46.004346,26.046076 C 46.004346,25.903593 45.906757,25.778205 45.767926,25.744928 C 45.097501,25.577302 44.458444,25.31192 43.86702,24.957497 C 43.744951,24.884388 43.588278,24.902313 43.486125,25.003968 C 43.486125,25.003968 42.558037,25.93189 42.24079,26.249801 C 41.910101,25.919692 40.525436,24.53511 40.195328,24.203674 C 40.513321,23.886925 41.441243,22.957675 41.441243,22.957675 C 41.501656,22.89801 41.533106,22.818926 41.533106,22.738681 L 41.488129,22.577527 C 41.132378,21.987265 40.867661,21.347544 40.701362,20.676373 C 40.666094,20.538371 40.542116,20.440699 40.398886,20.440699 C 40.398886,20.440699 39.086169,20.440699 38.6359,20.440699 C 38.6359,19.973751 38.636564,18.014923 38.636564,17.549385 C 39.086169,17.549385 40.398886,17.549385 40.398886,17.549385 C 40.542116,17.549385 40.667255,17.451215 40.701943,17.312383 C 40.867661,16.64254 41.132378,16.004147 41.48871,15.412723 L 41.533023,15.252232 C 41.533023,15.17124 41.502236,15.090331 41.441824,15.031828 C 41.441824,15.031828 40.513238,14.103822 40.195245,13.785331 C 40.525436,13.454642 41.910101,12.070558 42.240708,11.738375 C 42.557954,12.058193 43.487287,12.986365 43.487287,12.986365 C 43.588195,13.088435 43.745449,13.107189 43.867518,13.032504 C 44.459025,12.676753 45.098663,12.412202 45.767843,12.245736 C 45.906674,12.211132 46.004263,12.086491 46.004263,11.943925 C 46.004263,11.943925 46.004263,10.630627 46.004263,10.180523 C 46.471129,10.180523 48.429376,10.180523 48.896988,10.180523 C 48.896988,10.630709 48.896988,11.943925 48.896988,11.943925 C 48.896988,12.086491 48.993913,12.211132 49.132579,12.245736 C 49.802423,12.412202 50.441479,12.676753 51.03365,13.032504 C 51.154972,13.107106 51.312309,13.088435 51.413217,12.986365 C 51.413217,12.986365 52.342468,12.057779 52.659797,11.738375 C 52.989906,12.070558 54.375815,13.454642 54.70526,13.785331 C 54.38735,14.103822 53.458763,15.031828 53.458763,15.031828 C 53.398932,15.090331 53.367481,15.17124 53.367481,15.252232 L 53.412458,15.412723 C 53.768873,16.004147 54.033508,16.64254 54.199226,17.312383 C 54.233913,17.451215 54.358471,17.549385 54.501784,17.549385 C 54.501784,17.549385 55.814502,17.549385 56.264688,17.549385 C 56.264688,18.014923 56.264024,19.973751 56.264024,20.440699 C 55.814502,20.440699 54.501784,20.440699 54.501784,20.440699 C 54.358554,20.440699 54.233913,20.538371 54.199226,20.676373 C 54.033508,21.347544 53.768292,21.987265 53.412458,22.577527 L 53.367481,22.738681 C 53.367481,22.818926 53.398932,22.89801 53.458763,22.957675 C 53.458763,22.957675 54.38735,23.886842 54.70526,24.204753 C 54.37457,24.535027 52.989906,25.919692 52.659797,26.249801 C 52.342468,25.93189 51.413217,25.003968 51.413217,25.003968 C 51.312973,24.902313 51.155055,24.884471 51.03365,24.957497 C 50.442641,25.31192 49.803667,25.577384 49.131915,25.744928 C 48.993913,25.778205 48.896988,25.903593 48.896988,26.046076 C 48.896988,26.046076 48.896988,27.360204 48.896988,27.809063 C 48.429459,27.809063 46.471212,27.809063 46.004346,27.809063 z" />
      <path
         style="fill:#000000;fill-opacity:1"
         id="path9353"
         d="M 50.635578,18.995125 C 50.635578,17.239192 49.206517,15.811542 47.450003,15.811542 C 45.694153,15.811542 44.265756,17.239275 44.265756,18.995125 C 44.265756,20.750228 45.694153,22.179372 47.450003,22.179372 C 49.206517,22.179289 50.635578,20.750228 50.635578,18.995125 z M 50.012537,18.995125 C 50.012537,20.40734 48.862965,21.556248 47.450003,21.556248 C 46.037705,21.556248 44.888133,20.40734 44.888133,18.995125 C 44.888133,17.582163 46.037705,16.433089 47.450003,16.433089 C 48.862965,16.433089 50.012537,17.58208 50.012537,18.995125 z" />
      <path
         style="fill:#090809;fill-opacity:1"
         id="path9355"
         d="M 49.220044,28.772917 C 49.573305,28.772917 49.860345,28.485213 49.860345,28.131952 C 49.860345,28.131952 49.860345,26.838569 49.860345,26.500079 C 50.275263,26.367139 50.677983,26.200923 51.065848,26.000518 C 51.305339,26.240672 52.219984,27.154488 52.219984,27.154488 L 52.673406,27.342778 L 53.126746,27.153243 L 55.610943,24.669046 L 55.797822,24.217034 L 55.611524,23.76494 C 55.610943,23.764276 54.797206,22.951119 54.456226,22.610057 C 54.655304,22.2241 54.822267,21.821381 54.95587,21.404637 C 55.294361,21.404637 56.587909,21.404637 56.587909,21.404637 C 56.94117,21.404637 57.22821,21.117431 57.22821,20.764335 L 57.22821,17.248735 L 57.041331,16.797221 L 56.588573,16.609014 C 56.588573,16.609014 55.29378,16.609014 54.955289,16.609014 C 54.82235,16.192769 54.655387,15.790049 54.456309,15.404092 C 54.695136,15.164519 55.611026,14.249376 55.611026,14.249376 L 55.797905,13.797198 L 55.609117,13.342531 L 53.12492,10.857836 L 52.672079,10.67162 L 52.220648,10.857172 C 52.219984,10.857836 51.40633,11.672735 51.065848,12.013216 C 50.677236,11.812811 50.274599,11.646429 49.860345,11.514817 C 49.860345,11.175829 49.860345,9.8816995 49.860345,9.8816995 C 49.860345,9.5283553 49.573305,9.241315 49.220044,9.241315 L 45.705107,9.241315 C 45.35251,9.241315 45.065469,9.5282723 45.065469,9.8816995 C 45.065469,9.8816995 45.065469,11.175829 45.065469,11.514817 C 44.651215,11.646429 44.248496,11.812894 43.859967,12.013216 C 43.62114,11.774307 42.705831,10.859163 42.705831,10.859163 C 42.455386,10.609881 42.049513,10.610461 41.800314,10.858499 L 39.314955,13.344522 L 39.127412,13.797281 L 39.313627,14.248131 C 39.314291,14.249459 40.128609,15.06386 40.469008,15.404175 C 40.269266,15.790796 40.102884,16.193515 39.970027,16.609097 C 39.631537,16.609097 38.337408,16.609097 38.337408,16.609097 C 37.984146,16.609097 37.697106,16.896055 37.697106,17.248735 L 37.697106,20.764335 L 37.887885,21.21643 L 38.336827,21.404637 C 38.336827,21.404637 39.630956,21.404637 39.969363,21.404637 C 40.102386,21.818974 40.268602,22.222191 40.468427,22.610057 C 40.229517,22.84963 39.315038,23.764276 39.315038,23.764276 L 39.127495,24.215707 L 39.315038,24.669046 L 41.800396,27.154488 L 42.253155,27.342031 L 42.705914,27.154488 C 42.705914,27.154488 43.620476,26.240009 43.86005,26.000518 C 44.248662,26.20084 44.651298,26.367803 45.065552,26.500079 C 45.065552,26.838569 45.065552,28.131952 45.065552,28.131952 C 45.065552,28.485213 45.352593,28.772917 45.70519,28.772917 L 49.220044,28.772917 z M 50.984192,25.327438 C 50.496663,25.599126 49.97785,25.814386 49.44161,25.966412 L 49.2027,26.034541 L 49.2027,28.131952 L 45.705107,28.115438 L 45.723032,26.283077 L 45.723032,26.034541 L 45.483541,25.966412 C 44.949126,25.81505 44.43023,25.59979 43.941539,25.327438 L 43.724454,25.206033 L 42.240873,26.689697 L 39.779829,24.204255 L 41.087401,22.92166 L 41.262746,22.746316 L 41.141922,22.529231 C 40.870316,22.04054 40.65514,21.521561 40.502948,20.985985 L 40.435482,20.747075 L 38.354668,20.747075 L 38.354668,17.248818 L 40.186946,17.266659 L 40.435482,17.266659 L 40.503612,17.02775 C 40.655804,16.490929 40.87098,15.972032 41.141922,15.485167 L 41.263327,15.268663 L 39.779746,13.784501 L 42.264524,11.324784 L 43.549027,12.632274 L 43.724288,12.807618 L 43.941374,12.686213 C 44.430064,12.413363 44.94896,12.198851 45.483375,12.048484 L 45.722866,11.981019 L 45.722866,9.8816165 L 49.219878,9.8989601 L 49.202617,11.731902 L 49.202617,11.981019 L 49.442191,12.048484 C 49.977103,12.199515 50.496,12.414027 50.984192,12.686213 L 51.20136,12.807618 L 52.685522,11.322876 L 55.145239,13.808899 L 53.837085,15.092821 L 53.661077,15.268663 L 53.782482,15.485831 C 54.054171,15.970124 54.2686,16.48902 54.42212,17.027833 L 54.489586,17.266742 L 56.58849,17.266742 L 56.570399,20.764418 L 54.738121,20.747075 L 54.489586,20.747075 L 54.42212,20.986565 C 54.269264,21.526125 54.054088,22.045104 53.783063,22.528567 L 53.660994,22.745735 L 55.145903,24.229316 L 52.65988,26.689697 L 51.377285,25.381958 L 51.201941,25.206697 L 50.984192,25.327438 z M 38.336661,20.746992 L 38.345706,20.746992 L 38.336661,20.746992 z M 37.889047,21.220496 L 37.88772,21.216513 L 37.883819,21.215185 L 37.941659,21.344308 L 37.889047,21.220496 z" />
    </g>
  </g>
</svg>
