<?xml version="1.0" encoding="UTF-8" standalone="no"?>
<!-- Generator: Adobe Illustrator 14.0.0, SVG Export Plug-In . SVG Version: 6.00 Build 43363)  -->

<svg
   xmlns:dc="http://purl.org/dc/elements/1.1/"
   xmlns:cc="http://creativecommons.org/ns#"
   xmlns:rdf="http://www.w3.org/1999/02/22-rdf-syntax-ns#"
   xmlns:svg="http://www.w3.org/2000/svg"
   xmlns="http://www.w3.org/2000/svg"
   xmlns:sodipodi="http://sodipodi.sourceforge.net/DTD/sodipodi-0.dtd"
   xmlns:inkscape="http://www.inkscape.org/namespaces/inkscape"
   version="1.1"
   id="svg2160"
   inkscape:output_extension="org.inkscape.output.svg.inkscape"
   sodipodi:docname="segment.svg"
   inkscape:version="0.48.1 r9760"
   sodipodi:version="0.32"
   x="0px"
   y="0px"
   width="32px"
   height="32px"
   viewBox="0 0 32 32"
   enable-background="new 0 0 32 32"
   xml:space="preserve"><metadata
   id="metadata4111"><rdf:RDF><cc:Work
       rdf:about=""><dc:format>image/svg+xml</dc:format><dc:type
         rdf:resource="http://purl.org/dc/dcmitype/StillImage" /></cc:Work></rdf:RDF></metadata><defs
   id="defs4109" /><sodipodi:namedview
   pagecolor="#ffffff"
   bordercolor="#666666"
   borderopacity="1"
   objecttolerance="10"
   gridtolerance="10"
   guidetolerance="10"
   inkscape:pageopacity="0"
   inkscape:pageshadow="2"
   inkscape:window-width="1386"
   inkscape:window-height="730"
   id="namedview4107"
   showgrid="false"
   inkscape:zoom="28.637825"
   inkscape:cx="16"
   inkscape:cy="4.8259669"
   inkscape:window-x="212"
   inkscape:window-y="153"
   inkscape:window-maximized="0"
   inkscape:current-layer="g4043" />
<g
   id="g4043">
	<path
   d="M5.36,6.81C5.093,7.083,4.843,7.366,4.594,7.647c-0.088,0.1-0.181,0.196-0.265,0.297C4.05,8.271,3.79,8.603,3.537,8.938   C3.491,9,3.44,9.06,3.394,9.123c-0.281,0.38-0.542,0.765-0.792,1.151c-0.011,0.019-0.024,0.038-0.036,0.054   C-0.389,14.98-0.93,20.05,1.668,23.342l3.055,3.913l0.001,0.001c0.001,0.001,0.002,0.002,0.001,0.003   c3.707,4.698,12.164,4.131,19.254-1.294l0.289-0.223c3.355-2.647,5.847-5.999,7.017-9.439c1.218-3.583,0.869-6.854-0.983-9.207   c-0.001-0.001-0.001-0.002-0.002-0.003l-0.002-0.002V7.09c0,0,0,0-0.001-0.001l-3.053-3.91C24.95,0.268,20.83-0.618,16.343,0.415   c-0.054,0.003-0.11,0.002-0.164,0.015c-2.795,0.678-5.604,2.057-8.126,3.985L7.763,4.64C7.319,4.992,6.891,5.358,6.476,5.732   C6.282,5.907,6.102,6.091,5.916,6.271C5.73,6.45,5.539,6.625,5.36,6.81z"
   id="path4045" />
	
		<linearGradient
   id="SVGID_1_"
   gradientUnits="userSpaceOnUse"
   x1="130.8848"
   y1="116.0996"
   x2="161.777"
   y2="116.0996"
   gradientTransform="matrix(-0.7852 0.6192 -0.6192 -0.7852 201.2426 13.8155)">
		<stop
   offset="0"
   style="stop-color:#e30d1c;stop-opacity:1;"
   id="stop4048" />
		<stop
   offset="0.2182"
   style="stop-color:#f8afaf;stop-opacity:1;"
   id="stop4050" />
		<stop
   offset="0.79390001"
   style="stop-color:#e30d1c;stop-opacity:1;"
   id="stop4052" />
		<stop
   offset="1"
   style="stop-color:#f8afaf;stop-opacity:1;"
   id="stop4054" />
	</linearGradient>
	<path
   fill="url(#SVGID_1_)"
   d="M5.65,24.966c4.031,1.438,9.918,0.052,14.949-3.915c5.033-3.968,7.749-9.37,7.292-13.625   l1.628,0.277l-3.053-3.91C23.074-0.509,14.948,0.247,8.316,5.477c-6.63,5.229-9.257,12.955-5.866,17.255l3.056,3.911L5.65,24.966z"
   id="path4056" />
	<path
   d="M11.048,8.379c7.088-5.423,15.545-5.989,19.25-1.289c1.856,2.353,2.206,5.626,0.987,9.213   c-1.17,3.44-3.661,6.792-7.017,9.439l-0.289,0.223C16.89,31.39,8.433,31.957,4.726,27.259c-1.855-2.354-2.207-5.626-0.988-9.215   c1.17-3.438,3.662-6.792,7.02-9.439L11.048,8.379z"
   id="path4058" />
	
		<ellipse
   transform="matrix(-0.7852 0.6193 -0.6193 -0.7852 41.8977 19.8118)"
   fill="#00ACDA"
   cx="17.512"
   cy="17.173"
   rx="15.291"
   ry="9.917"
   id="ellipse4060"
   style="fill:#ee2c37;fill-opacity:1" />
	
		<linearGradient
   id="SVGID_2_"
   gradientUnits="userSpaceOnUse"
   x1="-41.8975"
   y1="-0.3696"
   x2="-67.6344"
   y2="-0.3696"
   gradientTransform="matrix(0.992 -0.1264 0.1264 0.992 72.7881 10.5042)">
		<stop
   offset="0"
   style="stop-color:#f8afaf;stop-opacity:1;"
   id="stop4063" />
		<stop
   offset="1"
   style="stop-color:#e30d1c;stop-opacity:1;"
   id="stop4065" />
	</linearGradient>
	<path
   fill="url(#SVGID_2_)"
   d="M13.741,28.395c-3.27,0.418-6.006-0.433-7.502-2.328C4.8,24.241,4.56,21.614,5.563,18.663   c1.051-3.089,3.319-6.125,6.386-8.545c2.905-2.29,6.219-3.768,9.334-4.166c3.271-0.417,6.007,0.432,7.503,2.331   c1.438,1.823,1.678,4.452,0.676,7.402c-1.053,3.089-3.317,6.126-6.387,8.543C20.171,26.519,16.858,27.999,13.741,28.395   L13.741,28.395z"
   id="path4067" />
	<path
   d="M4.596,19.352c-0.251-0.033-0.484-0.163-0.645-0.369l-3.057-3.916c-0.203-0.259-0.262-0.603-0.157-0.915   c1.157-3.463,3.655-6.837,7.034-9.502c2.594-2.046,5.502-3.502,8.41-4.208c0.12-0.03,0.243-0.035,0.361-0.019   c0.25,0.033,0.483,0.163,0.645,0.369l3.059,3.916c0.205,0.263,0.263,0.612,0.153,0.927c-0.109,0.315-0.371,0.552-0.695,0.631   c-2.637,0.639-5.285,1.967-7.659,3.84c-3.08,2.429-5.349,5.477-6.388,8.585c-0.115,0.342-0.409,0.594-0.765,0.655   C4.792,19.363,4.693,19.364,4.596,19.352L4.596,19.352z"
   id="path4069" />
	
		<linearGradient
   id="SVGID_3_"
   gradientUnits="userSpaceOnUse"
   x1="137.3447"
   y1="122.0645"
   x2="157.223"
   y2="122.0645"
   gradientTransform="matrix(-0.7852 0.6192 -0.6192 -0.7852 201.2426 13.8155)">
		<stop
   offset="0"
   style="stop-color:#FFF3DF"
   id="stop4072" />
		<stop
   offset="0.5394"
   style="stop-color:#F9A620"
   id="stop4074" />
		<stop
   offset="1"
   style="stop-color:#A36628"
   id="stop4076" />
	</linearGradient>
	<path
   fill="url(#SVGID_3_)"
   d="M16.413,1.396c-2.661,0.646-5.458,1.993-8.034,4.025c-3.338,2.633-5.66,5.899-6.71,9.042   l3.057,3.917c1.052-3.146,3.371-6.41,6.71-9.044c2.575-2.032,5.375-3.379,8.036-4.024L16.413,1.396z"
   id="path4078" />
	<path
   d="M11.126,8.318c2.518-1.928,5.317-3.306,8.094-3.986c0.323-0.08,0.667,0.008,0.912,0.233   c0.244,0.224,0.36,0.557,0.311,0.885l-1.868,11.815c-0.042,0.258-0.181,0.481-0.377,0.633c-0.145,0.109-0.317,0.18-0.505,0.199   L4.83,19.373c-0.335,0.034-0.663-0.104-0.874-0.367c-0.208-0.262-0.272-0.614-0.166-0.934c1.153-3.47,3.658-6.855,7.047-9.531   L11.126,8.318z"
   id="path4080" />
	<path
   fill="#F9A620"
   d="M4.731,18.385l12.861-1.276l1.869-11.813l-0.004,0c-2.651,0.649-5.439,2.001-8.005,4.024   C8.107,11.96,5.779,15.236,4.731,18.385L4.731,18.385z"
   id="path4082" />
	
		<linearGradient
   id="SVGID_4_"
   gradientUnits="userSpaceOnUse"
   x1="-52.2803"
   y1="-6.0654"
   x2="-64.9994"
   y2="-6.0654"
   gradientTransform="matrix(0.992 -0.1264 0.1264 0.992 72.7881 10.5042)">
		<stop
   offset="0"
   style="stop-color:#FFF3DF"
   id="stop4085" />
		<stop
   offset="0.5394"
   style="stop-color:#F9A620"
   id="stop4087" />
		<stop
   offset="1"
   style="stop-color:#A36628"
   id="stop4089" />
	</linearGradient>
	<path
   fill="url(#SVGID_4_)"
   d="M6.156,17.308c1.188-2.635,3.233-5.17,5.875-7.254c1.966-1.549,4.112-2.729,6.279-3.454   l-1.524,9.652L6.156,17.308z"
   id="path4091" />
<path
   style="fill:#ffffff;fill-opacity:1;stroke:#ffffff;stroke-width:2;stroke-linecap:round;stroke-linejoin:round;stroke-miterlimit:4;stroke-opacity:1;stroke-dasharray:none"
   d="m 2.1357456,22.016715 0,6.535715 c 0.155172,1.432072 1.683328,2.207522 4.035715,2.357142 1.904762,-0.02381 4.1583804,-0.383052 4.4285714,-2.428571 l -0.03571,-6.392858 -2.6428574,0.03571 -5e-6,5.607146 c -0.07996,1.007733 -0.804383,1.544025 -1.607143,1.464286 -0.736891,0.02617 -1.357447,-0.495623 -1.464285,-1.499998 l -0.07143,-5.642857 z"
   id="path3924"
   inkscape:connector-curvature="0"
   sodipodi:nodetypes="ccccccccccc" /><path
   style="fill:#000000;fill-opacity:1;stroke:none"
   d="m 1.9633016,21.814684 0.0653,6.559174 c 0.06279,1.270987 0.744962,2.983453 4.306636,2.714286 3.4628264,0.236634 4.2885534,-1.385137 4.2647934,-2.821429 l 0,-6.25 -2.6785714,4e-6 -0.03571,5.321429 c 0.113226,1.236727 -0.420201,1.67436 -1.621936,1.690826 -1.236112,-0.03075 -1.584823,-0.878939 -1.580095,-1.762255 l 0.05051,-5.437237 z"
   id="path3922"
   inkscape:connector-curvature="0"
   sodipodi:nodetypes="ccccccccccc" /></g>
<g
   id="g4093">
	
	
	<path
   fill="#FFFFFF"
   d="M12.427,31.848c-0.552,0-1-0.416-1-0.93v-8.922c0-0.514,0.448-0.93,1-0.93h4.404   c1.02,0,1.84,0.134,2.509,0.408c0.681,0.278,1.254,0.688,1.704,1.215c0.433,0.511,0.749,1.104,0.941,1.767   c0.179,0.62,0.27,1.282,0.27,1.97c0,1.088-0.14,1.93-0.426,2.574c-0.288,0.649-0.698,1.204-1.219,1.649   c-0.535,0.458-1.126,0.769-1.756,0.924c-0.728,0.182-1.409,0.274-2.023,0.274H12.427z M16.392,27.956   c0.441-0.018,0.579-0.078,0.586-0.081c0.047-0.022,0.107-0.104,0.159-0.215c0.033-0.07,0.141-0.364,0.141-1.179   c0-1.036-0.222-1.3-0.247-1.326c-0.1-0.104-0.327-0.175-0.639-0.198V27.956z"
   id="path4099" />
	<path
   d="M12.427,21.996h4.404c0.868,0,1.569,0.109,2.104,0.329c0.534,0.219,0.976,0.533,1.325,0.942   c0.349,0.411,0.602,0.888,0.759,1.431c0.157,0.544,0.235,1.119,0.235,1.728c0,0.954-0.116,1.694-0.35,2.219   c-0.233,0.525-0.558,0.966-0.972,1.32c-0.415,0.355-0.859,0.592-1.335,0.709c-0.65,0.163-1.239,0.244-1.768,0.244h-4.404V21.996z    M15.392,24.017v4.875h0.726c0.62,0,1.061-0.064,1.322-0.191c0.262-0.128,0.467-0.352,0.615-0.67s0.223-0.835,0.223-1.549   c0-0.945-0.166-1.593-0.497-1.941c-0.332-0.349-0.882-0.523-1.649-0.523H15.392z"
   id="path4101" />
	<path
   fill="#FFFFFF"
   d="M26.753,32c-1.925,0-3.265-0.376-4.098-1.147c-0.797-0.743-1.253-1.687-1.355-2.808   c-0.023-0.248,0.063-0.496,0.238-0.687c0.176-0.188,0.427-0.305,0.695-0.32l0.754-0.044c-0.053-0.038-0.104-0.077-0.152-0.116   c-0.771-0.622-1.18-1.461-1.18-2.423c0-0.639,0.198-1.246,0.591-1.807c0.395-0.563,0.976-1.002,1.729-1.307   c0.707-0.288,1.609-0.428,2.759-0.428c1.451,0,2.557,0.265,3.382,0.809c0.88,0.577,1.405,1.476,1.563,2.668   c0.034,0.255-0.047,0.512-0.225,0.709c-0.175,0.195-0.429,0.314-0.701,0.332c0.294,0.233,0.535,0.495,0.722,0.782   c0.35,0.54,0.526,1.146,0.526,1.802c0,0.753-0.227,1.457-0.675,2.092c-0.445,0.633-1.071,1.117-1.86,1.44   C28.728,31.848,27.815,32,26.753,32L26.753,32z M26.291,28.218c0.081,0.09,0.205,0.17,0.508,0.17c0.039,0,0.073-0.001,0.104-0.004   C26.771,28.34,26.576,28.282,26.291,28.218L26.291,28.218z"
   id="path4103" />
	<path
   d="M22.296,27.966l2.82-0.164c0.062,0.426,0.186,0.751,0.373,0.974c0.306,0.361,0.742,0.542,1.31,0.542   c0.423,0,0.749-0.093,0.978-0.276c0.229-0.185,0.344-0.399,0.344-0.643c0-0.231-0.108-0.438-0.327-0.621   c-0.218-0.183-0.724-0.355-1.519-0.517c-1.3-0.272-2.227-0.633-2.781-1.083c-0.559-0.451-0.838-1.024-0.838-1.723   c0-0.459,0.144-0.893,0.429-1.3c0.286-0.408,0.716-0.729,1.29-0.961c0.573-0.233,1.359-0.351,2.359-0.351   c1.226,0,2.16,0.213,2.804,0.637c0.644,0.423,1.026,1.098,1.148,2.023l-2.794,0.151c-0.074-0.401-0.23-0.693-0.468-0.876   c-0.238-0.183-0.566-0.273-0.985-0.273c-0.345,0-0.604,0.068-0.778,0.203c-0.175,0.137-0.263,0.302-0.263,0.496   c0,0.143,0.072,0.271,0.217,0.384c0.14,0.117,0.471,0.228,0.994,0.329c1.296,0.259,2.225,0.522,2.785,0.787   c0.561,0.267,0.969,0.596,1.224,0.989S31,27.527,31,28.016c0,0.572-0.17,1.099-0.511,1.582c-0.34,0.482-0.815,0.849-1.427,1.099   c-0.61,0.248-1.381,0.374-2.31,0.374c-1.632,0-2.762-0.293-3.391-0.877C22.734,29.609,22.379,28.867,22.296,27.966z"
   id="path4105" />
</g>
</svg>