<?xml version="1.0" encoding="UTF-8" standalone="no"?>
<svg
   xmlns:dc="http://purl.org/dc/elements/1.1/"
   xmlns:cc="http://creativecommons.org/ns#"
   xmlns:rdf="http://www.w3.org/1999/02/22-rdf-syntax-ns#"
   xmlns:svg="http://www.w3.org/2000/svg"
   xmlns="http://www.w3.org/2000/svg"
   xmlns:xlink="http://www.w3.org/1999/xlink"
   xmlns:sodipodi="http://sodipodi.sourceforge.net/DTD/sodipodi-0.dtd"
   xmlns:inkscape="http://www.inkscape.org/namespaces/inkscape"
   version="1.1"
   id="Layer_1"
   x="0px"
   y="0px"
   width="32px"
   height="32px"
   viewBox="0 0 32 32"
   enable-background="new 0 0 32 32"
   xml:space="preserve"
   sodipodi:docname="move_to_dir.svg"
   inkscape:version="0.92.3 (2405546, 2018-03-11)"><sodipodi:namedview
     pagecolor="#ffffff"
     bordercolor="#666666"
     borderopacity="1"
     objecttolerance="10"
     gridtolerance="10"
     guidetolerance="10"
     inkscape:pageopacity="0"
     inkscape:pageshadow="2"
     inkscape:window-width="1920"
     inkscape:window-height="1017"
     id="namedview4517"
     showgrid="false"
     inkscape:zoom="9.53125"
     inkscape:cx="-4.4190752"
     inkscape:cy="10.031019"
     inkscape:window-x="1272"
     inkscape:window-y="-8"
     inkscape:window-maximized="1"
     inkscape:current-layer="Layer_1" /><metadata
     id="metadata23"><rdf:RDF><cc:Work
         rdf:about=""><dc:format>image/svg+xml</dc:format><dc:type
           rdf:resource="http://purl.org/dc/dcmitype/StillImage" /><dc:title /></cc:Work></rdf:RDF></metadata><defs
     id="defs21"><linearGradient
       gradientTransform="matrix(0.99349722,0,0,1.1525441,0.16369573,1.3020456)"
       xlink:href="#SVGID_1_-2"
       id="linearGradient2835-5"
       gradientUnits="userSpaceOnUse"
       x1="3.2598"
       y1="18.8613"
       x2="29.9795"
       y2="18.8613" /><linearGradient
       y2="18.8613"
       x2="29.9795"
       y1="18.8613"
       x1="3.2598"
       gradientUnits="userSpaceOnUse"
       id="SVGID_1_-2"><stop
         id="stop10"
         style="stop-color:#A46829"
         offset="0" /><stop
         id="stop12"
         style="stop-color:#FAA81D"
         offset="0.5394" /><stop
         id="stop14-1"
         style="stop-color:#FFF3E2"
         offset="1" /></linearGradient><linearGradient
       gradientTransform="matrix(0.55084276,0,0,0.55084276,0.01046897,-2.9772572)"
       xlink:href="#linearGradient4404"
       id="linearGradient2835"
       gradientUnits="userSpaceOnUse"
       x1="3.2598"
       y1="18.8613"
       x2="29.9795"
       y2="18.8613" /><linearGradient
       id="linearGradient4404"
       gradientUnits="userSpaceOnUse"
       x1="3.2598"
       y1="18.8613"
       x2="29.9795"
       y2="18.8613"><stop
         offset="0"
         style="stop-color:#2932cf;stop-opacity:1"
         id="stop4406" /><stop
         offset="0.5394"
         style="stop-color:#2964dc;stop-opacity:1"
         id="stop4408" /><stop
         offset="1"
         style="stop-color:#b8f8f3;stop-opacity:1"
         id="stop4410" /></linearGradient><linearGradient
       gradientTransform="matrix(1,0,0,-1,5.1021,-96.5781)"
       y2="-115.9191"
       x2="17.3836"
       y1="-112.4272"
       x1="13.8916"
       gradientUnits="userSpaceOnUse"
       id="SVGID_3_"><stop
         id="stop140"
         style="stop-color:#AED58A"
         offset="0" /><stop
         id="stop142"
         style="stop-color:#1E9046"
         offset="1" /></linearGradient><linearGradient
       gradientTransform="matrix(1,0,0,-1,5.1021,-96.5781)"
       y2="-125.9927"
       x2="6.9281998"
       y1="-122.6431"
       x1="3.5785999"
       gradientUnits="userSpaceOnUse"
       id="SVGID_4_"><stop
         id="stop149"
         style="stop-color:#FFF3DF"
         offset="0" /><stop
         id="stop151"
         style="stop-color:#F9A61E"
         offset="0.5394" /><stop
         id="stop153"
         style="stop-color:#A36628"
         offset="1" /></linearGradient><linearGradient
       gradientTransform="matrix(1,0,0,-1,5.1021,-96.5781)"
       y2="-109.1902"
       x2="24.334299"
       y1="-105.4878"
       x1="20.6318"
       gradientUnits="userSpaceOnUse"
       id="SVGID_5_"><stop
         id="stop162"
         style="stop-color:#F49599"
         offset="0" /><stop
         id="stop164"
         style="stop-color:#8E1B1E"
         offset="1" /></linearGradient><linearGradient
       gradientTransform="matrix(1,0,0,-1,2.46,-87.8398)"
       y2="-92.170898"
       x2="19.415001"
       y1="-92.170898"
       x1="-0.70999998"
       gradientUnits="userSpaceOnUse"
       id="SVGID_1_"><stop
         id="stop100"
         style="stop-color:#F5969A"
         offset="0" /><stop
         id="stop102"
         style="stop-color:#901A1E"
         offset="1" /></linearGradient><linearGradient
       gradientTransform="matrix(1,0,0,-1,2.46,-87.8398)"
       y2="-97.029404"
       x2="-0.70719999"
       y1="-114.2168"
       x1="19.1826"
       gradientUnits="userSpaceOnUse"
       id="SVGID_2_"><stop
         id="stop125"
         style="stop-color:#000000;stop-opacity:0.42"
         offset="0" /><stop
         id="stop127"
         style="stop-color:#000000;stop-opacity:0"
         offset="1" /></linearGradient><linearGradient
       id="path7827_1_"
       gradientUnits="userSpaceOnUse"
       x1="-359.63181"
       y1="-3009.3496"
       x2="-335.80081"
       y2="-3009.3496"
       gradientTransform="matrix(-1.119602,-0.00464313,0.00718831,-0.72318122,-351.49302,-2170.5211)"><stop
         offset="0"
         style="stop-color:#24A64A"
         id="stop10-1" /><stop
         offset="0.5"
         style="stop-color:#B3D78C"
         id="stop12-6" /><stop
         offset="1"
         style="stop-color:#216634"
         id="stop14-6" /></linearGradient><linearGradient
       id="path7827_1_-1"
       gradientUnits="userSpaceOnUse"
       x1="-359.63181"
       y1="-3009.3496"
       x2="-335.80081"
       y2="-3009.3496"
       gradientTransform="matrix(-1.0529083,0.00627983,0.00676011,0.97810311,-328.54306,2983.5798)"><stop
         offset="0"
         style="stop-color:#24A64A"
         id="stop10-1-4" /><stop
         offset="0.5"
         style="stop-color:#B3D78C"
         id="stop12-6-1" /><stop
         offset="1"
         style="stop-color:#216634"
         id="stop14-6-6" /></linearGradient><linearGradient
       id="path7827_1_-6"
       gradientUnits="userSpaceOnUse"
       x1="-359.63181"
       y1="-3009.3496"
       x2="-335.80081"
       y2="-3009.3496"
       gradientTransform="matrix(-1.0529083,0.00527549,0.00676011,0.82167377,-329.59223,2498.4272)"><stop
         offset="0"
         style="stop-color:#24A64A"
         id="stop10-1-9" /><stop
         offset="0.5"
         style="stop-color:#B3D78C"
         id="stop12-6-3" /><stop
         offset="1"
         style="stop-color:#216634"
         id="stop14-6-2" /></linearGradient><linearGradient
       id="path7827_1_-0"
       gradientUnits="userSpaceOnUse"
       x1="-359.63181"
       y1="-3009.3496"
       x2="-335.80081"
       y2="-3009.3496"
       gradientTransform="matrix(-1.119602,0.00464313,0.00718831,0.72318122,-351.28299,2202.2323)"><stop
         offset="0"
         style="stop-color:#24A64A"
         id="stop10-1-8" /><stop
         offset="0.5"
         style="stop-color:#B3D78C"
         id="stop12-6-34" /><stop
         offset="1"
         style="stop-color:#216634"
         id="stop14-6-5" /></linearGradient></defs><linearGradient
     id="path4246_1_"
     gradientUnits="userSpaceOnUse"
     x1="565.3936"
     y1="820.6543"
     x2="577.8887"
     y2="820.6543"
     gradientTransform="matrix(1 0 0 1 -563.0801 -809.6797)"><stop
       offset="0"
       style="stop-color:#B2D78E"
       id="stop6" /><stop
       offset="1"
       style="stop-color:#219146"
       id="stop8" /></linearGradient><linearGradient
     id="path4246_2_"
     gradientUnits="userSpaceOnUse"
     x1="580.2715"
     y1="830.708"
     x2="592.7666"
     y2="830.708"
     gradientTransform="matrix(0.23747948,-0.70891643,0.70891643,0.23747948,-712.89869,232.84971)"><stop
       offset="0"
       style="stop-color:#B2D78E"
       id="stop14" /><stop
       offset="1"
       style="stop-color:#219146"
       id="stop16" /></linearGradient><path
     inkscape:connector-curvature="0"
     style="fill:#010101;stroke-width:1.26451266"
     id="path9179"
     d="m 18.446965,13.91824 c -0.249484,-0.0011 -0.503731,-0.03851 -0.737103,-0.113448 -0.584318,-0.183439 -0.954809,-0.560266 -0.960904,-0.978635 l -0.05331,-2.718882 c -0.840406,-0.0355 -1.568188,-0.05507 -2.258539,-0.05794 -5.1622684,-0.0214 -8.2495168,0.942651 -9.9971887,3.127551 -0.2976254,0.371848 -0.8945549,0.597861 -1.5285186,0.595233 -0.097407,-4.06e-4 -0.1930432,-0.0052 -0.2903406,-0.01665 C 1.8836729,13.670735 1.3167539,13.284265 1.2258003,12.807046 1.2030179,12.691048 0.71262777,9.9361394 3.9306427,7.5067694 6.5942688,5.4934422 10.90874,4.3313706 16.762723,4.0465843 l 0.09486,-2.1531245 c 0.02132,-0.4160476 0.399196,-0.7908761 0.983672,-0.96726794 0.234808,-0.0696702 0.484654,-0.105069 0.73585,-0.10402722 0.374225,0.001553 0.74084,0.08145 1.041794,0.23391186 l 10.853115,5.4900768 c 0.41829,0.2103525 0.659445,0.5336625 0.656043,0.875828 -0.0035,0.3432684 -0.250975,0.6645504 -0.673412,0.8714176 L 19.493328,13.69189 c -0.309088,0.149936 -0.677267,0.227885 -1.046366,0.226355 z" /><path
     inkscape:connector-curvature="0"
     style="opacity:0.98000004;fill:url(#path7827_1_);stroke-width:1.26451266"
     id="path7827_6_"
     enable-background="new    "
     d="M 18.562096,1.9632529 18.421215,5.1327867 C 1.5222001,5.4832515 2.9217303,12.706815 2.9217303,12.706815 6.0900613,8.7429572 12.585069,8.7820352 18.381521,9.1272794 l 0.07066,3.7245196 10.961365,-5.4007005 z" /><path
     inkscape:connector-curvature="0"
     style="opacity:0.98000004;fill:#06a14b;stroke-width:1.26451266"
     id="path4454_3_"
     enable-background="new    "
     d="m 19.560803,11.264194 -0.05511,-2.8778414 -1.07595,-0.064044 C 16.798763,8.222814 15.550021,8.1790145 14.38633,8.1741893 11.563402,8.1624851 7.8924367,8.3669153 4.9368571,9.8381648 5.2207423,9.4728811 5.5918834,9.0969193 6.0791599,8.7280626 8.425964,6.9551556 12.570978,5.9932722 18.396008,5.8706253 l 1.128077,-0.022905 0.105516,-2.3628017 7.760264,3.9230848 z" /><path
     inkscape:connector-curvature="0"
     style="fill:#010101;stroke-width:1.26451266"
     id="path9179-3"
     d="m 18.657001,17.792948 c -0.249484,0.0011 -0.503731,0.03851 -0.737103,0.113448 -0.584318,0.183439 -0.954809,0.560266 -0.960904,0.978635 l -0.05331,2.718882 c -0.840406,0.0355 -1.568188,0.05507 -2.258539,0.05794 -5.1622677,0.02141 -8.2495167,-0.942651 -9.9971887,-3.127551 -0.297625,-0.371848 -0.894555,-0.597861 -1.528518,-0.595233 -0.09741,4.06e-4 -0.193044,0.0052 -0.290341,0.01665 -0.73739,0.08473 -1.304309,0.471204 -1.395263,0.948423 -0.02278,0.115998 -0.513172,2.870907 2.704843,5.300277 2.663626,2.013327 6.9780967,3.175399 12.8320797,3.460185 l 0.09486,2.153125 c 0.02132,0.416047 0.399196,0.790876 0.983672,0.967268 0.234808,0.06967 0.484654,0.105069 0.73585,0.104027 0.374225,-0.0016 0.74084,-0.08145 1.041794,-0.233912 l 10.853115,-5.490077 c 0.41829,-0.210353 0.659445,-0.533663 0.656043,-0.875828 -0.0035,-0.343268 -0.250975,-0.66455 -0.673412,-0.871418 L 19.703364,18.019298 c -0.309088,-0.149936 -0.677267,-0.227885 -1.046366,-0.226355 z" /><path
     inkscape:connector-curvature="0"
     style="opacity:0.98000004;fill:url(#path7827_1_-0);stroke-width:1.26451266"
     id="path7827_6_-3"
     enable-background="new    "
     d="M 18.772132,29.747935 18.631251,26.578402 C 1.7322363,26.227937 3.1317663,19.004373 3.1317663,19.004373 c 3.168331,3.963858 9.6633387,3.92478 15.4597907,3.579536 l 0.07066,-3.72452 10.961365,5.400701 z" /><path
     inkscape:connector-curvature="0"
     style="opacity:0.98000004;fill:#06a14b;stroke-width:1.26451266"
     id="path4454_3_-3"
     enable-background="new    "
     d="m 19.770839,20.446994 -0.05511,2.877842 -1.07595,0.06404 c -1.63098,0.09949 -2.879722,0.143294 -4.043413,0.148119 -2.822928,0.0117 -6.4938927,-0.192726 -9.4494727,-1.663976 0.283885,0.365284 0.655026,0.741246 1.142303,1.110103 2.346804,1.772907 6.4918177,2.73479 12.3168477,2.857437 l 1.128077,0.0229 0.105516,2.362802 7.760264,-3.923085 z" /></svg>