<?xml version="1.0" encoding="UTF-8" standalone="no"?>
<svg
   xmlns:dc="http://purl.org/dc/elements/1.1/"
   xmlns:cc="http://creativecommons.org/ns#"
   xmlns:rdf="http://www.w3.org/1999/02/22-rdf-syntax-ns#"
   xmlns:svg="http://www.w3.org/2000/svg"
   xmlns="http://www.w3.org/2000/svg"
   xmlns:xlink="http://www.w3.org/1999/xlink"
   xmlns:sodipodi="http://sodipodi.sourceforge.net/DTD/sodipodi-0.dtd"
   xmlns:inkscape="http://www.inkscape.org/namespaces/inkscape"
   version="1.1"
   id="Layer_1"
   x="0px"
   y="0px"
   width="32px"
   height="32px"
   viewBox="0 0 32 32"
   enable-background="new 0 0 32 32"
   xml:space="preserve"
   sodipodi:docname="move_to_dir.svg"
   inkscape:version="0.91 r13725"><sodipodi:namedview
     pagecolor="#ffffff"
     bordercolor="#666666"
     borderopacity="1"
     objecttolerance="10"
     gridtolerance="10"
     guidetolerance="10"
     inkscape:pageopacity="0"
     inkscape:pageshadow="2"
     inkscape:window-width="2560"
     inkscape:window-height="1380"
     id="namedview4517"
     showgrid="false"
     inkscape:zoom="2.3828125"
     inkscape:cx="-279.48288"
     inkscape:cy="54.615039"
     inkscape:window-x="1920"
     inkscape:window-y="0"
     inkscape:window-maximized="1"
     inkscape:current-layer="Layer_1" /><metadata
     id="metadata23"><rdf:RDF><cc:Work
         rdf:about=""><dc:format>image/svg+xml</dc:format><dc:type
           rdf:resource="http://purl.org/dc/dcmitype/StillImage" /><dc:title /></cc:Work></rdf:RDF></metadata><defs
     id="defs21"><linearGradient
       gradientTransform="matrix(0.99349722,0,0,1.1525441,0.16369573,1.3020456)"
       xlink:href="#SVGID_1_-2"
       id="linearGradient2835-5"
       gradientUnits="userSpaceOnUse"
       x1="3.2598"
       y1="18.8613"
       x2="29.9795"
       y2="18.8613" /><linearGradient
       y2="18.8613"
       x2="29.9795"
       y1="18.8613"
       x1="3.2598"
       gradientUnits="userSpaceOnUse"
       id="SVGID_1_-2"><stop
         id="stop10"
         style="stop-color:#A46829"
         offset="0" /><stop
         id="stop12"
         style="stop-color:#FAA81D"
         offset="0.5394" /><stop
         id="stop14-1"
         style="stop-color:#FFF3E2"
         offset="1" /></linearGradient><linearGradient
       gradientTransform="matrix(0.55084276,0,0,0.55084276,0.01046897,-2.9772572)"
       xlink:href="#linearGradient4404"
       id="linearGradient2835"
       gradientUnits="userSpaceOnUse"
       x1="3.2598"
       y1="18.8613"
       x2="29.9795"
       y2="18.8613" /><linearGradient
       id="linearGradient4404"
       gradientUnits="userSpaceOnUse"
       x1="3.2598"
       y1="18.8613"
       x2="29.9795"
       y2="18.8613"><stop
         offset="0"
         style="stop-color:#2932cf;stop-opacity:1"
         id="stop4406" /><stop
         offset="0.5394"
         style="stop-color:#2964dc;stop-opacity:1"
         id="stop4408" /><stop
         offset="1"
         style="stop-color:#b8f8f3;stop-opacity:1"
         id="stop4410" /></linearGradient><linearGradient
       gradientTransform="matrix(1,0,0,-1,5.1021,-96.5781)"
       y2="-115.9191"
       x2="17.3836"
       y1="-112.4272"
       x1="13.8916"
       gradientUnits="userSpaceOnUse"
       id="SVGID_3_"><stop
         id="stop140"
         style="stop-color:#AED58A"
         offset="0" /><stop
         id="stop142"
         style="stop-color:#1E9046"
         offset="1" /></linearGradient><linearGradient
       gradientTransform="matrix(1,0,0,-1,5.1021,-96.5781)"
       y2="-125.9927"
       x2="6.9281998"
       y1="-122.6431"
       x1="3.5785999"
       gradientUnits="userSpaceOnUse"
       id="SVGID_4_"><stop
         id="stop149"
         style="stop-color:#FFF3DF"
         offset="0" /><stop
         id="stop151"
         style="stop-color:#F9A61E"
         offset="0.5394" /><stop
         id="stop153"
         style="stop-color:#A36628"
         offset="1" /></linearGradient><linearGradient
       gradientTransform="matrix(1,0,0,-1,5.1021,-96.5781)"
       y2="-109.1902"
       x2="24.334299"
       y1="-105.4878"
       x1="20.6318"
       gradientUnits="userSpaceOnUse"
       id="SVGID_5_"><stop
         id="stop162"
         style="stop-color:#F49599"
         offset="0" /><stop
         id="stop164"
         style="stop-color:#8E1B1E"
         offset="1" /></linearGradient><linearGradient
       gradientTransform="matrix(1,0,0,-1,2.46,-87.8398)"
       y2="-92.170898"
       x2="19.415001"
       y1="-92.170898"
       x1="-0.70999998"
       gradientUnits="userSpaceOnUse"
       id="SVGID_1_"><stop
         id="stop100"
         style="stop-color:#F5969A"
         offset="0" /><stop
         id="stop102"
         style="stop-color:#901A1E"
         offset="1" /></linearGradient><linearGradient
       gradientTransform="matrix(1,0,0,-1,2.46,-87.8398)"
       y2="-97.029404"
       x2="-0.70719999"
       y1="-114.2168"
       x1="19.1826"
       gradientUnits="userSpaceOnUse"
       id="SVGID_2_"><stop
         id="stop125"
         style="stop-color:#000000;stop-opacity:0.42"
         offset="0" /><stop
         id="stop127"
         style="stop-color:#000000;stop-opacity:0"
         offset="1" /></linearGradient><linearGradient
       id="path7827_1_"
       gradientUnits="userSpaceOnUse"
       x1="-359.63181"
       y1="-3009.3496"
       x2="-335.80081"
       y2="-3009.3496"
       gradientTransform="matrix(0,-0.71160856,0.71160856,0,2162.8603,-237.6658)"><stop
         offset="0"
         style="stop-color:#24A64A"
         id="stop10-1" /><stop
         offset="0.5"
         style="stop-color:#B3D78C"
         id="stop12-6" /><stop
         offset="1"
         style="stop-color:#216634"
         id="stop14-6" /></linearGradient></defs><linearGradient
     id="path4246_1_"
     gradientUnits="userSpaceOnUse"
     x1="565.3936"
     y1="820.6543"
     x2="577.8887"
     y2="820.6543"
     gradientTransform="matrix(1 0 0 1 -563.0801 -809.6797)"><stop
       offset="0"
       style="stop-color:#B2D78E"
       id="stop6" /><stop
       offset="1"
       style="stop-color:#219146"
       id="stop8" /></linearGradient><linearGradient
     id="path4246_2_"
     gradientUnits="userSpaceOnUse"
     x1="580.2715"
     y1="830.708"
     x2="592.7666"
     y2="830.708"
     gradientTransform="matrix(0.23747948,-0.70891643,0.70891643,0.23747948,-712.89869,232.84971)"><stop
       offset="0"
       style="stop-color:#B2D78E"
       id="stop14" /><stop
       offset="1"
       style="stop-color:#219146"
       id="stop16" /></linearGradient><path
     style="fill:#ffffff;stroke-width:0.56125826"
     id="path134"
     d="m 17.873294,31.342178 5.588201,-5.577738 0,-13.629978 -13.6696878,13.643154 c -0.031116,0.03106 -0.060355,0.06495 -0.087698,0.09976 -0.00385,0.0046 -0.00659,0.0093 -0.010446,0.01409 -0.1065614,0.12517 -0.1904865,0.255069 -0.2574389,0.403784 l -2.2169861,5.046885 z"
     inkscape:connector-curvature="0" /><path
     style="fill:#231f20;stroke-width:1.04449427"
     id="path5-5"
     d="M 31.713193,15.268573 C 31.352552,14.543625 30.647169,14.12871 29.777856,14.12871 l -5.33011,0 0,-0.560138 c 0,-1.973155 -1.383942,-3.5774956 -3.083814,-3.5774956 l -8.984193,0 -0.117237,-0.2524073 C 11.834305,8.8062601 11.249138,7.532699 9.7578961,7.532699 l -3.0093005,0 c -1.5319756,0 -2.132046,1.29085 -2.650653,2.4076649 l -0.022846,0.049568 -0.8275795,0 c -1.6998741,0 -3.08381658,1.6054941 -3.08381658,3.5786491 l 0,14.77562 c 0,1.990444 1.38394248,3.608613 3.08381658,3.608613 l 0.3238803,0 17.7915436,0 0.669619,0 c 1.419708,0 3.026194,-1.074169 3.738533,-2.498713 l 5.824879,-11.670669 c 0.434156,-0.873628 0.476876,-1.789898 0.117222,-2.514851 z"
     inkscape:connector-curvature="0" /><path
     style="fill:#a46929;stroke-width:1.04449427"
     d="m 6.7485956,8.6852437 c -0.9676698,0 -1.3203564,0.8240673 -1.7793533,1.8106473 l -0.3069924,0.646576 -1.4147375,0 c -1.1633885,0 -2.0903214,1.075323 -2.0903214,2.426105 l 0,14.775623 c 0,1.350781 0.9269329,2.456066 2.0903214,2.456066 l 18.1154266,0 c 1.163382,0 2.090317,-1.105285 2.090317,-2.456066 l 0,-14.775623 c 0,-1.350782 -0.926935,-2.424953 -2.090317,-2.424953 l -9.572346,0 -0.306992,-0.646574 C 11.023614,9.5104643 10.722581,8.6863965 9.7569063,8.6863965 l -0.8355343,0 -1.3362548,0 -0.8365216,0 z"
     nodetypes="ccccccccccccccccc"
     id="rect5504-6"
     inkscape:connector-curvature="0" /><path
     style="fill:#faa81d;stroke-width:1.04449427"
     d="m 11.316695,15.281253 18.461161,0 c 1.059069,0 1.487269,0.862104 0.957736,1.924748 l -5.823883,11.67182 c -0.530527,1.060342 -1.819093,1.92244 -2.878161,1.92244 l -18.4611632,0 c -1.0590672,0 -1.4872659,-0.862098 -0.9567388,-1.92244 l 5.8228879,-11.67182 c 0.5295356,-1.062644 1.8190921,-1.924748 2.8781611,-1.924748 z"
     id="rect5498-4"
     inkscape:connector-curvature="0" /><path
     style="fill:url(#linearGradient2835-5);stroke-width:1.04449427"
     id="path16-7"
     d="m 3.5723848,29.64772 c -0.071527,0 -0.1281541,-0.0069 -0.1698887,-0.01616 0.014888,-0.04491 0.036783,-0.106021 0.07254,-0.175182 L 9.2979297,17.78347 c 0.3526884,-0.705358 1.3134013,-1.34963 2.0177893,-1.34963 l 18.461167,0 c 0.07153,0 0.12814,0.0082 0.170895,0.01737 -0.01489,0.04609 -0.03679,0.107187 -0.07351,0.178643 l -5.821902,11.669515 c -0.352692,0.706511 -1.315388,1.348477 -2.018786,1.348477 l -18.4611664,0 z"
     inkscape:connector-curvature="0" /><path
     inkscape:connector-curvature="0"
     style="fill:#010101"
     id="path9179"
     d="m 14.975537,11.254907 c 0,-0.15857 0.03584,-0.320396 0.108621,-0.469193 0.178111,-0.372531 0.547381,-0.610382 0.959014,-0.616899 l 2.675045,-0.05105 c 0.0315,-0.5343585 0.04779,-0.9970344 0.04779,-1.4358155 0,-3.2810895 -0.96119,-5.2371433 -3.11817,-6.3340984 -0.367097,-0.1868111 -0.591919,-0.5647715 -0.591919,-0.9677122 0,-0.061908 0.0043,-0.122724 0.0152,-0.1846354 0.08037,-0.46919346 0.458325,-0.83194868 0.927518,-0.89276974 0.114045,-0.01521 2.822755,-0.34429205 5.226281,1.68561684 1.991897,1.6801868 3.152931,4.4149709 3.457036,8.1337544 l 2.118969,0.04669 c 0.409458,0.01092 0.779815,0.248715 0.955762,0.619073 0.06951,0.148795 0.105361,0.307364 0.105361,0.467023 0,0.237853 -0.07712,0.471365 -0.225908,0.663603 l -5.357712,6.932538 c -0.205271,0.26718 -0.52241,0.422492 -0.8591,0.422492 -0.337776,0 -0.654913,-0.155312 -0.860186,-0.422492 L 15.202528,11.918513 C 15.053736,11.723015 14.975534,11.489506 14.975534,11.25491 Z" /><path
     inkscape:connector-curvature="0"
     style="opacity:0.98000004;fill:url(#path7827_1_)"
     id="path7827_6_"
     enable-background="new    "
     d="m 26.7392,11.252555 -3.11926,-0.06952 C 23.20614,0.44483581 16.104175,1.3799619 16.104175,1.3799619 c 3.913195,1.9886369 3.901247,6.1168799 3.585194,9.8030801 l -3.664479,0.06843 5.358786,6.932535 z" /><path
     inkscape:connector-curvature="0"
     style="opacity:0.98000004;fill:#06a14b"
     id="path4454_3_"
     enable-background="new    "
     d="m 17.59155,11.946057 2.831447,-0.05321 0.05863,-0.68424 c 0.09124,-1.037219 0.129244,-1.8311528 0.129244,-2.5707832 0,-1.7942268 -0.216134,-4.12607 -1.675841,-5.9952369 0.360583,0.1781196 0.732027,0.4116289 1.096954,0.7189945 1.754041,1.4803446 2.717407,4.1086919 2.861856,7.8100986 l 0.02714,0.716822 2.325326,0.05213 -3.82848,4.956931 z" /></svg>