<?xml version="1.0" encoding="utf-8"?>
<!-- Generator: Adobe Illustrator 14.0.0, SVG Export Plug-In . SVG Version: 6.00 Build 43363)  -->
<!DOCTYPE svg PUBLIC "-//W3C//DTD SVG 1.1//EN" "http://www.w3.org/Graphics/SVG/1.1/DTD/svg11.dtd">
<svg version="1.1" id="Layer_1" xmlns="http://www.w3.org/2000/svg" xmlns:xlink="http://www.w3.org/1999/xlink" x="0px" y="0px"
	 width="32px" height="32px" viewBox="0 0 32 32" enable-background="new 0 0 32 32" xml:space="preserve">
<g>
	<g>
		<path d="M5.649,26.623c-0.463,0-0.837-0.376-0.837-0.839V9.84H0.838c-0.34,0-0.646-0.204-0.775-0.517
			C-0.066,9.01,0.006,8.649,0.246,8.408l8.162-8.162C8.571,0.083,8.785,0,9,0c0.214,0,0.429,0.083,0.592,0.246l8.162,8.162
			c0.24,0.24,0.311,0.602,0.182,0.915c-0.129,0.313-0.438,0.517-0.773,0.517h-3.974v15.944c0,0.461-0.375,0.838-0.839,0.838
			L5.649,26.623L5.649,26.623z"/>
		<polygon fill="#ED2526" points="17.162,9.003 9,0.842 0.838,9.003 5.649,9.003 5.649,25.784 12.349,25.784 12.349,9.003 		"/>
		
			<linearGradient id="SVGID_1_" gradientUnits="userSpaceOnUse" x1="0.4028" y1="-101.3247" x2="12.6782" y2="-101.3247" gradientTransform="matrix(1 0 0 -1 2.46 -87.8398)">
			<stop  offset="0" style="stop-color:#F59699"/>
			<stop  offset="1" style="stop-color:#8F1A1D"/>
		</linearGradient>
		<polygon fill="url(#SVGID_1_)" points="6.489,24.943 6.489,8.164 2.863,8.164 9,2.026 15.138,8.164 11.512,8.164 11.512,24.943 		
			"/>
	</g>
</g>
<g>
	<g>
		<path d="M26.849,0.219c-0.291-0.292-0.766-0.292-1.058,0l-1.644,1.643c-0.293,0.293-0.293,0.767,0,1.059l1.115,1.115L13.397,15.9
			c-0.271-0.113-0.594-0.059-0.813,0.162l-2.649,2.649l-2.279-2.28c-0.282-0.281-0.736-0.291-1.031-0.024
			c-0.189,0.172-4.65,4.251-6.029,7.009c-0.843,1.691-0.895,6.01,0.543,7.447s5.756,1.387,7.446,0.541
			c2.756-1.373,6.864-5.805,7.039-5.993c0.271-0.294,0.261-0.749-0.022-1.033l-2.313-2.315l2.646-2.649
			c0.219-0.22,0.273-0.54,0.162-0.812L27.964,6.736l1.115,1.115c0.292,0.291,0.766,0.291,1.057,0l1.645-1.645
			c0.292-0.292,0.292-0.764,0-1.057L26.849,0.219z"/>
		
			<linearGradient id="SVGID_2_" gradientUnits="userSpaceOnUse" x1="227.1641" y1="384.0586" x2="229.4902" y2="384.0586" gradientTransform="matrix(0.7071 0.7071 -0.7071 0.7071 129.3701 -420.2729)">
			<stop  offset="0" style="stop-color:#FFF3DF"/>
			<stop  offset="0.5394" style="stop-color:#F9A61C"/>
			<stop  offset="1" style="stop-color:#A36628"/>
		</linearGradient>
		<polygon fill="url(#SVGID_2_)" points="28.294,5.35 26.647,3.706 10.21,20.145 11.854,21.789 		"/>
		
			<rect x="8.375" y="12.333" transform="matrix(-0.7071 0.7071 -0.7071 -0.7071 41.8775 8.1497)" fill="#F9A61C" width="21.753" height="0.83"/>
		
			<linearGradient id="SVGID_3_" gradientUnits="userSpaceOnUse" x1="228.3281" y1="370.6816" x2="228.3281" y2="372.9574" gradientTransform="matrix(0.7071 0.7071 -0.7071 0.7071 129.3701 -420.2729)">
			<stop  offset="0" style="stop-color:#FFF3DF"/>
			<stop  offset="0.5394" style="stop-color:#F9A61C"/>
			<stop  offset="1" style="stop-color:#A36628"/>
		</linearGradient>
		<polygon fill="url(#SVGID_3_)" points="31.201,5.729 26.271,0.798 24.625,2.443 29.556,7.374 		"/>
		
			<rect x="27.496" y="1.346" transform="matrix(-0.7071 0.7071 -0.7071 -0.7071 50.5398 -12.7624)" fill="#F9A61C" width="0.834" height="5.48"/>
		<path fill="#03AAD6" d="M8.199,30.787c-1.476,0.736-5.421,0.765-6.587-0.401c-1.165-1.165-1.137-5.11-0.399-6.586
			c1.328-2.664,5.864-6.79,5.864-6.79l2.807,2.809l3.18-3.176l2.291,2.295l-3.174,3.176l2.842,2.845
			C15.021,24.957,10.862,29.458,8.199,30.787z"/>
		
			<linearGradient id="SVGID_4_" gradientUnits="userSpaceOnUse" x1="223.8506" y1="400.0967" x2="232.8359" y2="400.0967" gradientTransform="matrix(0.7071 0.7071 -0.7071 0.7071 129.3701 -420.2729)">
			<stop  offset="0" style="stop-color:#AECFD9"/>
			<stop  offset="1" style="stop-color:#0C7C9E"/>
		</linearGradient>
		<path fill="url(#SVGID_4_)" d="M13.062,18.286l-2.355,2.354c-0.452,0.451-1.189,0.453-1.643-0.002l-2.013-2.011
			c-1.514,1.463-3.965,4.019-4.8,5.688c-0.613,1.231-0.498,4.564,0.186,5.246c0.681,0.681,4.014,0.799,5.242,0.185
			c1.678-0.836,4.243-3.271,5.719-4.772l-2.041-2.041c-0.453-0.453-0.453-1.188,0-1.644l2.354-2.354L13.062,18.286z"/>
		
			<linearGradient id="SVGID_5_" gradientUnits="userSpaceOnUse" x1="226.7031" y1="396.1797" x2="229.9502" y2="396.1797" gradientTransform="matrix(0.7071 0.7071 -0.7071 0.7071 129.3701 -420.2729)">
			<stop  offset="0" style="stop-color:#FFFFFF;stop-opacity:0"/>
			<stop  offset="0.9104" style="stop-color:#FFFFFF;stop-opacity:0.9104"/>
			<stop  offset="1" style="stop-color:#FFFFFF"/>
		</linearGradient>
		<path fill="url(#SVGID_5_)" d="M12.162,22.098c0,0-4.147,3.604-4.99,2.766c-0.688-0.688,2.765-4.991,2.765-4.991l-0.053-0.054
			l3.18-3.176l2.291,2.295l-3.174,3.176L12.162,22.098z"/>
	</g>
</g>
</svg>
