<?xml version="1.0" encoding="utf-8"?>
<!-- Generator: Adobe Illustrator 14.0.0, SVG Export Plug-In . SVG Version: 6.00 Build 43363)  -->
<!DOCTYPE svg PUBLIC "-//W3C//DTD SVG 1.1//EN" "http://www.w3.org/Graphics/SVG/1.1/DTD/svg11.dtd">
<svg version="1.1" id="Layer_1" xmlns="http://www.w3.org/2000/svg" xmlns:xlink="http://www.w3.org/1999/xlink" x="0px" y="0px"
	 width="32px" height="32px" viewBox="0 0 32 32" enable-background="new 0 0 32 32" xml:space="preserve">
<g>
	<path fill="#010101" d="M16,32C7.178,32,0,24.822,0,16S7.178,0,16,0c8.821,0,16,7.178,16,16S24.821,32,16,32L16,32z"/>
	<circle fill="#F9A720" cx="16" cy="16" r="15"/>
	<radialGradient id="SVGID_1_" cx="12.875" cy="10.25" r="17.9431" gradientUnits="userSpaceOnUse">
		<stop  offset="0" style="stop-color:#FFFFFF"/>
		<stop  offset="0.5394" style="stop-color:#F9F9FA"/>
		<stop  offset="1" style="stop-color:#A3A3A2"/>
	</radialGradient>
	<path fill="url(#SVGID_1_)" d="M16,28C9.383,28,4,22.617,4,16C4,9.384,9.383,4,16,4c6.616,0,12,5.384,12,12
		C28,22.617,22.616,28,16,28L16,28z"/>
	<path opacity="0.49" fill="#ED2A28" d="M20.954,21.063l5.568,5.619C29.283,23.961,31,20.182,31,16c0-8.284-6.716-15-15-15v7.563
		C22.624,8.25,25.999,17.25,20.954,21.063z"/>
	<rect x="15.027" y="6.75" fill="#010101" width="1.944" height="9.25"/>
	
		<rect x="18.616" y="14.125" transform="matrix(0.7071 -0.7071 0.7071 0.7071 -8.1241 19.5927)" fill="#010101" width="1.945" height="10.956"/>
	<circle fill="#010101" cx="16" cy="16" r="1.759"/>
</g>
</svg>
