<?xml version="1.0" encoding="utf-8"?>
<!-- Generator: Adobe Illustrator 15.0.0, SVG Export Plug-In . SVG Version: 6.00 Build 0)  -->
<!DOCTYPE svg PUBLIC "-//W3C//DTD SVG 1.1//EN" "http://www.w3.org/Graphics/SVG/1.1/DTD/svg11.dtd">
<svg version="1.1"
	 id="Layer_1" xmlns:dc="http://purl.org/dc/elements/1.1/" xmlns:cc="http://web.resource.org/cc/" xmlns:rdf="http://www.w3.org/1999/02/22-rdf-syntax-ns#" xmlns:svg="http://www.w3.org/2000/svg" xmlns:sodipodi="http://inkscape.sourceforge.net/DTD/sodipodi-0.dtd" xmlns:inkscape="http://www.inkscape.org/namespaces/inkscape" sodipodi:version="0.32" inkscape:version="0.43" sodipodi:docname="dependencies2.svg" sodipodi:docbase="J:\radix\dev\trunk\org.radixware\kernel\designer\src\common.resources\src\org\radixware\kernel\designer\resources\icons\tree"
	 xmlns="http://www.w3.org/2000/svg" xmlns:xlink="http://www.w3.org/1999/xlink" x="0px" y="0px" width="32px" height="32px"
	 viewBox="-1.2 -1.2 32 32" enable-background="new -1.2 -1.2 32 32" xml:space="preserve">
<sodipodi:namedview  id="base" inkscape:cy="29.245916" inkscape:cx="-12.462078" inkscape:zoom="2.5" borderopacity="1.0" bordercolor="#666666" pagecolor="#ffffff" inkscape:window-y="81" inkscape:window-x="81" inkscape:window-height="543" inkscape:window-width="802" inkscape:pageshadow="2" inkscape:pageopacity="0.0" inkscape:current-layer="Layer_1">
	</sodipodi:namedview>
<g>
	<g>
		<path id="path6086_3_" fill="#211F1F" d="M23.772,30.8c-0.097,0-0.193-0.018-0.284-0.05l-6.179-2.193
			c-0.337-0.12-0.563-0.439-0.563-0.797v-8.001c0-0.433,0.328-0.79,0.748-0.837l5.996-2.129c0.091-0.03,0.186-0.048,0.283-0.048
			c0.097,0,0.192,0.019,0.282,0.049l6.068,2.153c0.373,0.099,0.677,0.426,0.677,0.813v8c0,0.359-0.225,0.679-0.562,0.797
			l-6.183,2.193C23.963,30.782,23.867,30.8,23.772,30.8L23.772,30.8z"/>
		<polygon id="polygon5202_8_" fill="#AA3D25" points="17.599,19.759 23.781,21.951 23.781,29.954 17.599,27.76 		"/>
		<polygon id="polygon5204_8_" fill="#E9B6AE" points="29.959,19.759 23.781,21.951 23.781,29.954 29.959,27.76 		"/>
		<polygon id="polygon5206_8_" fill="#DF8078" points="29.897,19.759 23.781,17.591 17.663,19.759 17.599,19.759 17.628,19.772 
			17.599,19.783 17.663,19.783 23.781,21.951 29.897,19.783 29.959,19.783 29.93,19.772 29.959,19.759 		"/>
		
			<linearGradient id="polygon6538_1_" gradientUnits="userSpaceOnUse" x1="1594.1897" y1="-2163.4045" x2="1601.6246" y2="-2156.0381" gradientTransform="matrix(0.5772 0 0 -0.5772 -902.8226 -1220.5812)">
			<stop  offset="0" style="stop-color:#3A1813"/>
			<stop  offset="1" style="stop-color:#AA3D25;stop-opacity:0"/>
		</linearGradient>
		<polygon id="polygon6538_6_" fill="url(#polygon6538_1_)" points="17.834,20.087 23.563,22.12 23.563,29.536 17.834,27.503 		"/>
		
			<linearGradient id="polygon6548_1_" gradientUnits="userSpaceOnUse" x1="1678.2327" y1="-2253.1736" x2="1669.7832" y2="-2244.0767" gradientTransform="matrix(0.5627 0 0 -0.5627 -913.9846 -1239.1487)">
			<stop  offset="0" style="stop-color:#FDF0EC"/>
			<stop  offset="1" style="stop-color:#E9B6AE;stop-opacity:0"/>
		</linearGradient>
		<polygon id="polygon6548_6_" fill="url(#polygon6548_1_)" points="29.546,20.227 23.958,22.206 23.958,29.436 29.546,27.454 		"/>
		
			<linearGradient id="path6572_1_" gradientUnits="userSpaceOnUse" x1="-3921.2224" y1="3448.8899" x2="-3930.842" y2="3448.9143" gradientTransform="matrix(0 -0.6226 0.6226 0 -2123.5603 -2418.8394)">
			<stop  offset="0" style="stop-color:#FFFFFF"/>
			<stop  offset="1" style="stop-color:#FFFFFF;stop-opacity:0"/>
		</linearGradient>
		<path id="path6572_8_" fill="url(#path6572_1_)" d="M23.365,21.865l0.335,7.938h-0.007l0.376-8.049L23.365,21.865L23.365,21.865z"
			/>
		
			<linearGradient id="path6582_1_" gradientUnits="userSpaceOnUse" x1="-1745.7068" y1="-2451.6726" x2="-1753.9017" y2="-2451.6687" gradientTransform="matrix(-0.5857 0.2112 -0.2112 -0.5857 -1516.1396 -1045.4052)">
			<stop  offset="0" style="stop-color:#FFFFFF"/>
			<stop  offset="1" style="stop-color:#FFFFFF;stop-opacity:0"/>
		</linearGradient>
		<path id="path6582_10_" fill="url(#path6582_1_)" d="M23.801,22.332l6.161-2.573l-6.505,1.95L23.801,22.332z"/>
		
			<linearGradient id="path6586_1_" gradientUnits="userSpaceOnUse" x1="2367.2258" y1="-968.5193" x2="2359.3398" y2="-968.5122" gradientTransform="matrix(0.5857 0.2112 0.2112 -0.5857 -1158.728 -1045.4354)">
			<stop  offset="0" style="stop-color:#FFFFFF"/>
			<stop  offset="1" style="stop-color:#FFFFFF;stop-opacity:0"/>
		</linearGradient>
		<path id="path6586_8_" fill="url(#path6586_1_)" d="M23.609,22.302L17.6,19.759l6.354,1.925L23.609,22.302z"/>
	</g>
	<polyline id="polyline25" fill="none" stroke="#231F20" points="15.805,25.408 7.088,25.408 7.088,12.881 	"/>
	<polygon id="polygon31" fill="#231F20" points="13.749,25.243 12.717,22.964 17.092,25.243 12.766,27.574 	"/>
	<polyline id="polyline25_1_" fill="none" stroke="#231F20" points="7.265,15.119 7.265,4.113 15.792,4.113 	"/>
	<polygon id="polygon31_1_" fill="#231F20" points="12.766,1.807 17.092,4.138 12.717,6.418 13.75,4.138 	"/>
	<g>
		<line fill="none" x1="7.265" y1="18.418" x2="7.265" y2="8.516"/>
		<path fill="#211F1F" d="M7.255,21.827c-0.143,0-0.286-0.04-0.41-0.122c-0.209-0.138-0.335-0.371-0.335-0.619V8.516
			c0-0.315,0.202-0.597,0.499-0.702c0.079-0.027,0.164-0.041,0.246-0.041c0.221,0,0.437,0.099,0.58,0.281l7.426,9.358
			c0.145,0.182,0.196,0.417,0.138,0.643c-0.055,0.223-0.213,0.411-0.426,0.502l-7.424,3.209C7.453,21.807,7.354,21.827,7.255,21.827
			L7.255,21.827z"/>
		<path fill="#211F1F" d="M7.265,21.827c-0.099,0-0.199-0.021-0.295-0.061l-7.722-3.344c-0.216-0.094-0.373-0.28-0.428-0.509
			c-0.053-0.229,0.002-0.471,0.153-0.648l7.725-9.227c0.144-0.174,0.354-0.267,0.57-0.267c0.084,0,0.171,0.015,0.254,0.045
			c0.295,0.106,0.491,0.385,0.491,0.698v12.57c0,0.25-0.126,0.484-0.336,0.619C7.551,21.787,7.408,21.827,7.265,21.827L7.265,21.827
			z"/>
		<polygon fill="#03AAD6" points="7.265,8.516 -0.458,17.742 7.265,21.086 		"/>
		
			<linearGradient id="SVGID_1_" gradientUnits="userSpaceOnUse" x1="287.0657" y1="1107.7717" x2="280.4319" y2="1107.7632" gradientTransform="matrix(1 0 0 1 -279.0801 -1092.6797)">
			<stop  offset="0" style="stop-color:#AECFD9;stop-opacity:0"/>
			<stop  offset="1" style="stop-color:#0E7C9C"/>
		</linearGradient>
		<polygon fill="url(#SVGID_1_)" points="0.185,17.616 6.816,9.694 6.816,20.488 		"/>
		<polygon fill="#03AAD6" points="7.255,8.516 14.68,17.873 7.255,21.086 		"/>
		
			<linearGradient id="SVGID_2_" gradientUnits="userSpaceOnUse" x1="292.7473" y1="1107.6907" x2="284.3946" y2="1107.8398" gradientTransform="matrix(1 0 0 1 -279.0801 -1092.6797)">
			<stop  offset="0" style="stop-color:#AECFD9"/>
			<stop  offset="1" style="stop-color:#0E7C9C;stop-opacity:0"/>
		</linearGradient>
		<polygon fill="url(#SVGID_2_)" points="7.702,9.747 14.046,17.744 7.702,20.488 		"/>
		
			<linearGradient id="path6582_2_" gradientUnits="userSpaceOnUse" x1="167.8723" y1="-1174.3528" x2="153.5701" y2="-1174.3459" gradientTransform="matrix(0.2112 0.5857 -0.5857 0.2112 -714.4012 169.1558)">
			<stop  offset="0" style="stop-color:#FFFFFF"/>
			<stop  offset="1" style="stop-color:#FFFFFF;stop-opacity:0"/>
		</linearGradient>
		<path id="path6582_9_" fill="url(#path6582_2_)" d="M7.503,21.008L7.265,8.516L7.088,21.008H7.503z"/>
	</g>
	<g>
		<circle fill="#211F1F" cx="23.773" cy="5.827" r="7.027"/>
		
			<radialGradient id="SVGID_3_" cx="304.3879" cy="1095.9817" r="7.3396" gradientTransform="matrix(1 0 0 1 -279.0801 -1092.6797)" gradientUnits="userSpaceOnUse">
			<stop  offset="0.0061" style="stop-color:#FFF3E2"/>
			<stop  offset="0.5394" style="stop-color:#FAA81C"/>
			<stop  offset="1" style="stop-color:#A26929"/>
		</radialGradient>
		<path fill="url(#SVGID_3_)" d="M23.773,11.976c-3.391,0-6.148-2.759-6.148-6.149c0-3.39,2.758-6.148,6.148-6.148
			c3.39,0,6.149,2.758,6.149,6.148C29.922,9.217,27.162,11.976,23.773,11.976L23.773,11.976z"/>
	</g>
</g>
</svg>
