<?xml version="1.0" encoding="utf-8"?>
<!-- Generator: Adobe Illustrator 15.0.0, SVG Export Plug-In . SVG Version: 6.00 Build 0)  -->
<!DOCTYPE svg PUBLIC "-//W3C//DTD SVG 1.1//EN" "http://www.w3.org/Graphics/SVG/1.1/DTD/svg11.dtd">
<svg version="1.1"
	 id="svg2" xmlns:dc="http://purl.org/dc/elements/1.1/" xmlns:cc="http://web.resource.org/cc/" xmlns:rdf="http://www.w3.org/1999/02/22-rdf-syntax-ns#" xmlns:svg="http://www.w3.org/2000/svg" xmlns:sodipodi="http://sodipodi.sourceforge.net/DTD/sodipodi-0.dtd" xmlns:inkscape="http://www.inkscape.org/namespaces/inkscape" inkscape:output_extension="org.inkscape.output.svg.inkscape" sodipodi:version="0.32" inkscape:version="0.45.1" sodipodi:docname="forbidden.svg" sodipodi:docbase="C:\Radix\dev\trunk\org.radixware\kernel\designer\src\common.resources\src\org\radixware\kernel\designer\resources\icons\tree"
	 xmlns="http://www.w3.org/2000/svg" xmlns:xlink="http://www.w3.org/1999/xlink" x="0px" y="0px" width="32px" height="32px"
	 viewBox="-6 -6 32 32" enable-background="new -6 -6 32 32" xml:space="preserve">
<sodipodi:namedview  id="base" inkscape:cy="7.5600256" inkscape:cx="18.1588" inkscape:zoom="22.627417" showgrid="true" borderopacity="1.0" bordercolor="#000000" pagecolor="#ffffff" inkscape:window-y="29" inkscape:window-x="568" inkscape:window-height="739" inkscape:window-width="1072" inkscape:pageshadow="2" inkscape:pageopacity="0.0" inkscape:current-layer="layer1" inkscape:document-units="px">
	</sodipodi:namedview>
<g>
	<rect x="-1.516" y="1.965" width="1.626" height="24"/>
	<line fill="none" stroke="#000000" x1="-0.702" y1="8.715" x2="17.173" y2="8.715"/>
	<line fill="none" stroke="#000000" x1="-0.702" y1="20.932" x2="18.89" y2="20.932"/>
	<g>
		<path id="path175_19_" fill="#020202" d="M13.579,13.965c-2.893,0-5.25-2.355-5.25-5.25s2.357-5.25,5.25-5.25
			c2.895,0,5.25,2.355,5.25,5.25S16.474,13.965,13.579,13.965L13.579,13.965z"/>
		<circle id="circle177_19_" fill="#FAA91E" cx="13.579" cy="8.715" r="4.5"/>
		
			<linearGradient id="path186_1_" gradientUnits="userSpaceOnUse" x1="570.4512" y1="-919.2344" x2="577.9492" y2="-919.2344" gradientTransform="matrix(1 0 0 -1 -560.6201 -910.5195)">
			<stop  offset="0" style="stop-color:#A4672A"/>
			<stop  offset="0.5394" style="stop-color:#FAA91E"/>
			<stop  offset="1" style="stop-color:#FFF3E2"/>
		</linearGradient>
		<path id="path186_19_" fill="url(#path186_1_)" d="M13.579,12.465c-2.067,0-3.748-1.683-3.748-3.75c0-2.068,1.681-3.75,3.748-3.75
			c2.068,0,3.75,1.682,3.75,3.75C17.329,10.782,15.647,12.465,13.579,12.465L13.579,12.465z"/>
	</g>
	<g>
		<path id="path175_18_" fill="#020202" d="M13.578,26.182c-2.893,0-5.25-2.357-5.25-5.25c0-2.895,2.357-5.25,5.25-5.25
			c2.895,0,5.25,2.355,5.25,5.25C18.828,23.824,16.473,26.182,13.578,26.182L13.578,26.182z"/>
		<circle id="circle177_18_" fill="#FAA91E" cx="13.578" cy="20.932" r="4.5"/>
		
			<linearGradient id="path186_2_" gradientUnits="userSpaceOnUse" x1="570.4502" y1="-931.4512" x2="577.9482" y2="-931.4512" gradientTransform="matrix(1 0 0 -1 -560.6201 -910.5195)">
			<stop  offset="0" style="stop-color:#A4672A"/>
			<stop  offset="0.5394" style="stop-color:#FAA91E"/>
			<stop  offset="1" style="stop-color:#FFF3E2"/>
		</linearGradient>
		<path id="path186_18_" fill="url(#path186_2_)" d="M13.578,24.682c-2.067,0-3.748-1.684-3.748-3.75c0-2.068,1.681-3.75,3.748-3.75
			c2.068,0,3.75,1.682,3.75,3.75C17.328,22.998,15.646,24.682,13.578,24.682L13.578,24.682z"/>
	</g>
	<g>
		<path id="path5_7_" fill="#231F20" d="M9.878-2.645C9.696-2.959,9.342-3.139,8.904-3.139H6.222v-0.243
			c0-0.855-0.696-1.552-1.552-1.552H0.148l-0.06-0.109C-0.127-5.447-0.421-6-1.172-6h-1.514C-3.457-6-3.759-5.44-4.02-4.955
			l-0.012,0.021h-0.417C-5.304-4.934-6-4.237-6-3.382v6.41c0,0.863,0.696,1.565,1.552,1.565h0.163h8.954h0.337
			c0.715,0,1.523-0.466,1.882-1.084l2.932-5.063C10.037-1.932,10.059-2.33,9.878-2.645z"/>
		<path id="rect5504_5_" fill="#A36A29" d="M-2.686-5.5c-0.487,0-0.665,0.357-0.896,0.785l-0.154,0.281h-0.712
			c-0.585,0-1.052,0.466-1.052,1.052v6.41c0,0.586,0.467,1.065,1.052,1.065h9.117c0.585,0,1.052-0.479,1.052-1.065v-6.41
			c0-0.586-0.467-1.052-1.052-1.052h-4.817l-0.154-0.28C-0.534-5.143-0.686-5.5-1.172-5.5h-0.421h-0.672H-2.686L-2.686-5.5z"/>
		<path id="rect5498_5_" fill="#FAA81C" d="M-0.387-2.639h9.291c0.533,0,0.748,0.374,0.481,0.835L6.455,3.26
			C6.188,3.72,5.539,4.094,5.007,4.094h-9.291c-0.533,0-0.749-0.374-0.481-0.834l2.93-5.063C-1.569-2.265-0.92-2.639-0.387-2.639z"
			/>
		
			<linearGradient id="path16_1_" gradientUnits="userSpaceOnUse" x1="-6.8301" y1="-101.5674" x2="6.5293" y2="-101.5674" gradientTransform="matrix(1 0 0 -1 2.46 -100.8398)">
			<stop  offset="0" style="stop-color:#A46929"/>
			<stop  offset="0.5394" style="stop-color:#FAA81C"/>
			<stop  offset="1" style="stop-color:#FFF3E2"/>
		</linearGradient>
		<path id="path16_2_" fill="url(#path16_1_)" d="M-4.284,3.594c-0.036,0-0.065-0.003-0.086-0.007
			c0.008-0.02,0.019-0.046,0.036-0.076l2.931-5.063c0.178-0.307,0.661-0.586,1.016-0.586h9.291c0.036,0,0.064,0.004,0.086,0.008
			c-0.007,0.02-0.019,0.046-0.037,0.077l-2.93,5.063C5.845,3.315,5.36,3.594,5.007,3.594H-4.284z"/>
	</g>
</g>
<g>
	<path d="M16.842,10.448c-0.466,0-0.842-0.377-0.842-0.842V7.823c0-0.466,0.376-0.842,0.842-0.842h8.315
		C25.623,6.981,26,7.357,26,7.823v1.783c0,0.465-0.377,0.842-0.843,0.842H16.842z"/>
	<polygon fill="#ED2526" points="25.157,7.823 21.887,7.823 20.104,7.823 16.842,7.823 16.842,9.606 20.104,9.606 21.887,9.606 
		25.157,9.606 	"/>
</g>
<g>
	<path d="M16.842,22.665c-0.466,0-0.842-0.377-0.842-0.842V20.04c0-0.466,0.376-0.842,0.842-0.842h8.315
		c0.466,0,0.843,0.376,0.843,0.842v1.783c0,0.465-0.377,0.842-0.843,0.842H16.842z"/>
	<polygon fill="#ED2526" points="25.157,20.04 21.887,20.04 20.104,20.04 16.842,20.04 16.842,21.823 20.104,21.823 21.887,21.823 
		25.157,21.823 	"/>
</g>
</svg>
