<?xml version="1.0" encoding="utf-8"?>
<!-- Generator: Adobe Illustrator 15.0.0, SVG Export Plug-In . SVG Version: 6.00 Build 0)  -->
<!DOCTYPE svg PUBLIC "-//W3C//DTD SVG 1.1//EN" "http://www.w3.org/Graphics/SVG/1.1/DTD/svg11.dtd">
<svg version="1.1"
	 id="svg2160" xmlns:ns="http://creativecommons.org/ns#" xmlns:dc="http://purl.org/dc/elements/1.1/" xmlns:cc="http://web.resource.org/cc/" xmlns:rdf="http://www.w3.org/1999/02/22-rdf-syntax-ns#" xmlns:svg="http://www.w3.org/2000/svg" xmlns:sodipodi="http://sodipodi.sourceforge.net/DTD/sodipodi-0.dtd" xmlns:inkscape="http://www.inkscape.org/namespaces/inkscape" inkscape:output_extension="org.inkscape.output.svg.inkscape" sodipodi:version="0.32" inkscape:version="0.45.1" sodipodi:docname="select_in_tree.svg" sodipodi:docbase="C:\Radix\dev\trunk\org.radixware\kernel\designer\src\common.resources\src\org\radixware\kernel\designer\resources\icons\tree"
	 xmlns="http://www.w3.org/2000/svg" xmlns:xlink="http://www.w3.org/1999/xlink" x="0px" y="0px" width="32px" height="32px"
	 viewBox="0 0 32 32" enable-background="new 0 0 32 32" xml:space="preserve">
<sodipodi:namedview  id="base" inkscape:cy="12.929952" inkscape:cx="13.220251" inkscape:zoom="18.23982" showgrid="true" borderopacity="1.0" bordercolor="#666666" pagecolor="#ffffff" inkscape:window-y="-8" inkscape:window-x="-8" inkscape:window-height="944" inkscape:window-width="1280" inkscape:pageshadow="2" inkscape:pageopacity="0.0" inkscape:current-layer="layer1" showguides="true" inkscape:guide-bbox="true" inkscape:document-units="px" inkscape:grid-bbox="true">
	</sodipodi:namedview>
<g>
	<rect x="4.484" y="7.965" width="1.626" height="24"/>
	<line fill="none" stroke="#000000" x1="5.298" y1="14.715" x2="23.173" y2="14.715"/>
	<line fill="none" stroke="#000000" x1="5.298" y1="26.932" x2="24.89" y2="26.932"/>
	<g>
		<path id="path175_19_" fill="#020202" d="M19.579,19.965c-2.893,0-5.25-2.355-5.25-5.25s2.357-5.25,5.25-5.25
			c2.895,0,5.25,2.355,5.25,5.25S22.474,19.965,19.579,19.965L19.579,19.965z"/>
		<circle id="circle177_19_" fill="#6EBD46" cx="19.579" cy="14.715" r="4.5"/>
		<linearGradient id="path186_1_" gradientUnits="userSpaceOnUse" x1="23.625" y1="14.7144" x2="16.1265" y2="14.7144">
			<stop  offset="0" style="stop-color:#B0D68C"/>
			<stop  offset="1" style="stop-color:#1E9046"/>
		</linearGradient>
		<path id="path186_19_" fill="url(#path186_1_)" d="M19.579,18.465c-2.067,0-3.748-1.683-3.748-3.75c0-2.068,1.681-3.75,3.748-3.75
			c2.068,0,3.75,1.682,3.75,3.75C23.329,16.782,21.647,18.465,19.579,18.465L19.579,18.465z"/>
	</g>
	<g>
		<path id="path175_18_" fill="#020202" d="M19.578,32.182c-2.893,0-5.25-2.357-5.25-5.25c0-2.895,2.357-5.25,5.25-5.25
			c2.895,0,5.25,2.355,5.25,5.25C24.828,29.824,22.473,32.182,19.578,32.182L19.578,32.182z"/>
		<circle id="circle177_18_" fill="#FAA91E" cx="19.578" cy="26.932" r="4.5"/>
		
			<linearGradient id="path186_2_" gradientUnits="userSpaceOnUse" x1="576.4502" y1="-925.4512" x2="583.9482" y2="-925.4512" gradientTransform="matrix(1 0 0 -1 -560.6201 -898.5195)">
			<stop  offset="0" style="stop-color:#A4672A"/>
			<stop  offset="0.5394" style="stop-color:#FAA91E"/>
			<stop  offset="1" style="stop-color:#FFF3E2"/>
		</linearGradient>
		<path id="path186_18_" fill="url(#path186_2_)" d="M19.578,30.682c-2.067,0-3.748-1.684-3.748-3.75c0-2.068,1.681-3.75,3.748-3.75
			c2.068,0,3.75,1.682,3.75,3.75C23.328,28.998,21.646,30.682,19.578,30.682L19.578,30.682z"/>
	</g>
	<g>
		<path id="path5_7_" fill="#231F20" d="M15.878,3.355c-0.182-0.314-0.536-0.494-0.974-0.494h-2.683V2.618
			c0-0.855-0.696-1.552-1.552-1.552H6.148l-0.06-0.109C5.873,0.553,5.579,0,4.828,0H3.314C2.543,0,2.241,0.56,1.98,1.045
			L1.969,1.066H1.552C0.696,1.066,0,1.763,0,2.618v6.41c0,0.863,0.696,1.565,1.552,1.565h0.163h8.954h0.337
			c0.715,0,1.523-0.466,1.882-1.084l2.932-5.063C16.037,4.068,16.059,3.67,15.878,3.355z"/>
		<path id="rect5504_5_" fill="#A36A29" d="M3.314,0.5c-0.487,0-0.665,0.357-0.896,0.785L2.264,1.566H1.552
			C0.967,1.566,0.5,2.032,0.5,2.618v6.41c0,0.586,0.467,1.065,1.052,1.065h9.117c0.585,0,1.052-0.479,1.052-1.065v-6.41
			c0-0.586-0.467-1.052-1.052-1.052H5.852l-0.154-0.28C5.466,0.857,5.314,0.5,4.828,0.5H4.407H3.735H3.314L3.314,0.5z"/>
		<path id="rect5498_5_" fill="#FAA81C" d="M5.613,3.361h9.291c0.533,0,0.748,0.374,0.481,0.835L12.455,9.26
			c-0.268,0.46-0.916,0.834-1.448,0.834H1.716c-0.533,0-0.749-0.374-0.481-0.834l2.93-5.063C4.431,3.735,5.08,3.361,5.613,3.361z"/>
		
			<linearGradient id="path16_1_" gradientUnits="userSpaceOnUse" x1="-0.8301" y1="-95.5674" x2="12.5293" y2="-95.5674" gradientTransform="matrix(1 0 0 -1 2.46 -88.8398)">
			<stop  offset="0" style="stop-color:#A46929"/>
			<stop  offset="0.5394" style="stop-color:#FAA81C"/>
			<stop  offset="1" style="stop-color:#FFF3E2"/>
		</linearGradient>
		<path id="path16_2_" fill="url(#path16_1_)" d="M1.716,9.594c-0.036,0-0.065-0.003-0.086-0.007
			c0.008-0.02,0.019-0.046,0.036-0.076l2.931-5.063c0.178-0.307,0.661-0.586,1.016-0.586h9.291c0.036,0,0.064,0.004,0.086,0.008
			c-0.007,0.02-0.019,0.046-0.037,0.077l-2.93,5.063c-0.178,0.307-0.662,0.585-1.016,0.585H1.716z"/>
	</g>
</g>
<path opacity="0.6" fill="#FFFFFF" d="M24.89,26.432h-0.112c-0.256-2.657-2.476-4.75-5.199-4.75c-2.722,0-4.943,2.093-5.199,4.75
	H6.11V10.594h4.559h0.337c0.715,0,1.523-0.466,1.882-1.084l2.932-5.063c0.218-0.379,0.239-0.777,0.059-1.092
	c-0.182-0.314-0.536-0.494-0.974-0.494h-2.683V2.618c0-0.855-0.696-1.552-1.552-1.552H6.148l-0.06-0.109
	C5.873,0.553,5.579,0,4.828,0H3.314C2.543,0,2.241,0.56,1.98,1.045L1.969,1.066H1.552C0.696,1.066,0,1.763,0,2.618v6.41
	c0,0.863,0.696,1.565,1.552,1.565h0.163h2.77v21.371H6.11v-4.533h8.269c0.256,2.656,2.478,4.75,5.199,4.75
	c2.724,0,4.943-2.094,5.199-4.75h0.112V26.432z"/>
<path fill="#FFFFFF" d="M24.745,15.546l-1.959-1.182c-0.377-0.228-0.808-0.348-1.247-0.348c-0.526,0-1.047,0.177-1.446,0.485
	c-0.8,0.596-1.144,1.605-0.876,2.573l0.79,2.847C22.42,19.723,24.366,17.904,24.745,15.546z"/>
<path fill="#FFFFFF" d="M20.522,21.777l1.482,5.337c0.289,1.027,1.235,1.752,2.325,1.763c0.04,0,0.078-0.009,0.118-0.012
	c0.239-0.6,0.38-1.25,0.38-1.934C24.828,24.36,22.967,22.225,20.522,21.777z"/>
<g>
	<g>
		<path d="M28.318,28.455c-0.239-0.033-0.455-0.159-0.601-0.354l-2.099-2.762l-0.416,1.387c-0.115,0.387-0.472,0.65-0.873,0.65
			c-0.004,0-0.008,0-0.01,0c-0.406-0.004-0.761-0.276-0.871-0.669l-2.787-10.034c-0.1-0.36,0.027-0.746,0.327-0.97
			c0.161-0.125,0.355-0.188,0.55-0.188c0.164,0,0.326,0.044,0.472,0.132l8.92,5.378c0.348,0.211,0.515,0.624,0.409,1.018
			c-0.104,0.393-0.456,0.669-0.863,0.676L29.03,22.75l2.097,2.762c0.306,0.401,0.228,0.973-0.173,1.277l-1.959,1.487
			c-0.159,0.121-0.353,0.188-0.551,0.188C28.444,28.464,28.361,28.461,28.318,28.455z"/>
		<polygon fill="#FFFFFF" points="30.461,21.809 21.539,16.429 24.33,26.464 25.259,23.358 28.444,27.551 30.403,26.063 
			27.218,21.871 		"/>
	</g>
</g>
</svg>
