<?xml version="1.0" encoding="utf-8"?>
<!-- Generator: Adobe Illustrator 15.0.0, SVG Export Plug-In . SVG Version: 6.00 Build 0)  -->
<!DOCTYPE svg PUBLIC "-//W3C//DTD SVG 1.1//EN" "http://www.w3.org/Graphics/SVG/1.1/DTD/svg11.dtd">
<svg version="1.1"
	 id="svg2160" xmlns:ns="http://creativecommons.org/ns#" xmlns:dc="http://purl.org/dc/elements/1.1/" xmlns:cc="http://web.resource.org/cc/" xmlns:rdf="http://www.w3.org/1999/02/22-rdf-syntax-ns#" xmlns:svg="http://www.w3.org/2000/svg" xmlns:sodipodi="http://inkscape.sourceforge.net/DTD/sodipodi-0.dtd" xmlns:inkscape="http://www.inkscape.org/namespaces/inkscape" sodipodi:version="0.32" inkscape:version="0.43" sodipodi:docname="undependencies.svg" sodipodi:docbase="J:\radix\dev\trunk\org.radixware\kernel\designer\src\common.resources\src\org\radixware\kernel\designer\resources\icons\tree"
	 xmlns="http://www.w3.org/2000/svg" xmlns:xlink="http://www.w3.org/1999/xlink" x="0px" y="0px" width="29.6px" height="29.6px"
	 viewBox="0 0 29.6 29.6" enable-background="new 0 0 29.6 29.6" xml:space="preserve">
<sodipodi:namedview  id="base" inkscape:cy="2.0105213" inkscape:cx="49.961349" inkscape:zoom="9.899495" showgrid="true" borderopacity="1.0" bordercolor="#666666" pagecolor="#ffffff" inkscape:window-y="202" inkscape:window-x="166" inkscape:window-height="944" inkscape:window-width="1280" inkscape:pageshadow="2" inkscape:pageopacity="0.0" inkscape:current-layer="layer1" inkscape:document-units="px" inkscape:grid-bbox="true">
	</sodipodi:namedview>
<g>
	<g>
		<path id="path6086_3_" fill="#211F1F" d="M22.572,14.055c-0.098,0-0.193-0.018-0.283-0.05l-6.18-2.193
			c-0.336-0.119-0.563-0.438-0.563-0.797V3.014c0-0.433,0.328-0.79,0.748-0.837l5.996-2.129C22.38,0.019,22.476,0,22.573,0
			c0.096,0,0.191,0.019,0.281,0.049l6.067,2.153C29.295,2.301,29.6,2.628,29.6,3.015v8c0,0.359-0.225,0.68-0.563,0.797l-6.183,2.193
			C22.763,14.037,22.667,14.055,22.572,14.055L22.572,14.055z"/>
		<polygon id="polygon5202_8_" fill="#AA3D25" points="16.4,3.014 22.581,5.206 22.581,13.209 16.4,11.015 		"/>
		<polygon id="polygon5204_8_" fill="#E9B6AE" points="28.758,3.014 22.581,5.206 22.581,13.209 28.758,11.015 		"/>
		<polygon id="polygon5206_8_" fill="#DF8078" points="28.696,3.014 22.581,0.846 16.462,3.014 16.4,3.014 16.427,3.027 16.4,3.038 
			16.462,3.038 22.581,5.206 28.696,3.038 28.758,3.038 28.729,3.027 28.758,3.014 		"/>
		
			<linearGradient id="polygon6538_1_" gradientUnits="userSpaceOnUse" x1="1799.2229" y1="3274.137" x2="1806.6575" y2="3266.7708" gradientTransform="matrix(0.5772 0 0 0.5772 -1022.3685 -1878.4412)">
			<stop  offset="0" style="stop-color:#3A1813"/>
			<stop  offset="1" style="stop-color:#AA3D25;stop-opacity:0"/>
		</linearGradient>
		<polygon id="polygon6538_6_" fill="url(#polygon6538_1_)" points="16.634,3.342 22.363,5.375 22.363,12.791 16.634,10.758 		"/>
		
			<linearGradient id="polygon6548_1_" gradientUnits="userSpaceOnUse" x1="1895.8352" y1="3381.3127" x2="1887.3845" y2="3372.2146" gradientTransform="matrix(0.5627 0 0 0.5627 -1037.6296 -1890.697)">
			<stop  offset="0" style="stop-color:#FDF0EC"/>
			<stop  offset="1" style="stop-color:#E9B6AE;stop-opacity:0"/>
		</linearGradient>
		<polygon id="polygon6548_6_" fill="url(#polygon6548_1_)" points="28.346,3.482 22.757,5.461 22.757,12.691 28.346,10.709 		"/>
		
			<linearGradient id="path6572_1_" gradientUnits="userSpaceOnUse" x1="-4830.1035" y1="-3465.7581" x2="-4839.7231" y2="-3465.7825" gradientTransform="matrix(0 -0.6226 -0.6226 0 -2135.2625 -3001.4539)">
			<stop  offset="0" style="stop-color:#FFFFFF"/>
			<stop  offset="1" style="stop-color:#FFFFFF;stop-opacity:0"/>
		</linearGradient>
		<path id="path6572_8_" fill="url(#path6572_1_)" d="M22.165,5.12l0.334,7.938h-0.006l0.375-8.049L22.165,5.12L22.165,5.12z"/>
		
			<linearGradient id="path6582_1_" gradientUnits="userSpaceOnUse" x1="-2241.3513" y1="3629.3899" x2="-2249.5461" y2="3629.386" gradientTransform="matrix(-0.5857 0.2112 0.2112 0.5857 -2056.3721 -1647.2593)">
			<stop  offset="0" style="stop-color:#FFFFFF"/>
			<stop  offset="1" style="stop-color:#FFFFFF;stop-opacity:0"/>
		</linearGradient>
		<path id="path6582_10_" fill="url(#path6582_1_)" d="M22.601,5.587l6.161-2.573l-6.505,1.95L22.601,5.587z"/>
		
			<linearGradient id="path6586_1_" gradientUnits="userSpaceOnUse" x1="2722.2756" y1="1839.4807" x2="2714.3904" y2="1839.4736" gradientTransform="matrix(0.5857 0.2112 -0.2112 0.5857 -1183.9352 -1647.2896)">
			<stop  offset="0" style="stop-color:#FFFFFF"/>
			<stop  offset="1" style="stop-color:#FFFFFF;stop-opacity:0"/>
		</linearGradient>
		<path id="path6586_8_" fill="url(#path6586_1_)" d="M22.409,5.557L16.4,3.014l6.354,1.925L22.409,5.557z"/>
	</g>
	<g>
		<line fill="none" x1="21.443" y1="26.191" x2="21.443" y2="16.288"/>
		<path fill="#211F1F" d="M21.433,29.6c-0.144,0-0.286-0.04-0.41-0.122c-0.209-0.139-0.335-0.371-0.335-0.619v-12.57
			c0-0.314,0.202-0.597,0.499-0.701c0.079-0.027,0.164-0.041,0.246-0.041c0.221,0,0.437,0.099,0.58,0.281l7.427,9.357
			c0.145,0.182,0.195,0.417,0.137,0.643c-0.055,0.223-0.213,0.411-0.426,0.502l-7.424,3.209C21.631,29.579,21.531,29.6,21.433,29.6
			L21.433,29.6z"/>
		<path fill="#211F1F" d="M21.443,29.6c-0.099,0-0.199-0.021-0.295-0.062l-7.722-3.344c-0.216-0.094-0.373-0.279-0.428-0.509
			c-0.053-0.229,0.002-0.472,0.153-0.647l7.726-9.228c0.144-0.174,0.354-0.267,0.569-0.267c0.084,0,0.171,0.015,0.254,0.045
			c0.295,0.105,0.491,0.385,0.491,0.697v12.57c0,0.25-0.126,0.484-0.336,0.619C21.729,29.56,21.586,29.6,21.443,29.6L21.443,29.6z"
			/>
		<polygon fill="#03AAD6" points="21.443,16.288 13.719,25.515 21.443,28.859 		"/>
		
			<linearGradient id="SVGID_1_" gradientUnits="userSpaceOnUse" x1="301.2639" y1="-1086.8557" x2="294.6292" y2="-1086.8472" gradientTransform="matrix(1 0 0 -1 -279.1001 -1063.9849)">
			<stop  offset="0" style="stop-color:#AECFD9;stop-opacity:0"/>
			<stop  offset="1" style="stop-color:#0E7C9C"/>
		</linearGradient>
		<polygon fill="url(#SVGID_1_)" points="14.363,25.389 20.993,17.466 20.993,28.261 		"/>
		<polygon fill="#03AAD6" points="21.433,16.288 28.858,25.646 21.433,28.859 		"/>
		
			<linearGradient id="SVGID_2_" gradientUnits="userSpaceOnUse" x1="306.9456" y1="-1086.7693" x2="298.5928" y2="-1086.9185" gradientTransform="matrix(1 0 0 -1 -279.1001 -1063.9849)">
			<stop  offset="0" style="stop-color:#AECFD9"/>
			<stop  offset="1" style="stop-color:#0E7C9C;stop-opacity:0"/>
		</linearGradient>
		<polygon fill="url(#SVGID_2_)" points="21.88,17.52 28.224,25.517 21.88,28.261 		"/>
		
			<linearGradient id="path6582_2_" gradientUnits="userSpaceOnUse" x1="673.011" y1="1832.4729" x2="658.7081" y2="1832.4661" gradientTransform="matrix(0.2112 0.5857 0.5857 -0.2112 -1192.3706 20.0633)">
			<stop  offset="0" style="stop-color:#FFFFFF"/>
			<stop  offset="1" style="stop-color:#FFFFFF;stop-opacity:0"/>
		</linearGradient>
		<path id="path6582_9_" fill="url(#path6582_2_)" d="M21.681,28.781l-0.238-12.492l-0.177,12.492H21.681z"/>
	</g>
	<g>
		<circle fill="#211F1F" cx="7.028" cy="14.8" r="7.027"/>
		
			<radialGradient id="SVGID_3_" cx="287.6624" cy="-1076.261" r="7.34" gradientTransform="matrix(1 0 0 -1 -279.1001 -1063.9849)" gradientUnits="userSpaceOnUse">
			<stop  offset="0.0061" style="stop-color:#FFF3E2"/>
			<stop  offset="0.5394" style="stop-color:#FAA81C"/>
			<stop  offset="1" style="stop-color:#A26929"/>
		</radialGradient>
		<path fill="url(#SVGID_3_)" d="M7.028,20.95c-3.392,0-6.148-2.76-6.148-6.15c0-3.39,2.758-6.147,6.148-6.147
			c3.39,0,6.148,2.758,6.148,6.147C13.176,18.191,10.416,20.95,7.028,20.95L7.028,20.95z"/>
	</g>
</g>
</svg>
