<?xml version="1.0" encoding="utf-8"?>
<!-- Generator: Adobe Illustrator 15.0.0, SVG Export Plug-In . SVG Version: 6.00 Build 0)  -->
<!DOCTYPE svg PUBLIC "-//W3C//DTD SVG 1.1//EN" "http://www.w3.org/Graphics/SVG/1.1/DTD/svg11.dtd">
<svg version="1.1"
	 id="svg2" inkscape:output_extension="org.inkscape.output.svg.inkscape" xmlns:inkscape="http://www.inkscape.org/namespaces/inkscape" xmlns:rdf="http://www.w3.org/1999/02/22-rdf-syntax-ns#" xmlns:svg="http://www.w3.org/2000/svg" xmlns:dc="http://purl.org/dc/elements/1.1/" xmlns:cc="http://creativecommons.org/ns#" xmlns:sodipodi="http://sodipodi.sourceforge.net/DTD/sodipodi-0.dtd" sodipodi:docname="_algorithm.svg" inkscape:version="0.46" sodipodi:docbase="C:\Radix\dev\trunk\org.radixware\kernel\designer\src\common.resources\src\org\radixware\kernel\designer\resources\icons\ads\class" sodipodi:version="0.32"
	 xmlns="http://www.w3.org/2000/svg" xmlns:xlink="http://www.w3.org/1999/xlink" x="0px" y="0px" width="32px" height="32px"
	 viewBox="0 0 32 32" enable-background="new 0 0 32 32" xml:space="preserve">
<g>
	<g>
		<path d="M4.969,9.628C4.71,9.628,4.5,9.418,4.5,9.16V0.469C4.5,0.21,4.71,0,4.969,0h14.063c0.26,0,0.469,0.21,0.469,0.469V9.16
			c0,0.259-0.209,0.469-0.469,0.469H4.969z"/>
		<rect id="rect8920" x="4.969" y="0.469" fill="#00ACDA" width="14.063" height="8.691"/>
		
			<linearGradient id="SVGID_1_" gradientUnits="userSpaceOnUse" x1="5.4575" y1="26.2813" x2="18.582" y2="26.2813" gradientTransform="matrix(1 0 0 -1 -0.02 31.0947)">
			<stop  offset="0" style="stop-color:#B1D2DB"/>
			<stop  offset="1" style="stop-color:#0B7C9E"/>
		</linearGradient>
		<rect x="5.438" y="0.938" fill="url(#SVGID_1_)" width="13.125" height="7.753"/>
	</g>
	<polygon points="23.283,22.111 23.283,17.083 23.283,16.333 23.283,16.332 22.533,16.332 22.533,16.333 0.716,16.333 0.716,17.083 
		0.716,17.083 0.716,22.111 0,22.111 1.091,24 2.183,22.111 1.466,22.111 1.466,17.083 22.533,17.083 22.534,22.111 21.818,22.111 
		22.909,24 24,22.111 	"/>
	<g>
		<path d="M12,20.535c-0.069,0-0.139-0.014-0.203-0.045l-7.031-3.359C4.604,17.053,4.5,16.89,4.5,16.708
			c0-0.181,0.104-0.346,0.266-0.423l7.031-3.359c0.064-0.031,0.133-0.046,0.203-0.046c0.069,0,0.139,0.015,0.203,0.046l7.031,3.359
			c0.163,0.077,0.267,0.242,0.267,0.423s-0.104,0.345-0.267,0.422l-7.031,3.36C12.139,20.521,12.069,20.535,12,20.535L12,20.535z"/>
		<polygon id="rect8924" fill="#ED2526" points="12,13.349 19.032,16.708 12,20.066 4.969,16.708 		"/>
		
			<linearGradient id="SVGID_2_" gradientUnits="userSpaceOnUse" x1="6.0767" y1="14.3872" x2="17.9648" y2="14.3872" gradientTransform="matrix(1 0 0 -1 -0.02 31.0947)">
			<stop  offset="0" style="stop-color:#F59699"/>
			<stop  offset="1" style="stop-color:#8F1A1D"/>
		</linearGradient>
		<polygon fill="url(#SVGID_2_)" points="6.057,16.708 12,13.868 17.944,16.708 12,19.547 		"/>
	</g>
	<polygon points="12.375,11.056 12.375,9.36 11.625,9.36 11.625,11.056 10.909,11.056 12,12.943 13.092,11.056 	"/>
	<polygon points="4.5,4.041 2.612,2.95 2.612,3.666 0,3.666 0,4.416 2.613,4.416 2.613,5.131 	"/>
</g>
<g>
	<path d="M24,32c-4.411,0-8-3.589-8-8s3.589-8,8-8s8,3.589,8,8S28.411,32,24,32L24,32z"/>
	<circle fill="#F9A61C" cx="24" cy="24" r="7.5"/>
	
		<radialGradient id="SVGID_3_" cx="26.7832" cy="-114.6445" r="17.943" gradientTransform="matrix(0.5 0 0 -0.5 9.0459 -36.1973)" gradientUnits="userSpaceOnUse">
		<stop  offset="0" style="stop-color:#FFFFFF"/>
		<stop  offset="0.5394" style="stop-color:#F7F7F8"/>
		<stop  offset="1" style="stop-color:#A1A1A2"/>
	</radialGradient>
	<path fill="url(#SVGID_3_)" d="M24,30c-3.309,0-6-2.691-6-6s2.691-6,6-6s6,2.691,6,6S27.309,30,24,30L24,30z"/>
	<path opacity="0.49" fill="#ED2A2A" enable-background="new    " d="M26.478,26.531l2.783,2.81C30.642,27.98,31.5,26.091,31.5,24
		c0-4.143-3.358-7.5-7.5-7.5v3.781C27.313,20.125,29,24.625,26.478,26.531z"/>
	<rect x="23.514" y="19.375" width="0.973" height="4.625"/>
	<rect x="25.308" y="23.063" transform="matrix(-0.7071 0.7071 -0.7071 -0.7071 62.2785 25.8069)" width="0.972" height="5.478"/>
	<circle cx="24" cy="24" r="0.88"/>
</g>
</svg>
