<?xml version="1.0" encoding="utf-8"?>
<!-- Generator: Adobe Illustrator 15.0.0, SVG Export Plug-In . SVG Version: 6.00 Build 0)  -->
<!DOCTYPE svg PUBLIC "-//W3C//DTD SVG 1.1//EN" "http://www.w3.org/Graphics/SVG/1.1/DTD/svg11.dtd">
<svg version="1.1" id="Layer_1" xmlns="http://www.w3.org/2000/svg" xmlns:xlink="http://www.w3.org/1999/xlink" x="0px" y="0px"
	 width="32px" height="32px" viewBox="0 0 32 32" enable-background="new 0 0 32 32" xml:space="preserve">
<g>
	<path d="M-1.28,3.7c-0.265-0.002-0.519,0.105-0.707,0.292C-2.173,4.18-2.278,4.435-2.28,4.699v5.258l0,0v0.001
		c0,0.133,0.026,0.264,0.077,0.385c0.101,0.243,0.295,0.437,0.538,0.537c0.121,0.051,0.251,0.077,0.385,0.077l11.237,0.001
		c0.001,0,0.003-0.001,0.004-0.001l15.964,0.001c0.266,0.003,0.518-0.104,0.707-0.293c0.188-0.188,0.293-0.44,0.293-0.706V4.625
		c0.002-0.265-0.105-0.519-0.293-0.707c-0.188-0.187-0.442-0.291-0.707-0.293H10.956"/>
	
		<linearGradient id="SVGID_1_" gradientUnits="userSpaceOnUse" x1="637.2402" y1="141.0869" x2="642.5752" y2="141.0869" gradientTransform="matrix(4.371097e-008 -1 -1 -4.371097e-008 153.3879 647.1938)">
		<stop  offset="0" style="stop-color:#C0D9E3"/>
		<stop  offset="1" style="stop-color:#0079A0"/>
	</linearGradient>
	<polygon fill="url(#SVGID_1_)" points="25.925,4.625 25.925,9.96 -1.282,9.957 -1.319,4.625 	"/>
</g>
<g>
	<path d="M27.416,5.35c0.003-0.266-0.104-0.518-0.293-0.707c-0.188-0.188-0.44-0.293-0.706-0.293h-5.334
		c-0.265-0.002-0.519,0.105-0.707,0.293c-0.187,0.188-0.291,0.442-0.293,0.707v14.969l-14.5-0.001
		c-0.265-0.003-0.518,0.104-0.707,0.293c-0.188,0.188-0.292,0.44-0.292,0.706v5.334c-0.002,0.265,0.105,0.519,0.292,0.707
		c0.188,0.187,0.442,0.291,0.707,0.293h20.832l0,0h0.001c0.133,0,0.264-0.026,0.385-0.077c0.243-0.101,0.437-0.295,0.537-0.538
		c0.051-0.121,0.077-0.251,0.077-0.385l0.001-5.333c0-0.001-0.001-0.003-0.001-0.004L27.416,5.35z"/>
	
		<linearGradient id="SVGID_2_" gradientUnits="userSpaceOnUse" x1="635.0439" y1="128.1729" x2="640.3789" y2="128.1729" gradientTransform="matrix(0 1 1 0 -112.1707 -613.7224)">
		<stop  offset="0" style="stop-color:#C0D9E3"/>
		<stop  offset="1" style="stop-color:#0079A0"/>
	</linearGradient>
	<polygon fill="url(#SVGID_2_)" points="5.584,26.65 5.584,21.315 26.418,21.318 26.415,26.649 	"/>
	
		<linearGradient id="SVGID_3_" gradientUnits="userSpaceOnUse" x1="633.4365" y1="134.0449" x2="638.7715" y2="134.0449" gradientTransform="matrix(-1 0 0 1 659.8484 -118.0428)">
		<stop  offset="0" style="stop-color:#C0D9E3"/>
		<stop  offset="1" style="stop-color:#0079A0"/>
	</linearGradient>
	<polygon fill="url(#SVGID_3_)" points="21.083,5.35 26.418,5.35 26.415,26.652 21.083,21.286 	"/>
	<path fill="none" stroke="#000000" stroke-miterlimit="10" d="M14.235,56.34"/>
	<path fill="none" stroke="#000000" stroke-miterlimit="10" d="M7.282,49.613"/>
</g>
<path fill="#FFFFFF" d="M24,16.998c3.484,0,6.506-1.995,8.001-4.898V3.928C31.142,2.249,29.785,0.865,28.108,0h-8.217
	C16.991,1.496,15,4.517,15,7.998C15,12.96,19.037,16.998,24,16.998z"/>
<path fill="#FFFFFF" d="M8.001,15.001c-3.484,0-6.506,1.995-8.001,4.898v8.173C0.86,29.751,2.216,31.135,3.893,32h8.217
	c2.9-1.496,4.892-4.517,4.892-7.998C17.001,19.039,12.964,15.001,8.001,15.001z"/>
<g>
	<path d="M23.999,16C19.588,16,16,12.411,16,7.999C16,3.588,19.588,0,23.999,0S32,3.588,32,7.999C32,12.411,28.41,16,23.999,16z
		 M19.762,9.254c0.424,1.43,1.557,2.562,2.984,2.984v-2.09c-0.369-0.215-0.678-0.524-0.896-0.894H19.762z M25.254,12.238
		c1.428-0.422,2.559-1.552,2.983-2.981h-2.086c-0.217,0.368-0.526,0.676-0.897,0.893V12.238z M28.241,6.751
		c-0.421-1.433-1.554-2.566-2.987-2.99v2.089c0.373,0.218,0.684,0.528,0.899,0.899L28.241,6.751z M21.85,6.75
		c0.218-0.373,0.528-0.684,0.899-0.9V3.762c-1.431,0.423-2.563,1.557-2.987,2.988H21.85z"/>
	<path fill="#E31718" d="M23.999,15.07c-3.897,0-7.069-3.172-7.069-7.071c0-3.897,3.172-7.069,7.069-7.069
		c3.899,0,7.07,3.171,7.07,7.069C31.069,11.898,27.898,15.07,23.999,15.07z M18.701,8.749c0.333,2.352,2.205,4.222,4.553,4.548
		l0.423,0.059V9.542l-0.239-0.092c-0.408-0.156-0.732-0.48-0.894-0.89l-0.093-0.236h-3.809L18.701,8.749z M25.456,8.563
		c-0.158,0.407-0.485,0.731-0.895,0.891l-0.238,0.092v3.809l0.424-0.059c2.348-0.326,4.219-2.195,4.55-4.546l0.059-0.424h-3.807
		L25.456,8.563z M24.323,6.454l0.238,0.092c0.412,0.16,0.738,0.486,0.894,0.894l0.092,0.239l3.81,0.002l-0.059-0.423
		c-0.323-2.354-2.193-4.227-4.55-4.556l-0.425-0.06V6.454z M23.255,2.703c-2.351,0.328-4.224,2.201-4.554,4.553L18.643,7.68h3.81
		l0.093-0.237c0.16-0.413,0.486-0.74,0.895-0.896l0.24-0.091V2.644L23.255,2.703z"/>
</g>
<g>
	<path d="M7.999,32C3.588,32,0,28.41,0,23.999S3.588,16,7.999,16S16,19.588,16,23.999S12.41,32,7.999,32z M3.762,25.254
		c0.424,1.43,1.557,2.563,2.984,2.984v-2.09c-0.369-0.216-0.678-0.524-0.896-0.895H3.762z M9.254,28.238
		c1.428-0.422,2.559-1.553,2.983-2.982h-2.086c-0.217,0.368-0.526,0.677-0.897,0.894V28.238z M12.241,22.752
		c-0.421-1.434-1.554-2.566-2.987-2.99v2.089c0.373,0.218,0.684,0.528,0.899,0.899L12.241,22.752z M5.85,22.75
		c0.218-0.373,0.528-0.684,0.899-0.9v-2.088c-1.431,0.424-2.563,1.557-2.987,2.988H5.85z"/>
	<path fill="#E31718" d="M7.999,31.07c-3.897,0-7.069-3.172-7.069-7.071c0-3.897,3.172-7.069,7.069-7.069
		c3.899,0,7.07,3.172,7.07,7.069C15.069,27.898,11.898,31.07,7.999,31.07z M2.701,24.748c0.333,2.352,2.205,4.223,4.553,4.549
		l0.423,0.059v-3.813l-0.239-0.092c-0.408-0.156-0.732-0.48-0.894-0.891l-0.093-0.236H2.643L2.701,24.748z M9.456,24.563
		c-0.158,0.407-0.485,0.732-0.895,0.891l-0.238,0.093v3.81l0.424-0.06c2.348-0.325,4.219-2.194,4.55-4.546l0.059-0.424H9.549
		L9.456,24.563z M8.323,22.454l0.238,0.093c0.412,0.16,0.738,0.486,0.894,0.894l0.092,0.239l3.81,0.002l-0.059-0.422
		c-0.323-2.354-2.193-4.228-4.55-4.557l-0.425-0.06V22.454z M7.255,18.703c-2.351,0.328-4.224,2.201-4.554,4.553L2.643,23.68h3.81
		l0.093-0.236c0.16-0.414,0.486-0.74,0.895-0.896l0.24-0.092v-3.812L7.255,18.703z"/>
</g>
</svg>
