<?xml version="1.0" encoding="utf-8"?>
<!-- Generator: Adobe Illustrator 15.0.0, SVG Export Plug-In . SVG Version: 6.00 Build 0)  -->
<!DOCTYPE svg PUBLIC "-//W3C//DTD SVG 1.1//EN" "http://www.w3.org/Graphics/SVG/1.1/DTD/svg11.dtd">
<svg version="1.1" id="Layer_1" xmlns="http://www.w3.org/2000/svg" xmlns:xlink="http://www.w3.org/1999/xlink" x="0px" y="0px"
	 width="32px" height="32px" viewBox="0 0 32 32" enable-background="new 0 0 32 32" xml:space="preserve">
<g>
	<path d="M32.943,11.499c-0.25-0.25-0.59-0.391-0.941-0.391H20.895V0c0-0.737-0.598-1.334-1.334-1.334h-7.115
		c-0.354,0-0.692,0.14-0.942,0.391C11.252-0.693,11.111-0.354,11.111,0l-0.002,11.109H0.001c-0.737,0-1.335,0.598-1.335,1.334v7.116
		c0,0.354,0.142,0.693,0.392,0.943c0.251,0.251,0.589,0.391,0.942,0.391h11.109V32c0,0.354,0.141,0.693,0.391,0.943
		c0.251,0.25,0.59,0.391,0.943,0.391h7.117c0.354,0,0.693-0.141,0.943-0.391s0.391-0.59,0.391-0.943V20.895H32
		c0.354,0,0.691-0.141,0.941-0.391c0.25-0.251,0.393-0.592,0.393-0.943v-7.118C33.336,12.089,33.193,11.749,32.943,11.499z"/>
	
		<linearGradient id="SVGID_1_" gradientUnits="userSpaceOnUse" x1="0.04" y1="826.8105" x2="32.042" y2="826.8105" gradientTransform="matrix(1 0 0 1 -0.04 -810.8105)">
		<stop  offset="0" style="stop-color:#C0D9E3"/>
		<stop  offset="1" style="stop-color:#0079A0"/>
	</linearGradient>
	<polygon fill="url(#SVGID_1_)" points="32.002,12.442 19.563,12.442 19.563,0 12.445,-0.001 12.445,12.442 0.001,12.442 0,19.559 
		12.445,19.559 12.443,32 19.563,32 19.563,19.559 32.002,19.559 	"/>
	<path fill="#FFFFFF" d="M16.001,28.5c-6.894,0-12.5-5.607-12.5-12.5c0-6.893,5.606-12.5,12.5-12.5S28.502,9.107,28.502,16
		C28.502,22.893,22.895,28.5,16.001,28.5z M10.698,18.521c0.581,1.218,1.571,2.205,2.786,2.785v-1.766
		c-0.395-0.279-0.739-0.627-1.021-1.02H10.698L10.698,18.521z M18.52,21.305c1.215-0.578,2.203-1.565,2.785-2.783h-1.766
		c-0.279,0.396-0.627,0.74-1.02,1.021V21.305L18.52,21.305z M21.311,13.486c-0.584-1.219-1.574-2.211-2.791-2.791v1.765
		c0.396,0.282,0.746,0.63,1.027,1.026H21.311z M12.458,13.486c0.282-0.396,0.632-0.745,1.026-1.026v-1.765
		c-1.217,0.581-2.207,1.572-2.789,2.791H12.458z"/>
	<path d="M16.001,28c-6.616,0-12-5.383-12-12s5.384-12,12-12s12.001,5.383,12.001,12S22.617,28,16.001,28z M9.957,18.021
		c0.635,1.894,2.135,3.394,4.027,4.024v-2.772c-0.508-0.313-0.938-0.741-1.254-1.252H9.957z M18.02,22.044
		c1.893-0.63,3.393-2.13,4.027-4.021h-2.775c-0.313,0.508-0.744,0.938-1.252,1.25V22.044z M22.051,13.986
		c-0.637-1.895-2.137-3.398-4.031-4.031v2.773c0.514,0.314,0.943,0.746,1.258,1.258H22.051z M12.727,13.986
		c0.314-0.512,0.748-0.943,1.26-1.258V9.955c-1.896,0.633-3.396,2.137-4.03,4.031H12.727z"/>
	<path fill="#E31718" d="M16.001,4.992C9.922,4.992,4.994,9.92,4.994,16c0,6.083,4.928,11.012,11.007,11.012
		c6.083,0,11.009-4.929,11.009-11.012C27.01,9.92,22.084,4.992,16.001,4.992z M14.977,8.709v4.629
		c-0.754,0.287-1.35,0.887-1.639,1.639H8.711C9.164,11.727,11.729,9.164,14.977,8.709z M8.712,17.034h4.628
		c0.291,0.75,0.885,1.34,1.637,1.631v4.629C11.729,22.839,9.168,20.277,8.712,17.034z M17.029,23.292v-4.628
		c0.75-0.291,1.344-0.883,1.637-1.631h4.625C22.838,20.277,20.273,22.839,17.029,23.292z M18.666,14.977
		c-0.289-0.752-0.883-1.348-1.637-1.639V8.709c3.248,0.455,5.813,3.018,6.266,6.27L18.666,14.977z"/>
	
		<linearGradient id="SVGID_2_" gradientUnits="userSpaceOnUse" x1="6.0205" y1="826.8096" x2="26.0615" y2="826.8096" gradientTransform="matrix(1 0 0 1 -0.04 -810.8105)">
		<stop  offset="0" style="stop-color:#F39B9F"/>
		<stop  offset="1" style="stop-color:#931915"/>
	</linearGradient>
	<path fill="url(#SVGID_2_)" d="M16.001,26.02c-5.524,0-10.021-4.496-10.021-10.021c0-5.525,4.496-10.02,10.021-10.02
		s10.021,4.494,10.021,10.02C26.02,21.523,21.525,26.02,16.001,26.02z M7.73,17.172c0.516,3.665,3.438,6.589,7.105,7.102
		l1.127,0.156v-6.445l-0.635-0.245c-0.486-0.188-0.877-0.574-1.066-1.065l-0.244-0.631H7.574L7.73,17.172z M17.742,16.672
		c-0.189,0.49-0.58,0.883-1.068,1.066l-0.634,0.246v6.443l1.126-0.158c3.668-0.511,6.594-3.435,7.105-7.1l0.158-1.131h-6.443
		L17.742,16.672z M16.04,14.017l0.634,0.244c0.492,0.189,0.881,0.58,1.07,1.07l0.242,0.635h6.443l-0.156-1.125
		c-0.512-3.674-3.438-6.598-7.107-7.111L16.04,7.57V14.017z M14.838,7.73c-3.673,0.514-6.596,3.438-7.107,7.111l-0.154,1.125h6.441
		l0.242-0.635c0.189-0.49,0.581-0.881,1.07-1.07l0.635-0.244V7.57L14.838,7.73z"/>
</g>
</svg>
