<?xml version="1.0" encoding="UTF-8" standalone="no"?>
<!-- Created with Inkscape (http://www.inkscape.org/) -->
<svg
   xmlns:dc="http://purl.org/dc/elements/1.1/"
   xmlns:cc="http://web.resource.org/cc/"
   xmlns:rdf="http://www.w3.org/1999/02/22-rdf-syntax-ns#"
   xmlns:svg="http://www.w3.org/2000/svg"
   xmlns="http://www.w3.org/2000/svg"
   xmlns:sodipodi="http://sodipodi.sourceforge.net/DTD/sodipodi-0.dtd"
   xmlns:inkscape="http://www.inkscape.org/namespaces/inkscape"
   width="48"
   height="48"
   id="svg2"
   sodipodi:version="0.32"
   inkscape:version="0.45.1"
   sodipodi:docbase="C:\Radix\dev\trunk\org.radixware\kernel\designer\src\common.resources\src\org\radixware\kernel\designer\resources\icons\unused\src_edit"
   sodipodi:docname="insert_code.svg"
   version="1.0"
   inkscape:output_extension="org.inkscape.output.svg.inkscape">
  <defs
     id="defs4" />
  <sodipodi:namedview
     id="base"
     pagecolor="#ffffff"
     bordercolor="#000000"
     borderopacity="1.0"
     inkscape:pageopacity="0.0"
     inkscape:pageshadow="2"
     inkscape:zoom="12"
     inkscape:cx="10"
     inkscape:cy="10"
     inkscape:document-units="px"
     inkscape:current-layer="layer1"
     inkscape:window-width="1080"
     inkscape:window-height="798"
     inkscape:window-x="100"
     inkscape:window-y="%window-y" />
  <metadata
     id="metadata7">
    <rdf:RDF>
      <cc:Work
         rdf:about="">
        <dc:format>image/svg+xml</dc:format>
        <dc:type
           rdf:resource="http://purl.org/dc/dcmitype/StillImage" />
      </cc:Work>
    </rdf:RDF>
  </metadata>
  <g
     inkscape:label="Layer 1"
     inkscape:groupmode="layer"
     id="layer1">
    <path
       style="font-size:12px;font-style:normal;font-variant:normal;font-weight:normal;font-stretch:normal;text-align:start;line-height:100%;writing-mode:lr-tb;text-anchor:start;fill:#000064;fill-opacity:1;stroke:none;stroke-width:1px;stroke-linecap:butt;stroke-linejoin:miter;stroke-opacity:1;font-family:Arial"
       d="M 4.8625038,21.640529 L 4.8625038,13.633951 L 3.4817601,13.633951 L 3.4817601,12.418201 L 4.8625038,12.418201 L 4.8625038,11.436918 C 4.8625022,10.817476 4.9175004,10.357228 5.0274983,10.056174 C 5.1780178,9.6509371 5.4428772,9.3223961 5.8220772,9.0705498 C 6.2012724,8.8187292 6.7324377,8.6928112 7.4155767,8.6927997 C 7.855558,8.6928112 8.3418566,8.7449161 8.8744762,8.8491093 L 8.6400098,10.212485 C 8.3158048,10.154604 8.0089732,10.125658 7.7195138,10.125646 C 7.2447894,10.125658 6.9090114,10.22697 6.7121787,10.429584 C 6.5153409,10.63222 6.4169226,11.011417 6.4169264,11.567179 L 6.4169264,12.418201 L 8.2144984,12.418201 L 8.2144984,13.633951 L 6.4169264,13.633951 L 6.4169264,21.640529 L 4.8625038,21.640529 z M 8.8397409,17.029365 C 8.8397396,15.321533 9.3144601,14.056576 10.263904,13.234491 C 11.057033,12.551364 12.023841,12.209797 13.164335,12.209787 C 14.432181,12.209797 15.468461,12.625178 16.273179,13.455931 C 17.07788,14.286701 17.480234,15.434424 17.480243,16.899106 C 17.480234,18.085913 17.302214,19.019434 16.946182,19.699671 C 16.590134,20.379914 16.071993,20.908185 15.39176,21.284487 C 14.711513,21.660792 13.969039,21.848942 13.164335,21.848942 C 11.87332,21.848942 10.829803,21.435009 10.03378,20.607141 C 9.2377526,19.779277 8.8397396,18.586686 8.8397409,17.029365 L 8.8397409,17.029365 z M 10.446267,17.029365 C 10.446264,18.210382 10.703886,19.094694 11.219135,19.682304 C 11.734378,20.269918 12.382777,20.563723 13.164335,20.563722 C 13.940093,20.563723 14.585597,20.26847 15.100849,19.677961 C 15.616088,19.087457 15.873711,18.187225 15.873718,16.977262 C 15.873711,15.836779 15.61464,14.972729 15.096507,14.38511 C 14.57836,13.797507 13.934302,13.503701 13.164335,13.503692 C 12.382777,13.503701 11.734378,13.796059 11.219135,14.380768 C 10.703886,14.965492 10.446264,15.848356 10.446267,17.029365 L 10.446267,17.029365 z M 19.303867,21.640529 L 19.303867,12.418201 L 20.710663,12.418201 L 20.710663,13.816314 C 21.069595,13.162133 21.401031,12.730832 21.704972,12.522409 C 22.008905,12.314004 22.343236,12.209797 22.707965,12.209787 C 23.234784,12.209797 23.770293,12.377686 24.314491,12.713455 L 23.776087,14.163671 C 23.393989,13.937896 23.011898,13.825005 22.629811,13.824997 C 22.288239,13.825005 21.981407,13.927764 21.709315,14.133277 C 21.437215,14.338803 21.243274,14.623924 21.127492,14.988642 C 20.953809,15.544421 20.866972,16.152293 20.866973,16.812267 L 20.866973,21.640529 L 19.303867,21.640529 z M 28.248308,25.383298 C 27.385702,24.294911 26.656254,23.02127 26.05996,21.562372 C 25.463661,20.103475 25.165513,18.592475 25.165515,17.029365 C 25.165513,15.651522 25.388402,14.331566 25.834177,13.069497 C 26.355211,11.604817 27.159919,10.14592 28.248308,8.6927997 L 29.368534,8.6927997 C 28.668025,9.8969802 28.204885,10.756689 27.979106,11.271924 C 27.625956,12.070854 27.348071,12.90451 27.145451,13.772894 C 26.896508,14.855496 26.772039,15.943881 26.77204,17.038049 C 26.772039,19.822694 27.637534,22.604443 29.368534,25.383298 L 28.248308,25.383298 z M 34.732741,25.276427 L 33.612515,25.276427 C 35.343506,22.497572 36.209004,19.715823 36.209007,16.931178 C 36.209004,15.842799 36.084535,14.763099 35.8356,13.692075 C 35.638761,12.823691 35.363769,11.990035 35.010626,11.191105 C 34.784842,10.670081 34.318805,9.8016886 33.612515,8.5859287 L 34.732741,8.5859287 C 35.821122,10.03905 36.625831,11.497946 37.146871,12.962626 C 37.592641,14.224695 37.815527,15.544651 37.815533,16.922494 C 37.815527,18.485604 37.515932,19.996604 36.916748,21.455501 C 36.317552,22.914399 35.589551,24.18804 34.732741,25.276427 L 34.732741,25.276427 z M 40.830527,16.337266 C 41.276301,16.325693 41.639578,16.205566 41.920359,15.976884 C 42.201137,15.748213 42.387842,15.434144 42.480473,15.034678 C 42.5731,14.635224 42.622307,13.95209 42.6281,12.985272 C 42.633885,12.018471 42.651254,11.381651 42.680203,11.074809 C 42.732304,10.588521 42.829274,10.197745 42.971114,9.9024794 C 43.112948,9.6072387 43.288074,9.3713244 43.496491,9.1947391 C 43.704902,9.0181794 43.971209,8.8835792 44.295413,8.7909371 C 44.515401,8.7330585 44.874336,8.7041109 45.372219,8.7040981 L 45.858519,8.7040981 L 45.858519,10.067474 L 45.589316,10.067474 C 44.987227,10.067485 44.587766,10.176034 44.390936,10.393122 C 44.194096,10.610231 44.095678,11.095082 44.095682,11.847678 C 44.095678,13.364477 44.063837,14.322603 44.00016,14.722056 C 43.895948,15.341516 43.717928,15.819133 43.466097,16.154904 C 43.21426,16.490687 42.819143,16.788835 42.280743,17.049348 C 42.91756,17.315659 43.379254,17.722356 43.665828,18.269439 C 43.952394,18.81653 44.095678,19.71242 44.095682,20.957114 C 44.095678,22.086022 44.107257,22.757579 44.130417,22.971784 C 44.176728,23.365454 44.29396,23.640443 44.482117,23.796755 C 44.670264,23.953065 45.039329,24.03122 45.589316,24.031222 L 45.858519,24.031222 L 45.858519,25.394597 L 45.372219,25.394597 C 44.804865,25.394595 44.393826,25.34828 44.139102,25.255655 C 43.768584,25.122499 43.461752,24.906848 43.218606,24.608703 C 42.975454,24.310552 42.817696,23.932802 42.745332,23.47545 C 42.672963,23.018096 42.633885,22.268385 42.6281,21.226315 C 42.622307,20.184246 42.5731,19.463482 42.480473,19.064018 C 42.387842,18.664561 42.201137,18.349045 41.920359,18.117471 C 41.639578,17.885904 41.276301,17.764328 40.830527,17.752745 L 40.830527,16.337266 z M 23.550305,34.110641 L 23.550305,35.52612 C 23.104526,35.537702 22.74125,35.659279 22.460474,35.890845 C 22.179689,36.12242 21.992984,36.436488 21.90036,36.833051 C 21.807729,37.22962 21.758519,37.911306 21.752733,38.878115 C 21.746941,39.844925 21.729572,40.481745 21.70063,40.788578 C 21.648524,41.280666 21.551552,41.672888 21.409719,41.96525 C 21.267878,42.257606 21.092752,42.492071 20.884341,42.668647 C 20.675924,42.845218 20.409618,42.979818 20.085421,43.07245 C 19.865425,43.136128 19.506492,43.16797 19.008614,43.167972 L 18.522314,43.167972 L 18.522314,41.804597 L 18.791517,41.804597 C 19.393599,41.804595 19.79306,41.696046 19.989898,41.47895 C 20.186731,41.261849 20.285149,40.774103 20.28515,40.015708 C 20.285149,38.568389 20.3112,37.650789 20.363306,37.262905 C 20.455933,36.620297 20.641189,36.1065 20.919078,35.721509 C 21.19696,35.336525 21.59063,35.036931 22.100091,34.822723 C 21.43432,34.504318 20.965389,34.083147 20.693295,33.559212 C 20.421197,33.035289 20.285149,32.150976 20.28515,30.906274 C 20.285149,29.777374 20.270675,29.102923 20.24173,28.882919 C 20.201203,28.495049 20.086866,28.224399 19.898715,28.070973 C 19.710562,27.917568 19.341497,27.84086 18.791517,27.840849 L 18.522314,27.840849 L 18.522314,26.477474 L 19.008614,26.477474 C 19.575962,26.477486 19.987001,26.523799 20.24173,26.616417 C 20.612244,26.743793 20.919075,26.957997 21.162226,27.259025 C 21.405372,27.560081 21.563131,27.939277 21.6355,28.396619 C 21.707863,28.853983 21.746941,29.603694 21.752733,30.645757 C 21.758519,31.687835 21.807729,32.407152 21.90036,32.803711 C 21.992984,33.200284 22.179689,33.514351 22.460474,33.745916 C 22.74125,33.977493 23.104526,34.099068 23.550305,34.110641 L 23.550305,34.110641 z "
       id="text2157"
       sodipodi:nodetypes="ccccccsssccssccccccccsssssssscccsssssssccccccssccsssccccsssccsssccccsssccssscccsssssssccccsssscssssccccssssssccccsssssssccccsssscssssccccsssssscc" />
  </g>
</svg>
