<?xml version="1.0" encoding="UTF-8" standalone="no"?>
<!-- Created with Inkscape (http://www.inkscape.org/) -->
<svg
   xmlns:dc="http://purl.org/dc/elements/1.1/"
   xmlns:cc="http://web.resource.org/cc/"
   xmlns:rdf="http://www.w3.org/1999/02/22-rdf-syntax-ns#"
   xmlns:svg="http://www.w3.org/2000/svg"
   xmlns="http://www.w3.org/2000/svg"
   xmlns:sodipodi="http://sodipodi.sourceforge.net/DTD/sodipodi-0.dtd"
   xmlns:inkscape="http://www.inkscape.org/namespaces/inkscape"
   width="24"
   height="24"
   id="svg2"
   sodipodi:version="0.32"
   inkscape:version="0.45.1"
   sodipodi:docbase="C:\Radix\dev\trunk\org.radixware\kernel\designer\src\common.resources\src\org\radixware\kernel\designer\resources\icons\unused\src_edit"
   sodipodi:docname="insert_function.svg"
   version="1.0"
   inkscape:output_extension="org.inkscape.output.svg.inkscape">
  <defs
     id="defs4" />
  <sodipodi:namedview
     id="base"
     pagecolor="#ffffff"
     bordercolor="#000000"
     borderopacity="1.0"
     inkscape:pageopacity="0.0"
     inkscape:pageshadow="2"
     inkscape:zoom="25"
     inkscape:cx="10"
     inkscape:cy="10"
     inkscape:document-units="px"
     inkscape:current-layer="layer1"
     inkscape:window-width="1080"
     inkscape:window-height="798"
     inkscape:window-x="100"
     inkscape:window-y="%window-y" />
  <metadata
     id="metadata7">
    <rdf:RDF>
      <cc:Work
         rdf:about="">
        <dc:format>image/svg+xml</dc:format>
        <dc:type
           rdf:resource="http://purl.org/dc/dcmitype/StillImage" />
      </cc:Work>
    </rdf:RDF>
  </metadata>
  <g
     inkscape:label="Layer 1"
     inkscape:groupmode="layer"
     id="layer1">
    <path
       style="font-size:12px;font-style:normal;font-variant:normal;font-weight:normal;font-stretch:normal;text-align:start;line-height:100%;writing-mode:lr-tb;text-anchor:start;fill:#000064;fill-opacity:1;stroke:none;stroke-width:1px;stroke-linecap:butt;stroke-linejoin:miter;stroke-opacity:1;font-family:Arial"
       d="M 2.5859003,17.582783 L 2.5859003,4.7647124 L 11.233289,4.7647124 L 11.233289,6.2773497 L 4.2821526,6.2773497 L 4.2821526,10.246929 L 10.297728,10.246929 L 10.297728,11.759567 L 4.2821526,11.759567 L 4.2821526,17.582783 L 2.5859003,17.582783 z "
       id="text2158" />
    <path
       style="font-size:12px;font-style:normal;font-weight:normal;fill:#000064;fill-opacity:1;stroke:none;stroke-width:1px;stroke-linecap:butt;stroke-linejoin:miter;stroke-opacity:1;font-family:Bitstream Vera Sans"
       d="M 15.583416,4.042365 C 14.89678,5.2209282 14.386926,6.3866691 14.053862,7.5395912 C 13.720789,8.6925302 13.554254,9.8608328 13.554257,11.044504 C 13.554254,12.228184 13.722071,13.400331 14.057705,14.560945 C 14.393332,15.721566 14.901904,16.888586 15.583416,18.062013 L 14.353624,18.062013 C 13.585,16.857842 13.009817,15.674166 12.62807,14.510985 C 12.246319,13.347808 12.055445,12.192315 12.055447,11.044504 C 12.055445,9.901826 12.245038,8.7514578 12.624226,7.5933947 C 13.00341,6.4353484 13.579874,5.2516731 14.353624,4.042365 L 15.583416,4.042365 z M 18.11218,4.042365 L 19.341975,4.042365 C 20.110593,5.2516731 20.685776,6.4353484 21.067528,7.5933947 C 21.449271,8.7514578 21.640146,9.901826 21.640151,11.044504 C 21.640146,12.192315 21.449271,13.347808 21.067528,14.510985 C 20.685776,15.674166 20.110593,16.857842 19.341975,18.062013 L 18.11218,18.062013 C 18.79369,16.888586 19.302259,15.721566 19.637893,14.560945 C 19.973522,13.400331 20.141336,12.228184 20.14134,11.044504 C 20.141336,9.8608328 19.973522,8.6925302 19.637893,7.5395912 C 19.302259,6.3866691 18.79369,5.2209282 18.11218,4.042365 L 18.11218,4.042365 z "
       id="text3135" />
  </g>
</svg>
