<?xml version="1.0" encoding="UTF-8" standalone="no"?>
<!-- Created with Inkscape (http://www.inkscape.org/) -->
<svg
   xmlns:dc="http://purl.org/dc/elements/1.1/"
   xmlns:cc="http://web.resource.org/cc/"
   xmlns:rdf="http://www.w3.org/1999/02/22-rdf-syntax-ns#"
   xmlns:svg="http://www.w3.org/2000/svg"
   xmlns="http://www.w3.org/2000/svg"
   xmlns:xlink="http://www.w3.org/1999/xlink"
   xmlns:sodipodi="http://sodipodi.sourceforge.net/DTD/sodipodi-0.dtd"
   xmlns:inkscape="http://www.inkscape.org/namespaces/inkscape"
   inkscape:export-ydpi="240.00000"
   inkscape:export-xdpi="240.00000"
   inkscape:export-filename="/home/jimmac/gfx/novell/pdes/trunk/docs/BIGmime-text.png"
   sodipodi:docname="variables.svg"
   sodipodi:docbase="C:\Radix\dev\trunk\org.radixware\kernel\designer\src\common.resources\src\org\radixware\kernel\designer\resources\icons\unused\src_edit"
   inkscape:version="0.45.1"
   sodipodi:version="0.32"
   id="svg249"
   height="48.000000px"
   width="48.000000px"
   inkscape:output_extension="org.inkscape.output.svg.inkscape">
  <defs
     id="defs3">
    <linearGradient
       inkscape:collect="always"
       id="linearGradient6053">
      <stop
         style="stop-color:#eeeeef;stop-opacity:1;"
         offset="0"
         id="stop6054" />
      <stop
         style="stop-color:#eeeeef;stop-opacity:0;"
         offset="1"
         id="stop6055" />
    </linearGradient>
    <linearGradient
       inkscape:collect="always"
       xlink:href="#linearGradient6053"
       id="linearGradient9036"
       gradientUnits="userSpaceOnUse"
       gradientTransform="matrix(-1.0051612,-0.161738,0.156041,-0.9697557,94.228244,108.44734)"
       x1="31.621386"
       y1="89.565842"
       x2="46.098869"
       y2="60.885803" />
    <linearGradient
       id="linearGradient7925">
      <stop
         style="stop-color:#d0d0d0;stop-opacity:1.0000000;"
         offset="0.0000000"
         id="stop7926" />
      <stop
         style="stop-color:#a6a3a3;stop-opacity:1.0000000;"
         offset="1.0000000"
         id="stop7927" />
    </linearGradient>
    <linearGradient
       inkscape:collect="always"
       xlink:href="#linearGradient7925"
       id="linearGradient9032"
       gradientUnits="userSpaceOnUse"
       gradientTransform="matrix(-0.8812205,-0.141795,0.1779877,-1.1061492,94.228244,108.44734)"
       x1="68.289116"
       y1="51.916901"
       x2="25.700886"
       y2="24.944025" />
    <linearGradient
       id="linearGradient269">
      <stop
         id="stop270"
         offset="0"
         style="stop-color:#000000;stop-opacity:1;" />
      <stop
         id="stop271"
         offset="1"
         style="stop-color:#000000;stop-opacity:1;" />
    </linearGradient>
    <linearGradient
       id="linearGradient259">
      <stop
         id="stop260"
         offset="0"
         style="stop-color:#ffffff;stop-opacity:1;" />
      <stop
         id="stop261"
         offset="1"
         style="stop-color:#c8c8c8;stop-opacity:1;" />
    </linearGradient>
    <radialGradient
       inkscape:collect="always"
       xlink:href="#linearGradient259"
       id="radialGradient2240"
       gradientUnits="userSpaceOnUse"
       gradientTransform="matrix(0.148355,1.009137e-2,-1.104438e-2,0.162365,23.06011,12.81706)"
       cx="30.653816"
       cy="14.9373"
       fx="30.653816"
       fy="14.9373"
       r="86.708450" />
    <radialGradient
       inkscape:collect="always"
       xlink:href="#linearGradient269"
       id="radialGradient2242"
       gradientUnits="userSpaceOnUse"
       gradientTransform="matrix(0.331735,0,0,0.353831,18.10526,9.5823)"
       cx="31.863327"
       cy="2.3667307"
       fx="31.863327"
       fy="2.3667307"
       r="37.751713" />
    <radialGradient
       inkscape:collect="always"
       xlink:href="#linearGradient259"
       id="radialGradient2251"
       gradientUnits="userSpaceOnUse"
       gradientTransform="matrix(0.960493,0,0,1.041132,-2,0)"
       cx="33.966679"
       cy="35.736916"
       fx="33.966679"
       fy="35.736916"
       r="86.708450" />
  </defs>
  <sodipodi:namedview
     inkscape:window-y="27"
     inkscape:window-x="162"
     inkscape:window-height="872"
     inkscape:window-width="929"
     inkscape:document-units="px"
     inkscape:grid-bbox="true"
     showgrid="true"
     inkscape:current-layer="layer5"
     inkscape:cy="5.1479943"
     inkscape:cx="34.265611"
     inkscape:zoom="2.8284271"
     inkscape:pageshadow="2"
     inkscape:pageopacity="0.0"
     borderopacity="1"
     bordercolor="#666666"
     pagecolor="#ffffff"
     id="base"
     inkscape:showpageshadow="false"
     showborder="true" />
  <metadata
     id="metadata4">
    <rdf:RDF>
      <cc:Work
         rdf:about="">
        <dc:format>image/svg+xml</dc:format>
        <dc:type
           rdf:resource="http://purl.org/dc/dcmitype/StillImage" />
        <dc:title>Find</dc:title>
        <dc:subject>
          <rdf:Bag>
            <rdf:li>document</rdf:li>
            <rdf:li>search</rdf:li>
            <rdf:li>find</rdf:li>
          </rdf:Bag>
        </dc:subject>
        <cc:license
           rdf:resource="http://creativecommons.org/licenses/GPL/2.0/" />
        <dc:creator>
          <cc:Agent>
            <dc:title>Lapo Calamandrei</dc:title>
          </cc:Agent>
        </dc:creator>
        <dc:source />
        <dc:contributor>
          <cc:Agent>
            <dc:title>Jakub Steiner</dc:title>
          </cc:Agent>
        </dc:contributor>
        <dc:date>2006-04-21</dc:date>
      </cc:Work>
      <cc:License
         rdf:about="http://creativecommons.org/licenses/GPL/2.0/">
        <cc:permits
           rdf:resource="http://web.resource.org/cc/Reproduction" />
        <cc:permits
           rdf:resource="http://web.resource.org/cc/Distribution" />
        <cc:requires
           rdf:resource="http://web.resource.org/cc/Notice" />
        <cc:permits
           rdf:resource="http://web.resource.org/cc/DerivativeWorks" />
        <cc:requires
           rdf:resource="http://web.resource.org/cc/ShareAlike" />
        <cc:requires
           rdf:resource="http://web.resource.org/cc/SourceCode" />
      </cc:License>
    </rdf:RDF>
  </metadata>
  <g
     inkscape:groupmode="layer"
     id="layer6"
     inkscape:label="Shadow" />
  <g
     style="display:inline"
     inkscape:groupmode="layer"
     inkscape:label="Base"
     id="layer1" />
  <g
     inkscape:groupmode="layer"
     id="layer5"
     inkscape:label="Text"
     style="display:inline">
    <path
       style="color:#000000;fill:url(#radialGradient2251);fill-opacity:1;fill-rule:nonzero;stroke:#000000;stroke-width:2;stroke-linecap:round;stroke-linejoin:round;marker:none;marker-start:none;marker-mid:none;marker-end:none;stroke-miterlimit:4;stroke-dashoffset:0;stroke-opacity:1;visibility:visible;display:block;overflow:visible;stroke-dasharray:none"
       d="M 5.7526014,3.6464462 L 29.199616,3.6308212 C 29.199616,3.6308212 39.478553,13.174533 39.478553,13.811106 L 39.478553,43.417892 C 39.478553,44.054465 38.966077,44.56694 38.329504,44.56694 L 5.7526014,44.56694 C 5.1160285,44.56694 4.6035528,44.054465 4.6035528,43.417892 L 4.6035528,4.7954948 C 4.6035528,4.1589219 5.1160285,3.6464462 5.7526014,3.6464462 z "
       id="rect15391"
       sodipodi:nodetypes="ccccccccc" />
    <path
       style="color:#000000;fill:url(#radialGradient2240);fill-opacity:1;fill-rule:nonzero;stroke:url(#radialGradient2242);stroke-width:2;stroke-linecap:butt;stroke-linejoin:round;marker:none;marker-start:none;marker-mid:none;marker-end:none;stroke-miterlimit:4;stroke-dasharray:none;stroke-dashoffset:0;stroke-opacity:1;visibility:visible;display:block;overflow:visible"
       d="M 39.410559,13.739267 C 39.423724,12.324125 33.058025,3.5320142 29.175441,3.6354934 C 30.148479,3.8684884 30.925796,9.803523 29.536076,12.616023 C 32.286076,12.616023 38.446694,11.881093 39.410559,13.739267 z "
       id="path2210"
       sodipodi:nodetypes="cccc"
       inkscape:r_cx="true"
       inkscape:r_cy="true" />
    <path
       style="font-size:12px;font-style:normal;font-variant:normal;font-weight:bold;font-stretch:normal;text-align:start;line-height:100%;writing-mode:lr-tb;text-anchor:start;fill:#000064;fill-opacity:1;stroke:none;stroke-width:1px;stroke-linecap:butt;stroke-linejoin:miter;stroke-opacity:1;font-family:Georgia"
       d="M 30.860345,16.782815 C 30.547124,16.811307 30.248163,16.868251 29.96346,16.953651 C 29.678715,17.039087 29.384499,17.171959 29.080813,17.352265 C 28.672686,17.589555 28.357117,17.843434 28.134102,18.113906 C 27.911047,18.384411 27.690387,18.756926 27.472116,19.231451 C 27.177882,19.886333 26.765031,20.842535 26.233564,22.100056 C 25.702058,23.357603 25.094647,24.788346 24.411324,26.392283 C 23.803893,27.8349 23.146655,29.415122 22.439602,31.132956 C 21.732522,32.8508 21.056301,34.497457 20.410936,36.072933 L 17.549451,36.072933 C 16.220727,32.817582 14.868282,29.51003 13.492119,26.150269 C 12.115943,22.790526 11.14788,20.455783 10.587925,19.146032 C 10.369633,18.671508 10.158462,18.313229 9.95441,18.071198 C 9.750356,17.829199 9.425294,17.580064 8.979228,17.323792 C 8.656537,17.143485 8.371814,17.017733 8.1250535,16.946533 C 7.8782906,16.875371 7.5508583,16.811307 7.1427519,16.754343 L 7.1427519,15.643916 L 18.090427,15.643916 L 18.090427,16.725871 C 17.065408,16.849271 16.370206,16.97977 16.004818,17.117366 C 15.639413,17.255004 15.456715,17.428211 15.456722,17.636992 C 15.456715,17.741408 15.473324,17.852925 15.506549,17.971542 C 15.539758,18.090194 15.589585,18.249167 15.656029,18.448457 C 15.959728,19.283667 16.510195,20.647973 17.307435,22.541378 C 18.104653,24.434812 19.286262,27.322394 20.85226,31.204136 C 21.810822,28.840927 22.608049,26.843109 23.243951,25.210676 C 23.87982,23.578264 24.43978,22.135659 24.923827,20.882855 C 25.161081,20.275459 25.358017,19.70838 25.514631,19.181624 C 25.671213,18.654899 25.749513,18.258657 25.749531,17.992897 C 25.749513,17.689207 25.531224,17.435328 25.094663,17.231256 C 24.658067,17.027224 23.851346,16.877742 22.6745,16.782815 L 22.6745,15.643916 L 30.860345,15.643916 L 30.860345,16.782815 z "
       id="text2216" />
    <g
       id="g9027"
       transform="matrix(0.1266257,-0.4725737,0.4725737,0.1266257,12.440587,65.726308)">
      <path
         style="fill:url(#linearGradient9032);fill-opacity:1;stroke:#020000;stroke-width:2.55495977;stroke-linecap:round;stroke-linejoin:round;stroke-miterlimit:4;stroke-opacity:1"
         d="M 63.468853,50.566718 C 65.728309,50.10531 72.944188,41.731768 74.83522,40.194175 C 81.480266,40.320814 87.781818,36.345684 90.184227,29.75993 C 92.008696,24.758494 91.121439,19.456962 88.354006,15.354131 L 84.55219,25.776096 C 83.602923,28.37836 80.743733,29.709101 78.141471,28.759825 L 70.567197,25.996815 C 67.964935,25.047536 66.634192,22.188357 67.583468,19.586096 L 71.545925,8.7237659 C 66.462581,9.9076762 62.042897,13.527768 60.121994,18.793563 C 58.59609,22.976539 58.944886,27.382235 60.715513,31.118276 C 58.191044,33.758629 51.598685,40.838775 52.125068,43.327582 C 54.367238,50.482517 59.197019,51.602853 63.468853,50.566718 z "
         id="path1683"
         sodipodi:nodetypes="ccsccccccsccc" />
      <path
         style="fill:url(#linearGradient9036);fill-opacity:1;stroke:none;stroke-width:1.25;stroke-linecap:round;stroke-linejoin:round;stroke-miterlimit:4;stroke-opacity:1"
         d="M 70.717195,8.9471541 C 65.63384,10.131066 62.323491,13.929659 60.402581,19.195456 C 59.183652,22.536925 59.238591,25.851576 60.17763,29.024697 C 62.202171,33.34864 66.546935,36.756586 72.489917,39.38895 C 79.669026,40.211798 86.588389,37.19744 89.171522,30.116294 C 90.99599,25.114862 91.218047,19.991822 88.450615,15.888994 L 84.648799,26.310961 C 83.699528,28.913222 80.840342,30.243965 78.238081,29.294689 L 69.738458,26.2202 C 67.136197,25.270929 65.80546,22.411743 66.754731,19.809482 L 70.717195,8.9471541 z "
         id="path4183"
         sodipodi:nodetypes="ccccccccccc" />
    </g>
  </g>
</svg>
