<?xml version="1.0" encoding="UTF-8" standalone="no"?>
<!-- Created with Inkscape (http://www.inkscape.org/) -->
<svg
   xmlns:dc="http://purl.org/dc/elements/1.1/"
   xmlns:cc="http://web.resource.org/cc/"
   xmlns:rdf="http://www.w3.org/1999/02/22-rdf-syntax-ns#"
   xmlns:svg="http://www.w3.org/2000/svg"
   xmlns="http://www.w3.org/2000/svg"
   xmlns:xlink="http://www.w3.org/1999/xlink"
   xmlns:sodipodi="http://sodipodi.sourceforge.net/DTD/sodipodi-0.dtd"
   xmlns:inkscape="http://www.inkscape.org/namespaces/inkscape"
   id="svg1"
   sodipodi:version="0.32"
   inkscape:version="0.45.1"
   width="48"
   height="48"
   sodipodi:docbase="C:\Radix\dev\trunk\org.radixware\kernel\designer\src\common.resources\src\org\radixware\kernel\designer\resources\icons\unused\security"
   sodipodi:docname="restrictions.svg"
   version="1.0"
   inkscape:output_extension="org.inkscape.output.svg.inkscape">
  <defs
     id="defs3">
    <linearGradient
       id="linearGradient3082">
      <stop
         style="stop-color:#ffffff;stop-opacity:1;"
         offset="0"
         id="stop3084" />
      <stop
         style="stop-color:#dcdcdc;stop-opacity:1;"
         offset="1"
         id="stop3086" />
    </linearGradient>
    <linearGradient
       inkscape:collect="always"
       xlink:href="#linearGradient3082"
       id="linearGradient3088"
       x1="21.601215"
       y1="3.4397883"
       x2="21.81687"
       y2="46.091961"
       gradientUnits="userSpaceOnUse" />
  </defs>
  <sodipodi:namedview
     id="base"
     pagecolor="#ffffff"
     bordercolor="#666666"
     borderopacity="1.0"
     inkscape:pageopacity="0.0000000"
     inkscape:pageshadow="2"
     inkscape:zoom="5.421152"
     inkscape:cx="24"
     inkscape:cy="26.944099"
     inkscape:window-width="1026"
     inkscape:window-height="903"
     inkscape:window-x="122"
     inkscape:window-y="0"
     inkscape:current-layer="svg1" />
  <path
     sodipodi:nodetypes="csssssccszzcsszcszscscsssss"
     id="path1544"
     d="M 31.77941,46.305014 C 31.624658,41.835597 34.402356,37.508766 35.548933,35.615803 C 37.71364,32.041939 41.303898,28.382587 43.891623,24.997834 C 44.47385,24.236279 44.788756,22.015643 43.664096,20.826488 C 42.535026,19.632672 40.780522,19.675447 39.720279,20.29559 C 36.760863,22.02657 35.725045,23.385619 33.652868,26.211316 C 32.944149,27.177751 31.348234,29.279315 29.315723,31.280571 L 31.160349,28.564588 L 31.529274,7.402342 C 31.567906,5.1863332 29.442031,3.628185 27.282086,3.7618956 C 25.122141,3.8956062 24.466896,5.7728345 24.430403,7.4781846 L 24.036022,25.907945 C 24.048811,23.731813 24.442225,5.1608076 23.865984,3.9510729 C 23.577863,3.3462062 23.000176,2.0832296 21.090643,2.0441006 C 19.438134,2.008645 18.189237,3.9610714 18.144056,3.9595362 C 17.963331,3.9534008 17.965166,21.805998 17.877599,26.05963 C 17.921383,23.84433 18.035368,8.1793665 17.619268,7.3076676 C 17.203167,6.4359688 16.171174,5.9421024 15.124288,5.9245854 C 14.077403,5.9070671 12.725892,6.4734264 12.740564,7.9480053 C 12.801486,14.070983 12.710055,27.510489 12.492772,28.789965 C 12.49085,26.580587 12.58798,20.729015 12.263936,16.133586 C 11.939892,11.538156 11.452093,12.29779 10.101796,12.274285 C 8.6656938,12.336585 7.9102646,11.323059 7.4475319,16.199874 C 7.0045912,20.868084 6.986373,26.62944 6.9784729,28.887367 L 6.9562589,35.236589 C 6.9494635,37.179033 9.7817337,38.667733 9.7984529,40.612215 L 9.8474812,46.314215"
     style="fill:url(#linearGradient3088);fill-opacity:1.0;fill-rule:evenodd;stroke:#000000;stroke-width:2.27527905;stroke-linecap:butt;stroke-linejoin:round;stroke-miterlimit:4;stroke-opacity:1" />
  <metadata
     id="metadata8">
    <rdf:RDF>
      <cc:Work
         rdf:about="">
        <dc:title>Pointing Finger</dc:title>
        <dc:description />
        <dc:subject>
          <rdf:Bag>
            <rdf:li>computer</rdf:li>
            <rdf:li>hand</rdf:li>
            <rdf:li />
            <rdf:li>mousecursor</rdf:li>
            <rdf:li>finger</rdf:li>
            <rdf:li>hash</rdf:li>
            <rdf:li>pointing</rdf:li>
            <rdf:li>icons</rdf:li>
          </rdf:Bag>
        </dc:subject>
        <dc:publisher>
          <cc:Agent
             rdf:about="http://www.openclipart.org">
            <dc:title>Nathan Eady</dc:title>
          </cc:Agent>
        </dc:publisher>
        <dc:creator>
          <cc:Agent
             rdf:about="">
            <dc:title>Nathan Eady</dc:title>
          </cc:Agent>
        </dc:creator>
        <dc:rights>
          <cc:Agent
             rdf:about="">
            <dc:title>Nathan Eady</dc:title>
          </cc:Agent>
        </dc:rights>
        <dc:date />
        <dc:format>image/svg+xml</dc:format>
        <dc:type
           rdf:resource="http://purl.org/dc/dcmitype/StillImage" />
        <cc:license
           rdf:resource="http://web.resource.org/cc/PublicDomain">
          <dc:date />
        </cc:license>
        <dc:language>en</dc:language>
      </cc:Work>
      <cc:License
         rdf:about="http://web.resource.org/cc/PublicDomain">
        <cc:permits
           rdf:resource="http://web.resource.org/cc/Reproduction" />
        <cc:permits
           rdf:resource="http://web.resource.org/cc/Distribution" />
        <cc:permits
           rdf:resource="http://web.resource.org/cc/DerivativeWorks" />
      </cc:License>
    </rdf:RDF>
  </metadata>
</svg>
