<?xml version="1.0" encoding="UTF-8" standalone="no"?>
<!-- Svg Vector Icons : http://www.onlinewebfonts.com/icon -->

<svg
   xmlns:dc="http://purl.org/dc/elements/1.1/"
   xmlns:cc="http://creativecommons.org/ns#"
   xmlns:rdf="http://www.w3.org/1999/02/22-rdf-syntax-ns#"
   xmlns:svg="http://www.w3.org/2000/svg"
   xmlns="http://www.w3.org/2000/svg"
   xmlns:xlink="http://www.w3.org/1999/xlink"
   xmlns:sodipodi="http://sodipodi.sourceforge.net/DTD/sodipodi-0.dtd"
   xmlns:inkscape="http://www.inkscape.org/namespaces/inkscape"
   version="1.1"
   x="0px"
   y="0px"
   viewBox="0 0 32 32"
   enable-background="new 0 0 1000 1000"
   xml:space="preserve"
   id="svg20"
   sodipodi:docname="map2.svg"
   width="32"
   height="32"
   inkscape:version="0.92.1 r15371"><defs
     id="defs24"><linearGradient
       inkscape:collect="always"
       id="linearGradient6402"><stop
         style="stop-color:#0c7c9e;stop-opacity:1"
         offset="0"
         id="stop6398" /><stop
         style="stop-color:#69adc0;stop-opacity:1"
         offset="1"
         id="stop6400" /></linearGradient><linearGradient
       id="linearGradient5101"
       inkscape:collect="always"><stop
         id="stop5097"
         offset="0"
         style="stop-color:#1e9046;stop-opacity:1" /><stop
         id="stop5099"
         offset="1"
         style="stop-color:#7bbc72;stop-opacity:1" /></linearGradient><linearGradient
       inkscape:collect="always"
       id="linearGradient5093"><stop
         style="stop-color:#1e9046;stop-opacity:1"
         offset="0"
         id="stop5089" /><stop
         style="stop-color:#7bbc72;stop-opacity:1"
         offset="1"
         id="stop5091" /></linearGradient><linearGradient
       inkscape:collect="always"
       id="linearGradient4561"><stop
         style="stop-color:#0c7c9e;stop-opacity:1"
         offset="0"
         id="stop4557" /><stop
         style="stop-color:#69adc0;stop-opacity:1"
         offset="1"
         id="stop4559" /></linearGradient><linearGradient
       inkscape:collect="always"
       id="linearGradient4565"><stop
         style="stop-color:#2e7e2f;stop-opacity:1;"
         offset="0"
         id="stop4561" /><stop
         style="stop-color:#2e7e2f;stop-opacity:0.75"
         offset="1"
         id="stop4563" /></linearGradient><linearGradient
       gradientTransform="matrix(316.3368,0,0,-312.41473,4502.3333,5355.4064)"
       inkscape:collect="always"
       xlink:href="#linearGradient4565"
       id="linearGradient4567-6"
       x1="8.3858805"
       y1="2.9062989"
       x2="7.9589386"
       y2="30.306686"
       gradientUnits="userSpaceOnUse" /><linearGradient
       inkscape:collect="always"
       xlink:href="#linearGradient4561"
       id="linearGradient4563"
       x1="23.07151"
       y1="2.2527161"
       x2="23.300268"
       y2="29.459988"
       gradientUnits="userSpaceOnUse"
       gradientTransform="matrix(311.71807,0,0,-311.71807,-228.24107,5119.381)" /><linearGradient
       gradientTransform="matrix(311.71807,0,0,-311.71807,-4602.5892,5119.3849)"
       inkscape:collect="always"
       xlink:href="#linearGradient5101"
       id="linearGradient4563-2"
       x1="23.203871"
       y1="2.2527165"
       x2="23.594687"
       y2="29.761765"
       gradientUnits="userSpaceOnUse" /><linearGradient
       inkscape:collect="always"
       xlink:href="#linearGradient5093"
       id="linearGradient5095"
       x1="2678.3914"
       y1="4417.1724"
       x2="2800.2158"
       y2="-4157.895"
       gradientUnits="userSpaceOnUse"
       gradientTransform="translate(-47.914848)" /><linearGradient
       inkscape:collect="always"
       xlink:href="#linearGradient6402"
       id="linearGradient6404"
       x1="23.07151"
       y1="2.2527161"
       x2="23.300268"
       y2="29.459988"
       gradientUnits="userSpaceOnUse"
       gradientTransform="matrix(311.71807,0,0,-311.71807,-228.24107,5119.381)" /></defs><sodipodi:namedview
     pagecolor="#ffffff"
     bordercolor="#666666"
     borderopacity="1"
     objecttolerance="10"
     gridtolerance="10"
     guidetolerance="10"
     inkscape:pageopacity="0"
     inkscape:pageshadow="2"
     inkscape:window-width="1691"
     inkscape:window-height="1057"
     id="namedview22"
     showgrid="false"
     inkscape:zoom="8"
     inkscape:cx="14.159558"
     inkscape:cy="-11.597691"
     inkscape:window-x="1912"
     inkscape:window-y="-8"
     inkscape:window-maximized="1"
     inkscape:current-layer="g16" /><metadata
     id="metadata2"> Svg Vector Icons : http://www.onlinewebfonts.com/icon <rdf:RDF><cc:Work
     rdf:about=""><dc:format>image/svg+xml</dc:format><dc:type
       rdf:resource="http://purl.org/dc/dcmitype/StillImage" /><dc:title></dc:title></cc:Work></rdf:RDF></metadata><g
     id="g18"
     transform="matrix(0.03208027,0,0,0.03208027,0.57849139,0.03009455)"><g
       transform="matrix(0.1,0,0,-0.1,0,511)"
       id="g16"><path
         style="stroke-width:1.00000095"
         d="m 5349.4308,4816.7102 c -96.7001,-42.5001 -195.8002,-162.8002 -212.3002,-257.1003 -7.1,-42.5 -9.4,-2061.9019 -7.1,-4491.803936 l 7.1,-4416.304864 49.5,-63.699 c 26.0001,-35.4 77.8001,-87.301 113.2001,-113.301 63.7001,-49.5 84.9001,-49.5 1712.7017,-49.5 1627.8016,0 1649.0016,0 1712.8016,49.5 35.4,26.001 87.3,77.901 113.2,113.301 l 49.5,63.699 V 131.50597 4611.51 l -49.5,63.7 c -26,35.4001 -77.8,87.3001 -113.2,113.2001 -63.7,49.5001 -89.7,49.5001 -1684.4016,54.3001 -1311.7012,4.7 -1634.9016,0 -1691.5016,-26 z M 8412.486,-4118.9329 c -754.934,0 -1970.1866,-16.141 -2725.1206,-16.141 0,2642.269 -55.1046,5918.2406 -55.1046,8560.5097 754.934,0 1978.2572,-27.5522 2733.1912,-27.5522 0,-2642.2691 47.034,-5874.5485 47.034,-8516.8175 z"
         id="path10-9"
         inkscape:connector-curvature="0"
         sodipodi:nodetypes="ccccccscccccccccccccc" /><path
         style="stroke-width:1.00908422"
         d="M 6257.7316,1452.607 V -812.19504 h 768.6769 768.6767 V 1452.607 3717.4092 h -768.6767 -768.6769 z m 1153.0665,0 V -434.79504 H 7026.4085 6642.0191 V 1452.5069 3339.9088 h 384.3894 384.3896 z"
         id="path12-7"
         inkscape:connector-curvature="0" /><path
         style="stroke-width:1.00000095"
         d="m 6776.7321,-1604.8959 c -535.5005,-193.5 -691.2006,-854.001 -294.9003,-1248.001 153.3002,-155.7 294.9003,-212.3 530.8006,-212.3 235.9006,0 377.5006,56.6 530.8006,212.3 155.7,153.3 212.3,294.9 212.3,530.8 0,235.901 -56.6,377.501 -212.3,530.801 -193.5,193.5 -523.7006,273.7 -766.7009,186.4 z m 384.5009,-372.7 c 243,-101.5 302,-417.601 113.2,-606.301 -153.3006,-153.3 -370.4008,-153.3 -523.7009,0 -292.5003,290.101 30.6999,766.701 410.5009,606.301 z"
         id="path14-1"
         inkscape:connector-curvature="0" /><path
         style="opacity:1;fill:#4298b2;fill-opacity:1;fill-rule:nonzero;stroke:#000000;stroke-width:58.06591797;stroke-opacity:1"
         d="m 6663.9369,1439.9269 v 1872.0722 h 398.0267 398.0274 V 1439.9269 -432.14533 h -398.0274 -398.0267 z"
         id="path4571-6"
         inkscape:connector-curvature="0" /><path
         style="opacity:1;fill:#000000;fill-opacity:1;fill-rule:nonzero;stroke:#000000;stroke-width:55.10448837;stroke-opacity:1"
         d="m 6773.8319,-2545.7519 c -276.8399,276.84 31.6891,662.299 412.9981,515.977 204.927,-78.637 208.609,-448.603 5.812,-584.014 -112.0681,-74.83 -307.7288,-43.044 -418.8101,68.037 z"
         id="path4575-9"
         inkscape:connector-curvature="0" /><path
         style="opacity:1;fill:url(#linearGradient6404);fill-opacity:1;fill-rule:nonzero;stroke:url(#linearGradient4563);stroke-width:13.77612114;stroke-opacity:1"
         d="m 5690.4809,-2859.1761 c -5.2633,700.202 -18.4692,2274.27384 -29.3463,3497.93777 -10.8771,1223.66423 -19.844,2574.39553 -19.9266,3001.62543 l -0.15,776.7816 1188.1905,-8.9233 c 653.5047,-4.9076 1263.3855,-12.6532 1355.2906,-17.2121 l 167.1002,-8.2889 8.859,-1159.0769 c 4.8722,-637.4923 14.7537,-2020.7734 21.9575,-3073.95813 7.2038,-1053.1847 17.1133,-2443.36747 22.0228,-3089.29537 l 8.9245,-1174.4146 h -364.4645 c -200.4553,0 -810.9595,-4.1116 -1356.6759,-9.1334 l -992.2111,-9.1333 z m 1541.2377,-186.7216 c 44.5916,11.6146 112.5358,37.9616 150.9875,58.5484 102.04,54.6327 258.4498,217.669 309.3353,322.4415 96.069,197.8041 92.421,516.928 -8.0423,703.4498 -48.0529,89.2165 -182.2591,227.3544 -271.0632,279.0036 -167.18,97.2342 -395.0522,139.7862 -559.8098,104.5371 -127.6589,-27.3127 -269.9401,-107.0795 -370.5873,-207.7635 -303.6804,-303.792 -303.4258,-773.3919 0.5923,-1074.4816 101.1048,-100.1341 190.7527,-154.922 302.7948,-185.0517 100.544,-27.0385 343.1919,-27.4094 445.8011,-0.6858 z m 572.1906,4497.4508 v 2273.0601 h -778.351 -778.351 V 1451.5531 -821.50719 h 778.351 778.351 z"
         id="path4543"
         inkscape:connector-curvature="0" /><path
         style="opacity:1;fill:#57a3b9;fill-opacity:1;fill-rule:nonzero;stroke:#03addb;stroke-width:13.77612114;stroke-opacity:1"
         d="m 6968.9268,-2666.9452 c -250.6921,50.6517 -387.7623,292.7541 -281.5256,497.2489 67.1783,129.3113 207.5222,200.2477 370.5639,187.3005 221.1365,-17.5622 337.975,-174.9196 296.2936,-399.0499 -38.366,-206.3025 -196.6966,-323.6126 -385.3319,-285.4995 z"
         id="path4545"
         inkscape:connector-curvature="0" /><path
         style="stroke-width:1.00000095"
         d="M 975.08745,4816.7185 C 878.3874,4774.2183 779.2874,4653.9181 762.7874,4559.6179 c -7.1,-42.5 -9.4,-2061.9038 -7.1,-4491.808 l 7.1,-4416.3088 49.5,-63.699 c 26,-35.4 77.8,-87.301 113.2,-113.301 63.70005,-49.501 84.9001,-49.501 1712.7031,-49.501 1627.804,0 1649.003,0 1712.803,49.501 35.4,26 87.301,77.901 113.201,113.301 l 49.5,63.699 V 131.5098 4611.5181 l -49.5,63.7 c -26.001,35.4002 -77.801,87.3002 -113.201,113.2002 -63.699,49.5002 -89.7,49.5002 -1684.403,54.3002 -1311.702,4.7 -1634.903,0 -1691.50305,-26 z M 4038.1455,-4118.9329 c -754.934,0 -1970.188,-16.141 -2725.123,-16.141 0,2642.2716 -55.105,5918.2463 -55.105,8560.5179 754.935,0 1978.259,-27.5521 2733.194,-27.5521 0,-2642.2716 47.034,-5874.554 47.034,-8516.8258 z"
         id="path10-9-1"
         inkscape:connector-curvature="0"
         sodipodi:nodetypes="ccccccscccccccccccccc" /><path
         style="stroke-width:1.00908434"
         d="M 1883.3895,1452.6121 V -812.1921 h 768.677 768.678 v 2264.8042 2264.8044 h -768.678 -768.677 z m 1153.067,0 V -434.7916 h -384.39 -384.389 v 1887.3037 1887.4036 h 384.389 384.39 z"
         id="path12-7-3"
         inkscape:connector-curvature="0" /><path
         style="stroke-width:1.00000095"
         d="m 2402.3905,-1604.8936 c -535.501,-193.5003 -691.201,-854.0023 -294.901,-1248.0023 153.301,-155.7 294.901,-212.3 530.801,-212.3 235.901,0 377.501,56.6 530.801,212.3 155.701,153.3 212.301,294.9 212.301,530.801 0,235.901 -56.6,377.5009 -212.301,530.801 -193.5,193.5003 -523.701,273.7004 -766.701,186.4003 z m 384.501,-372.7004 c 243,-101.4999 302,-417.6009 113.2,-606.3019 -153.301,-153.3 -370.401,-153.3 -523.701,0 -292.501,290.102 30.7,766.702 410.501,606.3019 z"
         id="path14-1-3"
         inkscape:connector-curvature="0" /><path
         style="opacity:1;fill:#50a85e;fill-opacity:1;fill-rule:nonzero;stroke:#000000;stroke-width:58.06597519;stroke-opacity:1"
         d="M 2289.5945,1439.9321 V 3312.006 h 398.028 398.027 V 1439.9321 -432.142 h -398.027 -398.028 z"
         id="path4571-6-4"
         inkscape:connector-curvature="0" /><path
         style="opacity:1;fill:#000000;fill-opacity:1;fill-rule:nonzero;stroke:#000000;stroke-width:55.10454178;stroke-opacity:1"
         d="m 2399.4905,-2545.7509 c -276.841,276.841 31.689,662.3001 412.998,515.978 204.927,-78.637 208.609,-448.604 5.812,-584.015 -112.068,-74.83 -307.729,-43.044 -418.81,68.037 z"
         id="path4575-9-3"
         inkscape:connector-curvature="0" /><path
         style="opacity:1;fill:url(#linearGradient5095);fill-opacity:1;fill-rule:nonzero;stroke:url(#linearGradient4563-2);stroke-width:13.77612114;stroke-opacity:1"
         d="m 1316.1325,-2859.1719 c -5.263,700.202 -18.469,2274.2734 -29.346,3497.9374 -10.877,1223.6643 -19.844,2574.3956 -19.927,3001.6255 l -0.15,776.7816 1188.191,-8.9232 c 653.505,-4.9077 1263.385,-12.6533 1355.29,-17.2122 l 167.101,-8.2889 8.859,-1159.0769 c 4.872,-637.4923 14.753,-2020.7735 21.957,-3073.9582 7.204,-1053.1847 17.113,-2443.3671 22.023,-3089.2951 l 8.924,-1174.415 h -364.464 c -200.455,0 -810.96,-4.112 -1356.676,-9.133 l -992.211,-9.134 z m 1541.238,-186.722 c 44.592,11.615 112.536,37.962 150.987,58.548 102.04,54.633 258.45,217.669 309.336,322.442 96.069,197.804 92.421,516.928 -8.043,703.4497 -48.052,89.2165 -182.259,227.3544 -271.063,279.0036 -167.18,97.2342 -395.052,139.7862 -559.81,104.5371 -127.658,-27.3127 -269.94,-107.0795 -370.587,-207.7635 -303.68,-303.7919 -303.426,-773.3919 0.592,-1074.4819 101.105,-100.134 190.753,-154.922 302.795,-185.052 100.544,-27.038 343.192,-27.409 445.801,-0.685 z m 572.191,4497.4509 v 2273.0601 h -778.351 -778.351 V 1451.557 -821.5034 h 778.351 778.351 z"
         id="path4543-4"
         inkscape:connector-curvature="0" /><path
         style="opacity:1;fill:#68b369;fill-opacity:1;fill-rule:nonzero;stroke:#03addb;stroke-width:13.77612114;stroke-opacity:1"
         d="m 2594.5785,-2666.9419 c -250.692,50.652 -387.762,292.755 -281.526,497.249 67.179,129.312 207.523,200.2481 370.564,187.301 221.137,-17.562 337.975,-174.92 296.294,-399.05 -38.366,-206.303 -196.697,-323.613 -385.332,-285.5 z"
         id="path4545-0"
         inkscape:connector-curvature="0" /></g></g></svg>