<?xml version="1.0" encoding="UTF-8" standalone="no"?>
<!-- Svg Vector Icons : http://www.onlinewebfonts.com/icon -->

<svg
   xmlns:dc="http://purl.org/dc/elements/1.1/"
   xmlns:cc="http://creativecommons.org/ns#"
   xmlns:rdf="http://www.w3.org/1999/02/22-rdf-syntax-ns#"
   xmlns:svg="http://www.w3.org/2000/svg"
   xmlns="http://www.w3.org/2000/svg"
   xmlns:sodipodi="http://sodipodi.sourceforge.net/DTD/sodipodi-0.dtd"
   xmlns:inkscape="http://www.inkscape.org/namespaces/inkscape"
   version="1.1"
   x="0px"
   y="0px"
   viewBox="0 0 1000 1000"
   enable-background="new 0 0 1000 1000"
   xml:space="preserve"
   id="svg6889"
   sodipodi:docname="topic.svg"
   inkscape:version="0.92.1 r15371"><defs
     id="defs6893" /><sodipodi:namedview
     pagecolor="#ffffff"
     bordercolor="#666666"
     borderopacity="1"
     objecttolerance="10"
     gridtolerance="10"
     guidetolerance="10"
     inkscape:pageopacity="0"
     inkscape:pageshadow="2"
     inkscape:window-width="1691"
     inkscape:window-height="1057"
     id="namedview6891"
     showgrid="false"
     inkscape:zoom="0.236"
     inkscape:cx="568.98218"
     inkscape:cy="-375.07165"
     inkscape:window-x="1912"
     inkscape:window-y="-8"
     inkscape:window-maximized="1"
     inkscape:current-layer="svg6889" /><metadata
     id="metadata6877"> Svg Vector Icons : http://www.onlinewebfonts.com/icon <rdf:RDF><cc:Work
     rdf:about=""><dc:format>image/svg+xml</dc:format><dc:type
       rdf:resource="http://purl.org/dc/dcmitype/StillImage" /><dc:title /></cc:Work></rdf:RDF></metadata><g
     id="g6887"><path
       d="M826.7,10H173.3C83.3,10,10,83.3,10,173.3v490c0,90.1,73.3,163.3,163.3,163.3h146.4L471.1,978c8,8,18.4,12,28.9,12c10.4,0,20.9-4,28.9-12l151.4-151.4h146.4c90.1,0,163.3-73.3,163.3-163.3v-490C990,83.3,916.7,10,826.7,10z M908.3,663.3c0,45-36.6,81.7-81.7,81.7H663.4c-0.7,0-1.4,0-2.1,0.1c-0.2,0-0.4,0-0.6,0c-0.5,0-0.9,0.1-1.4,0.1c-0.3,0-0.7,0.1-1,0.1c-0.3,0-0.6,0.1-1,0.1c-0.4,0.1-0.8,0.1-1.2,0.2c-0.3,0-0.5,0.1-0.8,0.1c-0.4,0.1-0.8,0.2-1.2,0.3c-0.2,0.1-0.5,0.1-0.7,0.2c-0.4,0.1-0.8,0.2-1.2,0.3c-0.2,0.1-0.5,0.1-0.7,0.2c-0.4,0.1-0.8,0.2-1.1,0.4c-0.3,0.1-0.5,0.2-0.8,0.3c-0.3,0.1-0.7,0.3-1,0.4c-0.3,0.1-0.6,0.2-0.9,0.3c-0.3,0.1-0.6,0.3-0.9,0.4s-0.6,0.3-0.9,0.4c-0.3,0.1-0.6,0.3-0.8,0.4c-0.3,0.2-0.6,0.3-1,0.5c-0.3,0.1-0.5,0.3-0.8,0.4c-0.3,0.2-0.6,0.4-1,0.6c-0.3,0.2-0.5,0.3-0.8,0.5c-0.3,0.2-0.6,0.4-0.9,0.6c-0.3,0.2-0.5,0.4-0.8,0.6c-0.3,0.2-0.5,0.4-0.8,0.6c-0.3,0.2-0.7,0.5-1,0.8c-0.2,0.2-0.4,0.3-0.6,0.5c-0.5,0.4-0.9,0.8-1.4,1.2c0,0-0.1,0.1-0.1,0.1c-0.6,0.5-1.1,1-1.6,1.5L500,891.4L365.6,757.1c-0.5-0.5-1.1-1-1.6-1.5c0,0-0.1-0.1-0.1-0.1c-0.5-0.4-0.9-0.8-1.4-1.2c-0.2-0.1-0.4-0.3-0.6-0.4c-0.3-0.3-0.7-0.5-1-0.8c-0.3-0.2-0.5-0.4-0.8-0.6c-0.3-0.2-0.5-0.4-0.8-0.6c-0.3-0.2-0.6-0.4-0.9-0.6c-0.3-0.2-0.5-0.3-0.8-0.5c-0.3-0.2-0.6-0.4-1-0.5c-0.3-0.1-0.5-0.3-0.8-0.4c-0.3-0.2-0.6-0.3-1-0.5c-0.3-0.1-0.6-0.3-0.8-0.4c-0.3-0.1-0.6-0.3-0.9-0.4c-0.3-0.1-0.6-0.3-0.9-0.4c-0.3-0.1-0.6-0.2-0.8-0.3c-0.3-0.1-0.7-0.3-1-0.4c-0.3-0.1-0.5-0.2-0.8-0.3c-0.4-0.1-0.8-0.3-1.1-0.4c-0.2-0.1-0.5-0.1-0.7-0.2c-0.4-0.1-0.8-0.2-1.2-0.3c-0.2-0.1-0.5-0.1-0.7-0.2c-0.4-0.1-0.8-0.2-1.2-0.3c-0.3-0.1-0.5-0.1-0.8-0.1c-0.4-0.1-0.8-0.1-1.2-0.2c-0.3,0-0.6-0.1-1-0.1c-0.3,0-0.7-0.1-1-0.1c-0.5,0-0.9-0.1-1.4-0.1c-0.2,0-0.4,0-0.6,0c-0.7,0-1.4-0.1-2.1-0.1H173.3c-45,0-81.7-36.6-81.7-81.7v-490c0-45,36.6-81.7,81.7-81.7h653.3c45,0,81.7,36.6,81.7,81.7V663.3z"
       id="path6879"
       style="stroke:#03addb;stroke-opacity:1;opacity:1;fill:#03addb;fill-opacity:1" /><path
       d="M745,214.2H255c-22.6,0-40.8,18.3-40.8,40.8c0,22.6,18.3,40.8,40.8,40.8h490c22.5,0,40.8-18.3,40.8-40.8C785.8,232.5,767.5,214.2,745,214.2z"
       id="path6881" /><path
       d="M255,459.2h285.8c22.5,0,40.8-18.3,40.8-40.8c0-22.6-18.3-40.8-40.8-40.8H255c-22.6,0-40.8,18.3-40.8,40.8C214.2,440.9,232.5,459.2,255,459.2z"
       id="path6883" /><path
       d="M663.3,540.8H255c-22.6,0-40.8,18.3-40.8,40.8c0,22.5,18.3,40.8,40.8,40.8h408.3c22.5,0,40.8-18.3,40.8-40.8C704.2,559.1,685.9,540.8,663.3,540.8z"
       id="path6885" /></g><path
     style="opacity:1;fill:#000000;fill-opacity:0;fill-rule:nonzero;stroke:none;stroke-width:2.99621511;stroke-opacity:1"
     d="M 435.71128,824.0983 C 400.1966,789.08576 367.42629,757.06841 362.88839,752.94862 l -8.25073,-7.49054 -100.88735,-1.49811 -100.88735,-1.49811 -15.33984,-8.09229 c -17.17361,-9.05966 -29.36208,-22.01398 -37.4914,-39.84715 -5.154807,-11.30802 -5.463351,-26.87551 -5.463351,-275.6518 0,-258.74688 0.113755,-263.91853 6.096141,-277.1499 7.46244,-16.50482 21.28987,-31.35211 37.21737,-39.96241 l 11.98486,-6.478926 344.39118,-0.798701 c 390.22293,-0.904993 362.6514,-2.547078 388.32612,23.127637 25.35589,25.3559 24.06643,8.3075 23.14225,305.97418 l -0.81332,261.95127 -6.62577,12.38771 c -8.96396,16.7593 -23.49869,30.74668 -39.78195,38.28384 -12.6739,5.86647 -19.40073,6.3043 -107.89736,7.02259 -51.90943,0.42129 -97.75152,1.52681 -101.87132,2.45665 -4.47317,1.00961 -35.88195,29.96518 -77.97182,71.88175 l -70.48132,70.19114 z M 681.48197,618.86334 c 22.17792,-11.30882 29.97938,-36.056 18.05495,-57.27265 -12.60622,-22.42976 -0.69878,-21.37335 -240.91257,-21.37335 -236.92025,0 -226.45611,-0.8281 -238.46785,18.87181 -12.48692,20.47922 -5.11921,48.39675 15.70243,59.49926 9.16285,4.88581 25.46166,5.28062 222.61798,5.39271 196.75737,0.11176 213.50274,-0.27236 223.00506,-5.11778 z M 563.58426,453.66963 c 25.03406,-15.26575 24.53903,-54.78811 -0.89509,-71.46091 -7.39029,-4.84454 -20.77723,-5.35631 -160.59079,-6.13928 -147.68113,-0.82702 -152.92452,-0.66241 -164.99278,5.17973 -15.78972,7.64368 -22.82023,19.40198 -22.82023,38.16614 0,16.51774 5.08762,25.62755 19.07605,34.1573 8.9238,5.44145 17.09176,5.72451 165.19118,5.72451 147.16223,0 156.31501,-0.31209 165.03166,-5.62749 z M 762.53303,292.27588 c 28.84619,-14.49283 32.01259,-56.40236 5.48341,-72.57676 -9.7439,-5.94069 -14.43088,-6.04703 -266.99226,-6.05804 -283.75991,-0.0123 -268.74539,-1.0206 -280.86768,18.86061 -12.48692,20.47923 -5.11921,48.39675 15.70243,59.49926 9.20656,4.90912 27.30376,5.2801 263.06688,5.39271 235.2085,0.11236 253.92034,-0.25093 263.60722,-5.11778 z"
     id="path4506"
     inkscape:connector-curvature="0" /><path
     style="opacity:1;fill:#ffffff;fill-opacity:1;fill-rule:nonzero;stroke:#000000;stroke-width:0;stroke-opacity:1;stroke-miterlimit:4;stroke-dasharray:none"
     d="M 440.53986,826.32559 C 407.94161,793.45123 373.8338,761.03402 364.74473,754.28741 L 348.21914,742.0208 h -94.83932 c -116.37882,0 -130.03019,-3.93466 -150.10277,-43.26339 C 95.655551,683.8244 95.253364,669.68868 95.253364,416.748 V 150.45962 l 12.231286,-19.28674 c 8.13046,-12.82039 18.52356,-22.33277 30.99883,-28.37195 18.7137,-9.059144 19.75075,-9.085212 361.4309,-9.085212 341.68017,0 342.7172,0.02606 361.43089,9.085212 12.4753,6.03918 22.86839,15.55156 30.99886,28.37195 l 12.23127,19.28674 V 416.748 c 0,252.94068 -0.40212,267.0764 -8.02369,282.00941 -20.06178,39.30759 -33.75839,43.26339 -149.79572,43.26339 -80.46873,0 -96.09085,1.03229 -105.00894,6.93894 -5.7622,3.8164 -40.05542,36.2336 -76.2072,72.03818 L 499.80941,886.0972 Z M 693.03692,610.9908 c 20.29212,-20.29207 13.85204,-56.9844 -11.87178,-67.63957 -8.70847,-3.60716 -70.86707,-4.63005 -229.38253,-3.77479 l -217.43708,1.17318 -10.22405,11.88881 c -15.00452,17.44771 -14.09121,42.09932 2.16187,58.35237 l 12.38592,12.38593 H 459.66014 680.65103 Z M 559.06824,455.79965 c 26.03407,-12.35396 31.58572,-45.30132 11.08733,-65.79971 L 557.76968,377.61402 H 397.00458 236.2395 l -11.17103,11.17104 c -12.15528,12.15527 -15.23357,36.87993 -6.60012,53.01168 10.05832,18.79413 22.59131,20.22139 179.11074,20.39719 124.7647,0.14013 149.8086,-0.8515 161.48915,-6.39428 z M 773.5454,284.71963 c 16.25432,-16.25433 17.16665,-40.90561 2.15957,-58.35237 L 765.47866,214.47843 H 499.91438 234.35011 l -10.22634,11.88883 c -15.00708,17.44676 -14.09475,42.09804 2.15958,58.35237 l 12.38592,12.38592 h 261.24511 261.24513 z"
     id="path4487"
     inkscape:connector-curvature="0" /><path
     style="opacity:1;fill:#ffffff;fill-opacity:1;fill-rule:nonzero;stroke:#000000;stroke-width:0;stroke-miterlimit:4;stroke-dasharray:none;stroke-opacity:1"
     d="M 453.23195,839.06279 C 427.6361,813.1986 393.77432,780.78334 377.98355,767.0289 l -28.71049,-25.0081 h -95.36628 c -116.96493,0 -130.53876,-3.89864 -150.62973,-43.26339 C 95.655551,683.8244 95.253364,669.68868 95.253364,416.748 V 150.45962 l 12.231286,-19.28674 c 8.16506,-12.87496 18.5206,-22.33134 31.14962,-28.44494 l 18.91833,-9.158208 347.33969,1.132315 347.33972,1.132315 17.61339,11.657268 c 9.68737,6.4115 21.46466,19.2063 26.17174,28.43289 8.31631,16.30138 8.55826,24.273 8.55826,281.98536 0,283.84787 0.53322,276.08842 -20.62809,300.18033 -17.60543,20.0436 -26.95933,21.70102 -135.05581,23.93059 l -102.7178,2.11865 -71.05644,70.97457 c -39.08106,39.03602 -72.02191,70.97458 -73.20193,70.97458 -1.18001,0 -23.08753,-21.16161 -48.68338,-47.02581 z M 684.47112,619.01385 c 9.72199,-5.20305 20.95174,-25.57572 20.95174,-38.01 0,-17.2622 -12.07128,-33.37156 -28.62636,-38.2025 -10.81547,-3.15606 -83.75394,-4.21936 -229.15814,-3.34067 l -213.29298,1.28894 -10.22397,11.88881 c -15.00444,17.44775 -14.0911,42.09936 2.16194,58.35237 l 12.38592,12.38593 h 218.82485 c 141.98018,0 221.68763,-1.53211 226.977,-4.36288 z M 570.18188,446.4031 c 16.89115,-18.9116 16.88157,-39.49531 -0.0254,-56.40316 l -12.3868,-12.38592 H 396.80344 235.83721 l -10.96989,13.03697 c -20.09851,23.88573 -11.4772,58.69313 16.67389,67.31859 6.93575,2.1251 80.93634,3.50557 164.44575,3.06769 l 151.8353,-0.79613 z M 773.5454,284.71963 c 16.25432,-16.25433 17.16665,-40.90561 2.15957,-58.35237 L 765.47866,214.47843 H 499.91438 234.35011 l -10.22634,11.88883 c -15.00708,17.44676 -14.09475,42.09804 2.15958,58.35237 l 12.38592,12.38592 h 261.24511 261.24513 z"
     id="path4489"
     inkscape:connector-curvature="0" /></svg>