<?xml version="1.0" encoding="utf-8"?>
<!-- Generator: Adobe Illustrator 14.0.0, SVG Export Plug-In . SVG Version: 6.00 Build 43363)  -->
<!DOCTYPE svg PUBLIC "-//W3C//DTD SVG 1.1//EN" "http://www.w3.org/Graphics/SVG/1.1/DTD/svg11.dtd">
<svg version="1.1" id="Layer_1" xmlns="http://www.w3.org/2000/svg" xmlns:xlink="http://www.w3.org/1999/xlink" x="0px" y="0px"
	 width="32px" height="32px" viewBox="0 0 32 32" enable-background="new 0 0 32 32" xml:space="preserve">
<g id="g2880_3_">
	<path id="path5812_12_" fill="#231F20" d="M0,24.93l0.073-0.875c0.409-4.902,5.204-8.742,10.913-8.742
		c5.707,0,10.5,3.84,10.908,8.742l0.074,0.875H0z"/>
	<path id="path5814_12_" fill="#03ADDB" d="M21.09,24.121c-0.373-4.469-4.748-8-10.104-8c-5.358,0-9.731,3.531-10.106,8H21.09z"/>
	
		<linearGradient id="path5823_1_" gradientUnits="userSpaceOnUse" x1="562.4404" y1="-916.6406" x2="580.7686" y2="-916.6406" gradientTransform="matrix(1 0 0 -1 -560.6201 -896.5195)">
		<stop  offset="0" style="stop-color:#B2D3DC"/>
		<stop  offset="1" style="stop-color:#157DA0"/>
	</linearGradient>
	<path id="path5823_12_" fill="url(#path5823_1_)" d="M1.82,23.313c0.809-3.643,4.648-6.383,9.166-6.383s8.355,2.74,9.162,6.383
		H1.82z"/>
	<path id="path5827_10_" fill="#231F20" d="M9.504,23.979c-0.447,0-0.811-0.361-0.811-0.813v-5.938c0-0.445,0.361-0.809,0.811-0.809
		h2.602c0.447,0,0.809,0.359,0.809,0.809v5.938c0,0.449-0.359,0.813-0.809,0.813H9.504z"/>
	<rect id="rect5829_10_" x="9.504" y="17.23" fill="#FBA91F" width="2.602" height="5.938"/>
	<rect id="rect5831_10_" x="9.027" y="19.137" fill="#231F20" width="3.712" height="0.984"/>
	<path id="path5835_15_" fill="#231F20" d="M10.986,18.039c-3.794,0-7.109-2.557-8.109-6.161c-1.033-0.229-1.809-1.154-1.809-2.254
		c0-1.103,0.773-2.025,1.809-2.254c0.998-3.606,4.313-6.163,8.109-6.163c3.793,0,7.107,2.557,8.107,6.163
		C20.125,7.599,20.9,8.521,20.9,9.624c0,1.1-0.773,2.022-1.807,2.254C18.094,15.484,14.779,18.039,10.986,18.039L10.986,18.039z"/>
	<path id="path5837_15_" fill="#F0DBCB" d="M18.592,9.624c0,4.2-3.406,7.604-7.605,7.604c-4.201,0-7.607-3.404-7.607-7.604
		c0-4.202,3.406-7.606,7.607-7.606C15.186,2.016,18.592,5.421,18.592,9.624z"/>
	<circle id="circle5839_15_" fill="#F0DBCB" cx="3.379" cy="9.624" r="1.5"/>
	<circle id="circle5841_15_" fill="#F0DBCB" cx="18.592" cy="9.624" r="1.5"/>
	
		<linearGradient id="path5850_1_" gradientUnits="userSpaceOnUse" x1="564.8076" y1="-906.1426" x2="578.4014" y2="-906.1426" gradientTransform="matrix(1 0 0 -1 -560.6201 -896.5195)">
		<stop  offset="0" style="stop-color:#E2B69D;stop-opacity:0"/>
		<stop  offset="1" style="stop-color:#E2B69D"/>
	</linearGradient>
	<path id="path5850_15_" fill="url(#path5850_1_)" d="M10.986,16.42c-3.75,0-6.799-3.05-6.799-6.796c0-3.749,3.05-6.798,6.799-6.798
		c3.746,0,6.795,3.05,6.795,6.798C17.781,13.37,14.732,16.42,10.986,16.42L10.986,16.42z"/>
	<path id="path5852_15_" fill="#231F20" d="M3.539,8.184c-0.066,0.766,0.102,2.272,0.247,3.016C3.778,10.266,3.642,8.744,4.08,7.924
		c0.61-1.145,7.115,0.219,9.551-4.699c-0.1,1.434-0.33,2.749,3.664,5.646c0.207,0.148,1.119,2.465,1.058,2.654
		c-0.063-0.601,0.256-2.107,0.252-2.738c-0.013-1.311-0.142-2.161-0.541-2.754c-0.455-0.672-1.617-1.953-2.201-2.524
		c-1.994-1.954-5.104-2.378-7.724-1.426C6.781,2.574,5.895,3.665,4.965,4.568C4.592,4.931,2.547,7.767,3.356,8.001"/>
	<path id="path5854_15_" fill="#231F20" d="M13.172,1.816c0-0.605,0-1.211-0.004-1.816c0.566,1.509,0.924,1.695,2.094,0.863
		c-0.409,0.908-0.446,1.23-0.446,1.23c0.625-0.279,0.576-0.354,1.262-0.309C15.75,1.929,15.17,2.33,14.879,2.54
		c0,0.108-0.281-0.117-0.299-0.007c-0.834-0.532-0.209-0.383-1.226-0.625"/>
</g>
<g>
	<path fill="#FFFFFF" d="M6.696,32c-0.554,0-1.017-0.137-1.373-0.404c-0.44-0.336-0.681-0.807-0.681-1.329
		c0-0.482,0.202-0.915,0.568-1.218c0.308-0.256,0.707-0.389,1.179-0.389c0.144,0,0.34,0.015,0.601,0.047
		c0.305,0.04,0.595,0.061,0.866,0.061c0.152,0,0.247-0.019,0.294-0.031c0.055-0.1,0.199-0.407,0.392-1.188l1.181-4.746H9.339
		c-0.338,0-0.654-0.153-0.864-0.42c-0.212-0.274-0.282-0.619-0.199-0.947l0.135-0.531c0.122-0.486,0.56-0.826,1.063-0.826h0.94
		c0.272-0.959,0.578-1.704,0.929-2.268c0.47-0.757,1.097-1.367,1.863-1.81c0.776-0.449,1.54-0.675,2.271-0.675
		c0.551,0,1.008,0.137,1.359,0.409c0.426,0.333,0.659,0.792,0.659,1.295c0,0.445-0.176,0.859-0.494,1.164
		c-0.317,0.301-0.721,0.457-1.172,0.457c-0.186,0-0.477-0.022-1.222-0.182c-0.102-0.021-0.177-0.035-0.229-0.041
		c-0.02,0.021-0.045,0.055-0.075,0.101c-0.189,0.292-0.358,0.741-0.488,1.299l-0.059,0.251h0.599c0.336,0,0.648,0.15,0.856,0.412
		c0.209,0.26,0.287,0.599,0.212,0.927l-0.119,0.529c-0.115,0.505-0.555,0.856-1.071,0.856h-1.149l-0.966,3.939
		c-0.417,1.656-1.11,2.947-2.064,3.838C9.047,31.522,7.918,32,6.696,32L6.696,32z"/>
	<path fill="#010101" d="M6.696,31.349c-0.411,0-0.74-0.092-0.982-0.272c-0.349-0.267-0.42-0.588-0.42-0.81
		c0-0.288,0.113-0.536,0.331-0.714c0.192-0.16,0.45-0.241,0.766-0.241c0.124,0,0.294,0.015,0.519,0.043
		c0.331,0.042,0.65,0.063,0.947,0.063c0.251,0,0.587-0.036,0.757-0.213c0.077-0.078,0.284-0.383,0.561-1.5l1.382-5.553H9.339
		c-0.138,0-0.268-0.064-0.353-0.172c-0.084-0.11-0.113-0.252-0.079-0.385l0.135-0.531c0.049-0.198,0.227-0.336,0.431-0.336h1.439
		c0.287-1.133,0.61-1.978,0.982-2.574c0.413-0.664,0.965-1.201,1.638-1.59c0.676-0.39,1.329-0.587,1.944-0.587
		c0.404,0,0.728,0.091,0.961,0.271c0.335,0.261,0.405,0.568,0.405,0.78c0,0.27-0.102,0.511-0.293,0.695
		c-0.19,0.18-0.438,0.273-0.721,0.273c-0.134,0-0.392-0.018-1.084-0.166c-0.254-0.055-0.396-0.065-0.468-0.065
		c-0.168,0-0.342,0.137-0.519,0.407c-0.234,0.36-0.428,0.867-0.577,1.508l-0.247,1.047h1.421c0.135,0,0.264,0.061,0.347,0.168
		c0.086,0.105,0.117,0.242,0.088,0.375l-0.12,0.531c-0.046,0.203-0.225,0.348-0.436,0.348h-1.66l-1.089,4.436
		c-0.384,1.531-1.015,2.714-1.875,3.518C8.727,30.931,7.748,31.349,6.696,31.349L6.696,31.349z"/>
	<path fill="#FFFFFF" d="M16.85,31.989c-0.292,0-0.723-0.108-1.112-0.622c-0.484-0.626-0.898-1.488-1.228-2.559
		c-0.327-1.05-0.493-2.107-0.493-3.143c0-1.354,0.241-2.65,0.717-3.853c0.46-1.161,1.065-2.257,1.799-3.253
		c0.759-1.035,1.699-1.913,2.792-2.606c0.723-0.457,1.117-0.62,1.506-0.62c0.717,0,1.256,0.543,1.256,1.263
		c0,0.317-0.123,0.9-0.941,1.243c-0.006,0.003-0.292,0.139-1.158,0.987c-0.618,0.605-1.147,1.291-1.576,2.041
		c-0.432,0.758-0.787,1.631-1.058,2.597c-0.266,0.952-0.399,1.884-0.399,2.77c0,0.548,0.035,1.039,0.105,1.461
		c0.066,0.413,0.166,0.796,0.295,1.138c0.295,0.785,0.443,1.066,0.494,1.15c0.108,0.189,0.229,0.438,0.229,0.75
		C18.076,31.439,17.537,31.989,16.85,31.989L16.85,31.989z"/>
	<path fill="#010101" d="M16.85,31.337c-0.319,0-0.526-0.272-0.594-0.362c-0.437-0.567-0.816-1.361-1.124-2.357
		c-0.307-0.988-0.462-1.98-0.462-2.949c0-1.271,0.226-2.488,0.671-3.613c0.439-1.107,1.016-2.154,1.718-3.108
		c0.712-0.972,1.592-1.792,2.617-2.44c0.68-0.43,0.953-0.518,1.156-0.518c0.352,0,0.605,0.257,0.605,0.611
		c0,0.274-0.183,0.491-0.545,0.643c-0.139,0.061-0.51,0.289-1.361,1.123c-0.66,0.646-1.229,1.381-1.686,2.184
		c-0.458,0.804-0.835,1.727-1.119,2.743c-0.28,1.011-0.424,2.001-0.424,2.946c0,0.577,0.038,1.104,0.113,1.565
		c0.074,0.455,0.184,0.88,0.327,1.261c0.286,0.759,0.454,1.102,0.546,1.256c0.096,0.167,0.137,0.291,0.137,0.416
		C17.425,31.084,17.183,31.337,16.85,31.337L16.85,31.337z"/>
	<path fill="#FFFFFF" d="M24.23,30.615c-0.704,0-1.377-0.219-1.997-0.648c-0.595-0.41-1.099-1.044-1.497-1.885
		c-0.147-0.307-0.286-0.675-0.418-1.107c-0.283,0.326-0.533,0.566-0.758,0.732c-0.535,0.395-1.086,0.596-1.639,0.596
		c-0.479,0-0.911-0.153-1.253-0.441c-0.391-0.33-0.608-0.783-0.608-1.277c0-0.416,0.151-0.801,0.436-1.108
		c0.3-0.325,0.703-0.505,1.136-0.505c0.205,0,0.47,0.045,0.748,0.211c0.219-0.243,0.382-0.445,0.487-0.604l0.666-0.982l-0.108-0.49
		c-0.179,0.124-0.394,0.191-0.619,0.191c-0.025,0-0.098-0.003-0.123-0.006c-0.299-0.029-0.583-0.193-0.767-0.446l-0.219-0.304
		c-0.331-0.457-0.252-1.107,0.18-1.476c0.586-0.497,1.117-0.874,1.58-1.121c0.434-0.237,0.777-0.345,1.107-0.345
		c0.574,0,1.083,0.298,1.394,0.814c0.003,0.006,0.009,0.012,0.012,0.018c0.181-0.176,0.355-0.326,0.529-0.452
		c0.678-0.487,1.277-0.727,1.837-0.727c0.444,0,0.854,0.161,1.157,0.452c0.313,0.303,0.482,0.707,0.482,1.144
		c0,0.51-0.244,0.976-0.668,1.277c-0.294,0.208-0.666,0.305-1.378,0.353c-0.146,0.008-0.243,0.043-0.335,0.118
		c-0.266,0.219-0.536,0.535-0.804,0.942l0.386,1.807c0.234,1.119,0.437,1.675,0.563,1.943c0.089,0.186,0.185,0.343,0.284,0.471
		c0.439-0.695,1.098-0.754,1.314-0.754c0.409,0,0.79,0.172,1.072,0.482c0.264,0.292,0.4,0.654,0.4,1.049
		c0,0.344-0.113,1.005-0.865,1.558C25.481,30.44,24.903,30.615,24.23,30.615L24.23,30.615z"/>
	<path fill="#010101" d="M24.23,29.964c-0.567,0-1.115-0.179-1.625-0.532c-0.502-0.346-0.933-0.895-1.28-1.628
		c-0.255-0.532-0.487-1.282-0.708-2.271c-0.607,0.842-1.08,1.383-1.442,1.65c-0.421,0.312-0.843,0.469-1.253,0.469
		c-0.325,0-0.605-0.096-0.831-0.287c-0.247-0.207-0.377-0.477-0.377-0.78c0-0.249,0.09-0.481,0.262-0.665
		c0.178-0.193,0.405-0.297,0.656-0.297c0.272,0,0.522,0.143,0.746,0.424c0.008,0.012,0.017,0.019,0.022,0.027
		c0.041-0.029,0.154-0.119,0.361-0.343c0.286-0.311,0.505-0.575,0.646-0.787l0.823-1.212l-0.267-1.212
		c-0.059-0.282-0.109-0.43-0.137-0.501c-0.011,0.006-0.02,0.012-0.031,0.019c-0.266,0.148-0.494,0.313-0.691,0.491
		c-0.083,0.076-0.189,0.117-0.3,0.117c-0.017,0-0.032-0.002-0.047-0.004c-0.127-0.013-0.24-0.079-0.315-0.182l-0.215-0.301
		c-0.138-0.188-0.105-0.448,0.072-0.599c0.551-0.468,1.043-0.819,1.463-1.043c0.34-0.187,0.588-0.269,0.802-0.269
		c0.346,0,0.644,0.176,0.837,0.499c0.085,0.14,0.2,0.379,0.339,0.921c0.41-0.52,0.788-0.906,1.144-1.163
		c0.56-0.405,1.035-0.601,1.453-0.601c0.278,0,0.523,0.092,0.706,0.268c0.186,0.18,0.284,0.414,0.284,0.675
		c0,0.3-0.141,0.565-0.396,0.747c-0.151,0.108-0.387,0.188-1.043,0.232c-0.277,0.016-0.506,0.102-0.705,0.266
		c-0.369,0.302-0.731,0.746-1.084,1.321l0.443,2.067c0.196,0.943,0.402,1.646,0.61,2.086c0.195,0.409,0.428,0.723,0.695,0.933
		c0.106,0.085,0.213,0.122,0.339,0.122c0.053,0,0.168,0,0.277-0.293c0.23-0.607,0.688-0.672,0.875-0.672
		c0.227,0,0.431,0.094,0.591,0.27c0.15,0.166,0.229,0.377,0.229,0.609c0,0.271-0.104,0.67-0.596,1.033
		C25.207,29.832,24.758,29.964,24.23,29.964L24.23,29.964z"/>
	<path fill="#FFFFFF" d="M25.186,31.979c-0.703,0-1.254-0.555-1.254-1.263c0-0.259,0.092-0.901,0.948-1.254
		c0.002-0.001,0.282-0.137,1.15-0.985c0.618-0.604,1.149-1.291,1.578-2.042c0.431-0.757,0.787-1.629,1.056-2.591
		c0.266-0.954,0.4-1.887,0.4-2.771c0-0.541-0.035-1.032-0.105-1.462c-0.068-0.417-0.168-0.799-0.295-1.131
		c-0.298-0.791-0.444-1.07-0.494-1.154c-0.099-0.171-0.229-0.428-0.229-0.747c0.002-0.786,0.623-1.254,1.226-1.254
		c0.425,0,0.799,0.207,1.112,0.617c0.484,0.625,0.9,1.487,1.23,2.559C31.837,19.554,32,20.61,32,21.643
		c0,1.359-0.242,2.657-0.718,3.857c-0.456,1.154-1.063,2.247-1.797,3.25c-0.762,1.039-1.7,1.914-2.795,2.604
		C25.974,31.813,25.578,31.979,25.186,31.979L25.186,31.979z"/>
	<path fill="#010101" d="M25.186,31.326c-0.349,0-0.603-0.256-0.603-0.61c0-0.195,0.094-0.466,0.546-0.651
		c0.137-0.059,0.501-0.285,1.357-1.123c0.663-0.646,1.23-1.38,1.688-2.184c0.456-0.801,0.833-1.725,1.117-2.74
		c0.282-1.011,0.426-2.001,0.426-2.944c0-0.571-0.037-1.099-0.114-1.566c-0.076-0.454-0.185-0.88-0.33-1.259
		c-0.285-0.762-0.451-1.103-0.543-1.255c-0.092-0.16-0.137-0.287-0.137-0.414c0-0.396,0.289-0.602,0.572-0.602
		c0.319,0,0.526,0.272,0.595,0.363c0.439,0.564,0.818,1.359,1.126,2.355c0.306,0.986,0.462,1.979,0.462,2.947
		c0,1.277-0.227,2.494-0.673,3.617c-0.436,1.102-1.012,2.146-1.715,3.105c-0.713,0.973-1.593,1.791-2.616,2.436
		C25.665,31.236,25.392,31.326,25.186,31.326L25.186,31.326z"/>
</g>
</svg>
