<?xml version="1.0" encoding="utf-8"?>
<!-- Generator: Adobe Illustrator 15.0.0, SVG Export Plug-In . SVG Version: 6.00 Build 0)  -->
<!DOCTYPE svg PUBLIC "-//W3C//DTD SVG 1.1//EN" "http://www.w3.org/Graphics/SVG/1.1/DTD/svg11.dtd">
<svg version="1.1"
	 id="svg3488" xmlns:dc="http://purl.org/dc/elements/1.1/" xmlns:cc="http://creativecommons.org/ns#" xmlns:rdf="http://www.w3.org/1999/02/22-rdf-syntax-ns#" xmlns:svg="http://www.w3.org/2000/svg" xmlns:sodipodi="http://sodipodi.sourceforge.net/DTD/sodipodi-0.dtd" xmlns:inkscape="http://www.inkscape.org/namespaces/inkscape" inkscape:output_extension="org.inkscape.output.svg.inkscape" sodipodi:version="0.32" inkscape:version="0.46" sodipodi:docname="stack.svg" sodipodi:docbase="C:\Radix\dev\trunk\org.radixware\kernel\designer\src\common.resources\src\org\radixware\kernel\designer\resources\icons\check"
	 xmlns="http://www.w3.org/2000/svg" xmlns:xlink="http://www.w3.org/1999/xlink" x="0px" y="0px" width="32px" height="32px"
	 viewBox="0 0 32 32" enable-background="new 0 0 32 32" xml:space="preserve">
<defs>
	
	
		<inkscape:perspective  id="perspective29" sodipodi:type="inkscape:persp3d" inkscape:vp_y="0 : 1000 : 0" inkscape:vp_x="0 : 16 : 1" inkscape:vp_z="32 : 16 : 1" inkscape:persp3d-origin="16 : 10.666667 : 1">
		</inkscape:perspective>
</defs>
<sodipodi:namedview  id="base" inkscape:cy="16" inkscape:cx="15.957895" inkscape:zoom="23.75" guidetolerance="10" showgrid="false" gridtolerance="10000" objecttolerance="10" borderopacity="1.0" bordercolor="#666666" pagecolor="#ffffff" inkscape:window-y="25" inkscape:window-x="50" inkscape:window-height="944" inkscape:window-width="1280" inkscape:pageshadow="2" inkscape:pageopacity="0.0" inkscape:current-layer="layer1" inkscape:document-units="px">
	</sodipodi:namedview>
<g>
	<path d="M7,7C6.448,7,6,6.552,6,6V1c0-0.552,0.448-1,1-1h24c0.553,0,1,0.448,1,1v5c0,0.552-0.447,1-1,1H7z"/>
	<rect x="7" y="1" fill="#ED2526" width="24" height="5"/>
	<linearGradient id="SVGID_1_" gradientUnits="userSpaceOnUse" x1="8.001" y1="3.5" x2="30" y2="3.5">
		<stop  offset="0" style="stop-color:#F59699"/>
		<stop  offset="1" style="stop-color:#8F1A1D"/>
	</linearGradient>
	<rect x="8.001" y="2" fill="url(#SVGID_1_)" width="21.999" height="3"/>
</g>
<g>
	<path d="M10.833,19.5c-0.552,0-1-0.447-1-1v-5c0-0.552,0.448-1,1-1H31c0.553,0,1,0.448,1,1v5c0,0.553-0.447,1-1,1H10.833z"/>
	<rect x="10.833" y="13.5" fill="#ED2526" width="20.167" height="5"/>
	<linearGradient id="SVGID_2_" gradientUnits="userSpaceOnUse" x1="11.8345" y1="16" x2="30" y2="16">
		<stop  offset="0" style="stop-color:#F59699"/>
		<stop  offset="1" style="stop-color:#8F1A1D"/>
	</linearGradient>
	<rect x="11.834" y="14.5" fill="url(#SVGID_2_)" width="18.166" height="3"/>
</g>
<g>
	<path d="M15.999,32c-0.552,0-1-0.447-1-1v-5c0-0.553,0.448-1,1-1H31c0.553,0,1,0.447,1,1v5c0,0.553-0.447,1-1,1H15.999z"/>
	<rect x="15.999" y="26" fill="#ED2526" width="15.001" height="5"/>
	<linearGradient id="SVGID_3_" gradientUnits="userSpaceOnUse" x1="17" y1="28.5" x2="30" y2="28.5">
		<stop  offset="0" style="stop-color:#F59699"/>
		<stop  offset="1" style="stop-color:#8F1A1D"/>
	</linearGradient>
	<rect x="17" y="27" fill="url(#SVGID_3_)" width="13" height="3"/>
</g>
<g>
	<g>
		<path fill="none" stroke="#000000" stroke-miterlimit="10" d="M7.173,14.384c-4.176-0.379-5.34-1.707-5.34-4.301
			C1.833,6.582,2.5,3.5,6.335,3.5"/>
		<g>
			<polygon points="10,14.5 6.113,12.663 6.969,14.337 5.939,15.91 			"/>
		</g>
	</g>
</g>
<g>
	<g>
		<path fill="none" stroke="#000000" stroke-miterlimit="10" d="M12.801,28.381c-6.125-0.566-7.219-3.074-7.051-5.797
			C5.917,19.896,5.998,17.5,9.833,17.5"/>
		<g>
			<polygon points="15.625,28.5 11.736,26.667 12.594,28.341 11.565,29.915 			"/>
		</g>
	</g>
</g>
</svg>
