<?xml version="1.0" encoding="UTF-8" standalone="no"?>
<svg
   xmlns:dc="http://purl.org/dc/elements/1.1/"
   xmlns:cc="http://creativecommons.org/ns#"
   xmlns:rdf="http://www.w3.org/1999/02/22-rdf-syntax-ns#"
   xmlns:svg="http://www.w3.org/2000/svg"
   xmlns="http://www.w3.org/2000/svg"
   xmlns:xlink="http://www.w3.org/1999/xlink"
   xml:space="preserve"
   enable-background="new 0 0 32 32"
   viewBox="0 0 32 32"
   height="32px"
   width="32px"
   y="0px"
   x="0px"
   id="Layer_1"
   version="1.1"><metadata
     id="metadata23"><rdf:RDF><cc:Work
         rdf:about=""><dc:format>image/svg+xml</dc:format><dc:type
           rdf:resource="http://purl.org/dc/dcmitype/StillImage" /><dc:title></dc:title></cc:Work></rdf:RDF></metadata><defs
     id="defs21"><linearGradient
       y2="18.8613"
       x2="29.9795"
       y1="18.8613"
       x1="3.2598"
       gradientUnits="userSpaceOnUse"
       id="linearGradient2835-5"
       xlink:href="#SVGID_1_-2"
       gradientTransform="matrix(0.55084276,0,0,0.55084276,14.406947,17.352381)" /><linearGradient
       id="SVGID_1_-2"
       gradientUnits="userSpaceOnUse"
       x1="3.2598"
       y1="18.8613"
       x2="29.9795"
       y2="18.8613"><stop
         offset="0"
         style="stop-color:#A46829"
         id="stop10" /><stop
         offset="0.5394"
         style="stop-color:#FAA81D"
         id="stop12" /><stop
         offset="1"
         style="stop-color:#FFF3E2"
         id="stop14-1" /></linearGradient><linearGradient
       y2="18.8613"
       x2="29.9795"
       y1="18.8613"
       x1="3.2598"
       gradientUnits="userSpaceOnUse"
       id="linearGradient2835"
       xlink:href="#linearGradient4404"
       gradientTransform="matrix(0.55084276,0,0,0.55084276,0.01046897,-2.9772572)" /><linearGradient
       y2="18.8613"
       x2="29.9795"
       y1="18.8613"
       x1="3.2598"
       gradientUnits="userSpaceOnUse"
       id="linearGradient4404"><stop
         id="stop4406"
         style="stop-color:#2932cf;stop-opacity:1"
         offset="0" /><stop
         id="stop4408"
         style="stop-color:#2964dc;stop-opacity:1"
         offset="0.5394" /><stop
         id="stop4410"
         style="stop-color:#b8f8f3;stop-opacity:1"
         offset="1" /></linearGradient></defs><linearGradient
     gradientTransform="matrix(1 0 0 1 -563.0801 -809.6797)"
     y2="820.6543"
     x2="577.8887"
     y1="820.6543"
     x1="565.3936"
     gradientUnits="userSpaceOnUse"
     id="path4246_1_"><stop
       id="stop6"
       style="stop-color:#B2D78E"
       offset="0" /><stop
       id="stop8"
       style="stop-color:#219146"
       offset="1" /></linearGradient><linearGradient
     gradientTransform="matrix(0.23747948,-0.70891643,0.70891643,0.23747948,-712.89869,232.84971)"
     y2="830.708"
     x2="592.7666"
     y1="830.708"
     x1="580.2715"
     gradientUnits="userSpaceOnUse"
     id="path4246_2_"><stop
       id="stop14"
       style="stop-color:#B2D78E"
       offset="0" /><stop
       id="stop16"
       style="stop-color:#219146"
       offset="1" /></linearGradient><path
     d="M 31.899509,24.027493 C 31.699552,23.681013 31.308454,23.48271 30.826466,23.48271 l -2.955271,0 0,-0.26771 c 0,-0.943042 -0.767324,-1.709815 -1.709815,-1.709815 l -4.981271,0 -0.065,-0.120635 c -0.237413,-0.445632 -0.56186,-1.054313 -1.388675,-1.054313 l -1.668502,0 c -0.8494,0 -1.182108,0.616944 -1.469649,1.150711 l -0.01267,0.02369 -0.45885,0 c -0.942493,0 -1.709817,0.767324 -1.709817,1.710366 l 0,7.061805 c 0,0.951306 0.767324,1.724688 1.709817,1.724688 l 0.179574,0 9.864491,0 0.371268,0 c 0.787155,0 1.677869,-0.513385 2.072822,-1.194227 l 3.229591,-5.577834 c 0.240719,-0.417539 0.264405,-0.855458 0.065,-1.201939 z"
     id="path5-5"
     style="fill:#231f20" /><path
     id="rect5504-6"
     nodetypes="ccccccccccccccccc"
     d="m 18.057932,20.88108 c -0.536522,0 -0.732069,0.393852 -0.986559,0.865374 l -0.170211,0.309022 -0.784399,0 c -0.645038,0 -1.158974,0.513937 -1.158974,1.159524 l 0,7.061806 c 0,0.645587 0.513936,1.173845 1.158974,1.173845 l 10.044066,0 c 0.645036,0 1.158973,-0.528258 1.158973,-1.173845 l 0,-7.061806 c 0,-0.645587 -0.513937,-1.158973 -1.158973,-1.158973 l -5.30737,0 -0.170211,-0.309022 c -0.255039,-0.471522 -0.421946,-0.865374 -0.957363,-0.865374 l -0.46326,0 -0.740884,0 -0.463809,0 z"
     style="fill:#a46929" /><path
     id="rect5498-4"
     d="m 20.590707,24.033553 10.235759,0 c 0.587199,0 0.824613,0.41203 0.531014,0.919907 l -3.229041,5.578386 c -0.29415,0.506776 -1.008592,0.918805 -1.595791,0.918805 l -10.23576,0 c -0.587198,0 -0.824612,-0.412029 -0.530462,-0.918805 l 3.22849,-5.578386 c 0.293599,-0.507877 1.008593,-0.919907 1.595791,-0.919907 z"
     style="fill:#faa81d" /><path
     d="m 16.296888,30.899809 c -0.03966,0 -0.07105,-0.0033 -0.09419,-0.0077 0.0083,-0.02147 0.02039,-0.05068 0.04022,-0.08373 l 3.22849,-5.578937 c 0.195548,-0.337116 0.728213,-0.645037 1.11876,-0.645037 l 10.235761,0 c 0.03966,0 0.07105,0.0039 0.09475,0.0083 -0.0083,0.02203 -0.02039,0.05123 -0.04076,0.08538 l -3.227939,5.577284 c -0.195549,0.337667 -0.729316,0.644485 -1.119312,0.644485 l -10.235761,0 z"
     id="path16-7"
     style="fill:url(#linearGradient2835-5)" /><g
     id="layer4"><path
       d="m 17.503031,3.6978552 c -0.199957,-0.346481 -0.591055,-0.544784 -1.073043,-0.544784 l -2.955271,0 0,-0.267709 c 0,-0.9430434 -0.767324,-1.7098164 -1.709815,-1.7098164 l -4.981271,0 -0.065,-0.120635 C 6.481218,0.6092788 6.156771,5.9779608e-4 5.329956,5.9779608e-4 l -1.668502,0 c -0.8494,0 -1.182108,0.61694400392 -1.469649,1.15071100392 l -0.01267,0.02369 -0.45885,0 c -0.94249304,0 -1.70981703,0.767324 -1.70981703,1.7103664 l 0,7.061805 c 0,0.9513068 0.76732399,1.7246888 1.70981703,1.7246888 l 0.179574,0 9.864491,0 0.371268,0 c 0.787155,0 1.677869,-0.513385 2.072822,-1.194227 l 3.229591,-5.5778348 c 0.240719,-0.417539 0.264405,-0.855458 0.065,-1.201939 z"
       id="path5"
       style="fill:#231f20" /><path
       id="rect5504"
       nodetypes="ccccccccccccccccc"
       d="m 3.661454,0.5514408 c -0.536522,0 -0.732069,0.393852 -0.986559,0.865374 l -0.170211,0.309023 -0.784399,0 c -0.645038,0 -1.15897403,0.513936 -1.15897403,1.1595244 l 0,7.061805 c 0,0.6455878 0.51393603,1.1738458 1.15897403,1.1738458 l 10.044066,0 c 0.645036,0 1.158973,-0.528258 1.158973,-1.1738458 l 0,-7.061805 c 0,-0.6455884 -0.513937,-1.1589744 -1.158973,-1.1589744 l -5.30737,0 L 6.28677,1.4173658 C 6.031731,0.9458438 5.864824,0.5519918 5.329407,0.5519918 l -0.46326,0 -0.740884,0 -0.463809,0 z"
       style="fill:#2964a4;fill-opacity:1" /><path
       id="rect5498"
       d="m 6.194229,3.7039142 10.235759,0 c 0.587199,0 0.824613,0.412031 0.531014,0.919907 l -3.229041,5.5783868 c -0.29415,0.506776 -1.008592,0.918805 -1.595791,0.918805 l -10.23576,0 c -0.587198,0 -0.824612,-0.412029 -0.530462,-0.918805 l 3.22849,-5.5783868 c 0.293599,-0.507876 1.008593,-0.919907 1.595791,-0.919907 z"
       style="fill:#0557e2" /><path
       d="m 1.90041,10.570171 c -0.03966,0 -0.07105,-0.0033 -0.09419,-0.0077 0.0083,-0.02147 0.02039,-0.05068 0.04022,-0.08373 L 5.07493,4.8998032 c 0.195548,-0.337116 0.728213,-0.645036 1.11876,-0.645036 l 10.235761,0 c 0.03966,0 0.07105,0.0039 0.09475,0.0083 -0.0083,0.02203 -0.02039,0.05123 -0.04076,0.08538 l -3.227938,5.577283 c -0.195549,0.3376678 -0.729316,0.6444858 -1.119312,0.6444858 l -10.2357616,0 z"
       id="path16"
       style="fill:url(#linearGradient2835);fill-opacity:1" /></g><g
     id="layer5"><path
       style="opacity:0.98000004;fill:#030303"
       d="m 11.200805,18.240149 c -0.05114,-0.108595 -0.08453,-0.230166 -0.08387,-0.356888 -0.0061,-0.313507 0.166866,-0.601685 0.442515,-0.746675 l 2.859633,-1.489463 c -0.280814,-0.675171 -0.52823,-1.231135 -0.782809,-1.739825 -1.656403,-3.319251 -3.628315,-4.8116555 -6.4038953,-4.8323395 -0.313968,-0.0019 -0.596933,-0.183408 -0.733408,-0.460937 -0.02004,-0.03904 -0.03699,-0.08493 -0.05253,-0.130347 -0.102796,-0.349824 0.03299,-0.722224 0.33166,-0.924158 0.09892,-0.067 2.444654,-1.61113 5.6130013,-0.842289 2.725207,0.665335 5.155304,2.795348 7.234335,6.3381755 l 2.367315,-1.116647 c 0.28225,-0.131741 0.616262,-0.09554 0.860907,0.09916 0.09681,0.08053 0.175876,0.174034 0.230563,0.283816 0.07968,0.157577 0.108237,0.347703 0.0699,0.530402 l -1.846396,9.320133 c -0.05287,0.251948 -0.215364,0.464014 -0.442028,0.578106 -0.231629,0.114793 -0.501151,0.114392 -0.728427,0.0043 l -8.555672,-4.140208 c -0.16727,-0.07969 -0.299232,-0.212991 -0.380794,-0.374353 l 0,0 z"
       enable-background="new    "
       id="path4235_10_" /><path
       style="fill:#6dbe46"
       d="m 20.497739,22.01053 -8.552833,-4.139276 3.5219,-1.837673 C 13.991648,12.300386 12.003162,8.2848455 7.2418877,8.2463085 c 0,0 6.4473493,-4.34035 12.0440973,5.8859705 l 3.06123,-1.441641 -1.849476,9.319892 0,0 z"
       id="path7827_12_" /><path
       style="fill:url(#path4246_2_)"
       d="m 16.50862,16.421212 -0.273219,-0.693128 c -0.417143,-1.049632 -0.75996,-1.840979 -1.119202,-2.557404 -0.870272,-1.747046 -2.207107,-3.9042735 -4.530442,-5.0137235 0.447081,-0.0024 0.93262,0.04749 1.44641,0.177818 2.412044,0.599852 4.609099,2.6817595 6.53001,6.1929085 l 0.371587,0.681926 2.283558,-1.073743 -1.320424,6.664936 -6.11069,-2.953757 2.722412,-1.425833 z"
       id="path4246_9_" /></g></svg>