<?xml version="1.0" encoding="utf-8"?>
<!-- Generator: Adobe Illustrator 15.0.0, SVG Export Plug-In . SVG Version: 6.00 Build 0)  -->
<!DOCTYPE svg PUBLIC "-//W3C//DTD SVG 1.1//EN" "http://www.w3.org/Graphics/SVG/1.1/DTD/svg11.dtd">
<svg version="1.1"
	 id="svg2383" xmlns:dc="http://purl.org/dc/elements/1.1/" xmlns:cc="http://creativecommons.org/ns#" xmlns:rdf="http://www.w3.org/1999/02/22-rdf-syntax-ns#" xmlns:svg="http://www.w3.org/2000/svg" xmlns:sodipodi="http://sodipodi.sourceforge.net/DTD/sodipodi-0.dtd" xmlns:inkscape="http://www.inkscape.org/namespaces/inkscape" inkscape:output_extension="org.inkscape.output.svg.inkscape" sodipodi:docname="DB_NAME.svg" inkscape:version="0.46" sodipodi:version="0.32"
	 xmlns="http://www.w3.org/2000/svg" xmlns:xlink="http://www.w3.org/1999/xlink" x="0px" y="0px" width="32px" height="32px"
	 viewBox="0 0 32 32" enable-background="new 0 0 32 32" xml:space="preserve">
<defs>
	
	
		<inkscape:perspective  id="perspective2391" sodipodi:type="inkscape:persp3d" inkscape:vp_y="0 : 1000 : 0" inkscape:vp_x="0 : 8 : 1" inkscape:vp_z="16 : 8 : 1" inkscape:persp3d-origin="8 : 5.3333333 : 1">
		</inkscape:perspective>
</defs>
<sodipodi:namedview  id="base" inkscape:cy="8.3193223" inkscape:cx="7.4237177" inkscape:zoom="31.392433" showgrid="true" borderopacity="1.0" bordercolor="#666666" pagecolor="#ffffff" inkscape:window-y="25" inkscape:window-x="0" inkscape:window-height="949" inkscape:window-width="1280" inkscape:pageshadow="2" inkscape:pageopacity="0.0" inkscape:current-layer="layer2" inkscape:document-units="px" inkscape:grid-bbox="true">
	</sodipodi:namedview>
<g id="layer3" inkscape:label="Image" inkscape:groupmode="layer">
</g>
<g>
	<g>
		<path d="M31.998,3.741C31.998,3.736,32,3.734,32,3.73c0-0.006-0.002-0.012-0.002-0.016V3.528C31.998,3.523,32,3.52,32,3.515
			C32,1.1,27.142,0,22.626,0s-9.373,1.1-9.376,3.514v0.001v4.563c0,0.303,0.077,0.586,0.22,0.85c-0.143,0.262-0.22,0.545-0.22,0.849
			c0,0,0,0,0,0.002l0,0v4.563c0,0.28,0.072,0.545,0.196,0.791c-0.124,0.246-0.196,0.509-0.196,0.791v4.562
			c0,2.414,4.86,3.516,9.375,3.516s9.373-1.102,9.373-3.516v-4.386c0-0.003,0.002-0.007,0.002-0.011
			c0-0.005-0.002-0.011-0.002-0.017V15.93c0-0.004,0.002-0.008,0.002-0.012c0-0.281-0.07-0.547-0.195-0.794
			c0.122-0.247,0.193-0.509,0.193-0.791v-4.38C31.998,9.95,32,9.945,32,9.941c0-0.006-0.002-0.009-0.002-0.017V9.787
			C31.998,9.783,32,9.779,32,9.775c0-0.305-0.077-0.586-0.221-0.85c0.142-0.262,0.219-0.545,0.219-0.848V3.741z"/>
		
			<linearGradient id="path8001_2_" gradientUnits="userSpaceOnUse" x1="2170.7246" y1="-4497.9668" x2="2192.0776" y2="-4497.9668" gradientTransform="matrix(0.6524 0 0 -0.6524 -1402.1581 -2914.8877)">
			<stop  offset="0" style="stop-color:#BFDEEC"/>
			<stop  offset="0.0164" style="stop-color:#B8D3E2"/>
			<stop  offset="0.043" style="stop-color:#A3BCC8"/>
			<stop  offset="0.0667" style="stop-color:#8BA2AF"/>
			<stop  offset="0.5455" style="stop-color:#BFDEEC"/>
			<stop  offset="0.5614" style="stop-color:#C2DCEB"/>
			<stop  offset="0.6708" style="stop-color:#DAEBF3"/>
			<stop  offset="0.7715" style="stop-color:#EDF7F9"/>
			<stop  offset="0.8545" style="stop-color:#F1F8F9"/>
			<stop  offset="0.8593" style="stop-color:#F0F8FA"/>
			<stop  offset="0.8965" style="stop-color:#E9F5F7"/>
			<stop  offset="1" style="stop-color:#E8F5F7"/>
		</linearGradient>
		<path id="path8001_1_" fill="url(#path8001_2_)" d="M31.248,20.484v-4.562c0,1.527-3.859,2.767-8.623,2.767S14,17.453,14,15.922
			v4.562c0,1.527,3.859,2.766,8.625,2.766C27.389,23.25,31.248,22.014,31.248,20.484z"/>
		<ellipse id="ellipse8003_1_" fill="#BFDEEC" cx="22.626" cy="15.922" rx="8.624" ry="2.767"/>
		<ellipse id="ellipse8010_1_" fill="#020202" cx="22.626" cy="15.634" rx="8.171" ry="2.606"/>
		
			<linearGradient id="path8044_2_" gradientUnits="userSpaceOnUse" x1="2196.998" y1="-4494.5933" x2="2175.3987" y2="-4494.5933" gradientTransform="matrix(0.6524 0 0 -0.6524 -1402.1581 -2914.8877)">
			<stop  offset="0" style="stop-color:#BFDEEC"/>
			<stop  offset="0.0164" style="stop-color:#B8D3E2"/>
			<stop  offset="0.043" style="stop-color:#A3BCC8"/>
			<stop  offset="0.0667" style="stop-color:#8BA2AF"/>
			<stop  offset="0.5455" style="stop-color:#BFDEEC"/>
			<stop  offset="0.5614" style="stop-color:#C2DCEB"/>
			<stop  offset="0.6708" style="stop-color:#DAEBF3"/>
			<stop  offset="0.7715" style="stop-color:#EDF7F9"/>
			<stop  offset="0.8545" style="stop-color:#F1F8F9"/>
			<stop  offset="0.8593" style="stop-color:#F0F8FA"/>
			<stop  offset="0.8965" style="stop-color:#E9F5F7"/>
			<stop  offset="1" style="stop-color:#E8F5F7"/>
		</linearGradient>
		<path id="path8044_1_" fill="url(#path8044_2_)" d="M22.626,18.521c-4.591,0-8.342-1.148-8.606-2.601
			c-0.011,0.054-0.017,0.109-0.017,0.167c0,1.522,3.86,2.764,8.624,2.764c4.76,0,8.624-1.236,8.624-2.764
			c0-0.058-0.009-0.112-0.016-0.167C30.965,17.373,27.216,18.521,22.626,18.521z"/>
		
			<linearGradient id="path8087_2_" gradientUnits="userSpaceOnUse" x1="2170.7246" y1="-4488.5483" x2="2192.0776" y2="-4488.5483" gradientTransform="matrix(0.6524 0 0 -0.6524 -1402.1581 -2914.8877)">
			<stop  offset="0" style="stop-color:#BFDEEC"/>
			<stop  offset="0.0164" style="stop-color:#B8D3E2"/>
			<stop  offset="0.043" style="stop-color:#A3BCC8"/>
			<stop  offset="0.0667" style="stop-color:#8BA2AF"/>
			<stop  offset="0.5455" style="stop-color:#BFDEEC"/>
			<stop  offset="0.5614" style="stop-color:#C2DCEB"/>
			<stop  offset="0.6708" style="stop-color:#DAEBF3"/>
			<stop  offset="0.7715" style="stop-color:#EDF7F9"/>
			<stop  offset="0.8545" style="stop-color:#F1F8F9"/>
			<stop  offset="0.8593" style="stop-color:#F0F8FA"/>
			<stop  offset="0.8965" style="stop-color:#E9F5F7"/>
			<stop  offset="1" style="stop-color:#E8F5F7"/>
		</linearGradient>
		<path id="path8087_1_" fill="url(#path8087_2_)" d="M31.248,14.339V9.778c0,1.527-3.859,2.766-8.623,2.766S14,11.305,14,9.778
			v4.563c0,1.527,3.859,2.765,8.625,2.765C27.389,17.104,31.248,15.868,31.248,14.339z"/>
		<ellipse id="ellipse8089_1_" fill="#BFDEEC" cx="22.626" cy="9.778" rx="8.624" ry="2.766"/>
		<ellipse id="ellipse8096_1_" fill="#020202" cx="22.626" cy="9.492" rx="8.171" ry="2.607"/>
		
			<linearGradient id="path8130_2_" gradientUnits="userSpaceOnUse" x1="2196.9922" y1="-4485.1768" x2="2175.3928" y2="-4485.1768" gradientTransform="matrix(0.6524 0 0 -0.6524 -1402.1581 -2914.8877)">
			<stop  offset="0" style="stop-color:#BFDEEC"/>
			<stop  offset="0.0164" style="stop-color:#B8D3E2"/>
			<stop  offset="0.043" style="stop-color:#A3BCC8"/>
			<stop  offset="0.0667" style="stop-color:#8BA2AF"/>
			<stop  offset="0.5455" style="stop-color:#BFDEEC"/>
			<stop  offset="0.5614" style="stop-color:#C2DCEB"/>
			<stop  offset="0.6708" style="stop-color:#DAEBF3"/>
			<stop  offset="0.7715" style="stop-color:#EDF7F9"/>
			<stop  offset="0.8545" style="stop-color:#F1F8F9"/>
			<stop  offset="0.8593" style="stop-color:#F0F8FA"/>
			<stop  offset="0.8965" style="stop-color:#E9F5F7"/>
			<stop  offset="1" style="stop-color:#E8F5F7"/>
		</linearGradient>
		<path id="path8130_1_" fill="url(#path8130_2_)" d="M22.626,12.38c-4.591,0-8.342-1.149-8.606-2.602
			c-0.013,0.055-0.017,0.107-0.017,0.164c0,1.526,3.86,2.767,8.624,2.767c4.76,0,8.624-1.24,8.624-2.767
			c0-0.058-0.009-0.111-0.016-0.164C30.965,11.229,27.216,12.38,22.626,12.38z"/>
		
			<linearGradient id="path8173_2_" gradientUnits="userSpaceOnUse" x1="2170.7246" y1="-4478.9541" x2="2192.0776" y2="-4478.9541" gradientTransform="matrix(0.6524 0 0 -0.6524 -1402.1581 -2914.8877)">
			<stop  offset="0" style="stop-color:#BFDEEC"/>
			<stop  offset="0.0164" style="stop-color:#B8D3E2"/>
			<stop  offset="0.043" style="stop-color:#A3BCC8"/>
			<stop  offset="0.0667" style="stop-color:#8BA2AF"/>
			<stop  offset="0.5455" style="stop-color:#BFDEEC"/>
			<stop  offset="0.5614" style="stop-color:#C2DCEB"/>
			<stop  offset="0.6708" style="stop-color:#DAEBF3"/>
			<stop  offset="0.7715" style="stop-color:#EDF7F9"/>
			<stop  offset="0.8545" style="stop-color:#F1F8F9"/>
			<stop  offset="0.8593" style="stop-color:#F0F8FA"/>
			<stop  offset="0.8965" style="stop-color:#E9F5F7"/>
			<stop  offset="1" style="stop-color:#E8F5F7"/>
		</linearGradient>
		<path id="path8173_1_" fill="url(#path8173_2_)" d="M31.248,8.079V3.516c0,1.528-3.859,2.768-8.623,2.768S14,5.044,14,3.516v4.563
			c0,1.527,3.859,2.77,8.625,2.77C27.389,10.848,31.248,9.605,31.248,8.079z"/>
		<ellipse id="ellipse8175_1_" fill="#BFDEEC" cx="22.626" cy="3.516" rx="8.624" ry="2.766"/>
		
			<linearGradient id="path8202_2_" gradientUnits="userSpaceOnUse" x1="2196.998" y1="-4475.6523" x2="2175.3987" y2="-4475.6523" gradientTransform="matrix(0.6524 0 0 -0.6524 -1402.1581 -2914.8877)">
			<stop  offset="0" style="stop-color:#BFDEEC"/>
			<stop  offset="0.0164" style="stop-color:#B8D3E2"/>
			<stop  offset="0.043" style="stop-color:#A3BCC8"/>
			<stop  offset="0.0667" style="stop-color:#8BA2AF"/>
			<stop  offset="0.5455" style="stop-color:#BFDEEC"/>
			<stop  offset="0.5614" style="stop-color:#C2DCEB"/>
			<stop  offset="0.6708" style="stop-color:#DAEBF3"/>
			<stop  offset="0.7715" style="stop-color:#EDF7F9"/>
			<stop  offset="0.8545" style="stop-color:#F1F8F9"/>
			<stop  offset="0.8593" style="stop-color:#F0F8FA"/>
			<stop  offset="0.8965" style="stop-color:#E9F5F7"/>
			<stop  offset="1" style="stop-color:#E8F5F7"/>
		</linearGradient>
		<path id="path8202_1_" fill="url(#path8202_2_)" d="M22.626,6.165c-4.591,0-8.342-1.147-8.606-2.603
			c-0.013,0.055-0.017,0.112-0.017,0.166c0,1.528,3.86,2.767,8.624,2.767c4.76,0,8.624-1.241,8.624-2.767
			c0-0.057-0.009-0.111-0.016-0.166C30.965,5.018,27.216,6.165,22.626,6.165L22.626,6.165z"/>
	</g>
</g>
<g>
	<g>
		<path fill="#1D1D1B" d="M2.284,32C1.024,32,0,30.976,0,29.718V19.457c0-1.259,1.024-2.283,2.284-2.283h27.433
			c1.26,0,2.283,1.024,2.283,2.283v10.261C32,30.976,30.977,32,29.717,32H2.284z"/>
		<path fill="#FFFFFF" d="M2.284,31.059c-0.742,0-1.342-0.6-1.342-1.341V19.457c0-0.739,0.601-1.342,1.342-1.342h27.433
			c0.743,0,1.342,0.603,1.342,1.342v10.261c0,0.741-0.599,1.341-1.342,1.341H2.284z"/>
		<linearGradient id="SVGID_1_" gradientUnits="userSpaceOnUse" x1="1.8823" y1="24.5869" x2="30.1172" y2="24.5869">
			<stop  offset="0" style="stop-color:#000000;stop-opacity:0.21"/>
			<stop  offset="1" style="stop-color:#000000;stop-opacity:0"/>
		</linearGradient>
		<path fill="url(#SVGID_1_)" d="M2.284,30.117c-0.221,0-0.401-0.179-0.401-0.399V19.457c0-0.221,0.18-0.4,0.401-0.4h27.433
			c0.221,0,0.4,0.18,0.4,0.4v10.261c0,0.221-0.18,0.399-0.4,0.399H2.284z"/>
	</g>
	<g>
		<polyline fill="none" stroke="#000000" stroke-width="0.6984" stroke-linecap="round" points="22.273,20.513 24.081,20.513 
			25.237,21.592 26.665,20.513 28.568,20.513 		"/>
		<polyline fill="none" stroke="#000000" stroke-width="0.6984" stroke-linecap="round" points="21.465,28.662 23.286,28.662 
			24.658,27.583 25.887,28.662 27.806,28.662 		"/>
		<line fill="none" stroke="#000000" stroke-width="0.6984" x1="25.289" y1="21.052" x2="24.658" y2="27.583"/>
	</g>
	<g>
		<path d="M11.363,28.882H9.477l-0.75-1.951H5.293l-0.709,1.951h-1.84l3.346-8.59h1.834L11.363,28.882z M8.17,25.483l-1.184-3.188
			l-1.16,3.188H8.17z"/>
		<path d="M12.289,20.292h3.434c0.68,0,1.187,0.028,1.521,0.085s0.633,0.175,0.896,0.354s0.483,0.419,0.659,0.718
			s0.264,0.634,0.264,1.005c0,0.402-0.108,0.771-0.325,1.107s-0.511,0.588-0.882,0.756c0.523,0.152,0.926,0.412,1.207,0.779
			s0.422,0.799,0.422,1.295c0,0.391-0.091,0.771-0.272,1.14s-0.43,0.664-0.744,0.885s-0.702,0.356-1.163,0.407
			c-0.289,0.031-0.986,0.051-2.092,0.059h-2.924V20.292z M14.023,21.722v1.986h1.137c0.676,0,1.096-0.01,1.26-0.029
			c0.297-0.035,0.53-0.138,0.7-0.308s0.255-0.394,0.255-0.671c0-0.266-0.073-0.481-0.22-0.647s-0.364-0.267-0.653-0.302
			c-0.172-0.02-0.666-0.029-1.482-0.029H14.023z M14.023,25.138v2.297h1.605c0.625,0,1.021-0.018,1.189-0.053
			c0.258-0.047,0.468-0.161,0.63-0.343s0.243-0.425,0.243-0.729c0-0.258-0.063-0.477-0.188-0.656s-0.306-0.311-0.542-0.393
			s-0.749-0.123-1.538-0.123H14.023z"/>
	</g>
</g>
</svg>
