<?xml version="1.0" encoding="utf-8"?>
<!-- Generator: Adobe Illustrator 15.0.0, SVG Export Plug-In . SVG Version: 6.00 Build 0)  -->
<!DOCTYPE svg PUBLIC "-//W3C//DTD SVG 1.1//EN" "http://www.w3.org/Graphics/SVG/1.1/DTD/svg11.dtd">
<svg version="1.1"
	 id="svg2" xmlns:ns="http://creativecommons.org/ns#" xmlns:dc="http://purl.org/dc/elements/1.1/" xmlns:cc="http://web.resource.org/cc/" xmlns:rdf="http://www.w3.org/1999/02/22-rdf-syntax-ns#" xmlns:svg="http://www.w3.org/2000/svg" xmlns:sodipodi="http://sodipodi.sourceforge.net/DTD/sodipodi-0.dtd" xmlns:inkscape="http://www.inkscape.org/namespaces/inkscape" inkscape:output_extension="org.inkscape.output.svg.inkscape" sodipodi:version="0.32" inkscape:version="0.45.1" sodipodi:docname="import_from_database.svg" sodipodi:docbase="C:\Radix\dev\trunk\org.radixware\kernel\designer\src\common.resources\src\org\radixware\kernel\designer\resources\icons\database"
	 xmlns="http://www.w3.org/2000/svg" xmlns:xlink="http://www.w3.org/1999/xlink" x="0px" y="0px" width="32px" height="32px"
	 viewBox="0 0 32 32" enable-background="new 0 0 32 32" xml:space="preserve">
<sodipodi:namedview  id="base" inkscape:cy="23.635792" inkscape:cx="1.0721299" inkscape:zoom="6" showgrid="false" borderopacity="1.0" bordercolor="#000000" pagecolor="#ffffff" inkscape:window-y="-8" inkscape:window-x="-8" inkscape:window-height="944" inkscape:window-width="1280" inkscape:pageshadow="2" inkscape:pageopacity="0.0" inkscape:current-layer="layer1" inkscape:document-units="px">
	</sodipodi:namedview>
<g>
	<g>
		<path fill="#1D1D1B" d="M19.249,3.994c0-0.005,0.002-0.01,0.002-0.016c0-0.008-0.001-0.023-0.002-0.038V3.781
			c0-0.005,0.002-0.01,0.002-0.016C19.251,1.178,14.262,0,9.626,0C4.998,0,0.019,1.175,0.002,3.754C0.002,3.758,0,3.762,0,3.766
			v4.563C0,8.632,0.074,8.914,0.203,9.18c-0.126,0.26-0.198,0.538-0.2,0.836C0.002,10.02,0,10.023,0,10.027v4.563
			c0,0.281,0.069,0.543,0.181,0.792c-0.109,0.244-0.176,0.502-0.178,0.778C0.002,16.164,0,16.168,0,16.172v4.563
			C0,23.321,4.989,24.5,9.625,24.5c4.635,0,9.624-1.179,9.624-3.766v-4.381c0-0.005,0.002-0.01,0.002-0.016
			c0-0.008-0.002-0.016-0.002-0.023v-0.127c0-0.005,0.002-0.01,0.002-0.016c0-0.282-0.069-0.545-0.182-0.794
			c0.111-0.247,0.18-0.508,0.18-0.788v-4.383c0-0.005,0.002-0.01,0.002-0.016c0-0.008-0.002-0.015-0.002-0.021v-0.127
			c0-0.005,0.002-0.01,0.002-0.016c0-0.304-0.074-0.586-0.203-0.852c0.127-0.264,0.201-0.545,0.201-0.848V3.994z"/>
		
			<linearGradient id="path8001_1_" gradientUnits="userSpaceOnUse" x1="1564.9756" y1="-3088.6396" x2="1586.3292" y2="-3088.6396" gradientTransform="matrix(0.6524 0 0 -0.6524 -1019.9677 -1995.1931)">
			<stop  offset="0" style="stop-color:#BFDEEC"/>
			<stop  offset="0.0164" style="stop-color:#B8D3E2"/>
			<stop  offset="0.043" style="stop-color:#A3BCC8"/>
			<stop  offset="0.0667" style="stop-color:#8BA2AF"/>
			<stop  offset="0.5455" style="stop-color:#BFDEEC"/>
			<stop  offset="0.5614" style="stop-color:#C2DCEB"/>
			<stop  offset="0.6708" style="stop-color:#DAEBF3"/>
			<stop  offset="0.7715" style="stop-color:#EDF7F9"/>
			<stop  offset="0.8545" style="stop-color:#F1F8F9"/>
			<stop  offset="0.8593" style="stop-color:#F0F8FA"/>
			<stop  offset="0.8965" style="stop-color:#E9F5F7"/>
			<stop  offset="1" style="stop-color:#E8F5F7"/>
		</linearGradient>
		<path id="path8001_8_" fill="url(#path8001_1_)" d="M18.249,20.734v-4.563c0,1.529-3.86,2.768-8.624,2.768
			C4.863,18.939,1,17.701,1,16.172v4.563C1,22.262,4.861,23.5,9.625,23.5S18.249,22.264,18.249,20.734z"/>
		<ellipse id="ellipse8003_8_" fill="#BFDEEC" cx="9.626" cy="16.172" rx="8.625" ry="2.768"/>
		<ellipse id="ellipse8010_8_" fill="#020202" cx="9.626" cy="15.885" rx="8.17" ry="2.607"/>
		
			<linearGradient id="path8044_1_" gradientUnits="userSpaceOnUse" x1="1591.252" y1="-3085.2676" x2="1569.6504" y2="-3085.2676" gradientTransform="matrix(0.6524 0 0 -0.6524 -1019.9677 -1995.1931)">
			<stop  offset="0" style="stop-color:#BFDEEC"/>
			<stop  offset="0.0164" style="stop-color:#B8D3E2"/>
			<stop  offset="0.043" style="stop-color:#A3BCC8"/>
			<stop  offset="0.0667" style="stop-color:#8BA2AF"/>
			<stop  offset="0.5455" style="stop-color:#BFDEEC"/>
			<stop  offset="0.5614" style="stop-color:#C2DCEB"/>
			<stop  offset="0.6708" style="stop-color:#DAEBF3"/>
			<stop  offset="0.7715" style="stop-color:#EDF7F9"/>
			<stop  offset="0.8545" style="stop-color:#F1F8F9"/>
			<stop  offset="0.8593" style="stop-color:#F0F8FA"/>
			<stop  offset="0.8965" style="stop-color:#E9F5F7"/>
			<stop  offset="1" style="stop-color:#E8F5F7"/>
		</linearGradient>
		<path id="path8044_8_" fill="url(#path8044_1_)" d="M9.626,18.771c-4.59,0-8.342-1.148-8.606-2.6
			c-0.011,0.055-0.017,0.109-0.017,0.166c0,1.525,3.858,2.764,8.623,2.764c4.761,0,8.625-1.236,8.625-2.764
			c0-0.057-0.009-0.111-0.017-0.166C17.965,17.623,14.215,18.771,9.626,18.771z"/>
		
			<linearGradient id="path8087_1_" gradientUnits="userSpaceOnUse" x1="1564.9756" y1="-3079.2212" x2="1586.3292" y2="-3079.2212" gradientTransform="matrix(0.6524 0 0 -0.6524 -1019.9677 -1995.1931)">
			<stop  offset="0" style="stop-color:#BFDEEC"/>
			<stop  offset="0.0164" style="stop-color:#B8D3E2"/>
			<stop  offset="0.043" style="stop-color:#A3BCC8"/>
			<stop  offset="0.0667" style="stop-color:#8BA2AF"/>
			<stop  offset="0.5455" style="stop-color:#BFDEEC"/>
			<stop  offset="0.5614" style="stop-color:#C2DCEB"/>
			<stop  offset="0.6708" style="stop-color:#DAEBF3"/>
			<stop  offset="0.7715" style="stop-color:#EDF7F9"/>
			<stop  offset="0.8545" style="stop-color:#F1F8F9"/>
			<stop  offset="0.8593" style="stop-color:#F0F8FA"/>
			<stop  offset="0.8965" style="stop-color:#E9F5F7"/>
			<stop  offset="1" style="stop-color:#E8F5F7"/>
		</linearGradient>
		<path id="path8087_8_" fill="url(#path8087_1_)" d="M18.249,14.59v-4.563c0,1.527-3.86,2.766-8.624,2.766
			C4.863,12.793,1,11.555,1,10.027v4.563c0,1.527,3.861,2.766,8.625,2.766C14.389,17.354,18.249,16.117,18.249,14.59z"/>
		<ellipse id="ellipse8089_8_" fill="#BFDEEC" cx="9.626" cy="10.027" rx="8.625" ry="2.766"/>
		<ellipse id="ellipse8096_8_" fill="#020202" cx="9.626" cy="9.743" rx="8.17" ry="2.606"/>
		
			<linearGradient id="path8130_1_" gradientUnits="userSpaceOnUse" x1="1591.2461" y1="-3075.8496" x2="1569.6444" y2="-3075.8496" gradientTransform="matrix(0.6524 0 0 -0.6524 -1019.9677 -1995.1931)">
			<stop  offset="0" style="stop-color:#BFDEEC"/>
			<stop  offset="0.0164" style="stop-color:#B8D3E2"/>
			<stop  offset="0.043" style="stop-color:#A3BCC8"/>
			<stop  offset="0.0667" style="stop-color:#8BA2AF"/>
			<stop  offset="0.5455" style="stop-color:#BFDEEC"/>
			<stop  offset="0.5614" style="stop-color:#C2DCEB"/>
			<stop  offset="0.6708" style="stop-color:#DAEBF3"/>
			<stop  offset="0.7715" style="stop-color:#EDF7F9"/>
			<stop  offset="0.8545" style="stop-color:#F1F8F9"/>
			<stop  offset="0.8593" style="stop-color:#F0F8FA"/>
			<stop  offset="0.8965" style="stop-color:#E9F5F7"/>
			<stop  offset="1" style="stop-color:#E8F5F7"/>
		</linearGradient>
		<path id="path8130_8_" fill="url(#path8130_1_)" d="M9.626,12.629c-4.59,0-8.342-1.148-8.606-2.602
			c-0.012,0.057-0.017,0.107-0.017,0.164c0,1.527,3.858,2.766,8.623,2.766c4.761,0,8.625-1.238,8.625-2.766
			c0-0.057-0.009-0.111-0.017-0.164C17.965,11.479,14.215,12.629,9.626,12.629z"/>
		
			<linearGradient id="path8173_1_" gradientUnits="userSpaceOnUse" x1="1564.9756" y1="-3069.6265" x2="1586.3292" y2="-3069.6265" gradientTransform="matrix(0.6524 0 0 -0.6524 -1019.9677 -1995.1931)">
			<stop  offset="0" style="stop-color:#BFDEEC"/>
			<stop  offset="0.0164" style="stop-color:#B8D3E2"/>
			<stop  offset="0.043" style="stop-color:#A3BCC8"/>
			<stop  offset="0.0667" style="stop-color:#8BA2AF"/>
			<stop  offset="0.5455" style="stop-color:#BFDEEC"/>
			<stop  offset="0.5614" style="stop-color:#C2DCEB"/>
			<stop  offset="0.6708" style="stop-color:#DAEBF3"/>
			<stop  offset="0.7715" style="stop-color:#EDF7F9"/>
			<stop  offset="0.8545" style="stop-color:#F1F8F9"/>
			<stop  offset="0.8593" style="stop-color:#F0F8FA"/>
			<stop  offset="0.8965" style="stop-color:#E9F5F7"/>
			<stop  offset="1" style="stop-color:#E8F5F7"/>
		</linearGradient>
		<path id="path8173_8_" fill="url(#path8173_1_)" d="M18.249,8.328V3.766c0,1.527-3.86,2.768-8.624,2.768
			C4.863,6.533,1,5.295,1,3.766v4.563c0,1.527,3.861,2.77,8.625,2.77S18.249,9.855,18.249,8.328z"/>
		<ellipse id="ellipse8175_8_" fill="#BFDEEC" cx="9.626" cy="3.767" rx="8.625" ry="2.767"/>
		
			<linearGradient id="path8202_1_" gradientUnits="userSpaceOnUse" x1="1591.252" y1="-3066.3262" x2="1569.6504" y2="-3066.3262" gradientTransform="matrix(0.6524 0 0 -0.6524 -1019.9677 -1995.1931)">
			<stop  offset="0" style="stop-color:#BFDEEC"/>
			<stop  offset="0.0164" style="stop-color:#B8D3E2"/>
			<stop  offset="0.043" style="stop-color:#A3BCC8"/>
			<stop  offset="0.0667" style="stop-color:#8BA2AF"/>
			<stop  offset="0.5455" style="stop-color:#BFDEEC"/>
			<stop  offset="0.5614" style="stop-color:#C2DCEB"/>
			<stop  offset="0.6708" style="stop-color:#DAEBF3"/>
			<stop  offset="0.7715" style="stop-color:#EDF7F9"/>
			<stop  offset="0.8545" style="stop-color:#F1F8F9"/>
			<stop  offset="0.8593" style="stop-color:#F0F8FA"/>
			<stop  offset="0.8965" style="stop-color:#E9F5F7"/>
			<stop  offset="1" style="stop-color:#E8F5F7"/>
		</linearGradient>
		<path id="path8202_9_" fill="url(#path8202_1_)" d="M9.626,6.416c-4.59,0-8.342-1.148-8.606-2.604
			C1.008,3.867,1.003,3.926,1.003,3.979c0,1.529,3.858,2.768,8.623,2.768c4.761,0,8.625-1.242,8.625-2.768
			c0-0.057-0.009-0.111-0.017-0.166C17.965,5.268,14.215,6.416,9.626,6.416L9.626,6.416z"/>
	</g>
</g>
<g>
	<g>
		<g>
			<path d="M23.002,32c-0.064,0-0.126-0.012-0.189-0.033l-8.438-2.992C14.15,28.895,14,28.681,14,28.442V17.524
				c0-0.176,0.084-0.346,0.228-0.451c0.094-0.07,0.205-0.106,0.319-0.112l8.266-2.929C22.876,14.01,22.938,14,23.002,14
				c0.063,0,0.127,0.01,0.188,0.032l8.265,2.929c0.264,0.01,0.49,0.203,0.538,0.464c0.008,0.049,0.01,0.095,0.007,0.141v10.876
				c0,0.239-0.149,0.45-0.373,0.532l-8.437,2.992C23.129,31.988,23.065,32,23.002,32L23.002,32z"/>
			<polygon id="polygon6708_4_" fill="#B47A2B" points="23.002,31.437 14.564,28.443 14.564,17.524 23.002,20.52 			"/>
			<polygon id="polygon6710_4_" fill="#F9A61E" points="23.002,31.437 31.437,28.443 31.437,17.524 23.002,20.52 			"/>
			<polygon id="polygon6712_4_" fill="#F8C87E" points="14.652,17.521 14.564,17.524 14.607,17.537 14.564,17.553 14.652,17.557 
				23.002,20.52 31.35,17.557 31.437,17.553 31.396,17.537 31.437,17.524 31.35,17.521 23.002,14.563 			"/>
			
				<linearGradient id="polygon6714_1_" gradientUnits="userSpaceOnUse" x1="1599.5498" y1="-2143.0747" x2="1609.6967" y2="-2133.0212" gradientTransform="matrix(0.5772 0 0 -0.5772 -909.0419 -1208.0284)">
				<stop  offset="0" style="stop-color:#3F2712"/>
				<stop  offset="1" style="stop-color:#FDD2A2;stop-opacity:0"/>
			</linearGradient>
			<polygon id="polygon6714_4_" fill="url(#polygon6714_1_)" points="22.707,30.865 14.886,28.091 14.886,17.97 22.707,20.744 			
				"/>
			
				<linearGradient id="polygon6716_1_" gradientUnits="userSpaceOnUse" x1="1692.1416" y1="-2232.7354" x2="1680.61" y2="-2220.3203" gradientTransform="matrix(0.5627 0 0 -0.5627 -920.1937 -1226.6232)">
				<stop  offset="0" style="stop-color:#FFF4E8"/>
				<stop  offset="1" style="stop-color:#FFEBD7;stop-opacity:0"/>
			</linearGradient>
			<polygon id="polygon6716_4_" fill="url(#polygon6716_1_)" points="23.245,30.73 30.87,28.026 30.87,18.157 23.245,20.862 			"/>
			
				<linearGradient id="path6718_1_" gradientUnits="userSpaceOnUse" x1="-3899.9551" y1="3458.6436" x2="-3913.0884" y2="3458.677" gradientTransform="matrix(0 -0.6226 0.6226 0 -2130.4355 -2406.8337)">
				<stop  offset="0" style="stop-color:#FFFFFF"/>
				<stop  offset="1" style="stop-color:#FFFFFF;stop-opacity:0"/>
			</linearGradient>
			<path id="path6718_4_" fill="url(#path6718_1_)" d="M22.434,20.398l0.456,10.836h-0.005l0.508-10.988L22.434,20.398z"/>
			
				<linearGradient id="path6720_1_" gradientUnits="userSpaceOnUse" x1="-1759.9097" y1="-2433.0757" x2="-1771.0986" y2="-2433.0703" gradientTransform="matrix(-0.5857 0.2112 -0.2112 -0.5857 -1521.1896 -1032.9883)">
				<stop  offset="0" style="stop-color:#FFFFFF"/>
				<stop  offset="1" style="stop-color:#FFFFFF;stop-opacity:0"/>
			</linearGradient>
			<path id="path6720_4_" fill="url(#path6720_1_)" d="M23.03,21.034l8.409-3.51l-8.88,2.66L23.03,21.034z"/>
			
				<linearGradient id="path6722_1_" gradientUnits="userSpaceOnUse" x1="2368.1055" y1="-944.4434" x2="2357.3406" y2="-944.434" gradientTransform="matrix(0.5857 0.2112 0.2112 -0.5857 -1165.314 -1033.0176)">
				<stop  offset="0" style="stop-color:#FFFFFF"/>
				<stop  offset="1" style="stop-color:#FFFFFF;stop-opacity:0"/>
			</linearGradient>
			<path id="path6722_4_" fill="url(#path6722_1_)" d="M22.769,20.995l-8.205-3.471l8.675,2.621L22.769,20.995z"/>
		</g>
	</g>
</g>
<g>
	<path fill="#FFFFFF" d="M24.025,18.846l2.74-3.546l-3.576-1.268C23.129,14.01,23.065,14,23.002,14c-0.064,0-0.126,0.01-0.189,0.032
		l-3.735,1.324c0.105-0.241,0.172-0.494,0.172-0.766v-4.383c0-0.005,0.002-0.01,0.002-0.016c0-0.008-0.002-0.015-0.002-0.021v-0.073
		l-1.243,0.022c-0.631,0.013-1.194,0.375-1.464,0.936c-0.111,0.225-0.17,0.478-0.17,0.73c0,0.375,0.128,0.741,0.351,1.018
		l4.667,6.039c0.312,0.407,0.805,0.65,1.319,0.65S23.717,19.249,24.025,18.846z"/>
	<path fill="#FFFFFF" d="M19.251,3.766c0-0.893-0.603-1.613-1.57-2.18c-0.622,0.166-1.104,0.657-1.219,1.327
		c-0.014,0.09-0.02,0.176-0.02,0.262c0,0.632,0.35,1.201,0.91,1.485c0.918,0.467,1.529,1.144,1.897,2.101V3.994
		c0-0.005,0.002-0.01,0.002-0.016c0-0.008-0.001-0.023-0.002-0.038V3.781C19.249,3.776,19.251,3.771,19.251,3.766z"/>
</g>
<g>
	<path id="path4235_22_" opacity="0.98" fill="#020202" enable-background="new    " d="M17.578,11.785
		c0-0.098,0.021-0.196,0.066-0.287c0.109-0.228,0.335-0.374,0.587-0.379l2.591-0.048c0.041-0.586,0.06-1.073,0.06-1.532
		c0-2.98-0.886-4.762-2.871-5.771c-0.226-0.114-0.363-0.347-0.363-0.594c0-0.037,0.003-0.074,0.009-0.113
		c0.05-0.288,0.282-0.509,0.569-0.546c0.095-0.013,2.337-0.284,4.338,1.405c1.722,1.455,2.707,3.857,2.933,7.15l2.103,0.047
		c0.25,0.005,0.478,0.152,0.584,0.379c0.043,0.093,0.065,0.189,0.065,0.288c0,0.144-0.047,0.288-0.138,0.406l-4.67,6.043
		c-0.124,0.162-0.319,0.258-0.525,0.258s-0.401-0.096-0.525-0.258l-4.67-6.043C17.625,12.073,17.578,11.931,17.578,11.785
		L17.578,11.785z"/>
	<path id="path7827_42_" fill="#6FBD46" d="M22.914,17.829l-4.669-6.043l3.191-0.061c0.276-3.215,0.286-6.814-3.124-8.549
		c0,0,6.191-0.812,6.552,8.549l2.719,0.061L22.914,17.829L22.914,17.829z"/>
	
		<linearGradient id="path4246_1_" gradientUnits="userSpaceOnUse" x1="17.1182" y1="-202.9775" x2="23.792" y2="-202.9775" gradientTransform="matrix(1 0 0 1 2.4609 213.5039)">
		<stop  offset="0" style="stop-color:#AED58A"/>
		<stop  offset="1" style="stop-color:#1E9046"/>
	</linearGradient>
	<path id="path4246_20_" fill="url(#path4246_1_)" d="M22.047,12.378l0.052-0.595c0.077-0.905,0.111-1.598,0.111-2.242
		c0-1.567-0.188-3.599-1.462-5.229c0.322,0.159,0.653,0.37,0.977,0.646c1.519,1.295,2.353,3.581,2.477,6.796l0.024,0.623
		l2.027,0.044l-3.338,4.32l-3.336-4.314L22.047,12.378z"/>
</g>
</svg>
