<?xml version="1.0" encoding="utf-8"?>
<!-- Generator: Adobe Illustrator 15.0.0, SVG Export Plug-In . SVG Version: 6.00 Build 0)  -->
<!DOCTYPE svg PUBLIC "-//W3C//DTD SVG 1.1//EN" "http://www.w3.org/Graphics/SVG/1.1/DTD/svg11.dtd">
<svg version="1.1"
	 id="svg2" xmlns:ns="http://creativecommons.org/ns#" xmlns:dc="http://purl.org/dc/elements/1.1/" xmlns:cc="http://web.resource.org/cc/" xmlns:rdf="http://www.w3.org/1999/02/22-rdf-syntax-ns#" xmlns:svg="http://www.w3.org/2000/svg" xmlns:sodipodi="http://sodipodi.sourceforge.net/DTD/sodipodi-0.dtd" xmlns:inkscape="http://www.inkscape.org/namespaces/inkscape" inkscape:output_extension="org.inkscape.output.svg.inkscape" sodipodi:version="0.32" inkscape:version="0.45.1" sodipodi:docname="load_from_database.svg" sodipodi:docbase="C:\Radix\dev\trunk\org.radixware\kernel\designer\src\common.resources\src\org\radixware\kernel\designer\resources\icons\database"
	 xmlns="http://www.w3.org/2000/svg" xmlns:xlink="http://www.w3.org/1999/xlink" x="0px" y="0px" width="32px" height="32px"
	 viewBox="0 0 32 32" enable-background="new 0 0 32 32" xml:space="preserve">
<sodipodi:namedview  id="base" inkscape:cy="47.135587" inkscape:cx="-3.1768094" inkscape:zoom="5.4948089" showgrid="true" borderopacity="1.0" bordercolor="#666666" pagecolor="#ffffff" inkscape:window-y="0" inkscape:window-x="0" inkscape:window-height="998" inkscape:window-width="1280" inkscape:pageshadow="2" inkscape:pageopacity="0.0" inkscape:current-layer="layer1" inkscape:document-units="px">
	</sodipodi:namedview>
<g>
	<g>
		<path fill="#1D1D1B" d="M31.998,11.494c0-0.005,0.002-0.01,0.002-0.016c0-0.008-0.001-0.023-0.002-0.038v-0.159
			c0-0.005,0.002-0.01,0.002-0.016C32,8.678,27.012,7.5,22.375,7.5c-4.628,0-9.607,1.175-9.624,3.754
			c0,0.004-0.002,0.008-0.002,0.012v4.563c0,0.303,0.074,0.585,0.203,0.851c-0.126,0.26-0.198,0.538-0.2,0.836
			c-0.001,0.004-0.003,0.008-0.003,0.012v4.563c0,0.281,0.069,0.543,0.181,0.792c-0.109,0.244-0.176,0.502-0.178,0.778
			c-0.001,0.004-0.003,0.008-0.003,0.012v4.563c0,2.586,4.989,3.766,9.625,3.766c4.635,0,9.624-1.18,9.624-3.766v-4.381
			c0-0.006,0.002-0.011,0.002-0.017c0-0.008-0.002-0.017-0.002-0.022v-0.127c0-0.006,0.002-0.011,0.002-0.017
			c0-0.282-0.069-0.545-0.183-0.794c0.111-0.247,0.181-0.508,0.181-0.788v-4.383c0-0.005,0.002-0.011,0.002-0.017
			c0-0.008-0.002-0.015-0.002-0.021v-0.127c0-0.005,0.002-0.01,0.002-0.017c0-0.303-0.073-0.586-0.203-0.852
			c0.127-0.264,0.201-0.545,0.201-0.848V11.494z"/>
		
			<linearGradient id="path8001_1_" gradientUnits="userSpaceOnUse" x1="1734.5322" y1="4158.043" x2="1755.8859" y2="4158.043" gradientTransform="matrix(0.6524 0 0 0.6524 -1117.8374 -2685.3711)">
			<stop  offset="0" style="stop-color:#BFDEEC"/>
			<stop  offset="0.0164" style="stop-color:#B8D3E2"/>
			<stop  offset="0.043" style="stop-color:#A3BCC8"/>
			<stop  offset="0.0667" style="stop-color:#8BA2AF"/>
			<stop  offset="0.5455" style="stop-color:#BFDEEC"/>
			<stop  offset="0.5614" style="stop-color:#C2DCEB"/>
			<stop  offset="0.6708" style="stop-color:#DAEBF3"/>
			<stop  offset="0.7715" style="stop-color:#EDF7F9"/>
			<stop  offset="0.8545" style="stop-color:#F1F8F9"/>
			<stop  offset="0.8593" style="stop-color:#F0F8FA"/>
			<stop  offset="0.8965" style="stop-color:#E9F5F7"/>
			<stop  offset="1" style="stop-color:#E8F5F7"/>
		</linearGradient>
		<path id="path8001_8_" fill="url(#path8001_1_)" d="M30.998,28.234v-4.563c0,1.529-3.859,2.769-8.624,2.769
			c-4.763,0-8.625-1.238-8.625-2.768v4.563c0,1.527,3.86,2.766,8.625,2.766S30.998,29.764,30.998,28.234z"/>
		<ellipse id="ellipse8003_8_" fill="#BFDEEC" cx="22.375" cy="23.672" rx="8.625" ry="2.768"/>
		<ellipse id="ellipse8010_8_" fill="#020202" cx="22.375" cy="23.385" rx="8.17" ry="2.607"/>
		
			<linearGradient id="path8044_1_" gradientUnits="userSpaceOnUse" x1="1760.8086" y1="4154.6729" x2="1739.2062" y2="4154.6729" gradientTransform="matrix(0.6524 0 0 0.6524 -1117.8374 -2685.3711)">
			<stop  offset="0" style="stop-color:#BFDEEC"/>
			<stop  offset="0.0164" style="stop-color:#B8D3E2"/>
			<stop  offset="0.043" style="stop-color:#A3BCC8"/>
			<stop  offset="0.0667" style="stop-color:#8BA2AF"/>
			<stop  offset="0.5455" style="stop-color:#BFDEEC"/>
			<stop  offset="0.5614" style="stop-color:#C2DCEB"/>
			<stop  offset="0.6708" style="stop-color:#DAEBF3"/>
			<stop  offset="0.7715" style="stop-color:#EDF7F9"/>
			<stop  offset="0.8545" style="stop-color:#F1F8F9"/>
			<stop  offset="0.8593" style="stop-color:#F0F8FA"/>
			<stop  offset="0.8965" style="stop-color:#E9F5F7"/>
			<stop  offset="1" style="stop-color:#E8F5F7"/>
		</linearGradient>
		<path id="path8044_8_" fill="url(#path8044_1_)" d="M22.375,26.271c-4.59,0-8.342-1.148-8.606-2.601
			c-0.011,0.056-0.017,0.109-0.017,0.166c0,1.524,3.857,2.765,8.623,2.765c4.762,0,8.625-1.236,8.625-2.765
			c0-0.057-0.009-0.11-0.017-0.166C30.714,25.123,26.964,26.271,22.375,26.271z"/>
		
			<linearGradient id="path8087_1_" gradientUnits="userSpaceOnUse" x1="1734.5322" y1="4148.625" x2="1755.8859" y2="4148.625" gradientTransform="matrix(0.6524 0 0 0.6524 -1117.8374 -2685.3711)">
			<stop  offset="0" style="stop-color:#BFDEEC"/>
			<stop  offset="0.0164" style="stop-color:#B8D3E2"/>
			<stop  offset="0.043" style="stop-color:#A3BCC8"/>
			<stop  offset="0.0667" style="stop-color:#8BA2AF"/>
			<stop  offset="0.5455" style="stop-color:#BFDEEC"/>
			<stop  offset="0.5614" style="stop-color:#C2DCEB"/>
			<stop  offset="0.6708" style="stop-color:#DAEBF3"/>
			<stop  offset="0.7715" style="stop-color:#EDF7F9"/>
			<stop  offset="0.8545" style="stop-color:#F1F8F9"/>
			<stop  offset="0.8593" style="stop-color:#F0F8FA"/>
			<stop  offset="0.8965" style="stop-color:#E9F5F7"/>
			<stop  offset="1" style="stop-color:#E8F5F7"/>
		</linearGradient>
		<path id="path8087_8_" fill="url(#path8087_1_)" d="M30.998,22.09v-4.563c0,1.527-3.859,2.766-8.624,2.766
			c-4.763,0-8.625-1.238-8.625-2.766v4.563c0,1.527,3.86,2.766,8.625,2.766C27.139,24.854,30.998,23.617,30.998,22.09z"/>
		<ellipse id="ellipse8089_8_" fill="#BFDEEC" cx="22.375" cy="17.527" rx="8.625" ry="2.766"/>
		<ellipse id="ellipse8096_8_" fill="#020202" cx="22.375" cy="17.243" rx="8.17" ry="2.606"/>
		
			<linearGradient id="path8130_1_" gradientUnits="userSpaceOnUse" x1="1760.8027" y1="4145.2549" x2="1739.2002" y2="4145.2549" gradientTransform="matrix(0.6524 0 0 0.6524 -1117.8374 -2685.3711)">
			<stop  offset="0" style="stop-color:#BFDEEC"/>
			<stop  offset="0.0164" style="stop-color:#B8D3E2"/>
			<stop  offset="0.043" style="stop-color:#A3BCC8"/>
			<stop  offset="0.0667" style="stop-color:#8BA2AF"/>
			<stop  offset="0.5455" style="stop-color:#BFDEEC"/>
			<stop  offset="0.5614" style="stop-color:#C2DCEB"/>
			<stop  offset="0.6708" style="stop-color:#DAEBF3"/>
			<stop  offset="0.7715" style="stop-color:#EDF7F9"/>
			<stop  offset="0.8545" style="stop-color:#F1F8F9"/>
			<stop  offset="0.8593" style="stop-color:#F0F8FA"/>
			<stop  offset="0.8965" style="stop-color:#E9F5F7"/>
			<stop  offset="1" style="stop-color:#E8F5F7"/>
		</linearGradient>
		<path id="path8130_8_" fill="url(#path8130_1_)" d="M22.375,20.129c-4.59,0-8.342-1.148-8.606-2.602
			c-0.012,0.057-0.017,0.106-0.017,0.164c0,1.526,3.857,2.766,8.623,2.766c4.762,0,8.625-1.238,8.625-2.766
			c0-0.058-0.009-0.111-0.017-0.164C30.714,18.979,26.964,20.129,22.375,20.129z"/>
		
			<linearGradient id="path8173_1_" gradientUnits="userSpaceOnUse" x1="1734.5322" y1="4139.0313" x2="1755.8859" y2="4139.0313" gradientTransform="matrix(0.6524 0 0 0.6524 -1117.8374 -2685.3711)">
			<stop  offset="0" style="stop-color:#BFDEEC"/>
			<stop  offset="0.0164" style="stop-color:#B8D3E2"/>
			<stop  offset="0.043" style="stop-color:#A3BCC8"/>
			<stop  offset="0.0667" style="stop-color:#8BA2AF"/>
			<stop  offset="0.5455" style="stop-color:#BFDEEC"/>
			<stop  offset="0.5614" style="stop-color:#C2DCEB"/>
			<stop  offset="0.6708" style="stop-color:#DAEBF3"/>
			<stop  offset="0.7715" style="stop-color:#EDF7F9"/>
			<stop  offset="0.8545" style="stop-color:#F1F8F9"/>
			<stop  offset="0.8593" style="stop-color:#F0F8FA"/>
			<stop  offset="0.8965" style="stop-color:#E9F5F7"/>
			<stop  offset="1" style="stop-color:#E8F5F7"/>
		</linearGradient>
		<path id="path8173_8_" fill="url(#path8173_1_)" d="M30.998,15.828v-4.562c0,1.527-3.859,2.768-8.624,2.768
			c-4.763-0.001-8.625-1.239-8.625-2.768v4.563c0,1.526,3.86,2.771,8.625,2.771S30.998,17.355,30.998,15.828z"/>
		<ellipse id="ellipse8175_8_" fill="#BFDEEC" cx="22.375" cy="11.267" rx="8.625" ry="2.767"/>
		
			<linearGradient id="path8202_1_" gradientUnits="userSpaceOnUse" x1="1760.8086" y1="4135.7314" x2="1739.2062" y2="4135.7314" gradientTransform="matrix(0.6524 0 0 0.6524 -1117.8374 -2685.3711)">
			<stop  offset="0" style="stop-color:#BFDEEC"/>
			<stop  offset="0.0164" style="stop-color:#B8D3E2"/>
			<stop  offset="0.043" style="stop-color:#A3BCC8"/>
			<stop  offset="0.0667" style="stop-color:#8BA2AF"/>
			<stop  offset="0.5455" style="stop-color:#BFDEEC"/>
			<stop  offset="0.5614" style="stop-color:#C2DCEB"/>
			<stop  offset="0.6708" style="stop-color:#DAEBF3"/>
			<stop  offset="0.7715" style="stop-color:#EDF7F9"/>
			<stop  offset="0.8545" style="stop-color:#F1F8F9"/>
			<stop  offset="0.8593" style="stop-color:#F0F8FA"/>
			<stop  offset="0.8965" style="stop-color:#E9F5F7"/>
			<stop  offset="1" style="stop-color:#E8F5F7"/>
		</linearGradient>
		<path id="path8202_9_" fill="url(#path8202_1_)" d="M22.375,13.916c-4.59,0-8.342-1.148-8.606-2.604
			c-0.012,0.055-0.017,0.114-0.017,0.167c0,1.529,3.857,2.768,8.623,2.768c4.762,0,8.625-1.242,8.625-2.768
			c0-0.057-0.009-0.111-0.017-0.166C30.714,12.768,26.964,13.916,22.375,13.916L22.375,13.916z"/>
	</g>
</g>
<g>
	<path id="path4235_22_" opacity="0.98" fill="#020202" enable-background="new    " d="M6.707,10.671
		c-0.146,0-0.288-0.047-0.405-0.143l-6.042-4.67C0.097,5.733,0,5.539,0,5.333s0.097-0.4,0.259-0.525l6.042-4.67
		C6.419,0.047,6.564,0,6.708,0c0.099,0,0.195,0.022,0.288,0.065C7.222,0.171,7.37,0.399,7.375,0.649l0.047,2.103
		c3.293,0.226,5.695,1.211,7.15,2.933c1.688,2.002,1.418,4.244,1.404,4.338c-0.036,0.287-0.258,0.52-0.546,0.569
		c-0.039,0.007-0.076,0.009-0.112,0.009c-0.247,0-0.48-0.137-0.595-0.363c-1.009-1.984-2.791-2.87-5.771-2.87
		c-0.459,0-0.946,0.019-1.532,0.06l-0.048,2.592c-0.005,0.252-0.151,0.478-0.379,0.586C6.903,10.649,6.804,10.671,6.707,10.671
		L6.707,10.671z"/>
	<path id="path7827_42_" fill="#6FBD46" d="M0.662,5.335l6.043-4.669l0.061,2.72c9.361,0.36,8.55,6.551,8.55,6.551
		c-1.735-3.41-5.334-3.399-8.55-3.123l-0.061,3.19L0.662,5.335L0.662,5.335z"/>
	
		<linearGradient id="path4246_1_" gradientUnits="userSpaceOnUse" x1="22.2939" y1="219.1582" x2="28.9678" y2="219.1582" gradientTransform="matrix(-4.371139e-008 -1 1 -4.371139e-008 -211.1937 30.9635)">
		<stop  offset="0" style="stop-color:#AED58A"/>
		<stop  offset="1" style="stop-color:#1E9046"/>
	</linearGradient>
	<path id="path4246_20_" fill="url(#path4246_1_)" d="M6.065,8.67L1.75,5.334l4.32-3.338l0.044,2.026l0.623,0.024
		c3.215,0.124,5.501,0.958,6.796,2.478c0.275,0.324,0.486,0.654,0.646,0.977c-1.63-1.273-3.662-1.462-5.229-1.462
		c-0.645,0-1.337,0.034-2.242,0.11L6.114,6.202L6.065,8.67z"/>
</g>
</svg>
