<?xml version="1.0" encoding="utf-8"?>
<!-- Generator: Adobe Illustrator 15.0.0, SVG Export Plug-In . SVG Version: 6.00 Build 0)  -->
<!DOCTYPE svg PUBLIC "-//W3C//DTD SVG 1.1//EN" "http://www.w3.org/Graphics/SVG/1.1/DTD/svg11.dtd">
<svg version="1.1"
	 id="svg2" xmlns:ns="http://creativecommons.org/ns#" xmlns:dc="http://purl.org/dc/elements/1.1/" xmlns:cc="http://web.resource.org/cc/" xmlns:rdf="http://www.w3.org/1999/02/22-rdf-syntax-ns#" xmlns:svg="http://www.w3.org/2000/svg" xmlns:sodipodi="http://sodipodi.sourceforge.net/DTD/sodipodi-0.dtd" xmlns:inkscape="http://www.inkscape.org/namespaces/inkscape" inkscape:output_extension="org.inkscape.output.svg.inkscape" sodipodi:version="0.32" inkscape:version="0.45.1" sodipodi:docname="oracle_hint.svg" sodipodi:docbase="C:\Radix\dev\trunk\org.radixware\kernel\designer\src\common.resources\src\org\radixware\kernel\designer\resources\icons\database"
	 xmlns="http://www.w3.org/2000/svg" xmlns:xlink="http://www.w3.org/1999/xlink" x="0px" y="0px" width="32px" height="32px"
	 viewBox="8 8 32 32" enable-background="new 8 8 32 32" xml:space="preserve">
<sodipodi:namedview  id="base" inkscape:cy="32.189528" inkscape:cx="28.306942" inkscape:zoom="8.7389623" showgrid="true" borderopacity="1.0" bordercolor="#000000" pagecolor="#ffffff" inkscape:window-y="-8" inkscape:window-x="-8" inkscape:window-height="944" inkscape:window-width="1280" inkscape:pageshadow="2" inkscape:pageopacity="0.0" inkscape:current-layer="layer1" showguides="true" inkscape:guide-bbox="true" inkscape:document-units="px">
	</sodipodi:namedview>
<g>
	<path d="M15.533,39.717c-0.137,0-0.275-0.027-0.407-0.086c-0.401-0.18-0.639-0.6-0.585-1.035l1.012-8.215l-6.538-0.082
		c-0.547-0.006-0.986-0.451-0.987-0.998L8,9.284c0-0.266,0.105-0.521,0.293-0.708S8.735,8.283,9,8.283
		c0.001,0,29.978,0.046,29.978,0.046c0.552,0.001,0.998,0.447,0.999,0.999L40,29.309c0,0.551-0.444,0.998-0.995,1l-14.881,0.084
		l-7.837,8.982C16.093,39.598,15.816,39.717,15.533,39.717z"/>
	<path id="path2194" sodipodi:nodetypes="cccccccc" fill="#F9A620" d="M9.027,29.299l7.654,0.096l-1.147,9.322l8.133-9.322
		L39,29.309l-0.023-19.98L9,9.283L9.027,29.299z"/>
	<linearGradient id="SVGID_1_" gradientUnits="userSpaceOnUse" x1="10.002" y1="22.9434" x2="37.999" y2="22.9434">
		<stop  offset="0" style="stop-color:#FFF3DF"/>
		<stop  offset="0.5394" style="stop-color:#F9A620"/>
		<stop  offset="1" style="stop-color:#A36628"/>
	</linearGradient>
	<polygon fill="url(#SVGID_1_)" points="17.811,28.408 10.026,28.313 10.002,10.285 37.978,10.327 37.999,28.314 23.21,28.398 
		16.925,35.602 	"/>
</g>
<g id="g4874" transform="matrix(1.0031352,0,0,1.2138455,103.36059,3.0653121)">
	<path id="path1307" fill="none" stroke="#000000" stroke-width="2" d="M-92.071,19.515l2.13-12.067"/>
	<path id="path2182" fill="none" stroke="#000000" stroke-width="2" d="M-68.281,19.515l2.128-12.067"/>
	<g id="g4815" transform="matrix(0.750451,0,0,0.750451,-100.50722,-3.505414)">
		<path id="path3059" fill="none" stroke="#000000" stroke-width="2" stroke-linecap="round" d="M19.754,18.143v7.099"/>
		<path id="path3934" fill="none" stroke="#000000" stroke-width="2" stroke-linecap="round" d="M22.828,23.467l-6.148-3.549"/>
		<path id="path3936" fill="none" stroke="#000000" stroke-width="2" stroke-linecap="round" d="M22.828,19.918l-6.148,3.549"/>
	</g>
	<g id="g4828" transform="matrix(0.750001,0,0,0.750001,-99.250019,-3.500011)">
		<path id="path3938" fill="none" stroke="#000000" stroke-width="2" d="M27.082,18.146v7.099"/>
		<path id="path3940" fill="none" stroke="#000000" stroke-width="2" d="M30.631,21.695h-7.099"/>
	</g>
	<g id="g5713" transform="matrix(0.750451,0,0,0.750451,-81.50722,-3.505414)">
		<path id="path5715" fill="none" stroke="#000000" stroke-width="2" stroke-linecap="round" d="M12.409,18.143v7.099"/>
		<path id="path5717" fill="none" stroke="#000000" stroke-width="2" stroke-linecap="round" d="M15.482,23.467l-6.148-3.549"/>
		<path id="path5719" fill="none" stroke="#000000" stroke-width="2" stroke-linecap="round" d="M15.482,19.918l-6.148,3.549"/>
	</g>
</g>
<g id="g2914" transform="translate(84.044691,-41.532575)">
	<path d="M-53.353,81.531c-3.418-0.04-5.941-0.873-7.501-2.475c-1.266-1.297-1.891-3.08-1.858-5.3
		c0.068-4.772,2.753-7.187,8.207-7.379c0.16-0.005,0.322-0.009,0.489-0.009c0.213,0,0.433,0.004,0.652,0.008
		c4,0.069,9.319,0.888,9.319,7.178c0,2.611-0.69,4.53-2.111,5.867c-1.511,1.421-3.779,2.111-6.936,2.111
		C-53.092,81.532-53.353,81.531-53.353,81.531z M-54.062,70.365c-3.523,0.125-4.033,1.743-4.058,3.474
		c-0.017,1.091,0.256,1.908,0.829,2.497c0.758,0.778,2.084,1.185,3.939,1.206h0.153c4.019,0,4.561-1.946,4.561-3.852
		c0-1.685-0.576-3.253-4.755-3.324l-0.393-0.005C-53.88,70.361-53.971,70.361-54.062,70.365z"/>
	<path id="path3433" fill="#ED2526" d="M-54.476,67.209c-5.243,0.186-7.345,2.489-7.403,6.559c-0.068,4.818,3.181,6.866,8.536,6.93
		c6.21,0.073,8.466-2.584,8.466-7.145c0-4.192-2.489-6.241-8.501-6.344C-53.757,67.202-54.127,67.197-54.476,67.209z
		 M-54.092,69.532c0.229-0.008,0.466-0.005,0.714,0c3.938,0.066,5.574,1.409,5.574,4.157c0,2.987-1.489,4.733-5.557,4.686
		c-3.509-0.043-5.638-1.392-5.592-4.549C-58.916,71.16-57.528,69.655-54.092,69.532z"/>
</g>
</svg>
