<?xml version="1.0" encoding="utf-8"?>
<!-- Generator: Adobe Illustrator 15.0.0, SVG Export Plug-In . SVG Version: 6.00 Build 0)  -->
<!DOCTYPE svg PUBLIC "-//W3C//DTD SVG 1.1//EN" "http://www.w3.org/Graphics/SVG/1.1/DTD/svg11.dtd">
<svg version="1.1"
	 id="svg2" xmlns:ns="http://creativecommons.org/ns#" xmlns:dc="http://purl.org/dc/elements/1.1/" xmlns:cc="http://web.resource.org/cc/" xmlns:rdf="http://www.w3.org/1999/02/22-rdf-syntax-ns#" xmlns:svg="http://www.w3.org/2000/svg" xmlns:sodipodi="http://sodipodi.sourceforge.net/DTD/sodipodi-0.dtd" xmlns:inkscape="http://www.inkscape.org/namespaces/inkscape" inkscape:output_extension="org.inkscape.output.svg.inkscape" sodipodi:version="0.32" inkscape:version="0.45.1" sodipodi:docname="table_initial_values.svg" sodipodi:docbase="C:\Radix\dev\trunk\org.radixware\kernel\designer\src\common.resources\src\org\radixware\kernel\designer\resources\icons\database"
	 xmlns="http://www.w3.org/2000/svg" xmlns:xlink="http://www.w3.org/1999/xlink" x="0px" y="0px" width="32px" height="32px"
	 viewBox="0 0 32 32" enable-background="new 0 0 32 32" xml:space="preserve">
<sodipodi:namedview  width="48px" height="48px" id="base" inkscape:cy="21.92468" inkscape:cx="20.560739" inkscape:zoom="12.014587" showgrid="false" borderopacity="1.0" bordercolor="#000000" pagecolor="#ffffff" inkscape:window-y="44" inkscape:window-x="0" inkscape:window-height="944" inkscape:window-width="1280" inkscape:pageshadow="2" inkscape:pageopacity="0.0" inkscape:current-layer="g2492" inkscape:document-units="px">
	</sodipodi:namedview>
<g>
	<g>
		<path d="M0.721,20C0.324,20,0,19.657,0,19.236V0.764C0,0.344,0.324,0,0.721,0h20.559C21.677,0,22,0.342,22,0.764v18.475
			C22,19.657,21.678,20,21.279,20H0.721L0.721,20z"/>
		<rect x="0.721" y="0.764" fill="#DAEBF1" width="20.561" height="18.475"/>
		
			<linearGradient id="SVGID_1_" gradientUnits="userSpaceOnUse" x1="561.3613" y1="1742.7568" x2="581.9219" y2="1742.7568" gradientTransform="matrix(1 0 0 1 -560.6406 -1739.4248)">
			<stop  offset="0" style="stop-color:#B0D0DA"/>
			<stop  offset="1" style="stop-color:#0C7C9E"/>
		</linearGradient>
		<rect x="0.721" y="0.764" fill="url(#SVGID_1_)" width="20.561" height="5.137"/>
		<line fill="none" stroke="#000000" x1="0.721" y1="5.898" x2="21.279" y2="5.898"/>
		<line fill="none" stroke="#000000" x1="0.721" y1="10.291" x2="21.279" y2="10.291"/>
		<line fill="none" stroke="#000000" x1="0.721" y1="15.12" x2="21.279" y2="15.12"/>
		<line fill="none" stroke="#000000" x1="7.363" y1="5.91" x2="7.363" y2="19.249"/>
		<line fill="none" stroke="#000000" x1="14.684" y1="5.936" x2="14.684" y2="19.273"/>
	</g>
	<path opacity="0.6" fill="#FFFFFF" enable-background="new    " d="M21.279,0H0.721C0.324,0,0,0.344,0,0.764v18.475
		C0,19.657,0.324,20,0.721,20h20.559C21.677,20,22,19.657,22,19.236V0.764C22,0.342,21.678,0,21.279,0z"/>
</g>
<g>
	<path d="M10.721,32C10.324,32,10,31.657,10,31.236V12.764C10,12.344,10.324,12,10.721,12h20.559C31.678,12,32,12.342,32,12.764
		v18.474C32,31.657,31.678,32,31.279,32H10.721L10.721,32z"/>
	<rect x="10.721" y="12.764" fill="#DAEBF1" width="20.561" height="18.474"/>
	
		<linearGradient id="SVGID_2_" gradientUnits="userSpaceOnUse" x1="571.3613" y1="1754.7578" x2="591.9219" y2="1754.7578" gradientTransform="matrix(1 0 0 1 -560.6406 -1739.4248)">
		<stop  offset="0" style="stop-color:#B0D0DA"/>
		<stop  offset="1" style="stop-color:#0C7C9E"/>
	</linearGradient>
	<rect x="10.721" y="12.764" fill="url(#SVGID_2_)" width="20.561" height="5.136"/>
	<line fill="none" stroke="#000000" x1="10.721" y1="17.898" x2="31.279" y2="17.898"/>
	<line fill="none" stroke="#000000" x1="10.721" y1="22.291" x2="31.279" y2="22.291"/>
	<line fill="none" stroke="#000000" x1="10.721" y1="27.12" x2="31.279" y2="27.12"/>
	<line fill="none" stroke="#000000" x1="17.363" y1="17.91" x2="17.363" y2="31.249"/>
	<line fill="none" stroke="#000000" x1="24.684" y1="17.936" x2="24.684" y2="31.273"/>
</g>
<path fill="#FFFFFF" d="M31.279,12H22V0.764C22,0.342,21.678,0,21.279,0h-1.241c-0.755,0.216-1.336,0.816-1.468,1.592
	c-0.021,0.12-0.034,0.246-0.034,0.368c0,0.78,0.433,1.485,1.132,1.842c1.092,0.555,2.103,1.486,2.103,4.521c0,0.052,0,0.104,0,0.156
	l-1.275,0.024c-0.788,0.015-1.488,0.467-1.813,1.152c-0.141,0.28-0.215,0.596-0.215,0.912c0,0.462,0.158,0.916,0.434,1.263
	l4.671,6.045c0.39,0.501,0.999,0.801,1.632,0.801c0.639,0,1.251-0.302,1.636-0.804l4.523-5.856C31.334,12.014,31.309,12,31.279,12z"
	/>
<g>
	<path id="path4235_54_" opacity="0.98" fill="#020202" enable-background="new    " d="M19.866,10.538
		c0-0.098,0.021-0.196,0.066-0.286c0.108-0.228,0.336-0.374,0.588-0.379l2.588-0.049c0.043-0.584,0.061-1.073,0.061-1.531
		c0-2.98-0.885-4.762-2.869-5.77c-0.227-0.116-0.365-0.348-0.365-0.594c0-0.038,0.004-0.077,0.011-0.114
		c0.049-0.288,0.28-0.508,0.567-0.546c0.094-0.012,2.338-0.284,4.338,1.406c1.724,1.455,2.707,3.856,2.935,7.15l2.103,0.047
		c0.252,0.006,0.479,0.152,0.586,0.379c0.039,0.093,0.063,0.189,0.063,0.287c0,0.144-0.049,0.288-0.139,0.406l-4.668,6.043
		c-0.125,0.163-0.32,0.259-0.527,0.259s-0.4-0.098-0.525-0.259l-4.67-6.043C19.913,10.826,19.866,10.683,19.866,10.538
		L19.866,10.538z"/>
	<path id="path7827_87_" fill="#02ABD8" d="M25.202,16.582l-4.67-6.044l3.191-0.061C24,7.263,24.011,3.664,20.599,1.929
		c0,0,6.192-0.813,6.553,8.548l2.719,0.061L25.202,16.582L25.202,16.582z"/>
	
		<linearGradient id="path4246_1_" gradientUnits="userSpaceOnUse" x1="351.5752" y1="96.8672" x2="364.0039" y2="96.8672" gradientTransform="matrix(4.366649e-008 1 -1 4.366649e-008 122.0707 -348.5123)">
		<stop  offset="0" style="stop-color:#B0D0DA"/>
		<stop  offset="1" style="stop-color:#0C7C9E"/>
	</linearGradient>
	<path id="path4246_48_" fill="url(#path4246_1_)" d="M24.335,11.13l0.051-0.596c0.078-0.904,0.113-1.596,0.113-2.242
		c0-1.565-0.189-3.598-1.463-5.229c0.32,0.159,0.652,0.37,0.977,0.647c1.521,1.295,2.354,3.581,2.478,6.795l0.022,0.623l2.027,0.045
		l-3.338,4.319l-3.336-4.315L24.335,11.13z"/>
</g>
</svg>
