<?xml version="1.0" encoding="UTF-8" standalone="no"?>
<!-- Created with Inkscape (http://www.inkscape.org/) -->
<svg
   xmlns:dc="http://purl.org/dc/elements/1.1/"
   xmlns:cc="http://web.resource.org/cc/"
   xmlns:rdf="http://www.w3.org/1999/02/22-rdf-syntax-ns#"
   xmlns:svg="http://www.w3.org/2000/svg"
   xmlns="http://www.w3.org/2000/svg"
   xmlns:xlink="http://www.w3.org/1999/xlink"
   xmlns:sodipodi="http://sodipodi.sourceforge.net/DTD/sodipodi-0.dtd"
   xmlns:inkscape="http://www.inkscape.org/namespaces/inkscape"
   width="20"
   height="20"
   id="svg2"
   sodipodi:version="0.32"
   inkscape:version="0.45.1"
   sodipodi:docbase="C:\Radix\dev\trunk\org.radixware\kernel\designer\src\common.resources\src\org\radixware\kernel\designer\resources\icons\unused\debug"
   sodipodi:docname="view_codes.svg"
   version="1.0"
   inkscape:output_extension="org.inkscape.output.svg.inkscape">
  <defs
     id="defs4">
    <linearGradient
       id="linearGradient2208">
      <stop
         style="stop-color:#00fbff;stop-opacity:1;"
         offset="0"
         id="stop2210" />
      <stop
         style="stop-color:#dadada;stop-opacity:0;"
         offset="1"
         id="stop2212" />
    </linearGradient>
    <linearGradient
       inkscape:collect="always"
       xlink:href="#linearGradient2208"
       id="linearGradient2214"
       x1="32.017399"
       y1="33.159134"
       x2="7.1318436"
       y2="9.3407354"
       gradientUnits="userSpaceOnUse" />
    <linearGradient
       id="linearGradient3966">
      <stop
         style="stop-color:#84561c;stop-opacity:1;"
         offset="0"
         id="stop3968" />
      <stop
         style="stop-color:#c18119;stop-opacity:0;"
         offset="1"
         id="stop3970" />
    </linearGradient>
    <linearGradient
       inkscape:collect="always"
       xlink:href="#linearGradient3966"
       id="linearGradient3972"
       x1="26.785713"
       y1="26.714285"
       x2="30.714285"
       y2="22.000002"
       gradientUnits="userSpaceOnUse"
       gradientTransform="translate(-0.5,1.357143)" />
    <linearGradient
       id="linearGradient3980">
      <stop
         style="stop-color:#a69191;stop-opacity:1;"
         offset="0"
         id="stop3982" />
      <stop
         style="stop-color:#ac9d9d;stop-opacity:0;"
         offset="1"
         id="stop3984" />
    </linearGradient>
    <linearGradient
       inkscape:collect="always"
       xlink:href="#linearGradient3980"
       id="linearGradient3986"
       x1="14.856176"
       y1="27.714287"
       x2="28.286681"
       y2="17.857143"
       gradientUnits="userSpaceOnUse" />
    <linearGradient
       id="linearGradient4863">
      <stop
         style="stop-color:#a69191;stop-opacity:1;"
         offset="0"
         id="stop4865" />
      <stop
         style="stop-color:#000000;stop-opacity:0;"
         offset="1"
         id="stop4867" />
    </linearGradient>
    <linearGradient
       inkscape:collect="always"
       xlink:href="#linearGradient4863"
       id="linearGradient4869"
       x1="-6.5714283"
       y1="10.071428"
       x2="43.857143"
       y2="43.92857"
       gradientUnits="userSpaceOnUse"
       gradientTransform="translate(0.571429,0.428571)" />
  </defs>
  <sodipodi:namedview
     id="base"
     pagecolor="#ffffff"
     bordercolor="#000000"
     borderopacity="1.0"
     inkscape:pageopacity="0.0"
     inkscape:pageshadow="2"
     inkscape:zoom="19.79899"
     inkscape:cx="9.5398882"
     inkscape:cy="11.673676"
     inkscape:document-units="px"
     inkscape:current-layer="layer1"
     inkscape:window-width="1080"
     inkscape:window-height="748"
     inkscape:window-x="22"
     inkscape:window-y="29"
     showgrid="true"
     showguides="true"
     inkscape:guide-bbox="true" />
  <metadata
     id="metadata7">
    <rdf:RDF>
      <cc:Work
         rdf:about="">
        <dc:format>image/svg+xml</dc:format>
        <dc:type
           rdf:resource="http://purl.org/dc/dcmitype/StillImage" />
      </cc:Work>
    </rdf:RDF>
  </metadata>
  <g
     inkscape:label="Layer 1"
     inkscape:groupmode="layer"
     id="layer1">
    <path
       style="font-size:8px;font-style:normal;font-variant:normal;font-weight:normal;font-stretch:normal;text-align:start;line-height:100%;writing-mode:lr-tb;text-anchor:start;fill:#00008d;fill-opacity:1;stroke:none;stroke-width:1px;stroke-linecap:butt;stroke-linejoin:miter;stroke-opacity:1;font-family:Arial"
       d="M 2.9481091,7.2234375 L 2.1870909,7.2234375 L 2.1870909,2.3740606 C 2.0038806,2.5488176 1.7635964,2.7235698 1.4662376,2.8983176 C 1.1688754,3.073074 0.90181465,3.2041381 0.66505455,3.2915103 L 0.66505455,2.5558594 C 1.0906596,2.3557447 1.4627126,2.1133466 1.7812145,1.8286642 C 2.0997123,1.5439927 2.325199,1.2677716 2.4576751,1 L 2.9481091,1 L 2.9481091,7.2234375 z M 4.901389,4.1666812 C 4.9013887,3.4338526 4.9767858,2.8440642 5.1275806,2.3973139 C 5.2783742,1.9505734 5.5024516,1.6060015 5.7998133,1.3635976 C 6.0971726,1.1212053 6.4713395,1.0000063 6.9223151,1 C 7.2549056,1.0000063 7.5466288,1.0669475 7.797486,1.2008243 C 8.0483366,1.3347129 8.2555025,1.5277859 8.4189842,1.7800436 C 8.5824581,2.0323122 8.7107036,2.3395378 8.8037212,2.7017212 C 8.8967301,3.0639137 8.9432367,3.5522331 8.9432411,4.1666812 C 8.9432367,4.8938787 8.8685443,5.4808486 8.7191636,5.9275927 C 8.5697745,6.3743394 8.3464018,6.7196158 8.0490448,6.963423 C 7.7516808,7.2072307 7.3761046,7.3291344 6.9223151,7.3291346 C 6.3247731,7.3291344 5.855479,7.1149221 5.5144315,6.686497 C 5.105736,6.1706967 4.9013887,5.330759 4.901389,4.1666812 L 4.901389,4.1666812 z M 5.6835467,4.1666812 C 5.6835455,5.1841927 5.8026306,5.8613573 6.0408024,6.198177 C 6.2789712,6.5349986 6.5728085,6.7034089 6.9223151,6.7034085 C 7.271817,6.7034089 7.5656542,6.534294 7.8038278,6.196063 C 8.0419948,5.857834 8.1610799,5.1813741 8.1610836,4.1666812 C 8.1610799,3.1463572 8.0419948,2.4684879 7.8038278,2.1330715 C 7.5656542,1.7976652 7.2689984,1.6299595 6.9138593,1.629954 C 6.5643527,1.6299595 6.2853129,1.7779351 6.0767393,2.0738812 C 5.8146096,2.4515764 5.6835455,3.1491757 5.6835467,4.1666812 L 5.6835467,4.1666812 z M 12.587673,7.2234375 L 11.826655,7.2234375 L 11.826655,2.3740606 C 11.643445,2.5488176 11.403161,2.7235698 11.105801,2.8983176 C 10.808439,3.073074 10.541378,3.2041381 10.304619,3.2915103 L 10.304619,2.5558594 C 10.730223,2.3557447 11.102276,2.1133466 11.420779,1.8286642 C 11.739275,1.5439927 11.964762,1.2677716 12.097239,1 L 12.587673,1 L 12.587673,7.2234375 z M 14.540953,4.1666812 C 14.540953,3.4338526 14.61635,2.8440642 14.767143,2.3973139 C 14.917938,1.9505734 15.142016,1.6060015 15.439377,1.3635976 C 15.736736,1.1212053 16.110903,1.0000063 16.561878,1 C 16.89447,1.0000063 17.186193,1.0669475 17.43705,1.2008243 C 17.6879,1.3347129 17.895066,1.5277859 18.058548,1.7800436 C 18.222022,2.0323122 18.350267,2.3395378 18.443284,2.7017212 C 18.536294,3.0639137 18.5828,3.5522331 18.582805,4.1666812 C 18.5828,4.8938787 18.508109,5.4808486 18.358727,5.9275927 C 18.209338,6.3743394 17.985965,6.7196158 17.688608,6.963423 C 17.391245,7.2072307 17.015669,7.3291344 16.561878,7.3291346 C 15.964337,7.3291344 15.495042,7.1149221 15.153995,6.686497 C 14.7453,6.1706967 14.540953,5.330759 14.540953,4.1666812 L 14.540953,4.1666812 z M 15.32311,4.1666812 C 15.323109,5.1841927 15.442194,5.8613573 15.680365,6.198177 C 15.918535,6.5349986 16.212372,6.7034089 16.561878,6.7034085 C 16.911381,6.7034089 17.205218,6.534294 17.443391,6.196063 C 17.681558,5.857834 17.800642,5.1813741 17.800647,4.1666812 C 17.800642,3.1463572 17.681558,2.4684879 17.443391,2.1330715 C 17.205218,1.7976652 16.908562,1.6299595 16.553423,1.629954 C 16.203915,1.6299595 15.924876,1.7779351 15.716304,2.0738812 C 15.454174,2.4515764 15.323109,3.1491757 15.32311,4.1666812 L 15.32311,4.1666812 z "
       id="text2175" />
    <path
       style="font-size:8px;font-style:normal;font-variant:normal;font-weight:normal;font-stretch:normal;text-align:start;line-height:125%;writing-mode:lr-tb;text-anchor:start;fill:#000092;fill-opacity:1;stroke:none;stroke-width:1px;stroke-linecap:butt;stroke-linejoin:miter;stroke-opacity:1;font-family:Arial"
       d="M 0.65659915,11.532859 C 0.65659872,10.80003 0.73199585,10.210242 0.88279065,9.7634931 C 1.0335842,9.3167511 1.2576615,8.9721801 1.5550233,8.7297761 C 1.8523826,8.4873838 2.2265494,8.3661848 2.6775251,8.3661785 C 3.0101155,8.3661848 3.3018389,8.4331261 3.552696,8.5670028 C 3.8035466,8.7008911 4.0107125,8.8939641 4.1741942,9.1462221 C 4.3376681,9.3984911 4.4659137,9.7057161 4.5589311,10.0679 C 4.6519401,10.430092 4.6984468,10.918411 4.6984512,11.532859 C 4.6984468,12.260056 4.6237544,12.847026 4.4743736,13.29377 C 4.3249845,13.740517 4.1016118,14.085794 3.8042548,14.329602 C 3.5068908,14.573409 3.1313146,14.695312 2.6775251,14.695312 C 2.0799831,14.695312 1.6106891,14.481101 1.2696415,14.052675 C 0.86094595,13.536875 0.65659872,12.696937 0.65659915,11.532859 L 0.65659915,11.532859 z M 1.4387566,11.532859 C 1.4387555,12.550371 1.5578406,13.227536 1.7960125,13.564355 C 2.0341811,13.901177 2.3280184,14.069587 2.6775251,14.069586 C 3.027027,14.069587 3.3208643,13.900472 3.5590378,13.562241 C 3.7972049,13.224012 3.91629,12.547552 3.9162936,11.532859 C 3.91629,10.512536 3.7972049,9.8346661 3.5590378,9.4992501 C 3.3208643,9.1638441 3.0242085,8.9961381 2.6690694,8.9961321 C 2.3195627,8.9961381 2.040523,9.1441141 1.8319494,9.4400601 C 1.5698196,9.8177541 1.4387555,10.515354 1.4387566,11.532859 L 1.4387566,11.532859 z M 8.3428824,14.589616 L 7.5818645,14.589616 L 7.5818645,9.7402391 C 7.3986541,9.9149961 7.15837,10.089748 6.8610112,10.264495 C 6.5636489,10.439252 6.2965882,10.570316 6.0598282,10.657689 L 6.0598282,9.9220381 C 6.4854332,9.7219231 6.8574861,9.4795251 7.1759881,9.1948431 C 7.4944859,8.9101711 7.7199725,8.6339502 7.8524487,8.3661785 L 8.3428824,8.3661785 L 8.3428824,14.589616 z M 10.296163,11.532859 C 10.296162,10.80003 10.371559,10.210242 10.522354,9.7634931 C 10.673147,9.3167511 10.897224,8.9721801 11.194587,8.7297761 C 11.491946,8.4873838 11.866113,8.3661848 12.317088,8.3661785 C 12.649678,8.3661848 12.941402,8.4331261 13.192259,8.5670028 C 13.44311,8.7008911 13.650276,8.8939641 13.813758,9.1462221 C 13.977232,9.3984911 14.105477,9.7057161 14.198495,10.0679 C 14.291503,10.430092 14.33801,10.918411 14.338015,11.532859 C 14.33801,12.260056 14.263317,12.847026 14.113937,13.29377 C 13.964548,13.740517 13.741175,14.085794 13.443818,14.329602 C 13.146454,14.573409 12.770877,14.695312 12.317088,14.695312 C 11.719546,14.695312 11.250252,14.481101 10.909205,14.052675 C 10.500509,13.536875 10.296162,12.696937 10.296163,11.532859 L 10.296163,11.532859 z M 11.07832,11.532859 C 11.078319,12.550371 11.197404,13.227536 11.435575,13.564355 C 11.673745,13.901177 11.967582,14.069587 12.317088,14.069586 C 12.66659,14.069587 12.960428,13.900472 13.198601,13.562241 C 13.436768,13.224012 13.555853,12.547552 13.555857,11.532859 C 13.555853,10.512536 13.436768,9.8346661 13.198601,9.4992501 C 12.960428,9.1638441 12.663771,8.9961381 12.308633,8.9961321 C 11.959126,8.9961381 11.680086,9.1441141 11.471512,9.4400601 C 11.209383,9.8177541 11.078319,10.515354 11.07832,11.532859 L 11.07832,11.532859 z M 17.982446,14.589616 L 17.221427,14.589616 L 17.221427,9.7402391 C 17.038217,9.9149961 16.797933,10.089748 16.500575,10.264495 C 16.203212,10.439252 15.936151,10.570316 15.699391,10.657689 L 15.699391,9.9220381 C 16.124996,9.7219231 16.49705,9.4795251 16.815551,9.1948431 C 17.134049,8.9101711 17.359536,8.6339502 17.492012,8.3661785 L 17.982446,8.3661785 L 17.982446,14.589616 z "
       id="text2159" />
    <g
       style="display:inline"
       id="g2261"
       transform="matrix(0.2613558,7.0030091e-2,-7.0030091e-2,0.2613558,10.502969,6.1376977)">
      <path
         sodipodi:nodetypes="ccccc"
         id="path3988"
         d="M 20.571429,28.285714 L 36,47.428571 L 41.571429,41.428571 L 23.571429,26.428571 L 20.571429,28.285714 z "
         style="fill:url(#linearGradient4869);fill-opacity:1;fill-rule:evenodd;stroke:none;stroke-width:1px;stroke-linecap:butt;stroke-linejoin:miter;stroke-opacity:1" />
      <path
         transform="translate(-1.213319,7.24077e-2)"
         sodipodi:open="true"
         sodipodi:end="7.9662115"
         sodipodi:start="1.6877367"
         d="M 15.68325,29.207661 A 11.285714,11.428572 0 1 1 15.736063,29.213816"
         sodipodi:ry="11.428572"
         sodipodi:rx="11.285714"
         sodipodi:cy="17.857143"
         sodipodi:cx="17"
         id="path3978"
         style="fill:url(#linearGradient3986);fill-opacity:1;fill-rule:evenodd;stroke:none;stroke-width:1px;stroke-linecap:butt;stroke-linejoin:miter;stroke-opacity:1"
         sodipodi:type="arc" />
      <path
         sodipodi:nodetypes="ccccc"
         id="path3091"
         d="M 19.928571,22.928572 L 35.071429,41.071429 L 40.5,35.928572 L 21.928571,21.071429 L 19.928571,22.928572 z "
         style="fill:url(#linearGradient3972);fill-opacity:1;fill-rule:evenodd;stroke:#000000;stroke-width:3.16511941px;stroke-linecap:butt;stroke-linejoin:miter;stroke-opacity:1" />
      <g
         transform="matrix(1.117743,0,0,1.169803,-2.945148,-2.569742)"
         id="g3974">
        <path
           sodipodi:type="arc"
           style="fill:url(#linearGradient2214);fill-opacity:1;fill-rule:evenodd;stroke:#000000;stroke-width:3.16511941px;stroke-linecap:butt;stroke-linejoin:miter;stroke-opacity:1"
           id="path1333"
           sodipodi:cx="15.571428"
           sodipodi:cy="15.785714"
           sodipodi:rx="12.276298"
           sodipodi:ry="12.214286"
           d="M 14.139103,27.91658 A 12.276298,12.214286 0 1 1 14.196552,27.923158"
           sodipodi:start="1.6877367"
           sodipodi:end="7.9662115"
           sodipodi:open="true"
           transform="matrix(0.791303,0,0,0.783419,1.787061,1.596571)" />
        <path
           sodipodi:type="arc"
           style="fill:none;fill-opacity:0.75;fill-rule:evenodd;stroke:#653b3b;stroke-width:3.16511941px;stroke-linecap:butt;stroke-linejoin:miter;stroke-opacity:1"
           id="path2216"
           sodipodi:cx="15.142858"
           sodipodi:cy="15.428572"
           sodipodi:rx="11.571428"
           sodipodi:ry="11.428572"
           d="M 13.792772,26.779089 A 11.571428,11.428572 0 1 1 13.846922,26.785244"
           sodipodi:start="1.6877367"
           sodipodi:end="7.9662115"
           sodipodi:open="true"
           transform="matrix(0.905037,0,0,0.87999,0.366607,0.351646)" />
      </g>
    </g>
  </g>
</svg>
