<?xml version="1.0" encoding="utf-8"?>
<!-- Generator: Adobe Illustrator 14.0.0, SVG Export Plug-In . SVG Version: 6.00 Build 43363)  -->
<!DOCTYPE svg PUBLIC "-//W3C//DTD SVG 1.1//EN" "http://www.w3.org/Graphics/SVG/1.1/DTD/svg11.dtd">
<svg version="1.1" id="Layer_1" xmlns="http://www.w3.org/2000/svg" xmlns:xlink="http://www.w3.org/1999/xlink" x="0px" y="0px"
	 width="32px" height="32px" viewBox="0 0 32 32" enable-background="new 0 0 32 32" xml:space="preserve">
<path id="path4992" fill="#010101" d="M12.25,3.633c-0.033,0.009-0.064,0.019-0.094,0.03c0.004,0-0.098,0.033-0.094,0.031
	c0.002,0-0.129,0.033-0.125,0.031c0.002,0-0.098,0.064-0.094,0.063c0.002,0-0.098,0.064-0.094,0.062
	c0.002,0-0.098,0.065-0.094,0.062c0.002,0-0.098,0.065-0.094,0.063c0.002,0-0.098,0.098-0.094,0.094
	c0.002,0-0.066,0.098-0.063,0.094c0.002,0-0.064,0.098-0.063,0.095c0.002,0-0.064,0.097-0.063,0.094c0,0-0.064,0.129-0.063,0.125
	c0,0-0.033,0.097-0.031,0.095c0,0-0.033,0.128-0.031,0.125c0,0-0.033,0.128-0.031,0.125c0,0,0,0.097,0,0.094c0,0,0,0.061,0,0.094
	c0,0.011,0,0.031,0,0.031v6.094H5.031c0.001,0-0.013,0-0.031,0c-0.019-0.001-0.032,0-0.031,0c0.002,0-0.065,0-0.063,0
	c-0.011,0-0.021,0-0.031,0c0.002,0-0.064,0-0.063,0s-0.064,0.031-0.063,0.031c0.002-0.001-0.064,0-0.063,0
	c0.002-0.001-0.064,0.031-0.063,0.03s-0.064,0.001-0.063,0S4.498,11.226,4.5,11.225s-0.064,0.032-0.063,0.03
	c0.002,0-0.064,0.033-0.063,0.031c0.002,0-0.064,0.032-0.063,0.031c0.002,0-0.033,0.032-0.031,0.031
	c0.002,0-0.064,0.031-0.063,0.031s-0.064,0.033-0.063,0.031c0.002,0-0.033,0.032-0.031,0.03c0.002,0-0.064,0.063-0.063,0.062
	c0.002,0-0.033,0.033-0.031,0.031c0.002,0-0.064,0.033-0.063,0.031c0.002,0-0.033,0.064-0.031,0.063
	c0.002,0-0.033,0.063-0.031,0.063c0.001,0-0.032,0.033-0.031,0.031c0.001,0-0.063,0.064-0.063,0.063
	c0.001,0-0.032,0.063-0.031,0.062c0.001,0-0.032,0.063-0.031,0.062c0.001,0-0.001,0.033,0,0.031c0.001,0-0.031,0.064-0.031,0.063
	c0,0-0.031,0.064-0.031,0.063c0,0,0,0.064,0,0.063c0,0-0.031,0.064-0.031,0.063c0,0,0,0.064,0,0.063c0,0-0.031,0.064-0.031,0.063
	c0,0,0,0.064,0,0.063c0,0,0,0.064,0,0.063c0,0,0,0.064,0,0.063v7c0,0,0,0.064,0,0.063c0,0,0,0.064,0,0.063c0,0,0,0.064,0,0.063
	c0,0,0.031,0.064,0.031,0.063c0,0,0,0.064,0,0.063c0,0,0.031,0.096,0.031,0.094c0,0,0.031,0.064,0.031,0.063
	c0,0,0.001,0.064,0,0.063c-0.001,0,0.032,0.063,0.031,0.061c-0.001,0,0.032,0.064,0.031,0.063c-0.001,0,0.032,0.064,0.031,0.063
	c-0.001,0,0.032,0.033,0.031,0.031c-0.001,0,0.064,0.063,0.063,0.063s0.033,0.064,0.031,0.063c-0.002,0,0.033,0.063,0.031,0.063
	s0.064,0.033,0.063,0.031c-0.002,0,0.033,0.064,0.031,0.063c-0.002,0,0.064,0.031,0.063,0.029c-0.002,0,0.064,0.033,0.063,0.031
	c-0.002,0,0.064,0.064,0.063,0.063c-0.002,0,0.033,0.031,0.031,0.031s0.064,0.031,0.063,0.031c-0.002-0.002,0.064,0.031,0.063,0.031
	c-0.002-0.002,0.064,0.031,0.063,0.031c-0.002-0.002,0.064,0,0.063,0c-0.002-0.002,0.064,0.031,0.063,0.029
	c-0.002,0,0.096,0.033,0.094,0.031c-0.002,0,0.064,0,0.063,0c-0.003,0,0.064,0.033,0.063,0.031c-0.003,0,0.064,0,0.063,0
	c-0.003,0,0.064,0,0.063,0c-0.003,0,0.064,0,0.063,0h6.125v6.094v0.031c-0.002,0.018,0,0.031,0,0.031s0,0.064,0,0.063
	c0,0.01,0,0.02,0,0.031c0,0,0,0.064,0,0.063c-0.002,0,0.031,0.064,0.031,0.063c-0.002,0,0,0.064,0,0.063
	c-0.002,0,0.031,0.064,0.031,0.063c-0.002,0,0,0.064,0,0.063c-0.002,0,0.031,0.064,0.031,0.063c-0.002,0,0.031,0.063,0.031,0.063
	c-0.002,0,0.031,0.064,0.031,0.063c-0.002,0,0.031,0.063,0.031,0.063c-0.002,0,0.031,0.033,0.031,0.031
	c-0.002,0,0.031,0.063,0.031,0.061c-0.002,0,0.031,0.064,0.031,0.063c-0.002,0,0.031,0.033,0.031,0.031
	c-0.002,0,0.063,0.064,0.063,0.063c-0.002,0,0.031,0.033,0.031,0.031c-0.002,0,0.031,0.064,0.031,0.063
	c-0.002,0,0.063,0.033,0.063,0.031c-0.002,0,0.063,0.031,0.063,0.031c-0.002,0,0.031,0.031,0.031,0.031
	c-0.002,0,0.064,0.063,0.063,0.063s0.064,0.031,0.063,0.031c-0.002-0.002,0.064,0.031,0.063,0.031c-0.002-0.002,0.033,0,0.031,0
	c-0.002-0.002,0.064,0.031,0.063,0.029c-0.002,0,0.064,0.033,0.063,0.031c-0.002,0,0.064,0.002,0.063,0
	c-0.002,0,0.064,0.033,0.063,0.031c-0.002,0,0.064,0,0.063,0s0.064,0.033,0.063,0.031c-0.002,0,0.064,0,0.063,0s0.064,0,0.063,0
	s0.064,0,0.063,0h7c-0.004,0,0.064,0,0.063,0c-0.004,0,0.064,0,0.063,0c-0.004,0,0.064,0,0.063,0c-0.004,0,0.064-0.031,0.063-0.031
	c-0.004,0,0.064,0,0.063,0s0.096-0.031,0.094-0.031c-0.002,0.002,0.064-0.031,0.063-0.031c-0.002,0.002,0.064,0,0.063,0
	c-0.002,0.002,0.064-0.031,0.063-0.029c-0.002,0,0.064-0.033,0.063-0.031c-0.002,0,0.064-0.033,0.063-0.031
	c-0.002,0,0.033-0.033,0.031-0.031c-0.002,0,0.064-0.064,0.063-0.063c-0.002,0,0.063-0.033,0.063-0.031
	c-0.002,0,0.063-0.033,0.063-0.031c-0.002,0,0.031-0.063,0.031-0.061c-0.002,0,0.063-0.033,0.063-0.031
	c-0.002,0,0.031-0.064,0.031-0.063c-0.002,0,0.031-0.064,0.031-0.063c-0.002,0,0.063-0.064,0.063-0.063
	c-0.002,0,0.031-0.033,0.031-0.031c-0.002,0,0.031-0.064,0.031-0.063c-0.002,0,0.031-0.064,0.031-0.063
	c-0.002,0,0.031-0.064,0.031-0.063c-0.002,0,0-0.064,0-0.061c-0.002,0,0.031-0.066,0.031-0.063c-0.002,0,0.031-0.096,0.031-0.094
	c-0.002,0,0-0.064,0-0.063c-0.002,0,0.031-0.066,0.031-0.063c-0.002,0,0-0.064,0-0.063c0,0,0-0.066,0-0.063c0,0,0-0.064,0-0.063
	v-6.125H27c-0.004,0,0.064,0,0.063,0c-0.004,0,0.064-0.002,0.063,0c-0.004,0,0.064-0.002,0.063,0c-0.004,0,0.064-0.033,0.063-0.031
	c-0.004,0,0.064-0.002,0.063,0c-0.002,0,0.096-0.033,0.094-0.031c-0.002,0,0.064-0.033,0.063-0.031c-0.002,0,0.064-0.002,0.063,0
	c-0.002,0,0.064-0.031,0.063-0.031s0.064-0.031,0.063-0.031c-0.002,0.002,0.064-0.031,0.063-0.031s0.033-0.033,0.031-0.031
	c-0.002,0,0.064-0.063,0.063-0.061c-0.002,0,0.063-0.033,0.063-0.031c-0.002,0,0.063-0.033,0.063-0.031
	c-0.002,0,0.031-0.064,0.031-0.063c-0.002,0,0.063-0.033,0.063-0.031c-0.002,0,0.031-0.063,0.031-0.063
	c-0.002,0,0.031-0.064,0.031-0.063c-0.002,0,0.063-0.063,0.063-0.063c-0.002,0,0.031-0.033,0.031-0.031
	c-0.002,0,0.031-0.064,0.031-0.063c-0.002,0,0.031-0.063,0.031-0.061c-0.002,0,0.031-0.064,0.031-0.063c-0.002,0,0-0.064,0-0.063
	c-0.002,0,0.031-0.064,0.031-0.063c-0.002,0,0.031-0.096,0.031-0.094c-0.002,0,0-0.064,0-0.063c-0.002,0,0.031-0.064,0.031-0.063
	c-0.002,0,0-0.064,0-0.063c0,0,0-0.064,0-0.063c0,0,0-0.064,0-0.063v-7c0,0,0-0.064,0-0.062c0,0,0-0.065,0-0.063
	c0,0-0.002-0.064,0-0.062c0,0-0.033-0.065-0.031-0.063c0,0-0.002-0.064,0-0.062c0,0-0.033-0.097-0.031-0.095
	c0,0-0.033-0.064-0.031-0.062c0,0-0.002-0.063,0-0.062c0,0-0.033-0.064-0.031-0.063c0,0-0.033-0.064-0.031-0.063
	c0,0-0.033-0.063-0.031-0.062c0,0-0.033-0.032-0.031-0.03c0,0-0.064-0.064-0.063-0.063c0,0-0.033-0.064-0.031-0.063
	c0,0-0.033-0.064-0.031-0.063c0,0-0.064-0.033-0.063-0.031c0,0-0.033-0.064-0.031-0.063c0,0-0.064-0.032-0.063-0.03
	c0,0-0.064-0.033-0.063-0.031c0.002,0-0.064-0.063-0.063-0.062c0.002,0-0.033-0.032-0.031-0.031c0.002,0-0.064-0.032-0.063-0.031
	s-0.064-0.031-0.063-0.031s-0.064-0.031-0.063-0.031c0.002,0.002-0.064,0-0.063,0c0.002,0.002-0.064-0.031-0.063-0.03
	s-0.096-0.032-0.094-0.031s-0.064,0-0.063,0c0.002,0.001-0.064-0.032-0.063-0.03c0.002,0-0.064-0.001-0.063,0
	c0.002,0-0.066,0-0.063,0c0.002,0-0.066,0-0.063,0h-6.125V5.009c0,0,0-0.065,0-0.063c0,0,0-0.064,0-0.063c0,0-0.002-0.065,0-0.063
	c0,0-0.033-0.064-0.031-0.063c0,0-0.002-0.065,0-0.063c0,0-0.033-0.096-0.031-0.094c0,0-0.033-0.065-0.031-0.063
	c0,0-0.002-0.064,0-0.063c0,0-0.033-0.063-0.031-0.062c0,0-0.033-0.063-0.031-0.062c0,0-0.033-0.064-0.031-0.063
	c0,0-0.033-0.033-0.031-0.031c0,0-0.064-0.063-0.063-0.062c0,0-0.033-0.063-0.031-0.063c0,0-0.033-0.063-0.031-0.062
	c0,0-0.064-0.033-0.063-0.031c0,0-0.033-0.063-0.031-0.062c0,0-0.064-0.033-0.063-0.031c0,0-0.064-0.033-0.063-0.031
	c0.002,0-0.064-0.064-0.063-0.063c0.002,0-0.033-0.031-0.031-0.03c0.002,0-0.064-0.032-0.063-0.031s-0.064-0.032-0.063-0.03
	c0.002,0-0.064-0.033-0.063-0.031c0.002,0-0.064-0.001-0.063,0c0.002,0-0.064-0.032-0.063-0.031c0.002,0-0.096-0.032-0.094-0.031
	c0.002,0-0.064,0-0.063,0S19.686,3.64,19.688,3.64s-0.066,0-0.063,0c0.002,0-0.066,0-0.063,0c0.002,0-0.066,0-0.063,0h-6.938
	c0.002,0-0.066,0-0.063,0c0.002,0-0.066,0-0.063,0c0,0-0.014,0-0.031,0c0,0-0.021,0-0.031,0c0.002,0-0.066,0-0.063,0
	c-0.021,0-0.043,0-0.063,0V3.633z"/>
<path id="rect4855-4" fill="#6BBE45" d="M12.512,5.005v7.5H5.013v7h7.499v7.5h7v-7.5h7.5v-7h-7.5v-7.5H12.512z"/>
<linearGradient id="path4903-3_1_" gradientUnits="userSpaceOnUse" x1="-765.7188" y1="-1027.3315" x2="-745.4683" y2="-1027.3315" gradientTransform="matrix(0 -1 -1 0 -1011.3193 -739.5879)">
	<stop  offset="0" style="stop-color:#B2D78E"/>
	<stop  offset="1" style="stop-color:#1F9045"/>
</linearGradient>
<path id="path4903-3" fill="url(#path4903-3_1_)" d="M13.387,5.88v7.5H5.888v5.25h7.499v7.5h5.25v-7.5h7.5v-5.25h-7.5v-7.5H13.387z"
	/>
</svg>
