<?xml version="1.0" encoding="utf-8"?>
<!-- Generator: Adobe Illustrator 14.0.0, SVG Export Plug-In . SVG Version: 6.00 Build 43363)  -->
<!DOCTYPE svg PUBLIC "-//W3C//DTD SVG 1.1//EN" "http://www.w3.org/Graphics/SVG/1.1/DTD/svg11.dtd">
<svg version="1.1" id="Layer_1" xmlns="http://www.w3.org/2000/svg" xmlns:xlink="http://www.w3.org/1999/xlink" x="0px" y="0px"
	 width="32px" height="32px" viewBox="0 0 32 32" enable-background="new 0 0 32 32" xml:space="preserve">
<path fill="#010101" d="M27.521,10.78c0.002-0.001,0.017-0.017,0.022-0.022c0.003-0.003-0.022-0.022-0.022-0.022l0.001-0.043
	c-0.001,0,0-0.044,0-0.044s0.021-0.021,0.022-0.022c-0.005-0.009-0.021-0.019-0.022-0.022c-0.003-0.011-0.022-0.022-0.022-0.022
	l0.022-0.022c-0.001-0.013-0.023-0.021-0.022-0.022c0.002-0.001,0-0.044,0-0.044c0.003-0.003,0.001-0.043,0.001-0.043
	s-0.019-0.013-0.022-0.022c-0.004-0.01-0.022-0.023-0.021-0.021c-0.007-0.015,0-0.044,0-0.044s0.008-0.025,0-0.044
	c-0.01-0.013-0.02-0.017-0.022-0.022c-0.004-0.009,0.022-0.022,0.022-0.022s-0.017-0.005-0.022-0.022
	c-0.005-0.016-0.022-0.063-0.021-0.065c0,0-0.018-0.012-0.022-0.022c-0.004-0.009,0.002-0.037,0.001-0.043
	c-0.011-0.01-0.018-0.018-0.022-0.022c-0.005-0.008-0.021-0.022-0.021-0.022c-0.004-0.01-0.022-0.022-0.022-0.022l0.022-0.022
	c-0.006-0.008-0.016-0.01-0.022-0.022c0,0-0.018-0.012-0.021-0.022c-0.008-0.007-0.017-0.017-0.021-0.021
	c-0.008-0.013,0-0.044,0-0.044c-0.001,0-0.019-0.019-0.021-0.021c-0.008-0.008-0.018-0.018-0.022-0.022c0,0-0.033-0.033-0.044-0.044
	c-0.007-0.007-0.019-0.018-0.022-0.022c-0.03-0.03-0.01-0.01-0.021-0.022l-4.95-4.95c-0.013-0.012,0.009,0.009-0.021-0.021
	c-0.008-0.007-0.018-0.017-0.022-0.022c-0.01-0.01-0.043-0.043-0.044-0.045c-0.008-0.007-0.017-0.017-0.021-0.021l-0.022-0.022
	l-0.022,0.022c0,0-0.017-0.017-0.021-0.021c-0.007-0.007-0.017-0.016-0.021-0.022c0,0-0.011-0.016-0.022-0.022
	c-0.008-0.005-0.021-0.022-0.021-0.022c-0.012-0.003-0.022,0.022-0.022,0.022s-0.014-0.02-0.022-0.022c0,0-0.015-0.018-0.021-0.022
	c0,0.001-0.066-0.022-0.066-0.021c-0.01-0.005-0.021-0.021-0.021-0.021c-0.001,0.001-0.069-0.03-0.093-0.042l-0.019,0.019
	c0,0-0.017-0.019-0.021-0.021c0,0-0.03,0.003-0.044,0c0,0-0.015-0.02-0.022-0.022c-0.009,0.008-0.016,0.015-0.022,0.022
	c-0.011-0.002-0.017-0.022-0.021-0.022L21.54,4.49c0,0-0.016-0.021-0.022-0.022c-0.011-0.002-0.021,0.021-0.021,0.022
	c-0.012-0.003-0.016-0.021-0.021-0.021c-0.003,0.003-0.022,0.022-0.022,0.022c-0.001,0.001-0.02-0.02-0.021-0.022
	c-0.002,0.001-0.022,0.022-0.022,0.022s-0.012-0.02-0.021-0.021c-0.001,0.001-0.015-0.02-0.022-0.022
	c-0.001,0.001-0.021,0.022-0.021,0.022h-0.044h-0.045c0,0-0.018-0.023-0.021-0.022c-0.006,0.005-0.021,0.021-0.022,0.022
	c-0.007,0.007-0.017,0.017-0.022,0.022c-0.002,0.002-0.019-0.022-0.021-0.022c-0.003,0.003-0.02,0.02-0.022,0.022
	c0.002,0.001-0.015-0.021-0.021-0.021c-0.013-0.002-0.021,0.022-0.021,0.022c-0.005,0.004-0.045,0-0.045,0s-0.015,0.015-0.021,0.022
	c-0.002,0.001-0.019,0.018-0.022,0.022c-0.001,0.001-0.016-0.021-0.021-0.021c-0.003,0.002-0.011,0.025-0.021,0.022
	c-0.003,0.003-0.034-0.001-0.045,0c0,0-0.008,0.022-0.021,0.022S20.88,4.537,20.88,4.537c-0.002,0-0.006,0.02-0.022,0.022
	c-0.005,0.005-0.037-0.002-0.044,0c0,0-0.014,0.014-0.021,0.022c-0.009,0.008-0.017,0.017-0.022,0.022
	c-0.003,0.002-0.018-0.023-0.022-0.022C20.746,4.583,20.73,4.6,20.726,4.604c-0.012,0.011-0.019,0.018-0.022,0.022
	c0,0-0.017,0.017-0.022,0.022c-0.005,0.005-0.021,0.022-0.021,0.022s-0.014-0.024-0.022-0.022c0.001,0.001-0.015,0.018-0.021,0.022
	l-0.088,0.045c-0.002,0.001-0.035,0.035-0.045,0.044c0,0-0.025,0.026-0.021,0.022c-0.002,0.001-0.013,0.013-0.022,0.022
	c-0.009,0.008-0.016,0.015-0.021,0.022l-0.022,0.022L16,9.242l-4.395-4.395l-0.022-0.022c-0.006-0.008-0.013-0.015-0.021-0.022
	c-0.01-0.009-0.021-0.021-0.022-0.022c0.004,0.004-0.021-0.022-0.021-0.022c-0.01-0.01-0.043-0.043-0.045-0.044l-0.088-0.045
	c-0.007-0.004-0.022-0.021-0.021-0.022c-0.009-0.002-0.022,0.022-0.022,0.022s-0.017-0.017-0.021-0.022
	c-0.006-0.005-0.022-0.022-0.022-0.022c-0.004-0.004-0.011-0.011-0.022-0.022C11.27,4.6,11.254,4.583,11.253,4.581
	c-0.005-0.001-0.02,0.025-0.022,0.022c-0.006-0.006-0.014-0.014-0.022-0.022c-0.008-0.008-0.021-0.022-0.021-0.022
	c-0.007-0.002-0.039,0.005-0.044,0c-0.017-0.002-0.021-0.021-0.022-0.022c0,0-0.009,0.022-0.022,0.022s-0.021-0.022-0.021-0.022
	c-0.011-0.001-0.042,0.003-0.045,0c-0.011,0.003-0.019-0.02-0.021-0.022c-0.006,0-0.021,0.022-0.021,0.021
	c-0.004-0.004-0.021-0.021-0.022-0.022c-0.007-0.007-0.021-0.022-0.021-0.022s-0.04,0.004-0.045,0c0,0-0.009-0.024-0.021-0.022
	c-0.007,0-0.023,0.022-0.021,0.021c-0.003-0.003-0.02-0.02-0.022-0.022c-0.003,0-0.02,0.025-0.021,0.022
	c-0.006-0.006-0.016-0.016-0.022-0.022c-0.001-0.001-0.017-0.017-0.022-0.022c-0.004-0.001-0.021,0.022-0.021,0.022h-0.045h-0.044
	c0,0-0.021-0.021-0.021-0.022c-0.008,0.002-0.021,0.023-0.022,0.022c-0.01,0.001-0.021,0.021-0.021,0.021s-0.021-0.021-0.022-0.022
	c-0.002,0.002-0.021,0.023-0.021,0.022c0,0-0.02-0.019-0.022-0.022c-0.006,0-0.01,0.019-0.021,0.021
	c-0.001-0.001-0.011-0.025-0.021-0.022C10.476,4.469,10.46,4.49,10.46,4.49l-0.022,0.022c-0.005,0-0.011,0.02-0.021,0.022
	c-0.007-0.007-0.014-0.014-0.022-0.022c-0.008,0.002-0.022,0.022-0.022,0.022c-0.014,0.003-0.044,0-0.044,0
	c-0.005,0.003-0.021,0.021-0.021,0.021l-0.019-0.019c-0.023,0.012-0.092,0.043-0.093,0.042c0,0-0.011,0.017-0.021,0.021
	c0-0.001-0.066,0.022-0.066,0.021c-0.007,0.005-0.021,0.022-0.021,0.022c-0.009,0.002-0.022,0.022-0.022,0.022
	s-0.011-0.025-0.022-0.022c0,0-0.014,0.017-0.021,0.022c-0.012,0.006-0.022,0.022-0.022,0.022C9.992,4.693,9.982,4.702,9.976,4.709
	C9.971,4.714,9.954,4.731,9.954,4.731L9.932,4.709L9.909,4.731C9.904,4.736,9.896,4.746,9.888,4.752
	C9.887,4.754,9.854,4.787,9.844,4.797C9.839,4.802,9.829,4.812,9.821,4.819C9.791,4.85,9.813,4.829,9.8,4.841l-4.95,4.95
	C4.838,9.802,4.858,9.782,4.828,9.813C4.824,9.817,4.813,9.828,4.806,9.835C4.795,9.846,4.762,9.879,4.762,9.879
	C4.757,9.884,4.747,9.894,4.739,9.901C4.736,9.904,4.719,9.922,4.718,9.922c0,0,0.008,0.031,0,0.044
	C4.713,9.972,4.704,9.981,4.696,9.988c-0.004,0.01-0.021,0.022-0.021,0.022c-0.007,0.012-0.017,0.014-0.022,0.022l0.022,0.022
	c0,0-0.019,0.013-0.022,0.022c0,0-0.017,0.014-0.021,0.022c-0.005,0.004-0.012,0.012-0.022,0.022
	c-0.001,0.007,0.005,0.034,0.001,0.043c-0.005,0.011-0.022,0.022-0.022,0.022c0.001,0.002-0.017,0.049-0.021,0.065
	c-0.006,0.017-0.022,0.022-0.022,0.022s0.026,0.013,0.022,0.022c-0.003,0.006-0.013,0.01-0.022,0.022c-0.008,0.019,0,0.044,0,0.044
	s0.007,0.03,0,0.044c0.002-0.001-0.017,0.012-0.021,0.021C4.519,10.437,4.5,10.45,4.5,10.45s-0.002,0.041,0.001,0.043
	c0,0-0.002,0.043,0,0.044c0.001,0.001-0.021,0.01-0.022,0.022l0.022,0.022c0,0-0.02,0.011-0.022,0.022
	c-0.001,0.003-0.018,0.013-0.022,0.022c0.002,0.001,0.022,0.022,0.022,0.022s0.001,0.043,0,0.044l0.001,0.043
	c0,0-0.025,0.02-0.022,0.022c0.006,0.005,0.021,0.021,0.022,0.022c-0.003,0.011,0.025,0.01,0.021,0.022c0,0,0,0.042,0.001,0.043
	c-0.001,0.006,0,0.044,0,0.044c0.001,0.007,0,0.044,0,0.044s0.016,0.015,0.022,0.022c0.001,0.001,0.018,0.018,0.021,0.022
	C4.547,10.983,4.525,10.988,4.524,11c0.005,0.005,0.021,0.022,0.021,0.022s-0.007,0.023,0,0.044
	c0.003,0.017,0.022,0.022,0.022,0.022c0.003,0.01-0.022,0.022-0.022,0.022c0.003,0.003,0.021,0.063,0.023,0.066
	c0.007,0.009,0.015,0.016,0.021,0.022c0,0,0.016,0.015,0.022,0.022c0,0,0.023,0.068,0.022,0.066c0.002,0.003,0.025,0.01,0.021,0.022
	c0.007,0.01-0.003,0.04,0.001,0.043c-0.001,0.015,0.044,0.044,0.044,0.044s0.017,0.017,0.022,0.022c0.012,0.021,0,0.044,0,0.044
	c0.001,0.001,0.02,0.02,0.021,0.022c0.006,0.005,0.017,0.017,0.022,0.022c0.001,0.001,0.011,0.011,0.022,0.022
	c0.012,0.013,0.012,0.013,0.021,0.022c0.03,0.031,0.023,0.024,0.022,0.022c0,0,0.006,0.005,0.022,0.022l4.395,4.395L4.86,20.381
	c-0.026,0.027-0.027,0.025-0.022,0.022c-0.011,0.011-0.027,0.028-0.021,0.022c-0.024,0.022-0.013,0.012-0.022,0.021
	c-0.011,0.012-0.022,0.022-0.022,0.022S4.76,20.482,4.75,20.492c-0.012,0.011,0-0.002-0.022,0.021
	c-0.001,0.002-0.022,0.022-0.022,0.022c-0.017,0.013-0.032,0.028-0.044,0.044l0.002,0.002l-0.001,0.043
	c-0.003,0.003-0.016,0.018-0.022,0.022c-0.003,0.005-0.015,0.015-0.021,0.022c-0.007,0.006-0.022,0.066-0.022,0.066
	s-0.02,0.019-0.022,0.021c-0.005,0.006-0.021,0.021-0.021,0.021s0.024,0.02,0.021,0.022c-0.007,0.007-0.014,0.015-0.021,0.022
	c-0.01,0.01-0.022,0.021-0.022,0.021c-0.004,0.004,0.023,0.019,0.022,0.022c-0.007,0.007-0.022,0.022-0.022,0.022
	c-0.005,0.006-0.021,0.021-0.021,0.021s0.009,0.023,0,0.045c-0.005,0.018-0.022,0.021-0.022,0.021
	c0.006,0.008,0.013,0.016,0.022,0.022c-0.01,0.007-0.017,0.015-0.022,0.022c0,0-0.02,0.019-0.022,0.021
	c-0.004,0.004,0.021,0.019,0.021,0.021c-0.004,0.004-0.02,0.02-0.021,0.021c-0.003,0.004,0.021,0.021,0.021,0.022
	c-0.004,0.005-0.02,0.02-0.021,0.022c-0.003,0.002,0.022,0.02,0.021,0.021c-0.004,0.004-0.019,0.02-0.021,0.021
	c-0.002,0.002-0.001,0.035,0,0.045c-0.003,0.002,0.021,0.02,0.021,0.021c-0.002,0.05-0.024,0.012-0.021,0.022
	c0.001,0.013,0.021,0.051,0.021,0.022c-0.002,0.022-0.023,0.01-0.021,0.021c-0.003,0.003,0.021,0.021,0.021,0.022
	c-0.001,0.001-0.023-0.005-0.021,0.022c-0.002,0.018-0.002,0.043,0,0.043c0.001,0.014-0.002,0.043-0.001,0.044
	c0.007,0.009,0.014,0.017,0.022,0.022c-0.002,0.002-0.02,0.02-0.022,0.021c-0.003,0.004,0.021,0.016,0.021,0.021
	c-0.001,0.002-0.026,0.013-0.022,0.022c0.004,0.012,0.022,0.022,0.022,0.022c-0.003,0.002,0,0.044,0,0.044
	c0.004,0.013,0.022,0.022,0.022,0.022c-0.002,0.001-0.021,0.02-0.022,0.021c0.003,0.012,0.022,0.022,0.022,0.022
	s0.015,0.015,0.021,0.022c-0.001,0.001,0.018,0.008,0.021,0.021c0.005,0.01-0.028,0.007-0.021,0.021c0,0,0.014,0.009,0.021,0.021
	c0.011,0.021,0,0.044,0,0.044c0,0.001,0.017,0.018,0.021,0.022c0.004,0.01,0.022,0.021,0.022,0.021c0.004,0.01-0.002,0.037,0,0.045
	c-0.002,0.001,0.017,0.014,0.021,0.021c0,0,0.02,0.02,0.022,0.022c0,0-0.007,0.037-0.001,0.044c0,0,0.018,0.017,0.022,0.021
	c0.006,0.008,0.02,0.02,0.021,0.021c0.006,0.009,0.021,0.021,0.022,0.021c0.007,0.014,0,0.045,0,0.045s0.018,0.018,0.021,0.021
	c0.007,0.008,0.02,0.02,0.022,0.022c0.009,0.009,0.017,0.017,0.021,0.022c0.011,0.01,0.021,0.02,0.021,0.021
	c0.027,0.032,0.018,0.018,0.022,0.021c0.009,0.01-0.013-0.01,0.021,0.021l4.949,4.95c0.012,0.012-0.008-0.006,0.022,0.022
	c0.007,0.006,0.018,0.017,0.022,0.021c0.011,0.012,0.043,0.043,0.044,0.045c0.007,0.006,0.017,0.016,0.022,0.021l0.021,0.021
	c0,0,0.031-0.008,0.045,0c0.007,0.007,0.021,0.021,0.021,0.021s0.016,0.016,0.021,0.021c0.019,0.011,0.045,0,0.045,0
	s0.013,0.021,0.021,0.022c0,0,0.014,0.014,0.022,0.022c0.007,0.006,0.011,0.014,0.021,0.021c0.01,0.004,0.036-0.002,0.044,0
	c0.011,0.004,0.017,0.021,0.022,0.021c0,0,0.05,0.018,0.065,0.021c0.017,0.006,0.02,0.021,0.021,0.021c0,0,0.012-0.023,0.022-0.021
	c0.01,0.004,0.022,0.021,0.022,0.021s0.017,0.023,0.021,0.023c0.002-0.002,0.02-0.02,0.022-0.023
	c0.01,0.005,0.018,0.024,0.022,0.023c0.011,0.002,0.019-0.02,0.021-0.023c0.011,0.004,0.017,0.023,0.021,0.021
	c0.011,0.006,0.022,0.023,0.022,0.023s0.038-0.002,0.043-0.002c0.003-0.002,0.018,0.023,0.022,0.022
	c0.01,0.005,0.021-0.021,0.022-0.022h0.044c0.01,0.005,0.012,0.021,0.021,0.022c0.002-0.001,0.013,0.021,0.022,0.022
	c0.001-0.002,0.022-0.022,0.022-0.022h0.044l0.043-0.001c0,0,0.019,0.023,0.022,0.022c0.004-0.004,0.02-0.019,0.022-0.022
	c0.021,0,0.042,0.001,0.043,0c0.002-0.002,0.021-0.021,0.022-0.022c0.001,0.001,0.018,0.022,0.022,0.022
	c0.011,0.002,0.021-0.021,0.021-0.022c0.003-0.003,0.043,0.001,0.044,0c0,0,0.016-0.015,0.022-0.022
	c0.007-0.006,0.007-0.02,0.022-0.021c0.014,0,0.044,0,0.044,0s0.023,0.01,0.044,0c0.017-0.003,0.022-0.021,0.022-0.021
	c0.012,0,0.021,0.021,0.021,0.021c0.003-0.003,0.063-0.021,0.066-0.023c0.007-0.006,0.014-0.013,0.021-0.021
	c0.002-0.002,0.022-0.021,0.022-0.021c0.004-0.005,0.036,0.003,0.044,0c0.007-0.008,0.022-0.023,0.022-0.023
	c0.007-0.006,0.02-0.019,0.021-0.021c0.007-0.007,0.04,0.004,0.044,0c0.015,0,0.044-0.045,0.044-0.045s0.016-0.016,0.022-0.021
	c0.022-0.008,0.044,0,0.044,0s0.018-0.019,0.022-0.022c0.005-0.006,0.017-0.017,0.021-0.022c0.012-0.011,0.021-0.021,0.022-0.021
	c0.011-0.012,0.013-0.013,0.022-0.022c0.009-0.01,0.025-0.026,0.021-0.022c0,0,0.004-0.004,0.022-0.021L16,22.738l4.413,4.414
	c0.019,0.018,0.022,0.021,0.022,0.021c-0.004-0.004,0.013,0.013,0.021,0.022c0.01,0.01,0.012,0.011,0.022,0.022
	c0.001,0.001,0.011,0.011,0.022,0.021c0.005,0.006,0.017,0.017,0.021,0.022c0.005,0.004,0.022,0.022,0.022,0.022
	s0.021-0.008,0.044,0c0.007,0.006,0.022,0.021,0.022,0.021s0.029,0.045,0.044,0.045c0.004,0.004,0.037-0.007,0.044,0
	c0.002,0.003,0.015,0.016,0.021,0.021c0,0,0.016,0.016,0.022,0.023c0.008,0.003,0.04-0.005,0.044,0c0,0,0.021,0.02,0.022,0.021
	c0.008,0.009,0.015,0.016,0.021,0.021c0.004,0.002,0.063,0.021,0.066,0.023c0,0,0.01-0.021,0.021-0.021c0,0,0.006,0.019,0.022,0.021
	c0.021,0.01,0.044,0,0.044,0s0.03,0,0.044,0c0.016,0.002,0.016,0.016,0.022,0.021c0.007,0.008,0.022,0.022,0.022,0.022
	c0.001,0.001,0.041-0.003,0.044,0c0.001,0.001,0.011,0.024,0.021,0.022c0.005,0,0.021-0.021,0.022-0.022
	c0.002,0.001,0.021,0.021,0.022,0.022c0.001,0.001,0.021,0,0.043,0c0.003,0.004,0.019,0.019,0.022,0.022
	c0.004,0.001,0.022-0.022,0.022-0.022l0.043,0.001h0.044c0,0,0.021,0.021,0.022,0.022c0.01-0.002,0.021-0.023,0.022-0.022
	c0.01-0.001,0.012-0.018,0.021-0.022h0.044c0.002,0.002,0.013,0.027,0.022,0.022c0.005,0.001,0.02-0.024,0.022-0.022
	c0.005,0,0.043,0.002,0.043,0.002s0.012-0.018,0.022-0.023c0.005,0.002,0.011-0.018,0.021-0.021
	c0.003,0.004,0.011,0.025,0.021,0.023c0.005,0.001,0.013-0.019,0.022-0.023c0.003,0.004,0.021,0.021,0.022,0.023
	c0.005,0,0.021-0.023,0.021-0.023s0.013-0.018,0.022-0.021c0.011-0.002,0.022,0.021,0.022,0.021c0.002,0,0.005-0.016,0.021-0.021
	c0.016-0.004,0.065-0.021,0.065-0.021c0.006,0,0.012-0.018,0.022-0.021c0.008-0.002,0.034,0.004,0.044,0
	c0.011-0.008,0.015-0.016,0.021-0.021c0.009-0.009,0.022-0.022,0.022-0.022c0.009-0.001,0.021-0.022,0.021-0.022
	s0.026,0.011,0.045,0c0.006-0.006,0.021-0.021,0.021-0.021s0.015-0.015,0.021-0.021c0.014-0.008,0.045,0,0.045,0l0.021-0.021
	c0.006-0.006,0.016-0.016,0.022-0.021c0.001-0.002,0.033-0.033,0.044-0.045c0.005-0.005,0.016-0.016,0.022-0.021
	c0.03-0.028,0.011-0.011,0.022-0.022l4.949-4.95c0.034-0.031,0.013-0.012,0.021-0.021c0.005-0.004-0.005,0.011,0.022-0.021
	c0.001-0.002,0.011-0.012,0.021-0.021c0.005-0.006,0.013-0.014,0.021-0.022c0.003-0.003,0.016-0.015,0.022-0.022
	c0.004-0.004,0.021-0.021,0.021-0.021s-0.007-0.031,0-0.045c0.002-0.001,0.017-0.013,0.022-0.021
	c0.002-0.002,0.016-0.014,0.021-0.021c0.005-0.005,0.022-0.021,0.022-0.021c0.006-0.007-0.001-0.044-0.001-0.044
	c0.003-0.003,0.022-0.022,0.022-0.022c0.005-0.008,0.023-0.021,0.021-0.021c0.002-0.008-0.004-0.035,0-0.045
	c0,0,0.019-0.012,0.022-0.021c0.005-0.005,0.021-0.021,0.021-0.022c0,0-0.011-0.022,0-0.044c0.008-0.013,0.021-0.021,0.021-0.021
	c0.007-0.015-0.026-0.012-0.021-0.021c0.004-0.014,0.022-0.021,0.021-0.021c0.007-0.008,0.021-0.022,0.021-0.022
	s0.02-0.011,0.022-0.022c-0.001-0.002-0.021-0.021-0.022-0.021c0,0,0.019-0.01,0.022-0.022c0,0,0.003-0.042,0-0.044
	c0,0,0.019-0.011,0.022-0.022c0.004-0.01-0.021-0.021-0.022-0.022c0-0.006,0.024-0.018,0.021-0.021
	c-0.003-0.002-0.021-0.02-0.022-0.021c0.009-0.006,0.016-0.014,0.022-0.022c0.001-0.001-0.002-0.03-0.001-0.044
	c0.002,0,0.002-0.025,0-0.043c0.002-0.027-0.021-0.021-0.021-0.022c0.001-0.001,0.024-0.02,0.021-0.022
	c0.002-0.012-0.02,0.001-0.021-0.021c0.001,0.028,0.021-0.01,0.021-0.022c0.003-0.011-0.02,0.027-0.021-0.022
	c0-0.002,0.024-0.02,0.021-0.021c0.001-0.01,0.002-0.043,0-0.045c-0.003-0.002-0.018-0.018-0.021-0.021
	c-0.002-0.002,0.023-0.02,0.021-0.021c-0.002-0.003-0.018-0.018-0.021-0.022c0.001-0.001,0.024-0.019,0.021-0.022
	c-0.002-0.002-0.018-0.018-0.021-0.021c0-0.003,0.025-0.018,0.021-0.021c-0.003-0.003-0.022-0.021-0.022-0.021
	c-0.006-0.008-0.013-0.016-0.022-0.022c0.01-0.007,0.017-0.015,0.022-0.022c0,0-0.018-0.004-0.022-0.021
	c-0.009-0.021,0-0.045,0-0.045s-0.017-0.016-0.021-0.021c0,0-0.016-0.016-0.022-0.022c-0.001-0.004,0.026-0.019,0.022-0.022
	c0,0-0.013-0.012-0.022-0.021c-0.008-0.008-0.015-0.016-0.021-0.022c-0.003-0.003,0.021-0.022,0.021-0.022s-0.017-0.016-0.021-0.021
	c-0.003-0.003-0.022-0.021-0.022-0.021s-0.016-0.061-0.022-0.066c-0.007-0.008-0.019-0.018-0.021-0.022
	c-0.007-0.005-0.02-0.02-0.022-0.022l-0.001-0.043l0.002-0.002c-0.012-0.016-0.027-0.031-0.044-0.044c0,0-0.021-0.021-0.022-0.022
	c-0.022-0.023-0.011-0.011-0.022-0.021c-0.01-0.01-0.021-0.022-0.021-0.022s-0.012-0.011-0.022-0.022
	c-0.01-0.01,0.002,0.001-0.022-0.021c0.006,0.006-0.011-0.012-0.021-0.022c0.005,0.003,0.004,0.005-0.022-0.022l-4.392-4.391
	l4.395-4.395c0.017-0.017,0.022-0.022,0.022-0.022c-0.001,0.002-0.008,0.008,0.022-0.022c0.01-0.009,0.01-0.009,0.021-0.022
	c0.012-0.011,0.021-0.021,0.022-0.022c0.006-0.005,0.017-0.017,0.022-0.022c0.002-0.003,0.021-0.021,0.021-0.022
	c0,0-0.012-0.022,0-0.044c0.006-0.005,0.022-0.022,0.022-0.022s0.045-0.03,0.044-0.044c0.004-0.004-0.006-0.034,0.001-0.043
	c-0.004-0.012,0.02-0.019,0.021-0.022c-0.001,0.001,0.022-0.066,0.022-0.066c0.007-0.007,0.022-0.022,0.022-0.022
	c0.007-0.006,0.015-0.013,0.021-0.022c0.003-0.003,0.021-0.063,0.023-0.066c0,0-0.025-0.012-0.022-0.022c0,0,0.02-0.005,0.022-0.022
	c0.007-0.021,0-0.044,0-0.044s0.017-0.017,0.021-0.022c-0.001-0.013-0.022-0.017-0.021-0.022c0.004-0.004,0.021-0.021,0.021-0.022
	c0.007-0.007,0.022-0.022,0.022-0.022s-0.001-0.037,0-0.044c0,0,0.001-0.038,0-0.044c0.001-0.001,0.001-0.043,0.001-0.043
	C27.495,10.791,27.523,10.791,27.521,10.78z"/>
<polygon fill="#ED2224" points="26.255,21.303 20.949,15.998 26.251,10.697 21.301,5.747 16,11.048 10.699,5.747 5.749,10.697 
	11.051,15.998 5.745,21.303 10.694,26.253 16,20.947 21.306,26.253 "/>
<linearGradient id="SVGID_1_" gradientUnits="userSpaceOnUse" x1="6.9824" y1="16" x2="25.0176" y2="16">
	<stop  offset="0" style="stop-color:#F69799"/>
	<stop  offset="1" style="stop-color:#8F191C"/>
</linearGradient>
<polygon fill="url(#SVGID_1_)" points="25.018,21.303 19.713,15.998 25.014,10.697 21.301,6.984 16,12.285 10.699,6.984 
	6.986,10.697 12.287,15.998 6.982,21.303 10.694,25.016 16,19.71 21.306,25.016 "/>
</svg>
