<?xml version="1.0" encoding="utf-8"?>
<!-- Generator: Adobe Illustrator 15.0.0, SVG Export Plug-In . SVG Version: 6.00 Build 0)  -->
<!DOCTYPE svg PUBLIC "-//W3C//DTD SVG 1.1//EN" "http://www.w3.org/Graphics/SVG/1.1/DTD/svg11.dtd">
<svg version="1.1" id="Layer_1" xmlns="http://www.w3.org/2000/svg" xmlns:xlink="http://www.w3.org/1999/xlink" x="0px" y="0px"
	 width="32px" height="32px" viewBox="0 0 32 32" enable-background="new 0 0 32 32" xml:space="preserve">
<g>
	<path id="path5812_21_" d="M0,25.965l0.081-0.957c0.447-5.367,5.696-9.569,11.944-9.569c6.245,0,11.493,4.202,11.938,9.569
		l0.08,0.957H0z"/>
	<path id="path5814_21_" fill="#02ABD8" d="M23.085,25.079c-0.409-4.891-5.198-8.756-11.061-8.756
		c-5.865,0-10.651,3.865-11.062,8.756H23.085z"/>
	
		<linearGradient id="path5823_1_" gradientUnits="userSpaceOnUse" x1="844.1523" y1="1922.0625" x2="864.2109" y2="1922.0625" gradientTransform="matrix(1 0 0 1 -842.1602 -1901.3594)">
		<stop  offset="0" style="stop-color:#B0D0DA"/>
		<stop  offset="1" style="stop-color:#147D9E"/>
	</linearGradient>
	<path id="path5823_18_" fill="url(#path5823_1_)" d="M1.992,24.195c0.886-3.986,5.088-6.985,10.032-6.985
		c4.944,0,9.146,3,10.026,6.985H1.992z"/>
	<path id="path5827_18_" d="M10.402,24.923c-0.49,0-0.887-0.396-0.887-0.888v-6.5c0-0.486,0.395-0.883,0.887-0.883h2.848
		c0.49,0,0.884,0.392,0.884,0.883v6.5c0,0.491-0.393,0.888-0.884,0.888H10.402z"/>
	<rect id="rect5829_18_" x="10.402" y="17.538" fill="#FAA81D" width="2.848" height="6.5"/>
	<rect id="rect5831_18_" x="9.88" y="19.625" width="4.064" height="1.077"/>
	<path id="path5835_24_" d="M12.024,18.423c-4.153,0-7.781-2.799-8.876-6.744c-1.13-0.251-1.98-1.263-1.98-2.467
		c0-1.208,0.847-2.218,1.98-2.467C4.241,2.798,7.87,0,12.024,0c4.151,0,7.779,2.798,8.875,6.745
		c1.125,0.249,1.976,1.261,1.976,2.467c0,1.204-0.847,2.214-1.976,2.467C19.804,15.627,16.175,18.423,12.024,18.423L12.024,18.423z"
		/>
	<path id="path5837_24_" fill="#EFD9CA" d="M20.349,9.212c0,4.601-3.729,8.324-8.324,8.324c-4.598,0-8.326-3.724-8.326-8.324
		c0-4.598,3.729-8.324,8.326-8.324C16.62,0.886,20.349,4.612,20.349,9.212z"/>
	
		<circle id="circle5839_24_" sodipodi:cy="12.352" sodipodi:ry="1.925" sodipodi:rx="1.925" sodipodi:cx="6.237" fill="#EFD9CA" cx="3.697" cy="9.212" r="1.641">
	</circle>
	
		<circle id="circle5841_24_" sodipodi:cy="12.352" sodipodi:ry="1.925" sodipodi:rx="1.925" sodipodi:cx="25.764999" fill="#EFD9CA" cx="20.349" cy="9.212" r="1.641">
	</circle>
	
		<linearGradient id="path5850_1_" gradientUnits="userSpaceOnUse" x1="846.7432" y1="1910.5703" x2="861.6201" y2="1910.5703" gradientTransform="matrix(1 0 0 1 -842.1602 -1901.3594)">
		<stop  offset="0" style="stop-color:#E0B59B;stop-opacity:0"/>
		<stop  offset="1" style="stop-color:#E0B59B"/>
	</linearGradient>
	<path id="path5850_22_" fill="url(#path5850_1_)" d="M12.024,16.652c-4.104,0-7.441-3.342-7.441-7.44
		c0-4.104,3.338-7.441,7.441-7.441c4.099,0,7.436,3.338,7.436,7.441C19.46,13.311,16.123,16.652,12.024,16.652L12.024,16.652z"/>
	<path id="path5852_24_" d="M3.874,7.636c-0.073,0.835,0.111,2.486,0.27,3.299C4.136,9.915,3.985,8.249,4.466,7.352
		c0.666-1.253,7.786,0.24,10.451-5.143c-0.106,1.568-0.36,3.007,4.011,6.18c0.229,0.162,1.225,2.698,1.159,2.905
		c-0.072-0.658,0.279-2.306,0.271-2.999c-0.012-1.433-0.152-2.364-0.588-3.013C19.271,4.546,18,3.145,17.361,2.519
		c-2.183-2.137-5.588-2.602-8.455-1.561C7.422,1.496,6.451,2.69,5.433,3.679c-0.408,0.396-2.646,3.499-1.76,3.755"/>
</g>
<g>
	<path id="path82" d="M24.767,32c-0.061,0.001-0.121-0.006-0.182-0.017c-2.97-0.548-5.124-3.138-5.124-6.158
		c0-1.427,0.92-2.603,1.732-3.645c0.587-0.755,1.198-1.536,1.235-2.165c-0.002-0.592-0.007-1.896-0.011-3.493
		C22.4,10.434,22.392,4.899,22.429,4.056c0.057-1.227,0.175-2.242,1.123-3.195c0.557-0.555,1.312-0.86,2.126-0.86
		c0.905,0,1.832,0.382,2.419,0.998c0.846,0.896,0.982,1.442,0.987,2.406l0.016,14.12l0.141,2.834c0.006,0.132,0.098,0.231,0.542,0.6
		c0.869,0.711,2.183,1.787,2.218,4.84c0.019,1.554-0.556,3.054-1.61,4.224c-0.193,0.212-0.465,0.329-0.743,0.328
		c-0.069,0.001-0.142-0.006-0.211-0.021c-0.35-0.075-0.634-0.33-0.741-0.672l-1.082-3.367l-1.896-0.043l-1.249,1.055l1.234,3.354
		c0.125,0.338,0.061,0.716-0.173,0.989C25.338,31.872,25.057,32.001,24.767,32L24.767,32z M25.763,2.826
		c-0.13,0.001-0.252,0.052-0.346,0.146c-0.176,0.175-0.175,0.454,0.005,0.633c0.089,0.09,0.212,0.143,0.342,0.142
		c0.085,0,0.205-0.021,0.309-0.125c0.118-0.117,0.136-0.26,0.136-0.334c-0.001-0.075-0.018-0.216-0.132-0.333
		C25.97,2.848,25.845,2.827,25.763,2.826L25.763,2.826z"/>
	<path id="path3377" fill="#94C9D9" d="M29.645,29.351c0.845-0.935,1.37-2.187,1.355-3.542c-0.049-4.16-2.681-3.81-2.76-5.4
		L28.1,17.525L28.085,3.408c-0.002-0.679-0.032-0.998-0.715-1.72c-0.682-0.719-2.186-1.045-3.108-0.12
		c-0.653,0.654-0.778,1.324-0.833,2.534c-0.057,1.201-0.002,13.449,0,15.976c-0.124,1.949-2.968,3.663-2.969,5.747
		c0.001,2.58,1.855,4.725,4.307,5.175l-1.477-4.01l2.065-1.754l2.986,0.067L29.645,29.351z M26.779,4.329
		c-0.57,0.57-1.495,0.551-2.067-0.019c-0.566-0.569-0.566-1.479,0-2.049c0.57-0.568,1.496-0.587,2.066-0.017
		C27.35,2.813,27.351,3.759,26.779,4.329z"/>
	
		<linearGradient id="path3437_1_" gradientUnits="userSpaceOnUse" x1="5.5127" y1="-207.4985" x2="-24.1295" y2="-178.103" gradientTransform="matrix(-0.1345 0.1345 -0.1345 -0.1345 -1.3364 -7.3076)">
		<stop  offset="0" style="stop-color:#34899F"/>
		<stop  offset="1" style="stop-color:#DBEDF1;stop-opacity:0"/>
	</linearGradient>
	<path id="path3437" fill="url(#path3437_1_)" d="M28.013,21.092c-0.139-0.181-0.285-0.908-0.313-1.155L27.656,3.642
		c-0.03-0.603,0.024-1.037-0.617-1.711c-0.64-0.67-1.741-0.764-2.519,0.014c-0.552,0.55-0.612,1.189-0.605,2.264
		c0.009,1.065-0.098,13.15,0.026,15.4c-0.003,0.31-0.157,1.121-0.29,1.413C25.169,20.537,26.445,20.445,28.013,21.092L28.013,21.092
		z"/>
	
		<linearGradient id="path3450_1_" gradientUnits="userSpaceOnUse" x1="5.5122" y1="-207.501" x2="-24.1267" y2="-178.1087" gradientTransform="matrix(-0.1345 0.1345 -0.1345 -0.1345 -1.3423 -7.2627)">
		<stop  offset="0" style="stop-color:#34899F"/>
		<stop  offset="1" style="stop-color:#DBEDF1;stop-opacity:0"/>
	</linearGradient>
	<path id="path3450" fill="url(#path3450_1_)" d="M28.006,21.137c-0.137-0.178-0.29-0.907-0.312-1.154L27.648,3.687
		c-0.032-0.602,0.024-1.036-0.616-1.712c-0.642-0.67-1.74-0.762-2.522,0.018c-0.548,0.55-0.608,1.188-0.602,2.262
		c0.009,1.065-0.093,13.149,0.028,15.4c-0.004,0.312-0.158,1.12-0.289,1.414C25.16,20.584,26.44,20.49,28.006,21.137z"/>
	
		<linearGradient id="path3464_1_" gradientUnits="userSpaceOnUse" x1="-39.0234" y1="-176.6919" x2="-23.0229" y2="-162.8181" gradientTransform="matrix(-0.1345 0.1345 -0.1345 -0.1345 -1.3364 -7.3076)">
		<stop  offset="0" style="stop-color:#34899F;stop-opacity:0"/>
		<stop  offset="1" style="stop-color:#33859B;stop-opacity:0.6842"/>
	</linearGradient>
	<path id="path3464" fill="url(#path3464_1_)" d="M28.029,21.113c-0.136-0.179-0.287-0.907-0.313-1.154L27.673,3.664
		c-0.035-0.602,0.026-1.037-0.615-1.71c-0.642-0.671-1.743-0.765-2.521,0.015c-0.551,0.55-0.61,1.189-0.604,2.265
		c0.011,1.064-0.093,13.149,0.027,15.398c-0.006,0.311-0.156,1.12-0.289,1.414C25.184,20.561,26.466,20.465,28.029,21.113z"/>
	
		<linearGradient id="rect3484_1_" gradientUnits="userSpaceOnUse" x1="7.0356" y1="-245.8237" x2="8.0398" y2="-231.2176" gradientTransform="matrix(-0.1345 0.1345 -0.1345 -0.1345 -1.3364 -7.3076)">
		<stop  offset="0" style="stop-color:#DBEDF1"/>
		<stop  offset="1" style="stop-color:#DBEDF1;stop-opacity:0"/>
	</linearGradient>
	<path id="rect3484" fill="url(#rect3484_1_)" d="M30.584,26.247c-0.133,1.063-0.486,1.609-0.811,2.234l-1.105-3.412l1.427-1.622
		C30.555,24.339,30.573,25.292,30.584,26.247z"/>
	
		<linearGradient id="rect3495_1_" gradientUnits="userSpaceOnUse" x1="50.5059" y1="-227.5386" x2="39.3727" y2="-217.6829" gradientTransform="matrix(-0.1345 0.1345 -0.1345 -0.1345 -1.3364 -7.3076)">
		<stop  offset="0" style="stop-color:#DBEDF1"/>
		<stop  offset="1" style="stop-color:#DBEDF1;stop-opacity:0"/>
	</linearGradient>
	<path id="rect3495" fill="url(#rect3495_1_)" d="M24.202,30.421c-0.52,0.016-1.164-0.469-1.747-0.906
		c-0.762-0.842-1.336-1.531-1.523-2.801l1.966,0.245L24.202,30.421z"/>
</g>
</svg>
