<?xml version="1.0" encoding="utf-8"?>
<!-- Generator: Adobe Illustrator 14.0.0, SVG Export Plug-In . SVG Version: 6.00 Build 43363)  -->
<!DOCTYPE svg PUBLIC "-//W3C//DTD SVG 1.1//EN" "http://www.w3.org/Graphics/SVG/1.1/DTD/svg11.dtd">
<svg version="1.1" id="Layer_1" xmlns="http://www.w3.org/2000/svg" xmlns:xlink="http://www.w3.org/1999/xlink" x="0px" y="0px"
	 width="32px" height="32px" viewBox="0 0 32 32" enable-background="new 0 0 32 32" xml:space="preserve">
<g>
	<path id="path5812_21_" fill="#231F20" d="M1.184,32l0.099-1.18c0.552-6.612,7.02-11.792,14.72-11.792
		c7.698,0,14.164,5.18,14.713,11.792L30.816,32H1.184z"/>
	<path id="path5814_21_" fill="#08ACDA" d="M29.632,30.909c-0.504-6.026-6.405-10.79-13.63-10.79
		c-7.228,0-13.127,4.764-13.632,10.79H29.632z"/>
	
		<linearGradient id="path5823_1_" gradientUnits="userSpaceOnUse" x1="845.7998" y1="1926.874" x2="870.5215" y2="1926.874" gradientTransform="matrix(1 0 0 1 -842.1602 -1901.3594)">
		<stop  offset="0" style="stop-color:#B1D2DB"/>
		<stop  offset="1" style="stop-color:#167D9F"/>
	</linearGradient>
	<path id="path5823_18_" fill="url(#path5823_1_)" d="M3.64,29.818c1.091-4.912,6.271-8.607,12.363-8.607
		c6.094,0,11.271,3.696,12.358,8.607H3.64z"/>
	<path id="path5827_18_" fill="#231F20" d="M14.004,30.718c-0.604,0-1.094-0.488-1.094-1.096v-8.009
		c0-0.602,0.487-1.091,1.094-1.091h3.509c0.604,0,1.09,0.484,1.09,1.091v8.009c0,0.605-0.484,1.096-1.09,1.096H14.004z"/>
	<rect id="rect5829_18_" x="14.004" y="21.615" fill="#FBA91E" width="3.509" height="8.01"/>
	<rect id="rect5831_18_" x="13.36" y="24.187" fill="#231F20" width="5.007" height="1.328"/>
	<path id="path5835_24_" fill="#231F20" d="M16.002,22.706c-5.117,0-9.589-3.449-10.938-8.313c-1.394-0.31-2.44-1.557-2.44-3.04
		c0-1.488,1.044-2.733,2.44-3.041C6.41,3.449,10.882,0,16.002,0c5.117,0,9.588,3.449,10.937,8.313
		c1.391,0.308,2.438,1.555,2.438,3.041c0,1.483-1.045,2.729-2.438,3.04C25.59,19.26,21.119,22.706,16.002,22.706L16.002,22.706z"/>
	<path id="path5837_24_" fill="#EFDACB" d="M26.262,11.354c0,5.669-4.595,10.261-10.259,10.261c-5.667,0-10.261-4.592-10.261-10.261
		c0-5.667,4.595-10.259,10.261-10.259C21.667,1.092,26.262,5.685,26.262,11.354z"/>
	
		<circle id="circle5839_24_" sodipodi:cy="12.352" sodipodi:ry="1.925" sodipodi:rx="1.925" sodipodi:cx="6.237" fill="#EFDACB" cx="5.741" cy="11.354" r="2.023">
	</circle>
	
		<circle id="circle5841_24_" sodipodi:cy="12.352" sodipodi:ry="1.925" sodipodi:rx="1.925" sodipodi:cx="25.764999" fill="#EFDACB" cx="26.262" cy="11.354" r="2.023">
	</circle>
	
		<linearGradient id="path5850_1_" gradientUnits="userSpaceOnUse" x1="848.9922" y1="1912.7119" x2="867.3281" y2="1912.7119" gradientTransform="matrix(1 0 0 1 -842.1602 -1901.3594)">
		<stop  offset="0" style="stop-color:#E0B59C;stop-opacity:0"/>
		<stop  offset="1" style="stop-color:#E0B59C"/>
	</linearGradient>
	<path id="path5850_22_" fill="url(#path5850_1_)" d="M16.002,20.522c-5.058,0-9.17-4.116-9.17-9.169
		c0-5.057,4.113-9.171,9.17-9.171c5.053,0,9.166,4.114,9.166,9.171C25.168,16.406,21.055,20.522,16.002,20.522L16.002,20.522z"/>
	<path id="path5852_24_" fill="#231F20" d="M5.957,9.411c-0.089,1.03,0.138,3.064,0.333,4.067c-0.01-1.258-0.194-3.312,0.396-4.417
		c0.823-1.545,9.598,0.295,12.883-6.339c-0.134,1.934-0.445,3.707,4.942,7.616c0.279,0.199,1.51,3.325,1.426,3.58
		c-0.086-0.812,0.345-2.842,0.339-3.694c-0.017-1.768-0.19-2.915-0.729-3.714c-0.613-0.907-2.182-2.635-2.968-3.406
		c-2.691-2.634-6.887-3.206-10.419-1.923C10.33,1.845,9.134,3.315,7.88,4.535C7.376,5.022,4.617,8.847,5.71,9.163"/>
</g>
</svg>
