<?xml version="1.0" encoding="utf-8"?>
<!-- Generator: Adobe Illustrator 14.0.0, SVG Export Plug-In . SVG Version: 6.00 Build 43363)  -->
<!DOCTYPE svg PUBLIC "-//W3C//DTD SVG 1.1//EN" "http://www.w3.org/Graphics/SVG/1.1/DTD/svg11.dtd">
<svg version="1.1" id="Layer_1" xmlns="http://www.w3.org/2000/svg" xmlns:xlink="http://www.w3.org/1999/xlink" x="0px" y="0px"
	 width="32px" height="32px" viewBox="0 0 32 32" enable-background="new 0 0 32 32" xml:space="preserve">
<g>
	<path id="path5764_1_" fill="#231F20" d="M10.032,24.932l0.074-0.875c0.408-4.904,5.203-8.742,10.912-8.742
		c5.709,0,10.5,3.838,10.91,8.742L32,24.932H10.032z"/>
	<path id="path5766_1_" fill="#71BE46" d="M31.121,24.123c-0.373-4.469-4.748-8-10.104-8c-5.357,0-9.732,3.531-10.105,8H31.121z"/>
	
		<linearGradient id="path5775_2_" gradientUnits="userSpaceOnUse" x1="572.4717" y1="-916.6436" x2="590.7998" y2="-916.6436" gradientTransform="matrix(1 0 0 -1 -560.6201 -896.5195)">
		<stop  offset="0" style="stop-color:#B0D68C"/>
		<stop  offset="1" style="stop-color:#249045"/>
	</linearGradient>
	<path id="path5775_1_" fill="url(#path5775_2_)" d="M11.852,23.313c0.81-3.641,4.646-6.377,9.166-6.377
		c4.518,0,8.355,2.739,9.162,6.377H11.852z"/>
	<path id="path5779_1_" fill="#231F20" d="M19.535,23.979c-0.447,0-0.811-0.358-0.811-0.811V17.23c0-0.447,0.361-0.809,0.811-0.809
		h2.604c0.447,0,0.811,0.361,0.811,0.809v5.938c0,0.449-0.361,0.811-0.811,0.811H19.535z"/>
	<rect id="rect5781_1_" x="19.535" y="17.23" fill="#E92E2B" width="2.604" height="5.938"/>
	<rect id="rect5783_1_" x="19.059" y="19.139" fill="#231F20" width="3.713" height="0.984"/>
	<path id="path5787_1_" fill="#231F20" d="M21.018,18.041c-3.795,0-7.11-2.557-8.11-6.162C11.875,11.65,11.1,10.727,11.1,9.625
		c0-1.104,0.773-2.025,1.808-2.254c1-3.605,4.313-6.162,8.11-6.162c3.793,0,7.107,2.557,8.105,6.162
		c1.033,0.229,1.809,1.152,1.809,2.254s-0.773,2.023-1.809,2.256C28.127,15.484,24.811,18.041,21.018,18.041L21.018,18.041z"/>
	<path id="path5789_1_" fill="#EFDACB" d="M28.623,9.625c0,4.201-3.406,7.605-7.604,7.605c-4.203,0-7.608-3.404-7.608-7.605
		S16.817,2.02,21.02,2.02C25.217,2.018,28.623,5.422,28.623,9.625z"/>
	
		<circle id="circle5791_1_" sodipodi:cy="9.625" sodipodi:ry="1.5" sodipodi:rx="1.5" sodipodi:cx="13.41" fill="#EFDACB" cx="13.411" cy="9.625" r="1.5">
	</circle>
	
		<circle id="circle5793_5_" sodipodi:cy="9.625" sodipodi:ry="1.5" sodipodi:rx="1.5" sodipodi:cx="28.622999" fill="#EFDACB" cx="28.623" cy="9.625" r="1.5">
	</circle>
	
		<linearGradient id="path5802_1_" gradientUnits="userSpaceOnUse" x1="574.8379" y1="-906.1445" x2="588.4326" y2="-906.1445" gradientTransform="matrix(1 0 0 -1 -560.6201 -896.5195)">
		<stop  offset="0" style="stop-color:#E1B59C;stop-opacity:0"/>
		<stop  offset="1" style="stop-color:#E1B59C"/>
	</linearGradient>
	<path id="path5802_4_" fill="url(#path5802_1_)" d="M21.018,16.422c-3.75,0-6.799-3.051-6.799-6.797
		c0-3.748,3.049-6.797,6.799-6.797c3.746,0,6.795,3.049,6.795,6.797S24.764,16.422,21.018,16.422L21.018,16.422z"/>
	<path id="path5804_1_" fill="#231F20" d="M13.571,8.186c-0.066,0.765,0.102,2.271,0.248,3.017c-0.01-0.933-0.146-2.457,0.293-3.277
		c0.609-1.144,7.115,0.22,9.55-4.698c-0.098,1.434-0.33,2.75,3.664,5.646c0.207,0.148,1.121,2.467,1.057,2.656
		c-0.063-0.603,0.258-2.107,0.252-2.74c-0.012-1.309-0.141-2.16-0.541-2.752c-0.455-0.673-1.617-1.953-2.199-2.525
		c-1.996-1.953-5.104-2.379-7.725-1.426c-1.357,0.49-2.244,1.582-3.173,2.486c-0.373,0.361-2.418,3.197-1.609,3.432"/>
	<path id="path5806_1_" fill="#231F20" d="M23.203,1.816c0-0.605,0-1.211-0.004-1.816c0.566,1.508,0.924,1.695,2.096,0.863
		c-0.41,0.908-0.447,1.229-0.447,1.229c0.625-0.278,0.574-0.354,1.262-0.307C25.783,1.93,25.201,2.331,24.91,2.54
		c0,0.108-0.281-0.117-0.301-0.006C23.775,2.002,24.4,2.15,23.387,1.91"/>
	<path id="path5812_25_" fill="#231F20" d="M0,32l0.074-0.875c0.408-4.904,5.203-8.744,10.914-8.744c5.707,0,10.5,3.84,10.908,8.744
		L21.971,32H0z"/>
	<path id="path5814_25_" fill="#08ACDA" d="M21.09,31.191c-0.373-4.469-4.746-8-10.101-8c-5.359,0-9.732,3.531-10.107,8H21.09z"/>
	
		<linearGradient id="path5823_1_" gradientUnits="userSpaceOnUse" x1="562.4404" y1="-923.71" x2="580.7705" y2="-923.71" gradientTransform="matrix(1 0 0 -1 -560.6201 -896.5195)">
		<stop  offset="0" style="stop-color:#B1D2DB"/>
		<stop  offset="1" style="stop-color:#107D9F"/>
	</linearGradient>
	<path id="path5823_22_" fill="url(#path5823_1_)" d="M1.821,30.381C2.629,26.74,6.469,24,10.989,24c4.516,0,8.353,2.74,9.162,6.381
		H1.821z"/>
	<path id="path5827_22_" fill="#231F20" d="M9.504,31.047c-0.447,0-0.809-0.361-0.809-0.811v-5.938c0-0.446,0.361-0.809,0.809-0.809
		h2.604c0.447,0,0.81,0.358,0.81,0.809v5.938c0,0.449-0.36,0.811-0.81,0.811H9.504z"/>
	<rect id="rect5829_22_" x="9.504" y="24.299" fill="#F9A720" width="2.604" height="5.938"/>
	<rect id="rect5831_22_" x="9.03" y="26.207" fill="#231F20" width="3.713" height="0.984"/>
	<path id="path5835_28_" fill="#231F20" d="M10.989,25.109c-3.795,0-7.111-2.558-8.111-6.162c-1.033-0.23-1.809-1.154-1.809-2.254
		c0-1.103,0.774-2.026,1.809-2.254c1-3.605,4.314-6.162,8.111-6.162c3.793,0,7.107,2.557,8.105,6.162
		c1.033,0.229,1.809,1.151,1.809,2.254c0,1.1-0.775,2.022-1.809,2.254C18.096,22.553,14.782,25.109,10.989,25.109L10.989,25.109z"/>
	<path id="path5837_28_" fill="#EFDACB" d="M18.592,16.693c0,4.201-3.406,7.604-7.603,7.604c-4.201,0-7.607-3.403-7.607-7.604
		c0-4.202,3.406-7.606,7.607-7.606C15.186,9.085,18.592,12.49,18.592,16.693z"/>
	
		<circle id="circle5839_28_" sodipodi:cy="16.693001" sodipodi:ry="1.5" sodipodi:rx="1.5" sodipodi:cx="3.3789999" fill="#EFDACB" cx="3.379" cy="16.693" r="1.5">
	</circle>
	
		<circle id="circle5841_28_" sodipodi:cy="16.693001" sodipodi:ry="1.5" sodipodi:rx="1.5" sodipodi:cx="18.591999" fill="#EFDACB" cx="18.592" cy="16.693" r="1.5">
	</circle>
	
		<linearGradient id="path5850_1_" gradientUnits="userSpaceOnUse" x1="564.8076" y1="-913.2129" x2="578.4033" y2="-913.2129" gradientTransform="matrix(1 0 0 -1 -560.6201 -896.5195)">
		<stop  offset="0" style="stop-color:#E1B59C;stop-opacity:0"/>
		<stop  offset="1" style="stop-color:#E1B59C"/>
	</linearGradient>
	<path id="path5850_26_" fill="url(#path5850_1_)" d="M10.989,23.49c-3.75,0-6.801-3.051-6.801-6.797
		c0-3.75,3.051-6.797,6.801-6.797c3.746,0,6.794,3.049,6.794,6.797C17.783,20.439,14.735,23.49,10.989,23.49L10.989,23.49z"/>
	<path id="path5852_28_" fill="#231F20" d="M3.54,15.253c-0.066,0.765,0.102,2.272,0.248,3.015
		c-0.008-0.933-0.145-2.457,0.293-3.276c0.611-1.144,7.117,0.219,9.553-4.699c-0.1,1.435-0.332,2.75,3.664,5.646
		c0.205,0.148,1.119,2.465,1.055,2.655c-0.061-0.6,0.258-2.106,0.252-2.739c-0.012-1.309-0.141-2.16-0.541-2.752
		c-0.453-0.672-1.614-1.953-2.199-2.524C13.871,8.622,10.76,8.198,8.139,9.15c-1.354,0.492-2.244,1.584-3.172,2.488
		c-0.373,0.361-2.42,3.197-1.609,3.43"/>
	<path id="path5854_27_" fill="#231F20" d="M13.172,8.884c0-0.604,0-1.211-0.004-1.815c0.568,1.51,0.926,1.695,2.096,0.863
		c-0.41,0.907-0.447,1.231-0.447,1.231c0.625-0.279,0.574-0.354,1.263-0.308c-0.329,0.143-0.911,0.545-1.2,0.754
		c0,0.108-0.283-0.117-0.299-0.006c-0.834-0.533-0.209-0.384-1.225-0.625"/>
</g>
</svg>
