<?xml version="1.0" encoding="utf-8"?>
<!-- Generator: Adobe Illustrator 14.0.0, SVG Export Plug-In . SVG Version: 6.00 Build 43363)  -->
<!DOCTYPE svg PUBLIC "-//W3C//DTD SVG 1.1//EN" "http://www.w3.org/Graphics/SVG/1.1/DTD/svg11.dtd">
<svg version="1.1" id="Layer_1" xmlns="http://www.w3.org/2000/svg" xmlns:xlink="http://www.w3.org/1999/xlink" x="0px" y="0px"
	 width="32px" height="32px" viewBox="0 0 32 32" enable-background="new 0 0 32 32" xml:space="preserve">
<g>
	<rect x="15.979" y="17.111" fill="#FFFFFF" width="3.874" height="7.5"/>
	<g>
		<g>
			<path d="M18.078,3.235c0-0.034-0.011-0.066-0.016-0.1c-0.006-0.043-0.008-0.086-0.019-0.125c-0.017-0.061-0.041-0.115-0.067-0.17
				c-0.007-0.014-0.011-0.028-0.02-0.043c-0.032-0.059-0.074-0.113-0.119-0.164c-0.007-0.007-0.011-0.012-0.017-0.02
				c-0.05-0.051-0.105-0.094-0.168-0.135c-0.004-0.002-0.005-0.006-0.009-0.008c-0.002,0-0.004-0.001-0.006-0.001
				c-0.026-0.019-0.049-0.04-0.077-0.054L12.75,0.091C12.624,0.03,12.488,0,12.352,0c-0.136,0-0.275,0.03-0.4,0.093L0.514,5.681
				C0.487,5.694,0.466,5.716,0.439,5.731H0.438c0,0.002,0,0.002-0.002,0.004C0.37,5.776,0.311,5.823,0.259,5.876
				C0.256,5.88,0.252,5.886,0.249,5.89C0.203,5.942,0.158,5.997,0.124,6.06C0.118,6.07,0.114,6.081,0.108,6.094
				C0.079,6.151,0.053,6.208,0.036,6.272c-0.008,0.029-0.01,0.063-0.015,0.094C0.015,6.409,0.003,6.45,0.003,6.495
				c0,0.004,0,0.007,0,0.011c0,0.001,0,0.003,0,0.005L0,25.819c0,0.342,0.192,0.655,0.498,0.813l4.819,2.469
				c0.033,0.018,0.07,0.026,0.106,0.04c0.027,0.01,0.053,0.022,0.079,0.028C5.575,29.189,5.651,29.2,5.726,29.2
				c0.002,0,0.003,0.002,0.005,0.002l0,0l0,0c0.129,0,0.251-0.035,0.369-0.087c0.014-0.006,0.027-0.004,0.04-0.01l11.434-5.727
				c0.31-0.155,0.505-0.471,0.505-0.816V3.249c0-0.002-0.002-0.006-0.002-0.008C18.076,3.24,18.078,3.237,18.078,3.235z"/>
			
				<linearGradient id="SVGID_1_" gradientUnits="userSpaceOnUse" x1="287.4512" y1="-388.7886" x2="298.8848" y2="-388.7886" gradientTransform="matrix(1 0 0 -1 -281.7207 -373.0195)">
				<stop  offset="0" style="stop-color:#F6979A"/>
				<stop  offset="1" style="stop-color:#901A1D"/>
			</linearGradient>
			<polygon fill="url(#SVGID_1_)" points="5.731,8.95 17.165,3.249 17.165,22.563 5.731,28.289 			"/>
			
				<linearGradient id="SVGID_2_" gradientUnits="userSpaceOnUse" x1="287.0479" y1="-390.4175" x2="282.0791" y2="-390.4175" gradientTransform="matrix(1 0 0 -1 -281.7207 -373.0195)">
				<stop  offset="0" style="stop-color:#F6979A"/>
				<stop  offset="1" style="stop-color:#901A1D"/>
			</linearGradient>
			<polygon fill="url(#SVGID_2_)" points="0.913,25.819 0.916,6.509 5.735,8.942 5.731,28.289 			"/>
			
				<linearGradient id="SVGID_3_" gradientUnits="userSpaceOnUse" x1="290.7617" y1="-381.5742" x2="290.7617" y2="-376.9766" gradientTransform="matrix(1 0 0 -1 -281.7207 -373.0195)">
				<stop  offset="0" style="stop-color:#F6979A"/>
				<stop  offset="1" style="stop-color:#901A1D"/>
			</linearGradient>
			<polygon fill="url(#SVGID_3_)" points="0.916,6.5 12.352,0.913 17.165,3.24 5.731,8.942 			"/>
			<line fill="none" stroke="#000000" x1="0.916" y1="6.509" x2="5.731" y2="8.95"/>
			<line fill="none" stroke="#000000" x1="5.731" y1="8.95" x2="5.731" y2="28.289"/>
			<line fill="none" stroke="#000000" x1="5.731" y1="8.95" x2="17.165" y2="3.249"/>
		</g>
		<g>
			<path d="M23.4,5.745c0-0.034-0.012-0.066-0.017-0.1c-0.006-0.043-0.008-0.086-0.018-0.125c-0.017-0.061-0.041-0.113-0.068-0.17
				c-0.007-0.014-0.011-0.027-0.02-0.042c-0.032-0.06-0.074-0.114-0.119-0.164c-0.007-0.007-0.011-0.013-0.016-0.02
				c-0.051-0.052-0.105-0.095-0.167-0.136c-0.005-0.002-0.007-0.005-0.011-0.007c-0.002,0-0.003-0.002-0.005-0.002
				c-0.027-0.018-0.049-0.039-0.077-0.054l-4.813-2.326c-0.125-0.061-0.261-0.09-0.398-0.09c-0.136,0-0.274,0.029-0.4,0.092
				L5.836,8.19C5.81,8.204,5.788,8.226,5.761,8.241H5.759c0,0.002,0,0.002-0.001,0.004C5.691,8.287,5.633,8.333,5.581,8.387
				C5.578,8.39,5.574,8.396,5.57,8.399c-0.046,0.053-0.091,0.108-0.125,0.17C5.439,8.581,5.436,8.591,5.43,8.604
				C5.4,8.661,5.374,8.718,5.357,8.782c-0.008,0.03-0.01,0.063-0.015,0.095C5.337,8.919,5.324,8.96,5.324,9.005
				c0,0.004,0.001,0.008,0.001,0.011c0,0.002-0.001,0.004-0.001,0.005L5.322,28.329c0,0.343,0.193,0.655,0.497,0.813l4.819,2.469
				c0.033,0.019,0.071,0.027,0.106,0.041c0.026,0.009,0.052,0.021,0.078,0.028c0.073,0.02,0.15,0.03,0.225,0.03
				c0.002,0,0.004,0.002,0.006,0.002l0,0l0,0c0.129,0,0.251-0.035,0.369-0.087c0.013-0.006,0.027-0.004,0.039-0.01l11.434-5.727
				c0.31-0.155,0.506-0.47,0.506-0.815V5.759c0-0.002-0.002-0.004-0.002-0.006S23.4,5.747,23.4,5.745z"/>
			
				<linearGradient id="SVGID_4_" gradientUnits="userSpaceOnUse" x1="292.7734" y1="-391.2988" x2="304.209" y2="-391.2988" gradientTransform="matrix(1 0 0 -1 -281.7207 -373.0195)">
				<stop  offset="0" style="stop-color:#B2D3DC"/>
				<stop  offset="1" style="stop-color:#117C9F"/>
			</linearGradient>
			<polygon fill="url(#SVGID_4_)" points="11.053,11.462 22.488,5.759 22.488,25.073 11.053,30.8 			"/>
			
				<linearGradient id="SVGID_5_" gradientUnits="userSpaceOnUse" x1="292.3701" y1="-392.9282" x2="287.4014" y2="-392.9282" gradientTransform="matrix(1 0 0 -1 -281.7207 -373.0195)">
				<stop  offset="0" style="stop-color:#B2D3DC"/>
				<stop  offset="1" style="stop-color:#117C9F"/>
			</linearGradient>
			<polygon fill="url(#SVGID_5_)" points="6.234,28.329 6.238,9.02 11.057,11.452 11.053,30.8 			"/>
			
				<linearGradient id="SVGID_6_" gradientUnits="userSpaceOnUse" x1="296.084" y1="-384.084" x2="296.084" y2="-379.4863" gradientTransform="matrix(1 0 0 -1 -281.7207 -373.0195)">
				<stop  offset="0" style="stop-color:#B2D3DC"/>
				<stop  offset="1" style="stop-color:#117C9F"/>
			</linearGradient>
			<polygon fill="url(#SVGID_6_)" points="6.238,9.011 17.673,3.423 22.488,5.751 11.053,11.452 			"/>
			<line fill="none" stroke="#000000" x1="6.238" y1="9.02" x2="11.053" y2="11.462"/>
			<line fill="none" stroke="#000000" x1="11.053" y1="11.462" x2="11.053" y2="30.8"/>
			<line fill="none" stroke="#000000" x1="11.053" y1="11.462" x2="22.488" y2="5.759"/>
		</g>
	</g>
	<rect x="16.422" y="17.111" fill="#FFFFFF" width="9.412" height="8.93"/>
	<g>
		<path d="M21.375,10.75c-5.867,0-10.623,4.756-10.623,10.625S15.508,32,21.375,32C27.244,32,32,27.244,32,21.375
			S27.244,10.75,21.375,10.75z M21.375,24.563c-1.76,0-3.186-1.426-3.186-3.188c0-1.76,1.426-3.186,3.186-3.186
			c1.762,0,3.189,1.426,3.189,3.186C24.564,23.137,23.137,24.563,21.375,24.563z"/>
		<path fill="#BCBEC0" d="M21.375,11.459c-5.478,0-9.914,4.438-9.914,9.916c0,5.477,4.438,9.916,9.914,9.916
			c5.477,0,9.916-4.439,9.916-9.916C31.291,15.896,26.852,11.459,21.375,11.459z M21.375,24.35c-1.643,0-2.975-1.33-2.975-2.975
			c0-1.643,1.332-2.975,2.975-2.975c1.645,0,2.975,1.332,2.975,2.975C24.35,23.02,23.02,24.35,21.375,24.35z"/>
		
			<radialGradient id="SVGID_7_" cx="303.0967" cy="-394.3945" r="13.9776" gradientTransform="matrix(1 0 0 -1 -281.7207 -373.0195)" gradientUnits="userSpaceOnUse">
			<stop  offset="0" style="stop-color:#03ADDB"/>
			<stop  offset="0.2485" style="stop-color:#BAD4DB"/>
			<stop  offset="0.254" style="stop-color:#B7C4D6"/>
			<stop  offset="0.2609" style="stop-color:#B4B5D2"/>
			<stop  offset="0.2692" style="stop-color:#B2A9CD"/>
			<stop  offset="0.2794" style="stop-color:#B0A0CB"/>
			<stop  offset="0.2937" style="stop-color:#AF9CCA"/>
			<stop  offset="0.3333" style="stop-color:#AF9ACA"/>
			<stop  offset="0.3879" style="stop-color:#87B4C7"/>
			<stop  offset="0.4606" style="stop-color:#5DC19D"/>
			<stop  offset="0.4801" style="stop-color:#64BF9C"/>
			<stop  offset="0.4985" style="stop-color:#74BB9A"/>
			<stop  offset="0.5163" style="stop-color:#8AB697"/>
			<stop  offset="0.5338" style="stop-color:#A4AD93"/>
			<stop  offset="0.5367" style="stop-color:#A9AB92"/>
			<stop  offset="0.5526" style="stop-color:#9AAC9D"/>
			<stop  offset="0.5846" style="stop-color:#81ACB1"/>
			<stop  offset="0.6215" style="stop-color:#67ADC0"/>
			<stop  offset="0.6646" style="stop-color:#4DADCC"/>
			<stop  offset="0.7178" style="stop-color:#32ADD4"/>
			<stop  offset="0.7926" style="stop-color:#15ADD9"/>
			<stop  offset="1" style="stop-color:#03ADDB"/>
		</radialGradient>
		<path opacity="0.55" fill="url(#SVGID_7_)" enable-background="new    " d="M21.375,11.459c-5.478,0-9.914,4.438-9.914,9.916
			c0,5.477,4.438,9.916,9.914,9.916c5.477,0,9.916-4.439,9.916-9.916C31.291,15.896,26.852,11.459,21.375,11.459z M21.375,24.35
			c-1.643,0-2.975-1.332-2.975-2.975s1.332-2.975,2.975-2.975c1.645,0,2.975,1.332,2.975,2.975S23.02,24.35,21.375,24.35z"/>
		
			<linearGradient id="SVGID_8_" gradientUnits="userSpaceOnUse" x1="297.9326" y1="-400.604" x2="305.9326" y2="-400.645" gradientTransform="matrix(1 0 0 -1 -281.7207 -373.0195)">
			<stop  offset="0" style="stop-color:#FFFFFF"/>
			<stop  offset="1" style="stop-color:#FFFFFF;stop-opacity:0"/>
		</linearGradient>
		<path opacity="0.44" fill="url(#SVGID_8_)" enable-background="new    " d="M21.375,31.291c1.807,0,3.496-0.49,4.955-1.336
			l-3.473-6.016c-0.438,0.254-0.938,0.41-1.48,0.41s-1.045-0.156-1.48-0.41l-3.475,6.016C17.881,30.801,19.568,31.291,21.375,31.291
			z"/>
		
			<linearGradient id="SVGID_9_" gradientUnits="userSpaceOnUse" x1="311.3896" y1="-395.8145" x2="306.2244" y2="-387.8986" gradientTransform="matrix(1 0 0 -1 -281.7207 -373.0195)">
			<stop  offset="0" style="stop-color:#FFFFFF"/>
			<stop  offset="1" style="stop-color:#FFFFFF;stop-opacity:0"/>
		</linearGradient>
		<path opacity="0.44" fill="url(#SVGID_9_)" enable-background="new    " d="M24.012,11.695l-1.799,6.709
			c1.035,0.283,1.84,1.102,2.1,2.145l6.703-1.797C30.119,15.32,27.436,12.617,24.012,11.695z"/>
		<path d="M21.375,17.395c-2.199,0-3.982,1.781-3.982,3.98s1.783,3.982,3.982,3.982c2.201,0,3.982-1.783,3.982-3.982
			S23.576,17.395,21.375,17.395z M21.375,24.783c-1.881,0-3.406-1.527-3.406-3.408c0-1.883,1.525-3.406,3.406-3.406
			c1.883,0,3.408,1.523,3.408,3.406C24.783,23.256,23.258,24.783,21.375,24.783z"/>
		
			<linearGradient id="SVGID_10_" gradientUnits="userSpaceOnUse" x1="434.167" y1="275.9268" x2="429.0017" y2="283.8426" gradientTransform="matrix(-4.371139e-008 1 1 4.371139e-008 -255.9847 -404.5114)">
			<stop  offset="0" style="stop-color:#FFFFFF"/>
			<stop  offset="1" style="stop-color:#FFFFFF;stop-opacity:0"/>
		</linearGradient>
		<path opacity="0.44" fill="url(#SVGID_10_)" enable-background="new    " d="M31.041,23.996l-6.709-1.797
			c-0.281,1.033-1.102,1.84-2.145,2.098L23.982,31C27.416,30.104,30.119,27.42,31.041,23.996z"/>
		
			<linearGradient id="SVGID_11_" gradientUnits="userSpaceOnUse" x1="500.2021" y1="123.918" x2="495.0368" y2="131.834" gradientTransform="matrix(0.3454 0.9384 0.9384 -0.3454 -266.7201 -396.5831)">
			<stop  offset="0" style="stop-color:#FFFFFF"/>
			<stop  offset="1" style="stop-color:#FFFFFF;stop-opacity:0"/>
		</linearGradient>
		<path opacity="0.44" fill="url(#SVGID_11_)" enable-background="new    " d="M30.793,20.861l-6.916,0.631
			c0.092,1.068-0.398,2.107-1.289,2.711l4.002,5.67C29.502,27.846,31.111,24.393,30.793,20.861z"/>
	</g>
</g>
</svg>
