<?xml version="1.0" encoding="utf-8"?>
<!-- Generator: Adobe Illustrator 15.0.0, SVG Export Plug-In . SVG Version: 6.00 Build 0)  -->
<!DOCTYPE svg PUBLIC "-//W3C//DTD SVG 1.1//EN" "http://www.w3.org/Graphics/SVG/1.1/DTD/svg11.dtd">
<svg version="1.1" id="Layer_1" xmlns="http://www.w3.org/2000/svg" xmlns:xlink="http://www.w3.org/1999/xlink" x="0px" y="0px"
	 width="32px" height="32px" viewBox="0 0 32 32" enable-background="new 0 0 32 32" xml:space="preserve">
<g>
	<g>
		<path d="M19.811,3.545c0-0.038-0.012-0.072-0.018-0.109c-0.006-0.046-0.008-0.094-0.02-0.138c-0.02-0.064-0.045-0.125-0.074-0.185
			c-0.008-0.016-0.012-0.031-0.021-0.047c-0.035-0.065-0.082-0.124-0.131-0.18c-0.008-0.008-0.012-0.015-0.018-0.021
			c-0.055-0.057-0.115-0.104-0.184-0.148c-0.006-0.002-0.008-0.006-0.012-0.008c-0.002-0.001-0.004-0.002-0.006-0.003
			c-0.029-0.018-0.055-0.042-0.084-0.057L13.97,0.1C13.834,0.033,13.684,0,13.535,0c-0.15,0-0.301,0.033-0.439,0.103L0.564,6.226
			C0.534,6.24,0.51,6.265,0.482,6.281c-0.002,0-0.002,0-0.002,0C0.479,6.283,0.479,6.283,0.477,6.285
			C0.404,6.33,0.341,6.381,0.284,6.439c-0.005,0.004-0.007,0.01-0.011,0.014c-0.052,0.059-0.1,0.119-0.138,0.189
			c-0.006,0.012-0.01,0.022-0.017,0.036C0.086,6.74,0.059,6.804,0.039,6.872c-0.01,0.034-0.01,0.069-0.016,0.105
			c-0.006,0.047-0.021,0.092-0.021,0.14c0,0.003,0.001,0.007,0.001,0.011c0,0.002-0.001,0.004-0.001,0.006L0,28.293
			c0,0.375,0.211,0.719,0.545,0.891l5.281,2.705c0.037,0.021,0.078,0.029,0.117,0.045c0.029,0.01,0.057,0.023,0.086,0.031
			c0.08,0.021,0.164,0.033,0.246,0.033C6.277,31.998,6.279,32,6.281,32l0,0l0,0c0.141,0,0.275-0.039,0.404-0.096
			c0.014-0.006,0.028-0.004,0.043-0.01l12.528-6.275c0.34-0.17,0.555-0.516,0.555-0.895V3.562c0-0.003-0.002-0.006-0.002-0.008
			C19.809,3.55,19.811,3.547,19.811,3.545z"/>
		
			<linearGradient id="SVGID_1_" gradientUnits="userSpaceOnUse" x1="553.6621" y1="843.2598" x2="566.1914" y2="843.2598" gradientTransform="matrix(1 0 0 1 -547.3809 -825.9795)">
			<stop  offset="0" style="stop-color:#B0D68C"/>
			<stop  offset="1" style="stop-color:#239145"/>
		</linearGradient>
		<polygon fill="url(#SVGID_1_)" points="6.281,9.81 18.811,3.562 18.811,24.725 6.281,31 		"/>
		
			<linearGradient id="SVGID_2_" gradientUnits="userSpaceOnUse" x1="553.2197" y1="845.0459" x2="547.774" y2="845.0459" gradientTransform="matrix(1 0 0 1 -547.3809 -825.9795)">
			<stop  offset="0" style="stop-color:#B0D68C"/>
			<stop  offset="1" style="stop-color:#239145"/>
		</linearGradient>
		<polygon fill="url(#SVGID_2_)" points="1,28.293 1.004,7.133 6.285,9.799 6.281,31 		"/>
		
			<linearGradient id="SVGID_3_" gradientUnits="userSpaceOnUse" x1="557.2881" y1="835.3535" x2="557.2881" y2="830.3152" gradientTransform="matrix(1 0 0 1 -547.3809 -825.9795)">
			<stop  offset="0" style="stop-color:#B0D68C"/>
			<stop  offset="1" style="stop-color:#239145"/>
		</linearGradient>
		<polygon fill="url(#SVGID_3_)" points="1.004,7.123 13.535,1 18.811,3.551 6.281,9.799 		"/>
		<line fill="none" stroke="#000000" x1="1.004" y1="7.133" x2="6.281" y2="9.81"/>
		<line fill="none" stroke="#000000" x1="6.281" y1="9.81" x2="6.281" y2="31"/>
		<line fill="none" stroke="#000000" x1="6.281" y1="9.81" x2="18.811" y2="3.562"/>
	</g>
	<rect x="15.979" y="17.111" fill="#FFFFFF" width="3.875" height="7.5"/>
	<g>
		<path d="M21.375,10.75c-5.867,0-10.623,4.756-10.623,10.625S15.508,32,21.375,32C27.244,32,32,27.244,32,21.375
			S27.244,10.75,21.375,10.75z M21.375,24.563c-1.76,0-3.186-1.426-3.186-3.188c0-1.76,1.426-3.186,3.186-3.186
			c1.762,0,3.189,1.426,3.189,3.186C24.564,23.137,23.137,24.563,21.375,24.563z"/>
		<path fill="#BCBEC0" d="M21.375,11.459c-5.477,0-9.914,4.438-9.914,9.916c0,5.477,4.438,9.916,9.914,9.916
			c5.477,0,9.916-4.439,9.916-9.916C31.291,15.896,26.852,11.459,21.375,11.459z M21.375,24.35c-1.643,0-2.975-1.33-2.975-2.975
			c0-1.643,1.332-2.975,2.975-2.975c1.645,0,2.975,1.332,2.975,2.975C24.35,23.02,23.02,24.35,21.375,24.35z"/>
		
			<radialGradient id="SVGID_4_" cx="568.7568" cy="847.3545" r="13.9776" gradientTransform="matrix(1 0 0 1 -547.3809 -825.9795)" gradientUnits="userSpaceOnUse">
			<stop  offset="0" style="stop-color:#03ADDB"/>
			<stop  offset="0.2485" style="stop-color:#BAD4DB"/>
			<stop  offset="0.254" style="stop-color:#B7C4D6"/>
			<stop  offset="0.2609" style="stop-color:#B4B5D2"/>
			<stop  offset="0.2692" style="stop-color:#B2A9CD"/>
			<stop  offset="0.2794" style="stop-color:#B0A0CB"/>
			<stop  offset="0.2937" style="stop-color:#AF9CCA"/>
			<stop  offset="0.3333" style="stop-color:#AF9ACA"/>
			<stop  offset="0.3879" style="stop-color:#87B4C7"/>
			<stop  offset="0.4606" style="stop-color:#5DC19D"/>
			<stop  offset="0.4801" style="stop-color:#64BF9C"/>
			<stop  offset="0.4985" style="stop-color:#74BB9A"/>
			<stop  offset="0.5163" style="stop-color:#8AB697"/>
			<stop  offset="0.5338" style="stop-color:#A4AD93"/>
			<stop  offset="0.5367" style="stop-color:#A9AB92"/>
			<stop  offset="0.5526" style="stop-color:#9AAC9D"/>
			<stop  offset="0.5846" style="stop-color:#81ACB1"/>
			<stop  offset="0.6215" style="stop-color:#67ADC0"/>
			<stop  offset="0.6646" style="stop-color:#4DADCC"/>
			<stop  offset="0.7178" style="stop-color:#32ADD4"/>
			<stop  offset="0.7926" style="stop-color:#15ADD9"/>
			<stop  offset="1" style="stop-color:#03ADDB"/>
		</radialGradient>
		<path opacity="0.55" fill="url(#SVGID_4_)" enable-background="new    " d="M21.375,11.459c-5.477,0-9.914,4.438-9.914,9.916
			c0,5.477,4.438,9.916,9.914,9.916c5.477,0,9.916-4.439,9.916-9.916C31.291,15.896,26.852,11.459,21.375,11.459z M21.375,24.35
			c-1.643,0-2.975-1.332-2.975-2.975s1.332-2.975,2.975-2.975c1.645,0,2.975,1.332,2.975,2.975S23.02,24.35,21.375,24.35z"/>
		
			<linearGradient id="SVGID_5_" gradientUnits="userSpaceOnUse" x1="563.5928" y1="853.5645" x2="571.5928" y2="853.6055" gradientTransform="matrix(1 0 0 1 -547.3809 -825.9795)">
			<stop  offset="0" style="stop-color:#FFFFFF"/>
			<stop  offset="1" style="stop-color:#FFFFFF;stop-opacity:0"/>
		</linearGradient>
		<path opacity="0.44" fill="url(#SVGID_5_)" enable-background="new    " d="M21.375,31.291c1.807,0,3.496-0.49,4.955-1.336
			l-3.473-6.016c-0.438,0.254-0.938,0.41-1.48,0.41s-1.045-0.156-1.48-0.41l-3.475,6.016C17.881,30.801,19.568,31.291,21.375,31.291
			z"/>
		
			<linearGradient id="SVGID_6_" gradientUnits="userSpaceOnUse" x1="577.0508" y1="848.7764" x2="571.8846" y2="840.8591" gradientTransform="matrix(1 0 0 1 -547.3809 -825.9795)">
			<stop  offset="0" style="stop-color:#FFFFFF"/>
			<stop  offset="1" style="stop-color:#FFFFFF;stop-opacity:0"/>
		</linearGradient>
		<path opacity="0.44" fill="url(#SVGID_6_)" enable-background="new    " d="M24.012,11.695l-1.799,6.709
			c1.035,0.283,1.84,1.102,2.1,2.146l6.703-1.797C30.119,15.32,27.436,12.617,24.012,11.695z"/>
		<path d="M21.375,17.395c-2.199,0-3.982,1.781-3.982,3.98s1.783,3.982,3.982,3.982c2.201,0,3.982-1.783,3.982-3.982
			S23.576,17.395,21.375,17.395z M21.375,24.783c-1.881,0-3.406-1.527-3.406-3.408c0-1.883,1.525-3.406,3.406-3.406
			c1.883,0,3.408,1.523,3.408,3.406C24.783,23.256,23.258,24.783,21.375,24.783z"/>
		
			<linearGradient id="SVGID_7_" gradientUnits="userSpaceOnUse" x1="823.126" y1="-508.5874" x2="817.9612" y2="-516.5024" gradientTransform="matrix(-4.371139e-008 1 -1 -4.371139e-008 -488.6449 -793.4711)">
			<stop  offset="0" style="stop-color:#FFFFFF"/>
			<stop  offset="1" style="stop-color:#FFFFFF;stop-opacity:0"/>
		</linearGradient>
		<path opacity="0.44" fill="url(#SVGID_7_)" enable-background="new    " d="M31.041,23.996l-6.709-1.797
			c-0.281,1.033-1.102,1.84-2.145,2.098L23.982,31C27.416,30.104,30.119,27.42,31.041,23.996z"/>
		
			<linearGradient id="SVGID_8_" gradientUnits="userSpaceOnUse" x1="961.4092" y1="-199.5693" x2="956.2439" y2="-207.4853" gradientTransform="matrix(0.3454 0.9384 -0.9384 0.3454 -497.0146 -803.2494)">
			<stop  offset="0" style="stop-color:#FFFFFF"/>
			<stop  offset="1" style="stop-color:#FFFFFF;stop-opacity:0"/>
		</linearGradient>
		<path opacity="0.44" fill="url(#SVGID_8_)" enable-background="new    " d="M30.793,20.861l-6.916,0.631
			c0.092,1.068-0.398,2.107-1.289,2.711l4.002,5.67C29.502,27.846,31.111,24.393,30.793,20.861z"/>
	</g>
</g>
<path fill="#FFFFFF" d="M32,21.876c-0.507-0.794-1.104-1.293-1.556-1.663c-0.078-0.064-0.143-0.117-0.195-0.162l-0.125-2.502
	l-0.002-2.208c-1.914-2.75-5.09-4.554-8.693-4.564c0.003,1.608,0.007,3.516,0.014,5.774l0.007,1.88
	c1.621,0.027,2.925,1.345,2.925,2.97c0,0.025-0.007,0.049-0.008,0.075l-0.465,0.042c0.079,0.918-0.292,1.797-0.957,2.414
	c-0.021,0.012-0.042,0.021-0.063,0.033c-0.176,0.102-0.363,0.183-0.557,0.249c-0.071,0.023-0.142,0.048-0.215,0.066
	c-0.067,0.018-0.136,0.031-0.205,0.044c-0.165,0.028-0.332,0.051-0.505,0.051c-0.002,0-0.004,0-0.006,0
	c-0.169-0.001-0.333-0.022-0.495-0.051c-0.072-0.013-0.145-0.027-0.216-0.046c-0.065-0.017-0.129-0.039-0.193-0.06
	c-0.199-0.067-0.391-0.15-0.569-0.254l-0.001,0.002c-0.014-0.008-0.028-0.015-0.042-0.023v-1.626
	c-0.713,0.973-1.393,2.128-1.393,3.533c0,2.563,1.341,4.854,3.409,6.149c1.755-0.08,3.396-0.582,4.827-1.413
	c-0.02-0.084-0.026-0.17-0.057-0.252l-0.992-2.696l0.424-0.358l0.806,0.018l0.84,2.613C30.218,28.063,31.854,25.168,32,21.876z"/>
<g>
	<path id="path82" d="M24.767,32c-0.061,0.001-0.121-0.006-0.182-0.017c-2.97-0.548-5.124-3.138-5.124-6.158
		c0-1.427,0.92-2.603,1.732-3.645c0.587-0.755,1.198-1.536,1.235-2.165c-0.002-0.592-0.007-1.896-0.011-3.493
		C22.4,10.434,22.392,4.899,22.429,4.056c0.057-1.227,0.175-2.242,1.123-3.195c0.557-0.555,1.312-0.86,2.126-0.86
		c0.905,0,1.832,0.382,2.419,0.998c0.846,0.896,0.982,1.442,0.987,2.406l0.016,14.12l0.141,2.834c0.006,0.132,0.098,0.231,0.542,0.6
		c0.869,0.711,2.183,1.787,2.218,4.84c0.019,1.554-0.556,3.054-1.61,4.224c-0.193,0.212-0.465,0.329-0.743,0.328
		c-0.069,0.001-0.142-0.006-0.211-0.021c-0.35-0.075-0.634-0.33-0.741-0.672l-1.082-3.367l-1.896-0.043l-1.249,1.055l1.234,3.354
		c0.125,0.338,0.061,0.716-0.173,0.989C25.338,31.872,25.057,32.001,24.767,32L24.767,32z M25.763,2.826
		c-0.13,0.001-0.252,0.052-0.346,0.146c-0.176,0.175-0.175,0.454,0.005,0.633c0.089,0.09,0.212,0.143,0.342,0.142
		c0.085,0,0.205-0.021,0.309-0.125c0.118-0.117,0.136-0.26,0.136-0.334c-0.001-0.075-0.018-0.216-0.132-0.333
		C25.97,2.848,25.845,2.827,25.763,2.826L25.763,2.826z"/>
	<path id="path3377" fill="#94C9D9" d="M29.645,29.351c0.845-0.935,1.37-2.187,1.355-3.542c-0.049-4.16-2.681-3.81-2.76-5.4
		L28.1,17.525L28.085,3.408c-0.002-0.679-0.032-0.998-0.715-1.72c-0.682-0.719-2.186-1.045-3.108-0.12
		c-0.653,0.654-0.778,1.324-0.833,2.534c-0.057,1.201-0.002,13.449,0,15.976c-0.124,1.949-2.968,3.663-2.969,5.747
		c0.001,2.58,1.855,4.725,4.307,5.175l-1.477-4.01l2.065-1.754l2.986,0.067L29.645,29.351z M26.779,4.329
		c-0.57,0.57-1.495,0.551-2.067-0.019c-0.566-0.569-0.566-1.479,0-2.049c0.57-0.568,1.496-0.587,2.066-0.017
		C27.35,2.813,27.351,3.759,26.779,4.329z"/>
	
		<linearGradient id="path3437_1_" gradientUnits="userSpaceOnUse" x1="5.5127" y1="-207.4985" x2="-24.1295" y2="-178.103" gradientTransform="matrix(-0.1345 0.1345 -0.1345 -0.1345 -1.3364 -7.3076)">
		<stop  offset="0" style="stop-color:#34899F"/>
		<stop  offset="1" style="stop-color:#DBEDF1;stop-opacity:0"/>
	</linearGradient>
	<path id="path3437" fill="url(#path3437_1_)" d="M28.013,21.092c-0.139-0.181-0.285-0.908-0.313-1.155L27.656,3.642
		c-0.03-0.603,0.024-1.037-0.617-1.711c-0.64-0.67-1.741-0.764-2.519,0.014c-0.552,0.55-0.612,1.189-0.605,2.264
		c0.009,1.065-0.098,13.15,0.026,15.4c-0.003,0.31-0.157,1.121-0.29,1.413C25.169,20.537,26.445,20.445,28.013,21.092L28.013,21.092
		z"/>
	
		<linearGradient id="path3450_1_" gradientUnits="userSpaceOnUse" x1="5.5122" y1="-207.501" x2="-24.1267" y2="-178.1087" gradientTransform="matrix(-0.1345 0.1345 -0.1345 -0.1345 -1.3423 -7.2627)">
		<stop  offset="0" style="stop-color:#34899F"/>
		<stop  offset="1" style="stop-color:#DBEDF1;stop-opacity:0"/>
	</linearGradient>
	<path id="path3450" fill="url(#path3450_1_)" d="M28.006,21.137c-0.137-0.178-0.29-0.907-0.312-1.154L27.648,3.687
		c-0.032-0.602,0.024-1.036-0.616-1.712c-0.642-0.67-1.74-0.762-2.522,0.018c-0.548,0.55-0.608,1.188-0.602,2.262
		c0.009,1.065-0.093,13.149,0.028,15.4c-0.004,0.312-0.158,1.12-0.289,1.414C25.16,20.584,26.44,20.49,28.006,21.137z"/>
	
		<linearGradient id="path3464_1_" gradientUnits="userSpaceOnUse" x1="-39.0234" y1="-176.6919" x2="-23.0229" y2="-162.8181" gradientTransform="matrix(-0.1345 0.1345 -0.1345 -0.1345 -1.3364 -7.3076)">
		<stop  offset="0" style="stop-color:#34899F;stop-opacity:0"/>
		<stop  offset="1" style="stop-color:#33859B;stop-opacity:0.6842"/>
	</linearGradient>
	<path id="path3464" fill="url(#path3464_1_)" d="M28.029,21.113c-0.136-0.179-0.287-0.907-0.313-1.154L27.673,3.664
		c-0.035-0.602,0.026-1.037-0.615-1.71c-0.642-0.671-1.743-0.765-2.521,0.015c-0.551,0.55-0.61,1.189-0.604,2.265
		c0.011,1.064-0.093,13.149,0.027,15.398c-0.006,0.311-0.156,1.12-0.289,1.414C25.184,20.561,26.466,20.465,28.029,21.113z"/>
	
		<linearGradient id="rect3484_1_" gradientUnits="userSpaceOnUse" x1="7.0356" y1="-245.8237" x2="8.0398" y2="-231.2176" gradientTransform="matrix(-0.1345 0.1345 -0.1345 -0.1345 -1.3364 -7.3076)">
		<stop  offset="0" style="stop-color:#DBEDF1"/>
		<stop  offset="1" style="stop-color:#DBEDF1;stop-opacity:0"/>
	</linearGradient>
	<path id="rect3484" fill="url(#rect3484_1_)" d="M30.584,26.247c-0.133,1.063-0.486,1.609-0.811,2.234l-1.105-3.412l1.427-1.622
		C30.555,24.339,30.573,25.292,30.584,26.247z"/>
	
		<linearGradient id="rect3495_1_" gradientUnits="userSpaceOnUse" x1="50.5059" y1="-227.5386" x2="39.3727" y2="-217.6829" gradientTransform="matrix(-0.1345 0.1345 -0.1345 -0.1345 -1.3364 -7.3076)">
		<stop  offset="0" style="stop-color:#DBEDF1"/>
		<stop  offset="1" style="stop-color:#DBEDF1;stop-opacity:0"/>
	</linearGradient>
	<path id="rect3495" fill="url(#rect3495_1_)" d="M24.202,30.421c-0.52,0.016-1.164-0.469-1.747-0.906
		c-0.762-0.842-1.336-1.531-1.523-2.801l1.966,0.245L24.202,30.421z"/>
</g>
</svg>
