<?xml version="1.0" encoding="utf-8"?>
<!-- Generator: Adobe Illustrator 14.0.0, SVG Export Plug-In . SVG Version: 6.00 Build 43363)  -->
<!DOCTYPE svg PUBLIC "-//W3C//DTD SVG 1.1//EN" "http://www.w3.org/Graphics/SVG/1.1/DTD/svg11.dtd">
<svg version="1.1" id="Layer_1" xmlns="http://www.w3.org/2000/svg" xmlns:xlink="http://www.w3.org/1999/xlink" x="0px" y="0px"
	 width="32px" height="32px" viewBox="0 0 32 32" enable-background="new 0 0 32 32" xml:space="preserve">
<path id="path5_7_" d="M31.756,17.524c-0.363-0.629-1.072-0.989-1.947-0.989h-5.365v-0.486c0-1.711-1.394-3.104-3.104-3.104h-9.043
	l-0.118-0.219c-0.431-0.81-1.02-1.914-2.521-1.914H6.628c-1.542,0-2.146,1.119-2.668,2.089l-0.022,0.043H3.104
	C1.393,12.944,0,14.338,0,16.049v12.82C0,30.596,1.393,32,3.104,32H3.43h17.908h0.674c1.43,0,3.047-0.932,3.764-2.168l5.863-10.126
	C32.075,18.948,32.118,18.153,31.756,17.524z"/>
<path id="rect5504_5_" fill="#A46A29" d="M6.628,11.813c-0.974,0-1.329,0.715-1.791,1.57l-0.31,0.562H3.104
	C1.934,13.944,1,14.877,1,16.049v12.82C1,30.041,1.934,31,3.104,31h18.234c1.171,0,2.104-0.959,2.104-2.131v-12.82
	c0-1.172-0.933-2.104-2.104-2.104h-9.635l-0.309-0.561c-0.463-0.856-0.767-1.571-1.738-1.571H8.814H7.471L6.628,11.813L6.628,11.813
	z"/>
<g>
	<path id="path2924_1_" fill="#030303" d="M5.694,21.105c-0.386,0-0.695-0.312-0.695-0.695V0.695C4.999,0.311,5.308,0,5.694,0h9.979
		c0.186,0,0.361,0.072,0.49,0.204l4.634,4.632c0.131,0.131,0.205,0.307,0.205,0.494v15.078c0,0.386-0.311,0.697-0.697,0.697H5.694
		L5.694,21.105z"/>
	<polygon id="polygon2926_1_" fill="#6DBE46" points="15.673,0.695 5.694,0.695 5.694,20.41 20.305,20.41 20.305,5.33 	"/>
	<polygon id="polygon2928_1_" fill="#FFFFFF" points="18.969,4.699 18.969,18.961 6.967,18.961 6.967,2.032 16.302,2.032 
		17.579,3.481 	"/>
	<g>
		<rect x="8.288" y="8.246" fill="#818285" width="9.535" height="0.531"/>
		<rect x="8.288" y="11.766" fill="#818285" width="9.535" height="0.529"/>
		<rect x="8.178" y="4.991" fill="#818285" width="9.536" height="0.529"/>
		<rect x="8.288" y="15.584" fill="#818285" width="9.535" height="0.53"/>
	</g>
	<path id="path2930_1_" fill="#030303" d="M15.673,6.025c-0.386,0-0.697-0.312-0.697-0.695V0.695c0-0.281,0.171-0.534,0.43-0.643
		C15.493,0.017,15.582,0,15.673,0c0.182,0,0.359,0.071,0.49,0.204l4.634,4.632c0.197,0.2,0.258,0.5,0.152,0.759
		c-0.107,0.26-0.363,0.429-0.643,0.429L15.673,6.025L15.673,6.025z"/>
	<polygon id="polygon2932_1_" fill="#6DBE46" points="15.673,5.33 20.305,5.33 15.673,0.695 	"/>
</g>
<g>
	<path id="path2924_3_" fill="#030303" d="M11.024,28.74c-0.386,0-0.695-0.313-0.695-0.695V8.328c0-0.384,0.309-0.695,0.695-0.695
		h9.978c0.186,0,0.361,0.072,0.49,0.204l4.635,4.632c0.131,0.131,0.205,0.307,0.205,0.494v15.08c0,0.385-0.311,0.697-0.697,0.697
		H11.024L11.024,28.74z"/>
	<polygon id="polygon2926_3_" fill="#03ADDB" points="21.002,8.328 11.024,8.328 11.024,28.045 25.635,28.045 25.635,12.963 	"/>
	<polygon id="polygon2928_3_" fill="#FFFFFF" points="24.299,12.333 24.299,26.596 12.297,26.596 12.297,9.665 21.631,9.665 
		22.908,11.114 	"/>
	<g>
		<rect x="13.617" y="15.879" fill="#818285" width="9.535" height="0.531"/>
		<rect x="13.617" y="19.4" fill="#818285" width="9.535" height="0.529"/>
		<rect x="13.507" y="12.625" fill="#818285" width="9.536" height="0.529"/>
		<rect x="13.617" y="23.219" fill="#818285" width="9.535" height="0.529"/>
	</g>
	<path id="path2930_3_" fill="#030303" d="M21.002,13.659c-0.385,0-0.697-0.312-0.697-0.695V8.328c0-0.281,0.172-0.534,0.43-0.643
		c0.088-0.035,0.178-0.052,0.268-0.052c0.182,0,0.359,0.071,0.49,0.204l4.635,4.632c0.197,0.2,0.258,0.5,0.152,0.759
		c-0.107,0.26-0.363,0.429-0.643,0.429L21.002,13.659L21.002,13.659z"/>
	<polygon id="polygon2932_3_" fill="#03ADDB" points="21.002,12.963 25.635,12.963 21.002,8.328 	"/>
</g>
<path d="M3.432,32c-0.876,0-1.587-0.361-1.949-0.991C1.12,30.38,1.164,29.586,1.603,28.83l5.86-10.126
	c0.714-1.236,2.332-2.169,3.763-2.169h18.582c0.875,0,1.584,0.361,1.947,0.989c0.362,0.629,0.319,1.424-0.119,2.182l-5.861,10.127
	C25.058,31.069,23.441,32,22.014,32H3.432z"/>
<path id="rect5498_5_" fill="#FBA91D" d="M11.227,17.535h18.582c1.065,0,1.496,0.748,0.963,1.67L24.91,29.332
	C24.376,30.252,23.079,31,22.014,31H3.432c-1.066,0-1.498-0.748-0.964-1.668l5.861-10.127C8.861,18.283,10.16,17.535,11.227,17.535z
	"/>
<linearGradient id="path16_1_" gradientUnits="userSpaceOnUse" x1="0.7998" y1="-112.1074" x2="27.5186" y2="-112.1074" gradientTransform="matrix(1 0 0 -1 2.46 -87.8398)">
	<stop  offset="0" style="stop-color:#A56929"/>
	<stop  offset="0.5394" style="stop-color:#FBA91D"/>
	<stop  offset="1" style="stop-color:#FFF4E3"/>
</linearGradient>
<path id="path16_2_" fill="url(#path16_1_)" d="M3.432,30c-0.072,0-0.13-0.006-0.172-0.014c0.016-0.039,0.037-0.092,0.073-0.152
	l5.86-10.128c0.355-0.612,1.322-1.171,2.031-1.171h18.582c0.072,0,0.129,0.007,0.172,0.016c-0.015,0.039-0.037,0.092-0.074,0.154
	L24.045,28.83C23.689,29.443,22.721,30,22.014,30H3.432z"/>
</svg>
