<?xml version="1.0" encoding="utf-8"?>
<!-- Generator: Adobe Illustrator 14.0.0, SVG Export Plug-In . SVG Version: 6.00 Build 43363)  -->
<!DOCTYPE svg PUBLIC "-//W3C//DTD SVG 1.1//EN" "http://www.w3.org/Graphics/SVG/1.1/DTD/svg11.dtd">
<svg version="1.1" id="Layer_1" xmlns="http://www.w3.org/2000/svg" xmlns:xlink="http://www.w3.org/1999/xlink" x="0px" y="0px"
	 width="32px" height="32px" viewBox="0 0 32 32" enable-background="new 0 0 32 32" xml:space="preserve">
<g>
	<path fill="#010101" d="M4.786,32c-0.551,0-1-0.447-1-1V1c0-0.553,0.449-1,1-1h22.428c0.553,0,1,0.447,1,1v22.684
		c0,0.266-0.104,0.52-0.293,0.707l-7.315,7.316C20.418,31.895,20.164,32,19.898,32H4.786z"/>
	<path fill="#03ADDB" d="M27.214,23.684V1H4.786v30h15.113L27.214,23.684z M25.677,1.976c0.487,0,0.883,0.396,0.883,0.882
		c0,0.488-0.396,0.883-0.883,0.883c-0.488,0-0.882-0.396-0.882-0.883C24.795,2.371,25.188,1.976,25.677,1.976z M22.762,1.976
		c0.486,0,0.881,0.396,0.881,0.882c0,0.488-0.395,0.883-0.881,0.883c-0.488,0-0.884-0.396-0.884-0.883
		C21.878,2.371,22.273,1.976,22.762,1.976z M6.817,3.74c-0.486,0-0.882-0.395-0.882-0.881c0-0.488,0.396-0.883,0.882-0.883
		S7.7,2.373,7.7,2.859S7.304,3.74,6.817,3.74z M10.006,3.74c-0.487,0-0.883-0.395-0.883-0.881c0-0.488,0.396-0.883,0.883-0.883
		c0.486,0,0.882,0.396,0.882,0.883S10.493,3.74,10.006,3.74z M13.196,3.74c-0.488,0-0.883-0.395-0.883-0.881
		c0-0.488,0.395-0.883,0.883-0.883c0.486,0,0.881,0.396,0.881,0.883S13.681,3.74,13.196,3.74z M16.383,3.74
		c-0.487,0-0.883-0.395-0.883-0.881c0-0.488,0.396-0.883,0.883-0.883c0.488,0,0.882,0.396,0.882,0.883S16.872,3.74,16.383,3.74z
		 M18.689,2.857c0-0.486,0.396-0.882,0.881-0.882c0.49,0,0.885,0.396,0.885,0.882c0,0.488-0.395,0.883-0.885,0.883
		C19.084,3.74,18.689,3.346,18.689,2.857z"/>
	<polygon fill="#FFF3E1" points="26.066,23.97 26.066,4.811 5.933,4.811 5.933,29.851 19.898,29.851 	"/>
	<line fill="none" stroke="#939598" stroke-width="1.148" x1="7.077" y1="8.043" x2="25.156" y2="8.043"/>
	<line fill="none" stroke="#939598" stroke-width="1.148" x1="7.077" y1="12.289" x2="25.156" y2="12.289"/>
	<line fill="none" stroke="#939598" stroke-width="1.148" x1="7.077" y1="16.535" x2="25.156" y2="16.535"/>
	<line fill="none" stroke="#939598" stroke-width="1.148" x1="7.077" y1="20.783" x2="25.156" y2="20.783"/>
	<line fill="none" stroke="#939598" stroke-width="1.148" x1="7.077" y1="25.031" x2="23.078" y2="25.031"/>
	<path fill="#010101" d="M19.898,32c-0.129,0-0.259-0.024-0.383-0.076c-0.373-0.154-0.617-0.52-0.617-0.924v-7.316
		c0-0.553,0.447-1,1-1h7.315c0.403,0,0.771,0.243,0.924,0.617c0.155,0.374,0.069,0.804-0.217,1.09l-7.315,7.316
		C20.414,31.898,20.158,32,19.898,32L19.898,32z"/>
	<polygon fill="#03ADDB" points="19.898,31 27.214,23.684 19.898,23.684 	"/>
	
		<linearGradient id="SVGID_1_" gradientUnits="userSpaceOnUse" x1="18.4385" y1="-114.4746" x2="22.3398" y2="-114.4746" gradientTransform="matrix(1 0 0 -1 2.46 -87.8398)">
		<stop  offset="0" style="stop-color:#B2D3DC"/>
		<stop  offset="1" style="stop-color:#157DA0"/>
	</linearGradient>
	<polygon fill="url(#SVGID_1_)" points="20.898,24.684 24.8,24.684 20.898,28.586 	"/>
</g>
</svg>
