<?xml version="1.0" encoding="utf-8"?>
<!-- Generator: Adobe Illustrator 14.0.0, SVG Export Plug-In . SVG Version: 6.00 Build 43363)  -->
<!DOCTYPE svg PUBLIC "-//W3C//DTD SVG 1.1//EN" "http://www.w3.org/Graphics/SVG/1.1/DTD/svg11.dtd">
<svg version="1.1" id="Layer_1" xmlns="http://www.w3.org/2000/svg" xmlns:xlink="http://www.w3.org/1999/xlink" x="0px" y="0px"
	 width="32px" height="32px" viewBox="0 0 32 32" enable-background="new 0 0 32 32" xml:space="preserve">
<g>
	<g>
		<path d="M9.998,0C4.477,0,0,4.476,0,10s4.477,10,9.998,10c5.524,0,10-4.476,10-10S15.522,0,9.998,0z M9.999,13
			C8.342,13,7,11.659,7,10c0-1.657,1.342-3,2.999-3S13,8.342,13,10C13,11.657,11.656,13,9.999,13z"/>
		<path fill="#BCBEC0" d="M9.998,0.666c-5.154,0-9.331,4.178-9.331,9.334c0,5.154,4.177,9.333,9.331,9.333
			c5.155,0,9.334-4.179,9.334-9.333C19.332,4.844,15.153,0.666,9.998,0.666z M9.999,12.799c-1.548,0-2.801-1.251-2.801-2.8
			c0-1.547,1.254-2.801,2.801-2.801c1.548,0,2.8,1.254,2.8,2.801C12.799,11.548,11.547,12.799,9.999,12.799z"/>
		
			<radialGradient id="SVGID_1_" cx="573.4404" cy="820.0391" r="13.1549" gradientTransform="matrix(1 0 0 1 -563.4414 -810.0391)" gradientUnits="userSpaceOnUse">
			<stop  offset="0" style="stop-color:#03ADDB"/>
			<stop  offset="0.2485" style="stop-color:#BAD4DB"/>
			<stop  offset="0.254" style="stop-color:#B7C4D6"/>
			<stop  offset="0.2609" style="stop-color:#B4B5D2"/>
			<stop  offset="0.2692" style="stop-color:#B2A9CD"/>
			<stop  offset="0.2794" style="stop-color:#B0A0CB"/>
			<stop  offset="0.2937" style="stop-color:#AF9CCA"/>
			<stop  offset="0.3333" style="stop-color:#AF9ACA"/>
			<stop  offset="0.3879" style="stop-color:#87B4C7"/>
			<stop  offset="0.4606" style="stop-color:#5DC19D"/>
			<stop  offset="0.4801" style="stop-color:#64BF9C"/>
			<stop  offset="0.4985" style="stop-color:#74BB9A"/>
			<stop  offset="0.5163" style="stop-color:#8AB697"/>
			<stop  offset="0.5338" style="stop-color:#A4AD93"/>
			<stop  offset="0.5367" style="stop-color:#A9AB92"/>
			<stop  offset="0.5526" style="stop-color:#9AAC9D"/>
			<stop  offset="0.5846" style="stop-color:#81ACB1"/>
			<stop  offset="0.6215" style="stop-color:#67ADC0"/>
			<stop  offset="0.6646" style="stop-color:#4DADCC"/>
			<stop  offset="0.7178" style="stop-color:#32ADD4"/>
			<stop  offset="0.7926" style="stop-color:#15ADD9"/>
			<stop  offset="1" style="stop-color:#03ADDB"/>
		</radialGradient>
		<path opacity="0.55" fill="url(#SVGID_1_)" enable-background="new    " d="M9.998,0.666c-5.154,0-9.331,4.178-9.331,9.334
			c0,5.154,4.177,9.333,9.331,9.333c5.155,0,9.334-4.179,9.334-9.333C19.332,4.844,15.153,0.666,9.998,0.666z M9.999,12.799
			c-1.548,0-2.801-1.254-2.801-2.8c0-1.547,1.254-2.801,2.801-2.801c1.548,0,2.8,1.254,2.8,2.801
			C12.799,11.545,11.547,12.799,9.999,12.799z"/>
		
			<linearGradient id="SVGID_2_" gradientUnits="userSpaceOnUse" x1="568.5801" y1="825.8838" x2="576.1095" y2="825.9225" gradientTransform="matrix(1 0 0 1 -563.4414 -810.0391)">
			<stop  offset="0" style="stop-color:#FFFFFF"/>
			<stop  offset="1" style="stop-color:#FFFFFF;stop-opacity:0"/>
		</linearGradient>
		<path opacity="0.44" fill="url(#SVGID_2_)" enable-background="new    " d="M9.999,19.333c1.702,0,3.29-0.462,4.663-1.258
			l-3.27-5.662c-0.41,0.239-0.881,0.386-1.393,0.386c-0.51,0-0.981-0.146-1.393-0.386l-3.27,5.662
			C6.709,18.87,8.297,19.333,9.999,19.333z"/>
		
			<linearGradient id="SVGID_3_" gradientUnits="userSpaceOnUse" x1="581.2451" y1="821.374" x2="576.3843" y2="813.9249" gradientTransform="matrix(1 0 0 1 -563.4414 -810.0391)">
			<stop  offset="0" style="stop-color:#FFFFFF"/>
			<stop  offset="1" style="stop-color:#FFFFFF;stop-opacity:0"/>
		</linearGradient>
		<path opacity="0.44" fill="url(#SVGID_3_)" enable-background="new    " d="M12.48,0.89l-1.693,6.313
			c0.975,0.266,1.732,1.037,1.975,2.02l6.309-1.691C18.228,4.3,15.701,1.758,12.48,0.89z"/>
		<path d="M9.999,6.252c-2.071,0-3.747,1.676-3.747,3.747c0,2.07,1.676,3.747,3.747,3.747s3.747-1.677,3.747-3.747
			C13.746,7.93,12.07,6.252,9.999,6.252z M9.999,13.208c-1.771,0-3.206-1.438-3.206-3.208c0-1.773,1.435-3.206,3.206-3.206
			c1.772,0,3.207,1.433,3.207,3.206C13.206,11.77,11.771,13.208,9.999,13.208z"/>
		
			<linearGradient id="SVGID_4_" gradientUnits="userSpaceOnUse" x1="827.3252" y1="-514.3521" x2="822.4619" y2="-521.8051" gradientTransform="matrix(-4.371139e-008 1 -1 -4.371139e-008 -505.7054 -809.5316)">
			<stop  offset="0" style="stop-color:#FFFFFF"/>
			<stop  offset="1" style="stop-color:#FFFFFF;stop-opacity:0"/>
		</linearGradient>
		<path opacity="0.44" fill="url(#SVGID_4_)" enable-background="new    " d="M19.098,12.467l-6.316-1.691
			c-0.266,0.973-1.037,1.731-2.02,1.975l1.689,6.309C15.685,18.215,18.228,15.689,19.098,12.467z"/>
		
			<linearGradient id="SVGID_5_" gradientUnits="userSpaceOnUse" x1="962.5264" y1="-209.7778" x2="957.6642" y2="-217.2292" gradientTransform="matrix(0.3454 0.9384 -0.9384 0.3454 -518.412 -812.6556)">
			<stop  offset="0" style="stop-color:#FFFFFF"/>
			<stop  offset="1" style="stop-color:#FFFFFF;stop-opacity:0"/>
		</linearGradient>
		<path opacity="0.44" fill="url(#SVGID_5_)" enable-background="new    " d="M18.863,9.516l-6.51,0.594
			c0.088,1.006-0.375,1.984-1.213,2.552l3.767,5.337C17.646,16.09,19.162,12.84,18.863,9.516z"/>
	</g>
	<g>
		<path id="path9190_1_" fill="#020202" d="M25.67,32c-3.15,0-6.329-0.806-6.329-2.606v-2.899c0-0.138,0.02-0.312,0.091-0.503
			c-0.071-0.192-0.091-0.366-0.091-0.503v-2.901c0-0.15,0.023-0.336,0.105-0.542c-0.082-0.203-0.105-0.39-0.105-0.541v-2.899
			C19.344,16.805,22.521,16,25.67,16c3.149,0,6.327,0.805,6.33,2.604v2.9c0,0.151-0.023,0.336-0.105,0.542
			C31.977,22.251,32,22.438,32,22.587v2.901c0,0.137-0.02,0.311-0.092,0.502C31.98,26.182,32,26.355,32,26.495v2.899
			C32,31.194,28.821,32,25.67,32L25.67,32z"/>
		
			<linearGradient id="path8001_2_" gradientUnits="userSpaceOnUse" x1="1447.0938" y1="2798.0449" x2="1460.6697" y2="2798.0449" gradientTransform="matrix(0.6524 0 0 0.6524 -923.8828 -1796.686)">
			<stop  offset="0" style="stop-color:#BFDCEB"/>
			<stop  offset="0.0164" style="stop-color:#B7D2E2"/>
			<stop  offset="0.043" style="stop-color:#A2BBC8"/>
			<stop  offset="0.0667" style="stop-color:#8BA2AF"/>
			<stop  offset="0.5455" style="stop-color:#BFDCEB"/>
			<stop  offset="0.5614" style="stop-color:#C2DCEB"/>
			<stop  offset="0.6708" style="stop-color:#DAEBF3"/>
			<stop  offset="0.7715" style="stop-color:#ECF6F9"/>
			<stop  offset="0.8545" style="stop-color:#F1F9FA"/>
			<stop  offset="0.8593" style="stop-color:#EFF8FA"/>
			<stop  offset="0.8965" style="stop-color:#E8F5F7"/>
			<stop  offset="1" style="stop-color:#E7F5F8"/>
		</linearGradient>
		<path id="path8001_1_" fill="url(#path8001_2_)" d="M31.153,29.331V26.43c0,0.972-2.455,1.759-5.483,1.759
			c-3.026,0-5.482-0.787-5.482-1.759v2.901c0,0.971,2.454,1.757,5.482,1.757S31.153,30.302,31.153,29.331z"/>
		<ellipse id="ellipse8003_1_" fill="#BFDCEB" cx="25.67" cy="26.429" rx="5.483" ry="1.759"/>
		<ellipse id="ellipse8010_1_" fill="#020202" cx="25.67" cy="26.247" rx="5.195" ry="1.658"/>
		
			<linearGradient id="path8044_2_" gradientUnits="userSpaceOnUse" x1="1463.7959" y1="2795.9043" x2="1450.0646" y2="2795.9043" gradientTransform="matrix(0.6524 0 0 0.6524 -923.8828 -1796.686)">
			<stop  offset="0" style="stop-color:#BFDCEB"/>
			<stop  offset="0.0164" style="stop-color:#B7D2E2"/>
			<stop  offset="0.043" style="stop-color:#A2BBC8"/>
			<stop  offset="0.0667" style="stop-color:#8BA2AF"/>
			<stop  offset="0.5455" style="stop-color:#BFDCEB"/>
			<stop  offset="0.5614" style="stop-color:#C2DCEB"/>
			<stop  offset="0.6708" style="stop-color:#DAEBF3"/>
			<stop  offset="0.7715" style="stop-color:#ECF6F9"/>
			<stop  offset="0.8545" style="stop-color:#F1F9FA"/>
			<stop  offset="0.8593" style="stop-color:#EFF8FA"/>
			<stop  offset="0.8965" style="stop-color:#E8F5F7"/>
			<stop  offset="1" style="stop-color:#E7F5F8"/>
		</linearGradient>
		<path id="path8044_1_" fill="url(#path8044_2_)" d="M25.67,28.083c-2.918,0-5.303-0.731-5.471-1.653
			c-0.008,0.034-0.011,0.069-0.011,0.105c0,0.97,2.453,1.758,5.481,1.758c3.027,0,5.483-0.788,5.483-1.758
			c0-0.036-0.006-0.071-0.011-0.105C30.973,27.352,28.588,28.083,25.67,28.083z"/>
		
			<linearGradient id="path8087_2_" gradientUnits="userSpaceOnUse" x1="1447.0938" y1="2792.0586" x2="1460.6697" y2="2792.0586" gradientTransform="matrix(0.6524 0 0 0.6524 -923.8828 -1796.686)">
			<stop  offset="0" style="stop-color:#BFDCEB"/>
			<stop  offset="0.0164" style="stop-color:#B7D2E2"/>
			<stop  offset="0.043" style="stop-color:#A2BBC8"/>
			<stop  offset="0.0667" style="stop-color:#8BA2AF"/>
			<stop  offset="0.5455" style="stop-color:#BFDCEB"/>
			<stop  offset="0.5614" style="stop-color:#C2DCEB"/>
			<stop  offset="0.6708" style="stop-color:#DAEBF3"/>
			<stop  offset="0.7715" style="stop-color:#ECF6F9"/>
			<stop  offset="0.8545" style="stop-color:#F1F9FA"/>
			<stop  offset="0.8593" style="stop-color:#EFF8FA"/>
			<stop  offset="0.8965" style="stop-color:#E8F5F7"/>
			<stop  offset="1" style="stop-color:#E7F5F8"/>
		</linearGradient>
		<path id="path8087_1_" fill="url(#path8087_2_)" d="M31.153,25.423v-2.899c0,0.971-2.455,1.758-5.483,1.758
			c-3.026,0-5.482-0.787-5.482-1.758v2.899c0,0.971,2.454,1.76,5.482,1.76C28.698,27.181,31.153,26.395,31.153,25.423z"/>
		<ellipse id="ellipse8089_1_" fill="#BFDCEB" cx="25.67" cy="22.523" rx="5.483" ry="1.758"/>
		<ellipse id="ellipse8096_1_" fill="#020202" cx="25.67" cy="22.343" rx="5.195" ry="1.657"/>
		
			<linearGradient id="path8130_2_" gradientUnits="userSpaceOnUse" x1="1463.792" y1="2789.916" x2="1450.0605" y2="2789.916" gradientTransform="matrix(0.6524 0 0 0.6524 -923.8828 -1796.686)">
			<stop  offset="0" style="stop-color:#BFDCEB"/>
			<stop  offset="0.0164" style="stop-color:#B7D2E2"/>
			<stop  offset="0.043" style="stop-color:#A2BBC8"/>
			<stop  offset="0.0667" style="stop-color:#8BA2AF"/>
			<stop  offset="0.5455" style="stop-color:#BFDCEB"/>
			<stop  offset="0.5614" style="stop-color:#C2DCEB"/>
			<stop  offset="0.6708" style="stop-color:#DAEBF3"/>
			<stop  offset="0.7715" style="stop-color:#ECF6F9"/>
			<stop  offset="0.8545" style="stop-color:#F1F9FA"/>
			<stop  offset="0.8593" style="stop-color:#EFF8FA"/>
			<stop  offset="0.8965" style="stop-color:#E8F5F7"/>
			<stop  offset="1" style="stop-color:#E7F5F8"/>
		</linearGradient>
		<path id="path8130_1_" fill="url(#path8130_2_)" d="M25.67,24.177c-2.918,0-5.303-0.73-5.471-1.653
			c-0.008,0.035-0.011,0.068-0.011,0.104c0,0.971,2.453,1.758,5.481,1.758c3.027,0,5.483-0.787,5.483-1.758
			c0-0.036-0.006-0.071-0.011-0.104C30.973,23.445,28.588,24.177,25.67,24.177z"/>
		
			<linearGradient id="path8173_2_" gradientUnits="userSpaceOnUse" x1="1447.0938" y1="2785.958" x2="1460.6697" y2="2785.958" gradientTransform="matrix(0.6524 0 0 0.6524 -923.8828 -1796.686)">
			<stop  offset="0" style="stop-color:#BFDCEB"/>
			<stop  offset="0.0164" style="stop-color:#B7D2E2"/>
			<stop  offset="0.043" style="stop-color:#A2BBC8"/>
			<stop  offset="0.0667" style="stop-color:#8BA2AF"/>
			<stop  offset="0.5455" style="stop-color:#BFDCEB"/>
			<stop  offset="0.5614" style="stop-color:#C2DCEB"/>
			<stop  offset="0.6708" style="stop-color:#DAEBF3"/>
			<stop  offset="0.7715" style="stop-color:#ECF6F9"/>
			<stop  offset="0.8545" style="stop-color:#F1F9FA"/>
			<stop  offset="0.8593" style="stop-color:#EFF8FA"/>
			<stop  offset="0.8965" style="stop-color:#E8F5F7"/>
			<stop  offset="1" style="stop-color:#E7F5F8"/>
		</linearGradient>
		<path id="path8173_1_" fill="url(#path8173_2_)" d="M31.153,21.443v-2.901c0,0.972-2.455,1.759-5.483,1.759
			c-3.026,0-5.482-0.787-5.482-1.759v2.901c0,0.972,2.454,1.761,5.482,1.761S31.153,22.415,31.153,21.443z"/>
		<ellipse id="ellipse8175_1_" fill="#BFDCEB" cx="25.67" cy="18.542" rx="5.483" ry="1.758"/>
		
			<linearGradient id="path8202_2_" gradientUnits="userSpaceOnUse" x1="1463.7959" y1="2783.8613" x2="1450.0646" y2="2783.8613" gradientTransform="matrix(0.6524 0 0 0.6524 -923.8828 -1796.686)">
			<stop  offset="0" style="stop-color:#BFDCEB"/>
			<stop  offset="0.0164" style="stop-color:#B7D2E2"/>
			<stop  offset="0.043" style="stop-color:#A2BBC8"/>
			<stop  offset="0.0667" style="stop-color:#8BA2AF"/>
			<stop  offset="0.5455" style="stop-color:#BFDCEB"/>
			<stop  offset="0.5614" style="stop-color:#C2DCEB"/>
			<stop  offset="0.6708" style="stop-color:#DAEBF3"/>
			<stop  offset="0.7715" style="stop-color:#ECF6F9"/>
			<stop  offset="0.8545" style="stop-color:#F1F9FA"/>
			<stop  offset="0.8593" style="stop-color:#EFF8FA"/>
			<stop  offset="0.8965" style="stop-color:#E8F5F7"/>
			<stop  offset="1" style="stop-color:#E7F5F8"/>
		</linearGradient>
		<path id="path8202_1_" fill="url(#path8202_2_)" d="M25.67,20.227c-2.918,0-5.303-0.729-5.471-1.653
			c-0.008,0.035-0.011,0.069-0.011,0.104c0,0.973,2.453,1.759,5.481,1.759c3.027,0,5.483-0.788,5.483-1.759
			c0-0.035-0.006-0.071-0.011-0.105C30.973,19.497,28.588,20.227,25.67,20.227L25.67,20.227z"/>
	</g>
	<g>
		<g id="g2990_1_">
			<path id="path4235_1_" opacity="0.98" fill="#020202" enable-background="new    " d="M20.227,13.497
				c-0.11-0.108-0.253-0.183-0.414-0.201l-8.11-1.038c-0.218-0.028-0.437,0.045-0.595,0.202c-0.155,0.157-0.23,0.377-0.201,0.594
				l1.04,8.108c0.021,0.159,0.095,0.303,0.202,0.412c0.076,0.075,0.165,0.132,0.268,0.169c0.252,0.09,0.535,0.029,0.728-0.156
				l1.628-1.556c2.664,2.322,5.228,3.394,7.634,3.192c2.793-0.236,4.285-2.139,4.349-2.221c0.188-0.245,0.196-0.588,0.017-0.844
				c-0.025-0.033-0.052-0.063-0.078-0.092c-0.188-0.188-0.467-0.259-0.724-0.173c-2.269,0.737-4.286,0.06-6.543-2.197
				c-0.347-0.346-0.703-0.729-1.114-1.204l1.923-1.997c0.188-0.194,0.249-0.477,0.159-0.731
				C20.359,13.662,20.3,13.572,20.227,13.497L20.227,13.497z"/>
			<path id="path7827_1_" fill="#FAA81E" d="M11.611,12.961l1.04,8.11l2.104-2.013c7.359,6.813,11.432,1.509,11.432,1.509
				c-3.896,1.271-6.612-1.462-8.836-4.104l2.368-2.462L11.611,12.961L11.611,12.961z"/>
			
				<linearGradient id="path4246_2_" gradientUnits="userSpaceOnUse" x1="-795.7441" y1="330.0635" x2="-782.4375" y2="330.0635" gradientTransform="matrix(0.7071 0.7071 -0.7071 0.7071 808.4932 343.07)">
				<stop  offset="0" style="stop-color:#FFF3E1"/>
				<stop  offset="0.5394" style="stop-color:#FAA81E"/>
				<stop  offset="1" style="stop-color:#A46729"/>
			</linearGradient>
			<path id="path4246_1_" fill="url(#path4246_2_)" d="M18.228,14.527l-5.792-0.741l0.743,5.797l1.567-1.501l0.491,0.453
				c2.526,2.341,4.889,3.439,7.02,3.271c0.454-0.036,0.864-0.126,1.228-0.25c-2.198-0.271-3.879-1.666-5.065-2.852
				c-0.489-0.488-0.988-1.038-1.613-1.782l-0.412-0.49L18.228,14.527z"/>
		</g>
	</g>
</g>
</svg>
