<?xml version="1.0" encoding="utf-8"?>
<!-- Generator: Adobe Illustrator 14.0.0, SVG Export Plug-In . SVG Version: 6.00 Build 43363)  -->
<!DOCTYPE svg PUBLIC "-//W3C//DTD SVG 1.1//EN" "http://www.w3.org/Graphics/SVG/1.1/DTD/svg11.dtd">
<svg version="1.1" id="Layer_1" xmlns="http://www.w3.org/2000/svg" xmlns:xlink="http://www.w3.org/1999/xlink" x="0px" y="0px"
	 width="32px" height="32px" viewBox="0 0 32 32" enable-background="new 0 0 32 32" xml:space="preserve">
<g>
	<path d="M12.497,0C5.595,0,0,5.595,0,12.5S5.595,25,12.497,25c6.906,0,12.501-5.595,12.501-12.5S19.403,0,12.497,0z M12.499,16.25
		c-2.071,0-3.749-1.676-3.749-3.75c0-2.071,1.678-3.749,3.749-3.749c2.072,0,3.75,1.677,3.75,3.749S14.571,16.25,12.499,16.25z"/>
	<path fill="#BCBEC0" d="M12.497,0.833C6.055,0.833,0.834,6.055,0.834,12.5c0,6.443,5.221,11.666,11.663,11.666
		c6.444,0,11.668-5.223,11.668-11.666C24.165,6.055,18.941,0.833,12.497,0.833z M12.499,15.999c-1.934,0-3.501-1.564-3.501-3.5
		c0-1.934,1.567-3.501,3.501-3.501c1.934,0,3.5,1.567,3.5,3.501C16,14.435,14.433,15.999,12.499,15.999z"/>
	
		<radialGradient id="SVGID_1_" cx="575.9404" cy="822.5391" r="16.4417" gradientTransform="matrix(1 0 0 1 -563.4414 -810.0391)" gradientUnits="userSpaceOnUse">
		<stop  offset="0" style="stop-color:#03ADDB"/>
		<stop  offset="0.2485" style="stop-color:#BAD4DB"/>
		<stop  offset="0.254" style="stop-color:#B7C4D6"/>
		<stop  offset="0.2609" style="stop-color:#B4B5D2"/>
		<stop  offset="0.2692" style="stop-color:#B2A9CD"/>
		<stop  offset="0.2794" style="stop-color:#B0A0CB"/>
		<stop  offset="0.2937" style="stop-color:#AF9CCA"/>
		<stop  offset="0.3333" style="stop-color:#AF9ACA"/>
		<stop  offset="0.3879" style="stop-color:#87B4C7"/>
		<stop  offset="0.4606" style="stop-color:#5DC19D"/>
		<stop  offset="0.4801" style="stop-color:#64BF9C"/>
		<stop  offset="0.4985" style="stop-color:#74BB9A"/>
		<stop  offset="0.5163" style="stop-color:#8AB697"/>
		<stop  offset="0.5338" style="stop-color:#A4AD93"/>
		<stop  offset="0.5367" style="stop-color:#A9AB92"/>
		<stop  offset="0.5526" style="stop-color:#9AAC9D"/>
		<stop  offset="0.5846" style="stop-color:#81ACB1"/>
		<stop  offset="0.6215" style="stop-color:#67ADC0"/>
		<stop  offset="0.6646" style="stop-color:#4DADCC"/>
		<stop  offset="0.7178" style="stop-color:#32ADD4"/>
		<stop  offset="0.7926" style="stop-color:#15ADD9"/>
		<stop  offset="1" style="stop-color:#03ADDB"/>
	</radialGradient>
	<path opacity="0.55" fill="url(#SVGID_1_)" enable-background="new    " d="M12.497,0.833C6.055,0.833,0.834,6.055,0.834,12.5
		c0,6.443,5.221,11.666,11.663,11.666c6.444,0,11.668-5.223,11.668-11.666C24.165,6.055,18.941,0.833,12.497,0.833z M12.499,15.999
		c-1.934,0-3.501-1.567-3.501-3.5c0-1.934,1.567-3.501,3.501-3.501c1.934,0,3.5,1.567,3.5,3.501
		C16,14.431,14.433,15.999,12.499,15.999z"/>
	
		<linearGradient id="SVGID_2_" gradientUnits="userSpaceOnUse" x1="569.8652" y1="829.8457" x2="579.277" y2="829.8941" gradientTransform="matrix(1 0 0 1 -563.4414 -810.0391)">
		<stop  offset="0" style="stop-color:#FFFFFF"/>
		<stop  offset="1" style="stop-color:#FFFFFF;stop-opacity:0"/>
	</linearGradient>
	<path opacity="0.44" fill="url(#SVGID_2_)" enable-background="new    " d="M12.499,24.166c2.127,0,4.113-0.577,5.829-1.572
		l-4.086-7.077c-0.513,0.299-1.103,0.482-1.741,0.482c-0.637,0-1.228-0.183-1.742-0.482l-4.085,7.077
		C8.387,23.588,10.371,24.166,12.499,24.166z"/>
	
		<linearGradient id="SVGID_3_" gradientUnits="userSpaceOnUse" x1="585.6973" y1="824.209" x2="579.6212" y2="814.8973" gradientTransform="matrix(1 0 0 1 -563.4414 -810.0391)">
		<stop  offset="0" style="stop-color:#FFFFFF"/>
		<stop  offset="1" style="stop-color:#FFFFFF;stop-opacity:0"/>
	</linearGradient>
	<path opacity="0.44" fill="url(#SVGID_3_)" enable-background="new    " d="M15.6,1.112l-2.115,7.892
		c1.217,0.333,2.166,1.297,2.468,2.524l7.885-2.114C22.785,5.375,19.627,2.197,15.6,1.112z"/>
	<path d="M12.499,7.814c-2.588,0-4.685,2.096-4.685,4.685c0,2.588,2.096,4.684,4.685,4.684s4.685-2.096,4.685-4.684
		C17.184,9.913,15.087,7.814,12.499,7.814z M12.499,16.51c-2.214,0-4.008-1.798-4.008-4.01c0-2.216,1.793-4.008,4.008-4.008
		c2.215,0,4.009,1.792,4.009,4.008C16.508,14.712,14.714,16.51,12.499,16.51z"/>
	
		<linearGradient id="SVGID_4_" gradientUnits="userSpaceOnUse" x1="831.7734" y1="-516.5142" x2="825.6949" y2="-525.8294" gradientTransform="matrix(-4.371139e-008 1 -1 -4.371139e-008 -505.7054 -809.5316)">
		<stop  offset="0" style="stop-color:#FFFFFF"/>
		<stop  offset="1" style="stop-color:#FFFFFF;stop-opacity:0"/>
	</linearGradient>
	<path opacity="0.44" fill="url(#SVGID_4_)" enable-background="new    " d="M23.872,15.583l-7.895-2.114
		c-0.332,1.216-1.296,2.165-2.524,2.468l2.112,7.886C19.605,22.769,22.785,19.611,23.872,15.583z"/>
	
		<linearGradient id="SVGID_5_" gradientUnits="userSpaceOnUse" x1="967.7207" y1="-210.7695" x2="961.6429" y2="-220.0839" gradientTransform="matrix(0.3454 0.9384 -0.9384 0.3454 -518.412 -812.6556)">
		<stop  offset="0" style="stop-color:#FFFFFF"/>
		<stop  offset="1" style="stop-color:#FFFFFF;stop-opacity:0"/>
	</linearGradient>
	<path opacity="0.44" fill="url(#SVGID_5_)" enable-background="new    " d="M23.579,11.895l-8.138,0.743
		c0.11,1.257-0.468,2.48-1.515,3.189l4.708,6.672C22.059,20.112,23.953,16.05,23.579,11.895z"/>
</g>
<g>
	<g id="g2990">
		<path id="path4235_36_" opacity="0.98" fill="#020202" enable-background="new    " d="M25.326,22.25
			c-0.11-0.108-0.253-0.183-0.414-0.201l-8.11-1.038c-0.218-0.028-0.437,0.045-0.595,0.202c-0.155,0.157-0.23,0.377-0.201,0.594
			l1.04,8.108c0.021,0.159,0.095,0.303,0.202,0.412c0.076,0.075,0.165,0.132,0.268,0.169c0.252,0.09,0.535,0.029,0.728-0.156
			l1.628-1.556c2.664,2.322,5.228,3.394,7.634,3.192c2.793-0.236,4.285-2.139,4.349-2.221c0.188-0.245,0.196-0.588,0.017-0.844
			c-0.025-0.033-0.052-0.063-0.078-0.092c-0.188-0.188-0.467-0.259-0.724-0.173c-2.269,0.737-4.286,0.06-6.543-2.197
			c-0.347-0.346-0.703-0.729-1.114-1.204l1.923-1.997c0.188-0.194,0.249-0.477,0.159-0.731
			C25.459,22.415,25.399,22.325,25.326,22.25L25.326,22.25z"/>
		<path id="path7827_71_" fill="#FAA81E" d="M16.711,21.714l1.04,8.11l2.104-2.013c7.359,6.813,11.432,1.509,11.432,1.509
			c-3.896,1.271-6.612-1.462-8.836-4.104l2.368-2.462L16.711,21.714L16.711,21.714z"/>
		
			<linearGradient id="path4246_1_" gradientUnits="userSpaceOnUse" x1="-785.9487" y1="332.6465" x2="-772.6421" y2="332.6465" gradientTransform="matrix(0.7071 0.7071 -0.7071 0.7071 808.4932 343.07)">
			<stop  offset="0" style="stop-color:#FFF3E1"/>
			<stop  offset="0.5394" style="stop-color:#FAA81E"/>
			<stop  offset="1" style="stop-color:#A46729"/>
		</linearGradient>
		<path id="path4246_34_" fill="url(#path4246_1_)" d="M23.327,23.28l-5.792-0.741l0.743,5.797l1.567-1.501l0.491,0.453
			c2.526,2.341,4.889,3.439,7.02,3.271c0.454-0.036,0.864-0.126,1.228-0.25c-2.198-0.271-3.879-1.666-5.065-2.852
			c-0.489-0.488-0.988-1.038-1.613-1.782l-0.412-0.49L23.327,23.28z"/>
	</g>
</g>
</svg>
