<?xml version="1.0" encoding="utf-8"?>
<!-- Generator: Adobe Illustrator 14.0.0, SVG Export Plug-In . SVG Version: 6.00 Build 43363)  -->
<!DOCTYPE svg PUBLIC "-//W3C//DTD SVG 1.1//EN" "http://www.w3.org/Graphics/SVG/1.1/DTD/svg11.dtd">
<svg version="1.1" id="Layer_1" xmlns="http://www.w3.org/2000/svg" xmlns:xlink="http://www.w3.org/1999/xlink" x="0px" y="0px"
	 width="32px" height="32px" viewBox="0 0 32 32" enable-background="new 0 0 32 32" xml:space="preserve">
<g>
	<g>
		<g>
			<path d="M21.373,10.752c-5.867,0-10.623,4.756-10.623,10.623C10.75,27.244,15.506,32,21.373,32
				c5.869,0,10.626-4.756,10.626-10.625C31.999,15.508,27.242,10.752,21.373,10.752z M21.374,24.563
				c-1.76,0-3.188-1.426-3.188-3.188c0-1.76,1.428-3.187,3.188-3.187c1.762,0,3.188,1.427,3.188,3.187
				C24.562,23.137,23.136,24.563,21.374,24.563z"/>
			<path fill="#BCBEC0" d="M21.373,11.459c-5.478,0-9.914,4.439-9.914,9.916s4.438,9.916,9.914,9.916s9.916-4.439,9.916-9.916
				S26.851,11.459,21.373,11.459z M21.374,24.35c-1.643,0-2.975-1.33-2.975-2.976c0-1.644,1.332-2.975,2.975-2.975
				c1.645,0,2.975,1.331,2.975,2.975C24.349,23.02,23.019,24.35,21.374,24.35z"/>
			
				<radialGradient id="SVGID_1_" cx="303.0947" cy="-394.3945" r="13.9773" gradientTransform="matrix(1 0 0 -1 -281.7207 -373.0195)" gradientUnits="userSpaceOnUse">
				<stop  offset="0" style="stop-color:#03ADDB"/>
				<stop  offset="0.2485" style="stop-color:#BAD4DB"/>
				<stop  offset="0.254" style="stop-color:#B7C4D6"/>
				<stop  offset="0.2609" style="stop-color:#B4B5D2"/>
				<stop  offset="0.2692" style="stop-color:#B2A9CD"/>
				<stop  offset="0.2794" style="stop-color:#B0A0CB"/>
				<stop  offset="0.2937" style="stop-color:#AF9CCA"/>
				<stop  offset="0.3333" style="stop-color:#AF9ACA"/>
				<stop  offset="0.3879" style="stop-color:#87B4C7"/>
				<stop  offset="0.4606" style="stop-color:#5DC19D"/>
				<stop  offset="0.4801" style="stop-color:#64BF9C"/>
				<stop  offset="0.4985" style="stop-color:#74BB9A"/>
				<stop  offset="0.5163" style="stop-color:#8AB697"/>
				<stop  offset="0.5338" style="stop-color:#A4AD93"/>
				<stop  offset="0.5367" style="stop-color:#A9AB92"/>
				<stop  offset="0.5526" style="stop-color:#9AAC9D"/>
				<stop  offset="0.5846" style="stop-color:#81ACB1"/>
				<stop  offset="0.6215" style="stop-color:#67ADC0"/>
				<stop  offset="0.6646" style="stop-color:#4DADCC"/>
				<stop  offset="0.7178" style="stop-color:#32ADD4"/>
				<stop  offset="0.7926" style="stop-color:#15ADD9"/>
				<stop  offset="1" style="stop-color:#03ADDB"/>
			</radialGradient>
			<path opacity="0.55" fill="url(#SVGID_1_)" enable-background="new    " d="M21.373,11.459c-5.478,0-9.914,4.439-9.914,9.916
				s4.438,9.916,9.914,9.916s9.916-4.439,9.916-9.916S26.851,11.459,21.373,11.459z M21.374,24.35c-1.643,0-2.975-1.332-2.975-2.976
				s1.332-2.975,2.975-2.975c1.645,0,2.975,1.331,2.975,2.975S23.019,24.35,21.374,24.35z"/>
			
				<linearGradient id="SVGID_2_" gradientUnits="userSpaceOnUse" x1="297.9316" y1="-400.6035" x2="305.9316" y2="-400.6446" gradientTransform="matrix(1 0 0 -1 -281.7207 -373.0195)">
				<stop  offset="0" style="stop-color:#FFFFFF"/>
				<stop  offset="1" style="stop-color:#FFFFFF;stop-opacity:0"/>
			</linearGradient>
			<path opacity="0.44" fill="url(#SVGID_2_)" enable-background="new    " d="M21.374,31.291c1.807,0,3.496-0.49,4.955-1.336
				l-3.473-6.016c-0.438,0.254-0.938,0.41-1.481,0.41c-0.542,0-1.044-0.156-1.479-0.41l-3.475,6.016
				C17.879,30.801,19.567,31.291,21.374,31.291z"/>
			
				<linearGradient id="SVGID_3_" gradientUnits="userSpaceOnUse" x1="311.3896" y1="-395.8149" x2="306.2245" y2="-387.8992" gradientTransform="matrix(1 0 0 -1 -281.7207 -373.0195)">
				<stop  offset="0" style="stop-color:#FFFFFF"/>
				<stop  offset="1" style="stop-color:#FFFFFF;stop-opacity:0"/>
			</linearGradient>
			<path opacity="0.44" fill="url(#SVGID_3_)" enable-background="new    " d="M24.011,11.697l-1.799,6.707
				c1.034,0.283,1.84,1.102,2.1,2.146l6.703-1.797C30.117,15.32,27.435,12.619,24.011,11.697z"/>
			<path d="M21.374,17.395c-2.2,0-3.982,1.781-3.982,3.979c0,2.199,1.782,3.981,3.982,3.981s3.982-1.782,3.982-3.981
				C25.356,19.176,23.574,17.395,21.374,17.395z M21.374,24.783c-1.882,0-3.407-1.527-3.407-3.408c0-1.883,1.525-3.406,3.407-3.406
				c1.883,0,3.408,1.523,3.408,3.406C24.782,23.256,23.257,24.783,21.374,24.783z"/>
			
				<linearGradient id="SVGID_4_" gradientUnits="userSpaceOnUse" x1="434.167" y1="275.9248" x2="429.0013" y2="283.8412" gradientTransform="matrix(-4.371139e-008 1 1 4.371139e-008 -255.9847 -404.5114)">
				<stop  offset="0" style="stop-color:#FFFFFF"/>
				<stop  offset="1" style="stop-color:#FFFFFF;stop-opacity:0"/>
			</linearGradient>
			<path opacity="0.44" fill="url(#SVGID_4_)" enable-background="new    " d="M31.04,23.996l-6.709-1.797
				c-0.282,1.033-1.102,1.84-2.146,2.098L23.981,31C27.415,30.104,30.118,27.42,31.04,23.996z"/>
			
				<linearGradient id="SVGID_5_" gradientUnits="userSpaceOnUse" x1="500.2012" y1="123.915" x2="495.0352" y2="131.832" gradientTransform="matrix(0.3454 0.9384 0.9384 -0.3454 -266.7201 -396.5831)">
				<stop  offset="0" style="stop-color:#FFFFFF"/>
				<stop  offset="1" style="stop-color:#FFFFFF;stop-opacity:0"/>
			</linearGradient>
			<path opacity="0.44" fill="url(#SVGID_5_)" enable-background="new    " d="M30.792,20.861l-6.917,0.631
				c0.093,1.068-0.397,2.107-1.288,2.711l4.001,5.67C29.5,27.846,31.108,24.393,30.792,20.861z"/>
		</g>
		<g>
			<path d="M10.622,0C4.755,0-0.001,4.756-0.001,10.625S4.755,21.25,10.622,21.25c5.869,0,10.626-4.756,10.626-10.625
				S16.491,0,10.622,0z M10.623,13.813c-1.761,0-3.187-1.426-3.187-3.188c0-1.761,1.426-3.187,3.187-3.187
				c1.763,0,3.188,1.426,3.188,3.187C13.812,12.387,12.386,13.813,10.623,13.813z"/>
			<path fill="#BCBEC0" d="M10.622,0.708c-5.477,0-9.914,4.438-9.914,9.917c0,5.477,4.438,9.916,9.914,9.916
				s9.916-4.439,9.916-9.916C20.538,5.146,16.099,0.708,10.622,0.708z M10.623,13.6c-1.644,0-2.976-1.33-2.976-2.976
				c0-1.644,1.332-2.976,2.976-2.976s2.976,1.332,2.976,2.976C13.599,12.27,12.267,13.6,10.623,13.6z"/>
			
				<radialGradient id="SVGID_6_" cx="292.3428" cy="-383.644" r="13.9769" gradientTransform="matrix(1 0 0 -1 -281.7207 -373.0195)" gradientUnits="userSpaceOnUse">
				<stop  offset="0" style="stop-color:#03ADDB"/>
				<stop  offset="0.2485" style="stop-color:#BAD4DB"/>
				<stop  offset="0.254" style="stop-color:#B7C4D6"/>
				<stop  offset="0.2609" style="stop-color:#B4B5D2"/>
				<stop  offset="0.2692" style="stop-color:#B2A9CD"/>
				<stop  offset="0.2794" style="stop-color:#B0A0CB"/>
				<stop  offset="0.2937" style="stop-color:#AF9CCA"/>
				<stop  offset="0.3333" style="stop-color:#AF9ACA"/>
				<stop  offset="0.3879" style="stop-color:#87B4C7"/>
				<stop  offset="0.4606" style="stop-color:#5DC19D"/>
				<stop  offset="0.4801" style="stop-color:#64BF9C"/>
				<stop  offset="0.4985" style="stop-color:#74BB9A"/>
				<stop  offset="0.5163" style="stop-color:#8AB697"/>
				<stop  offset="0.5338" style="stop-color:#A4AD93"/>
				<stop  offset="0.5367" style="stop-color:#A9AB92"/>
				<stop  offset="0.5526" style="stop-color:#9AAC9D"/>
				<stop  offset="0.5846" style="stop-color:#81ACB1"/>
				<stop  offset="0.6215" style="stop-color:#67ADC0"/>
				<stop  offset="0.6646" style="stop-color:#4DADCC"/>
				<stop  offset="0.7178" style="stop-color:#32ADD4"/>
				<stop  offset="0.7926" style="stop-color:#15ADD9"/>
				<stop  offset="1" style="stop-color:#03ADDB"/>
			</radialGradient>
			<path opacity="0.55" fill="url(#SVGID_6_)" enable-background="new    " d="M10.622,0.708c-5.477,0-9.914,4.438-9.914,9.917
				c0,5.477,4.438,9.916,9.914,9.916s9.916-4.439,9.916-9.916C20.538,5.146,16.099,0.708,10.622,0.708z M10.623,13.6
				c-1.644,0-2.976-1.332-2.976-2.976s1.332-2.976,2.976-2.976s2.976,1.332,2.976,2.976S12.267,13.6,10.623,13.6z"/>
			
				<linearGradient id="SVGID_7_" gradientUnits="userSpaceOnUse" x1="287.1807" y1="-389.8535" x2="295.1807" y2="-389.8946" gradientTransform="matrix(1 0 0 -1 -281.7207 -373.0195)">
				<stop  offset="0" style="stop-color:#FFFFFF"/>
				<stop  offset="1" style="stop-color:#FFFFFF;stop-opacity:0"/>
			</linearGradient>
			<path opacity="0.44" fill="url(#SVGID_7_)" enable-background="new    " d="M10.623,20.541c1.808,0,3.496-0.49,4.955-1.336
				l-3.474-6.016c-0.438,0.254-0.938,0.41-1.48,0.41c-0.542,0-1.044-0.156-1.48-0.41L5.67,19.205
				C7.128,20.051,8.815,20.541,10.623,20.541z"/>
			
				<linearGradient id="SVGID_8_" gradientUnits="userSpaceOnUse" x1="300.6377" y1="-385.0635" x2="295.4724" y2="-377.1477" gradientTransform="matrix(1 0 0 -1 -281.7207 -373.0195)">
				<stop  offset="0" style="stop-color:#FFFFFF"/>
				<stop  offset="1" style="stop-color:#FFFFFF;stop-opacity:0"/>
			</linearGradient>
			<path opacity="0.44" fill="url(#SVGID_8_)" enable-background="new    " d="M13.259,0.945l-1.798,6.708
				c1.034,0.282,1.841,1.103,2.099,2.146l6.703-1.797C19.366,4.569,16.683,1.867,13.259,0.945z"/>
			<path d="M10.623,6.643c-2.2,0-3.981,1.781-3.981,3.981c0,2.199,1.781,3.981,3.981,3.981s3.981-1.782,3.981-3.981
				C14.604,8.426,12.823,6.643,10.623,6.643z M10.623,14.033c-1.882,0-3.407-1.527-3.407-3.408c0-1.884,1.525-3.406,3.407-3.406
				c1.883,0,3.408,1.522,3.408,3.406C14.031,12.506,12.506,14.033,10.623,14.033z"/>
			
				<linearGradient id="SVGID_9_" gradientUnits="userSpaceOnUse" x1="423.418" y1="265.1729" x2="418.2516" y2="273.0902" gradientTransform="matrix(-4.371139e-008 1 1 4.371139e-008 -255.9847 -404.5114)">
				<stop  offset="0" style="stop-color:#FFFFFF"/>
				<stop  offset="1" style="stop-color:#FFFFFF;stop-opacity:0"/>
			</linearGradient>
			<path opacity="0.44" fill="url(#SVGID_9_)" enable-background="new    " d="M20.289,13.246l-6.709-1.797
				c-0.282,1.033-1.103,1.84-2.146,2.098l1.795,6.703C16.664,19.354,19.367,16.67,20.289,13.246z"/>
			
				<linearGradient id="SVGID_10_" gradientUnits="userSpaceOnUse" x1="486.3975" y1="117.5381" x2="481.2314" y2="125.4551" gradientTransform="matrix(0.3454 0.9384 0.9384 -0.3454 -266.7201 -396.5831)">
				<stop  offset="0" style="stop-color:#FFFFFF"/>
				<stop  offset="1" style="stop-color:#FFFFFF;stop-opacity:0"/>
			</linearGradient>
			<path opacity="0.44" fill="url(#SVGID_10_)" enable-background="new    " d="M20.041,10.11l-6.917,0.632
				c0.093,1.068-0.398,2.107-1.288,2.711l4.001,5.67C18.749,17.096,20.358,13.643,20.041,10.11z"/>
		</g>
	</g>
	<g>
		<path id="path9179_8_" fill="#020202" d="M20.134,10.111c0-0.146,0.033-0.295,0.1-0.434c0.164-0.342,0.504-0.562,0.885-0.566
			l2.463-0.049c0.027-0.49,0.044-0.918,0.044-1.32c0-3.021-0.885-4.822-2.871-5.832c-0.338-0.172-0.545-0.521-0.545-0.893
			c0-0.057,0.004-0.111,0.015-0.17c0.073-0.433,0.422-0.767,0.854-0.82c0.104-0.016,2.6-0.318,4.813,1.551
			c1.834,1.547,2.902,4.064,3.184,7.49l1.951,0.043c0.377,0.01,0.718,0.229,0.879,0.568c0.063,0.139,0.098,0.283,0.098,0.432
			c0,0.219-0.07,0.434-0.208,0.609l-4.933,6.383c-0.189,0.246-0.481,0.389-0.791,0.389c-0.313,0-0.604-0.143-0.793-0.389
			l-4.932-6.383C20.206,10.541,20.134,10.326,20.134,10.111L20.134,10.111z"/>
		
			<linearGradient id="path7827_1_" gradientUnits="userSpaceOnUse" x1="-1722.5488" y1="-3474.3408" x2="-1698.7184" y2="-3474.3408" gradientTransform="matrix(2.863970e-008 -0.6552 0.6552 2.863970e-008 2302.4565 -1112.0942)">
			<stop  offset="0" style="stop-color:#24A64A"/>
			<stop  offset="0.5" style="stop-color:#B3D78C"/>
			<stop  offset="1" style="stop-color:#236735"/>
		</linearGradient>
		<path id="path7827_22_" opacity="0.98" fill="url(#path7827_1_)" enable-background="new    " d="M31.001,10.076l-2.872-0.064
			c-0.381-9.887-6.92-9.024-6.92-9.024c3.603,1.832,3.593,5.633,3.302,9.024l-3.375,0.064l4.934,6.381L31.001,10.076z"/>
		<path id="path4454_12_" opacity="0.98" fill="#0DA14B" enable-background="new    " d="M22.546,10.75l2.607-0.049l0.054-0.629
			c0.084-0.955,0.119-1.688,0.119-2.367c0-1.652-0.199-3.799-1.543-5.521c0.332,0.164,0.674,0.379,1.01,0.662
			c1.615,1.363,2.502,3.783,2.636,7.191l0.024,0.66l2.142,0.049l-3.525,4.563L22.546,10.75z"/>
	</g>
</g>
</svg>
