<?xml version="1.0" encoding="utf-8"?>
<!-- Generator: Adobe Illustrator 15.0.0, SVG Export Plug-In . SVG Version: 6.00 Build 0)  -->
<!DOCTYPE svg PUBLIC "-//W3C//DTD SVG 1.1//EN" "http://www.w3.org/Graphics/SVG/1.1/DTD/svg11.dtd">
<svg version="1.1" id="Layer_1" xmlns="http://www.w3.org/2000/svg" xmlns:xlink="http://www.w3.org/1999/xlink" x="0px" y="0px"
	 width="32px" height="32px" viewBox="0 0 32 32" enable-background="new 0 0 32 32" xml:space="preserve">
<g>
	<g>
		<g>
			<path d="M0.004,21.375C0.004,27.244,4.761,32,10.63,32c5.867,0,10.623-4.756,10.623-10.625c0-5.867-4.756-10.623-10.623-10.623
				C4.761,10.752,0.004,15.508,0.004,21.375z M7.44,21.375c0-1.76,1.426-3.188,3.188-3.188c1.761,0,3.188,1.428,3.188,3.188
				c0,1.762-1.428,3.188-3.188,3.188C8.866,24.563,7.44,23.137,7.44,21.375z"/>
			<path fill="#BCBEC0" d="M0.714,21.375c0,5.477,4.439,9.916,9.916,9.916c5.476,0,9.914-4.439,9.914-9.916
				c0-5.477-4.436-9.916-9.914-9.916C5.151,11.459,0.714,15.898,0.714,21.375z M7.653,21.374c0-1.644,1.33-2.976,2.976-2.976
				c1.644,0,2.976,1.332,2.976,2.976c0,1.646-1.332,2.976-2.976,2.976C8.983,24.35,7.653,23.02,7.653,21.374z"/>
			
				<radialGradient id="SVGID_1_" cx="303.1152" cy="1236.2998" r="13.9773" gradientTransform="matrix(-1 0 0 1 313.7441 -1214.9248)" gradientUnits="userSpaceOnUse">
				<stop  offset="0" style="stop-color:#03ADDB"/>
				<stop  offset="0.2485" style="stop-color:#BAD4DB"/>
				<stop  offset="0.254" style="stop-color:#B7C4D6"/>
				<stop  offset="0.2609" style="stop-color:#B4B5D2"/>
				<stop  offset="0.2692" style="stop-color:#B2A9CD"/>
				<stop  offset="0.2794" style="stop-color:#B0A0CB"/>
				<stop  offset="0.2937" style="stop-color:#AF9CCA"/>
				<stop  offset="0.3333" style="stop-color:#AF9ACA"/>
				<stop  offset="0.3879" style="stop-color:#87B4C7"/>
				<stop  offset="0.4606" style="stop-color:#5DC19D"/>
				<stop  offset="0.4801" style="stop-color:#64BF9C"/>
				<stop  offset="0.4985" style="stop-color:#74BB9A"/>
				<stop  offset="0.5163" style="stop-color:#8AB697"/>
				<stop  offset="0.5338" style="stop-color:#A4AD93"/>
				<stop  offset="0.5367" style="stop-color:#A9AB92"/>
				<stop  offset="0.5526" style="stop-color:#9AAC9D"/>
				<stop  offset="0.5846" style="stop-color:#81ACB1"/>
				<stop  offset="0.6215" style="stop-color:#67ADC0"/>
				<stop  offset="0.6646" style="stop-color:#4DADCC"/>
				<stop  offset="0.7178" style="stop-color:#32ADD4"/>
				<stop  offset="0.7926" style="stop-color:#15ADD9"/>
				<stop  offset="1" style="stop-color:#03ADDB"/>
			</radialGradient>
			<path opacity="0.55" fill="url(#SVGID_1_)" enable-background="new    " d="M0.714,21.375c0,5.477,4.439,9.916,9.916,9.916
				c5.476,0,9.914-4.439,9.914-9.916c0-5.477-4.436-9.916-9.914-9.916C5.151,11.459,0.714,15.898,0.714,21.375z M7.653,21.374
				c0-1.644,1.33-2.976,2.976-2.976c1.644,0,2.976,1.332,2.976,2.976s-1.332,2.976-2.976,2.976
				C8.983,24.35,7.653,23.018,7.653,21.374z"/>
			
				<linearGradient id="SVGID_2_" gradientUnits="userSpaceOnUse" x1="297.9541" y1="1242.5098" x2="305.9541" y2="1242.5509" gradientTransform="matrix(-1 0 0 1 313.7441 -1214.9248)">
				<stop  offset="0" style="stop-color:#FFFFFF"/>
				<stop  offset="1" style="stop-color:#FFFFFF;stop-opacity:0"/>
			</linearGradient>
			<path opacity="0.44" fill="url(#SVGID_2_)" enable-background="new    " d="M15.582,29.955l-3.476-6.016
				c-0.435,0.254-0.937,0.41-1.479,0.41c-0.543,0-1.043-0.156-1.48-0.41l-3.474,6.016c1.459,0.846,3.147,1.336,4.955,1.336
				S14.124,30.801,15.582,29.955z"/>
			
				<linearGradient id="SVGID_3_" gradientUnits="userSpaceOnUse" x1="311.4102" y1="1237.7197" x2="306.2451" y2="1229.804" gradientTransform="matrix(-1 0 0 1 313.7441 -1214.9248)">
				<stop  offset="0" style="stop-color:#FFFFFF"/>
				<stop  offset="1" style="stop-color:#FFFFFF;stop-opacity:0"/>
			</linearGradient>
			<path opacity="0.44" fill="url(#SVGID_3_)" enable-background="new    " d="M0.987,18.753L7.69,20.55
				c0.261-1.044,1.066-1.862,2.101-2.146l-1.8-6.707C4.567,12.619,1.886,15.32,0.987,18.753z"/>
			<path d="M6.647,21.374c0,2.199,1.781,3.981,3.981,3.981s3.981-1.782,3.981-3.981c0-2.198-1.781-3.979-3.981-3.979
				S6.647,19.176,6.647,21.374z M7.221,21.375c0-1.883,1.525-3.406,3.408-3.406c1.882,0,3.407,1.523,3.407,3.406
				c0,1.881-1.525,3.408-3.407,3.408C8.746,24.783,7.221,23.256,7.221,21.375z"/>
			
				<linearGradient id="SVGID_4_" gradientUnits="userSpaceOnUse" x1="558.0732" y1="-120.9438" x2="552.9075" y2="-128.8602" gradientTransform="matrix(4.366649e-008 1 1 -4.366649e-008 133.0082 -528.4174)">
				<stop  offset="0" style="stop-color:#FFFFFF"/>
				<stop  offset="1" style="stop-color:#FFFFFF;stop-opacity:0"/>
			</linearGradient>
			<path opacity="0.44" fill="url(#SVGID_4_)" enable-background="new    " d="M8.022,31l1.795-6.703
				c-1.043-0.258-1.863-1.064-2.146-2.098l-6.709,1.797C1.885,27.42,4.588,30.104,8.022,31z"/>
			
				<linearGradient id="SVGID_5_" gradientUnits="userSpaceOnUse" x1="696.4189" y1="188.4209" x2="691.2534" y2="180.5047" gradientTransform="matrix(-0.3454 0.9384 0.9384 0.3454 73.4013 -688.5961)">
				<stop  offset="0" style="stop-color:#FFFFFF"/>
				<stop  offset="1" style="stop-color:#FFFFFF;stop-opacity:0"/>
			</linearGradient>
			<path opacity="0.44" fill="url(#SVGID_5_)" enable-background="new    " d="M5.415,29.873l4.001-5.67
				c-0.892-0.604-1.381-1.643-1.288-2.711l-6.917-0.631C0.896,24.393,2.503,27.846,5.415,29.873z"/>
		</g>
		<g>
			<path d="M10.755,10.625c0,5.869,4.757,10.625,10.626,10.625c5.867,0,10.623-4.756,10.623-10.625S27.248,0,21.381,0
				C15.512,0,10.755,4.756,10.755,10.625z M18.191,10.625c0-1.761,1.425-3.187,3.188-3.187c1.761,0,3.187,1.426,3.187,3.187
				c0,1.762-1.426,3.188-3.187,3.188C19.616,13.813,18.19,12.387,18.191,10.625z"/>
			<path fill="#BCBEC0" d="M11.465,10.625c0,5.477,4.44,9.916,9.916,9.916c5.476,0,9.914-4.439,9.914-9.916
				c0-5.479-4.438-9.917-9.914-9.917C15.904,0.708,11.465,5.146,11.465,10.625z M18.403,10.624c0-1.644,1.332-2.976,2.977-2.976
				c1.644,0,2.976,1.332,2.976,2.976c0,1.646-1.332,2.976-2.976,2.976C19.735,13.6,18.403,12.27,18.403,10.624z"/>
			
				<radialGradient id="SVGID_6_" cx="292.3643" cy="1225.5488" r="13.9762" gradientTransform="matrix(-1 0 0 1 313.7441 -1214.9248)" gradientUnits="userSpaceOnUse">
				<stop  offset="0" style="stop-color:#03ADDB"/>
				<stop  offset="0.2485" style="stop-color:#BAD4DB"/>
				<stop  offset="0.254" style="stop-color:#B7C4D6"/>
				<stop  offset="0.2609" style="stop-color:#B4B5D2"/>
				<stop  offset="0.2692" style="stop-color:#B2A9CD"/>
				<stop  offset="0.2794" style="stop-color:#B0A0CB"/>
				<stop  offset="0.2937" style="stop-color:#AF9CCA"/>
				<stop  offset="0.3333" style="stop-color:#AF9ACA"/>
				<stop  offset="0.3879" style="stop-color:#87B4C7"/>
				<stop  offset="0.4606" style="stop-color:#5DC19D"/>
				<stop  offset="0.4801" style="stop-color:#64BF9C"/>
				<stop  offset="0.4985" style="stop-color:#74BB9A"/>
				<stop  offset="0.5163" style="stop-color:#8AB697"/>
				<stop  offset="0.5338" style="stop-color:#A4AD93"/>
				<stop  offset="0.5367" style="stop-color:#A9AB92"/>
				<stop  offset="0.5526" style="stop-color:#9AAC9D"/>
				<stop  offset="0.5846" style="stop-color:#81ACB1"/>
				<stop  offset="0.6215" style="stop-color:#67ADC0"/>
				<stop  offset="0.6646" style="stop-color:#4DADCC"/>
				<stop  offset="0.7178" style="stop-color:#32ADD4"/>
				<stop  offset="0.7926" style="stop-color:#15ADD9"/>
				<stop  offset="1" style="stop-color:#03ADDB"/>
			</radialGradient>
			<path opacity="0.55" fill="url(#SVGID_6_)" enable-background="new    " d="M11.465,10.625c0,5.477,4.44,9.916,9.916,9.916
				c5.476,0,9.914-4.439,9.914-9.916c0-5.479-4.438-9.917-9.914-9.917C15.904,0.708,11.465,5.146,11.465,10.625z M18.403,10.624
				c0-1.644,1.332-2.976,2.977-2.976c1.644,0,2.976,1.332,2.976,2.976S23.023,13.6,21.38,13.6
				C19.735,13.6,18.403,12.268,18.403,10.624z"/>
			
				<linearGradient id="SVGID_7_" gradientUnits="userSpaceOnUse" x1="287.2012" y1="1231.7598" x2="295.2012" y2="1231.8009" gradientTransform="matrix(-1 0 0 1 313.7441 -1214.9248)">
				<stop  offset="0" style="stop-color:#FFFFFF"/>
				<stop  offset="1" style="stop-color:#FFFFFF;stop-opacity:0"/>
			</linearGradient>
			<path opacity="0.44" fill="url(#SVGID_7_)" enable-background="new    " d="M26.333,19.205l-3.475-6.016
				c-0.436,0.254-0.938,0.41-1.479,0.41s-1.042-0.156-1.48-0.41l-3.474,6.016c1.459,0.846,3.146,1.336,4.955,1.336
				C23.188,20.541,24.875,20.051,26.333,19.205z"/>
			
				<linearGradient id="SVGID_8_" gradientUnits="userSpaceOnUse" x1="300.6582" y1="1226.9678" x2="295.4929" y2="1219.052" gradientTransform="matrix(-1 0 0 1 313.7441 -1214.9248)">
				<stop  offset="0" style="stop-color:#FFFFFF"/>
				<stop  offset="1" style="stop-color:#FFFFFF;stop-opacity:0"/>
			</linearGradient>
			<path opacity="0.44" fill="url(#SVGID_8_)" enable-background="new    " d="M11.739,8.002l6.703,1.797
				c0.259-1.043,1.065-1.864,2.1-2.146l-1.798-6.708C15.319,1.867,12.637,4.569,11.739,8.002z"/>
			<path d="M17.398,10.624c0,2.199,1.781,3.981,3.981,3.981s3.98-1.782,3.98-3.981c0-2.2-1.78-3.981-3.98-3.981
				S17.398,8.426,17.398,10.624z M17.972,10.625c0-1.884,1.525-3.406,3.408-3.406c1.882,0,3.407,1.522,3.407,3.406
				c0,1.881-1.525,3.408-3.407,3.408C19.497,14.033,17.972,12.506,17.972,10.625z"/>
			
				<linearGradient id="SVGID_9_" gradientUnits="userSpaceOnUse" x1="547.3232" y1="-110.1924" x2="542.1568" y2="-118.1097" gradientTransform="matrix(4.366649e-008 1 1 -4.366649e-008 133.0082 -528.4174)">
				<stop  offset="0" style="stop-color:#FFFFFF"/>
				<stop  offset="1" style="stop-color:#FFFFFF;stop-opacity:0"/>
			</linearGradient>
			<path opacity="0.44" fill="url(#SVGID_9_)" enable-background="new    " d="M18.773,20.25l1.795-6.703
				c-1.043-0.258-1.863-1.065-2.146-2.098l-6.709,1.797C12.636,16.67,15.339,19.354,18.773,20.25z"/>
			
				<linearGradient id="SVGID_10_" gradientUnits="userSpaceOnUse" x1="682.6172" y1="194.7969" x2="677.4516" y2="186.8807" gradientTransform="matrix(-0.3454 0.9384 0.9384 0.3454 73.4013 -688.5961)">
				<stop  offset="0" style="stop-color:#FFFFFF"/>
				<stop  offset="1" style="stop-color:#FFFFFF;stop-opacity:0"/>
			</linearGradient>
			<path opacity="0.44" fill="url(#SVGID_10_)" enable-background="new    " d="M16.166,19.123l4.001-5.67
				c-0.891-0.604-1.381-1.643-1.288-2.711l-6.917-0.632C11.646,13.643,13.254,17.096,16.166,19.123z"/>
		</g>
	</g>
	<g>
		<path id="path9179_8_" fill="#020202" d="M11.869,10.111c0,0.215-0.072,0.43-0.214,0.609l-4.932,6.384
			c-0.188,0.246-0.479,0.389-0.793,0.389c-0.31,0-0.602-0.143-0.791-0.389L0.207,10.72c-0.138-0.175-0.208-0.39-0.208-0.609
			c0-0.149,0.035-0.293,0.098-0.432C0.258,9.34,0.599,9.121,0.976,9.111l1.951-0.043c0.282-3.426,1.35-5.943,3.184-7.49
			c2.213-1.869,4.709-1.567,4.813-1.551c0.433,0.053,0.781,0.387,0.854,0.82c0.011,0.059,0.015,0.113,0.015,0.17
			c0,0.372-0.207,0.721-0.545,0.893C9.262,2.92,8.377,4.721,8.377,7.742c0,0.402,0.017,0.83,0.044,1.32l2.463,0.049
			c0.381,0.004,0.721,0.224,0.885,0.566C11.836,9.816,11.869,9.965,11.869,10.111L11.869,10.111z"/>
		
			<linearGradient id="path7827_1_" gradientUnits="userSpaceOnUse" x1="-2622.8003" y1="3481.1699" x2="-2598.9697" y2="3481.1699" gradientTransform="matrix(-2.861028e-008 -0.6552 0.6552 -2.861028e-008 -2274.9282 -1701.9385)">
			<stop  offset="0" style="stop-color:#24A64A"/>
			<stop  offset="0.5" style="stop-color:#B3D78C"/>
			<stop  offset="1" style="stop-color:#236735"/>
		</linearGradient>
		<path id="path7827_22_" opacity="0.98" fill="url(#path7827_1_)" enable-background="new    " d="M5.933,16.457l4.934-6.381
			l-3.375-0.064C7.201,6.621,7.19,2.82,10.794,0.988c0,0-6.539-0.863-6.92,9.024l-2.872,0.064L5.933,16.457z"/>
		<path id="path4454_12_" opacity="0.98" fill="#0DA14B" enable-background="new    " d="M5.933,15.309l-3.525-4.563l2.143-0.049
			l0.023-0.66C4.708,6.629,5.595,4.209,7.21,2.846c0.336-0.283,0.678-0.498,1.01-0.662C6.876,3.906,6.677,6.053,6.677,7.705
			c0,0.679,0.035,1.412,0.119,2.367l0.055,0.629l2.606,0.049L5.933,15.309z"/>
	</g>
</g>
<path fill="#FFFFFF" d="M30.021,16.57L30.007,4.424C28.359,2.07,25.784,0.423,22.81,0c-0.014,0.014-0.031,0.023-0.045,0.037
	c-1.195,1.201-1.35,2.509-1.412,3.856c-0.016,0.366-0.024,1.525-0.026,3.638c1.633,0.013,2.952,1.337,2.952,2.974
	c0,1.102-0.605,2.053-1.495,2.567l-0.002-0.003c-0.185,0.108-0.384,0.193-0.591,0.262c-0.054,0.018-0.106,0.037-0.162,0.051
	c-0.076,0.02-0.154,0.035-0.233,0.049c-0.149,0.025-0.301,0.045-0.457,0.047c-0.002,0-0.004,0-0.006,0
	c0.002,0.906,0.004,1.877,0.007,2.927l0.013,3.434c-0.019,0.313-0.636,1.107-1.034,1.619c-0.861,1.107-1.935,2.484-1.935,4.25
	c0,0.799,0.136,1.57,0.377,2.295c1.51-1.836,2.416-4.184,2.416-6.746c0-0.045-0.006-0.088-0.007-0.131
	c0.046,0,0.089,0.006,0.135,0.006C24.916,21.131,28.102,19.324,30.021,16.57z"/>
<g>
	<path id="path82" d="M24.767,32c-0.062,0.001-0.121-0.006-0.183-0.018c-2.97-0.547-5.124-3.138-5.124-6.157
		c0-1.427,0.92-2.603,1.732-3.646c0.586-0.755,1.197-1.535,1.234-2.164c-0.002-0.593-0.007-1.896-0.011-3.494
		c-0.017-6.087-0.024-11.623,0.013-12.465c0.057-1.227,0.174-2.242,1.122-3.195c0.558-0.555,1.312-0.86,2.126-0.86
		c0.905,0,1.832,0.382,2.42,0.998c0.846,0.896,0.981,1.442,0.986,2.406l0.016,14.12l0.142,2.834c0.006,0.132,0.098,0.23,0.542,0.6
		c0.869,0.711,2.183,1.787,2.218,4.84c0.019,1.555-0.556,3.055-1.61,4.225c-0.193,0.211-0.465,0.328-0.742,0.328
		c-0.069,0-0.143-0.007-0.211-0.021c-0.351-0.075-0.635-0.33-0.742-0.672l-1.082-3.367l-1.896-0.043l-1.249,1.055l1.234,3.354
		c0.125,0.338,0.061,0.716-0.174,0.989C25.337,31.872,25.056,32.001,24.767,32L24.767,32z M25.763,2.826
		c-0.131,0.001-0.252,0.052-0.347,0.146c-0.176,0.175-0.175,0.454,0.005,0.633c0.09,0.09,0.212,0.143,0.342,0.142
		c0.086,0,0.205-0.021,0.31-0.125c0.118-0.117,0.136-0.26,0.136-0.334c-0.001-0.075-0.018-0.216-0.132-0.333
		C25.97,2.848,25.845,2.827,25.763,2.826L25.763,2.826z"/>
	<path id="path3377" fill="#94C9D9" d="M29.644,29.352c0.846-0.936,1.371-2.188,1.355-3.543c-0.049-4.16-2.682-3.81-2.76-5.399
		l-0.141-2.884L28.084,3.408c-0.002-0.679-0.032-0.998-0.715-1.72c-0.683-0.719-2.187-1.045-3.108-0.12
		c-0.652,0.654-0.777,1.324-0.832,2.534c-0.058,1.201-0.003,13.449,0,15.976c-0.125,1.949-2.969,3.663-2.97,5.747
		c0.001,2.58,1.854,4.725,4.308,5.175l-1.478-4.01l2.065-1.754l2.985,0.066L29.644,29.352z M26.778,4.329
		c-0.57,0.57-1.495,0.551-2.067-0.019c-0.565-0.569-0.565-1.479,0-2.049c0.57-0.568,1.496-0.587,2.065-0.017
		C27.349,2.813,27.351,3.759,26.778,4.329z"/>
	
		<linearGradient id="path3437_1_" gradientUnits="userSpaceOnUse" x1="184.5547" y1="3197.6211" x2="154.9125" y2="3168.2256" gradientTransform="matrix(-0.1345 0.1345 0.1345 0.1345 -379.4272 -433.5605)">
		<stop  offset="0" style="stop-color:#34899F"/>
		<stop  offset="1" style="stop-color:#DBEDF1;stop-opacity:0"/>
	</linearGradient>
	<path id="path3437" fill="url(#path3437_1_)" d="M28.013,21.092c-0.14-0.181-0.285-0.908-0.313-1.154L27.655,3.642
		c-0.03-0.603,0.023-1.037-0.617-1.711c-0.641-0.67-1.741-0.764-2.52,0.014c-0.552,0.55-0.611,1.189-0.604,2.264
		c0.009,1.065-0.099,13.15,0.026,15.4c-0.004,0.31-0.157,1.121-0.291,1.412C25.168,20.537,26.444,20.445,28.013,21.092
		L28.013,21.092z"/>
	
		<linearGradient id="path3450_1_" gradientUnits="userSpaceOnUse" x1="184.5576" y1="3197.6191" x2="154.9193" y2="3168.2273" gradientTransform="matrix(-0.1345 0.1345 0.1345 0.1345 -379.4331 -433.5156)">
		<stop  offset="0" style="stop-color:#34899F"/>
		<stop  offset="1" style="stop-color:#DBEDF1;stop-opacity:0"/>
	</linearGradient>
	<path id="path3450" fill="url(#path3450_1_)" d="M28.005,21.137c-0.137-0.178-0.29-0.906-0.313-1.154L27.647,3.687
		c-0.032-0.602,0.023-1.036-0.616-1.712c-0.642-0.67-1.74-0.762-2.522,0.018c-0.548,0.55-0.607,1.188-0.602,2.262
		c0.009,1.065-0.094,13.149,0.027,15.4c-0.004,0.312-0.158,1.12-0.289,1.413C25.159,20.584,26.438,20.49,28.005,21.137z"/>
	
		<linearGradient id="path3464_1_" gradientUnits="userSpaceOnUse" x1="140.0215" y1="3166.8174" x2="156.0227" y2="3152.9429" gradientTransform="matrix(-0.1345 0.1345 0.1345 0.1345 -379.4272 -433.5605)">
		<stop  offset="0" style="stop-color:#34899F;stop-opacity:0"/>
		<stop  offset="1" style="stop-color:#33859B;stop-opacity:0.6842"/>
	</linearGradient>
	<path id="path3464" fill="url(#path3464_1_)" d="M28.028,21.113c-0.137-0.18-0.287-0.907-0.313-1.154L27.672,3.664
		c-0.034-0.602,0.026-1.037-0.614-1.71c-0.643-0.671-1.744-0.765-2.521,0.015c-0.551,0.55-0.61,1.189-0.604,2.265
		c0.01,1.064-0.094,13.149,0.026,15.398c-0.006,0.312-0.155,1.12-0.289,1.414C25.183,20.561,26.465,20.465,28.028,21.113z"/>
	
		<linearGradient id="rect3484_1_" gradientUnits="userSpaceOnUse" x1="186.0771" y1="3235.9463" x2="187.0815" y2="3221.3384" gradientTransform="matrix(-0.1345 0.1345 0.1345 0.1345 -379.4272 -433.5605)">
		<stop  offset="0" style="stop-color:#DBEDF1"/>
		<stop  offset="1" style="stop-color:#DBEDF1;stop-opacity:0"/>
	</linearGradient>
	<path id="rect3484" fill="url(#rect3484_1_)" d="M30.583,26.247c-0.133,1.063-0.486,1.608-0.811,2.233l-1.105-3.412l1.428-1.621
		C30.554,24.339,30.572,25.292,30.583,26.247z"/>
	
		<linearGradient id="rect3495_1_" gradientUnits="userSpaceOnUse" x1="229.5498" y1="3217.6611" x2="218.4166" y2="3207.8054" gradientTransform="matrix(-0.1345 0.1345 0.1345 0.1345 -379.4272 -433.5605)">
		<stop  offset="0" style="stop-color:#DBEDF1"/>
		<stop  offset="1" style="stop-color:#DBEDF1;stop-opacity:0"/>
	</linearGradient>
	<path id="rect3495" fill="url(#rect3495_1_)" d="M24.201,30.421c-0.521,0.017-1.164-0.469-1.747-0.905
		c-0.762-0.843-1.336-1.531-1.523-2.802l1.967,0.245L24.201,30.421z"/>
</g>
</svg>
