<?xml version="1.0" encoding="utf-8"?>
<!-- Generator: Adobe Illustrator 14.0.0, SVG Export Plug-In . SVG Version: 6.00 Build 43363)  -->
<!DOCTYPE svg PUBLIC "-//W3C//DTD SVG 1.1//EN" "http://www.w3.org/Graphics/SVG/1.1/DTD/svg11.dtd">
<svg version="1.1" id="Layer_1" xmlns="http://www.w3.org/2000/svg" xmlns:xlink="http://www.w3.org/1999/xlink" x="0px" y="0px"
	 width="32px" height="32px" viewBox="0 0 32 32" enable-background="new 0 0 32 32" xml:space="preserve">
<g>
	<g>
		<g>
			<path fill="#010101" d="M17.999,12.555c0-0.004,0.001-0.008,0.001-0.011c0-0.005-0.001-0.011-0.001-0.016v-0.18
				c0-0.004,0.001-0.008,0.001-0.011c0-2.318-4.665-3.374-9-3.374c-4.334,0-8.998,1.056-9,3.373v0.001v4.38
				c0,0.292,0.074,0.563,0.211,0.814C0.074,17.784,0,18.055,0,18.345c0,0,0,0,0,0.002l0,0v4.379c0,0.271,0.069,0.523,0.188,0.76
				C0.069,23.723,0,23.976,0,24.246v4.38c0,2.315,4.666,3.375,8.999,3.375c4.334,0,9-1.06,9-3.375v-4.209
				c0-0.004,0.001-0.007,0.001-0.013c0-0.004-0.001-0.011-0.001-0.015v-0.136c0-0.003,0.001-0.006,0.001-0.011
				c0-0.271-0.068-0.524-0.189-0.763c0.119-0.234,0.188-0.487,0.188-0.758v-4.208c0-0.003,0.001-0.007,0.001-0.012
				c0-0.006-0.001-0.009-0.001-0.017v-0.132c0-0.004,0.001-0.008,0.001-0.012c0-0.292-0.074-0.563-0.213-0.815
				c0.139-0.25,0.212-0.521,0.212-0.813V12.555z"/>
			
				<linearGradient id="path8001_3_" gradientUnits="userSpaceOnUse" x1="2427.6465" y1="-4909.8809" x2="2448.1436" y2="-4909.8809" gradientTransform="matrix(0.6524 0 0 -0.6524 -1583.0542 -3175.4446)">
				<stop  offset="0" style="stop-color:#C0DEEC"/>
				<stop  offset="0.0164" style="stop-color:#B9D4E3"/>
				<stop  offset="0.043" style="stop-color:#A5BDC9"/>
				<stop  offset="0.0667" style="stop-color:#8CA2B0"/>
				<stop  offset="0.5455" style="stop-color:#C0DEEC"/>
				<stop  offset="0.5614" style="stop-color:#C3DDED"/>
				<stop  offset="0.6708" style="stop-color:#DAEBF4"/>
				<stop  offset="0.7715" style="stop-color:#EEF8FA"/>
				<stop  offset="0.8545" style="stop-color:#F2FAFA"/>
				<stop  offset="0.8593" style="stop-color:#F1F9FB"/>
				<stop  offset="0.8965" style="stop-color:#EAF6F7"/>
				<stop  offset="1" style="stop-color:#E9F6F8"/>
			</linearGradient>
			<path id="path8001_1_" fill="url(#path8001_3_)" d="M17.277,28.626v-4.381c0,1.467-3.706,2.657-8.278,2.657
				c-4.571,0-8.279-1.188-8.279-2.657v4.381c0,1.465,3.706,2.653,8.279,2.653C13.572,31.28,17.277,30.094,17.277,28.626z"/>
			<ellipse id="ellipse8003_1_" fill="#C0DEEC" cx="9.001" cy="24.247" rx="8.28" ry="2.657"/>
			<ellipse id="ellipse8010_1_" fill="#030303" cx="9.001" cy="23.971" rx="7.843" ry="2.502"/>
			
				<linearGradient id="path8044_3_" gradientUnits="userSpaceOnUse" x1="2452.8682" y1="-4906.6455" x2="2432.1333" y2="-4906.6455" gradientTransform="matrix(0.6524 0 0 -0.6524 -1583.0542 -3175.4446)">
				<stop  offset="0" style="stop-color:#C0DEEC"/>
				<stop  offset="0.0164" style="stop-color:#B9D4E3"/>
				<stop  offset="0.043" style="stop-color:#A5BDC9"/>
				<stop  offset="0.0667" style="stop-color:#8CA2B0"/>
				<stop  offset="0.5455" style="stop-color:#C0DEEC"/>
				<stop  offset="0.5614" style="stop-color:#C3DDED"/>
				<stop  offset="0.6708" style="stop-color:#DAEBF4"/>
				<stop  offset="0.7715" style="stop-color:#EEF8FA"/>
				<stop  offset="0.8545" style="stop-color:#F2FAFA"/>
				<stop  offset="0.8593" style="stop-color:#F1F9FB"/>
				<stop  offset="0.8965" style="stop-color:#EAF6F7"/>
				<stop  offset="1" style="stop-color:#E9F6F8"/>
			</linearGradient>
			<path id="path8044_1_" fill="url(#path8044_3_)" d="M9.001,26.742c-4.405,0-8.007-1.104-8.261-2.497
				c-0.011,0.053-0.016,0.104-0.016,0.159c0,1.465,3.704,2.654,8.277,2.654c4.569,0,8.28-1.188,8.28-2.654
				c0-0.055-0.01-0.106-0.018-0.159C17.005,25.639,13.405,26.742,9.001,26.742z"/>
			
				<linearGradient id="path8087_3_" gradientUnits="userSpaceOnUse" x1="2427.6465" y1="-4900.8418" x2="2448.1436" y2="-4900.8418" gradientTransform="matrix(0.6524 0 0 -0.6524 -1583.0542 -3175.4446)">
				<stop  offset="0" style="stop-color:#C0DEEC"/>
				<stop  offset="0.0164" style="stop-color:#B9D4E3"/>
				<stop  offset="0.043" style="stop-color:#A5BDC9"/>
				<stop  offset="0.0667" style="stop-color:#8CA2B0"/>
				<stop  offset="0.5455" style="stop-color:#C0DEEC"/>
				<stop  offset="0.5614" style="stop-color:#C3DDED"/>
				<stop  offset="0.6708" style="stop-color:#DAEBF4"/>
				<stop  offset="0.7715" style="stop-color:#EEF8FA"/>
				<stop  offset="0.8545" style="stop-color:#F2FAFA"/>
				<stop  offset="0.8593" style="stop-color:#F1F9FB"/>
				<stop  offset="0.8965" style="stop-color:#EAF6F7"/>
				<stop  offset="1" style="stop-color:#E9F6F8"/>
			</linearGradient>
			<path id="path8087_1_" fill="url(#path8087_3_)" d="M17.277,22.727v-4.379c0,1.466-3.706,2.654-8.278,2.654
				c-4.571,0-8.279-1.188-8.279-2.654v4.379c0,1.466,3.706,2.656,8.279,2.656C13.572,25.381,17.277,24.193,17.277,22.727z"/>
			<ellipse id="ellipse8089_1_" fill="#C0DEEC" cx="9.001" cy="18.348" rx="8.28" ry="2.655"/>
			<ellipse id="ellipse8096_1_" fill="#030303" cx="9.001" cy="18.075" rx="7.843" ry="2.503"/>
			
				<linearGradient id="path8130_3_" gradientUnits="userSpaceOnUse" x1="2452.8633" y1="-4897.6045" x2="2432.1282" y2="-4897.6045" gradientTransform="matrix(0.6524 0 0 -0.6524 -1583.0542 -3175.4446)">
				<stop  offset="0" style="stop-color:#C0DEEC"/>
				<stop  offset="0.0164" style="stop-color:#B9D4E3"/>
				<stop  offset="0.043" style="stop-color:#A5BDC9"/>
				<stop  offset="0.0667" style="stop-color:#8CA2B0"/>
				<stop  offset="0.5455" style="stop-color:#C0DEEC"/>
				<stop  offset="0.5614" style="stop-color:#C3DDED"/>
				<stop  offset="0.6708" style="stop-color:#DAEBF4"/>
				<stop  offset="0.7715" style="stop-color:#EEF8FA"/>
				<stop  offset="0.8545" style="stop-color:#F2FAFA"/>
				<stop  offset="0.8593" style="stop-color:#F1F9FB"/>
				<stop  offset="0.8965" style="stop-color:#EAF6F7"/>
				<stop  offset="1" style="stop-color:#E9F6F8"/>
			</linearGradient>
			<path id="path8130_1_" fill="url(#path8130_3_)" d="M9.001,20.845c-4.405,0-8.007-1.102-8.261-2.497
				c-0.011,0.054-0.016,0.104-0.016,0.157c0,1.466,3.704,2.655,8.277,2.655c4.569,0,8.28-1.188,8.28-2.655
				c0-0.055-0.01-0.106-0.018-0.157C17.005,19.742,13.405,20.845,9.001,20.845z"/>
			
				<linearGradient id="path8173_3_" gradientUnits="userSpaceOnUse" x1="2427.6465" y1="-4891.6309" x2="2448.1436" y2="-4891.6309" gradientTransform="matrix(0.6524 0 0 -0.6524 -1583.0542 -3175.4446)">
				<stop  offset="0" style="stop-color:#C0DEEC"/>
				<stop  offset="0.0164" style="stop-color:#B9D4E3"/>
				<stop  offset="0.043" style="stop-color:#A5BDC9"/>
				<stop  offset="0.0667" style="stop-color:#8CA2B0"/>
				<stop  offset="0.5455" style="stop-color:#C0DEEC"/>
				<stop  offset="0.5614" style="stop-color:#C3DDED"/>
				<stop  offset="0.6708" style="stop-color:#DAEBF4"/>
				<stop  offset="0.7715" style="stop-color:#EEF8FA"/>
				<stop  offset="0.8545" style="stop-color:#F2FAFA"/>
				<stop  offset="0.8593" style="stop-color:#F1F9FB"/>
				<stop  offset="0.8965" style="stop-color:#EAF6F7"/>
				<stop  offset="1" style="stop-color:#E9F6F8"/>
			</linearGradient>
			<path id="path8173_1_" fill="url(#path8173_3_)" d="M17.277,16.717v-4.38c0,1.467-3.706,2.657-8.278,2.657
				c-4.571,0-8.279-1.189-8.279-2.657v4.38c0,1.466,3.706,2.658,8.279,2.658C13.572,19.376,17.277,18.183,17.277,16.717z"/>
			<ellipse id="ellipse8175_1_" fill="#C0DEEC" cx="9.001" cy="12.338" rx="8.28" ry="2.655"/>
			
				<linearGradient id="path8202_3_" gradientUnits="userSpaceOnUse" x1="2452.8682" y1="-4888.4624" x2="2432.1333" y2="-4888.4624" gradientTransform="matrix(0.6524 0 0 -0.6524 -1583.0542 -3175.4446)">
				<stop  offset="0" style="stop-color:#C0DEEC"/>
				<stop  offset="0.0164" style="stop-color:#B9D4E3"/>
				<stop  offset="0.043" style="stop-color:#A5BDC9"/>
				<stop  offset="0.0667" style="stop-color:#8CA2B0"/>
				<stop  offset="0.5455" style="stop-color:#C0DEEC"/>
				<stop  offset="0.5614" style="stop-color:#C3DDED"/>
				<stop  offset="0.6708" style="stop-color:#DAEBF4"/>
				<stop  offset="0.7715" style="stop-color:#EEF8FA"/>
				<stop  offset="0.8545" style="stop-color:#F2FAFA"/>
				<stop  offset="0.8593" style="stop-color:#F1F9FB"/>
				<stop  offset="0.8965" style="stop-color:#EAF6F7"/>
				<stop  offset="1" style="stop-color:#E9F6F8"/>
			</linearGradient>
			<path id="path8202_1_" fill="url(#path8202_3_)" d="M9.001,14.88c-4.405,0-8.007-1.102-8.261-2.498
				c-0.011,0.052-0.016,0.108-0.016,0.159c0,1.467,3.704,2.656,8.277,2.656c4.569,0,8.28-1.192,8.28-2.656
				c0-0.055-0.01-0.107-0.018-0.16C17.005,13.778,13.405,14.88,9.001,14.88L9.001,14.88z"/>
		</g>
	</g>
	<g>
		<g>
			<path fill="#010101" d="M31.999,3.592C31.999,3.588,32,3.584,32,3.582c0-0.005-0.001-0.011-0.001-0.016v-0.18
				C31.999,3.381,32,3.377,32,3.374C32,1.057,27.335,0,23,0c-4.334,0-8.998,1.056-9,3.373l0,0v4.38c0,0.293,0.074,0.564,0.211,0.816
				C14.074,8.819,14,9.091,14,9.381c0,0,0,0,0,0.002l0,0v4.379c0,0.271,0.07,0.523,0.188,0.76C14.07,14.759,14,15.013,14,15.284
				v4.38c0,2.313,4.666,3.375,8.999,3.375c4.334,0,9-1.062,9-3.375v-4.209c0-0.005,0.001-0.008,0.001-0.012
				s-0.001-0.012-0.001-0.015v-0.136c0-0.004,0.001-0.007,0.001-0.012c0-0.27-0.068-0.523-0.189-0.761
				c0.119-0.236,0.188-0.488,0.188-0.759V9.553C31.999,9.548,32,9.544,32,9.541c0-0.006-0.001-0.009-0.001-0.016V9.393
				C31.999,9.388,32,9.384,32,9.379c0-0.291-0.073-0.562-0.213-0.814c0.14-0.251,0.212-0.523,0.212-0.814V3.592z"/>
			
				<linearGradient id="path8001_4_" gradientUnits="userSpaceOnUse" x1="2449.1035" y1="-4896.1455" x2="2469.603" y2="-4896.1455" gradientTransform="matrix(0.6524 0 0 -0.6524 -1583.0542 -3175.4446)">
				<stop  offset="0" style="stop-color:#C0DEEC"/>
				<stop  offset="0.0164" style="stop-color:#B9D4E3"/>
				<stop  offset="0.043" style="stop-color:#A5BDC9"/>
				<stop  offset="0.0667" style="stop-color:#8CA2B0"/>
				<stop  offset="0.5455" style="stop-color:#C0DEEC"/>
				<stop  offset="0.5614" style="stop-color:#C3DDED"/>
				<stop  offset="0.6708" style="stop-color:#DAEBF4"/>
				<stop  offset="0.7715" style="stop-color:#EEF8FA"/>
				<stop  offset="0.8545" style="stop-color:#F2FAFA"/>
				<stop  offset="0.8593" style="stop-color:#F1F9FB"/>
				<stop  offset="0.8965" style="stop-color:#EAF6F7"/>
				<stop  offset="1" style="stop-color:#E9F6F8"/>
			</linearGradient>
			<path id="path8001_2_" fill="url(#path8001_4_)" d="M31.277,19.666v-4.381c0,1.467-3.705,2.657-8.278,2.657
				c-4.571,0-8.279-1.188-8.279-2.657v4.381c0,1.463,3.708,2.651,8.279,2.651C27.572,22.317,31.277,21.132,31.277,19.666z"/>
			<ellipse id="ellipse8003_2_" fill="#C0DEEC" cx="23" cy="15.283" rx="8.279" ry="2.656"/>
			<ellipse id="ellipse8010_2_" fill="#030303" cx="23" cy="15.009" rx="7.844" ry="2.503"/>
			
				<linearGradient id="path8044_4_" gradientUnits="userSpaceOnUse" x1="2474.3271" y1="-4892.9067" x2="2453.5913" y2="-4892.9067" gradientTransform="matrix(0.6524 0 0 -0.6524 -1583.0542 -3175.4446)">
				<stop  offset="0" style="stop-color:#C0DEEC"/>
				<stop  offset="0.0164" style="stop-color:#B9D4E3"/>
				<stop  offset="0.043" style="stop-color:#A5BDC9"/>
				<stop  offset="0.0667" style="stop-color:#8CA2B0"/>
				<stop  offset="0.5455" style="stop-color:#C0DEEC"/>
				<stop  offset="0.5614" style="stop-color:#C3DDED"/>
				<stop  offset="0.6708" style="stop-color:#DAEBF4"/>
				<stop  offset="0.7715" style="stop-color:#EEF8FA"/>
				<stop  offset="0.8545" style="stop-color:#F2FAFA"/>
				<stop  offset="0.8593" style="stop-color:#F1F9FB"/>
				<stop  offset="0.8965" style="stop-color:#EAF6F7"/>
				<stop  offset="1" style="stop-color:#E9F6F8"/>
			</linearGradient>
			<path id="path8044_2_" fill="url(#path8044_4_)" d="M23,17.78c-4.404,0-8.006-1.104-8.261-2.499
				c-0.011,0.053-0.016,0.105-0.016,0.161c0,1.464,3.704,2.654,8.276,2.654c4.569,0,8.28-1.188,8.28-2.654
				c0-0.056-0.01-0.108-0.018-0.161C31.005,16.677,27.404,17.78,23,17.78z"/>
			
				<linearGradient id="path8087_4_" gradientUnits="userSpaceOnUse" x1="2449.1035" y1="-4887.1045" x2="2469.603" y2="-4887.1045" gradientTransform="matrix(0.6524 0 0 -0.6524 -1583.0542 -3175.4446)">
				<stop  offset="0" style="stop-color:#C0DEEC"/>
				<stop  offset="0.0164" style="stop-color:#B9D4E3"/>
				<stop  offset="0.043" style="stop-color:#A5BDC9"/>
				<stop  offset="0.0667" style="stop-color:#8CA2B0"/>
				<stop  offset="0.5455" style="stop-color:#C0DEEC"/>
				<stop  offset="0.5614" style="stop-color:#C3DDED"/>
				<stop  offset="0.6708" style="stop-color:#DAEBF4"/>
				<stop  offset="0.7715" style="stop-color:#EEF8FA"/>
				<stop  offset="0.8545" style="stop-color:#F2FAFA"/>
				<stop  offset="0.8593" style="stop-color:#F1F9FB"/>
				<stop  offset="0.8965" style="stop-color:#EAF6F7"/>
				<stop  offset="1" style="stop-color:#E9F6F8"/>
			</linearGradient>
			<path id="path8087_2_" fill="url(#path8087_4_)" d="M31.277,13.765V9.385c0,1.467-3.705,2.654-8.278,2.654
				c-4.571,0-8.279-1.188-8.279-2.654v4.379c0,1.467,3.708,2.656,8.279,2.656C27.572,16.418,31.277,15.231,31.277,13.765z"/>
			<ellipse id="ellipse8089_2_" fill="#C0DEEC" cx="23" cy="9.385" rx="8.279" ry="2.655"/>
			<ellipse id="ellipse8096_2_" fill="#030303" cx="23" cy="9.114" rx="7.844" ry="2.503"/>
			
				<linearGradient id="path8130_4_" gradientUnits="userSpaceOnUse" x1="2474.3223" y1="-4883.8667" x2="2453.5864" y2="-4883.8667" gradientTransform="matrix(0.6524 0 0 -0.6524 -1583.0542 -3175.4446)">
				<stop  offset="0" style="stop-color:#C0DEEC"/>
				<stop  offset="0.0164" style="stop-color:#B9D4E3"/>
				<stop  offset="0.043" style="stop-color:#A5BDC9"/>
				<stop  offset="0.0667" style="stop-color:#8CA2B0"/>
				<stop  offset="0.5455" style="stop-color:#C0DEEC"/>
				<stop  offset="0.5614" style="stop-color:#C3DDED"/>
				<stop  offset="0.6708" style="stop-color:#DAEBF4"/>
				<stop  offset="0.7715" style="stop-color:#EEF8FA"/>
				<stop  offset="0.8545" style="stop-color:#F2FAFA"/>
				<stop  offset="0.8593" style="stop-color:#F1F9FB"/>
				<stop  offset="0.8965" style="stop-color:#EAF6F7"/>
				<stop  offset="1" style="stop-color:#E9F6F8"/>
			</linearGradient>
			<path id="path8130_2_" fill="url(#path8130_4_)" d="M23,11.883c-4.404,0-8.006-1.102-8.261-2.498
				c-0.011,0.055-0.016,0.104-0.016,0.158c0,1.466,3.704,2.654,8.276,2.654c4.569,0,8.28-1.188,8.28-2.654
				c0-0.055-0.01-0.107-0.018-0.158C31.005,10.778,27.404,11.883,23,11.883z"/>
			
				<linearGradient id="path8173_4_" gradientUnits="userSpaceOnUse" x1="2449.1035" y1="-4877.8936" x2="2469.603" y2="-4877.8936" gradientTransform="matrix(0.6524 0 0 -0.6524 -1583.0542 -3175.4446)">
				<stop  offset="0" style="stop-color:#C0DEEC"/>
				<stop  offset="0.0164" style="stop-color:#B9D4E3"/>
				<stop  offset="0.043" style="stop-color:#A5BDC9"/>
				<stop  offset="0.0667" style="stop-color:#8CA2B0"/>
				<stop  offset="0.5455" style="stop-color:#C0DEEC"/>
				<stop  offset="0.5614" style="stop-color:#C3DDED"/>
				<stop  offset="0.6708" style="stop-color:#DAEBF4"/>
				<stop  offset="0.7715" style="stop-color:#EEF8FA"/>
				<stop  offset="0.8545" style="stop-color:#F2FAFA"/>
				<stop  offset="0.8593" style="stop-color:#F1F9FB"/>
				<stop  offset="0.8965" style="stop-color:#EAF6F7"/>
				<stop  offset="1" style="stop-color:#E9F6F8"/>
			</linearGradient>
			<path id="path8173_2_" fill="url(#path8173_4_)" d="M31.277,7.754v-4.38c0,1.467-3.705,2.657-8.278,2.657
				c-4.571,0-8.279-1.189-8.279-2.657v4.38c0,1.467,3.708,2.658,8.279,2.658C27.572,10.413,31.277,9.222,31.277,7.754z"/>
			<ellipse id="ellipse8175_2_" fill="#C0DEEC" cx="23" cy="3.375" rx="8.279" ry="2.656"/>
			
				<linearGradient id="path8202_4_" gradientUnits="userSpaceOnUse" x1="2474.3271" y1="-4874.7256" x2="2453.5913" y2="-4874.7256" gradientTransform="matrix(0.6524 0 0 -0.6524 -1583.0542 -3175.4446)">
				<stop  offset="0" style="stop-color:#C0DEEC"/>
				<stop  offset="0.0164" style="stop-color:#B9D4E3"/>
				<stop  offset="0.043" style="stop-color:#A5BDC9"/>
				<stop  offset="0.0667" style="stop-color:#8CA2B0"/>
				<stop  offset="0.5455" style="stop-color:#C0DEEC"/>
				<stop  offset="0.5614" style="stop-color:#C3DDED"/>
				<stop  offset="0.6708" style="stop-color:#DAEBF4"/>
				<stop  offset="0.7715" style="stop-color:#EEF8FA"/>
				<stop  offset="0.8545" style="stop-color:#F2FAFA"/>
				<stop  offset="0.8593" style="stop-color:#F1F9FB"/>
				<stop  offset="0.8965" style="stop-color:#EAF6F7"/>
				<stop  offset="1" style="stop-color:#E9F6F8"/>
			</linearGradient>
			<path id="path8202_2_" fill="url(#path8202_4_)" d="M23,5.918c-4.404,0-8.006-1.102-8.261-2.498
				c-0.011,0.052-0.016,0.108-0.016,0.159c0,1.467,3.704,2.656,8.276,2.656c4.569,0,8.28-1.192,8.28-2.656
				c0-0.055-0.01-0.107-0.018-0.16C31.005,4.816,27.404,5.918,23,5.918L23,5.918z"/>
		</g>
	</g>
	<g>
		<path id="path9179_1_" fill="#020202" d="M17.945,11.865c-0.146,0-0.295-0.032-0.434-0.1c-0.342-0.164-0.561-0.503-0.566-0.884
			l-0.049-2.463c-0.49-0.028-0.917-0.043-1.32-0.044c-3.021,0.001-4.821,0.886-5.831,2.872c-0.172,0.337-0.521,0.545-0.893,0.545
			c-0.057,0-0.112-0.005-0.17-0.015c-0.432-0.073-0.767-0.422-0.821-0.854C7.845,10.818,7.543,8.325,9.413,6.11
			c1.547-1.834,4.063-2.902,7.489-3.183l0.043-1.951c0.01-0.377,0.229-0.718,0.568-0.88C17.652,0.034,17.796-0.001,17.945,0
			c0.219-0.001,0.434,0.07,0.609,0.208l6.383,4.932c0.246,0.19,0.389,0.482,0.389,0.792c0.001,0.311-0.143,0.604-0.389,0.793
			l-6.383,4.932C18.376,11.792,18.161,11.865,17.945,11.865L17.945,11.865z"/>
		<path id="path7827_1_" fill="#72BF46" d="M17.91,1l-0.063,2.871c-9.889,0.382-9.027,6.92-9.027,6.92
			c1.833-3.602,5.633-3.591,9.025-3.3l0.065,3.374l6.38-4.934L17.91,1z"/>
		
			<linearGradient id="path4454_2_" gradientUnits="userSpaceOnUse" x1="-332.8174" y1="282.2432" x2="-325.77" y2="282.2432" gradientTransform="matrix(8.429370e-008 -1 1 8.429370e-008 -265.6624 -323.3636)">
			<stop  offset="0" style="stop-color:#B0D68C"/>
			<stop  offset="1" style="stop-color:#239145"/>
		</linearGradient>
		<path id="path4454_1_" fill="url(#path4454_2_)" d="M18.584,9.454l-0.048-2.607l-0.63-0.053c-0.955-0.084-1.687-0.119-2.367-0.119
			c-1.651,0-3.799,0.199-5.521,1.542c0.164-0.331,0.379-0.673,0.662-1.009c1.364-1.616,3.784-2.503,7.192-2.636l0.659-0.024
			l0.049-2.141l4.563,3.523L18.584,9.454z"/>
	</g>
</g>
</svg>
