<?xml version="1.0" encoding="utf-8"?>
<!-- Generator: Adobe Illustrator 14.0.0, SVG Export Plug-In . SVG Version: 6.00 Build 43363)  -->
<!DOCTYPE svg PUBLIC "-//W3C//DTD SVG 1.1//EN" "http://www.w3.org/Graphics/SVG/1.1/DTD/svg11.dtd">
<svg version="1.1"
	 id="svg2" sodipodi:docbase="C:\Radix\dev\trunk\org.radixware\kernel\designer\src\common.resources\src\org\radixware\kernel\designer\resources\icons\ads\sql" sodipodi:docname="literal_parameter.svg" inkscape:version="0.45.1" sodipodi:version="0.32" inkscape:output_extension="org.inkscape.output.svg.inkscape" xmlns:ns="http://creativecommons.org/ns#" xmlns:dc="http://purl.org/dc/elements/1.1/" xmlns:cc="http://web.resource.org/cc/" xmlns:rdf="http://www.w3.org/1999/02/22-rdf-syntax-ns#" xmlns:svg="http://www.w3.org/2000/svg" xmlns:sodipodi="http://sodipodi.sourceforge.net/DTD/sodipodi-0.dtd" xmlns:inkscape="http://www.inkscape.org/namespaces/inkscape" inkscape:export-filename="H:\Work\Radix\new_order\dds\sequence.png" inkscape:export-ydpi="45" inkscape:export-xdpi="45"
	 xmlns="http://www.w3.org/2000/svg" xmlns:xlink="http://www.w3.org/1999/xlink" x="0px" y="0px" width="32px" height="32px"
	 viewBox="0 0 32 32" enable-background="new 0 0 32 32" xml:space="preserve">
<sodipodi:namedview  width="48px" height="48px" id="base" pagecolor="#ffffff" bordercolor="#666666" borderopacity="1.0" objecttolerance="10" gridtolerance="10000" showgrid="true" guidetolerance="10" inkscape:zoom="11.107469" inkscape:cx="10.764535" inkscape:cy="20.407839" inkscape:current-layer="layer1" inkscape:pageopacity="0.0" inkscape:pageshadow="2" inkscape:window-width="1280" inkscape:window-height="944" inkscape:window-x="0" inkscape:window-y="44" inkscape:document-units="px">
	
		<inkscape:grid  type="xygrid" color="#0000ff" id="GridFromPre046Settings" spacingy="2px" spacingx="2px" empopacity="0.4" empcolor="#0000ff" empspacing="5" visible="true" enabled="false" opacity="0.2" originx="0px" originy="0px">
		</inkscape:grid>
</sodipodi:namedview>
<g>
	<path d="M13.648,13.5c-0.552,0-1-0.447-1-1V1.041c0-0.552,0.448-1,1-1h11.568c0.553,0,1,0.448,1,1V12.5c0,0.553-0.447,1-1,1H13.648
		z"/>
	
		<linearGradient id="rect3449_2_" gradientUnits="userSpaceOnUse" x1="663.9736" y1="-903.5176" x2="637.5239" y2="-877.4138" gradientTransform="matrix(0.4458 0 0 -0.4476 -270.6508 -391.7863)">
		<stop  offset="0" style="stop-color:#FFF3DF"/>
		<stop  offset="0.5394" style="stop-color:#F9A620"/>
		<stop  offset="1" style="stop-color:#A36628"/>
	</linearGradient>
	<rect id="rect3449_1_" x="13.648" y="1.041" fill="url(#rect3449_2_)" width="11.568" height="11.459"/>
	<g>
		<path d="M17.535,4.687L15.278,4.28c0.253-0.908,0.69-1.581,1.31-2.017c0.619-0.437,1.539-0.655,2.761-0.655
			c1.108,0,1.935,0.131,2.478,0.394c0.543,0.263,0.925,0.596,1.146,1c0.221,0.404,0.332,1.146,0.332,2.226l-0.027,2.902
			c0,0.826,0.04,1.436,0.119,1.827c0.08,0.393,0.229,0.813,0.447,1.261h-2.46c-0.065-0.165-0.145-0.409-0.239-0.734
			c-0.041-0.147-0.07-0.244-0.088-0.292c-0.425,0.413-0.879,0.723-1.363,0.93c-0.483,0.206-1,0.31-1.549,0.31
			c-0.967,0-1.729-0.263-2.287-0.788c-0.558-0.524-0.836-1.188-0.836-1.99c0-0.531,0.127-1.005,0.38-1.421
			c0.254-0.415,0.609-0.734,1.066-0.955c0.458-0.222,1.116-0.415,1.977-0.58c1.162-0.218,1.969-0.422,2.416-0.61V4.837
			c0-0.478-0.117-0.818-0.354-1.021c-0.236-0.204-0.682-0.306-1.336-0.306c-0.443,0-0.788,0.087-1.035,0.261
			C17.889,3.946,17.688,4.25,17.535,4.687z M20.861,6.705c-0.318,0.106-0.822,0.233-1.513,0.381s-1.142,0.292-1.354,0.434
			c-0.324,0.229-0.486,0.521-0.486,0.876c0,0.348,0.13,0.648,0.39,0.902c0.259,0.254,0.59,0.381,0.991,0.381
			c0.448,0,0.876-0.147,1.283-0.442c0.301-0.225,0.498-0.499,0.592-0.823c0.065-0.212,0.098-0.616,0.098-1.212V6.705z"/>
	</g>
</g>
<g>
	<path d="M19.433,25.959c-0.553,0-1-0.447-1-1V13.5c0-0.552,0.447-1,1-1H31c0.553,0,1,0.448,1,1v11.459c0,0.553-0.447,1-1,1H19.433z
		"/>
	
		<linearGradient id="rect4046_2_" gradientUnits="userSpaceOnUse" x1="659.9248" y1="-903.8457" x2="633.475" y2="-877.7419" gradientTransform="matrix(0.4458 0 0 -0.4476 -263.0625 -379.4738)">
		<stop  offset="0" style="stop-color:#FFF3DF"/>
		<stop  offset="0.5394" style="stop-color:#F9A620"/>
		<stop  offset="1" style="stop-color:#A36628"/>
	</linearGradient>
	<rect id="rect4046_1_" x="19.433" y="13.5" fill="url(#rect4046_2_)" width="11.567" height="11.459"/>
</g>
<g enable-background="new    ">
	<path fill="#FFFFFF" d="M5.512,31.906c-0.552,0-1-0.447-1-1v-5.077c0-0.329,0.159-0.621,0.404-0.803
		c-0.137-0.172-0.22-0.39-0.22-0.626v-0.537c0-1.042,0.122-1.883,0.371-2.569c0.248-0.683,0.622-1.314,1.112-1.878
		c0.452-0.52,1.395-1.37,2.881-2.603c0.775-0.631,0.784-0.938,0.784-0.941c0-0.345-0.108-0.447-0.144-0.48
		c-0.107-0.101-0.372-0.161-0.709-0.161c-0.4,0-0.702,0.117-0.951,0.368c-0.154,0.156-0.432,0.588-0.558,1.727
		C7.452,17.592,7.318,17.835,7.108,18c-0.178,0.141-0.396,0.216-0.62,0.216c-0.041,0-0.082-0.003-0.123-0.008l-5.488-0.679
		c-0.537-0.066-0.923-0.547-0.873-1.085c0.21-2.253,1.052-4.104,2.501-5.5c1.465-1.411,3.675-2.125,6.57-2.125
		c2.25,0,4.113,0.491,5.54,1.46c1.999,1.35,3.012,3.189,3.012,5.466c0,0.979-0.271,1.931-0.804,2.831
		c-0.512,0.858-1.479,1.842-2.958,3.005c-1.143,0.904-1.46,1.357-1.543,1.511c-0.168,0.307-0.253,0.747-0.253,1.31
		c0,0.233-0.08,0.449-0.215,0.619c0.25,0.182,0.413,0.477,0.413,0.81v5.077c0,0.553-0.448,1-1,1H5.512z"/>
	<path d="M11.07,24.4H5.696v-0.537c0-0.915,0.104-1.657,0.311-2.228c0.207-0.57,0.516-1.092,0.926-1.563
		c0.41-0.471,1.332-1.301,2.765-2.489c0.764-0.622,1.146-1.192,1.146-1.711s-0.153-0.922-0.46-1.209
		c-0.306-0.288-0.771-0.431-1.393-0.431c-0.669,0-1.223,0.222-1.662,0.665c-0.438,0.443-0.719,1.216-0.841,2.32L1,16.537
		c0.188-2.018,0.922-3.642,2.199-4.873c1.278-1.23,3.236-1.846,5.876-1.846c2.056,0,3.715,0.429,4.979,1.287
		c1.716,1.16,2.574,2.706,2.574,4.639c0,0.801-0.222,1.575-0.665,2.32c-0.443,0.745-1.349,1.654-2.715,2.729
		c-0.953,0.754-1.554,1.36-1.803,1.817C11.195,23.068,11.07,23.665,11.07,24.4z M5.512,25.829h5.756v5.077H5.512V25.829z"/>
</g>
<g>
	<path d="M22.213,23.926v-9.55h1.831v3.44c0.563-0.644,1.232-0.964,2.007-0.964c0.842,0,1.539,0.305,2.091,0.915
		c0.551,0.61,0.827,1.486,0.827,2.628c0,1.182-0.281,2.092-0.844,2.73c-0.563,0.638-1.245,0.957-2.049,0.957
		c-0.396,0-0.785-0.099-1.17-0.297c-0.384-0.197-0.716-0.489-0.993-0.876v1.017H22.213z M24.03,20.316
		c0,0.717,0.113,1.247,0.339,1.59c0.317,0.486,0.738,0.729,1.265,0.729c0.403,0,0.747-0.173,1.031-0.519
		c0.284-0.345,0.427-0.889,0.427-1.631c0-0.791-0.144-1.361-0.429-1.711c-0.287-0.35-0.654-0.523-1.102-0.523
		c-0.439,0-0.804,0.17-1.095,0.512C24.176,19.104,24.03,19.621,24.03,20.316z"/>
</g>
</svg>
