<?xml version="1.0" encoding="utf-8"?>
<!-- Generator: Adobe Illustrator 15.0.0, SVG Export Plug-In . SVG Version: 6.00 Build 0)  -->
<!DOCTYPE svg PUBLIC "-//W3C//DTD SVG 1.1//EN" "http://www.w3.org/Graphics/SVG/1.1/DTD/svg11.dtd">
<svg version="1.1"
	 id="svg5577" xmlns:dc="http://purl.org/dc/elements/1.1/" xmlns:cc="http://web.resource.org/cc/" xmlns:rdf="http://www.w3.org/1999/02/22-rdf-syntax-ns#" xmlns:svg="http://www.w3.org/2000/svg" xmlns:sodipodi="http://sodipodi.sourceforge.net/DTD/sodipodi-0.dtd" xmlns:inkscape="http://www.inkscape.org/namespaces/inkscape" inkscape:output_extension="org.inkscape.output.svg.inkscape" sodipodi:version="0.32" inkscape:version="0.45.1" sodipodi:docname="parameters.svg" sodipodi:docbase="C:\Radix\dev\trunk\org.radixware\kernel\designer\src\common.resources\src\org\radixware\kernel\designer\resources\icons\ads\sql" xmlns:ns="http://creativecommons.org/ns#"
	 xmlns="http://www.w3.org/2000/svg" xmlns:xlink="http://www.w3.org/1999/xlink" x="0px" y="0px" width="32px" height="32px"
	 viewBox="0 0 32 32" enable-background="new 0 0 32 32" xml:space="preserve">
<sodipodi:namedview  id="base" inkscape:cy="19.910217" inkscape:cx="13.031509" inkscape:zoom="9.418333" guidetolerance="10" showgrid="false" gridtolerance="10000" objecttolerance="10" borderopacity="1.0" bordercolor="#666666" pagecolor="#ffffff" inkscape:window-y="44" inkscape:window-x="0" inkscape:window-height="944" inkscape:window-width="1276" inkscape:pageshadow="2" inkscape:pageopacity="0.0" inkscape:current-layer="g6294" inkscape:document-units="px">
	</sodipodi:namedview>
<g>
	<polygon points="28.354,25.71 16,32 16,18.599 28.354,12.313 	"/>
	<polygon fill="#006695" points="16.533,18.924 27.289,13.471 27.289,25.056 16.533,30.568 	"/>
	<polygon points="16,18.599 3.646,12.313 3.646,25.71 16,32 	"/>
	<polygon fill="#0099E0" points="4.714,25.056 4.714,13.471 15.468,18.9 15.468,30.568 	"/>
	<polygon points="28.354,12.313 16,6.393 3.646,12.313 16,18.599 	"/>
	<polygon fill="#2FBEFF" points="5.469,12.634 16,7.579 26.521,12.662 15.997,17.971 	"/>
</g>
<g>
	<path fill="#FFFFFF" d="M16.173,6.393l-5.113,2.45c0.285,0.489,0.616,0.946,1.044,1.333c1.089,0.984,2.562,1.483,4.376,1.483
		c0.931,0,1.759-0.11,2.47-0.329c0.149,0.109,0.324,0.231,0.524,0.368c0.465,0.318,0.952,0.603,1.447,0.845
		c0.142,0.069,0.291,0.102,0.438,0.102c0.369,0,0.723-0.204,0.896-0.556l0.514-1.035c0.182,0.254,0.464,0.431,0.8,0.431h3.228
		L16.173,6.393z"/>
	<path fill="#FFFFFF" d="M8.291,11.143c0.834-0.365,1.497-0.915,1.969-1.637c0.081-0.124,0.146-0.253,0.213-0.382L5.19,11.655
		c0.074,0.001,0.142,0.006,0.217,0.006C6.54,11.661,7.51,11.486,8.291,11.143z"/>
</g>
<g>
	<path d="M0.445,7.074l3.03-0.19c0.066,0.492,0.199,0.867,0.401,1.125c0.328,0.417,0.797,0.626,1.406,0.626
		c0.453,0,0.806-0.107,1.052-0.32s0.369-0.461,0.369-0.741c0-0.267-0.117-0.507-0.353-0.718C6.117,6.645,5.573,6.445,4.72,6.258
		c-1.396-0.314-2.394-0.73-2.988-1.252c-0.601-0.52-0.899-1.184-0.899-1.988c0-0.531,0.152-1.031,0.461-1.502
		c0.308-0.472,0.77-0.842,1.387-1.111C3.295,0.135,4.141,0,5.214,0C6.53,0,7.535,0.245,8.227,0.734
		c0.691,0.49,1.104,1.27,1.234,2.338L6.459,3.248c-0.08-0.464-0.248-0.801-0.504-1.012C5.7,2.025,5.348,1.92,4.896,1.92
		c-0.37,0-0.648,0.078-0.837,0.235C3.872,2.313,3.778,2.503,3.778,2.729c0,0.164,0.078,0.313,0.232,0.442
		c0.15,0.136,0.506,0.263,1.068,0.38c1.393,0.301,2.39,0.604,2.991,0.91C8.673,4.77,9.111,5.148,9.385,5.604
		C9.661,6.059,9.799,6.566,9.799,7.13c0,0.661-0.184,1.271-0.549,1.828s-0.877,0.981-1.533,1.269
		c-0.656,0.289-1.483,0.435-2.482,0.435c-1.752,0-2.967-0.338-3.642-1.015C0.918,8.973,0.535,8.114,0.445,7.074z"/>
	<path d="M20.557,8.979c0.398,0.277,0.658,0.451,0.78,0.521c0.183,0.104,0.429,0.223,0.738,0.357l-0.886,1.787
		c-0.445-0.218-0.887-0.474-1.322-0.771s-0.74-0.521-0.914-0.671c-0.703,0.305-1.584,0.457-2.645,0.457
		c-1.564,0-2.802-0.408-3.706-1.226C11.535,8.471,11,7.113,11,5.365c0-1.697,0.469-3.016,1.402-3.955C13.338,0.47,14.645,0,16.323,0
		c1.711,0,3.032,0.459,3.963,1.378c0.93,0.919,1.396,2.233,1.396,3.944C21.682,6.846,21.307,8.064,20.557,8.979z M18.116,7.348
		c0.254-0.455,0.38-1.135,0.38-2.039c0-1.041-0.193-1.783-0.58-2.229c-0.387-0.446-0.92-0.668-1.601-0.668
		c-0.633,0-1.146,0.227-1.54,0.682c-0.394,0.455-0.591,1.165-0.591,2.131c0,1.125,0.192,1.914,0.577,2.369
		c0.384,0.455,0.911,0.682,1.582,0.682c0.217,0,0.42-0.021,0.611-0.063c-0.268-0.258-0.688-0.502-1.267-0.73l0.499-1.146
		c0.281,0.051,0.502,0.114,0.658,0.189c0.156,0.074,0.463,0.271,0.918,0.59C17.873,7.191,17.99,7.268,18.116,7.348z"/>
	<path d="M23.396,0.176h3.187v7.77h4.972v2.539h-8.156V0.176H23.396z"/>
</g>
<path fill="#FFFFFF" d="M28.354,25.71v-9.687h-5.615c-1.001,0-1.815,0.813-1.815,1.814v11.655L28.354,25.71z"/>
<g id="g32650" transform="matrix(0.7830643,0,0,0.7830643,-16.91422,-7.3319199)">
	<path d="M50.639,50.228c-0.576,0-1.041-0.465-1.041-1.041V32.143c0-0.574,0.465-1.04,1.041-1.04h10.785
		c0.575,0,1.041,0.468,1.041,1.04v17.044c0,0.576-0.466,1.041-1.041,1.041H50.639z"/>
	
		<linearGradient id="rect31978_1_" gradientUnits="userSpaceOnUse" x1="2098.7397" y1="-2751.4617" x2="2090.9963" y2="-2736.7903" gradientTransform="matrix(0.4802 0 0 -0.4802 -946.9592 -1271.4781)">
		<stop  offset="0" style="stop-color:#B1D2DB"/>
		<stop  offset="1" style="stop-color:#0B7C9E"/>
	</linearGradient>
	<rect id="rect31978" x="50.639" y="32.143" fill="url(#rect31978_1_)" width="10.785" height="17.044"/>
	<path id="path31988" fill="none" stroke="#000000" d="M50.347,37.783h11.241"/>
	<path id="path31990" fill="none" stroke="#000000" d="M50.347,43.67h11.538"/>
</g>
</svg>
