<?xml version="1.0" encoding="utf-8"?>
<!-- Generator: Adobe Illustrator 14.0.0, SVG Export Plug-In . SVG Version: 6.00 Build 43363)  -->
<!DOCTYPE svg PUBLIC "-//W3C//DTD SVG 1.1//EN" "http://www.w3.org/Graphics/SVG/1.1/DTD/svg11.dtd">
<svg version="1.1"
	 id="svg5577" sodipodi:docbase="C:\Radix\dev\trunk\org.radixware\kernel\designer\src\common.resources\src\org\radixware\kernel\designer\resources\icons\ads\sql" sodipodi:docname="procedure.svg" inkscape:version="0.45.1" sodipodi:version="0.32" inkscape:output_extension="org.inkscape.output.svg.inkscape" xmlns:ns="http://creativecommons.org/ns#" xmlns:dc="http://purl.org/dc/elements/1.1/" xmlns:cc="http://web.resource.org/cc/" xmlns:rdf="http://www.w3.org/1999/02/22-rdf-syntax-ns#" xmlns:svg="http://www.w3.org/2000/svg" xmlns:sodipodi="http://sodipodi.sourceforge.net/DTD/sodipodi-0.dtd" xmlns:inkscape="http://www.inkscape.org/namespaces/inkscape"
	 xmlns="http://www.w3.org/2000/svg" xmlns:xlink="http://www.w3.org/1999/xlink" x="0px" y="0px" width="32px" height="32px"
	 viewBox="0 0 32 32" enable-background="new 0 0 32 32" xml:space="preserve">
<sodipodi:namedview  id="base" pagecolor="#ffffff" bordercolor="#666666" borderopacity="1.0" objecttolerance="10" gridtolerance="10000" showgrid="false" guidetolerance="10" inkscape:zoom="8" inkscape:cx="23.333801" inkscape:cy="12.481005" inkscape:current-layer="layer1" inkscape:pageopacity="0.0" inkscape:pageshadow="2" inkscape:window-width="1280" inkscape:window-height="944" inkscape:window-x="0" inkscape:window-y="44" inkscape:document-units="px">
	</sodipodi:namedview>
<g>
	<polygon points="29.291,24.341 23.293,27.396 23.293,20.888 29.291,17.835 	"/>
	<polygon fill="#006695" points="23.551,21.046 28.773,18.397 28.773,24.024 23.551,26.698 	"/>
	<polygon points="23.293,20.888 17.293,17.835 17.293,24.341 23.293,27.396 	"/>
	<polygon fill="#0099E0" points="17.811,24.024 17.811,18.397 23.033,21.032 23.033,26.698 	"/>
	<polygon points="29.291,17.835 23.293,14.96 17.293,17.835 23.293,20.888 	"/>
	<polygon fill="#2FBEFF" points="18.176,17.991 23.293,15.535 28.4,18.005 23.289,20.583 	"/>
	<polygon points="14.558,24.341 8.558,27.396 8.558,20.888 14.558,17.835 	"/>
	<polygon fill="#006695" points="8.818,21.046 14.041,18.397 14.041,24.024 8.818,26.698 	"/>
	<polygon points="8.558,20.888 2.558,17.835 2.558,24.341 8.558,27.396 	"/>
	<polygon fill="#0099E0" points="3.077,24.024 3.077,18.397 8.3,21.032 8.3,26.698 	"/>
	<polygon points="14.558,17.835 8.558,14.96 2.558,17.835 8.558,20.888 	"/>
	<polygon fill="#2FBEFF" points="3.444,17.991 8.558,15.535 13.667,18.005 8.556,20.583 	"/>
	<polygon points="21.947,28.817 15.947,31.872 15.947,25.364 21.947,22.312 	"/>
	<polygon fill="#006695" points="16.206,25.522 21.43,22.874 21.43,28.5 16.206,31.176 	"/>
	<polygon points="15.947,25.364 9.947,22.312 9.947,28.817 15.947,31.872 	"/>
	<polygon fill="#0099E0" points="10.466,28.5 10.466,22.874 15.688,25.51 15.688,31.176 	"/>
	<polygon points="21.947,22.312 15.947,19.437 9.947,22.312 15.947,25.364 	"/>
	<polygon fill="#2FBEFF" points="10.832,22.468 15.947,20.012 21.057,22.481 15.945,25.06 	"/>
	<path d="M0.446,7.202l3.03-0.19c0.066,0.492,0.199,0.867,0.402,1.125c0.327,0.417,0.797,0.626,1.405,0.626
		c0.455,0,0.806-0.107,1.052-0.32c0.245-0.213,0.368-0.46,0.368-0.742c0-0.267-0.116-0.506-0.353-0.717
		C6.117,6.773,5.574,6.574,4.72,6.386C3.324,6.072,2.328,5.655,1.733,5.134C1.132,4.613,0.833,3.95,0.833,3.144
		c0-0.53,0.153-1.03,0.461-1.501c0.307-0.471,0.769-0.841,1.385-1.111C3.294,0.263,4.14,0.128,5.214,0.128
		c1.316,0,2.32,0.245,3.012,0.735C8.917,1.353,9.33,2.132,9.46,3.201L6.458,3.377C6.378,2.913,6.21,2.575,5.955,2.364
		C5.7,2.153,5.347,2.047,4.897,2.047c-0.371,0-0.649,0.079-0.837,0.236C3.873,2.44,3.779,2.631,3.779,2.856
		c0,0.164,0.078,0.312,0.232,0.443c0.149,0.136,0.506,0.263,1.067,0.38c1.394,0.3,2.39,0.604,2.992,0.911s1.042,0.687,1.315,1.142
		c0.274,0.455,0.412,0.963,0.412,1.526c0,0.661-0.184,1.271-0.549,1.828c-0.365,0.558-0.877,0.981-1.533,1.269
		c-0.656,0.289-1.483,0.433-2.481,0.433c-1.753,0-2.968-0.337-3.642-1.013C0.917,9.1,0.535,8.242,0.446,7.202z"/>
	<path d="M20.557,9.107c0.396,0.277,0.658,0.45,0.779,0.521c0.184,0.103,0.43,0.223,0.738,0.358l-0.887,1.786
		c-0.445-0.216-0.885-0.472-1.322-0.77c-0.436-0.298-0.738-0.521-0.914-0.671c-0.701,0.305-1.584,0.457-2.643,0.457
		c-1.566,0-2.801-0.408-3.707-1.224c-1.068-0.965-1.604-2.323-1.604-4.071c0-1.697,0.469-3.015,1.403-3.955s2.243-1.41,3.922-1.41
		c1.71,0,3.033,0.459,3.962,1.378c0.932,0.919,1.396,2.234,1.396,3.945C21.682,6.974,21.307,8.193,20.557,9.107z M18.115,7.476
		c0.254-0.455,0.381-1.134,0.381-2.039c0-1.041-0.193-1.784-0.58-2.229s-0.92-0.668-1.6-0.668c-0.633,0-1.146,0.228-1.54,0.682
		c-0.394,0.455-0.591,1.165-0.591,2.13c0,1.125,0.193,1.915,0.578,2.37c0.384,0.455,0.912,0.682,1.582,0.682
		c0.215,0,0.418-0.021,0.61-0.063c-0.266-0.258-0.688-0.502-1.265-0.731l0.5-1.146c0.28,0.051,0.5,0.115,0.658,0.19
		c0.156,0.075,0.463,0.271,0.918,0.59C17.873,7.319,17.99,7.396,18.115,7.476z"/>
	<path d="M23.396,0.304h3.188v7.77h4.971v2.539h-8.158V0.304z"/>
</g>
<g>
	<g>
		<path d="M16.064,23.375c-0.104,0-0.208-0.029-0.299-0.085c-0.171-0.104-0.275-0.289-0.275-0.491v-8.721
			c0-0.216,0.123-0.415,0.315-0.512l8.056-4.086c0.082-0.042,0.173-0.062,0.26-0.062c0.105,0,0.209,0.029,0.3,0.085
			c0.171,0.104,0.275,0.29,0.275,0.489v8.679c0,0.216-0.121,0.412-0.313,0.511l-8.057,4.13
			C16.245,23.354,16.155,23.375,16.064,23.375L16.064,23.375z"/>
		<polygon fill="#F9A71E" points="16.064,14.078 24.121,9.992 24.121,18.671 16.064,22.799 		"/>
		
			<linearGradient id="SVGID_1_" gradientUnits="userSpaceOnUse" x1="14.4053" y1="-105.1978" x2="20.8633" y2="-105.1978" gradientTransform="matrix(1 0 0 -1 2.46 -88.8398)">
			<stop  offset="0" style="stop-color:#FFF3E1"/>
			<stop  offset="0.5394" style="stop-color:#F9A71E"/>
			<stop  offset="1" style="stop-color:#A26829"/>
		</linearGradient>
		<polygon fill="url(#SVGID_1_)" points="16.865,14.538 23.323,11.265 23.323,18.183 16.865,21.451 		"/>
		<path d="M15.268,23.375c-0.09,0-0.181-0.021-0.263-0.063l-8.058-4.13c-0.192-0.099-0.312-0.295-0.312-0.511V9.992
			c0-0.2,0.103-0.385,0.273-0.489C7,9.445,7.104,9.417,7.209,9.417c0.088,0,0.177,0.021,0.259,0.062l8.057,4.068
			c0.193,0.097,0.315,0.295,0.315,0.512v8.739c0,0.202-0.104,0.388-0.275,0.491C15.475,23.346,15.371,23.375,15.268,23.375
			L15.268,23.375z"/>
		<polygon fill="#F9A71E" points="7.209,18.671 7.209,9.992 15.268,14.06 15.268,22.799 		"/>
		
			<linearGradient id="SVGID_2_" gradientUnits="userSpaceOnUse" x1="11.9204" y1="-105.2124" x2="4.7832" y2="-105.2124" gradientTransform="matrix(1 0 0 -1 2.46 -88.8398)">
			<stop  offset="0" style="stop-color:#FFF3E1"/>
			<stop  offset="0.5394" style="stop-color:#F9A71E"/>
			<stop  offset="1" style="stop-color:#A26829"/>
		</linearGradient>
		<polygon fill="url(#SVGID_2_)" points="8.009,18.183 8.009,11.295 14.467,14.569 14.467,21.451 		"/>
		<path d="M15.661,13.938c-0.089,0-0.178-0.021-0.259-0.062L7.515,9.877C7.32,9.777,7.198,9.577,7.2,9.358
			C7.203,9.14,7.329,8.941,7.526,8.847l7.892-3.789c0.078-0.038,0.164-0.057,0.249-0.057s0.171,0.019,0.251,0.057L23.8,8.87
			c0.196,0.096,0.321,0.294,0.323,0.513c0.002,0.217-0.122,0.418-0.316,0.516l-7.887,3.978
			C15.839,13.917,15.749,13.938,15.661,13.938L15.661,13.938z"/>
		<polygon fill="#F9A71E" points="7.774,9.365 15.666,5.576 23.549,9.388 15.661,13.364 		"/>
		
			<linearGradient id="SVGID_3_" gradientUnits="userSpaceOnUse" x1="13.1968" y1="-101.3213" x2="13.1968" y2="-95.3013" gradientTransform="matrix(1 0 0 -1 2.46 -88.8398)">
			<stop  offset="0" style="stop-color:#FFF3E1"/>
			<stop  offset="0.5394" style="stop-color:#F9A71E"/>
			<stop  offset="1" style="stop-color:#A26829"/>
		</linearGradient>
		<polygon fill="url(#SVGID_3_)" points="9.55,9.381 15.666,6.461 21.764,9.377 15.666,12.481 		"/>
	</g>
	<g>
		<polygon points="20.667,20.659 20.093,21.157 20.093,11.634 20.667,11.634 20.667,20.659 		"/>
	</g>
	<g>
		<polygon points="11.238,21.157 10.663,20.817 10.663,11.295 11.238,11.295 11.238,20.32 		"/>
	</g>
	<g>
		<polygon points="15.715,19.016 6.67,14.603 6.921,14.087 15.966,18.5 15.715,19.016 		"/>
	</g>
	<g>
		<polygon points="15.697,18.86 15.445,18.345 24.489,13.931 24.742,14.447 15.697,18.86 		"/>
	</g>
	<g>
		<polygon points="20.461,11.77 11.417,7.356 11.668,6.84 20.714,11.253 20.461,11.77 		"/>
	</g>
	<g>
		<polygon points="10.871,11.882 10.619,11.367 19.664,6.953 19.916,7.469 10.871,11.882 		"/>
	</g>
</g>
</svg>
