<?xml version="1.0" encoding="utf-8"?>
<!-- Generator: Adobe Illustrator 14.0.0, SVG Export Plug-In . SVG Version: 6.00 Build 43363)  -->
<!DOCTYPE svg PUBLIC "-//W3C//DTD SVG 1.1//EN" "http://www.w3.org/Graphics/SVG/1.1/DTD/svg11.dtd">
<svg version="1.1"
	 id="svg2383" sodipodi:docbase="T:\ico" sodipodi:docname="Deprecated.svg" inkscape:version="0.45.1" sodipodi:version="0.32" inkscape:output_extension="org.inkscape.output.svg.inkscape" xmlns:ns="http://creativecommons.org/ns#" xmlns:dc="http://purl.org/dc/elements/1.1/" xmlns:cc="http://web.resource.org/cc/" xmlns:rdf="http://www.w3.org/1999/02/22-rdf-syntax-ns#" xmlns:svg="http://www.w3.org/2000/svg" xmlns:sodipodi="http://sodipodi.sourceforge.net/DTD/sodipodi-0.dtd" xmlns:inkscape="http://www.inkscape.org/namespaces/inkscape"
	 xmlns="http://www.w3.org/2000/svg" xmlns:xlink="http://www.w3.org/1999/xlink" x="0px" y="0px" width="32px" height="32px"
	 viewBox="0 0 32 32" enable-background="new 0 0 32 32" xml:space="preserve">
<defs>
	
	
		<inkscape:perspective  id="perspective2391" sodipodi:type="inkscape:persp3d" inkscape:vp_z="13.692836 : 19.84004 : 1" inkscape:vp_x="6.5191369 : 0.63984223 : 1" inkscape:vp_y="1000 : 0 : 0" inkscape:persp3d-origin="16 : 10.666667 : 1">
		</inkscape:perspective>
</defs>
<sodipodi:namedview  id="base" pagecolor="#ffffff" bordercolor="#666666" borderopacity="1.0" showgrid="true" inkscape:zoom="11.197802" inkscape:cx="-1.4779194" inkscape:cy="16" inkscape:current-layer="layer1" inkscape:pageopacity="0.0" inkscape:pageshadow="2" inkscape:window-width="1264" inkscape:window-height="944" inkscape:window-x="0" inkscape:window-y="44" inkscape:document-units="px" inkscape:grid-bbox="true">
	</sodipodi:namedview>
<g>
	<path d="M22.001,0C27.523,0,32,4.477,32,9.999C32,15.523,27.526,20,22.001,20C16.474,20,12,15.523,12,9.999
		C12,4.477,16.474,0,22.001,0z"/>
	
		<radialGradient id="SVGID_1_" cx="303.9805" cy="533.3496" r="11.9314" gradientTransform="matrix(1 0 0 1 -279.2598 -525.8594)" gradientUnits="userSpaceOnUse">
		<stop  offset="0" style="stop-color:#FFFFFF"/>
		<stop  offset="0.1879" style="stop-color:#B1D2DB"/>
		<stop  offset="0.7758" style="stop-color:#1F5D70"/>
		<stop  offset="1" style="stop-color:#0B7C9E"/>
	</radialGradient>
	<path fill="url(#SVGID_1_)" d="M22.001,18.751c-4.827,0-8.752-3.927-8.752-8.752c0-4.823,3.925-8.749,8.752-8.749
		c4.824,0,8.75,3.926,8.75,8.749C30.751,14.824,26.825,18.751,22.001,18.751L22.001,18.751z"/>
</g>
<g>
	<path d="M17.334,6.691c4.418,0,7.999,3.581,7.999,7.999c0,4.42-3.579,8-7.999,8c-4.422,0-8.001-3.58-8.001-8
		C9.333,10.272,12.912,6.691,17.334,6.691z"/>
	
		<radialGradient id="SVGID_2_" cx="298.7686" cy="538.543" r="9.5455" gradientTransform="matrix(1 0 0 1 -279.2598 -525.8594)" gradientUnits="userSpaceOnUse">
		<stop  offset="0" style="stop-color:#FFFFFF"/>
		<stop  offset="0.1879" style="stop-color:#B1D2DB"/>
		<stop  offset="0.7758" style="stop-color:#1F5D70"/>
		<stop  offset="1" style="stop-color:#0B7C9E"/>
	</radialGradient>
	<path fill="url(#SVGID_2_)" d="M17.334,21.692c-3.862,0-7.002-3.143-7.002-7.002c0-3.858,3.14-6.999,7.002-6.999
		c3.859,0,7,3.141,7,6.999C24.334,18.55,21.193,21.692,17.334,21.692L17.334,21.692z"/>
</g>
<g>
	<path d="M13.25,11.751c3.866,0,6.999,3.134,6.999,6.999c0,3.867-3.131,7.001-6.999,7.001c-3.87,0-7.001-3.134-7.001-7.001
		C6.249,14.885,9.38,11.751,13.25,11.751z"/>
	
		<radialGradient id="SVGID_3_" cx="294.4121" cy="542.8535" r="8.352" gradientTransform="matrix(1 0 0 1 -279.2598 -525.8594)" gradientUnits="userSpaceOnUse">
		<stop  offset="0" style="stop-color:#FFFFFF"/>
		<stop  offset="0.1879" style="stop-color:#B1D2DB"/>
		<stop  offset="0.7758" style="stop-color:#1F5D70"/>
		<stop  offset="1" style="stop-color:#0B7C9E"/>
	</radialGradient>
	<path fill="url(#SVGID_3_)" d="M13.25,24.877c-3.379,0-6.126-2.749-6.126-6.127c0-3.376,2.748-6.124,6.126-6.124
		c3.377,0,6.125,2.748,6.125,6.124C19.375,22.128,16.627,24.877,13.25,24.877L13.25,24.877z"/>
</g>
<g>
	<path d="M9.334,16.834c3.313,0,5.999,2.686,5.999,5.999c0,3.315-2.685,6.001-5.999,6.001c-3.316,0-6.001-2.686-6.001-6.001
		C3.333,19.52,6.018,16.834,9.334,16.834z"/>
	
		<radialGradient id="SVGID_4_" cx="290.2256" cy="547.1875" r="7.1592" gradientTransform="matrix(1 0 0 1 -279.2598 -525.8594)" gradientUnits="userSpaceOnUse">
		<stop  offset="0" style="stop-color:#FFFFFF"/>
		<stop  offset="0.1879" style="stop-color:#B1D2DB"/>
		<stop  offset="0.7758" style="stop-color:#1F5D70"/>
		<stop  offset="1" style="stop-color:#0B7C9E"/>
	</radialGradient>
	<path fill="url(#SVGID_4_)" d="M9.334,28.085c-2.896,0-5.251-2.356-5.251-5.252c0-2.894,2.355-5.249,5.251-5.249
		c2.895,0,5.25,2.355,5.25,5.249C14.584,25.729,12.229,28.085,9.334,28.085L9.334,28.085z"/>
</g>
<g>
	<path d="M5,22c2.762,0,5,2.238,5,5s-2.236,5-5,5s-5-2.238-5-5S2.236,22,5,22z"/>
	
		<radialGradient id="SVGID_5_" cx="285.6191" cy="551.6045" r="5.9649" gradientTransform="matrix(1 0 0 1 -279.2598 -525.8594)" gradientUnits="userSpaceOnUse">
		<stop  offset="0" style="stop-color:#FFFFFF"/>
		<stop  offset="0.1879" style="stop-color:#B1D2DB"/>
		<stop  offset="0.7758" style="stop-color:#1F5D70"/>
		<stop  offset="1" style="stop-color:#0B7C9E"/>
	</radialGradient>
	<path fill="url(#SVGID_5_)" d="M5,31.375c-2.413,0-4.375-1.963-4.375-4.375S2.587,22.625,5,22.625c2.412,0,4.375,1.963,4.375,4.375
		S7.412,31.375,5,31.375L5,31.375z"/>
</g>
</svg>
