<?xml version="1.0" encoding="utf-8"?>
<!-- Generator: Adobe Illustrator 14.0.0, SVG Export Plug-In . SVG Version: 6.00 Build 43363)  -->
<!DOCTYPE svg PUBLIC "-//W3C//DTD SVG 1.1//EN" "http://www.w3.org/Graphics/SVG/1.1/DTD/svg11.dtd">
<svg version="1.1"
	 id="svg2383" sodipodi:docname="Undeprecate.svg" inkscape:version="0.46" sodipodi:version="0.32" inkscape:output_extension="org.inkscape.output.svg.inkscape" xmlns:dc="http://purl.org/dc/elements/1.1/" xmlns:cc="http://creativecommons.org/ns#" xmlns:rdf="http://www.w3.org/1999/02/22-rdf-syntax-ns#" xmlns:svg="http://www.w3.org/2000/svg" xmlns:sodipodi="http://sodipodi.sourceforge.net/DTD/sodipodi-0.dtd" xmlns:inkscape="http://www.inkscape.org/namespaces/inkscape"
	 xmlns="http://www.w3.org/2000/svg" xmlns:xlink="http://www.w3.org/1999/xlink" x="0px" y="0px" width="32px" height="32px"
	 viewBox="0 0 32 32" enable-background="new 0 0 32 32" xml:space="preserve">
<defs>
	
	
		<inkscape:perspective  id="perspective2391" sodipodi:type="inkscape:persp3d" inkscape:vp_z="13.692836 : 19.84004 : 1" inkscape:vp_x="6.5191369 : 0.63984223 : 1" inkscape:vp_y="1000 : 0 : 0" inkscape:persp3d-origin="16 : 10.666667 : 1">
		</inkscape:perspective>
</defs>
<sodipodi:namedview  id="base" pagecolor="#ffffff" bordercolor="#666666" borderopacity="1.0" showgrid="true" inkscape:zoom="11.197802" inkscape:cx="-1.4779194" inkscape:cy="16" inkscape:current-layer="layer1" inkscape:pageopacity="0.0" inkscape:pageshadow="2" inkscape:window-width="1280" inkscape:window-height="944" inkscape:window-x="-8" inkscape:window-y="-8" inkscape:document-units="px" inkscape:grid-bbox="true">
	</sodipodi:namedview>
<g>
	<path d="M27,0c2.762,0,5,2.238,5,5s-2.236,5-5,5s-5-2.238-5-5S24.236,0,27,0z"/>
	
		<radialGradient id="SVGID_1_" cx="285.6191" cy="549.6045" r="5.9649" gradientTransform="matrix(1 0 0 1 -257.2598 -545.8594)" gradientUnits="userSpaceOnUse">
		<stop  offset="0" style="stop-color:#FFFFFF"/>
		<stop  offset="0.1879" style="stop-color:#B1D2DB"/>
		<stop  offset="0.7758" style="stop-color:#1F5D70"/>
		<stop  offset="1" style="stop-color:#0B7C9E"/>
	</radialGradient>
	<path fill="url(#SVGID_1_)" d="M27,9.375c-2.413,0-4.375-1.963-4.375-4.375S24.587,0.625,27,0.625c2.412,0,4.375,1.963,4.375,4.375
		S29.412,9.375,27,9.375L27,9.375z"/>
</g>
<g>
	<path d="M23.417,2.75c3.313,0,5.999,2.686,5.999,5.999c0,3.315-2.685,6.001-5.999,6.001c-3.316,0-6.001-2.686-6.001-6.001
		C17.416,5.436,20.101,2.75,23.417,2.75z"/>
	
		<radialGradient id="SVGID_2_" cx="289.4756" cy="545.6025" r="7.1596" gradientTransform="matrix(1 0 0 1 -264.4277 -538.3594)" gradientUnits="userSpaceOnUse">
		<stop  offset="0" style="stop-color:#FFFFFF"/>
		<stop  offset="0.1879" style="stop-color:#B1D2DB"/>
		<stop  offset="0.7758" style="stop-color:#1F5D70"/>
		<stop  offset="1" style="stop-color:#0B7C9E"/>
	</radialGradient>
	<path fill="url(#SVGID_2_)" d="M23.417,14.001c-2.896,0-5.251-2.356-5.251-5.252c0-2.894,2.354-5.249,5.251-5.249
		c2.895,0,5.25,2.355,5.25,5.249C28.667,11.645,26.312,14.001,23.417,14.001L23.417,14.001z"/>
</g>
<g>
	<path d="M20.002,5C23.867,5,27,8.134,27,11.999C27,15.866,23.869,19,20.002,19c-3.87,0-7.001-3.134-7.001-7.001
		C13.001,8.134,16.132,5,20.002,5z"/>
	
		<radialGradient id="SVGID_3_" cx="293.1641" cy="542.1016" r="8.3528" gradientTransform="matrix(1 0 0 1 -271.2598 -531.8594)" gradientUnits="userSpaceOnUse">
		<stop  offset="0" style="stop-color:#FFFFFF"/>
		<stop  offset="0.1879" style="stop-color:#B1D2DB"/>
		<stop  offset="0.7758" style="stop-color:#1F5D70"/>
		<stop  offset="1" style="stop-color:#0B7C9E"/>
	</radialGradient>
	<path fill="url(#SVGID_3_)" d="M20.002,18.126c-3.379,0-6.127-2.749-6.127-6.127c0-3.376,2.748-6.124,6.127-6.124
		c3.377,0,6.125,2.748,6.125,6.124C26.127,15.377,23.379,18.126,20.002,18.126L20.002,18.126z"/>
</g>
<g>
	<path d="M15.002,8.751c4.418,0,7.999,3.58,7.999,7.998c0,4.421-3.579,8.001-7.999,8.001c-4.422,0-8.001-3.58-8.001-8.001
		C7.001,12.331,10.58,8.751,15.002,8.751z"/>
	
		<radialGradient id="SVGID_4_" cx="298.4346" cy="537.1025" r="9.5447" gradientTransform="matrix(1 0 0 1 -281.2578 -522.3594)" gradientUnits="userSpaceOnUse">
		<stop  offset="0" style="stop-color:#FFFFFF"/>
		<stop  offset="0.1879" style="stop-color:#B1D2DB"/>
		<stop  offset="0.7758" style="stop-color:#1F5D70"/>
		<stop  offset="1" style="stop-color:#0B7C9E"/>
	</radialGradient>
	<path fill="url(#SVGID_4_)" d="M15.002,23.752C11.141,23.752,8,20.609,8,16.749c0-3.857,3.141-6.998,7.002-6.998
		c3.859,0,7,3.141,7,6.998C22.002,20.609,18.861,23.752,15.002,23.752L15.002,23.752z"/>
</g>
<g>
	<path d="M10.001,12C15.523,12,20,16.477,20,21.999C20,27.523,15.526,32,10.001,32C4.474,32,0,27.523,0,21.999
		C0,16.477,4.474,12,10.001,12z"/>
	
		<radialGradient id="SVGID_5_" cx="303.9795" cy="531.3486" r="11.9314" gradientTransform="matrix(1 0 0 1 -291.2598 -511.8594)" gradientUnits="userSpaceOnUse">
		<stop  offset="0" style="stop-color:#FFFFFF"/>
		<stop  offset="0.1879" style="stop-color:#B1D2DB"/>
		<stop  offset="0.7758" style="stop-color:#1F5D70"/>
		<stop  offset="1" style="stop-color:#0B7C9E"/>
	</radialGradient>
	<path fill="url(#SVGID_5_)" d="M10.001,30.751c-4.827,0-8.752-3.927-8.752-8.752c0-4.823,3.925-8.749,8.752-8.749
		c4.824,0,8.75,3.926,8.75,8.749C18.751,26.824,14.825,30.751,10.001,30.751L10.001,30.751z"/>
</g>
</svg>
