<?xml version="1.0" encoding="utf-8"?>
<!-- Generator: Adobe Illustrator 15.0.0, SVG Export Plug-In . SVG Version: 6.00 Build 0)  -->
<!DOCTYPE svg PUBLIC "-//W3C//DTD SVG 1.1//EN" "http://www.w3.org/Graphics/SVG/1.1/DTD/svg11.dtd">
<svg version="1.1" id="Layer_1" xmlns="http://www.w3.org/2000/svg" xmlns:xlink="http://www.w3.org/1999/xlink" x="0px" y="0px"
	 width="32px" height="32px" viewBox="0 0 32 32" enable-background="new 0 0 32 32" xml:space="preserve">
<path d="M8.5,29.99c-0.172,0-0.345-0.044-0.5-0.134c-0.343-0.198-0.537-0.58-0.494-0.975l0.926-8.512l-7.834-3.455
	C0.234,16.755,0,16.396,0,16s0.234-0.755,0.597-0.915l7.834-3.455L7.505,3.118C7.462,2.724,7.656,2.342,8,2.144
	C8.155,2.054,8.327,2.01,8.5,2.01c0.208,0,0.416,0.065,0.591,0.193L16,7.261l6.91-5.058C23.084,2.075,23.292,2.01,23.5,2.01
	c0.172,0,0.345,0.044,0.5,0.134c0.343,0.198,0.537,0.581,0.494,0.974l-0.926,8.513l7.835,3.455C31.766,15.245,32,15.604,32,16
	s-0.234,0.755-0.597,0.915l-7.835,3.455l0.926,8.512c0.043,0.395-0.151,0.776-0.494,0.975c-0.155,0.09-0.328,0.134-0.5,0.134
	c-0.208,0-0.416-0.064-0.591-0.193L16,24.739L9.09,29.797C8.915,29.925,8.708,29.99,8.5,29.99z"/>
<polygon fill="#F8A900" points="16,8.5 23.5,3.01 22.495,12.25 31,16 22.495,19.75 23.5,28.99 16,23.5 8.5,28.99 9.504,19.75 1,16 
	9.504,12.25 8.5,3.01 "/>
<linearGradient id="SVGID_1_" gradientUnits="userSpaceOnUse" x1="3.4785" y1="16" x2="28.5215" y2="16">
	<stop  offset="0" style="stop-color:#FFF7E8"/>
	<stop  offset="0.5394" style="stop-color:#F8A900"/>
	<stop  offset="1" style="stop-color:#AB651C"/>
</linearGradient>
<path fill="url(#SVGID_1_)" d="M16.59,22.693C16.415,22.564,16.207,22.5,16,22.5s-0.415,0.064-0.591,0.193l-5.67,4.15l0.76-6.985
	c0.047-0.434-0.192-0.848-0.591-1.023L3.479,16l6.429-2.835c0.399-0.176,0.638-0.59,0.591-1.023l-0.76-6.986l5.67,4.151
	C15.584,9.436,15.792,9.5,16,9.5s0.415-0.064,0.591-0.193l5.67-4.151l-0.76,6.986c-0.047,0.433,0.191,0.847,0.591,1.023L28.521,16
	l-6.43,2.835c-0.399,0.176-0.638,0.59-0.591,1.023l0.76,6.985L16.59,22.693z"/>
</svg>
