<?xml version="1.0" encoding="utf-8"?>
<!-- Generator: Adobe Illustrator 14.0.0, SVG Export Plug-In . SVG Version: 6.00 Build 43363)  -->
<!DOCTYPE svg PUBLIC "-//W3C//DTD SVG 1.1//EN" "http://www.w3.org/Graphics/SVG/1.1/DTD/svg11.dtd">
<svg version="1.1"
	 id="svg2" xmlns:ns="http://creativecommons.org/ns#" xmlns:svg="http://www.w3.org/2000/svg" xmlns:cc="http://web.resource.org/cc/" xmlns:dc="http://purl.org/dc/elements/1.1/" xmlns:rdf="http://www.w3.org/1999/02/22-rdf-syntax-ns#" xmlns:inkscape="http://www.inkscape.org/namespaces/inkscape" xmlns:sodipodi="http://sodipodi.sourceforge.net/DTD/sodipodi-0.dtd" sodipodi:version="0.32" inkscape:version="0.45.1" sodipodi:docname="arr_blob.svg" sodipodi:docbase="C:\Radix\dev\trunk\org.radixware\kernel\designer\src\common.resources\src\org\radixware\kernel\designer\resources\icons\valtype" inkscape:output_extension="org.inkscape.output.svg.inkscape"
	 xmlns="http://www.w3.org/2000/svg" xmlns:xlink="http://www.w3.org/1999/xlink" x="0px" y="0px" width="32px" height="32px"
	 viewBox="0 0 32 32" enable-background="new 0 0 32 32" xml:space="preserve">
<sodipodi:namedview  id="base" showguides="true" inkscape:cy="0.96345695" inkscape:cx="2.6650166" inkscape:zoom="4.3904066" showgrid="false" borderopacity="1.0" bordercolor="#000000" pagecolor="#ffffff" inkscape:window-height="944" inkscape:window-width="1280" inkscape:pageshadow="2" inkscape:pageopacity="0.0" inkscape:current-layer="g3616" inkscape:window-y="23" inkscape:window-x="0" inkscape:guide-bbox="true" inkscape:document-units="px">
	<inkscape:grid  type="xygrid" id="grid4392"></inkscape:grid>
</sodipodi:namedview>
<polygon points="6,30.496 1.5,30.496 1.5,1.496 6,1.496 6,-0.004 0,-0.004 0,-0.004 0,1.496 0,30.496 0,31.996 1.5,31.996 6,31.996 
	"/>
<polygon points="26,-0.004 26,1.496 30.5,1.496 30.5,30.496 26,30.496 26,31.996 30.5,31.996 30.5,32.004 32,32.004 32,31.996 
	32,30.496 32,1.496 32,0.004 32,-0.004 "/>
<path fill="#447136" d="M12.699,21.762c-0.345,0-0.622-0.292-0.622-0.647V10.824c0-0.357,0.277-0.646,0.622-0.646h6.783
	c0.343,0,0.621,0.289,0.621,0.646v1.74c0,0.358-0.278,0.647-0.621,0.647h-4.167v1.144h3.51c0.344,0,0.621,0.289,0.621,0.648v1.74
	c0,0.356-0.277,0.648-0.621,0.648h-3.51v3.727c0,0.355-0.277,0.647-0.621,0.647h-1.996V21.762z"/>
<path fill="#447136" d="M21.141,21.762c-0.342,0-0.621-0.292-0.621-0.647V10.824c0-0.357,0.279-0.646,0.621-0.646h6.785
	c0.342,0,0.621,0.289,0.621,0.646v1.74c0,0.358-0.279,0.647-0.621,0.647H23.76v1.144h3.512c0.342,0,0.621,0.289,0.621,0.648v1.74
	c0,0.356-0.279,0.648-0.621,0.648H23.76v3.727c0,0.355-0.279,0.647-0.621,0.647h-1.998V21.762z"/>
<path fill="#447136" d="M4.075,21.819c-0.345,0-0.622-0.292-0.622-0.647v-10.29c0-0.357,0.277-0.646,0.622-0.646h6.783
	c0.342,0,0.62,0.289,0.62,0.646v1.74c0,0.357-0.278,0.646-0.62,0.646H6.693v1.145h3.51c0.344,0,0.622,0.289,0.622,0.648v1.74
	c0,0.356-0.278,0.647-0.622,0.647h-3.51v3.725c0,0.356-0.277,0.648-0.62,0.648H4.075V21.819z"/>
</svg>
