<?xml version="1.0" encoding="utf-8"?>
<!-- Generator: Adobe Illustrator 14.0.0, SVG Export Plug-In . SVG Version: 6.00 Build 43363)  -->
<!DOCTYPE svg PUBLIC "-//W3C//DTD SVG 1.1//EN" "http://www.w3.org/Graphics/SVG/1.1/DTD/svg11.dtd">
<svg version="1.1"
	 id="svg2" inkscape:output_extension="org.inkscape.output.svg.inkscape" sodipodi:docname="arr_char.svg" inkscape:version="0.45.1" sodipodi:version="0.32" sodipodi:docbase="C:\Radix\dev\trunk\org.radixware\kernel\designer\src\common.resources\src\org\radixware\kernel\designer\resources\icons\valtype" xmlns:dc="http://purl.org/dc/elements/1.1/" xmlns:ns="http://creativecommons.org/ns#" xmlns:sodipodi="http://sodipodi.sourceforge.net/DTD/sodipodi-0.dtd" xmlns:cc="http://web.resource.org/cc/" xmlns:inkscape="http://www.inkscape.org/namespaces/inkscape" xmlns:rdf="http://www.w3.org/1999/02/22-rdf-syntax-ns#" xmlns:svg="http://www.w3.org/2000/svg"
	 xmlns="http://www.w3.org/2000/svg" xmlns:xlink="http://www.w3.org/1999/xlink" x="0px" y="0px" width="32px" height="32px"
	 viewBox="-6 -6 32 32" enable-background="new -6 -6 32 32" xml:space="preserve">
<sodipodi:namedview  id="base" pagecolor="#ffffff" bordercolor="#000000" borderopacity="1.0" showgrid="false" inkscape:zoom="4.3904066" inkscape:cx="2.6650166" inkscape:cy="-35.479637" inkscape:window-x="-8" inkscape:window-y="-8" inkscape:current-layer="g5343" inkscape:pageopacity="0.0" inkscape:pageshadow="2" inkscape:window-width="1280" inkscape:window-height="944" inkscape:guide-bbox="true" inkscape:document-units="px" showguides="true">
	<inkscape:grid  type="xygrid" id="grid4392"></inkscape:grid>
</sodipodi:namedview>
<g>
	<polygon points="0,24.496 -4.5,24.496 -4.5,-4.504 0,-4.504 0,-6.004 -6,-6.004 -6,-6.004 -6,-4.504 -6,24.496 -6,25.996 
		-4.5,25.996 0,25.996 	"/>
	<polygon points="20,-6.004 20,-4.504 24.5,-4.504 24.5,24.496 20,24.496 20,25.996 24.5,25.996 24.5,26.004 26,26.004 26,25.996 
		26,24.496 26,-4.504 26,-5.996 26,-6.004 	"/>
	<g>
		<path fill="#0480A2" d="M15.439,19.963c-0.133,0-0.252-0.082-0.301-0.207l-1.604-4.174H6.271l-1.517,4.17
			c-0.046,0.127-0.167,0.211-0.303,0.211h-4.13c-0.106,0-0.207-0.053-0.267-0.139c-0.061-0.09-0.072-0.201-0.033-0.301L7.536,0.232
			c0.048-0.124,0.167-0.205,0.3-0.205h4.118c0.133,0,0.252,0.08,0.301,0.202l7.724,19.29c0.041,0.1,0.027,0.213-0.033,0.301
			c-0.059,0.09-0.158,0.143-0.268,0.143H15.439L15.439,19.963z M12.043,11.688l-2.19-5.903l-2.146,5.903H12.043z"/>
	</g>
</g>
</svg>
