<?xml version="1.0" encoding="utf-8"?>
<!-- Generator: Adobe Illustrator 14.0.0, SVG Export Plug-In . SVG Version: 6.00 Build 43363)  -->
<!DOCTYPE svg PUBLIC "-//W3C//DTD SVG 1.1//EN" "http://www.w3.org/Graphics/SVG/1.1/DTD/svg11.dtd">
<svg version="1.1"
	 id="svg2" xmlns:ns="http://creativecommons.org/ns#" xmlns:svg="http://www.w3.org/2000/svg" xmlns:cc="http://web.resource.org/cc/" xmlns:dc="http://purl.org/dc/elements/1.1/" xmlns:rdf="http://www.w3.org/1999/02/22-rdf-syntax-ns#" xmlns:inkscape="http://www.inkscape.org/namespaces/inkscape" xmlns:sodipodi="http://sodipodi.sourceforge.net/DTD/sodipodi-0.dtd" sodipodi:version="0.32" inkscape:version="0.45.1" sodipodi:docname="arr_ref.svg" sodipodi:docbase="C:\Radix\dev\trunk\org.radixware\kernel\designer\src\common.resources\src\org\radixware\kernel\designer\resources\icons\valtype" inkscape:output_extension="org.inkscape.output.svg.inkscape"
	 xmlns="http://www.w3.org/2000/svg" xmlns:xlink="http://www.w3.org/1999/xlink" x="0px" y="0px" width="32px" height="32px"
	 viewBox="-6 -6 32 32" enable-background="new -6 -6 32 32" xml:space="preserve">
<sodipodi:namedview  id="base" showguides="true" inkscape:cy="-41.840088" inkscape:cx="-44.746518" inkscape:zoom="4.3904066" showgrid="false" borderopacity="1.0" bordercolor="#000000" pagecolor="#ffffff" inkscape:window-height="944" inkscape:window-width="1280" inkscape:pageshadow="2" inkscape:pageopacity="0.0" inkscape:current-layer="g8101" inkscape:window-y="-8" inkscape:window-x="-8" inkscape:guide-bbox="true" inkscape:document-units="px">
	<inkscape:grid  type="xygrid" id="grid4392"></inkscape:grid>
</sodipodi:namedview>
<g>
	<polygon points="0,24.496 -4.5,24.496 -4.5,-4.504 0,-4.504 0,-6.004 -6,-6.004 -6,-6.004 -6,-4.504 -6,24.496 -6,25.996 
		-4.5,25.996 0,25.996 	"/>
	<polygon points="20,-6.004 20,-4.504 24.5,-4.504 24.5,24.496 20,24.496 20,25.996 24.5,25.996 24.5,26.004 26,26.004 26,25.996 
		26,24.496 26,-4.504 26,-5.996 26,-6.004 	"/>
	<g>
		<path d="M1.926,24c-1.584,0-3.072-0.615-4.192-1.73c-2.313-2.313-2.313-6.07-0.002-8.381l3.881-3.929
			C2.706,8.87,4.155,8.272,5.7,8.272c0.623,0,1.238,0.096,1.834,0.285l1.064-1.039c-0.676-2.11-0.152-4.392,1.406-5.949l3.884-3.883
			c1.09-1.092,2.586-1.693,4.213-1.693c1.594,0,3.072,0.602,4.164,1.695C23.383-1.194,24,0.294,24,1.877s-0.617,3.07-1.734,4.188
			l-3.883,3.883c-1.092,1.093-2.549,1.693-4.1,1.693l0,0c-0.699,0-1.404-0.125-2.066-0.365l-0.893,0.891
			c0.791,2.166,0.291,4.598-1.328,6.219l-3.883,3.883C4.995,23.385,3.506,24,1.926,24L1.926,24z M1.512,16.514
			c-0.676,0.676-0.779,1.627-0.24,2.168C1.491,18.9,1.807,19.02,2.165,19.02c0.475,0,0.955-0.211,1.322-0.578l1.576-1.574
			c-0.541-0.09-1.037-0.342-1.432-0.734c-0.313-0.314-0.529-0.689-0.648-1.088L1.512,16.514z M14.809,3.217
			c0.406,0.123,0.777,0.344,1.084,0.651c0.393,0.392,0.646,0.89,0.734,1.43l1.861-1.862c0.348-0.347,0.553-0.773,0.578-1.203
			c0.021-0.378-0.098-0.72-0.338-0.961c-0.24-0.238-0.557-0.371-0.889-0.371c-0.496,0.027-0.977,0.26-1.324,0.61L14.809,3.217z"/>
		<path id="path11610_6_" fill="#6FBD46" d="M18.102-3.133c-1.285,0-2.604,0.442-3.596,1.438l-3.883,3.883
			c-1.507,1.508-1.804,3.711-1.007,5.56L7.749,9.57c-1.836-0.783-4.012-0.493-5.514,1.004l-3.883,3.932
			c-1.97,1.971-1.97,5.172,0,7.143c1.977,1.969,5.172,1.969,7.143,0l3.883-3.883c1.568-1.568,1.837-3.902,0.912-5.801l1.724-1.725
			c1.885,0.915,4.189,0.649,5.752-0.91l3.881-3.883c1.973-1.972,1.973-5.169,0-7.142C20.662-2.681,19.387-3.133,18.102-3.133z
			 M17.717,0.03c0.609-0.035,1.197,0.192,1.631,0.622c0.861,0.863,0.803,2.361-0.24,3.403l-2.73,2.732
			c-0.473,0.471-1.057,0.652-1.631,0.718l0.527-0.526c0.686-0.687,0.686-1.809,0-2.491c-0.672-0.675-1.771-0.675-2.445,0
			l-0.334,0.288c0.125-0.43,0.365-0.848,0.717-1.198l2.688-2.686C16.418,0.372,17.104,0.065,17.717,0.03z M4.872,12.445
			l-0.623,0.621c-0.674,0.672-0.672,1.77,0,2.445c0.688,0.686,1.809,0.686,2.492,0l0.816-0.766c-0.078,0.57-0.291,1.152-0.77,1.629
			l-2.684,2.684c-1.039,1.039-2.598,1.096-3.453,0.24c-0.859-0.859-0.803-2.359,0.24-3.404l2.732-2.732
			C3.993,12.797,4.432,12.574,4.872,12.445z"/>
		
			<linearGradient id="SVGID_1_" gradientUnits="userSpaceOnUse" x1="-4.71" y1="-110.8359" x2="19.79" y2="-110.8359" gradientTransform="matrix(1 0 0 -1 2.46 -100.8398)">
			<stop  offset="0" style="stop-color:#AED58A"/>
			<stop  offset="1" style="stop-color:#1E9046"/>
		</linearGradient>
		<path fill="url(#SVGID_1_)" d="M1.926,22.25c-1.117,0-2.166-0.434-2.955-1.223c-1.628-1.627-1.628-4.275,0-5.902l3.889-3.936
			c0.752-0.751,1.762-1.169,2.84-1.169c0.584,0,1.158,0.121,1.705,0.354l0.537,0.229l2.718-2.651l-0.24-0.554
			c-0.689-1.6-0.369-3.401,0.822-4.592l3.883-3.883c0.762-0.763,1.818-1.182,2.977-1.182c1.127,0,2.166,0.419,2.926,1.182
			c0.789,0.79,1.223,1.838,1.223,2.954c0,1.114-0.434,2.162-1.221,2.95l-3.883,3.884c-0.762,0.76-1.777,1.18-2.861,1.18l0,0
			c-0.646,0-1.299-0.15-1.889-0.438l-0.563-0.271l-2.605,2.607l0.273,0.561c0.795,1.629,0.496,3.557-0.744,4.797l-3.881,3.883
			C4.088,21.816,3.04,22.25,1.926,22.25L1.926,22.25z M4.627,11.605c-0.637,0.184-1.182,0.5-1.619,0.936l-2.734,2.736
			c-1.369,1.369-1.473,3.408-0.238,4.641c0.547,0.549,1.303,0.852,2.129,0.852c0.934,0,1.865-0.396,2.561-1.09l2.684-2.686
			c0.557-0.553,0.898-1.27,1.016-2.129l-0.545-1.621l-1.734,1.631c-0.188,0.184-0.408,0.275-0.648,0.275
			c-0.238,0-0.461-0.092-0.627-0.258c-0.332-0.332-0.332-0.875,0-1.209l1.668-1.719L4.627,11.605z M14.051,4.858
			c0.23,0,0.443,0.088,0.604,0.246c0.166,0.168,0.258,0.391,0.258,0.627c0.002,0.238-0.092,0.463-0.258,0.631l-1.484,1.48
			l1.676,0.533c0.896-0.102,1.6-0.419,2.148-0.969l2.732-2.733c0.648-0.649,1.037-1.479,1.09-2.334
			c0.053-0.887-0.248-1.706-0.852-2.307c-0.572-0.57-1.324-0.883-2.123-0.883c-0.059,0-0.117,0.002-0.178,0.006
			c-0.855,0.051-1.727,0.457-2.387,1.116L12.59,2.958c-0.439,0.44-0.766,0.983-0.938,1.569l0.389,1.79l1.357-1.169
			C13.607,4.946,13.822,4.858,14.051,4.858L14.051,4.858z"/>
	</g>
</g>
</svg>
