<?xml version="1.0" encoding="utf-8"?>
<!-- Generator: Adobe Illustrator 14.0.0, SVG Export Plug-In . SVG Version: 6.00 Build 43363)  -->
<!DOCTYPE svg PUBLIC "-//W3C//DTD SVG 1.1//EN" "http://www.w3.org/Graphics/SVG/1.1/DTD/svg11.dtd">
<svg version="1.1"
	 id="svg2" inkscape:output_extension="org.inkscape.output.svg.inkscape" sodipodi:docname="arr_bool.svg" inkscape:version="0.45.1" sodipodi:version="0.32" sodipodi:docbase="C:\Radix\dev\trunk\org.radixware\kernel\designer\src\common.resources\src\org\radixware\kernel\designer\resources\icons\valtype" xmlns:dc="http://purl.org/dc/elements/1.1/" xmlns:ns="http://creativecommons.org/ns#" xmlns:sodipodi="http://sodipodi.sourceforge.net/DTD/sodipodi-0.dtd" xmlns:cc="http://web.resource.org/cc/" xmlns:inkscape="http://www.inkscape.org/namespaces/inkscape" xmlns:rdf="http://www.w3.org/1999/02/22-rdf-syntax-ns#" xmlns:svg="http://www.w3.org/2000/svg"
	 xmlns="http://www.w3.org/2000/svg" xmlns:xlink="http://www.w3.org/1999/xlink" x="0px" y="0px" width="32px" height="32px"
	 viewBox="-6 -6 32 32" enable-background="new -6 -6 32 32" xml:space="preserve">
<sodipodi:namedview  id="base" pagecolor="#ffffff" bordercolor="#000000" borderopacity="1.0" showgrid="false" inkscape:zoom="4.3904066" inkscape:cx="2.6650166" inkscape:cy="-35.479637" inkscape:window-x="-8" inkscape:window-y="-8" inkscape:current-layer="g3616" inkscape:pageopacity="0.0" inkscape:pageshadow="2" inkscape:window-width="1280" inkscape:window-height="944" inkscape:guide-bbox="true" inkscape:document-units="px" showguides="true">
	<inkscape:grid  type="xygrid" id="grid4392"></inkscape:grid>
</sodipodi:namedview>
<g>
	<polygon points="0,24.496 -4.5,24.496 -4.5,-4.504 0,-4.504 0,-6.004 -6,-6.004 -6,-6.004 -6,-4.504 -6,24.496 -6,25.996 
		-4.5,25.996 0,25.996 	"/>
	<polygon points="20,-6.004 20,-4.504 24.5,-4.504 24.5,24.496 20,24.496 20,25.996 24.5,25.996 24.5,26.004 26,26.004 26,25.996 
		26,24.496 26,-4.504 26,-5.996 26,-6.004 	"/>
	<g>
		<path d="M7.359,22.66c-0.346,0-0.662-0.205-0.801-0.525C6.508,22.021,1.52,10.689-3.526,8.087
			c-0.213-0.109-0.372-0.301-0.439-0.53c-0.067-0.23-0.038-0.477,0.082-0.684c1.22-2.115,3.942-5.217,4.057-5.348
			C0.34,1.335,0.58,1.228,0.831,1.228c0.01,0,0.02,0,0.029,0C1.122,1.237,1.366,1.362,1.525,1.57
			c0.157,0.204,3.383,4.428,5.436,8.684C11.314-0.18,13.874-2.375,13.986-2.467c0.158-0.131,0.356-0.2,0.557-0.2
			c0.096,0,0.189,0.016,0.281,0.046c0.742,0.251,7.295,2.491,8.828,3.655c0.26,0.196,0.389,0.519,0.336,0.838
			c-0.053,0.32-0.276,0.584-0.584,0.688c-6.059,2.045-10.49,5.893-15.217,19.513c-0.119,0.34-0.434,0.572-0.793,0.586
			C7.383,22.66,7.371,22.66,7.359,22.66L7.359,22.66z"/>
		<path id="path8498" fill="#02ABD8" d="M-3.125,7.31C2.261,10.086,7.36,21.785,7.36,21.785C12.279,7.607,17.003,3.796,23.125,1.73
			c-1.466-1.112-8.582-3.523-8.582-3.523s-2.752,2.27-7.556,14.298C5.173,7.759,0.831,2.103,0.831,2.103S-1.935,5.246-3.125,7.31z"
			/>
		
			<linearGradient id="SVGID_1_" gradientUnits="userSpaceOnUse" x1="-4.3691" y1="-110.1963" x2="18.5479" y2="-110.1963" gradientTransform="matrix(1 0 0 -1 2.46 -100.8398)">
			<stop  offset="0" style="stop-color:#B0D0DA"/>
			<stop  offset="1" style="stop-color:#0C7C9E"/>
		</linearGradient>
		<path fill="url(#SVGID_1_)" d="M7.252,19.494C5.63,16.199,2.048,9.646-1.909,7.015c0.811-1.219,1.958-2.633,2.69-3.505
			c1.262,1.75,4.054,5.817,5.389,9.309c0.129,0.336,0.451,0.559,0.811,0.563c0.003,0,0.005,0,0.007,0
			c0.358,0,0.681-0.219,0.813-0.551c3.688-9.235,6.152-12.625,6.991-13.611c1.962,0.677,4.526,1.626,6.216,2.378
			C15.659,3.865,11.488,8.083,7.252,19.494L7.252,19.494z"/>
	</g>
</g>
</svg>
