<?xml version="1.0" encoding="utf-8"?>
<!-- Generator: Adobe Illustrator 14.0.0, SVG Export Plug-In . SVG Version: 6.00 Build 43363)  -->
<!DOCTYPE svg PUBLIC "-//W3C//DTD SVG 1.1//EN" "http://www.w3.org/Graphics/SVG/1.1/DTD/svg11.dtd">
<svg version="1.1"
	 id="svg2" xmlns:rdf="http://www.w3.org/1999/02/22-rdf-syntax-ns#" xmlns:svg="http://www.w3.org/2000/svg" xmlns:dc="http://purl.org/dc/elements/1.1/" xmlns:sodipodi="http://sodipodi.sourceforge.net/DTD/sodipodi-0.dtd" xmlns:ns="http://creativecommons.org/ns#" xmlns:cc="http://web.resource.org/cc/" xmlns:inkscape="http://www.inkscape.org/namespaces/inkscape" inkscape:version="0.45.1" sodipodi:docbase="C:\Radix\dev\trunk\org.radixware\kernel\designer\src\common.resources\src\org\radixware\kernel\designer\resources\icons\valtype" sodipodi:docname="arr_int.svg" sodipodi:version="0.32" inkscape:output_extension="org.inkscape.output.svg.inkscape"
	 xmlns="http://www.w3.org/2000/svg" xmlns:xlink="http://www.w3.org/1999/xlink" x="0px" y="0px" width="32px" height="32px"
	 viewBox="0 0 32 32" enable-background="new 0 0 32 32" xml:space="preserve">
<sodipodi:namedview  id="base" pagecolor="#ffffff" bordercolor="#000000" borderopacity="1.0" showgrid="false" inkscape:zoom="4.3904066" inkscape:cx="-36.397425" inkscape:cy="0.96345695" inkscape:pageshadow="2" inkscape:window-width="1280" inkscape:window-height="944" inkscape:window-x="0" inkscape:window-y="44" inkscape:current-layer="g8508" inkscape:pageopacity="0.0" inkscape:guide-bbox="true" inkscape:document-units="px" showguides="true">
	<sodipodi:guide  id="guide3989" position="28.185017,0.24158586" orientation="0,1"></sodipodi:guide>
	<sodipodi:guide  id="guide3991" position="19.729512,-4.1874883" orientation="1,0"></sodipodi:guide>
	<inkscape:grid  type="xygrid" id="grid4392"></inkscape:grid>
</sodipodi:namedview>
<g>
	<polygon points="6,30.496 1.5,30.496 1.5,1.496 6,1.496 6,-0.004 0,-0.004 0,-0.004 0,1.496 0,30.496 0,31.996 1.5,31.996 
		6,31.996 	"/>
	<polygon points="26,-0.004 26,1.496 30.5,1.496 30.5,30.496 26,30.496 26,31.996 30.5,31.996 30.5,32.004 32,32.004 32,31.996 
		32,30.496 32,1.496 32,0.004 32,-0.004 	"/>
	<g>
		<path fill="#1E9046" d="M5.559,22.639c-0.25,0-0.453-0.201-0.453-0.451v-8.1c-0.748,0.553-1.59,0.984-2.513,1.29
			C2.547,15.393,2.499,15.4,2.451,15.4c-0.094,0-0.188-0.029-0.266-0.086C2.07,15.229,2,15.093,2,14.949v-2.182
			c0-0.195,0.126-0.368,0.311-0.429c0.576-0.188,1.217-0.556,1.91-1.094c0.662-0.517,1.122-1.125,1.366-1.804
			C5.649,9.261,5.82,9.141,6.012,9.141h1.95c0.25,0,0.452,0.202,0.452,0.452v12.595c0,0.25-0.202,0.451-0.452,0.451H5.559
			L5.559,22.639z"/>
		<path fill="#1E9046" d="M11.246,22.639c-0.129,0-0.251-0.057-0.336-0.15c-0.086-0.096-0.127-0.223-0.113-0.35
			c0.098-0.906,0.395-1.775,0.885-2.584c0.479-0.799,1.389-1.813,2.782-3.104c1.31-1.221,1.772-1.749,1.929-1.979
			c0.275-0.414,0.417-0.824,0.417-1.217c0-0.416-0.098-0.715-0.301-0.917c-0.201-0.202-0.486-0.3-0.873-0.3
			c-0.38,0-0.666,0.104-0.877,0.318c-0.214,0.218-0.348,0.639-0.383,1.218c-0.01,0.124-0.066,0.237-0.16,0.315
			c-0.082,0.07-0.186,0.108-0.292,0.108c-0.015,0-0.03-0.001-0.046-0.001l-2.395-0.24c-0.121-0.013-0.23-0.071-0.307-0.165
			c-0.075-0.094-0.111-0.215-0.097-0.334c0.156-1.445,0.667-2.508,1.518-3.16c0.828-0.635,1.873-0.956,3.097-0.956
			c1.352,0,2.437,0.379,3.228,1.125c0.8,0.752,1.203,1.7,1.203,2.818c0,0.618-0.112,1.217-0.335,1.779
			c-0.219,0.548-0.563,1.125-1.027,1.716c-0.309,0.393-0.84,0.934-1.623,1.656c-0.783,0.717-1.156,1.082-1.333,1.268h3.868
			c0.248,0,0.451,0.201,0.451,0.451v2.234c0,0.248-0.201,0.451-0.451,0.451H11.246L11.246,22.639z"/>
		<path fill="#1E9046" d="M25.34,22.852c-1.244,0-2.295-0.365-3.121-1.092c-0.83-0.727-1.318-1.686-1.451-2.852
			c-0.026-0.246,0.147-0.471,0.396-0.5l2.325-0.283c0.021-0.002,0.037-0.002,0.057-0.002c0.227,0,0.419,0.166,0.448,0.396
			c0.062,0.483,0.218,0.854,0.465,1.092c0.237,0.231,0.521,0.346,0.866,0.346c0.365,0,0.664-0.137,0.917-0.416
			c0.266-0.295,0.394-0.693,0.394-1.223c0-0.49-0.119-0.859-0.367-1.129c-0.24-0.265-0.514-0.385-0.855-0.385
			c-0.266,0-0.598,0.055-0.982,0.161c-0.041,0.013-0.082,0.019-0.121,0.019c-0.106,0-0.215-0.039-0.297-0.109
			c-0.115-0.102-0.172-0.252-0.15-0.404l0.267-1.958c0.028-0.225,0.224-0.391,0.444-0.391c0.007,0,0.105,0.001,0.105,0.001
			c0.482,0,0.85-0.105,1.086-0.313c0.244-0.214,0.359-0.487,0.359-0.854c0-0.3-0.08-0.526-0.244-0.69s-0.387-0.244-0.682-0.244
			c-0.291,0-0.53,0.097-0.735,0.298c-0.217,0.212-0.351,0.54-0.399,0.98c-0.015,0.124-0.08,0.235-0.179,0.31
			c-0.079,0.059-0.175,0.091-0.271,0.091c-0.026,0-0.051-0.003-0.076-0.007l-2.217-0.376c-0.119-0.021-0.229-0.09-0.297-0.191
			c-0.068-0.101-0.094-0.226-0.068-0.345c0.165-0.816,0.424-1.483,0.766-1.984c0.356-0.519,0.855-0.93,1.481-1.222
			c0.614-0.287,1.31-0.433,2.062-0.433c1.305,0,2.369,0.427,3.17,1.271c0.664,0.698,1.004,1.506,1.004,2.397
			c0,0.999-0.422,1.84-1.256,2.512c0.418,0.213,0.776,0.506,1.073,0.875C29.749,16.813,30,17.561,30,18.422
			c0,1.223-0.453,2.279-1.344,3.141C27.768,22.418,26.652,22.852,25.34,22.852L25.34,22.852z"/>
	</g>
</g>
</svg>
