<?xml version="1.0" encoding="utf-8"?>
<!-- Generator: Adobe Illustrator 14.0.0, SVG Export Plug-In . SVG Version: 6.00 Build 43363)  -->
<!DOCTYPE svg PUBLIC "-//W3C//DTD SVG 1.1//EN" "http://www.w3.org/Graphics/SVG/1.1/DTD/svg11.dtd">
<svg version="1.1"
	 id="svg2" xmlns:ns="http://creativecommons.org/ns#" xmlns:svg="http://www.w3.org/2000/svg" xmlns:cc="http://web.resource.org/cc/" xmlns:dc="http://purl.org/dc/elements/1.1/" xmlns:rdf="http://www.w3.org/1999/02/22-rdf-syntax-ns#" xmlns:inkscape="http://www.inkscape.org/namespaces/inkscape" xmlns:sodipodi="http://sodipodi.sourceforge.net/DTD/sodipodi-0.dtd" sodipodi:version="0.32" inkscape:version="0.45.1" sodipodi:docname="arr_clob.svg" sodipodi:docbase="C:\Radix\dev\trunk\org.radixware\kernel\designer\src\common.resources\src\org\radixware\kernel\designer\resources\icons\valtype" inkscape:output_extension="org.inkscape.output.svg.inkscape"
	 xmlns="http://www.w3.org/2000/svg" xmlns:xlink="http://www.w3.org/1999/xlink" x="0px" y="0px" width="32px" height="32px"
	 viewBox="-6 -6 32 32" enable-background="new -6 -6 32 32" xml:space="preserve">
<sodipodi:namedview  id="base" showguides="true" inkscape:cy="-9.0944518" inkscape:cx="2.6650166" inkscape:zoom="4.3904066" showgrid="false" borderopacity="1.0" bordercolor="#000000" pagecolor="#ffffff" inkscape:window-height="944" inkscape:window-width="1280" inkscape:pageshadow="2" inkscape:pageopacity="0.0" inkscape:current-layer="g5498" inkscape:window-y="-8" inkscape:window-x="-8" inkscape:guide-bbox="true" inkscape:document-units="px">
	<inkscape:grid  type="xygrid" id="grid4392"></inkscape:grid>
</sodipodi:namedview>
<g>
	<g>
		<path fill="#374C9F" d="M2.72,8.523c-0.195,0-0.37-0.121-0.44-0.303L1.7,6.71h-2.533l-0.545,1.5
			c-0.067,0.188-0.244,0.313-0.442,0.313h-1.708c-0.155,0-0.301-0.078-0.389-0.205C-4.005,8.189-4.025,8.025-3.968,7.88l3.105-7.973
			c0.07-0.181,0.244-0.3,0.439-0.3h1.701c0.192,0,0.366,0.118,0.438,0.296l3.193,7.973C4.967,8.021,4.95,8.187,4.861,8.316
			c-0.088,0.129-0.233,0.207-0.39,0.207H2.72L2.72,8.523z M0.831,4.426L0.413,3.305L0.004,4.426H0.831z"/>
		<path fill="#374C9F" d="M5.331,8.523c-0.261,0-0.472-0.211-0.472-0.473V0.08c0-0.26,0.211-0.471,0.472-0.471h3.186
			c0.666,0,1.152,0.028,1.492,0.085c0.375,0.063,0.718,0.2,1.017,0.405c0.301,0.204,0.555,0.479,0.752,0.815
			c0.207,0.351,0.311,0.744,0.311,1.172c0,0.465-0.127,0.896-0.375,1.283c-0.086,0.131-0.18,0.25-0.283,0.359
			c0.219,0.145,0.406,0.32,0.563,0.523c0.324,0.424,0.488,0.926,0.488,1.49c0,0.434-0.102,0.86-0.301,1.265
			c-0.203,0.41-0.486,0.746-0.842,0.998c-0.359,0.25-0.797,0.406-1.3,0.461c-0.289,0.031-0.938,0.051-1.99,0.057
			c0,0-0.002,0-0.004,0H5.331L5.331,8.523z M8.43,6.236c0.74,0,0.951-0.027,1.007-0.037c0.147-0.027,0.25-0.082,0.332-0.173
			C9.838,5.949,9.874,5.83,9.874,5.664c0-0.143-0.029-0.254-0.09-0.34C9.726,5.24,9.638,5.178,9.514,5.135
			C9.438,5.108,9.161,5.047,8.241,5.047H7.413v1.189H8.43z M7.995,2.778c0.795,0,1.039-0.015,1.113-0.024
			c0.168-0.02,0.293-0.07,0.374-0.15c0.045-0.045,0.097-0.119,0.097-0.29c0-0.192-0.063-0.265-0.084-0.29
			C9.438,1.961,9.333,1.918,9.183,1.899C9.107,1.892,8.831,1.875,7.864,1.875H7.411v0.901h0.584V2.778z"/>
		<path fill="#374C9F" d="M16.717,8.658c-1.189,0-2.182-0.414-2.953-1.232C13,6.615,12.615,5.508,12.615,4.135
			c0-1.443,0.387-2.592,1.152-3.412c0.775-0.83,1.801-1.251,3.049-1.251c1.094,0,2.002,0.334,2.699,0.993
			c0.424,0.397,0.74,0.964,0.943,1.682c0.035,0.124,0.02,0.256-0.045,0.368c-0.064,0.11-0.174,0.19-0.297,0.22l-1.594,0.381
			c-0.037,0.008-0.074,0.014-0.111,0.014c-0.086,0-0.172-0.024-0.246-0.07c-0.107-0.066-0.186-0.174-0.213-0.296
			c-0.07-0.31-0.209-0.544-0.424-0.716s-0.477-0.256-0.797-0.256c-0.451,0-0.807,0.154-1.082,0.474
			c-0.289,0.334-0.438,0.924-0.438,1.753c0,0.876,0.15,1.516,0.434,1.85c0.273,0.323,0.607,0.475,1.055,0.475
			c0.313,0,0.57-0.096,0.793-0.291c0.23-0.203,0.404-0.553,0.514-1.035c0.029-0.128,0.111-0.238,0.227-0.305
			c0.072-0.041,0.152-0.062,0.232-0.062c0.049,0,0.098,0.007,0.145,0.022l1.561,0.494c0.24,0.076,0.379,0.33,0.313,0.574
			c-0.268,0.968-0.725,1.705-1.363,2.189C18.484,8.414,17.674,8.658,16.717,8.658L16.717,8.658z"/>
	</g>
	<g>
		<path fill="#374C9F" d="M1.715,19.104c-0.241,0-0.437-0.195-0.437-0.438v-8.312c0-0.241,0.195-0.438,0.437-0.438h3.068
			c0.739,0,1.297,0.059,1.704,0.178c0.562,0.167,1.048,0.463,1.448,0.885c0.391,0.412,0.689,0.918,0.891,1.506
			c0.195,0.574,0.295,1.283,0.295,2.105c0,0.729-0.094,1.371-0.279,1.91c-0.229,0.668-0.564,1.219-0.998,1.643
			c-0.338,0.328-0.793,0.586-1.352,0.764c-0.416,0.135-0.947,0.197-1.619,0.197H1.715z M4.648,16.828
			c0.535,0,0.789-0.035,0.907-0.064c0.201-0.051,0.367-0.133,0.492-0.246c0.082-0.074,0.203-0.238,0.313-0.607
			c0.101-0.326,0.151-0.797,0.151-1.393s-0.049-1.047-0.146-1.346c-0.091-0.271-0.213-0.482-0.363-0.625
			c-0.146-0.139-0.332-0.229-0.568-0.281c-0.143-0.031-0.479-0.068-1.286-0.068H3.833v4.633h0.815V16.828z"/>
		<path fill="#374C9F" d="M10.108,19.104c-0.242,0-0.438-0.195-0.438-0.438v-8.312c0-0.241,0.195-0.438,0.438-0.438h6.164
			c0.24,0,0.438,0.197,0.438,0.438v1.406c0,0.242-0.197,0.438-0.438,0.438h-4.049v0.969h3.734c0.242,0,0.438,0.197,0.438,0.438v1.4
			c0,0.24-0.193,0.439-0.438,0.439h-3.734v1.387h4.207c0.24,0,0.438,0.195,0.438,0.438v1.4c0,0.242-0.197,0.438-0.438,0.438h-6.322
			V19.104z"/>
		<path fill="#374C9F" d="M17.863,19.104c-0.24,0-0.438-0.195-0.438-0.438v-8.312c0-0.241,0.197-0.438,0.438-0.438h5.699
			c0.242,0,0.438,0.197,0.438,0.438v1.406c0,0.242-0.195,0.438-0.438,0.438H19.98v1.094h3.031c0.24,0,0.438,0.195,0.438,0.439v1.404
			c0,0.242-0.197,0.438-0.438,0.438H19.98v3.096c0,0.242-0.197,0.438-0.439,0.438h-1.678V19.104z"/>
	</g>
	<g>
		<polygon points="0,24.496 -4.5,24.496 -4.5,-4.504 0,-4.504 0,-6.004 -6,-6.004 -6,-6.004 -6,-4.504 -6,24.496 -6,25.996 
			-4.5,25.996 0,25.996 		"/>
		<polygon points="20,-6.004 20,-4.504 24.5,-4.504 24.5,24.496 20,24.496 20,25.996 24.5,25.996 24.5,26.004 26,26.004 26,25.996 
			26,24.496 26,-4.504 26,-5.997 26,-6.004 		"/>
	</g>
</g>
</svg>
