<?xml version="1.0" encoding="utf-8"?>
<!-- Generator: Adobe Illustrator 14.0.0, SVG Export Plug-In . SVG Version: 6.00 Build 43363)  -->
<!DOCTYPE svg PUBLIC "-//W3C//DTD SVG 1.1//EN" "http://www.w3.org/Graphics/SVG/1.1/DTD/svg11.dtd">
<svg version="1.1"
	 id="svg2" xmlns:rdf="http://www.w3.org/1999/02/22-rdf-syntax-ns#" xmlns:svg="http://www.w3.org/2000/svg" xmlns:dc="http://purl.org/dc/elements/1.1/" xmlns:sodipodi="http://sodipodi.sourceforge.net/DTD/sodipodi-0.dtd" xmlns:ns="http://creativecommons.org/ns#" xmlns:cc="http://web.resource.org/cc/" xmlns:inkscape="http://www.inkscape.org/namespaces/inkscape" inkscape:version="0.45.1" sodipodi:docbase="C:\Radix\dev\trunk\org.radixware\kernel\designer\src\common.resources\src\org\radixware\kernel\designer\resources\icons\valtype" sodipodi:docname="arr_str.svg" sodipodi:version="0.32" inkscape:output_extension="org.inkscape.output.svg.inkscape"
	 xmlns="http://www.w3.org/2000/svg" xmlns:xlink="http://www.w3.org/1999/xlink" x="0px" y="0px" width="32px" height="32px"
	 viewBox="0 0 32 32" enable-background="new 0 0 32 32" xml:space="preserve">
<sodipodi:namedview  id="base" pagecolor="#ffffff" bordercolor="#000000" borderopacity="1.0" showgrid="false" inkscape:zoom="4.3904066" inkscape:cx="-6.262322" inkscape:cy="3.7137798" inkscape:pageshadow="2" inkscape:window-width="1280" inkscape:window-height="944" inkscape:window-x="-8" inkscape:window-y="-8" inkscape:current-layer="g8508" inkscape:pageopacity="0.0" inkscape:guide-bbox="true" inkscape:document-units="px" showguides="true">
	<inkscape:grid  type="xygrid" id="grid4392"></inkscape:grid>
</sodipodi:namedview>
<g>
	<polygon points="6,30.495 1.5,30.495 1.5,1.495 6,1.495 6,-0.005 0,-0.005 0,-0.005 0,1.495 0,30.495 0,31.995 1.5,31.995 
		6,31.995 	"/>
	<polygon points="26,-0.005 26,1.495 30.5,1.495 30.5,30.495 26,30.495 26,31.995 30.5,31.995 30.5,32.005 32,32.005 32,31.995 
		32,30.495 32,1.495 32,0.004 32,-0.005 	"/>
	<g>
		<path fill="#0A6480" d="M5.262,22.378c-0.984,0-1.781-0.278-2.367-0.832C2.301,20.986,2,20.271,2,19.425
			c0-0.559,0.139-1.067,0.408-1.512c0.273-0.449,0.658-0.795,1.148-1.031c0.449-0.219,1.068-0.398,1.891-0.559
			c0.798-0.149,1.402-0.291,1.806-0.42c-0.009-0.183-0.047-0.388-0.16-0.487c-0.045-0.037-0.241-0.164-0.905-0.164
			c-0.303,0-0.528,0.053-0.674,0.153c-0.142,0.099-0.271,0.308-0.375,0.604c-0.063,0.184-0.236,0.301-0.426,0.301
			c-0.025,0-0.054-0.002-0.081-0.006l-2.028-0.365c-0.125-0.024-0.237-0.097-0.304-0.205c-0.067-0.108-0.086-0.239-0.052-0.361
			c0.255-0.916,0.711-1.609,1.354-2.063c0.642-0.453,1.539-0.672,2.742-0.672c1.076,0,1.87,0.129,2.426,0.397
			c0.572,0.278,0.986,0.645,1.23,1.092c0.238,0.436,0.354,1.161,0.354,2.219L10.33,18.96c0,0.707,0.033,1.229,0.1,1.552
			c0.063,0.313,0.186,0.657,0.364,1.024c0.067,0.139,0.06,0.307-0.022,0.438c-0.082,0.131-0.228,0.213-0.383,0.213H8.175
			c-0.187,0-0.352-0.115-0.42-0.287c-0.032-0.082-0.069-0.186-0.106-0.303c-0.262,0.188-0.535,0.344-0.815,0.465
			C6.341,22.271,5.812,22.378,5.262,22.378L5.262,22.378z M7.253,18.271c-0.229,0.06-0.501,0.119-0.815,0.188
			c-0.764,0.164-0.996,0.281-1.062,0.324c-0.208,0.146-0.235,0.297-0.235,0.41c0,0.189,0.067,0.348,0.215,0.488
			c0.147,0.146,0.33,0.213,0.576,0.213c0.309,0,0.598-0.102,0.889-0.311c0.187-0.139,0.308-0.305,0.365-0.502
			C7.205,19.018,7.247,18.818,7.253,18.271L7.253,18.271z"/>
		<path fill="#0A6480" d="M16.73,22.378c-0.556,0-1.104-0.14-1.635-0.414c-0.195-0.098-0.381-0.217-0.557-0.353v0.123
			c0,0.248-0.203,0.451-0.452,0.451H12.01c-0.248,0-0.451-0.201-0.451-0.451v-11.67c0-0.25,0.203-0.452,0.451-0.452h2.237
			c0.25,0,0.452,0.202,0.452,0.452v3.191c0.597-0.412,1.267-0.619,2-0.619c1.156,0,2.129,0.426,2.89,1.268
			c0.748,0.826,1.128,2.01,1.128,3.517c0,1.55-0.385,2.771-1.145,3.634C18.8,21.934,17.842,22.378,16.73,22.378L16.73,22.378z
			 M16.104,15.252c-0.408,0-0.723,0.146-0.996,0.467c-0.279,0.33-0.424,0.87-0.424,1.606c0,0.778,0.115,1.353,0.34,1.69
			c0.308,0.473,0.678,0.688,1.166,0.688c0.36,0,0.649-0.147,0.914-0.47c0.277-0.336,0.418-0.912,0.418-1.707
			c0-0.854-0.142-1.46-0.422-1.805C16.833,15.403,16.518,15.252,16.104,15.252L16.104,15.252z"/>
		<path fill="#0A6480" d="M25.632,22.378c-1.36,0-2.466-0.44-3.284-1.313c-0.813-0.859-1.228-2.059-1.228-3.549
			c0-1.509,0.414-2.71,1.229-3.571c0.822-0.867,1.939-1.309,3.318-1.309c1.122,0,2.038,0.254,2.725,0.752
			c0.688,0.5,1.184,1.262,1.478,2.264c0.036,0.123,0.021,0.255-0.05,0.363c-0.068,0.109-0.178,0.187-0.303,0.209l-2.207,0.397
			c-0.026,0.006-0.057,0.006-0.08,0.006c-0.092,0-0.186-0.027-0.26-0.082c-0.102-0.066-0.166-0.176-0.188-0.294
			c-0.058-0.335-0.173-0.572-0.354-0.727c-0.181-0.152-0.418-0.228-0.729-0.228c-0.424,0-0.747,0.138-0.99,0.421
			c-0.255,0.293-0.391,0.858-0.391,1.637c0,1.11,0.222,1.612,0.404,1.84c0.252,0.312,0.571,0.455,1.006,0.455
			c0.313,0,0.558-0.08,0.742-0.246c0.191-0.172,0.34-0.514,0.43-0.993c0.043-0.216,0.232-0.367,0.443-0.367
			c0.025,0,0.051,0.002,0.077,0.008l2.197,0.373c0.122,0.021,0.231,0.093,0.3,0.195s0.092,0.229,0.064,0.35
			c-0.25,1.107-0.748,1.962-1.477,2.539C27.789,22.085,26.818,22.378,25.632,22.378L25.632,22.378z"/>
	</g>
</g>
</svg>
