<?xml version="1.0" encoding="utf-8"?>
<!-- Generator: Adobe Illustrator 14.0.0, SVG Export Plug-In . SVG Version: 6.00 Build 43363)  -->
<!DOCTYPE svg PUBLIC "-//W3C//DTD SVG 1.1//EN" "http://www.w3.org/Graphics/SVG/1.1/DTD/svg11.dtd">
<svg version="1.1"
	 id="svg2" xmlns:ns="http://creativecommons.org/ns#" xmlns:svg="http://www.w3.org/2000/svg" xmlns:cc="http://web.resource.org/cc/" xmlns:dc="http://purl.org/dc/elements/1.1/" xmlns:rdf="http://www.w3.org/1999/02/22-rdf-syntax-ns#" xmlns:inkscape="http://www.inkscape.org/namespaces/inkscape" xmlns:sodipodi="http://sodipodi.sourceforge.net/DTD/sodipodi-0.dtd" sodipodi:version="0.32" inkscape:version="0.45.1" sodipodi:docname="arr_object.svg" sodipodi:docbase="C:\Radix\dev\trunk\org.radixware\kernel\designer\src\common.resources\src\org\radixware\kernel\designer\resources\icons\valtype" inkscape:output_extension="org.inkscape.output.svg.inkscape"
	 xmlns="http://www.w3.org/2000/svg" xmlns:xlink="http://www.w3.org/1999/xlink" x="0px" y="0px" width="32px" height="32px"
	 viewBox="-6 -6 32 32" enable-background="new -6 -6 32 32" xml:space="preserve">
<sodipodi:namedview  id="base" showguides="true" inkscape:cy="-2.7074955" inkscape:cx="7.2762526" inkscape:zoom="8.7808132" showgrid="false" borderopacity="1.0" bordercolor="#000000" pagecolor="#ffffff" inkscape:window-height="944" inkscape:window-width="1280" inkscape:pageshadow="2" inkscape:pageopacity="0.0" inkscape:current-layer="g5792" inkscape:window-y="-8" inkscape:window-x="-8" inkscape:guide-bbox="true" inkscape:document-units="px">
	<inkscape:grid  type="xygrid" id="grid4392"></inkscape:grid>
</sodipodi:namedview>
<g>
	<polygon points="0,24.496 -4.5,24.496 -4.5,-4.504 0,-4.504 0,-6.004 -6,-6.004 -6,-6.004 -6,-4.504 -6,24.496 -6,25.996 
		-4.5,25.996 0,25.996 	"/>
	<polygon points="20,-6.004 20,-4.504 24.5,-4.504 24.5,24.496 20,24.496 20,25.996 24.5,25.996 24.5,26.004 26,26.004 26,25.996 
		26,24.496 26,-4.504 26,-5.996 26,-6.004 	"/>
</g>
<g>
	<path d="M10,23C2.831,23-3,17.169-3,10S2.831-3,10-3s13,5.831,13,13S17.169,23,10,23L10,23z"/>
	<circle fill="#02ABD8" cx="10" cy="10" r="12.134"/>
	
		<radialGradient id="SVGID_1_" cx="13.0283" cy="-106.6504" r="15.4581" gradientTransform="matrix(1 0 0 -1 2.46 -100.8398)" gradientUnits="userSpaceOnUse">
		<stop  offset="0" style="stop-color:#B0D0DA"/>
		<stop  offset="0.8121" style="stop-color:#0C7C9E"/>
		<stop  offset="0.9879" style="stop-color:#033A4A"/>
	</radialGradient>
	<path fill="url(#SVGID_1_)" d="M10,21.267C3.788,21.267-1.267,16.212-1.267,10S3.788-1.267,10-1.267S21.267,3.788,21.267,10
		S16.212,21.267,10,21.267L10,21.267z"/>
</g>
</svg>
