<?xml version="1.0" encoding="utf-8"?>
<!-- Generator: Adobe Illustrator 14.0.0, SVG Export Plug-In . SVG Version: 6.00 Build 43363)  -->
<!DOCTYPE svg PUBLIC "-//W3C//DTD SVG 1.1//EN" "http://www.w3.org/Graphics/SVG/1.1/DTD/svg11.dtd">
<svg version="1.1"
	 id="svg2" xmlns:ns="http://creativecommons.org/ns#" xmlns:svg="http://www.w3.org/2000/svg" xmlns:cc="http://web.resource.org/cc/" xmlns:dc="http://purl.org/dc/elements/1.1/" xmlns:rdf="http://www.w3.org/1999/02/22-rdf-syntax-ns#" xmlns:inkscape="http://www.inkscape.org/namespaces/inkscape" xmlns:sodipodi="http://sodipodi.sourceforge.net/DTD/sodipodi-0.dtd" sodipodi:version="0.32" inkscape:version="0.45.1" sodipodi:docname="arr_num.svg" sodipodi:docbase="C:\Radix\dev\trunk\org.radixware\kernel\designer\src\common.resources\src\org\radixware\kernel\designer\resources\icons\valtype" inkscape:output_extension="org.inkscape.output.svg.inkscape"
	 xmlns="http://www.w3.org/2000/svg" xmlns:xlink="http://www.w3.org/1999/xlink" x="0px" y="0px" width="32px" height="32px"
	 viewBox="-6 -6 32 32" enable-background="new -6 -6 32 32" xml:space="preserve">
<sodipodi:namedview  id="base" showguides="true" inkscape:cy="0.96345695" inkscape:cx="2.6650166" inkscape:zoom="4.3904066" showgrid="false" borderopacity="1.0" bordercolor="#000000" pagecolor="#ffffff" inkscape:window-height="944" inkscape:window-width="1280" inkscape:pageshadow="2" inkscape:pageopacity="0.0" inkscape:current-layer="g8508" inkscape:window-y="-8" inkscape:window-x="-8" inkscape:guide-bbox="true" inkscape:document-units="px">
	<sodipodi:guide  id="guide3989" position="28.185017,0.24158586" orientation="0,1"></sodipodi:guide>
	<sodipodi:guide  id="guide3991" position="19.729512,-4.1874883" orientation="1,0"></sodipodi:guide>
	<inkscape:grid  type="xygrid" id="grid4392"></inkscape:grid>
</sodipodi:namedview>
<g>
	<polygon points="0,24.496 -4.5,24.496 -4.5,-4.504 0,-4.504 0,-6.004 -6,-6.004 -6,-6.004 -6,-4.504 -6,24.496 -6,25.996 
		-4.5,25.996 0,25.996 	"/>
	<polygon points="20,-6.004 20,-4.504 24.5,-4.504 24.5,24.496 20,24.496 20,25.996 24.5,25.996 24.5,26.004 26,26.004 26,25.996 
		26,24.496 26,-4.504 26,-5.996 26,-6.004 	"/>
	<g>
		<g>
			<path fill="#ED2828" d="M-0.916,14.6c-0.249,0-0.451-0.199-0.451-0.451V7.419c-0.613,0.435-1.296,0.777-2.04,1.023
				c-0.047,0.016-0.094,0.021-0.142,0.021c-0.094,0-0.188-0.028-0.266-0.086C-3.93,8.294-4,8.157-4,8.013v-1.85
				c0-0.195,0.126-0.368,0.313-0.429c0.479-0.156,1.017-0.465,1.597-0.917c0.552-0.431,0.934-0.934,1.136-1.497
				c0.064-0.18,0.234-0.3,0.426-0.3h1.653c0.25,0,0.452,0.201,0.452,0.452v10.677c0,0.248-0.202,0.451-0.452,0.451H-0.916
				L-0.916,14.6z"/>
			<path fill="#ED2828" d="M3.907,14.6c-0.128,0-0.25-0.055-0.337-0.148c-0.086-0.096-0.127-0.225-0.112-0.35
				c0.085-0.779,0.34-1.525,0.759-2.221c0.413-0.684,1.188-1.549,2.371-2.646c1.109-1.033,1.495-1.477,1.625-1.664
				c0.227-0.34,0.342-0.675,0.342-0.994c0-0.332-0.076-0.57-0.234-0.729C8.164,5.69,7.938,5.615,7.629,5.615
				c-0.303,0-0.527,0.081-0.691,0.248c-0.172,0.174-0.277,0.516-0.31,0.99C6.62,6.975,6.564,7.088,6.469,7.167
				C6.387,7.236,6.283,7.273,6.177,7.273c-0.016,0-0.028,0-0.045-0.002l-2.03-0.203c-0.119-0.012-0.229-0.07-0.306-0.165
				c-0.075-0.092-0.11-0.212-0.099-0.332C3.832,5.328,4.273,4.41,5.01,3.846c0.717-0.547,1.614-0.825,2.67-0.825
				c1.161,0,2.098,0.326,2.781,0.972c0.689,0.651,1.041,1.473,1.041,2.438c0,0.534-0.098,1.05-0.289,1.534
				c-0.188,0.471-0.482,0.967-0.881,1.472c-0.264,0.336-0.716,0.798-1.385,1.411c-0.463,0.424-0.803,0.742-1.012,0.955h3.114
				c0.249,0,0.451,0.201,0.451,0.451v1.895c0,0.25-0.2,0.451-0.451,0.451H3.907L3.907,14.6z"/>
			<path fill="#ED2828" d="M13.045,16.973c-0.169,0-0.331-0.098-0.408-0.26l-0.398-0.842c-0.055-0.117-0.057-0.252-0.006-0.371
				c0.052-0.119,0.149-0.211,0.272-0.252c0.318-0.102,0.539-0.236,0.655-0.395c0.051-0.068,0.091-0.154,0.122-0.254h-0.47
				c-0.25,0-0.451-0.199-0.451-0.451v-2.037c0-0.25,0.201-0.451,0.451-0.451h2.037c0.252,0,0.452,0.199,0.452,0.451v1.457
				c0,0.641-0.056,1.139-0.17,1.525c-0.124,0.412-0.356,0.787-0.698,1.113c-0.328,0.314-0.744,0.563-1.236,0.738
				C13.146,16.963,13.098,16.973,13.045,16.973L13.045,16.973z"/>
			<path fill="#ED2828" d="M19.979,14.779c-1.068,0-1.976-0.316-2.688-0.939c-0.718-0.629-1.142-1.455-1.253-2.463
				c-0.028-0.246,0.146-0.469,0.393-0.498l1.973-0.238c0.02-0.002,0.037-0.002,0.057-0.002c0.225,0,0.419,0.166,0.447,0.395
				c0.051,0.396,0.176,0.693,0.373,0.885c0.193,0.188,0.412,0.271,0.688,0.271c0.292,0,0.524-0.104,0.726-0.33
				c0.213-0.234,0.315-0.559,0.315-0.986c0-0.398-0.097-0.697-0.295-0.914c-0.19-0.206-0.403-0.304-0.675-0.304
				c-0.219,0-0.492,0.046-0.814,0.136c-0.039,0.011-0.08,0.018-0.121,0.018c-0.107,0-0.213-0.039-0.295-0.11
				c-0.117-0.102-0.172-0.252-0.152-0.402l0.226-1.661c0.029-0.225,0.222-0.391,0.447-0.391c0.004,0,0.089,0.001,0.089,0.001
				c0.393,0,0.688-0.084,0.877-0.248c0.191-0.167,0.279-0.381,0.279-0.672c0-0.313-0.106-0.456-0.188-0.537
				c-0.08-0.08-0.223-0.186-0.527-0.186c-0.23,0-0.414,0.074-0.576,0.233c-0.17,0.165-0.276,0.431-0.317,0.787
				c-0.014,0.124-0.077,0.235-0.177,0.31c-0.078,0.06-0.174,0.092-0.271,0.092c-0.023,0-0.051-0.002-0.074-0.006L16.564,6.7
				c-0.121-0.02-0.229-0.089-0.297-0.189c-0.068-0.101-0.095-0.226-0.069-0.346c0.142-0.699,0.362-1.273,0.661-1.707
				c0.31-0.45,0.74-0.807,1.283-1.06c0.529-0.248,1.127-0.373,1.775-0.373c1.125,0,2.044,0.369,2.734,1.099
				c0.578,0.605,0.871,1.306,0.871,2.08c0,0.836-0.34,1.546-1.01,2.117c0.323,0.18,0.604,0.418,0.842,0.711
				C23.782,9.564,24,10.213,24,10.959c0,1.057-0.391,1.969-1.16,2.711C22.073,14.406,21.111,14.779,19.979,14.779L19.979,14.779z"/>
		</g>
	</g>
</g>
</svg>
