<?xml version="1.0" encoding="utf-8"?>
<!-- Generator: Adobe Illustrator 14.0.0, SVG Export Plug-In . SVG Version: 6.00 Build 43363)  -->
<!DOCTYPE svg PUBLIC "-//W3C//DTD SVG 1.1//EN" "http://www.w3.org/Graphics/SVG/1.1/DTD/svg11.dtd">
<svg version="1.1"
	 id="svg2" xmlns:ns="http://creativecommons.org/ns#" xmlns:svg="http://www.w3.org/2000/svg" xmlns:cc="http://web.resource.org/cc/" xmlns:dc="http://purl.org/dc/elements/1.1/" xmlns:rdf="http://www.w3.org/1999/02/22-rdf-syntax-ns#" xmlns:inkscape="http://www.inkscape.org/namespaces/inkscape" xmlns:sodipodi="http://sodipodi.sourceforge.net/DTD/sodipodi-0.dtd" sodipodi:version="0.32" inkscape:version="0.45.1" sodipodi:docname="blob.svg" sodipodi:docbase="C:\Radix\dev\trunk\org.radixware\kernel\designer\src\common.resources\src\org\radixware\kernel\designer\resources\icons\valtype" inkscape:output_extension="org.inkscape.output.svg.inkscape"
	 xmlns="http://www.w3.org/2000/svg" xmlns:xlink="http://www.w3.org/1999/xlink" x="0px" y="0px" width="32px" height="32px"
	 viewBox="-6 -6 32 32" enable-background="new -6 -6 32 32" xml:space="preserve">
<sodipodi:namedview  id="base" showguides="true" inkscape:cy="-41.840088" inkscape:cx="-6.262322" inkscape:zoom="4.3904066" showgrid="false" borderopacity="1.0" bordercolor="#000000" pagecolor="#ffffff" inkscape:window-height="944" inkscape:window-width="1280" inkscape:pageshadow="2" inkscape:pageopacity="0.0" inkscape:current-layer="g3616" inkscape:window-y="-8" inkscape:window-x="-8" inkscape:guide-bbox="true" inkscape:document-units="px">
	<inkscape:grid  type="xygrid" id="grid4392"></inkscape:grid>
</sodipodi:namedview>
<g>
	<path fill="#447136" d="M-2.675,9.352c-1.003,0-1.825-0.393-2.44-1.166C-5.711,7.439-6,6.205-6,4.418
		C-6,2.66-5.688,1.41-5.041,0.594c0.57-0.719,1.366-1.082,2.366-1.082s1.799,0.367,2.372,1.094C0.338,1.412,0.65,2.666,0.65,4.434
		c0,1.766-0.313,3.02-0.959,3.836C-0.879,8.988-1.675,9.352-2.675,9.352L-2.675,9.352z M-2.675,1.953
		c-0.075,0-0.134,0.02-0.193,0.068c-0.01,0.01-0.1,0.088-0.182,0.4c-0.07,0.262-0.152,0.822-0.152,2.012
		c0,1.191,0.073,1.711,0.134,1.936c0.104,0.387,0.202,0.475,0.203,0.475c0.059,0.047,0.115,0.068,0.19,0.068s0.133-0.021,0.192-0.07
		c0.01-0.008,0.101-0.09,0.183-0.4C-2.23,6.18-2.148,5.627-2.148,4.436c0-1.189-0.072-1.709-0.134-1.936
		c-0.104-0.393-0.204-0.479-0.204-0.48C-2.545,1.973-2.602,1.953-2.675,1.953L-2.675,1.953z"/>
	<path fill="#447136" d="M5.24,9.207c-0.182,0-0.352-0.092-0.451-0.244L3.973,7.719L3.148,8.965c-0.101,0.15-0.27,0.242-0.449,0.242
		H0.773c-0.201,0-0.385-0.113-0.479-0.291c-0.093-0.18-0.079-0.393,0.037-0.559l2.023-2.891L0.428,2.762
		C0.311,2.598,0.295,2.383,0.387,2.203c0.094-0.18,0.277-0.291,0.479-0.291h2.008c0.183,0,0.353,0.092,0.452,0.246l0.66,1.025
		l0.701-1.035C4.788,2,4.955,1.912,5.133,1.912h1.932c0.203,0,0.388,0.113,0.479,0.293C7.637,2.383,7.621,2.6,7.503,2.764
		L5.618,5.396l2.081,2.961c0.115,0.164,0.13,0.379,0.037,0.559C7.645,9.094,7.46,9.207,7.259,9.207H5.24z"/>
	<path fill="#447136" d="M8.255,9.207c-0.298,0-0.539-0.242-0.539-0.541V0.084c0-0.297,0.241-0.539,0.539-0.539h5.884
		c0.297,0,0.538,0.242,0.538,0.539v1.453c0,0.297-0.241,0.537-0.538,0.537h-3.613v0.955h3.045c0.299,0,0.539,0.24,0.539,0.539V5.02
		c0,0.297-0.24,0.539-0.539,0.539h-3.045v3.107c0,0.299-0.239,0.541-0.537,0.541H8.255z"/>
	<path fill="#447136" d="M15.578,9.207c-0.299,0-0.539-0.242-0.539-0.541V0.084c0-0.297,0.24-0.539,0.539-0.539h5.884
		C21.759-0.453,22-0.213,22,0.084v1.453c0,0.297-0.241,0.537-0.538,0.537H17.85v0.955h3.045c0.297,0,0.539,0.24,0.539,0.539V5.02
		c0,0.297-0.242,0.539-0.539,0.539H17.85v3.107c0,0.299-0.242,0.541-0.539,0.541H15.578z"/>
	<path fill="#447136" d="M1.325,20.488c-1.003,0-1.825-0.391-2.44-1.164C-1.711,18.576-2,17.342-2,15.555
		c0-1.758,0.313-3.008,0.959-3.824c0.57-0.719,1.366-1.082,2.366-1.082s1.799,0.369,2.372,1.094c0.641,0.807,0.953,2.061,0.953,3.83
		c0,1.764-0.313,3.018-0.959,3.834C3.121,20.125,2.325,20.488,1.325,20.488L1.325,20.488z M1.325,13.09
		c-0.075,0-0.134,0.02-0.193,0.068c-0.01,0.01-0.1,0.09-0.182,0.4c-0.07,0.264-0.152,0.822-0.152,2.014
		c0,1.189,0.073,1.709,0.134,1.934c0.104,0.387,0.202,0.475,0.202,0.475c0.06,0.047,0.116,0.068,0.191,0.068s0.133-0.021,0.192-0.07
		c0.01-0.008,0.101-0.09,0.183-0.398c0.069-0.264,0.151-0.816,0.151-2.006c0-1.191-0.072-1.709-0.134-1.938
		c-0.104-0.391-0.204-0.479-0.206-0.479C1.455,13.109,1.398,13.09,1.325,13.09L1.325,13.09z"/>
	<path fill="#447136" d="M9.24,20.344c-0.182,0-0.352-0.092-0.451-0.244l-0.816-1.244l-0.824,1.246
		c-0.101,0.15-0.27,0.242-0.449,0.242H4.773c-0.201,0-0.385-0.113-0.479-0.291c-0.093-0.178-0.079-0.393,0.037-0.557l2.023-2.893
		L4.428,13.9c-0.117-0.166-0.133-0.381-0.041-0.561c0.094-0.18,0.277-0.291,0.479-0.291h2.008c0.183,0,0.353,0.092,0.452,0.246
		l0.66,1.023l0.701-1.033c0.101-0.148,0.268-0.236,0.445-0.236h1.932c0.201,0,0.388,0.113,0.479,0.293
		c0.093,0.178,0.076,0.395-0.041,0.559l-1.885,2.635l2.08,2.959c0.116,0.164,0.131,0.379,0.038,0.559
		c-0.094,0.178-0.276,0.291-0.479,0.291H9.24z"/>
	<path fill="#447136" d="M12.255,20.344c-0.298,0-0.538-0.242-0.538-0.541v-8.58c0-0.297,0.24-0.539,0.538-0.539h5.884
		c0.297,0,0.538,0.242,0.538,0.539v1.451c0,0.297-0.241,0.539-0.538,0.539h-3.613v0.953h3.045c0.299,0,0.539,0.242,0.539,0.539
		v1.451c0,0.297-0.24,0.539-0.539,0.539h-3.045v3.107c0,0.299-0.239,0.541-0.537,0.541H12.255L12.255,20.344z"/>
	<path fill="#447136" d="M19.578,20.344c-0.299,0-0.539-0.242-0.539-0.541v-8.58c0-0.297,0.24-0.539,0.539-0.539h5.884
		c0.297,0,0.538,0.242,0.538,0.539v1.451c0,0.297-0.241,0.539-0.538,0.539H21.85v0.953h3.045c0.297,0,0.539,0.242,0.539,0.539v1.451
		c0,0.297-0.242,0.539-0.539,0.539H21.85v3.107c0,0.299-0.242,0.541-0.539,0.541H19.578L19.578,20.344z"/>
</g>
</svg>
