<?xml version="1.0" encoding="utf-8"?>
<!-- Generator: Adobe Illustrator 14.0.0, SVG Export Plug-In . SVG Version: 6.00 Build 43363)  -->
<!DOCTYPE svg PUBLIC "-//W3C//DTD SVG 1.1//EN" "http://www.w3.org/Graphics/SVG/1.1/DTD/svg11.dtd">
<svg version="1.1"
	 id="svg2" xmlns:ns="http://creativecommons.org/ns#" xmlns:svg="http://www.w3.org/2000/svg" xmlns:cc="http://web.resource.org/cc/" xmlns:dc="http://purl.org/dc/elements/1.1/" xmlns:rdf="http://www.w3.org/1999/02/22-rdf-syntax-ns#" xmlns:inkscape="http://www.inkscape.org/namespaces/inkscape" xmlns:sodipodi="http://sodipodi.sourceforge.net/DTD/sodipodi-0.dtd" sodipodi:version="0.32" inkscape:version="0.45.1" sodipodi:docname="bool.svg" sodipodi:docbase="C:\Radix\dev\trunk\org.radixware\kernel\designer\src\common.resources\src\org\radixware\kernel\designer\resources\icons\valtype" inkscape:output_extension="org.inkscape.output.svg.inkscape"
	 xmlns="http://www.w3.org/2000/svg" xmlns:xlink="http://www.w3.org/1999/xlink" x="0px" y="0px" width="32px" height="32px"
	 viewBox="-6 -6 32 32" enable-background="new -6 -6 32 32" xml:space="preserve">
<sodipodi:namedview  id="base" showguides="true" inkscape:cy="-41.840088" inkscape:cx="-6.262322" inkscape:zoom="4.3904066" showgrid="false" borderopacity="1.0" bordercolor="#000000" pagecolor="#ffffff" inkscape:window-height="944" inkscape:window-width="1280" inkscape:pageshadow="2" inkscape:pageopacity="0.0" inkscape:current-layer="g3616" inkscape:window-y="-8" inkscape:window-x="-8" inkscape:guide-bbox="true" inkscape:document-units="px">
	<inkscape:grid  type="xygrid" id="grid4392"></inkscape:grid>
</sodipodi:namedview>
<g>
	<g>
		<path d="M7.171,23.567c-0.37,0-0.71-0.22-0.858-0.563C6.259,22.884,0.914,10.742-4.491,7.955C-4.72,7.839-4.891,7.633-4.962,7.387
			c-0.071-0.245-0.04-0.51,0.088-0.732c1.308-2.266,4.223-5.589,4.346-5.729c0.179-0.204,0.436-0.32,0.705-0.32
			c0.011,0,0.021,0,0.029,0C0.489,0.615,0.751,0.749,0.92,0.973c0.168,0.218,3.625,4.743,5.824,9.303
			c4.664-11.178,7.407-13.529,7.527-13.629c0.169-0.14,0.383-0.214,0.596-0.214c0.103,0,0.203,0.017,0.302,0.049
			c0.795,0.269,7.815,2.669,9.458,3.916c0.278,0.21,0.417,0.557,0.36,0.898c-0.057,0.343-0.295,0.625-0.626,0.736
			C17.87,4.223,13.122,8.347,8.058,22.938c-0.127,0.364-0.464,0.613-0.85,0.628C7.196,23.567,7.184,23.567,7.171,23.567
			L7.171,23.567z"/>
		<path id="path8498_2_" fill="#02ABD8" d="M-4.063,7.121C1.709,10.097,7.171,22.63,7.171,22.63
			C12.442,7.441,17.504,3.357,24.063,1.145c-1.569-1.191-9.195-3.774-9.195-3.774s-2.948,2.432-8.096,15.318
			C4.829,7.603,0.177,1.542,0.177,1.542S-2.788,4.91-4.063,7.121z"/>
		
			<linearGradient id="SVGID_1_" gradientUnits="userSpaceOnUse" x1="-5.2188" y1="-110.1543" x2="19.334" y2="-110.1543" gradientTransform="matrix(1 0 0 -1 2.46 -100.8398)">
			<stop  offset="0" style="stop-color:#B0D0DA"/>
			<stop  offset="1" style="stop-color:#0C7C9E"/>
		</linearGradient>
		<path fill="url(#SVGID_1_)" d="M7.056,20.176C5.318,16.646,1.48,9.624-2.759,6.806C-1.891,5.5-0.662,3.984,0.123,3.051
			c1.352,1.875,4.344,6.232,5.773,9.975c0.138,0.359,0.483,0.599,0.868,0.603c0.004,0,0.007,0,0.009,0c0.383,0,0.73-0.234,0.87-0.59
			c3.951-9.896,6.592-13.528,7.492-14.585C17.236-0.821,19.983,0.194,21.794,1C16.064,3.431,11.595,7.951,7.056,20.176L7.056,20.176
			z"/>
	</g>
</g>
</svg>
