<?xml version="1.0" encoding="utf-8"?>
<!-- Generator: Adobe Illustrator 14.0.0, SVG Export Plug-In . SVG Version: 6.00 Build 43363)  -->
<!DOCTYPE svg PUBLIC "-//W3C//DTD SVG 1.1//EN" "http://www.w3.org/Graphics/SVG/1.1/DTD/svg11.dtd">
<svg version="1.1"
	 id="svg2" xmlns:ns="http://creativecommons.org/ns#" xmlns:svg="http://www.w3.org/2000/svg" xmlns:cc="http://web.resource.org/cc/" xmlns:dc="http://purl.org/dc/elements/1.1/" xmlns:rdf="http://www.w3.org/1999/02/22-rdf-syntax-ns#" xmlns:inkscape="http://www.inkscape.org/namespaces/inkscape" xmlns:sodipodi="http://sodipodi.sourceforge.net/DTD/sodipodi-0.dtd" sodipodi:version="0.32" inkscape:version="0.45.1" sodipodi:docname="clob.svg" sodipodi:docbase="C:\Radix\dev\trunk\org.radixware\kernel\designer\src\common.resources\src\org\radixware\kernel\designer\resources\icons\valtype" inkscape:output_extension="org.inkscape.output.svg.inkscape"
	 xmlns="http://www.w3.org/2000/svg" xmlns:xlink="http://www.w3.org/1999/xlink" x="0px" y="0px" width="32px" height="32px"
	 viewBox="-6 -6 32 32" enable-background="new -6 -6 32 32" xml:space="preserve">
<sodipodi:namedview  id="base" showguides="true" inkscape:cy="-41.840088" inkscape:cx="-6.262322" inkscape:zoom="4.3904066" showgrid="false" borderopacity="1.0" bordercolor="#000000" pagecolor="#ffffff" inkscape:window-height="944" inkscape:window-width="1280" inkscape:pageshadow="2" inkscape:pageopacity="0.0" inkscape:current-layer="g5498" inkscape:window-y="-8" inkscape:window-x="-8" inkscape:guide-bbox="true" inkscape:document-units="px">
	<inkscape:grid  type="xygrid" id="grid4392"></inkscape:grid>
</sodipodi:namedview>
<g>
	<g>
		<path fill="#374C9F" d="M2.2,9.179c-0.209,0-0.396-0.128-0.472-0.322L1.107,7.238h-2.715L-2.19,8.846
			c-0.072,0.199-0.262,0.333-0.475,0.333h-1.83c-0.166,0-0.322-0.082-0.416-0.22C-5.005,8.82-5.026,8.646-4.966,8.492l3.327-8.543
			c0.075-0.194,0.262-0.322,0.471-0.322h1.823c0.206,0,0.392,0.127,0.469,0.317l3.421,8.544c0.063,0.154,0.044,0.33-0.051,0.469
			c-0.095,0.138-0.25,0.224-0.418,0.224H2.2V9.179z M0.176,4.79l-0.448-1.202L-0.709,4.79H0.176z"/>
		<path fill="#374C9F" d="M4.997,9.179c-0.279,0-0.506-0.227-0.506-0.505v-8.54c0-0.279,0.227-0.506,0.506-0.506H8.41
			c0.713,0,1.234,0.03,1.599,0.091c0.401,0.068,0.771,0.215,1.091,0.435c0.322,0.219,0.595,0.514,0.806,0.874
			c0.222,0.375,0.333,0.797,0.333,1.255c0,0.498-0.137,0.961-0.402,1.375c-0.092,0.141-0.192,0.269-0.303,0.386
			c0.234,0.155,0.435,0.344,0.603,0.562c0.347,0.454,0.522,0.991,0.522,1.597c0,0.464-0.108,0.92-0.322,1.355
			c-0.217,0.439-0.521,0.8-0.901,1.069C11.05,8.894,10.581,9.062,10.04,9.12C9.73,9.153,9.034,9.172,7.907,9.181
			c0,0-0.002,0-0.004,0H4.997V9.179z M8.317,6.73c0.794,0,1.02-0.029,1.079-0.04c0.158-0.029,0.268-0.088,0.355-0.187
			c0.074-0.081,0.112-0.209,0.112-0.387c0-0.153-0.031-0.272-0.097-0.364C9.706,5.663,9.612,5.596,9.479,5.55
			C9.397,5.521,9.101,5.456,8.115,5.456H7.228V6.73H8.317z M7.852,3.024c0.852,0,1.113-0.016,1.192-0.026
			c0.18-0.021,0.313-0.075,0.4-0.161c0.049-0.048,0.104-0.128,0.104-0.311c0-0.206-0.067-0.283-0.09-0.311
			C9.397,2.148,9.284,2.103,9.125,2.083C9.043,2.074,8.747,2.057,7.711,2.057H7.226v0.966h0.626V3.024z"/>
		<path fill="#374C9F" d="M17.197,9.325c-1.274,0-2.337-0.444-3.164-1.32c-0.818-0.869-1.23-2.056-1.23-3.526
			c0-1.547,0.414-2.777,1.234-3.656c0.831-0.89,1.93-1.341,3.267-1.341c1.172,0,2.146,0.358,2.893,1.064
			c0.454,0.426,0.793,1.032,1.011,1.802c0.037,0.133,0.021,0.273-0.049,0.395c-0.068,0.118-0.186,0.203-0.317,0.235l-1.708,0.407
			c-0.04,0.009-0.079,0.015-0.119,0.015c-0.092,0-0.185-0.025-0.264-0.075c-0.115-0.071-0.199-0.186-0.229-0.316
			c-0.075-0.332-0.224-0.583-0.454-0.768c-0.229-0.184-0.51-0.273-0.854-0.273c-0.483,0-0.864,0.165-1.159,0.507
			c-0.31,0.358-0.469,0.99-0.469,1.88c0,0.937,0.161,1.623,0.465,1.981c0.293,0.345,0.65,0.508,1.13,0.508
			c0.335,0,0.611-0.103,0.85-0.312c0.247-0.218,0.433-0.592,0.55-1.109c0.032-0.138,0.12-0.255,0.243-0.326
			c0.077-0.044,0.163-0.066,0.249-0.066c0.052,0,0.104,0.008,0.154,0.024l1.673,0.529c0.257,0.082,0.405,0.354,0.334,0.615
			c-0.286,1.038-0.776,1.827-1.46,2.346C19.091,9.063,18.223,9.325,17.197,9.325L17.197,9.325z"/>
	</g>
	<g>
		<path fill="#374C9F" d="M1.124,20.516c-0.259,0-0.468-0.209-0.468-0.469v-8.905c0-0.26,0.209-0.469,0.468-0.469h3.287
			c0.792,0,1.39,0.061,1.826,0.19c0.602,0.178,1.122,0.496,1.551,0.948c0.419,0.441,0.739,0.983,0.954,1.613
			c0.21,0.615,0.316,1.374,0.316,2.256c0,0.78-0.101,1.469-0.299,2.046c-0.245,0.716-0.605,1.306-1.069,1.76
			c-0.362,0.352-0.85,0.628-1.448,0.818c-0.446,0.145-1.015,0.211-1.734,0.211H1.124z M4.266,18.078
			c0.573,0,0.846-0.037,0.972-0.069c0.216-0.054,0.394-0.142,0.527-0.264c0.088-0.079,0.218-0.255,0.336-0.65
			c0.108-0.35,0.162-0.854,0.162-1.492c0-0.638-0.052-1.121-0.156-1.441c-0.098-0.291-0.229-0.517-0.39-0.67
			c-0.156-0.148-0.355-0.245-0.609-0.301c-0.152-0.034-0.512-0.073-1.378-0.073H3.392v4.963h0.874V18.078z"/>
		<path fill="#374C9F" d="M10.115,20.516c-0.26,0-0.469-0.209-0.469-0.469v-8.905c0-0.26,0.209-0.469,0.469-0.469h6.604
			c0.258,0,0.469,0.209,0.469,0.469v1.507c0,0.259-0.211,0.469-0.469,0.469h-4.337v1.037h4c0.26,0,0.469,0.212,0.469,0.469v1.501
			c0,0.257-0.207,0.471-0.469,0.471h-4v1.485h4.507c0.258,0,0.469,0.21,0.469,0.469v1.501c0,0.259-0.211,0.469-0.469,0.469h-6.774
			V20.516z"/>
		<path fill="#374C9F" d="M18.426,20.516c-0.258,0-0.469-0.209-0.469-0.469v-8.905c0-0.26,0.211-0.469,0.469-0.469h6.105
			c0.26,0,0.469,0.209,0.469,0.469v1.507c0,0.259-0.209,0.469-0.469,0.469h-3.837v1.172h3.247c0.258,0,0.469,0.209,0.469,0.471
			v1.504c0,0.26-0.211,0.469-0.469,0.469h-3.247v3.317c0,0.259-0.212,0.469-0.472,0.469h-1.797V20.516z"/>
	</g>
</g>
</svg>
