<?xml version="1.0" encoding="utf-8"?>
<!-- Generator: Adobe Illustrator 14.0.0, SVG Export Plug-In . SVG Version: 6.00 Build 43363)  -->
<!DOCTYPE svg PUBLIC "-//W3C//DTD SVG 1.1//EN" "http://www.w3.org/Graphics/SVG/1.1/DTD/svg11.dtd">
<svg version="1.1"
	 id="svg2" xmlns:ns="http://creativecommons.org/ns#" xmlns:svg="http://www.w3.org/2000/svg" xmlns:cc="http://web.resource.org/cc/" xmlns:dc="http://purl.org/dc/elements/1.1/" xmlns:rdf="http://www.w3.org/1999/02/22-rdf-syntax-ns#" xmlns:inkscape="http://www.inkscape.org/namespaces/inkscape" xmlns:sodipodi="http://sodipodi.sourceforge.net/DTD/sodipodi-0.dtd" sodipodi:version="0.32" inkscape:version="0.45.1" sodipodi:docname="date_time.svg" sodipodi:docbase="C:\Radix\dev\trunk\org.radixware\kernel\designer\src\common.resources\src\org\radixware\kernel\designer\resources\icons\valtype" inkscape:output_extension="org.inkscape.output.svg.inkscape"
	 xmlns="http://www.w3.org/2000/svg" xmlns:xlink="http://www.w3.org/1999/xlink" x="0px" y="0px" width="32px" height="32px"
	 viewBox="-6 -6 32 32" enable-background="new -6 -6 32 32" xml:space="preserve">
<sodipodi:namedview  id="base" showguides="true" inkscape:cy="-41.840088" inkscape:cx="-6.262322" inkscape:zoom="4.3904066" showgrid="false" borderopacity="1.0" bordercolor="#000000" pagecolor="#ffffff" inkscape:window-height="944" inkscape:window-width="1280" inkscape:pageshadow="2" inkscape:pageopacity="0.0" inkscape:current-layer="g5664" inkscape:window-y="-8" inkscape:window-x="-8" inkscape:guide-bbox="true" inkscape:document-units="px">
	<inkscape:grid  type="xygrid" id="grid4392"></inkscape:grid>
</sodipodi:namedview>
<g>
	<g>
		<g>
			<path d="M10,24.996C1.729,24.996-5,18.269-5,10S1.729-4.996,10-4.996c8.27,0,15,6.728,15,14.996S18.27,24.996,10,24.996
				L10,24.996z"/>
			<circle fill="#F9A61C" cx="10" cy="9.999" r="14.06"/>
			
				<linearGradient id="SVGID_1_" gradientUnits="userSpaceOnUse" x1="275.9551" y1="1103.6797" x2="302.2051" y2="1103.6797" gradientTransform="matrix(1 0 0 1 -279.0801 -1093.6797)">
				<stop  offset="0" style="stop-color:#FFF3DF"/>
				<stop  offset="0.5394" style="stop-color:#F9A61E"/>
				<stop  offset="1" style="stop-color:#A36628"/>
			</linearGradient>
			<path fill="url(#SVGID_1_)" d="M10,23.121C2.764,23.121-3.125,17.234-3.125,10C-3.125,2.764,2.764-3.122,10-3.122
				S23.125,2.764,23.125,10C23.125,17.234,17.236,23.121,10,23.121L10,23.121z"/>
			
				<radialGradient id="SVGID_2_" cx="286.4102" cy="1098.7695" r="15.327" gradientTransform="matrix(1 0 0 0.9998 -279.0801 -1093.41)" gradientUnits="userSpaceOnUse">
				<stop  offset="0" style="stop-color:#FFFFFF"/>
				<stop  offset="0.5394" style="stop-color:#F7F7F8"/>
				<stop  offset="1" style="stop-color:#A1A1A2"/>
			</radialGradient>
			<path fill="url(#SVGID_2_)" d="M10,20.247C4.348,20.247-0.25,15.65-0.25,10C-0.25,4.348,4.348-0.247,10-0.247
				c5.652,0,10.251,4.596,10.251,10.247C20.251,15.65,15.652,20.247,10,20.247L10,20.247z"/>
			<rect x="9.088" y="1.329" width="1.823" height="8.671"/>
			<rect x="12.45" y="8.242" transform="matrix(0.7071 -0.7071 0.7071 0.7071 -5.5455 13.3659)" width="1.823" height="10.27"/>
			<circle cx="9.999" cy="10" r="1.649"/>
		</g>
	</g>
</g>
</svg>
