<?xml version="1.0" encoding="utf-8"?>
<!-- Generator: Adobe Illustrator 14.0.0, SVG Export Plug-In . SVG Version: 6.00 Build 43363)  -->
<!DOCTYPE svg PUBLIC "-//W3C//DTD SVG 1.1//EN" "http://www.w3.org/Graphics/SVG/1.1/DTD/svg11.dtd">
<svg version="1.1"
	 id="svg2" xmlns:rdf="http://www.w3.org/1999/02/22-rdf-syntax-ns#" xmlns:svg="http://www.w3.org/2000/svg" xmlns:dc="http://purl.org/dc/elements/1.1/" xmlns:sodipodi="http://sodipodi.sourceforge.net/DTD/sodipodi-0.dtd" xmlns:ns="http://creativecommons.org/ns#" xmlns:cc="http://web.resource.org/cc/" xmlns:inkscape="http://www.inkscape.org/namespaces/inkscape" inkscape:version="0.45.1" sodipodi:docbase="C:\Radix\dev\trunk\org.radixware\kernel\designer\src\common.resources\src\org\radixware\kernel\designer\resources\icons\valtype" sodipodi:docname="java_class.svg" sodipodi:version="0.32" inkscape:output_extension="org.inkscape.output.svg.inkscape"
	 xmlns="http://www.w3.org/2000/svg" xmlns:xlink="http://www.w3.org/1999/xlink" x="0px" y="0px" width="32px" height="32px"
	 viewBox="0 0 32 32" enable-background="new 0 0 32 32" xml:space="preserve">
<sodipodi:namedview  id="base" pagecolor="#ffffff" bordercolor="#000000" borderopacity="1.0" showgrid="true" inkscape:zoom="8.6945992" inkscape:cx="47.475388" inkscape:cy="15.313433" inkscape:pageshadow="2" inkscape:window-width="1280" inkscape:window-height="944" inkscape:window-x="0" inkscape:window-y="44" inkscape:current-layer="g4227" inkscape:pageopacity="0.0" inkscape:document-units="px">
	</sodipodi:namedview>
<g id="layer1_1_" inkscape:label="Layer 1" inkscape:groupmode="layer">
	<path fill="#0A6480" d="M12.068,32c-1.218,0-2.34-0.072-3.432-0.223C7.224,31.646,0.063,30.832,0,28.031
		c0-0.039,0.002-0.076,0.01-0.114c0.328-1.75,2.588-2.065,4.58-2.347c0.313-0.043,0.623-0.086,0.92-0.135l0.537-0.097
		c0.035-0.006,0.067-0.01,0.1-0.01c0.26,0,0.491,0.187,0.542,0.448c0.057,0.297-0.136,0.584-0.433,0.646
		c-0.181,0.036-0.369,0.068-0.562,0.101l-0.116,0.021c-1.644,0.294-3.064,0.546-3.348,0.975c-0.016,0.022-0.048,0.072-0.043,0.182
		c0.853,0.852,3.753,1.346,6.504,1.718c2.107,0.153,3.496,0.218,4.762,0.218c1.335,0,2.55-0.072,4.389-0.181l0.278-0.017
		l0.194-0.037c2.469-0.422,4.799-0.822,6.508-2.618c0.107-0.111,0.253-0.171,0.4-0.171c0.049,0,0.098,0.006,0.146,0.02
		c0.763,0.207,0.772,0.762,0.758,0.928c-0.14,1.512-5.718,3.846-7.769,4.014C16.101,31.807,14.061,32,12.068,32L12.068,32z"/>
	<path fill="#0A6480" d="M12.714,28.492c-1.781,0-3.455-0.182-4.475-0.483c-2.271-1.007-3.182-1.751-3.206-2.597
		c-0.026-0.895,0.918-1.381,1.916-1.896c0.229-0.117,0.462-0.238,0.685-0.363c0.086-0.049,0.179-0.071,0.271-0.071
		c0.175,0,0.346,0.082,0.453,0.235c0.163,0.233,0.12,0.555-0.098,0.738c-0.095,0.079-0.197,0.16-0.301,0.242
		c-0.223,0.178-0.686,0.546-0.709,0.701C7.255,25,7.417,25.411,9.544,25.975c1.107,0.254,2.307,0.385,3.546,0.385
		c3.198,0,5.625-0.877,5.977-1.327c0.106-0.14,0.27-0.214,0.436-0.214c0.068,0,0.143,0.013,0.208,0.041
		c0.368,0.148,1.229,0.5,1.198,1.191c-0.032,0.736-0.936,1.016-2.188,1.398c-0.455,0.14-0.928,0.283-1.287,0.438
		C15.942,28.416,13.838,28.492,12.714,28.492L12.714,28.492z"/>
	<path fill="#0A6480" d="M13.079,25.055c-1.464,0-2.89-0.177-4.237-0.525c-2.427-0.495-5.075-1.586-5.146-3.148
		c-0.043-0.945,0.836-1.691,2.611-2.225c0.053-0.018,0.105-0.023,0.158-0.023c0.235,0,0.453,0.15,0.526,0.387
		c0.091,0.289-0.068,0.597-0.355,0.689c-1.024,0.333-1.228,0.658-1.222,0.721c0.014,0.182,0.735,0.975,4.021,1.522
		c1.408,0.224,2.907,0.341,4.331,0.341c3.309,0,5.316-0.598,5.837-1.189c0.123-0.14,0.111-0.227,0.107-0.265
		c-0.023-0.187,0.051-0.375,0.197-0.495c0.1-0.082,0.224-0.125,0.351-0.125c0.058,0,0.117,0.01,0.175,0.028
		c0.754,0.252,1.623,0.637,1.627,1.377c0.006,0.94-1.392,1.426-3.011,1.987l-0.354,0.123C16.799,24.782,14.918,25.055,13.079,25.055
		L13.079,25.055z"/>
	<path fill="#0A6480" d="M13.357,21.277c-2.9,0-5.424-0.31-6.752-0.826c-2.259-0.73-3.664-1.403-3.596-2.465
		c0.051-0.813,0.813-1.697,5.999-2.678c0.034-0.006,0.069-0.01,0.104-0.01c0.255,0,0.483,0.178,0.538,0.436
		c0.063,0.293-0.119,0.583-0.41,0.652c-2.77,0.664-3.008,1.219-3.01,1.225c0.05,0.049,0.48,0.322,1.236,0.457
		c2.598,0.543,4.834,0.805,6.855,0.805c3.078,0,5.708-0.584,8.539-1.896c0.074-0.033,0.154-0.049,0.231-0.049
		c0.078,0,0.156,0.016,0.228,0.047c0.734,0.334,0.721,0.864,0.679,1.078c-0.298,1.59-5.677,3.023-8.361,3.164
		C14.857,21.257,14.092,21.277,13.357,21.277L13.357,21.277z"/>
	<path fill="#0A6480" d="M21.961,26.01c-0.229,0-0.438-0.143-0.52-0.361c-0.09-0.25,0.009-0.527,0.236-0.662
		c3.033-1.822,6.057-4.612,5.678-6.198c-0.232-0.981-1.91-1.638-4.723-1.841c-0.287-0.02-0.511-0.258-0.513-0.545
		c-0.002-0.287,0.216-0.528,0.502-0.554c0.696-0.064,1.356-0.096,1.958-0.096c4.543,0,5.37,1.842,5.457,2.941
		c0.229,2.832-3.954,6.658-7.988,7.31C22.02,26.007,21.99,26.01,21.961,26.01L21.961,26.01z"/>
	<path fill="#ED2526" d="M14.279,17.68c-0.145,0-0.287-0.058-0.395-0.166c-0.191-0.197-0.21-0.502-0.044-0.722l0.177-0.231
		c2.087-2.732,2.087-2.732,2.062-4.896c0.078-4.356,0.581-7.236,6.623-7.702c0.014-0.001,0.028-0.002,0.042-0.002
		c0.229,0,0.438,0.143,0.518,0.361c0.086,0.232,0.006,0.492-0.191,0.637c-5.094,3.708-4.504,5.599-4.031,7.118
		c0.27,0.866,0.576,1.848-0.411,2.774c-1.086,0.888-1.42,1.068-1.842,1.296c-0.384,0.208-0.862,0.466-2.181,1.425
		C14.506,17.645,14.392,17.68,14.279,17.68L14.279,17.68z"/>
	<path fill="#ED2526" d="M12.884,17.65c-0.094,0-0.188-0.022-0.274-0.071c-2.729-1.561-3.116-2.565-3.653-3.956l-0.064-0.167
		c-0.816-4.231,1.537-6.31,3.813-8.32c1.584-1.4,3.08-2.722,3.586-4.719c0.055-0.215,0.233-0.377,0.453-0.41
		C16.771,0.002,16.8,0,16.827,0c0.188,0,0.368,0.099,0.471,0.264c1.201,1.966-0.967,4.637-3.064,7.219
		c-1.314,1.619-2.674,3.293-2.742,4.321c-0.081,0.504-0.167,2.197,1.84,4.971c0.151,0.211,0.137,0.5-0.037,0.691
		C13.187,17.587,13.037,17.65,12.884,17.65L12.884,17.65z"/>
</g>
<g>
	<path fill="#231F20" d="M31.633,19.818c-0.047-0.027-0.097-0.047-0.146-0.063c-0.059-0.208-0.203-0.385-0.403-0.48l-6.616-3.199
		C24.361,16.025,24.246,16,24.131,16c-0.113,0-0.229,0.025-0.334,0.076l-6.623,3.181c-0.209,0.101-0.354,0.287-0.41,0.505
		c-0.047,0.018-0.092,0.032-0.136,0.059c-0.228,0.143-0.366,0.391-0.366,0.658v7.285c0,0.289,0.162,0.555,0.419,0.688l6.764,3.466
		C23.555,31.973,23.676,32,23.797,32c0.115,0,0.229-0.032,0.336-0.084c0.104,0.051,0.217,0.083,0.332,0.083
		c0.121,0,0.241-0.026,0.352-0.085l6.765-3.467c0.258-0.133,0.42-0.395,0.42-0.686v-7.287C31.999,20.208,31.859,19.96,31.633,19.818
		z"/>
	<polygon fill="#F9A71E" points="24.465,23.907 31.227,20.479 31.227,27.764 24.465,31.229 	"/>
	
		<linearGradient id="SVGID_1_" gradientUnits="userSpaceOnUse" x1="586.1191" y1="-924.7002" x2="591.5371" y2="-924.7002" gradientTransform="matrix(1 0 0 -1 -560.9805 -898.8789)">
		<stop  offset="0" style="stop-color:#FFF3E1"/>
		<stop  offset="0.5394" style="stop-color:#F9A71E"/>
		<stop  offset="1" style="stop-color:#A26829"/>
	</linearGradient>
	<polygon fill="url(#SVGID_1_)" points="25.139,24.293 30.557,21.545 30.557,27.354 25.139,30.098 	"/>
	<polygon fill="#F9A71E" points="17.032,27.764 17.032,20.479 23.797,23.895 23.797,31.229 	"/>
	
		<linearGradient id="SVGID_2_" gradientUnits="userSpaceOnUse" x1="584.0303" y1="-924.7109" x2="578.04" y2="-924.7109" gradientTransform="matrix(1 0 0 -1 -560.9805 -898.8789)">
		<stop  offset="0" style="stop-color:#FFF3E1"/>
		<stop  offset="0.5394" style="stop-color:#F9A71E"/>
		<stop  offset="1" style="stop-color:#A26829"/>
	</linearGradient>
	<polygon fill="url(#SVGID_2_)" points="17.704,27.354 17.704,21.568 23.124,24.318 23.124,30.098 	"/>
	<polygon fill="#F9A71E" points="17.508,19.951 24.131,16.771 30.747,19.971 24.127,23.309 	"/>
	
		<linearGradient id="SVGID_3_" gradientUnits="userSpaceOnUse" x1="585.1035" y1="-921.4434" x2="585.1035" y2="-916.3945" gradientTransform="matrix(1 0 0 -1 -560.9805 -898.8789)">
		<stop  offset="0" style="stop-color:#FFF3E1"/>
		<stop  offset="0.5394" style="stop-color:#F9A71E"/>
		<stop  offset="1" style="stop-color:#A26829"/>
	</linearGradient>
	<polygon fill="url(#SVGID_3_)" points="18.997,19.964 24.131,17.516 29.249,19.961 24.131,22.564 	"/>
</g>
</svg>
