<?xml version="1.0" encoding="utf-8"?>
<!-- Generator: Adobe Illustrator 14.0.0, SVG Export Plug-In . SVG Version: 6.00 Build 43363)  -->
<!DOCTYPE svg PUBLIC "-//W3C//DTD SVG 1.1//EN" "http://www.w3.org/Graphics/SVG/1.1/DTD/svg11.dtd">
<svg version="1.1"
	 id="svg2" xmlns:rdf="http://www.w3.org/1999/02/22-rdf-syntax-ns#" xmlns:svg="http://www.w3.org/2000/svg" xmlns:dc="http://purl.org/dc/elements/1.1/" xmlns:sodipodi="http://sodipodi.sourceforge.net/DTD/sodipodi-0.dtd" xmlns:cc="http://web.resource.org/cc/" xmlns:inkscape="http://www.inkscape.org/namespaces/inkscape" inkscape:version="0.45.1" sodipodi:docbase="C:\Radix\dev\trunk\org.radixware\kernel\designer\src\common.resources\src\org\radixware\kernel\designer\resources\icons\valtype" sodipodi:docname="java_type.svg" sodipodi:version="0.32" inkscape:output_extension="org.inkscape.output.svg.inkscape"
	 xmlns="http://www.w3.org/2000/svg" xmlns:xlink="http://www.w3.org/1999/xlink" x="0px" y="0px" width="32px" height="32px"
	 viewBox="0 0 32 32" enable-background="new 0 0 32 32" xml:space="preserve">
<sodipodi:namedview  id="base" pagecolor="#ffffff" bordercolor="#000000" borderopacity="1.0" showgrid="true" inkscape:zoom="27" inkscape:cx="10" inkscape:cy="10" inkscape:pageshadow="2" inkscape:window-width="1080" inkscape:window-height="738" inkscape:window-x="100" inkscape:window-y="%window-y" inkscape:current-layer="layer1" inkscape:pageopacity="0.0" inkscape:document-units="px">
	</sodipodi:namedview>
<g id="layer1" inkscape:label="Layer 1" inkscape:groupmode="layer">
	<path fill="#0A6480" d="M13.045,32c-1.218,0-2.341-0.072-3.432-0.223c-1.412-0.131-8.573-0.945-8.636-3.746
		c0-0.039,0.002-0.076,0.009-0.114c0.328-1.75,2.587-2.065,4.581-2.347c0.313-0.043,0.622-0.086,0.919-0.135l0.538-0.097
		c0.034-0.006,0.067-0.01,0.1-0.01c0.26,0,0.491,0.187,0.542,0.448c0.057,0.297-0.136,0.584-0.433,0.646
		c-0.18,0.036-0.368,0.068-0.561,0.101l-0.116,0.021c-1.644,0.294-3.065,0.546-3.348,0.975c-0.016,0.022-0.048,0.072-0.042,0.182
		c0.852,0.852,3.752,1.346,6.504,1.718c2.107,0.153,3.496,0.218,4.761,0.218c1.335,0,2.55-0.072,4.389-0.181l0.278-0.017
		l0.193-0.037c2.47-0.422,4.8-0.822,6.509-2.618c0.106-0.111,0.252-0.171,0.4-0.171c0.049,0,0.097,0.006,0.145,0.02
		c0.764,0.207,0.772,0.762,0.758,0.928c-0.14,1.512-5.717,3.846-7.769,4.014C17.078,31.807,15.038,32,13.045,32L13.045,32z"/>
	<path fill="#0A6480" d="M13.691,28.492c-1.782,0-3.455-0.182-4.474-0.483c-2.272-1.007-3.182-1.751-3.207-2.597
		c-0.026-0.895,0.918-1.381,1.916-1.896c0.229-0.117,0.461-0.238,0.684-0.363c0.086-0.049,0.179-0.071,0.271-0.071
		c0.175,0,0.347,0.082,0.453,0.235c0.164,0.233,0.121,0.555-0.097,0.738c-0.095,0.079-0.198,0.16-0.302,0.242
		c-0.222,0.178-0.686,0.546-0.709,0.701c0.006,0.002,0.168,0.413,2.296,0.977c1.107,0.254,2.307,0.385,3.545,0.385
		c3.199,0,5.625-0.877,5.976-1.327c0.107-0.14,0.271-0.214,0.437-0.214c0.068,0,0.142,0.013,0.208,0.041
		c0.368,0.148,1.229,0.5,1.198,1.191c-0.032,0.736-0.937,1.016-2.188,1.398c-0.455,0.14-0.928,0.283-1.288,0.438
		C16.919,28.416,14.815,28.492,13.691,28.492L13.691,28.492z"/>
	<path fill="#0A6480" d="M14.056,25.055c-1.464,0-2.89-0.177-4.238-0.525c-2.426-0.495-5.075-1.586-5.146-3.148
		c-0.043-0.945,0.836-1.691,2.61-2.225c0.053-0.018,0.106-0.023,0.159-0.023c0.235,0,0.453,0.15,0.526,0.387
		c0.09,0.289-0.068,0.597-0.355,0.689c-1.024,0.333-1.227,0.658-1.222,0.721c0.014,0.182,0.736,0.975,4.021,1.522
		c1.408,0.224,2.907,0.341,4.331,0.341c3.309,0,5.316-0.598,5.838-1.189c0.123-0.14,0.111-0.227,0.107-0.265
		c-0.023-0.187,0.051-0.375,0.196-0.495c0.101-0.082,0.225-0.125,0.352-0.125c0.058,0,0.117,0.01,0.175,0.028
		c0.754,0.252,1.622,0.637,1.626,1.377c0.006,0.94-1.391,1.426-3.01,1.987l-0.355,0.123C17.775,24.782,15.896,25.055,14.056,25.055
		L14.056,25.055z"/>
	<path fill="#0A6480" d="M14.333,21.277c-2.899,0-5.423-0.31-6.752-0.826c-2.258-0.73-3.663-1.403-3.596-2.465
		c0.052-0.813,0.814-1.697,6-2.678c0.035-0.006,0.069-0.01,0.104-0.01c0.255,0,0.483,0.178,0.538,0.436
		c0.063,0.293-0.12,0.583-0.411,0.652c-2.77,0.664-3.007,1.219-3.009,1.225c0.049,0.049,0.479,0.322,1.236,0.457
		c2.598,0.543,4.834,0.805,6.855,0.805c3.076,0,5.709-0.584,8.538-1.896c0.073-0.033,0.152-0.049,0.23-0.049
		s0.156,0.016,0.229,0.047c0.732,0.334,0.721,0.864,0.678,1.078c-0.298,1.59-5.676,3.023-8.359,3.164
		C15.833,21.257,15.069,21.277,14.333,21.277L14.333,21.277z"/>
	<path fill="#0A6480" d="M22.938,26.01c-0.229,0-0.438-0.143-0.519-0.361c-0.09-0.25,0.009-0.527,0.235-0.662
		c3.033-1.822,6.057-4.612,5.679-6.198c-0.233-0.981-1.911-1.638-4.724-1.841c-0.287-0.02-0.51-0.258-0.512-0.545
		c-0.002-0.287,0.215-0.528,0.502-0.554c0.696-0.064,1.355-0.096,1.957-0.096c4.543,0,5.371,1.842,5.457,2.941
		c0.229,2.832-3.953,6.658-7.988,7.31C22.996,26.007,22.967,26.01,22.938,26.01L22.938,26.01z"/>
	<path fill="#ED2526" d="M15.256,17.68c-0.144,0-0.287-0.058-0.395-0.166c-0.192-0.197-0.21-0.502-0.044-0.722l0.177-0.231
		c2.086-2.732,2.086-2.732,2.062-4.896c0.077-4.356,0.58-7.236,6.622-7.702c0.014-0.001,0.027-0.002,0.041-0.002
		c0.229,0,0.438,0.143,0.518,0.361c0.086,0.232,0.007,0.492-0.191,0.637c-5.093,3.708-4.504,5.599-4.03,7.118
		c0.27,0.866,0.575,1.848-0.411,2.774c-1.086,0.888-1.42,1.068-1.842,1.296c-0.385,0.208-0.861,0.466-2.182,1.425
		C15.483,17.645,15.369,17.68,15.256,17.68L15.256,17.68z"/>
	<path fill="#ED2526" d="M13.861,17.65c-0.093,0-0.188-0.022-0.274-0.071c-2.729-1.561-3.116-2.565-3.653-3.956L9.87,13.456
		c-0.817-4.231,1.536-6.31,3.812-8.32c1.584-1.4,3.081-2.722,3.586-4.719c0.055-0.215,0.232-0.377,0.452-0.41
		C17.748,0.002,17.776,0,17.805,0c0.188,0,0.367,0.099,0.471,0.264c1.201,1.966-0.967,4.637-3.063,7.219
		c-1.316,1.62-2.674,3.294-2.744,4.322c-0.081,0.504-0.167,2.197,1.84,4.97c0.151,0.211,0.137,0.5-0.037,0.692
		C14.164,17.587,14.013,17.65,13.861,17.65L13.861,17.65z"/>
</g>
</svg>
