<?xml version="1.0" encoding="utf-8"?>
<!-- Generator: Adobe Illustrator 14.0.0, SVG Export Plug-In . SVG Version: 6.00 Build 43363)  -->
<!DOCTYPE svg PUBLIC "-//W3C//DTD SVG 1.1//EN" "http://www.w3.org/Graphics/SVG/1.1/DTD/svg11.dtd">
<svg version="1.1"
	 id="Layer_1" xmlns:ns="http://creativecommons.org/ns#" xmlns:svg="http://www.w3.org/2000/svg" xmlns:cc="http://web.resource.org/cc/" xmlns:dc="http://purl.org/dc/elements/1.1/" xmlns:rdf="http://www.w3.org/1999/02/22-rdf-syntax-ns#" xmlns:inkscape="http://www.inkscape.org/namespaces/inkscape" xmlns:sodipodi="http://sodipodi.sourceforge.net/DTD/sodipodi-0.dtd" sodipodi:version="0.32" inkscape:version="0.45.1" sodipodi:docname="native_db_type.svg" sodipodi:docbase="C:\Radix\dev\trunk\org.radixware\kernel\designer\src\common.resources\src\org\radixware\kernel\designer\resources\icons\valtype" inkscape:output_extension="org.inkscape.output.svg.inkscape"
	 xmlns="http://www.w3.org/2000/svg" xmlns:xlink="http://www.w3.org/1999/xlink" x="0px" y="0px" width="32px" height="32px"
	 viewBox="0 0 32 32" enable-background="new 0 0 32 32" xml:space="preserve">
<sodipodi:namedview  id="base" inkscape:cy="19.432936" inkscape:cx="11.392936" inkscape:zoom="5.1044271" guidetolerance="10.0" showgrid="false" gridtolerance="10.0" objecttolerance="10.0" borderopacity="1.0" bordercolor="#666666" pagecolor="#ffffff" inkscape:window-height="944" inkscape:window-width="1280" inkscape:pageshadow="2" inkscape:pageopacity="0.0" inkscape:current-layer="g162" inkscape:window-y="-8" inkscape:window-x="-8">
	</sodipodi:namedview>
<g>
	<path d="M16.697,32c-0.182,0-0.362-0.049-0.521-0.146c-0.297-0.182-0.479-0.504-0.479-0.854V15.809
		c0-0.377,0.212-0.723,0.548-0.894l14.03-7.114c0.144-0.072,0.299-0.107,0.453-0.107c0.182,0,0.362,0.05,0.522,0.147
		c0.296,0.183,0.478,0.504,0.478,0.853v15.117c0,0.375-0.211,0.72-0.545,0.89l-14.031,7.19C17.01,31.965,16.854,32,16.697,32
		L16.697,32z"/>
	<polygon fill="#ED2C29" points="16.697,15.809 30.729,8.691 30.729,23.811 16.697,31 	"/>
	
		<linearGradient id="SVGID_1_" gradientUnits="userSpaceOnUse" x1="15.627" y1="-108.6187" x2="26.876" y2="-108.6187" gradientTransform="matrix(1 0 0 -1 2.46 -88.8398)">
		<stop  offset="0" style="stop-color:#F4959A"/>
		<stop  offset="1" style="stop-color:#901D1E"/>
	</linearGradient>
	<polygon fill="url(#SVGID_1_)" points="18.087,16.611 29.336,10.907 29.336,22.955 18.087,28.65 	"/>
	<path d="M15.305,32c-0.156,0-0.313-0.035-0.455-0.109L0.814,24.699c-0.334-0.17-0.543-0.514-0.543-0.889V8.691
		c0-0.347,0.18-0.668,0.476-0.852c0.16-0.099,0.342-0.148,0.524-0.148c0.153,0,0.309,0.037,0.451,0.107l14.032,7.085
		c0.337,0.171,0.55,0.515,0.55,0.894V31c0,0.35-0.182,0.672-0.479,0.854C15.667,31.951,15.486,32,15.305,32L15.305,32z"/>
	<polygon fill="#ED2C29" points="1.271,23.811 1.271,8.691 15.305,15.777 15.305,31 	"/>
	
		<linearGradient id="SVGID_2_" gradientUnits="userSpaceOnUse" x1="11.3003" y1="-108.6465" x2="-1.1308" y2="-108.6465" gradientTransform="matrix(1 0 0 -1 2.46 -88.8398)">
		<stop  offset="0" style="stop-color:#F4959A"/>
		<stop  offset="1" style="stop-color:#901D1E"/>
	</linearGradient>
	<polygon fill="url(#SVGID_2_)" points="2.664,22.955 2.664,10.964 13.911,16.666 13.911,28.65 	"/>
	<path d="M15.993,15.564c-0.155,0-0.31-0.037-0.452-0.107L1.803,8.491C1.464,8.318,1.251,7.969,1.255,7.589
		C1.26,7.208,1.479,6.861,1.823,6.698l13.743-6.601C15.703,0.033,15.852,0,15.999,0c0.149,0,0.298,0.033,0.437,0.1l13.729,6.64
		c0.343,0.166,0.563,0.512,0.564,0.893c0.002,0.38-0.211,0.729-0.551,0.901l-13.736,6.926
		C16.301,15.529,16.146,15.564,15.993,15.564L15.993,15.564z"/>
	<polygon fill="#ED2C29" points="2.255,7.6 15.999,1 29.729,7.639 15.993,14.564 	"/>
	
		<linearGradient id="SVGID_3_" gradientUnits="userSpaceOnUse" x1="13.5239" y1="-101.8711" x2="13.5239" y2="-91.3828" gradientTransform="matrix(1 0 0 -1 2.46 -88.8398)">
		<stop  offset="0" style="stop-color:#F4959A"/>
		<stop  offset="1" style="stop-color:#901D1E"/>
	</linearGradient>
	<polygon fill="url(#SVGID_3_)" points="5.348,7.628 15.999,2.543 26.62,7.624 15.999,13.031 	"/>
</g>
<g>
	<g>
		<path fill="#231F20" d="M31.998,18.699c0-0.005,0.002-0.01,0.002-0.014c0-0.006-0.002-0.013-0.002-0.019v-0.104
			c0-0.005,0.002-0.01,0.002-0.014C32,16.788,28.828,16,25.687,16c-3.137,0-6.301,0.786-6.313,2.54c0,0.004-0.002,0.005-0.002,0.009
			v2.932c0,0.194,0.045,0.375,0.119,0.547c-0.072,0.168-0.116,0.345-0.117,0.536c0,0.003-0.002,0.006-0.002,0.009v2.932
			c0,0.181,0.042,0.349,0.105,0.51c-0.062,0.156-0.103,0.322-0.104,0.499c0,0.003-0.002,0.005-0.002,0.008v2.932
			c0,1.761,3.172,2.548,6.313,2.548c3.143,0,6.313-0.787,6.313-2.548V26.64c0-0.004,0.002-0.008,0.002-0.013
			c0-0.006-0.002-0.012-0.002-0.018v-0.076c0-0.004,0.002-0.008,0.002-0.013c0-0.182-0.042-0.351-0.105-0.511
			c0.063-0.159,0.104-0.327,0.104-0.506V22.69c0-0.005,0.002-0.008,0.002-0.014s-0.002-0.012-0.002-0.017v-0.076
			c0-0.004,0.002-0.008,0.002-0.012c0-0.195-0.045-0.377-0.119-0.548c0.073-0.171,0.117-0.352,0.117-0.544V18.699z"/>
		
			<linearGradient id="path8001_1_" gradientUnits="userSpaceOnUse" x1="1594.3057" y1="-3102.4951" x2="1608.0267" y2="-3102.4951" gradientTransform="matrix(0.6524 0 0 -0.6524 -1019.9677 -1995.193)">
			<stop  offset="0" style="stop-color:#BFDEEC"/>
			<stop  offset="0.0164" style="stop-color:#B8D3E2"/>
			<stop  offset="0.043" style="stop-color:#A3BCC8"/>
			<stop  offset="0.0667" style="stop-color:#8BA2AF"/>
			<stop  offset="0.5455" style="stop-color:#BFDEEC"/>
			<stop  offset="0.5614" style="stop-color:#C2DCEB"/>
			<stop  offset="0.6708" style="stop-color:#DAEBF3"/>
			<stop  offset="0.7715" style="stop-color:#EDF7F9"/>
			<stop  offset="0.8545" style="stop-color:#F1F8F9"/>
			<stop  offset="0.8593" style="stop-color:#F0F8FA"/>
			<stop  offset="0.8965" style="stop-color:#E9F5F7"/>
			<stop  offset="1" style="stop-color:#E8F5F7"/>
		</linearGradient>
		<path id="path8001_8_" fill="url(#path8001_1_)" d="M31.227,29.452v-2.932c0,0.983-2.479,1.778-5.541,1.778
			c-3.06,0-5.542-0.795-5.542-1.778v2.932c0,0.981,2.481,1.777,5.542,1.777C28.747,31.229,31.227,30.436,31.227,29.452z"/>
		<ellipse id="ellipse8003_8_" fill="#BFDEEC" cx="25.687" cy="26.521" rx="5.542" ry="1.778"/>
		<ellipse id="ellipse8010_8_" fill="#020202" cx="25.687" cy="26.336" rx="5.25" ry="1.675"/>
		
			<linearGradient id="path8044_1_" gradientUnits="userSpaceOnUse" x1="1611.1904" y1="-3100.3281" x2="1597.3118" y2="-3100.3281" gradientTransform="matrix(0.6524 0 0 -0.6524 -1019.9677 -1995.193)">
			<stop  offset="0" style="stop-color:#BFDEEC"/>
			<stop  offset="0.0164" style="stop-color:#B8D3E2"/>
			<stop  offset="0.043" style="stop-color:#A3BCC8"/>
			<stop  offset="0.0667" style="stop-color:#8BA2AF"/>
			<stop  offset="0.5455" style="stop-color:#BFDEEC"/>
			<stop  offset="0.5614" style="stop-color:#C2DCEB"/>
			<stop  offset="0.6708" style="stop-color:#DAEBF3"/>
			<stop  offset="0.7715" style="stop-color:#EDF7F9"/>
			<stop  offset="0.8545" style="stop-color:#F1F8F9"/>
			<stop  offset="0.8593" style="stop-color:#F0F8FA"/>
			<stop  offset="0.8965" style="stop-color:#E9F5F7"/>
			<stop  offset="1" style="stop-color:#E8F5F7"/>
		</linearGradient>
		<path id="path8044_8_" fill="url(#path8044_1_)" d="M25.687,28.19c-2.95,0-5.359-0.738-5.53-1.67
			c-0.008,0.035-0.01,0.07-0.01,0.106c0,0.98,2.479,1.776,5.54,1.776c3.059,0,5.542-0.794,5.542-1.776
			c0-0.036-0.006-0.071-0.011-0.106C31.045,27.452,28.636,28.19,25.687,28.19z"/>
		
			<linearGradient id="path8087_1_" gradientUnits="userSpaceOnUse" x1="1594.3057" y1="-3096.4429" x2="1608.0267" y2="-3096.4429" gradientTransform="matrix(0.6524 0 0 -0.6524 -1019.9677 -1995.193)">
			<stop  offset="0" style="stop-color:#BFDEEC"/>
			<stop  offset="0.0164" style="stop-color:#B8D3E2"/>
			<stop  offset="0.043" style="stop-color:#A3BCC8"/>
			<stop  offset="0.0667" style="stop-color:#8BA2AF"/>
			<stop  offset="0.5455" style="stop-color:#BFDEEC"/>
			<stop  offset="0.5614" style="stop-color:#C2DCEB"/>
			<stop  offset="0.6708" style="stop-color:#DAEBF3"/>
			<stop  offset="0.7715" style="stop-color:#EDF7F9"/>
			<stop  offset="0.8545" style="stop-color:#F1F8F9"/>
			<stop  offset="0.8593" style="stop-color:#F0F8FA"/>
			<stop  offset="0.8965" style="stop-color:#E9F5F7"/>
			<stop  offset="1" style="stop-color:#E8F5F7"/>
		</linearGradient>
		<path id="path8087_8_" fill="url(#path8087_1_)" d="M31.227,25.504v-2.932c0,0.981-2.479,1.776-5.541,1.776
			c-3.06,0-5.542-0.795-5.542-1.776v2.932c0,0.981,2.481,1.777,5.542,1.777C28.747,27.279,31.227,26.485,31.227,25.504z"/>
		<ellipse id="ellipse8089_8_" fill="#BFDEEC" cx="25.687" cy="22.572" rx="5.542" ry="1.777"/>
		<ellipse id="ellipse8096_8_" fill="#020202" cx="25.687" cy="22.39" rx="5.25" ry="1.674"/>
		
			<linearGradient id="path8130_1_" gradientUnits="userSpaceOnUse" x1="1611.1865" y1="-3094.2754" x2="1597.3077" y2="-3094.2754" gradientTransform="matrix(0.6524 0 0 -0.6524 -1019.9677 -1995.193)">
			<stop  offset="0" style="stop-color:#BFDEEC"/>
			<stop  offset="0.0164" style="stop-color:#B8D3E2"/>
			<stop  offset="0.043" style="stop-color:#A3BCC8"/>
			<stop  offset="0.0667" style="stop-color:#8BA2AF"/>
			<stop  offset="0.5455" style="stop-color:#BFDEEC"/>
			<stop  offset="0.5614" style="stop-color:#C2DCEB"/>
			<stop  offset="0.6708" style="stop-color:#DAEBF3"/>
			<stop  offset="0.7715" style="stop-color:#EDF7F9"/>
			<stop  offset="0.8545" style="stop-color:#F1F8F9"/>
			<stop  offset="0.8593" style="stop-color:#F0F8FA"/>
			<stop  offset="0.8965" style="stop-color:#E9F5F7"/>
			<stop  offset="1" style="stop-color:#E8F5F7"/>
		</linearGradient>
		<path id="path8130_8_" fill="url(#path8130_1_)" d="M25.687,24.243c-2.95,0-5.359-0.737-5.53-1.671
			c-0.008,0.036-0.01,0.069-0.01,0.104c0,0.982,2.479,1.777,5.54,1.777c3.059,0,5.542-0.795,5.542-1.777
			c0-0.035-0.006-0.07-0.011-0.104C31.045,23.505,28.636,24.243,25.687,24.243z"/>
		
			<linearGradient id="path8173_1_" gradientUnits="userSpaceOnUse" x1="1594.3057" y1="-3090.2773" x2="1608.0267" y2="-3090.2773" gradientTransform="matrix(0.6524 0 0 -0.6524 -1019.9677 -1995.193)">
			<stop  offset="0" style="stop-color:#BFDEEC"/>
			<stop  offset="0.0164" style="stop-color:#B8D3E2"/>
			<stop  offset="0.043" style="stop-color:#A3BCC8"/>
			<stop  offset="0.0667" style="stop-color:#8BA2AF"/>
			<stop  offset="0.5455" style="stop-color:#BFDEEC"/>
			<stop  offset="0.5614" style="stop-color:#C2DCEB"/>
			<stop  offset="0.6708" style="stop-color:#DAEBF3"/>
			<stop  offset="0.7715" style="stop-color:#EDF7F9"/>
			<stop  offset="0.8545" style="stop-color:#F1F8F9"/>
			<stop  offset="0.8593" style="stop-color:#F0F8FA"/>
			<stop  offset="0.8965" style="stop-color:#E9F5F7"/>
			<stop  offset="1" style="stop-color:#E8F5F7"/>
		</linearGradient>
		<path id="path8173_8_" fill="url(#path8173_1_)" d="M31.227,21.48v-2.932c0,0.981-2.479,1.778-5.541,1.778
			c-3.06,0-5.542-0.796-5.542-1.778v2.932c0,0.982,2.481,1.779,5.542,1.779C28.747,23.26,31.227,22.463,31.227,21.48z"/>
		<ellipse id="ellipse8175_8_" fill="#BFDEEC" cx="25.687" cy="18.549" rx="5.542" ry="1.778"/>
		
			<linearGradient id="path8202_1_" gradientUnits="userSpaceOnUse" x1="1611.1904" y1="-3088.1567" x2="1597.3118" y2="-3088.1567" gradientTransform="matrix(0.6524 0 0 -0.6524 -1019.9677 -1995.193)">
			<stop  offset="0" style="stop-color:#BFDEEC"/>
			<stop  offset="0.0164" style="stop-color:#B8D3E2"/>
			<stop  offset="0.043" style="stop-color:#A3BCC8"/>
			<stop  offset="0.0667" style="stop-color:#8BA2AF"/>
			<stop  offset="0.5455" style="stop-color:#BFDEEC"/>
			<stop  offset="0.5614" style="stop-color:#C2DCEB"/>
			<stop  offset="0.6708" style="stop-color:#DAEBF3"/>
			<stop  offset="0.7715" style="stop-color:#EDF7F9"/>
			<stop  offset="0.8545" style="stop-color:#F1F8F9"/>
			<stop  offset="0.8593" style="stop-color:#F0F8FA"/>
			<stop  offset="0.8965" style="stop-color:#E9F5F7"/>
			<stop  offset="1" style="stop-color:#E8F5F7"/>
		</linearGradient>
		<path id="path8202_9_" fill="url(#path8202_1_)" d="M25.687,20.252c-2.95,0-5.359-0.737-5.53-1.673
			c-0.008,0.035-0.01,0.072-0.01,0.106c0,0.982,2.479,1.778,5.54,1.778c3.059,0,5.542-0.799,5.542-1.778
			c0-0.036-0.006-0.071-0.011-0.106C31.045,19.515,28.636,20.252,25.687,20.252L25.687,20.252z"/>
	</g>
</g>
</svg>
