<?xml version="1.0" encoding="utf-8"?>
<!-- Generator: Adobe Illustrator 14.0.0, SVG Export Plug-In . SVG Version: 6.00 Build 43363)  -->
<!DOCTYPE svg PUBLIC "-//W3C//DTD SVG 1.1//EN" "http://www.w3.org/Graphics/SVG/1.1/DTD/svg11.dtd">
<svg version="1.1" id="Layer_1" xmlns="http://www.w3.org/2000/svg" xmlns:xlink="http://www.w3.org/1999/xlink" x="0px" y="0px"
	 width="32px" height="32px" viewBox="0 0 32 32" enable-background="new 0 0 32 32" xml:space="preserve">
<g id="g3959_1_" transform="translate(-187.4472,598.42658)">
	
		<path id="path3957_1_" original="M 210.0625 418.0625 C 209.54763 418.14377 209.0931 418.41531 208.75 418.78125 L 208.75 418.8125 C 205.4688 422.17817 203.41218 426.78254 201.78125 431.4375 C 201.57385 431.19666 201.40134 430.96613 201.125 430.71875 C 199.848 429.57635 198.46192 428.51997 196.78125 428.0625 C 195.57448 427.73748 194.32564 428.44156 194 429.65625 C 193.90951 429.99266 193.9752 430.32889 194.03125 430.65625 C 194.033 430.66647 194.02936 430.67731 194.03125 430.6875 C 194.02646 430.69997 194.01024 430.71667 194 430.75 C 194.0001 430.74927 194.00089 430.7795 194 430.78125 C 193.67146 432.00113 194.41493 433.23659 195.625 433.5625 C 195.92533 433.64382 197.09116 434.3218 198.09375 435.21875 C 199.10442 436.12292 200.11611 437.28204 200.8125 438.21875 C 201.3237 438.93259 202.18198 439.26479 203.03125 439.125 C 203.89024 438.98335 204.59229 438.35986 204.84375 437.53125 C 206.60831 431.89239 208.85044 426.28509 211.96875 423.09375 C 212.55487 422.52528 212.73973 421.71103 212.5625 420.9375 C 212.70463 420.4283 212.69115 419.86445 212.4375 419.34375 C 212.00722 418.46048 211.05008 417.92692 210.0625 418.0625 z " radius="0.50615293" type="offset" d="
		M204.824-591.924c-0.639,0.102-1.178,0.436-1.586,0.871c0,0.011,0,0.021,0,0.032c-0.034,0.026-0.066,0.058-0.092,0.093
		c0,0.01,0,0.021,0,0.031c-3.103,3.232-5.081,7.5-6.655,11.844c-0.052-0.053-0.062-0.102-0.123-0.154
		c-1.29-1.154-2.744-2.279-4.54-2.769c-1.461-0.391-2.994,0.488-3.388,1.96c-0.11,0.414-0.021,0.758,0.031,1.059
		c0.002,0.01-0.002,0.021,0,0.029c0.006,0.033-0.006,0.092,0,0.123c-0.027-0.16-0.035-0.152,0,0.031c-0.004,0-0.031,0-0.031,0
		c-0.314,1.439,0.569,2.883,1.99,3.264c-0.016-0.002,0.098,0.045,0.249,0.123c0.152,0.082,0.344,0.176,0.56,0.313
		c0.433,0.277,0.957,0.666,1.431,1.09c0.965,0.861,1.97,1.988,2.642,2.891c0.009,0.012,0.021,0.018,0.031,0.029
		c0.624,0.844,1.664,1.258,2.674,1.088c1.044-0.17,1.871-0.92,2.175-1.928c1.743-5.566,3.998-11.085,6.963-14.143
		c0.014-0.01,0.021-0.021,0.031-0.031c0.631-0.631,0.834-1.528,0.715-2.362c0.172-0.606,0.156-1.288-0.156-1.928
		c-0.52-1.071-1.688-1.72-2.891-1.555C204.846-591.924,204.832-591.924,204.824-591.924L204.824-591.924z M188.846-578.837
		l0.093,0.031c0,0-0.338,0.027-0.437,0.031L188.846-578.837L188.846-578.837z"/>
	<path id="path5072_1_" fill="#326C1F" d="M204.973-589.924c-0.369,0.058-0.711,0.24-0.965,0.518
		c-3.388,3.466-5.425,8.394-7.1,13.337c-0.46-0.486-0.804-0.994-1.311-1.447c-1.242-1.113-2.55-2.102-4.066-2.514
		c-0.885-0.24-1.796,0.287-2.034,1.17c-0.236,0.887,0.288,1.797,1.172,2.037c0.559,0.15,1.678,0.816,2.723,1.756
		c1.046,0.934,2.072,2.1,2.791,3.07c0.367,0.51,0.994,0.77,1.618,0.668c0.621-0.102,1.13-0.551,1.314-1.154
		c1.763-5.637,3.986-11.288,7.234-14.612c0.514-0.498,0.648-1.269,0.336-1.912C206.373-589.651,205.68-590.024,204.973-589.924
		L204.973-589.924z"/>
	
		<linearGradient id="path2157_2_" gradientUnits="userSpaceOnUse" x1="961.3954" y1="-1106.033" x2="958.2574" y2="-1097.5752" gradientTransform="matrix(1.0934 0 0 -1.0948 -849.2966 -1785.2322)">
		<stop  offset="0" style="stop-color:#0E7E0E"/>
		<stop  offset="1" style="stop-color:#73D854"/>
	</linearGradient>
	<path id="path2157_1_" fill="url(#path2157_2_)" d="M204.973-591.028c-0.369,0.059-0.711,0.241-0.965,0.518
		c-3.388,3.465-5.425,8.397-7.1,13.338c-0.46-0.488-0.804-0.994-1.311-1.447c-1.242-1.115-2.55-2.104-4.066-2.516
		c-0.885-0.236-1.796,0.287-2.034,1.17c-0.236,0.887,0.288,1.799,1.172,2.035c0.559,0.152,1.678,0.822,2.723,1.758
		c1.046,0.936,2.072,2.1,2.791,3.066c0.367,0.514,0.994,0.773,1.618,0.672c0.621-0.102,1.13-0.549,1.314-1.152
		c1.763-5.639,3.986-11.288,7.234-14.613c0.514-0.498,0.648-1.269,0.336-1.911C206.373-590.756,205.68-591.125,204.973-591.028
		L204.973-591.028z"/>
</g>
<g id="g3959" transform="translate(-187.4472,598.42658)">
	
		<path id="path3957" original="M 210.0625 418.0625 C 209.54763 418.14377 209.0931 418.41531 208.75 418.78125 L 208.75 418.8125 C 205.4688 422.17817 203.41218 426.78254 201.78125 431.4375 C 201.57385 431.19666 201.40134 430.96613 201.125 430.71875 C 199.848 429.57635 198.46192 428.51997 196.78125 428.0625 C 195.57448 427.73748 194.32564 428.44156 194 429.65625 C 193.90951 429.99266 193.9752 430.32889 194.03125 430.65625 C 194.033 430.66647 194.02936 430.67731 194.03125 430.6875 C 194.02646 430.69997 194.01024 430.71667 194 430.75 C 194.0001 430.74927 194.00089 430.7795 194 430.78125 C 193.67146 432.00113 194.41493 433.23659 195.625 433.5625 C 195.92533 433.64382 197.09116 434.3218 198.09375 435.21875 C 199.10442 436.12292 200.11611 437.28204 200.8125 438.21875 C 201.3237 438.93259 202.18198 439.26479 203.03125 439.125 C 203.89024 438.98335 204.59229 438.35986 204.84375 437.53125 C 206.60831 431.89239 208.85044 426.28509 211.96875 423.09375 C 212.55487 422.52528 212.73973 421.71103 212.5625 420.9375 C 212.70463 420.4283 212.69115 419.86445 212.4375 419.34375 C 212.00722 418.46048 211.05008 417.92692 210.0625 418.0625 z " radius="0.50615293" type="offset" d="
		M215.333-595.333c-0.639,0.102-1.178,0.437-1.586,0.87c0,0.012,0,0.021,0,0.032c-0.035,0.026-0.066,0.058-0.094,0.093
		c0,0.01,0,0.021,0,0.031c-3.104,3.232-5.08,7.5-6.654,11.844c-0.053-0.055-0.063-0.102-0.123-0.154
		c-1.291-1.154-2.744-2.282-4.54-2.769c-1.462-0.394-2.994,0.487-3.389,1.96c-0.11,0.414-0.02,0.758,0.031,1.057
		c0.002,0.01-0.001,0.021,0,0.031c0.006,0.033-0.006,0.092,0,0.123c-0.027-0.16-0.035-0.154,0,0.031c-0.004,0-0.031,0-0.031,0
		c-0.314,1.44,0.57,2.883,1.99,3.266c-0.017-0.004,0.098,0.043,0.248,0.121c0.152,0.082,0.345,0.176,0.561,0.313
		c0.432,0.277,0.957,0.666,1.43,1.09c0.965,0.861,1.971,1.988,2.641,2.891c0.012,0.014,0.023,0.02,0.033,0.031
		c0.623,0.842,1.664,1.256,2.674,1.086c1.045-0.172,1.871-0.92,2.176-1.928c1.742-5.566,3.998-11.089,6.963-14.143
		c0.012-0.011,0.021-0.021,0.031-0.031c0.631-0.632,0.834-1.529,0.715-2.363c0.172-0.606,0.156-1.288-0.156-1.928
		c-0.52-1.071-1.686-1.72-2.891-1.555C215.354-595.333,215.341-595.333,215.333-595.333L215.333-595.333z M199.354-582.245
		l0.093,0.031c0,0-0.338,0.027-0.436,0.031L199.354-582.245L199.354-582.245z"/>
	<path id="path5072" fill="#326C1F" d="M215.481-593.333c-0.369,0.058-0.713,0.24-0.967,0.517c-3.387,3.466-5.424,8.395-7.1,13.338
		c-0.459-0.486-0.803-0.994-1.309-1.445c-1.242-1.116-2.55-2.106-4.066-2.516c-0.885-0.24-1.797,0.283-2.035,1.17
		c-0.236,0.887,0.288,1.797,1.171,2.036c0.56,0.15,1.679,0.818,2.724,1.756c1.045,0.936,2.071,2.104,2.792,3.072
		c0.365,0.512,0.992,0.771,1.615,0.668c0.621-0.104,1.133-0.551,1.314-1.154c1.766-5.637,3.99-11.289,7.236-14.613
		c0.514-0.498,0.646-1.269,0.336-1.911C216.882-593.06,216.188-593.433,215.481-593.333L215.481-593.333z"/>
	
		<linearGradient id="path2157_3_" gradientUnits="userSpaceOnUse" x1="971.0068" y1="-1102.9187" x2="967.8688" y2="-1094.4611" gradientTransform="matrix(1.0934 0 0 -1.0948 -849.2966 -1785.2322)">
		<stop  offset="0" style="stop-color:#0E7E0E"/>
		<stop  offset="1" style="stop-color:#73D854"/>
	</linearGradient>
	<path id="path2157" fill="url(#path2157_3_)" d="M215.481-594.437c-0.369,0.059-0.713,0.241-0.967,0.518
		c-3.387,3.465-5.424,8.396-7.1,13.339c-0.459-0.488-0.803-0.997-1.309-1.448c-1.242-1.115-2.55-2.104-4.066-2.514
		c-0.885-0.239-1.797,0.285-2.035,1.172c-0.236,0.883,0.288,1.793,1.171,2.032c0.56,0.15,1.679,0.822,2.724,1.758
		c1.045,0.936,2.071,2.102,2.792,3.066c0.365,0.514,0.992,0.773,1.615,0.67c0.621-0.098,1.133-0.547,1.314-1.15
		c1.766-5.639,3.99-11.29,7.236-14.614c0.514-0.498,0.646-1.269,0.336-1.911C216.882-594.165,216.188-594.534,215.481-594.437
		L215.481-594.437z"/>
</g>
</svg>
