<?xml version="1.0" encoding="utf-8"?>
<!-- Generator: Adobe Illustrator 14.0.0, SVG Export Plug-In . SVG Version: 6.00 Build 43363)  -->
<!DOCTYPE svg PUBLIC "-//W3C//DTD SVG 1.1//EN" "http://www.w3.org/Graphics/SVG/1.1/DTD/svg11.dtd">
<svg version="1.1"
	 id="svg2" xmlns:svg="http://www.w3.org/2000/svg" xmlns:cc="http://creativecommons.org/ns#" xmlns:dc="http://purl.org/dc/elements/1.1/" xmlns:rdf="http://www.w3.org/1999/02/22-rdf-syntax-ns#" xmlns:inkscape="http://www.inkscape.org/namespaces/inkscape" xmlns:sodipodi="http://sodipodi.sourceforge.net/DTD/sodipodi-0.dtd" sodipodi:version="0.32" inkscape:version="0.46" sodipodi:docname="_algorithm.svg" sodipodi:docbase="C:\Radix\dev\trunk\org.radixware\kernel\designer\src\common.resources\src\org\radixware\kernel\designer\resources\icons\ads\class" inkscape:output_extension="org.inkscape.output.svg.inkscape"
	 xmlns="http://www.w3.org/2000/svg" xmlns:xlink="http://www.w3.org/1999/xlink" x="0px" y="0px" width="32px" height="32px"
	 viewBox="0 0 32 32" enable-background="new 0 0 32 32" xml:space="preserve">
<path d="M6.625,12.838C6.28,12.838,6,12.558,6,12.213V0.625C6,0.28,6.28,0,6.625,0h18.75C25.721,0,26,0.28,26,0.625v11.588
	c0,0.345-0.279,0.625-0.625,0.625H6.625z"/>
<rect id="rect8920_1_" x="6.625" y="0.625" fill="#02ABD8" width="18.75" height="11.588"/>
<linearGradient id="SVGID_1_" gradientUnits="userSpaceOnUse" x1="4.79" y1="-95.2588" x2="22.29" y2="-95.2588" gradientTransform="matrix(1 0 0 -1 2.46 -88.8398)">
	<stop  offset="0" style="stop-color:#B0D0DA"/>
	<stop  offset="1" style="stop-color:#0C7C9E"/>
</linearGradient>
<rect x="7.25" y="1.25" fill="url(#SVGID_1_)" width="17.5" height="10.338"/>
<polygon points="31.045,29.482 31.045,22.777 31.045,21.777 31.045,21.775 30.045,21.775 30.045,21.777 0.955,21.777 0.955,22.777 
	0.955,22.777 0.955,29.482 0,29.482 1.455,32 2.91,29.482 1.955,29.482 1.955,22.777 30.045,22.777 30.046,29.482 29.091,29.482 
	30.546,32 32,29.482 "/>
<path d="M16,27.381c-0.092,0-0.185-0.02-0.271-0.061l-9.375-4.479C6.138,22.736,6,22.52,6,22.277c0-0.24,0.138-0.461,0.354-0.564
	l9.375-4.479c0.086-0.041,0.178-0.062,0.271-0.062c0.092,0,0.185,0.021,0.271,0.062l9.374,4.479C25.861,21.816,26,22.037,26,22.277
	s-0.139,0.459-0.355,0.563l-9.374,4.48C16.185,27.361,16.092,27.381,16,27.381L16,27.381z"/>
<polygon id="rect8924_1_" fill="#ED2828" points="16,17.798 25.376,22.277 16,26.756 6.625,22.277 "/>
<linearGradient id="SVGID_2_" gradientUnits="userSpaceOnUse" x1="5.6152" y1="-111.1167" x2="21.4658" y2="-111.1167" gradientTransform="matrix(1 0 0 -1 2.46 -88.8398)">
	<stop  offset="0" style="stop-color:#F49599"/>
	<stop  offset="1" style="stop-color:#8E1B1E"/>
</linearGradient>
<polygon fill="url(#SVGID_2_)" points="8.075,22.277 16,18.491 23.926,22.277 16,26.063 "/>
<polygon points="16.5,14.741 16.5,12.479 15.5,12.479 15.5,14.741 14.545,14.741 16,17.258 17.455,14.741 "/>
<polygon points="6,5.387 3.483,3.933 3.483,4.888 0,4.888 0,5.888 3.483,5.888 3.483,6.842 "/>
</svg>
