<?xml version="1.0" encoding="utf-8"?>
<!-- Generator: Adobe Illustrator 14.0.0, SVG Export Plug-In . SVG Version: 6.00 Build 43363)  -->
<!DOCTYPE svg PUBLIC "-//W3C//DTD SVG 1.1//EN" "http://www.w3.org/Graphics/SVG/1.1/DTD/svg11.dtd">
<svg version="1.1"
	 id="svg2" xmlns:svg="http://www.w3.org/2000/svg" xmlns:cc="http://creativecommons.org/ns#" xmlns:dc="http://purl.org/dc/elements/1.1/" xmlns:rdf="http://www.w3.org/1999/02/22-rdf-syntax-ns#" xmlns:inkscape="http://www.inkscape.org/namespaces/inkscape" xmlns:sodipodi="http://sodipodi.sourceforge.net/DTD/sodipodi-0.dtd" sodipodi:version="0.32" inkscape:version="0.46" sodipodi:docname="interface2.svg" inkscape:output_extension="org.inkscape.output.svg.inkscape"
	 xmlns="http://www.w3.org/2000/svg" xmlns:xlink="http://www.w3.org/1999/xlink" x="0px" y="0px" width="32px" height="32px"
	 viewBox="0 0 32 32" enable-background="new 0 0 32 32" xml:space="preserve">
<path d="M25.25,0.003L6.891,0C6.26,0.001,5.748,0.512,5.748,1.143v2.949H3.607c-0.631,0-1.142,0.513-1.143,1.142l0.001,10.61
	c0,0.441,0.261,0.816,0.63,1.004l0.516,8.531c0.037,0.604,0.535,1.074,1.139,1.072l0.855,0.002c0.168-0.002,0.33-0.039,0.477-0.105
	c0.143,0.066,0.305,0.105,0.475,0.105H7.51c0.607,0,1.107-0.479,1.139-1.086l0.236-4.727l0.617,1.721
	c0.162,0.455,0.594,0.758,1.076,0.758h0.582v2.809c0,0.629,0.511,1.143,1.141,1.143h1.047l0,4.93h5.898l-0.002-4.93h0.596
	c0.631,0,1.141-0.514,1.141-1.145v-2.809h0.584c0.48,0,0.914-0.301,1.074-0.756l0.404-1.129l0.251,4.146
	c0.038,0.604,0.534,1.074,1.14,1.074h0.855c0.169-0.002,0.33-0.039,0.475-0.105c0.146,0.066,0.307,0.104,0.478,0.105h0.952
	c0.607,0,1.108-0.48,1.14-1.086l0.425-8.457c0.45-0.152,0.778-0.564,0.777-1.068V5.237c0-0.632-0.512-1.145-1.143-1.145h-2
	l-0.002-2.948C26.393,0.512,25.881,0.003,25.25,0.003z"/>
<polygon fill="#03AAD6" points="8.863,5.234 8.863,17.189 10.578,21.98 12.527,21.977 19.613,21.977 21.563,21.977 23.275,17.189 
	23.275,5.234 "/>
<linearGradient id="SVGID_1_" gradientUnits="userSpaceOnUse" x1="7.5698" y1="-101.8145" x2="19.7002" y2="-101.8145" gradientTransform="matrix(1 0 0 -1 2.4341 -88.7783)">
	<stop  offset="0" style="stop-color:#AECFD9"/>
	<stop  offset="1" style="stop-color:#0C7C9E"/>
</linearGradient>
<polygon fill="url(#SVGID_1_)" points="11.443,20.834 10.004,16.646 10.004,5.234 22.135,5.234 22.134,16.646 20.698,20.838 "/>
<rect x="6.891" y="1.143" fill="#F9A61C" width="18.359" height="4.091"/>
<linearGradient id="SVGID_2_" gradientUnits="userSpaceOnUse" x1="5.5981" y1="-92.5381" x2="21.6729" y2="-92.5381" gradientTransform="matrix(1 0 0 -1 2.4341 -88.7783)">
	<stop  offset="0" style="stop-color:#FFF3DF"/>
	<stop  offset="0.5394" style="stop-color:#F9A61C"/>
	<stop  offset="1" style="stop-color:#A36628"/>
</linearGradient>
<rect x="8.032" y="2.285" fill="url(#SVGID_2_)" width="16.075" height="2.95"/>
<linearGradient id="SVGID_3_" gradientUnits="userSpaceOnUse" x1="9.8677" y1="-112.7324" x2="17.4063" y2="-112.7324" gradientTransform="matrix(1 0 0 -1 2.4341 -88.7783)">
	<stop  offset="0" style="stop-color:#000000"/>
	<stop  offset="0.3515" style="stop-color:#FFFFFF"/>
	<stop  offset="1" style="stop-color:#000000"/>
</linearGradient>
<rect x="12.302" y="21.98" fill="url(#SVGID_3_)" width="7.539" height="3.947"/>
<linearGradient id="SVGID_4_" gradientUnits="userSpaceOnUse" x1="1.1733" y1="-99.3174" x2="6.4292" y2="-99.3174" gradientTransform="matrix(1 0 0 -1 2.4341 -88.7783)">
	<stop  offset="0" style="stop-color:#0C7C9E"/>
	<stop  offset="0.4182" style="stop-color:#AECFD9"/>
	<stop  offset="1" style="stop-color:#0D5168"/>
</linearGradient>
<rect x="3.607" y="5.234" fill="url(#SVGID_4_)" width="5.256" height="10.61"/>
<linearGradient id="SVGID_5_" gradientUnits="userSpaceOnUse" x1="20.7021" y1="-99.3164" x2="25.958" y2="-99.3164" gradientTransform="matrix(1 0 0 -1 2.4341 -88.7783)">
	<stop  offset="0" style="stop-color:#0C7C9E"/>
	<stop  offset="0.4182" style="stop-color:#AECFD9"/>
	<stop  offset="1" style="stop-color:#0D5168"/>
</linearGradient>
<rect x="23.137" y="5.234" fill="url(#SVGID_5_)" width="5.256" height="10.608"/>
<linearGradient id="SVGID_6_" gradientUnits="userSpaceOnUse" x1="1.7456" y1="-109.3555" x2="5.5503" y2="-109.3555" gradientTransform="matrix(1 0 0 -1 2.4341 -88.7783)">
	<stop  offset="0" style="stop-color:#0C7C9E"/>
	<stop  offset="0.4182" style="stop-color:#AECFD9"/>
	<stop  offset="1" style="stop-color:#0D5168"/>
</linearGradient>
<polygon fill="url(#SVGID_6_)" points="4.18,15.844 4.75,25.311 5.604,25.311 5.605,23.953 6.557,23.953 6.557,25.311 7.51,25.311 
	7.984,15.844 "/>
<linearGradient id="SVGID_7_" gradientUnits="userSpaceOnUse" x1="21.4248" y1="-109.3555" x2="25.2314" y2="-109.3555" gradientTransform="matrix(1 0 0 -1 2.4341 -88.7783)">
	<stop  offset="0" style="stop-color:#0C7C9E"/>
	<stop  offset="0.4182" style="stop-color:#AECFD9"/>
	<stop  offset="1" style="stop-color:#0D5168"/>
</linearGradient>
<polygon fill="url(#SVGID_7_)" points="23.859,15.842 24.434,25.313 25.289,25.313 25.288,23.953 26.24,23.953 26.24,25.313 
	27.193,25.313 27.666,15.842 "/>
<linearGradient id="SVGID_8_" gradientUnits="userSpaceOnUse" x1="-364.8149" y1="-193.3203" x2="-362.1726" y2="-195.9627" gradientTransform="matrix(0.7071 -0.7071 -0.7071 -0.7071 135.7305 -365.694)">
	<stop  offset="0" style="stop-color:#000000"/>
	<stop  offset="0.3515" style="stop-color:#FFFFFF"/>
	<stop  offset="1" style="stop-color:#000000"/>
</linearGradient>
<rect x="14.49" y="25.928" fill="url(#SVGID_8_)" width="3.613" height="6.072"/>
<line fill="none" stroke="#000000" x1="28.393" y1="5.234" x2="3.607" y2="5.234"/>
<line fill="none" stroke="#000000" x1="23.137" y1="15.842" x2="28.393" y2="15.842"/>
<line fill="none" stroke="#000000" x1="8.863" y1="15.844" x2="3.607" y2="15.844"/>
</svg>
