<?xml version="1.0" encoding="utf-8"?>
<!-- Generator: Adobe Illustrator 14.0.0, SVG Export Plug-In . SVG Version: 6.00 Build 43363)  -->
<!DOCTYPE svg PUBLIC "-//W3C//DTD SVG 1.1//EN" "http://www.w3.org/Graphics/SVG/1.1/DTD/svg11.dtd">
<svg version="1.1"
	 id="svg2" xmlns:svg="http://www.w3.org/2000/svg" xmlns:cc="http://creativecommons.org/ns#" xmlns:dc="http://purl.org/dc/elements/1.1/" xmlns:rdf="http://www.w3.org/1999/02/22-rdf-syntax-ns#" xmlns:inkscape="http://www.inkscape.org/namespaces/inkscape" xmlns:sodipodi="http://sodipodi.sourceforge.net/DTD/sodipodi-0.dtd" sodipodi:version="0.32" inkscape:version="0.46" sodipodi:docname="msdl_scheme_fields2.svg" sodipodi:docbase="C:\Radix\dev\trunk\org.radixware\kernel\designer\src\common.resources\src\org\radixware\kernel\designer\resources\icons\ads\msdl" inkscape:output_extension="org.inkscape.output.svg.inkscape"
	 xmlns="http://www.w3.org/2000/svg" xmlns:xlink="http://www.w3.org/1999/xlink" x="0px" y="0px" width="32px" height="32px"
	 viewBox="0 0 32 32" enable-background="new 0 0 32 32" xml:space="preserve">
<defs>
	
	
		<inkscape:perspective  id="perspective2887" sodipodi:type="inkscape:persp3d" inkscape:vp_y="0 : 1000 : 0" inkscape:vp_x="0 : 10 : 1" inkscape:vp_z="20 : 10 : 1" inkscape:persp3d-origin="10 : 6.6666667 : 1">
		</inkscape:perspective>
	
		<inkscape:perspective  id="perspective4972" sodipodi:type="inkscape:persp3d" inkscape:vp_y="0 : 1000 : 0" inkscape:vp_x="0 : 16 : 1" inkscape:vp_z="32 : 16 : 1" inkscape:persp3d-origin="16 : 10.666667 : 1">
		</inkscape:perspective>
	
		<inkscape:perspective  id="perspective5213" sodipodi:type="inkscape:persp3d" inkscape:vp_y="0 : 1000 : 0" inkscape:vp_x="0 : 16 : 1" inkscape:vp_z="32 : 16 : 1" inkscape:persp3d-origin="16 : 10.666667 : 1">
		</inkscape:perspective>
</defs>
<sodipodi:namedview  id="base" inkscape:cy="17.001306" inkscape:cx="17.050969" inkscape:zoom="19.79899" showgrid="true" borderopacity="1.0" bordercolor="#000000" pagecolor="#ffffff" inkscape:window-height="750" inkscape:window-width="1080" inkscape:pageshadow="2" inkscape:pageopacity="0.0" inkscape:current-layer="layer1" inkscape:window-y="%window-y" inkscape:window-x="100" inkscape:document-units="px">
	</sodipodi:namedview>
<g>
	<path id="path6086_2_" fill="#231F20" d="M8.447,1.237c0.115,0,0.23,0.021,0.339,0.061l7.428,2.637
		c0.405,0.146,0.677,0.529,0.677,0.958v9.616c0,0.521-0.393,0.951-0.899,1.009l-7.206,2.557c-0.109,0.039-0.224,0.059-0.339,0.059
		s-0.232-0.02-0.339-0.059l-7.295-2.586C0.366,15.368,0,14.975,0,14.509V4.893C0,4.46,0.27,4.077,0.675,3.935l7.432-2.637
		C8.216,1.257,8.332,1.237,8.447,1.237L8.447,1.237z"/>
	<path id="path6090_1_" fill="#231F20" d="M23.554,1.237c0.114,0,0.229,0.021,0.339,0.061l7.432,2.635
		C31.729,4.077,32,4.46,32,4.891v9.616c0,0.522-0.394,0.952-0.899,1.011l-7.206,2.555c-0.11,0.039-0.226,0.059-0.339,0.059
		c-0.115,0-0.23-0.02-0.34-0.059l-7.295-2.586c-0.445-0.12-0.812-0.514-0.812-0.979V4.891c0-0.431,0.272-0.813,0.677-0.958
		l7.43-2.637C23.324,1.257,23.438,1.237,23.554,1.237L23.554,1.237z"/>
	<path id="path6094_1_" fill="#231F20" d="M16.009,13.87c0.115,0,0.229,0.02,0.34,0.059l7.431,2.637
		c0.405,0.145,0.678,0.527,0.678,0.958v9.614c0,0.321-0.153,0.625-0.412,0.816c-0.143,0.104-0.307,0.17-0.478,0.191l-7.219,2.559
		c-0.11,0.04-0.225,0.059-0.34,0.059c-0.114,0-0.229-0.019-0.339-0.059l-7.297-2.587c-0.443-0.123-0.809-0.517-0.809-0.979v-9.614
		c0-0.431,0.271-0.814,0.677-0.959l7.429-2.636C15.78,13.89,15.895,13.87,16.009,13.87L16.009,13.87z"/>
	<polygon id="polygon5202_9_" fill="#AA3B25" points="15.866,4.863 8.437,7.5 8.437,17.116 15.866,14.479 	"/>
	<polygon id="polygon5204_9_" fill="#EAB9B0" points="1.009,4.863 8.437,7.5 8.437,17.116 1.009,14.479 	"/>
	<polygon id="polygon5206_9_" fill="#E08278" points="1.084,4.863 8.437,2.254 15.79,4.863 15.866,4.863 15.83,4.875 15.866,4.89 
		15.79,4.891 8.437,7.5 1.084,4.891 1.009,4.89 1.044,4.875 1.009,4.863 	"/>
	
		<linearGradient id="polygon6538_1_" gradientUnits="userSpaceOnUse" x1="1191.3818" y1="2059.4541" x2="1200.3186" y2="2050.5994" gradientTransform="matrix(-0.5772 0 0 0.5772 703.8387 -1173.7889)">
		<stop  offset="0" style="stop-color:#3A1813"/>
		<stop  offset="1" style="stop-color:#AA3B25;stop-opacity:0"/>
	</linearGradient>
	<polygon id="polygon6538_3_" fill="url(#polygon6538_1_)" points="15.585,5.254 8.697,7.7 8.697,16.613 15.585,14.172 	"/>
	
		<linearGradient id="polygon6548_1_" gradientUnits="userSpaceOnUse" x1="1269.4404" y1="2131.4512" x2="1259.2858" y2="2120.5186" gradientTransform="matrix(-0.5627 0 0 0.5627 714.8846 -1183.787)">
		<stop  offset="0" style="stop-color:#FFF1ED"/>
		<stop  offset="1" style="stop-color:#EAB9B0;stop-opacity:0"/>
	</linearGradient>
	<polygon id="polygon6548_3_" fill="url(#polygon6548_1_)" points="1.507,5.423 8.222,7.802 8.222,16.492 1.507,14.112 	"/>
	
		<linearGradient id="path6572_1_" gradientUnits="userSpaceOnUse" x1="-3267.1519" y1="-2479.1709" x2="-3278.7163" y2="-2479.2002" gradientTransform="matrix(0 -0.6226 0.6226 0 1552.0444 -2025.8989)">
		<stop  offset="0" style="stop-color:#FFFFFF"/>
		<stop  offset="1" style="stop-color:#FFFFFF;stop-opacity:0"/>
	</linearGradient>
	<path id="path6572_9_" fill="url(#path6572_1_)" d="M8.937,7.395l-0.402,9.543h0.006L8.093,7.261L8.937,7.395L8.937,7.395z"/>
	
		<linearGradient id="path6582_1_" gradientUnits="userSpaceOnUse" x1="-1618.2354" y1="2309.5313" x2="-1628.0865" y2="2309.5266" gradientTransform="matrix(0.5857 0.2112 -0.2112 0.5857 1443.6143 -1003.5497)">
		<stop  offset="0" style="stop-color:#FFFFFF"/>
		<stop  offset="1" style="stop-color:#FFFFFF;stop-opacity:0"/>
	</linearGradient>
	<path id="path6582_8_" fill="url(#path6582_1_)" d="M8.411,7.954L1.009,4.863l7.817,2.343L8.411,7.954z"/>
	
		<linearGradient id="path6586_1_" gradientUnits="userSpaceOnUse" x1="1796.207" y1="1078.2236" x2="1786.7281" y2="1078.2152" gradientTransform="matrix(-0.5857 0.2112 0.2112 0.5857 833.4492 -1003.58)">
		<stop  offset="0" style="stop-color:#FFFFFF"/>
		<stop  offset="1" style="stop-color:#FFFFFF;stop-opacity:0"/>
	</linearGradient>
	<path id="path6586_9_" fill="url(#path6586_1_)" d="M8.644,7.919l7.223-3.056L8.229,7.174L8.644,7.919z"/>
	<polygon id="polygon6680_2_" fill="#60A745" points="30.974,4.863 23.544,7.5 23.544,17.116 30.974,14.479 	"/>
	<polygon id="polygon6682_2_" fill="#CDE4B2" points="16.115,4.863 23.544,7.5 23.544,17.116 16.115,14.479 	"/>
	<polygon id="polygon6684_2_" fill="#AAD279" points="16.192,4.863 23.544,2.254 30.898,4.863 30.974,4.863 30.936,4.875 
		30.974,4.89 30.898,4.891 23.544,7.5 16.192,4.891 16.115,4.89 16.153,4.875 16.115,4.863 	"/>
	
		<linearGradient id="polygon6686_1_" gradientUnits="userSpaceOnUse" x1="1188.168" y1="2059.3477" x2="1197.1044" y2="2050.4932" gradientTransform="matrix(-0.5772 0 0 0.5772 717.0897 -1173.7274)">
		<stop  offset="0" style="stop-color:#2B3D20"/>
		<stop  offset="1" style="stop-color:#60A745;stop-opacity:0"/>
	</linearGradient>
	<polygon id="polygon6686_2_" fill="url(#polygon6686_1_)" points="30.692,5.256 23.806,7.7 23.806,16.613 30.692,14.172 	"/>
	
		<linearGradient id="polygon6688_1_" gradientUnits="userSpaceOnUse" x1="1266.1367" y1="2131.3418" x2="1255.9816" y2="2120.4084" gradientTransform="matrix(-0.5627 0 0 0.5627 728.1346 -1183.7264)">
		<stop  offset="0" style="stop-color:#F4F8EC"/>
		<stop  offset="1" style="stop-color:#CDE4B2;stop-opacity:0"/>
	</linearGradient>
	<polygon id="polygon6688_2_" fill="url(#polygon6688_1_)" points="16.615,5.423 23.33,7.802 23.33,16.492 16.615,14.112 	"/>
	
		<linearGradient id="path6690_1_" gradientUnits="userSpaceOnUse" x1="-3267.0547" y1="-2476.1875" x2="-3278.6182" y2="-2476.217" gradientTransform="matrix(0 -0.6226 0.6226 0 1565.2954 -2025.8384)">
		<stop  offset="0" style="stop-color:#FFFFFF"/>
		<stop  offset="1" style="stop-color:#FFFFFF;stop-opacity:0"/>
	</linearGradient>
	<path id="path6690_2_" fill="url(#path6690_1_)" d="M24.045,7.395l-0.402,9.543h0.004l-0.444-9.677L24.045,7.395z"/>
	
		<linearGradient id="path6692_1_" gradientUnits="userSpaceOnUse" x1="-1615.4648" y1="2308.4277" x2="-1625.3162" y2="2308.4231" gradientTransform="matrix(0.5857 0.2112 -0.2112 0.5857 1456.8643 -1003.4891)">
		<stop  offset="0" style="stop-color:#FFFFFF"/>
		<stop  offset="1" style="stop-color:#FFFFFF;stop-opacity:0"/>
	</linearGradient>
	<path id="path6692_2_" fill="url(#path6692_1_)" d="M23.52,7.954l-7.406-3.091l7.819,2.343L23.52,7.954z"/>
	
		<linearGradient id="path6694_1_" gradientUnits="userSpaceOnUse" x1="1793.3691" y1="1079.1445" x2="1783.8903" y2="1079.1362" gradientTransform="matrix(-0.5857 0.2112 0.2112 0.5857 846.6992 -1003.5184)">
		<stop  offset="0" style="stop-color:#FFFFFF"/>
		<stop  offset="1" style="stop-color:#FFFFFF;stop-opacity:0"/>
	</linearGradient>
	<path id="path6694_2_" fill="url(#path6694_1_)" d="M23.752,7.919l7.224-3.056l-7.639,2.311L23.752,7.919z"/>
	<polygon id="polygon6708_2_" fill="#2A7AA8" points="23.43,17.497 16,20.132 16,29.746 23.43,27.111 	"/>
	<polygon id="polygon6710_2_" fill="#B1CDE9" points="8.572,17.497 16,20.132 16,29.746 8.572,27.111 	"/>
	<polygon id="polygon6712_2_" fill="#7CB9E0" points="8.649,17.494 16,14.889 23.353,17.494 23.43,17.497 23.393,17.509 
		23.43,17.521 23.353,17.525 16,20.132 8.649,17.525 8.572,17.521 8.609,17.509 8.572,17.497 	"/>
	
		<linearGradient id="polygon6714_1_" gradientUnits="userSpaceOnUse" x1="1189.5723" y1="2019.4541" x2="1198.5076" y2="2010.6008" gradientTransform="matrix(-0.5772 0 0 0.5772 710.3544 -1138.0673)">
		<stop  offset="0" style="stop-color:#0E293B"/>
		<stop  offset="1" style="stop-color:#2A76A8;stop-opacity:0"/>
	</linearGradient>
	<polygon id="polygon6714_2_" fill="url(#polygon6714_1_)" points="23.148,17.891 16.259,20.332 16.259,29.246 23.148,26.802 	"/>
	
		<linearGradient id="polygon6716_1_" gradientUnits="userSpaceOnUse" x1="1267.5742" y1="2090.417" x2="1257.4216" y2="2079.4866" gradientTransform="matrix(-0.5627 0 0 0.5627 721.4003 -1148.0663)">
		<stop  offset="0" style="stop-color:#EAF6FD"/>
		<stop  offset="1" style="stop-color:#B3D6EC;stop-opacity:0"/>
	</linearGradient>
	<polygon id="polygon6716_2_" fill="url(#polygon6716_1_)" points="9.072,18.054 15.786,20.436 15.786,29.125 9.072,26.744 	"/>
	
		<linearGradient id="path6718_1_" gradientUnits="userSpaceOnUse" x1="-3230.0625" y1="-2477.4907" x2="-3241.6284" y2="-2477.5203" gradientTransform="matrix(0 -0.6226 0.6226 0 1558.561 -1990.1782)">
		<stop  offset="0" style="stop-color:#FFFFFF"/>
		<stop  offset="1" style="stop-color:#FFFFFF;stop-opacity:0"/>
	</linearGradient>
	<path id="path6718_2_" fill="url(#path6718_1_)" d="M16.5,20.027l-0.401,9.542h0.004l-0.448-9.678L16.5,20.027L16.5,20.027z"/>
	
		<linearGradient id="path6720_1_" gradientUnits="userSpaceOnUse" x1="-1629.2358" y1="2274.0811" x2="-1639.0854" y2="2274.0764" gradientTransform="matrix(0.5857 0.2112 -0.2112 0.5857 1450.1328 -967.829)">
		<stop  offset="0" style="stop-color:#FFFFFF"/>
		<stop  offset="1" style="stop-color:#FFFFFF;stop-opacity:0"/>
	</linearGradient>
	<path id="path6720_2_" fill="url(#path6720_1_)" d="M15.974,20.588L8.57,17.496l7.817,2.342L15.974,20.588z"/>
	
		<linearGradient id="path6722_1_" gradientUnits="userSpaceOnUse" x1="1782.0479" y1="1043.9092" x2="1772.5698" y2="1043.9009" gradientTransform="matrix(-0.5857 0.2112 0.2112 0.5857 839.9658 -967.8583)">
		<stop  offset="0" style="stop-color:#FFFFFF"/>
		<stop  offset="1" style="stop-color:#FFFFFF;stop-opacity:0"/>
	</linearGradient>
	<path id="path6722_2_" fill="url(#path6722_1_)" d="M16.206,20.552l7.226-3.055l-7.637,2.308L16.206,20.552z"/>
</g>
</svg>
