<?xml version="1.0" encoding="utf-8"?>
<!-- Generator: Adobe Illustrator 14.0.0, SVG Export Plug-In . SVG Version: 6.00 Build 43363)  -->
<!DOCTYPE svg PUBLIC "-//W3C//DTD SVG 1.1//EN" "http://www.w3.org/Graphics/SVG/1.1/DTD/svg11.dtd">
<svg version="1.1"
	 id="svg2" sodipodi:docname="editor_page_custom.svg" inkscape:version="0.46" sodipodi:version="0.32" sodipodi:docbase="C:\Radix\dev\trunk\org.radixware\kernel\designer\src\common.resources\src\org\radixware\kernel\designer\resources\icons\ads" inkscape:output_extension="org.inkscape.output.svg.inkscape" xmlns:dc="http://purl.org/dc/elements/1.1/" xmlns:cc="http://creativecommons.org/ns#" xmlns:rdf="http://www.w3.org/1999/02/22-rdf-syntax-ns#" xmlns:svg="http://www.w3.org/2000/svg" xmlns:sodipodi="http://sodipodi.sourceforge.net/DTD/sodipodi-0.dtd" xmlns:inkscape="http://www.inkscape.org/namespaces/inkscape"
	 xmlns="http://www.w3.org/2000/svg" xmlns:xlink="http://www.w3.org/1999/xlink" x="0px" y="0px" width="32px" height="32px"
	 viewBox="0 0 32 32" enable-background="new 0 0 32 32" xml:space="preserve">
<defs>
	
	
		<inkscape:perspective  id="perspective26" sodipodi:type="inkscape:persp3d" inkscape:vp_z="20 : 10 : 1" inkscape:vp_x="0 : 10 : 1" inkscape:vp_y="0 : 1000 : 0" inkscape:persp3d-origin="10 : 6.6666667 : 1">
		</inkscape:perspective>
	
		<inkscape:perspective  id="perspective4992" sodipodi:type="inkscape:persp3d" inkscape:vp_z="32 : 16 : 1" inkscape:vp_x="0 : 16 : 1" inkscape:vp_y="0 : 1000 : 0" inkscape:persp3d-origin="16 : 10.666667 : 1">
		</inkscape:perspective>
	
		<inkscape:perspective  id="perspective4132" sodipodi:type="inkscape:persp3d" inkscape:vp_z="32 : 16 : 1" inkscape:vp_x="0 : 16 : 1" inkscape:vp_y="0 : 1000 : 0" inkscape:persp3d-origin="16 : 10.666667 : 1">
		</inkscape:perspective>
	
		<inkscape:perspective  id="perspective4906" sodipodi:type="inkscape:persp3d" inkscape:vp_z="32 : 16 : 1" inkscape:vp_x="0 : 16 : 1" inkscape:vp_y="0 : 1000 : 0" inkscape:persp3d-origin="16 : 10.666667 : 1">
		</inkscape:perspective>
</defs>
<sodipodi:namedview  id="base" pagecolor="#ffffff" bordercolor="#000000" borderopacity="1.0" showgrid="true" inkscape:zoom="9.899495" inkscape:cx="22.336895" inkscape:cy="20.64141" inkscape:current-layer="layer1" inkscape:pageopacity="0.0" inkscape:pageshadow="2" inkscape:window-width="1280" inkscape:window-height="944" inkscape:window-x="0" inkscape:window-y="44" inkscape:document-units="px">
	</sodipodi:namedview>
<g id="Layer_4" transform="translate(31.229453,9.2648671)" display="none">
	<g id="g5" display="inline">
		<g id="g7">
			<path id="path9" fill="#5B4629" d="M44.349,28.99c-2.055-0.177-2.164-3.126-2.105-4.554c0.043-1.049,0.432-2.024,1.098-2.826
				c0.352-0.422,0.615-0.803-0.201-0.793c-2.209,0.031-4.422,0.431-6.615,0.66c-3.297,0.347-6.601,0.41-9.91,0.244
				c-1.588-0.08-2.354,0.129-2.806,1.744c-0.434,1.547-0.006,3.428,0.716,4.814c0.658,1.267,1.659,1.059,2.914,0.976
				c2.221-0.146,4.4-0.493,6.631-0.391c3.455,0.162,6.799,0.779,10.279,0.625C44.671,29.476,44.671,28.976,44.349,28.99
				c-4.135,0.184-8.227-0.894-12.336-0.644c-1.527,0.094-3.051,0.291-4.576,0.409c-1.939,0.151-2.606-0.431-3.099-2.413
				c-0.222-0.894-0.205-1.847-0.048-2.746c0.307-1.756,2.021-1.392,3.236-1.33c2.351,0.119,4.707,0.047,7.055-0.115
				c3.037-0.211,6.063-0.838,9.111-0.838c0.297,0,0.322-0.396,0.066-0.491c-0.021-0.009-0.045-0.017-0.066-0.026
				c-0.086-0.031-0.182,0.008-0.244,0.064c-2.037,1.816-2.922,8.302,0.9,8.63C44.671,29.517,44.669,29.017,44.349,28.99z"/>
		</g>
	</g>
	<g id="g11" display="inline">
		<g id="g13">
			<path id="path15" fill="#5B4629" d="M80.202,13.412c0.539,0.013,1.113,0.147,1.646,0.013c-0.064-0.152-0.129-0.305-0.193-0.457
				c0,0-0.002,0-0.002,0.002c0.125,0.071,0.252,0.144,0.377,0.215c0.018-0.598,0.066-2.324-0.922-2.287
				c-0.924,0.033-1.137,1.617-1.156,2.266c-0.012,0.322,0.49,0.322,0.5,0c0.018-0.525,0.111-1.463,0.645-1.758
				c0.402-0.223,0.438,1.654,0.434,1.781c-0.006,0.199,0.215,0.297,0.377,0.215h0.002c0.262-0.131,0.074-0.525-0.191-0.457
				c-0.48,0.123-1.025-0.02-1.516-0.03C79.88,12.905,79.88,13.405,80.202,13.412L80.202,13.412z"/>
		</g>
	</g>
	<g id="g17" display="inline">
		<g id="g19">
			<path id="path21" fill="#5B4629" d="M73.005,9.422c0.285-0.003,2.33,0.119,2.33-0.062c0,0.171,0.158,0.275,0.314,0.242
				c1.238-0.262,1.457-2.183,1.533-3.204c0.094-1.283-0.055-2.854-0.883-3.895c-0.723-0.909-1.785-0.241-2.4,0.396
				c-1.502,1.558-1.293,4.307-1.146,6.271c0.023,0.319,0.523,0.322,0.5,0c-0.121-1.615-0.172-3.277,0.344-4.833
				c0.309-0.935,1.65-2.548,2.504-1.265c0.527,0.794,0.588,1.924,0.596,2.842c0.01,0.811-0.109,2.979-1.18,3.204
				C75.622,9.2,75.728,9.28,75.833,9.36V9.358c0-0.106-0.074-0.219-0.184-0.241c-0.883-0.187-1.746-0.207-2.646-0.196
				C72.681,8.927,72.681,9.427,73.005,9.422L73.005,9.422z"/>
		</g>
	</g>
	<g id="g23" display="inline">
		<g id="g25">
			<path id="path27" fill="#5B4629" d="M70.458,12.567c0.031,0.912,0.34,2.262,1.443,2.359c0.281,0.024,0.34-0.433,0.066-0.492
				c-0.85-0.185-1.678-0.172-2.541-0.158c0.082,0.084,0.166,0.168,0.25,0.25c-0.104-1.314-0.131-2.641,0.1-3.944
				c-0.08,0.062-0.16,0.123-0.24,0.185c0.572-0.011,1.391-0.16,1.918-0.014c0-0.16,0-0.32,0-0.482
				c-0.006,0.002-0.012,0.004-0.018,0.006c-0.262,0.076-0.223,0.519,0.066,0.49c0.074-0.006,0.15-0.015,0.227-0.021
				c0.318-0.031,0.324-0.477,0-0.5c-1.01-0.074-1.25,1.561-1.271,2.258c-0.012,0.323,0.49,0.322,0.5,0
				c0.014-0.395,0.135-1.805,0.771-1.758c0-0.167,0-0.333,0-0.5c-0.076,0.007-0.152,0.016-0.227,0.021
				c0.021,0.164,0.043,0.328,0.064,0.492c0.006-0.003,0.014-0.005,0.02-0.006c0.234-0.07,0.24-0.415,0-0.482
				c-0.607-0.168-1.424-0.016-2.053-0.004c-0.104,0.002-0.221,0.074-0.24,0.184c-0.238,1.35-0.225,2.715-0.117,4.078
				c0.01,0.134,0.104,0.252,0.25,0.25c0.816-0.014,1.602-0.036,2.408,0.14c0.021-0.164,0.043-0.327,0.064-0.491
				c-0.777-0.068-0.924-1.291-0.941-1.857C70.946,12.246,70.446,12.245,70.458,12.567L70.458,12.567z"/>
		</g>
	</g>
	<g id="g29" display="inline">
		<g id="g31">
			<path id="path33" fill="#5B4629" d="M49.485,23.498c-0.131,1.608-4.305,4.442-0.916,4.571c1.35,0.053,2.639-0.426,4.043-0.336
				c0.832,0.055,1.568,0.113,2.404,0.064c0.475-0.027,0.949-0.068,1.424-0.107c0.756-0.063,0.342-0.449,0.656-0.541
				c-0.188,0.055-0.236,0.279-0.109,0.418c0.346,0.384,0.449,0.592,0.662,0.5c-0.156,0.068-0.146,0.287-0.051,0.394
				c0.188,0.205,0.41,0.488,0.727,0.353c-0.164,0.07-0.137,0.282-0.051,0.394c0.426,0.547,1.443,0.496,2.068,0.563
				c0.674,0.072,1.354,0.106,2.029,0.16c1.043,0.08,1.559,0.604,2.467,1.004c2.879,1.264,3.459-5.958,3.51-7.245
				c0.15-3.682-1.258-6.996-2.174-10.478c-0.727-2.759-3.207-11.69,0.953-12.983c0.268-0.083,0.221-0.491-0.066-0.491
				c-2.246,0-4.473,0.256-6.703,0.488c-2.697,0.28-5.289,0.126-7.982,0.094c-2.479-0.03-4.326,1.215-5.18,3.507
				c-1.088,2.921-0.99,7.026-0.197,9.962c0.5,1.844,1.4,3.5,1.805,5.379C49.108,20.593,49.314,22.05,49.485,23.498
				c0.037,0.315,0.537,0.319,0.5,0c-0.256-2.155-0.547-4.353-1.205-6.427c-0.695-2.195-1.635-3.98-1.781-6.346
				c-0.107-1.731,0.068-3.608,0.326-5.32c0.789-5.241,5.268-4.407,9.35-4.426c2.461-0.011,4.922-0.406,7.371-0.62
				c0.973-0.085,1.953-0.124,2.93-0.124c-0.754,0-0.09-0.904-0.979,0.016c-1.74,1.803-1.631,4.331-1.449,6.692
				c0.23,3.031,0.953,6.068,1.887,8.951c1.375,4.246,2.359,9.297,0.209,13.482c-0.691,1.347-6.877-0.641-7.926-0.19
				c0.156-0.067,0.146-0.286,0.049-0.394c-0.186-0.206-0.41-0.488-0.727-0.354c0.156-0.066,0.146-0.284,0.051-0.393
				c-0.475-0.527-0.373-0.559-0.826-0.426c0.264-0.077,0.221-0.508-0.066-0.491c-2.375,0.142-4.971-0.223-7.279,0.206
				c-0.385,0.071-0.738,0.227-1.131,0.256c-1.646,0.125-0.5-0.992-0.096-1.428c0.723-0.777,1.207-1.605,1.293-2.666
				C50.011,23.177,49.511,23.178,49.485,23.498z"/>
		</g>
	</g>
	<g id="g35" display="inline">
		<g id="g37">
			<path id="path39" fill="#5B4629" d="M70.032,47.712c-0.51,0-1.02,0-1.529,0c-0.148,0-0.234,0.114-0.25,0.25
				c-0.111,0.972-0.031,1.915,0.211,2.859c0.027,0.108,0.131,0.182,0.242,0.184c0.641,0.011,1.363,0.205,1.984,0.024
				c-0.043-0.161-0.088-0.321-0.133-0.482c-0.592,0.229-0.779-0.705-0.797-1.115c-0.008-0.17,0.096-1.26,0.406-1.244
				c-0.021-0.164-0.043-0.328-0.066-0.491c-0.045,0.009-0.09,0.017-0.135,0.024c-0.316,0.061-0.184,0.543,0.133,0.482
				c0.045-0.01,0.09-0.018,0.135-0.025c0.289-0.055,0.203-0.479-0.064-0.49c-0.734-0.035-0.896,1.248-0.908,1.744
				c-0.016,0.74,0.506,1.955,1.432,1.599c0.293-0.113,0.184-0.574-0.133-0.481c-0.563,0.162-1.273-0.033-1.854-0.043
				c0.078,0.063,0.16,0.122,0.24,0.184c-0.232-0.903-0.301-1.799-0.193-2.727c-0.084,0.083-0.168,0.167-0.25,0.25
				c0.51,0,1.02,0,1.529,0C70.355,48.212,70.355,47.712,70.032,47.712z"/>
		</g>
	</g>
	<g id="g41" display="inline">
		<g id="g43">
			<path id="path45" fill="#5B4629" d="M55.53,45.439c-0.266-1.07-0.32-2.145-0.137-3.232c0.1-0.592,1.158-3.268,1.959-2.014
				c0.475,0.742,0.564,1.81,0.596,2.66c0.023,0.645-0.082,1.277-0.334,1.873c-0.354,0.842-1.652,0.537-2.324,0.528
				c-0.322-0.004-0.322,0.496,0,0.5c0.613,0.009,1.826,0.343,2.307-0.179c0.498-0.542,0.75-1.198,0.816-1.932
				c0.119-1.317-0.018-2.987-0.883-4.057c-0.742-0.916-1.744,0.414-2.1,1.006c-0.865,1.438-0.771,3.414-0.383,4.978
				C55.128,45.885,55.608,45.751,55.53,45.439z"/>
		</g>
	</g>
	<g id="g47" display="inline">
		<g id="g49">
			<path id="path51" fill="#5B4629" d="M78.228,45.907c-0.322-0.017-0.648-0.099-0.965,0.009c0.105,0.08,0.211,0.161,0.316,0.241
				c0.037-0.304,0.117-0.649,0.311-0.896c0.088-0.109-0.01-0.115,0.039,0.043c0.082,0.267,0.057,0.576,0.049,0.853
				c-0.01,0.321,0.49,0.321,0.5,0c0.01-0.334,0.064-1.636-0.629-1.45c-0.555,0.146-0.711,0.979-0.77,1.45
				c-0.02,0.157,0.176,0.289,0.316,0.241c0.266-0.09,0.561-0.004,0.832,0.009C78.55,46.424,78.55,45.924,78.228,45.907z"/>
		</g>
	</g>
</g>
<g id="g3366" transform="translate(31.794373,9.4828819)" display="none">
	<g id="g3278" display="inline">
		<g id="g3280">
			<path id="path3282" fill="#5B4629" d="M44.348,28.99c-2.055-0.176-2.164-3.126-2.104-4.554c0.043-1.05,0.43-2.024,1.096-2.825
				c0.354-0.423,0.615-0.805-0.201-0.793c-2.209,0.029-4.422,0.43-6.615,0.66c-3.295,0.346-6.6,0.408-9.909,0.242
				c-1.588-0.08-2.354,0.131-2.806,1.744c-0.434,1.547-0.006,3.43,0.715,4.815c0.658,1.268,1.66,1.059,2.914,0.977
				c2.222-0.147,4.4-0.494,6.631-0.392c3.455,0.162,6.801,0.78,10.279,0.625C44.67,29.475,44.67,28.975,44.348,28.99
				c-4.135,0.185-8.227-0.895-12.336-0.643c-1.527,0.093-3.051,0.291-4.576,0.409c-1.939,0.15-2.606-0.432-3.098-2.415
				c-0.223-0.893-0.205-1.846-0.049-2.744c0.307-1.756,2.022-1.393,3.236-1.332c2.352,0.119,4.709,0.049,7.055-0.114
				c3.037-0.211,6.064-0.838,9.113-0.838c0.295,0,0.32-0.396,0.064-0.491c-0.021-0.009-0.045-0.018-0.066-0.025
				c-0.084-0.033-0.182,0.008-0.244,0.063c-2.037,1.815-2.92,8.302,0.9,8.63C44.67,29.518,44.669,29.018,44.348,28.99z"/>
		</g>
	</g>
	<g id="g3284" display="inline">
		<g id="g3286">
			<path id="path3288" fill="#5B4629" d="M80.202,13.412c0.541,0.012,1.115,0.148,1.646,0.014c-0.064-0.152-0.129-0.306-0.191-0.457
				c-0.002,0-0.002,0-0.002,0c0.125,0.072,0.25,0.145,0.375,0.217c0.018-0.598,0.066-2.324-0.92-2.288
				c-0.924,0.034-1.139,1.616-1.158,2.267c-0.01,0.322,0.49,0.321,0.5,0c0.018-0.525,0.113-1.464,0.645-1.759
				c0.402-0.222,0.438,1.653,0.436,1.781c-0.006,0.2,0.213,0.297,0.375,0.216c0.002,0,0.002,0,0.002-0.001
				c0.262-0.13,0.076-0.524-0.191-0.457c-0.479,0.123-1.025-0.021-1.514-0.03C79.879,12.905,79.879,13.405,80.202,13.412
				L80.202,13.412z"/>
		</g>
	</g>
	<g id="g3290" display="inline">
		<g id="g3292">
			<path id="path3294" fill="#5B4629" d="M73.004,9.421c0.285-0.002,2.33,0.119,2.33-0.061c0,0.17,0.158,0.273,0.316,0.241
				c1.236-0.261,1.457-2.183,1.531-3.203c0.096-1.283-0.055-2.854-0.883-3.895c-0.723-0.909-1.785-0.241-2.4,0.396
				c-1.502,1.558-1.293,4.307-1.146,6.271c0.025,0.318,0.525,0.321,0.5,0c-0.121-1.615-0.172-3.277,0.344-4.833
				c0.309-0.935,1.65-2.548,2.506-1.265c0.525,0.794,0.586,1.924,0.596,2.842c0.008,0.811-0.111,2.979-1.182,3.204
				C75.622,9.2,75.729,9.28,75.833,9.36c0,0,0-0.001,0-0.002c0-0.106-0.074-0.218-0.184-0.241c-0.883-0.188-1.744-0.207-2.646-0.195
				C72.68,8.925,72.68,9.425,73.004,9.421L73.004,9.421z"/>
		</g>
	</g>
	<g id="g3296" display="inline">
		<g id="g3298">
			<path id="path3300" fill="#5B4629" d="M70.458,12.568c0.031,0.912,0.34,2.261,1.443,2.357c0.281,0.025,0.34-0.432,0.066-0.49
				c-0.848-0.186-1.678-0.172-2.541-0.158c0.082,0.083,0.166,0.167,0.25,0.25c-0.102-1.314-0.131-2.641,0.102-3.945
				c-0.08,0.061-0.162,0.123-0.242,0.184c0.574-0.01,1.391-0.159,1.918-0.012c0-0.162,0-0.322,0-0.482
				c-0.006,0.002-0.012,0.004-0.018,0.005c-0.262,0.077-0.223,0.519,0.066,0.491c0.074-0.008,0.15-0.016,0.227-0.022
				c0.318-0.03,0.324-0.476,0-0.5c-1.01-0.073-1.248,1.562-1.271,2.259c-0.01,0.322,0.49,0.321,0.5,0
				c0.014-0.395,0.135-1.806,0.771-1.759c0-0.167,0-0.333,0-0.5c-0.074,0.007-0.15,0.015-0.227,0.022
				c0.021,0.164,0.043,0.326,0.066,0.49c0.006-0.002,0.012-0.004,0.018-0.004c0.236-0.07,0.24-0.416,0-0.482
				c-0.605-0.169-1.424-0.016-2.051-0.006c-0.105,0.002-0.223,0.074-0.242,0.185c-0.238,1.351-0.223,2.716-0.117,4.078
				c0.012,0.134,0.105,0.252,0.25,0.25c0.818-0.015,1.604-0.036,2.408,0.14c0.021-0.164,0.043-0.328,0.066-0.49
				c-0.779-0.068-0.924-1.291-0.943-1.858C70.948,12.246,70.448,12.245,70.458,12.568L70.458,12.568z"/>
		</g>
	</g>
	<g id="g3302" display="inline">
		<g id="g3304">
			<path id="path3306" fill="#5B4629" d="M49.485,23.498c-0.131,1.609-4.305,4.443-0.914,4.572c1.348,0.053,2.637-0.426,4.041-0.336
				c0.834,0.055,1.568,0.113,2.404,0.064c0.477-0.027,0.949-0.069,1.426-0.108c0.754-0.062,0.34-0.449,0.654-0.541
				c-0.186,0.055-0.234,0.278-0.109,0.418c0.346,0.384,0.451,0.592,0.664,0.501c-0.156,0.066-0.148,0.286-0.053,0.393
				c0.188,0.205,0.41,0.488,0.729,0.354c-0.164,0.069-0.139,0.28-0.051,0.394c0.424,0.547,1.441,0.495,2.066,0.563
				c0.674,0.07,1.354,0.105,2.029,0.158c1.043,0.08,1.559,0.605,2.467,1.004c2.879,1.265,3.459-5.956,3.51-7.244
				c0.15-3.681-1.258-6.996-2.174-10.478c-0.727-2.759-3.207-11.689,0.953-12.982c0.268-0.083,0.221-0.491-0.066-0.491
				c-2.244,0-4.473,0.256-6.701,0.488c-2.699,0.28-5.289,0.126-7.984,0.094c-2.477-0.03-4.326,1.215-5.18,3.507
				c-1.088,2.921-0.99,7.027-0.197,9.963c0.5,1.844,1.4,3.5,1.805,5.379C49.108,20.591,49.313,22.05,49.485,23.498
				c0.039,0.316,0.539,0.32,0.5,0c-0.256-2.154-0.547-4.353-1.205-6.427c-0.695-2.194-1.635-3.981-1.781-6.345
				c-0.107-1.732,0.07-3.609,0.328-5.321c0.789-5.241,5.266-4.407,9.348-4.426c2.461-0.011,4.922-0.406,7.371-0.62
				c0.975-0.085,1.953-0.124,2.93-0.124c-0.754,0-0.09-0.904-0.979,0.016c-1.74,1.803-1.629,4.331-1.449,6.692
				c0.23,3.029,0.953,6.066,1.887,8.951c1.375,4.246,2.359,9.296,0.209,13.481c-0.691,1.348-6.877-0.64-7.926-0.19
				c0.156-0.067,0.146-0.286,0.049-0.394c-0.186-0.206-0.408-0.487-0.727-0.353c0.158-0.066,0.148-0.285,0.051-0.393
				c-0.473-0.527-0.373-0.56-0.826-0.427c0.264-0.077,0.223-0.508-0.066-0.491c-2.373,0.142-4.971-0.223-7.279,0.207
				c-0.383,0.07-0.738,0.226-1.131,0.254c-1.646,0.125-0.5-0.992-0.096-1.426c0.723-0.777,1.207-1.605,1.293-2.666
				C50.01,23.175,49.51,23.179,49.485,23.498z"/>
		</g>
	</g>
	<g id="g3308" display="inline">
		<g id="g3310">
			<path id="path3312" fill="#5B4629" d="M70.034,47.711c-0.512,0-1.021,0-1.531,0c-0.146,0-0.234,0.114-0.25,0.25
				c-0.111,0.971-0.031,1.916,0.211,2.859c0.029,0.107,0.131,0.182,0.242,0.184c0.641,0.01,1.363,0.205,1.986,0.024
				c-0.045-0.161-0.09-0.321-0.135-0.481c-0.592,0.229-0.777-0.705-0.797-1.117c-0.008-0.168,0.098-1.258,0.406-1.243
				c-0.021-0.164-0.043-0.327-0.064-0.491c-0.047,0.01-0.092,0.018-0.137,0.025c-0.314,0.06-0.182,0.541,0.133,0.481
				c0.047-0.009,0.092-0.017,0.137-0.024c0.289-0.055,0.203-0.479-0.066-0.491c-0.732-0.035-0.896,1.248-0.908,1.743
				c-0.016,0.742,0.506,1.955,1.432,1.6c0.295-0.113,0.184-0.574-0.133-0.482c-0.563,0.164-1.271-0.033-1.854-0.041
				c0.08,0.062,0.16,0.121,0.24,0.184c-0.232-0.904-0.299-1.799-0.193-2.727c-0.084,0.082-0.168,0.166-0.25,0.25
				c0.51,0,1.021,0,1.531,0C70.356,48.211,70.356,47.711,70.034,47.711z"/>
		</g>
	</g>
	<g id="g3314" display="inline">
		<g id="g3316">
			<path id="path3318" fill="#5B4629" d="M55.532,45.439c-0.268-1.07-0.322-2.144-0.139-3.231c0.1-0.593,1.158-3.268,1.961-2.015
				c0.475,0.742,0.563,1.81,0.594,2.66c0.023,0.646-0.082,1.278-0.334,1.874c-0.354,0.841-1.652,0.537-2.324,0.527
				c-0.322-0.004-0.322,0.496,0,0.5c0.615,0.008,1.826,0.344,2.307-0.179c0.498-0.542,0.75-1.198,0.816-1.932
				c0.121-1.317-0.018-2.987-0.883-4.056c-0.742-0.916-1.744,0.414-2.1,1.006c-0.863,1.438-0.77,3.412-0.383,4.977
				C55.128,45.883,55.608,45.751,55.532,45.439z"/>
		</g>
	</g>
	<g id="g3320" display="inline">
		<g id="g3322">
			<path id="path3324" fill="#5B4629" d="M78.229,45.907c-0.324-0.016-0.65-0.098-0.967,0.01c0.105,0.08,0.211,0.16,0.316,0.24
				c0.037-0.303,0.119-0.648,0.311-0.895c0.088-0.11-0.01-0.115,0.039,0.041c0.082,0.268,0.059,0.578,0.051,0.854
				c-0.012,0.322,0.488,0.321,0.5,0c0.01-0.334,0.063-1.636-0.631-1.449c-0.555,0.146-0.711,0.979-0.77,1.449
				c-0.02,0.158,0.176,0.289,0.316,0.241c0.266-0.091,0.561-0.004,0.832,0.009C78.549,46.422,78.549,45.922,78.229,45.907z"/>
		</g>
	</g>
</g>
<g id="Layer_2" transform="translate(31.794373,9.4828819)" display="none">
	<path id="path3327" display="inline" fill="#808080" stroke="#0000FF" stroke-width="0.5" d="M69.639,29.103
		c-0.186-2.063,0.719-5.809,3.281-6.879c1.346-0.563,1.906,1.686,2.111,2.787c0.283,1.519-1.209,4.092-1.209,4.092
		S70.889,28.416,69.639,29.103z"/>
	<path id="path3329" display="inline" fill="#CCCCCC" stroke="#0000FF" stroke-width="0.5" d="M52.973,35.915
		c4.418,13.199,0.363,11.924,0.264,13.318c-0.158,2.213,17.225,5.146,18.277,3.654c7.564-10.711-6.561-23.773,1.266-30.753
		c-2.531,0.144-11.426,0.949-15.211,0.61C54.014,22.425,50.516,28.571,52.973,35.915z"/>
	<path id="path3331" display="inline" fill="#E6E6E6" stroke="#0000FF" stroke-width="0.5" d="M51.499,46.167
		c-2.188,0.75-1.125,7.625,1.797,6.955c5.113-1.172,15.604,0.123,17.104,0.172c-3.215-1.188-1.984-7.233-0.396-8.152
		c-5.816,1.15-15.504,0.973-18.504,1.089"/>
</g>
<g>
	<path fill="#231F20" d="M20.477,11.757c-1.256,0-2.239-1.209-2.239-2.75c0-0.062,0.006-0.121,0.019-0.18l0.599-3.044
		c0.385-1.733,1.132-2.604,2.223-2.604h5.288c1.091,0,1.837,0.868,2.218,2.581l0.605,3.064c0.011,0.06,0.017,0.12,0.017,0.181
		c0,1.542-0.983,2.749-2.239,2.749h-6.489V11.757z"/>
	<path id="path3186_1_" fill="#1E9046" d="M21.077,4.117c-0.724,0-1.093,0.901-1.302,1.848l-0.601,3.042
		c0,1.007,0.578,1.813,1.302,1.813h3.231h0.024h3.231c0.722,0,1.302-0.806,1.302-1.813l-0.599-3.042
		c-0.209-0.946-0.578-1.848-1.302-1.848h-2.631h-0.026H21.077z"/>
	<path fill="#231F20" d="M12.688,11.81c-1.257,0-2.24-1.208-2.24-2.748c0-0.061,0.005-0.121,0.018-0.181l0.599-3.043
		c0.385-1.735,1.132-2.604,2.224-2.604h5.288c1.091,0,1.836,0.868,2.217,2.582l0.604,3.064c0.013,0.06,0.019,0.12,0.019,0.181
		c0,1.541-0.983,2.748-2.239,2.748H12.688z"/>
	<path id="path3184_1_" fill="#1E9046" d="M13.286,4.172c-0.723,0-1.092,0.899-1.303,1.848l-0.6,3.043
		c0,1.006,0.58,1.811,1.303,1.811h3.23h0.026h3.229c0.724,0,1.304-0.805,1.304-1.811L19.876,6.02
		c-0.211-0.946-0.578-1.848-1.304-1.848h-2.629h-0.028H13.286z"/>
	<path fill="#231F20" d="M2.407,28.82C1.079,28.82,0,27.651,0,26.216V9.361C0,8.005,0.964,6.888,2.189,6.77l0.178-0.916
		C2.851,3.68,3.853,3.229,4.61,3.229h5.291c1.081,0,1.824,0.873,2.207,2.599L12.29,6.76h15.304C28.92,6.76,30,7.928,30,9.361v16.854
		c0,1.436-1.08,2.604-2.406,2.604H2.407z"/>
	<path id="rect3169_1_" fill="#6FBD46" d="M4.61,4.165c-0.723,0-1.111,0.917-1.322,1.865L2.966,7.695H2.407
		c-0.816,0-1.471,0.741-1.471,1.665v16.855c0,0.925,0.654,1.667,1.471,1.667h25.187c0.813,0,1.469-0.742,1.469-1.667V9.361
		c0-0.925-0.655-1.664-1.469-1.664H11.517l-0.322-1.666c-0.212-0.946-0.57-1.864-1.293-1.864H7.255H7.228H4.61V4.165z"/>
	<linearGradient id="SVGID_1_" gradientUnits="userSpaceOnUse" x1="14.9995" y1="5.3335" x2="14.9995" y2="27.0921">
		<stop  offset="0" style="stop-color:#AED58A"/>
		<stop  offset="1" style="stop-color:#1E9046"/>
	</linearGradient>
	<path fill="url(#SVGID_1_)" d="M2.407,26.945c-0.289,0-0.533-0.333-0.533-0.729V9.361c0-0.395,0.244-0.727,0.533-0.727h1.33
		L4.208,6.21c0.208-0.932,0.463-1.121,0.465-1.123l2.555,0.018h2.664c-0.023,0.013,0.186,0.225,0.388,1.131l0.465,2.399h16.85
		c0.287,0,0.531,0.333,0.531,0.729v16.854c0,0.396-0.245,0.729-0.531,0.729H2.407V26.945z"/>
	<path d="M31.508,0.063c-0.097-0.041-0.2-0.062-0.308-0.062L24.559,0c-0.213,0.001-0.415,0.084-0.565,0.234S23.758,0.588,23.759,0.8
		l-0.001,22.774c0,0.009,0.006,0.018,0.007,0.029c0.003,0.088,0.015,0.177,0.047,0.261l2.443,6.259
		c0.007,0.01,0.013,0.016,0.017,0.027c0.007,0.012,0.009,0.027,0.014,0.039l0.688,1.37c0.135,0.27,0.413,0.442,0.715,0.44
		l0.329-0.001c0.216,0.001,0.421-0.086,0.567-0.233c0.06-0.06,0.109-0.129,0.148-0.206l0.69-1.37
		c0.006-0.014,0.007-0.027,0.014-0.04c0.005-0.01,0.012-0.014,0.015-0.023l2.491-6.258c0.034-0.086,0.047-0.177,0.051-0.268
		c0-0.009,0.005-0.018,0.005-0.028L32,0.8c0-0.106-0.022-0.211-0.063-0.308C31.856,0.3,31.701,0.145,31.508,0.063z"/>
	<rect x="24.559" y="0.799" fill="#6FBD46" width="6.643" height="22.772"/>
	
		<linearGradient id="SVGID_2_" gradientUnits="userSpaceOnUse" x1="379.6611" y1="466.29" x2="383.152" y2="469.7809" gradientTransform="matrix(0.7071 -0.7071 0.7071 0.7071 -572.8541 -49.0703)">
		<stop  offset="0" style="stop-color:#AED58A"/>
		<stop  offset="1" style="stop-color:#1E9046"/>
	</linearGradient>
	<polygon fill="url(#SVGID_2_)" points="25.359,22.772 25.357,1.599 30.401,1.6 30.401,22.773 	"/>
	<polygon fill="#F9A61E" points="27.002,29.833 28.709,29.833 31.199,23.572 24.558,23.574 	"/>
	
		<linearGradient id="SVGID_3_" gradientUnits="userSpaceOnUse" x1="369.3506" y1="476.501" x2="372.7015" y2="479.8519" gradientTransform="matrix(0.7071 -0.7071 0.7071 0.7071 -572.8541 -49.0703)">
		<stop  offset="0" style="stop-color:#FFF3DF"/>
		<stop  offset="0.5394" style="stop-color:#F9A61E"/>
		<stop  offset="1" style="stop-color:#A36628"/>
	</linearGradient>
	<polygon fill="url(#SVGID_3_)" points="27.548,29.033 25.729,24.371 30.022,24.373 28.167,29.032 	"/>
	<polygon fill="#231F20" points="27.002,29.833 28.709,29.833 28.02,31.202 27.689,31.201 	"/>
	<rect x="24.559" y="0.8" fill="#ED2828" width="6.643" height="3.424"/>
	
		<linearGradient id="SVGID_4_" gradientUnits="userSpaceOnUse" x1="386.4004" y1="459.3516" x2="390.103" y2="463.054" gradientTransform="matrix(0.7071 -0.7071 0.7071 0.7071 -572.8541 -49.0703)">
		<stop  offset="0" style="stop-color:#F49599"/>
		<stop  offset="1" style="stop-color:#8E1B1E"/>
	</linearGradient>
	<polygon fill="url(#SVGID_4_)" points="25.358,3.428 25.358,1.6 30.401,1.6 30.401,3.426 	"/>
</g>
<g>
	
		<path id="path32024" inkscape:radius="0.73624772" sodipodi:type="inkscape:offset" inkscape:original="M 22.75 15.40625 C 20.899181 15.406265 19.520659 15.824902 18.625 16.6875 C 17.729336 17.550125 17.225951 18.679209 17.09375 20.09375 L 20.9375 20.59375 C 21.023426 19.820384 21.223879 19.279434 21.53125 18.96875 C 21.838612 18.658089 22.218181 18.500013 22.6875 18.5 C 23.123757 18.500012 23.472667 18.579656 23.6875 18.78125 C 23.90232 18.982868 23.999993 19.292709 24 19.65625 C 23.999993 20.019813 23.722907 20.407497 23.1875 20.84375 C 22.182766 21.676625 21.537533 22.263256 21.25 22.59375 C 20.962458 22.92426 20.739167 23.287598 20.59375 23.6875 C 20.448325 24.087414 20.374996 24.60883 20.375 25.25 L 20.375 25.625 L 24.15625 25.625 C 24.156242 25.109421 24.231076 24.695594 24.40625 24.375 C 24.581408 24.054419 25.019876 23.622561 25.6875 23.09375 C 26.645947 22.340212 27.283068 21.709704 27.59375 21.1875 C 27.904411 20.665315 28.062488 20.124364 28.0625 19.5625 C 28.062488 18.207451 27.453019 17.125549 26.25 16.3125 C 25.364243 15.710999 24.190984 15.406265 22.75 15.40625 z M 20.25 26.625 L 20.25 30.1875 L 24.28125 30.1875 L 24.28125 26.625 L 20.25 26.625 z " d="
		M16.173,9.028c-2.153,0-3.889,0.503-5.076,1.646c-1.128,1.086-1.762,2.551-1.92,4.252c-0.031,0.422,0.268,0.795,0.686,0.857
		l4.219,0.549c0.434,0.051,0.828-0.254,0.891-0.686c0.084-0.752,0.314-1.17,0.446-1.303c0.2-0.202,0.353-0.275,0.686-0.275
		c0.381,0,0.554,0.074,0.549,0.069c0.024,0.022,0.069,0.123,0.069,0.378c0-0.012-0.072,0.268-0.584,0.686
		c-1.115,0.924-1.831,1.565-2.229,2.022c-0.373,0.428-0.661,0.9-0.857,1.441c-0.207,0.568-0.309,1.224-0.309,1.988v0.412
		c0.004,0.174,0.063,0.343,0.171,0.48c-0.19,0.148-0.303,0.375-0.309,0.617v3.909c-0.004,0.22,0.081,0.432,0.237,0.587
		c0.154,0.154,0.366,0.24,0.586,0.236h4.424c0.221,0.004,0.432-0.082,0.588-0.236c0.154-0.155,0.24-0.367,0.236-0.587v-3.909
		c-0.006-0.242-0.119-0.469-0.309-0.617c0.107-0.138,0.166-0.307,0.17-0.48c0-0.488,0.074-0.814,0.172-0.994
		c0.066-0.123,0.502-0.612,1.201-1.166c1.086-0.855,1.82-1.554,2.264-2.299c0.404-0.68,0.65-1.427,0.65-2.194
		c0-1.729-0.875-3.245-2.365-4.252C19.317,9.386,17.868,9.028,16.173,9.028z"/>
	<path id="path32022" fill="#FFFFFF" d="M17.774,20.971h-4.136v-0.414c0-0.703,0.079-1.275,0.239-1.714s0.396-0.84,0.713-1.202
		c0.315-0.363,1.024-1.002,2.127-1.915c0.588-0.479,0.881-0.918,0.881-1.316c0-0.399-0.117-0.709-0.354-0.931
		c-0.234-0.222-0.592-0.332-1.071-0.332c-0.515,0-0.941,0.171-1.278,0.511c-0.338,0.342-0.553,0.937-0.647,1.785l-4.222-0.522
		c0.145-1.552,0.709-2.802,1.691-3.749c0.982-0.945,2.49-1.42,4.521-1.42c1.582,0,2.857,0.33,3.83,0.99
		c1.32,0.893,1.98,2.082,1.98,3.569c0,0.616-0.17,1.212-0.512,1.784c-0.34,0.573-1.037,1.274-2.088,2.101
		c-0.734,0.58-1.195,1.047-1.389,1.398C17.87,19.945,17.774,20.404,17.774,20.971L17.774,20.971z M13.497,22.068h4.43v3.907h-4.43
		V22.068z"/>
</g>
</svg>
