<?xml version="1.0" encoding="UTF-8" standalone="no"?>
<!-- Created with Inkscape (http://www.inkscape.org/) -->
<svg
   xmlns:dc="http://purl.org/dc/elements/1.1/"
   xmlns:cc="http://web.resource.org/cc/"
   xmlns:rdf="http://www.w3.org/1999/02/22-rdf-syntax-ns#"
   xmlns:svg="http://www.w3.org/2000/svg"
   xmlns="http://www.w3.org/2000/svg"
   xmlns:xlink="http://www.w3.org/1999/xlink"
   xmlns:sodipodi="http://sodipodi.sourceforge.net/DTD/sodipodi-0.dtd"
   xmlns:inkscape="http://www.inkscape.org/namespaces/inkscape"
   width="48"
   height="48"
   id="svg2"
   sodipodi:version="0.32"
   inkscape:version="0.45.1"
   sodipodi:docbase="C:\Radix\dev\trunk\org.radixware\kernel\designer\src\common.resources\src\org\radixware\kernel\designer\resources\icons\unused"
   sodipodi:docname="previous_error.svg"
   version="1.0"
   inkscape:output_extension="org.inkscape.output.svg.inkscape">
  <defs
     id="defs4">
    <linearGradient
       id="linearGradient9299">
      <stop
         style="stop-color:#797979;stop-opacity:1;"
         offset="0"
         id="stop9301" />
      <stop
         style="stop-color:#919191;stop-opacity:0;"
         offset="1"
         id="stop9303" />
    </linearGradient>
    <linearGradient
       id="linearGradient8416">
      <stop
         style="stop-color:#6e6f7b;stop-opacity:1;"
         offset="0"
         id="stop8418" />
      <stop
         style="stop-color:#c8c8ca;stop-opacity:0;"
         offset="1"
         id="stop8420" />
    </linearGradient>
    <linearGradient
       inkscape:collect="always"
       id="linearGradient8406">
      <stop
         style="stop-color:#000000;stop-opacity:1;"
         offset="0"
         id="stop8408" />
      <stop
         style="stop-color:#000000;stop-opacity:0;"
         offset="1"
         id="stop8410" />
    </linearGradient>
    <linearGradient
       id="linearGradient7525">
      <stop
         style="stop-color:#feaf00;stop-opacity:1;"
         offset="0"
         id="stop7527" />
      <stop
         style="stop-color:#f3f3f3;stop-opacity:1;"
         offset="1"
         id="stop7529" />
    </linearGradient>
    <linearGradient
       inkscape:collect="always"
       id="linearGradient7494">
      <stop
         style="stop-color:#000000;stop-opacity:1;"
         offset="0"
         id="stop7496" />
      <stop
         style="stop-color:#000000;stop-opacity:0;"
         offset="1"
         id="stop7498" />
    </linearGradient>
    <linearGradient
       id="linearGradient6613">
      <stop
         style="stop-color:#d52d09;stop-opacity:1;"
         offset="0"
         id="stop6615" />
      <stop
         style="stop-color:#fe5a00;stop-opacity:1;"
         offset="1"
         id="stop6617" />
    </linearGradient>
    <linearGradient
       id="linearGradient5732">
      <stop
         style="stop-color:#fff5f4;stop-opacity:1;"
         offset="0"
         id="stop5734" />
      <stop
         style="stop-color:#ffffff;stop-opacity:0;"
         offset="1"
         id="stop5736" />
    </linearGradient>
    <linearGradient
       id="linearGradient4847">
      <stop
         style="stop-color:#ffd500;stop-opacity:1;"
         offset="0"
         id="stop4849" />
      <stop
         style="stop-color:#ffe400;stop-opacity:0;"
         offset="1"
         id="stop4851" />
    </linearGradient>
    <linearGradient
       id="linearGradient3964">
      <stop
         style="stop-color:#00043b;stop-opacity:1;"
         offset="0"
         id="stop3966" />
      <stop
         style="stop-color:#757678;stop-opacity:1;"
         offset="1"
         id="stop3968" />
    </linearGradient>
    <linearGradient
       inkscape:collect="always"
       id="linearGradient3083">
      <stop
         style="stop-color:#fe2c00;stop-opacity:1;"
         offset="0"
         id="stop3085" />
      <stop
         style="stop-color:#fe2c00;stop-opacity:0;"
         offset="1"
         id="stop3087" />
    </linearGradient>
    <radialGradient
       inkscape:collect="always"
       xlink:href="#linearGradient4847"
       id="radialGradient7511"
       gradientUnits="userSpaceOnUse"
       gradientTransform="matrix(1.160232,1.710561e-6,-1.566192e-6,1.06231,-3.940223,-1.093313)"
       cx="24.59091"
       cy="17.545443"
       fx="24.59091"
       fy="17.545443"
       r="15.318702" />
    <linearGradient
       inkscape:collect="always"
       xlink:href="#linearGradient6613"
       id="linearGradient7513"
       gradientUnits="userSpaceOnUse"
       x1="32.298267"
       y1="26.939163"
       x2="16.14402"
       y2="19.302797" />
    <linearGradient
       inkscape:collect="always"
       xlink:href="#linearGradient7494"
       id="linearGradient7515"
       gradientUnits="userSpaceOnUse"
       x1="31.480083"
       y1="24.939161"
       x2="10.416746"
       y2="6.3937078" />
    <linearGradient
       inkscape:collect="always"
       xlink:href="#linearGradient3964"
       id="linearGradient7517"
       gradientUnits="userSpaceOnUse"
       x1="31.045456"
       y1="39.863636"
       x2="19.68182"
       y2="35.772728" />
    <linearGradient
       inkscape:collect="always"
       xlink:href="#linearGradient3083"
       id="linearGradient7519"
       gradientUnits="userSpaceOnUse"
       x1="19.045455"
       y1="40.5"
       x2="30.5"
       y2="40.5" />
    <radialGradient
       inkscape:collect="always"
       xlink:href="#linearGradient5732"
       id="radialGradient7521"
       gradientUnits="userSpaceOnUse"
       gradientTransform="matrix(1.962827,-2.736167e-7,3.114784e-7,2.234432,-22.10126,-22.83698)"
       cx="22.954546"
       cy="18.5"
       fx="22.954546"
       fy="18.5"
       r="3.6823382" />
    <linearGradient
       inkscape:collect="always"
       xlink:href="#linearGradient7525"
       id="linearGradient7531"
       x1="37.227272"
       y1="37.090908"
       x2="23.318182"
       y2="15.545455"
       gradientUnits="userSpaceOnUse"
       gradientTransform="matrix(0.7946128,0,0,1,0.9646465,1.5)" />
    <linearGradient
       inkscape:collect="always"
       xlink:href="#linearGradient8406"
       id="linearGradient8412"
       x1="37.227272"
       y1="37.090908"
       x2="9.318182"
       y2="2.1818182"
       gradientUnits="userSpaceOnUse"
       gradientTransform="matrix(0.7946128,0,0,1,0.9646465,1.5)" />
    <linearGradient
       inkscape:collect="always"
       xlink:href="#linearGradient8416"
       id="linearGradient8422"
       x1="21.181818"
       y1="17.5"
       x2="44.363636"
       y2="44.409092"
       gradientUnits="userSpaceOnUse"
       gradientTransform="matrix(0.7974277,0,0,1,0.2411576,0)" />
    <linearGradient
       inkscape:collect="always"
       xlink:href="#linearGradient9299"
       id="linearGradient9305"
       x1="12.045455"
       y1="27"
       x2="17.227272"
       y2="29.27273"
       gradientUnits="userSpaceOnUse" />
  </defs>
  <sodipodi:namedview
     id="base"
     pagecolor="#ffffff"
     bordercolor="#000000"
     borderopacity="1.0"
     inkscape:pageopacity="0.0"
     inkscape:pageshadow="2"
     inkscape:zoom="11"
     inkscape:cx="10"
     inkscape:cy="24.230903"
     inkscape:document-units="px"
     inkscape:current-layer="layer1"
     inkscape:window-width="1080"
     inkscape:window-height="738"
     inkscape:window-x="100"
     inkscape:window-y="0"
     showgrid="true" />
  <metadata
     id="metadata7">
    <rdf:RDF>
      <cc:Work
         rdf:about="">
        <dc:format>image/svg+xml</dc:format>
        <dc:type
           rdf:resource="http://purl.org/dc/dcmitype/StillImage" />
      </cc:Work>
    </rdf:RDF>
  </metadata>
  <g
     inkscape:label="Layer 1"
     inkscape:groupmode="layer"
     id="layer1">
    <path
       style="fill:url(#linearGradient8422);fill-opacity:1;fill-rule:evenodd;stroke:none;stroke-width:1px;stroke-linecap:butt;stroke-linejoin:miter;stroke-opacity:1"
       d="M 13,43 L 35.327974,43 L 35.545454,19.181819 L 24.961415,8 L 13,9 L 13,43 z "
       id="path8414"
       sodipodi:nodetypes="cccccc" />
    <path
       style="fill:url(#linearGradient7531);fill-opacity:1;fill-rule:evenodd;stroke:url(#linearGradient8412);stroke-width:1px;stroke-linecap:butt;stroke-linejoin:miter;stroke-opacity:1"
       d="M 10.5,39.318182 C 11.294613,39.318182 31.954546,39.5 31.954546,39.5 L 31.954546,11.136363 L 26.392256,5.5 L 10.5,5.5 L 10.5,39.318182 z "
       id="path7523"
       sodipodi:nodetypes="cccccc" />
    <path
       style="fill:url(#linearGradient9305);fill-opacity:1.0;fill-rule:evenodd;stroke:none;stroke-width:1px;stroke-linecap:butt;stroke-linejoin:miter;stroke-opacity:1"
       d="M 10.636364,31.181818 L 17.363637,31.181818 L 18,24 L 10,24 L 10.636364,31.181818 z "
       id="path8424"
       sodipodi:nodetypes="ccccc" />
    <path
       style="fill:#640000;fill-opacity:1;fill-rule:nonzero;stroke:none;stroke-width:1px;stroke-linecap:butt;stroke-linejoin:miter;stroke-opacity:1"
       id="path9335"
       d="M 19.293658,10.869125 C 17.56963,12.066235 18.616784,11.206868 17.201913,11.08845 C 16.620486,11.039787 15.668985,11.690434 17.519754,10.673212 C 17.096642,11.263324 19.131562,13.902527 16.609135,12.970704 C 16.762379,12.625438 14.444264,13.075152 14.569394,13.013182 C 16.205636,12.202835 15.022314,12.761174 15.106943,13.821229 C 16.135274,16.470745 20.045996,14.685917 17.690804,15.882571 L 18.920413,15.326121 C 17.285597,16.459839 15.049326,16.64996 13.955495,14.422437 C 13.716713,12.408379 16.118868,11.702805 17.711143,12.222494 C 18.68393,12.554499 15.276476,14.136299 16.28355,11.158834 C 17.339626,10.542079 21.181482,9.7430298 18.182636,11.67633 L 19.293658,10.869125 z " />
    <path
       style="fill:#640000;fill-opacity:1;fill-rule:nonzero;stroke:none;stroke-width:1px;stroke-linecap:butt;stroke-linejoin:miter;stroke-opacity:1"
       id="path9337"
       d="M 19.706342,14.130875 C 19.05888,13.229633 20.585977,12.401552 21.430984,12.756147 C 22.782075,14.138471 21.99834,14.692449 20.552046,15.474831 C 19.986832,15.605766 18.755367,16.321438 20.84255,15.165113 C 20.964076,15.097786 20.856451,15.481017 20.969197,15.562194 C 21.373004,15.720334 21.760967,15.605 22.158103,15.485422 L 21.120812,16.284333 C 20.684795,16.403812 20.260675,16.491477 19.834168,16.291996 C 18.720462,15.441954 20.834996,14.93964 21.613109,14.651573 C 19.91254,15.704283 21.68693,14.652285 20.31855,13.488141 C 19.402147,13.277738 21.033295,12.409712 20.817364,13.32367 L 19.706342,14.130875 z " />
    <path
       style="fill:#640000;fill-opacity:1;fill-rule:nonzero;stroke:none;stroke-width:1px;stroke-linecap:butt;stroke-linejoin:miter;stroke-opacity:1"
       id="path9339"
       d="M 23.751827,14.209949 C 23.108527,12.878966 22.959855,12.988233 24.664223,12.148871 C 25.824124,12.550306 26.918887,13.621644 26.328396,14.872194 C 24.033237,17.80434 23.127663,15.400719 25.612685,15.801079 C 25.966434,15.848784 26.319728,15.853224 26.675566,15.844373 L 25.636068,16.602021 C 25.271294,16.604061 24.90783,16.596277 24.544576,16.557853 C 22.560881,16.346912 27.16277,14.356651 24.387646,15.970512 C 24.122883,16.124484 25.418861,15.445733 25.114813,15.408829 C 25.758109,14.266608 24.733883,13.191858 23.58665,12.941991 C 24.970647,12.074178 24.227012,12.434224 24.975446,13.586484 L 23.751827,14.209949 z " />
    <path
       style="fill:#640000;fill-opacity:1;fill-rule:nonzero;stroke:none;stroke-width:1px;stroke-linecap:butt;stroke-linejoin:miter;stroke-opacity:1"
       id="path9341"
       d="M 28.160887,13.585421 C 29.862946,12.443411 28.392122,13.479644 28.388233,14.745993 C 28.198283,15.48121 29.380694,15.084403 29.348534,15.102377 C 27.780038,15.978985 28.452286,15.653294 28.855936,15.047164 C 29.095141,14.549595 29.103167,14.061945 29.006511,13.539486 L 30.164382,12.906744 C 30.27376,13.457676 30.278208,13.971047 30.048862,14.507493 C 29.597223,15.497385 27.657902,16.910904 27.208041,15.355298 C 27.184841,13.89913 27.936372,13.318456 29.27191,12.778216 L 28.160887,13.585421 z " />
    <path
       style="fill:#000000;fill-opacity:1;fill-rule:nonzero;stroke:none;stroke-width:1px;stroke-linecap:butt;stroke-linejoin:miter;stroke-opacity:1"
       id="path9345"
       d="M 15.713763,22.001905 C 16.396679,24.347845 17.83706,24.770095 15.857185,25.565255 C 16.867448,23.673001 18.80807,22.542268 20.12218,20.889528 C 20.534765,20.713314 20.935399,20.505961 21.359936,20.360885 C 21.503779,20.31173 21.255205,20.646599 21.213709,20.792835 C 20.987023,21.591692 21.041195,22.458738 20.904544,23.276576 C 20.732164,23.821603 20.263523,24.126967 20.084797,24.68035 C 20.387411,25.421706 18.536208,26.232478 19.724287,25.171466 C 20.513926,24.41344 21.376974,23.738299 21.993039,22.824593 L 23.208241,22.287805 C 22.59882,23.21873 21.747497,23.904785 20.946013,24.665429 C 20.419644,25.189163 18.734973,26.703396 18.87261,25.270698 C 19.01885,24.688995 19.412472,24.344998 19.707524,23.855104 C 20.074376,22.217243 19.432959,20.98999 21.380413,20.367697 C 19.94579,21.904247 18.120053,23.15968 17.06646,25.003834 C 14.73049,26.690203 15.875586,24.763238 14.533301,22.674041 L 15.713763,22.001905 z " />
    <path
       style="fill:#000000;fill-opacity:1;fill-rule:nonzero;stroke:none;stroke-width:1px;stroke-linecap:butt;stroke-linejoin:miter;stroke-opacity:1"
       id="path9347"
       d="M 24.433614,23.858148 C 24.005971,23.949749 23.986602,23.577225 23.81238,23.28367 C 23.348898,23.215914 22.167614,23.732181 24.183183,22.880524 C 24.261392,22.847478 24.064098,23.002059 24.011712,23.068875 C 23.662893,23.513779 23.548528,23.955342 23.801018,24.450508 C 24.364954,24.859797 25.654774,23.860697 23.653253,24.994899 C 23.148222,25.281085 24.944179,24.103024 25.332685,24.534325 C 25.972905,24.857104 28.129335,23.946974 26.155557,24.72239 C 25.955592,24.800948 26.441193,24.399916 26.562668,24.222712 L 27.778525,23.673599 C 27.092719,24.788915 25.501906,25.729189 24.192369,25.256543 C 23.705659,24.793083 23.760797,25.183045 25.018751,24.447807 C 25.389487,24.231123 22.823099,26.068795 22.649055,25.123944 C 22.023334,23.833604 23.620378,22.192243 24.957283,22.560105 C 25.178349,22.865733 25.109048,23.155729 25.544637,23.050943 L 24.433614,23.858148 z " />
    <g
       id="lamp"
       inkscape:label="#g7502"
       transform="matrix(0.743557,0,0,0.790226,-7.284742,-4.57276)">
      <path
         sodipodi:open="true"
         sodipodi:end="7.9662115"
         sodipodi:start="1.7406664"
         d="M 21.862988,31.61275 A 16.136364,14.272727 0 1 1 22.783727,31.728389"
         sodipodi:ry="14.272727"
         sodipodi:rx="16.136364"
         sodipodi:cy="17.545454"
         sodipodi:cx="24.59091"
         id="path3972"
         style="fill:url(#radialGradient7511);fill-opacity:1;fill-rule:evenodd;stroke:none;stroke-width:1px;stroke-linecap:butt;stroke-linejoin:miter;stroke-opacity:1"
         sodipodi:type="arc" />
      <path
         sodipodi:nodetypes="cccccccc"
         id="path2198"
         d="M 19.909091,32.818181 L 19.181818,25.727273 C 15.13121,24.041994 13.991291,22.925861 14.181818,18.272727 C 14.854214,10.93333 20.022815,7.6093616 25,8 C 30.662485,7.6501314 33.973828,11.140437 35,18.090909 C 35.109974,22.988762 34.055446,23.994841 30.545455,25.818182 L 29.818182,32.727273 L 19.909091,32.818181 z "
         style="fill:url(#linearGradient7513);fill-opacity:1;fill-rule:evenodd;stroke:url(#linearGradient7515);stroke-width:1px;stroke-linecap:butt;stroke-linejoin:miter;stroke-opacity:1" />
      <path
         id="path2202"
         d="M 19.545455,33 L 19.454545,42 L 30.545455,42 L 30.454545,33 L 19.545455,33 z "
         style="fill:url(#linearGradient7517);fill-opacity:1;fill-rule:evenodd;stroke:#000000;stroke-width:1px;stroke-linecap:butt;stroke-linejoin:miter;stroke-opacity:1" />
      <path
         id="path2204"
         d="M 20,35 L 30,36 L 30,36"
         style="fill:none;fill-opacity:0.75;fill-rule:evenodd;stroke:#000000;stroke-width:1px;stroke-linecap:butt;stroke-linejoin:miter;stroke-opacity:1" />
      <path
         id="path2206"
         d="M 20,37.454545 L 30,38.545455"
         style="fill:none;fill-opacity:0.75;fill-rule:evenodd;stroke:#000000;stroke-width:1px;stroke-linecap:butt;stroke-linejoin:miter;stroke-opacity:1" />
      <path
         id="path2208"
         d="M 19.545455,40 L 30,41"
         style="fill:url(#linearGradient7519);fill-opacity:1;fill-rule:evenodd;stroke:#000000;stroke-width:1px;stroke-linecap:butt;stroke-linejoin:miter;stroke-opacity:1" />
      <path
         transform="matrix(1,0,0,1.248472,-1.455605,-6.59673)"
         sodipodi:open="true"
         sodipodi:end="7.9662115"
         sodipodi:start="1.7406664"
         d="M 21.686639,26.788057 A 7.5,8.409091 0 1 1 22.114588,26.856188"
         sodipodi:ry="8.409091"
         sodipodi:rx="7.5"
         sodipodi:cy="18.5"
         sodipodi:cx="22.954546"
         id="path4857"
         style="fill:url(#radialGradient7521);fill-opacity:1;fill-rule:evenodd;stroke:none;stroke-width:1px;stroke-linecap:butt;stroke-linejoin:miter;stroke-opacity:1"
         sodipodi:type="arc" />
    </g>
    <path
       style="fill:#000000;fill-opacity:1;fill-rule:nonzero;stroke:none;stroke-width:1px;stroke-linecap:butt;stroke-linejoin:miter;stroke-opacity:1"
       id="path9349"
       d="M 26.933645,23.391767 C 26.324645,22.683717 27.522869,21.641211 28.36328,22.156241 C 29.140591,22.924017 28.61063,23.708425 28.525398,24.527612 C 28.755935,24.668729 29.027285,24.687715 29.286377,24.736418 L 28.207673,25.493364 C 27.912402,25.431262 27.605889,25.405834 27.361347,25.209995 C 27.324554,24.437461 28.027196,23.606867 27.230628,22.875292 C 26.616839,22.738398 28.055023,21.61272 28.157264,22.768302 L 26.933645,23.391767 z " />
    <path
       style="fill:#000000;fill-opacity:1;fill-rule:nonzero;stroke:none;stroke-width:1px;stroke-linecap:butt;stroke-linejoin:miter;stroke-opacity:1"
       id="path9353"
       d="M 16.298662,30.512835 C 16.832233,29.973952 17.528741,29.398528 16.662398,28.890799 C 16.773425,28.06684 13.506442,29.344369 13.977229,29.125468 C 15.287436,28.516263 14.316354,29.104541 15.368228,29.98687 C 18.094209,31.584918 14.315439,30.980348 13.49921,31.189601 C 12.748867,31.547252 13.933582,30.898675 14.170148,30.790107 C 14.528164,30.625801 13.702904,31.47385 13.684192,31.867324 C 13.625303,33.105603 14.317685,34.243279 15.422337,34.762413 C 15.800487,34.877751 16.098071,34.80676 16.450891,34.669991 L 15.427932,35.464187 C 15.052104,35.567499 14.733217,35.609707 14.353751,35.465895 C 12.036696,34.253572 11.849183,31.239448 14.542208,30.398161 C 17.571333,29.891263 15.649161,32.236801 14.274478,30.670127 C 12.042257,28.786855 16.171363,27.349206 17.753469,28.169355 C 18.780496,28.655733 18.121467,29.403519 17.563017,29.989122 L 16.298662,30.512835 z " />
    <path
       style="fill:#000000;fill-opacity:1;fill-rule:nonzero;stroke:none;stroke-width:1px;stroke-linecap:butt;stroke-linejoin:miter;stroke-opacity:1"
       id="path9355"
       d="M 17.660918,33.755404 C 17.681712,33.108153 17.925811,32.492207 18.321262,31.988279 C 20.138559,30.638334 19.542834,31.945615 20.820274,32.721556 C 20.821245,32.764349 20.822216,32.807143 20.823187,32.849936 C 20.408904,33.093963 19.983974,33.320754 19.580339,33.582016 C 19.24725,33.797615 20.266543,33.183439 20.61132,32.987072 C 20.820541,32.86791 20.199198,33.271231 20.087677,33.484623 C 19.915392,33.814286 19.985276,34.06881 20.136243,34.366992 C 20.154117,34.40855 20.339908,34.4883 20.356048,34.497914 L 19.238093,35.231014 C 19.23101,35.226299 18.976718,35.104958 18.975742,35.056389 C 18.115272,33.314418 21.988793,31.909014 19.644477,33.421318 C 18.582258,32.704343 18.060797,31.995103 19.577178,31.482785 C 19.13365,31.91685 18.876028,32.498999 18.884537,33.131939 L 17.660918,33.755404 z " />
    <path
       style="fill:#000000;fill-opacity:1;fill-rule:nonzero;stroke:none;stroke-width:1px;stroke-linecap:butt;stroke-linejoin:miter;stroke-opacity:1"
       id="path9357"
       d="M 22.615433,33.585421 C 22.057415,33.54286 21.719381,33.306252 21.788316,32.718359 C 22.349748,31.537999 23.688008,30.972187 24.641107,31.832183 C 26.243789,32.65128 21.475018,34.42254 24.032831,32.997087 C 22.700937,34.284369 24.454434,34.499981 25.547739,34.354232 C 25.672236,34.328304 25.796733,34.302376 25.921231,34.276449 L 24.895891,35.051361 C 24.772962,35.072656 24.650033,35.093952 24.527105,35.115248 C 23.300085,35.257173 21.503355,34.929803 22.804468,33.482256 C 23.014069,33.356089 23.85688,32.829748 24.329028,32.573539 C 24.455985,32.504646 24.8366,32.297796 24.712446,32.371623 C 23.27827,33.22444 24.210763,33.102499 23.500352,32.538904 C 23.218204,32.283672 22.062922,32.48439 22.3874,32.285733 C 24.246761,31.14737 23.253039,31.62727 23.001695,32.14109 C 22.921242,32.66199 23.226564,32.789153 23.726455,32.778216 L 22.615433,33.585421 z " />
    <path
       style="fill:#000000;fill-opacity:1;fill-rule:nonzero;stroke:none;stroke-width:1px;stroke-linecap:butt;stroke-linejoin:miter;stroke-opacity:1"
       id="path9359"
       d="M 27.069978,33.403603 C 27.081975,33.270803 26.63777,33.520856 26.65058,33.513427 C 28.553795,32.409724 25.855209,33.788716 26.594788,34.835304 C 26.965871,36.209607 28.126009,34.163046 27.271746,32.766125 C 27.082688,32.578134 26.895106,32.575846 26.656332,32.560687 L 27.741041,31.77303 C 27.997081,31.8329 28.222299,31.874427 28.409598,32.087983 C 29.376468,33.781352 27.412144,36.565676 25.47098,35.52464 C 24.56026,34.171619 27.101544,32.702428 28.181001,32.596397 L 27.069978,33.403603 z " />
    <path
       style="fill:none;fill-opacity:0.75;fill-rule:evenodd;stroke:#0000c8;stroke-width:2;stroke-linecap:butt;stroke-linejoin:round;stroke-miterlimit:4;stroke-dasharray:none;stroke-opacity:1"
       d="M 41.909091,33.727273 L 41.909091,16.909091 L 34,16.818182 L 38.727273,18.909091 L 38.636364,14.636364 L 34.090909,16.818182"
       id="path2222"
       sodipodi:nodetypes="cccccc" />
  </g>
</svg>
