<?xml version="1.0" encoding="UTF-8" standalone="no"?>
<!-- Created with Inkscape (http://www.inkscape.org/) -->
<svg
   xmlns:dc="http://purl.org/dc/elements/1.1/"
   xmlns:cc="http://web.resource.org/cc/"
   xmlns:rdf="http://www.w3.org/1999/02/22-rdf-syntax-ns#"
   xmlns:svg="http://www.w3.org/2000/svg"
   xmlns="http://www.w3.org/2000/svg"
   xmlns:xlink="http://www.w3.org/1999/xlink"
   xmlns:sodipodi="http://sodipodi.sourceforge.net/DTD/sodipodi-0.dtd"
   xmlns:inkscape="http://www.inkscape.org/namespaces/inkscape"
   width="80.000000pt"
   height="80.000000pt"
   id="svg1"
   sodipodi:version="0.32"
   inkscape:version="0.45.1"
   sodipodi:docbase="C:\Radix\dev\trunk\org.radixware\kernel\designer\src\common.resources\src\org\radixware\kernel\designer\resources\icons\unused\edit"
   sodipodi:docname="configure.svg"
   inkscape:output_extension="org.inkscape.output.svg.inkscape">
  <defs
     id="defs3">
    <linearGradient
       id="linearGradient9171">
      <stop
         style="stop-color:#fded00;stop-opacity:1.0000000;"
         offset="0.0000000"
         id="stop9172" />
      <stop
         style="stop-color:#eaa600;stop-opacity:1.0000000;"
         offset="1.0000000"
         id="stop9173" />
    </linearGradient>
    <linearGradient
       id="linearGradient7925">
      <stop
         style="stop-color:#d0d0d0;stop-opacity:1.0000000;"
         offset="0.0000000"
         id="stop7926" />
      <stop
         style="stop-color:#a6a3a3;stop-opacity:1.0000000;"
         offset="1.0000000"
         id="stop7927" />
    </linearGradient>
    <linearGradient
       inkscape:collect="always"
       id="linearGradient7300">
      <stop
         style="stop-color:#ffffff;stop-opacity:1;"
         offset="0"
         id="stop7301" />
      <stop
         style="stop-color:#ffffff;stop-opacity:0;"
         offset="1"
         id="stop7302" />
    </linearGradient>
    <linearGradient
       inkscape:collect="always"
       id="linearGradient6053">
      <stop
         style="stop-color:#eeeeef;stop-opacity:1;"
         offset="0"
         id="stop6054" />
      <stop
         style="stop-color:#eeeeef;stop-opacity:0;"
         offset="1"
         id="stop6055" />
    </linearGradient>
    <linearGradient
       inkscape:collect="always"
       xlink:href="#linearGradient9171"
       id="linearGradient7068"
       gradientUnits="userSpaceOnUse"
       gradientTransform="matrix(-1.018947,0,0,-0.981405,93.866373,3.5754409)"
       x1="22.234993"
       y1="-64.578178"
       x2="29.839203"
       y2="-74.328110" />
    <linearGradient
       inkscape:collect="always"
       xlink:href="#linearGradient9171"
       id="linearGradient7071"
       gradientUnits="userSpaceOnUse"
       gradientTransform="matrix(-0.910508,0,0,-1.098288,93.866373,3.5754409)"
       x1="38.696251"
       y1="-68.062698"
       x2="28.946556"
       y2="-60.323044" />
    <linearGradient
       inkscape:collect="always"
       xlink:href="#linearGradient9171"
       id="linearGradient7074"
       gradientUnits="userSpaceOnUse"
       gradientTransform="matrix(-1.152145,0,0,-0.867947,93.866373,3.5754409)"
       x1="24.321480"
       y1="-76.386032"
       x2="14.758960"
       y2="-65.390717" />
    <linearGradient
       inkscape:collect="always"
       xlink:href="#linearGradient7300"
       id="linearGradient7077"
       gradientUnits="userSpaceOnUse"
       gradientTransform="matrix(-0.954207,0,0,-1.04799,93.866373,3.5754409)"
       x1="89.202263"
       y1="-6.3584766"
       x2="88.669182"
       y2="-6.8782883" />
    <linearGradient
       inkscape:collect="always"
       xlink:href="#linearGradient6053"
       id="linearGradient7081"
       gradientUnits="userSpaceOnUse"
       gradientTransform="matrix(-0.985679,0,0,-1.014529,93.866373,3.5754409)"
       x1="88.666908"
       y1="-4.4481120"
       x2="75.682137"
       y2="-17.166708" />
    <linearGradient
       inkscape:collect="always"
       xlink:href="#linearGradient9171"
       id="linearGradient7084"
       gradientUnits="userSpaceOnUse"
       gradientTransform="matrix(-1.012224,0,0,-0.987924,93.866373,3.5754409)"
       x1="39.069633"
       y1="-77.680229"
       x2="22.689779"
       y2="-57.829243" />
    <linearGradient
       inkscape:collect="always"
       xlink:href="#linearGradient7925"
       id="linearGradient7087"
       gradientUnits="userSpaceOnUse"
       gradientTransform="matrix(-1.00289,0,0,-0.997118,93.866373,3.5754409)"
       x1="71.452438"
       y1="-29.096573"
       x2="60.567429"
       y2="-16.186733" />
    <linearGradient
       inkscape:collect="always"
       xlink:href="#linearGradient6053"
       id="linearGradient4153"
       gradientUnits="userSpaceOnUse"
       gradientTransform="matrix(-1.0051612,-0.161738,0.156041,-0.9697557,90.728244,107.19734)"
       x1="31.621386"
       y1="89.565842"
       x2="46.098869"
       y2="60.885803" />
    <linearGradient
       inkscape:collect="always"
       xlink:href="#linearGradient6053"
       id="linearGradient4156"
       gradientUnits="userSpaceOnUse"
       gradientTransform="matrix(-1.0051612,-0.161738,0.156041,-0.9697557,90.728244,107.19734)"
       x1="67.511604"
       y1="22.576031"
       x2="63.213604"
       y2="37.498974" />
    <linearGradient
       inkscape:collect="always"
       xlink:href="#linearGradient7925"
       id="linearGradient4159"
       gradientUnits="userSpaceOnUse"
       gradientTransform="matrix(-0.8812205,-0.141795,0.1779877,-1.1061492,90.728244,107.19734)"
       x1="68.289116"
       y1="51.916901"
       x2="25.700886"
       y2="24.944025" />
  </defs>
  <sodipodi:namedview
     id="base"
     pagecolor="#ffffff"
     bordercolor="#666666"
     borderopacity="1.0"
     inkscape:pageopacity="0.0"
     inkscape:pageshadow="2"
     inkscape:zoom="1.0000000"
     inkscape:cx="40.000000"
     inkscape:cy="40.000000"
     inkscape:current-layer="layer1"
     inkscape:window-width="894"
     inkscape:window-height="787"
     inkscape:window-x="149"
     inkscape:window-y="25" />
  <g
     inkscape:label="Layer 1"
     inkscape:groupmode="layer"
     id="layer1">
    <path
       id="path1683"
       d="M 27.851572,90.940993 C 32.934921,89.757079 37.354602,86.136989 39.275503,80.871196 C 40.494436,77.529726 40.465,74.056598 39.525954,70.883475 C 44.661891,63.484673 63.014408,45.219501 71.33522,38.944175 C 77.980266,39.070814 84.281818,35.095684 86.684227,28.50993 C 88.508696,23.508494 87.621439,18.206962 84.854006,14.104131 L 81.05219,24.526096 C 80.102923,27.12836 77.243733,28.459101 74.641471,27.509825 L 67.067197,24.746815 C 64.464935,23.797536 63.134192,20.938357 64.083468,18.336096 L 68.045925,7.4737659 C 62.962581,8.6576762 58.542897,12.277768 56.621994,17.543563 C 55.09609,21.726539 55.444886,26.132235 57.215513,29.868276 C 50.460926,37.923181 34.007225,54.834381 26.073371,59.522849 C 18.89426,58.7 11.796395,62.823684 9.213271,69.904829 C 7.388802,74.906262 8.276059,80.207798 11.043492,84.310628 L 14.845308,73.888663 C 15.794581,71.286398 18.653765,69.955657 21.256027,70.904933 L 28.830301,73.667944 C 31.432561,74.617218 32.763306,77.476401 31.81403,80.078662 L 27.851572,90.940993 z "
       style="fill:url(#linearGradient4159);fill-opacity:1;stroke:#020000;stroke-width:2;stroke-linecap:round;stroke-linejoin:round;stroke-miterlimit:4;stroke-opacity:1;stroke-dasharray:none" />
    <path
       sodipodi:nodetypes="ccccccccccc"
       id="path2940"
       d="M 28.763877,89.844015 C 33.847225,88.660101 36.871606,85.628388 38.792507,80.362595 C 40.011439,77.021125 39.956505,73.706472 39.017459,70.533349 C 36.992919,66.209407 32.648162,62.801462 26.705177,60.169098 C 19.526068,59.346249 12.606705,62.360607 10.023572,69.441751 C 8.199105,74.443184 7.977042,79.566222 10.744473,83.669052 L 14.546289,73.247087 C 15.49556,70.644822 18.354746,69.314082 20.957007,70.263357 L 29.456631,73.337842 C 32.058891,74.287117 33.389636,77.146299 32.44036,79.748561 L 28.763877,89.844015 z "
       style="fill:url(#linearGradient4156);fill-opacity:1;stroke:none;stroke-width:1.25;stroke-linecap:round;stroke-linejoin:round;stroke-miterlimit:4;stroke-opacity:1" />
    <path
       sodipodi:nodetypes="ccccccccccc"
       id="path4183"
       d="M 67.217195,7.6971541 C 62.13384,8.881066 58.823491,12.679659 56.902581,17.945456 C 55.683652,21.286925 55.738591,24.601576 56.67763,27.774697 C 58.702171,32.09864 63.046935,35.506586 68.989917,38.13895 C 76.169026,38.961798 83.088389,35.94744 85.671522,28.866294 C 87.49599,23.864862 87.718047,18.741822 84.950615,14.638994 L 81.148799,25.060961 C 80.199528,27.663222 77.340342,28.993965 74.738081,28.044689 L 66.238458,24.9702 C 63.636197,24.020929 62.30546,21.161743 63.254731,18.559482 L 67.217195,7.6971541 z "
       style="fill:url(#linearGradient4153);fill-opacity:1;stroke:none;stroke-width:1.25;stroke-linecap:round;stroke-linejoin:round;stroke-miterlimit:4;stroke-opacity:1" />
    <path
       sodipodi:nodetypes="ccccccccc"
       id="path4806"
       d="M 51.086294,45.975952 L 45.86557,52.021 L 17.151597,22.620089 C 14.63237,21.245301 12.915712,22.759759 10.556999,20.903431 C 8.106239,18.820863 6.458048,15.293673 3.846774,11.926996 L 9.709549,5.857452 C 13.472971,8.4836873 18.681015,10.467868 19.876219,13.094103 C 21.25192,14.796257 18.775294,16.819438 20.311508,18.361078 L 51.086294,45.975952 z "
       style="fill:url(#linearGradient7087);fill-opacity:1;fill-rule:evenodd;stroke:#000000;stroke-width:2;stroke-linecap:butt;stroke-linejoin:miter;stroke-opacity:1;stroke-miterlimit:4;stroke-dasharray:none" />
    <path
       sodipodi:nodetypes="ccccccc"
       id="path4807"
       d="M 44.079534,53.669649 C 43.563962,55.585821 48.34534,55.896856 51.200554,58.936623 C 58.00009,65.067783 69.615036,86.447735 74.167381,88.566055 C 84.91449,93.984575 95.501085,85.277895 89.554774,74.00299 C 86.566336,68.922851 65.921396,59.669357 57.796521,52.021 C 55.4904,49.731666 53.986847,43.590004 52.32278,44.189916 C 48.611949,46.226231 45.061633,49.867683 44.079534,53.669649 z "
       style="fill:url(#linearGradient7084);fill-opacity:1;fill-rule:evenodd;stroke:#542100;stroke-width:2;stroke-linecap:butt;stroke-linejoin:miter;stroke-opacity:1;stroke-miterlimit:4;stroke-dasharray:none" />
    <path
       sodipodi:nodetypes="ccccccc"
       id="path4810"
       d="M 18.623667,22.61746 C 16.10444,21.242672 13.585214,22.596616 11.226501,20.740288 C 8.775741,18.65772 6.967036,15.451557 4.355762,12.08488 L 10.058024,6.4968774 C 13.821446,9.1231124 17.905895,10.786265 19.101099,13.412501 C 20.4768,15.114655 19.284283,18.582459 20.820497,20.124099 L 18.623667,22.61746 z "
       style="fill:url(#linearGradient7081);fill-opacity:1;fill-rule:evenodd;stroke:none;stroke-width:0.85592375pt;stroke-linecap:butt;stroke-linejoin:miter;stroke-opacity:1" />
    <path
       sodipodi:nodetypes="ccccccc"
       id="path4808"
       d="M 12.178873,22.169191 C 14.402568,22.072508 16.438316,21.141083 18.022623,19.351023 C 19.60693,17.560963 20.710123,14.825441 20.710123,14.825441 L 19.96865,13.848164 C 19.96865,13.848164 19.553787,17.287702 18.048205,18.988814 C 16.542623,20.689925 12.813174,21.336901 11.345055,21.400732 L 12.178873,22.169191 z "
       style="fill:#000000;fill-opacity:1;fill-rule:evenodd;stroke:none;stroke-width:1pt;stroke-linecap:butt;stroke-linejoin:miter;stroke-opacity:1" />
    <path
       sodipodi:nodetypes="ccccc"
       id="path6057"
       d="M 10.078251,5.9831456 L 4.139245,12.082664 C 4.139245,12.082664 5.904896,13.206259 5.904896,14.008828 C 5.904896,14.811397 12.004414,8.0698229 12.004414,8.0698229 C 11.683387,6.9462274 10.399278,6.9462274 10.078251,5.9831456 z "
       style="fill:url(#linearGradient7077);fill-opacity:1;fill-rule:evenodd;stroke:none;stroke-width:1pt;stroke-linecap:butt;stroke-linejoin:miter;stroke-opacity:1" />
    <path
       sodipodi:nodetypes="cccc"
       id="path9175"
       d="M 86.482745,71.954253 C 86.482745,71.954253 88.569423,73.238362 86.643259,75.485553 C 84.717095,77.732744 54.54053,55.10032 59.997995,54.458266 C 69.628813,61.360352 84.235554,70.349117 86.482745,71.954253 z "
       style="fill:url(#linearGradient7074);fill-opacity:1;fill-rule:evenodd;stroke:none;stroke-width:1pt;stroke-linecap:butt;stroke-linejoin:miter;stroke-opacity:1" />
    <path
       sodipodi:nodetypes="cccc"
       id="path9176"
       d="M 75.48914,83.352554 C 77.25479,86.562827 74.686571,87.204881 72.278866,86.081286 C 69.229107,83.352554 56.227502,63.448862 54.461852,61.843726 C 54.301338,58.151912 73.562976,79.500227 75.48914,83.352554 z "
       style="fill:url(#linearGradient7071);fill-opacity:1;fill-rule:evenodd;stroke:none;stroke-width:1pt;stroke-linecap:butt;stroke-linejoin:miter;stroke-opacity:1" />
    <path
       sodipodi:nodetypes="cccc"
       id="path9177"
       d="M 80.802681,77.79535 C 82.934832,80.77483 80.911704,82.79333 78.388229,81.961715 C 75.235043,79.911789 55.292798,58.643917 56.421016,57.794612 C 56.949555,56.876268 78.435369,74.197244 80.802681,77.79535 z "
       style="fill:url(#linearGradient7068);fill-opacity:1;fill-rule:evenodd;stroke:none;stroke-width:1pt;stroke-linecap:butt;stroke-linejoin:miter;stroke-opacity:1" />
  </g>
  <metadata
     id="metadata59">
    <rdf:RDF>
      <cc:Work
         rdf:about="">
        <dc:title>tools</dc:title>
        <dc:description />
        <dc:subject>
          <rdf:Bag>
            <rdf:li>tool</rdf:li>
            <rdf:li />
          </rdf:Bag>
        </dc:subject>
        <dc:publisher>
          <cc:Agent
             rdf:about="http://www.openclipart.org">
            <dc:title>Nicu Buculei</dc:title>
          </cc:Agent>
        </dc:publisher>
        <dc:creator>
          <cc:Agent
             rdf:about="">
            <dc:title>Nicu Buculei</dc:title>
          </cc:Agent>
        </dc:creator>
        <dc:rights>
          <cc:Agent
             rdf:about="">
            <dc:title>Nicu Buculei</dc:title>
          </cc:Agent>
        </dc:rights>
        <dc:date />
        <dc:format>image/svg+xml</dc:format>
        <dc:type
           rdf:resource="http://purl.org/dc/dcmitype/StillImage" />
        <cc:license
           rdf:resource="Public Domain">
          <dc:date />
        </cc:license>
        <dc:language>en</dc:language>
      </cc:Work>
      <cc:License
         rdf:about="Public Domain">
        <cc:permits
           rdf:resource="http://web.resource.org/cc/Reproduction" />
        <cc:permits
           rdf:resource="http://web.resource.org/cc/Distribution" />
        <cc:permits
           rdf:resource="http://web.resource.org/cc/DerivativeWorks" />
      </cc:License>
    </rdf:RDF>
  </metadata>
</svg>
