<?xml version="1.0" encoding="UTF-8" standalone="no"?>
<!-- Created with Inkscape (http://www.inkscape.org/) -->
<svg
   xmlns:dc="http://purl.org/dc/elements/1.1/"
   xmlns:cc="http://web.resource.org/cc/"
   xmlns:rdf="http://www.w3.org/1999/02/22-rdf-syntax-ns#"
   xmlns:svg="http://www.w3.org/2000/svg"
   xmlns="http://www.w3.org/2000/svg"
   xmlns:sodipodi="http://sodipodi.sourceforge.net/DTD/sodipodi-0.dtd"
   xmlns:inkscape="http://www.inkscape.org/namespaces/inkscape"
   width="24"
   height="24"
   id="svg2"
   sodipodi:version="0.32"
   inkscape:version="0.45.1"
   sodipodi:docbase="C:\Radix\dev\trunk\org.radixware\kernel\designer\src\common.resources\src\org\radixware\kernel\designer\resources\icons\unused\edit"
   sodipodi:docname="font_bold.svg"
   version="1.0"
   inkscape:output_extension="org.inkscape.output.svg.inkscape">
  <defs
     id="defs4" />
  <sodipodi:namedview
     id="base"
     pagecolor="#ffffff"
     bordercolor="#000000"
     borderopacity="1.0"
     inkscape:pageopacity="0.0"
     inkscape:pageshadow="2"
     inkscape:zoom="26"
     inkscape:cx="10"
     inkscape:cy="10"
     inkscape:document-units="px"
     inkscape:current-layer="layer1"
     inkscape:window-width="1080"
     inkscape:window-height="804"
     inkscape:window-x="100"
     inkscape:window-y="%window-y" />
  <metadata
     id="metadata7">
    <rdf:RDF>
      <cc:Work
         rdf:about="">
        <dc:format>image/svg+xml</dc:format>
        <dc:type
           rdf:resource="http://purl.org/dc/dcmitype/StillImage" />
      </cc:Work>
    </rdf:RDF>
  </metadata>
  <g
     inkscape:label="Layer 1"
     inkscape:groupmode="layer"
     id="layer1">
    <path
       style="font-size:27.64920998px;font-style:normal;font-variant:normal;font-weight:bold;font-stretch:normal;text-align:start;line-height:125%;writing-mode:lr-tb;text-anchor:start;fill:#000000;fill-opacity:1;stroke:none;stroke-width:1px;stroke-linecap:butt;stroke-linejoin:miter;stroke-opacity:1;font-family:Arial"
       d="M 3.9799464,2.3071443 L 11.891293,2.3071443 C 13.45735,2.3071641 14.62515,2.3724169 15.394696,2.5029029 C 16.164215,2.6334281 16.852745,2.9056897 17.460286,3.3196887 C 18.067797,3.7337251 18.574068,4.2849987 18.979103,4.973511 C 19.384103,5.6620576 19.586612,6.4338406 19.586629,7.2888624 C 19.586612,8.2159168 19.336851,9.0664532 18.837347,9.840474 C 18.337808,10.614519 17.660529,11.195044 16.805508,11.58205 C 18.011544,11.933076 18.938584,12.531601 19.586629,13.377629 C 20.23464,14.223674 20.558653,15.218216 20.558672,16.361259 C 20.558653,17.261304 20.349394,18.136591 19.930894,18.987124 C 19.512359,19.837664 18.940834,20.517193 18.216319,21.025713 C 17.491772,21.534236 16.598484,21.847 15.536452,21.964005 C 14.87041,22.036008 13.263841,22.08101 10.716741,22.09901 L 3.9799464,22.09901 L 3.9799464,2.3071443 z M 7.9761213,5.6012885 L 7.9761213,10.177989 L 10.595236,10.177989 C 12.152294,10.178001 13.119835,10.1555 13.497863,10.110486 C 14.181881,10.029494 14.719654,9.7932343 15.111184,9.4017048 C 15.502687,9.0102008 15.698446,8.4949287 15.698459,7.8558872 C 15.698446,7.2438752 15.529688,6.746604 15.192187,6.3640719 C 14.854659,5.9815713 14.352888,5.7498113 13.686871,5.6687915 C 13.290843,5.623806 12.152294,5.601305 10.271222,5.6012885 L 7.9761213,5.6012885 z M 7.9761213,13.472133 L 7.9761213,18.764365 L 11.675283,18.764365 C 13.115335,18.764368 14.028874,18.723866 14.415903,18.642859 C 15.009916,18.534858 15.493687,18.271597 15.867217,17.853075 C 16.240719,17.434561 16.427477,16.874287 16.427491,16.172251 C 16.427477,15.578232 16.283471,15.07421 15.995472,14.660185 C 15.707446,14.246175 15.291178,13.944662 14.746668,13.755645 C 14.202132,13.566646 13.020831,13.472142 11.202763,13.472133 L 7.9761213,13.472133 z "
       id="text2157" />
  </g>
</svg>
