<?xml version="1.0" encoding="UTF-8" standalone="no"?>
<!-- Created with Inkscape (http://www.inkscape.org/) -->
<svg
   xmlns:dc="http://purl.org/dc/elements/1.1/"
   xmlns:cc="http://web.resource.org/cc/"
   xmlns:rdf="http://www.w3.org/1999/02/22-rdf-syntax-ns#"
   xmlns:svg="http://www.w3.org/2000/svg"
   xmlns="http://www.w3.org/2000/svg"
   xmlns:xlink="http://www.w3.org/1999/xlink"
   xmlns:sodipodi="http://sodipodi.sourceforge.net/DTD/sodipodi-0.dtd"
   xmlns:inkscape="http://www.inkscape.org/namespaces/inkscape"
   width="21"
   height="21"
   id="svg2"
   sodipodi:version="0.32"
   inkscape:version="0.45.1"
   version="1.0"
   sodipodi:docbase="C:\Radix\dev\trunk\org.radixware\kernel\designer\src\common.resources\src\org\radixware\kernel\designer\resources\icons\unused"
   sodipodi:docname="inspect.svg"
   inkscape:output_extension="org.inkscape.output.svg.inkscape">
  <defs
     id="defs4">
    <linearGradient
       id="linearGradient2325">
      <stop
         style="stop-color:#003a1d;stop-opacity:1;"
         offset="0"
         id="stop2327" />
      <stop
         id="stop2333"
         offset="0.5"
         style="stop-color:#005028;stop-opacity:0.77227724;" />
      <stop
         style="stop-color:#006633;stop-opacity:0;"
         offset="1"
         id="stop2329" />
    </linearGradient>
    <linearGradient
       inkscape:collect="always"
       id="linearGradient2315">
      <stop
         style="stop-color:#006633;stop-opacity:1;"
         offset="0"
         id="stop2317" />
      <stop
         style="stop-color:#006633;stop-opacity:0;"
         offset="1"
         id="stop2319" />
    </linearGradient>
    <radialGradient
       inkscape:collect="always"
       xlink:href="#linearGradient2315"
       id="radialGradient9824"
       cx="11.5"
       cy="25.5"
       fx="11.5"
       fy="25.5"
       r="1.5"
       gradientUnits="userSpaceOnUse" />
    <radialGradient
       inkscape:collect="always"
       xlink:href="#linearGradient2325"
       id="radialGradient9859"
       gradientUnits="userSpaceOnUse"
       gradientTransform="matrix(-0.162057,-1.311454,1.417963,-0.175218,23.13683,37.85653)"
       cx="9.1343956"
       cy="10.21032"
       fx="9.1343956"
       fy="10.21032"
       r="7" />
    <radialGradient
       inkscape:collect="always"
       xlink:href="#linearGradient2325"
       id="radialGradient9861"
       gradientUnits="userSpaceOnUse"
       cx="31"
       cy="16"
       fx="31"
       fy="16"
       r="2" />
    <radialGradient
       inkscape:collect="always"
       xlink:href="#linearGradient2325"
       id="radialGradient9863"
       gradientUnits="userSpaceOnUse"
       cx="31"
       cy="16"
       fx="31"
       fy="16"
       r="2" />
    <radialGradient
       inkscape:collect="always"
       xlink:href="#linearGradient2325"
       id="radialGradient9865"
       gradientUnits="userSpaceOnUse"
       cx="31"
       cy="16"
       fx="31"
       fy="16"
       r="2" />
    <radialGradient
       inkscape:collect="always"
       xlink:href="#linearGradient2325"
       id="radialGradient9867"
       gradientUnits="userSpaceOnUse"
       cx="31"
       cy="16"
       fx="31"
       fy="16"
       r="2" />
    <radialGradient
       inkscape:collect="always"
       xlink:href="#linearGradient2325"
       id="radialGradient9869"
       gradientUnits="userSpaceOnUse"
       cx="31"
       cy="16"
       fx="31"
       fy="16"
       r="2" />
    <radialGradient
       inkscape:collect="always"
       xlink:href="#linearGradient2315"
       id="radialGradient9871"
       gradientUnits="userSpaceOnUse"
       cx="11.5"
       cy="25.5"
       fx="11.5"
       fy="25.5"
       r="1.5" />
    <radialGradient
       inkscape:collect="always"
       xlink:href="#linearGradient2315"
       id="radialGradient9873"
       gradientUnits="userSpaceOnUse"
       cx="11.5"
       cy="25.5"
       fx="11.5"
       fy="25.5"
       r="1.5" />
    <radialGradient
       inkscape:collect="always"
       xlink:href="#linearGradient2315"
       id="radialGradient9875"
       gradientUnits="userSpaceOnUse"
       cx="11.5"
       cy="25.5"
       fx="11.5"
       fy="25.5"
       r="1.5" />
    <radialGradient
       inkscape:collect="always"
       xlink:href="#linearGradient2315"
       id="radialGradient9877"
       gradientUnits="userSpaceOnUse"
       cx="11.5"
       cy="25.5"
       fx="11.5"
       fy="25.5"
       r="1.5" />
    <radialGradient
       inkscape:collect="always"
       xlink:href="#linearGradient2325"
       id="radialGradient9879"
       gradientUnits="userSpaceOnUse"
       cx="31"
       cy="16"
       fx="31"
       fy="16"
       r="2" />
  </defs>
  <sodipodi:namedview
     id="base"
     pagecolor="#ffffff"
     bordercolor="#666666"
     borderopacity="1.0"
     inkscape:pageopacity="0.0"
     inkscape:pageshadow="2"
     inkscape:zoom="13.222897"
     inkscape:cx="22.143952"
     inkscape:cy="3.8013789"
     inkscape:document-units="px"
     inkscape:current-layer="layer1"
     showgrid="true"
     inkscape:grid-bbox="true"
     inkscape:grid-points="true"
     inkscape:window-width="912"
     inkscape:window-height="636"
     inkscape:window-x="46"
     inkscape:window-y="325" />
  <metadata
     id="metadata7">
    <rdf:RDF>
      <cc:Work
         rdf:about="">
        <dc:format>image/svg+xml</dc:format>
        <dc:type
           rdf:resource="http://purl.org/dc/dcmitype/StillImage" />
      </cc:Work>
    </rdf:RDF>
  </metadata>
  <g
     inkscape:label="Layer 1"
     inkscape:groupmode="layer"
     id="layer1">
    <g
       id="g9846"
       transform="translate(-27,-15.42778)">
      <path
         sodipodi:nodetypes="czczz"
         id="path1438"
         d="M 35,29 C 31.5,29 28,27.375 28,24 C 28,20.625 32,17 35,16 C 38.446524,17 42,20.625 42,24 C 42,27.375 38.5,29 35,29 z "
         style="opacity:1;fill:url(#radialGradient9859);fill-opacity:1;fill-rule:evenodd;stroke:none;stroke-width:1px;stroke-linecap:butt;stroke-linejoin:miter;stroke-opacity:1" />
      <path
         transform="translate(2,9)"
         d="M 33 16 A 2 2 0 1 1  29,16 A 2 2 0 1 1  33 16 z"
         sodipodi:ry="2"
         sodipodi:rx="2"
         sodipodi:cy="16"
         sodipodi:cx="31"
         id="path9790"
         style="opacity:1;fill:url(#radialGradient9861);fill-opacity:1;fill-rule:evenodd;stroke:none;stroke-width:1;stroke-linecap:butt;stroke-linejoin:miter;stroke-miterlimit:6;stroke-dasharray:none;stroke-opacity:1"
         sodipodi:type="arc" />
      <path
         sodipodi:type="arc"
         style="opacity:1;fill:url(#radialGradient9863);fill-opacity:1;fill-rule:evenodd;stroke:none;stroke-width:1;stroke-linecap:butt;stroke-linejoin:miter;stroke-miterlimit:6;stroke-dasharray:none;stroke-opacity:1"
         id="path9800"
         sodipodi:cx="31"
         sodipodi:cy="16"
         sodipodi:rx="2"
         sodipodi:ry="2"
         d="M 33 16 A 2 2 0 1 1  29,16 A 2 2 0 1 1  33 16 z"
         transform="translate(5,5)" />
      <path
         transform="translate(5,11)"
         d="M 33 16 A 2 2 0 1 1  29,16 A 2 2 0 1 1  33 16 z"
         sodipodi:ry="2"
         sodipodi:rx="2"
         sodipodi:cy="16"
         sodipodi:cx="31"
         id="path9804"
         style="opacity:1;fill:url(#radialGradient9865);fill-opacity:1;fill-rule:evenodd;stroke:none;stroke-width:1;stroke-linecap:butt;stroke-linejoin:miter;stroke-miterlimit:6;stroke-dasharray:none;stroke-opacity:1"
         sodipodi:type="arc" />
      <path
         sodipodi:type="arc"
         style="opacity:1;fill:url(#radialGradient9867);fill-opacity:1;fill-rule:evenodd;stroke:none;stroke-width:1;stroke-linecap:butt;stroke-linejoin:miter;stroke-miterlimit:6;stroke-dasharray:none;stroke-opacity:1"
         id="path9808"
         sodipodi:cx="31"
         sodipodi:cy="16"
         sodipodi:rx="2"
         sodipodi:ry="2"
         d="M 33 16 A 2 2 0 1 1  29,16 A 2 2 0 1 1  33 16 z"
         transform="translate(2,6.521186)" />
      <path
         transform="translate(3,11)"
         d="M 33 16 A 2 2 0 1 1  29,16 A 2 2 0 1 1  33 16 z"
         sodipodi:ry="2"
         sodipodi:rx="2"
         sodipodi:cy="16"
         sodipodi:cx="31"
         id="path9812"
         style="opacity:1;fill:url(#radialGradient9869);fill-opacity:1;fill-rule:evenodd;stroke:none;stroke-width:1;stroke-linecap:butt;stroke-linejoin:miter;stroke-miterlimit:6;stroke-dasharray:none;stroke-opacity:1"
         sodipodi:type="arc" />
      <path
         transform="translate(19,-1)"
         sodipodi:type="arc"
         style="opacity:1;fill:url(#radialGradient9871);fill-opacity:1;fill-rule:evenodd;stroke:none;stroke-width:1;stroke-linecap:butt;stroke-linejoin:miter;stroke-miterlimit:6;stroke-dasharray:none;stroke-opacity:1"
         id="path9826"
         sodipodi:cx="11.5"
         sodipodi:cy="25.5"
         sodipodi:rx="1.5"
         sodipodi:ry="1.5"
         d="M 13 25.5 A 1.5 1.5 0 1 1  10,25.5 A 1.5 1.5 0 1 1  13 25.5 z" />
      <path
         transform="translate(19.5,-3.5)"
         sodipodi:type="arc"
         style="opacity:1;fill:url(#radialGradient9873);fill-opacity:1;fill-rule:evenodd;stroke:none;stroke-width:1;stroke-linecap:butt;stroke-linejoin:miter;stroke-miterlimit:6;stroke-dasharray:none;stroke-opacity:1"
         id="path9830"
         sodipodi:cx="11.5"
         sodipodi:cy="25.5"
         sodipodi:rx="1.5"
         sodipodi:ry="1.5"
         d="M 13 25.5 A 1.5 1.5 0 1 1  10,25.5 A 1.5 1.5 0 1 1  13 25.5 z" />
      <path
         transform="translate(22,-5.5)"
         sodipodi:type="arc"
         style="opacity:1;fill:url(#radialGradient9875);fill-opacity:1;fill-rule:evenodd;stroke:none;stroke-width:1;stroke-linecap:butt;stroke-linejoin:miter;stroke-miterlimit:6;stroke-dasharray:none;stroke-opacity:1"
         id="path9834"
         sodipodi:cx="11.5"
         sodipodi:cy="25.5"
         sodipodi:rx="1.5"
         sodipodi:ry="1.5"
         d="M 13 25.5 A 1.5 1.5 0 1 1  10,25.5 A 1.5 1.5 0 1 1  13 25.5 z" />
      <path
         d="M 13 25.5 A 1.5 1.5 0 1 1  10,25.5 A 1.5 1.5 0 1 1  13 25.5 z"
         sodipodi:ry="1.5"
         sodipodi:rx="1.5"
         sodipodi:cy="25.5"
         sodipodi:cx="11.5"
         id="path9838"
         style="opacity:1;fill:url(#radialGradient9877);fill-opacity:1;fill-rule:evenodd;stroke:none;stroke-width:1;stroke-linecap:butt;stroke-linejoin:miter;stroke-miterlimit:6;stroke-dasharray:none;stroke-opacity:1"
         sodipodi:type="arc"
         transform="translate(28.5,-1.5)" />
      <path
         sodipodi:type="arc"
         style="opacity:1;fill:url(#radialGradient9879);fill-opacity:1;fill-rule:evenodd;stroke:none;stroke-width:1;stroke-linecap:butt;stroke-linejoin:miter;stroke-miterlimit:6;stroke-dasharray:none;stroke-opacity:1"
         id="path9842"
         sodipodi:cx="31"
         sodipodi:cy="16"
         sodipodi:rx="2"
         sodipodi:ry="2"
         d="M 33 16 A 2 2 0 1 1  29,16 A 2 2 0 1 1  33 16 z"
         transform="translate(8,7)" />
    </g>
    <rect
       style="fill:none;stroke:none"
       width="13.588231"
       height="12.969846"
       x="-11.588238"
       y="8.0000038"
       id="rect2515" />
    <rect
       style="fill:none;stroke:none"
       width="12.18137"
       height="12.221865"
       x="-10.936278"
       y="8.0000067"
       id="rect2575" />
    <path
       style="fill:#663300;fill-opacity:1;fill-rule:evenodd;stroke:none;stroke-width:1px;stroke-linecap:butt;stroke-linejoin:miter;stroke-opacity:1"
       d="M 7,17 L 9,17 L 9,11 L 10,10 C 10.160428,8.8770053 9.855615,8.8395722 9,9 L 8,10 L 8,7 C 7.6791444,6.197861 7.2139037,6.4652406 7,7 L 7,10 L 5,8 C 4.7326203,7.9465241 3.8235294,8.2513369 5,9.4278075 L 7,11.481283 L 7,17 z "
       id="path2830"
       sodipodi:nodetypes="ccccccccccccc" />
    <g
       transform="matrix(1.18836e-16,-0.462281,0.462281,1.18836e-16,5.864639,21.87858)"
       id="g2166">
      <g
         transform="translate(0.445343,0.445343)"
         id="g2163">
        <path
           sodipodi:nodetypes="ccccc"
           id="rect2160"
           d="M 23.33955,-2.8810751 C 23.33955,3.3096883 20.496929,11.512927 23.194582,18.07491 C 25.010213,18.07491 25.160793,18.20288 26.976424,18.20288 C 29.268637,12.516595 27.121392,3.4376588 27.121392,-2.7531046 C 25.305761,-2.7531046 25.155181,-2.8810751 23.33955,-2.8810751 z "
           style="fill:#0033cc;fill-opacity:1;fill-rule:evenodd;stroke:#000000;stroke-width:0.74999994;stroke-linecap:butt;stroke-linejoin:miter;stroke-miterlimit:4;stroke-opacity:1"
           transform="matrix(0.710069,0.704132,-0.704132,0.710069,0,0)" />
        <rect
           ry="0"
           transform="matrix(0.710069,0.704132,-0.704132,0.710069,0,0)"
           y="-2.4289479"
           x="23.877493"
           height="20.128101"
           width="0.98666137"
           id="rect2161"
           style="fill:#ffffff;fill-opacity:0.54257908;fill-rule:evenodd;stroke:none;stroke-width:0.74999994;stroke-linecap:butt;stroke-linejoin:miter;stroke-miterlimit:4;stroke-opacity:1" />
      </g>
      <path
         transform="translate(15.01443,-0.763446)"
         d="M 18.958899 11.289103 A 8.17523 8.17523 0 1 1  2.6084394,11.289103 A 8.17523 8.17523 0 1 1  18.958899 11.289103 z"
         sodipodi:ry="8.17523"
         sodipodi:rx="8.17523"
         sodipodi:cy="11.289103"
         sodipodi:cx="10.783669"
         id="path908"
         style="fill:none;fill-opacity:1;fill-rule:evenodd;stroke:#4d4d4d;stroke-width:0.75;stroke-linecap:butt;stroke-linejoin:miter;stroke-miterlimit:4;stroke-opacity:1"
         sodipodi:type="arc" />
      <path
         transform="matrix(0.987958,0,0,0.987958,-0.537874,0.346991)"
         d="M 34.291433 10.302985 A 7.6344562 7.5708361 0 1 1  19.022521,10.302985 A 7.6344562 7.5708361 0 1 1  34.291433 10.302985 z"
         sodipodi:ry="7.5708361"
         sodipodi:rx="7.6344562"
         sodipodi:cy="10.302985"
         sodipodi:cx="26.656977"
         id="path909"
         style="fill:#59f3ff;fill-opacity:0.19221407;fill-rule:evenodd;stroke:#000000;stroke-width:0.75;stroke-linecap:butt;stroke-linejoin:miter;stroke-miterlimit:4;stroke-opacity:1"
         sodipodi:type="arc" />
      <path
         sodipodi:nodetypes="cssss"
         id="rect1531"
         d="M 30.979205,7.8883483 C 30.820135,7.0683882 29.346158,5.5866547 28.527043,5.4232835 C 27.977227,5.3136229 26.765637,6.5188702 26.87241,7.0692563 C 27.03148,7.8892164 28.505457,9.3709499 29.324572,9.5343211 C 29.874389,9.6439806 31.085979,8.4387332 30.979205,7.8883483 z "
         style="fill:#ffffff;fill-opacity:0.64233578;fill-rule:evenodd;stroke:none;stroke-width:0.75;stroke-linecap:butt;stroke-linejoin:miter;stroke-miterlimit:4;stroke-opacity:1" />
      <path
         sodipodi:nodetypes="czsszss"
         id="path2159"
         d="M 21.267782,7.7853478 C 21.668358,9.0850858 21.033116,11.408782 22.749739,13.316086 C 24.428548,15.181375 25.815736,14.963595 27.284316,14.999099 C 27.706371,15.009303 27.958956,16.399914 27.556599,16.506896 C 26.683797,16.738836 23.457576,17.319304 21.386909,14.866821 C 19.279024,12.37026 19.634333,9.5696429 19.887303,8.2869756 C 19.966407,7.8858812 21.154358,7.4173261 21.267782,7.7853478 z "
         style="fill:#ffffff;fill-opacity:0.64233578;fill-rule:evenodd;stroke:none;stroke-width:1pt;stroke-linecap:butt;stroke-linejoin:miter;stroke-opacity:1" />
    </g>
    <rect
       style="opacity:1;fill:#000000;fill-opacity:1;fill-rule:evenodd;stroke:none;stroke-width:1;stroke-linecap:butt;stroke-linejoin:miter;stroke-miterlimit:6;stroke-dasharray:none;stroke-opacity:1"
       id="rect9775"
       width="6"
       height="1"
       x="5"
       y="17" />
    <path
       sodipodi:type="arc"
       style="opacity:1;fill:url(#radialGradient9824);fill-opacity:1.0;fill-rule:evenodd;stroke:none;stroke-width:1;stroke-linecap:butt;stroke-linejoin:miter;stroke-miterlimit:6;stroke-dasharray:none;stroke-opacity:1"
       id="path9816"
       sodipodi:cx="11.5"
       sodipodi:cy="25.5"
       sodipodi:rx="1.5"
       sodipodi:ry="1.5"
       d="M 13 25.5 A 1.5 1.5 0 1 1  10,25.5 A 1.5 1.5 0 1 1  13 25.5 z" />
  </g>
</svg>
