<?xml version="1.0" encoding="UTF-8" standalone="no"?>
<!-- Created with Inkscape (http://www.inkscape.org/) -->
<svg
   xmlns:dc="http://purl.org/dc/elements/1.1/"
   xmlns:cc="http://web.resource.org/cc/"
   xmlns:rdf="http://www.w3.org/1999/02/22-rdf-syntax-ns#"
   xmlns:svg="http://www.w3.org/2000/svg"
   xmlns="http://www.w3.org/2000/svg"
   xmlns:sodipodi="http://sodipodi.sourceforge.net/DTD/sodipodi-0.dtd"
   xmlns:inkscape="http://www.inkscape.org/namespaces/inkscape"
   width="26"
   height="26"
   id="svg2"
   sodipodi:version="0.32"
   inkscape:version="0.45.1"
   sodipodi:docbase="C:\Radix\dev\trunk\org.radixware\kernel\designer\src\common.resources\src\org\radixware\kernel\designer\resources\icons\unused\edit"
   sodipodi:docname="replace2.svg"
   version="1.0"
   inkscape:output_extension="org.inkscape.output.svg.inkscape">
  <defs
     id="defs4" />
  <sodipodi:namedview
     id="base"
     pagecolor="#ffffff"
     bordercolor="#000000"
     borderopacity="1.0"
     inkscape:pageopacity="0.0"
     inkscape:pageshadow="2"
     inkscape:zoom="21"
     inkscape:cx="10"
     inkscape:cy="10"
     inkscape:document-units="px"
     inkscape:current-layer="layer1"
     inkscape:window-width="1080"
     inkscape:window-height="748"
     inkscape:window-x="100"
     inkscape:window-y="%window-y"
     showgrid="true" />
  <metadata
     id="metadata7">
    <rdf:RDF>
      <cc:Work
         rdf:about="">
        <dc:format>image/svg+xml</dc:format>
        <dc:type
           rdf:resource="http://purl.org/dc/dcmitype/StillImage" />
      </cc:Work>
    </rdf:RDF>
  </metadata>
  <g
     inkscape:label="Layer 1"
     inkscape:groupmode="layer"
     id="layer1">
    <path
       style="fill:#000000;fill-opacity:1;fill-rule:evenodd;stroke:#000000;stroke-width:0.51753378;stroke-linecap:round;stroke-linejoin:round;stroke-miterlimit:4;stroke-dasharray:none;stroke-opacity:1"
       d="M 7,1.0087669 L 2.0087669,11.741233 L 4.0052601,11.741233 C 4.0052601,11.741233 5.4402399,8.5214932 5.4402397,8.5214932 C 5.4402397,8.5214932 8.5686733,8.5214932 8.9964932,8.5214932 C 9.4243132,8.5214932 9.9947399,11.741233 9.9947399,11.741233 L 11.991233,11.741233 L 8.9964932,1.0087669 L 7,1.0087669 z M 7.8110754,2.6857147 L 8.9341028,6.8780844 L 5.7521917,6.8780844 L 7.8110754,2.6857147 z "
       id="path2157" />
    <path
       style="fill:#000000;fill-opacity:1;fill-rule:evenodd;stroke:#000000;stroke-width:0.52204895;stroke-linecap:round;stroke-linejoin:round;stroke-miterlimit:4;stroke-dasharray:none;stroke-opacity:1"
       d="M 19.769078,12.268981 C 19.442298,12.265115 19.119206,12.288137 18.786835,12.301496 C 18.406982,12.316763 18.00997,12.341274 17.640885,12.366526 L 13.744655,23.64926 C 16.620495,23.522197 22.632051,24.790481 23.632567,20.690387 C 24.116937,17.477397 20.899893,17.714249 18.786835,17.56894 C 20.451192,17.258842 23.09675,17.416916 23.632567,15.487974 C 24.06383,12.870338 22.056539,12.296046 19.769078,12.268981 z M 20.03101,13.504554 C 21.307015,13.487167 22.558711,13.631962 21.962754,15.065278 C 21.55459,16.281155 19.609561,16.354032 17.9683,16.365881 L 18.819577,13.537069 C 19.185355,13.534469 19.605675,13.51035 20.03101,13.504554 z M 18.328455,18.837028 C 21.131485,18.923011 23.042687,19.720445 21.897271,21.145599 C 20.739466,22.540378 17.240578,22.222133 15.90559,22.186081 L 17.05154,18.869543 C 17.481008,18.853666 17.928023,18.824745 18.328455,18.837028 z "
       id="path5069" />
    <path
       style="fill:#0056ff;fill-rule:evenodd;stroke:#000000;stroke-width:0.5;stroke-linecap:round;stroke-linejoin:round;stroke-opacity:1;stroke-miterlimit:4;stroke-dasharray:none;fill-opacity:1"
       d="M 4,14 C 4.5263541,17.087292 4.2357061,20.592584 10,21 L 10,23 L 13,19 L 10,15 L 10,17 C 7.6460382,19.451127 5.8686888,16.280284 4,14 z "
       id="path7984"
       sodipodi:nodetypes="ccccccc" />
    <path
       style="fill:#0056ff;fill-opacity:1;fill-rule:evenodd;stroke:#000000;stroke-width:0.5;stroke-linecap:round;stroke-linejoin:round;stroke-miterlimit:4;stroke-dasharray:none;stroke-opacity:1"
       d="M 22.25,10.75 C 21.723646,7.6627081 22.014294,4.1574161 16.25,3.7500001 L 16.25,1.7500001 L 13.25,5.7500001 L 16.25,9.7500001 L 16.25,7.7500001 C 18.603962,5.2988731 20.381311,8.4697161 22.25,10.75 z "
       id="path9924"
       sodipodi:nodetypes="ccccccc" />
  </g>
</svg>
