<?xml version="1.0" encoding="utf-8"?>
<!-- Generator: Adobe Illustrator 14.0.0, SVG Export Plug-In . SVG Version: 6.00 Build 43363)  -->
<!DOCTYPE svg PUBLIC "-//W3C//DTD SVG 1.1//EN" "http://www.w3.org/Graphics/SVG/1.1/DTD/svg11.dtd">
<svg version="1.1"
	 id="svg1" sodipodi:docname="error.svg" inkscape:version="0.45.1" sodipodi:version="0.32" sodipodi:docbase="C:\Radix\dev\trunk\org.radixware\kernel\designer\src\common.resources\src\org\radixware\kernel\designer\resources\icons\eventseverity" inkscape:output_extension="org.inkscape.output.svg.inkscape" xmlns:ns="http://creativecommons.org/ns#" xmlns:dc="http://purl.org/dc/elements/1.1/" xmlns:cc="http://web.resource.org/cc/" xmlns:rdf="http://www.w3.org/1999/02/22-rdf-syntax-ns#" xmlns:svg="http://www.w3.org/2000/svg" xmlns:sodipodi="http://sodipodi.sourceforge.net/DTD/sodipodi-0.dtd" xmlns:inkscape="http://www.inkscape.org/namespaces/inkscape"
	 xmlns="http://www.w3.org/2000/svg" xmlns:xlink="http://www.w3.org/1999/xlink" x="0px" y="0px" width="32px" height="32px"
	 viewBox="0 0 32 32" enable-background="new 0 0 32 32" xml:space="preserve">
<sodipodi:namedview  id="base" pagecolor="#ffffff" bordercolor="#666666" borderopacity="1.0" showgrid="false" inkscape:zoom="4.911941" inkscape:cx="-8.7921191" inkscape:cy="16.199026" inkscape:current-layer="svg1" inkscape:pageopacity="0.0" inkscape:pageshadow="2" inkscape:window-width="1280" inkscape:window-height="944" inkscape:window-x="-8" inkscape:window-y="-8">
	</sodipodi:namedview>
<g>
	<path d="M15.999,32C7.178,32,0,24.822,0,16s7.178-16,16-16C24.822,0,32,7.178,32,16S24.822,32,15.999,32L15.999,32z M15.999,20.018
		c0.256,0,0.512,0.099,0.707,0.293l5.226,5.227l3.605-3.604l-5.227-5.227c-0.391-0.391-0.391-1.023,0-1.414l5.227-5.225
		l-3.604-3.604l-5.228,5.226c-0.195,0.194-0.451,0.293-0.707,0.293s-0.512-0.099-0.707-0.293l-5.226-5.227l-3.603,3.604l5.225,5.226
		c0.391,0.392,0.391,1.022,0,1.414l-5.226,5.226l3.603,3.604l5.227-5.225C15.487,20.115,15.743,20.018,15.999,20.018L15.999,20.018z
		"/>
	<path fill="#ED2828" d="M15.999,1C7.715,1,1,7.716,1,16s6.716,15,15,15C24.285,31,31,24.284,31,16S24.285,1,15.999,1z
		 M21.932,26.95l-5.933-5.933l-5.933,5.933l-5.017-5.019L10.981,16l-5.932-5.934l5.017-5.017l5.933,5.933l5.935-5.933l5.018,5.019
		L21.018,16l5.934,5.934L21.932,26.95z"/>
	
		<linearGradient id="SVGID_1_" gradientUnits="userSpaceOnUse" x1="-0.4604" y1="-104.8398" x2="27.54" y2="-104.8398" gradientTransform="matrix(1 0 0 -1 2.46 -88.8398)">
		<stop  offset="0" style="stop-color:#F49599"/>
		<stop  offset="1" style="stop-color:#8E1B1E"/>
	</linearGradient>
	<path fill="url(#SVGID_1_)" d="M15.999,30c-7.72,0-14-6.28-14-14s6.28-14,14-14C23.721,2,30,8.28,30,16S23.721,30,15.999,30
		L15.999,30z M21.932,28.364l6.432-6.433L22.432,16l5.934-5.932l-6.432-6.433l-5.935,5.933l-5.933-5.934l-6.431,6.432L9.567,16
		l-5.933,5.932l6.431,6.433l5.934-5.933L21.932,28.364z"/>
</g>
</svg>
