<?xml version="1.0" encoding="utf-8"?>
<!-- Generator: Adobe Illustrator 14.0.0, SVG Export Plug-In . SVG Version: 6.00 Build 43363)  -->
<!DOCTYPE svg PUBLIC "-//W3C//DTD SVG 1.1//EN" "http://www.w3.org/Graphics/SVG/1.1/DTD/svg11.dtd">
<svg version="1.1"
	 id="svg3488" sodipodi:docname="event.svg" inkscape:version="0.45.1" sodipodi:version="0.32" sodipodi:docbase="C:\Radix\dev\trunk\org.radixware\kernel\designer\src\common.resources\src\org\radixware\kernel\designer\resources\icons\eventseverity" inkscape:output_extension="org.inkscape.output.svg.inkscape" xmlns:ns="http://creativecommons.org/ns#" xmlns:dc="http://purl.org/dc/elements/1.1/" xmlns:cc="http://web.resource.org/cc/" xmlns:rdf="http://www.w3.org/1999/02/22-rdf-syntax-ns#" xmlns:svg="http://www.w3.org/2000/svg" xmlns:sodipodi="http://sodipodi.sourceforge.net/DTD/sodipodi-0.dtd" xmlns:inkscape="http://www.inkscape.org/namespaces/inkscape"
	 xmlns="http://www.w3.org/2000/svg" xmlns:xlink="http://www.w3.org/1999/xlink" x="0px" y="0px" width="32px" height="32px"
	 viewBox="0 0 32 32" enable-background="new 0 0 32 32" xml:space="preserve">
<sodipodi:namedview  id="base" pagecolor="#ffffff" bordercolor="#666666" borderopacity="1.0" objecttolerance="10" gridtolerance="10000" showgrid="false" guidetolerance="10" inkscape:zoom="9.6014722" inkscape:cx="39.40794" inkscape:cy="3.5982562" inkscape:current-layer="layer1" inkscape:pageopacity="0.0" inkscape:pageshadow="2" inkscape:window-width="1280" inkscape:window-height="944" inkscape:window-x="-8" inkscape:window-y="-8" inkscape:document-units="px">
	</sodipodi:namedview>
<g>
	<g>
		<path d="M12.288,24.033c-0.596,0-1.083-0.476-1.094-1.074c-0.021-1.349-0.24-3.589-0.652-4.352
			c-0.35-0.645-0.813-1.348-1.307-2.092c-1.359-2.046-2.896-4.364-2.896-6.854C6.339,4.334,10.673,0,16,0
			c5.329,0,9.661,4.334,9.661,9.662c0,2.488-1.537,4.807-2.895,6.853c-0.492,0.745-0.957,1.446-1.309,2.093
			c-0.41,0.764-0.629,3.006-0.652,4.354c-0.012,0.597-0.496,1.072-1.092,1.072H12.288z"/>
		<path fill="#6FBD46" d="M16,1.094c-4.733,0-8.567,3.835-8.567,8.568c0,2.999,2.741,5.968,4.069,8.424
			c0.728,1.346,0.786,4.856,0.786,4.856h7.427c0,0,0.059-3.513,0.785-4.856c1.326-2.456,4.068-5.425,4.068-8.424
			C24.566,4.928,20.73,1.094,16,1.094z"/>
		
			<radialGradient id="SVGID_1_" cx="15.7031" cy="-94.4648" r="8.4552" gradientTransform="matrix(1 0 0 -1 2.46 -88.8398)" gradientUnits="userSpaceOnUse">
			<stop  offset="0" style="stop-color:#FFFFFF"/>
			<stop  offset="1" style="stop-color:#FFFFFF;stop-opacity:0"/>
		</radialGradient>
		<circle fill="url(#SVGID_1_)" cx="16" cy="9.18" r="7.294"/>
		
			<linearGradient id="SVGID_2_" gradientUnits="userSpaceOnUse" x1="23.6641" y1="-106.022" x2="11.1912" y2="-99.9212" gradientTransform="matrix(1 0 0 -1 2.46 -88.8398)">
			<stop  offset="0" style="stop-color:#FFFFFF"/>
			<stop  offset="1" style="stop-color:#FFFFFF;stop-opacity:0"/>
		</linearGradient>
		<path fill="url(#SVGID_2_)" d="M13.367,21.849c-0.076-1.257-0.288-3.207-0.87-4.281c-0.396-0.734-0.888-1.474-1.408-2.26
			c-1.188-1.791-2.531-3.817-2.531-5.646c0-4.124,3.354-7.477,7.475-7.477c4.125,0,7.478,3.354,7.478,7.477
			c0,1.828-1.346,3.854-2.529,5.643c-0.523,0.786-1.016,1.528-1.412,2.262c-0.58,1.072-0.793,3.024-0.871,4.281H13.367z"/>
		<line fill="none" stroke="#000000" stroke-width="0.8125" x1="14.416" y1="22.334" x2="11.405" y2="8.742"/>
		<line fill="none" stroke="#000000" stroke-width="0.8125" x1="17.293" y1="22.541" x2="20.598" y2="8.742"/>
		<polyline fill="none" stroke="#000000" stroke-width="0.8125" points="11.667,9.665 14.225,10.148 16.033,9.179 17.777,10.148 
			20.398,9.846 		"/>
		<path d="M12.288,30.589c-0.604,0-1.094-0.487-1.094-1.091v-6.556c0-0.604,0.49-1.094,1.094-1.094h7.537
			c0.604,0,1.094,0.49,1.094,1.094v6.556c0,0.602-0.49,1.091-1.094,1.091H12.288z"/>
		<rect x="12.288" y="22.942" fill="#03AAD6" width="7.537" height="6.556"/>
		
			<linearGradient id="SVGID_3_" gradientUnits="userSpaceOnUse" x1="10.9194" y1="-115.0586" x2="16.2725" y2="-115.0586" gradientTransform="matrix(1 0 0 -1 2.46 -88.8398)">
			<stop  offset="0" style="stop-color:#AECFD9"/>
			<stop  offset="1" style="stop-color:#0C7C9E"/>
		</linearGradient>
		<rect x="13.379" y="24.033" fill="url(#SVGID_3_)" width="5.353" height="4.371"/>
		<rect x="13.917" y="30.089" width="4.281" height="1.911"/>
		<line fill="none" stroke="#000000" stroke-width="0.8125" x1="11.667" y1="26.221" x2="19.824" y2="22.942"/>
		<line fill="none" stroke="#000000" stroke-width="0.8125" x1="12.288" y1="29.498" x2="20.398" y2="25.947"/>
	</g>
</g>
</svg>
