<?xml version="1.0" encoding="utf-8"?>
<!-- Generator: Adobe Illustrator 14.0.0, SVG Export Plug-In . SVG Version: 6.00 Build 43363)  -->
<!DOCTYPE svg PUBLIC "-//W3C//DTD SVG 1.1//EN" "http://www.w3.org/Graphics/SVG/1.1/DTD/svg11.dtd">
<svg version="1.1"
	 id="svg3488" sodipodi:docname="none.svg" inkscape:version="0.45.1" sodipodi:version="0.32" sodipodi:docbase="C:\Radix\dev\trunk\org.radixware\kernel\designer\src\common.resources\src\org\radixware\kernel\designer\resources\icons\eventseverity" inkscape:output_extension="org.inkscape.output.svg.inkscape" xmlns:ns="http://creativecommons.org/ns#" xmlns:dc="http://purl.org/dc/elements/1.1/" xmlns:cc="http://web.resource.org/cc/" xmlns:rdf="http://www.w3.org/1999/02/22-rdf-syntax-ns#" xmlns:svg="http://www.w3.org/2000/svg" xmlns:sodipodi="http://sodipodi.sourceforge.net/DTD/sodipodi-0.dtd" xmlns:inkscape="http://www.inkscape.org/namespaces/inkscape"
	 xmlns="http://www.w3.org/2000/svg" xmlns:xlink="http://www.w3.org/1999/xlink" x="0px" y="0px" width="32px" height="32px"
	 viewBox="0 0 32 32" enable-background="new 0 0 32 32" xml:space="preserve">
<sodipodi:namedview  id="base" pagecolor="#ffffff" bordercolor="#666666" borderopacity="1.0" objecttolerance="10" gridtolerance="10000" showgrid="false" guidetolerance="10" inkscape:zoom="9.6014722" inkscape:cx="21.546096" inkscape:cy="3.5982562" inkscape:current-layer="g3210" inkscape:pageopacity="0.0" inkscape:pageshadow="2" inkscape:window-width="1280" inkscape:window-height="944" inkscape:window-x="0" inkscape:window-y="44" inkscape:document-units="px">
	</sodipodi:namedview>
<g>
	<path d="M12.288,24.034c-0.596,0-1.082-0.478-1.092-1.074c-0.023-1.349-0.241-3.591-0.654-4.354
		c-0.35-0.645-0.813-1.347-1.307-2.09C7.877,14.47,6.339,12.15,6.339,9.661C6.339,4.334,10.673,0,16,0
		c5.328,0,9.66,4.334,9.66,9.661c0,2.489-1.537,4.808-2.895,6.854c-0.492,0.743-0.957,1.445-1.307,2.092
		c-0.412,0.765-0.631,3.007-0.654,4.354c-0.012,0.596-0.496,1.073-1.092,1.073H12.288z"/>
	<path fill="#B3B2B3" d="M16,1.093c-4.732,0-8.568,3.837-8.568,8.568c0,3.001,2.743,5.97,4.07,8.426
		c0.727,1.345,0.785,4.854,0.785,4.854h7.425c0,0,0.061-3.512,0.785-4.854c1.328-2.457,4.07-5.426,4.07-8.426
		C24.568,4.93,20.73,1.093,16,1.093z"/>
	
		<radialGradient id="SVGID_1_" cx="15.7031" cy="-94.4653" r="8.4552" gradientTransform="matrix(1 0 0 -1 2.46 -88.8398)" gradientUnits="userSpaceOnUse">
		<stop  offset="0" style="stop-color:#FFFFFF"/>
		<stop  offset="1" style="stop-color:#FFFFFF;stop-opacity:0"/>
	</radialGradient>
	<circle fill="url(#SVGID_1_)" cx="16" cy="9.181" r="7.295"/>
	
		<linearGradient id="SVGID_2_" gradientUnits="userSpaceOnUse" x1="23.6631" y1="-106.022" x2="11.1907" y2="-99.9215" gradientTransform="matrix(1 0 0 -1 2.46 -88.8398)">
		<stop  offset="0" style="stop-color:#FFFFFF"/>
		<stop  offset="1" style="stop-color:#FFFFFF;stop-opacity:0"/>
	</linearGradient>
	<path fill="url(#SVGID_2_)" d="M13.369,21.85c-0.078-1.257-0.292-3.209-0.872-4.281c-0.396-0.732-0.889-1.475-1.408-2.26
		c-1.188-1.789-2.531-3.816-2.531-5.646c0-4.122,3.354-7.477,7.478-7.477c4.124,0,7.475,3.354,7.475,7.477
		c0,1.829-1.346,3.855-2.529,5.645c-0.521,0.786-1.014,1.529-1.41,2.262c-0.578,1.074-0.793,3.025-0.871,4.283h-5.331V21.85z"/>
	<line fill="none" stroke="#000000" x1="14.417" y1="22.334" x2="11.403" y2="8.74"/>
	<line fill="none" stroke="#000000" x1="17.293" y1="22.542" x2="20.598" y2="8.74"/>
	<polyline fill="none" stroke="#000000" points="11.667,9.664 14.225,10.146 16.034,9.18 17.775,10.146 20.398,9.848 	"/>
	<path d="M12.288,30.589c-0.604,0-1.092-0.487-1.092-1.092v-6.556c0-0.604,0.488-1.092,1.092-1.092h7.539
		c0.604,0,1.092,0.487,1.092,1.092v6.556c0,0.604-0.488,1.092-1.092,1.092H12.288z"/>
	<rect x="12.288" y="22.941" fill="#02ABD8" width="7.539" height="6.556"/>
	
		<linearGradient id="SVGID_3_" gradientUnits="userSpaceOnUse" x1="10.9194" y1="-115.0591" x2="16.2725" y2="-115.0591" gradientTransform="matrix(1 0 0 -1 2.46 -88.8398)">
		<stop  offset="0" style="stop-color:#B0D0DA"/>
		<stop  offset="1" style="stop-color:#0C7C9E"/>
	</linearGradient>
	<rect x="13.379" y="24.034" fill="url(#SVGID_3_)" width="5.353" height="4.37"/>
	<rect x="13.917" y="30.089" width="4.279" height="1.911"/>
	<line fill="none" stroke="#000000" x1="11.667" y1="26.22" x2="19.824" y2="22.941"/>
	<line fill="none" stroke="#000000" x1="12.288" y1="29.497" x2="20.398" y2="25.945"/>
</g>
</svg>
