<?xml version="1.0" encoding="utf-8"?>
<!-- Generator: Adobe Illustrator 14.0.0, SVG Export Plug-In . SVG Version: 6.00 Build 43363)  -->
<!DOCTYPE svg PUBLIC "-//W3C//DTD SVG 1.1//EN" "http://www.w3.org/Graphics/SVG/1.1/DTD/svg11.dtd">
<svg version="1.1"
	 id="svg2" xmlns:ns="http://creativecommons.org/ns#" xmlns:svg="http://www.w3.org/2000/svg" xmlns:cc="http://web.resource.org/cc/" xmlns:dc="http://purl.org/dc/elements/1.1/" xmlns:rdf="http://www.w3.org/1999/02/22-rdf-syntax-ns#" xmlns:inkscape="http://www.inkscape.org/namespaces/inkscape" xmlns:sodipodi="http://sodipodi.sourceforge.net/DTD/sodipodi-0.dtd" sodipodi:version="0.32" inkscape:version="0.45.1" sodipodi:docname="any_object.svg" sodipodi:docbase="C:\Radix\dev\trunk\org.radixware\kernel\designer\src\common.resources\src\org\radixware\kernel\designer\resources\icons\object" inkscape:output_extension="org.inkscape.output.svg.inkscape"
	 xmlns="http://www.w3.org/2000/svg" xmlns:xlink="http://www.w3.org/1999/xlink" x="0px" y="0px" width="32px" height="32px"
	 viewBox="0 0 32 32" enable-background="new 0 0 32 32" xml:space="preserve">
<path id="path6086_4_" d="M10.099,20.2c-0.139,0-0.277-0.023-0.407-0.07L0.81,16.977C0.324,16.804,0,16.345,0,15.832v-11.5
	c0-0.623,0.471-1.137,1.075-1.205l8.619-3.058C9.824,0.023,9.96,0,10.101,0c0.138,0,0.276,0.023,0.404,0.069l8.724,3.095
	c0.533,0.142,0.973,0.611,0.973,1.168v11.5c0,0.515-0.323,0.974-0.81,1.145l-8.887,3.153C10.374,20.177,10.236,20.2,10.099,20.2
	L10.099,20.2z"/>
<polygon id="polygon5202_13_" fill="#AA3C25" points="1.226,4.332 10.111,7.484 10.111,18.985 1.226,15.832 "/>
<polygon id="polygon5204_13_" fill="#E9B7AF" points="18.993,4.332 10.111,7.484 10.111,18.985 18.993,15.832 "/>
<polygon id="polygon5206_13_" fill="#DF8178" points="18.902,4.332 10.111,1.215 1.319,4.332 1.226,4.332 1.269,4.349 1.226,4.365 
	1.319,4.365 10.111,7.484 18.902,4.365 18.993,4.365 18.951,4.349 18.993,4.332 "/>
<linearGradient id="polygon6538_1_" gradientUnits="userSpaceOnUse" x1="1077.3486" y1="2038.7246" x2="1088.0348" y2="2028.1368" gradientTransform="matrix(0.5772 0 0 0.5772 -620.9862 -1160.3798)">
	<stop  offset="0" style="stop-color:#3A1813"/>
	<stop  offset="1" style="stop-color:#AA3C25;stop-opacity:0"/>
</linearGradient>
<polygon id="polygon6538_5_" fill="url(#polygon6538_1_)" points="1.564,4.803 9.799,7.726 9.799,18.385 1.564,15.464 "/>
<linearGradient id="polygon6548_1_" gradientUnits="userSpaceOnUse" x1="1158.1689" y1="2110.3086" x2="1146.0264" y2="2097.2358" gradientTransform="matrix(0.5627 0 0 0.5627 -632.1385 -1170.2723)">
	<stop  offset="0" style="stop-color:#FDF0ED"/>
	<stop  offset="1" style="stop-color:#E9B7AF;stop-opacity:0"/>
</linearGradient>
<polygon id="polygon6548_5_" fill="url(#polygon6548_1_)" points="18.398,5.002 10.368,7.848 10.368,18.241 18.398,15.393 "/>
<linearGradient id="path6572_1_" gradientUnits="userSpaceOnUse" x1="-3246.3135" y1="-2375.2612" x2="-3260.1401" y2="-2375.2964" gradientTransform="matrix(0 -0.6226 -0.6226 0 -1468.8159 -2012.8638)">
	<stop  offset="0" style="stop-color:#FFFFFF"/>
	<stop  offset="1" style="stop-color:#FFFFFF;stop-opacity:0"/>
</linearGradient>
<path id="path6572_13_" fill="url(#path6572_1_)" d="M9.514,7.36l0.481,11.41H9.986L10.524,7.2L9.514,7.36L9.514,7.36z"/>
<linearGradient id="path6582_1_" gradientUnits="userSpaceOnUse" x1="-1526.9932" y1="2254.1719" x2="-1538.7728" y2="2254.1663" gradientTransform="matrix(-0.5857 0.2112 0.2112 0.5857 -1359.8506 -990.4374)">
	<stop  offset="0" style="stop-color:#FFFFFF"/>
	<stop  offset="1" style="stop-color:#FFFFFF;stop-opacity:0"/>
</linearGradient>
<path id="path6582_15_" fill="url(#path6582_1_)" d="M10.142,8.029l8.854-3.697L9.646,7.134L10.142,8.029z"/>
<linearGradient id="path6586_1_" gradientUnits="userSpaceOnUse" x1="1691.5889" y1="1093.4746" x2="1680.2534" y2="1093.4645" gradientTransform="matrix(0.5857 0.2112 -0.2112 0.5857 -750.5371 -990.4677)">
	<stop  offset="0" style="stop-color:#FFFFFF"/>
	<stop  offset="1" style="stop-color:#FFFFFF;stop-opacity:0"/>
</linearGradient>
<path id="path6586_13_" fill="url(#path6586_1_)" d="M9.863,7.988L1.228,4.332l9.133,2.766L9.863,7.988z"/>
<path d="M18.633,32c-0.235,0-0.467-0.066-0.669-0.199c-0.343-0.226-0.548-0.606-0.548-1.014V10.218c0-0.517,0.329-0.979,0.816-1.149
	c0.13-0.045,0.268-0.067,0.4-0.067c0.363,0,0.716,0.163,0.951,0.459l12.153,15.315c0.233,0.296,0.32,0.683,0.225,1.053
	c-0.091,0.365-0.349,0.668-0.697,0.819L19.114,31.9C18.959,31.967,18.796,32,18.633,32L18.633,32z"/>
<path fill="#231F20" d="M18.65,32c-0.163,0-0.326-0.033-0.481-0.096L5.529,26.43c-0.353-0.152-0.609-0.458-0.7-0.833
	c-0.088-0.373,0.005-0.77,0.252-1.06l12.64-15.102c0.235-0.282,0.58-0.435,0.933-0.435c0.14,0,0.279,0.024,0.416,0.072
	c0.481,0.175,0.801,0.631,0.801,1.145v20.569c0,0.41-0.205,0.794-0.548,1.014C19.119,31.934,18.886,32,18.65,32L18.65,32z"/>
<polygon fill="#02ABD8" points="18.65,10.218 6.013,25.316 18.65,30.787 "/>
<linearGradient id="SVGID_1_" gradientUnits="userSpaceOnUse" x1="17.374" y1="-109.8252" x2="6.5156" y2="-109.8113" gradientTransform="matrix(1 0 0 -1 2.46 -88.8398)">
	<stop  offset="0" style="stop-color:#B0D0DA;stop-opacity:0"/>
	<stop  offset="1" style="stop-color:#085066"/>
</linearGradient>
<polygon fill="url(#SVGID_1_)" points="7.063,25.11 17.916,12.144 17.916,29.809 "/>
<polygon fill="#02ABD8" points="18.633,10.218 30.784,25.53 18.633,30.787 "/>
<linearGradient id="SVGID_2_" gradientUnits="userSpaceOnUse" x1="26.6689" y1="-109.6851" x2="12.9979" y2="-109.9293" gradientTransform="matrix(1 0 0 -1 2.46 -88.8398)">
	<stop  offset="0" style="stop-color:#EEF1F2"/>
	<stop  offset="1" style="stop-color:#FFFFFF;stop-opacity:0"/>
</linearGradient>
<polygon fill="url(#SVGID_2_)" points="19.366,12.231 29.749,25.319 19.366,29.809 "/>
<linearGradient id="path6582_2_" gradientUnits="userSpaceOnUse" x1="-578.0796" y1="1581.1895" x2="-601.4837" y2="1581.1783" gradientTransform="matrix(0.2112 0.5857 0.5857 -0.2112 -782.7333 700.6465)">
	<stop  offset="0" style="stop-color:#FFFFFF"/>
	<stop  offset="1" style="stop-color:#FFFFFF;stop-opacity:0"/>
</linearGradient>
<path id="path6582_12_" fill="url(#path6582_2_)" d="M19.04,30.66l-0.39-20.442L18.361,30.66H19.04z"/>
</svg>
