<?xml version="1.0" encoding="utf-8"?>
<!-- Generator: Adobe Illustrator 14.0.0, SVG Export Plug-In . SVG Version: 6.00 Build 43363)  -->
<!DOCTYPE svg PUBLIC "-//W3C//DTD SVG 1.1//EN" "http://www.w3.org/Graphics/SVG/1.1/DTD/svg11.dtd">
<svg version="1.1"
	 id="svg2" xmlns:ns="http://creativecommons.org/ns#" xmlns:svg="http://www.w3.org/2000/svg" xmlns:cc="http://web.resource.org/cc/" xmlns:dc="http://purl.org/dc/elements/1.1/" xmlns:rdf="http://www.w3.org/1999/02/22-rdf-syntax-ns#" xmlns:inkscape="http://www.inkscape.org/namespaces/inkscape" xmlns:sodipodi="http://sodipodi.sourceforge.net/DTD/sodipodi-0.dtd" sodipodi:version="0.32" inkscape:version="0.45.1" sodipodi:docname="enum_item_char.svg" sodipodi:docbase="C:\Radix\dev\trunk\org.radixware\kernel\designer\src\common.resources\src\org\radixware\kernel\designer\resources\icons\object" inkscape:output_extension="org.inkscape.output.svg.inkscape"
	 xmlns="http://www.w3.org/2000/svg" xmlns:xlink="http://www.w3.org/1999/xlink" x="0px" y="0px" width="32px" height="32px"
	 viewBox="0 0 32 32" enable-background="new 0 0 32 32" xml:space="preserve">
<path d="M16.031,32.084c-8.823,0-16-7.178-16-16s7.178-16,16-16c8.822,0,16,7.178,16,16S24.854,32.084,16.031,32.084L16.031,32.084z
	"/>
<path id="path3411" sodipodi:cx="22.605156" sodipodi:rx="13.609226" sodipodi:ry="13.609226" sodipodi:cy="18.621439" sodipodi:type="arc" fill="#ED2526" d="
	M31.031,16.084c0,8.284-6.716,15-15,15c-8.285,0-15-6.716-15-15l0,0c0-8.284,6.716-15,15-15C24.315,1.084,31.031,7.8,31.031,16.084z
	"/>
<linearGradient id="SVGID_1_" gradientUnits="userSpaceOnUse" x1="2.0308" y1="16.084" x2="30.0313" y2="16.084">
	<stop  offset="0" style="stop-color:#F59699"/>
	<stop  offset="1" style="stop-color:#8F1A1D"/>
</linearGradient>
<path fill="url(#SVGID_1_)" d="M16.031,30.084c-7.72,0-14-6.28-14-14s6.281-14,14-14s14,6.28,14,14S23.751,30.084,16.031,30.084
	L16.031,30.084z"/>
<path d="M19.397,27.282c-0.469,0-0.875-0.325-0.977-0.783l-0.58-2.611h-3.805l-0.572,2.608c-0.101,0.459-0.507,0.786-0.977,0.786
	H7.632c-0.313,0-0.608-0.146-0.797-0.396c-0.189-0.249-0.25-0.572-0.166-0.874l5.778-20.564c0.122-0.432,0.515-0.729,0.963-0.729
	h5.181c0.448,0,0.842,0.298,0.963,0.729l5.777,20.564c0.085,0.302,0.023,0.625-0.166,0.874c-0.188,0.25-0.483,0.396-0.797,0.396
	H19.397z M16.391,17.44l-0.44-1.915l-0.438,1.915H16.391z"/>
<path id="text3433" fill="#FFFFFF" d="M18.644,22.888h-5.412l-0.744,3.395H7.632L13.41,5.718h5.181l5.777,20.564h-4.971
	L18.644,22.888z M17.646,18.44l-1.698-7.393l-1.689,7.393H17.646z"/>
</svg>
