<?xml version="1.0" encoding="utf-8"?>
<!-- Generator: Adobe Illustrator 14.0.0, SVG Export Plug-In . SVG Version: 6.00 Build 43363)  -->
<!DOCTYPE svg PUBLIC "-//W3C//DTD SVG 1.1//EN" "http://www.w3.org/Graphics/SVG/1.1/DTD/svg11.dtd">
<svg version="1.1"
	 id="svg3218" xmlns:ns="http://creativecommons.org/ns#" xmlns:svg="http://www.w3.org/2000/svg" xmlns:cc="http://web.resource.org/cc/" xmlns:dc="http://purl.org/dc/elements/1.1/" xmlns:rdf="http://www.w3.org/1999/02/22-rdf-syntax-ns#" xmlns:inkscape="http://www.inkscape.org/namespaces/inkscape" xmlns:sodipodi="http://sodipodi.sourceforge.net/DTD/sodipodi-0.dtd" sodipodi:version="0.32" inkscape:version="0.45.1" sodipodi:docname="custom_dialog.svg" sodipodi:docbase="C:\Radix\dev\trunk\org.radixware\kernel\designer\src\common.resources\src\org\radixware\kernel\designer\resources\icons\ads\custom" inkscape:output_extension="org.inkscape.output.svg.inkscape"
	 xmlns="http://www.w3.org/2000/svg" xmlns:xlink="http://www.w3.org/1999/xlink" x="0px" y="0px" width="32px" height="32px"
	 viewBox="0 0 32 32" enable-background="new 0 0 32 32" xml:space="preserve">
<path id="path4993_16_" fill="#020202" d="M3.477,28.736C1.56,28.736,0,27.057,0,24.99V7.013C0,6.03,0.348,5.104,0.98,4.4
	c0.66-0.732,1.545-1.137,2.499-1.137h25.048C30.444,3.264,32,4.946,32,7.013V24.99c0,2.066-1.556,3.746-3.473,3.746H3.477z"/>
<path id="rect26074_16_" fill="#FFFFFF" d="M3.477,4.311h25.046c1.345,0,2.428,1.205,2.428,2.702V24.99c0,1.496-1.083,2.7-2.428,2.7
	H3.477c-1.347,0-2.431-1.204-2.431-2.7V7.013C1.044,5.518,2.13,4.311,3.477,4.311z"/>
<linearGradient id="SVGID_1_" gradientUnits="userSpaceOnUse" x1="590.7451" y1="-924.2251" x2="567.8199" y2="-908.4752" gradientTransform="matrix(1 0 0 -1 -560.6201 -898.5195)">
	<stop  offset="0" style="stop-color:#000000;stop-opacity:0.42"/>
	<stop  offset="1" style="stop-color:#000000;stop-opacity:0"/>
</linearGradient>
<path fill="url(#SVGID_1_)" d="M3.477,26.644c-0.765,0-1.384-0.742-1.384-1.653V7.013c0-0.914,0.619-1.656,1.384-1.656h25.046
	c0.763,0,1.382,0.742,1.382,1.656V24.99c0,0.911-0.622,1.653-1.382,1.653H3.477z"/>
<linearGradient id="path26098_1_" gradientUnits="userSpaceOnUse" x1="1882.9102" y1="-3643.9951" x2="1882.9102" y2="-3641.1462" gradientTransform="matrix(1 0 0 -1 -1866.9141 -3636.1836)">
	<stop  offset="0" style="stop-color:#2A60A9"/>
	<stop  offset="1" style="stop-color:#B0D4F0"/>
</linearGradient>
<path id="path26098_16_" fill="url(#path26098_1_)" d="M3.489,4.311c-1.346,0-2.455,1.109-2.455,2.454v1.047h29.925V6.765
	c0-1.345-1.111-2.454-2.455-2.454H3.489z"/>
</svg>
