<?xml version="1.0" encoding="utf-8"?>
<!-- Generator: Adobe Illustrator 14.0.0, SVG Export Plug-In . SVG Version: 6.00 Build 43363)  -->
<!DOCTYPE svg PUBLIC "-//W3C//DTD SVG 1.1//EN" "http://www.w3.org/Graphics/SVG/1.1/DTD/svg11.dtd">
<svg version="1.1"
	 id="svg2" xmlns:ns="http://creativecommons.org/ns#" xmlns:svg="http://www.w3.org/2000/svg" xmlns:cc="http://web.resource.org/cc/" xmlns:dc="http://purl.org/dc/elements/1.1/" xmlns:rdf="http://www.w3.org/1999/02/22-rdf-syntax-ns#" xmlns:inkscape="http://www.inkscape.org/namespaces/inkscape" xmlns:sodipodi="http://sodipodi.sourceforge.net/DTD/sodipodi-0.dtd" sodipodi:version="0.32" inkscape:version="0.45.1" sodipodi:docname="custom_selector.svg" sodipodi:docbase="C:\Radix\dev\trunk\org.radixware\kernel\designer\src\common.resources\src\org\radixware\kernel\designer\resources\icons\ads\custom" inkscape:output_extension="org.inkscape.output.svg.inkscape"
	 xmlns="http://www.w3.org/2000/svg" xmlns:xlink="http://www.w3.org/1999/xlink" x="0px" y="0px" width="32px" height="32px"
	 viewBox="0 0 32 32" enable-background="new 0 0 32 32" xml:space="preserve">
<sodipodi:namedview  id="base" showguides="true" inkscape:cy="20.744207" inkscape:cx="4.7586285" inkscape:zoom="11" showgrid="true" borderopacity="1.0" bordercolor="#000000" pagecolor="#ffffff" inkscape:window-height="944" inkscape:window-width="1280" inkscape:pageshadow="2" inkscape:pageopacity="0.0" inkscape:current-layer="layer1" inkscape:window-y="-8" inkscape:window-x="-8" inkscape:guide-bbox="true" inkscape:document-units="px">
	</sodipodi:namedview>
<g>
	<path id="path4993_16_" fill="#020202" d="M3.477,25.473C1.561,25.473,0,23.793,0,21.727V3.75c0-0.983,0.348-1.909,0.98-2.613
		C1.641,0.404,2.525,0,3.479,0h25.049C30.443,0.001,32,1.683,32,3.75v17.977c0,2.066-1.557,3.746-3.473,3.746H3.477z"/>
	<path id="rect26074_16_" fill="#FFFFFF" d="M3.477,1.048h25.047c1.345,0,2.428,1.205,2.428,2.702v17.977
		c0,1.496-1.083,2.699-2.428,2.699H3.477c-1.347,0-2.431-1.203-2.431-2.699V3.75C1.044,2.255,2.13,1.048,3.477,1.048z"/>
	
		<linearGradient id="SVGID_1_" gradientUnits="userSpaceOnUse" x1="872.4648" y1="1357.9805" x2="849.5403" y2="1342.2311" gradientTransform="matrix(1 0 0 1 -842.3398 -1335.5391)">
		<stop  offset="0" style="stop-color:#000000;stop-opacity:0.42"/>
		<stop  offset="1" style="stop-color:#000000;stop-opacity:0"/>
	</linearGradient>
	<path fill="url(#SVGID_1_)" d="M3.477,23.381c-0.765,0-1.384-0.742-1.384-1.653V3.75c0-0.914,0.619-1.656,1.384-1.656h25.047
		c0.763,0,1.381,0.742,1.381,1.656v17.977c0,0.91-0.621,1.652-1.381,1.652H3.477V23.381z"/>
	
		<linearGradient id="path26098_1_" gradientUnits="userSpaceOnUse" x1="2164.6318" y1="4077.7529" x2="2164.6318" y2="4074.9041" gradientTransform="matrix(1 0 0 1 -2148.6348 -4073.2031)">
		<stop  offset="0" style="stop-color:#2A60A9"/>
		<stop  offset="1" style="stop-color:#B0D4F0"/>
	</linearGradient>
	<path id="path26098_16_" fill="url(#path26098_1_)" d="M3.488,1.048c-1.346,0-2.454,1.108-2.454,2.454v1.047h29.925V3.502
		c0-1.346-1.111-2.454-2.455-2.454H3.488z"/>
</g>
<g>
	<path d="M13.287,31.921c-0.23-0.003-0.451-0.096-0.613-0.263c-0.161-0.165-0.25-0.389-0.247-0.619
		c0.057-3.776-2.398-7.092-3.15-8.019c-0.066-0.08-0.118-0.174-0.15-0.273c-0.373-1.115-0.815-1.521-1.242-1.913
		c-0.293-0.271-0.597-0.552-0.834-0.988c-0.069-0.126-0.104-0.27-0.104-0.413c0-0.784,0.598-1.574,1.935-1.574
		c0.836,0,1.784,0.286,2.628,0.771c-0.001-0.299-0.003-0.588-0.004-0.868c-0.031-6.301-0.04-7.995,0.867-8.905
		c0.49-0.492,1.125-0.549,1.56-0.549c1.888,0,2.153,1.842,2.191,5.235c0.061-0.006,0.125-0.009,0.192-0.009
		c0.143,0,0.291,0.019,0.466,0.06c0.855,0.234,1.395,0.627,1.73,1.146c0.251-0.191,0.557-0.292,0.892-0.292
		c0.064,0,0.13,0.003,0.197,0.011c1.265,0.258,1.955,0.754,2.286,1.657c0.01,0,0.02,0,0.029,0c0.451,0,0.813,0.242,1.532,0.723
		c1.313,0.879,1.833,3.177,1.518,6.655c-0.129,1.421-0.743,4.178-1.126,5.278c-0.331,0.951-0.489,1.449-0.48,2.352
		c0.002,0.234-0.09,0.458-0.255,0.623C22.94,31.908,22.72,32,22.489,32L13.287,31.921z"/>
	<path id="path3343" sodipodi:nodetypes="ccccccccccccccccccc" fill="#FFFFFF" d="M13.295,31.052
		c0.056-3.801-2.194-7.161-3.346-8.579c-0.688-2.063-1.665-2.171-2.135-3.04c0-1.158,2.571-0.847,4.174,0.608
		c0.415,0.507,0.399,0.36,0.399,1.7C12.374,10.493,12.084,9.176,13.93,9.176c1.734,0,1.204,3.634,1.366,10.366
		c0.123-0.016,0.312-0.027,0.448,0.013c0.135-4.591-0.171-5.35,0.841-5.116c1.98,0.542,1.56,2.17,1.547,5.401
		c0.176-0.014,0.352-0.027,0.487-0.014c0.025-2.375-0.324-4.641,0.883-4.506c1.148,0.237,1.54,0.637,1.696,1.615
		c0.024,0.618-0.003,2.145,0.013,2.983c0.207-0.008,0.3-0.051,0.449-0.01c0.04-3.204-0.299-3.42,1.317-2.339
		c0.838,0.56,1.44,2.334,1.121,5.845c-0.122,1.346-0.729,4.056-1.081,5.071c-0.335,0.96-0.539,1.573-0.529,2.646L13.295,31.052z"/>
</g>
</svg>
