<?xml version="1.0" encoding="UTF-8" standalone="no"?>
<!-- Generator: Adobe Illustrator 14.0.0, SVG Export Plug-In . SVG Version: 6.00 Build 43363)  -->
<svg
   xmlns:dc="http://purl.org/dc/elements/1.1/"
   xmlns:cc="http://web.resource.org/cc/"
   xmlns:rdf="http://www.w3.org/1999/02/22-rdf-syntax-ns#"
   xmlns:svg="http://www.w3.org/2000/svg"
   xmlns="http://www.w3.org/2000/svg"
   xmlns:sodipodi="http://sodipodi.sourceforge.net/DTD/sodipodi-0.dtd"
   xmlns:inkscape="http://www.inkscape.org/namespaces/inkscape"
   version="1.1"
   id="Layer_1"
   x="0px"
   y="0px"
   width="32px"
   height="32px"
   viewBox="0 0 32 32"
   enable-background="new 0 0 32 32"
   xml:space="preserve"
   sodipodi:version="0.32"
   inkscape:version="0.45.1"
   sodipodi:docname="img6BRBGWZMIFHOPG64XLMPCHHGEA.svg"
   inkscape:output_extension="org.inkscape.output.svg.inkscape"
   sodipodi:docbase="D:\radix\dev\trunk\org.radixware\ads\Workflow.Dlg\img"><metadata
   id="metadata37"><rdf:RDF><cc:Work
       rdf:about=""><dc:format>image/svg+xml</dc:format><dc:type
         rdf:resource="http://purl.org/dc/dcmitype/StillImage" /></cc:Work></rdf:RDF></metadata><defs
   id="defs35">
	
	
</defs><sodipodi:namedview
   inkscape:window-height="480"
   inkscape:window-width="640"
   inkscape:pageshadow="2"
   inkscape:pageopacity="0.0"
   guidetolerance="10.0"
   gridtolerance="10.0"
   objecttolerance="10.0"
   borderopacity="1.0"
   bordercolor="#666666"
   pagecolor="#ffffff"
   id="base" />
<g
   id="g2881_3_"
   transform="translate(-4,0)">
		<g
   transform="translate(-5.5755111,29.767864)"
   id="g20887-2_24_">
			<g
   id="g2853_4_">
				<g
   id="g2855_5_">
					<path
   style="fill:#010101"
   d="M 23.82,-1.715 C 24.056,-1.715 24.291,-1.799 24.476,-1.961 L 37.23,-13.039 C 37.451,-13.228 37.576,-13.506 37.576,-13.796 C 37.576,-14.087 37.449,-14.361 37.228,-14.551 L 24.474,-25.576 C 24.288,-25.736 24.056,-25.82 23.82,-25.82 C 23.679,-25.82 23.537,-25.789 23.404,-25.728 C 23.05,-25.565 22.82,-25.21 22.82,-24.82 L 22.82,-20.537 L 16.923,-20.537 C 16.37,-20.537 15.923,-20.089 15.923,-19.537 L 15.923,-8.09 C 15.923,-7.537 16.37,-7.09 16.923,-7.09 L 22.82,-7.09 L 22.82,-2.715 C 22.82,-2.324 23.05,-1.969 23.406,-1.805 C 23.538,-1.744 23.679,-1.715 23.82,-1.715 L 23.82,-1.715 z "
   id="path2857_3_" />
				</g>
			</g>
		</g>
		<g
   transform="translate(-5.5755111,29.767864)"
   id="g20887-2_23_">
			<path
   style="fill:#01addb"
   d="M 23.82,-2.715 L 36.576,-13.795 L 23.82,-24.82 L 23.82,-19.537 L 16.923,-19.537 L 16.923,-8.09 L 23.82,-8.09 L 23.82,-2.715 z "
   id="path4348-2-1_32_" />
		</g>
		<g
   transform="translate(-5.5755111,29.767864)"
   id="g20887-2_22_">
			<g
   id="g2862_3_">
				<g
   id="g2864_4_">
					
						<linearGradient
   gradientTransform="translate(270.9883,-524.6797)"
   y2="502.8479"
   x2="-244.5036"
   y1="519.64227"
   x1="-244.5036"
   gradientUnits="userSpaceOnUse"
   id="polygon2871_1_">
						<stop
   id="stop16"
   style="stop-color:#0A7C9F"
   offset="0" />
						<stop
   id="stop18"
   style="stop-color:#B2D3DC"
   offset="1" />
					</linearGradient>
					<polygon
   style="fill:url(#polygon2871_1_)"
   points="35.048,-13.793 24.82,-22.634 24.82,-18.537 17.921,-18.537 17.921,-9.09 24.82,-9.09 24.82,-4.908 35.048,-13.793 "
   id="polygon2871_3_" />
				</g>
			</g>
		</g>
	</g>
</svg>