<?xml version="1.0" encoding="UTF-8" standalone="no"?>
<!-- Generator: Adobe Illustrator 14.0.0, SVG Export Plug-In . SVG Version: 6.00 Build 43363)  -->
<svg
   xmlns:dc="http://purl.org/dc/elements/1.1/"
   xmlns:cc="http://web.resource.org/cc/"
   xmlns:rdf="http://www.w3.org/1999/02/22-rdf-syntax-ns#"
   xmlns:svg="http://www.w3.org/2000/svg"
   xmlns="http://www.w3.org/2000/svg"
   xmlns:sodipodi="http://sodipodi.sourceforge.net/DTD/sodipodi-0.dtd"
   xmlns:inkscape="http://www.inkscape.org/namespaces/inkscape"
   version="1.1"
   id="Layer_1"
   x="0px"
   y="0px"
   width="32px"
   height="32px"
   viewBox="0 0 32 32"
   enable-background="new 0 0 32 32"
   xml:space="preserve"
   sodipodi:version="0.32"
   inkscape:version="0.45.1"
   sodipodi:docname="imgAEDM2IXDLRHT5LKIBZILVVBW2I.svg"
   inkscape:output_extension="org.inkscape.output.svg.inkscape"
   sodipodi:docbase="D:\radix\dev\trunk\org.radixware\ads\Workflow.Dlg\img"><metadata
   id="metadata27"><rdf:RDF><cc:Work
       rdf:about=""><dc:format>image/svg+xml</dc:format><dc:type
         rdf:resource="http://purl.org/dc/dcmitype/StillImage" /></cc:Work></rdf:RDF></metadata><defs
   id="defs25" /><sodipodi:namedview
   inkscape:window-height="480"
   inkscape:window-width="640"
   inkscape:pageshadow="2"
   inkscape:pageopacity="0.0"
   guidetolerance="10.0"
   gridtolerance="10.0"
   objecttolerance="10.0"
   borderopacity="1.0"
   bordercolor="#666666"
   pagecolor="#ffffff"
   id="base" />
<g
   id="g2855_5_"
   transform="translate(4,0)">
	<path
   id="path2857_3_"
   d="M 13.755,28.053 C 13.519,28.053 13.284,27.969 13.099,27.807 L 0.346,16.729 C 0.125,16.539 0,16.262 0,15.972 C 0,15.681 0.127,15.407 0.348,15.217 L 13.102,4.192 C 13.288,4.032 13.52,3.948 13.756,3.948 C 13.897,3.948 14.039,3.979 14.172,4.04 C 14.527,4.203 14.756,4.558 14.756,4.948 L 14.756,9.231 L 20.654,9.231 C 21.208,9.231 21.654,9.679 21.654,10.231 L 21.654,21.678 C 21.654,22.231 21.208,22.678 20.654,22.678 L 14.756,22.678 L 14.756,27.053 C 14.756,27.444 14.526,27.799 14.17,27.963 C 14.038,28.023 13.896,28.053 13.755,28.053 L 13.755,28.053 z "
   style="fill:#010101" />
</g>
<path
   id="path4348-2-1_32_"
   d="M 17.755,27.053 L 5,15.973 L 17.755,4.948 L 17.755,10.231 L 24.653,10.231 L 24.653,21.678 L 17.755,21.678 L 17.755,27.053 L 17.755,27.053 z "
   style="fill:#01addb" />
<g
   id="g2864_4_"
   transform="translate(4,0)">
	
		<linearGradient
   id="polygon2871_1_"
   gradientUnits="userSpaceOnUse"
   x1="-813.15918"
   y1="549.41022"
   x2="-813.15918"
   y2="532.61572"
   gradientTransform="matrix(-1,0,0,1,-802.0684,-524.6797)">
		<stop
   offset="0"
   style="stop-color:#0A7C9F"
   id="stop8" />
		<stop
   offset="1"
   style="stop-color:#B2D3DC"
   id="stop10" />
	</linearGradient>
	<polygon
   id="polygon2871_3_"
   points="2.527,15.975 12.755,7.134 12.755,11.231 19.654,11.231 19.654,20.678 12.755,20.678 12.755,24.859 2.527,15.975 "
   style="fill:url(#polygon2871_1_)" />
</g>


<linearGradient
   id="SVGID_1_"
   gradientUnits="userSpaceOnUse"
   x1="-277.0908"
   y1="-393.5176"
   x2="-277.0908"
   y2="-384.0988"
   gradientTransform="matrix(-1 0 0 -1 -249.54 -372.8398)">
	<stop
   offset="0"
   style="stop-color:#0A7C9F"
   id="stop18" />
	<stop
   offset="1"
   style="stop-color:#B2D3DC"
   id="stop20" />
</linearGradient>

</svg>