<?xml version="1.0" encoding="utf-8"?>
<!-- Generator: Adobe Illustrator 14.0.0, SVG Export Plug-In . SVG Version: 6.00 Build 43363)  -->
<!DOCTYPE svg PUBLIC "-//W3C//DTD SVG 1.1//EN" "http://www.w3.org/Graphics/SVG/1.1/DTD/svg11.dtd">
<svg version="1.1" id="Layer_1" xmlns="http://www.w3.org/2000/svg" xmlns:xlink="http://www.w3.org/1999/xlink" x="0px" y="0px"
	 width="32px" height="32px" viewBox="0 0 32 32" enable-background="new 0 0 32 32" xml:space="preserve">
<g>
	<g>
		<path id="path4993_1_" fill="#050606" d="M3.043,22.289C1.365,22.289,0,20.818,0,19.01V3.282c0-0.86,0.306-1.671,0.856-2.287
			C1.434,0.354,2.21,0,3.044,0h21.917C26.639,0,28,1.47,28,3.281V19.01c0,1.809-1.361,3.278-3.039,3.278L3.043,22.289L3.043,22.289z
			"/>
		<path id="rect26074_1_" fill="#FFFFFF" d="M3.043,0.917h21.915c1.179,0,2.127,1.053,2.127,2.365v15.729
			c0,1.31-0.948,2.362-2.127,2.362H3.043c-1.18,0-2.127-1.053-2.127-2.362V3.282C0.915,1.975,1.864,0.917,3.043,0.917z"/>
		
			<linearGradient id="SVGID_1_" gradientUnits="userSpaceOnUse" x1="1150.0605" y1="-2294.8359" x2="1130.0009" y2="-2281.0547" gradientTransform="matrix(1 0 0 -1 -1123.7002 -2275.1992)">
			<stop  offset="0" style="stop-color:#020202;stop-opacity:0.21"/>
			<stop  offset="1" style="stop-color:#020202;stop-opacity:0"/>
		</linearGradient>
		<path fill="url(#SVGID_1_)" d="M3.043,20.457c-0.669,0-1.212-0.648-1.212-1.443V3.282c0-0.8,0.543-1.449,1.212-1.449h21.915
			c0.669,0,1.211,0.649,1.211,1.449v15.729c0,0.798-0.544,1.446-1.211,1.446H3.043L3.043,20.457z"/>
		
			<linearGradient id="path26098_3_" gradientUnits="userSpaceOnUse" x1="2443.9922" y1="-5016.8438" x2="2443.9922" y2="-5014.3501" gradientTransform="matrix(1 0 0 -1 -2429.9941 -5012.8633)">
			<stop  offset="0" style="stop-color:#B0D0DA"/>
			<stop  offset="1" style="stop-color:#0C7C9E"/>
		</linearGradient>
		<path id="path26098_1_" fill="url(#path26098_3_)" d="M3.054,0.917c-1.179,0-2.148,0.97-2.148,2.148v0.916H27.09V3.065
			c0-1.178-0.972-2.148-2.148-2.148H3.054z"/>
	</g>
</g>
<g>
	<g>
		<path id="path4993_2_" fill="#050606" d="M7.044,28.813C5.366,28.813,4,27.342,4,25.531V9.806c0-0.86,0.306-1.671,0.856-2.287
			C5.435,6.878,6.21,6.524,7.044,6.524h21.917c1.678,0,3.039,1.47,3.039,3.281v15.729c0,1.81-1.361,3.279-3.039,3.279H7.044
			L7.044,28.813z"/>
		<path id="rect26074_2_" fill="#FFFFFF" d="M7.044,7.441h21.915c1.178,0,2.127,1.053,2.127,2.365v15.728
			c0,1.312-0.949,2.363-2.127,2.363H7.044c-1.181,0-2.128-1.053-2.128-2.363V9.806C4.916,8.499,5.863,7.441,7.044,7.441z"/>
		
			<linearGradient id="SVGID_2_" gradientUnits="userSpaceOnUse" x1="1154.0605" y1="-2301.3589" x2="1134.0018" y2="-2287.5781" gradientTransform="matrix(1 0 0 -1 -1123.7002 -2275.1992)">
			<stop  offset="0" style="stop-color:#020202;stop-opacity:0.21"/>
			<stop  offset="1" style="stop-color:#020202;stop-opacity:0"/>
		</linearGradient>
		<path fill="url(#SVGID_2_)" d="M7.044,26.98c-0.669,0-1.213-0.647-1.213-1.445V9.806c0-0.8,0.544-1.449,1.213-1.449h21.915
			c0.668,0,1.211,0.649,1.211,1.449v15.728c0,0.8-0.545,1.447-1.211,1.447H7.044L7.044,26.98z"/>
		
			<linearGradient id="path26098_4_" gradientUnits="userSpaceOnUse" x1="2447.9941" y1="-5023.3682" x2="2447.9941" y2="-5020.8745" gradientTransform="matrix(1 0 0 -1 -2429.9941 -5012.8633)">
			<stop  offset="0" style="stop-color:#B0D0DA"/>
			<stop  offset="1" style="stop-color:#0C7C9E"/>
		</linearGradient>
		<path id="path26098_2_" fill="url(#path26098_4_)" d="M7.055,7.441c-1.179,0-2.147,0.97-2.147,2.148v0.916h26.184V9.589
			c0-1.178-0.973-2.148-2.148-2.148H7.055z"/>
	</g>
</g>
<line fill="none" stroke="#231F20" x1="4.908" y1="10.505" x2="31.092" y2="10.505"/>
<line fill="none" stroke="#231F20" x1="0.906" y1="3.981" x2="27.09" y2="3.981"/>
<g>
	<path id="rect4086_1_" fill="#FFFFFF" d="M24.074,8.923c-2.918,0-5.338,2.238-5.662,5.062v0.053l-0.025,0.576v0.026v0.685v0.192
		v1.229h-0.604c-0.566,0-1.014,0.33-1.014,0.737v12.854c0,0.412,0.446,0.74,1.014,0.74h12.281c0.565,0,1.014-0.328,1.014-0.74
		V17.483c0-0.408-0.447-0.738-1.014-0.738h-0.303v-1.229v-0.192v-0.685v-0.027l-0.027-0.575v-0.053
		C29.41,11.161,26.99,8.923,24.074,8.923z M24.074,10.591c1.984,0,3.619,1.617,3.91,3.664h0.027v0.084
		c0.002,0.008-0.003,0.02,0,0.027c0,0.008,0,0.016,0,0.026v0.082v2.271h-7.878v-2.271c0.003-0.012,0.003-0.02,0-0.026v-0.027
		c0.003-0.012,0.003-0.021,0-0.027c0.003-0.012,0.003-0.02,0-0.026v-0.028v-0.082h0.027C20.453,12.208,22.09,10.591,24.074,10.591z"
		/>
	<path d="M17.783,32c-1.084,0-1.936-0.73-1.936-1.662V17.484c0-0.84,0.688-1.513,1.612-1.642v-1.205c0,0,0.031-0.739,0.035-0.76
		C17.881,10.526,20.709,8,24.074,8c3.363,0,6.191,2.526,6.576,5.879c0.006,0.035,0.033,0.688,0.033,0.688l0.002,1.339
		C31.457,16.125,32,16.74,32,17.484v12.854C32,31.27,31.148,32,30.064,32H17.783z M25.105,28.678l-0.873-4.934
		c-0.068-0.387,0.11-0.771,0.451-0.965c0.444-0.254,0.711-0.697,0.711-1.191c0-0.773-0.631-1.402-1.402-1.402
		c-0.773,0-1.4,0.629-1.4,1.402c0,0.467,0.24,0.902,0.645,1.166c0.308,0.197,0.47,0.557,0.41,0.918l-0.791,5.006H25.105z
		 M27.09,15.822v-1.349c-0.008-0.029-0.014-0.059-0.02-0.09c-0.23-1.637-1.521-2.87-2.996-2.87c-1.479,0-2.768,1.233-2.996,2.87
		c-0.006,0.033-0.012,0.064-0.02,0.098v1.341H27.09z"/>
	<path id="rect4086_2_" fill="#02ABD8" d="M24.074,8.924c-2.918,0-5.338,2.238-5.662,5.062v0.053l-0.025,0.576v0.026v0.685v0.192
		v1.229h-0.604c-0.566,0-1.014,0.33-1.014,0.737v12.854c0,0.412,0.446,0.74,1.014,0.74h12.281c0.565,0,1.014-0.328,1.014-0.74
		V17.484c0-0.408-0.447-0.738-1.014-0.738h-0.303v-1.229v-0.192V14.64v-0.027l-0.027-0.575v-0.053
		C29.41,11.162,26.99,8.924,24.074,8.924z M24.074,10.592c1.984,0,3.619,1.617,3.91,3.664h0.027v0.084
		c0.002,0.008-0.003,0.02,0,0.027c0,0.008,0,0.016,0,0.026v0.082v2.271h-7.878v-2.271c0.003-0.012,0.003-0.02,0-0.026v-0.027
		c0.003-0.012,0.003-0.021,0-0.027c0.003-0.012,0.003-0.02,0-0.026V14.34v-0.082h0.027C20.453,12.209,22.09,10.592,24.074,10.592z
		 M23.992,19.264c1.283,0,2.324,1.039,2.324,2.324c0,0.865-0.478,1.596-1.176,1.994l1.065,6.02h-4.433l0.957-6.074
		c-0.635-0.411-1.063-1.122-1.063-1.938C21.668,20.303,22.709,19.264,23.992,19.264z"/>
	
		<linearGradient id="SVGID_3_" gradientUnits="userSpaceOnUse" x1="296.7734" y1="1116.5918" x2="309.2324" y2="1116.5918" gradientTransform="matrix(1 0 0 1 -279.0801 -1092.6797)">
		<stop  offset="0" style="stop-color:#B0D0DA"/>
		<stop  offset="1" style="stop-color:#0C7C9E"/>
	</linearGradient>
	<path fill="url(#SVGID_3_)" d="M27.244,30.154l-1.094-6.162c0.69-0.605,1.09-1.467,1.09-2.404c0-1.791-1.457-3.248-3.248-3.248
		s-3.248,1.457-3.248,3.248c0,0.885,0.363,1.719,0.996,2.324l-0.986,6.242h-2.971c-0.033,0-0.064-0.004-0.09-0.01V17.676
		c0.024-0.004,0.057-0.008,0.09-0.008h12.281c0.033,0,0.063,0.004,0.088,0.008v12.469c-0.023,0.006-0.055,0.011-0.088,0.011
		L27.244,30.154L27.244,30.154z"/>
</g>
</svg>
