<?xml version="1.0" encoding="utf-8"?>
<!-- Generator: Adobe Illustrator 14.0.0, SVG Export Plug-In . SVG Version: 6.00 Build 43363)  -->
<!DOCTYPE svg PUBLIC "-//W3C//DTD SVG 1.1//EN" "http://www.w3.org/Graphics/SVG/1.1/DTD/svg11.dtd">
<svg version="1.1" id="Layer_1" xmlns="http://www.w3.org/2000/svg" xmlns:xlink="http://www.w3.org/1999/xlink" x="0px" y="0px"
	 width="32px" height="32px" viewBox="0 0 32 32" enable-background="new 0 0 32 32" xml:space="preserve">
<path d="M5.994,27.026c-0.552,0-1-0.447-1-1V5.974c0-0.552,0.448-1,1-1h6.97c0.552,0,1,0.448,1,1v20.053c0,0.553-0.448,1-1,1H5.994z
	"/>
<rect x="5.994" y="5.974" fill="#03ADDB" width="6.97" height="20.053"/>
<linearGradient id="SVGID_1_" gradientUnits="userSpaceOnUse" x1="9.4785" y1="6.8599" x2="9.4785" y2="25.7051">
	<stop  offset="0" style="stop-color:#B2D3DC"/>
	<stop  offset="1" style="stop-color:#117C9F"/>
</linearGradient>
<rect x="6.994" y="6.974" fill="url(#SVGID_1_)" width="4.97" height="18.053"/>
<path d="M19.037,27.026c-0.553,0-1-0.447-1-1V5.974c0-0.552,0.447-1,1-1h6.969c0.553,0,1,0.448,1,1v20.053c0,0.553-0.447,1-1,1
	H19.037z"/>
<rect x="19.037" y="5.974" fill="#03ADDB" width="6.969" height="20.053"/>
<linearGradient id="SVGID_2_" gradientUnits="userSpaceOnUse" x1="22.5215" y1="6.8599" x2="22.5215" y2="25.7051">
	<stop  offset="0" style="stop-color:#B2D3DC"/>
	<stop  offset="1" style="stop-color:#117C9F"/>
</linearGradient>
<rect x="20.037" y="6.974" fill="url(#SVGID_2_)" width="4.969" height="18.053"/>
</svg>
