<?xml version="1.0" encoding="utf-8"?>
<!-- Generator: Adobe Illustrator 15.0.0, SVG Export Plug-In . SVG Version: 6.00 Build 0)  -->
<!DOCTYPE svg PUBLIC "-//W3C//DTD SVG 1.1//EN" "http://www.w3.org/Graphics/SVG/1.1/DTD/svg11.dtd">
<svg version="1.1"
	 id="svg7043" xmlns:ns="http://creativecommons.org/ns#" xmlns:dc="http://purl.org/dc/elements/1.1/" xmlns:cc="http://web.resource.org/cc/" xmlns:rdf="http://www.w3.org/1999/02/22-rdf-syntax-ns#" xmlns:svg="http://www.w3.org/2000/svg" xmlns:sodipodi="http://sodipodi.sourceforge.net/DTD/sodipodi-0.dtd" xmlns:inkscape="http://www.inkscape.org/namespaces/inkscape" inkscape:output_extension="org.inkscape.output.svg.inkscape" sodipodi:version="0.32" inkscape:version="0.45.1" sodipodi:docname="batchexecutor.svg" sodipodi:docbase="D:\radix\dev\trunk\org.radixware\kernel\designer\src\common.resources\src\org\radixware\kernel\designer\resources\icons\workflow\app"
	 xmlns="http://www.w3.org/2000/svg" xmlns:xlink="http://www.w3.org/1999/xlink" x="0px" y="0px" width="32px" height="32px"
	 viewBox="0 0 32 32" enable-background="new 0 0 32 32" xml:space="preserve">
<defs>
	
	
		<inkscape:perspective  id="perspective7051" sodipodi:type="inkscape:persp3d" inkscape:vp_y="0 : 1000 : 0" inkscape:vp_x="0 : 16 : 1" inkscape:vp_z="32 : 16 : 1" inkscape:persp3d-origin="16 : 10.666667 : 1">
		</inkscape:perspective>
</defs>
<sodipodi:namedview  id="base" inkscape:cy="16.789009" inkscape:cx="21.075565" inkscape:zoom="8.637329" showgrid="true" borderopacity="1.0" bordercolor="#666666" pagecolor="#ffffff" inkscape:window-y="44" inkscape:window-x="0" inkscape:window-height="944" inkscape:window-width="1280" inkscape:pageshadow="2" inkscape:pageopacity="0.0" inkscape:current-layer="layer1" inkscape:document-units="px" inkscape:grid-bbox="true">
	</sodipodi:namedview>
<g>
	<path id="path4993" fill="#020202" d="M3.477,25.473C1.56,25.473,0,23.791,0,21.725V3.749c0-0.981,0.347-1.909,0.98-2.612
		C1.641,0.404,2.526,0,3.48,0h25.047C30.444,0,32,1.68,32,3.749v17.976c0,2.066-1.556,3.748-3.473,3.748H3.477z"/>
	<path id="rect26074" fill="#FFFFFF" d="M3.477,1.046h25.046c1.345,0,2.429,1.204,2.429,2.702v17.976
		c0,1.496-1.084,2.701-2.429,2.701H3.477c-1.347,0-2.43-1.205-2.43-2.701V3.749C1.046,2.254,2.13,1.046,3.477,1.046z"/>
	
		<linearGradient id="SVGID_1_" gradientUnits="userSpaceOnUse" x1="309.2061" y1="1116.1201" x2="286.2818" y2="1100.371" gradientTransform="matrix(1 0 0 1 -279.0801 -1093.6797)">
		<stop  offset="0" style="stop-color:#000000;stop-opacity:0.21"/>
		<stop  offset="1" style="stop-color:#000000;stop-opacity:0"/>
	</linearGradient>
	<path fill="url(#SVGID_1_)" d="M3.477,23.379c-0.763,0-1.384-0.742-1.384-1.654V3.749c0-0.914,0.621-1.656,1.384-1.656h25.046
		c0.763,0,1.382,0.742,1.382,1.656v17.976c0,0.912-0.621,1.654-1.382,1.654H3.477z"/>
	
		<linearGradient id="path26098_1_" gradientUnits="userSpaceOnUse" x1="1601.3721" y1="3835.8916" x2="1601.3721" y2="3833.0427" gradientTransform="matrix(1 0 0 1 -1585.374 -3831.3438)">
		<stop  offset="0" style="stop-color:#295FAA"/>
		<stop  offset="1" style="stop-color:#B1D5F0"/>
	</linearGradient>
	<path id="path26098" fill="url(#path26098_1_)" d="M3.49,1.046c-1.345,0-2.455,1.11-2.455,2.455v1.047H30.96V3.501
		c0-1.345-1.11-2.455-2.455-2.455H3.49z"/>
</g>
<line fill="none" stroke="#808284" stroke-linecap="round" x1="29.586" y1="7.369" x2="2.093" y2="7.369"/>
<line fill="none" stroke="#808284" stroke-linecap="round" x1="29.586" y1="11.75" x2="2.093" y2="11.75"/>
<line fill="none" stroke="#808284" stroke-linecap="round" x1="29.586" y1="16" x2="2.093" y2="16"/>
<line fill="none" stroke="#808284" stroke-linecap="round" x1="29.586" y1="20.369" x2="2.093" y2="20.369"/>
<g>
	<path id="path4046_10_" fill="#020202" d="M16.843,32c-0.147,0-0.294-0.041-0.426-0.123c-0.342-0.215-0.465-0.65-0.291-1.014
		l5.024-10.508c0,0-1.854,0.028-1.858,0.028c-0.26,0-0.502-0.125-0.649-0.334c-0.151-0.217-0.188-0.491-0.097-0.737l4.522-12.218
		c0.115-0.313,0.413-0.52,0.746-0.52l7.39-0.005c0.304,0,0.58,0.173,0.713,0.443c0.136,0.271,0.104,0.598-0.082,0.838l-5.002,6.52
		c0,0,3.191-0.026,3.193-0.026c0.309,0,0.586,0.175,0.717,0.451c0.135,0.279,0.094,0.611-0.102,0.849l-13.18,16.066
		C17.303,31.9,17.074,32,16.843,32L16.843,32z"/>
	<path id="path5141_10_" fill="#FAA91E" d="M19.289,19.586l3.135-0.051l-5.58,11.67l13.18-16.066l-4.82,0.045l5.998-7.814
		l-7.39,0.004L19.289,19.586z"/>
	
		<linearGradient id="polygon4061_1_" gradientUnits="userSpaceOnUse" x1="17.9365" y1="-105.7305" x2="27.126" y2="-105.7305" gradientTransform="matrix(1 0 0 -1 2.46 -88.8398)">
		<stop  offset="0" style="stop-color:#A56929"/>
		<stop  offset="0.5394" style="stop-color:#FAA91E"/>
		<stop  offset="1" style="stop-color:#FFF3E2"/>
	</linearGradient>
	<polygon id="polygon4061_10_" fill="url(#polygon4061_1_)" points="20.396,25.615 23.697,18.721 20.439,18.771 24.367,8.168 
		29.586,8.166 23.578,15.994 28.326,15.951 	"/>
</g>
</svg>
