<?xml version="1.0" encoding="utf-8"?>
<!-- Generator: Adobe Illustrator 15.0.0, SVG Export Plug-In . SVG Version: 6.00 Build 0)  -->
<!DOCTYPE svg PUBLIC "-//W3C//DTD SVG 1.1//EN" "http://www.w3.org/Graphics/SVG/1.1/DTD/svg11.dtd">
<svg version="1.1"
	 id="svg3472" xmlns:ns="http://creativecommons.org/ns#" xmlns:dc="http://purl.org/dc/elements/1.1/" xmlns:cc="http://web.resource.org/cc/" xmlns:rdf="http://www.w3.org/1999/02/22-rdf-syntax-ns#" xmlns:svg="http://www.w3.org/2000/svg" xmlns:sodipodi="http://sodipodi.sourceforge.net/DTD/sodipodi-0.dtd" xmlns:inkscape="http://www.inkscape.org/namespaces/inkscape" inkscape:output_extension="org.inkscape.output.svg.inkscape" sodipodi:version="0.32" inkscape:version="0.45.1" sodipodi:docname="dialogcreator.svg" sodipodi:docbase="C:\Radix\dev\trunk\org.radixware\kernel\designer\src\common.resources\src\org\radixware\kernel\designer\resources\icons\workflow\app"
	 xmlns="http://www.w3.org/2000/svg" xmlns:xlink="http://www.w3.org/1999/xlink" x="0px" y="0px" width="32px" height="32px"
	 viewBox="0 0 32 32" enable-background="new 0 0 32 32" xml:space="preserve">
<sodipodi:namedview  id="base" inkscape:cy="10.034985" inkscape:cx="7.1223583" inkscape:zoom="11.197802" showgrid="true" borderopacity="1.0" bordercolor="#666666" pagecolor="#ffffff" inkscape:window-y="-8" inkscape:window-x="-8" inkscape:window-height="944" inkscape:window-width="1280" inkscape:pageshadow="2" inkscape:pageopacity="0.0" inkscape:current-layer="layer1" inkscape:document-units="px" inkscape:grid-bbox="true">
	</sodipodi:namedview>
<g id="layer1" inkscape:label="Layer 1" inkscape:groupmode="layer">
	<path d="M1.541,32.186c-0.157,0-0.339-0.04-0.479-0.11c-0.352-0.178-0.566-0.547-0.547-0.941c0.02-0.395,0.27-0.741,0.638-0.884
		c1.474-0.572,5.148-2.501,6.117-5.049c-3.937-0.317-7.043-3.61-7.043-7.613V7.792c0-4.194,3.439-7.605,7.667-7.605h16.476
		c4.21,0,7.636,3.412,7.636,7.605v9.796c0,4.212-3.426,7.639-7.636,7.639h-8.822c-0.332,0.419-0.631,0.842-0.908,1.285
		C12.234,30.362,2.117,32.186,1.541,32.186z"/>
	<path id="rect3482" fill="#F9A620" d="M7.892,1.186c-3.682,0-6.667,2.941-6.667,6.605v9.796c0,3.667,2.985,6.639,6.667,6.639h0.642
		c-0.023,0.094-0.051,0.188-0.064,0.287c-0.55,4.195-6.957,6.669-6.957,6.669c0.184,0.093,10.171-1.827,12.278-5.201
		c0.431-0.689,0.863-1.258,1.282-1.755h9.295c3.683,0,6.636-2.972,6.636-6.639V7.792c0-3.664-2.953-6.605-6.636-6.605H7.892z"/>
	<linearGradient id="SVGID_1_" gradientUnits="userSpaceOnUse" x1="2.2251" y1="15.459" x2="30.0039" y2="15.459">
		<stop  offset="0" style="stop-color:#FFF3DF"/>
		<stop  offset="0.5394" style="stop-color:#F9A620"/>
		<stop  offset="1" style="stop-color:#A36628"/>
	</linearGradient>
	<path fill="url(#SVGID_1_)" d="M7.207,28.732c1.127-1.108,2.043-2.477,2.254-4.089c0.004-0.032,0.015-0.065,0.024-0.1l0.322-1.249
		l-1.273-0.068H7.892c-3.125,0-5.667-2.529-5.667-5.639V7.792c0-3.091,2.542-5.605,5.667-5.605h16.476
		c3.107,0,5.636,2.515,5.636,5.605v9.796c0,3.109-2.528,5.639-5.636,5.639h-9.76l-0.3,0.355c-0.513,0.608-0.959,1.22-1.365,1.869
		C12.119,26.771,9.649,27.905,7.207,28.732z"/>
	<path id="path4140" fill="none" stroke="#000000" stroke-width="1.545" d="M5.568,6.808h21.826"/>
	<path id="path4142" fill="none" stroke="#000000" stroke-width="1.5388" d="M5.435,11.894h22.252"/>
	<path id="path4144" fill="none" stroke="#000000" stroke-width="1.5388" d="M5.482,17.169h22.252"/>
</g>
<g>
	<path id="path4992_3_" d="M21.147,15.354c-0.021,0.006-0.043,0.014-0.063,0.021c0.002,0-0.065,0.021-0.063,0.021
		s-0.086,0.021-0.084,0.021c0.002,0-0.064,0.044-0.063,0.043c0.002,0-0.063,0.043-0.063,0.041c0.002,0-0.065,0.044-0.063,0.041
		c0.003,0-0.063,0.045-0.063,0.043c0.002,0-0.063,0.064-0.063,0.063c0.002,0-0.045,0.065-0.043,0.063
		c0.002,0-0.043,0.066-0.041,0.064c0,0-0.044,0.063-0.043,0.063c0.001,0-0.043,0.088-0.042,0.084c0.001,0-0.021,0.066-0.021,0.064
		c0,0-0.021,0.086-0.021,0.084c0.001,0-0.021,0.086-0.021,0.084c0.002,0,0,0.064,0,0.063c0,0,0,0.04,0,0.063
		c0,0.007,0,0.021,0,0.021v4.1h-4.099c0.001,0-0.009,0-0.021,0c-0.014,0-0.021,0-0.021,0c0.002,0-0.044,0-0.042,0
		c-0.007,0-0.015,0-0.021,0c0,0-0.045,0-0.043,0s-0.043,0.021-0.041,0.021c0,0-0.045,0-0.043,0s-0.043,0.021-0.043,0.021
		c0.002,0-0.043,0.002-0.041,0c0.002,0-0.043,0.021-0.043,0.021c0.002,0-0.043,0.021-0.041,0.021s-0.043,0.021-0.043,0.021
		c0.002,0-0.043,0.021-0.041,0.021c0,0-0.022,0.021-0.021,0.021c0.002,0-0.043,0.021-0.042,0.021s-0.043,0.021-0.042,0.021
		c0.002,0-0.021,0.021-0.021,0.021c0.002,0-0.043,0.043-0.041,0.041c0.002,0-0.022,0.022-0.021,0.021
		c0.002,0-0.043,0.021-0.042,0.021s-0.021,0.043-0.021,0.041c0,0-0.022,0.043-0.021,0.043l-0.021,0.021c0,0-0.043,0.044-0.043,0.042
		c0.002,0-0.021,0.043-0.021,0.041c0,0-0.021,0.043-0.021,0.042c0,0,0,0.022,0,0.021l-0.021,0.043c0,0-0.021,0.043-0.021,0.041
		c0,0,0,0.045,0,0.043c0,0-0.021,0.044-0.021,0.041c0,0,0,0.045,0,0.043c0,0-0.021,0.044-0.021,0.043c0,0,0,0.043,0,0.042
		c0,0,0,0.043,0,0.042c0,0,0,0.044,0,0.042v4.711c0,0,0,0.043,0,0.042c0,0,0,0.044,0,0.042v0.043c0,0,0.021,0.043,0.021,0.041v0.043
		l0.021,0.063c0,0,0.021,0.043,0.021,0.041c0,0,0.002,0.045,0,0.043c0,0,0.021,0.043,0.021,0.041c0,0,0.021,0.043,0.021,0.041
		c0,0,0.021,0.045,0.021,0.043c0,0,0.022,0.021,0.021,0.021c0,0,0.043,0.043,0.042,0.041c-0.002,0,0.021,0.044,0.021,0.043
		c-0.002,0,0.021,0.043,0.021,0.042c-0.001,0,0.044,0.021,0.042,0.021s0.022,0.043,0.021,0.043s0.043,0.021,0.041,0.02
		c0,0,0.045,0.021,0.043,0.021s0.043,0.043,0.041,0.041c0,0,0.023,0.021,0.021,0.021c-0.001,0,0.043,0.021,0.043,0.021
		c-0.002-0.002,0.043,0.021,0.041,0.021c-0.001-0.001,0.044,0.021,0.043,0.021c-0.002-0.002,0.043,0,0.041,0
		c-0.001-0.002,0.044,0.021,0.043,0.021c-0.002-0.001,0.064,0.022,0.063,0.021h0.043c-0.002,0,0.043,0.022,0.041,0.021
		c-0.002,0,0.045,0,0.043,0s0.043,0,0.041,0s0.045,0,0.043,0h4.121v4.102v0.021c0,0.012,0,0.021,0,0.021v0.043
		c0,0.006,0,0.012,0,0.021c0,0,0.002,0.045,0,0.043c0,0,0.022,0.043,0.021,0.041c0,0,0.001,0.045,0,0.043l0.021,0.043
		c-0.002,0,0,0.043,0,0.041c-0.002,0,0.021,0.043,0.021,0.043s0.022,0.041,0.021,0.041l0.021,0.043l0.021,0.041
		c-0.002,0,0.021,0.022,0.021,0.021c-0.002,0,0.021,0.043,0.021,0.041c0,0,0.021,0.043,0.021,0.041l0.021,0.021
		c0,0,0.043,0.043,0.041,0.043c0,0,0.022,0.021,0.021,0.02c0,0,0.021,0.045,0.021,0.043c0,0,0.043,0.021,0.041,0.021l0.043,0.021
		l0.021,0.02c-0.001,0,0.043,0.043,0.042,0.043s0.044,0.021,0.042,0.021c-0.002-0.002,0.043,0.02,0.042,0.02s0.021,0,0.021,0
		c-0.002,0,0.043,0.021,0.043,0.02c-0.002,0,0.043,0.023,0.041,0.021c0,0,0.043,0.002,0.043,0c-0.002,0,0.043,0.023,0.041,0.021
		c0,0,0.045,0,0.043,0S21.19,32,21.188,32c0,0,0.045,0,0.043,0s0.043,0,0.041,0c0,0,0.045,0,0.043,0h4.711c-0.002,0,0.043,0,0.043,0
		c-0.002,0,0.043,0,0.041,0s0.043,0,0.043,0c-0.002,0,0.043-0.021,0.041-0.021s0.043,0,0.043,0c-0.002,0,0.063-0.021,0.063-0.021
		c-0.001,0.002,0.043-0.021,0.043-0.021c-0.002,0.002,0.043,0,0.041,0c-0.001,0.002,0.045-0.021,0.043-0.021
		s0.043-0.021,0.041-0.021c-0.001,0,0.045-0.022,0.043-0.021c-0.002,0,0.021-0.022,0.021-0.021c0,0,0.044-0.043,0.042-0.041
		l0.043-0.023c-0.002,0.002,0.042-0.021,0.041-0.02c0,0,0.021-0.043,0.021-0.041l0.043-0.021c0,0,0.021-0.043,0.021-0.041
		l0.021-0.043c0,0,0.043-0.043,0.043-0.041c0,0,0.021-0.023,0.021-0.021c0,0,0.022-0.043,0.021-0.043c0,0,0.021-0.043,0.021-0.041
		l0.021-0.043c0,0,0-0.043,0-0.039c0,0,0.021-0.045,0.021-0.043c-0.001,0,0.021-0.063,0.021-0.063c0,0,0.002-0.045,0-0.043
		c0,0,0.021-0.045,0.021-0.041c-0.001,0,0-0.045,0-0.043c0,0,0-0.045,0-0.041c0,0,0-0.045,0-0.043v-4.122h4.122
		c-0.003,0,0.044,0,0.042,0s0.043-0.001,0.042,0c-0.002,0,0.044-0.001,0.042,0c-0.002,0,0.043-0.022,0.042-0.021
		c-0.002,0,0.044-0.002,0.042,0c-0.001,0,0.064-0.022,0.063-0.021c0,0,0.045-0.021,0.043-0.021c-0.002,0.002,0.043,0,0.041,0
		c0,0.002,0.045-0.021,0.043-0.021s0.043-0.021,0.041-0.021c0,0,0.045-0.021,0.043-0.021s0.021-0.021,0.021-0.021
		c-0.002,0,0.043-0.043,0.042-0.041c-0.001,0,0.042-0.021,0.042-0.021c-0.001,0,0.043-0.021,0.042-0.021s0.021-0.043,0.021-0.043
		s0.043-0.021,0.043-0.02c-0.002,0,0.021-0.043,0.021-0.043s0.022-0.043,0.021-0.041l0.043-0.043c0,0,0.021-0.023,0.021-0.021
		c-0.001,0,0.021-0.043,0.021-0.041c-0.002,0,0.021-0.043,0.021-0.041l0.021-0.043c0,0,0-0.043,0-0.041c0,0,0.021-0.045,0.021-0.043
		c-0.002,0,0.021-0.063,0.021-0.063c-0.002,0,0-0.044,0-0.043c-0.002,0,0.021-0.043,0.021-0.041c0,0,0-0.044,0-0.043
		c0,0,0-0.043,0-0.041c0,0,0-0.045,0-0.043v-4.711c0,0,0-0.043,0-0.041c0,0,0-0.045,0-0.043c0,0,0-0.043,0-0.041
		c0.001,0-0.021-0.045-0.021-0.043c0,0-0.002-0.043,0-0.041c0,0-0.022-0.066-0.021-0.064c0,0-0.021-0.043-0.021-0.041
		c0,0,0-0.043,0-0.042c0,0-0.021-0.043-0.021-0.042c0.001,0-0.021-0.043-0.021-0.042c0,0-0.022-0.042-0.021-0.042
		s-0.021-0.021-0.021-0.02l-0.043-0.043c0.002,0-0.021-0.043-0.021-0.041c0.001,0-0.021-0.043-0.021-0.043l-0.043-0.021
		c0,0-0.021-0.044-0.021-0.042c0,0-0.043-0.021-0.042-0.021c0,0-0.043-0.022-0.042-0.021c0.001,0-0.044-0.043-0.042-0.042
		c0.001,0-0.022-0.021-0.021-0.021s-0.043-0.021-0.043-0.021c0.002,0.001-0.043-0.021-0.041-0.021s-0.043-0.021-0.043-0.021
		c0.002,0.001-0.043,0-0.041,0c0.002,0.001-0.043-0.021-0.043-0.021c0.002,0-0.063-0.021-0.063-0.021c0.002,0.002-0.043,0-0.042,0
		c0.001,0.002-0.043-0.021-0.042-0.02c0.002,0-0.043-0.002-0.042,0c0.001,0-0.044,0-0.042,0s-0.044,0-0.042,0h-4.122v-4.123
		c0,0,0-0.043,0-0.041v-0.043c0,0-0.001-0.043,0-0.041c0,0-0.021-0.044-0.021-0.043c0,0,0-0.043,0-0.041l-0.021-0.063
		c0,0-0.022-0.044-0.021-0.042c0,0-0.002-0.043,0-0.043c0,0-0.021-0.042-0.021-0.041c0,0-0.021-0.043-0.021-0.041
		c0.002,0-0.021-0.043-0.021-0.042c0.002,0-0.021-0.021-0.021-0.021c0,0-0.043-0.042-0.043-0.041l-0.021-0.043
		c0.001,0-0.021-0.042-0.021-0.042l-0.043-0.021l-0.021-0.042c0.001,0-0.043-0.021-0.041-0.021c0,0-0.044-0.022-0.043-0.021
		c0.002,0-0.043-0.043-0.043-0.043c0.002,0-0.021-0.021-0.021-0.02c0.002,0-0.044-0.021-0.043-0.021
		c0.002,0.001-0.043-0.021-0.041-0.02c0.002,0-0.044-0.023-0.043-0.021c0.002,0-0.043-0.001-0.041,0L26.3,15.398
		c0.002,0-0.064-0.021-0.063-0.021c0,0-0.045,0-0.043,0s-0.043-0.021-0.041-0.021c0,0-0.045,0-0.043,0s-0.043,0-0.041,0
		c0,0-0.045,0-0.043,0h-4.668c0,0-0.045,0-0.043,0s-0.045,0-0.043,0s-0.008,0-0.021,0c0,0-0.015,0-0.021,0c0.002,0-0.045,0-0.043,0
		c-0.014,0-0.027,0-0.041,0V15.354z"/>
	<path id="rect4855-4_3_" fill="#6CBD45" d="M21.324,16.277v5.047h-5.048v4.711h5.048v5.049h4.711v-5.049h5.048v-4.711h-5.048
		v-5.047H21.324z"/>
	
		<linearGradient id="path4903-3_1_" gradientUnits="userSpaceOnUse" x1="-1458.9219" y1="1632.5391" x2="-1445.2939" y2="1632.5391" gradientTransform="matrix(0 -1 1 0 -1608.8594 -1428.4277)">
		<stop  offset="0" style="stop-color:#AED58A"/>
		<stop  offset="1" style="stop-color:#1D8D45"/>
	</linearGradient>
	<path id="path4903-3_3_" fill="url(#path4903-3_1_)" d="M21.913,16.866v5.048h-5.047v3.533h5.047v5.047h3.533v-5.047h5.047v-3.533
		h-5.047v-5.048H21.913L21.913,16.866z"/>
</g>
</svg>
