<?xml version="1.0" encoding="utf-8"?>
<!-- Generator: Adobe Illustrator 15.0.0, SVG Export Plug-In . SVG Version: 6.00 Build 0)  -->
<!DOCTYPE svg PUBLIC "-//W3C//DTD SVG 1.1//EN" "http://www.w3.org/Graphics/SVG/1.1/DTD/svg11.dtd">
<svg version="1.1"
	 id="Layer_1" xmlns:ns="http://creativecommons.org/ns#" xmlns:dc="http://purl.org/dc/elements/1.1/" xmlns:cc="http://web.resource.org/cc/" xmlns:rdf="http://www.w3.org/1999/02/22-rdf-syntax-ns#" xmlns:svg="http://www.w3.org/2000/svg" xmlns:sodipodi="http://sodipodi.sourceforge.net/DTD/sodipodi-0.dtd" xmlns:inkscape="http://www.inkscape.org/namespaces/inkscape" inkscape:output_extension="org.inkscape.output.svg.inkscape" sodipodi:version="0.32" inkscape:version="0.45.1" sodipodi:docname="docmanagercreator.svg" sodipodi:docbase="C:\Radix\dev\trunk\org.radixware\kernel\designer\src\common.resources\src\org\radixware\kernel\designer\resources\icons\workflow\app"
	 xmlns="http://www.w3.org/2000/svg" xmlns:xlink="http://www.w3.org/1999/xlink" x="0px" y="0px" width="32px" height="32px"
	 viewBox="0 0 32 32" enable-background="new 0 0 32 32" xml:space="preserve">
<sodipodi:namedview  id="base" inkscape:cy="22.556634" inkscape:cx="4.3982681" inkscape:zoom="14.4375" guidetolerance="10.0" showgrid="false" gridtolerance="10.0" objecttolerance="10.0" borderopacity="1.0" bordercolor="#666666" pagecolor="#ffffff" inkscape:window-y="44" inkscape:window-x="0" inkscape:window-height="944" inkscape:window-width="1280" inkscape:pageshadow="2" inkscape:pageopacity="0.0" inkscape:current-layer="Layer_1">
	</sodipodi:namedview>
<g>
	<path id="path3_8_" fill="#231F20" d="M29.946,19.187c-0.322-0.557-0.949-0.875-1.724-0.875h-4.749v-0.431
		c0-1.515-1.233-2.747-2.748-2.747h-8.004l-0.104-0.194c-0.381-0.715-0.902-1.694-2.231-1.694H7.705
		c-1.365,0-1.899,0.992-2.362,1.85l-0.02,0.038H4.585c-1.515-0.002-2.747,1.232-2.747,2.747v11.348C1.838,30.757,3.07,32,4.585,32
		h0.289h15.851h0.597c1.266,0,2.696-0.825,3.331-1.919l5.188-8.962C30.229,20.448,30.267,19.743,29.946,19.187z"/>
	<path id="rect5504_7_" fill="#A36A29" d="M7.705,14.132c-0.862,0-1.177,0.632-1.585,1.391L5.845,16.02h-1.26
		c-1.036-0.002-1.862,0.824-1.862,1.861v11.348c0,1.037,0.826,1.886,1.862,1.886h16.14c1.036,0,1.862-0.849,1.862-1.886V17.881
		c0-1.037-0.826-1.861-1.862-1.861h-8.528l-0.273-0.497c-0.41-0.758-0.678-1.391-1.539-1.391H9.64H8.45H7.705z"/>
	<g>
		<path id="path2924_19_" fill="#020202" d="M4.784,27.227c-0.417,0-0.751-0.335-0.751-0.748V5.179c0-0.416,0.333-0.752,0.751-0.752
			h10.78c0.201,0,0.391,0.078,0.53,0.221l5.005,5.005c0.143,0.142,0.222,0.332,0.222,0.532v16.289c0,0.417-0.335,0.752-0.752,0.752
			H4.784L4.784,27.227z"/>
		<polygon id="polygon2926_19_" fill="#02ABD8" points="4.784,26.479 20.568,26.479 20.568,10.185 15.563,5.179 4.784,5.179 		"/>
		<polygon id="polygon2928_19_" fill="#FFFFFF" points="6.159,24.912 6.159,6.621 16.243,6.621 17.622,8.187 19.125,9.504 
			19.125,24.912 		"/>
		<rect id="rect9_1_" x="7.525" y="8.932" fill="#808283" width="10.301" height="0.571"/>
		<path id="path2930_19_" fill="#020202" d="M15.563,10.936c-0.417,0-0.754-0.337-0.754-0.751V5.179
			c0-0.305,0.185-0.579,0.463-0.695c0.095-0.038,0.192-0.057,0.291-0.057c0.196,0,0.388,0.078,0.53,0.221l5.005,5.005
			c0.215,0.216,0.28,0.538,0.165,0.819s-0.392,0.463-0.693,0.463H15.563L15.563,10.936z"/>
		<polygon id="polygon2932_19_" fill="#02ABD8" points="15.563,5.179 15.563,10.185 20.568,10.185 		"/>
		<rect id="rect13" x="7.644" y="12.45" fill="#808283" width="10.301" height="0.572"/>
		<rect id="rect15" x="7.644" y="16.25" fill="#808283" width="10.301" height="0.573"/>
		<rect id="rect17_1_" x="7.644" y="20.377" fill="#808283" width="10.301" height="0.572"/>
	</g>
	<g>
		<path id="path2924_1_" fill="#020202" d="M8.044,25.604c-0.417,0-0.751-0.336-0.751-0.749V3.557c0-0.416,0.333-0.752,0.751-0.752
			h10.78c0.201,0,0.391,0.078,0.529,0.221l5.006,5.005c0.142,0.142,0.222,0.332,0.222,0.532v16.29c0,0.417-0.336,0.753-0.752,0.753
			H8.044V25.604z"/>
		<polygon id="polygon2926_1_" fill="#02ABD8" points="8.044,24.854 23.829,24.854 23.829,8.563 18.824,3.557 8.044,3.557 		"/>
		<polygon id="polygon2928_1_" fill="#FFFFFF" points="9.419,23.288 9.419,4.999 19.503,4.999 20.883,6.565 22.385,7.882 
			22.385,23.288 		"/>
		<rect id="rect9_2_" x="10.785" y="7.309" fill="#808283" width="10.302" height="0.571"/>
		<path id="path2930_1_" fill="#020202" d="M18.824,9.313c-0.417,0-0.754-0.337-0.754-0.751V3.557c0-0.305,0.185-0.579,0.463-0.695
			c0.096-0.038,0.192-0.057,0.291-0.057c0.196,0,0.388,0.078,0.529,0.221l5.006,5.005c0.215,0.216,0.28,0.538,0.165,0.819
			s-0.392,0.463-0.694,0.463H18.824L18.824,9.313z"/>
		<polygon id="polygon2932_1_" fill="#02ABD8" points="18.824,3.557 18.824,8.563 23.829,8.563 		"/>
		<rect id="rect13_1_" x="10.904" y="10.828" fill="#808283" width="10.302" height="0.571"/>
		<rect id="rect15_1_" x="10.904" y="14.628" fill="#808283" width="10.302" height="0.573"/>
		<rect id="rect17_2_" x="10.904" y="18.754" fill="#808283" width="10.302" height="0.572"/>
	</g>
	<g>
		<path id="path2924_2_" fill="#020202" d="M11.232,22.799c-0.417,0-0.751-0.335-0.751-0.748V0.752C10.481,0.336,10.814,0,11.232,0
			h10.78c0.201,0,0.391,0.078,0.53,0.222l5.005,5.005c0.143,0.142,0.222,0.332,0.222,0.532v16.289c0,0.417-0.335,0.752-0.752,0.752
			H11.232L11.232,22.799z"/>
		<polygon id="polygon2926_2_" fill="#02ABD8" points="11.232,22.051 27.017,22.051 27.017,5.757 22.012,0.752 11.232,0.752 		"/>
		<polygon id="polygon2928_2_" fill="#FFFFFF" points="12.607,20.484 12.607,2.193 22.691,2.193 24.07,3.76 25.573,5.077 
			25.573,20.484 		"/>
		<rect id="rect9_3_" x="13.973" y="4.504" fill="#808283" width="10.301" height="0.571"/>
		<path id="path2930_2_" fill="#020202" d="M22.012,6.509c-0.417,0-0.754-0.337-0.754-0.751V0.752c0-0.305,0.186-0.579,0.464-0.695
			C21.816,0.019,21.913,0,22.012,0c0.196,0,0.388,0.078,0.53,0.222l5.005,5.005c0.215,0.216,0.28,0.538,0.166,0.819
			c-0.116,0.282-0.392,0.463-0.694,0.463H22.012L22.012,6.509z"/>
		<polygon id="polygon2932_2_" fill="#02ABD8" points="22.012,0.752 22.012,5.757 27.017,5.757 		"/>
		<rect id="rect13_2_" x="14.092" y="8.023" fill="#808283" width="10.301" height="0.571"/>
		<rect id="rect15_2_" x="14.092" y="11.823" fill="#808283" width="10.301" height="0.573"/>
		<rect id="rect17_3_" x="14.092" y="15.949" fill="#808283" width="10.301" height="0.573"/>
	</g>
	<path id="path19_5_" d="M4.875,32c-0.774,0-1.404-0.32-1.726-0.877c-0.32-0.557-0.281-1.26,0.107-1.929l5.187-8.962
		c0.634-1.095,2.064-1.921,3.331-1.921h16.448c0.774,0,1.401,0.319,1.724,0.875c0.32,0.557,0.282,1.262-0.105,1.933l-5.188,8.962
		C24.018,31.175,22.587,32,21.323,32H4.875z"/>
	<path id="rect5498_7_" fill="#FAA81C" d="M11.775,19.196h16.448c0.942,0,1.324,0.662,0.852,1.479l-5.188,8.964
		c-0.473,0.813-1.621,1.476-2.563,1.476H4.875c-0.944,0-1.326-0.662-0.854-1.476l5.188-8.964
		C9.681,19.858,10.831,19.196,11.775,19.196z"/>
	
		<linearGradient id="path29_1_" gradientUnits="userSpaceOnUse" x1="2.2632" y1="-113.9956" x2="25.9131" y2="-113.9956" gradientTransform="matrix(1 0 0 -1 2.46 -88.8398)">
		<stop  offset="0" style="stop-color:#A46929"/>
		<stop  offset="0.5394" style="stop-color:#FAA81C"/>
		<stop  offset="1" style="stop-color:#FFF3E2"/>
	</linearGradient>
	<path id="path29_5_" fill="url(#path29_1_)" d="M4.875,30.229c-0.064,0-0.115-0.005-0.152-0.012
		c0.014-0.037,0.033-0.082,0.065-0.135l5.187-8.964c0.315-0.543,1.17-1.037,1.798-1.037h16.448c0.063,0,0.114,0.007,0.152,0.014
		c-0.014,0.034-0.033,0.081-0.066,0.137l-5.186,8.962c-0.314,0.541-1.173,1.035-1.798,1.035H4.875z"/>
</g>
</svg>
