<?xml version="1.0" encoding="utf-8"?>
<!-- Generator: Adobe Illustrator 15.0.0, SVG Export Plug-In . SVG Version: 6.00 Build 0)  -->
<!DOCTYPE svg PUBLIC "-//W3C//DTD SVG 1.1//EN" "http://www.w3.org/Graphics/SVG/1.1/DTD/svg11.dtd">
<svg version="1.1"
	 id="svg2383" xmlns:ns="http://creativecommons.org/ns#" xmlns:dc="http://purl.org/dc/elements/1.1/" xmlns:cc="http://web.resource.org/cc/" xmlns:rdf="http://www.w3.org/1999/02/22-rdf-syntax-ns#" xmlns:svg="http://www.w3.org/2000/svg" xmlns:sodipodi="http://sodipodi.sourceforge.net/DTD/sodipodi-0.dtd" xmlns:inkscape="http://www.inkscape.org/namespaces/inkscape" inkscape:output_extension="org.inkscape.output.svg.inkscape" sodipodi:version="0.32" inkscape:version="0.45.1" sodipodi:docname="netport.svg" sodipodi:docbase="C:\Radix\dev\trunk\org.radixware\kernel\designer\src\common.resources\src\org\radixware\kernel\designer\resources\icons\workflow\app"
	 xmlns="http://www.w3.org/2000/svg" xmlns:xlink="http://www.w3.org/1999/xlink" x="0px" y="0px" width="32px" height="32px"
	 viewBox="0 0 32 32" enable-background="new 0 0 32 32" xml:space="preserve">
<sodipodi:namedview  id="base" inkscape:cy="16" inkscape:cx="0.68449433" inkscape:zoom="11.197802" showgrid="true" borderopacity="1.0" bordercolor="#666666" pagecolor="#ffffff" inkscape:window-y="-8" inkscape:window-x="-8" inkscape:window-height="944" inkscape:window-width="1280" inkscape:pageshadow="2" inkscape:pageopacity="0.0" inkscape:current-layer="layer1" inkscape:document-units="px" inkscape:grid-bbox="true">
	</sodipodi:namedview>
<g>
	<path d="M0,31.525c-0.552,0-1-0.447-1-1v-1.779c0-0.553,0.448-1,1-1h32c0.553,0,1,0.447,1,1v1.779c0,0.553-0.447,1-1,1H0z"/>
	
		<linearGradient id="SVGID_1_" gradientUnits="userSpaceOnUse" x1="13.5405" y1="-117.4756" x2="13.5405" y2="-119.3732" gradientTransform="matrix(1 0 0 -1 2.46 -88.8398)">
		<stop  offset="0" style="stop-color:#3AADDA"/>
		<stop  offset="0.5" style="stop-color:#A8CDDE"/>
		<stop  offset="1" style="stop-color:#2677BC"/>
	</linearGradient>
	<rect y="28.746" opacity="0.98" fill="url(#SVGID_1_)" enable-background="new    " width="32" height="1.777"/>
	<path d="M15.23,31.525c-0.553,0-1-0.447-1-1v-8.002c0-0.553,0.447-1,1-1h1.777c0.553,0,1,0.447,1,1v8.002c0,0.553-0.447,1-1,1
		H15.23z"/>
	
		<linearGradient id="SVGID_2_" gradientUnits="userSpaceOnUse" x1="12.7705" y1="-115.3643" x2="14.5479" y2="-115.3643" gradientTransform="matrix(1 0 0 -1 2.46 -88.8398)">
		<stop  offset="0" style="stop-color:#3AADDA"/>
		<stop  offset="0.5" style="stop-color:#A8CDDE"/>
		<stop  offset="1" style="stop-color:#2677BC"/>
	</linearGradient>
	<rect x="15.23" y="22.523" opacity="0.98" fill="url(#SVGID_2_)" enable-background="new    " width="1.777" height="8.002"/>
	<path d="M14.882,31.998c-0.552,0-1-0.446-1-1v-5.241c0-0.554,0.448-1,1-1h2.716c0.553,0,1,0.446,1,1v5.241c0,0.554-0.447,1-1,1
		H14.882z"/>
	<path d="M12.87,32c-0.552,0-1-0.447-1-1v-2.717c0-0.553,0.448-1,1-1h6.5c0.553,0,1,0.447,1,1V31c0,0.553-0.447,1-1,1H12.87z"/>
	
		<linearGradient id="SVGID_3_" gradientUnits="userSpaceOnUse" x1="12.4219" y1="-117.2173" x2="15.1377" y2="-117.2173" gradientTransform="matrix(1 0 0 -1 2.46 -88.8398)">
		<stop  offset="0" style="stop-color:#FAA81E"/>
		<stop  offset="0.3939" style="stop-color:#FFF3E1"/>
		<stop  offset="1" style="stop-color:#A46729"/>
	</linearGradient>
	<rect x="14.882" y="25.757" fill="url(#SVGID_3_)" width="2.716" height="5.241"/>
	
		<linearGradient id="SVGID_4_" gradientUnits="userSpaceOnUse" x1="13.6597" y1="-119.4824" x2="13.6597" y2="-117.3101" gradientTransform="matrix(1 0 0 -1 2.46 -88.8398)">
		<stop  offset="0" style="stop-color:#FAA81E"/>
		<stop  offset="0.3939" style="stop-color:#FFF3E1"/>
		<stop  offset="1" style="stop-color:#A46729"/>
	</linearGradient>
	<rect x="12.87" y="28.283" fill="url(#SVGID_4_)" width="6.5" height="2.717"/>
</g>
<g>
	<path id="path2924_3_" fill="#020202" d="M7.692,24c-0.439,0-0.791-0.353-0.791-0.789V0.791C6.901,0.354,7.252,0,7.692,0h11.347
		c0.211,0,0.412,0.083,0.557,0.232L24.866,5.5C25.016,5.65,25.1,5.85,25.1,6.061v17.147c0,0.439-0.354,0.792-0.793,0.792H7.692
		L7.692,24z"/>
	<polygon id="polygon2926_3_" fill="#00ACDA" points="19.039,0.791 7.692,0.791 7.692,23.211 24.307,23.211 24.307,6.061 	"/>
	<polygon id="polygon2928_3_" fill="#FFFFFF" points="22.788,5.344 22.788,21.563 9.14,21.563 9.14,2.311 19.755,2.311 
		21.207,3.958 	"/>
	<rect x="10.578" y="4.743" fill="#808284" width="10.844" height="0.602"/>
	<path id="path2930_3_" fill="#020202" d="M19.039,6.853c-0.438,0-0.794-0.354-0.794-0.792v-5.27c0-0.319,0.195-0.608,0.489-0.732
		C18.833,0.019,18.936,0,19.039,0c0.205,0,0.407,0.082,0.557,0.232L24.866,5.5c0.226,0.228,0.295,0.568,0.173,0.864
		c-0.122,0.295-0.412,0.487-0.73,0.487h-5.27V6.853z"/>
	<polygon id="polygon2932_3_" fill="#00ACDA" points="19.039,6.061 24.307,6.061 19.039,0.791 	"/>
	<rect x="10.703" y="8.445" fill="#808284" width="10.844" height="0.603"/>
	<rect x="10.703" y="12.447" fill="#808284" width="10.844" height="0.603"/>
	<rect x="10.703" y="16.789" fill="#808284" width="10.844" height="0.603"/>
</g>
</svg>
