<?xml version="1.0" encoding="utf-8"?>
<!-- Generator: Adobe Illustrator 15.0.0, SVG Export Plug-In . SVG Version: 6.00 Build 0)  -->
<!DOCTYPE svg PUBLIC "-//W3C//DTD SVG 1.1//EN" "http://www.w3.org/Graphics/SVG/1.1/DTD/svg11.dtd">
<svg version="1.1"
	 id="svg9606" xmlns:ns="http://creativecommons.org/ns#" xmlns:dc="http://purl.org/dc/elements/1.1/" xmlns:cc="http://web.resource.org/cc/" xmlns:rdf="http://www.w3.org/1999/02/22-rdf-syntax-ns#" xmlns:svg="http://www.w3.org/2000/svg" xmlns:sodipodi="http://sodipodi.sourceforge.net/DTD/sodipodi-0.dtd" xmlns:inkscape="http://www.inkscape.org/namespaces/inkscape" inkscape:output_extension="org.inkscape.output.svg.inkscape" sodipodi:version="0.32" inkscape:version="0.45.1" sodipodi:docname="selectorformcreator.svg" sodipodi:docbase="C:\Radix\dev\trunk\org.radixware\kernel\designer\src\common.resources\src\org\radixware\kernel\designer\resources\icons\workflow\app"
	 xmlns="http://www.w3.org/2000/svg" xmlns:xlink="http://www.w3.org/1999/xlink" x="0px" y="0px" width="32px" height="32px"
	 viewBox="0 0 32 32" enable-background="new 0 0 32 32" xml:space="preserve">
<sodipodi:namedview  id="base" inkscape:cy="16" inkscape:cx="0.68449433" inkscape:zoom="11.197802" showgrid="true" borderopacity="1.0" bordercolor="#666666" pagecolor="#ffffff" inkscape:window-y="-8" inkscape:window-x="-8" inkscape:window-height="944" inkscape:window-width="1280" inkscape:pageshadow="2" inkscape:pageopacity="0.0" inkscape:current-layer="layer1" inkscape:document-units="px" inkscape:grid-bbox="true">
	</sodipodi:namedview>
<g>
	<g>
		<path id="path4993" fill="#020202" d="M3.477,25.473C1.561,25.473,0,23.791,0,21.725V3.749C0,2.768,0.348,1.84,0.98,1.137
			C1.641,0.404,2.525,0,3.48,0h25.047C30.443,0,32,1.68,32,3.749v17.976c0,2.066-1.557,3.748-3.473,3.748H3.477z"/>
		<path id="rect26074" fill="#FFFFFF" d="M3.477,1.046h25.047c1.345,0,2.429,1.204,2.429,2.702v17.977c0,1.495-1.084,2.7-2.429,2.7
			H3.477c-1.347,0-2.43-1.205-2.43-2.7V3.749C1.046,2.254,2.13,1.046,3.477,1.046z"/>
		
			<linearGradient id="SVGID_1_" gradientUnits="userSpaceOnUse" x1="309.2256" y1="-1085.0249" x2="286.3016" y2="-1069.276" gradientTransform="matrix(1 0 0 -1 -279.1001 -1062.585)">
			<stop  offset="0" style="stop-color:#000000;stop-opacity:0.21"/>
			<stop  offset="1" style="stop-color:#000000;stop-opacity:0"/>
		</linearGradient>
		<path fill="url(#SVGID_1_)" d="M3.477,23.379c-0.763,0-1.384-0.742-1.384-1.654V3.749c0-0.914,0.621-1.656,1.384-1.656h25.047
			c0.763,0,1.381,0.742,1.381,1.656v17.976c0,0.912-0.62,1.654-1.381,1.654H3.477z"/>
		
			<linearGradient id="path26098_1_" gradientUnits="userSpaceOnUse" x1="1601.3926" y1="-3804.7969" x2="1601.3926" y2="-3801.948" gradientTransform="matrix(1 0 0 -1 -1585.3945 -3800.249)">
			<stop  offset="0" style="stop-color:#295FAA"/>
			<stop  offset="1" style="stop-color:#B1D5F0"/>
		</linearGradient>
		<path id="path26098" fill="url(#path26098_1_)" d="M3.49,1.046c-1.346,0-2.455,1.11-2.455,2.455v1.047H30.96V3.501
			c0-1.345-1.11-2.455-2.455-2.455H3.49z"/>
	</g>
	<line fill="none" stroke="#808284" stroke-linecap="round" x1="29.586" y1="7.369" x2="2.093" y2="7.369"/>
	<line fill="none" stroke="#ED2526" stroke-miterlimit="10" x1="29.586" y1="11.75" x2="2.093" y2="11.75"/>
	<line fill="none" stroke="#808284" stroke-linecap="round" x1="29.586" y1="16" x2="2.093" y2="16"/>
	<line fill="none" stroke="#808284" stroke-linecap="round" x1="29.586" y1="20.369" x2="2.093" y2="20.369"/>
	<g>
		<g>
			<path d="M27.455,31.986c-0.356-0.049-0.679-0.236-0.896-0.525l-3.125-4.113l-0.619,2.065c-0.172,0.575-0.703,0.968-1.301,0.968
				c-0.005,0-0.011,0-0.015,0c-0.604-0.006-1.133-0.411-1.297-0.995l-4.152-14.944c-0.148-0.536,0.043-1.109,0.488-1.443
				c0.241-0.186,0.53-0.279,0.819-0.279c0.244,0,0.486,0.066,0.703,0.197l13.283,8.01c0.518,0.314,0.766,0.93,0.609,1.516
				c-0.154,0.584-0.68,0.996-1.285,1.006l-2.154,0.043l3.123,4.113c0.455,0.598,0.338,1.448-0.258,1.902l-2.918,2.215
				C28.226,31.9,27.937,32,27.642,32C27.642,32,27.519,31.995,27.455,31.986z"/>
			<polygon fill="#FFFFFF" points="30.646,22.089 17.358,14.078 21.515,29.021 22.897,24.396 27.642,30.641 30.56,28.424 
				25.815,22.182 			"/>
		</g>
	</g>
</g>
</svg>
