<?xml version="1.0" encoding="UTF-8" standalone="no"?>
<!-- Created with Inkscape (http://www.inkscape.org/) -->
<svg
   xmlns:dc="http://purl.org/dc/elements/1.1/"
   xmlns:cc="http://web.resource.org/cc/"
   xmlns:rdf="http://www.w3.org/1999/02/22-rdf-syntax-ns#"
   xmlns:svg="http://www.w3.org/2000/svg"
   xmlns="http://www.w3.org/2000/svg"
   xmlns:sodipodi="http://sodipodi.sourceforge.net/DTD/sodipodi-0.dtd"
   xmlns:inkscape="http://www.inkscape.org/namespaces/inkscape"
   width="48"
   height="48"
   id="svg2"
   sodipodi:version="0.32"
   inkscape:version="0.45.1"
   sodipodi:docbase="C:\Radix\dev\trunk\org.radixware\kernel\designer\src\common.resources\src\org\radixware\kernel\designer\resources\icons\unused\report"
   sodipodi:docname="cell.svg"
   version="1.0"
   inkscape:output_extension="org.inkscape.output.svg.inkscape">
  <defs
     id="defs4" />
  <sodipodi:namedview
     id="base"
     pagecolor="#ffffff"
     bordercolor="#000000"
     borderopacity="1.0"
     inkscape:pageopacity="0.0"
     inkscape:pageshadow="2"
     inkscape:zoom="13"
     inkscape:cx="10"
     inkscape:cy="10"
     inkscape:document-units="px"
     inkscape:current-layer="layer1"
     inkscape:window-width="1080"
     inkscape:window-height="804"
     inkscape:window-x="100"
     inkscape:window-y="%window-y" />
  <metadata
     id="metadata7">
    <rdf:RDF>
      <cc:Work
         rdf:about="">
        <dc:format>image/svg+xml</dc:format>
        <dc:type
           rdf:resource="http://purl.org/dc/dcmitype/StillImage" />
      </cc:Work>
    </rdf:RDF>
  </metadata>
  <g
     inkscape:label="Layer 1"
     inkscape:groupmode="layer"
     id="layer1">
    <rect
       style="fill:#ffffff;fill-opacity:1;stroke:#707070;stroke-width:1.99999988;stroke-miterlimit:4;stroke-dasharray:none;stroke-opacity:1"
       id="rect3138"
       width="43.801979"
       height="14.948213"
       x="2.1386137"
       y="16.15461" />
    <rect
       style="fill:#9ef1ff;fill-opacity:1;stroke:#000000;stroke-width:1.99999988;stroke-miterlimit:4;stroke-dasharray:none;stroke-opacity:1"
       id="rect2157"
       width="18.188877"
       height="5.8552957"
       x="14.677074"
       y="20.837015" />
    <rect
       y="2.6930714"
       x="2.1386137"
       height="8.8712893"
       width="43.801979"
       id="rect3133"
       style="fill:#ffffff;fill-opacity:1;stroke:#707070;stroke-width:2;stroke-miterlimit:4;stroke-dasharray:none;stroke-opacity:1" />
    <rect
       style="fill:#ffffff;fill-opacity:1;stroke:#707070;stroke-width:2;stroke-miterlimit:4;stroke-dasharray:none;stroke-opacity:1"
       id="rect3135"
       width="43.801979"
       height="8.8712893"
       x="2.1386137"
       y="36.198021" />
    <path
       style="font-size:4px;font-style:normal;font-variant:normal;font-weight:normal;font-stretch:normal;text-align:start;line-height:125%;writing-mode:lr-tb;text-anchor:start;fill:#000000;fill-opacity:1;stroke:none;stroke-width:1px;stroke-linecap:butt;stroke-linejoin:miter;stroke-opacity:1;font-family:Arial"
       d="M 19.350622,24.163311 L 19.696325,24.208233 C 19.658563,24.446515 19.561883,24.633038 19.406286,24.767803 C 19.250686,24.902569 19.059605,24.969952 18.833044,24.969952 C 18.549189,24.969952 18.320999,24.877178 18.148474,24.691631 C 17.975947,24.506085 17.889684,24.240135 17.889685,23.89378 C 17.889684,23.669823 17.926794,23.473859 18.001013,23.305889 C 18.075231,23.137922 18.188187,23.011946 18.33988,22.927959 C 18.491572,22.843977 18.656611,22.801985 18.834997,22.801983 C 19.060256,22.801985 19.244501,22.858951 19.387731,22.972881 C 19.530959,23.086815 19.622756,23.248599 19.663122,23.458233 L 19.321325,23.510967 C 19.288772,23.371646 19.231154,23.266828 19.148474,23.196514 C 19.06579,23.126203 18.965855,23.091047 18.848669,23.091045 C 18.671585,23.091047 18.527705,23.154524 18.417028,23.281475 C 18.306351,23.40843 18.251012,23.609276 18.251013,23.884014 C 18.251012,24.162661 18.304398,24.365134 18.411169,24.491436 C 18.517939,24.617738 18.657262,24.680889 18.829138,24.680889 C 18.967157,24.680889 19.082392,24.638572 19.174841,24.553936 C 19.267287,24.469301 19.325881,24.339093 19.350622,24.163311 L 19.350622,24.163311 z M 19.866247,23.885967 C 19.866247,23.501854 19.973018,23.217349 20.18656,23.032452 C 20.364944,22.878808 20.582392,22.801985 20.838903,22.801983 C 21.124058,22.801985 21.357131,22.895409 21.538122,23.082256 C 21.71911,23.269107 21.809604,23.527245 21.809606,23.85667 C 21.809604,24.123598 21.769565,24.333559 21.689489,24.486553 C 21.609409,24.639548 21.492873,24.758363 21.33988,24.842999 C 21.186884,24.927634 21.019892,24.969952 20.838903,24.969952 C 20.548538,24.969952 20.313838,24.876853 20.134802,24.690655 C 19.955765,24.504457 19.866247,24.236228 19.866247,23.885967 L 19.866247,23.885967 z M 20.227575,23.885967 C 20.227575,24.151593 20.285517,24.350486 20.401403,24.482647 C 20.517288,24.614809 20.663121,24.680889 20.838903,24.680889 C 21.013381,24.680889 21.158563,24.614483 21.27445,24.48167 C 21.390334,24.348858 21.448277,24.146385 21.448278,23.874249 C 21.448277,23.617739 21.390008,23.423404 21.273474,23.291241 C 21.156936,23.159081 21.012079,23.093 20.838903,23.092999 C 20.663121,23.093 20.517288,23.158755 20.401403,23.290264 C 20.285517,23.421776 20.227575,23.620344 20.227575,23.885967 L 20.227575,23.885967 z M 22.223669,24.923077 L 22.223669,22.848858 L 22.540075,22.848858 L 22.540075,23.14378 C 22.692418,22.915917 22.91247,22.801985 23.200231,22.801983 C 23.32523,22.801985 23.440139,22.824446 23.544958,22.869366 C 23.649774,22.91429 23.728224,22.973209 23.78031,23.046124 C 23.832391,23.119042 23.868849,23.20563 23.889685,23.305889 C 23.902703,23.370995 23.909214,23.484927 23.909216,23.647686 L 23.909216,24.923077 L 23.557653,24.923077 L 23.557653,23.661358 C 23.557652,23.51813 23.54398,23.411034 23.516638,23.340069 C 23.489292,23.269107 23.44079,23.212466 23.37113,23.170147 C 23.301467,23.127831 23.219761,23.106672 23.126013,23.10667 C 22.976272,23.106672 22.84704,23.154198 22.738317,23.249249 C 22.629593,23.344302 22.575231,23.524641 22.575231,23.790264 L 22.575231,24.923077 L 22.223669,24.923077 z M 25.21781,24.608624 L 25.268591,24.91917 C 25.169632,24.940004 25.08109,24.95042 25.002966,24.95042 C 24.875361,24.95042 24.776403,24.930238 24.706091,24.889874 C 24.635778,24.849509 24.586299,24.796449 24.557653,24.730694 C 24.529007,24.664939 24.514684,24.526593 24.514685,24.315655 L 24.514685,23.122295 L 24.256872,23.122295 L 24.256872,22.848858 L 24.514685,22.848858 L 24.514685,22.335186 L 24.864294,22.124249 L 24.864294,22.848858 L 25.21781,22.848858 L 25.21781,23.122295 L 24.864294,23.122295 L 24.864294,24.335186 C 24.864293,24.435447 24.870478,24.4999 24.882849,24.528545 C 24.895218,24.557192 24.9154,24.579978 24.943396,24.596905 C 24.97139,24.613832 25.011429,24.622296 25.063513,24.622295 C 25.102574,24.622296 25.154007,24.617738 25.21781,24.608624 L 25.21781,24.608624 z M 26.979528,24.255108 L 27.34281,24.30003 C 27.285516,24.51227 27.179396,24.676983 27.02445,24.79417 C 26.869501,24.911358 26.671584,24.969952 26.4307,24.969952 C 26.127314,24.969952 25.886754,24.876527 25.709021,24.689678 C 25.531286,24.50283 25.442419,24.240786 25.442419,23.903545 C 25.442419,23.554588 25.532262,23.283755 25.71195,23.091045 C 25.891637,22.898339 26.12471,22.801985 26.411169,22.801983 C 26.688511,22.801985 26.915074,22.896386 27.090856,23.085186 C 27.266636,23.27399 27.354526,23.539614 27.354528,23.882061 C 27.354526,23.902895 27.353875,23.934145 27.352575,23.975811 L 25.8057,23.975811 C 25.818721,24.203676 25.883174,24.378155 25.99906,24.499249 C 26.114944,24.620343 26.259475,24.680889 26.432653,24.680889 C 26.561558,24.680889 26.671584,24.647035 26.762731,24.579327 C 26.853876,24.511619 26.926141,24.403546 26.979528,24.255108 L 26.979528,24.255108 z M 25.825231,23.686749 L 26.983435,23.686749 C 26.967808,23.512271 26.923537,23.381412 26.850622,23.29417 C 26.738641,23.158755 26.593459,23.091047 26.415075,23.091045 C 26.253616,23.091047 26.117874,23.145084 26.007849,23.253155 C 25.897822,23.361229 25.83695,23.50576 25.825231,23.686749 L 25.825231,23.686749 z M 27.786169,24.923077 L 27.786169,22.848858 L 28.102575,22.848858 L 28.102575,23.14378 C 28.254918,22.915917 28.47497,22.801985 28.762731,22.801983 C 28.88773,22.801985 29.002639,22.824446 29.107458,22.869366 C 29.212274,22.91429 29.290724,22.973209 29.34281,23.046124 C 29.394891,23.119042 29.431349,23.20563 29.452185,23.305889 C 29.465203,23.370995 29.471714,23.484927 29.471716,23.647686 L 29.471716,24.923077 L 29.120153,24.923077 L 29.120153,23.661358 C 29.120152,23.51813 29.10648,23.411034 29.079138,23.340069 C 29.051792,23.269107 29.00329,23.212466 28.93363,23.170147 C 28.863967,23.127831 28.782261,23.106672 28.688513,23.10667 C 28.538772,23.106672 28.40954,23.154198 28.300817,23.249249 C 28.192093,23.344302 28.137731,23.524641 28.137731,23.790264 L 28.137731,24.923077 L 27.786169,24.923077 z M 30.78031,24.608624 L 30.831091,24.91917 C 30.732132,24.940004 30.64359,24.95042 30.565466,24.95042 C 30.437861,24.95042 30.338903,24.930238 30.268591,24.889874 C 30.198278,24.849509 30.148799,24.796449 30.120153,24.730694 C 30.091507,24.664939 30.077184,24.526593 30.077185,24.315655 L 30.077185,23.122295 L 29.819372,23.122295 L 29.819372,22.848858 L 30.077185,22.848858 L 30.077185,22.335186 L 30.426794,22.124249 L 30.426794,22.848858 L 30.78031,22.848858 L 30.78031,23.122295 L 30.426794,23.122295 L 30.426794,24.335186 C 30.426793,24.435447 30.432978,24.4999 30.445349,24.528545 C 30.457718,24.557192 30.4779,24.579978 30.505896,24.596905 C 30.53389,24.613832 30.573929,24.622296 30.626013,24.622295 C 30.665074,24.622296 30.716507,24.617738 30.78031,24.608624 L 30.78031,24.608624 z "
       id="text3140" />
    <rect
       style="fill:#ffffff;fill-opacity:1;stroke:#707070;stroke-width:2.00000024;stroke-miterlimit:4;stroke-dasharray:none;stroke-opacity:1"
       id="rect2162"
       width="4.5940595"
       height="5.8000546"
       x="6.0198016"
       y="20.831686" />
    <rect
       y="20.831686"
       x="36.990101"
       height="5.8000546"
       width="4.8316832"
       id="rect2164"
       style="fill:#ffffff;fill-opacity:1;stroke:#707070;stroke-width:2.00000024;stroke-miterlimit:4;stroke-dasharray:none;stroke-opacity:1" />
  </g>
</svg>
