<?xml version="1.0" encoding="UTF-8" standalone="no"?>
<!-- Generator: Adobe Illustrator 14.0.0, SVG Export Plug-In . SVG Version: 6.00 Build 43363)  -->

<svg
   xmlns:dc="http://purl.org/dc/elements/1.1/"
   xmlns:cc="http://creativecommons.org/ns#"
   xmlns:rdf="http://www.w3.org/1999/02/22-rdf-syntax-ns#"
   xmlns:svg="http://www.w3.org/2000/svg"
   xmlns="http://www.w3.org/2000/svg"
   xmlns:sodipodi="http://sodipodi.sourceforge.net/DTD/sodipodi-0.dtd"
   xmlns:inkscape="http://www.inkscape.org/namespaces/inkscape"
   version="1.1"
   id="Layer_1"
   x="0px"
   y="0px"
   width="32px"
   height="32px"
   viewBox="0 0 32 32"
   enable-background="new 0 0 32 32"
   xml:space="preserve"
   sodipodi:version="0.32"
   inkscape:version="0.91 r13725"
   sodipodi:docname="CSV.svg"><metadata
     id="metadata34"><rdf:RDF><cc:Work
         rdf:about=""><dc:format>image/svg+xml</dc:format><dc:type
           rdf:resource="http://purl.org/dc/dcmitype/StillImage" /><dc:title></dc:title></cc:Work></rdf:RDF></metadata><defs
     id="defs32" /><sodipodi:namedview
     inkscape:window-height="1017"
     inkscape:window-width="1920"
     inkscape:pageshadow="2"
     inkscape:pageopacity="0.0"
     borderopacity="1.0"
     bordercolor="#666666"
     pagecolor="#ffffff"
     id="base"
     inkscape:zoom="11.6875"
     inkscape:cx="24.086058"
     inkscape:cy="-1.0544396"
     inkscape:window-x="-8"
     inkscape:window-y="-8"
     inkscape:current-layer="text4183"
     showgrid="false"
     inkscape:window-maximized="1" /><g
     id="g3"
     transform="matrix(0.82783188,0,0,0.82784948,2.7545425,-0.08202121)"><path
       id="path10819_1_"
       d="m 7.038,31.898 c -0.19,0 -0.379,-0.026 -0.559,-0.08 C 6.208,31.782 5.946,31.689 5.709,31.546 3.64,30.288 3.719,27.511 3.746,26.602 3.803,24.354 4.43,21.552 5.092,18.587 5.859,15.168 6.65,11.64 6.694,8.522 c -0.039,0 -0.078,0 -0.119,0 -0.439,0 -0.968,0.047 -1.529,0.137 C 4.94,8.675 4.834,8.683 4.73,8.683 3.922,8.683 3.181,8.195 2.874,7.426 2.484,6.45 2.01,5.051 1.967,3.915 1.916,2.606 2.906,0.435 4.512,0.134 4.633,0.11 4.756,0.101 4.879,0.101 c 0.072,0 0.144,0.004 0.215,0.012 0.412,0.037 8.572,0.592 13.366,0.592 1.235,0 1.933,-0.039 2.298,-0.072 0.113,-0.01 0.23,-0.016 0.352,-0.016 1.281,0 2.595,0.631 3.697,1.775 1.822,1.899 2.84,4.92 2.715,8.076 -0.047,1.372 -0.307,2.768 -0.766,4.137 -1.061,3.161 -1.588,5.588 -1.609,7.417 0,0.049 0,0.098 0,0.145 0.847,-0.035 1.646,-0.063 2.236,-0.063 l 0.229,0.002 c 0.509,0.008 0.996,0.211 1.361,0.563 1.051,1.021 1.228,3.229 0.938,4.974 -0.408,2.436 -1.636,3.946 -3.201,3.946 -0.188,0 -0.381,-0.022 -0.569,-0.065 -1.168,-0.271 -2.98,-0.408 -5.384,-0.408 -2.228,0 -4.876,0.113 -8.101,0.346 -2.039,0.236 -3.846,0.383 -5.02,0.402 l -0.471,0.033 c -0.043,0.001 -0.084,0.001 -0.127,0.001 l 0,0 z"
       inkscape:connector-curvature="0"
       style="fill:#020202" /><path
       id="path3443_1_"
       d="M 8.159,7.808 C 8.336,5.821 7.467,2.214 5,1.185 3.704,0.644 2.924,2.79 2.965,3.869 c 0.063,1.595 1.164,3.938 1.164,3.938 0,0 2.825,-0.661 4.03,10e-4 z"
       inkscape:connector-curvature="0"
       style="fill:#03addb" /><linearGradient
       id="path10849_2_"
       gradientUnits="userSpaceOnUse"
       x1="284.95309"
       y1="-379.3237"
       x2="287.3403"
       y2="-377.2197"
       gradientTransform="matrix(1.2079748,0,0,-1.2079491,-343.42062,-450.27241)"><stop
         offset="0"
         style="stop-color:#B2D3DC"
         id="stop8" /><stop
         offset="1"
         style="stop-color:#117C9F"
         id="stop10" /></linearGradient><path
       id="path10849_1_"
       d="M 4.732,6.676 C 4.405,5.858 3.999,4.663 3.965,3.83 3.939,3.149 4.375,2.194 4.623,2.094 6.135,2.74 6.957,4.816 7.143,6.535 6.963,6.522 6.777,6.514 6.579,6.514 5.913,6.513 5.239,6.595 4.732,6.676 l 0,0 z"
       style="fill:url(#path10849_2_)"
       inkscape:connector-curvature="0" /><path
       d="M 7.357,31.814 C 6.467,31.814 6.13,31.728 5.876,31.589 2.58,29.8 3.745,24.604 5.093,18.585 6.51,12.263 8.116,5.097 4.47,1.845 4.152,1.562 4.049,1.109 4.211,0.716 4.366,0.341 4.732,0.099 5.134,0.099 c 0.019,0 0.927,0.055 1.553,0.094 2.811,0.179 8.042,0.512 11.629,0.512 l 0,0 c 1.021,0 1.844,-0.027 2.443,-0.081 0.115,-0.01 0.231,-0.016 0.348,-0.016 1.601,0 3.217,0.972 4.437,2.666 1.646,2.286 2.828,6.448 1.213,11.277 -3.028,9.049 -1.026,10.16 -0.065,10.695 0.451,0.251 1.137,0.631 1.197,1.475 0.021,0.282 -0.039,0.705 -0.432,1.127 -2.124,2.278 -16.671,3.966 -20.1,3.966 l 0,0 z"
       id="path13"
       inkscape:connector-curvature="0" /><path
       id="path3445_1_"
       d="m 25.809,14.233 c -4.254,12.71 0.984,11.217 1.082,12.559 0.15,2.131 -19.372,4.554 -20.538,3.92 C 0.604,27.589 12.67,7.819 5.135,1.099 7.571,1.237 17.205,1.946 20.85,1.62 c 3.423,-0.307 7.324,5.542 4.959,12.613 z"
       inkscape:connector-curvature="0"
       style="fill:#03addb" /><linearGradient
       id="path10830_2_"
       gradientUnits="userSpaceOnUse"
       x1="297.17871"
       y1="-375.9707"
       x2="297.17871"
       y2="-400.41809"
       gradientTransform="matrix(1.2079748,0,0,-1.2079491,-343.42062,-450.27241)"><stop
         offset="0"
         style="stop-color:#B2D3DC"
         id="stop17" /><stop
         offset="1"
         style="stop-color:#117C9F"
         id="stop19" /></linearGradient><path
       id="path10830_1_"
       d="M 7.357,29.857 C 7.008,29.857 6.831,29.841 6.753,29.833 4.893,28.677 5.987,23.792 7.046,19.066 8.37,13.159 9.846,6.573 7.342,2.282 10.28,2.467 14.986,2.748 18.323,2.748 l 0,0 c 1.077,0 1.958,-0.03 2.616,-0.088 0.057,-0.005 0.112,-0.009 0.172,-0.009 0.932,0 1.981,0.687 2.809,1.834 1.357,1.884 2.316,5.36 0.941,9.475 -3,8.961 -1.563,11.595 0.584,12.918 -2.793,1.299 -13.952,2.979 -18.088,2.979 l 0,0 z"
       style="fill:url(#path10830_2_)"
       inkscape:connector-curvature="0" /><path
       d="M 6.893,31.904 C 6.417,31.904 6.005,31.568 5.912,31.097 5.818,30.617 6.086,30.136 6.546,29.966 7.467,29.625 7.743,28.595 7.812,27.789 7.976,25.882 7.161,24.14 6.773,23.915 6.35,23.669 6.167,23.153 6.339,22.697 6.488,22.301 6.865,22.05 7.274,22.05 c 0.064,0 0.129,0.006 0.195,0.02 1.548,0.307 3.84,0.463 6.813,0.463 l 10e-4,0 c 3.025,0 6.254,-0.156 8.85,-0.281 1.752,-0.084 3.266,-0.156 4.229,-0.156 0.189,0 0.359,0.002 0.508,0.008 0.098,0.004 0.193,0.021 0.285,0.054 1.732,0.596 2.123,3.255 1.754,5.475 -0.406,2.437 -1.633,3.949 -3.2,3.949 -0.187,0 -0.377,-0.022 -0.565,-0.065 -1.172,-0.269 -2.985,-0.404 -5.393,-0.404 -4.26,0 -9.288,0.426 -11.99,0.654 C 7.844,31.844 7.194,31.898 6.928,31.908 6.916,31.904 6.904,31.904 6.893,31.904 l 0,0 z"
       id="path22"
       inkscape:connector-curvature="0" /><path
       id="path3447_2_"
       d="m 27.83,23.104 c 2.105,0.723 1.35,8.082 -1.465,7.438 -4.924,-1.131 -18.027,0.316 -19.472,0.365 3.098,-1.146 1.91,-6.967 0.382,-7.854 5.6,1.108 17.666,-0.064 20.555,0.051 z"
       inkscape:connector-curvature="0"
       style="fill:#03addb" /><linearGradient
       id="path10840_2_"
       gradientUnits="userSpaceOnUse"
       x1="300.21481"
       y1="-397.61331"
       x2="300.21481"
       y2="-401.9415"
       gradientTransform="matrix(1.2079748,0,0,-1.2079491,-343.42062,-450.27241)"><stop
         offset="0"
         style="stop-color:#B2D3DC"
         id="stop26" /><stop
         offset="1"
         style="stop-color:#117C9F"
         id="stop28" /></linearGradient><path
       id="path10840_1_"
       d="m 9.4,29.7 c 0.212,-0.511 0.349,-1.095 0.405,-1.74 0.098,-1.142 -0.082,-2.487 -0.493,-3.619 1.374,0.13 3.021,0.191 4.97,0.191 3.079,0 6.341,-0.158 8.964,-0.285 1.725,-0.082 3.213,-0.154 4.125,-0.154 0.072,0 0.143,0 0.207,0.003 0.277,0.271 0.639,1.524 0.357,3.204 -0.238,1.429 -0.813,2.277 -1.23,2.277 l 0,0 c -0.035,0 -0.074,-0.004 -0.117,-0.015 C 25.252,29.255 23.344,29.105 20.752,29.105 16.807,29.107 12.247,29.464 9.4,29.7 l 0,0 z"
       style="fill:url(#path10840_2_)"
       inkscape:connector-curvature="0" /></g><g
     id="g4257"
     transform="matrix(0.93613559,0,0,1.0674879,-3.4250531,44.317809)"><g
       id="g4155"
       transform="matrix(0.93616405,0,0,1,-0.26330063,-0.19335894)"><path
         style="font-style:normal;font-weight:normal;font-size:13.75px;line-height:125%;font-family:sans-serif;letter-spacing:0px;word-spacing:0px;fill:#ffffff;fill-opacity:1;stroke:none;stroke-width:1px;stroke-linecap:butt;stroke-linejoin:miter;stroke-opacity:1"
         d="m 11.296875,-24.064453 c -0.991933,1e-6 -1.9322286,0.137399 -2.8085938,0.419922 a 1.1667214,1.1667214 0 0 0 -0.00195,0 c -0.8699013,0.2824 -1.6452338,0.698291 -2.2851562,1.259765 -0.6521227,0.571719 -1.1638053,1.277222 -1.5058594,2.076172 -0.3449212,0.805647 -0.5058594,1.689324 -0.5058594,2.615235 0,0.979717 0.1644887,1.896361 0.5273438,2.71875 a 1.1667214,1.1667214 0 0 0 0.00195,0.0078 c 0.3592822,0.799749 0.8846077,1.49847 1.5488281,2.046875 0.6557664,0.541424 1.43085,0.93904 2.2890625,1.197266 a 1.1667214,1.1667214 0 0 0 0.00195,0 c 0.8549172,0.255411 1.7682842,0.376953 2.7304682,0.376953 0.616446,0 1.11502,-0.02242 1.544922,-0.08594 0.375236,-0.05544 0.767151,-0.134845 1.177735,-0.236328 0.329013,-0.08081 0.652024,-0.17696 0.964843,-0.292969 0.271882,-0.100825 0.553969,-0.207598 0.847657,-0.320312 a 1.1667214,1.1667214 0 0 0 0.332031,-0.199219 1.1667214,1.1667214 0 0 0 0.441406,0.28125 c 0.681659,0.244171 1.403219,0.44401 2.164063,0.601563 a 1.1667214,1.1667214 0 0 0 0.0078,0.002 c 0.816698,0.162806 1.730931,0.236328 2.751953,0.236328 1.809252,0 3.352517,-0.324783 4.576172,-1.099609 a 1.1667214,1.1667214 0 0 0 0,-0.002 c 1.209659,-0.767429 2.001953,-2.017116 2.001953,-3.386718 0,-0.926154 -0.329135,-1.841153 -0.970703,-2.492188 l -0.002,-0.002 c -0.190669,-0.196027 -0.523345,-0.247981 -0.751953,-0.402344 l 0.09766,0 a 1.1667214,1.1667214 0 0 0 1.164063,-1.113281 L 30.865234,-12.25 a 1.1667214,1.1667214 0 0 0 1.074219,0.710938 l 3.357422,0 A 1.1667214,1.1667214 0 0 0 36.371094,-12.25 l 4.240234,-9.998047 a 1.1667214,1.1667214 0 0 0 -1.074219,-1.621094 l -3.068359,0 a 1.1667214,1.1667214 0 0 0 -1.082031,0.732422 l -1.728516,4.31836 -1.728515,-4.31836 a 1.1667214,1.1667214 0 0 0 -1.083985,-0.732422 l -3.148437,0 a 1.1667214,1.1667214 0 0 0 -0.97461,0.523438 c -0.596476,-0.200656 -1.249739,-0.367312 -1.99414,-0.492188 -6.38e-4,-1.11e-4 -0.0013,1.11e-4 -0.002,0 -0.810071,-0.141116 -1.633575,-0.21289 -2.464843,-0.21289 -1.676353,0 -3.149314,0.323936 -4.353516,1.054687 -0.550489,0.333536 -0.989395,0.789458 -1.335937,1.291016 l 0,-0.359375 a 1.1667214,1.1667214 0 0 0 -0.714844,-1.076172 c -0.230952,-0.09685 -0.493428,-0.197501 -0.785156,-0.302734 l -0.0059,-0.002 c -0.333462,-0.127105 -0.693032,-0.235721 -1.080078,-0.330079 a 1.1667214,1.1667214 0 0 0 -0.01563,-0.0039 c -0.377077,-0.08611 -0.779853,-0.154271 -1.207031,-0.203125 -0.0018,-2.26e-4 -0.0041,2.25e-4 -0.0059,0 -0.448408,-0.05626 -0.933933,-0.08203 -1.460937,-0.08203 z m 0.460937,4.259765 c 0.277827,0 0.521354,0.03688 0.740235,0.101563 0.275606,0.08145 0.520874,0.176414 0.738281,0.285156 0.240006,0.122667 0.447932,0.245683 0.619141,0.361328 a 1.1667214,1.1667214 0 0 0 0.0098,0.0078 c 0.212543,0.140227 0.384176,0.25799 0.50586,0.347656 a 1.1667214,1.1667214 0 0 0 0.691406,0.226563 l 0.34375,0 a 1.1667214,1.1667214 0 0 0 0.669922,-0.210938 c 0.150461,0.549474 0.378735,1.072548 0.761719,1.494141 a 1.1667214,1.1667214 0 0 0 0.0078,0.0078 c 0.152211,0.16396 0.440591,0.19822 0.619141,0.333985 a 1.1667214,1.1667214 0 0 0 -0.146485,-0.0098 l -0.328125,0 a 1.1667214,1.1667214 0 0 0 -0.755859,0.277344 1.1667214,1.1667214 0 0 0 -0.828125,-0.34375 l -0.3125,0 a 1.1667214,1.1667214 0 0 0 -0.708984,0.238281 c -0.108172,0.08266 -0.2724,0.199934 -0.482422,0.341797 -0.178754,0.120742 -0.375516,0.237649 -0.587891,0.345703 a 1.1667214,1.1667214 0 0 0 -0.01953,0.0098 c -0.215458,0.114967 -0.459583,0.210284 -0.738281,0.283203 a 1.1667214,1.1667214 0 0 0 -0.0039,0.002 c -0.257155,0.06827 -0.514355,0.101562 -0.779296,0.101562 -0.27315,0 -0.553064,-0.03899 -0.851563,-0.117187 -0.244326,-0.06811 -0.452061,-0.170489 -0.650391,-0.324219 C 10.121631,-16.160866 9.9689582,-16.34041 9.8261719,-16.625 l 0,-0.002 c -0.1045548,-0.217254 -0.1894531,-0.560955 -0.1894531,-1.060547 0,-0.476401 0.078697,-0.820409 0.1816406,-1.052734 0.1300163,-0.280504 0.2731476,-0.464909 0.4277346,-0.59375 0.209713,-0.170409 0.416077,-0.277641 0.640625,-0.34375 a 1.1667214,1.1667214 0 0 0 0.01172,-0.0039 c 0.264096,-0.08086 0.543606,-0.123047 0.859374,-0.123047 z"
         id="path4348" /><g
         transform="scale(1.0785269,0.92719063)"
         style="font-style:normal;font-weight:normal;font-size:14.82974434px;line-height:125%;font-family:sans-serif;letter-spacing:0px;word-spacing:0px;fill:#000000;fill-opacity:1;stroke:none;stroke-width:1px;stroke-linecap:butt;stroke-linejoin:miter;stroke-opacity:1"
         id="text4183"><path
           d="m 10.467988,-13.493644 q -1.2020203,0 -2.2230134,-0.354813 -1.0137521,-0.354813 -1.7451018,-1.057199 -0.7313497,-0.702385 -1.1368505,-1.752342 -0.3982597,-1.049958 -0.3982597,-2.425764 0,-1.281672 0.3837776,-2.324389 0.3837775,-1.042716 1.1151272,-1.788548 0.7023854,-0.716868 1.7378607,-1.107886 1.0427164,-0.391019 2.2737009,-0.391019 0.680662,0 1.223744,0.07965 0.550322,0.07241 1.013752,0.195509 0.485152,0.137581 0.876171,0.311367 0.39826,0.166545 0.695144,0.311367 l 0,2.614032 -0.318607,0 q -0.202751,-0.173786 -0.514117,-0.412742 -0.304126,-0.238956 -0.695145,-0.470671 -0.398259,-0.231714 -0.861689,-0.391018 -0.46343,-0.159304 -0.992029,-0.159304 -0.586528,0 -1.1151271,0.188268 -0.5285993,0.181027 -0.9775466,0.608251 -0.4272241,0.412742 -0.6951443,1.093404 -0.2606791,0.680662 -0.2606791,1.650968 0,1.013752 0.2824024,1.694414 0.2896434,0.680662 0.7241086,1.071681 0.4417063,0.39826 0.9847877,0.572046 0.5430814,0.166545 1.0716804,0.166545 0.506876,0 0.99927,-0.152063 0.499635,-0.152063 0.919618,-0.412742 0.354813,-0.209992 0.658939,-0.448947 0.304126,-0.238956 0.499635,-0.412742 l 0.289643,0 0,2.577826 q -0.4055,0.181027 -0.774796,0.340331 -0.369295,0.159304 -0.774796,0.275162 -0.528599,0.152062 -0.992029,0.231714 -0.463429,0.07965 -1.274431,0.07965 z"
           style="font-weight:bold"
           id="path4162" /><path
           d="m 24.971883,-17.092464 q 0,1.593039 -1.354083,2.592309 -1.346842,0.992029 -3.66399,0.992029 -1.3396,0 -2.33887,-0.231715 -0.992029,-0.238955 -1.860959,-0.60101 l 0,-2.585068 0.304125,0 q 0.861689,0.687904 1.926129,1.057199 1.071681,0.369295 2.056468,0.369295 0.253439,0 0.66618,-0.04345 0.412742,-0.04345 0.673421,-0.144822 0.318608,-0.130339 0.521359,-0.325849 0.209991,-0.195509 0.209991,-0.579287 0,-0.354813 -0.304126,-0.608251 -0.296884,-0.260679 -0.876171,-0.39826 -0.608251,-0.144821 -1.288913,-0.26792 -0.673421,-0.130339 -1.26719,-0.325849 -1.361325,-0.441706 -1.962335,-1.194779 -0.593769,-0.760314 -0.593769,-1.882682 0,-1.506146 1.346842,-2.454728 1.354083,-0.955824 3.475722,-0.955824 1.064439,0 2.099915,0.209992 1.042716,0.20275 1.80303,0.514117 l 0,2.483692 -0.296884,0 q -0.651698,-0.521358 -1.600281,-0.86893 -0.941341,-0.354813 -1.926128,-0.354813 -0.347573,0 -0.695145,0.05069 -0.340331,0.04345 -0.658939,0.173787 -0.282402,0.108616 -0.485152,0.333089 -0.202751,0.217233 -0.202751,0.499635 0,0.427224 0.325849,0.658939 0.325849,0.224474 1.230985,0.412742 0.593769,0.123099 1.13685,0.238956 0.550323,0.115857 1.180297,0.318608 1.238226,0.405501 1.824754,1.107886 0.593769,0.695144 0.593769,1.810271 z"
           style="font-weight:bold"
           id="path4164" /><path
           d="m 36.658995,-24.485612 -3.93191,10.781977 -3.113667,0 -3.93191,-10.781977 2.918158,0 2.606791,7.574176 2.606791,-7.574176 2.845747,0 z"
           style="font-weight:bold"
           id="path4166" /></g></g></g></svg>