<?xml version="1.0" encoding="utf-8"?>
<!-- Generator: Adobe Illustrator 15.0.0, SVG Export Plug-In . SVG Version: 6.00 Build 0)  -->
<!DOCTYPE svg PUBLIC "-//W3C//DTD SVG 1.1//EN" "http://www.w3.org/Graphics/SVG/1.1/DTD/svg11.dtd">
<svg version="1.1" id="Layer_1" xmlns="http://www.w3.org/2000/svg" xmlns:xlink="http://www.w3.org/1999/xlink" x="0px" y="0px"
	 width="32px" height="32px" viewBox="0 0 32 32" enable-background="new 0 0 32 32" xml:space="preserve">
<g>
	<g>
		<path id="path5_12_" d="M31.786,19.335c-0.317-0.551-0.938-0.867-1.704-0.867h-4.693v-0.426c0-1.497-1.221-2.717-2.717-2.717
			H14.76l-0.102-0.191c-0.378-0.707-0.894-1.675-2.206-1.675H9.8c-1.349,0-1.878,0.981-2.334,1.829l-0.019,0.037H6.716
			C5.219,15.327,4,16.544,4,18.042v11.219C4,30.771,5.219,32,6.716,32h0.286h15.669h0.589c1.252,0,2.666-0.814,3.295-1.896
			l5.127-8.858C32.066,20.58,32.104,19.885,31.786,19.335z"/>
		<path id="rect5504_10_" fill="#A4A4A4" d="M9.799,14.336c-0.852,0-1.163,0.625-1.567,1.374l-0.271,0.492H6.716
			c-1.023,0-1.841,0.813-1.841,1.84v11.219c0,1.025,0.817,1.864,1.841,1.864h15.955c1.024,0,1.841-0.839,1.841-1.864V18.042
			c0-1.024-0.816-1.842-1.841-1.842H14.24l-0.271-0.491c-0.405-0.749-0.671-1.375-1.521-1.375h-0.737h-1.175H9.799V14.336z"/>
		<path id="path10819_17_" d="M11.095,28.493c-0.147,0-0.292-0.019-0.43-0.062c-0.208-0.027-0.411-0.101-0.593-0.209
			c-1.592-0.969-1.533-3.108-1.512-3.81c0.043-1.731,0.528-3.892,1.037-6.175c0.592-2.634,1.201-5.349,1.234-7.753
			c-0.031,0-0.06,0-0.091,0c-0.339,0-0.746,0.037-1.178,0.107c-0.081,0.012-0.162,0.019-0.243,0.019
			c-0.622,0-1.193-0.378-1.429-0.968c-0.3-0.754-0.666-1.832-0.699-2.705c-0.039-1.006,0.723-2.681,1.96-2.913
			C9.244,4.007,9.339,4,9.434,4c0.055,0,0.11,0.003,0.165,0.009c0.317,0.028,6.604,0.457,10.295,0.457
			c0.951,0,1.488-0.03,1.771-0.057c0.087-0.007,0.178-0.012,0.271-0.012c0.986,0,1.998,0.485,2.849,1.368
			c1.401,1.463,2.188,3.79,2.092,6.22c-0.036,1.058-0.235,2.134-0.59,3.188c-0.818,2.433-1.224,4.306-1.24,5.713
			c0,0.035,0,0.073,0,0.109c0.652-0.024,1.269-0.048,1.724-0.048l0.176,0.001c0.393,0.008,0.768,0.163,1.049,0.435
			c0.811,0.786,0.945,2.488,0.722,3.831c-0.313,1.877-1.258,3.041-2.465,3.041c-0.146,0-0.294-0.019-0.438-0.052
			c-0.899-0.208-2.297-0.314-4.146-0.314c-1.716,0-3.754,0.09-6.239,0.27c-1.569,0.182-2.962,0.294-3.864,0.311l-0.366,0.025
			C11.163,28.493,11.129,28.493,11.095,28.493L11.095,28.493z"/>
		<path id="path3443_22_" fill="#03ADDB" d="M11.959,9.938c0.137-1.53-0.531-4.309-2.432-5.101c-1-0.418-1.601,1.235-1.57,2.066
			c0.05,1.228,0.898,3.033,0.898,3.033S11.032,9.429,11.959,9.938z"/>
		
			<linearGradient id="path10849_1_" gradientUnits="userSpaceOnUse" x1="1132.2451" y1="-1715.3569" x2="1134.0839" y2="-1713.7363" gradientTransform="matrix(1 0 0 -1 -1123.9404 -1706.4395)">
			<stop  offset="0" style="stop-color:#B2D3DC"/>
			<stop  offset="1" style="stop-color:#157DA0"/>
		</linearGradient>
		<path id="path10849_18_" fill="url(#path10849_1_)" d="M9.32,9.065c-0.253-0.631-0.564-1.55-0.59-2.191
			C8.71,6.348,9.047,5.611,9.236,5.535c1.167,0.498,1.799,2.097,1.943,3.422c-0.14-0.012-0.282-0.018-0.436-0.018
			C10.23,8.939,9.709,9.002,9.32,9.065L9.32,9.065z"/>
		<path id="path3445_22_" fill="#03ADDB" d="M25.557,14.887c-3.279,9.789,0.758,8.64,0.832,9.671
			c0.115,1.644-14.92,3.51-15.819,3.021C6.14,25.174,15.436,9.945,9.632,4.768c1.877,0.106,9.296,0.653,12.103,0.401
			C24.371,4.935,27.377,9.438,25.557,14.887z"/>
		
			<linearGradient id="path10830_1_" gradientUnits="userSpaceOnUse" x1="1141.6631" y1="-1712.7744" x2="1141.6631" y2="-1731.6068" gradientTransform="matrix(1 0 0 -1 -1123.9404 -1706.4395)">
			<stop  offset="0" style="stop-color:#B2D3DC"/>
			<stop  offset="1" style="stop-color:#157DA0"/>
		</linearGradient>
		<path id="path10830_18_" fill="url(#path10830_1_)" d="M11.344,26.921c-0.271,0-0.408-0.012-0.466-0.019
			c-1.432-0.892-0.59-4.652,0.226-8.295c1.02-4.549,2.157-9.622,0.227-12.926c2.265,0.142,5.888,0.359,8.458,0.359l0,0
			c0.829,0,1.511-0.024,2.018-0.068c0.043-0.005,0.088-0.008,0.131-0.008c0.717,0,1.525,0.528,2.166,1.414
			c1.043,1.451,1.781,4.129,0.724,7.297c-2.312,6.902-1.205,8.933,0.45,9.951C23.123,25.627,14.528,26.921,11.344,26.921
			L11.344,26.921z"/>
		<path id="path27_2_" fill="#010101" d="M10.982,28.498c-0.364,0-0.682-0.26-0.754-0.622c-0.072-0.369,0.134-0.739,0.489-0.87
			c0.708-0.263,0.922-1.058,0.975-1.678c0.126-1.469-0.502-2.811-0.801-2.984c-0.327-0.189-0.467-0.586-0.333-0.936
			c0.114-0.307,0.403-0.497,0.72-0.497c0.048,0,0.097,0.004,0.148,0.014c1.193,0.237,2.959,0.357,5.249,0.357l0,0
			c2.331,0,4.817-0.122,6.816-0.218c1.351-0.063,2.518-0.119,3.26-0.119c0.146,0,0.274,0.002,0.392,0.005
			c0.075,0.004,0.147,0.019,0.221,0.041c1.332,0.458,1.634,2.508,1.352,4.218c-0.314,1.877-1.259,3.042-2.467,3.042
			c-0.143,0-0.289-0.019-0.436-0.051c-0.901-0.205-2.299-0.312-4.152-0.312c-3.28,0-7.155,0.327-9.236,0.504
			c-0.708,0.058-1.208,0.099-1.413,0.106C11.002,28.498,10.993,28.498,10.982,28.498L10.982,28.498z"/>
		<path id="path3447_22_" fill="#03ADDB" d="M27.111,21.719c1.623,0.557,1.039,6.227-1.127,5.73
			c-3.795-0.873-13.887,0.242-15.002,0.279c2.388-0.883,1.474-5.365,0.296-6.049C15.593,22.535,24.887,21.63,27.111,21.719z"/>
		
			<linearGradient id="path10840_1_" gradientUnits="userSpaceOnUse" x1="1144" y1="-1729.4448" x2="1144" y2="-1732.7782" gradientTransform="matrix(1 0 0 -1 -1123.9404 -1706.4395)">
			<stop  offset="0" style="stop-color:#B2D3DC"/>
			<stop  offset="1" style="stop-color:#157DA0"/>
		</linearGradient>
		<path id="path10840_18_" fill="url(#path10840_1_)" d="M12.916,26.8c0.164-0.394,0.27-0.843,0.311-1.34
			c0.076-0.879-0.063-1.914-0.38-2.788c1.058,0.1,2.326,0.146,3.828,0.146c2.37,0,4.886-0.12,6.906-0.221
			c1.329-0.062,2.476-0.117,3.177-0.117c0.055,0,0.109,0,0.162,0.004c0.212,0.207,0.491,1.172,0.273,2.466
			c-0.186,1.101-0.629,1.755-0.948,1.755l0,0c-0.024,0-0.056-0.003-0.091-0.01c-1.028-0.237-2.497-0.354-4.494-0.354
			C18.622,26.344,15.11,26.618,12.916,26.8L12.916,26.8z"/>
		<path id="path36_6_" d="M7.003,32c-0.767,0-1.388-0.316-1.706-0.866c-0.316-0.552-0.278-1.245,0.106-1.907l5.127-8.86
			c0.625-1.082,2.041-1.896,3.292-1.896h16.259c0.767,0,1.388,0.313,1.704,0.863s0.279,1.247-0.104,1.91l-5.129,8.859
			C25.926,31.186,24.51,32,23.262,32H7.003z"/>
		<path id="rect5498_10_" fill="#FBFBFB" d="M13.824,19.344h16.258c0.934,0,1.311,0.654,0.843,1.461l-5.128,8.861
			c-0.468,0.805-1.604,1.459-2.535,1.459H7.003c-0.933,0-1.311-0.654-0.844-1.459l5.129-8.861
			C11.753,19.998,12.89,19.344,13.824,19.344z"/>
		
			<linearGradient id="path46_1_" gradientUnits="userSpaceOnUse" x1="849.2539" y1="1927.834" x2="872.6309" y2="1927.834" gradientTransform="matrix(1 0 0 1 -842.4004 -1902.5996)">
			<stop  offset="0" style="stop-color:#A5A5A5"/>
			<stop  offset="0.5394" style="stop-color:#FBFBFB"/>
			<stop  offset="1" style="stop-color:#FFFFFF"/>
		</linearGradient>
		<path id="path46_2_" fill="url(#path46_1_)" d="M7.003,30.25c-0.063,0-0.114-0.005-0.15-0.012c0.014-0.034,0.032-0.08,0.064-0.135
			l5.127-8.859c0.311-0.537,1.157-1.025,1.777-1.025h16.26c0.062,0,0.112,0.006,0.149,0.014c-0.014,0.033-0.031,0.08-0.064,0.136
			l-5.127,8.858c-0.311,0.537-1.158,1.023-1.777,1.023H7.003z"/>
	</g>
</g>
<g>
	<g>
		<path fill="#FFFFFF" d="M10.184,17.359c0.088,0.012,0.176,0.018,0.264,0.018c0.533,0,1.035-0.209,1.408-0.584
			c0.444-0.443,0.652-1.054,0.57-1.671l-1.023-8c-0.055-0.438-0.252-0.839-0.563-1.153c-0.219-0.222-0.487-0.39-0.756-0.477
			C9.869,5.417,9.646,5.378,9.419,5.378c-0.521,0-1.015,0.2-1.385,0.56l-0.83,0.799C7.197,6.823,7.188,6.913,7.189,6.993
			c0.035,0.874,0.398,1.952,0.699,2.706c0.236,0.591,0.807,0.967,1.43,0.967c0.08,0,0.162-0.006,0.244-0.02
			c0.434-0.069,0.84-0.106,1.178-0.106c0.031,0,0.06,0,0.091,0c-0.013,0.933-0.128,1.918-0.28,2.921H9.799
			c-1.349,0-1.878,0.98-2.334,1.828l-0.02,0.038H6.716c-0.974,0-1.823,0.521-2.303,1.293L10.184,17.359z"/>
		<g>
			<path id="path9179_22_" fill="#030303" d="M10.126,6.671c-0.103-0.104-0.23-0.188-0.376-0.235C9.395,6.311,9,6.395,8.727,6.659
				L6.951,8.367C6.583,8.04,6.271,7.748,5.984,7.462C3.852,5.327,3.202,3.427,3.893,1.311C4.009,0.95,3.912,0.555,3.647,0.293
				c-0.039-0.04-0.082-0.076-0.131-0.109C3.159-0.068,2.676-0.06,2.331,0.206C2.247,0.271,0.271,1.82,0.025,4.708
				C-0.178,7.1,0.848,9.633,3.068,12.253l-1.348,1.41c-0.262,0.272-0.348,0.67-0.222,1.022c0.053,0.144,0.133,0.271,0.235,0.373
				c0.156,0.152,0.355,0.258,0.578,0.282l8.002,1.025c0.309,0.041,0.615-0.063,0.834-0.284c0.221-0.221,0.326-0.523,0.285-0.835
				l-1.022-8C10.382,7.025,10.279,6.825,10.126,6.671L10.126,6.671z"/>
			
				<linearGradient id="path7827_1_" gradientUnits="userSpaceOnUse" x1="-6414.1772" y1="1367.9004" x2="-6390.3418" y2="1367.9004" gradientTransform="matrix(-0.4633 -0.4633 0.4633 -0.4633 -3594.9683 -2322.5393)">
				<stop  offset="0" style="stop-color:#20A64A"/>
				<stop  offset="0.5" style="stop-color:#B1D68B"/>
				<stop  offset="1" style="stop-color:#236836"/>
			</linearGradient>
			<path id="path7827_64_" opacity="0.98" fill="url(#path7827_1_)" enable-background="new    " d="M2.42,14.33l1.986-2.076
				c-6.723-7.261-1.49-11.277-1.49-11.277C1.665,4.818,4.359,7.5,6.966,9.693l2.431-2.34l1.023,8.002L2.42,14.33z"/>
			<path id="path4454_32_" opacity="0.98" fill="#11A04A" enable-background="new    " d="M8.875,8.829l-1.878,1.81l-0.481-0.41
				c-0.736-0.617-1.279-1.105-1.76-1.59C3.587,7.473,2.21,5.813,1.943,3.645C1.826,3.996,1.734,4.389,1.697,4.827
				C1.52,6.934,2.604,9.271,4.919,11.775l0.449,0.481L3.89,13.809l5.719,0.732L8.875,8.829z"/>
		</g>
	</g>
</g>
</svg>
