<?xml version="1.0" encoding="UTF-8" standalone="no"?>
<!-- Generator: Adobe Illustrator 14.0.0, SVG Export Plug-In . SVG Version: 6.00 Build 43363)  -->

<svg
   xmlns:dc="http://purl.org/dc/elements/1.1/"
   xmlns:cc="http://creativecommons.org/ns#"
   xmlns:rdf="http://www.w3.org/1999/02/22-rdf-syntax-ns#"
   xmlns:svg="http://www.w3.org/2000/svg"
   xmlns="http://www.w3.org/2000/svg"
   xmlns:sodipodi="http://sodipodi.sourceforge.net/DTD/sodipodi-0.dtd"
   xmlns:inkscape="http://www.inkscape.org/namespaces/inkscape"
   version="1.1"
   id="Layer_1"
   x="0px"
   y="0px"
   width="32px"
   height="32px"
   viewBox="0 0 32 32"
   enable-background="new 0 0 32 32"
   xml:space="preserve"
   sodipodi:version="0.32"
   inkscape:version="0.91 r13725"
   sodipodi:docname="XML.svg"><metadata
     id="metadata34"><rdf:RDF><cc:Work
         rdf:about=""><dc:format>image/svg+xml</dc:format><dc:type
           rdf:resource="http://purl.org/dc/dcmitype/StillImage" /><dc:title /></cc:Work></rdf:RDF></metadata><defs
     id="defs32" /><sodipodi:namedview
     inkscape:window-height="1017"
     inkscape:window-width="1920"
     inkscape:pageshadow="2"
     inkscape:pageopacity="0.0"
     borderopacity="1.0"
     bordercolor="#666666"
     pagecolor="#ffffff"
     id="base"
     inkscape:zoom="16.528621"
     inkscape:cx="11.454015"
     inkscape:cy="3.9230068"
     inkscape:window-x="-8"
     inkscape:window-y="-8"
     inkscape:current-layer="g4257"
     showgrid="false"
     inkscape:window-maximized="1" /><g
     id="g3"
     transform="matrix(0.82783188,0,0,0.82784948,2.7545425,-0.08202121)"><path
       id="path10819_1_"
       d="m 7.038,31.898 c -0.19,0 -0.379,-0.026 -0.559,-0.08 C 6.208,31.782 5.946,31.689 5.709,31.546 3.64,30.288 3.719,27.511 3.746,26.602 3.803,24.354 4.43,21.552 5.092,18.587 5.859,15.168 6.65,11.64 6.694,8.522 c -0.039,0 -0.078,0 -0.119,0 -0.439,0 -0.968,0.047 -1.529,0.137 C 4.94,8.675 4.834,8.683 4.73,8.683 3.922,8.683 3.181,8.195 2.874,7.426 2.484,6.45 2.01,5.051 1.967,3.915 1.916,2.606 2.906,0.435 4.512,0.134 4.633,0.11 4.756,0.101 4.879,0.101 c 0.072,0 0.144,0.004 0.215,0.012 0.412,0.037 8.572,0.592 13.366,0.592 1.235,0 1.933,-0.039 2.298,-0.072 0.113,-0.01 0.23,-0.016 0.352,-0.016 1.281,0 2.595,0.631 3.697,1.775 1.822,1.899 2.84,4.92 2.715,8.076 -0.047,1.372 -0.307,2.768 -0.766,4.137 -1.061,3.161 -1.588,5.588 -1.609,7.417 0,0.049 0,0.098 0,0.145 0.847,-0.035 1.646,-0.063 2.236,-0.063 l 0.229,0.002 c 0.509,0.008 0.996,0.211 1.361,0.563 1.051,1.021 1.228,3.229 0.938,4.974 -0.408,2.436 -1.636,3.946 -3.201,3.946 -0.188,0 -0.381,-0.022 -0.569,-0.065 -1.168,-0.271 -2.98,-0.408 -5.384,-0.408 -2.228,0 -4.876,0.113 -8.101,0.346 -2.039,0.236 -3.846,0.383 -5.02,0.402 l -0.471,0.033 c -0.043,0.001 -0.084,0.001 -0.127,0.001 l 0,0 z"
       inkscape:connector-curvature="0"
       style="fill:#020202" /><path
       id="path3443_1_"
       d="M 8.159,7.808 C 8.336,5.821 7.467,2.214 5,1.185 3.704,0.644 2.924,2.79 2.965,3.869 c 0.063,1.595 1.164,3.938 1.164,3.938 0,0 2.825,-0.661 4.03,10e-4 z"
       inkscape:connector-curvature="0"
       style="fill:#03addb" /><linearGradient
       id="path10849_2_"
       gradientUnits="userSpaceOnUse"
       x1="284.95309"
       y1="-379.3237"
       x2="287.3403"
       y2="-377.2197"
       gradientTransform="matrix(1.2079748,0,0,-1.2079491,-343.42062,-450.27241)"><stop
         offset="0"
         style="stop-color:#B2D3DC"
         id="stop8" /><stop
         offset="1"
         style="stop-color:#117C9F"
         id="stop10" /></linearGradient><path
       id="path10849_1_"
       d="M 4.732,6.676 C 4.405,5.858 3.999,4.663 3.965,3.83 3.939,3.149 4.375,2.194 4.623,2.094 6.135,2.74 6.957,4.816 7.143,6.535 6.963,6.522 6.777,6.514 6.579,6.514 5.913,6.513 5.239,6.595 4.732,6.676 l 0,0 z"
       style="fill:url(#path10849_2_)"
       inkscape:connector-curvature="0" /><path
       d="M 7.357,31.814 C 6.467,31.814 6.13,31.728 5.876,31.589 2.58,29.8 3.745,24.604 5.093,18.585 6.51,12.263 8.116,5.097 4.47,1.845 4.152,1.562 4.049,1.109 4.211,0.716 4.366,0.341 4.732,0.099 5.134,0.099 c 0.019,0 0.927,0.055 1.553,0.094 2.811,0.179 8.042,0.512 11.629,0.512 l 0,0 c 1.021,0 1.844,-0.027 2.443,-0.081 0.115,-0.01 0.231,-0.016 0.348,-0.016 1.601,0 3.217,0.972 4.437,2.666 1.646,2.286 2.828,6.448 1.213,11.277 -3.028,9.049 -1.026,10.16 -0.065,10.695 0.451,0.251 1.137,0.631 1.197,1.475 0.021,0.282 -0.039,0.705 -0.432,1.127 -2.124,2.278 -16.671,3.966 -20.1,3.966 l 0,0 z"
       id="path13"
       inkscape:connector-curvature="0" /><path
       id="path3445_1_"
       d="m 25.809,14.233 c -4.254,12.71 0.984,11.217 1.082,12.559 0.15,2.131 -19.372,4.554 -20.538,3.92 C 0.604,27.589 12.67,7.819 5.135,1.099 7.571,1.237 17.205,1.946 20.85,1.62 c 3.423,-0.307 7.324,5.542 4.959,12.613 z"
       inkscape:connector-curvature="0"
       style="fill:#03addb" /><linearGradient
       id="path10830_2_"
       gradientUnits="userSpaceOnUse"
       x1="297.17871"
       y1="-375.9707"
       x2="297.17871"
       y2="-400.41809"
       gradientTransform="matrix(1.2079748,0,0,-1.2079491,-343.42062,-450.27241)"><stop
         offset="0"
         style="stop-color:#B2D3DC"
         id="stop17" /><stop
         offset="1"
         style="stop-color:#117C9F"
         id="stop19" /></linearGradient><path
       id="path10830_1_"
       d="M 7.357,29.857 C 7.008,29.857 6.831,29.841 6.753,29.833 4.893,28.677 5.987,23.792 7.046,19.066 8.37,13.159 9.846,6.573 7.342,2.282 10.28,2.467 14.986,2.748 18.323,2.748 l 0,0 c 1.077,0 1.958,-0.03 2.616,-0.088 0.057,-0.005 0.112,-0.009 0.172,-0.009 0.932,0 1.981,0.687 2.809,1.834 1.357,1.884 2.316,5.36 0.941,9.475 -3,8.961 -1.563,11.595 0.584,12.918 -2.793,1.299 -13.952,2.979 -18.088,2.979 l 0,0 z"
       style="fill:url(#path10830_2_)"
       inkscape:connector-curvature="0" /><path
       d="M 6.893,31.904 C 6.417,31.904 6.005,31.568 5.912,31.097 5.818,30.617 6.086,30.136 6.546,29.966 7.467,29.625 7.743,28.595 7.812,27.789 7.976,25.882 7.161,24.14 6.773,23.915 6.35,23.669 6.167,23.153 6.339,22.697 6.488,22.301 6.865,22.05 7.274,22.05 c 0.064,0 0.129,0.006 0.195,0.02 1.548,0.307 3.84,0.463 6.813,0.463 l 10e-4,0 c 3.025,0 6.254,-0.156 8.85,-0.281 1.752,-0.084 3.266,-0.156 4.229,-0.156 0.189,0 0.359,0.002 0.508,0.008 0.098,0.004 0.193,0.021 0.285,0.054 1.732,0.596 2.123,3.255 1.754,5.475 -0.406,2.437 -1.633,3.949 -3.2,3.949 -0.187,0 -0.377,-0.022 -0.565,-0.065 -1.172,-0.269 -2.985,-0.404 -5.393,-0.404 -4.26,0 -9.288,0.426 -11.99,0.654 C 7.844,31.844 7.194,31.898 6.928,31.908 6.916,31.904 6.904,31.904 6.893,31.904 l 0,0 z"
       id="path22"
       inkscape:connector-curvature="0" /><path
       id="path3447_2_"
       d="m 27.83,23.104 c 2.105,0.723 1.35,8.082 -1.465,7.438 -4.924,-1.131 -18.027,0.316 -19.472,0.365 3.098,-1.146 1.91,-6.967 0.382,-7.854 5.6,1.108 17.666,-0.064 20.555,0.051 z"
       inkscape:connector-curvature="0"
       style="fill:#03addb" /><linearGradient
       id="path10840_2_"
       gradientUnits="userSpaceOnUse"
       x1="300.21481"
       y1="-397.61331"
       x2="300.21481"
       y2="-401.9415"
       gradientTransform="matrix(1.2079748,0,0,-1.2079491,-343.42062,-450.27241)"><stop
         offset="0"
         style="stop-color:#B2D3DC"
         id="stop26" /><stop
         offset="1"
         style="stop-color:#117C9F"
         id="stop28" /></linearGradient><path
       id="path10840_1_"
       d="m 9.4,29.7 c 0.212,-0.511 0.349,-1.095 0.405,-1.74 0.098,-1.142 -0.082,-2.487 -0.493,-3.619 1.374,0.13 3.021,0.191 4.97,0.191 3.079,0 6.341,-0.158 8.964,-0.285 1.725,-0.082 3.213,-0.154 4.125,-0.154 0.072,0 0.143,0 0.207,0.003 0.277,0.271 0.639,1.524 0.357,3.204 -0.238,1.429 -0.813,2.277 -1.23,2.277 l 0,0 c -0.035,0 -0.074,-0.004 -0.117,-0.015 C 25.252,29.255 23.344,29.105 20.752,29.105 16.807,29.107 12.247,29.464 9.4,29.7 l 0,0 z"
       style="fill:url(#path10840_2_)"
       inkscape:connector-curvature="0" /></g><g
     id="g4257"
     transform="matrix(0.93613559,0,0,1.0674879,-3.4250531,44.317809)"><path
       style="font-style:normal;font-weight:normal;font-size:13.75px;line-height:125%;font-family:sans-serif;letter-spacing:0px;word-spacing:0px;fill:#ffffff;fill-opacity:1;stroke:none;stroke-width:1px;stroke-linecap:butt;stroke-linejoin:miter;stroke-opacity:1"
       d="m 4.8984375,-23.869141 a 1.1667214,1.1667214 0 0 0 -0.9550781,1.833985 l 3,4.291015 -3.0722656,4.367188 a 1.1667214,1.1667214 0 0 0 0.953125,1.837891 l 2.8476562,0 a 1.1667214,1.1667214 0 0 0 0.9707031,-0.519532 l 1.2148438,-1.822265 1.1875001,1.814453 a 1.1667214,1.1667214 0 0 0 0.976562,0.527344 l 2.980469,0 a 1.1667214,1.1667214 0 0 0 0.71875,-0.248047 1.1667214,1.1667214 0 0 0 0.71875,0.248047 l 2.429688,0 a 1.1667214,1.1667214 0 0 0 1.166015,-1.166016 l 0,-1.410156 a 1.1667214,1.1667214 0 0 0 0.6875,0.224609 l 1.779297,0 a 1.1667214,1.1667214 0 0 0 0.6875,-0.224609 l 0,1.410156 a 1.1667214,1.1667214 0 0 0 1.166016,1.166016 l 2.564453,0 a 1.1667214,1.1667214 0 0 0 1.166016,-1.166016 l 0,-9.998047 a 1.1667214,1.1667214 0 0 0 -1.166016,-1.166016 l -2.994141,0 a 1.1667214,1.1667214 0 0 0 -1.064453,0.689453 l -1.179687,2.638672 -1.183594,-2.638672 a 1.1667214,1.1667214 0 0 0 -1.064453,-0.689453 l -2.994141,0 a 1.1667214,1.1667214 0 0 0 -0.746094,0.267579 1.1667214,1.1667214 0 0 0 -0.74414,-0.267579 l -2.853516,0 a 1.1667214,1.1667214 0 0 0 -0.960937,0.50586 l -1.166016,1.695312 -1.125,-1.683593 a 1.1667214,1.1667214 0 0 0 -0.9707031,-0.517579 l -2.9746094,0 z m 24.5664065,0 a 1.1667214,1.1667214 0 0 0 -1.166016,1.166016 l 0,9.998047 a 1.1667214,1.1667214 0 0 0 1.166016,1.166016 l 7.210937,0 a 1.1667214,1.1667214 0 0 0 1.166016,-1.166016 l 0,-1.933594 a 1.1667214,1.1667214 0 0 0 -1.166016,-1.166016 l -3.466797,0 0,-6.898437 a 1.1667214,1.1667214 0 0 0 -1.166015,-1.166016 l -2.578125,0 z m -14.191406,2.712891 0,6.791016 -2.390626,-3.462891 2.390626,-3.328125 z"
       id="path4348" /><g
       style="font-style:normal;font-weight:normal;font-size:13.75px;line-height:125%;font-family:sans-serif;letter-spacing:0px;word-spacing:0px;fill:#000000;fill-opacity:1;stroke:none;stroke-width:1px;stroke-linecap:butt;stroke-linejoin:miter;stroke-opacity:1"
       id="text4183"><path
         d="m 15.002457,-12.705882 -2.980957,0 -2.1551513,-3.289795 -2.1954345,3.289795 -2.8466797,0 3.5449219,-5.0354 -3.4710694,-4.961548 2.9742432,0 2.0812988,3.115234 2.141724,-3.115234 2.853393,0 -3.491211,4.86084 3.544922,5.136108 z"
         style="font-weight:bold"
         id="path4157" /><path
         d="m 26.919571,-12.705882 -2.564697,0 0,-6.693726 -1.853027,4.343872 -1.779175,0 -1.853027,-4.343872 0,6.693726 -2.43042,0 0,-9.996948 2.994384,0 2.249146,5.015258 2.242432,-5.015258 2.994384,0 0,9.996948 z"
         style="font-weight:bold"
         id="path4159" /><path
         d="m 36.67482,-12.705882 -7.210693,0 0,-9.996948 2.578125,0 0,8.063354 4.632568,0 0,1.933594 z"
         style="font-weight:bold"
         id="path4161" /></g></g></svg>