<?xml version="1.0" encoding="UTF-8" standalone="no"?>
<!-- Generator: Adobe Illustrator 14.0.0, SVG Export Plug-In . SVG Version: 6.00 Build 43363)  -->

<svg
   xmlns:dc="http://purl.org/dc/elements/1.1/"
   xmlns:cc="http://creativecommons.org/ns#"
   xmlns:rdf="http://www.w3.org/1999/02/22-rdf-syntax-ns#"
   xmlns:svg="http://www.w3.org/2000/svg"
   xmlns="http://www.w3.org/2000/svg"
   xmlns:sodipodi="http://sodipodi.sourceforge.net/DTD/sodipodi-0.dtd"
   xmlns:inkscape="http://www.inkscape.org/namespaces/inkscape"
   version="1.1"
   id="Layer_1"
   x="0px"
   y="0px"
   width="32px"
   height="32px"
   viewBox="0 0 32 32"
   enable-background="new 0 0 32 32"
   xml:space="preserve"
   inkscape:version="0.91 r13725"
   sodipodi:docname="addColumn.svg"><metadata
     id="metadata35"><rdf:RDF><cc:Work
         rdf:about=""><dc:format>image/svg+xml</dc:format><dc:type
           rdf:resource="http://purl.org/dc/dcmitype/StillImage" /><dc:title></dc:title></cc:Work></rdf:RDF></metadata><defs
     id="defs33"><linearGradient
       id="path4903-3_1_"
       gradientUnits="userSpaceOnUse"
       x1="-765.71881"
       y1="-1027.3315"
       x2="-745.46832"
       y2="-1027.3315"
       gradientTransform="matrix(0,-1,-1,0,-1022.2917,-739.28278)"><stop
         offset="0"
         style="stop-color:#B2D78E"
         id="stop6" /><stop
         offset="1"
         style="stop-color:#1F9045"
         id="stop8-5" /></linearGradient></defs><sodipodi:namedview
     pagecolor="#ffffff"
     bordercolor="#666666"
     borderopacity="1"
     objecttolerance="10"
     gridtolerance="10"
     guidetolerance="10"
     inkscape:pageopacity="0"
     inkscape:pageshadow="2"
     inkscape:window-width="1130"
     inkscape:window-height="720"
     id="namedview31"
     showgrid="false"
     inkscape:zoom="7.375"
     inkscape:cx="4.6893932"
     inkscape:cy="14.153876"
     inkscape:window-x="717"
     inkscape:window-y="96"
     inkscape:window-maximized="0"
     inkscape:current-layer="g3482" /><linearGradient
     id="SVGID_1_"
     gradientUnits="userSpaceOnUse"
     x1="564.3359"
     y1="815.3359"
     x2="594.2422"
     y2="815.3359"
     gradientTransform="translate(-563.0801,-808.6797)"><stop
       offset="0"
       style="stop-color:#B0D0DA"
       id="stop8" /><stop
       offset="1"
       style="stop-color:#0C7C9E"
       id="stop10" /></linearGradient><linearGradient
     id="SVGID_2_"
     gradientUnits="userSpaceOnUse"
     x1="574"
     y1="828.0352"
     x2="584.6445"
     y2="828.0352"
     gradientTransform="translate(-563.0801,-808.6797)"><stop
       offset="0"
       style="stop-color:#AED58A"
       id="stop15" /><stop
       offset="1"
       style="stop-color:#1E9046"
       id="stop17" /></linearGradient><g
     id="g3364"
     transform="translate(-41.368592,3.8917275)"><linearGradient
       gradientTransform="matrix(1,0,0,-1,-281.54,-371.8398)"
       y2="-375.87299"
       x2="308.89359"
       y1="-375.87299"
       x1="282.4512"
       gradientUnits="userSpaceOnUse"
       id="SVGID_1_-1"><stop
         id="stop3371"
         style="stop-color:#B1D2DB"
         offset="0" /><stop
         id="stop3373"
         style="stop-color:#0C7C9E"
         offset="1" /></linearGradient><linearGradient
       gradientTransform="matrix(1,0,0,-1,-281.54,-371.8398)"
       y2="-387.33109"
       x2="308.89359"
       y1="-387.33109"
       x1="282.4512"
       gradientUnits="userSpaceOnUse"
       id="SVGID_2_-8"><stop
         id="stop3378"
         style="stop-color:#F59699"
         offset="0" /><stop
         id="stop3380"
         style="stop-color:#8F1A1D"
         offset="1" /></linearGradient><linearGradient
       gradientTransform="matrix(1,0,0,-1,-281.54,-371.8398)"
       y2="-395.8223"
       x2="311.77341"
       y1="-395.8223"
       x1="299.27539"
       gradientUnits="userSpaceOnUse"
       id="SVGID_3_"><stop
         id="stop3399"
         style="stop-color:#F59699"
         offset="0" /><stop
         id="stop3401"
         style="stop-color:#8F1A1D"
         offset="1" /></linearGradient><g
       id="g3482"><g
         transform="matrix(0.88415987,0,0,1,41.392687,-3.8917275)"
         id="g3433"
         style=""><g
           transform="matrix(1,0,0,0.88408909,-0.23525158,-1.8509053)"
           id="g3460"><path
             inkscape:connector-curvature="0"
             id="path3"
             d="m 1.255,29.557 c -0.577,0 -1.047,-0.471 -1.047,-1.047 l 0,-25.381 c 0,-0.578 0.47,-1.049 1.047,-1.049 l 29.907,0 c 0.578,0 1.047,0.469 1.047,1.049 l 0,25.381 c 0,0.576 -0.469,1.048 -1.047,1.048 l -29.907,-0.001 0,0 z" /><rect
             style="fill:#daebf2"
             id="rect5"
             height="25.381001"
             width="29.907"
             y="3.1289999"
             x="1.255" /><rect
             style="fill:url(#SVGID_1_)"
             id="rect12"
             height="7.0549998"
             width="29.907"
             y="3.1289999"
             x="1.255" /><rect
             style="fill:url(#SVGID_2_)"
             id="rect19"
             height="18.309999"
             width="10.644"
             y="10.2"
             x="10.92" /><line
             style="fill:none;stroke:#000000"
             id="line21"
             y2="10.184"
             x2="31.162001"
             y1="10.184"
             x1="1.255" /><line
             style="fill:none;stroke:#000000"
             id="line23"
             y2="16.219"
             x2="31.162001"
             y1="16.219"
             x1="1.255" /><line
             style="fill:none;stroke:#000000"
             id="line25"
             y2="22.851999"
             x2="31.162001"
             y1="22.851999"
             x1="1.255" /><line
             style="fill:none;stroke:#000000"
             id="line27"
             y2="28.525"
             x2="10.92"
             y1="10.2"
             x1="10.92" /><line
             style="fill:none;stroke:#000000"
             id="line29"
             y2="28.561001"
             x2="21.563999"
             y1="10.234"
             x1="21.563999" /></g></g><g
         id="g3555"
         transform="matrix(0.65087251,0,0,0.64932892,62.078458,9.4821384)"><g
           id="g3560"><path
             inkscape:connector-curvature="0"
             style="fill:#010101"
             id="path4992"
             d="m 1.2776089,3.9381184 c -0.033,0.009 -0.064,0.019 -0.094,0.03 0.004,0 -0.098,0.033 -0.094,0.031 0.002,0 -0.12899995,0.033 -0.12499995,0.031 0.002,0 -0.098,0.064 -0.094,0.063 0.002,0 -0.098,0.064 -0.094,0.062 0.002,0 -0.098,0.065 -0.094,0.062 0.002,0 -0.098,0.065 -0.094,0.063 0.002,0 -0.098,0.098 -0.094,0.094 0.002,0 -0.066,0.098 -0.063,0.094 0.002,0 -0.064,0.098 -0.063,0.095 0.002,0 -0.064,0.097 -0.063,0.094 0,0 -0.064,0.129 -0.063,0.125 0,0 -0.033,0.097 -0.031,0.095 0,0 -0.033,0.128 -0.031,0.125 0,0 -0.033,0.128 -0.031,0.125 0,0 0,0.097 0,0.094 0,0 0,0.061 0,0.094 0,0.011 0,0.031 0,0.031 l 0,6.0939996 -6.09100005,0 c 10e-4,0 -0.013,0 -0.031,0 -0.019,-10e-4 -0.032,0 -0.031,0 0.002,0 -0.065,0 -0.063,0 -0.011,0 -0.021,0 -0.031,0 0.002,0 -0.064,0 -0.063,0 0.001,0 -0.064,0.031 -0.063,0.031 0.002,-0.001 -0.064,0 -0.063,0 0.002,-0.001 -0.064,0.031 -0.063,0.03 0.001,-10e-4 -0.064,10e-4 -0.063,0 10e-4,-10e-4 -0.062,0.03 -0.06,0.029 0.002,-10e-4 -0.064,0.032 -0.063,0.03 0.002,0 -0.064,0.033 -0.063,0.031 0.002,0 -0.064,0.032 -0.063,0.031 0.002,0 -0.033,0.032 -0.031,0.031 0.002,0 -0.064,0.031 -0.063,0.031 10e-4,0 -0.064,0.033 -0.063,0.031 0.002,0 -0.033,0.032 -0.031,0.03 0.002,0 -0.064,0.063 -0.063,0.062 0.002,0 -0.033,0.033 -0.031,0.031 0.002,0 -0.064,0.033 -0.063,0.031 0.002,0 -0.033,0.064 -0.031,0.063 0.002,0 -0.033,0.063 -0.031,0.063 0.001,0 -0.032,0.033 -0.031,0.031 0.001,0 -0.063,0.064 -0.063,0.063 10e-4,0 -0.032,0.063 -0.031,0.062 0.001,0 -0.032,0.063 -0.031,0.062 0.001,0 -0.001,0.033 0,0.031 0.001,0 -0.031,0.064 -0.031,0.063 0,0 -0.031,0.064 -0.031,0.063 0,0 0,0.064 0,0.063 0,0 -0.031,0.064 -0.031,0.063 0,0 0,0.064 0,0.063 0,0 -0.031,0.064 -0.031,0.063 0,0 0,0.064 0,0.063 0,0 0,0.064 0,0.063 0,0 0,0.064 0,0.063 l 0,7.000001 c 0,0 0,0.064 0,0.063 0,0 0,0.064 0,0.063 0,0 0,0.064 0,0.063 0,0 0.031,0.064 0.031,0.063 0,0 0,0.064 0,0.063 0,0 0.031,0.096 0.031,0.094 0,0 0.031,0.064 0.031,0.063 0,0 10e-4,0.064 0,0.063 -0.001,0 0.032,0.063 0.031,0.061 -0.001,0 0.032,0.064 0.031,0.063 -10e-4,0 0.032,0.064 0.031,0.063 -0.001,0 0.032,0.033 0.031,0.031 -0.001,0 0.064,0.063 0.063,0.063 -10e-4,0 0.033,0.064 0.031,0.063 -0.002,0 0.033,0.063 0.031,0.063 -0.002,0 0.064,0.033 0.063,0.031 -0.002,0 0.033,0.064 0.031,0.063 -0.002,0 0.064,0.031 0.063,0.029 -0.002,0 0.064,0.033 0.063,0.031 -0.002,0 0.064,0.064 0.063,0.063 -0.002,0 0.033,0.031 0.031,0.031 -0.002,0 0.064,0.031 0.063,0.031 -0.002,-0.002 0.064,0.031 0.063,0.031 -0.002,-0.002 0.064,0.031 0.063,0.031 -0.002,-0.002 0.064,0 0.063,0 -0.002,-0.002 0.064,0.031 0.063,0.029 -0.002,0 0.096,0.033 0.094,0.031 -0.002,0 0.064,0 0.063,0 -0.003,0 0.064,0.033 0.063,0.031 -0.003,0 0.064,0 0.063,0 -0.003,0 0.064,0 0.063,0 -0.003,0 0.064,0 0.063,0 l 6.12500005,0 0,6.094 0,0.031 c -0.002,0.018 0,0.031 0,0.031 0,0 0,0.064 0,0.063 0,0.01 0,0.02 0,0.031 0,0 0,0.064 0,0.063 -0.002,0 0.031,0.064 0.031,0.063 -0.002,0 0,0.064 0,0.063 -0.002,0 0.031,0.064 0.031,0.063 -0.002,0 0,0.064 0,0.063 -0.002,0 0.031,0.064 0.031,0.063 -0.002,0 0.031,0.063 0.031,0.063 -0.002,0 0.031,0.064 0.031,0.063 -0.002,0 0.031,0.063 0.031,0.063 -0.002,0 0.031,0.033 0.031,0.031 -0.002,0 0.031,0.063 0.031,0.061 -0.002,0 0.031,0.064 0.031,0.063 -0.002,0 0.031,0.033 0.031,0.031 -0.002,0 0.063,0.064 0.063,0.063 -0.002,0 0.031,0.033 0.031,0.031 -0.002,0 0.031,0.064 0.031,0.063 -0.002,0 0.063,0.033 0.063,0.031 -0.002,0 0.063,0.031 0.063,0.031 -0.002,0 0.031,0.031 0.031,0.031 -0.002,0 0.064,0.063 0.063,0.063 -0.001,0 0.064,0.031 0.063,0.031 -0.002,-0.002 0.064,0.031 0.063,0.031 -0.002,-0.002 0.033,0 0.031,0 -0.002,-0.002 0.0640001,0.031 0.0629999,0.029 -0.002,0 0.064,0.033 0.063,0.031 -0.002,0 0.064,0.002 0.063,0 -0.002,0 0.064,0.033 0.063,0.031 -0.002,0 0.064,0 0.063,0 -10e-4,0 0.064,0.033 0.063,0.031 -0.002,0 0.064,0 0.063,0 -0.001,0 0.064,0 0.063,0 -10e-4,0 0.064,0 0.063,0 l 7,0 c -0.004,0 0.064,0 0.063,0 -0.004,0 0.064,0 0.063,0 -0.004,0 0.064,0 0.063,0 -0.004,0 0.064,-0.031 0.063,-0.031 -0.004,0 0.064,0 0.063,0 -10e-4,0 0.096,-0.031 0.094,-0.031 -0.002,0.002 0.064,-0.031 0.063,-0.031 -0.002,0.002 0.064,0 0.063,0 -0.002,0.002 0.064,-0.031 0.063,-0.029 -0.002,0 0.064,-0.033 0.063,-0.031 -0.002,0 0.064,-0.033 0.063,-0.031 -0.002,0 0.033,-0.033 0.031,-0.031 -0.002,0 0.064,-0.064 0.063,-0.063 -0.002,0 0.063,-0.033 0.063,-0.031 -0.002,0 0.063,-0.033 0.063,-0.031 -0.002,0 0.031,-0.063 0.031,-0.061 -0.002,0 0.063,-0.033 0.063,-0.031 -0.002,0 0.031,-0.064 0.031,-0.063 -0.002,0 0.031,-0.064 0.031,-0.063 -0.002,0 0.063,-0.064 0.063,-0.063 -0.002,0 0.031,-0.033 0.031,-0.031 -0.002,0 0.031,-0.064 0.031,-0.063 -0.002,0 0.031,-0.064 0.031,-0.063 -0.002,0 0.031,-0.064 0.031,-0.063 -0.002,0 0,-0.064 0,-0.061 -0.002,0 0.031,-0.066 0.031,-0.063 -0.002,0 0.031,-0.096 0.031,-0.094 -0.002,0 0,-0.064 0,-0.063 -0.002,0 0.031,-0.066 0.031,-0.063 -0.002,0 0,-0.064 0,-0.063 0,0 0,-0.066 0,-0.063 0,0 0,-0.064 0,-0.063 l 0,-6.125 6.1120001,0 c -0.004,0 0.064,0 0.063,0 -0.004,0 0.064,-0.002 0.063,0 -0.004,0 0.064,-0.002 0.063,0 -0.004,0 0.064,-0.033 0.063,-0.031 -0.004,0 0.064,-0.002 0.063,0 -0.002,0 0.096,-0.033 0.094,-0.031 -0.002,0 0.064,-0.033 0.063,-0.031 -0.002,0 0.064,-0.002 0.063,0 -0.002,0 0.064,-0.031 0.063,-0.031 -0.001,0 0.064,-0.031 0.063,-0.031 -0.002,0.002 0.064,-0.031 0.063,-0.031 -10e-4,0 0.033,-0.033 0.031,-0.031 -0.002,0 0.064,-0.063 0.063,-0.061 -0.002,0 0.063,-0.033 0.063,-0.031 -0.002,0 0.063,-0.033 0.063,-0.031 -0.002,0 0.031,-0.064 0.031,-0.063 -0.002,0 0.063,-0.033 0.063,-0.031 -0.002,0 0.031,-0.063 0.031,-0.063 -0.002,0 0.031,-0.064 0.031,-0.063 -0.002,0 0.063,-0.063 0.063,-0.063 -0.002,0 0.031,-0.033 0.031,-0.031 -0.002,0 0.031,-0.064 0.031,-0.063 -0.002,0 0.031,-0.063 0.031,-0.061 -0.002,0 0.031,-0.064 0.031,-0.063 -0.002,0 0,-0.064 0,-0.063 -0.002,0 0.031,-0.064 0.031,-0.063 -0.002,0 0.031,-0.096 0.031,-0.094 -0.002,0 0,-0.064 0,-0.063 -0.002,0 0.031,-0.064 0.031,-0.063 -0.002,0 0,-0.064 0,-0.063 0,0 0,-0.064 0,-0.063 0,0 0,-0.064 0,-0.063 l 0,-7 c 0,0 0,-0.064 0,-0.062 0,0 0,-0.065 0,-0.063 0,0 -0.002,-0.064 0,-0.062 0,0 -0.033,-0.065 -0.031,-0.063 0,0 -0.002,-0.064 0,-0.062 0,0 -0.033,-0.097 -0.031,-0.095 0,0 -0.033,-0.064 -0.031,-0.062 0,0 -0.002,-0.063 0,-0.062 0,0 -0.033,-0.064 -0.031,-0.063 0,0 -0.033,-0.064 -0.031,-0.063 0,0 -0.033,-0.063 -0.031,-0.062 0,0 -0.033,-0.032 -0.031,-0.03 0,0 -0.064,-0.064 -0.063,-0.063 0,0 -0.033,-0.064 -0.031,-0.063 0,0 -0.033,-0.064 -0.031,-0.063 0,0 -0.064,-0.033 -0.063,-0.031 0,0 -0.033,-0.064 -0.031,-0.063 0,0 -0.064,-0.032 -0.063,-0.03 0,0 -0.064,-0.033 -0.063,-0.031 0.002,0 -0.064,-0.063 -0.063,-0.062 0.002,0 -0.033,-0.032 -0.031,-0.031 0.002,0 -0.064,-0.032 -0.063,-0.031 0.001,10e-4 -0.064,-0.031 -0.063,-0.031 10e-4,0 -0.064,-0.031 -0.063,-0.031 0.002,0.002 -0.064,0 -0.063,0 0.002,0.002 -0.064,-0.031 -0.063,-0.03 10e-4,0.001 -0.096,-0.032 -0.094,-0.031 0.002,10e-4 -0.064,0 -0.063,0 0.002,10e-4 -0.064,-0.032 -0.063,-0.03 0.002,0 -0.064,-10e-4 -0.063,0 0.002,0 -0.066,0 -0.063,0 0.002,0 -0.066,0 -0.063,0 l -6.1250001,0 0,-6.1259996 c 0,0 0,-0.065 0,-0.063 0,0 0,-0.064 0,-0.063 0,0 -0.002,-0.065 0,-0.063 0,0 -0.033,-0.064 -0.031,-0.063 0,0 -0.002,-0.065 0,-0.063 0,0 -0.033,-0.096 -0.031,-0.094 0,0 -0.033,-0.065 -0.031,-0.063 0,0 -0.002,-0.064 0,-0.063 0,0 -0.033,-0.063 -0.031,-0.062 0,0 -0.033,-0.063 -0.031,-0.062 0,0 -0.033,-0.064 -0.031,-0.063 0,0 -0.033,-0.033 -0.031,-0.031 0,0 -0.064,-0.063 -0.063,-0.062 0,0 -0.033,-0.063 -0.031,-0.063 0,0 -0.033,-0.063 -0.031,-0.062 0,0 -0.064,-0.033 -0.063,-0.031 0,0 -0.033,-0.063 -0.031,-0.062 0,0 -0.064,-0.033 -0.063,-0.031 0,0 -0.064,-0.033 -0.063,-0.031 0.002,0 -0.064,-0.064 -0.063,-0.063 0.002,0 -0.033,-0.031 -0.031,-0.03 0.002,0 -0.064,-0.032 -0.063,-0.031 0.001,0.001 -0.064,-0.032 -0.063,-0.03 0.002,0 -0.064,-0.033 -0.063,-0.031 0.002,0 -0.064,-10e-4 -0.063,0 0.002,0 -0.064,-0.032 -0.063,-0.031 0.002,0 -0.096,-0.032 -0.094,-0.031 0.002,0 -0.064,0 -0.063,0 10e-4,0 -0.061,-0.027 -0.059,-0.027 0.002,0 -0.066,0 -0.063,0 0.002,0 -0.066,0 -0.063,0 0.002,0 -0.066,0 -0.063,0 l -6.938,0 c 0.002,0 -0.066,0 -0.063,0 0.002,0 -0.066,0 -0.063,0 0,0 -0.014,0 -0.031,0 0,0 -0.021,0 -0.031,0 0.002,0 -0.066,0 -0.063,0 -0.021,0 -0.043,0 -0.063,0 l 0,-0.007 z" /><path
             inkscape:connector-curvature="0"
             style="fill:#6bbe45"
             id="rect4855-4"
             d="m 1.5396089,5.3101184 0,7.4999996 -7.499,0 0,7 7.499,0 0,7.5 7,0 0,-7.5 7.5000001,0 0,-7 -7.5000001,0 0,-7.4999996 -7,0 z" /><path
             inkscape:connector-curvature="0"
             style="fill:url(#path4903-3_1_)"
             id="path4903-3"
             d="m 2.4146089,6.1851184 0,7.4999996 -7.499,0 0,5.25 7.499,0 0,7.5 5.25,0 0,-7.5 7.5000001,0 0,-5.25 -7.5000001,0 0,-7.4999996 -5.25,0 z" /></g></g></g></g></svg>