<?xml version="1.0" encoding="utf-8"?>
<!-- Generator: Adobe Illustrator 15.0.0, SVG Export Plug-In . SVG Version: 6.00 Build 0)  -->
<!DOCTYPE svg PUBLIC "-//W3C//DTD SVG 1.1//EN" "http://www.w3.org/Graphics/SVG/1.1/DTD/svg11.dtd">
<svg version="1.1" id="Layer_1" xmlns="http://www.w3.org/2000/svg" xmlns:xlink="http://www.w3.org/1999/xlink" x="0px" y="0px"
	 width="32px" height="32px" viewBox="0 0 32 32" enable-background="new 0 0 32 32" xml:space="preserve">
<g>
	<g>
		<path id="path5_12_" d="M31.756,17.525c-0.363-0.629-1.072-0.991-1.947-0.991h-5.365v-0.486c0-1.711-1.394-3.104-3.104-3.104
			h-9.043l-0.117-0.219c-0.432-0.809-1.021-1.914-2.521-1.914h-3.03c-1.542,0-2.146,1.121-2.668,2.09l-0.022,0.043H3.104
			C1.393,12.945,0,14.336,0,16.048v12.821C0,30.596,1.393,32,3.104,32H3.43h17.908h0.674c1.43,0,3.047-0.932,3.764-2.168
			l5.861-10.125C32.075,18.949,32.118,18.154,31.756,17.525z"/>
		<path id="rect5504_10_" fill="#A4A4A4" d="M6.628,11.812c-0.974,0-1.329,0.715-1.791,1.571l-0.31,0.562H3.104
			C1.934,13.945,1,14.876,1,16.048v12.821C1,30.041,1.934,31,3.104,31h18.234c1.171,0,2.104-0.959,2.104-2.131V16.048
			c0-1.172-0.933-2.104-2.104-2.104h-9.635l-0.309-0.562c-0.463-0.856-0.767-1.571-1.738-1.571H8.814H7.471L6.628,11.812
			L6.628,11.812z"/>
		<path id="path10819_17_" d="M8.109,27.992c-0.168,0-0.334-0.021-0.492-0.07c-0.237-0.031-0.469-0.113-0.678-0.238
			c-1.82-1.105-1.752-3.553-1.728-4.354c0.05-1.979,0.603-4.447,1.185-7.057c0.677-3.01,1.373-6.113,1.41-8.86
			c-0.035,0-0.068,0-0.104,0c-0.387,0-0.852,0.042-1.346,0.122C6.264,7.549,6.171,7.556,6.078,7.556
			c-0.711,0-1.363-0.431-1.633-1.105C4.102,5.589,3.684,4.357,3.646,3.359C3.602,2.207,4.473,0.294,5.887,0.03
			C5.993,0.008,6.102,0,6.21,0c0.063,0,0.126,0.003,0.188,0.01c0.363,0.033,7.547,0.522,11.767,0.522
			c1.088,0,1.701-0.034,2.022-0.064c0.1-0.008,0.203-0.014,0.311-0.014c1.127,0,2.283,0.555,3.254,1.563
			c1.604,1.672,2.5,4.332,2.391,7.109c-0.041,1.209-0.271,2.438-0.674,3.643c-0.936,2.781-1.398,4.92-1.418,6.53
			c0,0.041,0,0.084,0,0.125c0.746-0.029,1.449-0.055,1.969-0.055l0.201,0.002c0.449,0.008,0.877,0.188,1.199,0.496
			c0.926,0.898,1.08,2.844,0.824,4.379c-0.357,2.145-1.438,3.475-2.816,3.475c-0.166,0-0.336-0.02-0.5-0.059
			c-1.029-0.238-2.625-0.359-4.74-0.359c-1.961,0-4.291,0.102-7.129,0.307c-1.793,0.207-3.385,0.336-4.416,0.354l-0.418,0.029
			C8.186,27.992,8.148,27.992,8.109,27.992L8.109,27.992z"/>
		<path id="path3443_22_" fill="#03ADDB" d="M9.096,6.786c0.157-1.749-0.607-4.925-2.779-5.83C5.174,0.478,4.488,2.368,4.523,3.318
			C4.58,4.72,5.549,6.784,5.549,6.784S8.036,6.204,9.096,6.786z"/>
		
			<linearGradient id="path10849_1_" gradientUnits="userSpaceOnUse" x1="1128.8594" y1="-1712.0596" x2="1130.9609" y2="-1710.2073" gradientTransform="matrix(1 0 0 -1 -1123.9404 -1706.4395)">
			<stop  offset="0" style="stop-color:#B2D3DC"/>
			<stop  offset="1" style="stop-color:#157DA0"/>
		</linearGradient>
		<path id="path10849_18_" fill="url(#path10849_1_)" d="M6.08,5.789C5.791,5.068,5.436,4.017,5.406,3.284
			c-0.023-0.601,0.362-1.442,0.578-1.53c1.334,0.57,2.056,2.396,2.22,3.911c-0.159-0.012-0.322-0.02-0.498-0.02
			C7.12,5.644,6.525,5.717,6.08,5.789L6.08,5.789z"/>
		<path id="path3445_22_" fill="#03ADDB" d="M24.635,12.441c-3.746,11.188,0.867,9.875,0.951,11.055
			c0.133,1.877-17.051,4.01-18.078,3.453c-5.063-2.75,5.561-20.154-1.072-26.071C8.581,1,17.061,1.625,20.268,1.337
			C23.281,1.068,26.717,6.215,24.635,12.441z"/>
		
			<linearGradient id="path10830_1_" gradientUnits="userSpaceOnUse" x1="1139.623" y1="-1709.1074" x2="1139.623" y2="-1730.6307" gradientTransform="matrix(1 0 0 -1 -1123.9404 -1706.4395)">
			<stop  offset="0" style="stop-color:#B2D3DC"/>
			<stop  offset="1" style="stop-color:#157DA0"/>
		</linearGradient>
		<path id="path10830_18_" fill="url(#path10830_1_)" d="M8.393,26.195c-0.309,0-0.466-0.014-0.533-0.021
			c-1.637-1.018-0.674-5.316,0.258-9.479c1.165-5.199,2.466-10.996,0.26-14.773c2.589,0.162,6.729,0.41,9.667,0.41l0,0
			c0.947,0,1.727-0.027,2.305-0.078c0.049-0.005,0.103-0.008,0.149-0.008c0.819,0,1.744,0.604,2.476,1.615
			c1.192,1.658,2.036,4.719,0.827,8.34c-2.641,7.889-1.377,10.208,0.515,11.372C21.855,24.717,12.032,26.195,8.393,26.195
			L8.393,26.195z"/>
		<path id="path27_2_" fill="#010101" d="M7.98,27.998c-0.416,0-0.78-0.297-0.862-0.711c-0.082-0.422,0.153-0.846,0.559-0.994
			c0.81-0.301,1.054-1.209,1.114-1.918c0.145-1.678-0.573-3.211-0.915-3.41c-0.373-0.217-0.533-0.67-0.381-1.07
			c0.13-0.35,0.461-0.566,0.823-0.566c0.055,0,0.111,0.004,0.17,0.016c1.363,0.271,3.382,0.408,5.998,0.408l0,0
			c2.665,0,5.506-0.141,7.792-0.248c1.543-0.072,2.877-0.137,3.727-0.137c0.166,0,0.313,0.002,0.445,0.006
			c0.088,0.004,0.17,0.021,0.252,0.047c1.521,0.521,1.867,2.865,1.545,4.82c-0.357,2.145-1.438,3.477-2.818,3.477
			c-0.162,0-0.33-0.021-0.496-0.059c-1.031-0.234-2.629-0.355-4.746-0.355c-3.75,0-8.179,0.375-10.558,0.576
			C8.818,27.943,8.246,27.99,8.012,28C8.003,27.998,7.992,27.998,7.98,27.998L7.98,27.998z"/>
		<path id="path3447_22_" fill="#03ADDB" d="M26.414,20.25c1.854,0.635,1.188,7.115-1.289,6.549
			c-4.336-0.998-15.871,0.277-17.145,0.32c2.729-1.01,1.684-6.133,0.338-6.914C13.249,21.184,23.871,20.148,26.414,20.25z"/>
		
			<linearGradient id="path10840_1_" gradientUnits="userSpaceOnUse" x1="1142.293" y1="-1728.1602" x2="1142.293" y2="-1731.9691" gradientTransform="matrix(1 0 0 -1 -1123.9404 -1706.4395)">
			<stop  offset="0" style="stop-color:#B2D3DC"/>
			<stop  offset="1" style="stop-color:#157DA0"/>
		</linearGradient>
		<path id="path10840_18_" fill="url(#path10840_1_)" d="M10.189,26.057c0.187-0.449,0.309-0.963,0.355-1.531
			c0.087-1.004-0.072-2.188-0.434-3.186c1.209,0.113,2.658,0.168,4.375,0.168c2.708,0,5.582-0.139,7.892-0.252
			c1.52-0.07,2.828-0.135,3.631-0.135c0.063,0,0.125,0,0.186,0.004c0.242,0.236,0.563,1.34,0.313,2.818
			c-0.211,1.258-0.719,2.006-1.084,2.006l0,0c-0.028,0-0.063-0.004-0.104-0.012c-1.176-0.271-2.854-0.404-5.137-0.404
			C16.711,25.535,12.697,25.85,10.189,26.057L10.189,26.057z"/>
		<path id="path36_6_" d="M3.432,32c-0.877,0-1.586-0.361-1.949-0.99c-0.362-0.631-0.318-1.424,0.121-2.18l5.859-10.127
			c0.715-1.236,2.333-2.168,3.762-2.168h18.582c0.875,0,1.586,0.359,1.948,0.988s0.319,1.425-0.118,2.183l-5.861,10.127
			C25.059,31.068,23.439,32,22.014,32H3.432z"/>
		<path id="rect5498_10_" fill="#FBFBFB" d="M11.227,17.535h18.582c1.065,0,1.496,0.748,0.963,1.67L24.91,29.332
			C24.376,30.252,23.079,31,22.014,31H3.432c-1.066,0-1.498-0.748-0.964-1.668l5.861-10.127
			C8.861,18.283,10.16,17.535,11.227,17.535z"/>
		
			<linearGradient id="path46_1_" gradientUnits="userSpaceOnUse" x1="845.6602" y1="1926.8672" x2="872.3789" y2="1926.8672" gradientTransform="matrix(1 0 0 1 -842.4004 -1902.5996)">
			<stop  offset="0" style="stop-color:#A5A5A5"/>
			<stop  offset="0.5394" style="stop-color:#FBFBFB"/>
			<stop  offset="1" style="stop-color:#FFFFFF"/>
		</linearGradient>
		<path id="path46_2_" fill="url(#path46_1_)" d="M3.432,30c-0.072,0-0.13-0.006-0.172-0.014c0.016-0.039,0.037-0.092,0.073-0.152
			l5.86-10.127c0.355-0.613,1.322-1.172,2.031-1.172h18.583c0.071,0,0.129,0.008,0.172,0.016c-0.016,0.039-0.037,0.092-0.074,0.154
			L24.045,28.83C23.689,29.443,22.721,30,22.014,30H3.432z"/>
	</g>
</g>
</svg>
