<?xml version="1.0" encoding="utf-8"?>
<!-- Generator: Adobe Illustrator 14.0.0, SVG Export Plug-In . SVG Version: 6.00 Build 43363)  -->
<!DOCTYPE svg PUBLIC "-//W3C//DTD SVG 1.1//EN" "http://www.w3.org/Graphics/SVG/1.1/DTD/svg11.dtd">
<svg version="1.1" id="Layer_1" xmlns="http://www.w3.org/2000/svg" xmlns:xlink="http://www.w3.org/1999/xlink" x="0px" y="0px"
	 width="32px" height="32px" viewBox="0 0 32 32" enable-background="new 0 0 32 32" xml:space="preserve">
<g>
	<path id="path10819_1_" fill="#020202" d="M5.073,31.898c-0.19,0-0.379-0.026-0.559-0.08c-0.271-0.036-0.533-0.129-0.77-0.272
		c-2.069-1.258-1.99-4.035-1.963-4.944c0.057-2.248,0.684-5.05,1.346-8.015c0.767-3.419,1.558-6.947,1.602-10.065
		c-0.039,0-0.078,0-0.119,0c-0.439,0-0.968,0.047-1.529,0.137C2.975,8.675,2.869,8.683,2.765,8.683
		c-0.808,0-1.549-0.488-1.856-1.257C0.519,6.45,0.045,5.051,0.002,3.915c-0.051-1.309,0.939-3.48,2.545-3.781
		C2.668,0.11,2.791,0.101,2.914,0.101c0.072,0,0.144,0.004,0.215,0.012c0.412,0.037,8.572,0.592,13.366,0.592
		c1.235,0,1.933-0.039,2.298-0.072c0.113-0.01,0.23-0.016,0.352-0.016c1.281,0,2.596,0.631,3.697,1.775
		c1.822,1.899,2.84,4.92,2.715,8.076c-0.047,1.372-0.307,2.768-0.766,4.137c-1.061,3.161-1.588,5.588-1.609,7.417
		c0,0.049,0,0.099,0,0.146c0.848-0.035,1.646-0.063,2.236-0.063l0.229,0.002c0.51,0.009,0.996,0.211,1.361,0.563
		c1.051,1.021,1.229,3.229,0.938,4.974c-0.407,2.437-1.635,3.946-3.2,3.946c-0.188,0-0.381-0.022-0.569-0.065
		c-1.168-0.271-2.98-0.407-5.384-0.407c-2.228,0-4.876,0.112-8.101,0.346c-2.039,0.236-3.846,0.384-5.02,0.402L5.2,31.896
		C5.157,31.898,5.116,31.898,5.073,31.898L5.073,31.898z"/>
	<path id="path3443_1_" fill="#03ADDB" d="M6.194,7.808c0.177-1.987-0.692-5.594-3.159-6.623C1.739,0.644,0.959,2.79,1,3.869
		c0.063,1.595,1.164,3.938,1.164,3.938S4.989,7.146,6.194,7.808z"/>
	
		<linearGradient id="path10849_2_" gradientUnits="userSpaceOnUse" x1="564.5283" y1="816.1641" x2="566.9155" y2="814.0601" gradientTransform="matrix(1 0 0 1 -563.0801 -809.6797)">
		<stop  offset="0" style="stop-color:#B2D3DC"/>
		<stop  offset="1" style="stop-color:#117C9F"/>
	</linearGradient>
	<path id="path10849_1_" fill="url(#path10849_2_)" d="M2.767,6.676C2.44,5.858,2.034,4.663,2,3.83
		C1.974,3.149,2.41,2.194,2.658,2.094C4.17,2.74,4.992,4.816,5.178,6.535c-0.18-0.013-0.366-0.021-0.564-0.021
		C3.948,6.513,3.274,6.595,2.767,6.676L2.767,6.676z"/>
	<path d="M5.392,31.814c-0.89,0-1.227-0.086-1.481-0.226C0.615,29.8,1.78,24.604,3.128,18.585c1.417-6.322,3.023-13.488-0.623-16.74
		C2.187,1.562,2.084,1.109,2.246,0.716c0.155-0.375,0.521-0.617,0.923-0.617c0.019,0,0.927,0.055,1.553,0.094
		c2.811,0.179,8.042,0.512,11.629,0.512l0,0c1.021,0,1.844-0.027,2.443-0.081c0.115-0.01,0.231-0.016,0.349-0.016
		c1.601,0,3.217,0.972,4.437,2.666c1.646,2.286,2.828,6.448,1.213,11.277c-3.028,9.049-1.026,10.16-0.065,10.695
		c0.451,0.251,1.137,0.631,1.197,1.475c0.021,0.282-0.039,0.705-0.432,1.127C23.368,30.126,8.821,31.814,5.392,31.814L5.392,31.814z
		"/>
	<path id="path3445_1_" fill="#03ADDB" d="M23.844,14.233c-4.254,12.71,0.984,11.217,1.082,12.559
		c0.15,2.131-19.372,4.554-20.538,3.92C-1.361,27.589,10.705,7.819,3.17,1.099C5.606,1.237,15.24,1.946,18.885,1.62
		C22.309,1.313,26.209,7.162,23.844,14.233z"/>
	
		<linearGradient id="path10830_2_" gradientUnits="userSpaceOnUse" x1="576.7539" y1="812.8105" x2="576.7539" y2="837.2588" gradientTransform="matrix(1 0 0 1 -563.0801 -809.6797)">
		<stop  offset="0" style="stop-color:#B2D3DC"/>
		<stop  offset="1" style="stop-color:#117C9F"/>
	</linearGradient>
	<path id="path10830_1_" fill="url(#path10830_2_)" d="M5.392,29.857c-0.349,0-0.526-0.017-0.604-0.024
		c-1.86-1.156-0.766-6.041,0.293-10.767c1.324-5.907,2.8-12.493,0.296-16.784c2.938,0.185,7.644,0.466,10.981,0.466l0,0
		c1.078,0,1.958-0.03,2.617-0.088c0.057-0.005,0.111-0.009,0.172-0.009c0.932,0,1.98,0.687,2.809,1.834
		c1.357,1.884,2.316,5.36,0.941,9.475c-3,8.961-1.563,11.595,0.584,12.918C20.688,28.177,9.528,29.857,5.392,29.857L5.392,29.857z"
		/>
	<path d="M4.928,31.904c-0.476,0-0.888-0.336-0.981-0.807c-0.094-0.48,0.174-0.962,0.634-1.132c0.921-0.341,1.197-1.37,1.266-2.177
		c0.164-1.907-0.651-3.648-1.039-3.874c-0.423-0.246-0.606-0.763-0.434-1.218C4.523,22.301,4.9,22.05,5.309,22.05
		c0.064,0,0.129,0.007,0.195,0.021c1.548,0.307,3.84,0.463,6.813,0.463h0.001c3.025,0,6.254-0.156,8.85-0.281
		c1.752-0.084,3.266-0.156,4.229-0.156c0.189,0,0.359,0.002,0.508,0.008c0.099,0.004,0.193,0.021,0.285,0.055
		c1.732,0.596,2.123,3.255,1.754,5.475c-0.405,2.438-1.633,3.949-3.199,3.949c-0.188,0-0.377-0.021-0.564-0.064
		c-1.173-0.27-2.986-0.404-5.394-0.404c-4.26,0-9.288,0.426-11.99,0.654c-0.917,0.076-1.567,0.131-1.833,0.141
		C4.951,31.904,4.939,31.904,4.928,31.904L4.928,31.904z"/>
	<path id="path3447_2_" fill="#03ADDB" d="M25.865,23.104c2.105,0.724,1.35,8.082-1.465,7.438
		c-4.924-1.131-18.027,0.315-19.472,0.365c3.098-1.146,1.91-6.968,0.382-7.854C10.91,24.161,22.977,22.989,25.865,23.104z"/>
	
		<linearGradient id="path10840_2_" gradientUnits="userSpaceOnUse" x1="579.79" y1="834.4531" x2="579.79" y2="838.7813" gradientTransform="matrix(1 0 0 1 -563.0801 -809.6797)">
		<stop  offset="0" style="stop-color:#B2D3DC"/>
		<stop  offset="1" style="stop-color:#117C9F"/>
	</linearGradient>
	<path id="path10840_1_" fill="url(#path10840_2_)" d="M7.435,29.7c0.212-0.511,0.349-1.095,0.405-1.74
		c0.098-1.142-0.082-2.487-0.493-3.619c1.374,0.13,3.021,0.191,4.97,0.191c3.079,0,6.341-0.158,8.964-0.285
		c1.725-0.082,3.213-0.154,4.125-0.154c0.072,0,0.143,0,0.207,0.003c0.277,0.271,0.639,1.524,0.357,3.204
		c-0.238,1.429-0.813,2.277-1.23,2.277l0,0c-0.035,0-0.074-0.004-0.117-0.015c-1.336-0.308-3.244-0.457-5.836-0.457
		C14.842,29.107,10.282,29.464,7.435,29.7L7.435,29.7z"/>
</g>
<path fill="#FFFFFF" d="M24.859,22.003c-0.479,0.01-1.043,0.031-1.667,0.058c-0.001-0.098-0.006-0.189-0.004-0.293
	c0.003-0.123,0.009-0.248,0.017-0.377c0.005-0.09,0.011-0.184,0.019-0.279c0.017-0.209,0.038-0.426,0.066-0.648
	c0.003-0.02,0.006-0.039,0.008-0.059c0.21-1.598,0.703-3.543,1.493-5.898c0.041-0.121,0.065-0.243,0.103-0.364l0.007-1.471
	c0-0.535-0.208-1.038-0.581-1.413c-0.033-0.033-0.067-0.065-0.103-0.096l0.009-1.836c0.244-0.19,0.441-0.435,0.574-0.721
	l0.396-0.843c0.065,0.01,0.135,0.029,0.201,0.042c-0.037-0.238-0.08-0.472-0.13-0.7c-0.032-0.148-0.07-0.293-0.107-0.438
	c-0.048-0.186-0.1-0.366-0.155-0.544c-0.046-0.149-0.093-0.297-0.145-0.443c-0.083-0.234-0.172-0.459-0.266-0.678
	c-0.035-0.08-0.068-0.16-0.104-0.239c-0.131-0.287-0.271-0.557-0.417-0.812c-0.015-0.025-0.029-0.05-0.044-0.075
	c-0.146-0.248-0.294-0.485-0.449-0.701c-0.026-0.037-0.056-0.069-0.083-0.105c-0.012-0.017-0.025-0.031-0.037-0.047
	c-0.181-0.239-0.37-0.461-0.566-0.669c-0.018-0.019-0.033-0.042-0.051-0.061c-0.026-0.027-0.055-0.051-0.081-0.077
	c-0.1-0.101-0.199-0.198-0.302-0.29c-0.043-0.038-0.086-0.073-0.13-0.11c-0.543-0.464-1.123-0.811-1.721-1.029
	c-0.012-0.004-0.023-0.009-0.035-0.013c-0.15-0.054-0.302-0.099-0.454-0.136c-0.011-0.003-0.021-0.005-0.032-0.007
	c-0.313-0.074-0.629-0.122-0.944-0.122c-0.117,0-0.233,0.006-0.349,0.016c-0.584,0.053-1.386,0.079-2.372,0.081
	c-0.105,0-0.22-0.001-0.328-0.002c-0.26-0.001-0.528-0.004-0.802-0.008c-0.217-0.003-0.433-0.007-0.656-0.012
	c-0.399-0.009-0.803-0.019-1.219-0.032c-0.001,0-0.001,0-0.002,0c-0.74-0.024-1.5-0.056-2.257-0.09
	c-0.073,0.205-0.121,0.422-0.122,0.652l-0.024,5.533c-0.003,0.535,0.204,1.04,0.585,1.422c0.378,0.378,0.881,0.587,1.416,0.587
	l3.316-0.002c0.398,0,0.772-0.121,1.086-0.328l0.714,0.785c0.029,0.032,0.06,0.063,0.091,0.092l-0.009,1.962
	c-0.431,0.368-0.692,0.908-0.695,1.495l-0.072,16.388c-0.003,0.267,0.054,0.529,0.169,0.785l-0.005,1.155
	c0,0.015,0.004,0.029,0.004,0.043c0.4-0.006,0.806-0.014,1.181-0.014c2.403,0,4.216,0.137,5.384,0.406
	c0.136,0.031,0.273,0.039,0.41,0.048c0.037-0.15,0.062-0.305,0.063-0.466l0.005-1.16c0.116-0.254,0.175-0.514,0.175-0.774
	L24.859,22.003z"/>
<g>
	<g>
		<path d="M24.953,1.182V1.119c0.002-0.266-0.104-0.521-0.291-0.71c-0.188-0.188-0.443-0.294-0.709-0.294l-6.15,0.003
			c-0.287,0-0.543,0.126-0.725,0.321c-0.008-0.008-0.01-0.018-0.018-0.025c-0.188-0.188-0.441-0.294-0.708-0.294l-3.316,0.001
			c-0.551,0-0.997,0.445-1,0.996l-0.024,5.534c-0.001,0.266,0.104,0.521,0.292,0.71c0.188,0.188,0.442,0.294,0.708,0.294
			l3.317-0.002c0.524,0,0.946-0.411,0.983-0.928l1.551,1.706c0.102,0.11,0.225,0.191,0.359,0.247l-0.015,3.052
			c-0.397,0.13-0.69,0.492-0.692,0.934l-0.072,16.395c-0.002,0.19,0.067,0.367,0.17,0.527l-0.006,1.41
			c-0.002,0.266,0.104,0.521,0.291,0.71C19.087,31.895,19.342,32,19.607,32l3.041-0.002c0.551,0,0.998-0.445,1-0.996l0.006-1.41
			c0.1-0.154,0.174-0.328,0.174-0.525L23.9,12.671c0-0.266-0.104-0.521-0.293-0.71c-0.109-0.111-0.248-0.183-0.394-0.232
			l0.015-3.007c0.287-0.071,0.537-0.264,0.666-0.541l0.696-1.484c1.546,0.075,4.021,0.705,5.513,3.712
			c0.172,0.346,0.521,0.556,0.896,0.556c0.073,0,0.147-0.008,0.226-0.025c0.45-0.104,0.771-0.504,0.774-0.967
			C32.043,4.524,27.99,2.021,24.953,1.182z"/>
		
			<linearGradient id="rect3338_1_" gradientUnits="userSpaceOnUse" x1="321.9941" y1="-1140.8701" x2="325.0092" y2="-1140.8701" gradientTransform="matrix(1.0252 -3.999999e-004 0.0045 -1.026 -309.42 -1166.5883)">
			<stop  offset="0" style="stop-color:#E6E6E5"/>
			<stop  offset="0.7255" style="stop-color:#98BECC"/>
			<stop  offset="1" style="stop-color:#B0D7E5"/>
		</linearGradient>
		<polygon id="rect3338_3_" fill="url(#rect3338_1_)" points="15.69,2.363 18.523,2.362 18.512,5.267 15.679,5.269 		"/>
		
			<linearGradient id="rect3340_1_" gradientUnits="userSpaceOnUse" x1="441.6504" y1="-870.8706" x2="441.6504" y2="-875.3073" gradientTransform="matrix(0.8057 -3.000000e-004 0.0058 -1.3055 -336.0915 -1135.7986)">
			<stop  offset="0" style="stop-color:#DBEEF2"/>
			<stop  offset="1" style="stop-color:#328196"/>
		</linearGradient>
		<polygon id="rect3340_3_" fill="url(#rect3340_1_)" points="13.036,1.12 16.353,1.119 16.329,6.652 13.012,6.654 		"/>
		
			<linearGradient id="rect3342_1_" gradientUnits="userSpaceOnUse" x1="326.4434" y1="-1147.5117" x2="328.6511" y2="-1147.5117" gradientTransform="matrix(1.0252 -3.999999e-004 0.0045 -1.026 -309.42 -1166.5883)">
			<stop  offset="0" style="stop-color:#E6E6E5"/>
			<stop  offset="0.7255" style="stop-color:#98BECC"/>
			<stop  offset="1" style="stop-color:#B0D7E5"/>
		</linearGradient>
		<polygon id="rect3342_3_" fill="url(#rect3342_1_)" points="20.229,7.412 22.234,7.41 22.205,13.844 20.201,13.845 		"/>
		
			<linearGradient id="rect3344_1_" gradientUnits="userSpaceOnUse" x1="329.3242" y1="-1157.4883" x2="325.7711" y2="-1157.4883" gradientTransform="matrix(1.0252 -3.999999e-004 0.0045 -1.026 -309.42 -1166.5883)">
			<stop  offset="0" style="stop-color:#F89B40"/>
			<stop  offset="0.2217" style="stop-color:#F47920"/>
			<stop  offset="1" style="stop-color:#FFFFFF"/>
		</linearGradient>
		<polygon id="rect3344_3_" fill="url(#rect3344_1_)" points="19.518,12.668 22.9,12.666 22.828,29.061 19.443,29.063 		"/>
		
			<linearGradient id="rect3346_1_" gradientUnits="userSpaceOnUse" x1="325.9395" y1="-1166.4229" x2="329.1544" y2="-1166.4229" gradientTransform="matrix(1.0252 -3.999999e-004 0.0045 -1.026 -309.42 -1166.5883)">
			<stop  offset="0" style="stop-color:#E6E6E5"/>
			<stop  offset="0.7255" style="stop-color:#98BECC"/>
			<stop  offset="1" style="stop-color:#B0D7E5"/>
		</linearGradient>
		<polygon id="rect3346_3_" fill="url(#rect3346_1_)" points="19.615,29.063 22.656,29.061 22.648,30.998 19.607,31 		"/>
		
			<linearGradient id="path3348_1_" gradientUnits="userSpaceOnUse" x1="333.1611" y1="-1143.1934" x2="335.9735" y2="-1139.1051" gradientTransform="matrix(1.0252 -3.999999e-004 0.0045 -1.026 -309.42 -1166.5883)">
			<stop  offset="0" style="stop-color:#E6E6E5"/>
			<stop  offset="0.7255" style="stop-color:#98BECC"/>
			<stop  offset="1" style="stop-color:#B0D7E5"/>
		</linearGradient>
		<path id="path3348_3_" fill="url(#path3348_1_)" d="M31,9.966c-2.535-5.118-7.65-4.216-7.65-4.216l0.016-3.874
			C23.363,1.876,31.057,2.772,31,9.966z"/>
		<polygon id="polygon3350_5_" fill="#AFE1F9" points="17.781,5.752 17.803,1.118 23.953,1.115 23.936,5.749 23.936,5.749 
			22.99,7.756 19.604,7.758 		"/>
	</g>
</g>
</svg>
