<?xml version="1.0" encoding="UTF-8" standalone="no"?>
<!-- Generator: Adobe Illustrator 14.0.0, SVG Export Plug-In . SVG Version: 6.00 Build 43363)  -->
<svg
   xmlns:dc="http://purl.org/dc/elements/1.1/"
   xmlns:cc="http://web.resource.org/cc/"
   xmlns:rdf="http://www.w3.org/1999/02/22-rdf-syntax-ns#"
   xmlns:svg="http://www.w3.org/2000/svg"
   xmlns="http://www.w3.org/2000/svg"
   xmlns:sodipodi="http://sodipodi.sourceforge.net/DTD/sodipodi-0.dtd"
   xmlns:inkscape="http://www.inkscape.org/namespaces/inkscape"
   version="1.1"
   id="Layer_1"
   inkscape:version="0.45.1"
   sodipodi:docname="report_child_dir.svg"
   x="0px"
   y="0px"
   width="32px"
   height="32px"
   viewBox="0 0 32 32"
   enable-background="new 0 0 32 32"
   xml:space="preserve"
   sodipodi:version="0.32"
   inkscape:output_extension="org.inkscape.output.svg.inkscape"
   sodipodi:docbase="T:\RBS\Reports"><metadata
   id="metadata71"><rdf:RDF><cc:Work
       rdf:about=""><dc:format>image/svg+xml</dc:format><dc:type
         rdf:resource="http://purl.org/dc/dcmitype/StillImage" /></cc:Work></rdf:RDF></metadata>
<defs
   id="defs3">
	
	
		<inkscape:perspective
   id="perspective64"
   sodipodi:type="inkscape:persp3d"
   inkscape:persp3d-origin="16 : 10.666667 : 1"
   inkscape:vp_z="32 : 16 : 1"
   inkscape:vp_y="0 : 1000 : 0"
   inkscape:vp_x="0 : 16 : 1">
		</inkscape:perspective>
</defs>
<sodipodi:namedview
   id="namedview58"
   inkscape:window-maximized="0"
   inkscape:current-layer="Layer_1"
   inkscape:pageopacity="0"
   inkscape:pageshadow="2"
   inkscape:window-width="901"
   inkscape:window-height="575"
   inkscape:window-x="161"
   inkscape:window-y="161"
   bordercolor="#666666"
   borderopacity="1"
   guidetolerance="10"
   pagecolor="#ffffff"
   showgrid="false"
   inkscape:cy="16"
   inkscape:zoom="7.375"
   objecttolerance="10"
   gridtolerance="10"
   inkscape:cx="16">
	</sodipodi:namedview>
<g
   id="g7">
	<path
   id="path5"
   fill="#231F20"
   d="M31.786,19.335c-0.317-0.551-0.938-0.866-1.703-0.866h-4.695v-0.426   c0-1.497-1.219-2.716-2.715-2.716H14.76l-0.103-0.19c-0.377-0.708-0.893-1.675-2.206-1.675H9.799c-1.349,0-1.878,0.98-2.334,1.828   l-0.02,0.038H6.716C5.219,15.327,4,16.545,4,18.043v11.218C4,30.771,5.219,32,6.716,32h0.286h15.669h0.59   c1.251,0,2.666-0.815,3.293-1.896l5.129-8.859C32.066,20.581,32.104,19.885,31.786,19.335z" />
	<path
   id="rect5504"
   fill="#A46929"
   d="M9.799,14.336c-0.853,0-1.163,0.625-1.567,1.375l-0.27,0.491H6.716   c-1.024,0-1.841,0.816-1.841,1.841v11.218c0,1.025,0.816,1.864,1.841,1.864h15.955c1.024,0,1.841-0.839,1.841-1.864V18.043   c0-1.025-0.816-1.841-1.841-1.841H14.24l-0.271-0.491c-0.405-0.749-0.67-1.375-1.521-1.375h-0.736h-1.177H9.799z" />
	<path
   id="path10819_1_"
   fill="#020202"
   d="M11.095,28.493c-0.146,0-0.292-0.019-0.43-0.061c-0.208-0.028-0.41-0.1-0.594-0.209   c-1.592-0.969-1.532-3.109-1.511-3.81c0.044-1.731,0.528-3.891,1.037-6.174c0.592-2.634,1.201-5.35,1.234-7.754   c-0.031,0-0.059,0-0.091,0c-0.338,0-0.745,0.037-1.178,0.107c-0.081,0.013-0.163,0.019-0.244,0.019   c-0.622,0-1.193-0.376-1.429-0.967C7.588,8.891,7.224,7.813,7.19,6.939C7.151,5.931,7.914,4.258,9.151,4.026   c0.093-0.018,0.187-0.025,0.282-0.025c0.055,0,0.11,0.002,0.165,0.008c0.317,0.029,6.604,0.457,10.296,0.457   c0.952,0,1.488-0.03,1.77-0.056c0.087-0.007,0.178-0.012,0.271-0.012c0.986,0,1.998,0.485,2.848,1.368   c1.403,1.463,2.188,3.791,2.092,6.22c-0.036,1.058-0.237,2.133-0.59,3.188c-0.818,2.434-1.224,4.305-1.24,5.713   c0,0.036,0,0.074,0,0.11c0.652-0.026,1.268-0.048,1.723-0.048l0.176,0.001c0.393,0.007,0.768,0.164,1.049,0.435   c0.811,0.785,0.945,2.487,0.722,3.831c-0.313,1.876-1.258,3.04-2.465,3.04c-0.145,0-0.294-0.018-0.438-0.051   c-0.9-0.209-2.297-0.315-4.147-0.315c-1.716,0-3.755,0.089-6.239,0.269c-1.57,0.182-2.962,0.294-3.865,0.311l-0.365,0.025   C11.162,28.493,11.129,28.493,11.095,28.493L11.095,28.493z" />
	<path
   id="path3443_1_"
   fill="#03ADDB"
   d="M11.959,9.938c0.137-1.531-0.532-4.31-2.433-5.102c-1-0.417-1.6,1.236-1.568,2.067   c0.049,1.228,0.896,3.033,0.896,3.033S11.032,9.429,11.959,9.938z" />
	
		<linearGradient
   id="path10849_2_"
   gradientUnits="userSpaceOnUse"
   x1="852.9248"
   y1="-1191.4375"
   x2="854.7641"
   y2="-1189.8164"
   gradientTransform="matrix(1 0 0 -1 -844.6201 -1182.5195)">
		<stop
   offset="0"
   style="stop-color:#B2D3DC"
   id="stop14" />
		<stop
   offset="1"
   style="stop-color:#117C9F"
   id="stop16" />
	</linearGradient>
	<path
   id="path10849_1_"
   fill="url(#path10849_2_)"
   d="M9.32,9.065c-0.253-0.63-0.563-1.55-0.589-2.192   C8.71,6.349,9.046,5.612,9.237,5.536c1.166,0.499,1.798,2.096,1.942,3.422c-0.14-0.01-0.282-0.017-0.436-0.017   C10.23,8.939,9.71,9.003,9.32,9.065L9.32,9.065z" />
	<path
   id="path3445_1_"
   fill="#03ADDB"
   d="M25.556,14.886c-3.278,9.791,0.759,8.642,0.832,9.675   c0.116,1.641-14.919,3.507-15.818,3.021C6.14,25.175,15.435,9.946,9.63,4.769c1.878,0.107,9.297,0.653,12.104,0.401   C24.371,4.934,27.377,9.439,25.556,14.886z" />
	
		<linearGradient
   id="path10830_2_"
   gradientUnits="userSpaceOnUse"
   x1="862.3418"
   y1="-1188.855"
   x2="862.3418"
   y2="-1207.6863"
   gradientTransform="matrix(1 0 0 -1 -844.6201 -1182.5195)">
		<stop
   offset="0"
   style="stop-color:#B2D3DC"
   id="stop21" />
		<stop
   offset="1"
   style="stop-color:#117C9F"
   id="stop23" />
	</linearGradient>
	<path
   id="path10830_1_"
   fill="url(#path10830_2_)"
   d="M11.343,26.921c-0.27,0-0.407-0.012-0.465-0.019   c-1.432-0.891-0.59-4.652,0.225-8.294c1.02-4.549,2.158-9.622,0.227-12.927c2.266,0.142,5.888,0.359,8.458,0.359l0,0   c0.829,0,1.511-0.023,2.017-0.068c0.042-0.004,0.089-0.007,0.131-0.007c0.718,0,1.526,0.528,2.166,1.413   c1.044,1.451,1.782,4.129,0.725,7.298c-2.311,6.903-1.205,8.931,0.449,9.951C23.124,25.627,14.528,26.921,11.343,26.921   L11.343,26.921z" />
	<path
   id="path27"
   d="M10.983,28.498c-0.365,0-0.683-0.259-0.755-0.622c-0.072-0.369,0.133-0.739,0.489-0.869   c0.708-0.264,0.922-1.058,0.975-1.679c0.127-1.468-0.501-2.81-0.8-2.983c-0.327-0.189-0.467-0.587-0.333-0.937   c0.114-0.307,0.403-0.498,0.72-0.498c0.048,0,0.099,0.005,0.149,0.015c1.194,0.237,2.959,0.356,5.249,0.356l0,0   c2.331,0,4.817-0.121,6.817-0.216c1.35-0.066,2.517-0.12,3.26-0.12c0.145,0,0.274,0.001,0.39,0.005   c0.076,0.003,0.148,0.019,0.22,0.041c1.333,0.458,1.635,2.508,1.353,4.219c-0.313,1.876-1.259,3.041-2.467,3.041   c-0.143,0-0.289-0.02-0.435-0.051c-0.902-0.206-2.3-0.311-4.152-0.311c-3.282,0-7.156,0.328-9.238,0.503   c-0.707,0.058-1.208,0.1-1.413,0.107C11.002,28.498,10.993,28.498,10.983,28.498L10.983,28.498z" />
	<path
   id="path3447_2_"
   fill="#03ADDB"
   d="M27.112,21.72c1.622,0.556,1.039,6.225-1.128,5.729   c-3.794-0.872-13.887,0.242-15.001,0.28c2.387-0.884,1.473-5.366,0.294-6.05C15.593,22.536,24.888,21.63,27.112,21.72z" />
	
		<linearGradient
   id="path10840_2_"
   gradientUnits="userSpaceOnUse"
   x1="864.6797"
   y1="-1205.5254"
   x2="864.6797"
   y2="-1208.8583"
   gradientTransform="matrix(1 0 0 -1 -844.6201 -1182.5195)">
		<stop
   offset="0"
   style="stop-color:#B2D3DC"
   id="stop29" />
		<stop
   offset="1"
   style="stop-color:#117C9F"
   id="stop31" />
	</linearGradient>
	<path
   id="path10840_1_"
   fill="url(#path10840_2_)"
   d="M12.916,26.8c0.163-0.394,0.27-0.843,0.311-1.34   c0.076-0.879-0.063-1.914-0.38-2.787c1.058,0.1,2.327,0.147,3.829,0.147c2.37,0,4.884-0.122,6.905-0.221   c1.328-0.063,2.475-0.118,3.177-0.118c0.056,0,0.109,0,0.161,0.003c0.212,0.207,0.491,1.174,0.274,2.466   c-0.185,1.102-0.629,1.756-0.948,1.756l0,0c-0.026,0-0.056-0.004-0.092-0.011c-1.028-0.237-2.496-0.353-4.494-0.353   C18.622,26.345,15.11,26.618,12.916,26.8L12.916,26.8z" />
	<path
   id="path36"
   fill="#231F20"
   d="M7.002,32c-0.766,0-1.388-0.316-1.706-0.866c-0.316-0.551-0.278-1.246,0.106-1.907l5.127-8.86   c0.626-1.082,2.042-1.897,3.292-1.897h16.259c0.766,0,1.388,0.314,1.705,0.864c0.316,0.551,0.279,1.247-0.104,1.91l-5.129,8.861   C25.927,31.185,24.51,32,23.262,32H7.002z" />
	<path
   id="rect5498"
   fill="#FAA81D"
   d="M13.823,19.344h16.26c0.932,0,1.309,0.654,0.842,1.461l-5.128,8.861   c-0.468,0.805-1.603,1.459-2.535,1.459H7.002c-0.933,0-1.31-0.654-0.843-1.459l5.129-8.861   C11.754,19.998,12.89,19.344,13.823,19.344z" />
	
		<linearGradient
   id="path46_1_"
   gradientUnits="userSpaceOnUse"
   x1="569.9316"
   y1="834.9141"
   x2="593.3115"
   y2="834.9141"
   gradientTransform="matrix(1 0 0 1 -563.0801 -809.6797)">
		<stop
   offset="0"
   style="stop-color:#A46829"
   id="stop37" />
		<stop
   offset="0.5394"
   style="stop-color:#FAA81D"
   id="stop39" />
		<stop
   offset="1"
   style="stop-color:#FFF3E2"
   id="stop41" />
	</linearGradient>
	<path
   id="path46"
   fill="url(#path46_1_)"
   d="M7.002,30.25c-0.063,0-0.113-0.005-0.15-0.012c0.013-0.034,0.033-0.08,0.064-0.134   l5.128-8.86c0.311-0.537,1.157-1.025,1.777-1.025h16.259c0.063,0,0.112,0.007,0.15,0.014c-0.013,0.034-0.032,0.08-0.065,0.135   l-5.127,8.859c-0.311,0.536-1.158,1.023-1.777,1.023H7.002z" />
</g>
<g
   id="g44">
	<path
   fill="#FFFFFF"
   d="M31.939,20.017c-0.09-0.051-0.188-0.088-0.29-0.109c-0.008-0.003-0.023-0.008-0.023-0.008   c-0.087-0.03-0.176-0.048-0.266-0.053c-0.096-0.016-0.19-0.023-0.263-0.023h-2.963c0,0,0-0.653,0-1.354h-2.747v-0.146   c0.205-0.926,0.501-1.969,0.897-3.148c0.021-0.063,0.036-0.126,0.057-0.189c-0.036-0.004-0.073-0.01-0.108-0.01   c0,0-4.683,0-4.684,0c-0.113,0-0.227,0.02-0.334,0.057c-0.024,0.007-0.076,0.025-0.078,0.026c-0.136,0.028-0.263,0.084-0.372,0.161   c-0.019,0.011-0.21,0.136-0.21,0.136c-0.059,0.039-0.112,0.083-0.16,0.131c-0.085,0.069-0.157,0.151-0.216,0.245v0   c-0.013,0.019-0.071,0.105-0.087,0.131c-0.03,0.043-0.058,0.088-0.082,0.136c-0.043,0.086-0.075,0.169-0.098,0.247l-0.008-0.002   l0.008,0.003c-0.001,0.003-0.002,0.006-0.003,0.01c-0.021,0.049-0.039,0.099-0.052,0.15l0.004,0.001   c-0.01,0.026-0.018,0.052-0.024,0.079l0.032,0.009c0,0.002,0,0.006-0.001,0.008c-0.043,0.13-0.066,0.267-0.066,0.391v2.938h-3.074   c-0.105,0-0.209,0.017-0.307,0.048c-0.017,0.005-0.034,0.009-0.05,0.014c-0.108,0.021-0.211,0.061-0.306,0.114   c-0.016,0.008-0.143,0.075-0.18,0.1c-0.11,0.051-0.21,0.122-0.295,0.209c-0.095,0.074-0.176,0.164-0.24,0.264   c-0.071,0.077-0.129,0.163-0.172,0.257c-0.035,0.059-0.063,0.121-0.083,0.185c-0.029,0.063-0.051,0.137-0.066,0.211   c-0.017,0.059-0.028,0.12-0.036,0.18c-0.021,0.113-0.032,0.229-0.032,0.314v4.645c0,0.089,0.019,0.189,0.047,0.286   c0.011,0.052,0.023,0.103,0.036,0.144c0.018,0.082,0.045,0.163,0.084,0.24c0.004,0.009,0.071,0.134,0.08,0.147   c0.041,0.078,0.092,0.15,0.153,0.217c0.026,0.038,0.054,0.075,0.085,0.109c0.003,0.005,0.007,0.01,0.011,0.015   c0.032,0.042,0.067,0.081,0.105,0.117l0.001-0.002c0.048,0.045,0.104,0.088,0.167,0.127c0.06,0.052,0.135,0.102,0.203,0.139   c0.026,0.015,0.072,0.037,0.083,0.043c0.003,0.002,0.008,0.004,0.008,0.004c0.092,0.052,0.191,0.088,0.292,0.107   c0.009,0.003,0.017,0.006,0.025,0.009l0.001-0.004c0.005,0.001,0.051,0.011,0.069,0.015c0.076,0.021,0.153,0.034,0.231,0.039   c0.073,0.014,0.146,0.021,0.217,0.021h2.96l-0.001,3.082h0.006c0.001,0.014,0.006,0.039,0.006,0.039   c0.003,0.054,0.009,0.107,0.019,0.16c0.008,0.056,0.019,0.11,0.034,0.164c0.021,0.096,0.057,0.197,0.112,0.304   c0,0,0.034,0.065,0.056,0.107h2.62h0.59c1.251,0,2.666-0.815,3.293-1.896l5.129-8.859c0.233-0.403,0.322-0.816,0.298-1.204   c-0.005-0.002-0.008-0.006-0.013-0.008C31.96,20.028,31.941,20.019,31.939,20.017z"
   id="path47" />
	<path
   id="path4992_2_"
   fill="#020202"
   d="M21.543,15.977c-0.021,0.006-0.041,0.012-0.061,0.02c0.002,0-0.063,0.021-0.063,0.02   c0.002,0-0.082,0.021-0.08,0.02c0.002,0-0.063,0.042-0.063,0.041c0.002,0-0.063,0.041-0.063,0.04c0.002,0-0.063,0.042-0.061,0.04   c0.002,0-0.063,0.042-0.061,0.041c0,0-0.063,0.063-0.063,0.061c0.001,0-0.043,0.063-0.041,0.061c0.001,0-0.041,0.063-0.041,0.062   c0.001,0-0.041,0.063-0.041,0.062c0,0-0.041,0.082-0.04,0.08c0,0-0.021,0.063-0.021,0.062c0,0-0.021,0.084-0.021,0.081   c0,0-0.021,0.082-0.021,0.08c0,0,0,0.063,0,0.062c0,0,0,0.039,0,0.063c0,0.01,0,0.021,0,0.021v3.938h-3.93c0,0-0.013,0-0.021,0   c-0.012,0-0.02,0-0.02,0c0.002,0-0.043,0-0.041,0c-0.01,0-0.017,0-0.021,0c0.001,0-0.041,0-0.041,0   c0.001,0-0.041,0.021-0.041,0.021c0.002-0.002-0.041,0-0.04,0c0.001-0.002-0.042,0.021-0.041,0.021s-0.041,0.001-0.04,0   c0-0.001-0.041,0.021-0.039,0.021c0.001,0-0.041,0.021-0.041,0.021c0.002,0-0.042,0.021-0.04,0.021c0,0-0.042,0.021-0.041,0.021   s-0.021,0.021-0.021,0.021s-0.038,0.018-0.035,0.018c0,0-0.043,0.021-0.041,0.02c0.001,0-0.021,0.021-0.021,0.021   s-0.042,0.041-0.041,0.041s-0.018,0.018-0.018,0.018c0.001,0-0.042,0.021-0.041,0.021s-0.021,0.042-0.021,0.041   c0.001,0-0.021,0.041-0.021,0.041s-0.021,0.021-0.021,0.021c0,0-0.041,0.043-0.041,0.041c0.001,0-0.021,0.041-0.02,0.041   c0,0-0.021,0.041-0.021,0.037c0.001,0-0.001,0.021,0,0.021s-0.021,0.043-0.021,0.041l-0.021,0.041v0.041l-0.02,0.041v0.041   l-0.021,0.041c0,0,0,0.041,0,0.039c0,0,0,0.043,0,0.041v0.041v4.521c0,0,0,0.042,0,0.041v0.041v0.041l0.021,0.041   c0,0,0,0.041,0,0.039l0.02,0.063l0.021,0.041c0,0,0.001,0.041,0,0.039c0,0,0.021,0.041,0.021,0.039   c-0.001,0,0.021,0.043,0.021,0.041c-0.001,0,0.021,0.041,0.02,0.041c0,0,0.021,0.021,0.021,0.021c0,0,0.042,0.041,0.041,0.041   c0,0,0.021,0.041,0.021,0.04c-0.001,0,0.021,0.041,0.021,0.041s0.042,0.021,0.041,0.02c-0.001,0,0.021,0.042,0.021,0.041   c-0.002,0,0.041,0.021,0.041,0.021c-0.002,0,0.041,0.021,0.04,0.021S16.371,27,16.369,27l0.021,0.021c0,0,0.042,0.021,0.039,0.021   c0-0.001,0.042,0.021,0.042,0.021c-0.002-0.002,0.04,0.021,0.04,0.021c-0.002-0.002,0.041,0,0.041,0   c-0.002-0.002,0.041,0.021,0.041,0.02c-0.002,0,0.063,0.021,0.063,0.021s0.041,0,0.04,0c-0.002,0,0.042,0.021,0.041,0.021   c-0.002,0,0.041,0,0.041,0c-0.002,0,0.041,0,0.041,0c-0.002,0,0.041,0,0.04,0h3.959v3.938v0.021c-0.001,0.014,0,0.021,0,0.021   v0.041c0,0.007,0,0.015,0,0.021v0.041c-0.001,0,0.021,0.041,0.021,0.041c-0.002,0,0,0.041,0,0.039   c-0.002,0,0.021,0.043,0.021,0.041c-0.001,0,0,0.041,0,0.041c-0.001,0,0.021,0.041,0.021,0.041c-0.002,0,0.021,0.041,0.021,0.041   c-0.001,0,0.021,0.041,0.021,0.041c-0.002,0,0.021,0.041,0.021,0.041c-0.001,0,0.021,0.021,0.021,0.021   c-0.002,0,0.021,0.04,0.021,0.039c-0.001,0,0.021,0.041,0.021,0.04c-0.002,0,0.021,0.021,0.021,0.021   c-0.001,0,0.041,0.041,0.041,0.039c-0.001,0,0.021,0.021,0.021,0.021c-0.002,0,0.021,0.041,0.021,0.041   c-0.001,0,0.041,0.021,0.041,0.02c-0.002,0,0.04,0.02,0.04,0.02c-0.001,0,0.021,0.021,0.021,0.021c-0.002,0,0.041,0.04,0.041,0.04   c-0.002,0,0.041,0.021,0.039,0.021c0,0,0.043,0.021,0.041,0.021c0-0.001,0.021,0,0.021,0c-0.002-0.001,0.041,0.021,0.041,0.02   c-0.002,0,0.041,0.021,0.041,0.021c-0.002,0,0.041,0.001,0.039,0c0,0,0.043,0.021,0.041,0.021h0.041L21.6,32   c-0.002,0,0.041,0,0.041,0c-0.002,0,0.041,0,0.041,0c-0.002,0,0.041,0,0.039,0h4.522c-0.002,0,0.042,0,0.041,0   c-0.003,0,0.041,0,0.041,0c-0.003,0,0.041,0,0.041,0c-0.003,0,0.041-0.021,0.04-0.021c-0.003,0,0.042,0,0.041,0   s0.063-0.021,0.063-0.021c0,0.001,0.041-0.021,0.041-0.021c0,0.002,0.041,0,0.041,0c-0.002,0.002,0.041-0.021,0.041-0.02   c-0.002,0,0.041-0.021,0.041-0.021c-0.002,0,0.041-0.021,0.041-0.021c-0.002,0,0.021-0.021,0.021-0.021   c-0.003,0,0.041-0.041,0.04-0.041c-0.002,0,0.039-0.021,0.039-0.021s0.041-0.021,0.041-0.02l0.021-0.041   c-0.002,0,0.041-0.021,0.041-0.021c-0.002,0,0.021-0.042,0.021-0.041c0,0,0.021-0.041,0.021-0.039c0,0,0.041-0.043,0.041-0.041   l0.021-0.021c-0.002,0,0.021-0.042,0.021-0.041c-0.002,0,0.021-0.042,0.021-0.042c-0.002,0,0.021-0.041,0.021-0.04   c0,0,0-0.042,0-0.039c0,0,0.021-0.043,0.021-0.041c-0.002,0,0.021-0.063,0.021-0.062c-0.002,0,0-0.041,0-0.041   c-0.002,0,0.021-0.043,0.021-0.039c-0.002,0,0-0.043,0-0.041c0,0,0-0.043,0-0.041v-0.041v-3.957h3.95c-0.004,0,0.041,0,0.039,0   s0.043,0,0.041,0s0.041,0,0.041,0c-0.002,0,0.041-0.021,0.041-0.021c-0.002,0,0.041-0.002,0.041,0   c-0.002,0,0.063-0.021,0.063-0.021c-0.003,0,0.04-0.021,0.04-0.021c-0.002,0,0.041-0.001,0.041,0c-0.002,0,0.041-0.021,0.039-0.021   c0,0,0.043-0.021,0.041-0.021c0,0.002,0.041-0.021,0.041-0.021l0.021-0.021c0,0,0.041-0.04,0.041-0.039l0.041-0.021   c-0.002,0,0.041-0.021,0.041-0.021c-0.002,0,0.021-0.042,0.021-0.041c-0.002,0,0.041-0.021,0.041-0.02   c-0.002,0,0.021-0.041,0.021-0.041c-0.002,0,0.021-0.041,0.021-0.041c-0.003,0,0.041-0.041,0.041-0.041   c-0.003,0,0.021-0.021,0.021-0.021c-0.002,0,0.021-0.041,0.021-0.041l0.021-0.039l0.021-0.041c-0.002,0,0-0.041,0-0.041   c-0.002,0,0.021-0.041,0.021-0.041c-0.002,0,0.021-0.061,0.021-0.061c-0.002,0,0-0.041,0-0.041c-0.002,0,0.021-0.041,0.021-0.041   s0-0.041,0-0.039c0,0,0-0.043,0-0.041v-0.041V21.72c0,0,0-0.041,0-0.039c0,0,0-0.043,0-0.041c0,0,0-0.041,0-0.039   c0,0-0.021-0.043-0.021-0.041c0,0-0.002-0.041,0-0.041l-0.021-0.063c0,0-0.021-0.041-0.021-0.04c0,0-0.002-0.041,0-0.039   l-0.021-0.041l-0.021-0.041c0,0-0.021-0.04-0.021-0.038c0,0-0.021-0.021-0.021-0.021c0,0-0.041-0.042-0.041-0.041l-0.021-0.041   l-0.021-0.041l-0.041-0.021l-0.021-0.041c0,0-0.041-0.021-0.041-0.021l-0.041-0.021c0.002,0-0.041-0.041-0.041-0.041   c0.002,0-0.021-0.021-0.021-0.021c0.002,0-0.041-0.021-0.041-0.021c0.002,0-0.041-0.021-0.041-0.021   c0.002,0-0.041-0.021-0.039-0.021c0,0.002-0.043,0-0.041,0c0.002,0.002-0.041-0.021-0.04-0.021c0,0.001-0.063-0.021-0.063-0.021   c0,0.002-0.041,0-0.041,0c0.002,0.002-0.041-0.021-0.041-0.021c0.002,0-0.041,0-0.041,0c0.002,0-0.041,0-0.041,0   c0.002,0-0.041,0-0.039,0h-3.963v-3.959c0,0,0-0.042,0-0.041v-0.04c0,0-0.002-0.041,0-0.04c0,0-0.021-0.042-0.021-0.04   c0,0-0.001-0.043,0-0.041c0,0-0.021-0.063-0.021-0.062c0,0-0.021-0.043-0.021-0.041c0,0-0.002-0.041,0-0.041   c0,0-0.021-0.042-0.021-0.041l-0.021-0.04l-0.021-0.041c0,0-0.021-0.021-0.021-0.02c0,0-0.042-0.041-0.041-0.041l-0.021-0.04   l-0.021-0.04c0,0-0.042-0.021-0.04-0.02l-0.021-0.041c0,0-0.041-0.021-0.041-0.02c0,0-0.041-0.021-0.041-0.02   c0.002,0-0.041-0.042-0.041-0.041c0.002,0-0.021-0.021-0.021-0.02c0.001,0-0.042-0.021-0.04-0.02c0,0-0.041-0.021-0.041-0.02   c0.003,0-0.041-0.021-0.041-0.021c0.003,0-0.041-0.001-0.041,0c0.003,0-0.04-0.021-0.038-0.021c0,0-0.063-0.02-0.063-0.02   s-0.043,0-0.041,0c0,0-0.04-0.018-0.039-0.018s-0.042,0-0.04,0c0.001,0-0.043,0-0.041,0s-0.042,0-0.041,0h-4.479   c0.002,0-0.043,0-0.041,0s-0.043,0-0.041,0c0,0-0.01,0-0.021,0c0,0-0.015,0-0.021,0c0.002,0-0.041,0-0.039,0   c-0.017,0-0.029,0-0.041,0V15.97L21.543,15.977L21.543,15.977z" />
	<path
   id="rect4855-4_2_"
   fill="#6EBD46"
   d="M21.713,16.864v4.847h-4.847v4.524h4.847v4.848h4.523v-4.848h4.848v-4.524h-4.848   v-4.847H21.713z" />
	
		<linearGradient
   id="path4903-3_1_"
   gradientUnits="userSpaceOnUse"
   x1="-2389.5283"
   y1="-2161.5156"
   x2="-2376.4365"
   y2="-2161.5156"
   gradientTransform="matrix(0 -1 -1 0 -2137.5391 -2359.0078)">
		<stop
   offset="0"
   style="stop-color:#B0D68C"
   id="stop52" />
		<stop
   offset="1"
   style="stop-color:#1E9046"
   id="stop54" />
	</linearGradient>
	<path
   id="path4903-3_2_"
   fill="url(#path4903-3_1_)"
   d="M22.278,17.429v4.85h-4.847v3.395h4.847v4.848h3.394v-4.848h4.85v-3.395   h-4.85v-4.85H22.278z" />
</g>


</svg>