<?xml version="1.0" encoding="utf-8"?>
<!-- Generator: Adobe Illustrator 15.0.0, SVG Export Plug-In . SVG Version: 6.00 Build 0)  -->
<!DOCTYPE svg PUBLIC "-//W3C//DTD SVG 1.1//EN" "http://www.w3.org/Graphics/SVG/1.1/DTD/svg11.dtd">
<svg version="1.1"
	 id="svg2" xmlns:inkscape="http://www.inkscape.org/namespaces/inkscape" xmlns:sodipodi="http://sodipodi.sourceforge.net/DTD/sodipodi-0.dtd" xmlns:dc="http://purl.org/dc/elements/1.1/" xmlns:cc="http://creativecommons.org/ns#" xmlns:svg="http://www.w3.org/2000/svg" xmlns:rdf="http://www.w3.org/1999/02/22-rdf-syntax-ns#" inkscape:output_extension="org.inkscape.output.svg.inkscape" inkscape:version="0.46" sodipodi:version="0.32" sodipodi:docbase="C:\Radix\dev\trunk\org.radixware\kernel\designer\src\common.resources\src\org\radixware\kernel\designer\resources\icons\ads" sodipodi:docname="editor_presentation2.svg"
	 xmlns="http://www.w3.org/2000/svg" xmlns:xlink="http://www.w3.org/1999/xlink" x="0px" y="0px" width="32px" height="32px"
	 viewBox="0 0 32 32" enable-background="new 0 0 32 32" xml:space="preserve">
<defs>
	
	
		<inkscape:perspective  id="perspective9745" inkscape:vp_y="0 : 1000 : 0" inkscape:vp_x="0 : 10 : 1" inkscape:vp_z="20 : 10 : 1" sodipodi:type="inkscape:persp3d" inkscape:persp3d-origin="10 : 6.6666667 : 1">
		</inkscape:perspective>
	
		<inkscape:perspective  id="perspective11509" inkscape:vp_y="0 : 1000 : 0" inkscape:vp_x="0 : 16 : 1" inkscape:vp_z="32 : 16 : 1" sodipodi:type="inkscape:persp3d" inkscape:persp3d-origin="16 : 10.666667 : 1">
		</inkscape:perspective>
	
		<inkscape:perspective  id="perspective11612" inkscape:vp_y="0 : 1000 : 0" inkscape:vp_x="0 : 64 : 1" inkscape:vp_z="128 : 64 : 1" sodipodi:type="inkscape:persp3d" inkscape:persp3d-origin="64 : 42.666667 : 1">
		</inkscape:perspective>
	
		<inkscape:perspective  id="perspective11711" inkscape:vp_y="0 : 1000 : 0" inkscape:vp_x="0 : 64 : 1" inkscape:vp_z="128 : 64 : 1" sodipodi:type="inkscape:persp3d" inkscape:persp3d-origin="64 : 42.666667 : 1">
		</inkscape:perspective>
	
		<inkscape:perspective  id="perspective12409" inkscape:vp_y="0 : 1000 : 0" inkscape:vp_x="0 : 16 : 1" inkscape:vp_z="32 : 16 : 1" sodipodi:type="inkscape:persp3d" inkscape:persp3d-origin="16 : 10.666667 : 1">
		</inkscape:perspective>
	
		<inkscape:perspective  id="perspective26" inkscape:vp_y="0 : 1000 : 0" inkscape:vp_x="0 : 10 : 1" inkscape:vp_z="20 : 10 : 1" sodipodi:type="inkscape:persp3d" inkscape:persp3d-origin="10 : 6.6666667 : 1">
		</inkscape:perspective>
	
		<inkscape:perspective  id="perspective4992" inkscape:vp_y="0 : 1000 : 0" inkscape:vp_x="0 : 16 : 1" inkscape:vp_z="32 : 16 : 1" sodipodi:type="inkscape:persp3d" inkscape:persp3d-origin="16 : 10.666667 : 1">
		</inkscape:perspective>
	
		<inkscape:perspective  id="perspective3701" inkscape:vp_y="0 : 1000 : 0" inkscape:vp_x="0 : 16 : 1" inkscape:vp_z="32 : 16 : 1" sodipodi:type="inkscape:persp3d" inkscape:persp3d-origin="16 : 10.666667 : 1">
		</inkscape:perspective>
</defs>
<sodipodi:namedview  id="base" showguides="true" inkscape:cy="37.527028" inkscape:cx="12.264538" inkscape:zoom="9.1488739" showgrid="true" borderopacity="1.0" bordercolor="#000000" pagecolor="#ffffff" inkscape:guide-bbox="true" inkscape:document-units="px" inkscape:window-y="44" inkscape:window-x="0" inkscape:window-height="944" inkscape:window-width="1280" inkscape:pageshadow="2" inkscape:pageopacity="0.0" inkscape:current-layer="layer1">
	</sodipodi:namedview>
<g>
	<path id="path6086_4_" fill="#231F20" d="M23.999,32c-0.11,0-0.22-0.021-0.322-0.056l-7.036-2.499C16.257,29.31,16,28.946,16,28.54
		v-9.109c0-0.494,0.373-0.899,0.852-0.953l6.827-2.424C23.781,16.02,23.889,16,24,16c0.109,0,0.219,0.02,0.319,0.054l6.91,2.453
		C31.651,18.618,32,18.989,32,19.431v9.109c0,0.406-0.257,0.772-0.641,0.906l-7.04,2.5C24.217,31.979,24.107,32,23.999,32L23.999,32
		z"/>
	<polygon id="polygon5202_13_" fill="#AA3C25" points="16.971,19.431 24.008,21.929 24.008,31.038 16.971,28.54 	"/>
	<polygon id="polygon5204_13_" fill="#E9B7AF" points="31.044,19.431 24.008,21.929 24.008,31.038 31.044,28.54 	"/>
	<polygon id="polygon5206_13_" fill="#DF8178" points="30.974,19.431 24.008,16.962 17.045,19.431 16.971,19.431 17.005,19.444 
		16.971,19.457 17.045,19.457 24.008,21.929 30.974,19.457 31.044,19.457 31.01,19.444 31.044,19.431 	"/>
	
		<linearGradient id="polygon6538_1_" gradientUnits="userSpaceOnUse" x1="1517.2256" y1="3465.2764" x2="1525.6897" y2="3456.8899" gradientTransform="matrix(0.5772 0 0 0.5772 -859.0624 -1971.1897)">
		<stop  offset="0" style="stop-color:#3A1813"/>
		<stop  offset="1" style="stop-color:#AA3C25;stop-opacity:0"/>
	</linearGradient>
	<polygon id="polygon6538_5_" fill="url(#polygon6538_1_)" points="17.239,19.804 23.761,22.118 23.761,30.561 17.239,28.248 	"/>
	
		<linearGradient id="polygon6548_1_" gradientUnits="userSpaceOnUse" x1="1616.9785" y1="3573.3164" x2="1607.3605" y2="3562.9614" gradientTransform="matrix(0.5627 0 0 0.5627 -878.3788 -1981.0825)">
		<stop  offset="0" style="stop-color:#FDF0ED"/>
		<stop  offset="1" style="stop-color:#E9B7AF;stop-opacity:0"/>
	</linearGradient>
	<polygon id="polygon6548_5_" fill="url(#polygon6548_1_)" points="30.572,19.962 24.212,22.216 24.212,30.449 30.572,28.192 	"/>
	
		<linearGradient id="path6572_1_" gradientUnits="userSpaceOnUse" x1="-5134.54" y1="-3301.9492" x2="-5145.4902" y2="-3301.9771" gradientTransform="matrix(0 -0.6226 -0.6226 0 -2031.8566 -3174.1982)">
		<stop  offset="0" style="stop-color:#FFFFFF"/>
		<stop  offset="1" style="stop-color:#FFFFFF;stop-opacity:0"/>
	</linearGradient>
	<path id="path6572_13_" fill="url(#path6572_1_)" d="M23.534,21.83l0.382,9.036h-0.007l0.427-9.163L23.534,21.83L23.534,21.83z"/>
	
		<linearGradient id="path6582_1_" gradientUnits="userSpaceOnUse" x1="-2511.9043" y1="3815.3672" x2="-2521.2334" y2="3815.3628" gradientTransform="matrix(-0.5857 0.2112 0.2112 0.5857 -2252.6396 -1682.3428)">
		<stop  offset="0" style="stop-color:#FFFFFF"/>
		<stop  offset="1" style="stop-color:#FFFFFF;stop-opacity:0"/>
	</linearGradient>
	<path id="path6582_15_" fill="url(#path6582_1_)" d="M24.031,22.358l7.014-2.93l-7.404,2.219L24.031,22.358z"/>
	
		<linearGradient id="path6586_1_" gradientUnits="userSpaceOnUse" x1="2450.1807" y1="2026.0049" x2="2441.2046" y2="2025.9968" gradientTransform="matrix(0.5857 0.2112 -0.2112 0.5857 -983.8282 -1682.373)">
		<stop  offset="0" style="stop-color:#FFFFFF"/>
		<stop  offset="1" style="stop-color:#FFFFFF;stop-opacity:0"/>
	</linearGradient>
	<path id="path6586_13_" fill="url(#path6586_1_)" d="M23.813,22.326l-6.839-2.896l7.231,2.19L23.813,22.326z"/>
</g>
<g>
	<path fill="#1D1D1B" d="M0.723,13C0.324,13,0,12.677,0,12.277V0.723C0,0.324,0.324,0,0.723,0h11.556C12.677,0,13,0.324,13,0.723
		v11.555c0,0.4-0.323,0.723-0.722,0.723H0.723z"/>
	
		<linearGradient id="SVGID_1_" gradientUnits="userSpaceOnUse" x1="0.7627" y1="817.3105" x2="12.3184" y2="817.3105" gradientTransform="matrix(1 0 0 1 -0.04 -810.8105)">
		<stop  offset="0" style="stop-color:#F59699"/>
		<stop  offset="1" style="stop-color:#8F1A1D"/>
	</linearGradient>
	<rect x="0.723" y="0.723" fill="url(#SVGID_1_)" width="11.556" height="11.555"/>
</g>
<g>
	<g>
		<line fill="none" stroke="#000000" stroke-miterlimit="10" x1="12.278" y1="12.277" x2="15.951" y2="15.95"/>
		<g>
			<path d="M17.881,17.881c-1.102-0.506-2.605-0.992-3.761-1.072l1.831-0.859l0.858-1.832
				C16.889,15.274,17.375,16.779,17.881,17.881z"/>
		</g>
	</g>
</g>
</svg>
