<?xml version="1.0" encoding="utf-8"?>
<!-- Generator: Adobe Illustrator 14.0.0, SVG Export Plug-In . SVG Version: 6.00 Build 43363)  -->
<!DOCTYPE svg PUBLIC "-//W3C//DTD SVG 1.1//EN" "http://www.w3.org/Graphics/SVG/1.1/DTD/svg11.dtd">
<svg version="1.1"
	 id="Layer_1" xmlns:inkscape="http://www.inkscape.org/namespaces/inkscape" xmlns:rdf="http://www.w3.org/1999/02/22-rdf-syntax-ns#" xmlns:dc="http://purl.org/dc/elements/1.1/" xmlns:svg="http://www.w3.org/2000/svg" xmlns:cc="http://creativecommons.org/ns#" xmlns:sodipodi="http://sodipodi.sourceforge.net/DTD/sodipodi-0.dtd" sodipodi:docname="proc.svg" inkscape:version="0.46" sodipodi:version="0.32" inkscape:output_extension="org.inkscape.output.svg.inkscape"
	 xmlns="http://www.w3.org/2000/svg" xmlns:xlink="http://www.w3.org/1999/xlink" x="0px" y="0px" width="32px" height="32px"
	 viewBox="0 0 32 32" enable-background="new 0 0 32 32" xml:space="preserve">
<polygon points="6,30.5 1.5,30.5 1.5,1.5 6,1.5 6,0 0,0 0,0 0,1.5 0,30.5 0,32 1.5,32 6,32 "/>
<polygon points="26,0 26,1.5 30.5,1.5 30.5,30.5 26,30.5 26,32 30.5,32 30.5,32.009 32,32.009 32,32 32,30.5 32,1.5 32,0.009 32,0 
	"/>
<g>
	<path fill="#45752B" d="M4.942,21.418c-0.249,0-0.451-0.202-0.451-0.451v-6.322c-0.572,0.4-1.207,0.716-1.898,0.944
		c-0.046,0.015-0.094,0.023-0.142,0.023c-0.094,0-0.187-0.03-0.265-0.086C2.07,15.44,2,15.305,2,15.159v-1.75
		c0-0.195,0.126-0.368,0.311-0.429c0.452-0.147,0.958-0.438,1.503-0.863c0.519-0.404,0.877-0.877,1.067-1.405
		c0.065-0.181,0.234-0.301,0.425-0.301h1.564c0.25,0,0.452,0.202,0.452,0.452v10.104c0,0.249-0.202,0.451-0.452,0.451H4.942
		L4.942,21.418z"/>
	<path fill="#45752B" d="M13.015,21.589c-1.119,0-2.034-0.437-2.721-1.299c-0.672-0.842-0.998-2.251-0.998-4.307
		c0-2.018,0.355-3.446,1.086-4.37c0.631-0.797,1.517-1.202,2.633-1.202c1.116,0,2.004,0.409,2.64,1.216
		c0.727,0.913,1.079,2.346,1.079,4.377c0,2.026-0.355,3.46-1.085,4.385C15.015,21.186,14.129,21.589,13.015,21.589L13.015,21.589z
		 M13.015,12.914c-0.129,0-0.237,0.039-0.341,0.122c-0.06,0.049-0.173,0.186-0.274,0.563c-0.122,0.461-0.184,1.27-0.184,2.405
		c0,1.414,0.088,2.039,0.163,2.315c0.13,0.482,0.262,0.618,0.299,0.648c0.1,0.081,0.206,0.118,0.337,0.118
		c0.128,0,0.237-0.039,0.34-0.122c0.059-0.048,0.174-0.186,0.274-0.563c0.122-0.456,0.184-1.263,0.184-2.397
		c0-1.412-0.089-2.039-0.162-2.316c-0.131-0.484-0.264-0.622-0.301-0.652C13.248,12.952,13.143,12.914,13.015,12.914L13.015,12.914z
		"/>
	<path fill="#45752B" d="M20.576,21.418c-0.249,0-0.451-0.202-0.451-0.451v-6.322c-0.572,0.4-1.207,0.716-1.898,0.944
		c-0.046,0.015-0.092,0.023-0.141,0.023c-0.094,0-0.188-0.03-0.265-0.086c-0.117-0.085-0.188-0.222-0.188-0.366v-1.75
		c0-0.195,0.126-0.368,0.312-0.429c0.451-0.147,0.957-0.438,1.504-0.863c0.519-0.404,0.876-0.877,1.066-1.405
		c0.064-0.18,0.235-0.299,0.425-0.299h1.563c0.252,0,0.453,0.201,0.453,0.451v10.104c0,0.249-0.201,0.451-0.453,0.451h-1.928V21.418
		z"/>
	<path fill="#45752B" d="M27.619,21.418c-0.249,0-0.451-0.202-0.451-0.451v-6.322c-0.572,0.399-1.208,0.716-1.898,0.944
		c-0.047,0.015-0.094,0.023-0.142,0.023c-0.094,0-0.187-0.03-0.265-0.086c-0.117-0.085-0.188-0.222-0.188-0.366v-1.75
		c0-0.195,0.125-0.368,0.311-0.429c0.452-0.147,0.958-0.438,1.504-0.863c0.52-0.404,0.878-0.877,1.067-1.405
		c0.064-0.18,0.234-0.299,0.424-0.299h1.565C29.799,10.411,30,10.613,30,10.863v10.104c0,0.249-0.201,0.451-0.453,0.451H27.619
		L27.619,21.418z"/>
</g>
</svg>
