<?xml version="1.0" encoding="utf-8"?>
<!-- Generator: Adobe Illustrator 14.0.0, SVG Export Plug-In . SVG Version: 6.00 Build 43363)  -->
<!DOCTYPE svg PUBLIC "-//W3C//DTD SVG 1.1//EN" "http://www.w3.org/Graphics/SVG/1.1/DTD/svg11.dtd">
<svg version="1.1" id="Layer_1" xmlns="http://www.w3.org/2000/svg" xmlns:xlink="http://www.w3.org/1999/xlink" x="0px" y="0px"
	 width="32px" height="32px" viewBox="0 0 32 32" enable-background="new 0 0 32 32" xml:space="preserve">
<g id="g2880">
	<path id="path5812_2_" fill="#231F20" d="M0,24.93l0.073-0.875c0.409-4.902,5.204-8.743,10.913-8.743
		c5.707,0,10.5,3.84,10.908,8.743l0.074,0.875H0z"/>
	<path id="path5814_2_" fill="#00ACDA" d="M21.09,24.121c-0.373-4.469-4.748-8-10.104-8c-5.358,0-9.731,3.532-10.106,8H21.09z"/>
	
		<linearGradient id="path5823_1_" gradientUnits="userSpaceOnUse" x1="846.4404" y1="-1200.6406" x2="864.7686" y2="-1200.6406" gradientTransform="matrix(1 0 0 -1 -844.6201 -1180.5195)">
		<stop  offset="0" style="stop-color:#B1D2DB"/>
		<stop  offset="1" style="stop-color:#107D9F"/>
	</linearGradient>
	<path id="path5823_2_" fill="url(#path5823_1_)" d="M1.82,23.313c0.809-3.643,4.648-6.383,9.166-6.383s8.355,2.741,9.162,6.383
		H1.82z"/>
	<path id="path5827_2_" fill="#231F20" d="M9.504,23.979c-0.447,0-0.811-0.361-0.811-0.813v-5.938c0-0.446,0.361-0.809,0.811-0.809
		h2.602c0.447,0,0.809,0.359,0.809,0.809v5.938c0,0.449-0.359,0.813-0.809,0.813H9.504z"/>
	<rect id="rect5829_2_" x="9.504" y="17.23" fill="#FAA81E" width="2.602" height="5.938"/>
	<rect id="rect5831_2_" x="9.027" y="19.137" fill="#231F20" width="3.712" height="0.984"/>
	<path id="path5835_2_" fill="#231F20" d="M10.986,18.039c-3.794,0-7.109-2.557-8.109-6.163c-1.033-0.229-1.809-1.154-1.809-2.254
		c0-1.102,0.773-2.025,1.809-2.254c0.998-3.605,4.313-6.162,8.109-6.162c3.793,0,7.107,2.557,8.107,6.162
		C20.125,7.597,20.9,8.521,20.9,9.623c0,1.1-0.773,2.023-1.807,2.254C18.094,15.484,14.779,18.039,10.986,18.039L10.986,18.039z"/>
	<path id="path5837_2_" fill="#EFDACB" d="M18.592,9.623c0,4.201-3.406,7.606-7.605,7.606c-4.201,0-7.607-3.405-7.607-7.606
		c0-4.201,3.406-7.605,7.607-7.605C15.186,2.016,18.592,5.42,18.592,9.623z"/>
	<circle id="circle5839_2_" fill="#EFDACB" cx="3.379" cy="9.623" r="1.5"/>
	<circle id="circle5841_2_" fill="#EFDACB" cx="18.592" cy="9.623" r="1.5"/>
	
		<linearGradient id="path5850_1_" gradientUnits="userSpaceOnUse" x1="848.8076" y1="-1190.1416" x2="862.4014" y2="-1190.1416" gradientTransform="matrix(1 0 0 -1 -844.6201 -1180.5195)">
		<stop  offset="0" style="stop-color:#E0B59C;stop-opacity:0"/>
		<stop  offset="1" style="stop-color:#E0B59C"/>
	</linearGradient>
	<path id="path5850_2_" fill="url(#path5850_1_)" d="M10.986,16.419c-3.75,0-6.799-3.051-6.799-6.797
		c0-3.748,3.05-6.797,6.799-6.797c3.746,0,6.795,3.05,6.795,6.797C17.781,13.369,14.732,16.419,10.986,16.419L10.986,16.419z"/>
	<path id="path5852_2_" fill="#231F20" d="M3.539,8.183c-0.066,0.766,0.102,2.271,0.247,3.016C3.778,10.265,3.642,8.744,4.08,7.923
		c0.61-1.145,7.115,0.219,9.551-4.699c-0.1,1.433-0.33,2.748,3.664,5.646c0.207,0.148,1.119,2.465,1.058,2.654
		c-0.063-0.602,0.256-2.107,0.252-2.738c-0.013-1.311-0.142-2.162-0.541-2.754c-0.455-0.672-1.617-1.953-2.201-2.525
		c-1.994-1.953-5.104-2.377-7.724-1.426C6.781,2.573,5.895,3.664,4.965,4.568C4.592,4.93,2.547,7.765,3.356,8"/>
	<path id="path5854_2_" fill="#231F20" d="M13.172,1.815c0-0.604,0-1.211-0.004-1.815c0.566,1.508,0.924,1.694,2.094,0.862
		c-0.409,0.908-0.446,1.231-0.446,1.231c0.625-0.279,0.576-0.354,1.262-0.309C15.75,1.928,15.17,2.33,14.879,2.539
		c0,0.109-0.281-0.117-0.299-0.007C13.745,2,14.37,2.149,13.354,1.908"/>
</g>
<g>
	<path d="M24.002,32c-0.057,0-0.112-0.011-0.168-0.029l-7.5-2.661c-0.199-0.071-0.333-0.26-0.333-0.472v-9.705
		c0-0.157,0.075-0.307,0.202-0.4c0.083-0.063,0.183-0.096,0.284-0.1l7.347-2.604C23.89,16.009,23.945,16,24.002,16
		c0.056,0,0.112,0.009,0.167,0.029l7.346,2.604c0.235,0.008,0.436,0.18,0.479,0.412c0.007,0.043,0.008,0.084,0.006,0.125v9.668
		c0,0.212-0.133,0.4-0.332,0.472l-7.498,2.661C24.114,31.989,24.058,32,24.002,32L24.002,32z"/>
	<polygon id="polygon6708_3_" fill="#B57916" points="24.002,31.499 16.502,28.839 16.502,19.133 24.002,21.795 	"/>
	<polygon id="polygon6710_3_" fill="#F9A620" points="24.002,31.499 31.499,28.839 31.499,19.133 24.002,21.795 	"/>
	<polygon id="polygon6712_3_" fill="#F9C97D" points="16.581,19.131 16.502,19.133 16.541,19.145 16.502,19.158 16.581,19.161 
		24.002,21.795 31.423,19.161 31.499,19.158 31.463,19.145 31.499,19.133 31.423,19.131 24.002,16.5 	"/>
	
		<linearGradient id="polygon6714_1_" gradientUnits="userSpaceOnUse" x1="911.4346" y1="-1024.8916" x2="920.4545" y2="-1015.9547" gradientTransform="matrix(0.5772 0 0 -0.5772 -509.8861 -562.274)">
		<stop  offset="0" style="stop-color:#402508"/>
		<stop  offset="1" style="stop-color:#FFD3A3;stop-opacity:0"/>
	</linearGradient>
	<polygon id="polygon6714_3_" fill="url(#polygon6714_1_)" points="23.74,30.992 16.788,28.526 16.788,19.529 23.74,21.995 	"/>
	
		<linearGradient id="polygon6716_1_" gradientUnits="userSpaceOnUse" x1="975.4727" y1="-1078.2632" x2="965.2224" y2="-1067.2275" gradientTransform="matrix(0.5627 0 0 -0.5627 -516.9204 -576.75)">
		<stop  offset="0" style="stop-color:#FFF4E8"/>
		<stop  offset="1" style="stop-color:#FFECD6;stop-opacity:0"/>
	</linearGradient>
	<polygon id="polygon6716_3_" fill="url(#polygon6716_1_)" points="24.219,30.871 30.996,28.468 30.996,19.695 24.219,22.099 	"/>
	
		<linearGradient id="path6718_1_" gradientUnits="userSpaceOnUse" x1="-2317.3887" y1="2271.8623" x2="-2329.0632" y2="2271.8921" gradientTransform="matrix(0 -0.6226 0.6226 0 -1390.5364 -1420.3357)">
		<stop  offset="0" style="stop-color:#FFFFFF"/>
		<stop  offset="1" style="stop-color:#FFFFFF;stop-opacity:0"/>
	</linearGradient>
	<path id="path6718_3_" fill="url(#path6718_1_)" d="M23.497,21.688l0.405,9.632h-0.004l0.451-9.768L23.497,21.688z"/>
	
		<linearGradient id="path6720_1_" gradientUnits="userSpaceOnUse" x1="-1067.0151" y1="-1189.4229" x2="-1076.9594" y2="-1189.4181" gradientTransform="matrix(-0.5857 0.2112 -0.2112 -0.5857 -851.751 -449.6281)">
		<stop  offset="0" style="stop-color:#FFFFFF"/>
		<stop  offset="1" style="stop-color:#FFFFFF;stop-opacity:0"/>
	</linearGradient>
	<path id="path6720_3_" fill="url(#path6720_1_)" d="M24.027,22.253l7.475-3.12l-7.892,2.364L24.027,22.253z"/>
	
		<linearGradient id="path6722_1_" gradientUnits="userSpaceOnUse" x1="1362.5684" y1="-313.2515" x2="1352.9996" y2="-313.2431" gradientTransform="matrix(0.5857 0.2112 0.2112 -0.5857 -708.5917 -449.6574)">
		<stop  offset="0" style="stop-color:#FFFFFF"/>
		<stop  offset="1" style="stop-color:#FFFFFF;stop-opacity:0"/>
	</linearGradient>
	<path id="path6722_3_" fill="url(#path6722_1_)" d="M23.795,22.218l-7.293-3.085l7.711,2.33L23.795,22.218z"/>
</g>
</svg>
