<?xml version="1.0" encoding="utf-8"?>
<!-- Generator: Adobe Illustrator 14.0.0, SVG Export Plug-In . SVG Version: 6.00 Build 43363)  -->
<!DOCTYPE svg PUBLIC "-//W3C//DTD SVG 1.1//EN" "http://www.w3.org/Graphics/SVG/1.1/DTD/svg11.dtd">
<svg version="1.1" id="Layer_1" xmlns="http://www.w3.org/2000/svg" xmlns:xlink="http://www.w3.org/1999/xlink" x="0px" y="0px"
	 width="32px" height="32px" viewBox="0 0 32 32" enable-background="new 0 0 32 32" xml:space="preserve">
<g>
	<path fill="#0016DA" d="M8.72,14.523c-0.195,0-0.37-0.12-0.44-0.302L7.7,12.712H5.167l-0.545,1.5
		c-0.068,0.186-0.245,0.311-0.443,0.311H2.471c-0.155,0-0.301-0.077-0.389-0.205c-0.088-0.129-0.107-0.292-0.05-0.437l3.105-7.973
		c0.07-0.181,0.245-0.3,0.439-0.3h1.702c0.192,0,0.366,0.118,0.438,0.296l3.192,7.973c0.059,0.145,0.041,0.31-0.047,0.439
		c-0.088,0.129-0.234,0.208-0.39,0.208H8.72z M6.83,10.427L6.413,9.305l-0.408,1.122H6.83z"/>
	<path fill="#0016DA" d="M11.33,14.523c-0.26,0-0.471-0.211-0.471-0.471V6.08c0-0.26,0.211-0.471,0.471-0.471h3.186
		c0.666,0,1.153,0.028,1.492,0.085c0.375,0.063,0.718,0.2,1.018,0.405c0.301,0.204,0.554,0.479,0.752,0.816
		c0.206,0.35,0.311,0.744,0.311,1.172c0,0.464-0.127,0.896-0.376,1.283c-0.085,0.13-0.179,0.25-0.283,0.359
		c0.218,0.145,0.406,0.321,0.563,0.524c0.323,0.424,0.487,0.925,0.487,1.489c0,0.435-0.101,0.861-0.301,1.266
		c-0.202,0.411-0.485,0.747-0.841,0.998c-0.359,0.25-0.796,0.406-1.301,0.461c-0.288,0.031-0.938,0.05-1.989,0.057
		c-0.001,0-0.002,0-0.004,0H11.33z M14.43,12.237c0.741,0,0.951-0.027,1.007-0.038c0.148-0.027,0.25-0.082,0.332-0.172
		c0.069-0.078,0.104-0.197,0.104-0.363c0-0.142-0.029-0.253-0.089-0.34c-0.058-0.084-0.146-0.146-0.27-0.188
		c-0.076-0.027-0.354-0.088-1.274-0.088h-0.828v1.189H14.43z M13.995,8.779c0.794,0,1.039-0.015,1.113-0.024
		c0.168-0.02,0.293-0.071,0.374-0.151c0.045-0.045,0.097-0.119,0.097-0.29c0-0.192-0.064-0.265-0.085-0.29
		c-0.056-0.063-0.161-0.105-0.311-0.124c-0.076-0.008-0.353-0.024-1.319-0.024h-0.453v0.901H13.995z"/>
	<path fill="#0016DA" d="M22.717,14.659c-1.189,0-2.182-0.415-2.953-1.233c-0.764-0.811-1.149-1.917-1.149-3.29
		c0-1.444,0.388-2.592,1.153-3.413c0.775-0.83,1.801-1.251,3.048-1.251c1.095,0,2.003,0.334,2.699,0.994
		c0.424,0.397,0.742,0.963,0.945,1.681c0.035,0.124,0.019,0.256-0.045,0.368c-0.066,0.11-0.174,0.19-0.298,0.22l-1.594,0.381
		c-0.036,0.008-0.073,0.013-0.11,0.013c-0.086,0-0.172-0.024-0.247-0.07c-0.107-0.067-0.185-0.173-0.212-0.296
		c-0.07-0.31-0.209-0.544-0.424-0.716c-0.216-0.172-0.477-0.256-0.797-0.256c-0.452,0-0.806,0.155-1.082,0.474
		c-0.29,0.334-0.438,0.924-0.438,1.753c0,0.876,0.15,1.515,0.433,1.849c0.274,0.324,0.609,0.475,1.055,0.475
		c0.312,0,0.57-0.095,0.793-0.29c0.23-0.204,0.404-0.553,0.515-1.036c0.029-0.128,0.111-0.238,0.226-0.304
		c0.071-0.041,0.152-0.062,0.233-0.062c0.048,0,0.096,0.007,0.143,0.022l1.561,0.495c0.241,0.076,0.38,0.33,0.313,0.574
		c-0.267,0.968-0.725,1.705-1.363,2.189S23.674,14.659,22.717,14.659L22.717,14.659z"/>
</g>
<g>
	<path fill="#0016DA" d="M7.716,25.104c-0.242,0-0.437-0.195-0.437-0.438v-8.312c0-0.241,0.195-0.437,0.437-0.437h3.067
		c0.74,0,1.298,0.057,1.705,0.177c0.561,0.166,1.048,0.463,1.448,0.885c0.39,0.411,0.689,0.918,0.89,1.506
		c0.196,0.574,0.296,1.282,0.296,2.105c0,0.729-0.094,1.371-0.279,1.911c-0.229,0.667-0.565,1.219-0.999,1.641
		c-0.338,0.329-0.792,0.587-1.351,0.764c-0.417,0.135-0.947,0.198-1.619,0.198H7.716z M10.648,22.829
		c0.535,0,0.789-0.036,0.907-0.065c0.202-0.051,0.367-0.133,0.492-0.247c0.082-0.074,0.203-0.238,0.314-0.606
		c0.101-0.327,0.151-0.797,0.151-1.394c0-0.595-0.049-1.046-0.147-1.344c-0.09-0.273-0.212-0.483-0.362-0.625
		c-0.146-0.139-0.332-0.229-0.569-0.282c-0.142-0.031-0.478-0.068-1.286-0.068H9.832v4.632H10.648z"/>
	<path fill="#0016DA" d="M16.108,25.104c-0.243,0-0.437-0.195-0.437-0.438v-8.312c0-0.241,0.194-0.437,0.437-0.437h6.164
		c0.239,0,0.437,0.196,0.437,0.437v1.406c0,0.242-0.197,0.438-0.437,0.438h-4.05v0.969h3.735c0.243,0,0.438,0.196,0.438,0.437v1.401
		c0,0.24-0.194,0.438-0.438,0.438h-3.735v1.388h4.207c0.241,0,0.438,0.195,0.438,0.436v1.401c0,0.242-0.196,0.438-0.438,0.438
		H16.108z"/>
	<path fill="#0016DA" d="M23.864,25.104c-0.24,0-0.438-0.195-0.438-0.438v-8.312c0-0.241,0.197-0.437,0.438-0.437h5.698
		c0.242,0,0.438,0.196,0.438,0.437v1.406c0,0.242-0.195,0.438-0.438,0.438H25.98v1.094h3.032c0.24,0,0.438,0.195,0.438,0.438v1.405
		c0,0.242-0.197,0.438-0.438,0.438H25.98v3.095c0,0.242-0.196,0.438-0.438,0.438H23.864z"/>
</g>
<g>
	<polygon points="6,30.496 1.5,30.496 1.5,1.496 6,1.496 6,-0.004 0,-0.004 0,-0.004 0,1.496 0,30.496 0,31.996 1.5,31.996 
		6,31.996 	"/>
	<polygon points="26,-0.004 26,1.496 30.5,1.496 30.5,30.496 26,30.496 26,31.996 30.5,31.996 30.5,32.004 32,32.004 32,31.996 
		32,30.496 32,1.496 32,0.004 32,-0.004 	"/>
</g>
</svg>
