<?xml version="1.0" encoding="utf-8"?>
<!-- Generator: Adobe Illustrator 14.0.0, SVG Export Plug-In . SVG Version: 6.00 Build 43363)  -->
<!DOCTYPE svg PUBLIC "-//W3C//DTD SVG 1.1//EN" "http://www.w3.org/Graphics/SVG/1.1/DTD/svg11.dtd">
<svg version="1.1" id="Layer_1" xmlns="http://www.w3.org/2000/svg" xmlns:xlink="http://www.w3.org/1999/xlink" x="0px" y="0px"
	 width="32px" height="32px" viewBox="0 0 32 32" enable-background="new 0 0 32 32" xml:space="preserve">
<path fill="#6EBD46" d="M4.066,23.591c-0.285,0-0.516-0.23-0.516-0.516v-9.256c-0.855,0.631-1.817,1.125-2.872,1.474
	c-0.053,0.017-0.107,0.025-0.162,0.025c-0.107,0-0.213-0.033-0.302-0.098C0.08,15.124,0,14.968,0,14.803v-2.494
	c0-0.223,0.144-0.421,0.355-0.49c0.657-0.215,1.391-0.636,2.181-1.251C3.294,9.977,3.82,9.283,4.098,8.507
	c0.073-0.205,0.268-0.342,0.486-0.342h2.229c0.285,0,0.516,0.231,0.516,0.517v14.394c0,0.285-0.231,0.516-0.516,0.516H4.066z"/>
<path fill="#6EBD46" d="M10.567,23.591c-0.147,0-0.287-0.063-0.384-0.171c-0.098-0.109-0.145-0.255-0.129-0.401
	c0.112-1.034,0.452-2.028,1.01-2.953c0.549-0.911,1.589-2.072,3.18-3.549c1.497-1.394,2.025-1.998,2.204-2.26
	c0.315-0.473,0.478-0.942,0.478-1.391c0-0.475-0.112-0.817-0.344-1.048c-0.23-0.23-0.557-0.343-0.998-0.343
	c-0.434,0-0.761,0.119-1.001,0.364c-0.245,0.249-0.397,0.73-0.439,1.392c-0.01,0.141-0.075,0.271-0.182,0.361
	c-0.094,0.079-0.212,0.122-0.334,0.122c-0.017,0-0.034-0.001-0.052-0.002l-2.737-0.274c-0.137-0.014-0.263-0.081-0.35-0.188
	c-0.086-0.107-0.127-0.244-0.112-0.381c0.178-1.651,0.762-2.866,1.734-3.611c0.948-0.726,2.14-1.094,3.54-1.094
	c1.544,0,2.785,0.433,3.688,1.285c0.913,0.86,1.375,1.943,1.375,3.221c0,0.706-0.129,1.39-0.383,2.033
	c-0.249,0.626-0.644,1.286-1.175,1.962c-0.352,0.449-0.959,1.067-1.855,1.891c-0.895,0.82-1.321,1.238-1.523,1.45h4.42
	c0.285,0,0.517,0.23,0.517,0.516v2.553c0,0.285-0.231,0.516-0.517,0.516H10.567z"/>
<path fill="#6EBD46" d="M26.674,23.835c-1.422,0-2.622-0.419-3.567-1.248c-0.949-0.829-1.508-1.925-1.659-3.257
	c-0.032-0.282,0.169-0.537,0.451-0.571l2.659-0.323c0.021-0.003,0.042-0.004,0.063-0.004c0.257,0,0.479,0.191,0.512,0.452
	c0.069,0.556,0.249,0.976,0.531,1.248c0.273,0.265,0.598,0.394,0.99,0.394c0.418,0,0.761-0.155,1.048-0.475
	c0.304-0.336,0.45-0.792,0.45-1.396c0-0.562-0.138-0.984-0.421-1.292c-0.275-0.301-0.586-0.44-0.979-0.44
	c-0.304,0-0.682,0.063-1.123,0.187c-0.046,0.013-0.093,0.02-0.139,0.02c-0.123,0-0.244-0.045-0.339-0.127
	c-0.131-0.114-0.196-0.287-0.173-0.459l0.304-2.239c0.034-0.257,0.254-0.446,0.511-0.446c0.005,0,0.12,0.001,0.12,0.001
	c0.552,0,0.97-0.12,1.241-0.357c0.28-0.245,0.411-0.556,0.411-0.976c0-0.343-0.092-0.601-0.279-0.789
	c-0.188-0.188-0.442-0.279-0.779-0.279c-0.332,0-0.607,0.111-0.841,0.341c-0.245,0.241-0.398,0.616-0.455,1.118
	c-0.016,0.141-0.09,0.269-0.203,0.354c-0.09,0.067-0.199,0.104-0.31,0.104c-0.029,0-0.058-0.003-0.086-0.008l-2.533-0.43
	c-0.138-0.023-0.261-0.103-0.34-0.218c-0.078-0.115-0.107-0.258-0.079-0.395c0.189-0.932,0.484-1.694,0.876-2.267
	c0.407-0.593,0.977-1.063,1.693-1.397c0.703-0.328,1.495-0.494,2.355-0.494c1.491,0,2.709,0.488,3.622,1.452
	c0.761,0.798,1.147,1.721,1.147,2.74c0,1.141-0.481,2.103-1.433,2.871c0.477,0.243,0.886,0.578,1.226,1.001
	C31.713,16.933,32,17.788,32,18.772c0,1.397-0.517,2.604-1.536,3.589C29.449,23.34,28.175,23.835,26.674,23.835L26.674,23.835z"/>
</svg>
