<?xml version="1.0" encoding="utf-8"?>
<!-- Generator: Adobe Illustrator 14.0.0, SVG Export Plug-In . SVG Version: 6.00 Build 43363)  -->
<!DOCTYPE svg PUBLIC "-//W3C//DTD SVG 1.1//EN" "http://www.w3.org/Graphics/SVG/1.1/DTD/svg11.dtd">
<svg version="1.1" id="Layer_1" xmlns="http://www.w3.org/2000/svg" xmlns:xlink="http://www.w3.org/1999/xlink" x="0px" y="0px"
	 width="32px" height="32px" viewBox="0 0 32 32" enable-background="new 0 0 32 32" xml:space="preserve">
<g>
	<path id="path4251_1_" fill="#020202" d="M15.402,26.094c-0.716,0-1.36-0.426-1.638-1.084l-0.514-1.208
		c-0.097,0.004-0.324,0.005-0.339,0.005l-0.494,1.215c-0.042,0.102-0.103,0.196-0.181,0.274l-0.499,0.509
		c-0.158,0.159-0.372,0.25-0.598,0.254c0,0-0.709,0.007-0.713,0.007c-0.109,0-0.219-0.021-0.319-0.062l-4.036-1.636
		c-0.675-0.273-1.11-0.92-1.11-1.647c0-0.236,0.047-0.462,0.135-0.673l0.497-1.233c-0.077-0.073-0.153-0.147-0.229-0.225
		l-0.837,0.357c-0.482,0.203-0.482,0.203-0.58,0.222c-0.05,0.01-0.098,0.015-0.151,0.015l-0.705,0.002
		c-0.223,0-0.436-0.089-0.593-0.243l-0.507-0.493c-0.08-0.08-0.145-0.173-0.188-0.276l-1.698-4.009
		c-0.043-0.104-0.066-0.215-0.068-0.327l-0.003-0.708c-0.002-0.225,0.088-0.44,0.244-0.6l0.495-0.506
		c0.078-0.079,0.171-0.143,0.274-0.188l1.196-0.507c-0.005-0.088-0.006-0.322-0.006-0.353c-0.542-0.219-1.128-0.457-1.191-0.48
		c-0.106-0.042-0.205-0.105-0.289-0.188l-0.5-0.494c-0.16-0.157-0.251-0.372-0.254-0.597L0,10.509
		c-0.001-0.112,0.02-0.224,0.062-0.328l1.633-4.036c0.042-0.103,0.103-0.196,0.181-0.276l0.495-0.506
		c0.16-0.161,0.372-0.253,0.6-0.256c0,0,0.715-0.007,0.718-0.007c0.11,0,0.22,0.021,0.321,0.063l1.238,0.501
		C5.32,5.588,5.395,5.512,5.472,5.437c0,0-0.539-1.275-0.54-1.276C4.898,4.067,4.88,3.972,4.88,3.873V3.813
		c-0.232-0.33-0.206-0.788,0.088-1.086L5.62,2.063c0.08-0.079,0.169-0.143,0.272-0.186l4.007-1.7
		c0.225-0.092,0.454-0.138,0.691-0.138c0.716,0,1.361,0.426,1.638,1.086l0.514,1.204c0.089-0.001,0.319-0.003,0.34-0.003
		l0.492-1.217C13.851,0.436,14.499,0,15.225,0c0.228,0,0.449,0.043,0.66,0.129l4.037,1.636c0.675,0.276,1.108,0.922,1.108,1.648
		c0,0.225-0.043,0.447-0.126,0.661l-0.506,1.244c0.077,0.075,0.153,0.15,0.229,0.227l1.23-0.522
		c0.104-0.043,0.213-0.065,0.326-0.067c0,0,0.713-0.006,0.714-0.006c0.225,0,0.438,0.087,0.595,0.242l0.509,0.494
		c0.08,0.079,0.145,0.173,0.188,0.276l1.7,4.013c0.047,0.103,0.066,0.215,0.068,0.327l0.003,0.705c0,0.226-0.088,0.439-0.244,0.6
		l-0.495,0.506c-0.08,0.08-0.171,0.144-0.274,0.188l-1.196,0.507c0.005,0.088,0.007,0.323,0.007,0.352l1.194,0.486
		c0.104,0.041,0.194,0.101,0.274,0.178l0.509,0.495c0.162,0.159,0.254,0.373,0.257,0.602L26,15.629
		c0.002,0.111-0.021,0.225-0.062,0.327l-1.634,4.038c-0.278,0.674-0.925,1.107-1.649,1.107c-0.228,0-0.447-0.043-0.658-0.128
		l-1.244-0.503c-0.076,0.076-0.153,0.154-0.229,0.229c0.259,0.604,0.535,1.258,0.55,1.301c0.028,0.086,0.045,0.175,0.045,0.268
		l0.002,0.697c0.002,0.223-0.088,0.438-0.243,0.596l-0.496,0.508c-0.078,0.082-0.173,0.145-0.276,0.189l-4.008,1.7
		C15.871,26.049,15.639,26.094,15.402,26.094L15.402,26.094z M10.217,23.046c0.228-0.557,0.637-1.568,0.637-1.568
		c0.131-0.325,0.445-0.533,0.787-0.533c0.03,0,0.062,0.002,0.092,0.005l0.404,0.043c0.291,0.032,0.578,0.047,0.865,0.047
		c0.328,0,0.655-0.019,0.974-0.06l0.412-0.052c0.034-0.005,0.067-0.007,0.101-0.007c0.338,0,0.65,0.203,0.785,0.521L15.931,23
		c0.635-0.27,1.521-0.646,2.157-0.914l-0.66-1.558c-0.149-0.351-0.048-0.757,0.249-0.995l0.319-0.256
		c0.477-0.384,0.912-0.825,1.291-1.313l0.248-0.318c0.164-0.215,0.415-0.331,0.673-0.331c0.106,0,0.214,0.019,0.318,0.062
		l1.574,0.635c0.179-0.443,0.875-2.172,0.875-2.172l-1.568-0.637c-0.353-0.141-0.566-0.5-0.526-0.877l0.045-0.403
		c0.031-0.291,0.048-0.573,0.048-0.855c0-0.338-0.021-0.669-0.062-0.981l-0.053-0.402c-0.054-0.38,0.159-0.745,0.512-0.895
		l1.562-0.662l-0.914-2.158c-0.686,0.291-1.56,0.661-1.56,0.661c-0.106,0.045-0.22,0.067-0.331,0.067
		c-0.253,0-0.5-0.113-0.664-0.319l-0.255-0.316c-0.384-0.477-0.827-0.912-1.313-1.289l-0.32-0.249
		c-0.301-0.232-0.409-0.638-0.267-0.992l0.637-1.569l-2.172-0.878c-0.278,0.69-0.635,1.568-0.635,1.568
		c-0.131,0.324-0.443,0.532-0.789,0.532c-0.029,0-0.058-0.002-0.09-0.004l-0.406-0.043c-0.29-0.031-0.575-0.047-0.864-0.047
		c-0.326,0-0.657,0.019-0.98,0.059l-0.396,0.052c-0.037,0.005-0.073,0.008-0.11,0.008c-0.339,0-0.649-0.202-0.782-0.52l-0.662-1.559
		C9.424,3.401,8.539,3.776,7.904,4.044l0.66,1.561c0.15,0.353,0.047,0.76-0.25,0.997L7.994,6.855
		c-0.479,0.383-0.911,0.823-1.291,1.31L6.457,8.482C6.292,8.695,6.042,8.813,5.784,8.813c-0.108,0-0.216-0.021-0.319-0.062
		c0,0-0.874-0.354-1.57-0.637c0,0-0.673,1.663-0.879,2.172c0.69,0.279,1.569,0.635,1.569,0.635c0.354,0.143,0.568,0.501,0.526,0.88
		l-0.045,0.406c-0.03,0.282-0.046,0.568-0.046,0.854c0,0.323,0.019,0.655,0.06,0.988l0.051,0.407
		c0.046,0.375-0.163,0.737-0.513,0.887c0,0-0.868,0.365-1.557,0.656c0.269,0.637,0.645,1.522,0.914,2.157
		c0.683-0.291,1.555-0.663,1.555-0.663c0.108-0.045,0.223-0.068,0.334-0.068c0.252,0,0.5,0.114,0.665,0.319l0.256,0.318
		c0.384,0.48,0.824,0.912,1.306,1.288l0.322,0.249c0.302,0.231,0.412,0.64,0.269,0.994l-0.636,1.573L10.217,23.046z"/>
	<path id="path1817_1_" fill="#FFFFFF" d="M21.027,10.887c0.126,0.819,0.139,1.663,0.02,2.509l0.914,0.371
		c0.057-0.715,0.033-1.43-0.077-2.125l2.361-1.001l-1.699-4.009l-0.587,0.249l1.294,3.061L21.027,10.887z"/>
	<path id="path1819_1_" fill="#FFFFFF" d="M19.503,17.199c-0.5,0.691-1.097,1.293-1.758,1.789l0.942,2.231l-3.776,1.602
		l-0.944-2.228c-0.821,0.126-1.667,0.138-2.51,0.02l-0.909,2.245l-3.325-1.348L6.743,22.7l4.031,1.635l0.967-2.381
		c0.894,0.125,1.79,0.115,2.66-0.023l1.001,2.365l4.006-1.698l-1.002-2.363c0.704-0.528,1.337-1.166,1.865-1.897l2.382,0.962
		l1.635-4.032l-1.189-0.48l-1.345,3.323L19.503,17.199z"/>
	<path id="path1821_1_" fill="#FFFFFF" d="M5.859,17.313l-2.231,0.943l-1.293-3.059l-0.59,0.252l1.696,4.006l2.363-1.002
		c0.424,0.565,0.92,1.077,1.472,1.534l0.372-0.916C6.96,18.568,6.359,17.974,5.859,17.313z"/>
	
		<linearGradient id="path1830_2_" gradientUnits="userSpaceOnUse" x1="-445.4668" y1="208.7383" x2="-444.3866" y2="208.7383" gradientTransform="matrix(5.1929 22.7877 22.7877 -5.1929 -2432.7581 11238.248)">
		<stop  offset="0" style="stop-color:#F7F7FB"/>
		<stop  offset="0.5773" style="stop-color:#C9EAFB"/>
		<stop  offset="1" style="stop-color:#F8F8F7"/>
	</linearGradient>
	<path id="path1830_1_" fill="url(#path1830_2_)" d="M4.087,11.786C4,12.403,3.981,13.022,4.022,13.632
		c0.017,0.272,0.043,0.547,0.086,0.815l-1.772,0.75l1.294,3.059l2.231-0.943c0.499,0.662,1.1,1.258,1.79,1.759l-0.372,0.916
		c0.14,0.114,0.279,0.229,0.424,0.332l-0.48,1.191l3.323,1.348l0.909-2.245c0.846,0.116,1.69,0.106,2.512-0.021l0.944,2.229
		l3.778-1.602l-0.945-2.231c0.664-0.496,1.259-1.098,1.761-1.789l2.246,0.909l1.345-3.325l-1.189-0.48
		c0.026-0.179,0.039-0.357,0.055-0.536l-0.914-0.373c0.119-0.844,0.106-1.687-0.02-2.509l2.229-0.943l-1.296-3.061l-1.773,0.754
		c-0.161-0.219-0.34-0.427-0.523-0.629c-0.41-0.452-0.868-0.869-1.369-1.236l0.963-2.381l-4.033-1.633l-0.967,2.381
		c-0.899-0.129-1.793-0.115-2.662,0.019l-1.004-2.363l-0.115,0.049L6.701,3.441L6.586,3.49L7.59,5.854
		c-0.706,0.53-1.336,1.167-1.866,1.898L3.341,6.788l-1.346,3.324l-0.288,0.71L4.087,11.786z M11.661,16.342
		c-1.321-0.533-2.143-1.776-2.213-3.112c-0.027-0.504,0.05-1.021,0.252-1.522c0.734-1.817,2.81-2.698,4.629-1.959
		c0.499,0.199,0.926,0.507,1.267,0.875c0.912,0.979,1.23,2.435,0.696,3.755C15.557,16.2,13.482,17.076,11.661,16.342z"/>
	<path id="path4266_1_" fill="#020202" d="M16.67,14.522c0.816-2.015-0.159-4.317-2.176-5.133c-2.016-0.815-4.317,0.158-5.133,2.177
		c-0.816,2.012,0.161,4.316,2.177,5.133C13.552,17.515,15.854,16.538,16.67,14.522z M15.958,14.233
		c-0.657,1.623-2.509,2.404-4.129,1.751c-1.622-0.654-2.406-2.509-1.751-4.13c0.657-1.622,2.509-2.407,4.129-1.752
		C15.828,10.76,16.612,12.613,15.958,14.233z"/>
	<path id="path1834_1_" fill="#2788C5" d="M16.652,14.524c0.815-2.017-0.161-4.315-2.179-5.133
		c-2.014-0.816-4.315,0.158-5.131,2.175c-0.815,2.012,0.16,4.316,2.175,5.133C13.533,17.515,15.836,16.538,16.652,14.524z
		 M15.938,14.235c-0.656,1.623-2.509,2.402-4.13,1.749c-1.622-0.656-2.406-2.511-1.75-4.132c0.656-1.62,2.509-2.405,4.129-1.748
		C15.807,10.761,16.592,12.616,15.938,14.235z"/>
	<path id="path1838_1_" fill="#2788C5" d="M15.781,25.17l4.008-1.7l0.497-0.51l-0.004-0.696c-0.001-0.005-0.507-1.191-0.759-1.788
		c0.36-0.315,0.694-0.656,1.01-1.023c0.472,0.191,1.791,0.726,1.791,0.726c0.473,0.189,1.011-0.041,1.205-0.51l1.632-4.036
		l-0.009-0.709l-0.51-0.497c0,0-1.158-0.472-1.76-0.713c0.015-0.218,0.036-0.431,0.036-0.646c0-0.271-0.026-0.541-0.053-0.81
		c0.485-0.206,1.758-0.746,1.758-0.746l0.497-0.506l-0.004-0.704l-1.699-4.013l-0.505-0.494L22.203,5.8c0,0-1.311,0.556-1.779,0.755
		c-0.319-0.363-0.658-0.699-1.023-1.01c0.191-0.471,0.725-1.791,0.725-1.791c0.046-0.115,0.067-0.232,0.067-0.346
		c0-0.365-0.219-0.715-0.574-0.861L15.58,0.913c-0.472-0.19-1.01,0.037-1.204,0.511c0,0-0.471,1.165-0.717,1.77
		c-0.481-0.033-0.97-0.025-1.455,0.013C12,2.72,11.458,1.452,11.458,1.452c-0.196-0.47-0.739-0.691-1.211-0.495l-4.006,1.7
		L5.746,3.159L5.591,3.317l0.151-0.155l0.005,0.703c0.001,0.003,0.506,1.192,0.756,1.783C6.146,5.964,5.807,6.306,5.497,6.673
		C5.023,6.483,3.706,5.947,3.706,5.947L2.996,5.953L2.5,6.46l-1.633,4.036l0.007,0.71l0.502,0.493c0.001,0,1.165,0.472,1.768,0.716
		c-0.015,0.215-0.035,0.433-0.035,0.646c0,0.272,0.028,0.54,0.051,0.812c-0.488,0.207-1.756,0.744-1.756,0.744L0.907,15.12
		l0.005,0.708l1.698,4.01l0.503,0.493H3.82c0.003-0.003,1.19-0.509,1.785-0.76c0.317,0.362,0.66,0.698,1.023,1.009
		c-0.189,0.472-0.726,1.791-0.726,1.791c-0.048,0.115-0.066,0.231-0.066,0.346c0,0.367,0.218,0.715,0.577,0.861l4.034,1.635
		l0.705-0.009l0.501-0.507c0,0,0.514-1.27,0.715-1.763c0.49,0.031,0.975,0.025,1.455-0.015c0.208,0.488,0.746,1.756,0.746,1.756
		C14.768,25.146,15.312,25.365,15.781,25.17z M11.51,22.174c0,0-0.701,1.731-0.801,1.978c-0.257-0.104-3.494-1.413-3.747-1.516
		c0.146-0.362,0.956-2.359,0.956-2.359l-0.324-0.249c-0.533-0.414-1.022-0.895-1.451-1.43l-0.256-0.318c0,0-2.095,0.892-2.343,0.995
		c-0.104-0.249-1.467-3.47-1.577-3.724c0.364-0.154,2.343-0.992,2.343-0.992l-0.051-0.405c-0.045-0.36-0.066-0.727-0.066-1.093
		c0-0.315,0.018-0.631,0.051-0.946l0.045-0.404c0,0-2.108-0.854-2.358-0.957c0.106-0.257,1.413-3.49,1.517-3.745
		c0.367,0.147,2.358,0.954,2.358,0.954L6.055,7.64c0.42-0.54,0.9-1.026,1.429-1.45l0.319-0.254c0,0-0.891-2.101-0.994-2.345
		c0.239-0.101,3.468-1.469,3.724-1.577c0.154,0.362,0.994,2.343,0.994,2.343l0.405-0.053c0.678-0.081,1.364-0.088,2.035-0.014
		l0.407,0.042c0,0,0.854-2.108,0.952-2.358c0.259,0.104,3.494,1.414,3.75,1.519c-0.147,0.362-0.957,2.358-0.957,2.358L18.443,6.1
		c0.531,0.415,1.021,0.896,1.45,1.429l0.255,0.317c0,0,2.097-0.887,2.344-0.993c0.11,0.261,1.471,3.473,1.577,3.726
		c-0.348,0.146-2.347,0.994-2.347,0.994l0.054,0.402c0.048,0.361,0.068,0.727,0.068,1.092c0,0.314-0.017,0.629-0.052,0.944
		l-0.042,0.403c0,0,2.107,0.854,2.354,0.954c-0.104,0.261-1.412,3.494-1.517,3.748c-0.248-0.1-2.356-0.953-2.356-0.953l-0.251,0.322
		c-0.42,0.538-0.898,1.028-1.427,1.45l-0.319,0.256c0,0,0.886,2.096,0.992,2.341c-0.253,0.106-3.466,1.473-3.724,1.579
		c-0.152-0.36-0.99-2.343-0.99-2.343l-0.407,0.05c-0.668,0.086-1.351,0.091-2.035,0.019l-0.407-0.047L11.51,22.174L11.51,22.174z"/>
</g>
<g>
	<g>
		<path d="M24.001,32c-0.057,0-0.111-0.011-0.168-0.029l-7.5-2.66C16.134,29.239,16,29.05,16,28.838v-9.705
			c0-0.156,0.075-0.307,0.202-0.4c0.083-0.063,0.183-0.096,0.283-0.1l7.348-2.604C23.89,16.009,23.944,16,24.001,16
			s0.112,0.009,0.167,0.029l7.347,2.604c0.234,0.008,0.436,0.18,0.479,0.412c0.007,0.043,0.008,0.084,0.006,0.125v9.668
			c0,0.212-0.133,0.4-0.332,0.473l-7.498,2.66C24.113,31.989,24.058,32,24.001,32L24.001,32z"/>
		<polygon id="polygon6708_3_" fill="#B57916" points="24.001,31.499 16.501,28.839 16.501,19.133 24.001,21.795 		"/>
		<polygon id="polygon6710_3_" fill="#F9A620" points="24.001,31.499 31.498,28.839 31.498,19.133 24.001,21.795 		"/>
		<polygon id="polygon6712_3_" fill="#F9C97D" points="16.58,19.131 16.501,19.133 16.54,19.145 16.501,19.158 16.58,19.161 
			24.001,21.795 31.422,19.161 31.498,19.158 31.462,19.145 31.498,19.133 31.422,19.131 24.001,16.5 		"/>
		
			<linearGradient id="polygon6714_1_" gradientUnits="userSpaceOnUse" x1="1399.2021" y1="1758.2773" x2="1408.2218" y2="1749.3408" gradientTransform="matrix(0.5772 0 0 0.5772 -791.4266 -985.5839)">
			<stop  offset="0" style="stop-color:#402508"/>
			<stop  offset="1" style="stop-color:#FFD3A3;stop-opacity:0"/>
		</linearGradient>
		<polygon id="polygon6714_3_" fill="url(#polygon6714_1_)" points="23.739,30.992 16.787,28.525 16.787,19.529 23.739,21.995 		"/>
		
			<linearGradient id="polygon6716_1_" gradientUnits="userSpaceOnUse" x1="1475.8096" y1="1829.7236" x2="1465.5593" y2="1818.688" gradientTransform="matrix(0.5627 0 0 0.5627 -798.4603 -999.5966)">
			<stop  offset="0" style="stop-color:#FFF4E8"/>
			<stop  offset="1" style="stop-color:#FFECD6;stop-opacity:0"/>
		</linearGradient>
		<polygon id="polygon6716_3_" fill="url(#polygon6716_1_)" points="24.218,30.871 30.995,28.468 30.995,19.695 24.218,22.1 		"/>
		
			<linearGradient id="path6718_1_" gradientUnits="userSpaceOnUse" x1="-2967.6289" y1="-2692.062" x2="-2979.3042" y2="-2692.0918" gradientTransform="matrix(0 -0.6226 -0.6226 0 -1652.1533 -1825.1758)">
			<stop  offset="0" style="stop-color:#FFFFFF"/>
			<stop  offset="1" style="stop-color:#FFFFFF;stop-opacity:0"/>
		</linearGradient>
		<path id="path6718_3_" fill="url(#path6718_1_)" d="M23.496,21.688l0.405,9.633h-0.004l0.451-9.769L23.496,21.688z"/>
		
			<linearGradient id="path6720_1_" gradientUnits="userSpaceOnUse" x1="-1271.8262" y1="1986.4834" x2="-1281.7708" y2="1986.4786" gradientTransform="matrix(-0.5857 0.2112 0.2112 0.5857 -1140.0498 -873.2103)">
			<stop  offset="0" style="stop-color:#FFFFFF"/>
			<stop  offset="1" style="stop-color:#FFFFFF;stop-opacity:0"/>
		</linearGradient>
		<path id="path6720_3_" fill="url(#path6720_1_)" d="M24.026,22.253l7.475-3.12l-7.893,2.364L24.026,22.253z"/>
		
			<linearGradient id="path6722_1_" gradientUnits="userSpaceOnUse" x1="2008.5107" y1="803.5332" x2="1998.9427" y2="803.5248" gradientTransform="matrix(0.5857 0.2112 -0.2112 0.5857 -983.3735 -873.2396)">
			<stop  offset="0" style="stop-color:#FFFFFF"/>
			<stop  offset="1" style="stop-color:#FFFFFF;stop-opacity:0"/>
		</linearGradient>
		<path id="path6722_3_" fill="url(#path6722_1_)" d="M23.794,22.218l-7.293-3.085l7.711,2.33L23.794,22.218z"/>
	</g>
</g>
</svg>
