<?xml version="1.0" encoding="utf-8"?>
<!-- Generator: Adobe Illustrator 14.0.0, SVG Export Plug-In . SVG Version: 6.00 Build 43363)  -->
<!DOCTYPE svg PUBLIC "-//W3C//DTD SVG 1.1//EN" "http://www.w3.org/Graphics/SVG/1.1/DTD/svg11.dtd">
<svg version="1.1"
	 id="Layer_1" xmlns:inkscape="http://www.inkscape.org/namespaces/inkscape" xmlns:rdf="http://www.w3.org/1999/02/22-rdf-syntax-ns#" xmlns:dc="http://purl.org/dc/elements/1.1/" xmlns:svg="http://www.w3.org/2000/svg" xmlns:cc="http://creativecommons.org/ns#" xmlns:sodipodi="http://sodipodi.sourceforge.net/DTD/sodipodi-0.dtd" sodipodi:docname="proc.svg" inkscape:version="0.46" sodipodi:version="0.32" inkscape:output_extension="org.inkscape.output.svg.inkscape"
	 xmlns="http://www.w3.org/2000/svg" xmlns:xlink="http://www.w3.org/1999/xlink" x="0px" y="0px" width="32px" height="32px"
	 viewBox="0 0 32 32" enable-background="new 0 0 32 32" xml:space="preserve">
<polygon points="6,30.5 1.5,30.5 1.5,1.5 6,1.5 6,0 0,0 0,0 0,1.5 0,30.5 0,32 1.5,32 6,32 "/>
<polygon points="26,0 26,1.5 30.5,1.5 30.5,30.5 26,30.5 26,32 30.5,32 30.5,32.009 32,32.009 32,32 32,30.5 32,1.5 32,0.009 32,0 
	"/>
<g>
	<g>
		<path fill="#ED2526" d="M5.084,20.604c-0.249,0-0.451-0.2-0.451-0.451v-6.729c-0.613,0.435-1.296,0.777-2.04,1.023
			c-0.047,0.016-0.094,0.021-0.142,0.021c-0.094,0-0.187-0.028-0.265-0.086C2.07,14.299,2,14.161,2,14.017v-1.85
			c0-0.195,0.126-0.368,0.312-0.429c0.479-0.156,1.017-0.465,1.597-0.917c0.552-0.431,0.934-0.934,1.136-1.497
			c0.065-0.18,0.235-0.3,0.426-0.3h1.653c0.25,0,0.452,0.201,0.452,0.452v10.676c0,0.249-0.202,0.451-0.452,0.451H5.084z"/>
		<path fill="#ED2526" d="M9.907,20.604c-0.128,0-0.25-0.055-0.336-0.149c-0.086-0.096-0.127-0.224-0.113-0.35
			c0.085-0.779,0.34-1.525,0.759-2.22c0.413-0.683,1.188-1.549,2.371-2.646c1.109-1.033,1.495-1.477,1.625-1.664
			c0.226-0.34,0.342-0.675,0.342-0.994c0-0.332-0.077-0.57-0.234-0.729c-0.157-0.157-0.383-0.233-0.692-0.233
			c-0.303,0-0.528,0.081-0.692,0.248c-0.171,0.174-0.277,0.516-0.309,0.99c-0.008,0.122-0.064,0.236-0.159,0.315
			c-0.082,0.068-0.186,0.106-0.292,0.106c-0.016,0-0.029,0-0.045-0.002l-2.03-0.203c-0.119-0.012-0.229-0.07-0.306-0.165
			c-0.076-0.092-0.111-0.212-0.099-0.332c0.135-1.244,0.576-2.162,1.313-2.726c0.716-0.547,1.614-0.825,2.669-0.825
			c1.162,0,2.099,0.326,2.782,0.972c0.69,0.651,1.041,1.473,1.041,2.438c0,0.534-0.098,1.05-0.289,1.534
			c-0.188,0.471-0.483,0.967-0.881,1.472c-0.264,0.336-0.716,0.798-1.385,1.411c-0.462,0.424-0.802,0.743-1.011,0.955h3.114
			c0.249,0,0.451,0.202,0.451,0.451v1.894c0,0.25-0.2,0.452-0.451,0.452H9.907V20.604z"/>
		<path fill="#ED2526" d="M19.045,22.976c-0.169,0-0.331-0.097-0.408-0.259l-0.398-0.841c-0.055-0.117-0.058-0.253-0.007-0.372
			c0.052-0.119,0.15-0.21,0.273-0.251c0.318-0.103,0.539-0.237,0.655-0.396c0.051-0.068,0.091-0.154,0.122-0.253h-0.47
			c-0.249,0-0.451-0.2-0.451-0.451v-2.037c0-0.25,0.202-0.452,0.451-0.452h2.038c0.251,0,0.452,0.2,0.452,0.452v1.457
			c0,0.64-0.056,1.139-0.17,1.524c-0.124,0.414-0.357,0.789-0.698,1.114c-0.328,0.314-0.745,0.563-1.237,0.738
			C19.147,22.967,19.097,22.976,19.045,22.976L19.045,22.976z"/>
		<path fill="#ED2526" d="M25.979,20.784c-1.069,0-1.976-0.316-2.689-0.94c-0.718-0.628-1.141-1.455-1.253-2.462
			c-0.028-0.246,0.146-0.469,0.393-0.499l1.973-0.238c0.019-0.002,0.037-0.003,0.056-0.003c0.225,0,0.419,0.166,0.447,0.395
			c0.051,0.396,0.176,0.693,0.374,0.885c0.193,0.188,0.411,0.272,0.688,0.272c0.292,0,0.524-0.104,0.726-0.33
			c0.212-0.234,0.315-0.559,0.315-0.987c0-0.398-0.097-0.697-0.295-0.913c-0.191-0.206-0.404-0.304-0.675-0.304
			c-0.219,0-0.492,0.046-0.814,0.136c-0.04,0.011-0.081,0.018-0.122,0.018c-0.107,0-0.213-0.039-0.295-0.11
			c-0.116-0.102-0.172-0.252-0.152-0.402l0.226-1.661c0.029-0.225,0.222-0.391,0.447-0.391c0.004,0,0.089,0.001,0.089,0.001
			c0.393,0,0.688-0.084,0.877-0.248c0.191-0.167,0.279-0.381,0.279-0.672c0-0.313-0.106-0.456-0.188-0.537
			c-0.08-0.08-0.222-0.186-0.527-0.186c-0.23,0-0.414,0.074-0.576,0.233c-0.169,0.165-0.276,0.431-0.317,0.787
			c-0.014,0.124-0.077,0.235-0.177,0.31c-0.078,0.06-0.174,0.092-0.271,0.092c-0.024,0-0.051-0.002-0.075-0.006l-1.879-0.32
			c-0.12-0.02-0.228-0.089-0.296-0.189c-0.069-0.101-0.095-0.226-0.07-0.346c0.142-0.699,0.363-1.273,0.661-1.707
			c0.31-0.45,0.74-0.807,1.283-1.06c0.53-0.248,1.127-0.373,1.776-0.373c1.125,0,2.044,0.369,2.735,1.099
			c0.577,0.605,0.871,1.306,0.871,2.08c0,0.836-0.34,1.546-1.01,2.117c0.323,0.18,0.604,0.418,0.841,0.711
			C29.782,15.569,30,16.218,30,16.964c0,1.056-0.39,1.968-1.16,2.711C28.073,20.41,27.111,20.784,25.979,20.784L25.979,20.784z"/>
	</g>
</g>
</svg>
