<?xml version="1.0" encoding="utf-8"?>
<!-- Generator: Adobe Illustrator 14.0.0, SVG Export Plug-In . SVG Version: 6.00 Build 43363)  -->
<!DOCTYPE svg PUBLIC "-//W3C//DTD SVG 1.1//EN" "http://www.w3.org/Graphics/SVG/1.1/DTD/svg11.dtd">
<svg version="1.1" id="Layer_1" xmlns="http://www.w3.org/2000/svg" xmlns:xlink="http://www.w3.org/1999/xlink" x="0px" y="0px"
	 width="32px" height="32px" viewBox="0 0 32 32" enable-background="new 0 0 32 32" xml:space="preserve">
<g>
	<g>
		<path d="M13.002,26c-0.093,0-0.182-0.018-0.273-0.048L0.541,21.63C0.217,21.514,0,21.206,0,20.861V5.091
			C0,4.837,0.122,4.592,0.329,4.44c0.135-0.102,0.296-0.155,0.46-0.162l11.94-4.231C12.82,0.014,12.909,0,13.002,0
			c0.092,0,0.183,0.014,0.271,0.047l11.938,4.231c0.381,0.013,0.708,0.292,0.778,0.669c0.011,0.07,0.013,0.137,0.009,0.203v15.71
			c0,0.345-0.216,0.651-0.539,0.769l-12.185,4.322C13.185,25.982,13.094,26,13.002,26L13.002,26z"/>
		<polygon id="polygon6708_3_" fill="#B57916" points="13.002,25.186 0.814,20.863 0.814,5.091 13.002,9.417 		"/>
		<polygon id="polygon6710_3_" fill="#F9A620" points="13.002,25.186 25.185,20.863 25.185,5.091 13.002,9.417 		"/>
		<polygon id="polygon6712_3_" fill="#F9C97D" points="0.942,5.087 0.814,5.091 0.877,5.11 0.814,5.132 0.942,5.137 13.002,9.417 
			25.061,5.137 25.185,5.132 25.126,5.11 25.185,5.091 25.061,5.087 13.002,0.813 		"/>
		
			<linearGradient id="polygon6714_1_" gradientUnits="userSpaceOnUse" x1="1371.6914" y1="1744.9512" x2="1386.3481" y2="1730.4294" gradientTransform="matrix(0.5772 0 0 0.5772 -791.4266 -985.5839)">
			<stop  offset="0" style="stop-color:#402508"/>
			<stop  offset="1" style="stop-color:#FFD3A3;stop-opacity:0"/>
		</linearGradient>
		<polygon id="polygon6714_3_" fill="url(#polygon6714_1_)" points="12.576,24.362 1.279,20.354 1.279,5.735 12.576,9.742 		"/>
		
			<linearGradient id="polygon6716_1_" gradientUnits="userSpaceOnUse" x1="1465.1201" y1="1816.8262" x2="1448.4641" y2="1798.894" gradientTransform="matrix(0.5627 0 0 0.5627 -798.4603 -999.5966)">
			<stop  offset="0" style="stop-color:#FFF4E8"/>
			<stop  offset="1" style="stop-color:#FFECD6;stop-opacity:0"/>
		</linearGradient>
		<polygon id="polygon6716_3_" fill="url(#polygon6716_1_)" points="13.354,24.166 24.367,20.26 24.367,6.005 13.354,9.912 		"/>
		
			<linearGradient id="path6718_1_" gradientUnits="userSpaceOnUse" x1="-2948.4248" y1="-2674.3188" x2="-2967.3977" y2="-2674.3672" gradientTransform="matrix(0 -0.6226 -0.6226 0 -1652.1533 -1825.1758)">
			<stop  offset="0" style="stop-color:#FFFFFF"/>
			<stop  offset="1" style="stop-color:#FFFFFF;stop-opacity:0"/>
		</linearGradient>
		<path id="path6718_3_" fill="url(#path6718_1_)" d="M12.182,9.242l0.658,15.653h-0.007l0.733-15.874L12.182,9.242z"/>
		
			<linearGradient id="path6720_1_" gradientUnits="userSpaceOnUse" x1="-1262.376" y1="1961.8008" x2="-1278.5371" y2="1961.7931" gradientTransform="matrix(-0.5857 0.2112 0.2112 0.5857 -1140.0498 -873.2103)">
			<stop  offset="0" style="stop-color:#FFFFFF"/>
			<stop  offset="1" style="stop-color:#FFFFFF;stop-opacity:0"/>
		</linearGradient>
		<path id="path6720_3_" fill="url(#path6720_1_)" d="M13.043,10.161l12.146-5.07L12.363,8.933L13.043,10.161z"/>
		
			<linearGradient id="path6722_1_" gradientUnits="userSpaceOnUse" x1="1984.4219" y1="790.8652" x2="1968.8726" y2="790.8516" gradientTransform="matrix(0.5857 0.2112 -0.2112 0.5857 -983.3735 -873.2396)">
			<stop  offset="0" style="stop-color:#FFFFFF"/>
			<stop  offset="1" style="stop-color:#FFFFFF;stop-opacity:0"/>
		</linearGradient>
		<path id="path6722_3_" fill="url(#path6722_1_)" d="M12.665,10.104L0.814,5.091l12.531,3.786L12.665,10.104z"/>
	</g>
</g>
<g>
	<path id="path9190_1_" fill="#020202" d="M24.529,32c-3.718,0-7.47-0.951-7.47-3.076v-3.422c0-0.162,0.023-0.367,0.107-0.594
		c-0.084-0.227-0.107-0.432-0.107-0.594v-3.424c0-0.177,0.027-0.396,0.125-0.64c-0.098-0.239-0.125-0.46-0.125-0.638V16.19
		c0.004-2.125,3.754-3.073,7.47-3.073c3.717,0,7.467,0.948,7.471,3.071v3.425c0,0.178-0.028,0.396-0.125,0.639
		C31.972,20.494,32,20.715,32,20.891v3.424c0,0.162-0.024,0.367-0.108,0.593C31.976,25.134,32,25.339,32,25.503v3.422
		C31.999,31.049,28.247,32,24.529,32L24.529,32z"/>
	
		<linearGradient id="path8001_2_" gradientUnits="userSpaceOnUse" x1="1443.833" y1="2797.1504" x2="1459.8547" y2="2797.1504" gradientTransform="matrix(0.6524 0 0 0.6524 -923.8828 -1796.686)">
		<stop  offset="0" style="stop-color:#BFDCEB"/>
		<stop  offset="0.0164" style="stop-color:#B7D2E2"/>
		<stop  offset="0.043" style="stop-color:#A2BBC8"/>
		<stop  offset="0.0667" style="stop-color:#8BA2AF"/>
		<stop  offset="0.5455" style="stop-color:#BFDCEB"/>
		<stop  offset="0.5614" style="stop-color:#C2DCEB"/>
		<stop  offset="0.6708" style="stop-color:#DAEBF3"/>
		<stop  offset="0.7715" style="stop-color:#ECF6F9"/>
		<stop  offset="0.8545" style="stop-color:#F1F9FA"/>
		<stop  offset="0.8593" style="stop-color:#EFF8FA"/>
		<stop  offset="0.8965" style="stop-color:#E8F5F7"/>
		<stop  offset="1" style="stop-color:#E7F5F8"/>
	</linearGradient>
	<path id="path8001_1_" fill="url(#path8001_2_)" d="M30.999,28.85v-3.424c0,1.146-2.896,2.076-6.471,2.076
		c-3.572,0-6.471-0.93-6.471-2.076v3.424c0,1.146,2.896,2.074,6.471,2.074S30.999,29.996,30.999,28.85z"/>
	<ellipse id="ellipse8003_1_" fill="#BFDCEB" cx="24.529" cy="25.426" rx="6.471" ry="2.076"/>
	<ellipse id="ellipse8010_1_" fill="#020202" cx="24.529" cy="25.21" rx="6.13" ry="1.956"/>
	
		<linearGradient id="path8044_2_" gradientUnits="userSpaceOnUse" x1="1463.5469" y1="2794.623" x2="1447.3406" y2="2794.623" gradientTransform="matrix(0.6524 0 0 0.6524 -923.8828 -1796.686)">
		<stop  offset="0" style="stop-color:#BFDCEB"/>
		<stop  offset="0.0164" style="stop-color:#B7D2E2"/>
		<stop  offset="0.043" style="stop-color:#A2BBC8"/>
		<stop  offset="0.0667" style="stop-color:#8BA2AF"/>
		<stop  offset="0.5455" style="stop-color:#BFDCEB"/>
		<stop  offset="0.5614" style="stop-color:#C2DCEB"/>
		<stop  offset="0.6708" style="stop-color:#DAEBF3"/>
		<stop  offset="0.7715" style="stop-color:#ECF6F9"/>
		<stop  offset="0.8545" style="stop-color:#F1F9FA"/>
		<stop  offset="0.8593" style="stop-color:#EFF8FA"/>
		<stop  offset="0.8965" style="stop-color:#E8F5F7"/>
		<stop  offset="1" style="stop-color:#E7F5F8"/>
	</linearGradient>
	<path id="path8044_1_" fill="url(#path8044_2_)" d="M24.529,27.377c-3.443,0-6.259-0.863-6.457-1.951
		c-0.009,0.041-0.013,0.082-0.013,0.125c0,1.145,2.896,2.074,6.47,2.074c3.571,0,6.471-0.93,6.471-2.074
		c0-0.043-0.007-0.084-0.013-0.125C30.786,26.514,27.972,27.377,24.529,27.377z"/>
	
		<linearGradient id="path8087_2_" gradientUnits="userSpaceOnUse" x1="1443.833" y1="2790.085" x2="1459.8547" y2="2790.085" gradientTransform="matrix(0.6524 0 0 0.6524 -923.8828 -1796.686)">
		<stop  offset="0" style="stop-color:#BFDCEB"/>
		<stop  offset="0.0164" style="stop-color:#B7D2E2"/>
		<stop  offset="0.043" style="stop-color:#A2BBC8"/>
		<stop  offset="0.0667" style="stop-color:#8BA2AF"/>
		<stop  offset="0.5455" style="stop-color:#BFDCEB"/>
		<stop  offset="0.5614" style="stop-color:#C2DCEB"/>
		<stop  offset="0.6708" style="stop-color:#DAEBF3"/>
		<stop  offset="0.7715" style="stop-color:#ECF6F9"/>
		<stop  offset="0.8545" style="stop-color:#F1F9FA"/>
		<stop  offset="0.8593" style="stop-color:#EFF8FA"/>
		<stop  offset="0.8965" style="stop-color:#E8F5F7"/>
		<stop  offset="1" style="stop-color:#E7F5F8"/>
	</linearGradient>
	<path id="path8087_1_" fill="url(#path8087_2_)" d="M30.999,24.238v-3.422c0,1.146-2.896,2.074-6.471,2.074
		c-3.572,0-6.471-0.929-6.471-2.074v3.422c0,1.146,2.896,2.076,6.471,2.076C28.103,26.313,30.999,25.385,30.999,24.238z"/>
	<ellipse id="ellipse8089_1_" fill="#BFDCEB" cx="24.529" cy="20.815" rx="6.471" ry="2.075"/>
	<ellipse id="ellipse8096_1_" fill="#020202" cx="24.529" cy="20.603" rx="6.13" ry="1.956"/>
	
		<linearGradient id="path8130_2_" gradientUnits="userSpaceOnUse" x1="1463.542" y1="2787.5557" x2="1447.3356" y2="2787.5557" gradientTransform="matrix(0.6524 0 0 0.6524 -923.8828 -1796.686)">
		<stop  offset="0" style="stop-color:#BFDCEB"/>
		<stop  offset="0.0164" style="stop-color:#B7D2E2"/>
		<stop  offset="0.043" style="stop-color:#A2BBC8"/>
		<stop  offset="0.0667" style="stop-color:#8BA2AF"/>
		<stop  offset="0.5455" style="stop-color:#BFDCEB"/>
		<stop  offset="0.5614" style="stop-color:#C2DCEB"/>
		<stop  offset="0.6708" style="stop-color:#DAEBF3"/>
		<stop  offset="0.7715" style="stop-color:#ECF6F9"/>
		<stop  offset="0.8545" style="stop-color:#F1F9FA"/>
		<stop  offset="0.8593" style="stop-color:#EFF8FA"/>
		<stop  offset="0.8965" style="stop-color:#E8F5F7"/>
		<stop  offset="1" style="stop-color:#E7F5F8"/>
	</linearGradient>
	<path id="path8130_1_" fill="url(#path8130_2_)" d="M24.529,22.768c-3.443,0-6.259-0.862-6.457-1.951
		c-0.009,0.041-0.013,0.08-0.013,0.123c0,1.146,2.896,2.074,6.47,2.074c3.571,0,6.471-0.929,6.471-2.074
		c0-0.043-0.007-0.084-0.013-0.123C30.786,21.904,27.972,22.768,24.529,22.768z"/>
	
		<linearGradient id="path8173_2_" gradientUnits="userSpaceOnUse" x1="1443.833" y1="2782.8848" x2="1459.8547" y2="2782.8848" gradientTransform="matrix(0.6524 0 0 0.6524 -923.8828 -1796.686)">
		<stop  offset="0" style="stop-color:#BFDCEB"/>
		<stop  offset="0.0164" style="stop-color:#B7D2E2"/>
		<stop  offset="0.043" style="stop-color:#A2BBC8"/>
		<stop  offset="0.0667" style="stop-color:#8BA2AF"/>
		<stop  offset="0.5455" style="stop-color:#BFDCEB"/>
		<stop  offset="0.5614" style="stop-color:#C2DCEB"/>
		<stop  offset="0.6708" style="stop-color:#DAEBF3"/>
		<stop  offset="0.7715" style="stop-color:#ECF6F9"/>
		<stop  offset="0.8545" style="stop-color:#F1F9FA"/>
		<stop  offset="0.8593" style="stop-color:#EFF8FA"/>
		<stop  offset="0.8965" style="stop-color:#E8F5F7"/>
		<stop  offset="1" style="stop-color:#E7F5F8"/>
	</linearGradient>
	<path id="path8173_1_" fill="url(#path8173_2_)" d="M30.999,19.541v-3.424c0,1.146-2.896,2.076-6.471,2.076
		c-3.572,0-6.471-0.93-6.471-2.076v3.424c0,1.146,2.896,2.078,6.471,2.078S30.999,20.688,30.999,19.541z"/>
	<ellipse id="ellipse8175_1_" fill="#BFDCEB" cx="24.529" cy="16.118" rx="6.471" ry="2.075"/>
	
		<linearGradient id="path8202_2_" gradientUnits="userSpaceOnUse" x1="1463.5469" y1="2780.4111" x2="1447.3406" y2="2780.4111" gradientTransform="matrix(0.6524 0 0 0.6524 -923.8828 -1796.686)">
		<stop  offset="0" style="stop-color:#BFDCEB"/>
		<stop  offset="0.0164" style="stop-color:#B7D2E2"/>
		<stop  offset="0.043" style="stop-color:#A2BBC8"/>
		<stop  offset="0.0667" style="stop-color:#8BA2AF"/>
		<stop  offset="0.5455" style="stop-color:#BFDCEB"/>
		<stop  offset="0.5614" style="stop-color:#C2DCEB"/>
		<stop  offset="0.6708" style="stop-color:#DAEBF3"/>
		<stop  offset="0.7715" style="stop-color:#ECF6F9"/>
		<stop  offset="0.8545" style="stop-color:#F1F9FA"/>
		<stop  offset="0.8593" style="stop-color:#EFF8FA"/>
		<stop  offset="0.8965" style="stop-color:#E8F5F7"/>
		<stop  offset="1" style="stop-color:#E7F5F8"/>
	</linearGradient>
	<path id="path8202_1_" fill="url(#path8202_2_)" d="M24.529,18.105c-3.443,0-6.259-0.861-6.457-1.952
		c-0.009,0.041-0.013,0.084-0.013,0.125c0,1.146,2.896,2.075,6.47,2.075c3.571,0,6.471-0.931,6.471-2.075
		c0-0.043-0.007-0.084-0.013-0.125C30.786,17.244,27.972,18.105,24.529,18.105L24.529,18.105z"/>
</g>
</svg>
