<?xml version="1.0" encoding="utf-8"?>
<!-- Generator: Adobe Illustrator 14.0.0, SVG Export Plug-In . SVG Version: 6.00 Build 43363)  -->
<!DOCTYPE svg PUBLIC "-//W3C//DTD SVG 1.1//EN" "http://www.w3.org/Graphics/SVG/1.1/DTD/svg11.dtd">
<svg version="1.1" id="Layer_1" xmlns="http://www.w3.org/2000/svg" xmlns:xlink="http://www.w3.org/1999/xlink" x="0px" y="0px"
	 width="32px" height="32px" viewBox="0 0 32 32" enable-background="new 0 0 32 32" xml:space="preserve">
<path fill="#45752B" d="M3.363,22.191c-0.285,0-0.516-0.231-0.516-0.516V14.45c-0.653,0.458-1.379,0.819-2.169,1.08
	c-0.053,0.017-0.107,0.026-0.162,0.026c-0.107,0-0.213-0.034-0.302-0.098C0.08,15.36,0,15.205,0,15.039v-2
	c0-0.223,0.144-0.421,0.355-0.49c0.516-0.169,1.094-0.501,1.718-0.987c0.593-0.462,1.003-1.002,1.22-1.606
	C3.367,9.75,3.561,9.613,3.779,9.613h1.788c0.285,0,0.516,0.231,0.516,0.516v11.547c0,0.284-0.231,0.516-0.516,0.516H3.363z"/>
<path fill="#45752B" d="M12.588,22.387c-1.279,0-2.325-0.499-3.109-1.484c-0.768-0.963-1.141-2.574-1.141-4.922
	c0-2.306,0.406-3.939,1.241-4.995c0.722-0.911,1.734-1.373,3.009-1.373c1.275,0,2.29,0.467,3.018,1.389
	c0.829,1.044,1.232,2.681,1.232,5.002c0,2.316-0.406,3.955-1.241,5.011C14.874,21.926,13.862,22.387,12.588,22.387L12.588,22.387z
	 M12.588,12.473c-0.147,0-0.271,0.044-0.389,0.14c-0.068,0.055-0.198,0.211-0.313,0.644c-0.14,0.526-0.21,1.45-0.21,2.748
	c0,1.615,0.101,2.33,0.186,2.646c0.148,0.552,0.299,0.707,0.341,0.741c0.114,0.093,0.236,0.136,0.385,0.136
	c0.147,0,0.271-0.045,0.389-0.14c0.067-0.055,0.198-0.212,0.313-0.644c0.14-0.522,0.21-1.443,0.21-2.74
	c0-1.614-0.101-2.33-0.186-2.647c-0.149-0.554-0.301-0.711-0.343-0.746C12.855,12.516,12.734,12.473,12.588,12.473L12.588,12.473z"
	/>
<path fill="#45752B" d="M21.231,22.191c-0.285,0-0.516-0.231-0.516-0.516V14.45c-0.654,0.458-1.38,0.819-2.17,1.08
	c-0.053,0.017-0.106,0.026-0.161,0.026c-0.107,0-0.214-0.034-0.303-0.098c-0.134-0.097-0.214-0.253-0.214-0.418v-2
	c0-0.223,0.144-0.421,0.355-0.49c0.517-0.169,1.095-0.501,1.719-0.987c0.593-0.462,1.003-1.002,1.22-1.606
	c0.073-0.205,0.268-0.342,0.485-0.342h1.788c0.286,0,0.517,0.231,0.517,0.516v11.547c0,0.284-0.23,0.516-0.517,0.516H21.231z"/>
<path fill="#45752B" d="M29.279,22.191c-0.285,0-0.516-0.231-0.516-0.516V14.45c-0.653,0.457-1.38,0.819-2.169,1.08
	c-0.054,0.017-0.107,0.026-0.162,0.026c-0.107,0-0.213-0.034-0.303-0.098c-0.134-0.097-0.214-0.253-0.214-0.418v-2
	c0-0.223,0.144-0.421,0.355-0.49c0.517-0.169,1.095-0.501,1.719-0.987c0.593-0.462,1.003-1.002,1.22-1.606
	c0.073-0.205,0.268-0.342,0.485-0.342h1.788C31.77,9.613,32,9.844,32,10.129v11.547c0,0.284-0.23,0.516-0.517,0.516H29.279z"/>
</svg>
