<?xml version="1.0" encoding="UTF-8" standalone="no"?>
<!-- Generator: Adobe Illustrator 14.0.0, SVG Export Plug-In . SVG Version: 6.00 Build 43363)  -->

<svg
   xmlns:dc="http://purl.org/dc/elements/1.1/"
   xmlns:cc="http://creativecommons.org/ns#"
   xmlns:rdf="http://www.w3.org/1999/02/22-rdf-syntax-ns#"
   xmlns:svg="http://www.w3.org/2000/svg"
   xmlns="http://www.w3.org/2000/svg"
   xmlns:sodipodi="http://sodipodi.sourceforge.net/DTD/sodipodi-0.dtd"
   xmlns:inkscape="http://www.inkscape.org/namespaces/inkscape"
   version="1.1"
   id="Layer_1"
   x="0px"
   y="0px"
   width="32px"
   height="32px"
   viewBox="0 0 32 32"
   enable-background="new 0 0 32 32"
   xml:space="preserve"
   inkscape:version="0.48.2 r9819"
   sodipodi:docname="development.svg"><metadata
   id="metadata145"><rdf:RDF><cc:Work
       rdf:about=""><dc:format>image/svg+xml</dc:format><dc:type
         rdf:resource="http://purl.org/dc/dcmitype/StillImage" /><dc:title></dc:title></cc:Work></rdf:RDF></metadata><defs
   id="defs143" /><sodipodi:namedview
   pagecolor="#ffffff"
   bordercolor="#666666"
   borderopacity="1"
   objecttolerance="10"
   gridtolerance="10"
   guidetolerance="10"
   inkscape:pageopacity="0"
   inkscape:pageshadow="2"
   inkscape:window-width="1439"
   inkscape:window-height="777"
   id="namedview141"
   showgrid="false"
   inkscape:zoom="7.375"
   inkscape:cx="16"
   inkscape:cy="16"
   inkscape:window-x="167"
   inkscape:window-y="59"
   inkscape:window-maximized="0"
   inkscape:current-layer="g3" />
<g
   id="g3">
	<g
   id="g5"
   transform="translate(-6,0)">
		<g
   id="g7">
			<path
   d="M 24.954,1.125 V 1.062 C 24.955,0.795 24.85,0.541 24.662,0.351 24.474,0.163 24.221,0.057 23.954,0.057 L 17.805,0.06 c -0.287,0 -0.543,0.127 -0.727,0.321 C 17.07,0.373 17.068,0.363 17.06,0.357 16.872,0.169 16.619,0.062 16.351,0.062 l -3.316,0.002 c -0.551,0 -0.996,0.444 -1,0.996 l -0.023,5.532 c -0.002,0.267 0.104,0.521 0.291,0.711 0.188,0.188 0.443,0.293 0.709,0.293 l 3.316,-0.002 c 0.525,0 0.947,-0.409 0.984,-0.928 l 1.551,1.707 c 0.102,0.109 0.226,0.189 0.359,0.246 l -0.014,3.053 c -0.398,0.129 -0.691,0.492 -0.693,0.935 l -0.072,16.395 c -0.002,0.189 0.068,0.367 0.17,0.525 l -0.006,1.412 c -0.002,0.266 0.104,0.52 0.291,0.709 0.188,0.188 0.442,0.295 0.709,0.295 l 3.041,-0.002 c 0.552,0 0.998,-0.445 1,-0.996 l 0.006,-1.41 c 0.101,-0.154 0.174,-0.328 0.175,-0.525 L 23.9,12.615 c 0,-0.269 -0.104,-0.521 -0.293,-0.711 -0.108,-0.11 -0.248,-0.185 -0.394,-0.231 L 23.228,8.667 C 23.515,8.595 23.765,8.4 23.894,8.126 l 0.697,-1.484 c 1.545,0.074 4.021,0.705 5.512,3.711 0.172,0.348 0.521,0.557 0.896,0.557 0.073,0 0.148,-0.008 0.227,-0.025 0.449,-0.104 0.771,-0.504 0.773,-0.967 0.044,-5.453 -4.008,-7.955 -7.045,-8.793 z"
   id="path9"
   inkscape:connector-curvature="0"
   style="fill:#010101" />
			
				<linearGradient
   id="rect3338_2_"
   gradientUnits="userSpaceOnUse"
   x1="38.121101"
   y1="-1424.9434"
   x2="41.138199"
   y2="-1424.9434"
   gradientTransform="matrix(1.0252,-4e-4,0.0045,-1.026,-17.1153,-1458.2181)">
				<stop
   offset="0"
   style="stop-color:#E6E6E5"
   id="stop12" />
				<stop
   offset="0.7255"
   style="stop-color:#99BFCC"
   id="stop14" />
				<stop
   offset="1"
   style="stop-color:#B2D8E5"
   id="stop16" />
			</linearGradient>
			<polygon
   id="rect3338_1_"
   points="15.678,5.213 15.689,2.305 18.523,2.303 18.514,5.211 "
   style="fill:url(#rect3338_2_)" />
			
				<linearGradient
   id="rect3340_2_"
   gradientUnits="userSpaceOnUse"
   x1="157.6748"
   y1="-1155.0361"
   x2="157.6748"
   y2="-1159.4731"
   gradientTransform="matrix(0.8057,-3e-4,0.0058,-1.3055,-105.6452,-1506.9197)">
				<stop
   offset="0"
   style="stop-color:#DBEEF2"
   id="stop20" />
				<stop
   offset="1"
   style="stop-color:#358296"
   id="stop22" />
			</linearGradient>
			<polygon
   id="rect3340_1_"
   points="13.012,6.596 13.035,1.062 16.352,1.062 16.328,6.594 "
   style="fill:url(#rect3340_2_)" />
			
				<linearGradient
   id="rect3342_2_"
   gradientUnits="userSpaceOnUse"
   x1="42.570301"
   y1="-1431.5859"
   x2="44.778099"
   y2="-1431.5859"
   gradientTransform="matrix(1.0252,-4e-4,0.0045,-1.026,-17.1153,-1458.2181)">
				<stop
   offset="0"
   style="stop-color:#E6E6E5"
   id="stop26" />
				<stop
   offset="0.7255"
   style="stop-color:#99BFCC"
   id="stop28" />
				<stop
   offset="1"
   style="stop-color:#B2D8E5"
   id="stop30" />
			</linearGradient>
			<polygon
   id="rect3342_1_"
   points="20.202,13.79 20.229,7.355 22.234,7.353 22.206,13.788 "
   style="fill:url(#rect3342_2_)" />
			
				<linearGradient
   id="rect3344_2_"
   gradientUnits="userSpaceOnUse"
   x1="45.450199"
   y1="-1441.5625"
   x2="41.898201"
   y2="-1441.5625"
   gradientTransform="matrix(1.0252,-4e-4,0.0045,-1.026,-17.1153,-1458.2181)">
				<stop
   offset="0"
   style="stop-color:#F89B42"
   id="stop34" />
				<stop
   offset="0.2217"
   style="stop-color:#F47A20"
   id="stop36" />
				<stop
   offset="1"
   style="stop-color:#FFFFFF"
   id="stop38" />
			</linearGradient>
			<polygon
   id="rect3344_1_"
   points="19.443,29.006 19.518,12.611 22.9,12.609 22.829,29.004 "
   style="fill:url(#rect3344_2_)" />
			
				<linearGradient
   id="rect3346_2_"
   gradientUnits="userSpaceOnUse"
   x1="42.066399"
   y1="-1450.4961"
   x2="45.281799"
   y2="-1450.4961"
   gradientTransform="matrix(1.0252,-4e-4,0.0045,-1.026,-17.1153,-1458.2181)">
				<stop
   offset="0"
   style="stop-color:#E6E6E5"
   id="stop42" />
				<stop
   offset="0.7255"
   style="stop-color:#99BFCC"
   id="stop44" />
				<stop
   offset="1"
   style="stop-color:#B2D8E5"
   id="stop46" />
			</linearGradient>
			<polygon
   id="rect3346_1_"
   points="19.607,30.943 19.616,29.006 22.657,29.004 22.648,30.941 "
   style="fill:url(#rect3346_2_)" />
			
				<linearGradient
   id="path3348_2_"
   gradientUnits="userSpaceOnUse"
   x1="49.289101"
   y1="-1427.2676"
   x2="52.1026"
   y2="-1423.1776"
   gradientTransform="matrix(1.0252,-4e-4,0.0045,-1.026,-17.1153,-1458.2181)">
				<stop
   offset="0"
   style="stop-color:#E6E6E5"
   id="stop50" />
				<stop
   offset="0.7255"
   style="stop-color:#99BFCC"
   id="stop52" />
				<stop
   offset="1"
   style="stop-color:#B2D8E5"
   id="stop54" />
			</linearGradient>
			<path
   id="path3348_1_"
   d="M 31.001,9.91 C 28.466,4.792 23.35,5.693 23.35,5.693 l 0.016,-3.875 c -0.003,0 7.691,0.895 7.635,8.092 z"
   style="fill:url(#path3348_2_)"
   inkscape:connector-curvature="0" />
			<polygon
   id="polygon3350_2_"
   points="23.936,5.691 23.936,5.691 22.991,7.699 19.604,7.701 17.782,5.695 17.805,1.06 23.954,1.057 "
   style="fill:#b0e1f9" />
		</g>
	</g>
	
</g>
</svg>