<?xml version="1.0" encoding="utf-8"?>
<!-- Generator: Adobe Illustrator 14.0.0, SVG Export Plug-In . SVG Version: 6.00 Build 43363)  -->
<!DOCTYPE svg PUBLIC "-//W3C//DTD SVG 1.1//EN" "http://www.w3.org/Graphics/SVG/1.1/DTD/svg11.dtd">
<svg version="1.1" id="Layer_1" xmlns="http://www.w3.org/2000/svg" xmlns:xlink="http://www.w3.org/1999/xlink" x="0px" y="0px"
	 width="32px" height="32px" viewBox="0 0 32 32" enable-background="new 0 0 32 32" xml:space="preserve">
<path fill="#231F20" d="M4.632,32c-0.512,0-0.926-0.415-0.926-0.925V8.633c0-0.511,0.414-0.926,0.926-0.926h26.442
	C31.586,7.707,32,8.122,32,8.633v22.442C32,31.585,31.586,32,31.074,32H4.632z"/>
<rect x="4.632" y="8.633" fill="#DAEBF3" width="26.442" height="22.442"/>
<linearGradient id="SVGID_1_" gradientUnits="userSpaceOnUse" x1="567.7119" y1="821.4316" x2="594.1543" y2="821.4316" gradientTransform="matrix(1 0 0 1 -563.0801 -809.6797)">
	<stop  offset="0" style="stop-color:#B2D2DB"/>
	<stop  offset="1" style="stop-color:#007D9E"/>
</linearGradient>
<rect x="4.632" y="8.633" fill="url(#SVGID_1_)" width="26.442" height="6.238"/>
<line fill="none" stroke="#231F20" x1="4.632" y1="14.871" x2="31.074" y2="14.871"/>
<line fill="none" stroke="#231F20" x1="4.632" y1="20.207" x2="31.074" y2="20.207"/>
<line fill="none" stroke="#231F20" x1="4.632" y1="26.07" x2="31.074" y2="26.07"/>
<line fill="none" stroke="#231F20" x1="13.176" y1="14.886" x2="13.176" y2="31.089"/>
<line fill="none" stroke="#231F20" x1="22.588" y1="14.917" x2="22.588" y2="31.12"/>
<path id="path4046_2_" fill="#020202" d="M0.813,26c-0.15,0-0.301-0.041-0.436-0.126c-0.349-0.22-0.476-0.664-0.296-1.036
	l5.138-10.744c0,0-1.897,0.03-1.902,0.03c-0.264,0-0.512-0.126-0.664-0.344c-0.155-0.22-0.192-0.501-0.098-0.753L7.179,0.535
	c0.118-0.319,0.422-0.53,0.762-0.53L15.494,0c0.313,0,0.596,0.176,0.73,0.454c0.137,0.277,0.106,0.609-0.084,0.856l-5.114,6.667
	c0,0,3.263-0.029,3.264-0.029c0.315,0,0.599,0.18,0.735,0.461c0.136,0.286,0.095,0.625-0.105,0.868L1.446,25.704
	C1.284,25.896,1.05,26,0.813,26L0.813,26z"/>
<path id="path5141_3_" fill="#F9A620" d="M3.315,13.308l3.206-0.052l-5.705,11.93L14.291,8.76l-4.93,0.045l6.132-7.99L7.939,0.82
	L3.315,13.308z"/>
<linearGradient id="polygon4061_1_" gradientUnits="userSpaceOnUse" x1="4.4482" y1="10.5513" x2="13.8408" y2="10.5513">
	<stop  offset="0" style="stop-color:#FFF3DF"/>
	<stop  offset="0.5394" style="stop-color:#F9A620"/>
	<stop  offset="1" style="stop-color:#A36628"/>
</linearGradient>
<polygon id="polygon4061_2_" fill="url(#polygon4061_1_)" points="4.448,19.473 7.82,12.421 4.491,12.474 8.505,1.633 13.841,1.63 
	7.698,9.634 12.555,9.59 "/>
</svg>
