<?xml version="1.0" encoding="utf-8"?>
<!-- Generator: Adobe Illustrator 14.0.0, SVG Export Plug-In . SVG Version: 6.00 Build 43363)  -->
<!DOCTYPE svg PUBLIC "-//W3C//DTD SVG 1.1//EN" "http://www.w3.org/Graphics/SVG/1.1/DTD/svg11.dtd">
<svg version="1.1" id="Layer_1" xmlns="http://www.w3.org/2000/svg" xmlns:xlink="http://www.w3.org/1999/xlink" x="0px" y="0px"
	 width="32px" height="32px" viewBox="0 0 32 32" enable-background="new 0 0 32 32" xml:space="preserve">
<g>
	<rect x="0.293" fill="#010101" width="2.167" height="32"/>
	<line fill="none" stroke="#010101" x1="1.376" y1="7.75" x2="12.96" y2="7.75"/>
	<line fill="none" stroke="#010101" x1="1.376" y1="24.039" x2="15.249" y2="24.039"/>
	<g>
		<path id="path175_8_" fill="#020202" d="M14.168,14.75c-3.858,0-7-3.141-7-7s3.142-7,7-7c3.859,0,7,3.141,7,7
			S18.027,14.75,14.168,14.75L14.168,14.75z"/>
		<circle id="circle177_8_" fill="#FBA91E" cx="14.168" cy="7.75" r="6"/>
		
			<linearGradient id="path186_1_" gradientUnits="userSpaceOnUse" x1="1135.3291" y1="1627.1094" x2="1145.3281" y2="1627.1094" gradientTransform="matrix(1 0 0 1 -1126.1602 -1619.3594)">
			<stop  offset="0" style="stop-color:#A5682A"/>
			<stop  offset="0.5394" style="stop-color:#FBA91E"/>
			<stop  offset="1" style="stop-color:#FFF4E2"/>
		</linearGradient>
		<path id="path186_8_" fill="url(#path186_1_)" d="M14.168,12.75c-2.757,0-4.999-2.244-4.999-5c0-2.758,2.242-5,4.999-5
			s5,2.242,5,5C19.168,10.506,16.926,12.75,14.168,12.75L14.168,12.75z"/>
	</g>
	<g>
		<path id="path175_7_" fill="#020202" d="M14.168,30.801c-3.858,0-7-3.143-7-7c0-3.859,3.142-7,7-7c3.859,0,7,3.141,7,7
			C21.168,27.658,18.027,30.801,14.168,30.801L14.168,30.801z"/>
		<circle id="circle177_7_" fill="#FBA91E" cx="14.168" cy="23.801" r="6"/>
		
			<linearGradient id="path186_2_" gradientUnits="userSpaceOnUse" x1="1135.3291" y1="1643.1602" x2="1145.3281" y2="1643.1602" gradientTransform="matrix(1 0 0 1 -1126.1602 -1619.3594)">
			<stop  offset="0" style="stop-color:#A5682A"/>
			<stop  offset="0.5394" style="stop-color:#FBA91E"/>
			<stop  offset="1" style="stop-color:#FFF4E2"/>
		</linearGradient>
		<path id="path186_7_" fill="url(#path186_2_)" d="M14.168,28.801c-2.757,0-4.999-2.244-4.999-5c0-2.758,2.242-5,4.999-5
			s5,2.242,5,5C19.168,26.557,16.926,28.801,14.168,28.801L14.168,28.801z"/>
	</g>
	<g>
		<path fill="#010101" d="M31.059,12c0.358,0,0.648,0.29,0.648,0.648v14.011c0,0.08-0.016,0.161-0.045,0.239l-1.533,3.851
			l-0.447,0.896c-0.108,0.22-0.334,0.354-0.578,0.354L28.9,32c-0.245-0.002-0.471-0.139-0.582-0.357l-0.42-0.842l-1.53-3.906
			c-0.028-0.076-0.042-0.155-0.044-0.234V12.648c0-0.358,0.29-0.648,0.648-0.648H31.059z"/>
		
			<linearGradient id="SVGID_1_" gradientUnits="userSpaceOnUse" x1="181.7266" y1="-374.311" x2="185.8125" y2="-374.311" gradientTransform="matrix(-1 0 0 1 212.7852 393.9648)">
			<stop  offset="0" style="stop-color:#B0D68C"/>
			<stop  offset="1" style="stop-color:#219146"/>
		</linearGradient>
		<rect x="26.973" y="12.648" fill="url(#SVGID_1_)" width="4.086" height="14.011"/>
		<rect x="27.673" y="13.35" fill="#70BE46" width="2.687" height="12.608"/>
		
			<linearGradient id="SVGID_2_" gradientUnits="userSpaceOnUse" x1="185.8701" y1="-365.3799" x2="181.7842" y2="-365.3799" gradientTransform="matrix(-1 0 0 1 212.7852 393.9648)">
			<stop  offset="0" style="stop-color:#A56829"/>
			<stop  offset="0.5394" style="stop-color:#FBA91E"/>
			<stop  offset="1" style="stop-color:#FFF4E2"/>
		</linearGradient>
		<polygon fill="url(#SVGID_2_)" points="28.477,30.509 29.527,30.51 31.059,26.659 26.973,26.659 		"/>
		<polygon fill="#FBA91E" points="30.027,27.357 29.051,29.809 28.955,29.809 27.997,27.357 		"/>
		<polygon fill="#010101" points="28.477,30.509 29.527,30.51 29.102,31.352 28.9,31.352 		"/>
		
			<linearGradient id="SVGID_3_" gradientUnits="userSpaceOnUse" x1="181.667" y1="-380.2632" x2="185.7529" y2="-380.2632" gradientTransform="matrix(-1 0 0 1 212.7852 393.9648)">
			<stop  offset="0" style="stop-color:#F5969A"/>
			<stop  offset="1" style="stop-color:#901C1E"/>
		</linearGradient>
		<rect x="26.973" y="12.648" fill="url(#SVGID_3_)" width="4.086" height="2.106"/>
	</g>
	<g>
		<path id="path4992_5_" fill="#030303" d="M16.936,16.797c-0.021,0.006-0.035,0.012-0.054,0.018c0.002,0-0.057,0.02-0.055,0.019
			c0.002,0-0.07,0.021-0.07,0.019c0.002,0-0.055,0.037-0.053,0.035c0.002,0-0.058,0.036-0.054,0.035c0,0-0.057,0.036-0.053,0.035
			c0,0-0.057,0.036-0.055,0.034c0,0-0.057,0.057-0.055,0.055c0.002,0-0.035,0.056-0.035,0.054c0.002,0-0.035,0.057-0.033,0.055
			c0,0-0.037,0.056-0.037,0.053c0,0-0.035,0.072-0.035,0.07c0,0-0.02,0.056-0.018,0.055c0,0-0.02,0.072-0.02,0.07
			c0,0-0.019,0.072-0.017,0.07c0,0,0,0.055,0,0.053c0,0,0,0.033,0,0.055c0,0.006,0,0.018,0,0.018v3.445h-3.445c0,0-0.008,0-0.02,0
			c-0.01,0-0.018,0-0.018,0c0.002,0-0.037,0-0.035,0c-0.006,0-0.012,0-0.018,0c0.002,0-0.035,0-0.035,0s-0.037,0.018-0.035,0.018
			h-0.037c0.002,0-0.035,0.021-0.035,0.019c0.002,0-0.035,0.002-0.035,0c0,0-0.035,0.019-0.033,0.019s-0.035,0.018-0.035,0.018
			s-0.037,0.019-0.035,0.018c0,0-0.037,0.02-0.037,0.018c0.002,0-0.018,0.021-0.018,0.019c0.002,0-0.035,0.019-0.035,0.019
			l-0.035,0.02l-0.02,0.018c0.002,0-0.035,0.035-0.033,0.034c0,0-0.021,0.019-0.02,0.019c0.001,0-0.035,0.02-0.035,0.019
			c0,0-0.02,0.035-0.018,0.035l-0.02,0.035c0.002,0-0.018,0.019-0.016,0.019c0,0-0.037,0.036-0.037,0.035
			c0.002,0-0.018,0.036-0.018,0.034c0,0-0.018,0.037-0.018,0.034c0,0,0,0.021,0,0.02c0,0-0.018,0.036-0.018,0.034l-0.02,0.037v0.034
			l-0.018,0.037c0,0,0,0.035,0,0.033c0,0-0.018,0.037-0.018,0.035v0.036v0.036v0.035v3.959v0.035c0,0,0,0.037,0,0.035v0.035
			c0,0,0.018,0.036,0.018,0.035c0,0,0,0.036,0,0.035l0.018,0.055l0.02,0.034v0.036l0.018,0.034l0.018,0.034
			c0,0,0.02,0.037,0.018,0.037c0,0,0.02,0.019,0.02,0.018c-0.002,0,0.035,0.036,0.033,0.036l0.02,0.034
			c-0.002,0,0.018,0.035,0.018,0.035c-0.002,0,0.035,0.021,0.035,0.019c-0.002,0,0.02,0.037,0.02,0.035
			c-0.002,0,0.035,0.019,0.033,0.017c0,0,0.037,0.021,0.037,0.02c-0.002,0,0.035,0.037,0.035,0.037c-0.002,0,0.02,0.016,0.018,0.016
			l0.035,0.02c-0.002-0.002,0.037,0.019,0.035,0.019c0-0.002,0.037,0.019,0.035,0.019c0-0.002,0.037,0,0.037,0
			c-0.002-0.002,0.035,0.02,0.035,0.018c-0.002,0,0.055,0.019,0.053,0.018c0,0,0.037,0,0.035,0c0,0,0.037,0.02,0.037,0.018
			c-0.002,0,0.035,0,0.035,0c-0.002,0,0.035,0,0.035,0c-0.002,0,0.035,0,0.035,0h3.465v3.447v0.019c-0.002,0.01,0,0.018,0,0.018
			v0.035c0,0.006,0,0.013,0,0.019v0.035c-0.002,0,0.018,0.035,0.018,0.035s0,0.036,0,0.034l0.019,0.037c-0.002,0,0,0.034,0,0.034
			c-0.002,0,0.019,0.035,0.019,0.035l0.02,0.035c-0.002,0,0.018,0.036,0.018,0.036c-0.002,0,0.019,0.036,0.019,0.036
			c-0.003,0,0.018,0.02,0.018,0.018l0.021,0.035c-0.002,0,0.016,0.035,0.016,0.034l0.02,0.019l0.035,0.035
			c-0.002,0,0.019,0.021,0.019,0.019l0.021,0.035c-0.003,0,0.032,0.021,0.032,0.019l0.035,0.018l0.021,0.02
			c-0.002,0,0.037,0.035,0.034,0.035c0,0,0.037,0.018,0.035,0.018l0.035,0.019h0.021c-0.002,0,0.034,0.021,0.034,0.018
			c-0.002,0,0.035,0.021,0.035,0.019c-0.002,0,0.035,0.002,0.035,0c-0.002,0,0.035,0.021,0.035,0.02c-0.003,0,0.036,0,0.034,0
			l0.037,0.018c-0.002,0,0.035,0,0.035,0s0.035,0,0.033,0h0.037h3.959c-0.004,0,0.037,0,0.035,0s0.035,0,0.035,0
			c-0.002,0,0.037,0,0.035,0l0.037-0.018c-0.004,0,0.035,0,0.035,0s0.055-0.02,0.053-0.02c-0.002,0.002,0.037-0.019,0.037-0.019
			c-0.002,0.003,0.035,0,0.035,0c-0.003,0.003,0.034-0.018,0.032-0.018c0,0,0.037-0.019,0.035-0.019c0,0,0.037-0.02,0.037-0.018
			c-0.002,0,0.021-0.02,0.018-0.02l0.035-0.035c-0.002,0,0.035-0.02,0.035-0.018c-0.002,0,0.037-0.019,0.037-0.019
			c-0.002,0,0.018-0.035,0.018-0.033c-0.002,0,0.035-0.021,0.035-0.019c-0.002,0,0.019-0.037,0.019-0.037l0.018-0.034
			c-0.002,0,0.035-0.035,0.035-0.035s0.02-0.021,0.02-0.019c-0.002,0,0.018-0.035,0.018-0.035c-0.002,0,0.019-0.036,0.019-0.036
			c-0.002,0,0.019-0.035,0.019-0.035s0-0.036,0-0.033c0,0,0.02-0.038,0.02-0.036c-0.002,0,0.018-0.056,0.018-0.054
			c-0.002,0,0-0.036,0-0.035c-0.002,0,0.019-0.036,0.019-0.034c-0.002,0,0-0.037,0-0.035c0,0,0-0.039,0-0.035v-0.037V26.57h3.457
			c-0.004,0,0.034,0,0.032,0s0.039-0.002,0.037,0c-0.002,0,0.035-0.002,0.035,0c-0.002,0,0.035-0.021,0.035-0.02
			c-0.002,0,0.035-0.001,0.035,0c-0.002,0,0.057-0.019,0.055-0.019s0.035-0.019,0.035-0.019c-0.002,0,0.035,0,0.035,0
			c-0.002,0,0.037-0.018,0.035-0.018c0,0,0.037-0.018,0.035-0.018l0.037-0.019c-0.002,0,0.018-0.021,0.018-0.019
			c-0.002,0,0.035-0.034,0.035-0.034s0.035-0.021,0.035-0.019c-0.002,0,0.035-0.02,0.035-0.018c-0.002,0,0.018-0.037,0.018-0.036
			c0,0,0.035-0.019,0.035-0.017l0.02-0.037c-0.002,0,0.019-0.035,0.019-0.035c-0.003,0,0.034-0.036,0.034-0.036
			s0.019-0.019,0.019-0.017l0.021-0.037c-0.002,0,0.016-0.035,0.016-0.033c0,0,0.02-0.037,0.02-0.036v-0.035
			c0,0,0.019-0.036,0.019-0.034c-0.002,0,0.018-0.056,0.018-0.055c0,0,0-0.036,0-0.035l0.019-0.035V25.85v-0.035v-0.035V21.82
			v-0.035c0,0,0-0.036,0-0.035c0,0,0-0.036,0-0.034L26.05,21.68v-0.035c0,0-0.02-0.055-0.018-0.054l-0.019-0.034v-0.035l-0.02-0.035
			c0,0-0.018-0.036-0.016-0.036l-0.021-0.034c0,0-0.019-0.02-0.019-0.018c0,0-0.034-0.037-0.034-0.034c0,0-0.021-0.037-0.019-0.037
			l-0.02-0.035l-0.035-0.019c0,0-0.02-0.034-0.018-0.034l-0.035-0.019c0,0-0.035-0.02-0.035-0.018c0,0-0.037-0.035-0.035-0.035
			c0,0-0.02-0.018-0.018-0.018l-0.037-0.02c0.002,0.001-0.035-0.02-0.035-0.02c0.002,0-0.035-0.018-0.035-0.018
			c0,0.002-0.037,0-0.035,0c0.002,0.002-0.035-0.018-0.035-0.018c0,0.002-0.057-0.018-0.055-0.018h-0.035
			c0.002,0-0.035-0.02-0.035-0.019c0.002,0-0.035,0-0.035,0c0.002,0-0.037,0-0.037,0c0.002,0-0.034,0-0.032,0h-3.466v-3.464
			c0,0,0-0.037,0-0.036c0,0,0-0.036,0-0.035c0,0-0.002-0.036,0-0.036l-0.018-0.033V17.4c0,0-0.02-0.055-0.02-0.053
			c0,0-0.018-0.035-0.016-0.035c0,0-0.002-0.037,0-0.035c0,0-0.021-0.035-0.021-0.035c0,0-0.019-0.035-0.017-0.035
			c0,0-0.021-0.035-0.02-0.035c0,0-0.02-0.02-0.018-0.018c0,0-0.037-0.037-0.035-0.037c0,0-0.02-0.034-0.018-0.034
			c0,0-0.021-0.034-0.021-0.034c0,0-0.037-0.02-0.035-0.018c0,0-0.021-0.036-0.019-0.035c0,0-0.037-0.02-0.034-0.018
			c0,0-0.037-0.021-0.037-0.02c0,0-0.035-0.036-0.035-0.035c0,0-0.021-0.02-0.019-0.02c0,0-0.037-0.018-0.034-0.018
			c0,0.002-0.035-0.019-0.035-0.018c0,0-0.037-0.02-0.037-0.018c0.002,0-0.035,0-0.035,0c0.002,0-0.034-0.02-0.034-0.019
			c0.002,0-0.056-0.021-0.054-0.019c0,0-0.037,0-0.035,0c0,0-0.034-0.016-0.032-0.016h-0.037c0.002,0-0.037,0-0.035,0
			s-0.037,0-0.035,0h-3.924c0.002,0-0.037,0-0.035,0s-0.037,0-0.035,0c0,0-0.01,0-0.018,0c0,0-0.012,0-0.019,0h-0.037
			c-0.012,0-0.022,0-0.032,0V16.797L16.936,16.797z"/>
		<path id="rect4855-4_5_" fill="#71BE46" d="M17.083,17.572v4.242h-4.24v3.959h4.24v4.24h3.959v-4.24h4.24v-3.959h-4.24v-4.242
			H17.083z"/>
		
			<linearGradient id="path4903-3_1_" gradientUnits="userSpaceOnUse" x1="-1981.627" y1="1907.001" x2="-1970.1758" y2="1907.001" gradientTransform="matrix(0 -1 1 0 -1887.9395 -1952.1074)">
			<stop  offset="0" style="stop-color:#B0D68C"/>
			<stop  offset="1" style="stop-color:#249045"/>
		</linearGradient>
		<path id="path4903-3_5_" fill="url(#path4903-3_1_)" d="M17.577,18.068v4.24h-4.242v2.971h4.242v4.24h2.969v-4.24h4.242v-2.971
			h-4.242v-4.24H17.577z"/>
	</g>
</g>
</svg>
