<?xml version="1.0" encoding="utf-8"?>
<!-- Generator: Adobe Illustrator 14.0.0, SVG Export Plug-In . SVG Version: 6.00 Build 43363)  -->
<!DOCTYPE svg PUBLIC "-//W3C//DTD SVG 1.1//EN" "http://www.w3.org/Graphics/SVG/1.1/DTD/svg11.dtd">
<svg version="1.1" id="Layer_1" xmlns="http://www.w3.org/2000/svg" xmlns:xlink="http://www.w3.org/1999/xlink" x="0px" y="0px"
	 width="32px" height="32px" viewBox="0 0 32 32" enable-background="new 0 0 32 32" xml:space="preserve">
<path d="M10.125,25.811C5.249,25.811,0,24.582,0,21.885v-4.83c0-0.223,0.041-0.515,0.188-0.837C0.041,15.895,0,15.603,0,15.38
	v-4.829c0-0.24,0.046-0.554,0.216-0.897C0.046,9.309,0,8.995,0,8.755V3.926C0.001,1.229,5.251,0,10.127,0
	c4.875,0,10.124,1.229,10.125,3.926v4.829c0,0.24-0.046,0.554-0.216,0.898c0.17,0.344,0.216,0.658,0.216,0.897v4.829
	c0,0.223-0.04,0.515-0.188,0.837c0.146,0.322,0.188,0.614,0.188,0.837v4.83C20.253,24.582,15.003,25.811,10.125,25.811
	L10.125,25.811z"/>
<linearGradient id="path8001_2_" gradientUnits="userSpaceOnUse" x1="1848.9766" y1="-3374.3223" x2="1871.5741" y2="-3374.3223" gradientTransform="matrix(0.6524 0 0 -0.6524 -1205.249 -2180.4758)">
	<stop  offset="0" style="stop-color:#C0DEEC"/>
	<stop  offset="0.0164" style="stop-color:#B8D3E3"/>
	<stop  offset="0.043" style="stop-color:#A4BDC9"/>
	<stop  offset="0.0667" style="stop-color:#8CA2B0"/>
	<stop  offset="0.5455" style="stop-color:#C0DEEC"/>
	<stop  offset="0.5614" style="stop-color:#C3DDED"/>
	<stop  offset="0.6708" style="stop-color:#DAEBF4"/>
	<stop  offset="0.7715" style="stop-color:#EDF8FA"/>
	<stop  offset="0.8545" style="stop-color:#F2FAFB"/>
	<stop  offset="0.8593" style="stop-color:#F0F9FB"/>
	<stop  offset="0.8965" style="stop-color:#E9F6F8"/>
	<stop  offset="1" style="stop-color:#E8F6F9"/>
</linearGradient>
<path id="path8001_1_" fill="url(#path8001_2_)" d="M19.253,21.885v-4.83c0,1.617-4.086,2.93-9.127,2.93
	C5.087,19.984,1,18.672,1,17.055v4.83c0,1.617,4.084,2.926,9.125,2.926S19.253,23.502,19.253,21.885z"/>
<ellipse id="ellipse8003_1_" fill="#C0DEEC" cx="10.127" cy="17.055" rx="9.125" ry="2.929"/>
<ellipse id="ellipse8010_1_" fill="#020202" cx="10.127" cy="16.75" rx="8.645" ry="2.759"/>
<linearGradient id="path8044_2_" gradientUnits="userSpaceOnUse" x1="1876.7793" y1="-3370.7554" x2="1853.922" y2="-3370.7554" gradientTransform="matrix(0.6524 0 0 -0.6524 -1205.249 -2180.4758)">
	<stop  offset="0" style="stop-color:#C0DEEC"/>
	<stop  offset="0.0164" style="stop-color:#B8D3E3"/>
	<stop  offset="0.043" style="stop-color:#A4BDC9"/>
	<stop  offset="0.0667" style="stop-color:#8CA2B0"/>
	<stop  offset="0.5455" style="stop-color:#C0DEEC"/>
	<stop  offset="0.5614" style="stop-color:#C3DDED"/>
	<stop  offset="0.6708" style="stop-color:#DAEBF4"/>
	<stop  offset="0.7715" style="stop-color:#EDF8FA"/>
	<stop  offset="0.8545" style="stop-color:#F2FAFB"/>
	<stop  offset="0.8593" style="stop-color:#F0F9FB"/>
	<stop  offset="0.8965" style="stop-color:#E9F6F8"/>
	<stop  offset="1" style="stop-color:#E8F6F9"/>
</linearGradient>
<path id="path8044_1_" fill="url(#path8044_2_)" d="M10.127,19.807c-4.857,0-8.827-1.217-9.107-2.752
	c-0.013,0.059-0.019,0.115-0.019,0.178c0,1.613,4.084,2.925,9.126,2.925c5.036,0,9.125-1.312,9.125-2.925
	c0-0.063-0.01-0.119-0.018-0.178C18.952,18.59,14.982,19.807,10.127,19.807z"/>
<linearGradient id="path8087_2_" gradientUnits="userSpaceOnUse" x1="1848.9766" y1="-3364.3574" x2="1871.5741" y2="-3364.3574" gradientTransform="matrix(0.6524 0 0 -0.6524 -1205.249 -2180.4758)">
	<stop  offset="0" style="stop-color:#C0DEEC"/>
	<stop  offset="0.0164" style="stop-color:#B8D3E3"/>
	<stop  offset="0.043" style="stop-color:#A4BDC9"/>
	<stop  offset="0.0667" style="stop-color:#8CA2B0"/>
	<stop  offset="0.5455" style="stop-color:#C0DEEC"/>
	<stop  offset="0.5614" style="stop-color:#C3DDED"/>
	<stop  offset="0.6708" style="stop-color:#DAEBF4"/>
	<stop  offset="0.7715" style="stop-color:#EDF8FA"/>
	<stop  offset="0.8545" style="stop-color:#F2FAFB"/>
	<stop  offset="0.8593" style="stop-color:#F0F9FB"/>
	<stop  offset="0.8965" style="stop-color:#E9F6F8"/>
	<stop  offset="1" style="stop-color:#E8F6F9"/>
</linearGradient>
<path id="path8087_1_" fill="url(#path8087_2_)" d="M19.253,15.38v-4.826c0,1.615-4.086,2.926-9.127,2.926
	C5.087,13.479,1,12.169,1,10.554v4.826c0,1.615,4.084,2.929,9.125,2.929C15.167,18.307,19.253,16.997,19.253,15.38z"/>
<ellipse id="ellipse8089_1_" fill="#C0DEEC" cx="10.127" cy="10.552" rx="9.125" ry="2.927"/>
<ellipse id="ellipse8096_1_" fill="#020202" cx="10.127" cy="10.252" rx="8.645" ry="2.759"/>
<linearGradient id="path8130_2_" gradientUnits="userSpaceOnUse" x1="1876.7715" y1="-3360.7881" x2="1853.9139" y2="-3360.7881" gradientTransform="matrix(0.6524 0 0 -0.6524 -1205.249 -2180.4758)">
	<stop  offset="0" style="stop-color:#C0DEEC"/>
	<stop  offset="0.0164" style="stop-color:#B8D3E3"/>
	<stop  offset="0.043" style="stop-color:#A4BDC9"/>
	<stop  offset="0.0667" style="stop-color:#8CA2B0"/>
	<stop  offset="0.5455" style="stop-color:#C0DEEC"/>
	<stop  offset="0.5614" style="stop-color:#C3DDED"/>
	<stop  offset="0.6708" style="stop-color:#DAEBF4"/>
	<stop  offset="0.7715" style="stop-color:#EDF8FA"/>
	<stop  offset="0.8545" style="stop-color:#F2FAFB"/>
	<stop  offset="0.8593" style="stop-color:#F0F9FB"/>
	<stop  offset="0.8965" style="stop-color:#E9F6F8"/>
	<stop  offset="1" style="stop-color:#E8F6F9"/>
</linearGradient>
<path id="path8130_1_" fill="url(#path8130_2_)" d="M10.127,13.306c-4.857,0-8.827-1.217-9.107-2.752
	c-0.013,0.058-0.019,0.112-0.019,0.174c0,1.615,4.084,2.925,9.126,2.925c5.036,0,9.125-1.31,9.125-2.925
	c0-0.062-0.01-0.119-0.018-0.174C18.952,12.088,14.982,13.306,10.127,13.306z"/>
<linearGradient id="path8173_2_" gradientUnits="userSpaceOnUse" x1="1848.9766" y1="-3354.2021" x2="1871.5741" y2="-3354.2021" gradientTransform="matrix(0.6524 0 0 -0.6524 -1205.249 -2180.4758)">
	<stop  offset="0" style="stop-color:#C0DEEC"/>
	<stop  offset="0.0164" style="stop-color:#B8D3E3"/>
	<stop  offset="0.043" style="stop-color:#A4BDC9"/>
	<stop  offset="0.0667" style="stop-color:#8CA2B0"/>
	<stop  offset="0.5455" style="stop-color:#C0DEEC"/>
	<stop  offset="0.5614" style="stop-color:#C3DDED"/>
	<stop  offset="0.6708" style="stop-color:#DAEBF4"/>
	<stop  offset="0.7715" style="stop-color:#EDF8FA"/>
	<stop  offset="0.8545" style="stop-color:#F2FAFB"/>
	<stop  offset="0.8593" style="stop-color:#F0F9FB"/>
	<stop  offset="0.8965" style="stop-color:#E9F6F8"/>
	<stop  offset="1" style="stop-color:#E8F6F9"/>
</linearGradient>
<path id="path8173_1_" fill="url(#path8173_2_)" d="M19.253,8.755V3.926c0,1.617-4.086,2.928-9.127,2.928
	C5.087,6.854,1,5.542,1,3.926v4.829c0,1.617,4.084,2.931,9.125,2.931S19.253,10.372,19.253,8.755z"/>
<ellipse id="ellipse8175_1_" fill="#C0DEEC" cx="10.127" cy="3.927" rx="9.125" ry="2.927"/>
<linearGradient id="path8202_2_" gradientUnits="userSpaceOnUse" x1="1876.7793" y1="-3350.71" x2="1853.922" y2="-3350.71" gradientTransform="matrix(0.6524 0 0 -0.6524 -1205.249 -2180.4758)">
	<stop  offset="0" style="stop-color:#C0DEEC"/>
	<stop  offset="0.0164" style="stop-color:#B8D3E3"/>
	<stop  offset="0.043" style="stop-color:#A4BDC9"/>
	<stop  offset="0.0667" style="stop-color:#8CA2B0"/>
	<stop  offset="0.5455" style="stop-color:#C0DEEC"/>
	<stop  offset="0.5614" style="stop-color:#C3DDED"/>
	<stop  offset="0.6708" style="stop-color:#DAEBF4"/>
	<stop  offset="0.7715" style="stop-color:#EDF8FA"/>
	<stop  offset="0.8545" style="stop-color:#F2FAFB"/>
	<stop  offset="0.8593" style="stop-color:#F0F9FB"/>
	<stop  offset="0.8965" style="stop-color:#E9F6F8"/>
	<stop  offset="1" style="stop-color:#E8F6F9"/>
</linearGradient>
<path id="path8202_1_" fill="url(#path8202_2_)" d="M10.127,6.73C5.271,6.73,1.3,5.515,1.02,3.977
	C1.007,4.035,1.001,4.095,1.001,4.153c0,1.617,4.084,2.927,9.126,2.927c5.036,0,9.125-1.313,9.125-2.927
	c0-0.061-0.01-0.118-0.018-0.176C18.952,5.515,14.982,6.73,10.127,6.73L10.127,6.73z"/>
<path id="path4235" opacity="0.98" fill="#020202" enable-background="new    " d="M24.757,21.191
	c-0.075,0.076-0.167,0.136-0.272,0.172c-0.26,0.091-0.549,0.029-0.746-0.162l-2.041-1.967c-0.485,0.42-0.879,0.783-1.231,1.139
	c-2.307,2.307-3,4.369-2.243,6.688c0.086,0.264,0.014,0.549-0.179,0.739c-0.028,0.028-0.06,0.056-0.094,0.08
	c-0.263,0.185-0.611,0.177-0.863-0.019c-0.083-0.063-2.028-1.588-2.269-4.443c-0.206-2.457,0.89-5.079,3.263-7.801l-1.59-1.663
	c-0.19-0.198-0.251-0.487-0.16-0.745c0.039-0.104,0.096-0.196,0.172-0.272c0.112-0.112,0.259-0.187,0.421-0.208l8.288-1.063
	c0.224-0.028,0.447,0.048,0.606,0.207c0.16,0.16,0.236,0.385,0.207,0.607l-1.063,8.29C24.943,20.934,24.869,21.079,24.757,21.191
	L24.757,21.191z"/>
<path id="path7827_4_" fill="#6BBE45" d="M25.305,12.388l-1.062,8.289l-2.517-2.424c-2.701,2.272-5.494,5.052-4.195,9.032
	c0,0-5.419-4.163,1.543-11.684l-2.057-2.15L25.305,12.388L25.305,12.388z"/>
<linearGradient id="path4246_2_" gradientUnits="userSpaceOnUse" x1="297.7891" y1="-391.7148" x2="306.0039" y2="-391.7148" gradientTransform="matrix(1 0 0 -1 -281.54 -372.8398)">
	<stop  offset="0" style="stop-color:#B2D78E"/>
	<stop  offset="1" style="stop-color:#1F9045"/>
</linearGradient>
<path id="path4246" fill="url(#path4246_2_)" d="M21.76,17.275l-0.501,0.422c-0.761,0.64-1.321,1.148-1.821,1.646
	c-1.213,1.213-2.638,2.93-2.914,5.178c-0.126-0.371-0.22-0.791-0.256-1.256c-0.173-2.178,0.95-4.592,3.342-7.173l0.464-0.501
	l-1.533-1.603l5.924-0.76l-0.756,5.919L21.76,17.275z"/>
<path id="path4235_1_" opacity="0.98" fill="#020202" enable-background="new    " d="M22.035,22.468
	c0.076-0.073,0.169-0.135,0.273-0.17c0.26-0.092,0.549-0.028,0.746,0.161l2.041,1.968c0.485-0.422,0.879-0.784,1.232-1.139
	c2.306-2.308,2.999-4.369,2.242-6.688c-0.086-0.263-0.014-0.549,0.179-0.74c0.028-0.028,0.06-0.056,0.094-0.08
	c0.263-0.185,0.611-0.175,0.863,0.018c0.083,0.063,2.026,1.588,2.269,4.444c0.207,2.458-0.89,5.078-3.263,7.802l1.591,1.662
	c0.19,0.198,0.252,0.487,0.159,0.745c-0.039,0.104-0.096,0.195-0.172,0.271c-0.11,0.111-0.259,0.188-0.422,0.207l-8.287,1.064
	c-0.224,0.027-0.447-0.049-0.606-0.207c-0.16-0.161-0.235-0.385-0.207-0.607l1.063-8.289C21.85,22.729,21.924,22.581,22.035,22.468
	L22.035,22.468z"/>
<path id="path7827_1_" fill="#6BBE45" d="M21.488,31.271l1.063-8.287l2.516,2.423c2.701-2.272,5.494-5.052,4.195-9.032
	c0,0,5.42,4.163-1.543,11.686l2.057,2.149L21.488,31.271L21.488,31.271z"/>
<linearGradient id="path4246_3_" gradientUnits="userSpaceOnUse" x1="303.8691" y1="-397.625" x2="312.083" y2="-397.625" gradientTransform="matrix(1 0 0 -1 -281.54 -372.8398)">
	<stop  offset="0" style="stop-color:#B2D78E"/>
	<stop  offset="1" style="stop-color:#1F9045"/>
</linearGradient>
<path id="path4246_1_" fill="url(#path4246_3_)" d="M25.034,26.385l0.501-0.421c0.76-0.641,1.322-1.147,1.82-1.647
	c1.213-1.213,2.639-2.931,2.914-5.178c0.127,0.372,0.221,0.791,0.256,1.256c0.174,2.178-0.949,4.592-3.34,7.174l-0.465,0.5
	l1.533,1.604l-5.925,0.76l0.757-5.92L25.034,26.385z"/>
</svg>
