<?xml version="1.0" encoding="utf-8"?>
<!-- Generator: Adobe Illustrator 14.0.0, SVG Export Plug-In . SVG Version: 6.00 Build 43363)  -->
<!DOCTYPE svg PUBLIC "-//W3C//DTD SVG 1.1//EN" "http://www.w3.org/Graphics/SVG/1.1/DTD/svg11.dtd">
<svg version="1.1" id="Layer_1" xmlns="http://www.w3.org/2000/svg" xmlns:xlink="http://www.w3.org/1999/xlink" x="0px" y="0px"
	 width="32px" height="32px" viewBox="0 0 32 32" enable-background="new 0 0 32 32" xml:space="preserve">
<g>
	<path d="M11.143,16.554c-2.074,0-3.762-1.513-3.762-3.372c0-1.86,1.688-3.373,3.762-3.373s3.763,1.513,3.763,3.373
		C14.905,15.041,13.217,16.554,11.143,16.554L11.143,16.554z"/>
	<ellipse fill="#EC2727" cx="11.143" cy="13.182" rx="2.959" ry="2.568"/>
	<path d="M11.143,30.86c-4.252,0-7.712-4.146-7.712-9.241c0-5.096,3.46-9.241,7.712-9.241c4.254,0,7.713,4.145,7.713,9.241
		C18.855,26.714,15.396,30.86,11.143,30.86L11.143,30.86z"/>
	<ellipse fill="#EC2727" cx="11.142" cy="21.619" rx="6.908" ry="8.438"/>
	<radialGradient id="SVGID_1_" cx="13.1011" cy="18.4043" r="10.1087" gradientUnits="userSpaceOnUse">
		<stop  offset="0" style="stop-color:#F6979A"/>
		<stop  offset="1" style="stop-color:#901A1D"/>
	</radialGradient>
	<path fill="url(#SVGID_1_)" d="M11.143,29.253c-3.366,0-6.105-3.425-6.105-7.634s2.739-7.634,6.105-7.634s6.105,3.425,6.105,7.634
		S14.509,29.253,11.143,29.253L11.143,29.253z"/>
	<line fill="none" stroke="#000000" stroke-width="0.8037" x1="11.143" y1="12.963" x2="11.143" y2="30.057"/>
	<path fill="none" stroke="#000000" d="M16.595,15.983c0,0,6.228-1.06,2.261-7.038"/>
	<path fill="none" stroke="#000000" d="M5.758,15.75c0,0-6.229-1.061-2.261-7.038"/>
	<path fill="none" stroke="#000000" d="M9.025,10.974c0,0-2.015-1.135-0.464-3.472"/>
	<path fill="none" stroke="#000000" d="M0.771,25.773c0,0-1.758-6.179,3.681-7.551"/>
	<path fill="none" stroke="#000000" d="M5.038,31.701c0,0-4.919-4.421-0.887-7.752"/>
	<path fill="none" stroke="#000000" d="M21.516,25.772c0,0,1.758-6.179-3.682-7.551"/>
	<path fill="none" stroke="#000000" d="M17.248,31.7c0,0,4.92-4.421,0.887-7.752"/>
	<path fill="none" stroke="#000000" d="M13.051,10.974c0,0,2.015-1.135,0.464-3.472"/>
</g>
<g>
	<path d="M24.867,1.274V1.211c0.001-0.266-0.104-0.521-0.292-0.71c-0.188-0.188-0.442-0.294-0.708-0.294l-6.15,0.003
		c-0.288,0-0.543,0.126-0.726,0.321c-0.007-0.008-0.009-0.018-0.017-0.025c-0.188-0.188-0.442-0.294-0.708-0.294l-3.317,0.001
		c-0.55,0-0.997,0.445-1,0.996l-0.024,5.534c-0.001,0.266,0.104,0.521,0.292,0.71c0.188,0.188,0.442,0.294,0.708,0.294l3.317-0.002
		c0.526,0,0.947-0.411,0.985-0.928l1.55,1.706c0.101,0.11,0.225,0.191,0.359,0.247l-0.013,3.052
		c-0.398,0.13-0.692,0.492-0.694,0.934l-0.072,16.394c-0.001,0.191,0.069,0.368,0.17,0.527l-0.006,1.411
		c-0.001,0.266,0.104,0.521,0.292,0.71c0.188,0.188,0.442,0.294,0.708,0.294l3.042-0.002c0.55,0,0.997-0.445,0.999-0.996l0.006-1.41
		c0.1-0.154,0.173-0.328,0.174-0.526l0.072-16.395c0.001-0.266-0.104-0.521-0.292-0.71c-0.11-0.111-0.248-0.183-0.394-0.232
		l0.014-3.007c0.288-0.071,0.537-0.264,0.667-0.541l0.697-1.484c1.544,0.075,4.021,0.705,5.511,3.712
		c0.172,0.346,0.522,0.556,0.896,0.556c0.074,0,0.149-0.008,0.225-0.025c0.451-0.104,0.771-0.504,0.775-0.967
		C31.956,4.616,27.904,2.113,24.867,1.274z"/>
	
		<linearGradient id="rect3338_1_" gradientUnits="userSpaceOnUse" x1="-230.8521" y1="-351.5244" x2="-227.8371" y2="-351.5244" gradientTransform="matrix(1.0252 -3.999999e-004 0.0045 -1.026 253.7204 -356.8485)">
		<stop  offset="0" style="stop-color:#E6E6E5"/>
		<stop  offset="0.7255" style="stop-color:#98BECC"/>
		<stop  offset="1" style="stop-color:#B0D7E5"/>
	</linearGradient>
	<polygon id="rect3338_3_" fill="url(#rect3338_1_)" points="15.604,2.455 18.438,2.454 18.426,5.359 15.592,5.361 	"/>
	
		<linearGradient id="rect3340_1_" gradientUnits="userSpaceOnUse" x1="-261.8687" y1="-250.5278" x2="-261.8687" y2="-254.9645" gradientTransform="matrix(0.8057 -3.000000e-004 0.0058 -1.3055 227.0487 -326.0588)">
		<stop  offset="0" style="stop-color:#DBEEF2"/>
		<stop  offset="1" style="stop-color:#328196"/>
	</linearGradient>
	<polygon id="rect3340_3_" fill="url(#rect3340_1_)" points="12.949,1.212 16.266,1.211 16.242,6.744 12.925,6.746 	"/>
	
		<linearGradient id="rect3342_1_" gradientUnits="userSpaceOnUse" x1="-226.4028" y1="-358.165" x2="-224.1967" y2="-358.165" gradientTransform="matrix(1.0252 -3.999999e-004 0.0045 -1.026 253.7204 -356.8485)">
		<stop  offset="0" style="stop-color:#E6E6E5"/>
		<stop  offset="0.7255" style="stop-color:#98BECC"/>
		<stop  offset="1" style="stop-color:#B0D7E5"/>
	</linearGradient>
	<polygon id="rect3342_3_" fill="url(#rect3342_1_)" points="20.143,7.504 22.148,7.502 22.119,13.936 20.115,13.937 	"/>
	
		<linearGradient id="rect3344_1_" gradientUnits="userSpaceOnUse" x1="-223.5239" y1="-368.1431" x2="-227.0759" y2="-368.1431" gradientTransform="matrix(1.0252 -3.999999e-004 0.0045 -1.026 253.7204 -356.8485)">
		<stop  offset="0" style="stop-color:#F89B40"/>
		<stop  offset="0.2217" style="stop-color:#F47920"/>
		<stop  offset="1" style="stop-color:#FFFFFF"/>
	</linearGradient>
	<polygon id="rect3344_3_" fill="url(#rect3344_1_)" points="19.43,12.76 22.814,12.758 22.742,29.152 19.357,29.154 	"/>
	
		<linearGradient id="rect3346_1_" gradientUnits="userSpaceOnUse" x1="-226.9082" y1="-377.0762" x2="-223.6917" y2="-377.0762" gradientTransform="matrix(1.0252 -3.999999e-004 0.0045 -1.026 253.7204 -356.8485)">
		<stop  offset="0" style="stop-color:#E6E6E5"/>
		<stop  offset="0.7255" style="stop-color:#98BECC"/>
		<stop  offset="1" style="stop-color:#B0D7E5"/>
	</linearGradient>
	<polygon id="rect3346_3_" fill="url(#rect3346_1_)" points="19.529,29.154 22.57,29.152 22.563,31.09 19.521,31.092 	"/>
	
		<linearGradient id="path3348_1_" gradientUnits="userSpaceOnUse" x1="-219.686" y1="-353.8481" x2="-216.8736" y2="-349.7599" gradientTransform="matrix(1.0252 -3.999999e-004 0.0045 -1.026 253.7204 -356.8485)">
		<stop  offset="0" style="stop-color:#E6E6E5"/>
		<stop  offset="0.7255" style="stop-color:#98BECC"/>
		<stop  offset="1" style="stop-color:#B0D7E5"/>
	</linearGradient>
	<path id="path3348_3_" fill="url(#path3348_1_)" d="M30.914,10.058c-2.535-5.118-7.652-4.216-7.652-4.216l0.016-3.874
		C23.277,1.968,30.969,2.864,30.914,10.058z"/>
	<polygon id="polygon3350_5_" fill="#AFE1F9" points="17.695,5.844 17.717,1.21 23.867,1.207 23.848,5.841 23.848,5.841 
		22.904,7.848 19.518,7.85 	"/>
</g>
</svg>
