<?xml version="1.0" encoding="utf-8"?>
<!-- Generator: Adobe Illustrator 14.0.0, SVG Export Plug-In . SVG Version: 6.00 Build 43363)  -->
<!DOCTYPE svg PUBLIC "-//W3C//DTD SVG 1.1//EN" "http://www.w3.org/Graphics/SVG/1.1/DTD/svg11.dtd">
<svg version="1.1" id="Layer_1" xmlns="http://www.w3.org/2000/svg" xmlns:xlink="http://www.w3.org/1999/xlink" x="0px" y="0px"
	 width="32px" height="32px" viewBox="0 0 32 32" enable-background="new 0 0 32 32" xml:space="preserve">
<g>
	<g>
		<path id="path2924" fill="#020202" d="M2.988,32c-0.583,0-1.055-0.47-1.055-1.055V1.055C1.934,0.473,2.405,0,2.988,0h15.129
			c0.282,0,0.551,0.11,0.746,0.31l7.026,7.026c0.198,0.198,0.31,0.466,0.31,0.746v22.863c0,0.586-0.473,1.055-1.056,1.055L2.988,32
			L2.988,32z"/>
		<polygon id="polygon2926" fill="#00ACDA" points="18.117,1.055 2.988,1.055 2.988,30.945 25.144,30.945 25.144,8.082 		"/>
		<polygon id="polygon2928" fill="#FFFFFF" points="23.118,7.125 23.118,28.751 4.92,28.751 4.92,3.08 19.073,3.08 21.009,5.277 		
			"/>
		<path id="path2930" fill="#020202" d="M18.117,9.136c-0.583,0-1.055-0.472-1.055-1.055V1.055c0-0.426,0.257-0.812,0.651-0.975
			C17.846,0.026,17.981,0,18.117,0c0.276,0,0.546,0.108,0.746,0.31l7.026,7.026c0.301,0.302,0.392,0.756,0.229,1.15
			c-0.162,0.394-0.55,0.65-0.975,0.65H18.117z"/>
		<polygon id="polygon2932" fill="#00ACDA" points="18.117,8.082 25.144,8.082 18.117,1.055 		"/>
	</g>
	<g>
		<path d="M23.788,32c-3.021,0-6.276-0.762-6.276-2.434v-2.994c0-0.138,0.025-0.319,0.117-0.519c-0.092-0.2-0.117-0.382-0.117-0.52
			V22.54c0-0.147,0.029-0.343,0.135-0.556c-0.105-0.213-0.135-0.408-0.135-0.557v-2.994C17.514,16.762,20.768,16,23.79,16
			c3.021,0,6.276,0.762,6.276,2.434v2.994c0,0.148-0.028,0.344-0.134,0.557c0.105,0.213,0.134,0.408,0.134,0.556v2.993
			c0,0.139-0.024,0.319-0.116,0.519c0.091,0.2,0.116,0.381,0.116,0.52v2.994C30.067,31.238,26.813,32,23.788,32L23.788,32z"/>
		
			<linearGradient id="path8001_1_" gradientUnits="userSpaceOnUse" x1="2306.5029" y1="4038.9248" x2="2320.5107" y2="4038.9248" gradientTransform="matrix(0.6524 0 0 0.6524 -1486.6157 -2606.019)">
			<stop  offset="0" style="stop-color:#BFDEEC"/>
			<stop  offset="0.0164" style="stop-color:#B8D3E2"/>
			<stop  offset="0.043" style="stop-color:#A3BCC8"/>
			<stop  offset="0.0667" style="stop-color:#8BA2AF"/>
			<stop  offset="0.5455" style="stop-color:#BFDEEC"/>
			<stop  offset="0.5614" style="stop-color:#C2DCEB"/>
			<stop  offset="0.6708" style="stop-color:#DAEBF3"/>
			<stop  offset="0.7715" style="stop-color:#EDF7F9"/>
			<stop  offset="0.8545" style="stop-color:#F1F8F9"/>
			<stop  offset="0.8593" style="stop-color:#F0F8FA"/>
			<stop  offset="0.8965" style="stop-color:#E9F5F7"/>
			<stop  offset="1" style="stop-color:#E8F5F7"/>
		</linearGradient>
		<path id="path8001_4_" fill="url(#path8001_1_)" d="M29.447,29.566v-2.994c0,1.003-2.532,1.816-5.657,1.816
			c-3.124,0-5.657-0.813-5.657-1.816v2.994c0,1.003,2.531,1.813,5.655,1.813C26.913,31.38,29.447,30.569,29.447,29.566z"/>
		<ellipse id="ellipse8003_4_" fill="#BFDEEC" cx="23.79" cy="26.573" rx="5.656" ry="1.816"/>
		<ellipse id="ellipse8010_4_" fill="#020202" cx="23.79" cy="26.383" rx="5.358" ry="1.71"/>
		
			<linearGradient id="path8044_1_" gradientUnits="userSpaceOnUse" x1="2323.7363" y1="4036.7158" x2="2309.5681" y2="4036.7158" gradientTransform="matrix(0.6524 0 0 0.6524 -1486.6157 -2606.019)">
			<stop  offset="0" style="stop-color:#BFDEEC"/>
			<stop  offset="0.0164" style="stop-color:#B8D3E2"/>
			<stop  offset="0.043" style="stop-color:#A3BCC8"/>
			<stop  offset="0.0667" style="stop-color:#8BA2AF"/>
			<stop  offset="0.5455" style="stop-color:#BFDEEC"/>
			<stop  offset="0.5614" style="stop-color:#C2DCEB"/>
			<stop  offset="0.6708" style="stop-color:#DAEBF3"/>
			<stop  offset="0.7715" style="stop-color:#EDF7F9"/>
			<stop  offset="0.8545" style="stop-color:#F1F8F9"/>
			<stop  offset="0.8593" style="stop-color:#F0F8FA"/>
			<stop  offset="0.8965" style="stop-color:#E9F5F7"/>
			<stop  offset="1" style="stop-color:#E8F5F7"/>
		</linearGradient>
		<path id="path8044_4_" fill="url(#path8044_1_)" d="M23.79,28.278c-3.01,0-5.472-0.755-5.646-1.706
			c-0.008,0.037-0.012,0.071-0.012,0.11c0,1,2.531,1.813,5.657,1.813c3.122,0,5.656-0.813,5.656-1.813
			c0-0.039-0.006-0.073-0.011-0.11C29.261,27.523,26.8,28.278,23.79,28.278z"/>
		
			<linearGradient id="path8087_1_" gradientUnits="userSpaceOnUse" x1="2306.5029" y1="4032.748" x2="2320.5107" y2="4032.748" gradientTransform="matrix(0.6524 0 0 0.6524 -1486.6157 -2606.019)">
			<stop  offset="0" style="stop-color:#BFDEEC"/>
			<stop  offset="0.0164" style="stop-color:#B8D3E2"/>
			<stop  offset="0.043" style="stop-color:#A3BCC8"/>
			<stop  offset="0.0667" style="stop-color:#8BA2AF"/>
			<stop  offset="0.5455" style="stop-color:#BFDEEC"/>
			<stop  offset="0.5614" style="stop-color:#C2DCEB"/>
			<stop  offset="0.6708" style="stop-color:#DAEBF3"/>
			<stop  offset="0.7715" style="stop-color:#EDF7F9"/>
			<stop  offset="0.8545" style="stop-color:#F1F8F9"/>
			<stop  offset="0.8593" style="stop-color:#F0F8FA"/>
			<stop  offset="0.8965" style="stop-color:#E9F5F7"/>
			<stop  offset="1" style="stop-color:#E8F5F7"/>
		</linearGradient>
		<path id="path8087_4_" fill="url(#path8087_1_)" d="M29.447,25.534v-2.992c0,1.002-2.532,1.814-5.657,1.814
			c-3.124,0-5.657-0.813-5.657-1.814v2.992c0,1.001,2.531,1.815,5.655,1.815C26.915,27.349,29.447,26.536,29.447,25.534z"/>
		<ellipse id="ellipse8089_4_" fill="#BFDEEC" cx="23.79" cy="22.542" rx="5.656" ry="1.815"/>
		<ellipse id="ellipse8096_4_" fill="#020202" cx="23.79" cy="22.355" rx="5.358" ry="1.71"/>
		
			<linearGradient id="path8130_1_" gradientUnits="userSpaceOnUse" x1="2323.7314" y1="4030.5371" x2="2309.563" y2="4030.5371" gradientTransform="matrix(0.6524 0 0 0.6524 -1486.6157 -2606.019)">
			<stop  offset="0" style="stop-color:#BFDEEC"/>
			<stop  offset="0.0164" style="stop-color:#B8D3E2"/>
			<stop  offset="0.043" style="stop-color:#A3BCC8"/>
			<stop  offset="0.0667" style="stop-color:#8BA2AF"/>
			<stop  offset="0.5455" style="stop-color:#BFDEEC"/>
			<stop  offset="0.5614" style="stop-color:#C2DCEB"/>
			<stop  offset="0.6708" style="stop-color:#DAEBF3"/>
			<stop  offset="0.7715" style="stop-color:#EDF7F9"/>
			<stop  offset="0.8545" style="stop-color:#F1F8F9"/>
			<stop  offset="0.8593" style="stop-color:#F0F8FA"/>
			<stop  offset="0.8965" style="stop-color:#E9F5F7"/>
			<stop  offset="1" style="stop-color:#E8F5F7"/>
		</linearGradient>
		<path id="path8130_4_" fill="url(#path8130_1_)" d="M23.79,24.248c-3.01,0-5.472-0.754-5.646-1.706
			c-0.008,0.036-0.012,0.07-0.012,0.108c0,1.001,2.531,1.813,5.657,1.813c3.122,0,5.656-0.813,5.656-1.813
			c0-0.038-0.006-0.074-0.011-0.108C29.261,23.493,26.8,24.248,23.79,24.248z"/>
		
			<linearGradient id="path8173_1_" gradientUnits="userSpaceOnUse" x1="2306.5029" y1="4026.4531" x2="2320.5107" y2="4026.4531" gradientTransform="matrix(0.6524 0 0 0.6524 -1486.6157 -2606.019)">
			<stop  offset="0" style="stop-color:#BFDEEC"/>
			<stop  offset="0.0164" style="stop-color:#B8D3E2"/>
			<stop  offset="0.043" style="stop-color:#A3BCC8"/>
			<stop  offset="0.0667" style="stop-color:#8BA2AF"/>
			<stop  offset="0.5455" style="stop-color:#BFDEEC"/>
			<stop  offset="0.5614" style="stop-color:#C2DCEB"/>
			<stop  offset="0.6708" style="stop-color:#DAEBF3"/>
			<stop  offset="0.7715" style="stop-color:#EDF7F9"/>
			<stop  offset="0.8545" style="stop-color:#F1F8F9"/>
			<stop  offset="0.8593" style="stop-color:#F0F8FA"/>
			<stop  offset="0.8965" style="stop-color:#E9F5F7"/>
			<stop  offset="1" style="stop-color:#E8F5F7"/>
		</linearGradient>
		<path id="path8173_4_" fill="url(#path8173_1_)" d="M29.447,21.428v-2.994c0,1.002-2.532,1.815-5.657,1.815
			c-3.124,0-5.657-0.813-5.657-1.815v2.994c0,1.002,2.531,1.816,5.655,1.816C26.913,23.244,29.447,22.43,29.447,21.428z"/>
		<ellipse id="ellipse8175_4_" fill="#BFDEEC" cx="23.79" cy="18.435" rx="5.656" ry="1.814"/>
		
			<linearGradient id="path8202_1_" gradientUnits="userSpaceOnUse" x1="2323.7363" y1="4024.29" x2="2309.5681" y2="4024.29" gradientTransform="matrix(0.6524 0 0 0.6524 -1486.6157 -2606.019)">
			<stop  offset="0" style="stop-color:#BFDEEC"/>
			<stop  offset="0.0164" style="stop-color:#B8D3E2"/>
			<stop  offset="0.043" style="stop-color:#A3BCC8"/>
			<stop  offset="0.0667" style="stop-color:#8BA2AF"/>
			<stop  offset="0.5455" style="stop-color:#BFDEEC"/>
			<stop  offset="0.5614" style="stop-color:#C2DCEB"/>
			<stop  offset="0.6708" style="stop-color:#DAEBF3"/>
			<stop  offset="0.7715" style="stop-color:#EDF7F9"/>
			<stop  offset="0.8545" style="stop-color:#F1F8F9"/>
			<stop  offset="0.8593" style="stop-color:#F0F8FA"/>
			<stop  offset="0.8965" style="stop-color:#E9F5F7"/>
			<stop  offset="1" style="stop-color:#E8F5F7"/>
		</linearGradient>
		<path id="path8202_4_" fill="url(#path8202_1_)" d="M23.79,20.172c-3.01,0-5.472-0.754-5.646-1.706
			c-0.008,0.036-0.012,0.072-0.012,0.108c0,1.003,2.531,1.814,5.657,1.814c3.122,0,5.656-0.814,5.656-1.814
			c0-0.037-0.006-0.072-0.011-0.108C29.261,19.418,26.8,20.172,23.79,20.172L23.79,20.172z"/>
	</g>
</g>
</svg>
