<?xml version="1.0" encoding="UTF-8" standalone="no"?>
<!-- Generator: Adobe Illustrator 14.0.0, SVG Export Plug-In . SVG Version: 6.00 Build 43363)  -->

<svg
   xmlns:dc="http://purl.org/dc/elements/1.1/"
   xmlns:cc="http://creativecommons.org/ns#"
   xmlns:rdf="http://www.w3.org/1999/02/22-rdf-syntax-ns#"
   xmlns:svg="http://www.w3.org/2000/svg"
   xmlns="http://www.w3.org/2000/svg"
   xmlns:sodipodi="http://sodipodi.sourceforge.net/DTD/sodipodi-0.dtd"
   xmlns:inkscape="http://www.inkscape.org/namespaces/inkscape"
   version="1.1"
   id="Layer_1"
   x="0px"
   y="0px"
   width="32px"
   height="32px"
   viewBox="0 0 32 32"
   enable-background="new 0 0 32 32"
   xml:space="preserve"
   inkscape:version="0.47pre4 "
   sodipodi:docname="prev.svg"><metadata
   id="metadata2877"><rdf:RDF><cc:Work
       rdf:about=""><dc:format>image/svg+xml</dc:format><dc:type
         rdf:resource="http://purl.org/dc/dcmitype/StillImage" /></cc:Work></rdf:RDF></metadata><defs
   id="defs2875"><inkscape:perspective
     sodipodi:type="inkscape:persp3d"
     inkscape:vp_x="0 : 16 : 1"
     inkscape:vp_y="0 : 1000 : 0"
     inkscape:vp_z="32 : 16 : 1"
     inkscape:persp3d-origin="16 : 10.666667 : 1"
     id="perspective2879" /></defs><sodipodi:namedview
   pagecolor="#ffffff"
   bordercolor="#666666"
   borderopacity="1"
   objecttolerance="10"
   gridtolerance="10"
   guidetolerance="10"
   inkscape:pageopacity="0"
   inkscape:pageshadow="2"
   inkscape:window-width="640"
   inkscape:window-height="481"
   id="namedview2873"
   showgrid="false"
   inkscape:zoom="7.375"
   inkscape:cx="16"
   inkscape:cy="16"
   inkscape:window-x="0"
   inkscape:window-y="0"
   inkscape:window-maximized="0"
   inkscape:current-layer="Layer_1" />


<g
   id="g2881"><g
     transform="translate(-5.5755111,29.767864)"
     id="g20887-2_2_">
	<g
   id="g2853">
		<g
   id="g2855"
   nodetypes="cccccccc">
			<path
   id="path2857"
   d="M22.92-1.716c-0.236,0-0.47-0.084-0.656-0.245L9.51-13.04c-0.219-0.19-0.345-0.466-0.344-0.756     c0-0.291,0.126-0.566,0.346-0.755l12.755-11.025c0.185-0.16,0.418-0.244,0.654-0.244c0.141,0,0.283,0.03,0.416,0.091     c0.355,0.163,0.584,0.518,0.584,0.909v4.283h9.065c0.553,0,1,0.448,1,1V-8.09c0,0.553-0.447,1-1,1H23.92v4.374     c0,0.392-0.229,0.747-0.585,0.91C23.202-1.745,23.061-1.716,22.92-1.716L22.92-1.716z" />
		</g>
	</g>
</g><g
     transform="translate(-5.5755111,29.767864)"
     id="g20887-2_1_">
	<path
   d="M22.92-2.716L10.165-13.795L22.92-24.82v5.283h10.065   V-8.09H22.92V-2.716z"
   fill="#00ADDC"
   nodetypes="cccccccc"
   id="path4348-2-1_1_" />
</g><g
     transform="translate(-5.5755111,29.767864)"
     id="g20887-2_3_">
	<g
   id="g2862">
		<g
   id="g2864"
   nodetypes="cccccccc">
			
				<linearGradient
   gradientTransform="matrix(-1 0 0 1 43.151 0)"
   y2="-21.8313"
   x2="21.3123"
   y1="-5.0374"
   x1="21.3123"
   gradientUnits="userSpaceOnUse"
   id="SVGID_1_">
				<stop
   id="stop2867"
   style="stop-color:#B2D3DC"
   offset="0" />
				<stop
   id="stop2869"
   style="stop-color:#027C9E"
   offset="1" />
			</linearGradient>
			<polygon
   id="polygon2871"
   points="11.692,-13.793 21.92,-22.634 21.92,-18.537 31.986,-18.537 31.986,-9.09 21.92,-9.09      21.92,-4.909    "
   fill="url(#SVGID_1_)" />
		</g>
	</g>
</g></g>
</svg>