<?xml version="1.0" encoding="utf-8"?>
<!-- Generator: Adobe Illustrator 14.0.0, SVG Export Plug-In . SVG Version: 6.00 Build 43363)  -->
<!DOCTYPE svg PUBLIC "-//W3C//DTD SVG 1.1//EN" "http://www.w3.org/Graphics/SVG/1.1/DTD/svg11.dtd">
<svg version="1.1" id="Layer_1" xmlns="http://www.w3.org/2000/svg" xmlns:xlink="http://www.w3.org/1999/xlink" x="0px" y="0px"
	 width="32px" height="32px" viewBox="0 0 32 32" enable-background="new 0 0 32 32" xml:space="preserve">
<path d="M1,29.99c-0.357,0-0.688-0.19-0.866-0.5c-0.178-0.31-0.178-0.69,0-1l15-25.98c0.179-0.31,0.509-0.5,0.866-0.5
	s0.688,0.19,0.866,0.5l15,25.98c0.179,0.31,0.179,0.69,0,1s-0.509,0.5-0.866,0.5H1z"/>
<polygon fill="#ED2526" points="16,3.01 31,28.99 1,28.99 "/>
<polygon fill="#FFFFFF" points="4.464,26.99 16,7.01 27.536,26.99 "/>
<g>
	<path d="M15.173,20.913l-1.356-7.883c-0.022-0.133-0.033-0.265-0.033-0.398c0-1.132,0.739-1.698,2.216-1.698
		c1.479,0,2.217,0.563,2.217,1.687c0,0.155-0.012,0.291-0.033,0.409l-1.356,7.883H15.173z M16,22.533
		c1.293,0,1.941,0.649,1.941,1.943c0,1.293-0.648,1.94-1.941,1.94c-1.293,0-1.941-0.647-1.941-1.94
		C14.059,23.183,14.707,22.533,16,22.533z"/>
</g>
</svg>
