<?xml version="1.0" encoding="utf-8"?>
<!-- Generator: Adobe Illustrator 14.0.0, SVG Export Plug-In . SVG Version: 6.00 Build 43363)  -->
<!DOCTYPE svg PUBLIC "-//W3C//DTD SVG 1.1//EN" "http://www.w3.org/Graphics/SVG/1.1/DTD/svg11.dtd">
<svg version="1.1"
	 id="Layer_1" xmlns:rdf="http://www.w3.org/1999/02/22-rdf-syntax-ns#" xmlns:dc="http://purl.org/dc/elements/1.1/" xmlns:cc="http://creativecommons.org/ns#" xmlns:inkscape="http://www.inkscape.org/namespaces/inkscape" xmlns:sodipodi="http://sodipodi.sourceforge.net/DTD/sodipodi-0.dtd" xmlns:svg="http://www.w3.org/2000/svg" inkscape:version="0.47pre4 " sodipodi:docname="clone.svg"
	 xmlns="http://www.w3.org/2000/svg" xmlns:xlink="http://www.w3.org/1999/xlink" x="0px" y="0px" width="32px" height="32px"
	 viewBox="0 0 32 32" enable-background="new 0 0 32 32" xml:space="preserve">
<path opacity="0.6" d="M25,18.001c-3.859,0-7,3.142-7,7s3.141,7,7,7s7-3.142,7-7S28.859,18.001,25,18.001z M25,31.001
	c-3.313,0-6-2.687-6-6s2.687-6,6-6s6,2.687,6,6S28.313,31.001,25,31.001z"/>
<circle id="circle139_1_" opacity="0.6" fill="#FAA820" cx="25" cy="25.001" r="6"/>
<linearGradient id="path148_1_" gradientUnits="userSpaceOnUse" x1="301.54" y1="-397.8408" x2="311.54" y2="-397.8408" gradientTransform="matrix(1 0 0 -1 -281.54 -372.8398)">
	<stop  offset="0" style="stop-color:#A56629"/>
	<stop  offset="0.5394" style="stop-color:#FAA820"/>
	<stop  offset="1" style="stop-color:#FFF3E0"/>
</linearGradient>
<path id="path148" opacity="0.6" fill="url(#path148_1_)" d="M25,30.001c-2.758,0-5-2.244-5-5c0-2.758,2.242-5,5-5s5,2.242,5,5
	C30,27.757,27.758,30.001,25,30.001L25,30.001z"/>
<path id="path157" d="M11.026,20.373c-0.391-0.027-0.729-0.281-0.866-0.646c-0.137-0.367-0.048-0.781,0.229-1.059l1.3-1.301
	l-3.052-3.051c-0.188-0.188-0.293-0.441-0.293-0.707s0.105-0.52,0.293-0.707l4.277-4.276c0.188-0.188,0.442-0.293,0.707-0.293l0,0
	c0.265,0,0.52,0.105,0.707,0.293l3.05,3.052l1.268-1.267c0.191-0.191,0.447-0.293,0.707-0.293c0.117,0,0.234,0.021,0.35,0.063
	c0.365,0.137,0.619,0.475,0.648,0.865l0.646,8.884c0.021,0.289-0.084,0.572-0.289,0.777c-0.189,0.189-0.443,0.295-0.709,0.295
	L11.026,20.373z"/>
<path id="path4348-2-1_1_" fill="#00ADDC" d="M11.097,19.375L20,20.002l-0.646-8.884l-1.975,1.974l-3.757-3.759l-4.277,4.276
	l3.759,3.758L11.097,19.375z"/>
<linearGradient id="polygon171_1_" gradientUnits="userSpaceOnUse" x1="524.7666" y1="-33.4995" x2="524.7666" y2="-26.583" gradientTransform="matrix(0.7071 0.7071 0.7071 -0.7071 -334.3743 -376.6445)">
	<stop  offset="0" style="stop-color:#B2D3DC"/>
	<stop  offset="1" style="stop-color:#027C9E"/>
</linearGradient>
<polygon id="polygon171" fill="url(#polygon171_1_)" points="13.354,18.531 14.518,17.367 10.758,13.609 13.622,10.747 
	17.379,14.506 18.516,13.371 18.92,18.924 "/>
<path id="path175" d="M7,14c-3.859,0-7-3.141-7-7s3.141-7,7-7s7,3.141,7,7S10.859,14,7,14L7,14z"/>
<circle id="circle177" fill="#FAA820" cx="7" cy="7" r="6"/>
<linearGradient id="path186_1_" gradientUnits="userSpaceOnUse" x1="283.54" y1="-379.8398" x2="293.54" y2="-379.8398" gradientTransform="matrix(1 0 0 -1 -281.54 -372.8398)">
	<stop  offset="0" style="stop-color:#A56629"/>
	<stop  offset="0.5394" style="stop-color:#FAA820"/>
	<stop  offset="1" style="stop-color:#FFF3E0"/>
</linearGradient>
<path id="path186" fill="url(#path186_1_)" d="M7,12c-2.758,0-5-2.244-5-5c0-2.758,2.242-5,5-5s5,2.242,5,5C12,9.756,9.758,12,7,12
	L7,12z"/>
</svg>
