<?xml version="1.0" encoding="utf-8"?>
<!-- Generator: Adobe Illustrator 14.0.0, SVG Export Plug-In . SVG Version: 6.00 Build 43363)  -->
<!DOCTYPE svg PUBLIC "-//W3C//DTD SVG 1.1//EN" "http://www.w3.org/Graphics/SVG/1.1/DTD/svg11.dtd">
<svg version="1.1"
	 id="Layer_1" xmlns:dc="http://purl.org/dc/elements/1.1/" xmlns:sodipodi="http://sodipodi.sourceforge.net/DTD/sodipodi-0.dtd" xmlns:inkscape="http://www.inkscape.org/namespaces/inkscape" xmlns:cc="http://creativecommons.org/ns#" xmlns:rdf="http://www.w3.org/1999/02/22-rdf-syntax-ns#" xmlns:svg="http://www.w3.org/2000/svg" sodipodi:docname="export.svg" inkscape:version="0.47pre4 "
	 xmlns="http://www.w3.org/2000/svg" xmlns:xlink="http://www.w3.org/1999/xlink" x="0px" y="0px" width="32px" height="32px"
	 viewBox="0 0 32 32" enable-background="new 0 0 32 32" xml:space="preserve">
<path id="path175" d="M5,10c-2.757,0-5-2.244-5-5c0-2.756,2.243-5,5-5c2.756,0,5,2.244,5,5C10,7.755,7.756,10,5,10L5,10z"/>
<circle id="circle177" fill="#FAA81E" cx="5" cy="5" r="4.285"/>
<linearGradient id="path186_3_" gradientUnits="userSpaceOnUse" x1="866.6455" y1="-1187.5195" x2="873.7881" y2="-1187.5195" gradientTransform="matrix(-1 0 0 -1 875.2168 -1182.5195)">
	<stop  offset="0" style="stop-color:#FFF3DF"/>
	<stop  offset="0.5394" style="stop-color:#F9A620"/>
	<stop  offset="1" style="stop-color:#A36628"/>
</linearGradient>
<path id="path186" fill="url(#path186_3_)" d="M5,8.571C3.03,8.571,1.429,6.968,1.429,5C1.429,3.031,3.03,1.429,5,1.429
	S8.571,3.031,8.571,5C8.571,6.968,6.97,8.571,5,8.571L5,8.571z"/>
<path id="path10065" fill="#020202" d="M20.104,32c-0.553,0-1-0.447-1-1V16.332c0-0.552,0.447-1,1-1h7.426
	c0.268,0,0.521,0.104,0.707,0.293l3.447,3.449c0.188,0.188,0.293,0.441,0.293,0.705V31c0,0.553-0.447,1-1,1H20.104z"/>
<polygon id="polygon10067" fill="#FACC36" points="27.554,16.332 20.129,16.332 20.129,31 31.001,31 31.001,19.779 "/>
<polygon id="polygon10069" fill="#FFFFFF" points="30.007,19.311 30.007,29.924 21.078,29.924 21.078,17.326 28.022,17.326 
	28.972,18.404 "/>
<path id="path10071" fill="#020202" d="M27.554,20.779c-0.554,0-1-0.447-1-1v-3.447c0-0.403,0.242-0.769,0.616-0.924
	c0.123-0.052,0.254-0.076,0.384-0.076c0.26,0,0.516,0.103,0.706,0.293l3.447,3.449c0.286,0.285,0.372,0.715,0.217,1.09
	c-0.153,0.373-0.521,0.615-0.924,0.615H27.554z"/>
<polygon id="polygon10073" fill="#FACC36" points="27.554,19.779 31.001,19.779 27.554,16.332 "/>
<path id="path10238" fill="#020202" d="M17.74,15.218c-0.217,0-0.432-0.071-0.611-0.208l-6.383-4.933
	c-0.246-0.189-0.389-0.481-0.389-0.791c0-0.311,0.143-0.603,0.389-0.791l6.383-4.934c0.178-0.137,0.393-0.208,0.611-0.208
	c0.146,0,0.293,0.033,0.43,0.098c0.342,0.162,0.561,0.503,0.57,0.88l0.043,1.951c3.424,0.28,5.941,1.348,7.488,3.182
	c1.869,2.213,1.566,4.707,1.553,4.812c-0.055,0.433-0.389,0.78-0.822,0.854c-0.057,0.01-0.111,0.015-0.17,0.015
	c-0.371,0-0.719-0.207-0.891-0.546c-1.01-1.985-2.812-2.87-5.832-2.87c-0.404,0-0.83,0.014-1.322,0.044l-0.047,2.463
	c-0.007,0.379-0.226,0.719-0.568,0.883C18.035,15.186,17.887,15.218,17.74,15.218L17.74,15.218z"/>
<linearGradient id="path7827_1_" gradientUnits="userSpaceOnUse" x1="-361.1113" y1="-3012.9385" x2="-337.2788" y2="-3012.9385" gradientTransform="matrix(0.6552 0 0 -0.6552 247.9294 -1964.7927)">
	<stop  offset="0" style="stop-color:#39ADDB"/>
	<stop  offset="0.5" style="stop-color:#A8CEDE"/>
	<stop  offset="1" style="stop-color:#2175BB"/>
</linearGradient>
<path id="path7827_14_" opacity="0.98" fill="url(#path7827_1_)" enable-background="new    " d="M11.391,9.285l6.383,4.932
	l0.063-3.373c3.396-0.291,7.197-0.301,9.027,3.301c0,0,0.861-6.538-9.027-6.92l-0.063-2.872L11.391,9.285z"/>
<path id="path4454_2_" opacity="0.98" fill="#1D78A0" enable-background="new    " d="M12.541,9.285l4.564-3.526l0.048,2.143
	l0.66,0.024c3.408,0.133,5.828,1.021,7.19,2.635c0.283,0.336,0.498,0.678,0.662,1.01c-1.721-1.344-3.869-1.543-5.52-1.543
	c-0.682,0-1.412,0.035-2.367,0.119L17.148,10.2L17.1,12.807L12.541,9.285z"/>
<path id="path175_1_" d="M5,16.864c-2.757,0-5-2.245-5-5c0-2.756,2.243-5,5-5c2.756,0,5,2.244,5,5C10,14.619,7.756,16.864,5,16.864
	L5,16.864z"/>
<circle id="circle177_1_" fill="#6EBD46" cx="5" cy="11.864" r="4.285"/>
<linearGradient id="path186_4_" gradientUnits="userSpaceOnUse" x1="866.6455" y1="-1194.3838" x2="873.7881" y2="-1194.3838" gradientTransform="matrix(-1 0 0 -1 875.2168 -1182.5195)">
	<stop  offset="0" style="stop-color:#B0D68C"/>
	<stop  offset="1" style="stop-color:#1E9046"/>
</linearGradient>
<path id="path186_1_" fill="url(#path186_4_)" d="M5,15.436c-1.97,0-3.571-1.604-3.571-3.571C1.429,9.895,3.03,8.293,5,8.293
	s3.571,1.602,3.571,3.571C8.571,13.833,6.97,15.436,5,15.436L5,15.436z"/>
<path id="path175_2_" d="M5,23.666c-2.757,0-5-2.245-5-5c0-2.756,2.243-5,5-5c2.756,0,5,2.244,5,5C10,21.421,7.756,23.666,5,23.666
	L5,23.666z"/>
<circle id="circle177_2_" fill="#00ACDA" cx="5" cy="18.666" r="4.285"/>
<linearGradient id="path186_5_" gradientUnits="userSpaceOnUse" x1="866.6455" y1="-1201.1855" x2="873.7881" y2="-1201.1855" gradientTransform="matrix(-1 0 0 -1 875.2168 -1182.5195)">
	<stop  offset="0" style="stop-color:#B1D2DB"/>
	<stop  offset="1" style="stop-color:#0B7C9E"/>
</linearGradient>
<path id="path186_2_" fill="url(#path186_5_)" d="M5,22.237c-1.97,0-3.571-1.604-3.571-3.571c0-1.969,1.602-3.571,3.571-3.571
	s3.571,1.603,3.571,3.571S6.97,22.237,5,22.237L5,22.237z"/>
</svg>
