<?xml version="1.0" encoding="utf-8"?>
<!-- Generator: Adobe Illustrator 14.0.0, SVG Export Plug-In . SVG Version: 6.00 Build 43363)  -->
<!DOCTYPE svg PUBLIC "-//W3C//DTD SVG 1.1//EN" "http://www.w3.org/Graphics/SVG/1.1/DTD/svg11.dtd">
<svg version="1.1" id="Layer_1" xmlns="http://www.w3.org/2000/svg" xmlns:xlink="http://www.w3.org/1999/xlink" x="0px" y="0px"
	 width="32px" height="32px" viewBox="0 0 32 32" enable-background="new 0 0 32 32" xml:space="preserve">
<g>
	<path fill="#010101" d="M20.057,31.707C19.867,31.895,19.613,32,19.35,32c-0.268,0-0.521-0.105-0.707-0.293L1.605,14.671
		c-0.154-0.153-0.254-0.354-0.284-0.569L0.009,4.648c-0.043-0.311,0.062-0.623,0.283-0.844l3.512-3.513
		C4.025,0.07,4.338-0.033,4.648,0.01l9.453,1.313c0.215,0.03,0.416,0.13,0.569,0.282l17.035,17.033c0.393,0.391,0.393,1.023,0,1.414
		L20.057,31.707z M4.828,4.826c-0.635,0.636-0.635,1.669,0,2.305c0.636,0.635,1.669,0.635,2.305,0c0.636-0.636,0.636-1.669,0-2.305
		C6.497,4.191,5.463,4.191,4.828,4.826L4.828,4.826z"/>
	<path fill="#FAA820" d="M13.964,2.313L13.964,2.313L4.512,1L1,4.512l1.313,9.452L19.35,31L31,19.346L13.964,2.313z M7.839,7.838
		c-1.026,1.026-2.691,1.026-3.719,0c-1.026-1.025-1.026-2.691,0-3.719c1.027-1.026,2.692-1.026,3.719,0
		C8.867,5.146,8.867,6.813,7.839,7.838z"/>
	<linearGradient id="SVGID_1_" gradientUnits="userSpaceOnUse" x1="2.0586" y1="15.8223" x2="29.5859" y2="15.8223">
		<stop  offset="0" style="stop-color:#FFF3E0"/>
		<stop  offset="0.5394" style="stop-color:#FAA820"/>
		<stop  offset="1" style="stop-color:#A56629"/>
	</linearGradient>
	<path fill="url(#SVGID_1_)" d="M3.257,13.494L2.059,4.867l0.901-0.901C2.02,5.377,2.171,7.304,3.414,8.545
		C4.1,9.23,5.011,9.608,5.981,9.608c0.969,0,1.881-0.378,2.566-1.063C9.232,7.861,9.61,6.949,9.61,5.979
		c0-0.97-0.377-1.882-1.063-2.567C7.861,2.727,6.949,2.349,5.98,2.349c-0.725,0-1.418,0.211-2.008,0.605l0.896-0.895l8.627,1.198
		l16.091,16.089L19.35,29.586L3.257,13.494z"/>
	<line fill="none" stroke="#000000" x1="6" y1="5.938" x2="0.031" y2="-0.031"/>
	<g>
		<line fill="none" stroke="#000000" x1="16.404" y1="7.91" x2="8.314" y2="16"/>
		<line fill="none" stroke="#000000" x1="19.873" y1="11.461" x2="11.783" y2="19.552"/>
		<line fill="none" stroke="#000000" x1="23.341" y1="15.013" x2="15.251" y2="23.104"/>
		<line fill="none" stroke="#000000" x1="26.81" y1="18.564" x2="18.72" y2="26.655"/>
	</g>
</g>
</svg>
