<?xml version="1.0" encoding="utf-8"?>
<!-- Generator: Adobe Illustrator 14.0.0, SVG Export Plug-In . SVG Version: 6.00 Build 43363)  -->
<!DOCTYPE svg PUBLIC "-//W3C//DTD SVG 1.1//EN" "http://www.w3.org/Graphics/SVG/1.1/DTD/svg11.dtd">
<svg version="1.1" id="Layer_1" xmlns="http://www.w3.org/2000/svg" xmlns:xlink="http://www.w3.org/1999/xlink" x="0px" y="0px"
	 width="32px" height="32px" viewBox="0 0 32 32" enable-background="new 0 0 32 32" xml:space="preserve">
<path d="M4.897,27.999c-0.504,0-0.914-0.408-0.914-0.913V4.914c0-0.504,0.409-0.913,0.914-0.913l22.172-0.002
	c0.243,0,0.475,0.097,0.646,0.268c0.172,0.171,0.268,0.403,0.268,0.646L27.98,27.086c0,0.505-0.408,0.913-0.913,0.913H4.897z"/>
<rect x="4.897" y="4.913" fill="#00ACDA" width="22.172" height="22.172"/>
<linearGradient id="SVGID_1_" gradientUnits="userSpaceOnUse" x1="5.8105" y1="15.999" x2="26.1563" y2="15.999">
	<stop  offset="0" style="stop-color:#B1D2DB"/>
	<stop  offset="1" style="stop-color:#0B7C9E"/>
</linearGradient>
<rect x="5.811" y="5.827" fill="url(#SVGID_1_)" width="20.346" height="20.345"/>
<path d="M15.069,25.132c-0.678,0-1.229-0.553-1.229-1.23v-8.938c-0.713,0.413-1.476,0.755-2.284,1.021
	c-0.114,0.04-0.249,0.063-0.385,0.063c-0.256,0-0.502-0.079-0.712-0.228c-0.325-0.231-0.517-0.605-0.517-1.002v-2.737
	c0-0.536,0.341-1.006,0.85-1.17c0.643-0.21,1.38-0.636,2.189-1.266c0.732-0.57,1.237-1.231,1.499-1.962
	c0.172-0.485,0.638-0.814,1.157-0.814h2.449c0.676,0,1.228,0.551,1.228,1.229v15.804c0,0.678-0.552,1.23-1.228,1.23H15.069z"/>
<path fill="#FFFFFF" d="M15.069,24.219c-0.175,0-0.316-0.144-0.316-0.317V13.227c-1.015,0.828-2.183,1.463-3.483,1.891
	c-0.032,0.011-0.066,0.017-0.099,0.017c-0.065,0-0.131-0.021-0.185-0.06c-0.083-0.059-0.131-0.155-0.131-0.256v-2.737
	c0-0.138,0.088-0.259,0.218-0.301c0.749-0.244,1.579-0.721,2.469-1.415c0.872-0.678,1.476-1.477,1.798-2.374
	c0.044-0.126,0.164-0.21,0.297-0.21h2.449c0.173,0,0.314,0.142,0.314,0.316v15.804c0,0.174-0.142,0.317-0.314,0.317H15.069z"/>
</svg>
