<?xml version="1.0" encoding="utf-8"?>
<!-- Generator: Adobe Illustrator 14.0.0, SVG Export Plug-In . SVG Version: 6.00 Build 43363)  -->
<!DOCTYPE svg PUBLIC "-//W3C//DTD SVG 1.1//EN" "http://www.w3.org/Graphics/SVG/1.1/DTD/svg11.dtd">
<svg version="1.1"
	 id="svg2" xmlns:ns="http://creativecommons.org/ns#" xmlns:dc="http://purl.org/dc/elements/1.1/" xmlns:cc="http://web.resource.org/cc/" xmlns:rdf="http://www.w3.org/1999/02/22-rdf-syntax-ns#" xmlns:svg="http://www.w3.org/2000/svg" xmlns:sodipodi="http://sodipodi.sourceforge.net/DTD/sodipodi-0.dtd" xmlns:inkscape="http://www.inkscape.org/namespaces/inkscape" sodipodi:version="0.32" inkscape:version="0.45.1" sodipodi:docname="method.svg" sodipodi:docbase="C:\Radix\dev\trunk\org.radixware\kernel\designer\src\common.resources\src\org\radixware\kernel\designer\resources\icons\ads\method" inkscape:output_extension="org.inkscape.output.svg.inkscape"
	 xmlns="http://www.w3.org/2000/svg" xmlns:xlink="http://www.w3.org/1999/xlink" x="0px" y="0px" width="32px" height="32px"
	 viewBox="0 0 32 32" enable-background="new 0 0 32 32" xml:space="preserve">
<g id="g3921" transform="translate(-24.618865,-30.356312)">
	
		<linearGradient id="rect3870_1_" gradientUnits="userSpaceOnUse" x1="324.071" y1="-1427.6696" x2="302.5309" y2="-1427.6696" gradientTransform="matrix(1.0208 0 0 -0.2736 -282.0566 -353.7205)">
		<stop  offset="0" style="stop-color:#000000"/>
		<stop  offset="0.1734" style="stop-color:#000203;stop-opacity:0.8266"/>
		<stop  offset="0.3161" style="stop-color:#00080D;stop-opacity:0.6839"/>
		<stop  offset="0.448" style="stop-color:#00111F;stop-opacity:0.552"/>
		<stop  offset="0.5733" style="stop-color:#001F37;stop-opacity:0.4267"/>
		<stop  offset="0.694" style="stop-color:#003156;stop-opacity:0.306"/>
		<stop  offset="0.8113" style="stop-color:#00477D;stop-opacity:0.1887"/>
		<stop  offset="0.9236" style="stop-color:#0060A9;stop-opacity:0.0764"/>
		<stop  offset="1" style="stop-color:#0074CC;stop-opacity:0"/>
	</linearGradient>
	
		<rect id="rect3870" x="24.617" y="34.067" opacity="0.5" fill="url(#rect3870_1_)" enable-background="new    " width="20.108" height="5.737"/>
	
		<linearGradient id="rect3872_1_" gradientUnits="userSpaceOnUse" x1="235.7419" y1="-491.8683" x2="226.0812" y2="-491.8683" gradientTransform="matrix(1.4465 0 0 -0.7523 -299.2375 -324.7947)">
		<stop  offset="0" style="stop-color:#000000"/>
		<stop  offset="0.1331" style="stop-color:#000204;stop-opacity:0.8669"/>
		<stop  offset="0.2731" style="stop-color:#000A11;stop-opacity:0.7269"/>
		<stop  offset="0.4163" style="stop-color:#001626;stop-opacity:0.5837"/>
		<stop  offset="0.5618" style="stop-color:#002643;stop-opacity:0.4382"/>
		<stop  offset="0.7091" style="stop-color:#003C69;stop-opacity:0.2909"/>
		<stop  offset="0.8555" style="stop-color:#005697;stop-opacity:0.1445"/>
		<stop  offset="1" style="stop-color:#0074CC;stop-opacity:0"/>
	</linearGradient>
	
		<rect id="rect3872" x="24.619" y="38.728" opacity="0.5" fill="url(#rect3872_1_)" enable-background="new    " width="14.686" height="12.987"/>
	
		<linearGradient id="rect3874_1_" gradientUnits="userSpaceOnUse" x1="343.2155" y1="-112.8029" x2="314.9211" y2="-112.8029" gradientTransform="matrix(0.9632 0 0 -2.3944 -279.4155 -217.3939)">
		<stop  offset="0" style="stop-color:#000000"/>
		<stop  offset="0.1086" style="stop-color:#000306;stop-opacity:0.8914"/>
		<stop  offset="0.2519" style="stop-color:#000D16;stop-opacity:0.7481"/>
		<stop  offset="0.4144" style="stop-color:#001C32;stop-opacity:0.5856"/>
		<stop  offset="0.5912" style="stop-color:#003258;stop-opacity:0.4088"/>
		<stop  offset="0.7796" style="stop-color:#004E89;stop-opacity:0.2204"/>
		<stop  offset="0.9749" style="stop-color:#006FC4;stop-opacity:0.0251"/>
		<stop  offset="1" style="stop-color:#0074CC;stop-opacity:0"/>
	</linearGradient>
	
		<rect id="rect3874" x="24.617" y="48.265" opacity="0.5" fill="url(#rect3874_1_)" enable-background="new    " width="20.108" height="8.866"/>
</g>
<g id="g3841" transform="translate(23.992961,2.2949789)">
	<path d="M8,10.892c-0.002-0.036-0.007-0.071-0.013-0.106c-0.009-0.049-0.02-0.096-0.035-0.143
		c-0.011-0.034-0.022-0.066-0.037-0.099c-0.021-0.045-0.045-0.088-0.071-0.129c-0.019-0.029-0.036-0.059-0.059-0.086
		c-0.032-0.041-0.07-0.077-0.109-0.113c-0.02-0.018-0.034-0.04-0.055-0.056L-3.354,1.626c-0.179-0.138-0.395-0.21-0.614-0.21
		c-0.109,0-0.219,0.018-0.325,0.054l-0.522,0.18l-10.26,3.496c-0.189,0.064-0.347,0.186-0.465,0.339
		c-0.017,0.02-0.028,0.043-0.043,0.064c-0.025,0.035-0.047,0.069-0.068,0.107c-0.023,0.041-0.042,0.083-0.059,0.128
		c-0.015,0.041-0.028,0.082-0.038,0.125c-0.005,0.021-0.016,0.041-0.02,0.063c-0.004,0.027,0,0.054-0.002,0.081
		c-0.002,0.024-0.01,0.048-0.011,0.073l-0.082,8.769c-0.003,0.313,0.14,0.607,0.386,0.799l10.976,8.535
		c0.004,0.003,0.01,0.004,0.014,0.008c0.007,0.005,0.011,0.011,0.018,0.016c0.004,0.003,0.008,0.003,0.012,0.006l0.018,0.014
		c0.18,0.14,0.396,0.211,0.614,0.211c0.147,0,0.295-0.032,0.433-0.099c0.069-0.033,0.13-0.078,0.188-0.125l10.549-3.761
		c0.398-0.143,0.664-0.52,0.664-0.942v-8.603C8.007,10.931,8.001,10.912,8,10.892z"/>
	<polygon id="polygon3780" fill="#7CC6DA" points="7.007,10.951 -3.752,14.669 -14.782,6.133 -3.969,2.415 	"/>
	<polygon id="polygon3782" fill="#006782" points="-3.752,14.669 -3.887,23.437 -14.863,14.902 -14.782,6.133 	"/>
	<linearGradient id="SVGID_1_" gradientUnits="userSpaceOnUse" x1="-14.4817" y1="16.5097" x2="-3.5755" y2="12.8571">
		<stop  offset="0" style="stop-color:#06485C"/>
		<stop  offset="1" style="stop-color:#B1D2DB;stop-opacity:0"/>
	</linearGradient>
	<polygon fill="url(#SVGID_1_)" points="-14.863,14.902 -14.782,6.133 -3.752,14.669 -3.887,23.437 	"/>
	<polygon id="polygon3784" fill="#00ACDA" points="7.007,19.554 -3.887,23.437 -3.752,14.669 7.007,10.951 	"/>
	<linearGradient id="SVGID_2_" gradientUnits="userSpaceOnUse" x1="-3.8865" y1="17.1943" x2="7.007" y2="17.1943">
		<stop  offset="0" style="stop-color:#B1D2DB;stop-opacity:0"/>
		<stop  offset="1" style="stop-color:#99E7FF"/>
	</linearGradient>
	<polygon fill="url(#SVGID_2_)" points="-3.718,14.532 7.007,10.951 7.007,19.554 -3.887,23.437 	"/>
</g>
</svg>
