<?xml version="1.0" encoding="utf-8"?>
<!-- Generator: Adobe Illustrator 16.0.0, SVG Export Plug-In . SVG Version: 6.00 Build 0)  -->
<!DOCTYPE svg PUBLIC "-//W3C//DTD SVG 1.1//EN" "http://www.w3.org/Graphics/SVG/1.1/DTD/svg11.dtd">
<svg version="1.1" id="Layer_1" xmlns="http://www.w3.org/2000/svg" xmlns:xlink="http://www.w3.org/1999/xlink" x="0px" y="0px"
	 width="32px" height="32px" viewBox="0 0 32 32" enable-background="new 0 0 32 32" xml:space="preserve">
<g>
	<path fill="#010101" d="M13,26C5.832,26,0,20.17,0,13C0,5.832,5.832,0,13,0s13,5.832,13,13C26,20.17,20.168,26,13,26L13,26z"/>
	<circle fill="#F9A71E" cx="13" cy="13" r="12.188"/>
	
		<linearGradient id="SVGID_1_" gradientUnits="userSpaceOnUse" x1="-0.835" y1="-100.8398" x2="21.915" y2="-100.8398" gradientTransform="matrix(1 0 0 -1 2.46 -87.8398)">
		<stop  offset="0" style="stop-color:#FFF3E0"/>
		<stop  offset="0.5394" style="stop-color:#F9A720"/>
		<stop  offset="1" style="stop-color:#A36728"/>
	</linearGradient>
	<path fill="url(#SVGID_1_)" d="M13,24.375C6.729,24.375,1.625,19.271,1.625,13C1.625,6.728,6.729,1.625,13,1.625
		S24.375,6.728,24.375,13C24.375,19.271,19.271,24.375,13,24.375L13,24.375z"/>
	
		<radialGradient id="SVGID_2_" cx="8.2266" cy="-96.584" r="13.2823" gradientTransform="matrix(1 0 0 -1 2.46 -87.8398)" gradientUnits="userSpaceOnUse">
		<stop  offset="0" style="stop-color:#FFFFFF"/>
		<stop  offset="0.5394" style="stop-color:#F7F8F9"/>
		<stop  offset="1" style="stop-color:#A2A1A2"/>
	</radialGradient>
	<path fill="url(#SVGID_2_)" d="M13,21.883c-4.898,0-8.883-3.984-8.883-8.883S8.102,4.117,13,4.117S21.883,8.102,21.883,13
		S17.898,21.883,13,21.883L13,21.883z"/>
	<rect x="12.209" y="5.484" fill="#010101" width="1.581" height="7.516"/>
	
		<rect x="9.295" y="11.477" transform="matrix(0.7071 0.7071 -0.7071 0.7071 14.2168 -2.4659)" fill="#010101" width="1.58" height="8.902"/>
	<circle fill="#010101" cx="12.999" cy="13" r="1.429"/>
</g>
<g id="g2868">
	
		<linearGradient id="path8_1_" gradientUnits="userSpaceOnUse" x1="504.2305" y1="-906.2603" x2="504.2305" y2="-886.2948" gradientTransform="matrix(-1 0 0 1 527.2422 918.2598)">
		<stop  offset="0" style="stop-color:#221F1F;stop-opacity:0"/>
		<stop  offset="0.6061" style="stop-color:#000000"/>
	</linearGradient>
	<path id="path8_25_" fill="url(#path8_1_)" d="M27.644,11.999c0.345,0,0.625,0.279,0.625,0.625v10.923h3.104
		c0.269,0,0.508,0.171,0.593,0.425c0.087,0.255,0.003,0.532-0.211,0.696l-8.355,7.202C23.287,31.958,23.15,32,23.018,32
		c-0.137,0-0.271-0.042-0.383-0.13l-8.367-7.202c-0.213-0.164-0.297-0.441-0.209-0.696c0.084-0.253,0.323-0.425,0.59-0.425h2.856
		V12.624c0-0.346,0.282-0.625,0.626-0.625H27.644z"/>
	
		<linearGradient id="polygon3436_1_" gradientUnits="userSpaceOnUse" x1="504.2314" y1="-905.7139" x2="504.2314" y2="-886.9984" gradientTransform="matrix(-1 0 0 1 527.2422 918.2598)">
		<stop  offset="0" style="stop-color:#72BC46;stop-opacity:0"/>
		<stop  offset="1" style="stop-color:#72BC46"/>
	</linearGradient>
	<polygon id="polygon3436_3_" fill="url(#polygon3436_1_)" points="27.644,24.172 27.644,12.624 18.138,12.624 18.138,24.172 
		14.648,24.172 23.018,31.375 31.373,24.172 	"/>
	
		<linearGradient id="polygon21_1_" gradientUnits="userSpaceOnUse" x1="504.2314" y1="-905.0923" x2="504.2314" y2="-887.5073" gradientTransform="matrix(-1 0 0 1 527.2422 918.2598)">
		<stop  offset="0" style="stop-color:#72BC46;stop-opacity:0"/>
		<stop  offset="1" style="stop-color:#36592A"/>
	</linearGradient>
	<polygon id="polygon21" fill="url(#polygon21_1_)" points="27.018,13.249 27.018,24.798 29.533,24.798 23.018,30.588 
		16.488,24.798 18.764,24.798 18.764,13.249 	"/>
</g>
</svg>
