<?xml version="1.0" encoding="utf-8"?>
<!-- Generator: Adobe Illustrator 14.0.0, SVG Export Plug-In . SVG Version: 6.00 Build 43363)  -->
<!DOCTYPE svg PUBLIC "-//W3C//DTD SVG 1.1//EN" "http://www.w3.org/Graphics/SVG/1.1/DTD/svg11.dtd">
<svg version="1.1" id="Layer_1" xmlns="http://www.w3.org/2000/svg" xmlns:xlink="http://www.w3.org/1999/xlink" x="0px" y="0px"
	 width="32px" height="32px" viewBox="0 0 32 32" enable-background="new 0 0 32 32" xml:space="preserve">
<g>
	<path id="path10819" fill="#020202" d="M8.858,32c-0.192,0-0.381-0.027-0.563-0.081c-0.272-0.037-0.537-0.129-0.774-0.273
		c-2.082-1.266-2.001-4.061-1.976-4.979c0.057-2.262,0.688-5.079,1.355-8.063c0.771-3.441,1.567-6.991,1.61-10.127
		C8.472,8.475,8.434,8.475,8.393,8.475c-0.442,0-0.974,0.047-1.539,0.139C6.747,8.629,6.64,8.638,6.536,8.638
		c-0.813,0-1.559-0.491-1.868-1.266c-0.392-0.981-0.869-2.39-0.913-3.533c-0.05-1.316,0.946-3.501,2.561-3.805
		C6.438,0.012,6.562,0,6.686,0c0.073,0,0.146,0.006,0.216,0.014c0.416,0.038,8.626,0.595,13.45,0.595
		c1.243,0,1.944-0.04,2.313-0.073c0.115-0.01,0.23-0.017,0.354-0.017c1.289,0,2.609,0.636,3.721,1.787
		c1.834,1.912,2.857,4.951,2.732,8.128c-0.049,1.381-0.309,2.784-0.77,4.162c-1.068,3.181-1.6,5.623-1.621,7.463
		c0,0.049,0,0.1,0,0.146c0.852-0.036,1.654-0.063,2.252-0.063l0.229,0.002c0.512,0.008,1.002,0.212,1.369,0.567
		c1.059,1.028,1.234,3.251,0.943,5.004c-0.41,2.452-1.645,3.973-3.221,3.973c-0.189,0-0.383-0.023-0.574-0.066
		c-1.176-0.272-2.998-0.411-5.416-0.411c-2.243,0-4.907,0.114-8.153,0.349c-2.051,0.237-3.87,0.386-5.051,0.404l-0.473,0.033
		C8.943,32,8.901,32,8.858,32L8.858,32z"/>
	<path id="path3443" fill="#FAA820" d="M9.986,7.758c0.178-2.001-0.697-5.63-3.178-6.665C5.503,0.546,4.719,2.708,4.76,3.793
		c0.062,1.605,1.171,3.964,1.171,3.964S8.774,7.091,9.986,7.758z"/>
	<path id="path3445" fill="#FAA820" d="M27.747,14.224c-4.281,12.79,0.99,11.286,1.09,12.637c0.15,2.145-19.494,4.581-20.667,3.944
		c-5.786-3.143,6.356-23.038-1.227-29.8C9.394,1.146,19.09,1.859,22.757,1.53C26.202,1.221,30.128,7.107,27.747,14.224z"/>
	
		<linearGradient id="path10830_1_" gradientUnits="userSpaceOnUse" x1="296.5928" y1="1120.9453" x2="296.5928" y2="1096.5393" gradientTransform="matrix(1 0 0 1 -279.0801 -1092.6797)">
		<stop  offset="0" style="stop-color:#A56629"/>
		<stop  offset="0.5394" style="stop-color:#FAA820"/>
		<stop  offset="1" style="stop-color:#FFF3E0"/>
	</linearGradient>
	<path id="path10830" fill="url(#path10830_1_)" d="M9.18,29.946c-0.352,0-0.53-0.016-0.608-0.024
		c-1.872-1.164-0.771-6.08,0.295-10.835c1.333-5.945,2.817-12.571,0.298-16.892c2.956,0.187,7.693,0.47,11.051,0.47l0,0
		c1.083,0,1.97-0.03,2.632-0.088c0.059-0.006,0.115-0.008,0.174-0.008c0.938,0,1.994,0.69,2.826,1.844
		c1.365,1.896,2.33,5.395,0.947,9.536c-3.02,9.018-1.572,11.667,0.588,12.999C24.571,28.255,13.342,29.946,9.18,29.946L9.18,29.946z
		"/>
	<path id="path3447_3_" fill="#FAA820" d="M29.782,23.147c2.117,0.728,1.357,8.133-1.475,7.484C23.353,29.494,10.167,30.95,8.712,31
		c3.118-1.154,1.922-7.012,0.385-7.902C14.733,24.214,26.874,23.033,29.782,23.147z"/>
	
		<linearGradient id="path10840_1_" gradientUnits="userSpaceOnUse" x1="299.6484" y1="1121.4893" x2="299.6484" y2="1117.88" gradientTransform="matrix(1 0 0 1 -279.0801 -1092.6797)">
		<stop  offset="0" style="stop-color:#A56629"/>
		<stop  offset="0.5394" style="stop-color:#FAA820"/>
		<stop  offset="1" style="stop-color:#FFF3E0"/>
	</linearGradient>
	<path id="path10840" fill="url(#path10840_1_)" d="M11.235,29.787c0.212-0.514,0.351-1.101,0.407-1.751
		c0.098-1.148-0.083-2.504-0.496-3.642c1.382,0.13,3.04,0.191,5.001,0.191c3.1,0,6.38-0.158,9.021-0.286
		c1.734-0.082,3.232-0.155,4.15-0.155c0.072,0,0.145,0,0.209,0.002c0.279,0.272,0.643,1.535,0.359,3.226
		c-0.24,1.436-0.816,2.292-1.238,2.292l0,0c-0.035,0-0.074-0.005-0.117-0.015c-1.344-0.309-3.264-0.46-5.873-0.46
		C18.688,29.191,14.1,29.55,11.235,29.787L11.235,29.787z"/>
	
		<linearGradient id="path10849_1_" gradientUnits="userSpaceOnUse" x1="287.2158" y1="1096.9922" x2="284.0176" y2="1096.9922" gradientTransform="matrix(1 0 0 1 -279.0801 -1092.6797)">
		<stop  offset="0" style="stop-color:#A56629"/>
		<stop  offset="0.5394" style="stop-color:#FAA820"/>
		<stop  offset="1" style="stop-color:#FFF3E0"/>
	</linearGradient>
	<path id="path10849" fill="url(#path10849_1_)" d="M6.538,6.618C6.208,5.796,5.8,4.592,5.766,3.754
		C5.74,3.07,6.179,2.107,6.429,2.007c1.521,0.65,2.349,2.738,2.534,4.469c-0.18-0.014-0.367-0.021-0.567-0.021
		C7.726,6.454,7.047,6.536,6.538,6.618L6.538,6.618z"/>
</g>
<g>
	<path id="path2935_6_" fill="#231F20" d="M4.282,30.027c-0.162-0.162-0.256-0.383-0.256-0.615v-1.527
		c0-0.143,0.037-0.285,0.104-0.41l0.313-0.58L4.13,26.309c-0.117-0.222-0.135-0.479-0.047-0.713l0.314-0.841l-0.229-1.423
		c-0.025-0.165-0.004-0.334,0.063-0.488l0.328-0.75l-0.488-1.465c-0.092-0.279-0.037-0.589,0.146-0.818l0.664-0.832l-0.719-1.125
		c-0.09-0.141-0.137-0.304-0.137-0.471v-1.523H3.589c-0.238,0-0.459-0.099-0.615-0.256c-0.158-0.158-0.254-0.375-0.258-0.613v-2.147
		c-0.212-0.169-0.415-0.35-0.606-0.54C0.752,10.943,0.002,9.134,0,7.21c0.002-1.927,0.752-3.735,2.111-5.099
		C3.474,0.75,5.286,0,7.212,0s3.736,0.751,5.098,2.111c1.359,1.359,2.109,3.171,2.109,5.098c0,2.197-1.008,4.27-2.717,5.632v2.149
		c0,0.23-0.092,0.451-0.254,0.615c-0.164,0.164-0.387,0.256-0.617,0.256h-0.436l0.002,13.55c0.002,0.274-0.129,0.536-0.354,0.7
		l-2.314,1.717c-0.311,0.229-0.73,0.229-1.039,0l-2.313-1.717C4.345,30.086,4.313,30.059,4.282,30.027L4.282,30.027z M7.995,3.141
		C7.786,2.932,7.509,2.818,7.212,2.818C6.603,2.816,6.104,3.314,6.104,3.925c0,0.298,0.115,0.576,0.322,0.785
		c0.211,0.21,0.488,0.324,0.785,0.323c0.609,0,1.107-0.497,1.107-1.108C8.321,3.629,8.204,3.35,7.995,3.141L7.995,3.141z"/>
	<path id="path3790_6_" fill="#03ADDB" d="M7.212,0.874c3.502,0,6.336,2.836,6.336,6.337c0,2.154-1.074,4.053-2.715,5.196v2.585
		H9.524l0.004,14.42L7.21,31.13l-2.313-1.717v-1.527l0.529-0.987l-0.527-0.996l0.395-1.055l-0.266-1.65l0.463-1.057l-0.594-1.783
		l1.057-1.321l-1.057-1.649v-2.396l-1.311,0.002V12.41c-1.64-1.145-2.714-3.043-2.714-5.198C0.875,3.709,3.712,0.872,7.212,0.874
		L7.212,0.874z M7.212,1.945c-1.096,0-1.979,0.886-1.979,1.979c0,1.097,0.885,1.981,1.979,1.98c1.096,0,1.979-0.884,1.98-1.979
		C9.19,2.83,8.308,1.945,7.212,1.945z"/>
	
		<linearGradient id="path2946_1_" gradientUnits="userSpaceOnUse" x1="-0.7178" y1="-103.9868" x2="10.2168" y2="-103.9868" gradientTransform="matrix(1 0 0 -1 2.46 -87.8398)">
		<stop  offset="0" style="stop-color:#B2D3DC"/>
		<stop  offset="1" style="stop-color:#117C9F"/>
	</linearGradient>
	<path id="path2946_6_" fill="url(#path2946_1_)" d="M5.771,28.104l0.645-1.205L5.853,25.84l0.34-0.904l-0.26-1.625l0.49-1.127
		L5.874,20.53l1.15-1.438l-1.256-1.961l0.002-3.013H4.46l-0.002-2.165l-0.371-0.26c-0.266-0.186-0.516-0.395-0.744-0.623
		c-1.03-1.03-1.599-2.402-1.601-3.86c0-1.46,0.568-2.833,1.603-3.865C3.806,2.884,4.333,2.518,4.907,2.25
		C4.565,2.721,4.362,3.298,4.362,3.924c0,0.764,0.295,1.479,0.834,2.02C5.735,6.48,6.452,6.777,7.214,6.775
		c1.566,0.002,2.848-1.275,2.85-2.848c0-0.611-0.191-1.191-0.541-1.674c0.57,0.266,1.096,0.633,1.555,1.092
		c1.033,1.031,1.6,2.404,1.6,3.865c0,1.783-0.877,3.459-2.342,4.482l-0.375,0.26v2.167l-1.309-0.001l0.004,14.854L7.21,30.044
		l-1.441-1.069L5.771,28.104z"/>
	
		<linearGradient id="rect3802_1_" gradientUnits="userSpaceOnUse" x1="-974.7227" y1="-1005.3931" x2="-973.6392" y2="-1005.3931" gradientTransform="matrix(-1.0994 0 0 -1.0994 -1063.1969 -1083.3531)">
		<stop  offset="0" style="stop-color:#B2D3DC"/>
		<stop  offset="1" style="stop-color:#117C9F"/>
	</linearGradient>
	<path id="rect3802_6_" fill="url(#rect3802_1_)" d="M8.015,15.074h-0.42c-0.213,0-0.385,0.171-0.385,0.384v13.033
		c0,0.215,0.172,0.386,0.385,0.386h0.422c0.213,0,0.385-0.171,0.385-0.386V15.456C8.399,15.247,8.229,15.074,8.015,15.074z"/>
</g>
</svg>
