<?xml version="1.0" encoding="utf-8"?>
<!-- Generator: Adobe Illustrator 14.0.0, SVG Export Plug-In . SVG Version: 6.00 Build 43363)  -->
<!DOCTYPE svg PUBLIC "-//W3C//DTD SVG 1.1//EN" "http://www.w3.org/Graphics/SVG/1.1/DTD/svg11.dtd">
<svg version="1.1" id="Layer_1" xmlns="http://www.w3.org/2000/svg" xmlns:xlink="http://www.w3.org/1999/xlink" x="0px" y="0px"
	 width="32px" height="32px" viewBox="0 0 32 32" enable-background="new 0 0 32 32" xml:space="preserve">
<g>
	<path d="M16,29.141C8.755,29.141,2.86,23.246,2.86,16C2.86,8.754,8.755,2.859,16,2.859S29.14,8.754,29.14,16
		C29.14,23.246,23.245,29.141,16,29.141L16,29.141z"/>
	<circle fill="#6EBD46" cx="16" cy="16" r="12.14"/>
	<linearGradient id="SVGID_1_" gradientUnits="userSpaceOnUse" x1="4.8604" y1="16" x2="27.1396" y2="16">
		<stop  offset="0" style="stop-color:#B0D68C"/>
		<stop  offset="1" style="stop-color:#1E9046"/>
	</linearGradient>
	<path fill="url(#SVGID_1_)" d="M16,27.141C9.857,27.141,4.86,22.143,4.86,16C4.86,9.857,9.857,4.859,16,4.859S27.14,9.857,27.14,16
		C27.14,22.143,22.143,27.141,16,27.141L16,27.141z"/>
	<path d="M19.904,23.142c-0.526,0-1.007-0.33-1.194-0.821l-0.897-2.335h-3.782l-0.841,2.315c-0.185,0.504-0.667,0.841-1.201,0.841
		H9.011c-0.421,0-0.814-0.207-1.053-0.553c-0.241-0.354-0.291-0.797-0.138-1.189l5.413-13.897c0.188-0.487,0.667-0.814,1.19-0.814
		h2.968c0.523,0,0.988,0.313,1.186,0.799l5.567,13.902c0.157,0.396,0.108,0.842-0.13,1.192c-0.234,0.35-0.631,0.561-1.058,0.561
		H19.904z"/>
	<path fill="#FFFFFF" d="M19.904,22.142c-0.115,0-0.219-0.07-0.26-0.178l-1.146-2.979H13.33l-1.081,2.974
		c-0.04,0.109-0.145,0.183-0.261,0.183H9.011c-0.092,0-0.177-0.045-0.229-0.12c-0.052-0.076-0.063-0.173-0.03-0.258l5.413-13.898
		c0.042-0.107,0.145-0.177,0.259-0.177h2.968c0.114,0,0.216,0.069,0.259,0.175l5.565,13.898c0.034,0.086,0.023,0.183-0.028,0.259
		c-0.052,0.077-0.138,0.122-0.23,0.122H19.904z M17.39,16.087l-1.513-4.073l-1.482,4.073H17.39z"/>
</g>
</svg>
