<?xml version="1.0" encoding="utf-8"?>
<!-- Generator: Adobe Illustrator 14.0.0, SVG Export Plug-In . SVG Version: 6.00 Build 43363)  -->
<!DOCTYPE svg PUBLIC "-//W3C//DTD SVG 1.1//EN" "http://www.w3.org/Graphics/SVG/1.1/DTD/svg11.dtd">
<svg version="1.1" id="Layer_1" xmlns="http://www.w3.org/2000/svg" xmlns:xlink="http://www.w3.org/1999/xlink" x="0px" y="0px"
	 width="32px" height="32px" viewBox="0 0 32 32" enable-background="new 0 0 32 32" xml:space="preserve">
<rect width="2.167" height="32"/>
<line fill="none" stroke="#000000" x1="1.083" y1="7.75" x2="12.667" y2="7.75"/>
<line fill="none" stroke="#000000" x1="1.083" y1="24.039" x2="14.957" y2="24.039"/>
<path id="path175_2_" fill="#020202" d="M13.875,14.75c-3.858,0-7-3.141-7-7s3.142-7,7-7s6.999,3.141,6.999,7
	S17.733,14.75,13.875,14.75L13.875,14.75z"/>
<circle id="circle177_2_" fill="#00ACDA" cx="13.875" cy="7.75" r="6"/>
<linearGradient id="path186_3_" gradientUnits="userSpaceOnUse" x1="8.876" y1="7.75" x2="18.874" y2="7.75">
	<stop  offset="0" style="stop-color:#B1D2DB"/>
	<stop  offset="1" style="stop-color:#0B7C9E"/>
</linearGradient>
<path id="path186_2_" fill="url(#path186_3_)" d="M13.875,12.75c-2.758,0-4.999-2.244-4.999-5c0-2.758,2.241-5,4.999-5
	c2.757,0,4.999,2.242,4.999,5C18.874,10.506,16.632,12.75,13.875,12.75L13.875,12.75z"/>
<path id="path175_1_" fill="#020202" d="M13.875,31.039c-3.858,0-7-3.143-7-7c0-3.859,3.142-7,7-7s6.999,3.141,6.999,7
	C20.874,27.896,17.733,31.039,13.875,31.039L13.875,31.039z"/>
<circle id="circle177_1_" fill="#ED2526" cx="13.875" cy="24.039" r="6"/>
<linearGradient id="path186_4_" gradientUnits="userSpaceOnUse" x1="1416.5762" y1="-2015.2383" x2="1426.5742" y2="-2015.2383" gradientTransform="matrix(1 0 0 -1 -1407.7002 -1991.1992)">
	<stop  offset="0" style="stop-color:#F59699"/>
	<stop  offset="1" style="stop-color:#8F1A1D"/>
</linearGradient>
<path id="path186_1_" fill="url(#path186_4_)" d="M13.875,29.039c-2.758,0-4.999-2.244-4.999-5c0-2.758,2.241-5,4.999-5
	c2.757,0,4.999,2.242,4.999,5C18.874,26.795,16.632,29.039,13.875,29.039L13.875,29.039z"/>
<path id="path4235_13_" opacity="0.98" fill="#020202" enable-background="new    " d="M25.064,15.964
	c0.078,0.002,0.156-0.019,0.229-0.051c0.184-0.088,0.301-0.271,0.301-0.471l0.041-2.066c0.467-0.035,0.855-0.049,1.222-0.049
	c2.376,0.002,3.796,0.707,4.603,2.291c0.092,0.18,0.275,0.291,0.475,0.287c0.027,0,0.059,0,0.091-0.004
	c0.229-0.042,0.406-0.227,0.437-0.456c0.008-0.077,0.225-1.864-1.121-3.461c-1.158-1.374-3.075-2.157-5.701-2.337l-0.038-1.676
	c-0.003-0.2-0.124-0.379-0.302-0.467c-0.072-0.034-0.15-0.051-0.229-0.053c-0.114,0-0.229,0.039-0.323,0.109l-4.82,3.725
	c-0.129,0.098-0.207,0.254-0.207,0.42s0.078,0.319,0.207,0.418l4.82,3.726C24.836,15.929,24.948,15.964,25.064,15.964L25.064,15.964
	z"/>
<path id="path7827_18_" fill="#6FBD46" d="M20.246,11.708l4.819,3.725l0.048-2.546c2.563-0.22,5.434-0.226,6.814,2.491
	c0,0,0.648-4.936-6.815-5.223l-0.049-2.17L20.246,11.708L20.246,11.708z"/>
<linearGradient id="path4246_1_" gradientUnits="userSpaceOnUse" x1="186.2158" y1="-1054.4648" x2="191.5361" y2="-1054.4648" gradientTransform="matrix(0 -1 -1 0 -1028.3945 200.584)">
	<stop  offset="0" style="stop-color:#B0D68C"/>
	<stop  offset="1" style="stop-color:#219046"/>
</linearGradient>
<path id="path4246_12_" fill="url(#path4246_1_)" d="M24.592,12.4l0.476-0.041c0.722-0.062,1.272-0.09,1.788-0.091
	c1.251,0,2.869,0.152,4.171,1.166c-0.127-0.253-0.295-0.518-0.515-0.777c-1.033-1.209-2.856-1.875-5.42-1.974l-0.496-0.021
	L24.56,9.048l-3.445,2.66l3.438,2.66L24.592,12.4z"/>
<path id="path4235_12_" opacity="0.98" fill="#020202" enable-background="new    " d="M27.102,16.9
	c-0.079,0-0.156,0.019-0.229,0.052c-0.183,0.088-0.302,0.27-0.303,0.471l-0.04,2.063c-0.466,0.037-0.854,0.052-1.222,0.054
	c-2.375-0.004-3.796-0.709-4.602-2.293c-0.092-0.179-0.275-0.289-0.474-0.289c-0.028,0-0.06,0.002-0.091,0.006
	c-0.23,0.041-0.407,0.227-0.438,0.455c-0.011,0.078-0.225,1.865,1.121,3.461c1.158,1.375,3.076,2.158,5.701,2.338l0.04,1.678
	c0.002,0.199,0.123,0.379,0.299,0.465c0.073,0.035,0.151,0.051,0.231,0.055c0.113,0,0.229-0.041,0.32-0.111l4.822-3.723
	c0.129-0.1,0.206-0.256,0.206-0.422s-0.077-0.32-0.207-0.418l-4.819-3.725C27.33,16.936,27.217,16.9,27.102,16.9L27.102,16.9z"/>
<path id="path7827_17_" fill="#6FBD46" d="M31.92,21.154l-4.819-3.723l-0.048,2.547c-2.564,0.22-5.434,0.226-6.816-2.492
	c0,0-0.646,4.937,6.816,5.224l0.049,2.17L31.92,21.154L31.92,21.154z"/>
<linearGradient id="path4246_2_" gradientUnits="userSpaceOnUse" x1="1040.5244" y1="-509.375" x2="1045.8438" y2="-509.375" gradientTransform="matrix(0 1 1 0 535.4707 -1022.0273)">
	<stop  offset="0" style="stop-color:#B0D68C"/>
	<stop  offset="1" style="stop-color:#219046"/>
</linearGradient>
<path id="path4246_11_" fill="url(#path4246_2_)" d="M27.574,20.462l-0.476,0.041c-0.722,0.063-1.273,0.093-1.789,0.091
	c-1.25,0-2.867-0.152-4.169-1.166c0.126,0.256,0.294,0.521,0.513,0.778c1.034,1.209,2.856,1.875,5.421,1.976l0.495,0.019
	l0.037,1.616l3.444-2.659l-3.438-2.66L27.574,20.462z"/>
</svg>
