<?xml version="1.0" encoding="utf-8"?>
<!-- Generator: Adobe Illustrator 14.0.0, SVG Export Plug-In . SVG Version: 6.00 Build 43363)  -->
<!DOCTYPE svg PUBLIC "-//W3C//DTD SVG 1.1//EN" "http://www.w3.org/Graphics/SVG/1.1/DTD/svg11.dtd">
<svg version="1.1" id="Layer_1" xmlns="http://www.w3.org/2000/svg" xmlns:xlink="http://www.w3.org/1999/xlink" x="0px" y="0px"
	 width="32px" height="32px" viewBox="0 0 32 32" enable-background="new 0 0 32 32" xml:space="preserve">
<path id="path4235_11_" opacity="0.98" fill="#030303" enable-background="new    " d="M15.252,14.498
	c-0.114,0.116-0.254,0.207-0.415,0.262c-0.395,0.138-0.834,0.044-1.133-0.247L10.6,11.521c-0.738,0.639-1.338,1.191-1.873,1.732
	c-3.509,3.509-4.563,6.646-3.411,10.173c0.13,0.402,0.021,0.834-0.273,1.124C5.001,24.594,4.95,24.636,4.9,24.673
	c-0.401,0.28-0.93,0.269-1.313-0.028c-0.126-0.097-3.085-2.416-3.451-6.76c-0.315-3.737,1.353-7.726,4.963-11.866L2.68,3.489
	c-0.29-0.301-0.382-0.741-0.244-1.133c0.06-0.158,0.147-0.297,0.262-0.413c0.171-0.171,0.395-0.285,0.64-0.318l12.608-1.616
	c0.342-0.042,0.68,0.073,0.921,0.315c0.244,0.244,0.359,0.585,0.314,0.924l-1.616,12.609C15.536,14.106,15.423,14.327,15.252,14.498
	L15.252,14.498z"/>
<path id="path7827_13_" fill="#6DBE46" d="M16.086,1.107l-1.615,12.608l-3.828-3.687c-4.109,3.457-8.359,7.685-6.382,13.739
	c0,0-8.243-6.332,2.347-17.772L3.479,2.724L16.086,1.107L16.086,1.107z"/>
<linearGradient id="path4246_1_" gradientUnits="userSpaceOnUse" x1="565.3936" y1="820.6543" x2="577.8887" y2="820.6543" gradientTransform="matrix(1 0 0 1 -563.0801 -809.6797)">
	<stop  offset="0" style="stop-color:#B2D78E"/>
	<stop  offset="1" style="stop-color:#219146"/>
</linearGradient>
<path id="path4246_10_" fill="url(#path4246_1_)" d="M10.693,8.541L9.931,9.183c-1.157,0.973-2.01,1.747-2.771,2.503
	c-1.845,1.847-4.012,4.458-4.433,7.878C2.536,19,2.394,18.361,2.34,17.653c-0.265-3.314,1.444-6.986,5.082-10.913l0.707-0.762
	L5.797,3.541l9.011-1.156l-1.149,9.002L10.693,8.541z"/>
<path id="path4235_10_" opacity="0.98" fill="#030303" enable-background="new    " d="M16.746,17.502
	c0.116-0.111,0.256-0.205,0.417-0.258c0.395-0.141,0.834-0.044,1.135,0.244l3.104,2.994c0.737-0.643,1.337-1.193,1.874-1.732
	c3.506-3.511,4.561-6.646,3.408-10.175c-0.131-0.399-0.021-0.835,0.273-1.126c0.041-0.042,0.092-0.083,0.143-0.122
	c0.4-0.279,0.93-0.265,1.313,0.028c0.127,0.097,3.082,2.416,3.453,6.761c0.314,3.739-1.355,7.726-4.965,11.868l2.422,2.528
	c0.287,0.302,0.383,0.741,0.24,1.134c-0.061,0.157-0.146,0.297-0.262,0.413c-0.166,0.168-0.395,0.285-0.643,0.314l-12.605,1.618
	c-0.342,0.04-0.68-0.076-0.921-0.315c-0.244-0.245-0.358-0.587-0.315-0.922l1.616-12.61C16.463,17.898,16.576,17.674,16.746,17.502
	L16.746,17.502z"/>
<path id="path7827_12_" fill="#6DBE46" d="M15.914,30.895l1.616-12.606l3.827,3.686c4.108-3.457,8.356-7.685,6.382-13.74
	c0,0,8.244,6.333-2.348,17.776l3.129,3.27L15.914,30.895L15.914,30.895z"/>
<linearGradient id="path4246_2_" gradientUnits="userSpaceOnUse" x1="580.2715" y1="830.708" x2="592.7666" y2="830.708" gradientTransform="matrix(1 0 0 1 -563.0801 -809.6797)">
	<stop  offset="0" style="stop-color:#B2D78E"/>
	<stop  offset="1" style="stop-color:#219146"/>
</linearGradient>
<path id="path4246_9_" fill="url(#path4246_2_)" d="M21.308,23.461l0.763-0.641c1.154-0.975,2.012-1.746,2.768-2.506
	c1.846-1.846,4.014-4.458,4.434-7.876c0.193,0.566,0.336,1.203,0.389,1.91c0.264,3.314-1.443,6.985-5.08,10.913l-0.707,0.761
	l2.332,2.44l-9.014,1.157l1.15-9.005L21.308,23.461z"/>
</svg>
