<?xml version="1.0" encoding="utf-8"?>
<!-- Generator: Adobe Illustrator 14.0.0, SVG Export Plug-In . SVG Version: 6.00 Build 43363)  -->
<!DOCTYPE svg PUBLIC "-//W3C//DTD SVG 1.1//EN" "http://www.w3.org/Graphics/SVG/1.1/DTD/svg11.dtd">
<svg version="1.1" id="Layer_1" xmlns="http://www.w3.org/2000/svg" xmlns:xlink="http://www.w3.org/1999/xlink" x="0px" y="0px"
	 width="32px" height="32px" viewBox="0 0 32 32" enable-background="new 0 0 32 32" xml:space="preserve">
<g>
	<path fill="#010101" d="M2.104,26.318c-0.265,0-0.52-0.105-0.707-0.293l-1.104-1.104C0.104,24.732,0,24.48,0,24.215V2.144
		c0-0.265,0.105-0.519,0.292-0.707l1.143-1.144C1.624,0.104,1.876,0,2.144,0H21.26c0.287,0,0.559,0.122,0.748,0.335L26.064,4.9
		c0.164,0.183,0.254,0.419,0.254,0.665v18.85c0,0.267-0.104,0.521-0.293,0.707l-0.902,0.901c-0.188,0.188-0.439,0.293-0.707,0.293
		L2.104,26.318L2.104,26.318z"/>
	<polygon id="polygon15349_4_" fill="#01ADDB" points="2.145,1 21.262,1 25.32,5.566 25.32,24.416 24.416,25.318 2.104,25.318 
		1,24.215 1,2.144 	"/>
	
		<linearGradient id="SVGID_1_" gradientUnits="userSpaceOnUse" x1="731.4316" y1="984.2959" x2="753.749" y2="984.2959" gradientTransform="matrix(1 0 0 1 -729.4307 -971.1367)">
		<stop  offset="0" style="stop-color:#B2D3DC"/>
		<stop  offset="1" style="stop-color:#0A7C9F"/>
	</linearGradient>
	<polygon fill="url(#SVGID_1_)" points="2.519,24.318 2,23.801 2,2.557 2.558,2 20.811,2 24.318,5.946 24.318,24.002 24.002,24.318 
			"/>
	<path id="path15372_2_" fill="#F2F2F2" d="M7.558,11.757h11.255l0.355-0.354V2.021H7.149v9.33L7.558,11.757z M14.997,4.449h2.757
		v4.877h-2.757V4.449z"/>
	<rect id="rect15374_2_" x="4.827" y="13.585" fill="#F3F3F3" width="16.814" height="10.808"/>
	<line id="line15376_2_" fill="none" stroke="#4A4B88" x1="20.785" y1="22.303" x2="5.684" y2="22.303"/>
	<line id="line15378_2_" fill="none" stroke="#4A4B88" x1="20.785" y1="20.202" x2="5.684" y2="20.202"/>
	<line id="line15380_2_" fill="none" stroke="#4A4B88" x1="20.785" y1="18.02" x2="5.684" y2="18.02"/>
	<line id="line15382_2_" fill="none" stroke="#4A4B88" x1="20.785" y1="15.673" x2="5.684" y2="15.673"/>
	<path fill="#231F20" d="M19.791,31.999c-0.357,0-0.688-0.19-0.865-0.5l-4.517-7.823c-0.132-0.229-0.168-0.502-0.1-0.759
		s0.236-0.476,0.466-0.606l4.079-2.354c0.158-0.091,0.33-0.136,0.5-0.136c0.348,0,0.684,0.182,0.867,0.5l1.684,2.916l4.148-7.186
		c0.186-0.321,0.521-0.5,0.867-0.5c0.17,0,0.342,0.043,0.498,0.134l4.08,2.355c0.23,0.133,0.398,0.353,0.467,0.606
		c0.068,0.258,0.033,0.528-0.1,0.761l-6.328,10.959c-0.014,0.028-0.027,0.059-0.045,0.088L24.889,31.5
		c-0.178,0.309-0.508,0.5-0.867,0.5L19.791,31.999z"/>
	<polygon fill="#FBA91F" points="24.021,31 24.627,29.953 24.625,29.947 31,18.906 26.92,16.55 21.904,25.236 19.354,20.82 
		15.274,23.176 19.791,30.999 	"/>
	
		<linearGradient id="SVGID_2_" gradientUnits="userSpaceOnUse" x1="579.7207" y1="833.6387" x2="592.7148" y2="833.6387" gradientTransform="matrix(1 0 0 1 -563.0801 -809.6797)">
		<stop  offset="0" style="stop-color:#A5672A"/>
		<stop  offset="0.5394" style="stop-color:#FBA91F"/>
		<stop  offset="1" style="stop-color:#FFF3E1"/>
	</linearGradient>
	<path fill="url(#SVGID_2_)" d="M20.369,29.999l-3.728-6.457l2.347-1.354l2.051,3.549c0.178,0.313,0.508,0.5,0.865,0.5
		c0.355,0,0.688-0.188,0.865-0.5l4.518-7.818l2.348,1.354l-5.877,10.178c-0.016,0.027-0.031,0.059-0.045,0.09L23.445,30
		L20.369,29.999z"/>
</g>
</svg>
