<?xml version="1.0" encoding="utf-8"?>
<!-- Generator: Adobe Illustrator 14.0.0, SVG Export Plug-In . SVG Version: 6.00 Build 43363)  -->
<!DOCTYPE svg PUBLIC "-//W3C//DTD SVG 1.1//EN" "http://www.w3.org/Graphics/SVG/1.1/DTD/svg11.dtd">
<svg version="1.1" id="Layer_1" xmlns="http://www.w3.org/2000/svg" xmlns:xlink="http://www.w3.org/1999/xlink" x="0px" y="0px"
	 width="32px" height="32px" viewBox="0 0 32 32" enable-background="new 0 0 32 32" xml:space="preserve">
<g>
	<g>
		<path fill="#231F20" d="M12.244,15.987c-0.208,0-0.394-0.128-0.469-0.322l-1.187-3.085H5.291l-1.119,3.077
			c-0.072,0.198-0.261,0.33-0.471,0.33H0.488c-0.166,0-0.321-0.082-0.415-0.218c-0.093-0.137-0.113-0.312-0.053-0.466L5.862,0.307
			c0.075-0.193,0.261-0.32,0.468-0.32h3.202c0.206,0,0.39,0.125,0.466,0.315l6.006,14.996c0.062,0.155,0.043,0.33-0.05,0.468
			c-0.093,0.137-0.249,0.22-0.416,0.22H12.244z M9.24,9.05l-1.34-3.609L6.585,9.05H9.24z"/>
		<path fill="#ED2A28" d="M15.538,15.485h-3.294l-1.31-3.407H4.938l-1.238,3.407H0.488L6.33,0.488h3.202L15.538,15.485z
			 M9.961,9.552L7.895,3.987L5.869,9.552H9.961z"/>
		<linearGradient id="SVGID_1_" gradientUnits="userSpaceOnUse" x1="1.2222" y1="7.9868" x2="14.7964" y2="7.9868">
			<stop  offset="0" style="stop-color:#F5969A"/>
			<stop  offset="1" style="stop-color:#901C1E"/>
		</linearGradient>
		<path fill="url(#SVGID_1_)" d="M12.588,14.983l-1.31-3.407h-6.69l-1.238,3.407H1.222L6.673,0.99h2.52l5.604,13.993H12.588z
			 M5.153,10.054h5.53L7.89,2.533L5.153,10.054z"/>
	</g>
	<g>
		<path fill="#231F20" d="M0.622,32.014c-0.336,0-0.608-0.225-0.608-0.5v-2.732c0-0.115,0.049-0.227,0.135-0.314l8.786-8.916H1.706
			c-0.336,0-0.608-0.225-0.608-0.5v-2.538c0-0.276,0.272-0.5,0.608-0.5H15.07c0.336,0,0.608,0.224,0.608,0.5v2.352
			c0,0.115-0.049,0.227-0.137,0.316l-9.196,9.305h9.111c0.336,0,0.608,0.223,0.608,0.5v2.527c0,0.275-0.272,0.5-0.608,0.5H0.622z"/>
		<path fill="#08ACDA" d="M0.622,31.514v-2.732l9.59-9.73H1.706v-2.538H15.07v2.352L5.068,28.986h10.388v2.527H0.622z"/>
		<linearGradient id="SVGID_2_" gradientUnits="userSpaceOnUse" x1="1.23" y1="24.0137" x2="14.8481" y2="24.0137">
			<stop  offset="0" style="stop-color:#B1D2DB"/>
			<stop  offset="1" style="stop-color:#107D9F"/>
		</linearGradient>
		<polygon fill="url(#SVGID_2_)" points="1.23,31.014 1.23,28.957 11.487,18.551 2.314,18.551 2.314,17.014 14.461,17.014 
			14.461,18.689 3.789,29.486 14.848,29.486 14.848,31.014 		"/>
	</g>
	<g>
		<path fill="#231F20" d="M21.035,27.844c-0.412,0-0.744-0.334-0.744-0.746V12.928h-3.532c-0.302,0-0.574-0.182-0.689-0.46
			c-0.115-0.279-0.051-0.599,0.162-0.813l7.254-7.254c0.146-0.146,0.336-0.219,0.527-0.219s0.381,0.073,0.527,0.219l7.254,7.254
			c0.213,0.213,0.277,0.534,0.162,0.813c-0.115,0.278-0.389,0.46-0.689,0.46h-3.531v14.169c0,0.412-0.334,0.746-0.746,0.746H21.035z
			"/>
		<polygon fill="#70BE46" points="31.268,12.183 24.014,4.929 16.759,12.183 21.035,12.183 21.035,27.098 26.99,27.098 
			26.99,12.183 		"/>
		<linearGradient id="SVGID_3_" gradientUnits="userSpaceOnUse" x1="18.5586" y1="16.167" x2="29.4688" y2="16.167">
			<stop  offset="0" style="stop-color:#B0D68C"/>
			<stop  offset="1" style="stop-color:#219146"/>
		</linearGradient>
		<polygon fill="url(#SVGID_3_)" points="21.781,26.352 21.781,11.438 18.559,11.438 24.014,5.983 29.469,11.438 26.246,11.438 
			26.246,26.352 		"/>
	</g>
</g>
</svg>
