<?xml version="1.0" encoding="utf-8"?>
<!-- Generator: Adobe Illustrator 14.0.0, SVG Export Plug-In . SVG Version: 6.00 Build 43363)  -->
<!DOCTYPE svg PUBLIC "-//W3C//DTD SVG 1.1//EN" "http://www.w3.org/Graphics/SVG/1.1/DTD/svg11.dtd">
<svg version="1.1" id="Layer_1" xmlns="http://www.w3.org/2000/svg" xmlns:xlink="http://www.w3.org/1999/xlink" x="0px" y="0px"
	 width="32px" height="32px" viewBox="0 0 32 32" enable-background="new 0 0 32 32" xml:space="preserve">
<path id="path9169" fill="#020202" d="M1,16.668c-0.553,0-1-0.446-1-1V1c0-0.553,0.447-1,1-1h7.426c0.267,0,0.521,0.104,0.707,0.293
	l3.447,3.448c0.188,0.188,0.293,0.441,0.293,0.706v11.221c0,0.554-0.447,1-1,1H1z"/>
<polygon id="polygon9171" fill="#00ADDC" points="8.449,1 1.025,1 1.025,15.668 11.896,15.668 11.896,4.447 "/>
<polygon id="polygon9173" fill="#FFFFFF" points="10.903,3.978 10.903,14.591 1.973,14.591 1.973,1.993 8.918,1.993 9.869,3.071 "/>
<path id="path9175" fill="#020202" d="M8.449,5.447c-0.553,0-1-0.447-1-1V1c0-0.404,0.243-0.77,0.617-0.924
	C8.189,0.024,8.32,0,8.449,0c0.262,0,0.518,0.102,0.707,0.293l3.447,3.448c0.286,0.285,0.372,0.716,0.217,1.09
	c-0.152,0.374-0.521,0.616-0.924,0.616H8.449z"/>
<polygon id="polygon9177" fill="#00ADDC" points="8.449,4.447 11.896,4.447 8.449,1 "/>
<polyline fill="none" stroke="#000000" stroke-width="2" points="6.437,15.668 6.437,23.678 16,23.678 "/>
<path id="path9169_1_" fill="#020202" d="M15.628,30.341c-0.553,0-1-0.446-1-1V14.673c0-0.553,0.447-1,1-1h7.427
	c0.266,0,0.521,0.104,0.706,0.293l3.447,3.448c0.188,0.188,0.293,0.439,0.293,0.706v11.221c0,0.554-0.446,1-1,1H15.628z"/>
<polygon id="polygon9171_1_" fill="#FBCE37" points="23.077,14.673 15.653,14.673 15.653,29.341 26.523,29.341 26.523,18.12 "/>
<polygon id="polygon9173_1_" fill="#FFFFFF" points="25.531,17.65 25.531,28.264 16.602,28.264 16.602,15.666 23.546,15.666 
	24.497,16.743 "/>
<path id="path9175_1_" fill="#020202" d="M23.077,19.12c-0.554,0-1-0.447-1-1v-3.447c0-0.404,0.243-0.77,0.616-0.924
	c0.123-0.052,0.255-0.076,0.384-0.076c0.262,0,0.519,0.102,0.707,0.293l3.446,3.448c0.287,0.284,0.373,0.716,0.218,1.09
	c-0.152,0.374-0.521,0.616-0.925,0.616H23.077z"/>
<polygon id="polygon9177_1_" fill="#FBCE37" points="23.077,18.12 26.523,18.12 23.077,14.673 "/>
<path id="path4992_1_" fill="#010101" d="M25.485,22.006c-0.015,0.004-0.026,0.009-0.038,0.013c0.001,0-0.04,0.015-0.038,0.013
	c0.001,0-0.052,0.014-0.051,0.014s-0.039,0.025-0.037,0.024c0.001,0-0.039,0.026-0.038,0.025c0.001,0-0.04,0.024-0.039,0.024
	c0.002,0-0.038,0.025-0.037,0.024c0.001,0-0.039,0.039-0.037,0.038c0.002,0-0.027,0.039-0.025,0.037c0,0-0.025,0.04-0.024,0.039
	c0,0-0.026,0.039-0.024,0.037c0,0-0.026,0.053-0.025,0.051l-0.014,0.039c0,0-0.012,0.051-0.012,0.05c0,0-0.014,0.052-0.014,0.051
	c0.001,0,0,0.039,0,0.037c0,0,0,0.024,0,0.038c0,0.005,0,0.014,0,0.014v2.463h-2.462c0,0-0.006,0-0.013,0c-0.008,0-0.014,0-0.014,0
	c0.002,0-0.025,0-0.025,0c-0.004,0-0.008,0-0.012,0h-0.027c0.002,0-0.024,0.013-0.023,0.013c0-0.001-0.025,0-0.025,0
	c0.002-0.001-0.025,0.012-0.024,0.012c0,0-0.026,0-0.024,0c0,0-0.027,0.013-0.025,0.013c0.001,0-0.026,0.014-0.025,0.014
	s-0.025,0.013-0.025,0.012c0.002,0-0.025,0.014-0.023,0.014l-0.014,0.014c0.002,0-0.025,0.012-0.024,0.012
	c0,0-0.026,0.014-0.024,0.013c0,0-0.015,0.013-0.014,0.013s-0.025,0.025-0.025,0.024c0.002,0-0.014,0.013-0.013,0.013
	s-0.024,0.015-0.024,0.014c0,0-0.014,0.025-0.012,0.025c0,0-0.016,0.024-0.015,0.024c0,0-0.013,0.015-0.013,0.012l-0.025,0.026
	c0.001,0-0.013,0.025-0.012,0.023c0,0-0.014,0.025-0.014,0.024c0,0,0,0.015,0,0.013c0,0-0.014,0.026-0.014,0.025l-0.012,0.025v0.024
	c0,0-0.014,0.026-0.014,0.025v0.024c0,0-0.012,0.025-0.012,0.024v0.026c0,0,0,0.024,0,0.023c0,0,0,0.026,0,0.025v2.828
	c0,0,0,0.025,0,0.024c0,0,0,0.026,0,0.025c0,0,0,0.026,0,0.024l0.012,0.025v0.025l0.014,0.037c0,0,0.012,0.025,0.012,0.024
	c0,0,0.002,0.026,0,0.024c0,0,0.014,0.026,0.014,0.024c0,0,0.014,0.026,0.014,0.025c0,0,0.013,0.026,0.012,0.024l0.014,0.014
	c0,0,0.025,0.025,0.024,0.025s0.015,0.024,0.015,0.023c-0.002,0,0.012,0.025,0.012,0.025s0.025,0.014,0.024,0.013
	c-0.001,0,0.015,0.026,0.013,0.024c0,0,0.026,0.014,0.025,0.014s0.026,0.013,0.025,0.013s0.025,0.024,0.023,0.024
	c0,0,0.016,0.013,0.014,0.013c0,0,0.025,0.014,0.025,0.013c-0.001-0.001,0.025,0.014,0.024,0.014s0.026,0.013,0.024,0.013
	c0-0.001,0.026,0,0.025,0c-0.001-0.001,0.025,0.013,0.025,0.012c-0.002,0,0.039,0.015,0.037,0.013h0.025
	c-0.001,0,0.025,0.014,0.024,0.014s0.026,0,0.026,0c-0.002,0,0.024,0,0.023,0s0.025,0,0.025,0h2.475v2.462v0.013
	c0,0.008,0,0.014,0,0.014v0.024c0,0.003,0,0.008,0,0.013c0,0,0.001,0.025,0,0.024c0,0,0.014,0.026,0.013,0.024
	c0,0,0.001,0.026,0,0.025c0,0,0.013,0.026,0.013,0.025v0.025c0,0,0.014,0.025,0.014,0.024c-0.001,0,0.014,0.024,0.013,0.024
	s0.013,0.025,0.013,0.025l0.014,0.023c-0.001,0,0.013,0.015,0.013,0.014c-0.001,0,0.013,0.025,0.013,0.023
	c0,0,0.014,0.026,0.012,0.025l0.014,0.014c0,0,0.025,0.025,0.025,0.024c0,0,0.014,0.015,0.013,0.013c0,0,0.015,0.026,0.013,0.025
	l0.025,0.014l0.025,0.012l0.013,0.014c-0.001,0,0.024,0.023,0.024,0.023s0.026,0.015,0.025,0.015
	c-0.002-0.002,0.025,0.012,0.023,0.012c0,0,0.015,0,0.014,0s0.025,0.013,0.025,0.013c-0.002,0,0.025,0.014,0.024,0.012
	c0,0,0.026,0.002,0.024,0c0,0,0.025,0.015,0.025,0.014c-0.001,0,0.026,0,0.025,0c-0.002,0,0.025,0.014,0.023,0.014
	c0,0,0.026,0,0.025,0s0.025,0,0.025,0c-0.002,0,0.025,0,0.024,0h2.828c-0.001,0,0.026,0,0.026,0c-0.002,0,0.025,0,0.023,0
	c0,0,0.026,0,0.025,0s0.025-0.014,0.023-0.014h0.026c-0.001,0,0.038-0.014,0.037-0.014c0,0.002,0.026-0.012,0.026-0.012
	c-0.002,0,0.024,0,0.023,0s0.026-0.013,0.025-0.013s0.025-0.014,0.023-0.012l0.026-0.015c-0.001,0,0.013-0.013,0.013-0.012
	c0,0,0.026-0.025,0.024-0.025c0,0,0.026-0.014,0.026-0.012c-0.002,0,0.024-0.015,0.023-0.014c0,0,0.014-0.025,0.014-0.023
	c0,0,0.025-0.015,0.024-0.014l0.013-0.025c0,0,0.014-0.025,0.014-0.024l0.024-0.024c0,0,0.013-0.015,0.013-0.014
	c0,0,0.014-0.025,0.013-0.025l0.014-0.024c0,0,0.013-0.025,0.013-0.024c0,0,0-0.025,0-0.023c0,0,0.014-0.027,0.013-0.025
	c0,0,0.014-0.039,0.013-0.038c0,0,0.001-0.026,0-0.024c0,0,0.014-0.026,0.014-0.025c0,0,0-0.025,0-0.023c0,0,0-0.027,0-0.025v-0.026
	v-2.475h2.475c-0.001,0,0.025,0,0.025,0c-0.002,0,0.025,0,0.024,0s0.026,0,0.024,0l0.025-0.013c-0.001,0,0.026,0,0.025,0
	s0.037-0.014,0.037-0.013c0,0,0.027-0.014,0.024-0.013c-0.001,0,0.026-0.001,0.025,0c0,0,0.026-0.014,0.024-0.014l0.025-0.013
	c-0.001,0.001,0.025-0.013,0.025-0.013c-0.002,0,0.013-0.014,0.013-0.014c-0.001,0,0.024-0.024,0.024-0.023l0.024-0.014
	c0,0,0.026-0.012,0.025-0.012c0,0,0.013-0.026,0.013-0.025c0,0,0.025-0.014,0.025-0.012c0,0,0.014-0.026,0.013-0.026
	s0.015-0.024,0.013-0.024l0.025-0.024c-0.001,0,0.013-0.015,0.013-0.013c-0.001,0,0.013-0.025,0.013-0.025s0.014-0.025,0.013-0.025
	c0,0,0.014-0.025,0.014-0.023c-0.001,0,0-0.026,0-0.025c-0.001,0,0.013-0.025,0.013-0.023c0,0,0.014-0.039,0.012-0.039
	c0,0,0.002-0.025,0-0.024c0,0,0.015-0.026,0.014-0.024c0,0,0-0.026,0-0.025c0,0,0-0.025,0-0.024c0,0,0-0.026,0-0.024v-2.83
	c0,0,0-0.025,0-0.024c0,0,0-0.026,0-0.024c0,0,0-0.025,0-0.024c0.001,0-0.014-0.026-0.014-0.026c0.002,0,0-0.025,0-0.023
	c0.002,0-0.012-0.039-0.012-0.038c0,0-0.014-0.026-0.013-0.025c0,0-0.001-0.024,0-0.024c0,0-0.014-0.025-0.014-0.024
	c0.001,0-0.013-0.026-0.013-0.024c0,0-0.014-0.025-0.013-0.024c0,0-0.014-0.013-0.013-0.013l-0.025-0.025
	c0.002,0-0.014-0.025-0.013-0.025s-0.013-0.024-0.013-0.023l-0.025-0.014c0,0-0.013-0.025-0.013-0.024l-0.025-0.013l-0.024-0.014
	c0,0-0.025-0.023-0.024-0.023c0,0-0.015-0.014-0.013-0.014c0,0-0.026-0.013-0.025-0.013l-0.025-0.013
	c0.002,0-0.024-0.014-0.024-0.014c0.001,0.002-0.026,0-0.025,0c0.003,0.002-0.024-0.013-0.024-0.012c0,0-0.038-0.013-0.037-0.013
	s-0.026,0-0.025,0l-0.025-0.013c0.002,0-0.025,0-0.024,0s-0.026,0-0.024,0c0,0-0.026,0-0.025,0h-2.471v-2.476c0,0,0-0.026,0-0.024
	v-0.025c0,0,0-0.026,0-0.023c0,0-0.013-0.027-0.013-0.025c0,0,0-0.026,0-0.025c0,0-0.013-0.039-0.013-0.038
	c0,0-0.014-0.026-0.014-0.024c0.002,0,0-0.025,0-0.025c0.002,0-0.013-0.025-0.012-0.023c0,0-0.014-0.025-0.014-0.024
	c0.001,0-0.014-0.026-0.014-0.026c0.002,0-0.012-0.013-0.012-0.013l-0.025-0.024l-0.012-0.025c0,0-0.015-0.024-0.014-0.024
	s-0.025-0.013-0.025-0.013s-0.013-0.025-0.013-0.024c0.001,0-0.024-0.013-0.024-0.013l-0.025-0.014c0.002,0-0.025-0.024-0.025-0.024
	c0.002,0-0.013-0.013-0.012-0.013c0,0-0.025-0.014-0.025-0.012c0.002,0-0.025-0.014-0.024-0.014s-0.026-0.013-0.024-0.012
	c0,0-0.027-0.001-0.025,0l-0.025-0.014c0.001,0-0.038-0.014-0.037-0.014h-0.025c0.002,0-0.025-0.013-0.024-0.013s-0.026,0-0.024,0
	c0,0-0.026,0-0.024,0c0,0-0.027,0-0.026,0h-2.803h-0.025c0.002,0-0.025,0-0.024,0s-0.005,0-0.013,0c0,0-0.009,0-0.014,0
	c0.001,0-0.025,0-0.025,0c-0.008,0-0.017,0-0.023,0v-0.007H25.485z"/>
<path id="rect4855-4_1_" fill="#6BBE45" d="M25.592,22.562v3.03h-3.031v2.828h3.031v3.029h2.828V28.42h3.03v-2.828h-3.03v-3.03
	H25.592z"/>
<linearGradient id="path4903-3_2_" gradientUnits="userSpaceOnUse" x1="-1182.6436" y1="1249.7324" x2="-1174.4609" y2="1249.7324" gradientTransform="matrix(0 -1 1 0 -1222.7266 -1151.5469)">
	<stop  offset="0" style="stop-color:#B2D78E"/>
	<stop  offset="1" style="stop-color:#1F9045"/>
</linearGradient>
<path id="path4903-3_1_" fill="url(#path4903-3_2_)" d="M25.944,22.914v3.031h-3.029v2.121h3.029v3.03h2.121v-3.03h3.03v-2.121
	h-3.03v-3.031H25.944z"/>
</svg>
