<?xml version="1.0" encoding="utf-8"?>
<!-- Generator: Adobe Illustrator 14.0.0, SVG Export Plug-In . SVG Version: 6.00 Build 43363)  -->
<!DOCTYPE svg PUBLIC "-//W3C//DTD SVG 1.1//EN" "http://www.w3.org/Graphics/SVG/1.1/DTD/svg11.dtd">
<svg version="1.1" id="Layer_1" xmlns="http://www.w3.org/2000/svg" xmlns:xlink="http://www.w3.org/1999/xlink" x="0px" y="0px"
	 width="32px" height="32px" viewBox="0 0 32 32" enable-background="new 0 0 32 32" xml:space="preserve">
<g>
	<path d="M7.351,31c-1.696,0-3.291-0.659-4.49-1.855c-2.476-2.476-2.476-6.502-0.001-8.977l4.156-4.208
		c1.17-1.167,2.723-1.808,4.376-1.808c0.668,0,1.328,0.103,1.965,0.306l1.141-1.112c-0.723-2.261-0.163-4.704,1.507-6.373
		l4.16-4.158C21.331,1.645,22.935,1,24.677,1c1.708,0,3.293,0.645,4.461,1.816c1.197,1.197,1.857,2.792,1.857,4.488
		c0,1.696-0.66,3.289-1.858,4.486l-4.157,4.159c-1.17,1.169-2.73,1.813-4.392,1.813l0,0c-0.749,0-1.504-0.135-2.214-0.393
		l-0.956,0.955c0.848,2.319,0.313,4.923-1.422,6.66l-4.159,4.158C10.64,30.341,9.045,31,7.351,31L7.351,31z M6.908,22.981
		c-0.722,0.724-0.835,1.742-0.258,2.32c0.234,0.234,0.573,0.362,0.956,0.362c0.507,0,1.023-0.226,1.417-0.619l1.687-1.687
		c-0.579-0.095-1.11-0.365-1.532-0.786c-0.336-0.338-0.567-0.738-0.696-1.165L6.908,22.981z M21.15,8.74
		c0.436,0.132,0.833,0.368,1.161,0.698c0.421,0.419,0.692,0.952,0.787,1.531l1.993-1.994c0.372-0.372,0.593-0.83,0.62-1.289
		c0.024-0.405-0.104-0.771-0.363-1.029c-0.257-0.255-0.594-0.397-0.949-0.397c-0.532,0.029-1.046,0.278-1.421,0.654L21.15,8.74z"/>
	<path id="path11610_6_" fill="#6EBD46" d="M24.677,1.938c-1.377,0-2.787,0.474-3.851,1.54l-4.159,4.158
		c-1.615,1.615-1.934,3.975-1.079,5.955l-2.001,1.953c-1.966-0.839-4.295-0.529-5.904,1.076l-4.16,4.211
		c-2.11,2.111-2.11,5.539,0,7.65c2.116,2.109,5.54,2.109,7.651,0l4.157-4.158c1.68-1.681,1.969-4.181,0.977-6.213l1.848-1.848
		c2.019,0.979,4.487,0.696,6.16-0.975l4.157-4.159c2.112-2.111,2.112-5.536,0-7.649C27.42,2.422,26.053,1.938,24.677,1.938z
		 M24.266,5.326c0.653-0.038,1.283,0.206,1.746,0.667c0.923,0.924,0.859,2.529-0.257,3.645l-2.926,2.928
		c-0.505,0.503-1.132,0.699-1.746,0.769l0.564-0.564c0.735-0.736,0.735-1.937,0-2.669c-0.719-0.722-1.896-0.722-2.618,0
		l-0.358,0.308c0.134-0.458,0.392-0.906,0.769-1.283l2.876-2.876C22.874,5.691,23.608,5.364,24.266,5.326z M10.508,18.624
		l-0.668,0.665c-0.721,0.721-0.719,1.896,0,2.62c0.734,0.732,1.936,0.732,2.67,0l0.873-0.82c-0.084,0.611-0.311,1.235-0.822,1.745
		l-2.875,2.874c-1.113,1.111-2.781,1.174-3.698,0.257c-0.922-0.921-0.86-2.527,0.257-3.646l2.928-2.929
		C9.565,19.001,10.035,18.762,10.508,18.624z"/>
	<linearGradient id="SVGID_1_" gradientUnits="userSpaceOnUse" x1="2.8784" y1="16" x2="29.1201" y2="16">
		<stop  offset="0" style="stop-color:#B0D68C"/>
		<stop  offset="1" style="stop-color:#1E9046"/>
	</linearGradient>
	<path fill="url(#SVGID_1_)" d="M7.351,29.125c-1.196,0-2.32-0.465-3.166-1.309c-1.742-1.743-1.742-4.579,0.001-6.323l4.165-4.215
		c0.806-0.804,1.888-1.251,3.042-1.251c0.626,0,1.242,0.128,1.828,0.378l0.576,0.245l2.911-2.841l-0.256-0.591
		c-0.74-1.714-0.395-3.645,0.88-4.92l4.159-4.159c0.815-0.816,1.946-1.265,3.188-1.265c1.206,0,2.319,0.449,3.134,1.265
		c0.845,0.846,1.31,1.968,1.31,3.164c0,1.194-0.465,2.316-1.309,3.161l-4.158,4.159c-0.815,0.814-1.904,1.263-3.065,1.263l0,0
		c-0.691,0-1.391-0.161-2.022-0.468l-0.601-0.291l-2.793,2.792l0.295,0.601c0.852,1.744,0.531,3.81-0.798,5.139l-4.157,4.158
		C9.668,28.661,8.545,29.125,7.351,29.125L7.351,29.125z M10.246,17.724c-0.682,0.198-1.266,0.536-1.735,1.003l-2.929,2.93
		c-1.466,1.468-1.578,3.651-0.256,4.971c0.586,0.588,1.396,0.912,2.28,0.912c1,0,2-0.426,2.743-1.167l2.875-2.876
		c0.596-0.593,0.962-1.36,1.088-2.28l-0.583-1.737l-1.859,1.747c-0.2,0.197-0.438,0.295-0.694,0.295
		c-0.255,0-0.495-0.098-0.672-0.275c-0.355-0.356-0.355-0.938,0-1.294l1.786-1.842L10.246,17.724z M20.34,10.497
		c0.245,0,0.474,0.094,0.645,0.265c0.179,0.18,0.277,0.417,0.277,0.671c0.001,0.255-0.099,0.495-0.276,0.675l-1.59,1.585
		l1.794,0.572c0.959-0.109,1.713-0.449,2.302-1.038l2.927-2.928c0.695-0.696,1.11-1.584,1.166-2.5c0.058-0.95-0.266-1.827-0.91-2.47
		c-0.613-0.611-1.42-0.946-2.274-0.946c-0.063,0-0.126,0.002-0.189,0.006c-0.918,0.054-1.851,0.49-2.558,1.196l-2.876,2.877
		c-0.473,0.472-0.821,1.054-1.005,1.681l0.416,1.917l1.453-1.251C19.864,10.591,20.094,10.497,20.34,10.497L20.34,10.497z"/>
</g>
</svg>
