<?xml version="1.0" encoding="utf-8"?>
<!-- Generator: Adobe Illustrator 14.0.0, SVG Export Plug-In . SVG Version: 6.00 Build 43363)  -->
<!DOCTYPE svg PUBLIC "-//W3C//DTD SVG 1.1//EN" "http://www.w3.org/Graphics/SVG/1.1/DTD/svg11.dtd">
<svg version="1.1"
	 id="svg2" sodipodi:docbase="C:\Radix\dev\trunk\org.radixware\kernel\designer\src\common.resources\src\org\radixware\kernel\designer\resources\icons\java" sodipodi:docname="class.svg" inkscape:version="0.45.1" sodipodi:version="0.32" inkscape:output_extension="org.inkscape.output.svg.inkscape" xmlns:ns="http://creativecommons.org/ns#" xmlns:dc="http://purl.org/dc/elements/1.1/" xmlns:cc="http://web.resource.org/cc/" xmlns:rdf="http://www.w3.org/1999/02/22-rdf-syntax-ns#" xmlns:svg="http://www.w3.org/2000/svg" xmlns:sodipodi="http://sodipodi.sourceforge.net/DTD/sodipodi-0.dtd" xmlns:inkscape="http://www.inkscape.org/namespaces/inkscape"
	 xmlns="http://www.w3.org/2000/svg" xmlns:xlink="http://www.w3.org/1999/xlink" x="0px" y="0px" width="32px" height="32px"
	 viewBox="0 0 32 32" enable-background="new 0 0 32 32" xml:space="preserve">
<line fill="none" stroke="#000000" x1="5" y1="27" x2="25" y2="25"/>
<line fill="none" stroke="#000000" x1="5" y1="27" x2="26" y2="6"/>
<sodipodi:namedview  id="base" pagecolor="#ffffff" bordercolor="#000000" borderopacity="1.0" showgrid="false" inkscape:zoom="9.5459416" inkscape:cx="-12.335413" inkscape:cy="7.0646092" inkscape:current-layer="layer1" inkscape:pageopacity="0.0" inkscape:pageshadow="2" inkscape:window-width="1280" inkscape:window-height="944" inkscape:window-x="-8" inkscape:window-y="-8" inkscape:document-units="px">
	</sodipodi:namedview>
<line fill="none" stroke="#000000" x1="7.965" y1="7.968" x2="5" y2="27"/>
<line fill="none" stroke="#000000" x1="25" y1="25" x2="26" y2="6"/>
<g>
	<path d="M7.966,0c4.399,0,7.965,3.567,7.965,7.967c0,4.4-3.564,7.967-7.965,7.967C3.565,15.934,0,12.367,0,7.967
		C0.001,3.568,3.565,0,7.966,0z"/>
	
		<radialGradient id="SVGID_1_" cx="288.5605" cy="532.6602" r="9.2183" fx="287.1328" fy="532.8322" gradientTransform="matrix(1 0 0 1 -279.2598 -525.8594)" gradientUnits="userSpaceOnUse">
		<stop  offset="0" style="stop-color:#FFFFFF"/>
		<stop  offset="0.2182" style="stop-color:#F59699"/>
		<stop  offset="0.7818" style="stop-color:#7A272A"/>
		<stop  offset="1" style="stop-color:#AB373A"/>
	</radialGradient>
	<path fill="url(#SVGID_1_)" d="M7.966,14.938c-3.846,0-6.971-3.127-6.971-6.971c0-3.842,3.125-6.969,6.971-6.969
		c3.844,0,6.972,3.127,6.972,6.969C14.938,11.811,11.81,14.938,7.966,14.938L7.966,14.938z"/>
</g>
<g>
	<path d="M26.001,0C29.313,0,32,2.687,32,6s-2.685,6-5.999,6C22.685,12,20,9.313,20,6S22.685,0,26.001,0z"/>
	
		<radialGradient id="SVGID_2_" cx="307.0176" cy="530.1045" r="8.6051" gradientTransform="matrix(1 0 0 1 -279.2598 -525.8594)" gradientUnits="userSpaceOnUse">
		<stop  offset="0" style="stop-color:#FFFFFF"/>
		<stop  offset="0.2061" style="stop-color:#B0D68C"/>
		<stop  offset="0.7879" style="stop-color:#276938"/>
		<stop  offset="1" style="stop-color:#1E9046"/>
	</radialGradient>
	<path fill="url(#SVGID_2_)" d="M26.001,11.251c-2.896,0-5.252-2.355-5.252-5.25c0-2.895,2.355-5.25,5.252-5.25
		c2.895,0,5.25,2.355,5.25,5.25C31.251,8.896,28.896,11.251,26.001,11.251L26.001,11.251z"/>
</g>
<g>
	<path d="M25.001,18C28.866,18,32,21.134,32,24.999C32,28.866,28.868,32,25.001,32C21.132,32,18,28.866,18,24.999
		C18,21.134,21.132,18,25.001,18z"/>
	
		<radialGradient id="SVGID_3_" cx="306.1641" cy="549.1025" r="8.3528" gradientTransform="matrix(1 0 0 1 -279.2598 -525.8594)" gradientUnits="userSpaceOnUse">
		<stop  offset="0" style="stop-color:#FFFFFF"/>
		<stop  offset="0.1879" style="stop-color:#B1D2DB"/>
		<stop  offset="0.7758" style="stop-color:#1F5D70"/>
		<stop  offset="1" style="stop-color:#0B7C9E"/>
	</radialGradient>
	<path fill="url(#SVGID_3_)" d="M25.001,31.126c-3.38,0-6.127-2.749-6.127-6.127c0-3.376,2.747-6.124,6.127-6.124
		c3.377,0,6.125,2.748,6.125,6.124C31.126,28.377,28.378,31.126,25.001,31.126L25.001,31.126z"/>
</g>
<g>
	<path d="M5.001,22C7.762,22,10,24.238,10,26.999C10,29.762,7.763,32,5.001,32C2.237,32,0,29.762,0,26.999
		C0,24.238,2.237,22,5.001,22z"/>
	
		<radialGradient id="SVGID_4_" cx="286.0107" cy="550.7969" r="6.9836" gradientTransform="matrix(1 0 0 1 -279.2598 -525.8594)" gradientUnits="userSpaceOnUse">
		<stop  offset="0" style="stop-color:#FFF3DF"/>
		<stop  offset="0.5333" style="stop-color:#F9A620"/>
		<stop  offset="0.8848" style="stop-color:#A36628"/>
		<stop  offset="1" style="stop-color:#FAB13C"/>
	</radialGradient>
	<path fill="url(#SVGID_4_)" d="M5.001,31.376c-2.414,0-4.377-1.964-4.377-4.377c0-2.411,1.963-4.374,4.377-4.374
		c2.412,0,4.375,1.963,4.375,4.374C9.376,29.412,7.413,31.376,5.001,31.376L5.001,31.376z"/>
</g>
</svg>
