<?xml version="1.0" encoding="UTF-8" standalone="no"?>
<!-- Generator: Adobe Illustrator 14.0.0, SVG Export Plug-In . SVG Version: 6.00 Build 43363)  -->

<svg
   xmlns:dc="http://purl.org/dc/elements/1.1/"
   xmlns:cc="http://creativecommons.org/ns#"
   xmlns:rdf="http://www.w3.org/1999/02/22-rdf-syntax-ns#"
   xmlns:svg="http://www.w3.org/2000/svg"
   xmlns="http://www.w3.org/2000/svg"
   xmlns:sodipodi="http://sodipodi.sourceforge.net/DTD/sodipodi-0.dtd"
   xmlns:inkscape="http://www.inkscape.org/namespaces/inkscape"
   version="1.1"
   id="Layer_1"
   x="0px"
   y="0px"
   width="32px"
   height="32px"
   viewBox="0 0 32 32"
   enable-background="new 0 0 32 32"
   xml:space="preserve"
   inkscape:version="0.47pre4 "
   sodipodi:docname="select first.svg"><metadata
   id="metadata3050"><rdf:RDF><cc:Work
       rdf:about=""><dc:format>image/svg+xml</dc:format><dc:type
         rdf:resource="http://purl.org/dc/dcmitype/StillImage" /></cc:Work></rdf:RDF></metadata><defs
   id="defs3048"><inkscape:perspective
     sodipodi:type="inkscape:persp3d"
     inkscape:vp_x="0 : 16 : 1"
     inkscape:vp_y="0 : 1000 : 0"
     inkscape:vp_z="32 : 16 : 1"
     inkscape:persp3d-origin="16 : 10.666667 : 1"
     id="perspective3052" /></defs><sodipodi:namedview
   pagecolor="#ffffff"
   bordercolor="#666666"
   borderopacity="1"
   objecttolerance="10"
   gridtolerance="10"
   guidetolerance="10"
   inkscape:pageopacity="0"
   inkscape:pageshadow="2"
   inkscape:window-width="640"
   inkscape:window-height="481"
   id="namedview3046"
   showgrid="false"
   inkscape:zoom="7.375"
   inkscape:cx="16"
   inkscape:cy="16"
   inkscape:window-x="0"
   inkscape:window-y="0"
   inkscape:window-maximized="0"
   inkscape:current-layer="Layer_1" />





<g
   id="g3054"><g
     transform="translate(-5.5755111,29.767864)"
     id="g20887-2_2_">
	<g
   id="g3011">
		<g
   id="g3013"
   nodetypes="cccccccc">
			<path
   id="path3015"
   d="M26.045-1.716c-0.236,0-0.47-0.084-0.655-0.245L12.635-13.04c-0.219-0.19-0.345-0.466-0.344-0.756     c0-0.291,0.126-0.566,0.346-0.755l12.754-11.025c0.186-0.16,0.419-0.244,0.654-0.244c0.141,0,0.283,0.03,0.416,0.091     c0.355,0.163,0.584,0.518,0.584,0.909v4.283h9.065c0.553,0,1,0.448,1,1V-8.09c0,0.553-0.447,1-1,1h-9.065v4.374     c0,0.392-0.229,0.747-0.585,0.91C26.327-1.745,26.186-1.716,26.045-1.716L26.045-1.716z" />
		</g>
	</g>
</g><g
     transform="translate(-5.5755111,29.767864)"
     id="g20887-2_1_">
	<path
   d="M26.045-2.716L13.29-13.795L26.045-24.82v5.283h10.065   V-8.09H26.045V-2.716z"
   fill="#00ADDC"
   nodetypes="cccccccc"
   id="path4348-2-1_1_" />
</g><g
     transform="translate(-5.5755111,29.767864)"
     id="g20887-2_3_">
	<g
   id="g3020">
		<g
   id="g3022"
   nodetypes="cccccccc">
			
				<linearGradient
   gradientTransform="matrix(-1 0 0 1 43.151 0)"
   y2="-21.8313"
   x2="18.1873"
   y1="-5.0374"
   x1="18.1873"
   gradientUnits="userSpaceOnUse"
   id="SVGID_1_">
				<stop
   id="stop3025"
   style="stop-color:#B2D3DC"
   offset="0" />
				<stop
   id="stop3027"
   style="stop-color:#027C9E"
   offset="1" />
			</linearGradient>
			<polygon
   id="polygon3029"
   points="14.817,-13.793 25.045,-22.634 25.045,-18.537 35.111,-18.537 35.111,-9.09 25.045,-9.09      25.045,-4.909    "
   fill="url(#SVGID_1_)" />
		</g>
	</g>
</g><g
     id="g3031">
	<path
   id="path3033"
   d="M1.465,28.052c-0.552,0-1-0.447-1-1V4.948c0-0.552,0.448-1,1-1h2.561c0.552,0,1,0.448,1,1v22.104c0,0.553-0.448,1-1,1   H1.465z" />
</g><rect
     id="rect3035"
     height="22.104"
     width="2.561"
     fill="#00ADDC"
     y="4.948"
     x="1.465" /><g
     id="g3037">
	
		<linearGradient
   gradientTransform="matrix(-1 0 0 1 32 0)"
   y2="6.0074"
   x2="29.2549"
   y1="26.0518"
   x1="29.2549"
   gradientUnits="userSpaceOnUse"
   id="SVGID_2_">
		<stop
   id="stop3040"
   style="stop-color:#B2D3DC"
   offset="0" />
		<stop
   id="stop3042"
   style="stop-color:#027C9E"
   offset="1" />
	</linearGradient>
	<rect
   id="rect3044"
   height="20.104"
   width="0.561"
   fill="url(#SVGID_2_)"
   y="5.948"
   x="2.465" />
</g></g>
</svg>