<?xml version="1.0" encoding="UTF-8" standalone="no"?>
<!-- Created with Inkscape (http://www.inkscape.org/) -->
<svg
   xmlns:dc="http://purl.org/dc/elements/1.1/"
   xmlns:cc="http://creativecommons.org/ns#"
   xmlns:rdf="http://www.w3.org/1999/02/22-rdf-syntax-ns#"
   xmlns:svg="http://www.w3.org/2000/svg"
   xmlns="http://www.w3.org/2000/svg"
   xmlns:xlink="http://www.w3.org/1999/xlink"
   xmlns:sodipodi="http://sodipodi.sourceforge.net/DTD/sodipodi-0.dtd"
   xmlns:inkscape="http://www.inkscape.org/namespaces/inkscape"
   width="32px"
   height="32px"
   id="svg2431"
   sodipodi:version="0.32"
   inkscape:version="0.46"
   sodipodi:docname="tester2.svg"
   inkscape:output_extension="org.inkscape.output.svg.inkscape">
  <defs
     id="defs2433">
    <linearGradient
       id="linearGradient5849">
      <stop
         style="stop-color:#ffffff;stop-opacity:1;"
         offset="0"
         id="stop5851" />
      <stop
         style="stop-color:#8c8c8c;stop-opacity:1;"
         offset="1"
         id="stop5853" />
    </linearGradient>
    <linearGradient
       id="linearGradient5812">
      <stop
         style="stop-color:#649af7;stop-opacity:1;"
         offset="0"
         id="stop5814" />
      <stop
         id="stop5820"
         offset="0.74922335"
         style="stop-color:#1d4ca2;stop-opacity:1;" />
      <stop
         style="stop-color:#e6ecfe;stop-opacity:1;"
         offset="1"
         id="stop5816" />
    </linearGradient>
    <linearGradient
       id="linearGradient5790">
      <stop
         style="stop-color:#f2ac36;stop-opacity:1;"
         offset="0"
         id="stop5792" />
      <stop
         style="stop-color:#ffffff;stop-opacity:1;"
         offset="1"
         id="stop5794" />
    </linearGradient>
    <inkscape:perspective
       sodipodi:type="inkscape:persp3d"
       inkscape:vp_x="0 : 16 : 1"
       inkscape:vp_y="0 : 1000 : 0"
       inkscape:vp_z="32 : 16 : 1"
       inkscape:persp3d-origin="16 : 10.666667 : 1"
       id="perspective2439" />
    <inkscape:perspective
       id="perspective5730"
       inkscape:persp3d-origin="372.04724 : 350.78739 : 1"
       inkscape:vp_z="744.09448 : 526.18109 : 1"
       inkscape:vp_y="0 : 1000 : 0"
       inkscape:vp_x="0 : 526.18109 : 1"
       sodipodi:type="inkscape:persp3d" />
    <linearGradient
       inkscape:collect="always"
       xlink:href="#linearGradient5790"
       id="linearGradient5796"
       x1="2.0043895"
       y1="14.301611"
       x2="23.652876"
       y2="14.301611"
       gradientUnits="userSpaceOnUse" />
    <filter
       inkscape:collect="always"
       id="filter5804">
      <feGaussianBlur
         inkscape:collect="always"
         stdDeviation="0.029042384"
         id="feGaussianBlur5806" />
    </filter>
    <linearGradient
       inkscape:collect="always"
       xlink:href="#linearGradient5812"
       id="linearGradient5818"
       x1="12.398001"
       y1="21.848316"
       x2="23.349243"
       y2="21.848316"
       gradientUnits="userSpaceOnUse" />
    <linearGradient
       inkscape:collect="always"
       xlink:href="#linearGradient5812"
       id="linearGradient5824"
       gradientUnits="userSpaceOnUse"
       x1="12.398001"
       y1="21.848316"
       x2="23.349243"
       y2="21.848316"
       gradientTransform="translate(0.2329891,3.4282732)" />
    <linearGradient
       inkscape:collect="always"
       xlink:href="#linearGradient5812"
       id="linearGradient5828"
       gradientUnits="userSpaceOnUse"
       x1="12.398001"
       y1="21.848316"
       x2="23.349243"
       y2="21.848316"
       gradientTransform="translate(0.1664207,6.8232628)" />
    <linearGradient
       inkscape:collect="always"
       xlink:href="#linearGradient5812"
       id="linearGradient5835"
       gradientUnits="userSpaceOnUse"
       gradientTransform="matrix(1.4091033,0,0,2.2190673,-0.4417383,-66.722628)"
       x1="17.25948"
       y1="24.368179"
       x2="17.495687"
       y2="20.438393" />
    <radialGradient
       inkscape:collect="always"
       xlink:href="#linearGradient5849"
       id="radialGradient5857"
       cx="26.367329"
       cy="9.408802"
       fx="26.367329"
       fy="9.408802"
       r="3.6947255"
       gradientTransform="matrix(1,0,0,2.0222824,0,-10.796235)"
       gradientUnits="userSpaceOnUse" />
    <filter
       inkscape:collect="always"
       id="filter5859">
      <feGaussianBlur
         inkscape:collect="always"
         stdDeviation="0.055897489"
         id="feGaussianBlur5861" />
    </filter>
    <radialGradient
       inkscape:collect="always"
       xlink:href="#linearGradient5849"
       id="radialGradient5914"
       gradientUnits="userSpaceOnUse"
       gradientTransform="matrix(1,0,0,2.0222824,0,-10.796235)"
       cx="26.367329"
       cy="9.408802"
       fx="26.367329"
       fy="9.408802"
       r="3.6947255" />
    <linearGradient
       inkscape:collect="always"
       xlink:href="#linearGradient5812"
       id="linearGradient5916"
       gradientUnits="userSpaceOnUse"
       gradientTransform="matrix(1.4091033,0,0,2.2190673,-0.4417383,-66.722628)"
       x1="17.25948"
       y1="24.368179"
       x2="17.495687"
       y2="20.438393" />
    <linearGradient
       inkscape:collect="always"
       xlink:href="#linearGradient5812"
       id="linearGradient5918"
       gradientUnits="userSpaceOnUse"
       gradientTransform="translate(0.2329891,3.4282732)"
       x1="12.398001"
       y1="21.848316"
       x2="23.349243"
       y2="21.848316" />
    <linearGradient
       inkscape:collect="always"
       xlink:href="#linearGradient5812"
       id="linearGradient5920"
       gradientUnits="userSpaceOnUse"
       x1="12.398001"
       y1="21.848316"
       x2="23.349243"
       y2="21.848316" />
    <linearGradient
       inkscape:collect="always"
       xlink:href="#linearGradient5790"
       id="linearGradient5922"
       gradientUnits="userSpaceOnUse"
       x1="2.0043895"
       y1="14.301611"
       x2="23.652876"
       y2="14.301611" />
    <linearGradient
       inkscape:collect="always"
       xlink:href="#linearGradient5812"
       id="linearGradient5924"
       gradientUnits="userSpaceOnUse"
       gradientTransform="translate(0.1664207,6.8232628)"
       x1="12.398001"
       y1="21.848316"
       x2="23.349243"
       y2="21.848316" />
  </defs>
  <sodipodi:namedview
     id="base"
     pagecolor="#ffffff"
     bordercolor="#666666"
     borderopacity="1.0"
     inkscape:pageopacity="0.0"
     inkscape:pageshadow="2"
     inkscape:zoom="15.022137"
     inkscape:cx="16.5314"
     inkscape:cy="16.436862"
     inkscape:current-layer="layer1"
     showgrid="true"
     inkscape:grid-bbox="true"
     inkscape:document-units="px"
     inkscape:window-width="1280"
     inkscape:window-height="944"
     inkscape:window-x="-8"
     inkscape:window-y="-8" />
  <metadata
     id="metadata2436">
    <rdf:RDF>
      <cc:Work
         rdf:about="">
        <dc:format>image/svg+xml</dc:format>
        <dc:type
           rdf:resource="http://purl.org/dc/dcmitype/StillImage" />
      </cc:Work>
    </rdf:RDF>
  </metadata>
  <g
     id="layer1"
     inkscape:label="Layer 1"
     inkscape:groupmode="layer">
    <g
       id="g5892"
       transform="matrix(1.073304,0,0,1.073304,-1.604552,-1.0436953)">
      <path
         sodipodi:nodetypes="czc"
         id="path5738"
         d="M 23.301615,3.339135 C 26.43104,5.4178784 29.26415,7.7212114 29.758054,11.508473 C 30.251958,15.295735 27.309184,17.499237 22.922603,17.782691"
         style="fill:url(#radialGradient5914);fill-opacity:1;fill-rule:evenodd;stroke:#000000;stroke-width:0.5;stroke-linecap:butt;stroke-linejoin:miter;stroke-miterlimit:4;stroke-dasharray:none;stroke-opacity:1" />
      <path
         sodipodi:nodetypes="ccccc"
         id="rect5830"
         d="M 17.180895,-21.941924 C 21.969481,-20.497438 26.282247,-21.59759 31.242092,-22.208198 L 31.175523,-14.737275 C 26.266563,-14.172876 22.222992,-14.992578 17.314032,-16.468054 L 17.180895,-21.941924 z"
         style="fill:url(#linearGradient5916);fill-opacity:1;fill-rule:nonzero;stroke:#002889;stroke-width:0.5;stroke-linecap:square;stroke-linejoin:bevel;stroke-miterlimit:4;stroke-dasharray:none;stroke-dashoffset:0;stroke-opacity:1"
         transform="matrix(0,1,-1,0,0,0)" />
      <rect
         y="28.638294"
         x="14.511915"
         height="1.9304843"
         width="7.7885056"
         id="rect5843"
         style="opacity:1;fill:#000000;fill-opacity:0.45771143;fill-rule:nonzero;stroke:none;stroke-width:0.5;stroke-linecap:square;stroke-linejoin:bevel;stroke-miterlimit:4;stroke-dasharray:none;stroke-dashoffset:0;stroke-opacity:1" />
      <rect
         y="25.110168"
         x="14.445347"
         height="1.9304843"
         width="7.5888004"
         id="rect5841"
         style="opacity:1;fill:#000000;fill-opacity:0.45771143;fill-rule:nonzero;stroke:none;stroke-width:0.5;stroke-linecap:square;stroke-linejoin:bevel;stroke-miterlimit:4;stroke-dasharray:none;stroke-dashoffset:0;stroke-opacity:1" />
      <rect
         y="24.178211"
         x="12.88099"
         height="2.196758"
         width="10.451242"
         id="rect5822"
         style="opacity:1;fill:url(#linearGradient5918);fill-opacity:1;fill-rule:nonzero;stroke:#002889;stroke-width:0.5;stroke-linecap:square;stroke-linejoin:bevel;stroke-miterlimit:4;stroke-dasharray:none;stroke-dashoffset:0;stroke-opacity:1" />
      <rect
         y="21.781746"
         x="12.814421"
         height="1.9304843"
         width="8.7870321"
         id="rect5837"
         style="opacity:1;fill:#000000;fill-opacity:0.45771143;fill-rule:nonzero;stroke:none;stroke-width:0.5;stroke-linecap:square;stroke-linejoin:bevel;stroke-miterlimit:4;stroke-dasharray:none;stroke-dashoffset:0;stroke-opacity:1" />
      <rect
         y="20.749937"
         x="12.648001"
         height="2.196758"
         width="10.451242"
         id="rect5810"
         style="opacity:1;fill:url(#linearGradient5920);fill-opacity:1;fill-rule:nonzero;stroke:#002889;stroke-width:0.5;stroke-linecap:square;stroke-linejoin:bevel;stroke-miterlimit:4;stroke-dasharray:none;stroke-dashoffset:0;stroke-opacity:1" />
      <path
         sodipodi:nodetypes="ccccssssssssssscc"
         id="path5847"
         d="M 12.648,26.208547 C 14.029377,25.958833 15.451916,24.794526 15.909853,23.812083 C 16.163717,22.715975 16.114107,21.669763 16.508969,20.616799 C 18.044337,19.558885 19.615896,19.777231 21.368464,19.485136 C 21.498999,19.419869 21.923663,18.462569 21.967579,18.286904 C 22.081078,17.832908 21.9284,17.578141 21.568169,17.488083 C 21.175046,17.389803 20.742458,17.554652 20.369937,17.554652 C 19.554547,17.554652 18.556472,17.824955 17.773769,18.020631 C 17.664002,18.048072 17.551874,18.06501 17.440927,18.087199 C 16.861367,18.203111 16.138226,18.239286 15.643579,18.48661 C 15.339221,18.638789 14.922853,18.74712 14.645053,18.88602 C 14.070207,19.173443 13.694298,19.437364 13.247116,19.884547 C 12.963993,20.167669 12.964399,20.84939 12.781137,21.215915 C 12.604869,21.56845 12.477779,21.963368 12.381726,22.347578 C 12.266353,22.809073 12.23015,23.286727 12.115453,23.745515 C 12.0114,24.161727 12.063278,24.529943 11.782611,24.81061 C 12.42069,25.365619 12.740275,25.227537 12.648,26.208547 z"
         style="fill:#000000;fill-opacity:0.45771143;fill-rule:evenodd;stroke:none;stroke-width:1px;stroke-linecap:butt;stroke-linejoin:miter;stroke-opacity:1" />
      <path
         sodipodi:nodetypes="cccccccsccczc"
         id="path5736"
         d="M 23.496773,3.3405539 C 23.359467,8.107476 23.328372,12.918071 23.277799,17.77037 C 21.208276,18.820607 18.214375,18.654669 15.788769,19.306783 C 15.320768,21.079392 15.235256,22.958039 14.159019,24.495599 C 11.6401,25.853677 8.5119554,26.287923 5.6739558,26.666264 C 4.9437077,25.239901 4.6780826,23.975111 4.7115404,22.413686 C 4.5978138,21.251801 4.8600199,20.423451 4.8842638,19.260765 C 4.7847888,18.512619 5.0547295,18.18628 4.1912155,17.889096 C 3.7367045,17.732673 2.1166036,17.459051 2.1614036,16.914689 C 3.5105623,15.014017 5.0377237,13.008112 6.4072996,11.225946 C 6.762115,9.5691179 5.8914706,8.7566559 6.345819,7.1024539 C 6.8114119,6.1335918 7.0424996,5.3541058 8.6464928,4.1900374 C 10.250486,3.025969 17.65153,0.26902113 23.496773,3.3405539 z"
         style="fill:url(#linearGradient5922);fill-opacity:1;fill-rule:evenodd;stroke:#000000;stroke-width:0.5;stroke-linecap:butt;stroke-linejoin:miter;stroke-miterlimit:4;stroke-dasharray:none;stroke-opacity:1" />
      <g
         id="g5784">
        <path
           sodipodi:type="arc"
           style="fill:#000000;fill-opacity:1;fill-rule:nonzero;stroke:none;stroke-width:1.60150766;stroke-linecap:square;stroke-linejoin:bevel;stroke-miterlimit:4;stroke-dasharray:none;stroke-dashoffset:0;stroke-opacity:1"
           id="path5748"
           sodipodi:cx="-90.374878"
           sodipodi:cy="-71.055939"
           sodipodi:rx="14.645731"
           sodipodi:ry="14.109912"
           d="M -105.02061,-71.055939 A 14.645731,14.109912 0 0 1 -90.374878,-85.165851 L -90.374878,-71.055939 z"
           transform="matrix(-0.3122058,-7.3650174e-5,-7.3650174e-5,0.3122058,-11.023227,33.267477)"
           sodipodi:start="3.1415927"
           sodipodi:end="4.712389" />
        <path
           sodipodi:type="arc"
           style="fill:#000000;fill-opacity:1;fill-rule:nonzero;stroke:none;stroke-width:1.60150766;stroke-linecap:square;stroke-linejoin:bevel;stroke-miterlimit:4;stroke-dasharray:none;stroke-dashoffset:0;stroke-opacity:1"
           id="path5750"
           sodipodi:cx="-90.374878"
           sodipodi:cy="-71.055939"
           sodipodi:rx="14.645731"
           sodipodi:ry="14.109912"
           d="M -105.02061,-71.055939 A 14.645731,14.109912 0 0 1 -90.374878,-85.165851 L -90.374878,-71.055939 z"
           transform="matrix(0.3122058,7.3650174e-5,7.3650174e-5,-0.3122058,45.418362,-11.085206)"
           sodipodi:start="3.1415927"
           sodipodi:end="4.712389" />
        <path
           sodipodi:type="arc"
           style="fill:#fff508;fill-opacity:1;fill-rule:nonzero;stroke:none;stroke-width:1.60150766;stroke-linecap:square;stroke-linejoin:bevel;stroke-miterlimit:4;stroke-dasharray:none;stroke-dashoffset:0;stroke-opacity:1"
           id="path5752"
           sodipodi:cx="-90.374878"
           sodipodi:cy="-71.055939"
           sodipodi:rx="14.645731"
           sodipodi:ry="14.109912"
           d="M -105.02061,-71.055939 A 14.645731,14.109912 0 0 1 -90.374878,-85.165851 L -90.374878,-71.055939 z"
           transform="matrix(0.3122058,-7.3650174e-5,7.3650174e-5,0.3122058,45.418362,33.267477)"
           sodipodi:start="3.1415927"
           sodipodi:end="4.712389" />
        <path
           sodipodi:type="arc"
           style="fill:#fff508;fill-opacity:1;fill-rule:nonzero;stroke:none;stroke-width:1.60150766;stroke-linecap:square;stroke-linejoin:bevel;stroke-miterlimit:4;stroke-dasharray:none;stroke-dashoffset:0;stroke-opacity:1"
           id="path5754"
           sodipodi:cx="-90.374878"
           sodipodi:cy="-71.055939"
           sodipodi:rx="14.645731"
           sodipodi:ry="14.109912"
           d="M -105.02061,-71.055939 A 14.645731,14.109912 0 0 1 -90.374878,-85.165851 L -90.374878,-71.055939 z"
           transform="matrix(-0.3122058,7.3650174e-5,-7.3650174e-5,-0.3122058,-11.023227,-11.085206)"
           sodipodi:start="3.1415927"
           sodipodi:end="4.712389" />
      </g>
      <path
         transform="matrix(0.3122058,7.3650174e-5,7.3650174e-5,-0.3122058,45.418362,-11.086285)"
         d="M -75.729147,-71.055939 A 14.645731,14.109912 0 1 1 -105.02061,-71.055939 A 14.645731,14.109912 0 1 1 -75.729147,-71.055939 z"
         sodipodi:ry="14.109912"
         sodipodi:rx="14.645731"
         sodipodi:cy="-71.055939"
         sodipodi:cx="-90.374878"
         id="path5782"
         style="fill:none;fill-opacity:1;fill-rule:nonzero;stroke:#000000;stroke-width:1.60150766;stroke-linecap:square;stroke-linejoin:bevel;stroke-miterlimit:4;stroke-dasharray:none;stroke-dashoffset:0;stroke-opacity:1"
         sodipodi:type="arc" />
      <path
         sodipodi:nodetypes="czcsc"
         id="path5798"
         d="M 5.9245896,26.275116 C 9.4864621,25.079476 11.289889,24.577494 12.714569,23.346105 C 14.13925,22.114715 14.830589,20.469493 15.443874,18.819452 C 15.443874,18.819452 15.162847,23.81722 13.646527,24.544337 C 11.44519,25.599937 5.9911581,26.807663 5.9245896,26.275116 z"
         style="fill:#a96e0b;fill-opacity:1;fill-rule:evenodd;stroke:none;stroke-width:1px;stroke-linecap:butt;stroke-linejoin:miter;stroke-opacity:1" />
      <path
         sodipodi:nodetypes="cccc"
         id="path5800"
         d="M 6.3905686,11.563494 C 5.7233801,13.404482 4.2613283,15.112332 3.5281264,16.888968 C 3.0229853,16.84198 2.5846738,16.949789 2.4630317,16.888968 C 3.7704415,15.069034 4.9192963,13.272788 6.3905686,11.563494 z"
         style="fill:#fdeccf;fill-opacity:1;fill-rule:evenodd;stroke:none;stroke-width:1px;stroke-linecap:butt;stroke-linejoin:miter;stroke-opacity:1" />
      <path
         sodipodi:nodetypes="cccc"
         id="path5802"
         d="M 2.5296001,16.955537 C 3.3250332,17.465304 4.6351989,17.554984 5.3254738,18.752884 C 5.3919679,17.695035 5.7850794,16.994527 5.9911581,15.95701 C 5.1300873,17.018843 3.9550337,17.07965 2.5296001,16.955537 z"
         style="fill:#a16809;fill-opacity:1;fill-rule:evenodd;stroke:none;stroke-width:1px;stroke-linecap:butt;stroke-linejoin:miter;stroke-opacity:1;filter:url(#filter5804)" />
      <path
         sodipodi:nodetypes="ccccc"
         id="path5808"
         d="M 6.6568423,9.7661468 C 8.5529663,9.7800272 9.9614588,11.439105 12.182022,12.162609 C 11.347681,13.180549 9.7793672,11.205081 6.4571371,15.158189 C 6.2264519,13.812386 6.6304553,12.894197 7.721937,11.630063 C 6.677426,11.111891 6.7143066,11.075882 6.6568423,9.7661468 z"
         style="fill:#9c6508;fill-opacity:1;fill-rule:evenodd;stroke:none;stroke-width:1px;stroke-linecap:butt;stroke-linejoin:miter;stroke-opacity:1;filter:url(#filter5859)" />
      <rect
         y="27.5732"
         x="12.814422"
         height="2.196758"
         width="10.451242"
         id="rect5826"
         style="opacity:1;fill:url(#linearGradient5924);fill-opacity:1;fill-rule:nonzero;stroke:#002889;stroke-width:0.5;stroke-linecap:square;stroke-linejoin:bevel;stroke-miterlimit:4;stroke-dasharray:none;stroke-dashoffset:0;stroke-opacity:1" />
    </g>
  </g>
</svg>
