<?xml version="1.0" encoding="UTF-8" standalone="no"?>
<!-- Generator: Adobe Illustrator 14.0.0, SVG Export Plug-In . SVG Version: 6.00 Build 43363)  -->

<svg
   xmlns:dc="http://purl.org/dc/elements/1.1/"
   xmlns:cc="http://creativecommons.org/ns#"
   xmlns:rdf="http://www.w3.org/1999/02/22-rdf-syntax-ns#"
   xmlns:svg="http://www.w3.org/2000/svg"
   xmlns="http://www.w3.org/2000/svg"
   xmlns:sodipodi="http://sodipodi.sourceforge.net/DTD/sodipodi-0.dtd"
   xmlns:inkscape="http://www.inkscape.org/namespaces/inkscape"
   version="1.1"
   id="Layer_1"
   x="0px"
   y="0px"
   width="32px"
   height="32px"
   viewBox="0 0 32 32"
   enable-background="new 0 0 32 32"
   xml:space="preserve"
   inkscape:version="0.47pre4 "
   sodipodi:docname="export.svg"><metadata
   id="metadata9357"><rdf:RDF><cc:Work
       rdf:about=""><dc:format>image/svg+xml</dc:format><dc:type
         rdf:resource="http://purl.org/dc/dcmitype/StillImage" /></cc:Work></rdf:RDF></metadata><defs
   id="defs9355"><inkscape:perspective
     sodipodi:type="inkscape:persp3d"
     inkscape:vp_x="0 : 16 : 1"
     inkscape:vp_y="0 : 1000 : 0"
     inkscape:vp_z="32 : 16 : 1"
     inkscape:persp3d-origin="16 : 10.666667 : 1"
     id="perspective9359" /></defs><sodipodi:namedview
   pagecolor="#ffffff"
   bordercolor="#666666"
   borderopacity="1"
   objecttolerance="10"
   gridtolerance="10"
   guidetolerance="10"
   inkscape:pageopacity="0"
   inkscape:pageshadow="2"
   inkscape:window-width="1280"
   inkscape:window-height="968"
   id="namedview9353"
   showgrid="false"
   inkscape:zoom="21.404785"
   inkscape:cx="8.5250359"
   inkscape:cy="16"
   inkscape:window-x="-4"
   inkscape:window-y="-4"
   inkscape:window-maximized="1"
   inkscape:current-layer="Layer_1" />
<path
   fill="#010101"
   d="M20.104,16.668c-0.553,0-1-0.447-1-1V1c0-0.553,0.447-1,1-1h7.426c0.266,0,0.52,0.104,0.707,0.293  l3.447,3.448c0.188,0.188,0.293,0.441,0.293,0.706v11.221c0,0.553-0.447,1-1,1H20.104z"
   id="path9169" />
<polygon
   fill="#FBCD36"
   points="27.553,1 20.129,1 20.129,15.668 31,15.668 31,4.447 "
   id="polygon9171" />
<polygon
   fill="#FFFFFF"
   points="30.007,3.978 30.007,14.591 21.076,14.591 21.076,1.993 28.022,1.993 28.972,3.071 "
   id="polygon9173" />
<path
   fill="#010101"
   d="M27.553,5.447c-0.553,0-1-0.447-1-1V1c0-0.404,0.243-0.77,0.617-0.924C27.293,0.024,27.424,0,27.553,0  c0.261,0,0.517,0.102,0.707,0.293l3.447,3.448c0.286,0.285,0.372,0.716,0.217,1.09C31.771,5.205,31.403,5.447,31,5.447H27.553z"
   id="path9175" />
<polygon
   fill="#FBCD36"
   points="27.553,4.447 31,4.447 27.553,1 "
   id="polygon9177" />
<path
   fill="#010101"
   d="M11.865,12.865c-0.146,0-0.295-0.032-0.432-0.099c-0.342-0.164-0.561-0.504-0.568-0.883l-0.047-2.463  C10.326,9.39,9.9,9.376,9.496,9.376c-3.021,0-4.822,0.885-5.832,2.87c-0.172,0.339-0.52,0.546-0.891,0.546  c-0.057,0-0.113-0.005-0.17-0.015c-0.432-0.074-0.766-0.421-0.822-0.854c-0.014-0.105-0.316-2.599,1.553-4.812  c1.547-1.834,4.064-2.902,7.488-3.183l0.043-1.951c0.01-0.377,0.229-0.718,0.57-0.88C11.572,1.033,11.719,1,11.865,1  c0.219,0,0.434,0.071,0.611,0.208l6.383,4.933c0.246,0.189,0.389,0.481,0.389,0.791c0,0.311-0.143,0.603-0.389,0.792l-6.383,4.933  C12.297,12.794,12.082,12.865,11.865,12.865L11.865,12.865z"
   id="path9179" />
<linearGradient
   id="path7827_1_"
   gradientUnits="userSpaceOnUse"
   x1="499.8057"
   y1="-1773.5713"
   x2="523.6377"
   y2="-1773.5713"
   gradientTransform="matrix(-0.6552 0 0 -0.6552 345.7478 -1155.1125)">
	<stop
   offset="0"
   style="stop-color:#24A64A"
   id="stop9182" />
	<stop
   offset="0.5"
   style="stop-color:#B3D78C"
   id="stop9184" />
	<stop
   offset="1"
   style="stop-color:#216634"
   id="stop9186" />
</linearGradient>
<path
   id="path7827_6_"
   opacity="0.98"
   fill="url(#path7827_1_)"
   enable-background="new    "
   d="M11.832,2l-0.064,2.872  c-9.887,0.381-9.027,6.92-9.027,6.92C4.572,8.19,8.373,8.2,11.768,8.491l0.063,3.373l6.383-4.933L11.832,2z" />
<path
   id="path4454_3_"
   opacity="0.98"
   fill="#06A14B"
   enable-background="new    "
   d="M12.506,10.454l-0.049-2.607l-0.631-0.053  c-0.955-0.084-1.686-0.119-2.367-0.119c-1.652,0-3.799,0.199-5.52,1.543c0.164-0.332,0.379-0.674,0.662-1.01  c1.363-1.615,3.783-2.502,7.191-2.635l0.66-0.025L12.5,3.406l4.564,3.525L12.506,10.454z" />
<path
   fill="#010101"
   d="M7.47,32C3.752,32,0,31.049,0,28.924v-3.422c0-0.162,0.024-0.367,0.108-0.594  C0.024,24.682,0,24.477,0,24.314v-3.424c0-0.176,0.028-0.396,0.125-0.639C0.028,20.012,0,19.791,0,19.613v-3.422  c0.004-2.125,3.754-3.074,7.47-3.074c3.717,0,7.467,0.949,7.471,3.072v3.424c0,0.178-0.029,0.396-0.125,0.639  c0.096,0.242,0.125,0.463,0.125,0.639v3.424c0,0.162-0.024,0.367-0.109,0.592c0.085,0.227,0.109,0.432,0.109,0.596v3.422  C14.94,31.049,11.188,32,7.47,32L7.47,32z"
   id="path9190" />
<linearGradient
   id="path8001_1_"
   gradientUnits="userSpaceOnUse"
   x1="1270.1406"
   y1="-1860.6104"
   x2="1286.1616"
   y2="-1860.6104"
   gradientTransform="matrix(0.6524 0 0 -0.6524 -827.624 -1185.6875)">
	<stop
   offset="0"
   style="stop-color:#BFDDED"
   id="stop9193" />
	<stop
   offset="0.0164"
   style="stop-color:#B7D3E3"
   id="stop9195" />
	<stop
   offset="0.043"
   style="stop-color:#A3BCC9"
   id="stop9197" />
	<stop
   offset="0.0667"
   style="stop-color:#8CA2B0"
   id="stop9199" />
	<stop
   offset="0.5455"
   style="stop-color:#BFDDED"
   id="stop9201" />
	<stop
   offset="0.5614"
   style="stop-color:#C3DDED"
   id="stop9203" />
	<stop
   offset="0.6708"
   style="stop-color:#DAEBF4"
   id="stop9205" />
	<stop
   offset="0.7715"
   style="stop-color:#ECF7FA"
   id="stop9207" />
	<stop
   offset="0.8545"
   style="stop-color:#F1F9FB"
   id="stop9209" />
	<stop
   offset="0.8593"
   style="stop-color:#EFF8FB"
   id="stop9211" />
	<stop
   offset="0.8965"
   style="stop-color:#E8F6F9"
   id="stop9213" />
	<stop
   offset="1"
   style="stop-color:#E7F5F9"
   id="stop9215" />
</linearGradient>
<path
   id="path8001_3_"
   fill="url(#path8001_1_)"
   d="M13.94,28.85v-3.424c0,1.146-2.897,2.076-6.471,2.076  c-3.572,0-6.47-0.93-6.47-2.076v3.424c0,1.146,2.896,2.074,6.47,2.074C11.043,30.924,13.94,29.996,13.94,28.85z" />
<ellipse
   id="ellipse8003_3_"
   cx="7.47"
   cy="25.426"
   ry="2.076"
   rx="6.471"
   fill="#BFDDED">
</ellipse>
<ellipse
   id="ellipse8010_3_"
   cx="7.47"
   cy="25.21"
   ry="1.956"
   rx="6.13"
   fill="#010101">
</ellipse>
<linearGradient
   id="path8044_1_"
   gradientUnits="userSpaceOnUse"
   x1="1289.8535"
   y1="-1858.0811"
   x2="1273.6472"
   y2="-1858.0811"
   gradientTransform="matrix(0.6524 0 0 -0.6524 -827.624 -1185.6875)">
	<stop
   offset="0"
   style="stop-color:#BFDDED"
   id="stop9221" />
	<stop
   offset="0.0164"
   style="stop-color:#B7D3E3"
   id="stop9223" />
	<stop
   offset="0.043"
   style="stop-color:#A3BCC9"
   id="stop9225" />
	<stop
   offset="0.0667"
   style="stop-color:#8CA2B0"
   id="stop9227" />
	<stop
   offset="0.5455"
   style="stop-color:#BFDDED"
   id="stop9229" />
	<stop
   offset="0.5614"
   style="stop-color:#C3DDED"
   id="stop9231" />
	<stop
   offset="0.6708"
   style="stop-color:#DAEBF4"
   id="stop9233" />
	<stop
   offset="0.7715"
   style="stop-color:#ECF7FA"
   id="stop9235" />
	<stop
   offset="0.8545"
   style="stop-color:#F1F9FB"
   id="stop9237" />
	<stop
   offset="0.8593"
   style="stop-color:#EFF8FB"
   id="stop9239" />
	<stop
   offset="0.8965"
   style="stop-color:#E8F6F9"
   id="stop9241" />
	<stop
   offset="1"
   style="stop-color:#E7F5F9"
   id="stop9243" />
</linearGradient>
<path
   id="path8044_3_"
   fill="url(#path8044_1_)"
   d="M7.47,27.377c-3.443,0-6.258-0.863-6.457-1.951C1.004,25.467,1,25.508,1,25.551  c0,1.145,2.896,2.074,6.47,2.074c3.572,0,6.471-0.93,6.471-2.074c0-0.043-0.007-0.084-0.013-0.125  C13.727,26.514,10.913,27.377,7.47,27.377z" />
<linearGradient
   id="path8087_1_"
   gradientUnits="userSpaceOnUse"
   x1="1270.1406"
   y1="-1853.5449"
   x2="1286.1616"
   y2="-1853.5449"
   gradientTransform="matrix(0.6524 0 0 -0.6524 -827.624 -1185.6875)">
	<stop
   offset="0"
   style="stop-color:#BFDDED"
   id="stop9247" />
	<stop
   offset="0.0164"
   style="stop-color:#B7D3E3"
   id="stop9249" />
	<stop
   offset="0.043"
   style="stop-color:#A3BCC9"
   id="stop9251" />
	<stop
   offset="0.0667"
   style="stop-color:#8CA2B0"
   id="stop9253" />
	<stop
   offset="0.5455"
   style="stop-color:#BFDDED"
   id="stop9255" />
	<stop
   offset="0.5614"
   style="stop-color:#C3DDED"
   id="stop9257" />
	<stop
   offset="0.6708"
   style="stop-color:#DAEBF4"
   id="stop9259" />
	<stop
   offset="0.7715"
   style="stop-color:#ECF7FA"
   id="stop9261" />
	<stop
   offset="0.8545"
   style="stop-color:#F1F9FB"
   id="stop9263" />
	<stop
   offset="0.8593"
   style="stop-color:#EFF8FB"
   id="stop9265" />
	<stop
   offset="0.8965"
   style="stop-color:#E8F6F9"
   id="stop9267" />
	<stop
   offset="1"
   style="stop-color:#E7F5F9"
   id="stop9269" />
</linearGradient>
<path
   id="path8087_3_"
   fill="url(#path8087_1_)"
   d="M13.94,24.238v-3.422c0,1.146-2.897,2.074-6.471,2.074  c-3.572,0-6.47-0.928-6.47-2.074v3.422c0,1.146,2.896,2.076,6.47,2.076C11.043,26.313,13.94,25.385,13.94,24.238z" />
<ellipse
   id="ellipse8089_3_"
   cx="7.47"
   cy="20.815"
   ry="2.075"
   rx="6.471"
   fill="#BFDDED">
</ellipse>
<ellipse
   id="ellipse8096_3_"
   cx="7.47"
   cy="20.603"
   ry="1.956"
   rx="6.13"
   fill="#010101">
</ellipse>
<linearGradient
   id="path8130_1_"
   gradientUnits="userSpaceOnUse"
   x1="1289.8486"
   y1="-1851.0142"
   x2="1273.6422"
   y2="-1851.0142"
   gradientTransform="matrix(0.6524 0 0 -0.6524 -827.624 -1185.6875)">
	<stop
   offset="0"
   style="stop-color:#BFDDED"
   id="stop9275" />
	<stop
   offset="0.0164"
   style="stop-color:#B7D3E3"
   id="stop9277" />
	<stop
   offset="0.043"
   style="stop-color:#A3BCC9"
   id="stop9279" />
	<stop
   offset="0.0667"
   style="stop-color:#8CA2B0"
   id="stop9281" />
	<stop
   offset="0.5455"
   style="stop-color:#BFDDED"
   id="stop9283" />
	<stop
   offset="0.5614"
   style="stop-color:#C3DDED"
   id="stop9285" />
	<stop
   offset="0.6708"
   style="stop-color:#DAEBF4"
   id="stop9287" />
	<stop
   offset="0.7715"
   style="stop-color:#ECF7FA"
   id="stop9289" />
	<stop
   offset="0.8545"
   style="stop-color:#F1F9FB"
   id="stop9291" />
	<stop
   offset="0.8593"
   style="stop-color:#EFF8FB"
   id="stop9293" />
	<stop
   offset="0.8965"
   style="stop-color:#E8F6F9"
   id="stop9295" />
	<stop
   offset="1"
   style="stop-color:#E7F5F9"
   id="stop9297" />
</linearGradient>
<path
   id="path8130_3_"
   fill="url(#path8130_1_)"
   d="M7.47,22.768c-3.443,0-6.258-0.863-6.457-1.951C1.004,20.857,1,20.896,1,20.939  c0,1.146,2.896,2.074,6.47,2.074c3.572,0,6.471-0.928,6.471-2.074c0-0.043-0.007-0.084-0.013-0.123  C13.727,21.904,10.913,22.768,7.47,22.768z" />
<linearGradient
   id="path8173_1_"
   gradientUnits="userSpaceOnUse"
   x1="1270.1406"
   y1="-1846.3447"
   x2="1286.1616"
   y2="-1846.3447"
   gradientTransform="matrix(0.6524 0 0 -0.6524 -827.624 -1185.6875)">
	<stop
   offset="0"
   style="stop-color:#BFDDED"
   id="stop9301" />
	<stop
   offset="0.0164"
   style="stop-color:#B7D3E3"
   id="stop9303" />
	<stop
   offset="0.043"
   style="stop-color:#A3BCC9"
   id="stop9305" />
	<stop
   offset="0.0667"
   style="stop-color:#8CA2B0"
   id="stop9307" />
	<stop
   offset="0.5455"
   style="stop-color:#BFDDED"
   id="stop9309" />
	<stop
   offset="0.5614"
   style="stop-color:#C3DDED"
   id="stop9311" />
	<stop
   offset="0.6708"
   style="stop-color:#DAEBF4"
   id="stop9313" />
	<stop
   offset="0.7715"
   style="stop-color:#ECF7FA"
   id="stop9315" />
	<stop
   offset="0.8545"
   style="stop-color:#F1F9FB"
   id="stop9317" />
	<stop
   offset="0.8593"
   style="stop-color:#EFF8FB"
   id="stop9319" />
	<stop
   offset="0.8965"
   style="stop-color:#E8F6F9"
   id="stop9321" />
	<stop
   offset="1"
   style="stop-color:#E7F5F9"
   id="stop9323" />
</linearGradient>
<path
   id="path8173_3_"
   fill="url(#path8173_1_)"
   d="M13.94,19.541v-3.424c0,1.146-2.897,2.076-6.471,2.076  c-3.572,0-6.47-0.93-6.47-2.076v3.424c0,1.146,2.896,2.078,6.47,2.078C11.043,21.619,13.94,20.688,13.94,19.541z" />
<ellipse
   id="ellipse8175_3_"
   cx="7.47"
   cy="16.118"
   ry="2.075"
   rx="6.471"
   fill="#BFDDED">
</ellipse>
<linearGradient
   id="path8202_1_"
   gradientUnits="userSpaceOnUse"
   x1="1289.8535"
   y1="-1843.8691"
   x2="1273.6472"
   y2="-1843.8691"
   gradientTransform="matrix(0.6524 0 0 -0.6524 -827.624 -1185.6875)">
	<stop
   offset="0"
   style="stop-color:#BFDDED"
   id="stop9328" />
	<stop
   offset="0.0164"
   style="stop-color:#B7D3E3"
   id="stop9330" />
	<stop
   offset="0.043"
   style="stop-color:#A3BCC9"
   id="stop9332" />
	<stop
   offset="0.0667"
   style="stop-color:#8CA2B0"
   id="stop9334" />
	<stop
   offset="0.5455"
   style="stop-color:#BFDDED"
   id="stop9336" />
	<stop
   offset="0.5614"
   style="stop-color:#C3DDED"
   id="stop9338" />
	<stop
   offset="0.6708"
   style="stop-color:#DAEBF4"
   id="stop9340" />
	<stop
   offset="0.7715"
   style="stop-color:#ECF7FA"
   id="stop9342" />
	<stop
   offset="0.8545"
   style="stop-color:#F1F9FB"
   id="stop9344" />
	<stop
   offset="0.8593"
   style="stop-color:#EFF8FB"
   id="stop9346" />
	<stop
   offset="0.8965"
   style="stop-color:#E8F6F9"
   id="stop9348" />
	<stop
   offset="1"
   style="stop-color:#E7F5F9"
   id="stop9350" />
</linearGradient>
<path
   id="path8202_3_"
   fill="url(#path8202_1_)"
   d="M7.47,18.105c-3.443,0-6.258-0.861-6.457-1.951C1.004,16.195,1,16.237,1,16.278  c0,1.147,2.896,2.075,6.47,2.075c3.572,0,6.471-0.93,6.471-2.075c0-0.042-0.007-0.084-0.013-0.125  C13.727,17.244,10.913,18.105,7.47,18.105L7.47,18.105z" />
</svg>