<?xml version="1.0" encoding="utf-8"?>
<!-- Generator: Adobe Illustrator 14.0.0, SVG Export Plug-In . SVG Version: 6.00 Build 43363)  -->
<!DOCTYPE svg PUBLIC "-//W3C//DTD SVG 1.1//EN" "http://www.w3.org/Graphics/SVG/1.1/DTD/svg11.dtd">
<svg version="1.1" id="Layer_1" xmlns="http://www.w3.org/2000/svg" xmlns:xlink="http://www.w3.org/1999/xlink" x="0px" y="0px"
	 width="32px" height="32px" viewBox="0 0 32 32" enable-background="new 0 0 32 32" xml:space="preserve">
<g>
	<path id="path4992_2_" fill="#020202" d="M12.248,3.626c-0.033,0.009-0.063,0.019-0.094,0.03c0.004,0-0.098,0.033-0.094,0.031
		c0.002,0-0.129,0.033-0.125,0.031c0.002,0-0.099,0.064-0.095,0.063c0.003,0-0.098,0.064-0.094,0.062
		c0.002,0-0.098,0.065-0.094,0.062c0.002,0-0.098,0.065-0.094,0.063c0.002,0-0.099,0.098-0.095,0.094
		c0.002,0-0.065,0.098-0.063,0.094c0.002,0-0.064,0.098-0.063,0.095c0.002,0-0.063,0.097-0.063,0.094c0,0-0.064,0.129-0.063,0.125
		c0,0-0.032,0.097-0.03,0.095c0,0-0.033,0.128-0.031,0.125c0,0-0.033,0.128-0.031,0.125c0,0,0,0.097,0,0.094c0,0,0,0.061,0,0.094
		c0,0.011,0,0.031,0,0.031v6.094H5.029c0.001,0-0.013,0-0.031,0c-0.019-0.001-0.032,0-0.031,0c0.003,0-0.064,0-0.063,0
		c-0.011,0-0.021,0-0.031,0c0.002,0-0.063,0-0.063,0S4.746,11.16,4.747,11.16c0.002-0.001-0.063,0-0.063,0
		c0.002-0.001-0.064,0.031-0.063,0.03s-0.063,0.001-0.063,0s-0.063,0.03-0.061,0.029s-0.063,0.032-0.063,0.03
		c0.002,0-0.064,0.033-0.063,0.031c0.002,0-0.063,0.032-0.063,0.031c0.002,0-0.033,0.032-0.031,0.031
		c0.002,0-0.064,0.031-0.063,0.031s-0.063,0.033-0.063,0.031c0.002,0-0.033,0.032-0.031,0.03c0.002,0-0.063,0.063-0.063,0.062
		c0.002,0-0.033,0.033-0.031,0.031c0.002,0-0.064,0.033-0.063,0.031c0.002,0-0.032,0.064-0.03,0.063
		c0.002,0-0.033,0.063-0.031,0.063c0.001,0-0.032,0.033-0.031,0.031c0.001,0-0.063,0.064-0.063,0.063
		c0.001,0-0.032,0.063-0.031,0.062c0.001,0-0.032,0.063-0.031,0.062c0.001,0-0.001,0.033,0,0.031c0.001,0-0.031,0.064-0.031,0.063
		c0,0-0.03,0.064-0.03,0.063c0,0,0,0.064,0,0.063c0,0-0.031,0.064-0.031,0.063c0,0,0,0.064,0,0.063l-0.031,0.063v0.063
		c0,0,0,0.064,0,0.063c0,0,0,0.064,0,0.063v7c0,0,0,0.064,0,0.063c0,0,0,0.064,0,0.063v0.064l0.031,0.063c0,0,0,0.064,0,0.063
		c0,0,0.031,0.096,0.031,0.094l0.03,0.064c0,0,0.001,0.063,0,0.063s0.032,0.063,0.031,0.061c-0.001,0,0.032,0.064,0.031,0.063
		c-0.001,0,0.032,0.064,0.031,0.064s0.031,0.031,0.03,0.029c-0.001,0,0.064,0.064,0.063,0.064s0.033,0.063,0.031,0.063
		s0.032,0.063,0.03,0.063s0.064,0.033,0.063,0.031c-0.002,0,0.033,0.064,0.031,0.063c-0.002,0,0.063,0.031,0.063,0.029
		c-0.002,0,0.064,0.033,0.063,0.031c-0.002,0,0.063,0.064,0.063,0.063c-0.002,0,0.033,0.031,0.031,0.031s0.063,0.031,0.063,0.031
		c-0.002-0.002,0.064,0.031,0.063,0.031c-0.002-0.002,0.064,0.031,0.063,0.031c-0.002-0.002,0.064,0,0.064,0
		c-0.003-0.002,0.063,0.031,0.063,0.029c-0.003,0,0.096,0.033,0.094,0.031c-0.002,0,0.063,0,0.063,0
		c-0.003,0,0.064,0.031,0.063,0.029c-0.003,0,0.063,0,0.063,0c-0.003,0,0.064,0,0.063,0c-0.003,0,0.063,0,0.063,0h6.125v6.096v0.029
		c-0.002,0.02,0,0.031,0,0.031v0.064c0,0.01,0,0.02,0,0.029v0.064c-0.002,0,0.031,0.063,0.031,0.063c-0.002,0,0,0.064,0,0.063
		c-0.002,0,0.031,0.064,0.031,0.063c-0.002,0,0,0.064,0,0.064c-0.002,0,0.031,0.063,0.031,0.063c-0.002,0,0.03,0.063,0.03,0.063
		c-0.002,0,0.031,0.064,0.031,0.063c-0.002,0,0.031,0.064,0.031,0.064c-0.002,0,0.031,0.033,0.031,0.031
		c-0.003,0,0.03,0.063,0.03,0.061c-0.002,0,0.031,0.064,0.031,0.063c-0.002,0,0.031,0.033,0.031,0.031
		c-0.002,0,0.063,0.064,0.063,0.063c-0.002,0,0.031,0.033,0.031,0.031c-0.002,0,0.031,0.064,0.031,0.063
		c-0.002,0,0.063,0.033,0.063,0.031c-0.002,0,0.063,0.031,0.063,0.031c-0.002,0,0.031,0.031,0.031,0.031
		c-0.003,0,0.063,0.063,0.063,0.063s0.064,0.031,0.063,0.031c-0.002-0.002,0.063,0.031,0.063,0.031c-0.002-0.002,0.033,0,0.031,0
		c-0.002-0.002,0.063,0.031,0.063,0.029c-0.002,0,0.064,0.033,0.063,0.031c-0.002,0,0.063,0.002,0.063,0
		c-0.002,0,0.064,0.033,0.063,0.031c-0.002,0,0.063,0,0.063,0s0.064,0.031,0.063,0.029c-0.002,0,0.063,0,0.063,0s0.064,0,0.063,0
		s0.063,0,0.063,0h7.001c-0.004,0,0.064,0,0.063,0c-0.004,0,0.064,0,0.063,0c-0.004,0,0.064,0,0.064,0
		c-0.004,0,0.063-0.029,0.063-0.029c-0.004,0,0.064,0,0.063,0c0,0,0.096-0.031,0.094-0.031c-0.002,0.002,0.064-0.031,0.064-0.031
		c-0.002,0.002,0.063,0,0.063,0c-0.002,0.002,0.064-0.031,0.063-0.029c-0.002,0,0.064-0.033,0.063-0.031
		c-0.002,0,0.064-0.033,0.064-0.031c-0.002,0,0.033-0.033,0.031-0.031c-0.004,0,0.063-0.063,0.063-0.063
		c-0.002,0,0.063-0.033,0.063-0.031c-0.002,0,0.063-0.033,0.063-0.031c-0.002,0,0.031-0.063,0.031-0.061
		c-0.002,0,0.063-0.033,0.063-0.031c-0.002,0,0.031-0.064,0.031-0.063c-0.002,0,0.031-0.064,0.031-0.063
		c-0.002,0,0.063-0.064,0.063-0.064c-0.002,0,0.031-0.031,0.031-0.029c-0.002,0,0.031-0.064,0.031-0.064
		c-0.002,0,0.031-0.063,0.031-0.063c-0.002,0,0.031-0.064,0.031-0.063c-0.002,0,0-0.064,0-0.061c-0.002,0,0.031-0.066,0.031-0.064
		c-0.002,0,0.031-0.096,0.031-0.094c-0.002,0,0-0.064,0-0.063c-0.002,0,0.031-0.066,0.031-0.063c-0.004,0,0-0.064,0-0.064
		s0-0.064,0-0.063V27v-6.125h6.111c-0.004,0,0.064,0,0.063,0c-0.004,0,0.064-0.002,0.063,0c-0.004,0,0.064-0.002,0.064,0
		c-0.004,0,0.063-0.033,0.063-0.031c-0.004,0,0.064-0.002,0.063,0c-0.002,0,0.096-0.033,0.094-0.031
		c-0.002,0,0.064-0.033,0.064-0.031c-0.002,0,0.063-0.002,0.063,0c-0.002,0,0.064-0.031,0.063-0.031l0.063-0.029
		c-0.002,0.002,0.064-0.031,0.064-0.031c-0.002,0,0.031-0.033,0.029-0.031c-0.002,0,0.064-0.063,0.064-0.061
		c-0.002,0,0.063-0.033,0.063-0.031c-0.002,0,0.063-0.033,0.063-0.031c-0.002,0,0.031-0.064,0.031-0.063
		c-0.002,0,0.063-0.033,0.063-0.031c-0.002,0,0.031-0.064,0.031-0.064c-0.002,0,0.031-0.063,0.031-0.063
		c-0.002,0,0.063-0.063,0.063-0.063c-0.002,0,0.031-0.033,0.031-0.031c-0.002,0,0.031-0.064,0.031-0.063
		c-0.002,0,0.031-0.063,0.031-0.061c-0.002,0,0.031-0.064,0.031-0.064c-0.002,0,0-0.063,0-0.063c-0.002,0,0.031-0.064,0.031-0.063
		c-0.002,0,0.031-0.096,0.031-0.094c-0.002,0,0-0.064,0-0.064c-0.002,0,0.029-0.063,0.029-0.063c-0.002,0,0-0.064,0-0.064
		s0-0.063,0-0.061v-0.064v-7c0,0,0-0.064,0-0.062c0,0,0-0.065,0-0.063c0,0-0.002-0.064,0-0.062c0,0-0.031-0.065-0.029-0.063
		c0,0-0.002-0.064,0-0.062c0,0-0.033-0.097-0.031-0.095c0,0-0.033-0.064-0.031-0.062c0,0-0.002-0.063,0-0.062
		c0,0-0.033-0.064-0.031-0.063c0,0-0.033-0.064-0.031-0.063c0,0-0.033-0.063-0.031-0.062c0,0-0.033-0.032-0.031-0.03l-0.063-0.063
		c0,0-0.033-0.064-0.031-0.063c0,0-0.033-0.064-0.031-0.063c0,0-0.063-0.033-0.063-0.031c0,0-0.033-0.064-0.031-0.063
		c0,0-0.064-0.032-0.063-0.03c0,0-0.064-0.033-0.063-0.031c0.002,0-0.064-0.063-0.064-0.062c0.002,0-0.031-0.032-0.029-0.031
		c0.002,0-0.064-0.032-0.064-0.031c0.002,0.001-0.063-0.031-0.063-0.031c0.002,0-0.064-0.031-0.063-0.031
		c0.002,0.002-0.064,0-0.063,0c0.002,0.002-0.064-0.031-0.064-0.03c0.002,0.001-0.096-0.032-0.094-0.031s-0.064,0-0.063,0
		c0.002,0.001-0.064-0.032-0.063-0.03c0.002,0-0.064-0.001-0.064,0c0.002,0-0.064,0-0.063,0s-0.066,0-0.063,0h-6.125V5.002
		c0,0,0-0.065,0-0.063c0,0,0-0.064,0-0.063c0,0-0.002-0.065,0-0.063c0,0-0.033-0.064-0.031-0.063c0,0-0.002-0.065,0-0.063
		c0,0-0.033-0.096-0.031-0.094c0,0-0.033-0.065-0.031-0.063c0,0-0.002-0.064,0-0.063c0,0-0.033-0.063-0.031-0.062
		c0,0-0.033-0.063-0.029-0.062c0,0-0.033-0.064-0.031-0.063c0,0-0.033-0.033-0.031-0.031c0,0-0.064-0.063-0.063-0.062
		c0,0-0.033-0.063-0.031-0.063c0,0-0.033-0.063-0.031-0.062c0,0-0.064-0.033-0.063-0.031c0,0-0.033-0.063-0.031-0.062
		c0,0-0.064-0.033-0.064-0.031c0,0-0.063-0.033-0.063-0.031c0.002,0-0.064-0.064-0.063-0.063c0.002,0-0.033-0.031-0.031-0.03
		c0.002,0-0.064-0.032-0.063-0.031c0,0.001-0.064-0.032-0.064-0.03c0.004,0-0.063-0.033-0.063-0.031c0.002,0-0.064-0.001-0.063,0
		c0.002,0-0.064-0.032-0.063-0.031c0.002,0-0.096-0.032-0.094-0.031c0.002,0-0.064,0-0.064,0c0.002,0-0.061-0.027-0.059-0.027
		s-0.066,0-0.063,0c0.002,0-0.066,0-0.063,0c0.002,0-0.066,0-0.064,0H12.56c0.002,0-0.066,0-0.063,0c0.002,0-0.065,0-0.063,0
		c0,0-0.015,0-0.031,0c0,0-0.021,0-0.031,0c0.002,0-0.065,0-0.063,0c-0.021,0-0.043,0-0.063,0V3.626H12.248z"/>
	<path id="rect4855-4_2_" fill="#6DBE46" d="M12.511,4.999v7.5H5.012v7h7.499v7.5h7v-7.5h7.5v-7h-7.5v-7.5H12.511z"/>
	
		<linearGradient id="path4903-3_1_" gradientUnits="userSpaceOnUse" x1="-1169.5508" y1="1340.8711" x2="-1149.3013" y2="1340.8711" gradientTransform="matrix(0 -1 1 0 -1324.8594 -1143.4277)">
		<stop  offset="0" style="stop-color:#B2D78E"/>
		<stop  offset="1" style="stop-color:#219146"/>
	</linearGradient>
	<path id="path4903-3_2_" fill="url(#path4903-3_1_)" d="M13.386,5.874v7.5H5.887v5.25h7.499v7.5h5.25v-7.5h7.5v-5.25h-7.5v-7.5
		H13.386z"/>
</g>
</svg>
