<?xml version="1.0" encoding="utf-8"?>
<!-- Generator: Adobe Illustrator 14.0.0, SVG Export Plug-In . SVG Version: 6.00 Build 43363)  -->
<!DOCTYPE svg PUBLIC "-//W3C//DTD SVG 1.1//EN" "http://www.w3.org/Graphics/SVG/1.1/DTD/svg11.dtd">
<svg version="1.1" id="Layer_1" xmlns="http://www.w3.org/2000/svg" xmlns:xlink="http://www.w3.org/1999/xlink" x="0px" y="0px"
	 width="32px" height="32px" viewBox="0 0 32 32" enable-background="new 0 0 32 32" xml:space="preserve">
<g>
	<path fill="#231F20" d="M16.141,31.331c-4.007,0-7.773-1.561-10.607-4.395c-2.832-2.832-4.393-6.6-4.393-10.605
		c0-4.007,1.561-7.773,4.393-10.607c2.834-2.833,6.601-4.393,10.606-4.393c4.008,0,7.774,1.56,10.608,4.393
		c2.831,2.834,4.392,6.601,4.392,10.607c0,4.006-1.561,7.773-4.392,10.605C23.914,29.771,20.148,31.331,16.141,31.331L16.141,31.331
		z M8.019,12.452c-1.616,3.391-0.957,7.527,1.758,10.242c1.696,1.697,3.957,2.631,6.363,2.631c1.356,0,2.678-0.299,3.879-0.873
		L8.019,12.452z M24.262,20.21c1.617-3.391,0.957-7.529-1.756-10.244c-1.697-1.695-3.957-2.631-6.364-2.631
		c-1.356,0-2.678,0.3-3.881,0.874L24.262,20.21z"/>
	<path fill="#ED2526" d="M6.241,6.431c-5.467,5.468-5.467,14.332,0,19.799c5.468,5.469,14.333,5.469,19.8,0
		c5.466-5.467,5.466-14.33,0-19.799C20.574,0.964,11.708,0.964,6.241,6.431z M9.07,23.401c-3.415-3.414-3.839-8.704-1.272-12.585
		l13.859,13.856C17.775,27.239,12.484,26.815,9.07,23.401z M24.484,21.845L10.626,7.987c3.881-2.566,9.17-2.143,12.586,1.271
		C26.627,12.675,27.05,17.964,24.484,21.845z"/>
	<linearGradient id="SVGID_1_" gradientUnits="userSpaceOnUse" x1="3.1411" y1="16.3311" x2="29.1396" y2="16.3311">
		<stop  offset="0" style="stop-color:#F59699"/>
		<stop  offset="1" style="stop-color:#8F1A1D"/>
	</linearGradient>
	<path fill="url(#SVGID_1_)" d="M16.141,29.331c-3.473,0-6.737-1.354-9.193-3.809c-2.455-2.455-3.807-5.719-3.807-9.191
		s1.352-6.737,3.807-9.193c2.456-2.455,5.721-3.807,9.192-3.807c3.473,0,6.739,1.352,9.194,3.807
		c2.454,2.456,3.806,5.721,3.806,9.193c0,3.471-1.352,6.736-3.806,9.191C22.879,27.978,19.613,29.331,16.141,29.331L16.141,29.331z
		 M7.698,9.821c-0.299,0.03-0.568,0.193-0.734,0.443c-2.87,4.341-2.281,10.162,1.398,13.844c2.075,2.074,4.837,3.217,7.778,3.217
		c2.17,0,4.268-0.629,6.067-1.818c0.25-0.164,0.414-0.434,0.443-0.732c0.031-0.299-0.076-0.596-0.287-0.809L8.505,10.109
		C8.317,9.921,8.061,9.816,7.797,9.816C7.797,9.816,7.731,9.817,7.698,9.821z M16.142,5.335c-2.171,0-4.27,0.629-6.067,1.818
		C9.824,7.319,9.662,7.589,9.631,7.888s0.075,0.595,0.288,0.807l13.858,13.857c0.188,0.189,0.443,0.293,0.707,0.293
		c0.033,0,0.066-0.002,0.1-0.004c0.299-0.031,0.568-0.193,0.734-0.443c2.868-4.342,2.28-10.164-1.398-13.846
		C21.846,6.478,19.082,5.335,16.142,5.335L16.142,5.335z"/>
</g>
<g>
	<path fill="#010101" d="M24.529,31.982c-0.158,0-0.318-0.035-0.469-0.109l-7.117-3.586l-3.933,0.002
		c-0.276,0-0.541-0.109-0.736-0.305c-0.194-0.195-0.305-0.459-0.305-0.734v-7.066c0-0.574,0.466-1.039,1.041-1.039h3.933
		l7.119-3.583c0.146-0.074,0.31-0.111,0.467-0.111c0.191,0,0.381,0.052,0.548,0.155c0.308,0.189,0.493,0.525,0.493,0.886
		l0.003,1.715h4.696c0.576,0,1.041,0.465,1.041,1.041v1.256c0,0.574-0.465,1.041-1.041,1.041h-4.696l-0.003,4.291h4.699
		c0.576,0,1.041,0.467,1.041,1.041v1.313c0,0.574-0.465,1.041-1.041,1.041h-4.696l-0.003,1.713c0,0.361-0.188,0.697-0.493,0.888
		C24.91,31.932,24.721,31.982,24.529,31.982L24.529,31.982z"/>
	<polygon fill="#03ADDB" points="13.012,20.184 17.189,20.184 24.529,16.49 24.532,19.246 30.271,19.246 30.271,20.502 
		24.532,20.502 24.529,26.875 30.271,26.875 30.271,28.188 24.532,28.188 24.529,30.941 17.189,27.248 13.012,27.25 	"/>
	
		<linearGradient id="SVGID_2_" gradientUnits="userSpaceOnUse" x1="586.627" y1="833.3955" x2="577.1875" y2="833.3955" gradientTransform="matrix(1 0 0 1 -563.0801 -809.6797)">
		<stop  offset="0" style="stop-color:#B2D3DC"/>
		<stop  offset="1" style="stop-color:#117C9F"/>
	</linearGradient>
	<polygon fill="url(#SVGID_2_)" points="17.438,26.207 14.052,26.209 14.052,21.225 17.438,21.225 23.491,18.178 23.491,29.254 	"/>
</g>
</svg>
