<?xml version="1.0" encoding="utf-8"?>
<!-- Generator: Adobe Illustrator 15.0.0, SVG Export Plug-In . SVG Version: 6.00 Build 0)  -->
<!DOCTYPE svg PUBLIC "-//W3C//DTD SVG 1.1//EN" "http://www.w3.org/Graphics/SVG/1.1/DTD/svg11.dtd">
<svg version="1.1" id="Layer_1" xmlns="http://www.w3.org/2000/svg" xmlns:xlink="http://www.w3.org/1999/xlink" x="0px" y="0px"
	 width="32px" height="32px" viewBox="0 0 32 32" enable-background="new 0 0 32 32" xml:space="preserve">
<g>
	<g>
		
			<linearGradient id="rect5693_2_" gradientUnits="userSpaceOnUse" x1="587.0732" y1="-1007.9063" x2="565.2665" y2="-1007.9063" gradientTransform="matrix(1 0 0 -1.618 -561.1533 -1616.9979)">
			<stop  offset="0" style="stop-color:#010202;stop-opacity:0.35"/>
			<stop  offset="0.1791" style="stop-color:#060707;stop-opacity:0.2873"/>
			<stop  offset="0.3265" style="stop-color:#0F120F;stop-opacity:0.2357"/>
			<stop  offset="0.4627" style="stop-color:#192218;stop-opacity:0.1881"/>
			<stop  offset="0.5921" style="stop-color:#26381E;stop-opacity:0.1428"/>
			<stop  offset="0.7168" style="stop-color:#34562A;stop-opacity:0.0991"/>
			<stop  offset="0.8379" style="stop-color:#497E3B;stop-opacity:0.0567"/>
			<stop  offset="0.954" style="stop-color:#61A945;stop-opacity:0.0161"/>
			<stop  offset="1" style="stop-color:#72B848;stop-opacity:0"/>
		</linearGradient>
		<polygon id="rect5693_1_" fill="url(#rect5693_2_)" points="0,6.494 24,6.494 13.032,21.099 0,21.099 		"/>
		
			<linearGradient id="rect5679_3_" gradientUnits="userSpaceOnUse" x1="584.6191" y1="-1478.9595" x2="565.0467" y2="-1479.2119" gradientTransform="matrix(1 0 0 -1 -560.7402 -1464.6396)">
			<stop  offset="0" style="stop-color:#010202;stop-opacity:0.35"/>
			<stop  offset="0.1791" style="stop-color:#060707;stop-opacity:0.2873"/>
			<stop  offset="0.3265" style="stop-color:#0F120F;stop-opacity:0.2357"/>
			<stop  offset="0.4627" style="stop-color:#192218;stop-opacity:0.1881"/>
			<stop  offset="0.5921" style="stop-color:#26381E;stop-opacity:0.1428"/>
			<stop  offset="0.7168" style="stop-color:#34562A;stop-opacity:0.0991"/>
			<stop  offset="0.8379" style="stop-color:#497E3B;stop-opacity:0.0567"/>
			<stop  offset="0.954" style="stop-color:#61A945;stop-opacity:0.0161"/>
			<stop  offset="1" style="stop-color:#72B848;stop-opacity:0"/>
		</linearGradient>
		<polygon id="rect5679_2_" fill="url(#rect5679_3_)" points="0,9.997 22.125,9.997 18.275,19.022 0,19.022 		"/>
		
			<linearGradient id="rect5689_3_" gradientUnits="userSpaceOnUse" x1="279.2002" y1="542.791" x2="295.9082" y2="542.791" gradientTransform="matrix(1 0 0 1 -279.2002 -525.7998)">
			<stop  offset="0" style="stop-color:#72B848;stop-opacity:0"/>
			<stop  offset="0.046" style="stop-color:#61A945;stop-opacity:0.0161"/>
			<stop  offset="0.1621" style="stop-color:#497E3B;stop-opacity:0.0567"/>
			<stop  offset="0.2832" style="stop-color:#34562A;stop-opacity:0.0991"/>
			<stop  offset="0.4079" style="stop-color:#26381E;stop-opacity:0.1428"/>
			<stop  offset="0.5373" style="stop-color:#192218;stop-opacity:0.1881"/>
			<stop  offset="0.6735" style="stop-color:#0F120F;stop-opacity:0.2357"/>
			<stop  offset="0.8209" style="stop-color:#060707;stop-opacity:0.2873"/>
			<stop  offset="1" style="stop-color:#010202;stop-opacity:0.35"/>
		</linearGradient>
		<polygon id="rect5689_1_" fill="url(#rect5689_3_)" points="0,12.479 16.708,12.479 8.583,21.504 0,21.504 		"/>
		
			<linearGradient id="rect5679_4_" gradientUnits="userSpaceOnUse" x1="588.9688" y1="-1470.6094" x2="565.839" y2="-1470.9077" gradientTransform="matrix(1 0 0 -1 -560.7402 -1464.6396)">
			<stop  offset="0" style="stop-color:#010202;stop-opacity:0.35"/>
			<stop  offset="0.1791" style="stop-color:#060707;stop-opacity:0.2873"/>
			<stop  offset="0.3265" style="stop-color:#0F120F;stop-opacity:0.2357"/>
			<stop  offset="0.4627" style="stop-color:#192218;stop-opacity:0.1881"/>
			<stop  offset="0.5921" style="stop-color:#26381E;stop-opacity:0.1428"/>
			<stop  offset="0.7168" style="stop-color:#34562A;stop-opacity:0.0991"/>
			<stop  offset="0.8379" style="stop-color:#497E3B;stop-opacity:0.0567"/>
			<stop  offset="0.954" style="stop-color:#61A945;stop-opacity:0.0161"/>
			<stop  offset="1" style="stop-color:#72B848;stop-opacity:0"/>
		</linearGradient>
		<polygon id="rect5679_1_" fill="url(#rect5679_4_)" points="0,1.677 26.167,1.677 22.316,10.703 0,10.703 		"/>
		
			<linearGradient id="rect5689_4_" gradientUnits="userSpaceOnUse" x1="279.2002" y1="547.3037" x2="295.9082" y2="547.3037" gradientTransform="matrix(1 0 0 1 -279.2002 -525.7998)">
			<stop  offset="0" style="stop-color:#72B848;stop-opacity:0"/>
			<stop  offset="0.046" style="stop-color:#61A945;stop-opacity:0.0161"/>
			<stop  offset="0.1621" style="stop-color:#497E3B;stop-opacity:0.0567"/>
			<stop  offset="0.2832" style="stop-color:#34562A;stop-opacity:0.0991"/>
			<stop  offset="0.4079" style="stop-color:#26381E;stop-opacity:0.1428"/>
			<stop  offset="0.5373" style="stop-color:#192218;stop-opacity:0.1881"/>
			<stop  offset="0.6735" style="stop-color:#0F120F;stop-opacity:0.2357"/>
			<stop  offset="0.8209" style="stop-color:#060707;stop-opacity:0.2873"/>
			<stop  offset="1" style="stop-color:#010202;stop-opacity:0.35"/>
		</linearGradient>
		<polygon id="rect5689_2_" fill="url(#rect5689_4_)" points="0,16.991 16.708,16.991 8.583,26.017 0,26.017 		"/>
		<g>
			<path fill="#13110C" d="M31.573,6.142c-0.041-0.098-0.101-0.188-0.177-0.265l-4.774-4.775c-0.152-0.152-0.358-0.238-0.574-0.238
				s-0.422,0.086-0.574,0.238L9.104,17.471c-0.006,0.007-0.01,0.018-0.017,0.025c-0.061,0.065-0.117,0.139-0.153,0.223l-2.742,6.255
				c-0.003,0.012-0.003,0.021-0.008,0.032c-0.005,0.013-0.014,0.025-0.019,0.038l-0.491,1.479c-0.097,0.291-0.021,0.614,0.198,0.831
				l0.237,0.236c0.154,0.154,0.362,0.238,0.574,0.238c0.086,0,0.171-0.015,0.254-0.041l1.481-0.489
				c0.014-0.005,0.026-0.015,0.04-0.019c0.01-0.004,0.018-0.002,0.027-0.007l6.29-2.707c0.086-0.038,0.16-0.094,0.228-0.156
				c0.007-0.006,0.018-0.009,0.025-0.017L31.396,7.026c0.076-0.077,0.136-0.168,0.177-0.267C31.653,6.563,31.653,6.339,31.573,6.142
				z"/>
			
				<rect x="16.877" y="0.674" transform="matrix(0.707 0.7072 -0.7072 0.707 14.5948 -10.7337)" fill="#75B72F" width="6.751" height="23.148"/>
			
				<linearGradient id="SVGID_1_" gradientUnits="userSpaceOnUse" x1="15.9531" y1="-98.25" x2="19.5019" y2="-101.7987" gradientTransform="matrix(1 0 0 -1 2.46 -87.8398)">
				<stop  offset="0" style="stop-color:#BCD686"/>
				<stop  offset="1" style="stop-color:#198B38"/>
			</linearGradient>
			<polygon fill="url(#SVGID_1_)" points="10.829,18.046 26.048,2.825 29.673,6.451 14.454,21.67 			"/>
			<polygon fill="#F7A800" points="6.936,24.302 8.163,25.528 14.454,22.819 9.678,18.046 			"/>
			
				<linearGradient id="SVGID_2_" gradientUnits="userSpaceOnUse" x1="5.4697" y1="-108.6338" x2="8.8757" y2="-112.0397" gradientTransform="matrix(1 0 0 -1 2.46 -87.8398)">
				<stop  offset="0" style="stop-color:#FFF7E8"/>
				<stop  offset="0.5394" style="stop-color:#F7A800"/>
				<stop  offset="1" style="stop-color:#A9661B"/>
			</linearGradient>
			<polygon fill="url(#SVGID_2_)" points="7.903,24.119 9.947,19.461 13.032,22.548 8.349,24.563 			"/>
			<polygon fill="#2B2523" points="6.936,24.302 8.163,25.528 6.683,26.017 6.446,25.779 			"/>
			
				<rect x="23.829" y="3.554" transform="matrix(0.7071 0.7071 -0.7071 0.7071 11.7119 -17.6858)" fill="#E41B1A" width="6.751" height="3.482"/>
			
				<linearGradient id="SVGID_3_" gradientUnits="userSpaceOnUse" x1="22.8047" y1="-91.1968" x2="26.5683" y2="-94.9603" gradientTransform="matrix(1 0 0 -1 2.46 -87.8398)">
				<stop  offset="0" style="stop-color:#F39A9F"/>
				<stop  offset="1" style="stop-color:#931B16"/>
			</linearGradient>
			<polygon fill="url(#SVGID_3_)" points="24.734,4.141 26.048,2.827 29.673,6.451 28.358,7.764 			"/>
		</g>
	</g>
	<polygon fill="#010202" points="27,22.477 32,22.477 29.5,26.807 27,31.137 24.5,26.807 22,22.477 	"/>
</g>
</svg>
