<?xml version="1.0" encoding="utf-8"?>
<!-- Generator: Adobe Illustrator 14.0.0, SVG Export Plug-In . SVG Version: 6.00 Build 43363)  -->
<!DOCTYPE svg PUBLIC "-//W3C//DTD SVG 1.1//EN" "http://www.w3.org/Graphics/SVG/1.1/DTD/svg11.dtd">
<svg version="1.1"
	 id="svg3488" sodipodi:docname="event.svg" inkscape:version="0.45.1" sodipodi:version="0.32" sodipodi:docbase="C:\Radix\dev\trunk\org.radixware\kernel\designer\src\common.resources\src\org\radixware\kernel\designer\resources\icons\eventlog" inkscape:output_extension="org.inkscape.output.svg.inkscape" xmlns:ns="http://creativecommons.org/ns#" xmlns:dc="http://purl.org/dc/elements/1.1/" xmlns:cc="http://web.resource.org/cc/" xmlns:rdf="http://www.w3.org/1999/02/22-rdf-syntax-ns#" xmlns:svg="http://www.w3.org/2000/svg" xmlns:sodipodi="http://sodipodi.sourceforge.net/DTD/sodipodi-0.dtd" xmlns:inkscape="http://www.inkscape.org/namespaces/inkscape"
	 xmlns="http://www.w3.org/2000/svg" xmlns:xlink="http://www.w3.org/1999/xlink" x="0px" y="0px" width="32px" height="32px"
	 viewBox="0 0 32 32" enable-background="new 0 0 32 32" xml:space="preserve">
<sodipodi:namedview  id="base" pagecolor="#ffffff" bordercolor="#666666" borderopacity="1.0" objecttolerance="10" gridtolerance="10000" showgrid="false" guidetolerance="10" inkscape:zoom="9.6014722" inkscape:cx="3.6842519" inkscape:cy="3.5982562" inkscape:current-layer="g3646" inkscape:pageopacity="0.0" inkscape:pageshadow="2" inkscape:window-width="1280" inkscape:window-height="944" inkscape:window-x="0" inkscape:window-y="44" inkscape:document-units="px">
	</sodipodi:namedview>
<g>
	<g>
		<g>
			<path id="path4993_17_" fill="#020202" d="M7.042,22.289C5.365,22.289,4,20.818,4,19.01V3.281C4,2.422,4.305,1.61,4.857,0.995
				C5.436,0.354,6.21,0,7.045,0h21.916C30.638,0,32,1.47,32,3.281V19.01c0,1.809-1.362,3.279-3.039,3.279H7.042L7.042,22.289z"/>
			<path id="rect26074_17_" fill="#FFFFFF" d="M7.042,0.916h21.916c1.178,0,2.126,1.055,2.126,2.365V19.01
				c0,1.311-0.948,2.363-2.126,2.363H7.042c-1.179,0-2.126-1.053-2.126-2.363V3.281C4.914,1.973,5.863,0.916,7.042,0.916z"/>
			
				<linearGradient id="SVGID_1_" gradientUnits="userSpaceOnUse" x1="872.5205" y1="1922.9961" x2="852.4614" y2="1909.2152" gradientTransform="matrix(1 0 0 1 -842.1602 -1903.3594)">
				<stop  offset="0" style="stop-color:#000000;stop-opacity:0.21"/>
				<stop  offset="1" style="stop-color:#000000;stop-opacity:0"/>
			</linearGradient>
			<path fill="url(#SVGID_1_)" d="M7.042,20.457c-0.668,0-1.21-0.648-1.21-1.445V3.281c0-0.8,0.542-1.449,1.21-1.449h21.916
				c0.668,0,1.21,0.649,1.21,1.449V19.01c0,0.799-0.543,1.447-1.21,1.447H7.042L7.042,20.457z"/>
			
				<linearGradient id="path26098_1_" gradientUnits="userSpaceOnUse" x1="2166.4521" y1="4645.0039" x2="2166.4521" y2="4642.5103" gradientTransform="matrix(1 0 0 1 -2148.4541 -4641.0234)">
				<stop  offset="0" style="stop-color:#B0D68C"/>
				<stop  offset="1" style="stop-color:#1E9046"/>
			</linearGradient>
			<path id="path26098_15_" fill="url(#path26098_1_)" d="M7.054,0.916c-1.177,0-2.147,0.971-2.147,2.148V3.98h26.183V3.064
				c0-1.178-0.971-2.148-2.147-2.148H7.054z"/>
		</g>
	</g>
</g>
<g>
	<g>
		<path d="M4.462,26.025c-0.447,0-0.812-0.357-0.821-0.807c-0.015-1.012-0.179-2.691-0.488-3.264
			c-0.263-0.483-0.609-1.011-0.98-1.568C1.153,18.852,0,17.113,0,15.246C0,11.25,3.251,8,7.246,8c3.997,0,7.246,3.25,7.246,7.246
			c0,1.867-1.153,3.605-2.172,5.141c-0.369,0.559-0.718,1.084-0.981,1.568c-0.308,0.574-0.472,2.255-0.489,3.267
			c-0.009,0.447-0.372,0.804-0.818,0.804H4.462L4.462,26.025z"/>
		<path fill="#6FBD46" d="M7.246,8.82c-3.549,0-6.425,2.877-6.425,6.426c0,2.25,2.056,4.477,3.052,6.318
			c0.546,1.01,0.589,3.642,0.589,3.642h5.57c0,0,0.044-2.634,0.589-3.642c0.994-1.842,3.051-4.068,3.051-6.318
			C13.671,11.695,10.794,8.82,7.246,8.82z"/>
		
			<radialGradient id="SVGID_2_" cx="288.1279" cy="538.0791" r="6.3406" gradientTransform="matrix(1 0 0 1 -279.2598 -525.8594)" gradientUnits="userSpaceOnUse">
			<stop  offset="0" style="stop-color:#FFFFFF"/>
			<stop  offset="1" style="stop-color:#FFFFFF;stop-opacity:0"/>
		</radialGradient>
		<circle fill="url(#SVGID_2_)" cx="7.246" cy="14.885" r="5.47"/>
		
			<linearGradient id="SVGID_3_" gradientUnits="userSpaceOnUse" x1="294.0996" y1="546.7461" x2="284.7447" y2="542.1704" gradientTransform="matrix(1 0 0 1 -279.2598 -525.8594)">
			<stop  offset="0" style="stop-color:#FFFFFF"/>
			<stop  offset="1" style="stop-color:#FFFFFF;stop-opacity:0"/>
		</linearGradient>
		<path fill="url(#SVGID_3_)" d="M5.271,24.387c-0.057-0.943-0.216-2.404-0.652-3.211c-0.297-0.551-0.666-1.105-1.057-1.694
			c-0.891-1.343-1.897-2.863-1.897-4.235c0-3.093,2.515-5.607,5.606-5.607c3.094,0,5.608,2.516,5.608,5.607
			c0,1.371-1.01,2.891-1.897,4.232c-0.393,0.59-0.762,1.146-1.059,1.696c-0.436,0.804-0.595,2.269-0.653,3.211L5.271,24.387
			L5.271,24.387z"/>
		<line fill="none" stroke="#000000" stroke-width="0.8125" x1="6.059" y1="24.75" x2="3.799" y2="14.557"/>
		<line fill="none" stroke="#000000" stroke-width="0.8125" x1="8.216" y1="24.906" x2="10.694" y2="14.557"/>
		<polyline fill="none" stroke="#000000" stroke-width="0.8125" points="3.996,15.249 5.914,15.611 7.271,14.885 8.579,15.611 
			10.545,15.385 		"/>
		<path d="M4.462,30.941c-0.453,0-0.821-0.365-0.821-0.818v-4.917c0-0.452,0.368-0.82,0.821-0.82h5.653
			c0.453,0,0.82,0.368,0.82,0.82v4.917c0,0.451-0.367,0.818-0.82,0.818H4.462z"/>
		<rect x="4.462" y="25.206" fill="#03AAD6" width="5.653" height="4.917"/>
		
			<linearGradient id="SVGID_4_" gradientUnits="userSpaceOnUse" x1="284.541" y1="553.5234" x2="288.5547" y2="553.5234" gradientTransform="matrix(1 0 0 1 -279.2598 -525.8594)">
			<stop  offset="0" style="stop-color:#AECFD9"/>
			<stop  offset="1" style="stop-color:#0C7C9E"/>
		</linearGradient>
		<rect x="5.28" y="26.025" fill="url(#SVGID_4_)" width="4.015" height="3.277"/>
		<rect x="5.684" y="30.566" width="3.211" height="1.434"/>
		<line fill="none" stroke="#000000" stroke-width="0.8125" x1="3.996" y1="27.666" x2="10.114" y2="25.206"/>
		<line fill="none" stroke="#000000" stroke-width="0.8125" x1="4.462" y1="30.123" x2="10.545" y2="27.461"/>
	</g>
</g>
</svg>
