<?xml version="1.0" encoding="utf-8"?>
<!-- Generator: Adobe Illustrator 14.0.0, SVG Export Plug-In . SVG Version: 6.00 Build 43363)  -->
<!DOCTYPE svg PUBLIC "-//W3C//DTD SVG 1.1//EN" "http://www.w3.org/Graphics/SVG/1.1/DTD/svg11.dtd">
<svg version="1.1"
	 id="svg3488" sodipodi:docname="none.svg" inkscape:version="0.45.1" sodipodi:version="0.32" sodipodi:docbase="C:\Radix\dev\trunk\org.radixware\kernel\designer\src\common.resources\src\org\radixware\kernel\designer\resources\icons\eventlog" inkscape:output_extension="org.inkscape.output.svg.inkscape" xmlns:ns="http://creativecommons.org/ns#" xmlns:dc="http://purl.org/dc/elements/1.1/" xmlns:cc="http://web.resource.org/cc/" xmlns:rdf="http://www.w3.org/1999/02/22-rdf-syntax-ns#" xmlns:svg="http://www.w3.org/2000/svg" xmlns:sodipodi="http://sodipodi.sourceforge.net/DTD/sodipodi-0.dtd" xmlns:inkscape="http://www.inkscape.org/namespaces/inkscape"
	 xmlns="http://www.w3.org/2000/svg" xmlns:xlink="http://www.w3.org/1999/xlink" x="0px" y="0px" width="32px" height="32px"
	 viewBox="0 0 32 32" enable-background="new 0 0 32 32" xml:space="preserve">
<sodipodi:namedview  id="base" pagecolor="#ffffff" bordercolor="#666666" borderopacity="1.0" objecttolerance="10" gridtolerance="10000" showgrid="false" guidetolerance="10" inkscape:zoom="9.6014722" inkscape:cx="-14.177592" inkscape:cy="3.5982562" inkscape:current-layer="layer1" inkscape:pageopacity="0.0" inkscape:pageshadow="2" inkscape:window-width="1280" inkscape:window-height="944" inkscape:window-x="0" inkscape:window-y="44" inkscape:document-units="px">
	</sodipodi:namedview>
<g>
	<g>
		<path id="path4993_8_" fill="#020202" d="M7.043,22.289C5.365,22.289,4,20.818,4,19.01V3.28c0-0.858,0.304-1.67,0.857-2.286
			C5.436,0.354,6.211,0,7.045,0h21.917C30.64,0,32,1.472,32,3.28v15.73c0,1.809-1.36,3.279-3.038,3.279H7.043z"/>
		<path id="rect26074_8_" fill="#FFFFFF" d="M7.043,0.916h21.915c1.177,0,2.125,1.055,2.125,2.364v15.73
			c0,1.309-0.948,2.363-2.125,2.363H7.043c-1.179,0-2.127-1.055-2.127-2.363V3.28C4.916,1.973,5.864,0.916,7.043,0.916z"/>
		
			<linearGradient id="SVGID_1_" gradientUnits="userSpaceOnUse" x1="590.9805" y1="-918.1548" x2="570.9214" y2="-904.374" gradientTransform="matrix(1 0 0 -1 -560.6201 -898.5195)">
			<stop  offset="0" style="stop-color:#000000;stop-opacity:0.21"/>
			<stop  offset="1" style="stop-color:#000000;stop-opacity:0"/>
		</linearGradient>
		<path fill="url(#SVGID_1_)" d="M7.043,20.457c-0.668,0-1.211-0.65-1.211-1.447V3.28c0-0.799,0.542-1.449,1.211-1.449h21.915
			c0.668,0,1.209,0.649,1.209,1.449v15.73c0,0.797-0.543,1.447-1.209,1.447H7.043z"/>
		
			<linearGradient id="path26098_1_" gradientUnits="userSpaceOnUse" x1="1884.9121" y1="-3640.1631" x2="1884.9121" y2="-3637.6699" gradientTransform="matrix(1 0 0 -1 -1866.9141 -3636.1836)">
			<stop  offset="0" style="stop-color:#2A60A9"/>
			<stop  offset="1" style="stop-color:#B0D4F0"/>
		</linearGradient>
		<path id="path26098_7_" fill="url(#path26098_1_)" d="M7.054,0.916c-1.177,0-2.148,0.971-2.148,2.148v0.916h26.185V3.063
			c0-1.177-0.972-2.148-2.147-2.148H7.054z"/>
	</g>
</g>
<g>
	<path d="M4.462,26.025c-0.447,0-0.812-0.357-0.819-0.806c-0.017-1.011-0.181-2.692-0.49-3.266c-0.263-0.483-0.61-1.01-0.98-1.567
		C1.153,18.853,0,17.112,0,15.246C0,11.25,3.251,8,7.246,8c3.996,0,7.245,3.25,7.245,7.246c0,1.866-1.153,3.605-2.171,5.141
		c-0.369,0.557-0.718,1.083-0.98,1.568c-0.31,0.574-0.474,2.255-0.49,3.266c-0.01,0.447-0.372,0.805-0.819,0.805H4.462z"/>
	<path fill="#B3B2B3" d="M7.246,8.819c-3.55,0-6.427,2.878-6.427,6.427c0,2.25,2.058,4.477,3.053,6.319
		c0.545,1.009,0.589,3.641,0.589,3.641h5.569c0,0,0.046-2.634,0.589-3.641c0.996-1.843,3.052-4.069,3.052-6.319
		C13.672,11.698,10.794,8.819,7.246,8.819z"/>
	
		<radialGradient id="SVGID_2_" cx="288.1279" cy="538.0791" r="6.3407" gradientTransform="matrix(1 0 0 1 -279.2598 -525.8594)" gradientUnits="userSpaceOnUse">
		<stop  offset="0" style="stop-color:#FFFFFF"/>
		<stop  offset="1" style="stop-color:#FFFFFF;stop-opacity:0"/>
	</radialGradient>
	<circle fill="url(#SVGID_2_)" cx="7.246" cy="14.886" r="5.471"/>
	
		<linearGradient id="SVGID_3_" gradientUnits="userSpaceOnUse" x1="294.0986" y1="546.7471" x2="284.7441" y2="542.1716" gradientTransform="matrix(1 0 0 1 -279.2598 -525.8594)">
		<stop  offset="0" style="stop-color:#FFFFFF"/>
		<stop  offset="1" style="stop-color:#FFFFFF;stop-opacity:0"/>
	</linearGradient>
	<path fill="url(#SVGID_3_)" d="M5.272,24.387c-0.059-0.942-0.219-2.406-0.653-3.211c-0.297-0.548-0.668-1.105-1.057-1.693
		c-0.892-1.342-1.897-2.862-1.897-4.235c0-3.091,2.515-5.607,5.608-5.607c3.093,0,5.606,2.516,5.606,5.607
		c0,1.372-1.01,2.892-1.897,4.233c-0.391,0.59-0.76,1.147-1.058,1.697c-0.434,0.806-0.595,2.27-0.653,3.213H5.273L5.272,24.387
		L5.272,24.387z"/>
	<line fill="none" stroke="#000000" x1="6.059" y1="24.75" x2="3.798" y2="14.555"/>
	<line fill="none" stroke="#000000" x1="8.216" y1="24.906" x2="10.694" y2="14.555"/>
	<polyline fill="none" stroke="#000000" points="3.996,15.248 5.914,15.609 7.271,14.885 8.577,15.609 10.545,15.386 	"/>
	<path d="M4.462,30.941c-0.453,0-0.819-0.365-0.819-0.818v-4.917c0-0.453,0.366-0.819,0.819-0.819h5.654
		c0.453,0,0.819,0.365,0.819,0.819v4.917c0,0.453-0.366,0.818-0.819,0.818H4.462z"/>
	<rect x="4.462" y="25.206" fill="#02ABD8" width="5.654" height="4.917"/>
	
		<linearGradient id="SVGID_4_" gradientUnits="userSpaceOnUse" x1="284.541" y1="553.5234" x2="288.5547" y2="553.5234" gradientTransform="matrix(1 0 0 1 -279.2598 -525.8594)">
		<stop  offset="0" style="stop-color:#B0D0DA"/>
		<stop  offset="1" style="stop-color:#0C7C9E"/>
	</linearGradient>
	<rect x="5.28" y="26.025" fill="url(#SVGID_4_)" width="4.015" height="3.277"/>
	<rect x="5.684" y="30.566" width="3.209" height="1.434"/>
	<line fill="none" stroke="#000000" x1="3.996" y1="27.666" x2="10.114" y2="25.206"/>
	<line fill="none" stroke="#000000" x1="4.462" y1="30.123" x2="10.545" y2="27.459"/>
</g>
</svg>
