<?xml version="1.0" encoding="UTF-8" standalone="no"?>
<!-- Created with Inkscape (http://www.inkscape.org/) -->
<svg
   xmlns:dc="http://purl.org/dc/elements/1.1/"
   xmlns:cc="http://web.resource.org/cc/"
   xmlns:rdf="http://www.w3.org/1999/02/22-rdf-syntax-ns#"
   xmlns:svg="http://www.w3.org/2000/svg"
   xmlns="http://www.w3.org/2000/svg"
   xmlns:xlink="http://www.w3.org/1999/xlink"
   xmlns:sodipodi="http://sodipodi.sourceforge.net/DTD/sodipodi-0.dtd"
   xmlns:inkscape="http://www.inkscape.org/namespaces/inkscape"
   width="20"
   height="20"
   id="svg2"
   sodipodi:version="0.32"
   inkscape:version="0.45.1"
   sodipodi:docbase="C:\Radix\dev\trunk\org.radixware\kernel\designer\src\common.resources\src\org\radixware\kernel\designer\resources\icons\ads"
   sodipodi:docname="explorer_tree_model.svg"
   version="1.0"
   inkscape:output_extension="org.inkscape.output.svg.inkscape">
  <defs
     id="defs4">
    <linearGradient
       id="linearGradient27519">
      <stop
         style="stop-color:#c17610;stop-opacity:1;"
         offset="0"
         id="stop27521" />
      <stop
         style="stop-color:#c17610;stop-opacity:1;"
         offset="1"
         id="stop27523" />
    </linearGradient>
    <linearGradient
       id="linearGradient25573">
      <stop
         style="stop-color:#ff9e18;stop-opacity:1;"
         offset="0"
         id="stop25575" />
      <stop
         style="stop-color:#905607;stop-opacity:1;"
         offset="1"
         id="stop25577" />
    </linearGradient>
    <linearGradient
       id="linearGradient20720">
      <stop
         style="stop-color:#febf67;stop-opacity:1;"
         offset="0"
         id="stop20722" />
      <stop
         style="stop-color:#934809;stop-opacity:1;"
         offset="1"
         id="stop20724" />
    </linearGradient>
    <linearGradient
       id="linearGradient19743">
      <stop
         style="stop-color:#ba6804;stop-opacity:1;"
         offset="0"
         id="stop19745" />
      <stop
         style="stop-color:#e1b37c;stop-opacity:1;"
         offset="1"
         id="stop19747" />
    </linearGradient>
    <linearGradient
       id="linearGradient18766">
      <stop
         style="stop-color:#ff9300;stop-opacity:1;"
         offset="0"
         id="stop18768" />
      <stop
         style="stop-color:#7b4700;stop-opacity:1;"
         offset="1"
         id="stop18770" />
    </linearGradient>
    <linearGradient
       id="linearGradient17789">
      <stop
         style="stop-color:#ca7d13;stop-opacity:1;"
         offset="0"
         id="stop17791" />
      <stop
         style="stop-color:#7d4800;stop-opacity:1;"
         offset="1"
         id="stop17793" />
    </linearGradient>
    <linearGradient
       id="linearGradient12936">
      <stop
         style="stop-color:#ffb100;stop-opacity:1;"
         offset="0"
         id="stop12938" />
      <stop
         style="stop-color:#fff3dc;stop-opacity:1;"
         offset="1"
         id="stop12940" />
    </linearGradient>
    <linearGradient
       id="linearGradient11957">
      <stop
         style="stop-color:#a36702;stop-opacity:1;"
         offset="0"
         id="stop11959" />
      <stop
         id="stop11965"
         offset="0.5"
         style="stop-color:#ffc97d;stop-opacity:1;" />
      <stop
         style="stop-color:#ab6b00;stop-opacity:1;"
         offset="1"
         id="stop11961" />
    </linearGradient>
    <linearGradient
       id="linearGradient5698">
      <stop
         style="stop-color:#0066ff;stop-opacity:1;"
         offset="0"
         id="stop5700" />
      <stop
         style="stop-color:#00feff;stop-opacity:1;"
         offset="1"
         id="stop5702" />
    </linearGradient>
    <linearGradient
       id="linearGradient4817">
      <stop
         style="stop-color:#ff0002;stop-opacity:1;"
         offset="0"
         id="stop4819" />
      <stop
         style="stop-color:#fffe00;stop-opacity:1;"
         offset="1"
         id="stop4821" />
    </linearGradient>
    <linearGradient
       id="linearGradient3055">
      <stop
         style="stop-color:#05860a;stop-opacity:1;"
         offset="0"
         id="stop3057" />
      <stop
         style="stop-color:#fffe00;stop-opacity:0.98969072;"
         offset="1"
         id="stop3059" />
    </linearGradient>
    <linearGradient
       inkscape:collect="always"
       xlink:href="#linearGradient3055"
       id="linearGradient3061"
       x1="6.3413796"
       y1="5.4448276"
       x2="6.3068972"
       y2="2.789655"
       gradientUnits="userSpaceOnUse"
       gradientTransform="matrix(0.7445795,0,0,0.6973293,-1.0620047,-0.4527725)" />
    <linearGradient
       inkscape:collect="always"
       xlink:href="#linearGradient4817"
       id="linearGradient4823"
       x1="11.310345"
       y1="11.827586"
       x2="11.275862"
       y2="8.7586203"
       gradientUnits="userSpaceOnUse"
       gradientTransform="matrix(0.7445795,0,0,0.6973293,-1.0620047,-0.4526035)" />
    <linearGradient
       inkscape:collect="always"
       xlink:href="#linearGradient5698"
       id="linearGradient5704"
       x1="11.1"
       y1="17.589655"
       x2="11.1"
       y2="14.175861"
       gradientUnits="userSpaceOnUse"
       gradientTransform="matrix(0.7445795,0,0,0.6973293,-1.0620047,-0.4526035)" />
    <linearGradient
       inkscape:collect="always"
       xlink:href="#linearGradient11957"
       id="linearGradient11963"
       x1="18.903551"
       y1="12.557117"
       x2="11.681625"
       y2="18.296467"
       gradientUnits="userSpaceOnUse" />
    <linearGradient
       inkscape:collect="always"
       xlink:href="#linearGradient12936"
       id="linearGradient12942"
       x1="5.7203836"
       y1="15.293892"
       x2="25"
       y2="15.293892"
       gradientUnits="userSpaceOnUse" />
    <linearGradient
       inkscape:collect="always"
       xlink:href="#linearGradient17789"
       id="linearGradient17795"
       x1="12.164444"
       y1="24.517424"
       x2="15.6066"
       y2="20.925703"
       gradientUnits="userSpaceOnUse" />
    <linearGradient
       inkscape:collect="always"
       xlink:href="#linearGradient18766"
       id="linearGradient18772"
       x1="17.444336"
       y1="21.900616"
       x2="20.664322"
       y2="18.419977"
       gradientUnits="userSpaceOnUse" />
    <linearGradient
       inkscape:collect="always"
       xlink:href="#linearGradient19743"
       id="linearGradient19749"
       x1="16.940701"
       y1="22.240196"
       x2="15.200382"
       y2="23.425095"
       gradientUnits="userSpaceOnUse" />
    <linearGradient
       inkscape:collect="always"
       xlink:href="#linearGradient20720"
       id="linearGradient20726"
       x1="19.457881"
       y1="18.574419"
       x2="23.013302"
       y2="18.574419"
       gradientUnits="userSpaceOnUse" />
    <linearGradient
       inkscape:collect="always"
       xlink:href="#linearGradient25573"
       id="linearGradient25579"
       x1="18.29598"
       y1="17.944942"
       x2="23.959822"
       y2="16.537876"
       gradientUnits="userSpaceOnUse" />
    <linearGradient
       inkscape:collect="always"
       xlink:href="#linearGradient27519"
       id="linearGradient27525"
       x1="19.12572"
       y1="13.483061"
       x2="26.418793"
       y2="11.076237"
       gradientUnits="userSpaceOnUse" />
    <filter
       inkscape:collect="always"
       id="filter33387">
      <feGaussianBlur
         inkscape:collect="always"
         stdDeviation="0.33730832"
         id="feGaussianBlur33389" />
    </filter>
  </defs>
  <sodipodi:namedview
     id="base"
     pagecolor="#ffffff"
     bordercolor="#000000"
     borderopacity="1.0"
     inkscape:pageopacity="0.0"
     inkscape:pageshadow="2"
     inkscape:zoom="27.006547"
     inkscape:cx="14.756809"
     inkscape:cy="9.3349608"
     inkscape:document-units="px"
     inkscape:current-layer="layer1"
     inkscape:window-width="1272"
     inkscape:window-height="941"
     inkscape:window-x="0"
     inkscape:window-y="0"
     showgrid="true"
     showguides="true"
     inkscape:guide-bbox="true" />
  <metadata
     id="metadata7">
    <rdf:RDF>
      <cc:Work
         rdf:about="">
        <dc:format>image/svg+xml</dc:format>
        <dc:type
           rdf:resource="http://purl.org/dc/dcmitype/StillImage" />
      </cc:Work>
    </rdf:RDF>
  </metadata>
  <g
     inkscape:label="Layer 1"
     inkscape:groupmode="layer"
     id="layer1">
    <rect
       style="fill:url(#linearGradient3061);fill-opacity:1;fill-rule:evenodd;stroke:#005800;stroke-width:0.72056723;stroke-miterlimit:4;stroke-dasharray:none;stroke-opacity:1"
       id="rect1304"
       width="5.2120566"
       height="2.0919878"
       x="0.87390196"
       y="1.3602836" />
    <path
       sodipodi:type="arc"
       style="opacity:0.34199135;fill:#000000;fill-opacity:0.39639641;stroke:none;stroke-width:0.30000001;stroke-linecap:round;stroke-linejoin:round;stroke-miterlimit:4;stroke-dasharray:none;stroke-dashoffset:0;stroke-opacity:1;filter:url(#filter33387)"
       id="path31403"
       sodipodi:cx="15.403672"
       sodipodi:cy="13.149809"
       sodipodi:rx="10.478941"
       sodipodi:ry="4.2582269"
       d="M 25.882613 13.149809 A 10.478941 4.2582269 0 1 1  4.9247313,13.149809 A 10.478941 4.2582269 0 1 1  25.882613 13.149809 z"
       transform="matrix(0.8568558,-0.5216615,0,0.868413,-2.2197845,11.016505)" />
    <g
       id="g10969"
       transform="matrix(0.8206972,0,0,0.7569005,-2.6947028,-1.2963641)">
      <path
         id="path7043"
         d="M 24.233569,10.231421 C 22.723469,11.533556 20.102561,14.089492 19.75188,14.133464 C 19.482674,14.167219 19.498234,12.895499 19.481899,11.786965 C 18.951521,12.062483 18.397037,12.361424 17.835013,12.709745 C 17.295615,13.877101 16.77191,15.057081 16.512104,15.18807 C 16.311706,15.289106 15.724338,14.990712 15.081204,14.660767 C 14.450888,15.156561 13.851411,15.68716 13.272329,16.216311 C 13.474721,16.724416 13.625545,17.167842 13.488314,17.297282 C 13.353267,17.424661 12.607783,17.549307 11.733435,17.692759 C 11.213409,18.238944 10.743834,18.806254 10.302534,19.353764 C 11.056611,19.499062 11.683824,19.638157 11.625442,19.775606 C 11.552127,19.948217 10.231901,20.665913 8.8176375,21.410246 C 8.5376495,21.869861 8.2841105,22.3227 8.0886885,22.754869 C 9.7330384,22.256274 11.473993,21.721442 11.544448,21.858453 C 11.64357,22.051212 8.9516305,24.574468 7.6297195,25.945052 C 7.6839335,26.088825 7.7890535,26.195782 7.8727035,26.314164 C 9.5684145,25.250239 12.920788,22.844796 13.218333,22.886694 C 13.509016,22.927627 12.358091,25.529056 11.94942,26.815102 C 12.235796,26.732967 12.533902,26.637792 12.840358,26.525085 C 14.003304,25.109637 15.787126,22.638914 16.161129,22.517582 C 16.438005,22.42776 16.941123,23.29483 17.430041,24.099491 C 17.967874,23.738767 18.508572,23.359835 19.02293,22.96579 C 19.114022,21.991894 19.200185,21.04154 19.427902,20.882943 C 19.621184,20.748328 20.488252,20.818121 21.425764,20.909308 C 21.948646,20.419611 22.471426,19.93491 22.937659,19.432859 C 22.362365,19.030318 21.850149,18.639265 21.965727,18.483714 C 22.09036,18.315973 23.284511,17.90797 24.584545,17.455473 C 24.9585,16.959251 25.290531,16.484469 25.583476,16.005389 C 24.267679,16.13695 22.984608,16.267479 22.991655,16.11085 C 23.000848,15.906542 25.121255,14.43284 26.798392,13.210683 C 26.80038,13.20184 26.796456,13.193137 26.798392,13.184318 C 26.844222,12.975591 26.890688,12.772256 26.906384,12.577919 C 26.913395,12.491113 26.905617,12.42264 26.906384,12.340633 C 25.012842,13.233841 22.33392,14.584357 22.154713,14.476211 C 21.949968,14.352653 24.023312,11.629927 24.908523,10.257786 C 24.698157,10.238837 24.471654,10.218413 24.233569,10.231421 z M 19.103925,15.557182 C 19.70758,15.56701 20.096258,15.845729 20.129854,16.400867 C 20.197047,17.511143 18.798857,19.275337 17.025069,20.35564 C 15.251281,21.435942 13.771492,21.413185 13.704299,20.302909 C 13.637106,19.192634 15.008297,17.428439 16.782086,16.348136 C 17.66898,15.807985 18.50027,15.547354 19.103925,15.557182 z "
         style="opacity:0.98999999;fill:#574b4b;fill-opacity:1;stroke:none;stroke-width:0.30000001;stroke-linecap:round;stroke-linejoin:round;stroke-miterlimit:4;stroke-dasharray:none;stroke-dashoffset:0;stroke-opacity:1" />
      <path
         sodipodi:nodetypes="ccccc"
         id="path10965"
         d="M 6.2029271,19.500848 L 8.1639597,22.832646 C 11.107593,20.813411 10.110556,20.215664 12.237046,19.055784 L 11.163232,16.056512 L 6.2029271,19.500848 z "
         style="fill:#c17104;fill-opacity:1;fill-rule:evenodd;stroke:none;stroke-width:0.30000001;stroke-linecap:round;stroke-linejoin:round;stroke-miterlimit:4;stroke-dasharray:none;stroke-opacity:1" />
      <path
         sodipodi:nodetypes="ccccc"
         id="path8014"
         d="M 5.9259439,23 L 7.8869765,26.331798 C 10.83061,24.312563 11.759032,23.788872 13.885522,22.628992 L 11.552754,19.111327 L 5.9259439,23 z "
         style="fill:#bf7308;fill-opacity:1;fill-rule:evenodd;stroke:none;stroke-width:0.30000001;stroke-linecap:round;stroke-linejoin:round;stroke-miterlimit:4;stroke-dasharray:none;stroke-opacity:1" />
      <path
         sodipodi:nodetypes="ccccc"
         id="path9954"
         d="M 10.925944,23.222168 L 12.925944,26.516938 L 12,26.777832 L 10,23.554693 L 10.925944,23.222168 z "
         style="fill:#914a04;fill-opacity:1;fill-rule:evenodd;stroke:none;stroke-width:0.30000001;stroke-linecap:round;stroke-linejoin:round;stroke-miterlimit:4;stroke-dasharray:none;stroke-opacity:1" />
      <path
         sodipodi:nodetypes="ccccc"
         id="path10925"
         d="M 10.90549,23.277711 L 12.903551,26.498425 C 16.180437,22.442647 15.998017,21.474619 17.346918,23.72132 L 15.162262,18.019 L 10.90549,23.277711 z "
         style="fill:url(#linearGradient17795);fill-opacity:1;fill-rule:evenodd;stroke:none;stroke-width:0.30000001;stroke-linecap:round;stroke-linejoin:round;stroke-miterlimit:4;stroke-dasharray:none;stroke-opacity:1" />
      <path
         sodipodi:nodetypes="ccccc"
         id="path10959"
         d="M 18.014878,11.428731 L 19.383461,14.279164 C 22.327095,12.259929 23.255517,11.736238 25.382007,10.576358 L 23.049239,7.0586933 L 18.014878,11.428731 z "
         style="fill:#d29645;fill-opacity:1;fill-rule:evenodd;stroke:none;stroke-width:0.30000001;stroke-linecap:round;stroke-linejoin:round;stroke-miterlimit:4;stroke-dasharray:none;stroke-opacity:1" />
      <path
         sodipodi:nodetypes="ccccc"
         id="path10955"
         d="M 19.12572,13.761499 L 21.086752,17.093297 C 24.030385,15.074062 24.736639,14.772539 26.789073,13.242379 L 24.752529,9.8728257 L 19.12572,13.761499 z "
         style="fill:url(#linearGradient27525);fill-opacity:1;fill-rule:evenodd;stroke:none;stroke-width:0.30000001;stroke-linecap:round;stroke-linejoin:round;stroke-miterlimit:4;stroke-dasharray:none;stroke-opacity:1" />
      <path
         sodipodi:nodetypes="ccccc"
         id="path10951"
         d="M 16.333495,16.464547 L 18.405611,20.129598 C 21.571414,18.221447 22.759032,18.364261 24.589298,17.463577 L 22.62681,14.131053 L 16.333495,16.464547 z "
         style="fill:url(#linearGradient25579);fill-opacity:1;fill-rule:evenodd;stroke:none;stroke-width:0.30000001;stroke-linecap:round;stroke-linejoin:round;stroke-miterlimit:4;stroke-dasharray:none;stroke-opacity:1" />
      <path
         sodipodi:nodetypes="ccccc"
         id="path10947"
         d="M 17,19.779286 L 18.998061,22.925944 C 19.34973,20.31426 18.908114,20.679242 21.47894,20.926428 L 19.516453,17.66796 C 17.26767,17.044871 17.164522,16.163234 17,19.779286 z "
         style="fill:url(#linearGradient18772);fill-opacity:1;fill-rule:evenodd;stroke:none;stroke-width:0.30000001;stroke-linecap:round;stroke-linejoin:round;stroke-miterlimit:4;stroke-dasharray:none;stroke-opacity:1" />
      <path
         sodipodi:nodetypes="ccccc"
         id="path10927"
         d="M 17.088328,19.740319 L 19.0513,22.998061 C 18.662396,23.523162 18.033952,23.808724 17.458851,24.147628 L 15.532907,20.850433 L 17.088328,19.740319 z "
         style="fill:url(#linearGradient19749);fill-opacity:1;fill-rule:evenodd;stroke:none;stroke-width:0.30000001;stroke-linecap:round;stroke-linejoin:round;stroke-miterlimit:4;stroke-dasharray:none;stroke-opacity:1" />
      <path
         sodipodi:nodetypes="ccccc"
         id="path10949"
         d="M 20.976274,16.204138 L 23.013302,19.46188 C 22.470143,20.214686 21.926984,20.576834 21.383825,20.9447 L 19.457881,17.647505 L 20.976274,16.204138 z "
         style="fill:url(#linearGradient20726);fill-opacity:1;fill-rule:evenodd;stroke:none;stroke-width:0.30000001;stroke-linecap:round;stroke-linejoin:round;stroke-miterlimit:4;stroke-dasharray:none;stroke-opacity:1" />
      <path
         sodipodi:nodetypes="ccccc"
         id="path10953"
         d="M 23.642295,12.742015 L 25.568239,15.962729 C 25.416671,16.578179 25.012269,17.025073 24.568239,17.445549 L 22.568239,14.22241 L 23.642295,12.742015 z "
         style="fill:#9c6100;fill-opacity:1;fill-rule:evenodd;stroke:none;stroke-width:0.30000001;stroke-linecap:round;stroke-linejoin:round;stroke-miterlimit:4;stroke-dasharray:none;stroke-opacity:1" />
      <path
         sodipodi:nodetypes="ccccc"
         id="path10957"
         d="M 25.012333,9.1688072 L 26.975305,12.537633 C 26.823737,13.153083 27.011783,12.78536 26.789922,13.279892 L 24.789922,10.056753 L 25.012333,9.1688072 z "
         style="fill:#a86f2f;fill-opacity:1;fill-rule:evenodd;stroke:none;stroke-width:0.30000001;stroke-linecap:round;stroke-linejoin:round;stroke-miterlimit:4;stroke-dasharray:none;stroke-opacity:1" />
      <path
         sodipodi:nodetypes="ccccc"
         id="path10961"
         d="M 16.126447,10.243834 L 18.605872,13.390491 C 21.549505,11.371256 17.775364,13.217361 19.901854,12.057481 L 17.569086,8.539816 L 16.126447,10.243834 z "
         style="fill:#c37710;fill-opacity:1;fill-rule:evenodd;stroke:none;stroke-width:0.30000001;stroke-linecap:round;stroke-linejoin:round;stroke-miterlimit:4;stroke-dasharray:none;stroke-opacity:1" />
      <path
         sodipodi:nodetypes="ccccc"
         id="path10963"
         d="M 8.4246107,16.168323 L 10.385643,19.500121 C 13.329277,17.480886 9.6662187,18.58643 11.792709,17.42655 L 10.681867,14.982698 L 8.4246107,16.168323 z "
         style="fill:#a66002;fill-opacity:1;fill-rule:evenodd;stroke:none;stroke-width:0.30000001;stroke-linecap:round;stroke-linejoin:round;stroke-miterlimit:4;stroke-dasharray:none;stroke-opacity:1" />
      <path
         sodipodi:nodetypes="ccccc"
         id="path10967"
         d="M 10.498182,15.668202 L 12.459215,19 C 15.402848,16.980765 17.516168,16.123821 19.642658,14.963941 L 17.12475,11.224108 L 10.498182,15.668202 z "
         style="fill:url(#linearGradient11963);fill-opacity:1;fill-rule:evenodd;stroke:none;stroke-width:0.30000001;stroke-linecap:round;stroke-linejoin:round;stroke-miterlimit:4;stroke-dasharray:none;stroke-opacity:1" />
      <path
         id="path5094"
         d="M 22.324233,7.0041025 C 20.814133,8.3062378 18.193225,10.862174 17.842544,10.906146 C 17.573338,10.939901 17.588898,9.6681811 17.572563,8.5596465 C 17.042185,8.835165 16.487701,9.1341055 15.925677,9.4824269 C 15.386279,10.649783 14.862574,11.829763 14.602768,11.960752 C 14.40237,12.061788 13.815002,11.763394 13.171868,11.433449 C 12.541552,11.929243 11.942075,12.459842 11.362993,12.988993 C 11.565385,13.497098 11.716209,13.940524 11.578978,14.069964 C 11.443931,14.197343 10.698447,14.321989 9.8240992,14.465441 C 9.3040735,15.011626 8.8344985,15.578936 8.3931984,16.126446 C 9.1472753,16.271744 9.7744879,16.410839 9.7161067,16.548288 C 9.6427911,16.720899 8.3225648,17.438595 6.9083013,18.182928 C 6.6283137,18.642543 6.3747743,19.095382 6.1793518,19.527551 C 7.8237026,19.028956 9.5646573,18.494124 9.6351123,18.631135 C 9.7342347,18.823894 7.0422945,21.34715 5.7203836,22.717734 C 5.7745977,22.861507 5.8797177,22.968464 5.9633668,23.086846 C 7.6590786,22.022921 11.011452,19.617478 11.308997,19.659376 C 11.59968,19.700309 10.448755,22.301738 10.040084,23.587784 C 10.32646,23.505649 10.624566,23.410474 10.931022,23.297767 C 12.093968,21.882319 13.87779,19.411596 14.251793,19.290264 C 14.528669,19.200442 15.031787,20.067512 15.520705,20.872173 C 16.058538,20.511449 16.599236,20.132517 17.113594,19.738472 C 17.204686,18.764576 17.290849,17.814222 17.518566,17.655625 C 17.711848,17.52101 18.578916,17.590803 19.516428,17.68199 C 20.03931,17.192293 20.56209,16.707592 21.028323,16.205541 C 20.453029,15.803 19.940813,15.411947 20.056391,15.256396 C 20.181024,15.088655 21.375175,14.680652 22.675209,14.228155 C 23.049164,13.731933 23.381195,13.257151 23.67414,12.778071 C 22.358343,12.909632 21.075272,13.040161 21.082319,12.883532 C 21.091512,12.679224 23.211919,11.205522 24.889056,9.9833648 C 24.891044,9.9745214 24.88712,9.9658191 24.889056,9.9569996 C 24.934886,9.7482733 24.981352,9.5449383 24.997048,9.3506011 C 25.004059,9.2637946 24.996281,9.1953223 24.997048,9.1133147 C 23.103506,10.006523 20.424584,11.357039 20.245377,11.248893 C 20.040632,11.125335 22.113976,8.4026088 22.999187,7.0304677 C 22.788821,7.011519 22.562318,6.9910946 22.324233,7.0041025 z M 17.194589,12.329864 C 17.798244,12.339692 18.186922,12.618411 18.220518,13.173549 C 18.287711,14.283825 16.889521,16.048019 15.115733,17.128322 C 13.341945,18.208624 11.862156,18.185867 11.794963,17.075591 C 11.72777,15.965316 13.098961,14.201121 14.87275,13.120818 C 15.759644,12.580667 16.590934,12.320036 17.194589,12.329864 z "
         style="opacity:0.98999999;fill:url(#linearGradient12942);fill-opacity:1;stroke:none;stroke-width:0.30000001;stroke-linecap:round;stroke-linejoin:round;stroke-miterlimit:4;stroke-dasharray:none;stroke-dashoffset:0;stroke-opacity:1" />
    </g>
    <rect
       y="5.4746957"
       x="4.5223417"
       height="2.0919878"
       width="5.2120566"
       id="rect1306"
       style="fill:url(#linearGradient4823);fill-opacity:1;fill-rule:evenodd;stroke:#890000;stroke-width:0.72056723;stroke-miterlimit:4;stroke-dasharray:none;stroke-opacity:1" />
    <rect
       style="fill:url(#linearGradient5704);fill-opacity:1;fill-rule:evenodd;stroke:#000081;stroke-width:0.72056723;stroke-miterlimit:4;stroke-dasharray:none;stroke-opacity:1"
       id="rect1308"
       width="5.2120566"
       height="2.0919878"
       x="4.5967999"
       y="9.5889378" />
    <path
       style="fill:none;fill-opacity:0.75;fill-rule:evenodd;stroke:#000000;stroke-width:0.77298373px;stroke-linecap:butt;stroke-linejoin:miter;stroke-opacity:1"
       d="M 2.0005028,6.5206896 L 4.1573912,6.5206896 L 4.1573912,6.5206896"
       id="path2185" />
    <path
       style="fill:none;fill-opacity:0.75;fill-rule:evenodd;stroke:#000000;stroke-width:0.72056723px;stroke-linecap:butt;stroke-linejoin:miter;stroke-opacity:1"
       d="M 2.2886031,3.7313724 L 2.2886031,10.704665 L 4.2399151,10.704665 L 3.6750616,10.728711"
       id="path2187"
       sodipodi:nodetypes="cccc" />
  </g>
</svg>
