<?xml version="1.0" encoding="utf-8"?>
<!-- Generator: Adobe Illustrator 14.0.0, SVG Export Plug-In . SVG Version: 6.00 Build 43363)  -->
<!DOCTYPE svg PUBLIC "-//W3C//DTD SVG 1.1//EN" "http://www.w3.org/Graphics/SVG/1.1/DTD/svg11.dtd">
<svg version="1.1"
	 id="svg2" sodipodi:docbase="C:\Radix\dev\trunk\org.radixware\kernel\designer\src\common.resources\src\org\radixware\kernel\designer\resources\icons\create" sodipodi:docname="add_column.svg" inkscape:version="0.45.1" sodipodi:version="0.32" inkscape:output_extension="org.inkscape.output.svg.inkscape" xmlns:ns="http://creativecommons.org/ns#" xmlns:dc="http://purl.org/dc/elements/1.1/" xmlns:cc="http://web.resource.org/cc/" xmlns:rdf="http://www.w3.org/1999/02/22-rdf-syntax-ns#" xmlns:svg="http://www.w3.org/2000/svg" xmlns:sodipodi="http://sodipodi.sourceforge.net/DTD/sodipodi-0.dtd" xmlns:inkscape="http://www.inkscape.org/namespaces/inkscape"
	 xmlns="http://www.w3.org/2000/svg" xmlns:xlink="http://www.w3.org/1999/xlink" x="0px" y="0px" width="32px" height="32px"
	 viewBox="0 0 32 32" enable-background="new 0 0 32 32" xml:space="preserve">
<sodipodi:namedview  width="48px" height="48px" id="base" pagecolor="#ffffff" bordercolor="#000000" borderopacity="1.0" showgrid="false" inkscape:zoom="8.495596" inkscape:cx="-17.100843" inkscape:cy="18.018949" inkscape:current-layer="g9137" inkscape:pageopacity="0.0" inkscape:pageshadow="2" inkscape:window-width="1280" inkscape:window-height="944" inkscape:window-x="0" inkscape:window-y="44" inkscape:document-units="px">
	</sodipodi:namedview>
<g>
	<g>
		<path d="M0.911,24.279c-0.51,0-0.926-0.414-0.926-0.924V0.912c0-0.512,0.416-0.926,0.926-0.926h26.443
			c0.51,0,0.926,0.414,0.926,0.926v22.443c0,0.51-0.416,0.924-0.926,0.924H0.911z"/>
		<rect x="0.911" y="0.912" fill="#DAEBF2" width="26.442" height="22.443"/>
		
			<linearGradient id="SVGID_1_" gradientUnits="userSpaceOnUse" x1="561.7109" y1="-1469.7305" x2="588.1543" y2="-1469.7305" gradientTransform="matrix(1 0 0 -1 -560.8008 -1465.6992)">
			<stop  offset="0" style="stop-color:#B0D0DA"/>
			<stop  offset="1" style="stop-color:#0C7C9E"/>
		</linearGradient>
		<rect x="0.911" y="0.912" fill="url(#SVGID_1_)" width="26.442" height="6.238"/>
		
			<linearGradient id="SVGID_2_" gradientUnits="userSpaceOnUse" x1="290.9111" y1="-388.2949" x2="300.6729" y2="-388.2949" gradientTransform="matrix(1 0 0 -1 -281.7207 -373.0195)">
			<stop  offset="0" style="stop-color:#AED58A"/>
			<stop  offset="1" style="stop-color:#1E9046"/>
		</linearGradient>
		<rect x="9.456" y="7.15" fill="url(#SVGID_2_)" width="9.412" height="16.25"/>
		<line fill="none" stroke="#000000" x1="0.911" y1="7.15" x2="27.354" y2="7.15"/>
		<line fill="none" stroke="#000000" x1="0.911" y1="12.486" x2="27.354" y2="12.486"/>
		<line fill="none" stroke="#000000" x1="0.911" y1="18.352" x2="27.354" y2="18.352"/>
		<line fill="none" stroke="#000000" x1="9.456" y1="7.166" x2="9.456" y2="23.369"/>
		<line fill="none" stroke="#000000" x1="18.868" y1="7.195" x2="18.868" y2="23.4"/>
	</g>
	<g>
		<path id="path4992_6_" fill="#020202" d="M21.556,15.99c-0.021,0.006-0.041,0.013-0.061,0.021c0.002,0-0.063,0.021-0.063,0.021
			c0.002,0-0.082,0.021-0.08,0.02c0.002,0-0.063,0.042-0.063,0.041c0.002,0-0.063,0.041-0.063,0.04c0.002,0-0.063,0.042-0.061,0.04
			c0.002,0-0.063,0.042-0.062,0.041c0,0-0.063,0.063-0.063,0.061c0.002,0-0.043,0.063-0.041,0.061c0.002,0-0.041,0.063-0.041,0.063
			c0.002,0-0.041,0.063-0.041,0.063s-0.041,0.082-0.039,0.08c0,0-0.021,0.063-0.021,0.062c0,0-0.021,0.084-0.021,0.081
			c0,0-0.021,0.082-0.021,0.08v0.063c0,0,0,0.039,0,0.063c0,0.01,0,0.021,0,0.021v3.938h-3.93c0,0-0.013,0-0.021,0
			c-0.013,0-0.021,0-0.021,0c0.002,0-0.043,0-0.041,0c-0.011,0-0.017,0-0.021,0h-0.041L16.7,20.867c0.002-0.002-0.041,0-0.041,0
			c0.002-0.002-0.041,0.021-0.041,0.021c0.002,0-0.041,0.001-0.039,0c0,0-0.041,0.021-0.039,0.021l-0.041,0.021
			c0.002,0-0.043,0.021-0.041,0.021l-0.041,0.021c0.002,0-0.021,0.021-0.021,0.021s-0.038,0.019-0.034,0.019
			c0,0-0.043,0.021-0.041,0.021L16.3,21.052c0,0-0.042,0.041-0.041,0.041s-0.018,0.019-0.018,0.019s-0.043,0.021-0.041,0.021
			c0,0-0.021,0.042-0.021,0.041c0.001,0-0.021,0.041-0.021,0.041l-0.021,0.021c0,0-0.041,0.043-0.041,0.041
			c0.001,0-0.021,0.041-0.021,0.041s-0.021,0.041-0.021,0.037c0.001,0-0.001,0.021,0,0.021s-0.021,0.043-0.021,0.041l-0.021,0.041
			v0.041l-0.02,0.041v0.041l-0.021,0.041c0,0,0,0.041,0,0.039c0,0,0,0.043,0,0.041v0.041v4.521v0.041v0.041v0.041l0.021,0.041
			c0,0,0,0.041,0,0.039l0.02,0.063l0.021,0.041c0,0,0,0.041,0,0.039c0,0,0.021,0.04,0.021,0.038c-0.001,0,0.021,0.043,0.021,0.041
			c0,0,0.021,0.041,0.021,0.041l0.021,0.021c0,0,0.043,0.041,0.041,0.041l0.021,0.041c-0.001,0,0.021,0.041,0.021,0.041
			s0.041,0.021,0.041,0.02c-0.002,0,0.021,0.042,0.021,0.041c-0.002,0,0.041,0.021,0.041,0.021c-0.002,0,0.041,0.021,0.04,0.021
			s0.041,0.038,0.039,0.038l0.021,0.021c0,0,0.041,0.021,0.039,0.021c0-0.001,0.041,0.021,0.041,0.021
			c-0.002-0.002,0.041,0.021,0.041,0.021c-0.003-0.002,0.04,0,0.04,0c-0.002-0.002,0.041,0.021,0.041,0.02
			c-0.002,0,0.063,0.021,0.063,0.021s0.041,0,0.039,0s0.043,0.021,0.041,0.021s0.041,0,0.041,0c-0.002,0,0.041,0,0.041,0
			c-0.002,0,0.041,0,0.041,0h3.959v3.938v0.021c-0.002,0.014,0,0.021,0,0.021v0.041c0,0.007,0,0.015,0,0.021v0.041
			c-0.002,0,0.021,0.041,0.021,0.041c-0.002,0,0,0.041,0,0.039c-0.002,0,0.021,0.043,0.021,0.041v0.041l0.021,0.041
			c-0.002,0,0.021,0.041,0.021,0.041c-0.002,0,0.021,0.041,0.021,0.041c-0.002,0,0.021,0.041,0.021,0.041l0.021,0.021
			c-0.002,0,0.021,0.04,0.021,0.039c-0.002,0,0.021,0.041,0.021,0.04c-0.002,0,0.021,0.021,0.021,0.021s0.041,0.041,0.041,0.039
			l0.021,0.021c-0.002,0,0.021,0.041,0.021,0.041c-0.002,0,0.041,0.021,0.041,0.02c-0.002,0,0.039,0.02,0.039,0.02l0.021,0.021
			c-0.002,0,0.041,0.04,0.041,0.04c-0.002,0,0.041,0.021,0.039,0.021c0,0,0.043,0.021,0.041,0.021c0-0.001,0.021,0,0.021,0
			c-0.002-0.001,0.041,0.021,0.041,0.02c-0.002,0,0.041,0.021,0.041,0.021c-0.002,0,0.041,0.001,0.039,0
			c0,0,0.043,0.021,0.041,0.021h0.041l0.041,0.018c-0.002,0,0.041,0,0.041,0c-0.002,0,0.041,0,0.041,0c-0.002,0,0.041,0,0.039,0
			h4.522c-0.002,0,0.042,0,0.042,0c-0.004,0,0.04,0,0.04,0c-0.003,0,0.041,0,0.041,0c-0.003,0,0.041-0.021,0.04-0.021
			c-0.004,0,0.042,0,0.041,0c-0.002,0,0.063-0.021,0.063-0.021c0,0.001,0.041-0.021,0.041-0.021c0,0.002,0.041,0,0.041,0
			c-0.002,0.002,0.041-0.021,0.041-0.021c-0.002,0,0.041-0.021,0.041-0.021c-0.002,0,0.041-0.021,0.041-0.021
			c-0.002,0,0.021-0.021,0.021-0.021c-0.004,0,0.041-0.041,0.039-0.041s0.039-0.021,0.039-0.021l0.041-0.021l0.021-0.041
			c-0.002,0,0.041-0.021,0.041-0.021c-0.002,0,0.021-0.042,0.021-0.041c0,0,0.021-0.041,0.021-0.039c0,0,0.041-0.043,0.041-0.041
			l0.021-0.021c-0.002,0,0.021-0.043,0.021-0.041c-0.002,0,0.021-0.043,0.021-0.043c-0.002,0,0.021-0.041,0.021-0.039
			c0,0,0-0.043,0-0.039c0,0,0.021-0.043,0.021-0.041c-0.002,0,0.021-0.063,0.021-0.063c-0.002,0,0-0.041,0-0.041
			c-0.002,0,0.021-0.043,0.021-0.039c-0.002,0,0-0.043,0-0.041c0,0,0-0.043,0-0.041v-0.041v-3.957h3.949c-0.004,0,0.041,0,0.039,0
			s0.043,0,0.041,0s0.041,0,0.041,0c-0.002,0,0.041-0.021,0.041-0.021c-0.002,0,0.041-0.002,0.041,0
			c-0.002,0,0.063-0.021,0.063-0.021c-0.002,0,0.041-0.021,0.041-0.021c-0.002,0,0.041-0.001,0.041,0
			c-0.002,0,0.041-0.021,0.039-0.021c0,0,0.043-0.021,0.041-0.021c0,0.002,0.041-0.021,0.041-0.021L31.6,27.01l0.041-0.039
			l0.041-0.021c-0.002,0,0.041-0.021,0.041-0.021c-0.002,0,0.021-0.042,0.021-0.042c-0.002,0.001,0.041-0.02,0.041-0.02
			c-0.002,0,0.021-0.041,0.021-0.041c-0.002,0,0.021-0.041,0.021-0.041c-0.004,0,0.041-0.041,0.041-0.041
			c-0.004,0,0.021-0.021,0.021-0.021c-0.002,0,0.021-0.041,0.021-0.041l0.021-0.039l0.021-0.041c-0.002,0,0-0.041,0-0.041
			c-0.002,0,0.021-0.041,0.021-0.041c-0.002,0,0.021-0.062,0.021-0.062c-0.002,0,0-0.041,0-0.041c-0.002,0,0.021-0.04,0.021-0.04
			s0-0.041,0-0.039c0,0,0-0.043,0-0.041v-0.041v-4.523c0,0,0-0.04,0-0.038c0,0,0-0.043,0-0.041c0,0,0-0.041,0-0.039
			c0,0-0.021-0.043-0.021-0.041c0,0-0.002-0.041,0-0.041l-0.021-0.063l-0.021-0.04c0,0-0.002-0.041,0-0.039l-0.021-0.041
			l-0.021-0.041c0,0-0.021-0.04-0.021-0.038l-0.021-0.021c0,0-0.041-0.043-0.041-0.041l-0.021-0.041l-0.021-0.041l-0.041-0.021
			l-0.021-0.041l-0.041-0.021l-0.041-0.021c0.002,0-0.041-0.041-0.041-0.041c0.002,0-0.021-0.021-0.021-0.021
			c0.002,0-0.041-0.021-0.041-0.021c0.002,0-0.041-0.021-0.041-0.021c0.002,0-0.041-0.021-0.039-0.021c0,0.002-0.043,0-0.041,0
			c0.002,0.002-0.041-0.021-0.041-0.021c0,0.001-0.063-0.021-0.063-0.021c0,0.002-0.041,0-0.041,0
			c0.002,0.002-0.041-0.021-0.041-0.021c0.002,0-0.041,0-0.041,0c0.002,0-0.041,0-0.041,0c0.002,0-0.041,0-0.039,0h-3.963v-3.959
			v-0.041v-0.039c0,0-0.002-0.041,0-0.04c0,0-0.021-0.042-0.021-0.04c0,0,0-0.043,0-0.041l-0.021-0.063c0,0-0.021-0.043-0.021-0.041
			c0,0-0.002-0.041,0-0.041l-0.021-0.041l-0.021-0.039l-0.021-0.041l-0.021-0.021c0,0-0.043-0.041-0.041-0.041l-0.021-0.04
			l-0.021-0.04c0,0-0.041-0.021-0.039-0.021l-0.021-0.041c0,0-0.041-0.021-0.041-0.02c0,0-0.041-0.021-0.041-0.02
			c0.002,0-0.041-0.043-0.041-0.041c0.002,0-0.021-0.021-0.021-0.021c0.001,0-0.042-0.021-0.04-0.021c0,0-0.041-0.021-0.041-0.02
			c0.003,0-0.041-0.021-0.041-0.021c0.003,0-0.041,0-0.041,0c0.003,0-0.04-0.021-0.038-0.021l-0.063-0.02c0,0-0.043,0-0.041,0
			l-0.039-0.019c0.002,0-0.041,0-0.039,0c0,0-0.043,0-0.041,0s-0.043,0-0.041,0h-4.479c0.002,0-0.043,0-0.041,0s-0.043,0-0.041,0
			c0,0-0.01,0-0.021,0c0,0-0.016,0-0.021,0c0.002,0-0.041,0-0.039,0c-0.017,0-0.029,0-0.041,0v-0.001L21.556,15.99L21.556,15.99z"/>
		<path id="rect4855-4_6_" fill="#6FBD46" d="M21.726,16.878v4.847h-4.847v4.523h4.847v4.849h4.523v-4.849h4.848v-4.523h-4.848
			v-4.847H21.726z"/>
		
			<linearGradient id="path4903-3_1_" gradientUnits="userSpaceOnUse" x1="-3078.3828" y1="2759.0684" x2="-3065.291" y2="2759.0684" gradientTransform="matrix(0 -1 1 0 -2735.0791 -3047.8477)">
			<stop  offset="0" style="stop-color:#AED58A"/>
			<stop  offset="1" style="stop-color:#1E9046"/>
		</linearGradient>
		<path id="path4903-3_6_" fill="url(#path4903-3_1_)" d="M22.29,17.443v4.85h-4.846v3.395h4.846v4.848h3.395v-4.848h4.85v-3.395
			h-4.85v-4.85H22.29z"/>
	</g>
</g>
</svg>
