<?xml version="1.0" encoding="utf-8"?>
<!-- Generator: Adobe Illustrator 14.0.0, SVG Export Plug-In . SVG Version: 6.00 Build 43363)  -->
<!DOCTYPE svg PUBLIC "-//W3C//DTD SVG 1.1//EN" "http://www.w3.org/Graphics/SVG/1.1/DTD/svg11.dtd">
<svg version="1.1"
	 id="svg9547" sodipodi:docbase="C:\Radix\dev\trunk\org.radixware\kernel\designer\src\common.resources\src\org\radixware\kernel\designer\resources\icons\create" sodipodi:docname="new_document.svg" inkscape:version="0.45.1" sodipodi:version="0.32" inkscape:output_extension="org.inkscape.output.svg.inkscape" xmlns:ns="http://creativecommons.org/ns#" xmlns:dc="http://purl.org/dc/elements/1.1/" xmlns:cc="http://web.resource.org/cc/" xmlns:rdf="http://www.w3.org/1999/02/22-rdf-syntax-ns#" xmlns:svg="http://www.w3.org/2000/svg" xmlns:sodipodi="http://sodipodi.sourceforge.net/DTD/sodipodi-0.dtd" xmlns:inkscape="http://www.inkscape.org/namespaces/inkscape"
	 xmlns="http://www.w3.org/2000/svg" xmlns:xlink="http://www.w3.org/1999/xlink" x="0px" y="0px" width="32px" height="32px"
	 viewBox="48 48 32 32" enable-background="new 48 48 32 32" xml:space="preserve">
<path id="path2924_13_" fill="#020202" d="M52.923,80c-0.583,0-1.055-0.469-1.055-1.057V49.055c0-0.582,0.472-1.055,1.055-1.055
	h15.128c0.282,0,0.551,0.109,0.746,0.311l7.026,7.025c0.198,0.198,0.309,0.466,0.309,0.746v22.861c0,0.589-0.471,1.056-1.055,1.056
	L52.923,80L52.923,80z"/>
<polygon id="polygon2926_13_" fill="#02ABD8" points="68.051,49.056 52.923,49.056 52.923,78.944 75.077,78.944 75.077,56.082 "/>
<polygon id="polygon2928_13_" fill="#FFFFFF" points="73.099,55.209 73.099,76.835 54.9,76.835 54.9,51.164 69.055,51.164 
	70.988,53.361 "/>
<path id="path2930_13_" fill="#020202" d="M68.051,57.136c-0.583,0-1.054-0.472-1.054-1.055v-7.026c0-0.426,0.257-0.812,0.649-0.975
	c0.133-0.055,0.269-0.08,0.404-0.08c0.276,0,0.547,0.107,0.746,0.311l7.026,7.025c0.301,0.303,0.392,0.756,0.229,1.15
	c-0.161,0.395-0.55,0.65-0.975,0.65L68.051,57.136L68.051,57.136z"/>
<polygon id="polygon2932_13_" fill="#02ABD8" points="68.051,56.081 75.077,56.081 68.051,49.055 "/>
</svg>
