<?xml version="1.0" encoding="UTF-8" standalone="no"?>
<!-- Generator: Adobe Illustrator 14.0.0, SVG Export Plug-In . SVG Version: 6.00 Build 43363)  -->

<svg
   xmlns:dc="http://purl.org/dc/elements/1.1/"
   xmlns:cc="http://creativecommons.org/ns#"
   xmlns:rdf="http://www.w3.org/1999/02/22-rdf-syntax-ns#"
   xmlns:svg="http://www.w3.org/2000/svg"
   xmlns="http://www.w3.org/2000/svg"
   xmlns:sodipodi="http://sodipodi.sourceforge.net/DTD/sodipodi-0.dtd"
   xmlns:inkscape="http://www.inkscape.org/namespaces/inkscape"
   version="1.1"
   id="Layer_1"
   x="0px"
   y="0px"
   width="32px"
   height="32px"
   viewBox="0 0 32 32"
   enable-background="new 0 0 32 32"
   xml:space="preserve"
   inkscape:version="0.47pre4 "
   sodipodi:docname="unit_stop.svg"><metadata
   id="metadata3086"><rdf:RDF><cc:Work
       rdf:about=""><dc:format>image/svg+xml</dc:format><dc:type
         rdf:resource="http://purl.org/dc/dcmitype/StillImage" /></cc:Work></rdf:RDF></metadata><defs
   id="defs3084"><inkscape:perspective
     sodipodi:type="inkscape:persp3d"
     inkscape:vp_x="0 : 16 : 1"
     inkscape:vp_y="0 : 1000 : 0"
     inkscape:vp_z="32 : 16 : 1"
     inkscape:persp3d-origin="16 : 10.666667 : 1"
     id="perspective3088" /></defs><sodipodi:namedview
   pagecolor="#ffffff"
   bordercolor="#666666"
   borderopacity="1"
   objecttolerance="10"
   gridtolerance="10"
   guidetolerance="10"
   inkscape:pageopacity="0"
   inkscape:pageshadow="2"
   inkscape:window-width="640"
   inkscape:window-height="480"
   id="namedview3082"
   showgrid="false"
   inkscape:zoom="7.4375"
   inkscape:cx="16"
   inkscape:cy="16"
   inkscape:window-x="0"
   inkscape:window-y="0"
   inkscape:window-maximized="0"
   inkscape:current-layer="Layer_1" />


<linearGradient
   id="SVGID_1_"
   gradientUnits="userSpaceOnUse"
   x1="1.3491"
   y1="23.5293"
   x2="20.2324"
   y2="23.5293">
	<stop
   offset="0"
   style="stop-color:#FFF3DF"
   id="stop3033" />
	<stop
   offset="0.5394"
   style="stop-color:#F9A620"
   id="stop3035" />
	<stop
   offset="1"
   style="stop-color:#A36628"
   id="stop3037" />
</linearGradient>



<linearGradient
   id="SVGID_2_"
   gradientUnits="userSpaceOnUse"
   x1="1.3486"
   y1="10.7905"
   x2="15.5908"
   y2="10.7905">
	<stop
   offset="0"
   style="stop-color:#FFF3DF"
   id="stop3046" />
	<stop
   offset="0.5394"
   style="stop-color:#F9A620"
   id="stop3048" />
	<stop
   offset="1"
   style="stop-color:#A36628"
   id="stop3050" />
</linearGradient>



<linearGradient
   id="SVGID_3_"
   gradientUnits="userSpaceOnUse"
   x1="11.4629"
   y1="8.4702"
   x2="30.3467"
   y2="8.4702">
	<stop
   offset="0"
   style="stop-color:#FFF3DF"
   id="stop3059" />
	<stop
   offset="0.5394"
   style="stop-color:#F9A620"
   id="stop3061" />
	<stop
   offset="1"
   style="stop-color:#A36628"
   id="stop3063" />
</linearGradient>

<g
   id="g3090"><path
     id="path3028"
     d="M5.183,15.06c2.464,0,2.843,0.233,3.082,0.539c0.88,1.135,0.302,1.865-0.081,2.35c-0.284,0.36-0.554,0.699-0.579,1.356  c-0.014,0.37,0.126,0.729,0.397,1.006c0.296,0.311,0.714,0.486,1.15,0.486c0.838,0,1.517-0.678,1.545-1.542  c0.011-0.291-0.199-0.687-0.402-1.065c-0.386-0.728-0.973-1.821,0.057-2.74c0.218-0.191,0.439-0.302,2.473-0.302  c0.854,0,1.812,0.022,2.518,0.042c0.178,0.006,0.349,0.081,0.471,0.211c0.124,0.132,0.188,0.306,0.185,0.486  c-0.097,2.796-0.075,4.464-0.013,4.947c0.056,0.038,0.094,0.038,0.121,0.038c0.208,0,0.55-0.183,0.882-0.357  c0.494-0.264,1.054-0.564,1.682-0.564c1.66,0.059,2.911,1.33,2.911,2.897c0,1.598-1.252,2.898-2.791,2.898l-0.1-0.001  c-1.098-0.042-1.729-0.541-2.145-0.869c-0.116-0.094-0.311-0.247-0.369-0.251c0,0-0.063,0-0.212,0.102  c-0.195,0.714-0.134,3.888,0.038,6.555c0.015,0.187-0.053,0.368-0.179,0.505C15.695,31.923,15.518,32,15.329,32H0.675  C0.302,32,0,31.698,0,31.326V15.897c0-0.356,0.277-0.651,0.629-0.675c0.024-0.002,2.528-0.163,4.55-0.163H5.183z" /><path
     id="path3030"
     d="M15.329,31.326c0,0-0.434-6.63,0.118-7.058c1.315-1.022,1.345,0.73,3.265,0.802  c1.214,0.043,2.193-0.995,2.193-2.223c0-1.227-0.98-2.179-2.192-2.221c-1.191-0.042-2.39,1.624-3.324,0.57  c-0.225-0.253-0.101-4.338-0.065-5.333c-1.548-0.044-4.315-0.094-4.524,0.091c-1.05,0.937,0.616,2.134,0.574,3.324  c-0.042,1.212-0.994,2.193-2.22,2.193c-1.228,0-2.266-0.981-2.223-2.193c0.071-1.921,1.823-1.951,0.803-3.266  c-0.43-0.552-7.058-0.116-7.058-0.116v15.429H15.329z"
     fill="#FAA820" /><path
     id="path3039"
     d="M5.183,16.408c1.406,0,1.923,0.083,2.092,0.123c0.098,0.147,0.101,0.209,0.101,0.211  c-0.004,0.056-0.158,0.253-0.25,0.368c-0.329,0.417-0.829,1.047-0.869,2.145c-0.028,0.739,0.247,1.445,0.772,1.992  c0.551,0.572,1.324,0.898,2.123,0.898c1.568,0,2.838-1.248,2.896-2.841c0.021-0.657-0.289-1.238-0.562-1.75  c-0.359-0.674-0.409-0.871-0.323-1.001c0.172-0.022,0.611-0.056,1.662-0.056c0.592,0,1.232,0.012,1.805,0.022  c-0.144,4.677,0.06,4.906,0.257,5.127c0.333,0.376,0.757,0.575,1.222,0.575c0.546,0,1.038-0.263,1.516-0.519  c0.372-0.198,0.756-0.402,1.047-0.402c0.884,0.028,1.563,0.71,1.563,1.547c0,0.839-0.662,1.55-1.443,1.55  c-0.708-0.025-1.047-0.296-1.406-0.582c-0.321-0.254-0.687-0.542-1.207-0.542c-0.368,0-0.744,0.15-1.143,0.462  c-0.261,0.202-0.794,0.619-0.422,6.915H1.349v-14.12c0.864-0.048,2.463-0.123,3.831-0.123H5.183z"
     fill="url(#SVGID_1_)" /><path
     id="path3041"
     d="M16.94,5.183c0,2.465-0.234,2.844-0.54,3.082c-1.134,0.881-1.865,0.302-2.349-0.081c-0.361-0.284-0.7-0.555-1.355-0.579  c-0.372-0.014-0.73,0.126-1.007,0.396c-0.311,0.297-0.485,0.715-0.485,1.15c0,0.838,0.677,1.517,1.541,1.546  c0.292,0.011,0.687-0.199,1.066-0.402c0.727-0.387,1.822-0.973,2.739,0.057c0.192,0.218,0.303,0.438,0.303,2.473  c0,0.854-0.022,1.812-0.042,2.519c-0.005,0.177-0.081,0.349-0.211,0.471c-0.132,0.123-0.306,0.188-0.486,0.184  c-2.796-0.097-4.464-0.075-4.948-0.012c-0.039,0.055-0.039,0.093-0.039,0.121c0,0.207,0.183,0.55,0.358,0.882  c0.263,0.494,0.563,1.054,0.563,1.681c-0.058,1.661-1.329,2.911-2.896,2.911c-1.598,0-2.899-1.252-2.899-2.791l0.001-0.1  c0.042-1.098,0.541-1.728,0.87-2.145c0.093-0.115,0.247-0.311,0.251-0.369c0,0-0.001-0.063-0.102-0.213  c-0.714-0.194-3.888-0.133-6.555,0.04c-0.186,0.013-0.368-0.054-0.505-0.181C0.077,15.694,0,15.518,0,15.329V0.675  C0,0.302,0.302,0,0.674,0h15.429c0.355,0,0.65,0.277,0.673,0.63c0.002,0.023,0.164,2.528,0.164,4.55V5.183z" /><path
     id="path3043"
     d="M0.674,15.329c0,0,6.629-0.433,7.058,0.118c1.022,1.315-0.73,1.345-0.803,3.266  c-0.043,1.212,0.996,2.193,2.224,2.193c1.227,0,2.177-0.981,2.22-2.193c0.042-1.191-1.624-2.389-0.571-3.324  c0.253-0.225,4.338-0.1,5.333-0.064c0.044-1.549,0.094-4.316-0.092-4.524c-0.936-1.05-2.133,0.615-3.324,0.573  c-1.21-0.042-2.191-0.994-2.191-2.22c0-1.228,0.981-2.267,2.191-2.224c1.922,0.071,1.951,1.823,3.267,0.803  c0.552-0.43,0.117-7.058,0.117-7.058H0.674V15.329z"
     fill="#FAA820" /><path
     id="path3052"
     d="M15.591,5.183c0,1.406-0.082,1.923-0.122,2.093c-0.147,0.098-0.209,0.101-0.211,0.101  c-0.057-0.004-0.253-0.158-0.369-0.25c-0.416-0.329-1.046-0.829-2.143-0.869c-0.74-0.028-1.446,0.246-1.993,0.771  C10.181,7.58,9.854,8.353,9.854,9.151c0,1.567,1.248,2.838,2.842,2.896c0.656,0.021,1.237-0.289,1.749-0.563  c0.674-0.359,0.87-0.409,1.001-0.323c0.022,0.173,0.057,0.611,0.057,1.662c0,0.592-0.013,1.232-0.024,1.805  c-4.676-0.144-4.905,0.059-5.126,0.257c-0.376,0.334-0.575,0.757-0.575,1.222c0,0.547,0.264,1.038,0.519,1.517  c0.198,0.372,0.402,0.756,0.402,1.046c-0.028,0.885-0.709,1.563-1.547,1.563c-0.838,0-1.549-0.662-1.549-1.443  c0.024-0.708,0.296-1.046,0.581-1.407c0.254-0.32,0.543-0.686,0.543-1.205c0-0.37-0.151-0.745-0.462-1.144  c-0.203-0.26-0.619-0.794-6.916-0.422V1.349h14.12c0.047,0.864,0.122,2.463,0.122,3.831V5.183z"
     fill="url(#SVGID_2_)" /><path
     id="path3054"
     d="M26.513,16.94c-2.465,0-2.843-0.233-3.081-0.539c-0.881-1.135-0.302-1.864,0.081-2.35c0.283-0.359,0.554-0.698,0.578-1.355  c0.015-0.37-0.126-0.729-0.396-1.006c-0.296-0.312-0.714-0.486-1.149-0.486c-0.838,0-1.517,0.678-1.546,1.542  c-0.011,0.291,0.199,0.687,0.402,1.065c0.387,0.728,0.973,1.82-0.056,2.739c-0.218,0.191-0.439,0.302-2.473,0.302  c-0.854,0-1.813-0.022-2.52-0.042c-0.178-0.005-0.348-0.081-0.471-0.211c-0.123-0.132-0.188-0.306-0.185-0.486  c0.097-2.795,0.075-4.464,0.013-4.946c-0.055-0.039-0.094-0.039-0.121-0.039c-0.208,0-0.55,0.183-0.881,0.358  c-0.495,0.264-1.054,0.563-1.682,0.563c-1.661-0.058-2.911-1.329-2.911-2.896c0-1.598,1.252-2.898,2.791-2.898l0.1,0.001  c1.097,0.042,1.728,0.541,2.144,0.869c0.116,0.093,0.311,0.247,0.369,0.251c0,0,0.063-0.001,0.212-0.102  c0.195-0.714,0.134-3.889-0.038-6.555c-0.015-0.187,0.053-0.368,0.179-0.505C16,0.077,16.178,0,16.366,0h14.654  c0.374,0,0.675,0.303,0.675,0.675v15.428c0,0.356-0.277,0.651-0.63,0.675c-0.023,0.002-2.527,0.163-4.55,0.163H26.513z" /><path
     id="path3056"
     d="M16.366,0.675c0,0,0.434,6.629-0.118,7.058c-1.315,1.022-1.345-0.73-3.264-0.803  c-1.213-0.043-2.193,0.996-2.193,2.224c0,1.227,0.98,2.179,2.192,2.221c1.191,0.042,2.389-1.624,3.325-0.57  c0.225,0.253,0.101,4.337,0.065,5.332c1.547,0.044,4.315,0.094,4.523-0.091c1.051-0.937-0.615-2.133-0.573-3.324  c0.042-1.211,0.994-2.192,2.22-2.192c1.227,0,2.266,0.981,2.223,2.192c-0.071,1.921-1.822,1.951-0.803,3.267  c0.431,0.551,7.058,0.115,7.058,0.115V0.675H16.366z"
     fill="#FAA820" /><path
     id="path3065"
     d="M26.513,15.592c-1.405,0-1.923-0.083-2.093-0.123c-0.098-0.147-0.101-0.209-0.101-0.211  c0.005-0.056,0.158-0.253,0.25-0.368c0.33-0.416,0.829-1.047,0.869-2.144c0.028-0.74-0.246-1.445-0.771-1.992  c-0.552-0.572-1.323-0.899-2.122-0.899c-1.568,0-2.838,1.249-2.896,2.842c-0.021,0.657,0.289,1.238,0.563,1.749  c0.359,0.674,0.409,0.871,0.323,1.001c-0.172,0.022-0.611,0.056-1.661,0.056c-0.593,0-1.234-0.012-1.807-0.022  c0.144-4.676-0.06-4.905-0.257-5.127c-0.333-0.376-0.757-0.575-1.222-0.575c-0.546,0-1.038,0.264-1.515,0.52  c-0.373,0.198-0.756,0.402-1.047,0.402c-0.884-0.028-1.563-0.71-1.563-1.548s0.662-1.549,1.444-1.549  c0.708,0.024,1.046,0.296,1.406,0.581c0.322,0.254,0.686,0.543,1.207,0.543c0.368,0,0.744-0.151,1.143-0.462  c0.261-0.203,0.794-0.619,0.422-6.916h13.263v14.12c-0.864,0.048-2.463,0.123-3.831,0.123H26.513z"
     fill="url(#SVGID_3_)" /><g
     id="g3067">
	<circle
   id="circle3069"
   r="9.501"
   cy="22.003"
   cx="22"
   fill="#FFFFFF" />
	<path
   id="path3071"
   d="M22,32c-5.515,0-10-4.484-10-10c0-5.514,4.485-10,10-10c5.516,0,10,4.486,10,10C32,27.516,27.516,32,22,32   L22,32z M27.625,23.719v-3.125h-11.25v3.125H27.625z"
   fill="#231F20" />
	<path
   id="path3073"
   d="M22,12.625c-5.179,0-9.375,4.197-9.375,9.375s4.198,9.375,9.377,9.375s9.375-4.197,9.375-9.375   C31.375,16.822,27.179,12.625,22,12.625z M28.25,24.344h-12.5v-4.375h12.5V24.344z"
   fill="#ED2828" />
	
		<linearGradient
   gradientTransform="matrix(1 0 0 1 -279.0801 -1092.6797)"
   y2="1114.6797"
   x2="309.8301"
   y1="1114.6797"
   x1="292.3301"
   gradientUnits="userSpaceOnUse"
   id="SVGID_4_">
		<stop
   id="stop3076"
   style="stop-color:#F49599"
   offset="0" />
		<stop
   id="stop3078"
   style="stop-color:#8E1B1E"
   offset="1" />
	</linearGradient>
	<path
   id="path3080"
   d="M22,30.75c-4.824,0-8.75-3.924-8.75-8.75s3.926-8.75,8.75-8.75c4.826,0,8.75,3.924,8.75,8.75   S26.826,30.75,22,30.75L22,30.75z M15.125,24.969h13.75v-5.625h-13.75V24.969z"
   fill="url(#SVGID_4_)" />
</g></g>
</svg>