<?xml version="1.0" encoding="utf-8"?>
<!-- Generator: Adobe Illustrator 14.0.0, SVG Export Plug-In . SVG Version: 6.00 Build 43363)  -->
<!DOCTYPE svg PUBLIC "-//W3C//DTD SVG 1.1//EN" "http://www.w3.org/Graphics/SVG/1.1/DTD/svg11.dtd">
<svg version="1.1" id="Layer_1" xmlns="http://www.w3.org/2000/svg" xmlns:xlink="http://www.w3.org/1999/xlink" x="0px" y="0px"
	 width="32px" height="32px" viewBox="0 0 32 32" enable-background="new 0 0 32 32" xml:space="preserve">
<g>
	<path id="path2924" fill="#020202" d="M1,30.252c-0.553,0-1-0.445-1-1V0.92c0-0.552,0.447-1,1-1h14.34
		c0.268,0,0.521,0.104,0.707,0.293l6.66,6.66C22.895,7.062,23,7.314,23,7.58v21.671c0,0.556-0.447,1-1,1L1,30.252L1,30.252z"/>
	<polygon id="polygon2926" fill="#03ADDB" points="15.34,0.92 1,0.92 1,29.252 22,29.252 22,7.58 	"/>
	<polygon id="polygon2928" fill="#FFFFFF" points="20.08,6.673 20.08,27.172 2.83,27.172 2.83,2.839 16.246,2.839 18.08,4.923 	"/>
	<path id="path2930" fill="#020202" d="M15.34,8.58c-0.553,0-1-0.448-1-1V0.92c0-0.404,0.244-0.77,0.617-0.924
		c0.125-0.052,0.254-0.076,0.383-0.076c0.262,0,0.518,0.103,0.707,0.293l6.66,6.66c0.285,0.286,0.371,0.716,0.217,1.091
		C22.77,8.337,22.402,8.58,22,8.58H15.34z"/>
	<polygon id="polygon2932" fill="#03ADDB" points="15.34,7.58 22,7.58 15.34,0.92 	"/>
</g>
<g>
	<g>
		<path d="M13.16,26.236c0-2.741,0.26-3.162,0.6-3.428c1.262-0.979,2.074-0.336,2.613,0.09c0.4,0.316,0.777,0.617,1.508,0.645
			c0.412,0.016,0.811-0.141,1.119-0.441c0.346-0.33,0.541-0.795,0.541-1.279c0-0.932-0.754-1.687-1.715-1.719
			c-0.324-0.013-0.762,0.222-1.186,0.447c-0.808,0.43-2.025,1.082-3.045-0.063c-0.215-0.242-0.336-0.488-0.336-2.75
			c0-0.949,0.023-2.015,0.045-2.8c0.006-0.198,0.092-0.388,0.236-0.524c0.144-0.136,0.34-0.21,0.539-0.205
			c3.11,0.108,4.965,0.084,5.504,0.014c0.043-0.062,0.043-0.104,0.043-0.135c0-0.231-0.203-0.612-0.399-0.979
			c-0.293-0.551-0.627-1.172-0.627-1.871C18.664,9.391,20.078,8,21.822,8c1.777,0,3.223,1.393,3.223,3.104l-0.002,0.111
			c-0.047,1.221-0.6,1.922-0.967,2.385c-0.102,0.129-0.273,0.346-0.279,0.411c0,0,0.002,0.07,0.113,0.236
			c0.795,0.217,4.326,0.148,7.291-0.044c0.207-0.015,0.41,0.059,0.561,0.2C31.914,14.546,32,14.743,32,14.952V31.25
			c0,0.415-0.336,0.75-0.75,0.75H14.092c-0.395,0-0.725-0.309-0.75-0.7c-0.002-0.026-0.182-2.812-0.182-5.061V26.236z"/>
		<path fill="#FAA820" d="M31.25,14.952c0,0-7.373,0.481-7.85-0.131c-1.137-1.464,0.813-1.495,0.893-3.632
			c0.049-1.348-1.107-2.439-2.471-2.439c-1.365,0-2.424,1.092-2.471,2.439c-0.045,1.324,1.807,2.656,0.635,3.696
			c-0.281,0.25-4.824,0.111-5.932,0.072c-0.049,1.723-0.104,4.8,0.102,5.031c1.041,1.168,2.373-0.686,3.697-0.639
			c1.346,0.049,2.438,1.106,2.438,2.471c0,1.365-1.092,2.52-2.438,2.472c-2.138-0.079-2.17-2.028-3.633-0.892
			c-0.613,0.478-0.129,7.849-0.129,7.849H31.25V14.952z"/>
		
			<linearGradient id="SVGID_1_" gradientUnits="userSpaceOnUse" x1="400.4844" y1="203.9316" x2="421.4863" y2="203.9316" gradientTransform="matrix(0 1 1 0 -181.3506 -390.9863)">
			<stop  offset="0" style="stop-color:#FFF3E0"/>
			<stop  offset="0.5394" style="stop-color:#FAA820"/>
			<stop  offset="1" style="stop-color:#A56629"/>
		</linearGradient>
		<path fill="url(#SVGID_1_)" d="M14.66,26.236c0-1.563,0.092-2.139,0.137-2.327c0.164-0.109,0.232-0.112,0.234-0.112
			c0.064,0.005,0.281,0.176,0.41,0.278c0.463,0.366,1.165,0.922,2.385,0.967c0.822,0.031,1.609-0.274,2.215-0.858
			c0.637-0.613,1-1.473,1-2.361c0-1.743-1.389-3.156-3.16-3.221c-0.73-0.023-1.377,0.321-1.947,0.625
			c-0.748,0.399-0.967,0.455-1.113,0.359c-0.025-0.191-0.061-0.68-0.061-1.848c0-0.659,0.012-1.371,0.025-2.007
			c5.201,0.159,5.455-0.066,5.701-0.286c0.418-0.371,0.641-0.841,0.641-1.358c0-0.608-0.293-1.155-0.578-1.687
			c-0.221-0.414-0.447-0.84-0.447-1.164c0.031-0.984,0.789-1.738,1.722-1.738c0.932,0,1.723,0.736,1.723,1.605
			c-0.026,0.787-0.33,1.164-0.646,1.566c-0.283,0.355-0.604,0.762-0.604,1.341c0,0.411,0.168,0.828,0.515,1.271
			c0.225,0.29,0.688,0.883,7.69,0.469V30.5H14.797c-0.053-0.961-0.137-2.739-0.137-4.261V26.236z"/>
	</g>
</g>
</svg>
