<?xml version="1.0" encoding="utf-8"?>
<!-- Generator: Adobe Illustrator 14.0.0, SVG Export Plug-In . SVG Version: 6.00 Build 43363)  -->
<!DOCTYPE svg PUBLIC "-//W3C//DTD SVG 1.1//EN" "http://www.w3.org/Graphics/SVG/1.1/DTD/svg11.dtd">
<svg version="1.1" id="Layer_1" xmlns="http://www.w3.org/2000/svg" xmlns:xlink="http://www.w3.org/1999/xlink" x="0px" y="0px"
	 width="32px" height="32px" viewBox="0 0 32 32" enable-background="new 0 0 32 32" xml:space="preserve">
<g>
	<path fill="#010101" d="M8.572,32c-0.552,0-1-0.447-1-1V1c0-0.552,0.448-1,1-1H31c0.553,0,1,0.448,1,1v22.684
		c0,0.267-0.104,0.521-0.293,0.707l-7.314,7.316C24.204,31.895,23.951,32,23.686,32H8.572z"/>
	<path fill="#03ADDB" d="M31,23.684V1H8.572v30h15.113L31,23.684z M29.463,1.977c0.487,0,0.883,0.396,0.883,0.882
		c0,0.487-0.396,0.882-0.883,0.882s-0.881-0.395-0.881-0.882S28.976,1.977,29.463,1.977z M26.549,1.977
		c0.485,0,0.881,0.396,0.881,0.882c0,0.487-0.396,0.882-0.881,0.882c-0.489,0-0.885-0.395-0.885-0.882S26.06,1.977,26.549,1.977z
		 M10.604,3.741c-0.487,0-0.883-0.396-0.883-0.882c0-0.487,0.396-0.883,0.883-0.883s0.882,0.396,0.882,0.883
		S11.09,3.741,10.604,3.741z M13.793,3.741c-0.488,0-0.884-0.396-0.884-0.882c0-0.487,0.396-0.883,0.884-0.883
		c0.486,0,0.881,0.396,0.881,0.883S14.279,3.741,13.793,3.741z M16.981,3.741c-0.487,0-0.882-0.396-0.882-0.882
		c0-0.487,0.395-0.883,0.882-0.883s0.882,0.396,0.882,0.883C17.862,3.346,17.467,3.741,16.981,3.741z M20.17,3.741
		c-0.488,0-0.883-0.396-0.883-0.882c0-0.487,0.395-0.883,0.883-0.883c0.487,0,0.883,0.396,0.883,0.883S20.657,3.741,20.17,3.741z
		 M22.477,2.858c0-0.487,0.395-0.882,0.881-0.882c0.49,0,0.884,0.396,0.884,0.882c0,0.487-0.394,0.882-0.884,0.882
		C22.87,3.741,22.477,3.346,22.477,2.858z"/>
	<polygon fill="#FFF3E1" points="29.854,23.971 29.854,4.811 9.719,4.811 9.719,29.852 23.685,29.852 	"/>
	<line fill="none" stroke="#939598" stroke-width="1.148" x1="10.862" y1="8.043" x2="28.943" y2="8.043"/>
	<line fill="none" stroke="#939598" stroke-width="1.148" x1="10.862" y1="12.29" x2="28.943" y2="12.29"/>
	<line fill="none" stroke="#939598" stroke-width="1.148" x1="10.862" y1="16.536" x2="28.943" y2="16.536"/>
	<line fill="none" stroke="#939598" stroke-width="1.148" x1="10.862" y1="20.784" x2="28.943" y2="20.784"/>
	<line fill="none" stroke="#939598" stroke-width="1.148" x1="10.862" y1="25.032" x2="26.865" y2="25.032"/>
	<path fill="#010101" d="M23.686,32c-0.129,0-0.26-0.023-0.383-0.076c-0.373-0.154-0.617-0.52-0.617-0.924v-7.316
		c0-0.553,0.447-1,1-1H31c0.404,0,0.771,0.244,0.924,0.617c0.155,0.375,0.069,0.805-0.217,1.09l-7.314,7.316
		C24.2,31.899,23.944,32,23.686,32L23.686,32z"/>
	<polygon fill="#03ADDB" points="23.686,31 31,23.684 23.686,23.684 	"/>
	
		<linearGradient id="SVGID_1_" gradientUnits="userSpaceOnUse" x1="222.2852" y1="-315.5352" x2="226.1855" y2="-315.5352" gradientTransform="matrix(1 0 0 -1 -197.5996 -288.9004)">
		<stop  offset="0" style="stop-color:#B2D3DC"/>
		<stop  offset="1" style="stop-color:#157DA0"/>
	</linearGradient>
	<polygon fill="url(#SVGID_1_)" points="24.686,24.684 28.586,24.684 24.686,28.586 	"/>
</g>
<g>
	<g>
		<g>
			<path fill="#010101" d="M7.387,20.215C3.315,20.215,0,15.68,0,10.107C0.001,4.533,3.315,0,7.387,0
				c4.072,0,7.388,4.533,7.388,10.107C14.774,15.68,11.46,20.215,7.387,20.215L7.387,20.215z"/>
			<line fill="none" stroke="#010101" x1="8.812" y1="19.59" x2="8.812" y2="32"/>
			<path fill="#010101" d="M5.335,23.09c-0.285,0-0.549-0.148-0.697-0.391c-0.149-0.242-0.164-0.543-0.037-0.797l2.054-4.105
				c0.141-0.279,0.422-0.453,0.733-0.453c0.313,0,0.595,0.174,0.734,0.453l2.053,4.105c0.127,0.254,0.113,0.555-0.035,0.797
				C9.99,22.941,9.726,23.09,9.441,23.09H5.335z"/>
			
				<linearGradient id="SVGID_2_" gradientUnits="userSpaceOnUse" x1="202.9346" y1="-477.1152" x2="207.04" y2="-477.1152" gradientTransform="matrix(1 0 0 -1 -197.5996 -456.8984)">
				<stop  offset="0" style="stop-color:#F5969A"/>
				<stop  offset="1" style="stop-color:#8F1D1E"/>
			</linearGradient>
			<polygon fill="url(#SVGID_2_)" points="9.44,22.27 5.335,22.27 7.387,18.164 7.387,18.164 			"/>
			<ellipse fill="#ED2C2A" cx="7.387" cy="10.107" rx="6.566" ry="9.287"/>
			
				<linearGradient id="SVGID_3_" gradientUnits="userSpaceOnUse" x1="199.2402" y1="-467.0078" x2="210.7324" y2="-467.0078" gradientTransform="matrix(1 0 0 -1 -197.5996 -456.9004)">
				<stop  offset="0" style="stop-color:#F5969A"/>
				<stop  offset="1" style="stop-color:#8F1D1E"/>
			</linearGradient>
			<path fill="url(#SVGID_3_)" d="M7.387,18.574c-3.166,0-5.746-3.799-5.746-8.467s2.58-8.467,5.746-8.467
				c3.168,0,5.746,3.799,5.746,8.467C13.134,14.775,10.555,18.574,7.387,18.574L7.387,18.574z"/>
			<line fill="none" stroke="#010101" x1="5.964" y1="19.59" x2="8.812" y2="19.59"/>
		</g>
		
			<radialGradient id="SVGID_4_" cx="203.5645" cy="-463.5903" r="3.4377" gradientTransform="matrix(1 0 0 -1 -197.5996 -456.9004)" gradientUnits="userSpaceOnUse">
			<stop  offset="0" style="stop-color:#FFFFFF"/>
			<stop  offset="0.0896" style="stop-color:#FFFFFF;stop-opacity:0.9104"/>
			<stop  offset="1" style="stop-color:#FFFFFF;stop-opacity:0"/>
		</radialGradient>
		<circle fill="url(#SVGID_4_)" cx="5.964" cy="6.69" r="3.438"/>
	</g>
</g>
</svg>
