<?xml version="1.0" encoding="utf-8"?>
<!-- Generator: Adobe Illustrator 14.0.0, SVG Export Plug-In . SVG Version: 6.00 Build 43363)  -->
<!DOCTYPE svg PUBLIC "-//W3C//DTD SVG 1.1//EN" "http://www.w3.org/Graphics/SVG/1.1/DTD/svg11.dtd">
<svg version="1.1" id="Layer_1" xmlns="http://www.w3.org/2000/svg" xmlns:xlink="http://www.w3.org/1999/xlink" x="0px" y="0px"
	 width="32px" height="32px" viewBox="0 0 32 32" enable-background="new 0 0 32 32" xml:space="preserve">
<g>
	<g>
		<path id="path4760_4_" fill="#020202" d="M17.068,32c-1.392,0-2.524-1.133-2.524-2.526V2.522c0-1.39,1.13-2.522,2.524-2.522
			h12.408C30.868,0.001,32,1.133,32,2.522v26.954C32,30.867,30.869,32,29.477,32H17.068L17.068,32z"/>
		
			<linearGradient id="rect24553_1_" gradientUnits="userSpaceOnUse" x1="855.3027" y1="-1437.999" x2="870.6436" y2="-1437.999" gradientTransform="matrix(1 0 0 -1 -839.7002 -1422.1992)">
			<stop  offset="0" style="stop-color:#BEDBEA"/>
			<stop  offset="0.0164" style="stop-color:#B7D0E0"/>
			<stop  offset="0.043" style="stop-color:#A3BBC7"/>
			<stop  offset="0.0667" style="stop-color:#89A1AE"/>
			<stop  offset="0.5455" style="stop-color:#BEDBEA"/>
			<stop  offset="0.5614" style="stop-color:#C2DCEB"/>
			<stop  offset="0.6708" style="stop-color:#DAEBF1"/>
			<stop  offset="0.7715" style="stop-color:#ECF6F9"/>
			<stop  offset="0.8545" style="stop-color:#EFF8F9"/>
			<stop  offset="0.8593" style="stop-color:#EFF8F8"/>
			<stop  offset="0.8965" style="stop-color:#E8F5F7"/>
			<stop  offset="1" style="stop-color:#E7F4F7"/>
		</linearGradient>
		<path id="rect24553_5_" fill="url(#rect24553_1_)" d="M17.068,0.857h12.408c0.811,0,1.467,0.657,1.467,1.469v26.95
			c0,0.813-0.656,1.468-1.467,1.468H17.068c-0.813,0-1.466-0.655-1.466-1.468V2.325C15.602,1.515,16.258,0.857,17.068,0.857z"/>
		
			<linearGradient id="rect24579_1_" gradientUnits="userSpaceOnUse" x1="871.6992" y1="1922.3271" x2="858.9986" y2="1922.3271" gradientTransform="matrix(1 0 0 1 -842.1602 -1902.3594)">
			<stop  offset="0" style="stop-color:#BEDBEA"/>
			<stop  offset="0.0164" style="stop-color:#B7D0E0"/>
			<stop  offset="0.043" style="stop-color:#A3BBC7"/>
			<stop  offset="0.0667" style="stop-color:#89A1AE"/>
			<stop  offset="0.5455" style="stop-color:#BEDBEA"/>
			<stop  offset="0.5614" style="stop-color:#C2DCEB"/>
			<stop  offset="0.6708" style="stop-color:#DAEBF1"/>
			<stop  offset="0.7715" style="stop-color:#ECF6F9"/>
			<stop  offset="0.8545" style="stop-color:#EFF8F9"/>
			<stop  offset="0.8593" style="stop-color:#EFF8F8"/>
			<stop  offset="0.8965" style="stop-color:#E8F5F7"/>
			<stop  offset="1" style="stop-color:#E7F4F7"/>
		</linearGradient>
		<path id="rect24579_5_" fill="url(#rect24579_1_)" d="M18.611,10.528h9.324c0.926,0,1.674,0.75,1.674,1.676v15.53
			c0,0.926-0.748,1.674-1.674,1.674h-9.324c-0.928,0-1.678-0.748-1.678-1.674v-15.53C16.934,11.278,17.684,10.528,18.611,10.528z"/>
		
			<linearGradient id="rect24583_1_" gradientUnits="userSpaceOnUse" x1="871.4355" y1="1905.8018" x2="859.4641" y2="1905.8018" gradientTransform="matrix(1 0 0 1 -842.1602 -1902.3594)">
			<stop  offset="0" style="stop-color:#BEDBEA"/>
			<stop  offset="0.0164" style="stop-color:#B7D0E0"/>
			<stop  offset="0.043" style="stop-color:#A3BBC7"/>
			<stop  offset="0.0667" style="stop-color:#89A1AE"/>
			<stop  offset="0.5455" style="stop-color:#BEDBEA"/>
			<stop  offset="0.5614" style="stop-color:#C2DCEB"/>
			<stop  offset="0.6708" style="stop-color:#DAEBF1"/>
			<stop  offset="0.7715" style="stop-color:#ECF6F9"/>
			<stop  offset="0.8545" style="stop-color:#EFF8F9"/>
			<stop  offset="0.8593" style="stop-color:#EFF8F8"/>
			<stop  offset="0.8965" style="stop-color:#E8F5F7"/>
			<stop  offset="1" style="stop-color:#E7F4F7"/>
		</linearGradient>
		<path id="rect24583_5_" fill="url(#rect24583_1_)" d="M18.401,1.857h9.741c0.813,0,1.469,0.657,1.469,1.468v0.236
			c0,0.812-0.656,1.467-1.469,1.467h-9.741c-0.813,0-1.468-0.655-1.468-1.467V3.324C16.934,2.515,17.592,1.857,18.401,1.857z"/>
		
			<linearGradient id="rect24585_1_" gradientUnits="userSpaceOnUse" x1="871.4355" y1="1910.0869" x2="859.4641" y2="1910.0869" gradientTransform="matrix(1 0 0 1 -842.1602 -1902.3594)">
			<stop  offset="0" style="stop-color:#BEDBEA"/>
			<stop  offset="0.0164" style="stop-color:#B7D0E0"/>
			<stop  offset="0.043" style="stop-color:#A3BBC7"/>
			<stop  offset="0.0667" style="stop-color:#89A1AE"/>
			<stop  offset="0.5455" style="stop-color:#BEDBEA"/>
			<stop  offset="0.5614" style="stop-color:#C2DCEB"/>
			<stop  offset="0.6708" style="stop-color:#DAEBF1"/>
			<stop  offset="0.7715" style="stop-color:#ECF6F9"/>
			<stop  offset="0.8545" style="stop-color:#EFF8F9"/>
			<stop  offset="0.8593" style="stop-color:#EFF8F8"/>
			<stop  offset="0.8965" style="stop-color:#E8F5F7"/>
			<stop  offset="1" style="stop-color:#E7F4F7"/>
		</linearGradient>
		<path id="rect24585_5_" fill="url(#rect24585_1_)" d="M18.401,6.143h9.741c0.813,0,1.469,0.656,1.469,1.469v0.233
			c0,0.813-0.656,1.468-1.469,1.468h-9.741c-0.813,0-1.468-0.655-1.468-1.468V7.61C16.934,6.8,17.592,6.143,18.401,6.143z"/>
		<path id="path24587_5_" fill="#345629" d="M28.875,12.729c0,0.698-0.566,1.268-1.266,1.268c-0.7,0-1.27-0.567-1.27-1.266v-0.002
			c0-0.699,0.567-1.266,1.269-1.268C28.309,11.461,28.875,12.028,28.875,12.729L28.875,12.729z"/>
		<path id="path24589_4_" fill="#E72F2D" d="M28.875,15.999c0,0.7-0.566,1.271-1.266,1.271c-0.7,0-1.27-0.57-1.27-1.269v-0.001
			c0-0.701,0.567-1.267,1.269-1.267C28.309,14.732,28.875,15.298,28.875,15.999L28.875,15.999z"/>
		
			<linearGradient id="path4874_1_" gradientUnits="userSpaceOnUse" x1="869.0283" y1="1918.3574" x2="870.5059" y2="1918.3574" gradientTransform="matrix(1 0 0 1 -842.1602 -1902.3594)">
			<stop  offset="0" style="stop-color:#F49499"/>
			<stop  offset="1" style="stop-color:#901A1E"/>
		</linearGradient>
		<path id="path4874_4_" fill="url(#path4874_1_)" d="M27.611,16.736c-0.41,0-0.743-0.331-0.743-0.736c0-0.412,0.332-0.74,0.74-0.74
			c0.409,0,0.737,0.33,0.737,0.739C28.349,16.406,28.018,16.736,27.611,16.736L27.611,16.736L27.611,16.736z"/>
		
			<linearGradient id="path4882_1_" gradientUnits="userSpaceOnUse" x1="869.0283" y1="1915.002" x2="870.5059" y2="1915.002" gradientTransform="matrix(1 0 0 1 -842.1602 -1902.3594)">
			<stop  offset="0" style="stop-color:#ADD58A"/>
			<stop  offset="1" style="stop-color:#219046"/>
		</linearGradient>
		<path id="path4882_4_" fill="url(#path4882_1_)" d="M27.611,13.381c-0.41,0-0.743-0.331-0.743-0.737c0-0.411,0.332-0.74,0.74-0.74
			c0.409,0,0.737,0.33,0.737,0.737C28.349,13.049,28.018,13.381,27.611,13.381L27.611,13.381L27.611,13.381z"/>
	</g>
</g>
<g>
	<path id="path4588_4_" fill="#020202" d="M4.188,26.661c-0.555,0-1-0.445-1-1v-1.375c0-0.553,0.445-1,1-1h4.563v-0.289H1
		c-0.553,0-1-0.447-1-1V6.339c0-0.551,0.447-1,1-1h23.378c0.553,0,1,0.449,1,1v15.658c0,0.553-0.447,1-1,1h-7.751v0.289h4.563
		c0.553,0,1,0.447,1,1v1.375c0,0.555-0.447,1-1,1H4.188z"/>
	<path id="rect24612_5_" fill="#FFFFFF" d="M0.998,6.339v15.658h8.751v2.289H4.186v1.375h17.003v-1.375h-5.565v-2.289h8.752V6.339
		H0.998z"/>
	<rect id="rect4591_4_" x="9.749" y="21.997" fill="#B3B1B3" width="5.877" height="2.289"/>
	<rect id="rect4593_4_" x="4.188" y="24.286" fill="#FFFFFF" width="17" height="1.375"/>
	<rect id="rect24614_5_" x="2.115" y="7.512" fill="#03AAD6" width="21.147" height="13.325"/>
	
		<linearGradient id="SVGID_1_" gradientUnits="userSpaceOnUse" x1="2.7246" y1="-107.8491" x2="19.2906" y2="-97.1759" gradientTransform="matrix(1 0 0 -1 2.46 -88.8398)">
		<stop  offset="0" style="stop-color:#39ABD8"/>
		<stop  offset="0.5" style="stop-color:#A7CDDC"/>
		<stop  offset="1" style="stop-color:#2175BB"/>
	</linearGradient>
	<rect x="3.116" y="8.512" fill="url(#SVGID_1_)" width="19.146" height="11.325"/>
</g>
<g>
	<path fill="#020303" d="M19.127,31.998c-0.005-0.137-0.024-0.275-0.024-0.41c0-0.346,0.021-0.691,0.057-1.029l0.052-0.492
		c0.051-0.455-0.207-0.893-0.634-1.061c0,0-1.06-0.428-1.889-0.764c0.247-0.613,1.061-2.611,1.061-2.611
		c0.837,0.334,1.889,0.76,1.889,0.76c0.124,0.051,0.255,0.076,0.386,0.076c0.311,0,0.613-0.143,0.811-0.398l0.295-0.385
		c0.457-0.578,0.979-1.115,1.556-1.574l0.382-0.307c0.356-0.283,0.481-0.775,0.302-1.197l-0.794-1.881
		c0.764-0.322,1.83-0.773,2.598-1.1l0.795,1.881c0.162,0.381,0.534,0.625,0.942,0.625c0.044,0,0.088-0.004,0.135-0.01l0.474-0.063
		c0.39-0.048,0.789-0.072,1.178-0.072c0.354,0,0.692,0.02,1.043,0.057l0.488,0.056c0.04,0.001,0.074,0.001,0.11,0.001
		c0.413,0,0.788-0.252,0.946-0.645c0,0,0.352-0.863,0.669-1.645v-3.869c-0.186-0.052-0.371-0.087-0.566-0.087
		c-0.872,0-1.654,0.524-1.991,1.335l-0.591,1.465c-0.027,0-0.302,0.002-0.411,0.004l-0.615-1.45
		c-0.334-0.793-1.111-1.312-1.974-1.312c-0.287,0-0.563,0.056-0.834,0.168l-4.826,2.045c-0.124,0.055-0.229,0.128-0.328,0.226
		l-0.784,0.798c-0.355,0.36-0.385,0.911-0.107,1.309v0.072c0,0.119,0.026,0.233,0.064,0.344c0,0.004,0.651,1.541,0.651,1.541
		c-0.092,0.088-0.183,0.178-0.271,0.271l-1.489-0.605c-0.124-0.051-0.257-0.074-0.388-0.074c-0.008,0-0.864,0.008-0.864,0.008
		c-0.275,0.004-0.532,0.113-0.723,0.309l-0.597,0.611c-0.093,0.101-0.166,0.209-0.218,0.334l-1.964,4.861
		c-0.051,0.125-0.078,0.258-0.074,0.396l0.003,0.852c0.003,0.27,0.112,0.527,0.306,0.719l0.602,0.596
		c0.101,0.1,0.22,0.176,0.347,0.225c0.075,0.029,0.782,0.314,1.436,0.58c0,0.037,0.001,0.32,0.008,0.426L15.532,32h3.595V31.998z"/>
	
		<linearGradient id="SVGID_2_" gradientUnits="userSpaceOnUse" x1="242.9746" y1="1117.6641" x2="262.7205" y2="1117.6641" gradientTransform="matrix(1 0 0 1 -226.8496 -1092.6797)">
		<stop  offset="0" style="stop-color:#A5692A"/>
		<stop  offset="0.5394" style="stop-color:#FAA920"/>
		<stop  offset="1" style="stop-color:#FFF3E2"/>
	</linearGradient>
	<path fill="url(#SVGID_2_)" d="M24.432,31.787c-0.031-0.607,0.063-1.229,0.305-1.832c0.883-2.193,3.381-3.252,5.573-2.361
		c0.603,0.236,1.112,0.611,1.525,1.055c0.022,0.023,0.043,0.053,0.063,0.08V18.175l-0.51-0.206l-1.162,2.869
		c-1.084-0.155-2.162-0.141-3.207,0.024l-1.21-2.847l-0.137,0.059l-4.551,1.928l-0.138,0.057l1.213,2.848
		c-0.853,0.639-1.61,1.404-2.249,2.287l-2.869-1.162l-1.616,4.004l-0.35,0.854l2.864,1.162c-0.093,0.65-0.111,1.301-0.082,1.949
		h6.565C24.45,31.93,24.436,31.859,24.432,31.787z"/>
	<path fill="#FAA920" d="M24.328,29.783c0.983-2.434,3.752-3.604,6.184-2.623c0.571,0.23,1.066,0.57,1.488,0.971v-1.947
		c-0.294-0.18-0.598-0.342-0.924-0.477c-0.755-0.305-1.554-0.463-2.368-0.463c-2.587,0-4.89,1.549-5.857,3.947
		c-0.371,0.92-0.505,1.877-0.438,2.805h1.613C23.953,31.266,24.034,30.512,24.328,29.783z"/>
	<path fill="#FAA920" d="M18.105,31.586c0-0.381,0.021-0.762,0.061-1.141l0.054-0.49c0,0-2.538-1.029-2.839-1.148
		c0.128-0.311,1.701-4.205,1.828-4.512c0.443,0.178,2.838,1.146,2.838,1.146l0.301-0.387c0.507-0.648,1.083-1.236,1.72-1.746
		l0.382-0.308c0,0-1.071-2.527-1.196-2.821c0.29-0.122,4.177-1.769,4.487-1.898c0.187,0.435,1.197,2.82,1.197,2.82l0.488-0.064
		c0.818-0.1,1.641-0.104,2.451-0.018l0.488,0.053c0,0,1.032-2.539,1.146-2.84c0.049,0.018,0.189,0.076,0.382,0.152V16.99
		l-0.078-0.033c-0.568-0.229-1.215,0.045-1.453,0.615c0,0-0.565,1.402-0.861,2.133c-0.579-0.045-1.168-0.036-1.752,0.011
		c-0.244-0.585-0.898-2.112-0.898-2.112c-0.231-0.564-0.89-0.83-1.458-0.597l-4.823,2.049l-0.598,0.604l-0.184,0.192l0.18-0.187
		l0.007,0.845c0.003,0.006,0.609,1.438,0.911,2.15c-0.43,0.382-0.838,0.791-1.213,1.234c-0.569-0.229-2.155-0.876-2.155-0.876
		l-0.853,0.009l-0.597,0.611l-1.966,4.857l0.008,0.854l0.604,0.598c0,0,1.403,0.568,2.128,0.861
		c-0.018,0.258-0.042,0.52-0.042,0.779c0,0.139,0.017,0.273,0.026,0.41h1.301C18.124,31.859,18.105,31.723,18.105,31.586z"/>
	<path fill="#FAA920" d="M25.163,30.129c0.791-1.951,3.024-2.896,4.975-2.104c0.75,0.301,1.348,0.818,1.758,1.453v-1.402
		c-0.405-0.373-0.87-0.691-1.41-0.91c-2.427-0.982-5.197,0.191-6.179,2.617c-0.297,0.729-0.374,1.484-0.307,2.215h0.932
		C24.858,31.383,24.918,30.742,25.163,30.129z"/>
	<path fill="#020303" d="M25.189,30.131c0.79-1.953,3.022-2.898,4.973-2.111c0.73,0.299,1.321,0.797,1.733,1.41v-1.379
		c-0.401-0.363-0.858-0.676-1.386-0.889c-2.432-0.98-5.201,0.191-6.185,2.619c-0.296,0.727-0.372,1.482-0.304,2.215h0.932
		C24.882,31.385,24.94,30.744,25.189,30.131z"/>
</g>
</svg>
