<?xml version="1.0" encoding="utf-8"?>
<!-- Generator: Adobe Illustrator 14.0.0, SVG Export Plug-In . SVG Version: 6.00 Build 43363)  -->
<!DOCTYPE svg PUBLIC "-//W3C//DTD SVG 1.1//EN" "http://www.w3.org/Graphics/SVG/1.1/DTD/svg11.dtd">
<svg version="1.1"
	 id="Layer_1" inkscape:version="0.47pre4 " sodipodi:docname="execute filtered.svg" xmlns:sodipodi="http://sodipodi.sourceforge.net/DTD/sodipodi-0.dtd" xmlns:svg="http://www.w3.org/2000/svg" xmlns:cc="http://creativecommons.org/ns#" xmlns:inkscape="http://www.inkscape.org/namespaces/inkscape" xmlns:dc="http://purl.org/dc/elements/1.1/" xmlns:rdf="http://www.w3.org/1999/02/22-rdf-syntax-ns#"
	 xmlns="http://www.w3.org/2000/svg" xmlns:xlink="http://www.w3.org/1999/xlink" x="0px" y="0px" width="32px" height="32px"
	 viewBox="0 0 32 32" enable-background="new 0 0 32 32" xml:space="preserve">
<defs>
	
	
		<inkscape:perspective  id="perspective83" sodipodi:type="inkscape:persp3d" inkscape:vp_y="0 : 1000 : 0" inkscape:vp_z="32 : 16 : 1" inkscape:vp_x="0 : 16 : 1" inkscape:persp3d-origin="16 : 10.666667 : 1">
		</inkscape:perspective>
</defs>
<sodipodi:namedview  id="namedview77" objecttolerance="10" borderopacity="1" pagecolor="#ffffff" guidetolerance="10" inkscape:cy="16" inkscape:cx="16" bordercolor="#666666" gridtolerance="10" showgrid="false" inkscape:zoom="7.375" inkscape:window-maximized="0" inkscape:current-layer="Layer_1" inkscape:window-width="640" inkscape:window-y="0" inkscape:pageopacity="0" inkscape:pageshadow="2" inkscape:window-height="480" inkscape:window-x="0">
	</sodipodi:namedview>
<g id="g3">
	<path id="path5" d="M5.636,27.186c-0.146,0-0.294-0.029-0.425-0.086c-0.288-0.123-0.468-0.359-0.468-0.613V5.512
		c0-0.255,0.18-0.491,0.468-0.612C5.342,4.84,5.49,4.814,5.636,4.814c0.171,0,0.338,0.035,0.486,0.112l20.726,10.486
		c0.256,0.129,0.409,0.351,0.409,0.588c0,0.236-0.153,0.458-0.409,0.586L6.122,27.074C5.975,27.15,5.808,27.186,5.636,27.186
		L5.636,27.186z"/>
	<polygon id="polygon7" fill="#6DBE46" points="5.636,26.486 5.636,5.512 26.364,16 	"/>
	
		<linearGradient id="polygon14_1_" gradientUnits="userSpaceOnUse" x1="306.4121" y1="-388.8374" x2="288.33" y2="-388.8374" gradientTransform="matrix(1 0 0 -1 -281.54 -372.8398)">
		<stop  offset="0" style="stop-color:#B2D78E"/>
		<stop  offset="1" style="stop-color:#219146"/>
	</linearGradient>
	<polygon id="polygon14" fill="url(#polygon14_1_)" points="6.529,6.796 24.718,16 6.529,25.201 	"/>
</g>
</svg>
