<?xml version="1.0" encoding="utf-8"?>
<!-- Generator: Adobe Illustrator 17.1.0, SVG Export Plug-In . SVG Version: 6.00 Build 0)  -->
<!DOCTYPE svg PUBLIC "-//W3C//DTD SVG 1.1//EN" "http://www.w3.org/Graphics/SVG/1.1/DTD/svg11.dtd">
<svg version="1.1" id="Layer_1" xmlns="http://www.w3.org/2000/svg" xmlns:xlink="http://www.w3.org/1999/xlink" x="0px" y="0px" width="32px" height="32px"
	 viewBox="0 0 32 32" enable-background="new 0 0 32 32" xml:space="preserve">
<g>
	<g>
		<path id="path5072" fill="#020202" d="M28.5,30.9c-0.3,0-0.5-0.1-0.7-0.3l-1-1.1c-0.2,0-0.4-0.1-0.5-0.3L14,16.4
			c-0.3-0.3-0.4-0.8-0.1-1.2l-2.3-2.5c-0.1,0.1-0.3,0.1-0.4,0.1c0,0-2.7-0.1-2.7-0.1l0.1,0.1c0.4,0.4,0.4,1,0,1.4l-2.5,2.6
			c-0.2,0.2-0.5,0.3-0.7,0.3l0,0c-0.3,0-0.5-0.1-0.7-0.3l-4.1-4.3c-0.4-0.4-0.4-1,0-1.4L3,8.5c0.2-0.2,0.4-0.3,0.7-0.3
			c0,0,0.1,0,0.1,0c0-0.3,0-0.6,0.3-0.8l4.6-4.8c0.2-0.2,0.5-0.3,0.7-0.3c0.3,0,0.5,0.1,0.7,0.3l0.1,0.1c1.3-0.7,3.2-1.6,5.4-1.6
			C18,1.1,20.1,2,22,4c0.3,0.3,0.4,0.8,0.1,1.2c-0.2,0.3-0.5,0.5-0.8,0.5c-0.1,0-0.2,0-0.3-0.1c-0.8-0.3-1.7-0.4-2.4-0.4
			c-2.1,0-3.6,1.1-4.5,1.9l0.6,1.8c0.1,0.3,0.1,0.7-0.1,0.9l2.3,2.4c0.1-0.1,0.3-0.1,0.5-0.1c0.3,0,0.5,0.1,0.7,0.3l12.2,12.8
			c0.1,0.2,0.2,0.3,0.3,0.6l1,1.1c0.4,0.4,0.4,1,0,1.4l-2.3,2.4C29,30.8,28.8,30.9,28.5,30.9L28.5,30.9L28.5,30.9z"/>
		
			<linearGradient id="rect3338_1_" gradientUnits="userSpaceOnUse" x1="-810.3405" y1="-982.3047" x2="-811.8844" y2="-983.6907" gradientTransform="matrix(-1.1868 -3.150000e-002 -3.000000e-002 -1.2466 -985.549 -1240.2671)">
			<stop  offset="0" style="stop-color:#B1D2DB"/>
			<stop  offset="1" style="stop-color:#0B7C9E"/>
		</linearGradient>
		<polygon id="rect3338" fill="url(#rect3338_1_)" points="4.3,10.6 6.4,8.4 8.6,10.6 6.5,12.8 		"/>
		
			<linearGradient id="rect3340_1_" gradientUnits="userSpaceOnUse" x1="-537.1143" y1="-763.3268" x2="-540.2354" y2="-766.4791" gradientTransform="matrix(-1.2288 -0.3357 -0.3196 -1.2907 -901.4918 -1155.3741)">
			<stop  offset="0" style="stop-color:#B1D2DB"/>
			<stop  offset="1" style="stop-color:#0B7C9E"/>
		</linearGradient>
		<polygon id="rect3340" fill="url(#rect3340_1_)" points="1.4,11.7 3.9,9.1 8,13.4 5.6,16 		"/>
		
			<linearGradient id="rect3342_1_" gradientUnits="userSpaceOnUse" x1="-817.2545" y1="-985.0406" x2="-818.8165" y2="-983.4842" gradientTransform="matrix(-1.1868 -3.150000e-002 -3.000000e-002 -1.2466 -985.549 -1240.2671)">
			<stop  offset="0" style="stop-color:#B1D2DB"/>
			<stop  offset="1" style="stop-color:#0B7C9E"/>
		</linearGradient>
		<polygon id="rect3342" fill="url(#rect3342_1_)" points="11.5,11 13,9.4 17.8,14.4 16.3,16 		"/>
		
			<linearGradient id="rect3344_1_" gradientUnits="userSpaceOnUse" x1="-825.333" y1="-989.5814" x2="-822.7258" y2="-991.9963" gradientTransform="matrix(-1.1868 -3.150000e-002 -3.000000e-002 -1.2466 -985.549 -1240.2671)">
			<stop  offset="0" style="stop-color:#A36628"/>
			<stop  offset="0.5394" style="stop-color:#F9A620"/>
			<stop  offset="1" style="stop-color:#FFF3DF"/>
		</linearGradient>
		<polygon id="rect3344" fill="url(#rect3344_1_)" points="14.9,15.6 17.4,13 29.6,25.8 27.1,28.4 		"/>
		
			<linearGradient id="rect3346_1_" gradientUnits="userSpaceOnUse" x1="-828.7424" y1="-997.2563" x2="-831.064" y2="-995.0314" gradientTransform="matrix(-1.1868 -3.150000e-002 -3.000000e-002 -1.2466 -985.549 -1240.2671)">
			<stop  offset="0" style="stop-color:#B1D2DB"/>
			<stop  offset="1" style="stop-color:#0B7C9E"/>
		</linearGradient>
		<polygon id="rect3346" fill="url(#rect3346_1_)" points="27.2,28.3 29.5,25.9 30.9,27.4 28.7,29.8 		"/>
		
			<linearGradient id="path3348_1_" gradientUnits="userSpaceOnUse" x1="-818.9692" y1="-977.9504" x2="-816.1564" y2="-973.8616" gradientTransform="matrix(-1.1868 -3.150000e-002 -3.000000e-002 -1.2466 -985.549 -1240.2671)">
			<stop  offset="0" style="stop-color:#B1D2DB"/>
			<stop  offset="1" style="stop-color:#0B7C9E"/>
		</linearGradient>
		<path id="path3348" fill="url(#path3348_1_)" d="M21.4,4.5c-5.7-2-8.8,2.7-8.8,2.7l-2.9-3C9.7,4.2,16.1-1.1,21.4,4.5L21.4,4.5z"/>
		<polygon id="polygon3350" fill="#00ACDA" points="5,7.9 9.6,3.1 13,6.8 13.8,9.1 11.3,11.7 8.4,11.6 		"/>
		<g id="polygon3350_1_">
			
				<linearGradient id="SVGID_1_" gradientUnits="userSpaceOnUse" x1="285.4398" y1="1100.3193" x2="291.7406" y2="1100.3193" gradientTransform="matrix(1 0 0 1 -279.0801 -1092.6797)">
				<stop  offset="0" style="stop-color:#B1D2DB"/>
				<stop  offset="1" style="stop-color:#0B7C9E"/>
			</linearGradient>
			<polygon fill="url(#SVGID_1_)" points="8.9,10.6 6.4,7.9 9.6,4.6 12.1,7.3 12.7,8.8 10.9,10.7 			"/>
		</g>
	</g>
	<g>
		<path id="path5116" fill="#020202" d="M6.9,30.5c-0.3,0-0.5-0.1-0.7-0.3l-3.1-3.1c-0.3-0.3-0.4-0.8-0.2-1.2l0.6-1.2
			c0-0.1,0.1-0.3,0.2-0.4l7.7-7.6c0.1-0.1,0.1-0.1,0.2-0.1l3.8-2.3c0,0,0.1,0,0.1,0L24,6.9l0.7-2c0.1-0.2,0.3-0.4,0.5-0.5l2.7-1.5
			c0.1-0.1,0.3-0.1,0.5-0.1c0.3,0,0.5,0.1,0.7,0.3l1.4,1.4c0.3,0.3,0.4,0.8,0.2,1.1l-1.4,2.9c-0.1,0.3-0.4,0.5-0.6,0.5l-2,0.6
			L19,18.1l-2.3,3.7c0,0.1-0.1,0.1-0.1,0.2l-7.7,7.6c-0.1,0.1-0.3,0.2-0.4,0.2l-1.1,0.5C7.2,30.5,7.1,30.5,6.9,30.5L6.9,30.5
			L6.9,30.5z"/>
		
			<linearGradient id="path2032_1_" gradientUnits="userSpaceOnUse" x1="491.6512" y1="1043.8468" x2="493.9548" y2="1046.1504" gradientTransform="matrix(1.5038 0 0 1.5038 -717.8135 -1560.6104)">
			<stop  offset="0" style="stop-color:#B1D2DB"/>
			<stop  offset="1" style="stop-color:#0B7C9E"/>
		</linearGradient>
		<path id="path2032" fill="url(#path2032_1_)" d="M15.7,15.5l9.2-8l0.8-2.2l2.7-1.5l1.4,1.4l-1.4,2.9l-2.3,0.6l-8.1,9L15.7,15.5z"
			/>
		
			<linearGradient id="rect2030_1_" gradientUnits="userSpaceOnUse" x1="-501.7178" y1="1676.0773" x2="-501.7178" y2="1671.2893" gradientTransform="matrix(1.0656 -1.0611 0.8097 0.8038 -808.827 -1855.9983)">
			<stop  offset="0" style="stop-color:#F5969A"/>
			<stop  offset="1" style="stop-color:#901A1E"/>
		</linearGradient>
		<path id="rect2030" fill="url(#rect2030_1_)" d="M16,15.2l-3.8,2.3l-7.7,7.6l3.7,3.8l7.7-7.6l2.4-3.8L16,15.2L16,15.2z"/>
		<path id="path2050" fill="none" stroke="#020202" stroke-width="0.4333" d="M16,15.2l2.3,2.3"/>
		
			<linearGradient id="rect2051_1_" gradientUnits="userSpaceOnUse" x1="3071.0571" y1="3391.9836" x2="3073.0554" y2="3393.9819" gradientTransform="matrix(2.2981 -1.8685 -1.8897 2.283 -638.0764 -1984.0436)">
			<stop  offset="0" style="stop-color:#F5969A"/>
			<stop  offset="1" style="stop-color:#901A1E"/>
		</linearGradient>
		<path id="rect2051" fill="url(#rect2051_1_)" d="M13.5,18.6L13.5,18.6c0.2,0.2,0.1,0.5-0.1,0.8l-5.9,5.8c-0.3,0.3-0.6,0.3-0.8,0.1
			l0,0c-0.2-0.2-0.1-0.5,0.1-0.8l5.9-5.8C13,18.5,13.3,18.4,13.5,18.6z"/>
		
			<linearGradient id="rect2063_1_" gradientUnits="userSpaceOnUse" x1="3417.6472" y1="3727.541" x2="3419.2629" y2="3729.157" gradientTransform="matrix(2.4873 -2.0931 -2.1158 2.4703 -602.512 -2031.3368)">
			<stop  offset="0" style="stop-color:#F5969A"/>
			<stop  offset="1" style="stop-color:#901A1E"/>
		</linearGradient>
		<path id="rect2063" fill="url(#rect2063_1_)" d="M15.2,20.3L15.2,20.3c0.2,0.2,0.1,0.5-0.2,0.7l-5.9,5.8c-0.3,0.3-0.6,0.3-0.7,0.2
			l0,0c-0.1-0.2-0.1-0.5,0.2-0.7l5.9-5.8C14.7,20.2,15,20.1,15.2,20.3z"/>
		
			<linearGradient id="rect23949_1_" gradientUnits="userSpaceOnUse" x1="423.9832" y1="1005.3498" x2="421.5577" y2="1002.9244" gradientTransform="matrix(1.5654 0 0 1.5654 -656.0821 -1544.5411)">
			<stop  offset="0" style="stop-color:#F5969A"/>
			<stop  offset="1" style="stop-color:#901A1E"/>
		</linearGradient>
		<path id="rect23949" fill="url(#rect23949_1_)" d="M4.5,25.1l3.7,3.8l-1.3,0.6l-3.1-3.1L4.5,25.1z"/>
	</g>
</g>
</svg>
