<?xml version="1.0" encoding="utf-8"?>
<!-- Generator: Adobe Illustrator 15.0.0, SVG Export Plug-In . SVG Version: 6.00 Build 0)  -->
<!DOCTYPE svg PUBLIC "-//W3C//DTD SVG 1.1//EN" "http://www.w3.org/Graphics/SVG/1.1/DTD/svg11.dtd">
<svg version="1.1" id="Layer_1" xmlns="http://www.w3.org/2000/svg" xmlns:xlink="http://www.w3.org/1999/xlink" x="0px" y="0px"
	 width="32px" height="32px" viewBox="0 0 32 32" enable-background="new 0 0 32 32" xml:space="preserve">
<g>
	<path fill="#13110C" d="M0.981,25.76C0.44,25.76,0,25.318,0,24.777V0.983C0,0.441,0.44,0,0.981,0h28.038
		C29.561,0,30,0.439,30,0.983v23.794c0,0.541-0.439,0.982-0.981,0.982H0.981L0.981,25.76z"/>
	<rect x="0.981" y="0.983" fill="#E4F0F7" width="28.038" height="23.794"/>
	
		<linearGradient id="SVGID_1_" gradientUnits="userSpaceOnUse" x1="561.6006" y1="-900.8096" x2="589.6387" y2="-900.8096" gradientTransform="matrix(1 0 0 -1 -560.6201 -896.5195)">
		<stop  offset="0" style="stop-color:#BDD6E1"/>
		<stop  offset="1" style="stop-color:#00799F"/>
	</linearGradient>
	<rect x="0.981" y="0.983" fill="url(#SVGID_1_)" width="28.038" height="6.614"/>
	<line fill="none" stroke="#13110C" x1="0.981" y1="7.597" x2="29.019" y2="7.597"/>
	<line fill="none" stroke="#13110C" x1="0.981" y1="13.255" x2="29.019" y2="13.255"/>
	<line fill="none" stroke="#13110C" x1="0.981" y1="19.473" x2="29.019" y2="19.473"/>
	<line fill="none" stroke="#13110C" x1="10.042" y1="7.612" x2="10.042" y2="24.793"/>
	<line fill="none" stroke="#13110C" x1="20.021" y1="7.645" x2="20.021" y2="24.824"/>
</g>
<path fill="#FFFFFF" d="M29.019,25.76c0.542,0,0.981-0.441,0.981-0.982v-9.352C29.705,15.158,29.325,15,28.924,15H17.303
	c-0.427,0-0.83,0.166-1.138,0.471l-0.695,0.697C15.167,16.472,15,16.875,15,17.304v8.456H29.019z"/>
<g id="g15899_1_" transform="translate(-166.35036,-161.4577)">
	<g id="polygon15349_2_">
		<path fill="#13110C" d="M183.63,193.458c-0.161,0-0.316-0.063-0.43-0.178l-0.671-0.672c-0.114-0.114-0.178-0.268-0.178-0.43
			v-13.417c0-0.161,0.064-0.315,0.178-0.43l0.695-0.696c0.114-0.114,0.268-0.178,0.43-0.178h11.621c0.175,0,0.34,0.075,0.455,0.205
			l2.467,2.776c0.1,0.11,0.154,0.254,0.154,0.404V192.3c0,0.163-0.064,0.317-0.178,0.43l-0.549,0.549
			c-0.113,0.113-0.268,0.178-0.43,0.178L183.63,193.458L183.63,193.458z"/>
	</g>
	<polygon id="polygon15349_1_" fill="#1AABDD" points="183.653,178.067 195.276,178.067 197.743,180.842 197.743,192.301 
		197.194,192.85 183.63,192.85 182.959,192.178 182.959,178.761 	"/>
	<g id="polygon15349_3_">
		
			<linearGradient id="SVGID_2_" gradientUnits="userSpaceOnUse" x1="347.4568" y1="-111.8401" x2="361.0261" y2="-111.8401" gradientTransform="matrix(1 0 0 -1 -163.8906 73.6185)">
			<stop  offset="0" style="stop-color:#C0D9E3"/>
			<stop  offset="1" style="stop-color:#00799F"/>
		</linearGradient>
		<polygon fill="url(#SVGID_2_)" points="183.882,192.243 183.566,191.926 183.566,179.013 183.905,178.674 195.003,178.674 
			197.136,181.073 197.136,192.049 196.941,192.243 		"/>
	</g>
	<path id="path15372_1_" fill="#F7F8F8" d="M186.944,184.606h6.844l0.215-0.216v-5.704h-7.307v5.672L186.944,184.606z
		 M191.467,180.163h1.677v2.966h-1.677V180.163z"/>
	<rect id="rect15374_1_" x="185.284" y="185.717" fill="#F8F8F9" width="10.222" height="6.568"/>
	<line id="line15376_1_" fill="none" stroke="#4B4382" x1="194.985" y1="191.016" x2="185.805" y2="191.016"/>
	<line id="line15378_1_" fill="none" stroke="#4B4382" x1="194.985" y1="189.739" x2="185.805" y2="189.739"/>
	<line id="line15380_1_" fill="none" stroke="#4B4382" x1="194.985" y1="188.412" x2="185.805" y2="188.412"/>
	<line id="line15382_1_" fill="none" stroke="#4B4382" x1="194.985" y1="186.986" x2="185.805" y2="186.986"/>
</g>
</svg>
