<?xml version="1.0" encoding="utf-8"?>
<!-- Generator: Adobe Illustrator 14.0.0, SVG Export Plug-In . SVG Version: 6.00 Build 43363)  -->
<!DOCTYPE svg PUBLIC "-//W3C//DTD SVG 1.1//EN" "http://www.w3.org/Graphics/SVG/1.1/DTD/svg11.dtd">
<svg version="1.1"
	 id="Layer_1" xmlns:sodipodi="http://sodipodi.sourceforge.net/DTD/sodipodi-0.dtd" xmlns:cc="http://creativecommons.org/ns#" xmlns:inkscape="http://www.inkscape.org/namespaces/inkscape" xmlns:svg="http://www.w3.org/2000/svg" xmlns:rdf="http://www.w3.org/1999/02/22-rdf-syntax-ns#" xmlns:dc="http://purl.org/dc/elements/1.1/" sodipodi:docname="import.svg" inkscape:version="0.47pre4 "
	 xmlns="http://www.w3.org/2000/svg" xmlns:xlink="http://www.w3.org/1999/xlink" x="0px" y="0px" width="32px" height="32px"
	 viewBox="0 0 32 32" enable-background="new 0 0 32 32" xml:space="preserve">
<defs>
	
	
		<inkscape:perspective  id="perspective10255" sodipodi:type="inkscape:persp3d" inkscape:vp_z="32 : 16 : 1" inkscape:vp_x="0 : 16 : 1" inkscape:vp_y="0 : 1000 : 0" inkscape:persp3d-origin="16 : 10.666667 : 1">
		</inkscape:perspective>
</defs>
<sodipodi:namedview  id="namedview10249" inkscape:cx="8.5250359" inkscape:cy="16" inkscape:zoom="21.404785" objecttolerance="10" showgrid="false" guidetolerance="10" gridtolerance="10" bordercolor="#666666" borderopacity="1" pagecolor="#ffffff" inkscape:current-layer="Layer_1" inkscape:window-y="-4" inkscape:window-x="-4" inkscape:window-height="968" inkscape:window-width="1280" inkscape:pageshadow="2" inkscape:pageopacity="0" inkscape:window-maximized="1">
	</sodipodi:namedview>
<path id="path10065" fill="#010101" d="M1,32c-0.553,0-1-0.447-1-1V16.332c0-0.552,0.447-1,1-1h7.426
	c0.266,0,0.52,0.104,0.707,0.293l3.447,3.449c0.188,0.188,0.293,0.441,0.293,0.705V31c0,0.553-0.447,1-1,1H1z"/>
<polygon id="polygon10067" fill="#FBCD36" points="8.448,16.332 1.024,16.332 1.024,31 11.896,31 11.896,19.779 "/>
<polygon id="polygon10069" fill="#FFFFFF" points="10.902,19.311 10.902,29.924 1.972,29.924 1.972,17.326 8.918,17.326 
	9.867,18.404 "/>
<path id="path10071" fill="#010101" d="M8.448,20.779c-0.553,0-1-0.447-1-1v-3.447c0-0.403,0.243-0.769,0.617-0.924
	c0.123-0.052,0.254-0.076,0.383-0.076c0.261,0,0.517,0.103,0.707,0.293l3.447,3.449c0.286,0.285,0.372,0.715,0.217,1.09
	c-0.153,0.373-0.521,0.615-0.924,0.615H8.448z"/>
<polygon id="polygon10073" fill="#FBCD36" points="8.448,19.779 11.896,19.779 8.448,16.332 "/>
<path id="path10238" fill="#010101" d="M11.865,12.865c-0.146,0-0.295-0.032-0.432-0.099c-0.342-0.164-0.561-0.504-0.568-0.883
	L10.818,9.42C10.326,9.39,9.9,9.376,9.496,9.376c-3.021,0-4.822,0.885-5.832,2.87c-0.172,0.339-0.52,0.546-0.891,0.546
	c-0.057,0-0.113-0.005-0.17-0.015c-0.432-0.074-0.766-0.421-0.822-0.854c-0.014-0.105-0.316-2.599,1.553-4.812
	c1.547-1.834,4.064-2.902,7.488-3.182l0.043-1.951c0.01-0.377,0.229-0.718,0.57-0.88C11.572,1.033,11.719,1,11.865,1
	c0.219,0,0.434,0.071,0.611,0.208l6.383,4.934c0.246,0.188,0.389,0.48,0.389,0.791c0,0.31-0.143,0.602-0.389,0.791l-6.383,4.933
	C12.297,12.794,12.082,12.865,11.865,12.865L11.865,12.865z"/>
<linearGradient id="path7827_2_" gradientUnits="userSpaceOnUse" x1="-13.895" y1="2507.459" x2="9.9365" y2="2507.459" gradientTransform="matrix(-0.6552 0 0 0.6552 9.1711 -1635.9553)">
	<stop  offset="0" style="stop-color:#3AAFDD"/>
	<stop  offset="0.5" style="stop-color:#A8CFE0"/>
	<stop  offset="1" style="stop-color:#2075BC"/>
</linearGradient>
<path id="path7827_1_" opacity="0.98" fill="url(#path7827_2_)" enable-background="new    " d="M11.832,2l-0.064,2.872
	c-9.887,0.382-9.027,6.92-9.027,6.92C4.572,8.19,8.373,8.2,11.768,8.491l0.063,3.373l6.383-4.932L11.832,2z"/>
<path id="path4454_1_" opacity="0.98" fill="#1C77A0" enable-background="new    " d="M12.506,10.454l-0.049-2.607l-0.631-0.053
	C10.871,7.71,10.14,7.675,9.459,7.675c-1.652,0-3.799,0.199-5.52,1.543c0.164-0.332,0.379-0.674,0.662-1.01
	c1.363-1.614,3.783-2.502,7.191-2.635l0.66-0.024L12.5,3.406l4.564,3.526L12.506,10.454z"/>
<g>
	<g>
		<g>
			<path fill="#010101" d="M25.999,16.271c-3.291,0-5.97-3.665-5.97-8.169c0.001-4.505,2.679-8.168,5.97-8.168
				s5.972,3.664,5.972,8.168C31.969,12.607,29.291,16.271,25.999,16.271L25.999,16.271z"/>
			<line fill="none" stroke="#010101" stroke-width="0.8082" x1="27.151" y1="15.767" x2="27.151" y2="25.797"/>
			<path fill="#010101" d="M24.341,18.596c-0.23,0-0.443-0.12-0.563-0.316c-0.122-0.195-0.133-0.439-0.03-0.645l1.659-3.317
				c0.114-0.225,0.342-0.366,0.594-0.366s0.479,0.141,0.593,0.366l1.659,3.317c0.103,0.205,0.091,0.449-0.028,0.645
				c-0.121,0.195-0.334,0.316-0.564,0.316H24.341z"/>
			
				<linearGradient id="SVGID_1_" gradientUnits="userSpaceOnUse" x1="419.541" y1="994.0713" x2="422.8574" y2="994.0713" gradientTransform="matrix(1 0 0 1 -395.1992 -977.7988)">
				<stop  offset="0" style="stop-color:#F5969A"/>
				<stop  offset="1" style="stop-color:#8F1D1E"/>
			</linearGradient>
			<polygon fill="url(#SVGID_1_)" points="27.658,17.933 24.341,17.933 25.999,14.614 25.999,14.614 			"/>
			<ellipse fill="#ED2C2A" cx="25.999" cy="8.103" rx="5.308" ry="7.506"/>
			
				<linearGradient id="SVGID_2_" gradientUnits="userSpaceOnUse" x1="416.5547" y1="985.9033" x2="425.8438" y2="985.9033" gradientTransform="matrix(1 0 0 1 -395.1992 -977.8008)">
				<stop  offset="0" style="stop-color:#F5969A"/>
				<stop  offset="1" style="stop-color:#8F1D1E"/>
			</linearGradient>
			<path fill="url(#SVGID_2_)" d="M25.999,14.946c-2.559,0-4.644-3.071-4.644-6.843c0-3.773,2.085-6.843,4.644-6.843
				c2.561,0,4.645,3.07,4.645,6.843C30.644,11.875,28.56,14.946,25.999,14.946L25.999,14.946z"/>
			<line fill="none" stroke="#010101" stroke-width="0.8082" x1="24.85" y1="15.767" x2="27.151" y2="15.767"/>
		</g>
		
			<radialGradient id="SVGID_3_" cx="420.0488" cy="983.1416" r="2.7788" gradientTransform="matrix(1 0 0 1 -395.1992 -977.8008)" gradientUnits="userSpaceOnUse">
			<stop  offset="0" style="stop-color:#FFFFFF"/>
			<stop  offset="0.0896" style="stop-color:#FFFFFF;stop-opacity:0.9104"/>
			<stop  offset="1" style="stop-color:#FFFFFF;stop-opacity:0"/>
		</radialGradient>
		<circle fill="url(#SVGID_3_)" cx="24.85" cy="5.341" r="2.779"/>
	</g>
</g>
</svg>
