<?xml version="1.0" encoding="UTF-8" standalone="no"?>
<!-- Created with Inkscape (http://www.inkscape.org/) -->

<svg
   xmlns:dc="http://purl.org/dc/elements/1.1/"
   xmlns:cc="http://creativecommons.org/ns#"
   xmlns:rdf="http://www.w3.org/1999/02/22-rdf-syntax-ns#"
   xmlns:svg="http://www.w3.org/2000/svg"
   xmlns="http://www.w3.org/2000/svg"
   version="1.1"
   width="100%"
   height="100%"
   viewBox="0 0 128 128"
   id="Layer_1"
   xml:space="preserve"><metadata
     id="metadata33"><rdf:RDF><cc:Work
         rdf:about=""><dc:format>image/svg+xml</dc:format><dc:type
           rdf:resource="http://purl.org/dc/dcmitype/StillImage" /><dc:title></dc:title></cc:Work></rdf:RDF></metadata><defs
     id="defs3"><linearGradient
       x1="36.488998"
       y1="71.089996"
       x2="88.57"
       y2="19.01"
       id="0"
       gradientUnits="userSpaceOnUse"><stop
         id="stop6"
         style="stop-color:#add389;stop-opacity:1"
         offset="0" /><stop
         id="stop8"
         style="stop-color:#228e45;stop-opacity:1"
         offset="1" /></linearGradient><linearGradient
       x1="5.9879999"
       x2="49.855999"
       id="1"
       gradientUnits="userSpaceOnUse"><stop
         id="stop11"
         style="stop-color:#f49698;stop-opacity:1"
         offset="0" /><stop
         id="stop13"
         style="stop-color:#8f1a1d;stop-opacity:1"
         offset="1" /></linearGradient></defs><path
     d="m 56.49,87.36 c 0,0 0.043,-0.035 0.051,-0.051 0.012,-0.008 -0.051,-0.055 -0.051,-0.055 v -0.099 -0.106 c 0,0 0.051,-0.051 0.055,-0.051 C 56.533,86.97 56.49,86.947 56.49,86.947 56.482,86.908 56.435,86.884 56.435,86.884 l 0.055,-0.055 c 0,-0.039 -0.055,-0.055 -0.055,-0.063 0.008,0 0,-0.095 0,-0.095 0.008,-0.008 0.008,-0.102 0.008,-0.102 0,0 -0.059,-0.032 -0.067,-0.055 -0.008,-0.032 -0.059,-0.063 -0.051,-0.055 -0.024,-0.032 0,-0.099 0,-0.099 0,0 0.024,-0.063 0,-0.099 -0.024,-0.035 -0.055,-0.043 -0.063,-0.059 -0.008,-0.02 0.063,-0.059 0.063,-0.059 0,0 -0.047,-0.016 -0.063,-0.055 -0.008,-0.039 -0.051,-0.154 -0.047,-0.154 0,0 -0.047,-0.032 -0.055,-0.055 -0.016,-0.024 0,-0.083 0,-0.099 C 56.136,85.756 56.121,85.733 56.113,85.725 56.097,85.705 56.05,85.67 56.05,85.67 56.042,85.638 55.995,85.615 55.995,85.615 l 0.055,-0.059 c -0.012,-0.02 -0.035,-0.024 -0.055,-0.059 0,0 -0.047,-0.032 -0.055,-0.055 -0.016,-0.016 -0.043,-0.043 -0.055,-0.051 -0.02,-0.035 0,-0.102 0,-0.102 0,0 -0.047,-0.051 -0.051,-0.055 -0.02,-0.02 -0.043,-0.047 -0.051,-0.055 0,0 -0.083,-0.083 -0.102,-0.102 -0.02,-0.02 -0.051,-0.043 -0.059,-0.055 -0.079,-0.075 -0.024,-0.028 -0.051,-0.059 L 43.738,73.142 C 43.703,73.11 43.77,73.158 43.683,73.083 43.667,73.063 43.636,73.04 43.628,73.032 43.604,73 43.529,72.93 43.529,72.922 43.505,72.906 43.482,72.883 43.474,72.871 l -0.055,-0.063 -0.059,0.063 c 0,0 -0.043,-0.047 -0.051,-0.055 -0.016,-0.016 -0.039,-0.039 -0.051,-0.055 0,0 -0.035,-0.039 -0.059,-0.055 -0.024,-0.012 -0.055,-0.055 -0.055,-0.055 -0.032,-0.008 -0.055,0.055 -0.055,0.055 0,0 -0.039,-0.055 -0.059,-0.055 0,0 -0.035,-0.051 -0.051,-0.059 L 42.825,72.537 C 42.801,72.529 42.77,72.478 42.77,72.478 42.758,72.486 42.608,72.403 42.538,72.387 l -0.008,0.079 c 0,0 -0.047,-0.051 -0.055,-0.055 0,0 -0.083,0.008 -0.102,0 0,0 -0.035,-0.047 -0.051,-0.051 -0.024,0.016 -0.039,0.035 -0.063,0.051 -0.028,-0.004 -0.043,-0.051 -0.051,-0.051 l -0.083,-0.083 c 0,0 -0.047,-0.051 -0.059,-0.055 -0.024,-0.004 -0.051,0.055 -0.051,0.055 -0.039,-0.008 -0.047,-0.051 -0.055,-0.051 -0.008,0.008 -0.055,0.063 -0.055,0.063 -0.004,0 -0.055,-0.059 -0.055,-0.063 -0.008,0.004 -0.055,0.063 -0.055,0.063 0,0 -0.035,-0.059 -0.055,-0.059 -0.004,0 -0.039,-0.059 -0.055,-0.059 -0.008,0 -0.055,0.059 -0.055,0.059 h -0.051 -0.106 c 0,0 -0.043,-0.059 -0.051,-0.059 -0.016,0.008 -0.055,0.055 -0.055,0.059 -0.016,0.016 -0.039,0.039 -0.055,0.059 -0.008,0.008 -0.051,-0.059 -0.055,-0.059 -0.004,0.004 -0.047,0.047 -0.055,0.059 0.008,0 -0.039,-0.059 -0.059,-0.059 -0.028,-0.004 -0.051,0.059 -0.051,0.059 -0.012,0.008 -0.102,0 -0.102,0 0,0 -0.035,0.039 -0.051,0.055 -0.004,0 -0.047,0.047 -0.063,0.055 0,0.004 -0.039,-0.055 -0.047,-0.055 -0.008,0.008 -0.032,0.067 -0.055,0.059 -0.012,0.008 -0.083,-0.004 -0.106,0 0,0 -0.016,0.059 -0.051,0.059 -0.035,0 -0.083,-0.063 -0.083,-0.063 0,0 -0.008,0.047 -0.059,0.055 -0.012,0.016 -0.083,-0.008 -0.095,0 0,0 -0.039,0.039 -0.059,0.055 -0.016,0.016 -0.043,0.047 -0.055,0.063 -0.008,0.004 -0.043,-0.063 -0.059,-0.063 -0.008,0.008 -0.047,0.051 -0.055,0.063 -0.032,0.028 -0.051,0.043 -0.055,0.063 0,0 -0.047,0.039 -0.063,0.047 -0.008,0.016 -0.051,0.059 -0.051,0.059 0,0 0,-0.067 -0.02,-0.067 0.004,0 -0.035,0.047 -0.047,0.059 l -0.217,0.102 c -0.008,0 -0.083,0.083 -0.106,0.099 0,0 -0.063,0.071 -0.047,0.063 -0.008,0 -0.039,0.032 -0.067,0.051 -0.02,0.02 -0.035,0.039 -0.047,0.055 L 39.373,73.162 28.86,83.66 18.362,73.162 18.334,73.119 c -0.012,-0.02 -0.032,-0.035 -0.051,-0.055 -0.024,-0.02 -0.055,-0.051 -0.055,-0.051 0.008,0.008 -0.059,-0.063 -0.059,-0.063 -0.024,-0.024 -0.095,-0.099 -0.102,-0.099 l -0.209,-0.102 c -0.024,-0.012 -0.059,-0.059 -0.059,-0.059 -0.024,0 -0.059,0.059 -0.059,0.059 0,0 -0.039,-0.043 -0.047,-0.059 -0.016,-0.008 -0.059,-0.047 -0.059,-0.047 -0.008,-0.02 -0.028,-0.035 -0.059,-0.063 -0.016,-0.012 -0.055,-0.055 -0.055,-0.063 -0.02,0 -0.059,0.067 -0.063,0.063 -0.016,-0.016 -0.039,-0.047 -0.063,-0.063 -0.016,-0.016 -0.047,-0.055 -0.047,-0.055 -0.016,-0.008 -0.091,0.016 -0.099,0 -0.047,-0.008 -0.055,-0.051 -0.055,-0.055 0,0 -0.024,0.055 -0.063,0.055 -0.028,0 -0.047,-0.055 -0.047,-0.055 -0.032,0 -0.099,0.008 -0.106,0 -0.028,0.008 -0.047,-0.047 -0.055,-0.055 -0.016,0 -0.047,0.055 -0.047,0.055 -0.016,-0.012 -0.063,-0.055 -0.063,-0.055 -0.016,-0.016 -0.055,-0.059 -0.055,-0.059 0,0 -0.087,0.012 -0.102,0 0,0 -0.024,-0.063 -0.051,-0.055 -0.016,0 -0.063,0.055 -0.063,0.055 0,-0.012 -0.047,-0.055 -0.047,-0.059 -0.008,0 -0.051,0.071 -0.055,0.059 -0.016,-0.02 -0.039,-0.043 -0.055,-0.059 0,-0.004 -0.043,-0.047 -0.059,-0.055 -0.008,-0.008 -0.051,0.055 -0.051,0.055 h -0.102 -0.079 l -0.051,-0.055 c -0.024,0 -0.055,0.059 -0.055,0.055 -0.035,0.004 -0.059,0.051 -0.059,0.051 0,0 -0.055,-0.051 -0.055,-0.055 0,0.008 -0.051,0.063 -0.051,0.055 0,0 -0.051,-0.047 -0.059,-0.055 -0.016,0 -0.024,0.047 -0.047,0.055 -0.012,-0.004 -0.035,-0.063 -0.063,-0.055 -0.039,0.004 -0.083,0.055 -0.083,0.055 l -0.055,0.059 c -0.008,0 -0.028,0.051 -0.051,0.059 -0.02,-0.02 -0.043,-0.043 -0.059,-0.059 -0.016,0.008 -0.059,0.059 -0.059,0.059 -0.032,0.004 -0.095,0 -0.095,0 -0.016,0.004 -0.059,0.047 -0.059,0.047 l -0.047,-0.043 c -0.059,0.028 -0.221,0.099 -0.229,0.099 0,0 -0.024,0.043 -0.047,0.051 0,-0.004 -0.162,0.055 -0.162,0.051 -0.016,0.012 -0.055,0.055 -0.055,0.055 -0.02,0.008 -0.055,0.059 -0.055,0.059 0,0 -0.024,-0.067 -0.051,-0.059 0,0 -0.039,0.047 -0.059,0.059 -0.032,0.016 -0.055,0.055 -0.055,0.055 -0.024,0.016 -0.047,0.043 -0.063,0.059 -0.016,0.016 -0.055,0.055 -0.055,0.055 L 14.251,72.836 14.2,72.891 c -0.016,0.016 -0.039,0.039 -0.055,0.055 -0.008,0.004 -0.083,0.083 -0.106,0.106 -0.008,0.012 -0.032,0.035 -0.059,0.051 -0.071,0.075 -0.024,0.028 -0.047,0.059 L 2.096,84.991 c -0.032,0.024 0.024,-0.024 -0.055,0.055 -0.008,0.012 -0.039,0.039 -0.051,0.055 -0.028,0.032 -0.102,0.102 -0.102,0.102 -0.016,0.012 -0.039,0.039 -0.055,0.055 -0.012,0.008 -0.055,0.059 -0.055,0.059 0,0 0.016,0.075 0,0.095 -0.016,0.02 -0.032,0.035 -0.059,0.059 -0.016,0.024 -0.047,0.055 -0.047,0.055 -0.024,0.032 -0.051,0.035 -0.067,0.059 l 0.067,0.059 c 0,0 -0.059,0.024 -0.067,0.051 0,0 -0.039,0.035 -0.047,0.055 -0.016,0.012 -0.032,0.028 -0.063,0.059 0,0.016 0.016,0.083 0.008,0.099 -0.016,0.028 -0.055,0.063 -0.055,0.063 0,0 -0.047,0.106 -0.059,0.146 -0.016,0.047 -0.055,0.055 -0.055,0.055 0,0 0.067,0.039 0.055,0.059 -0.008,0.016 -0.032,0.028 -0.055,0.059 -0.016,0.047 0,0.099 0,0.099 0,0 0.016,0.079 0,0.106 0.008,-0.008 -0.043,0.024 -0.051,0.047 -0.016,0.032 -0.071,0.063 -0.071,0.063 0,0 0,0.099 0.012,0.102 0,0 -0.012,0.095 0,0.102 0,0 -0.059,0.024 -0.059,0.047 l 0.059,0.059 c 0,0 -0.059,0.028 -0.059,0.059 0,0.008 -0.047,0.032 -0.055,0.059 l 0.055,0.051 v 0.102 0.102 c 0,0 -0.063,0.047 -0.055,0.047 0.016,0.02 0.055,0.059 0.055,0.059 -0.008,0.032 0.071,0.028 0.059,0.059 0,0 0,0.095 0,0.099 0,0.016 0,0.099 0,0.099 0.004,0.02 0,0.106 0,0.106 0,0 0.035,0.032 0.051,0.047 0.008,0.008 0.051,0.051 0.059,0.063 0,0.02 -0.051,0.032 -0.059,0.063 0.016,0.016 0.059,0.055 0.059,0.055 0,0 -0.016,0.059 0,0.106 0.008,0.039 0.055,0.055 0.055,0.055 0.012,0.024 -0.055,0.051 -0.055,0.051 0.008,0.012 0.055,0.15 0.055,0.162 0.028,0.024 0.043,0.035 0.059,0.055 0,0 0.039,0.035 0.055,0.059 l 0.055,0.154 c 0,0.008 0.063,0.024 0.055,0.059 0.016,0.024 -0.008,0.087 0,0.095 0,0.039 0.099,0.102 0.099,0.102 0,0 0.047,0.043 0.055,0.051 0.032,0.059 0,0.106 0,0.106 0.008,0 0.059,0.047 0.059,0.055 0.016,0.016 0.047,0.039 0.055,0.059 0,0 0.028,0.028 0.059,0.055 0.032,0.035 0.032,0.035 0.051,0.051 0.075,0.083 0.059,0.063 0.059,0.063 0,0 0.016,0.008 0.055,0.055 L 12.61,99.879 2.227,110.313 c -0.067,0.067 -0.067,0.059 -0.059,0.051 -0.024,0.031 -0.063,0.071 -0.047,0.055 -0.067,0.063 -0.035,0.031 -0.059,0.059 -0.028,0.031 -0.059,0.055 -0.059,0.055 0,0 -0.032,0.043 -0.055,0.067 -0.035,0.024 0,-0.008 -0.059,0.051 -0.004,0.004 -0.051,0.051 -0.051,0.051 -0.047,0.031 -0.083,0.071 -0.106,0.106 l 0.004,0.004 v 0.102 c -0.008,0 -0.043,0.039 -0.055,0.055 -0.012,0.008 -0.035,0.035 -0.051,0.051 -0.016,0.016 -0.063,0.158 -0.063,0.158 0,0 -0.047,0.047 -0.051,0.055 -0.02,0.016 -0.059,0.047 -0.059,0.047 0,0 0.067,0.055 0.059,0.063 -0.028,0.016 -0.043,0.035 -0.059,0.063 -0.024,0.024 -0.055,0.047 -0.055,0.047 -0.008,0.008 0.063,0.047 0.055,0.055 l -0.039,0.039 c -0.016,0.016 -0.051,0.055 -0.051,0.055 0,0 0.024,0.059 0,0.102 -0.012,0.043 -0.059,0.051 -0.059,0.051 0.016,0.024 0.039,0.047 0.059,0.059 -0.028,0.02 -0.043,0.039 -0.059,0.055 0,0 -0.051,0.051 -0.055,0.059 -0.008,0.008 0.055,0.047 0.055,0.051 -0.008,0.012 -0.055,0.051 -0.055,0.051 -0.008,0.012 0.055,0.055 0.055,0.055 -0.008,0.016 -0.055,0.051 -0.055,0.063 -0.008,0.004 0.055,0.047 0.055,0.051 -0.008,0.008 -0.051,0.051 -0.055,0.059 -0.004,0 -0.004,0.083 0,0.095 -0.008,0.008 0.055,0.059 0.055,0.059 -0.008,0.114 -0.063,0.031 -0.055,0.055 0,0.031 0.055,0.122 0.055,0.055 -0.008,0.055 -0.059,0.024 -0.055,0.055 -0.008,0.008 0.055,0.047 0.055,0.059 0,0 -0.059,-0.02 -0.055,0.051 -0.004,0.047 -0.004,0.099 0,0.099 0,0.035 -0.004,0.099 -0.004,0.099 0.028,0.024 0.035,0.039 0.059,0.055 -0.008,0.008 -0.055,0.055 -0.059,0.059 -0.004,0.012 0.059,0.039 0.059,0.051 -0.008,0.008 -0.071,0.039 -0.059,0.063 0.008,0.024 0.059,0.051 0.059,0.051 -0.008,0.008 0,0.102 0,0.102 0.008,0.031 0.051,0.059 0.051,0.059 -0.004,0 -0.051,0.047 -0.051,0.047 0.008,0.035 0.051,0.059 0.051,0.059 0,0 0.039,0.035 0.055,0.059 -0.004,0 0.043,0.02 0.051,0.051 0.016,0.024 -0.071,0.016 -0.051,0.055 0,0 0.035,0.024 0.051,0.047 0.024,0.059 0,0.106 0,0.106 0,0 0.039,0.047 0.059,0.055 0.012,0.028 0.055,0.055 0.055,0.055 0.008,0.024 -0.004,0.083 0,0.106 -0.004,0 0.043,0.031 0.059,0.051 0,0 0.047,0.051 0.051,0.059 0,0 -0.02,0.083 -0.004,0.099 0,0 0.043,0.039 0.059,0.055 0.012,0.016 0.051,0.047 0.051,0.047 0.016,0.028 0.051,0.059 0.063,0.059 0.012,0.035 0,0.102 0,0.102 0,0 0.039,0.047 0.047,0.055 0.016,0.02 0.055,0.055 0.063,0.055 0.016,0.024 0.039,0.047 0.047,0.055 0.032,0.024 0.055,0.047 0.055,0.059 0.071,0.075 0.047,0.043 0.055,0.051 0.024,0.024 -0.032,-0.028 0.047,0.047 l 11.833,11.83 c 0.032,0.035 -0.02,-0.016 0.055,0.063 0.02,0.016 0.043,0.039 0.059,0.055 0.032,0.031 0.099,0.095 0.099,0.102 0.02,0.016 0.047,0.039 0.055,0.051 l 0.055,0.055 c 0,0 0.079,-0.024 0.106,0 0.024,0.016 0.055,0.055 0.055,0.055 0,0 0.039,0.039 0.051,0.051 0.043,0.028 0.102,0 0.102,0 0,0 0.032,0.051 0.051,0.059 0,0 0.039,0.035 0.059,0.051 0.016,0.016 0.024,0.035 0.047,0.055 0.035,0.012 0.087,-0.004 0.106,0 0.032,0.012 0.047,0.059 0.055,0.059 0,0 0.122,0.047 0.154,0.047 0.039,0.016 0.059,0.055 0.059,0.055 0,0 0.028,-0.055 0.051,-0.055 0.032,0.016 0.063,0.055 0.063,0.055 0,0 0.039,0.063 0.055,0.063 0,-0.008 0.047,-0.051 0.051,-0.063 0.028,0.016 0.043,0.063 0.059,0.063 0.024,0 0.051,-0.051 0.051,-0.063 0.028,0.012 0.043,0.063 0.055,0.055 0.028,0.016 0.059,0.059 0.059,0.059 0,0 0.146,-0.217 0.154,-0.217 0.008,-0.004 0.043,0.055 0.055,0.055 0.024,0.008 0.051,-0.055 0.051,-0.055 h 0.106 c 0.024,0.008 0.028,0.055 0.051,0.055 0.004,0 0.032,0.047 0.055,0.047 l 0.059,-0.047 h 0.102 0.099 c 0,0 0.039,0.047 0.055,0.047 0.008,-0.008 0.047,-0.047 0.047,-0.047 0.063,0 0.106,0 0.106,0 0,-0.012 0.047,-0.055 0.055,-0.059 0,0.004 0.047,0.059 0.059,0.059 0.024,0 0.059,-0.055 0.059,-0.059 0,-0.008 0.095,0.004 0.095,0 0,0 0.039,-0.039 0.051,-0.059 0.024,-0.008 0.024,-0.047 0.063,-0.047 0.035,0 0.095,0 0.095,0 0,0 0.067,0.024 0.106,0 0.039,-0.008 0.055,-0.059 0.055,-0.059 0.035,0 0.059,0.059 0.059,0.059 0,-0.008 0.146,-0.059 0.154,-0.063 0.016,-0.016 0.039,-0.031 0.051,-0.055 0.008,-0.008 0.055,-0.055 0.055,-0.055 0.012,-0.016 0.087,0.008 0.106,0 0.016,-0.02 0.051,-0.059 0.051,-0.059 0.02,-0.012 0.047,-0.043 0.055,-0.051 0.016,-0.016 0.091,0.008 0.102,0 0.035,0 0.102,-0.106 0.102,-0.106 0,0 0.039,-0.039 0.051,-0.055 0.059,-0.016 0.102,0 0.102,0 0,0 0.047,-0.039 0.055,-0.055 0.016,-0.008 0.043,-0.043 0.055,-0.055 0.032,-0.028 0.055,-0.055 0.055,-0.055 0.028,-0.031 0.039,-0.031 0.055,-0.055 0.024,-0.024 0.063,-0.063 0.055,-0.055 0,0 0.008,-0.008 0.055,-0.055 l 10.592,-10.481 10.557,10.545 c 0.039,0.047 0.055,0.055 0.055,0.055 0,0 0.032,0.031 0.051,0.059 0.024,0.024 0.028,0.028 0.051,0.051 0,0.004 0.032,0.039 0.055,0.063 0.02,0.008 0.051,0.039 0.059,0.051 0.008,0.012 0.051,0.055 0.051,0.055 0,0 0.063,-0.02 0.106,0 0.016,0.016 0.055,0.051 0.055,0.051 0,0 0.079,0.106 0.099,0.106 0.016,0.008 0.083,-0.02 0.099,0 0.008,0.008 0.043,0.039 0.063,0.055 0,0 0.035,0.039 0.051,0.063 0.02,0.004 0.091,-0.024 0.106,0 0,0 0.047,0.047 0.051,0.047 0.024,0.024 0.039,0.047 0.055,0.055 0.016,0.008 0.154,0.055 0.154,0.063 0,0 0.032,-0.055 0.055,-0.055 0,0 0.016,0.047 0.055,0.055 0.055,0.024 0.106,0 0.106,0 0,0 0.071,0 0.099,0 0.047,0.004 0.047,0.035 0.055,0.051 0.016,0.02 0.059,0.051 0.059,0.051 0,0.008 0.095,0 0.095,0 0.008,0.008 0.032,0.063 0.059,0.055 0.012,0 0.051,-0.047 0.051,-0.055 0.008,0.008 0.055,0.055 0.063,0.055 0,0.008 0.055,0 0.095,0 0.004,0.008 0.043,0.055 0.059,0.063 0.008,0 0.055,-0.063 0.055,-0.063 l 0.099,0.008 h 0.099 l 0.055,0.055 c 0.024,-0.004 0.059,-0.063 0.059,-0.055 0.024,-0.008 0.035,-0.047 0.055,-0.055 h 0.099 c 0.008,0 0.035,0.067 0.059,0.055 0.008,0 0.047,-0.063 0.055,-0.055 0.016,0 0.099,0 0.099,0 0,0 0.028,-0.043 0.055,-0.055 0.016,0.004 0.032,-0.043 0.055,-0.051 0.008,0.008 0.032,0.063 0.055,0.055 0.012,0 0.032,-0.047 0.055,-0.055 0.008,0.008 0.047,0.051 0.047,0.055 0.02,0 0.063,-0.055 0.063,-0.055 0,0 0.032,-0.043 0.055,-0.051 0.032,-0.008 0.063,0.051 0.063,0.051 0,0 0.008,-0.043 0.051,-0.051 0.043,-0.016 0.15,-0.059 0.15,-0.059 0.02,0 0.032,-0.047 0.055,-0.051 0.024,-0.004 0.083,0.008 0.106,0 0.024,-0.024 0.035,-0.047 0.047,-0.055 0.032,-0.024 0.063,-0.059 0.063,-0.059 0.016,-0.004 0.051,-0.055 0.051,-0.055 0,0 0.067,0.028 0.102,0 0.016,-0.012 0.051,-0.051 0.051,-0.051 0,0 0.043,-0.043 0.059,-0.059 0.032,-0.016 0.102,0 0.102,0 l 0.055,-0.051 c 0.016,-0.016 0.043,-0.047 0.051,-0.055 0,-0.008 0.083,-0.083 0.102,-0.102 0.016,-0.012 0.043,-0.043 0.059,-0.051 0.079,-0.079 0.032,-0.031 0.055,-0.055 l 11.829,-11.834 c 0.083,-0.083 0.032,-0.028 0.051,-0.055 0.012,-0.008 -0.012,0.031 0.059,-0.051 0,0 0.024,-0.031 0.051,-0.051 0.016,-0.02 0.032,-0.039 0.051,-0.059 0.012,-0.008 0.047,-0.039 0.063,-0.063 0.008,-0.008 0.047,-0.047 0.047,-0.047 0,0 -0.016,-0.079 0,-0.106 0.008,0 0.047,-0.031 0.055,-0.047 0.012,-0.008 0.047,-0.039 0.055,-0.059 0.016,-0.012 0.055,-0.051 0.055,-0.051 0.02,-0.016 0,-0.102 0,-0.102 0.012,-0.008 0.051,-0.059 0.051,-0.059 0.02,-0.016 0.067,-0.047 0.059,-0.047 0.008,-0.028 -0.008,-0.083 0,-0.106 0,0 0.055,-0.031 0.055,-0.055 0.016,-0.008 0.055,-0.055 0.055,-0.055 0,0 -0.024,-0.055 0,-0.099 0.02,-0.035 0.055,-0.059 0.055,-0.059 0.024,-0.035 -0.063,-0.028 -0.055,-0.051 0.008,-0.039 0.055,-0.055 0.055,-0.055 0.024,-0.016 0.055,-0.055 0.055,-0.055 0,0 0.051,-0.028 0.051,-0.055 0,-0.008 -0.051,-0.055 -0.051,-0.055 0,0 0.043,-0.024 0.051,-0.059 0,0 0.016,-0.095 0,-0.095 0,0 0.051,-0.031 0.059,-0.059 0.008,-0.028 -0.051,-0.051 -0.059,-0.059 0,-0.012 0.067,-0.047 0.059,-0.055 -0.012,-0.008 -0.059,-0.047 -0.059,-0.047 0.024,-0.016 0.043,-0.039 0.059,-0.059 0,-0.004 -0.008,-0.075 -0.008,-0.102 0.008,0 0.008,-0.063 0,-0.099 0.008,-0.071 -0.051,-0.055 -0.051,-0.055 0,-0.008 0.067,-0.051 0.051,-0.059 0.008,-0.028 -0.051,0.004 -0.051,-0.051 0,0.071 0.051,-0.024 0.051,-0.055 0.016,-0.028 -0.051,0.063 -0.051,-0.059 0,-0.004 0.067,-0.051 0.051,-0.051 0.008,-0.024 0.008,-0.102 0,-0.106 -0.004,-0.004 -0.043,-0.047 -0.051,-0.055 -0.008,0 0.059,-0.055 0.051,-0.055 -0.004,-0.008 -0.043,-0.039 -0.051,-0.055 0,0 0.067,-0.043 0.051,-0.055 -0.004,-0.008 -0.043,-0.047 -0.051,-0.047 0,-0.008 0.067,-0.051 0.051,-0.059 -0.004,-0.008 -0.051,-0.051 -0.051,-0.051 -0.016,-0.024 -0.032,-0.039 -0.059,-0.063 0.028,-0.016 0.043,-0.031 0.059,-0.055 0,0 -0.051,-0.008 -0.059,-0.047 -0.024,-0.055 0,-0.106 0,-0.106 0,0 -0.039,-0.043 -0.055,-0.055 0,0 -0.039,-0.039 -0.055,-0.055 0,-0.008 0.071,-0.051 0.055,-0.059 0,0 -0.032,-0.031 -0.055,-0.051 -0.016,-0.024 -0.039,-0.039 -0.047,-0.055 -0.016,-0.008 0.047,-0.063 0.047,-0.063 0,0 -0.039,-0.035 -0.047,-0.047 -0.016,-0.008 -0.063,-0.055 -0.063,-0.055 0,0 -0.043,-0.146 -0.059,-0.154 -0.016,-0.024 -0.043,-0.051 -0.051,-0.059 -0.016,-0.016 -0.055,-0.055 -0.055,-0.059 v -0.035 c -0.028,-0.039 -0.071,-0.083 -0.099,-0.102 0,0 -0.055,-0.047 -0.055,-0.059 -0.055,-0.055 -0.032,-0.024 -0.055,-0.047 -0.024,-0.028 -0.055,-0.059 -0.055,-0.059 0,0 -0.032,-0.024 -0.055,-0.055 -0.028,-0.024 0,0 -0.055,-0.055 0.012,0.016 -0.028,-0.031 -0.063,-0.055 0.02,0.008 0.02,0.016 -0.047,-0.059 L 45.187,99.729 55.685,89.224 c 0.047,-0.043 0.059,-0.059 0.059,-0.059 0,0.008 -0.02,0.024 0.059,-0.051 0.024,-0.032 0.024,-0.032 0.047,-0.055 0.039,-0.032 0.063,-0.055 0.063,-0.063 0.016,-0.008 0.039,-0.039 0.055,-0.055 0.004,-0.008 0.055,-0.047 0.055,-0.055 0,0 -0.032,-0.059 0,-0.102 0.016,-0.012 0.059,-0.051 0.059,-0.051 0,0 0.102,-0.075 0.095,-0.106 0.008,-0.008 -0.016,-0.083 0.008,-0.099 -0.016,-0.032 0.047,-0.047 0.047,-0.055 0,0.008 0.059,-0.154 0.059,-0.154 0.02,-0.02 0.059,-0.063 0.059,-0.063 0.016,-0.008 0.039,-0.032 0.055,-0.051 0.008,-0.008 0.055,-0.15 0.055,-0.158 0,0 -0.063,-0.035 -0.055,-0.059 0,0 0.055,-0.008 0.055,-0.051 0.016,-0.055 0,-0.102 0,-0.102 0,0 0.039,-0.043 0.055,-0.059 0,-0.032 -0.055,-0.039 -0.055,-0.055 0.012,-0.016 0.055,-0.055 0.055,-0.055 0.016,-0.016 0.055,-0.063 0.055,-0.063 0,0 -0.008,-0.083 0,-0.099 0,0 0,-0.083 0,-0.099 v -0.099 c -0.134,0.083 -0.075,0.083 -0.075,0.051"
     id="path15"
     style="fill:#020202" /><g
     transform="translate(0,0.192)"
     id="g17"><path
       d="m 16,20.6 h 54 v -16 c 0,-3.2 3.6,-5.2 6,-3.2 l 50,40 c 2,1.6 2,4.8 0,6.4 l -50,40 c -2.4,2 -6,0 -6,-3.2 v -16 H 16 v -48"
       id="path19"
       style="fill:#010101" /><path
       d="M 74.4,24.6 V 5 L 124,44.6 74.4,84.2 V 64.6 H 20 v -40 h 54.4 z"
       id="path21"
       style="fill:#75bf45" /><path
       d="M 118,44.6 78.4,13 V 28.6 H 24 v 32 H 78.4 V 76.2 L 118,44.6 z"
       id="path23"
       style="fill:url(#0)" /></g><g
     transform="translate(0.192,0.048)"
     id="g25"><path
       d="m 16.6,100 -12.8,12.8 12,12 12.8,-12.8 13.2,12.8 12,-12 L 40.6,100 53.8,86.8 41.8,74.8 28.6,87.6 15.8,74.8 3.8,86.8 16.6,100"
       id="path27"
       style="fill:#eb2626" /><path
       d="m 19.8,100 -13.2,12.8 9.2,8.8 12.8,-12.8 13.2,12.8 8.8,-8.8 L 37.8,100 50.6,86.8 41.8,78 28.6,90.8 15.8,78 6.6,86.8 19.8,100"
       id="path29"
       style="fill:url(#1)" /></g></svg>