<?xml version="1.0" encoding="utf-8"?>
<!-- Generator: Adobe Illustrator 16.0.0, SVG Export Plug-In . SVG Version: 6.00 Build 0)  -->
<!DOCTYPE svg PUBLIC "-//W3C//DTD SVG 1.1//EN" "http://www.w3.org/Graphics/SVG/1.1/DTD/svg11.dtd">
<svg version="1.1"
	 id="svg2" xmlns:dc="http://purl.org/dc/elements/1.1/" xmlns:cc="http://creativecommons.org/ns#" xmlns:rdf="http://www.w3.org/1999/02/22-rdf-syntax-ns#" xmlns:svg="http://www.w3.org/2000/svg"
	 xmlns="http://www.w3.org/2000/svg" xmlns:xlink="http://www.w3.org/1999/xlink" x="0px" y="0px" width="32px" height="32px"
	 viewBox="0 0 32 32" enable-background="new 0 0 32 32" xml:space="preserve">
<g>
	<path id="path19" d="M1,16.279c-0.262,0-0.518-0.104-0.707-0.293c-0.24-0.24-0.342-0.585-0.271-0.917L3.081,0.791
		c0.077-0.358,0.343-0.646,0.695-0.75C3.869,0.013,3.964,0,4.059,0C4.32,0,4.576,0.103,4.766,0.293l3.143,3.143
		c2.849-2.459,5.919-3,8.068-3c3.289,0,6.531,1.281,8.677,3.427c4.191,4.191,3.197,8.479,2.793,9.693
		c-0.139,0.412-0.523,0.684-0.949,0.684c-0.035,0-0.068-0.002-0.105-0.005c-0.467-0.05-0.836-0.417-0.889-0.884
		c-0.494-4.444-3.053-7.097-6.846-7.097c-2.014,0-4.065,0.783-5.755,2.176l3.083,3.083c0.259,0.259,0.355,0.639,0.252,0.99
		c-0.104,0.352-0.392,0.618-0.749,0.695L1.21,16.258C1.14,16.271,1.069,16.279,1,16.279L1,16.279z"/>
	<path id="path2168" fill="#6EBD46" d="M7.884,4.824L4.059,1l-3.06,14.279l14.278-3.06l-3.823-3.824
		c5.099-5.1,14.024-4.335,15.042,4.845c0.51-1.53,1.021-5.1-2.549-8.67C20.377,1,12.984-0.275,7.884,4.824z"/>
	
		<linearGradient id="path27_1_" gradientUnits="userSpaceOnUse" x1="292.3008" y1="-355.2061" x2="313.8535" y2="-355.2061" gradientTransform="matrix(1 0 0 -1 -290 -347)">
		<stop  offset="0" style="stop-color:#B0D68C"/>
		<stop  offset="1" style="stop-color:#1E9046"/>
	</linearGradient>
	<path id="path27" fill="url(#path27_1_)" d="M4.652,3.007l3.232,3.231l0.707-0.707c2.56-2.559,5.43-3.096,7.386-3.096
		c2.769,0,5.484,1.062,7.263,2.841c0.223,0.222,0.426,0.443,0.613,0.663c-1.57-1.187-3.438-1.686-5.195-1.686
		c-2.845,0-5.728,1.252-7.911,3.435L10.04,8.395l3.231,3.232l-10.97,2.35L4.652,3.007z"/>
	<path id="path43" d="M23.902,32c-0.262,0-0.518-0.104-0.707-0.293l-3.145-3.143c-2.848,2.459-5.917,3-8.066,3l0,0
		c-3.288,0-6.531-1.281-8.678-3.428c-4.19-4.189-3.196-8.479-2.791-9.693c0.137-0.41,0.522-0.684,0.948-0.684
		c0.035,0,0.07,0.002,0.106,0.006c0.467,0.049,0.836,0.418,0.888,0.885c0.494,4.443,3.053,7.097,6.846,7.097
		c2.015,0,4.066-0.783,5.756-2.175l-3.083-3.086c-0.259-0.258-0.356-0.639-0.252-0.989s0.391-0.618,0.75-0.694l14.279-3.059
		c0.068-0.015,0.141-0.022,0.209-0.022c0.264,0,0.518,0.104,0.707,0.293c0.24,0.24,0.342,0.584,0.271,0.917L24.881,31.21
		c-0.076,0.356-0.344,0.646-0.693,0.749C24.092,31.986,23.998,32,23.902,32L23.902,32z"/>
	<path id="use2182" fill="#6EBD46" d="M20.078,27.176L23.902,31l3.061-14.277l-14.279,3.057l3.825,3.826
		c-5.1,5.1-14.024,4.334-15.044-4.846c-0.51,1.53-1.02,5.1,2.549,8.67C7.584,31,14.978,32.273,20.078,27.176z"/>
	
		<linearGradient id="path51_1_" gradientUnits="userSpaceOnUse" x1="294.1055" y1="-370.7939" x2="315.6602" y2="-370.7939" gradientTransform="matrix(1 0 0 -1 -290 -347)">
		<stop  offset="0" style="stop-color:#B0D68C"/>
		<stop  offset="1" style="stop-color:#1E9046"/>
	</linearGradient>
	<path id="path51" fill="url(#path51_1_)" d="M11.984,29.564c-2.769,0-5.484-1.063-7.264-2.842
		c-0.222-0.222-0.426-0.443-0.614-0.664c1.572,1.188,3.44,1.688,5.197,1.688c2.846,0,5.729-1.252,7.912-3.435l0.707-0.707
		l-3.232-3.232l10.97-2.35l-2.35,10.97l-3.232-3.231l-0.707,0.707C16.811,29.027,13.941,29.564,11.984,29.564L11.984,29.564z"/>
</g>
<path fill="#FFFFFF" d="M27.314,13.015c-0.271-0.824-1.034-1.378-1.901-1.378h-0.201c0.143,0.538,0.252,1.108,0.319,1.715
	c0.053,0.467,0.422,0.834,0.889,0.883c0.037,0.004,0.07,0.006,0.105,0.006c0.426,0,0.811-0.272,0.949-0.684
	c0.002-0.008,0.006-0.018,0.008-0.025L27.314,13.015z"/>
<path fill="#FFFFFF" d="M26.99,15.723c-0.068,0-0.141,0.006-0.209,0.021l-9.515,2.038l-4.102,12.599
	c-0.12,0.369-0.115,0.759-0.018,1.126c2.023-0.18,4.551-0.887,6.932-2.942l1.366,1.365l0.028-0.094h3.194l0.313,1.035l2.988-13.939
	c0.07-0.332-0.031-0.677-0.271-0.916C27.508,15.826,27.254,15.723,26.99,15.723z"/>
<g>
	<path d="M27.083,32c-0.44,0-0.829-0.288-0.957-0.709l-0.745-2.455h-4.675l-0.754,2.457C19.823,31.713,19.436,32,18.996,32h-3.957
		c-0.32,0-0.621-0.153-0.809-0.412c-0.188-0.26-0.241-0.593-0.142-0.897l5.654-17.364c0.135-0.412,0.519-0.69,0.951-0.69h4.692
		c0.433,0,0.816,0.279,0.951,0.69L31.99,30.69c0.099,0.305,0.046,0.638-0.142,0.897C31.66,31.847,31.359,32,31.039,32H27.083z
		 M23.783,23.615l-0.741-2.456l-0.745,2.456H23.783z"/>
	<linearGradient id="path3056_1_" gradientUnits="userSpaceOnUse" x1="15.0391" y1="22.3184" x2="31.0391" y2="22.3184">
		<stop  offset="0" style="stop-color:#0787BA"/>
		<stop  offset="1" style="stop-color:#F1F4F7"/>
	</linearGradient>
	<path id="path3056" fill="url(#path3056_1_)" d="M26.122,27.836h-6.155L18.996,31h-3.957l5.654-17.364h4.692L31.039,31h-3.956
		L26.122,27.836 M20.948,24.615h4.182l-2.086-6.908L20.948,24.615"/>
</g>
</svg>
