<?xml version="1.0" encoding="utf-8"?>
<!-- Generator: Adobe Illustrator 15.1.0, SVG Export Plug-In . SVG Version: 6.00 Build 0)  -->
<!DOCTYPE svg PUBLIC "-//W3C//DTD SVG 1.1//EN" "http://www.w3.org/Graphics/SVG/1.1/DTD/svg11.dtd">
<svg version="1.1" id="Layer_1" xmlns="http://www.w3.org/2000/svg" xmlns:xlink="http://www.w3.org/1999/xlink" x="0px" y="0px"
	 width="32px" height="32px" viewBox="0 0 32 32" enable-background="new 0 0 32 32" xml:space="preserve">
<g>
	<path fill-rule="evenodd" clip-rule="evenodd" d="M24.54,32.002c-1.039,0-1.951-0.885-1.951-1.893c0-0.56,0.248-0.967,0.49-1.293
		c0.021-0.027,0.044-0.055,0.068-0.081c3.082-3.324,4.922-8.091,4.922-12.75c0-4.604-1.841-9.353-4.925-12.704
		c-0.459-0.498-0.556-1.004-0.556-1.341c0-1.034,0.912-1.942,1.951-1.942c0.555,0,1.058,0.24,1.396,0.663
		C29.734,4.549,32,10.272,32,15.985c0,5.7-2.34,11.629-6.107,15.473C25.621,31.797,25.146,32.002,24.54,32.002z M20.401,28.678
		c-1.12,0-2.032-0.924-2.032-2.062c0-0.499,0.23-1.019,0.592-1.343c2.404-2.479,3.728-5.775,3.728-9.288
		c0-3.427-1.369-6.802-3.758-9.261c-0.354-0.369-0.562-0.872-0.562-1.352c0-1.063,0.931-1.962,2.032-1.962
		c0.477,0,0.904,0.206,1.18,0.38c0.07,0.043,0.134,0.096,0.191,0.156c3.05,3.194,4.8,7.582,4.8,12.038
		c0,4.528-1.703,8.831-4.795,12.116c-0.052,0.054-0.108,0.102-0.17,0.143C21.175,28.537,20.78,28.678,20.401,28.678z M10.841,26.123
		c-0.403,0-0.727-0.219-0.927-0.401l-5.427-5.282H1.321C0.605,20.439,0,19.839,0,19.128v-6.239c0-0.148,0.033-0.296,0.097-0.43
		c0.258-0.541,0.716-0.864,1.225-0.864H4.49l5.406-5.199c0.15-0.174,0.49-0.45,0.944-0.45c0.7,0,1.291,0.578,1.291,1.262v17.631
		C12.132,25.534,11.541,26.123,10.841,26.123z M16.132,25.188c-1.061,0-1.957-0.872-1.957-1.905c0-0.5,0.285-0.959,0.534-1.302
		c0.026-0.036,0.055-0.071,0.086-0.103c1.718-1.803,2.483-3.619,2.483-5.894c0-2.248-0.763-4.027-2.474-5.77
		c-0.04-0.041-0.076-0.085-0.108-0.132c-0.271-0.392-0.521-0.82-0.521-1.305c0-1.199,0.994-1.941,1.916-1.941
		c0.57,0,1.071,0.208,1.448,0.602c2.391,2.307,3.67,5.271,3.67,8.546c0,3.282-1.306,6.335-3.677,8.595
		C17.207,24.956,16.702,25.188,16.132,25.188z"/>
	<linearGradient id="SVGID_1_" gradientUnits="userSpaceOnUse" x1="1" y1="16" x2="31" y2="16">
		<stop  offset="0" style="stop-color:#B1D2DB"/>
		<stop  offset="1" style="stop-color:#107D9F"/>
	</linearGradient>
	<path fill-rule="evenodd" clip-rule="evenodd" fill="url(#SVGID_1_)" d="M4.894,12.595H1.321C1.14,12.595,1,12.889,1,12.889v6.239
		c0,0.149,0.14,0.312,0.321,0.312h3.572l5.696,5.545c0,0,0.151,0.139,0.251,0.139c0.14,0,0.291-0.123,0.291-0.285V7.207
		c0-0.131-0.151-0.262-0.291-0.262c-0.1,0-0.251,0.171-0.251,0.171L4.894,12.595L4.894,12.595z M20.209,15.985
		c0-3.097-1.271-5.808-3.393-7.854c-0.195-0.204-0.446-0.293-0.726-0.293c-0.432,0-0.916,0.369-0.916,0.941
		c0,0.215,0.189,0.513,0.344,0.736c2.021,2.059,2.76,4.161,2.76,6.47c0,2.345-0.738,4.462-2.76,6.583
		c-0.154,0.213-0.344,0.506-0.344,0.715c0,0.519,0.484,0.905,0.957,0.905c0.303,0,0.53-0.127,0.711-0.333
		C18.938,21.859,20.209,19.128,20.209,15.985L20.209,15.985z M25.572,15.985c0-4.175-1.636-8.323-4.523-11.349
		c-0.228-0.143-0.461-0.226-0.647-0.226c-0.561,0-1.032,0.456-1.032,0.962c0,0.209,0.102,0.47,0.279,0.655
		c2.585,2.661,4.04,6.244,4.04,9.957c0,3.787-1.455,7.367-4.04,10.016c-0.178,0.145-0.279,0.409-0.279,0.615
		c0,0.606,0.472,1.062,1.032,1.062c0.187,0,0.42-0.109,0.647-0.262C23.937,24.349,25.572,20.279,25.572,15.985L25.572,15.985z
		 M31,15.985c0-5.301-2.094-10.878-5.821-14.667c-0.166-0.23-0.408-0.32-0.639-0.32c-0.493,0-0.951,0.477-0.951,0.942
		c0,0.235,0.1,0.455,0.292,0.663c3.305,3.592,5.188,8.615,5.188,13.382c0,4.813-1.884,9.865-5.188,13.43
		c-0.192,0.258-0.292,0.454-0.292,0.694c0,0.462,0.458,0.893,0.951,0.893c0.23,0,0.473-0.041,0.639-0.244
		C28.906,26.955,31,21.287,31,15.985"/>
</g>
</svg>
