<?xml version="1.0" encoding="utf-8"?>
<!-- Generator: Adobe Illustrator 15.1.0, SVG Export Plug-In . SVG Version: 6.00 Build 0)  -->
<!DOCTYPE svg PUBLIC "-//W3C//DTD SVG 1.1//EN" "http://www.w3.org/Graphics/SVG/1.1/DTD/svg11.dtd">
<svg version="1.1" id="Layer_1" xmlns="http://www.w3.org/2000/svg" xmlns:xlink="http://www.w3.org/1999/xlink" x="0px" y="0px"
	 width="32px" height="32px" viewBox="0 0 32 32" enable-background="new 0 0 32 32" xml:space="preserve">
<g>
	<path fill-rule="evenodd" clip-rule="evenodd" d="M20.775,26.089c-0.404,0-0.727-0.219-0.928-0.401l-5.426-5.282h-3.166
		c-0.716,0-1.321-0.601-1.321-1.312v-6.239c0-0.148,0.033-0.296,0.097-0.43c0.258-0.541,0.716-0.864,1.225-0.864h3.169l5.406-5.199
		c0.15-0.174,0.49-0.45,0.945-0.45c0.699,0,1.291,0.578,1.291,1.262v17.631C22.066,25.5,21.475,26.089,20.775,26.089z"/>
	<linearGradient id="SVGID_1_" gradientUnits="userSpaceOnUse" x1="11.2905" y1="16" x2="40.0419" y2="16">
		<stop  offset="0" style="stop-color:#B1D2DB"/>
		<stop  offset="1" style="stop-color:#107D9F"/>
	</linearGradient>
	<path fill-rule="evenodd" clip-rule="evenodd" fill="url(#SVGID_1_)" d="M14.828,12.561h-3.572c-0.182,0-0.321,0.294-0.321,0.294
		v6.239c0,0.149,0.14,0.312,0.321,0.312h3.572l5.696,5.545c0,0,0.152,0.139,0.252,0.139c0.139,0,0.291-0.123,0.291-0.285V7.173
		c0-0.131-0.152-0.262-0.291-0.262c-0.1,0-0.252,0.171-0.252,0.171L14.828,12.561L14.828,12.561z"/>
</g>
</svg>
