<?xml version="1.0" encoding="utf-8"?>
<!-- Generator: Adobe Illustrator 17.1.0, SVG Export Plug-In . SVG Version: 6.00 Build 0)  -->
<!DOCTYPE svg PUBLIC "-//W3C//DTD SVG 1.1//EN" "http://www.w3.org/Graphics/SVG/1.1/DTD/svg11.dtd">
<svg version="1.1" id="Layer_1" xmlns="http://www.w3.org/2000/svg" xmlns:xlink="http://www.w3.org/1999/xlink" x="0px" y="0px"
	 viewBox="0 0 32 32" enable-background="new 0 0 32 32" xml:space="preserve">
<g>
	<path id="path4588_1_" fill="#030303" d="M4.3,22c-0.6,0-1-0.5-1-1v-1.4c0-0.6,0.5-1,1-1H9v-0.3H1c-0.6,0-1-0.5-1-1V1
		c0-0.6,0.5-1,1-1h24c0.6,0,1,0.5,1,1v16.2c0,0.6-0.5,1-1,1H17v0.3h4.7c0.6,0,1,0.5,1,1V21c0,0.6-0.5,1-1,1H4.3z"/>
	<path id="rect24612_2_" fill="#D4D5D5" d="M1,1v16.2h9v2.4H4.3V21h17.4v-1.4H16v-2.4h9V1H1z"/>
	<rect id="rect4591_1_" x="10" y="17.2" fill="#939598" width="6" height="2.4"/>
	<rect id="rect4593_1_" x="4.3" y="19.5" fill="#D4D5D5" width="17.4" height="1.4"/>
	
		<linearGradient id="rect24614_3_" gradientUnits="userSpaceOnUse" x1="848.9583" y1="1217.0541" x2="868.0818" y2="1229.3751" gradientTransform="matrix(1 0 0 1 -844.6201 -1213.5195)">
		<stop  offset="0" style="stop-color:#3BAFDB"/>
		<stop  offset="0.5" style="stop-color:#A9CEDF"/>
		<stop  offset="1" style="stop-color:#2677BD"/>
	</linearGradient>
	<rect id="rect24614_2_" x="2.2" y="2.2" fill="url(#rect24614_3_)" width="21.7" height="13.7"/>
</g>
<g>
	<g>
		<path fill="#010101" d="M0,26.2c0-2.7,0.3-3.2,0.6-3.4c1.3-1,2.1-0.3,2.6,0.1c0.4,0.3,0.8,0.6,1.5,0.6c0.4,0,0.8-0.1,1.1-0.4
			c0.3-0.3,0.5-0.8,0.5-1.3c0-0.9-0.8-1.7-1.7-1.7c-0.3,0-0.8,0.2-1.2,0.4c-0.8,0.4-2,1.1-3-0.1c-0.2-0.2-0.3-0.5-0.3-2.7
			c0-1,0-2,0-2.8c0-0.2,0.1-0.4,0.2-0.5c0.1-0.1,0.3-0.2,0.5-0.2c3.1,0.1,5,0.1,5.5,0c0-0.1,0-0.1,0-0.1c0-0.2-0.2-0.6-0.4-1
			c-0.3-0.6-0.6-1.2-0.6-1.9C5.5,9.4,6.9,8,8.7,8c1.8,0,3.2,1.4,3.2,3.1l0,0.1c0,1.2-0.6,1.9-1,2.4c-0.1,0.1-0.3,0.3-0.3,0.4
			c0,0,0,0.1,0.1,0.2c0.8,0.2,4.3,0.1,7.3,0c0.2,0,0.4,0.1,0.6,0.2c0.2,0.1,0.2,0.3,0.2,0.5v16.3c0,0.4-0.3,0.8-0.8,0.8H0.9
			c-0.4,0-0.7-0.3-0.7-0.7C0.2,31.3,0,28.5,0,26.2L0,26.2z"/>
		<path fill="#FBA91F" d="M18.1,15c0,0-7.4,0.5-7.9-0.1c-1.1-1.5,0.8-1.5,0.9-3.6c0-1.3-1.1-2.4-2.5-2.4s-2.4,1.1-2.5,2.4
			c0,1.3,1.8,2.7,0.6,3.7C6.5,15.1,2,15,0.9,15c0,1.7-0.1,4.8,0.1,5c1,1.2,2.4-0.7,3.7-0.6c1.3,0,2.4,1.1,2.4,2.5
			c0,1.4-1.1,2.5-2.4,2.5c-2.1-0.1-2.2-2-3.6-0.9c-0.6,0.5-0.1,7.8-0.1,7.8h17.2V15z"/>
		
			<linearGradient id="SVGID_1_" gradientUnits="userSpaceOnUse" x1="-4.3545" y1="-90.7695" x2="16.6465" y2="-90.7695" gradientTransform="matrix(0 1 1 0 100.1895 13.8535)">
			<stop  offset="0" style="stop-color:#FFF3E1"/>
			<stop  offset="0.5394" style="stop-color:#FBA91F"/>
			<stop  offset="1" style="stop-color:#A5672A"/>
		</linearGradient>
		<path fill="url(#SVGID_1_)" d="M1.5,26.2c0-1.6,0.1-2.1,0.1-2.3c0.2-0.1,0.2-0.1,0.2-0.1c0.1,0,0.3,0.2,0.4,0.3
			c0.5,0.4,1.2,0.9,2.4,1c0.8,0,1.6-0.3,2.2-0.9c0.6-0.6,1-1.5,1-2.4c0-1.7-1.4-3.2-3.2-3.2c-0.7,0-1.4,0.3-1.9,0.6
			c-0.7,0.4-1,0.5-1.1,0.4c0-0.2-0.1-0.7-0.1-1.8c0-0.7,0-1.4,0-2c5.2,0.2,5.5-0.1,5.7-0.3C7.7,15.1,8,14.6,8,14.1
			c0-0.6-0.3-1.2-0.6-1.7c-0.2-0.4-0.4-0.8-0.4-1.2c0-1,0.8-1.7,1.7-1.7c0.9,0,1.7,0.7,1.7,1.6c0,0.8-0.3,1.2-0.6,1.6
			C9.5,13,9.1,13.4,9.1,14c0,0.4,0.2,0.8,0.5,1.3c0.2,0.3,0.7,0.9,7.7,0.5v14.8H1.6C1.6,29.5,1.5,27.8,1.5,26.2L1.5,26.2z"/>
	</g>
</g>
<g>
	<g>
		<path id="path2924_25_" fill="#030303" d="M14.8,8.5c-0.4,0-0.8,0.3-0.8,0.7v20.1c0,0.4,0.3,0.7,0.8,0.7H26c0.2,0,0.4-0.1,0.6-0.2
			l5.2-4.9c0.1-0.1,0.2-0.3,0.2-0.5V9.2c0-0.4-0.3-0.7-0.8-0.7L14.8,8.5L14.8,8.5z"/>
		<polygon fill="#B4B4B4" points="15,9.5 15,29 27,29 31,25 31,9.5 		"/>
		<polygon id="polygon2928_25_" fill="#FFFFFF" points="30,25.2 30,10.5 16,10.5 16,28 26.9,28 28.4,26.5 		"/>
		<path id="path2930_31_" fill="#030303" d="M25.9,23.1c-0.4,0-0.8,0.4-0.8,0.8v5.3c0,0.3,0.2,0.6,0.5,0.7c0.1,0,0.2,0.1,0.3,0.1
			c0.2,0,0.4-0.1,0.6-0.2l5.3-5.3c0.2-0.2,0.3-0.6,0.2-0.9c-0.1-0.3-0.4-0.5-0.7-0.5H25.9L25.9,23.1z"/>
		<polygon id="polygon2932_31_" fill="#B4B4B4" points="25.9,23.9 31.2,23.9 25.9,29.2 		"/>
	</g>
	<g>
		<path fill="#010101" d="M30.1,6.9l-4.7-1c-0.5-0.9-1.4-1.4-2.5-1.4c-1.1,0-2,0.6-2.5,1.4l-4.7,1c-0.5,0.1-0.8,0.5-0.8,0.9v1.7
			c0,0.5,0.5,1,1,1h14c0.6,0,1-0.4,1-1V7.8C30.9,7.4,30.5,7,30.1,6.9z M22.9,9.5c-0.7,0-1.4-0.6-1.4-1.4c0-0.7,0.6-1.4,1.4-1.4
			c0.7,0,1.4,0.6,1.4,1.4C24.2,8.9,23.6,9.5,22.9,9.5z"/>
		<path fill="#0AABD8" d="M24.6,6.7c-0.2-0.7-0.9-1.3-1.7-1.3S21.3,6,21.1,6.7l-5.2,1.1v1.7h14V7.8L24.6,6.7z M22.9,9.2
			c-0.7,0-1.4-0.6-1.4-1.4c0-0.7,0.6-1.4,1.4-1.4c0.7,0,1.4,0.6,1.4,1.4C24.3,8.6,23.6,9.2,22.9,9.2z"/>
	</g>
</g>
<g>
	<path fill="#ED2A28" d="M23.1,22C23,22,23,22,23.1,22c-0.2,0-0.3-0.1-0.4-0.3l-2.4-5.2l-1.8,3.8c-0.1,0.1-0.1,0.2-0.3,0.2
		c-0.1,0-0.2,0-0.3-0.1l-1.7-1.3c-0.2-0.2-0.3-0.5-0.1-0.7c0.1-0.3,0.4-0.3,0.6-0.2l1.3,1l1.9-4.2c0.1-0.2,0.2-0.3,0.4-0.3h0
		c0.1,0,0.3,0.1,0.4,0.3l2.5,5.3l2-3.2c0.1-0.1,0.2-0.2,0.3-0.2c0.1,0,0.2,0.1,0.3,0.2l1.7,2.4l1.9-1.6c0.2-0.2,0.5-0.1,0.6,0.1
		c0.1,0.2,0.1,0.6-0.1,0.7l-2.2,1.9c-0.2,0.2-0.4,0.1-0.6-0.1l-1.6-2.3l-2.1,3.3C23.3,21.9,23.2,22,23.1,22z"/>
</g>
</svg>
