<?xml version="1.0" encoding="utf-8"?>
<!-- Generator: Adobe Illustrator 14.0.0, SVG Export Plug-In . SVG Version: 6.00 Build 43363)  -->
<!DOCTYPE svg PUBLIC "-//W3C//DTD SVG 1.1//EN" "http://www.w3.org/Graphics/SVG/1.1/DTD/svg11.dtd">
<svg version="1.1" id="Layer_1" xmlns="http://www.w3.org/2000/svg" xmlns:xlink="http://www.w3.org/1999/xlink" x="0px" y="0px"
	 width="32px" height="32px" viewBox="0 0 32 32" enable-background="new 0 0 32 32" xml:space="preserve">
<g>
	<circle fill="#FFFFFF" cx="16" cy="16.005" r="15.199"/>
	<path fill="#231F20" d="M16,32C7.177,32,0,24.823,0,16C0,7.177,7.177,0,16,0c8.822,0,16,7.177,16,16C32,24.823,24.822,32,16,32
		L16,32z M25,18.75v-5H7v5H25z"/>
	<path fill="#ED2A28" d="M16,1C7.716,1,1,7.714,1,16c0,8.285,6.716,15,15,15c8.287,0,15-6.715,15-15C31,7.714,24.287,1,16,1z
		 M26,19.75H6v-7h20V19.75z"/>
	
		<linearGradient id="SVGID_1_" gradientUnits="userSpaceOnUse" x1="283.54" y1="-387.8398" x2="311.54" y2="-387.8398" gradientTransform="matrix(1 0 0 -1 -281.54 -371.8398)">
		<stop  offset="0" style="stop-color:#F5969A"/>
		<stop  offset="1" style="stop-color:#901C1E"/>
	</linearGradient>
	<path fill="url(#SVGID_1_)" d="M16,30C8.281,30,2,23.721,2,16C2,8.28,8.281,2,16,2c7.721,0,14,6.28,14,14
		C30,23.721,23.721,30,16,30L16,30z M5,20.75h22v-9H5V20.75z"/>
</g>
</svg>
