<?xml version="1.0" encoding="utf-8"?>
<!-- Generator: Adobe Illustrator 14.0.0, SVG Export Plug-In . SVG Version: 6.00 Build 43363)  -->
<!DOCTYPE svg PUBLIC "-//W3C//DTD SVG 1.1//EN" "http://www.w3.org/Graphics/SVG/1.1/DTD/svg11.dtd">
<svg version="1.1" id="Layer_1" xmlns="http://www.w3.org/2000/svg" xmlns:xlink="http://www.w3.org/1999/xlink" x="0px" y="0px"
	 width="32px" height="32px" viewBox="0 0 32 32" enable-background="new 0 0 32 32" xml:space="preserve">
<g>
	<path fill="#010101" d="M3.301,30.3c-1.176,0-2.272-0.635-2.86-1.653c-0.588-1.017-0.588-2.283,0-3.301L13.14,3.352
		C13.728,2.334,14.824,1.7,16,1.7c1.176,0,2.272,0.634,2.859,1.651l12.7,21.994c0.587,1.018,0.587,2.284,0,3.303
		c-0.588,1.017-1.684,1.651-2.86,1.651H3.301z"/>
	<path fill="#ED2A28" d="M3.301,29.199c-0.786,0-1.514-0.42-1.906-1.102c-0.394-0.681-0.394-1.52,0-2.201L14.093,3.902
		C14.487,3.221,15.214,2.802,16,2.802c0.787,0,1.514,0.419,1.907,1.101l12.698,21.994c0.393,0.682,0.393,1.521,0,2.201
		c-0.393,0.682-1.12,1.102-1.906,1.102H3.301z"/>
	<polygon fill="#FFFFFF" points="4.624,26.639 16,6.937 27.376,26.639 	"/>
	<g>
		<path fill="#010101" d="M15.199,20.573l-1.312-7.626c-0.021-0.129-0.032-0.256-0.032-0.386c0-1.094,0.714-1.642,2.144-1.642
			c1.43,0,2.144,0.544,2.144,1.632c0,0.149-0.011,0.281-0.032,0.396L16.8,20.573H15.199z M16,22.141c1.25,0,1.877,0.628,1.877,1.879
			c0,1.249-0.628,1.877-1.877,1.877c-1.251,0-1.877-0.628-1.877-1.877C14.122,22.769,14.749,22.141,16,22.141z"/>
	</g>
</g>
</svg>
