<?xml version="1.0" encoding="utf-8"?>
<!-- Generator: Adobe Illustrator 14.0.0, SVG Export Plug-In . SVG Version: 6.00 Build 43363)  -->
<!DOCTYPE svg PUBLIC "-//W3C//DTD SVG 1.1//EN" "http://www.w3.org/Graphics/SVG/1.1/DTD/svg11.dtd">
<svg version="1.1" id="Layer_1" xmlns="http://www.w3.org/2000/svg" xmlns:xlink="http://www.w3.org/1999/xlink" x="0px" y="0px"
	 width="32px" height="32px" viewBox="0 0 32 32" enable-background="new 0 0 32 32" xml:space="preserve">
<g>
	<path fill="#010101" d="M12.287,24.034c-0.596,0-1.082-0.478-1.093-1.074c-0.022-1.349-0.241-3.591-0.653-4.354
		c-0.35-0.645-0.814-1.347-1.307-2.091C7.877,14.47,6.34,12.15,6.34,9.661C6.34,4.334,10.674,0,16,0c5.328,0,9.66,4.334,9.66,9.661
		c0,2.489-1.537,4.808-2.895,6.854c-0.492,0.744-0.957,1.446-1.307,2.092c-0.412,0.765-0.631,3.007-0.654,4.354
		c-0.012,0.596-0.496,1.073-1.092,1.073H12.287z"/>
	<path fill="#B4B4B4" d="M16,1.093c-4.732,0-8.568,3.836-8.568,8.568c0,3.001,2.742,5.97,4.07,8.426
		c0.727,1.344,0.785,4.855,0.785,4.855h7.426c0,0,0.061-3.512,0.785-4.855c1.328-2.457,4.07-5.426,4.07-8.426
		C24.568,4.929,20.73,1.093,16,1.093z"/>
	<radialGradient id="SVGID_1_" cx="18.1631" cy="5.626" r="8.4556" gradientUnits="userSpaceOnUse">
		<stop  offset="0" style="stop-color:#FFFFFF"/>
		<stop  offset="1" style="stop-color:#FDFEFF;stop-opacity:0"/>
	</radialGradient>
	<circle fill="url(#SVGID_1_)" cx="16" cy="9.181" r="7.295"/>
	<linearGradient id="SVGID_2_" gradientUnits="userSpaceOnUse" x1="26.1221" y1="17.1807" x2="13.6503" y2="11.0805">
		<stop  offset="0" style="stop-color:#FFFFFF"/>
		<stop  offset="1" style="stop-color:#FDFEFF;stop-opacity:0"/>
	</linearGradient>
	<path fill="url(#SVGID_2_)" d="M13.367,21.85c-0.078-1.257-0.291-3.209-0.871-4.282c-0.396-0.732-0.888-1.474-1.408-2.26
		c-1.187-1.789-2.531-3.816-2.531-5.646c0-4.122,3.354-7.477,7.477-7.477c4.123,0,7.477,3.354,7.477,7.477
		c0,1.829-1.346,3.856-2.529,5.645c-0.523,0.786-1.014,1.529-1.41,2.262c-0.58,1.073-0.793,3.025-0.873,4.282H13.367z"/>
	<line fill="none" stroke="#010101" x1="14.416" y1="22.334" x2="11.403" y2="8.74"/>
	<line fill="none" stroke="#010101" x1="17.292" y1="22.542" x2="20.598" y2="8.74"/>
	<polyline fill="none" stroke="#010101" points="11.667,9.664 14.225,10.147 16.033,9.18 17.775,10.147 20.398,9.847 	"/>
	<path fill="#010101" d="M12.287,30.589c-0.604,0-1.093-0.488-1.093-1.092v-6.555c0-0.604,0.489-1.093,1.093-1.093h7.537
		c0.604,0,1.092,0.488,1.092,1.093v6.555c0,0.604-0.488,1.092-1.092,1.092H12.287z"/>
	<rect x="12.287" y="22.942" fill="#08ACDA" width="7.537" height="6.555"/>
	<linearGradient id="SVGID_3_" gradientUnits="userSpaceOnUse" x1="19.1582" y1="26.2188" x2="13.1048" y2="26.2188">
		<stop  offset="0" style="stop-color:#B1D2DB"/>
		<stop  offset="1" style="stop-color:#107D9F"/>
	</linearGradient>
	<rect x="13.017" y="23.738" fill="url(#SVGID_3_)" width="6.077" height="4.961"/>
	<rect x="13.916" y="30.089" fill="#010101" width="4.279" height="1.911"/>
	<line fill="none" stroke="#010101" x1="11.667" y1="26.22" x2="19.824" y2="22.942"/>
	<line fill="none" stroke="#010101" x1="12.287" y1="29.497" x2="20.398" y2="25.946"/>
	<linearGradient id="SVGID_4_" gradientUnits="userSpaceOnUse" x1="23.1113" y1="15.4243" x2="13.5698" y2="11.1743">
		<stop  offset="0" style="stop-color:#FFFFFF"/>
		<stop  offset="1" style="stop-color:#FDFEFF;stop-opacity:0"/>
	</linearGradient>
	<path fill="url(#SVGID_4_)" d="M13.334,21.85c-0.078-1.256-0.291-3.209-0.871-4.281c-0.396-0.733-0.888-1.474-1.408-2.26
		c-1.187-1.789-2.531-3.816-2.531-5.646c0-4.122,3.354-7.477,7.477-7.477c4.123,0,7.477,3.354,7.477,7.477
		c0,1.829-1.346,3.856-2.529,5.645c-0.523,0.786-1.014,1.529-1.41,2.262c-0.58,1.072-0.793,3.025-0.873,4.281H13.334z"/>
</g>
</svg>
