<?xml version="1.0" encoding="utf-8"?>
<!-- Generator: Adobe Illustrator 14.0.0, SVG Export Plug-In . SVG Version: 6.00 Build 43363)  -->
<!DOCTYPE svg PUBLIC "-//W3C//DTD SVG 1.1//EN" "http://www.w3.org/Graphics/SVG/1.1/DTD/svg11.dtd">
<svg version="1.1"
	 id="svg2" sodipodi:docbase="C:\Radix\dev\trunk\org.radixware\kernel\designer\src\common.resources\src\org\radixware\kernel\designer\resources\icons\delete" sodipodi:docname="delete_row.svg" inkscape:version="0.45.1" sodipodi:version="0.32" inkscape:output_extension="org.inkscape.output.svg.inkscape" xmlns:ns="http://creativecommons.org/ns#" xmlns:dc="http://purl.org/dc/elements/1.1/" xmlns:cc="http://web.resource.org/cc/" xmlns:rdf="http://www.w3.org/1999/02/22-rdf-syntax-ns#" xmlns:svg="http://www.w3.org/2000/svg" xmlns:sodipodi="http://sodipodi.sourceforge.net/DTD/sodipodi-0.dtd" xmlns:inkscape="http://www.inkscape.org/namespaces/inkscape"
	 xmlns="http://www.w3.org/2000/svg" xmlns:xlink="http://www.w3.org/1999/xlink" x="0px" y="0px" width="32px" height="32px"
	 viewBox="0 0 32 32" enable-background="new 0 0 32 32" xml:space="preserve">
<sodipodi:namedview  width="48px" height="48px" id="base" pagecolor="#ffffff" bordercolor="#000000" borderopacity="1.0" showgrid="false" inkscape:zoom="8.495596" inkscape:cx="-20.014091" inkscape:cy="18.018949" inkscape:current-layer="g9137" inkscape:pageopacity="0.0" inkscape:pageshadow="2" inkscape:window-width="1280" inkscape:window-height="944" inkscape:window-x="0" inkscape:window-y="44" inkscape:document-units="px">
	</sodipodi:namedview>
<g>
	<path d="M0.897,24.262c-0.511,0-0.927-0.414-0.927-0.924V0.895c0-0.512,0.416-0.926,0.927-0.926H27.34
		c0.51,0,0.926,0.414,0.926,0.926v22.443c0,0.51-0.416,0.924-0.926,0.924H0.897z"/>
	<rect x="0.897" y="0.895" fill="#DAEBF2" width="26.442" height="22.443"/>
	
		<linearGradient id="SVGID_1_" gradientUnits="userSpaceOnUse" x1="279.9775" y1="1096.6934" x2="306.4199" y2="1096.6934" gradientTransform="matrix(1 0 0 1 -279.0801 -1092.6797)">
		<stop  offset="0" style="stop-color:#B0D0DA"/>
		<stop  offset="1" style="stop-color:#0C7C9E"/>
	</linearGradient>
	<rect x="0.897" y="0.895" fill="url(#SVGID_1_)" width="26.442" height="6.238"/>
	
		<linearGradient id="SVGID_2_" gradientUnits="userSpaceOnUse" x1="279.9775" y1="1108.3154" x2="306.4199" y2="1108.3154" gradientTransform="matrix(1 0 0 1 -279.0801 -1092.6797)">
		<stop  offset="0" style="stop-color:#AED58A"/>
		<stop  offset="1" style="stop-color:#1E9046"/>
	</linearGradient>
	<rect x="0.897" y="12.938" fill="url(#SVGID_2_)" width="26.442" height="5.396"/>
	<line fill="none" stroke="#000000" x1="0.897" y1="7.133" x2="27.34" y2="7.133"/>
	<line fill="none" stroke="#000000" x1="0.897" y1="12.469" x2="27.34" y2="12.469"/>
	<line fill="none" stroke="#000000" x1="0.897" y1="18.334" x2="27.34" y2="18.334"/>
	<line fill="none" stroke="#000000" x1="9.442" y1="7.148" x2="9.442" y2="23.352"/>
	<line fill="none" stroke="#000000" x1="18.854" y1="7.178" x2="18.854" y2="23.383"/>
	<path fill="#020202" d="M31.953,20.346c0.002,0,0.012-0.012,0.016-0.016c0.004-0.002-0.016-0.017-0.016-0.017v-0.028
		c0-0.003,0-0.031,0-0.031s0.016-0.015,0.018-0.017c-0.004-0.006-0.016-0.012-0.018-0.014c0-0.009-0.014-0.017-0.014-0.017
		l0.014-0.016c0-0.01-0.016-0.016-0.014-0.016c0-0.002,0-0.031,0-0.031c0-0.002,0-0.029,0-0.029s-0.014-0.01-0.016-0.016
		c-0.002-0.008-0.019-0.016-0.017-0.016c-0.004-0.013,0-0.029,0-0.029s0.006-0.02,0-0.031c-0.006-0.01-0.014-0.012-0.017-0.016
		c-0.002-0.006,0.017-0.019,0.017-0.019s-0.012-0.002-0.017-0.014c-0.004-0.013-0.016-0.045-0.014-0.047
		c0,0-0.014-0.009-0.018-0.017c-0.002-0.006,0.002-0.024,0.002-0.029c-0.01-0.008-0.014-0.014-0.018-0.016
		c-0.002-0.006-0.017-0.016-0.017-0.016c-0.002-0.006-0.014-0.016-0.014-0.016l0.014-0.017c-0.004-0.006-0.01-0.008-0.014-0.016
		c0,0-0.015-0.009-0.017-0.017c-0.006-0.006-0.014-0.012-0.016-0.016c-0.006-0.008,0-0.031,0-0.031
		c-0.002,0-0.014-0.012-0.016-0.014c-0.006-0.006-0.012-0.012-0.016-0.016c0,0-0.023-0.023-0.029-0.031
		c-0.006-0.004-0.017-0.012-0.019-0.016c-0.021-0.021-0.008-0.009-0.016-0.017l-3.431-3.431c-0.01-0.008,0.006,0.006-0.016-0.016
		c-0.006-0.005-0.012-0.012-0.016-0.016c-0.008-0.008-0.031-0.03-0.031-0.031c-0.004-0.005-0.012-0.012-0.014-0.015l-0.019-0.017
		l-0.016,0.017c0,0-0.013-0.013-0.015-0.017c-0.006-0.004-0.014-0.011-0.016-0.016c0,0-0.01-0.012-0.018-0.016
		c-0.004-0.004-0.014-0.016-0.014-0.016c-0.011-0.002-0.017,0.016-0.017,0.016s-0.011-0.014-0.019-0.016c0,0-0.01-0.012-0.014-0.016
		c0,0.001-0.047-0.016-0.047-0.016c-0.008-0.004-0.014-0.016-0.014-0.016c-0.002,0-0.049-0.021-0.064-0.029l-0.014,0.015
		c0,0-0.012-0.015-0.014-0.017c0,0-0.023,0.002-0.031,0c0,0-0.01-0.014-0.016-0.015c-0.009,0.005-0.013,0.011-0.019,0.015
		c-0.006-0.002-0.011-0.016-0.015-0.015l-0.016-0.017c0,0-0.012-0.014-0.018-0.016s-0.014,0.014-0.016,0.016
		c-0.009-0.002-0.011-0.016-0.017-0.016c0,0.002-0.015,0.016-0.015,0.016c-0.002,0-0.014-0.014-0.016-0.016
		c-0.002,0.002-0.018,0.016-0.018,0.016s-0.008-0.014-0.014-0.016c0,0.002-0.01-0.014-0.017-0.015
		c-0.002,0.001-0.016,0.015-0.016,0.015h-0.031h-0.028c0,0-0.015-0.017-0.019-0.015c-0.004,0.003-0.015,0.014-0.015,0.015
		c-0.006,0.004-0.012,0.012-0.018,0.016c0,0.002-0.012-0.016-0.016-0.016c0,0.002-0.014,0.014-0.014,0.016
		c0,0-0.013-0.014-0.017-0.014c-0.01-0.002-0.017,0.014-0.017,0.014c-0.004,0.005-0.03,0-0.03,0s-0.013,0.013-0.017,0.017
		c0,0.001-0.014,0.013-0.016,0.017c0,0-0.012-0.016-0.016-0.016c-0.002,0.001-0.008,0.018-0.016,0.016c0,0.002-0.021,0-0.031,0
		c0,0-0.004,0.016-0.014,0.016c-0.011,0-0.017-0.016-0.017-0.016c-0.002,0-0.004,0.015-0.019,0.016
		c-0.002,0.004-0.024-0.001-0.028,0c0,0-0.011,0.01-0.017,0.015c-0.006,0.007-0.012,0.013-0.016,0.017
		c-0.002,0.002-0.014-0.017-0.016-0.017c-0.002,0.001-0.012,0.013-0.017,0.017c-0.008,0.009-0.014,0.013-0.016,0.016
		c0,0-0.013,0.012-0.017,0.016s-0.016,0.016-0.016,0.016s-0.01-0.018-0.016-0.016c0,0-0.01,0.012-0.016,0.016l-0.063,0.031
		c0,0-0.023,0.023-0.029,0.03c0,0-0.021,0.019-0.017,0.015c-0.002,0.002-0.01,0.01-0.016,0.017c-0.006,0.005-0.012,0.01-0.016,0.017
		l-0.016,0.014l-3.047,3.046l-3.045-3.046l-0.017-0.014c-0.004-0.006-0.011-0.011-0.017-0.017c-0.006-0.007-0.014-0.015-0.016-0.017
		c0.002,0.004-0.016-0.015-0.016-0.015c-0.008-0.007-0.029-0.03-0.031-0.03l-0.061-0.031c-0.004-0.004-0.017-0.016-0.017-0.016
		c-0.006,0-0.014,0.016-0.014,0.016s-0.015-0.012-0.019-0.016s-0.016-0.016-0.016-0.016c-0.002-0.003-0.006-0.007-0.016-0.016
		c-0.004-0.002-0.016-0.016-0.016-0.017c-0.005,0-0.015,0.019-0.017,0.017c-0.004-0.004-0.011-0.01-0.017-0.017
		c-0.006-0.005-0.016-0.015-0.016-0.015c-0.006-0.001-0.027,0.004-0.031,0C20.535,16.015,20.531,16,20.531,16
		s-0.008,0.016-0.018,0.016S20.497,16,20.497,16c-0.006,0-0.026,0.002-0.03,0c-0.006,0.002-0.013-0.015-0.015-0.016
		c-0.004,0-0.014,0.016-0.016,0.016c-0.003-0.004-0.015-0.015-0.017-0.017c-0.006-0.004-0.016-0.017-0.016-0.017
		s-0.027,0.005-0.031,0c0,0-0.006-0.017-0.014-0.014c-0.006,0-0.018,0.016-0.016,0.014c-0.004-0.002-0.015-0.014-0.019-0.016
		c0,0-0.014,0.018-0.014,0.016c-0.005-0.004-0.013-0.01-0.017-0.016c-0.002-0.001-0.014-0.012-0.018-0.015
		c-0.002-0.001-0.014,0.015-0.014,0.015h-0.031h-0.031l-0.014-0.015c-0.006,0.001-0.016,0.017-0.018,0.015
		c-0.007,0.002-0.017,0.016-0.017,0.016s-0.015-0.014-0.015-0.016c-0.002,0.002-0.016,0.016-0.016,0.016s-0.014-0.014-0.018-0.016
		c-0.004,0-0.006,0.014-0.016,0.016c0-0.002-0.006-0.018-0.015-0.016c-0.004,0.002-0.017,0.016-0.017,0.016l-0.018,0.017
		c-0.002,0-0.006,0.013-0.014,0.015c-0.006-0.004-0.01-0.01-0.016-0.015c-0.006,0.001-0.019,0.015-0.019,0.015
		c-0.01,0.002-0.028,0-0.028,0c0.033,0.013,0.021,0.026,0.021,0.026l0.025-0.006c-0.019,0.01-0.064,0.03-0.064,0.028
		c0,0-0.008,0.012-0.014,0.016c0,0-0.047,0.018-0.047,0.016c-0.004,0.004-0.017,0.017-0.017,0.017
		c-0.006,0.002-0.016,0.016-0.016,0.016s-0.009-0.019-0.017-0.016c0,0-0.01,0.013-0.016,0.016c-0.008,0.004-0.016,0.015-0.016,0.015
		c-0.004,0.004-0.01,0.011-0.014,0.017c-0.007,0.003-0.019,0.016-0.019,0.016l-0.017-0.016l-0.016,0.016
		c-0.004,0.003-0.01,0.011-0.016,0.015c0,0.002-0.023,0.024-0.031,0.031c-0.002,0.004-0.008,0.01-0.014,0.017
		c-0.021,0.021-0.008,0.006-0.016,0.016l-3.432,3.431c-0.01,0.01,0.006-0.006-0.016,0.016c-0.004,0.004-0.012,0.012-0.017,0.016
		c-0.008,0.008-0.03,0.031-0.03,0.031c-0.002,0.004-0.011,0.01-0.015,0.016c-0.004,0.002-0.017,0.014-0.017,0.017
		c0,0,0.007,0.021,0,0.028c-0.004,0.004-0.01,0.012-0.016,0.017c-0.002,0.008-0.016,0.016-0.016,0.016
		c-0.004,0.009-0.012,0.011-0.018,0.017l0.018,0.016c0,0-0.014,0.01-0.018,0.016c0,0-0.01,0.01-0.015,0.017
		c-0.004,0.004-0.008,0.008-0.016,0.016c0,0.004,0.004,0.022,0,0.029c-0.003,0.008-0.015,0.016-0.015,0.016
		c0,0.002-0.014,0.035-0.018,0.048c-0.004,0.012-0.016,0.016-0.016,0.016s0.02,0.01,0.016,0.016
		c-0.002,0.004-0.008,0.006-0.016,0.016c-0.006,0.015,0,0.031,0,0.031s0.006,0.02,0,0.029c0,0-0.012,0.008-0.014,0.016
		c-0.004,0.006-0.019,0.016-0.019,0.016s0,0.027,0.002,0.029c0,0-0.002,0.029,0,0.031c0,0-0.017,0.006-0.017,0.016l0.017,0.017
		c0,0-0.015,0.008-0.017,0.016c0,0.003-0.013,0.009-0.016,0.015c0.001,0.002,0.016,0.018,0.016,0.018s0,0.029,0,0.031v0.027
		c0,0-0.018,0.016-0.016,0.018c0.004,0.004,0.016,0.014,0.016,0.016c-0.002,0.008,0.021,0.006,0.017,0.016v0.029
		c0,0.004,0,0.031,0,0.031c0.002,0.004,0,0.029,0,0.029s0.012,0.012,0.017,0.016c0,0.002,0.014,0.014,0.018,0.016
		c0,0.004-0.018,0.006-0.018,0.017c0.004,0.004,0.018,0.017,0.018,0.017s-0.008,0.016,0,0.03c0,0.013,0.014,0.017,0.014,0.017
		c0.004,0.006-0.014,0.016-0.014,0.016c0,0.002,0.012,0.043,0.016,0.045c0.004,0.008,0.01,0.012,0.016,0.016
		c0,0,0.013,0.012,0.017,0.016l0.017,0.048c0.002,0.002,0.018,0.008,0.016,0.016c0.004,0.007-0.004,0.027,0,0.029
		c0,0.01,0.029,0.03,0.029,0.03s0.012,0.013,0.018,0.017c0.008,0.015,0,0.028,0,0.028c0,0.003,0.014,0.015,0.014,0.017
		c0.005,0.004,0.014,0.013,0.018,0.017c0,0.002,0.008,0.008,0.017,0.018C16.2,20.9,16.2,20.9,16.207,20.906
		c0.021,0.021,0.018,0.018,0.018,0.016c0,0,0.004,0.005,0.016,0.017l3.044,3.047l-3.038,3.027c-0.02,0.02-0.02,0.02-0.016,0.016
		c-0.008,0.009-0.02,0.021-0.016,0.017c-0.019,0.018-0.008,0.01-0.017,0.018c-0.008,0.008-0.017,0.016-0.017,0.016
		s-0.008,0.008-0.016,0.017c-0.01,0.008,0-0.002-0.016,0.016c-0.002,0-0.018,0.017-0.018,0.017c-0.01,0.008-0.021,0.02-0.029,0.028
		l0.002,0.002l-0.002,0.029c0,0.002-0.012,0.012-0.016,0.017c-0.002,0.004-0.011,0.01-0.015,0.016
		c-0.006,0.004-0.019,0.047-0.019,0.047s-0.014,0.014-0.014,0.016c-0.005,0.004-0.016,0.016-0.016,0.016s0.016,0.015,0.016,0.017
		c-0.008,0.004-0.012,0.01-0.016,0.017c-0.008,0.006-0.018,0.014-0.018,0.014c-0.004,0.004,0.018,0.016,0.018,0.018
		c-0.006,0.006-0.018,0.016-0.018,0.016c-0.004,0.004-0.017,0.017-0.017,0.017s0.009,0.017,0,0.03
		c-0.002,0.013-0.014,0.017-0.014,0.017c0.004,0.004,0.008,0.011,0.014,0.017c-0.006,0.004-0.01,0.01-0.014,0.016
		c0,0-0.015,0.014-0.019,0.016c-0.002,0.002,0.016,0.012,0.016,0.016c-0.004,0.002-0.014,0.013-0.016,0.015
		c0,0.004,0.016,0.017,0.016,0.017c-0.004,0.004-0.014,0.014-0.016,0.016c0,0.002,0.019,0.016,0.016,0.018
		c-0.004,0.002-0.014,0.014-0.016,0.014c0,0.002,0,0.025,0,0.031c-0.002,0.002,0.016,0.014,0.016,0.016
		c-0.002,0.035-0.018,0.009-0.016,0.017c0,0.01,0.014,0.035,0.016,0.017c-0.002,0.016-0.016,0.008-0.016,0.016
		c-0.002,0.002,0.014,0.016,0.016,0.016c-0.002,0.002-0.016-0.004-0.016,0.016c0,0.015,0,0.031,0,0.031c0,0.008,0,0.027,0,0.027
		c0.004,0.008,0.008,0.014,0.016,0.018c-0.002,0.002-0.014,0.014-0.016,0.017c-0.002,0.002,0.014,0.01,0.014,0.014
		c0,0.002-0.018,0.011-0.014,0.019c0.002,0.008,0.014,0.016,0.014,0.016c-0.002,0,0,0.029,0,0.029
		c0.005,0.01,0.019,0.016,0.019,0.016c-0.002,0.002-0.017,0.016-0.019,0.018c0.005,0.008,0.019,0.017,0.019,0.017
		s0.009,0.01,0.015,0.016c-0.002,0,0.014,0.007,0.016,0.015c0.004,0.008-0.021,0.006-0.016,0.016c0,0,0.01,0.006,0.016,0.016
		c0.008,0.016,0,0.029,0,0.029c0,0.002,0.012,0.014,0.016,0.018c0.004,0.006,0.016,0.017,0.016,0.017
		c0.002,0.006-0.002,0.024,0,0.03c-0.002,0,0.013,0.009,0.017,0.015c0,0,0.015,0.014,0.017,0.016c0,0-0.006,0.025-0.002,0.031
		c0,0,0.012,0.013,0.018,0.017c0.004,0.004,0.014,0.012,0.016,0.014c0.004,0.006,0.014,0.014,0.016,0.016
		c0.006,0.01,0,0.031,0,0.031s0.013,0.012,0.015,0.014c0.006,0.008,0.014,0.016,0.019,0.018c0.006,0.007,0.01,0.013,0.014,0.017
		c0.008,0.008,0.016,0.015,0.016,0.017c0.021,0.021,0.014,0.012,0.018,0.016c0.006,0.006-0.01-0.008,0.015,0.014l3.429,3.432
		c0.01,0.011-0.004-0.004,0.018,0.017c0.004,0.004,0.013,0.012,0.017,0.016c0.008,0.009,0.028,0.029,0.03,0.031
		c0.004,0.004,0.011,0.01,0.015,0.017l0.017,0.014c0,0,0.021-0.004,0.03,0c0.004,0.006,0.017,0.016,0.017,0.016
		s0.012,0.012,0.016,0.016c0.012,0.008,0.031,0,0.031,0s0.008,0.017,0.014,0.017c0,0,0.01,0.01,0.016,0.016
		c0.006,0.007,0.008,0.011,0.016,0.017c0.007,0.004,0.025-0.002,0.031,0c0.006,0.004,0.01,0.016,0.015,0.016
		c0,0,0.034,0.012,0.047,0.014c0.012,0.006,0.015,0.019,0.017,0.019c0,0,0.008-0.019,0.016-0.019
		c0.006,0.006,0.016,0.019,0.016,0.019s0.012,0.016,0.016,0.016c0.002-0.002,0.015-0.014,0.017-0.016
		c0.006,0.004,0.012,0.016,0.016,0.016c0.009,0.002,0.015-0.014,0.017-0.016c0.008,0.002,0.012,0.016,0.016,0.014
		c0.006,0.006,0.016,0.019,0.016,0.019S20.152,32,20.156,32c0.002,0,0.012,0.018,0.018,0.016c0.006,0.004,0.015-0.014,0.015-0.016
		h0.03c0.009,0.004,0.009,0.016,0.017,0.016c0,0,0.008,0.016,0.015,0.016c0.002,0,0.018-0.016,0.018-0.016h0.029h0.028
		c0,0,0.017,0.016,0.019,0.016c0.002-0.002,0.014-0.014,0.016-0.016c0.014,0,0.029,0,0.029,0C20.391,32.014,20.404,32,20.404,32
		s0.012,0.016,0.016,0.016C20.428,32.018,20.437,32,20.437,32c0.002-0.002,0.028,0,0.03,0c0,0,0.011-0.01,0.017-0.017
		c0.004-0.004,0.004-0.014,0.017-0.016c0.01,0,0.028,0,0.028,0s0.017,0.008,0.031,0c0.012-0.003,0.016-0.017,0.016-0.017
		c0.009,0,0.015,0.017,0.015,0.017c0.004-0.003,0.045-0.017,0.047-0.019c0.006-0.004,0.01-0.008,0.016-0.016
		c0.002,0,0.016-0.014,0.016-0.014c0.004-0.004,0.025,0.002,0.031,0c0.004-0.006,0.016-0.019,0.016-0.019
		c0.004-0.004,0.015-0.012,0.017-0.014c0.004-0.007,0.024,0.002,0.028,0c0.013,0,0.031-0.031,0.031-0.031s0.012-0.012,0.016-0.017
		c0.017-0.006,0.029,0,0.029,0s0.014-0.014,0.017-0.018c0.004-0.004,0.014-0.012,0.016-0.016c0.009-0.006,0.017-0.014,0.019-0.014
		c0.006-0.008,0.008-0.01,0.014-0.017c0.008-0.008,0.018-0.021,0.016-0.016c0,0,0.002-0.005,0.019-0.017l3.057-3.061l3.062,3.061
		c0.012,0.012,0.016,0.017,0.016,0.017c-0.004-0.005,0.008,0.008,0.014,0.016c0.008,0.007,0.008,0.009,0.018,0.017
		c0,0,0.009,0.008,0.017,0.014c0.004,0.004,0.013,0.012,0.015,0.016c0.004,0.004,0.018,0.018,0.018,0.018s0.016-0.006,0.029,0
		c0.006,0.005,0.018,0.017,0.018,0.017s0.02,0.031,0.029,0.031c0.002,0.002,0.025-0.007,0.029,0c0.002,0.002,0.012,0.01,0.018,0.014
		c0,0,0.01,0.013,0.014,0.019c0.006,0.002,0.029-0.004,0.031,0c0,0,0.014,0.014,0.016,0.014c0.004,0.008,0.01,0.012,0.014,0.016
		c0.004,0.002,0.048,0.016,0.048,0.019c0,0,0.008-0.017,0.016-0.017c0,0,0.005,0.014,0.017,0.017c0.016,0.008,0.031,0,0.031,0
		s0.021,0,0.03,0c0.011,0.002,0.011,0.012,0.015,0.016C27.508,31.99,27.52,32,27.52,32s0.027-0.002,0.029,0
		c0,0,0.008,0.018,0.016,0.016c0.004,0,0.014-0.016,0.016-0.016s0.014,0.014,0.016,0.016c0,0,0.017,0,0.029,0
		c0.002,0.002,0.014,0.014,0.019,0.016c0.002,0,0.014-0.016,0.014-0.016h0.031h0.028l0.017,0.016c0.008,0,0.017-0.016,0.019-0.016
		c0.006,0,0.008-0.012,0.014-0.016h0.029c0.002,0.002,0.01,0.02,0.018,0.016C27.816,32.018,27.826,32,27.828,32
		c0.004,0,0.029,0.002,0.029,0.002s0.008-0.013,0.016-0.019c0.004,0.002,0.008-0.012,0.016-0.014
		c0.002,0.002,0.009,0.018,0.017,0.016c0.004,0,0.009-0.012,0.017-0.016c0.002,0.002,0.016,0.014,0.018,0.016
		c0.002,0,0.014-0.016,0.014-0.016s0.008-0.013,0.016-0.019c0.009,0,0.019,0.019,0.019,0.019s0.002-0.013,0.015-0.019
		c0.012-0.002,0.045-0.014,0.045-0.014c0.004,0,0.008-0.012,0.018-0.016c0.006-0.002,0.021,0.004,0.029,0
		c0.008-0.006,0.01-0.01,0.016-0.017c0.006-0.006,0.016-0.016,0.016-0.016c0.006,0,0.016-0.017,0.016-0.017s0.019,0.008,0.031,0
		c0.004-0.004,0.015-0.016,0.015-0.016s0.012-0.01,0.016-0.016c0.011-0.004,0.031,0,0.031,0l0.015-0.014
		c0.004-0.007,0.012-0.013,0.018-0.017c0-0.002,0.021-0.022,0.029-0.031c0.004-0.004,0.01-0.012,0.016-0.016
		c0.021-0.021,0.008-0.006,0.016-0.017l3.43-3.432c0.025-0.02,0.01-0.008,0.017-0.014c0.006-0.004-0.002,0.006,0.019-0.016
		c0-0.002,0.006-0.009,0.014-0.017c0.004-0.004,0.01-0.01,0.018-0.017c0-0.002,0.01-0.01,0.014-0.018
		c0.004-0.002,0.017-0.014,0.017-0.014s-0.005-0.021,0-0.031c0.002-0.002,0.014-0.01,0.018-0.016c0-0.002,0.011-0.01,0.015-0.014
		s0.016-0.017,0.016-0.017c0.004-0.006,0-0.031,0-0.031c0.002-0.002,0.016-0.016,0.016-0.016c0.004-0.006,0.016-0.015,0.016-0.015
		c0-0.006-0.004-0.024,0-0.03c0,0,0.015-0.011,0.017-0.017c0.004-0.004,0.017-0.016,0.017-0.018c0,0-0.008-0.016,0-0.029
		c0.006-0.01,0.016-0.016,0.016-0.016c0.004-0.01-0.02-0.008-0.016-0.016c0.002-0.008,0.016-0.015,0.016-0.015
		c0.004-0.006,0.016-0.016,0.016-0.016s0.014-0.009,0.014-0.017c0-0.002-0.012-0.016-0.014-0.018c0,0,0.012-0.006,0.014-0.016
		c0,0,0.004-0.029,0-0.029c0,0,0.015-0.008,0.019-0.016s-0.017-0.017-0.019-0.019c0-0.004,0.019-0.012,0.017-0.014
		c-0.002-0.003-0.015-0.015-0.017-0.017c0.006-0.004,0.013-0.01,0.017-0.018c0.002,0-0.002-0.02,0-0.027c0.002,0,0.002-0.02,0-0.031
		c0.002-0.02-0.017-0.014-0.017-0.016c0,0,0.019-0.014,0.017-0.016c0.002-0.008-0.015,0-0.017-0.016c0,0.02,0.015-0.007,0.017-0.017
		c0.002-0.008-0.015,0.021-0.017-0.017c0-0.002,0.019-0.014,0.017-0.016c0-0.006,0.002-0.029,0-0.031
		c-0.002,0-0.013-0.012-0.017-0.014c0-0.002,0.019-0.016,0.015-0.018c0-0.002-0.013-0.012-0.015-0.016c0,0,0.019-0.013,0.015-0.017
		c0-0.002-0.013-0.013-0.015-0.015c0-0.004,0.019-0.014,0.015-0.016c0-0.002-0.015-0.016-0.015-0.016
		c-0.004-0.006-0.01-0.012-0.018-0.016c0.008-0.006,0.014-0.013,0.018-0.017c0,0-0.012-0.004-0.018-0.017
		c-0.006-0.016,0-0.03,0-0.03s-0.012-0.013-0.016-0.017c0,0-0.01-0.01-0.014-0.016c-0.002-0.002,0.018-0.014,0.014-0.018
		c0,0-0.008-0.008-0.014-0.014c-0.006-0.007-0.013-0.013-0.017-0.017c-0.004-0.002,0.017-0.017,0.017-0.017
		s-0.015-0.012-0.017-0.016c-0.004-0.002-0.019-0.016-0.019-0.016s-0.01-0.043-0.014-0.047c-0.006-0.006-0.016-0.012-0.016-0.016
		c-0.006-0.005-0.014-0.015-0.018-0.017v-0.031l0.002-0.002c-0.008-0.01-0.021-0.021-0.031-0.028l-0.016-0.017
		c-0.017-0.019-0.009-0.008-0.017-0.016c-0.008-0.009-0.017-0.017-0.017-0.017s-0.008-0.008-0.016-0.016
		c-0.006-0.008,0.002,0-0.018-0.018c0.006,0.006-0.006-0.008-0.014-0.017c0.004,0.004,0.002,0.004-0.017-0.016l-3.043-3.044
		l3.045-3.045c0.013-0.012,0.017-0.016,0.017-0.016c0,0.002-0.006,0.006,0.016-0.016c0.008-0.008,0.008-0.008,0.016-0.016
		s0.016-0.015,0.016-0.015c0.005-0.006,0.013-0.014,0.017-0.019c0.002-0.002,0.017-0.014,0.017-0.016c0,0-0.008-0.016,0-0.031
		c0.004-0.002,0.016-0.014,0.016-0.014s0.031-0.021,0.031-0.031c0.002-0.004-0.004-0.022,0-0.03
		c-0.002-0.009,0.014-0.013,0.016-0.015c-0.002,0,0.016-0.047,0.016-0.047c0.006-0.004,0.016-0.016,0.016-0.016
		c0.005-0.004,0.011-0.01,0.017-0.016c0.002-0.002,0.015-0.045,0.019-0.047c0,0-0.019-0.009-0.019-0.015
		c0,0,0.015-0.004,0.019-0.017c0.004-0.016,0-0.03,0-0.03s0.01-0.013,0.014-0.017c0-0.01-0.016-0.012-0.014-0.016
		c0.002-0.002,0.014-0.014,0.014-0.016c0.004-0.006,0.018-0.016,0.018-0.016s0-0.025,0-0.031c0,0,0-0.025,0-0.029v-0.029
		C31.938,20.354,31.955,20.354,31.953,20.346z"/>
	<polygon fill="#ED2828" points="31.076,27.639 27.4,23.961 31.074,20.287 27.645,16.857 23.971,20.531 20.297,16.857 
		16.868,20.287 20.539,23.961 16.866,27.639 20.295,31.068 23.971,27.391 27.648,31.068 	"/>
	
		<linearGradient id="SVGID_3_" gradientUnits="userSpaceOnUse" x1="296.8008" y1="1116.6426" x2="309.2988" y2="1116.6426" gradientTransform="matrix(1 0 0 1 -279.0801 -1092.6797)">
		<stop  offset="0" style="stop-color:#F49599"/>
		<stop  offset="1" style="stop-color:#8E1B1E"/>
	</linearGradient>
	<polygon fill="url(#SVGID_3_)" points="30.219,27.639 26.543,23.961 30.217,20.287 27.645,17.715 23.971,21.389 20.297,17.715 
		17.725,20.287 21.396,23.961 17.721,27.639 20.295,30.211 23.971,26.533 27.648,30.211 	"/>
</g>
</svg>
