<?xml version="1.0" encoding="utf-8"?>
<!-- Generator: Adobe Illustrator 14.0.0, SVG Export Plug-In . SVG Version: 6.00 Build 43363)  -->
<!DOCTYPE svg PUBLIC "-//W3C//DTD SVG 1.1//EN" "http://www.w3.org/Graphics/SVG/1.1/DTD/svg11.dtd">
<svg version="1.1"
	 id="svg2" sodipodi:docname="property_dynamic_static_private.svg" inkscape:version="0.47 r22583" sodipodi:version="0.32" inkscape:output_extension="org.inkscape.output.svg.inkscape" xmlns:dc="http://purl.org/dc/elements/1.1/" xmlns:cc="http://creativecommons.org/ns#" xmlns:rdf="http://www.w3.org/1999/02/22-rdf-syntax-ns#" xmlns:svg="http://www.w3.org/2000/svg" xmlns:sodipodi="http://sodipodi.sourceforge.net/DTD/sodipodi-0.dtd" xmlns:inkscape="http://www.inkscape.org/namespaces/inkscape"
	 xmlns="http://www.w3.org/2000/svg" xmlns:xlink="http://www.w3.org/1999/xlink" x="0px" y="0px" width="32px" height="32px"
	 viewBox="0 0 32 32" enable-background="new 0 0 32 32" xml:space="preserve">
<defs>
	
	
		<inkscape:perspective  id="perspective33" sodipodi:type="inkscape:persp3d" inkscape:vp_z="32 : 16 : 1" inkscape:vp_x="0 : 16 : 1" inkscape:vp_y="0 : 1000 : 0" inkscape:persp3d-origin="16 : 10.666667 : 1">
		</inkscape:perspective>
	
		<inkscape:perspective  id="perspective2893" sodipodi:type="inkscape:persp3d" inkscape:vp_z="1 : 0.5 : 1" inkscape:vp_x="0 : 0.5 : 1" inkscape:vp_y="0 : 1000 : 0" inkscape:persp3d-origin="0.5 : 0.33333333 : 1">
		</inkscape:perspective>
</defs>
<sodipodi:namedview  id="base" pagecolor="#ffffff" bordercolor="#000000" borderopacity="1.0" showgrid="true" inkscape:zoom="8.4712644" inkscape:cx="42.49461" inkscape:cy="0.5" inkscape:current-layer="layer1" inkscape:pageopacity="0.0" inkscape:pageshadow="2" inkscape:window-width="1280" inkscape:window-height="944" inkscape:window-maximized="0" inkscape:window-x="0" inkscape:window-y="25" inkscape:document-units="px">
	</sodipodi:namedview>
<g>
	<g>
		<path d="M32,5.471c0-0.027-0.01-0.054-0.012-0.08c-0.006-0.061-0.012-0.121-0.025-0.179c-0.01-0.034-0.029-0.067-0.043-0.103
			c-0.02-0.049-0.035-0.096-0.063-0.139c-0.021-0.033-0.047-0.063-0.07-0.095c-0.029-0.038-0.057-0.077-0.092-0.11
			c-0.027-0.027-0.063-0.049-0.094-0.072c-0.031-0.022-0.059-0.053-0.09-0.071C31.5,4.616,31.49,4.615,31.48,4.609
			c-0.008-0.006-0.018-0.014-0.023-0.02l-8.738-4.48C22.576,0.036,22.42,0,22.264,0s-0.313,0.037-0.457,0.109l-8.738,4.48
			c-0.008,0.006-0.016,0.014-0.025,0.02c-0.009,0.004-0.021,0.007-0.029,0.013c-0.035,0.021-0.063,0.049-0.094,0.073
			c-0.031,0.021-0.063,0.045-0.091,0.07c-0.037,0.037-0.065,0.076-0.097,0.117c-0.021,0.029-0.047,0.057-0.065,0.088
			c-0.026,0.045-0.045,0.096-0.063,0.146c-0.014,0.031-0.03,0.063-0.039,0.097c-0.018,0.058-0.021,0.118-0.027,0.181
			c-0.002,0.024-0.012,0.051-0.012,0.078c0,0.002,0,0.002,0,0.004s0,0.004,0,0.006v17.025c0,0.365,0.201,0.703,0.524,0.881
			l8.737,4.719c0.047,0.021,0.096,0.039,0.146,0.056c0.026,0.012,0.051,0.022,0.078,0.03c0.084,0.021,0.168,0.033,0.254,0.033
			c0.084,0,0.17-0.014,0.252-0.033c0.026-0.008,0.053-0.021,0.08-0.03c0.047-0.017,0.098-0.029,0.144-0.056l8.737-4.719
			C31.799,23.211,32,22.873,32,22.508V5.482c0-0.002,0-0.004,0-0.006S32,5.473,32,5.471z"/>
		<polygon id="polygon4208_1_" fill="#7CC5D9" points="31,5.482 22.264,10.201 13.526,5.482 22.264,1 		"/>
		<polygon id="polygon4212_2_" fill="#006882" points="22.264,27.227 13.526,22.508 13.526,5.482 22.264,10.201 		"/>
		<polygon id="polygon4214_2_" fill="#02ABD8" points="22.264,27.227 31,22.508 31,5.482 22.264,10.201 		"/>
		
			<linearGradient id="polygon4214_3_" gradientUnits="userSpaceOnUse" x1="585.2891" y1="826.3936" x2="597.1257" y2="826.3936" gradientTransform="matrix(1 0 0 1 -563.4414 -810.0391)">
			<stop  offset="0" style="stop-color:#B0D0DA;stop-opacity:0"/>
			<stop  offset="1" style="stop-color:#A0DCF4"/>
		</linearGradient>
		<polygon id="polygon4214_1_" fill="url(#polygon4214_3_)" points="22.264,27.227 31,22.508 31,5.482 22.264,10.201 		"/>
		
			<linearGradient id="polygon4212_3_" gradientUnits="userSpaceOnUse" x1="576.9268" y1="826.3936" x2="585.9019" y2="826.3936" gradientTransform="matrix(1 0 0 1 -563.4414 -810.0391)">
			<stop  offset="0" style="stop-color:#0A485C"/>
			<stop  offset="1" style="stop-color:#B0D0DA;stop-opacity:0"/>
		</linearGradient>
		<polygon id="polygon4212_1_" fill="url(#polygon4212_3_)" points="22.264,27.227 13.526,22.508 13.526,5.482 22.264,10.201 		"/>
	</g>
</g>
<g>
	<path id="path9179_19_" fill="#020202" d="M10.32,32c-0.149,0-0.303-0.031-0.442-0.1c-0.349-0.164-0.572-0.504-0.578-0.883
		l-0.05-2.463c-0.5-0.029-0.938-0.043-1.348-0.043c-3.084,0-4.922,0.885-5.952,2.865c-0.176,0.344-0.532,0.551-0.911,0.551
		c-0.058,0-0.113-0.01-0.174-0.021c-0.44-0.073-0.781-0.425-0.838-0.854c-0.015-0.104-0.322-2.603,1.586-4.813
		c1.578-1.834,4.146-2.902,7.642-3.188L9.3,21.109c0.01-0.377,0.233-0.719,0.58-0.881c0.142-0.063,0.291-0.101,0.44-0.101
		c0.224,0,0.441,0.071,0.621,0.209l6.517,4.937c0.251,0.188,0.396,0.479,0.396,0.793c0,0.312-0.146,0.603-0.396,0.791l-6.515,4.935
		C10.76,31.93,10.542,32,10.32,32L10.32,32z"/>
	<path id="path7827_61_" fill="#6EBD46" d="M10.286,21.135l-0.063,2.873c-10.093,0.381-9.214,6.92-9.214,6.92
		c1.868-3.603,5.748-3.592,9.214-3.301L10.286,31l6.514-4.934L10.286,21.135z"/>
	
		<linearGradient id="path4454_1_" gradientUnits="userSpaceOnUse" x1="1129.1104" y1="1646.1436" x2="1142.5059" y2="1646.1436" gradientTransform="matrix(1 0 0 1 -1126.8828 -1620.0781)">
		<stop  offset="0" style="stop-color:#B0D68C"/>
		<stop  offset="1" style="stop-color:#1E9046"/>
	</linearGradient>
	<path id="path4454_29_" fill="url(#path4454_1_)" d="M10.975,29.59l-0.051-2.607l-0.645-0.053
		c-0.974-0.084-1.721-0.119-2.416-0.119c-1.685,0-3.877,0.199-5.635,1.543c0.167-0.332,0.387-0.674,0.676-1.01
		c1.391-1.615,3.86-2.502,7.339-2.635l0.674-0.025l0.049-2.143l4.658,3.525L10.975,29.59z"/>
</g>
</svg>
