<?xml version="1.0" encoding="UTF-8" standalone="no"?>
<!-- Created with Inkscape (http://www.inkscape.org/) -->
<svg
   xmlns:ns="http://creativecommons.org/ns#"
   xmlns:dc="http://purl.org/dc/elements/1.1/"
   xmlns:cc="http://web.resource.org/cc/"
   xmlns:rdf="http://www.w3.org/1999/02/22-rdf-syntax-ns#"
   xmlns:svg="http://www.w3.org/2000/svg"
   xmlns="http://www.w3.org/2000/svg"
   xmlns:xlink="http://www.w3.org/1999/xlink"
   xmlns:sodipodi="http://sodipodi.sourceforge.net/DTD/sodipodi-0.dtd"
   xmlns:inkscape="http://www.inkscape.org/namespaces/inkscape"
   width="32"
   height="32"
   id="svg2"
   sodipodi:version="0.32"
   inkscape:version="0.45.1"
   sodipodi:docbase="C:\Radix\dev\trunk\org.radixware\kernel\designer\src\common.resources\src\org\radixware\kernel\designer\resources\icons\ads\property"
   sodipodi:docname="property_user_private.svg"
   version="1.0"
   inkscape:output_extension="org.inkscape.output.svg.inkscape">
  <defs
     id="defs4">
    <linearGradient
       inkscape:collect="always"
       id="linearGradient32614">
      <stop
         style="stop-color:#000000;stop-opacity:1;"
         offset="0"
         id="stop32616" />
      <stop
         style="stop-color:#000000;stop-opacity:0;"
         offset="1"
         id="stop32618" />
    </linearGradient>
    <linearGradient
       id="linearGradient32602">
      <stop
         style="stop-color:#ffffff;stop-opacity:0.50526315;"
         offset="0"
         id="stop32604" />
      <stop
         style="stop-color:#ffffff;stop-opacity:0;"
         offset="1"
         id="stop32606" />
    </linearGradient>
    <linearGradient
       id="linearGradient5500">
      <stop
         style="stop-color:#ffc98e;stop-opacity:1;"
         offset="0"
         id="stop5502" />
      <stop
         style="stop-color:#c66b00;stop-opacity:0;"
         offset="1"
         id="stop5504" />
    </linearGradient>
    <linearGradient
       id="linearGradient5506">
      <stop
         id="stop5508"
         offset="0"
         style="stop-color:#351c00;stop-opacity:1;" />
      <stop
         id="stop5510"
         offset="1"
         style="stop-color:#fca137;stop-opacity:0;" />
    </linearGradient>
    <linearGradient
       id="linearGradient5003">
      <stop
         style="stop-color:#e1c2c2;stop-opacity:1;"
         offset="0"
         id="stop5005" />
      <stop
         style="stop-color:#dce1c2;stop-opacity:0;"
         offset="1"
         id="stop5007" />
    </linearGradient>
    <linearGradient
       inkscape:collect="always"
       xlink:href="#linearGradient5003"
       id="linearGradient6797"
       gradientUnits="userSpaceOnUse"
       x1="14.777778"
       y1="15.861646"
       x2="15.555555"
       y2="18.93572" />
    <linearGradient
       inkscape:collect="always"
       xlink:href="#linearGradient32602"
       id="linearGradient32660"
       gradientUnits="userSpaceOnUse"
       x1="25.729189"
       y1="59.779175"
       x2="30.514925"
       y2="67.141846" />
    <linearGradient
       inkscape:collect="always"
       xlink:href="#linearGradient32614"
       id="linearGradient32662"
       gradientUnits="userSpaceOnUse"
       gradientTransform="matrix(0.9795918,0,0,1,-1.0431427,-8.6173681)"
       x1="28.660618"
       y1="75.429871"
       x2="29.086075"
       y2="67.054871" />
    <filter
       inkscape:collect="always"
       id="filter32694">
      <feGaussianBlur
         inkscape:collect="always"
         stdDeviation="0.46057385"
         id="feGaussianBlur32696" />
    </filter>
    <linearGradient
       inkscape:collect="always"
       xlink:href="#linearGradient5500"
       id="linearGradient32734"
       gradientUnits="userSpaceOnUse"
       x1="96.807571"
       y1="29.921"
       x2="60.337337"
       y2="29.921" />
    <linearGradient
       inkscape:collect="always"
       xlink:href="#linearGradient5506"
       id="linearGradient32736"
       gradientUnits="userSpaceOnUse"
       x1="51.839001"
       y1="75.352707"
       x2="83.239998"
       y2="68.565002" />
  </defs>
  <sodipodi:namedview
     id="base"
     pagecolor="#ffffff"
     bordercolor="#000000"
     borderopacity="1.0"
     inkscape:pageopacity="0.0"
     inkscape:pageshadow="2"
     inkscape:zoom="6.8076546"
     inkscape:cx="41.130654"
     inkscape:cy="16.955453"
     inkscape:document-units="px"
     inkscape:current-layer="layer1"
     inkscape:window-width="1280"
     inkscape:window-height="944"
     inkscape:window-x="-8"
     inkscape:window-y="-8"
     showgrid="true" />
  <metadata
     id="metadata7">
    <rdf:RDF>
      <ns:Work
         rdf:about="">
        <dc:format>image/svg+xml</dc:format>
        <dc:type
           rdf:resource="http://purl.org/dc/dcmitype/StillImage" />
      </ns:Work>
      <cc:Work
         rdf:about="">
        <dc:format>image/svg+xml</dc:format>
        <dc:type
           rdf:resource="http://purl.org/dc/dcmitype/StillImage" />
      </cc:Work>
    </rdf:RDF>
  </metadata>
  <g
     inkscape:label="Layer 1"
     inkscape:groupmode="layer"
     id="layer1">
    <g
       id="g32726"
       transform="translate(-42.452213,22.474701)">
      <polygon
         transform="matrix(0.2782586,0,0,0.2782586,38.03462,-24.2668)"
         id="polygon32700"
         points="114.639,29.492 83.24,46.453 51.839,29.492 83.24,13.389 114.639,29.492 "
         style="fill:#ffa944;fill-opacity:1" />
      <polygon
         transform="matrix(0.2782586,0,0,0.2782586,38.03462,-24.2668)"
         id="polygon32702"
         points="114.639,90.677 83.24,107.638 51.839,90.677 83.24,74.573 114.639,90.677 "
         style="fill:#808080" />
      <polygon
         transform="matrix(0.2782586,0,0,0.2782586,38.03462,-24.2668)"
         id="polygon32704"
         points="83.24,107.638 51.839,90.677 51.839,29.492 83.24,46.453 83.24,107.638 "
         style="fill:#c87819;fill-opacity:1" />
      <polygon
         transform="matrix(0.2782586,0,0,0.2782586,38.03462,-24.2668)"
         id="polygon32706"
         points="83.24,107.638 114.639,90.677 114.639,29.492 83.24,46.453 83.24,107.638 "
         style="fill:#ffd4a1;fill-opacity:1" />
      <polygon
         transform="matrix(0.2782586,0,0,0.2782586,38.150598,-24.318484)"
         id="polygon32708"
         points="114.639,29.492 83.24,46.453 51.839,29.492 83.24,13.389 114.639,29.492 "
         style="fill:url(#linearGradient32734);fill-opacity:1" />
      <polygon
         transform="matrix(0.2782586,0,0,0.2782586,37.975671,-24.240113)"
         id="polygon32710"
         points="83.24,107.638 51.839,90.677 51.839,29.492 83.24,46.453 83.24,107.638 "
         style="fill:url(#linearGradient32736);fill-opacity:1" />
    </g>
    <g
       id="g2204"
       transform="matrix(1.225829,0,0,1.356328,-7.061143,-2.158985)" />
    <g
       id="g10479"
       transform="translate(8.918346e-2,-2.6190546e-2)">
      <path
         transform="matrix(1.2791775,0,0,1.2791775,-13.335086,6.5348718)"
         d="M 13.15625,9.0625 C 12.53343,9.0625 12.03125,9.5646794 12.03125,10.1875 L 12.03125,12.40625 C 11.237052,12.423954 10.59375,13.076938 10.59375,13.875 L 10.59375,18.21875 C 10.59375,19.027746 11.253505,19.6875 12.0625,19.6875 L 18.78125,19.6875 C 19.590245,19.687501 20.25,19.027746 20.25,18.21875 L 20.25,13.875 C 20.249999,13.076938 19.606697,12.423954 18.8125,12.40625 L 18.8125,10.1875 C 18.8125,9.5868211 18.34157,9.0625 17.71875,9.0625 L 13.15625,9.0625 z M 13.96875,10.65625 L 16.90625,10.65625 C 16.917575,10.65625 16.9375,10.673047 16.9375,10.71875 L 16.9375,12.40625 L 13.90625,12.40625 L 13.90625,10.71875 C 13.90625,10.707423 13.957425,10.65625 13.96875,10.65625 z"
         id="path3837"
         style="fill:#000000;fill-opacity:1;fill-rule:nonzero;stroke:none;stroke-width:0.5;stroke-miterlimit:4;stroke-dasharray:none;stroke-opacity:1"
         inkscape:original="M 13.15625 9.46875 C 12.766635 9.46875 12.4375 9.7978843 12.4375 10.1875 L 12.4375 12.8125 L 12.0625 12.8125 C 11.487981 12.8125 11 13.300482 11 13.875 L 11 18.21875 C 11 18.79327 11.487981 19.28125 12.0625 19.28125 L 18.78125 19.28125 C 19.355768 19.281251 19.84375 18.793269 19.84375 18.21875 L 19.84375 13.875 C 19.843749 13.300481 19.355768 12.8125 18.78125 12.8125 L 18.40625 12.8125 L 18.40625 10.1875 C 18.40625 9.797884 18.108365 9.46875 17.71875 9.46875 L 13.15625 9.46875 z M 13.96875 10.25 L 16.90625 10.25 C 17.157189 10.25 17.34375 10.467811 17.34375 10.71875 L 17.34375 12.8125 L 13.5 12.8125 L 13.5 10.71875 C 13.500001 10.467811 13.717811 10.25 13.96875 10.25 z "
         inkscape:radius="0.41408667"
         sodipodi:type="inkscape:offset" />
      <g
         transform="matrix(1.2791775,0,0,1.2791775,-12.861317,6.25061)"
         id="g5278">
        <path
           style="opacity:1;fill:#c23434;fill-opacity:1;fill-rule:nonzero;stroke:none;stroke-width:0.5;stroke-miterlimit:4;stroke-dasharray:none;stroke-opacity:1"
           d="M 12.78588,9.6979163 C 12.396265,9.6979163 12.06713,10.02705 12.06713,10.416666 L 12.06713,13.027777 L 11.69213,13.027777 C 11.117611,13.027777 10.62963,13.515759 10.62963,14.090277 L 10.62963,18.434028 C 10.62963,19.008546 11.117611,19.496528 11.69213,19.496528 L 18.41088,19.496528 C 18.985399,19.496528 19.47338,19.008546 19.47338,18.434028 L 19.47338,14.090277 C 19.47338,13.515758 18.985398,13.027777 18.41088,13.027777 L 18.03588,13.027777 L 18.03588,10.416666 C 18.035881,10.02705 17.737995,9.6979163 17.34838,9.6979163 L 12.78588,9.6979163 z M 13.59838,10.479166 L 16.53588,10.479166 C 16.78682,10.479166 16.97338,10.696977 16.97338,10.947916 L 16.97338,13.027777 L 13.12963,13.027777 L 13.12963,10.947916 C 13.129631,10.696977 13.347441,10.479166 13.59838,10.479166 z"
           id="rect3803"
           sodipodi:nodetypes="cccccccccccccccccccccc" />
        <path
           style="fill:url(#linearGradient6797);fill-opacity:1;fill-rule:nonzero;stroke:none;stroke-width:0.5;stroke-linecap:butt;stroke-miterlimit:4;stroke-opacity:1"
           d="M 14.31713,15.740742 C 17.705804,14.1221 18.42066,14.579985 19.444444,15.687502 L 19.444444,18.497687 C 19.444444,19.04271 19.005671,19.481483 18.460647,19.481483 L 11.576389,19.481483 C 11.031365,19.481483 10.592592,19.04271 10.592592,18.497687 L 10.592592,15.687502 C 10.592592,15.142479 10.913917,17.366328 14.31713,15.740742 z"
           id="rect4998"
           sodipodi:nodetypes="cccccccz" />
        <path
           style="opacity:1;fill:#ffffff;fill-opacity:1;fill-rule:nonzero;stroke:#000000;stroke-width:0.30000001;stroke-linecap:butt;stroke-miterlimit:4;stroke-dasharray:none;stroke-opacity:0.41293532"
           d="M 14.978391,13.622685 C 14.293589,13.622685 13.72685,14.189422 13.726851,14.874225 C 13.726851,15.421595 14.099312,15.870173 14.591551,16.034743 L 13.817872,18.74262 L 14.773593,18.74262 L 15.183188,18.74262 L 16.116154,18.74262 L 15.36523,16.034743 C 15.857469,15.870173 16.207176,15.421595 16.207175,14.874225 C 16.207175,14.189422 15.663192,13.622684 14.978391,13.622685 z"
           id="path5011" />
      </g>
    </g>
    <path
       style="opacity:0.50000000000000000;fill:#ffffff;fill-opacity:1;fill-rule:nonzero;stroke:none;stroke-width:0.30000000999999998;stroke-linecap:butt;stroke-miterlimit:4;stroke-dasharray:none;stroke-opacity:1;filter:url(#filter32694)"
       d="M 22.4747,14.080381 C 19.618205,14.080381 17.302103,16.396484 17.302102,19.252979 C 17.302102,21.174694 18.367333,22.848088 19.92383,23.740622 C 17.597848,24.789018 15.800834,27.225011 15.199995,30.235894 L 29.749405,30.235894 C 29.148567,27.225012 27.351554,24.789018 25.025571,23.740622 C 26.582068,22.848088 27.647299,21.174694 27.647299,19.252979 C 27.647299,16.396484 25.331195,14.080381 22.4747,14.080381 z"
       id="path32668" />
    <g
       id="g32653"
       transform="matrix(0.7558135,0,0,0.7558135,8.2024091,7.6840278)">
      <g
         transform="translate(-4.4857531,-35.649932)"
         id="g32641">
        <path
           style="fill:#4dc819;fill-opacity:1;fill-rule:nonzero;stroke:none;stroke-width:0.30000001;stroke-linecap:butt;stroke-miterlimit:4;stroke-dasharray:none;stroke-opacity:1"
           d="M 25.44369,45.461541 C 21.664325,45.461541 18.599941,48.525926 18.59994,52.305291 C 18.59994,54.847869 20.009324,57.0619 22.06869,58.242791 C 18.991235,59.6299 16.613646,62.852909 15.81869,66.836541 L 35.06869,66.836541 C 34.273734,62.85291 31.896146,59.6299 28.81869,58.242791 C 30.878056,57.0619 32.28744,54.847869 32.28744,52.305291 C 32.28744,48.525926 29.223055,45.461541 25.44369,45.461541 z"
           id="path32588" />
        <path
           sodipodi:type="arc"
           style="fill:url(#linearGradient32660);fill-opacity:1;fill-rule:nonzero;stroke:none;stroke-width:0.30000001;stroke-linecap:butt;stroke-miterlimit:4;stroke-dasharray:none;stroke-opacity:1"
           id="path32600"
           sodipodi:cx="30.514925"
           sodipodi:cy="64.049522"
           sodipodi:rx="7.1417909"
           sodipodi:ry="7.1417909"
           d="M 37.656716,64.049522 A 7.1417909,7.1417909 0 1 1 23.373134,64.049522 A 7.1417909,7.1417909 0 1 1 37.656716,64.049522 z"
           transform="matrix(0.8016529,0,0,0.8016529,0.5043787,0.5452857)" />
        <path
           style="opacity:0.5;fill:url(#linearGradient32662);fill-opacity:1;fill-rule:nonzero;stroke:none;stroke-width:0.30000001;stroke-linecap:butt;stroke-miterlimit:4;stroke-dasharray:none;stroke-opacity:1"
           d="M 25.375,58.4375 C 20.784703,58.4375 17.065838,62.166071 16.90625,66.8125 L 33.09375,66.8125 L 33.875,66.78125 C 33.693434,62.116652 29.948008,58.4375 25.375,58.4375 z"
           id="path32612" />
      </g>
      <path
         sodipodi:nodetypes="cssss"
         id="path32650"
         d="M 19.152984,12.059246 C 19.649525,12.901851 18.162733,12.413841 17.657732,13.28853 C 17.152731,14.163217 17.3824,15.478193 16.496946,14.992314 C 15.9079,14.669084 16.056078,13.543299 16.653547,12.728969 C 17.314353,11.828313 18.717404,11.320089 19.152984,12.059246 z"
         style="opacity:0.5;fill:#ffffff;fill-opacity:1;fill-rule:nonzero;stroke:none;stroke-width:0.30000001;stroke-linecap:butt;stroke-miterlimit:4;stroke-opacity:1" />
    </g>
  </g>
</svg>
