<?xml version="1.0" encoding="utf-8"?>
<!-- Generator: Adobe Illustrator 14.0.0, SVG Export Plug-In . SVG Version: 6.00 Build 43363)  -->
<!DOCTYPE svg PUBLIC "-//W3C//DTD SVG 1.1//EN" "http://www.w3.org/Graphics/SVG/1.1/DTD/svg11.dtd">
<svg version="1.1"
	 id="svg2" sodipodi:docbase="C:\Radix\dev\trunk\org.radixware\kernel\designer\src\common.resources\src\org\radixware\kernel\designer\resources\icons\ads\property" sodipodi:docname="property_dynamic_private.svg" inkscape:version="0.45.1" sodipodi:version="0.32" inkscape:output_extension="org.inkscape.output.svg.inkscape" xmlns:ns="http://creativecommons.org/ns#" xmlns:dc="http://purl.org/dc/elements/1.1/" xmlns:cc="http://web.resource.org/cc/" xmlns:rdf="http://www.w3.org/1999/02/22-rdf-syntax-ns#" xmlns:svg="http://www.w3.org/2000/svg" xmlns:sodipodi="http://sodipodi.sourceforge.net/DTD/sodipodi-0.dtd" xmlns:inkscape="http://www.inkscape.org/namespaces/inkscape"
	 xmlns="http://www.w3.org/2000/svg" xmlns:xlink="http://www.w3.org/1999/xlink" x="0px" y="0px" width="32px" height="32px"
	 viewBox="0 0 32 32" enable-background="new 0 0 32 32" xml:space="preserve">
<sodipodi:namedview  id="base" pagecolor="#ffffff" bordercolor="#000000" borderopacity="1.0" showgrid="true" inkscape:zoom="8.4712644" inkscape:cx="42.49461" inkscape:cy="0.5" inkscape:current-layer="layer1" inkscape:pageopacity="0.0" inkscape:pageshadow="2" inkscape:window-width="1280" inkscape:window-height="944" inkscape:window-x="-8" inkscape:window-y="-8" inkscape:document-units="px">
	</sodipodi:namedview>
<g>
	
		<linearGradient id="rect5697_2_" gradientUnits="userSpaceOnUse" x1="302.2939" y1="3417.3691" x2="280.3912" y2="3417.6165" gradientTransform="matrix(1 0 0 0.2584 -278.9033 -858.6481)">
		<stop  offset="0" style="stop-color:#000000;stop-opacity:0.35"/>
		<stop  offset="0.1791" style="stop-color:#060706;stop-opacity:0.2873"/>
		<stop  offset="0.3265" style="stop-color:#0F120D;stop-opacity:0.2357"/>
		<stop  offset="0.4627" style="stop-color:#172214;stop-opacity:0.1881"/>
		<stop  offset="0.5921" style="stop-color:#24371B;stop-opacity:0.1428"/>
		<stop  offset="0.7168" style="stop-color:#345629;stop-opacity:0.0991"/>
		<stop  offset="0.8379" style="stop-color:#487D3B;stop-opacity:0.0567"/>
		<stop  offset="0.954" style="stop-color:#61A845;stop-opacity:0.0161"/>
		<stop  offset="1" style="stop-color:#6FBD46;stop-opacity:0"/>
	</linearGradient>
	<rect id="rect5697_1_" y="23.079" fill="url(#rect5697_2_)" width="21.662" height="2.715"/>
	
		<linearGradient id="rect5693_2_" gradientUnits="userSpaceOnUse" x1="302.25" y1="791.4346" x2="283.1035" y2="791.4346" gradientTransform="matrix(1 0 0 1.618 -279.4932 -1266.4324)">
		<stop  offset="0" style="stop-color:#000000;stop-opacity:0.35"/>
		<stop  offset="0.1791" style="stop-color:#060706;stop-opacity:0.2873"/>
		<stop  offset="0.3265" style="stop-color:#0F120D;stop-opacity:0.2357"/>
		<stop  offset="0.4627" style="stop-color:#172214;stop-opacity:0.1881"/>
		<stop  offset="0.5921" style="stop-color:#24371B;stop-opacity:0.1428"/>
		<stop  offset="0.7168" style="stop-color:#345629;stop-opacity:0.0991"/>
		<stop  offset="0.8379" style="stop-color:#487D3B;stop-opacity:0.0567"/>
		<stop  offset="0.954" style="stop-color:#61A845;stop-opacity:0.0161"/>
		<stop  offset="1" style="stop-color:#6FBD46;stop-opacity:0"/>
	</linearGradient>
	<rect id="rect5693_1_" x="-0.001" y="5.608" fill="url(#rect5693_2_)" width="21.073" height="16.999"/>
	
		<linearGradient id="rect5689_2_" gradientUnits="userSpaceOnUse" x1="-2.4609" y1="-111.9189" x2="19.8564" y2="-111.9189" gradientTransform="matrix(1 0 0 -1 2.46 -88.8398)">
		<stop  offset="0" style="stop-color:#6FBD46;stop-opacity:0"/>
		<stop  offset="0.046" style="stop-color:#61A845;stop-opacity:0.0161"/>
		<stop  offset="0.1621" style="stop-color:#487D3B;stop-opacity:0.0567"/>
		<stop  offset="0.2832" style="stop-color:#345629;stop-opacity:0.0991"/>
		<stop  offset="0.4079" style="stop-color:#24371B;stop-opacity:0.1428"/>
		<stop  offset="0.5373" style="stop-color:#172214;stop-opacity:0.1881"/>
		<stop  offset="0.6735" style="stop-color:#0F120D;stop-opacity:0.2357"/>
		<stop  offset="0.8209" style="stop-color:#060706;stop-opacity:0.2873"/>
		<stop  offset="1" style="stop-color:#000000;stop-opacity:0.35"/>
	</linearGradient>
	<rect id="rect5689_1_" x="-0.001" y="17.826" fill="url(#rect5689_2_)" width="22.317" height="10.506"/>
	
		<linearGradient id="rect5679_2_" gradientUnits="userSpaceOnUse" x1="303.1748" y1="1098.7666" x2="283.4167" y2="1099.0215" gradientTransform="matrix(1 0 0 1 -279.0801 -1093.6797)">
		<stop  offset="0" style="stop-color:#000000;stop-opacity:0.35"/>
		<stop  offset="0.1791" style="stop-color:#060706;stop-opacity:0.2873"/>
		<stop  offset="0.3265" style="stop-color:#0F120D;stop-opacity:0.2357"/>
		<stop  offset="0.4627" style="stop-color:#172214;stop-opacity:0.1881"/>
		<stop  offset="0.5921" style="stop-color:#24371B;stop-opacity:0.1428"/>
		<stop  offset="0.7168" style="stop-color:#345629;stop-opacity:0.0991"/>
		<stop  offset="0.8379" style="stop-color:#487D3B;stop-opacity:0.0567"/>
		<stop  offset="0.954" style="stop-color:#61A845;stop-opacity:0.0161"/>
		<stop  offset="1" style="stop-color:#6FBD46;stop-opacity:0"/>
	</linearGradient>
	<rect id="rect5679_1_" x="-0.001" fill="url(#rect5679_2_)" width="22.317" height="10.507"/>
	<g>
		<path d="M32,5.47c0-0.026-0.01-0.053-0.012-0.08c-0.006-0.06-0.012-0.121-0.026-0.178c-0.01-0.035-0.028-0.068-0.042-0.103
			c-0.02-0.048-0.036-0.095-0.063-0.138c-0.02-0.033-0.047-0.063-0.07-0.095c-0.029-0.038-0.057-0.077-0.092-0.11
			c-0.027-0.027-0.062-0.049-0.094-0.073c-0.031-0.022-0.058-0.052-0.09-0.071c-0.011-0.006-0.021-0.007-0.031-0.013
			c-0.008-0.005-0.016-0.013-0.024-0.019l-8.737-4.48C22.576,0.036,22.419,0,22.264,0c-0.156,0-0.313,0.037-0.457,0.11l-8.738,4.48
			c-0.008,0.006-0.016,0.014-0.025,0.019s-0.021,0.007-0.029,0.013c-0.035,0.021-0.063,0.049-0.094,0.073
			c-0.031,0.022-0.063,0.045-0.091,0.071c-0.037,0.037-0.065,0.076-0.097,0.117c-0.021,0.029-0.047,0.057-0.065,0.088
			c-0.026,0.045-0.045,0.096-0.063,0.146c-0.014,0.032-0.03,0.062-0.039,0.097c-0.018,0.058-0.021,0.118-0.027,0.18
			c-0.002,0.025-0.012,0.051-0.012,0.078c0,0.002,0,0.002,0,0.004s0,0.004,0,0.006v17.025c0,0.367,0.201,0.705,0.524,0.881
			l8.737,4.719c0.046,0.023,0.096,0.039,0.145,0.056c0.026,0.011,0.051,0.022,0.078,0.03c0.083,0.021,0.168,0.033,0.254,0.033
			c0.084,0,0.17-0.012,0.252-0.033c0.027-0.008,0.053-0.021,0.08-0.03c0.047-0.017,0.098-0.03,0.143-0.056l8.738-4.719
			C31.799,23.212,32,22.874,32,22.507V5.481c0-0.002-0.001-0.004-0.001-0.006S32,5.472,32,5.47z"/>
		<polygon id="polygon4208_1_" fill="#7CC5D9" points="31,5.481 22.264,10.2 13.525,5.481 22.264,1 		"/>
		<polygon id="polygon4212_2_" fill="#006882" points="22.264,27.226 13.525,22.507 13.525,5.481 22.264,10.2 		"/>
		<polygon id="polygon4214_2_" fill="#02ABD8" points="22.264,27.226 31,22.507 31,5.481 22.264,10.2 		"/>
		<linearGradient id="polygon4214_3_" gradientUnits="userSpaceOnUse" x1="21.8477" y1="16.3535" x2="33.6843" y2="16.3535">
			<stop  offset="0" style="stop-color:#B0D0DA;stop-opacity:0"/>
			<stop  offset="1" style="stop-color:#A0DCF4"/>
		</linearGradient>
		<polygon id="polygon4214_1_" fill="url(#polygon4214_3_)" points="22.264,27.226 31,22.507 31,5.481 22.264,10.2 		"/>
		<linearGradient id="polygon4212_3_" gradientUnits="userSpaceOnUse" x1="13.4858" y1="16.3535" x2="22.461" y2="16.3535">
			<stop  offset="0" style="stop-color:#0A485C"/>
			<stop  offset="1" style="stop-color:#B0D0DA;stop-opacity:0"/>
		</linearGradient>
		<polygon id="polygon4212_1_" fill="url(#polygon4212_3_)" points="22.264,27.226 13.525,22.507 13.525,5.481 22.264,10.2 		"/>
	</g>
</g>
<g>
	<rect x="3.914" y="18.596" fill="#FFFFFF" width="8.809" height="11.904"/>
	<path fill="#231F20" d="M1.936,32C0.851,32,0,31.27,0,30.338V17.484c0-0.84,0.688-1.514,1.613-1.643v-1.205
		c0,0,0.031-0.74,0.034-0.76C2.033,10.527,4.86,8,8.226,8c3.364,0,6.192,2.527,6.577,5.879c0.006,0.035,0.033,0.688,0.033,0.688
		l0.002,1.34c0.771,0.219,1.314,0.834,1.314,1.577v12.854c0,0.934-0.853,1.662-1.937,1.662H1.936L1.936,32z M9.258,28.678
		l-0.873-4.934c-0.068-0.387,0.111-0.771,0.451-0.963c0.443-0.256,0.711-0.699,0.711-1.193c0-0.773-0.631-1.402-1.403-1.402
		s-1.4,0.629-1.4,1.402c0,0.467,0.241,0.902,0.646,1.166c0.307,0.197,0.468,0.557,0.41,0.918l-0.791,5.006H9.258z M11.241,15.822
		c0,0,0-1.348,0-1.35c-0.007-0.029-0.013-0.057-0.019-0.088c-0.231-1.637-1.521-2.871-2.998-2.871c-1.478,0-2.767,1.234-2.996,2.871
		c-0.005,0.033-0.011,0.064-0.019,0.096v1.342H11.241z"/>
	<path id="rect4086_6_" fill="#ED2C29" d="M8.226,8.924c-2.917,0-5.337,2.238-5.661,5.061v0.053L2.54,14.612v0.027v0.686v0.191v1.23
		H1.936c-0.566,0-1.014,0.33-1.014,0.738v12.854c0,0.412,0.446,0.74,1.014,0.74h12.281c0.565,0,1.014-0.328,1.014-0.74V17.484
		c0-0.408-0.446-0.738-1.014-0.738h-0.303v-1.23v-0.191v-0.686v-0.027l-0.027-0.574v-0.053C13.563,11.162,11.143,8.924,8.226,8.924z
		 M8.226,10.592c1.985,0,3.62,1.617,3.911,3.664h0.027v0.084c0.002,0.008-0.002,0.018,0,0.027c0,0.008,0,0.016,0,0.025v0.082v2.271
		H4.286v-2.271c0.003-0.01,0.003-0.018,0-0.025v-0.027c0.003-0.012,0.003-0.02,0-0.027c0.003-0.012,0.003-0.02,0-0.027V14.34v-0.082
		h0.028C4.604,12.209,6.242,10.592,8.226,10.592z M8.144,19.264c1.284,0,2.325,1.039,2.325,2.324c0,0.865-0.477,1.596-1.176,1.994
		l1.064,6.02H5.928l0.957-6.074C6.25,23.116,5.82,22.404,5.82,21.589C5.82,20.303,6.861,19.264,8.144,19.264z"/>
	
		<linearGradient id="SVGID_1_" gradientUnits="userSpaceOnUse" x1="562.8262" y1="-922.79" x2="575.2852" y2="-922.79" gradientTransform="matrix(1 0 0 -1 -560.9805 -898.8789)">
		<stop  offset="0" style="stop-color:#F4959A"/>
		<stop  offset="1" style="stop-color:#901D1E"/>
	</linearGradient>
	<path fill="url(#SVGID_1_)" d="M11.396,30.154l-1.094-6.162c0.691-0.605,1.09-1.467,1.09-2.404c0-1.791-1.457-3.248-3.249-3.248
		c-1.79,0-3.247,1.457-3.247,3.248c0,0.885,0.363,1.719,0.994,2.324l-0.984,6.242H1.936c-0.034,0-0.064-0.004-0.09-0.01V17.676
		c0.024-0.004,0.056-0.008,0.09-0.008h12.281c0.033,0,0.063,0.004,0.088,0.008v12.469c-0.022,0.006-0.055,0.01-0.088,0.01H11.396
		L11.396,30.154z"/>
</g>
</svg>
