<?xml version="1.0" encoding="utf-8"?>
<!-- Generator: Adobe Illustrator 14.0.0, SVG Export Plug-In . SVG Version: 6.00 Build 43363)  -->
<!DOCTYPE svg PUBLIC "-//W3C//DTD SVG 1.1//EN" "http://www.w3.org/Graphics/SVG/1.1/DTD/svg11.dtd">
<svg version="1.1"
	 id="svg2" sodipodi:docbase="C:\Radix\dev\trunk\org.radixware\kernel\designer\src\common.resources\src\org\radixware\kernel\designer\resources\icons\ads\property" sodipodi:docname="property_dynamic_static_protected.svg" inkscape:version="0.45.1" sodipodi:version="0.32" inkscape:output_extension="org.inkscape.output.svg.inkscape" xmlns:ns="http://creativecommons.org/ns#" xmlns:dc="http://purl.org/dc/elements/1.1/" xmlns:cc="http://web.resource.org/cc/" xmlns:rdf="http://www.w3.org/1999/02/22-rdf-syntax-ns#" xmlns:svg="http://www.w3.org/2000/svg" xmlns:sodipodi="http://sodipodi.sourceforge.net/DTD/sodipodi-0.dtd" xmlns:inkscape="http://www.inkscape.org/namespaces/inkscape"
	 xmlns="http://www.w3.org/2000/svg" xmlns:xlink="http://www.w3.org/1999/xlink" x="0px" y="0px" width="32px" height="32px"
	 viewBox="0 0 32 32" enable-background="new 0 0 32 32" xml:space="preserve">
<sodipodi:namedview  id="base" pagecolor="#ffffff" bordercolor="#000000" borderopacity="1.0" showgrid="true" inkscape:zoom="8.4712644" inkscape:cx="42.49461" inkscape:cy="0.5" inkscape:current-layer="layer1" inkscape:pageopacity="0.0" inkscape:pageshadow="2" inkscape:window-width="1280" inkscape:window-height="944" inkscape:window-x="-8" inkscape:window-y="-8" inkscape:document-units="px">
	</sodipodi:namedview>
<g>
	<g>
		<g>
			<path d="M32,5.471c0-0.026-0.01-0.053-0.012-0.08c-0.006-0.06-0.012-0.121-0.026-0.178c-0.01-0.035-0.028-0.068-0.042-0.103
				c-0.02-0.048-0.036-0.095-0.063-0.138c-0.021-0.033-0.047-0.063-0.07-0.095c-0.029-0.038-0.057-0.077-0.092-0.11
				c-0.027-0.027-0.063-0.049-0.094-0.073c-0.031-0.022-0.06-0.052-0.09-0.071C31.5,4.617,31.49,4.615,31.48,4.609
				c-0.008-0.005-0.018-0.013-0.024-0.019l-8.737-4.48C22.576,0.037,22.419,0,22.264,0c-0.156,0-0.313,0.037-0.457,0.11l-8.738,4.48
				c-0.008,0.006-0.016,0.014-0.025,0.019c-0.009,0.005-0.021,0.007-0.029,0.013c-0.035,0.021-0.063,0.049-0.094,0.073
				C12.89,4.717,12.858,4.74,12.83,4.767c-0.037,0.037-0.065,0.076-0.097,0.117c-0.021,0.029-0.047,0.057-0.065,0.088
				c-0.026,0.045-0.045,0.096-0.063,0.146c-0.014,0.032-0.03,0.062-0.039,0.097c-0.018,0.058-0.021,0.118-0.027,0.18
				c-0.002,0.025-0.012,0.051-0.012,0.078c0,0.002,0,0.002,0,0.004s0,0.004,0,0.006v17.024c0,0.367,0.201,0.705,0.524,0.882
				l8.737,4.719c0.046,0.022,0.096,0.039,0.146,0.057c0.025,0.011,0.051,0.021,0.078,0.029c0.082,0.021,0.168,0.033,0.254,0.033
				c0.084,0,0.17-0.013,0.252-0.033c0.026-0.008,0.053-0.021,0.08-0.029c0.047-0.018,0.098-0.03,0.144-0.057l8.737-4.719
				C31.799,23.212,32,22.874,32,22.507V5.481c0-0.002-0.001-0.004-0.001-0.006S32,5.473,32,5.471z"/>
			<polygon id="polygon4208_1_" fill="#7CC5D9" points="31,5.481 22.264,10.201 13.525,5.481 22.264,1 			"/>
			<polygon id="polygon4212_2_" fill="#006882" points="22.264,27.227 13.525,22.507 13.525,5.481 22.264,10.201 			"/>
			<polygon id="polygon4214_2_" fill="#02ABD8" points="22.264,27.227 31,22.507 31,5.481 22.264,10.201 			"/>
			
				<linearGradient id="polygon4214_3_" gradientUnits="userSpaceOnUse" x1="585.2891" y1="826.3936" x2="597.1257" y2="826.3936" gradientTransform="matrix(1 0 0 1 -563.4414 -810.0391)">
				<stop  offset="0" style="stop-color:#B0D0DA;stop-opacity:0"/>
				<stop  offset="1" style="stop-color:#A0DCF4"/>
			</linearGradient>
			<polygon id="polygon4214_1_" fill="url(#polygon4214_3_)" points="22.264,27.227 31,22.507 31,5.481 22.264,10.201 			"/>
			
				<linearGradient id="polygon4212_3_" gradientUnits="userSpaceOnUse" x1="576.9258" y1="826.3936" x2="585.9025" y2="826.3936" gradientTransform="matrix(1 0 0 1 -563.4414 -810.0391)">
				<stop  offset="0" style="stop-color:#0A485C"/>
				<stop  offset="1" style="stop-color:#B0D0DA;stop-opacity:0"/>
			</linearGradient>
			<polygon id="polygon4212_1_" fill="url(#polygon4212_3_)" points="22.264,27.227 13.525,22.507 13.525,5.481 22.264,10.201 			
				"/>
		</g>
	</g>
	<g>
		<path id="path2935_9_" fill="#231F20" d="M3.209,30.521c-0.121-0.123-0.191-0.289-0.19-0.463l0.001-1.146
			c-0.001-0.105,0.025-0.217,0.077-0.311l0.233-0.434l-0.233-0.439c-0.089-0.166-0.101-0.358-0.035-0.533l0.234-0.631l-0.172-1.066
			c-0.02-0.125-0.002-0.25,0.047-0.366l0.246-0.563l-0.365-1.1c-0.071-0.209-0.027-0.441,0.11-0.615l0.499-0.623l-0.541-0.84
			c-0.067-0.104-0.102-0.226-0.102-0.354v-1.143H2.691c-0.18,0-0.344-0.076-0.462-0.19c-0.119-0.118-0.19-0.279-0.192-0.459v-1.611
			c-0.158-0.127-0.312-0.263-0.455-0.403C0.563,16.208,0,14.852,0,13.409c0-1.445,0.564-2.803,1.583-3.825
			C2.605,8.562,3.962,8,5.407,8C6.854,8,8.209,8.563,9.23,9.583s1.584,2.377,1.584,3.823c-0.002,1.648-0.758,3.203-2.039,4.227
			v1.612c0,0.173-0.069,0.337-0.191,0.462c-0.121,0.121-0.289,0.189-0.461,0.189H7.795l0.001,10.162
			c0.001,0.205-0.099,0.4-0.264,0.524L5.796,31.87c-0.231,0.172-0.547,0.173-0.78,0l-1.734-1.289
			C3.259,30.563,3.232,30.543,3.209,30.521L3.209,30.521z M5.996,10.354c-0.157-0.157-0.365-0.241-0.589-0.241
			c-0.456-0.001-0.829,0.37-0.83,0.829c0.001,0.226,0.086,0.432,0.242,0.587c0.157,0.159,0.366,0.244,0.588,0.244
			c0.458,0,0.829-0.375,0.831-0.832C6.238,10.722,6.152,10.512,5.996,10.354L5.996,10.354z"/>
		<path id="path3790_10_" fill="#FAA920" d="M5.407,8.655c2.626,0,4.753,2.126,4.753,4.751c0,1.616-0.807,3.039-2.037,3.898v1.938
			h-0.98l0.002,10.813l-1.736,1.289l-1.735-1.289v-1.145l0.398-0.74l-0.397-0.748l0.297-0.792l-0.2-1.235l0.349-0.793L3.674,23.27
			l0.793-0.99l-0.793-1.234v-1.798l-0.981,0.001v-1.938c-1.23-0.859-2.036-2.283-2.037-3.898C0.655,10.78,2.782,8.653,5.407,8.655
			L5.407,8.655z M5.407,9.458c-0.821,0-1.484,0.664-1.484,1.486c0,0.823,0.665,1.485,1.484,1.483c0.821,0,1.483-0.661,1.485-1.483
			C6.893,10.124,6.229,9.458,5.407,9.458z"/>
		
			<linearGradient id="path2946_1_" gradientUnits="userSpaceOnUse" x1="1037.0137" y1="2801.7695" x2="1045.2148" y2="2801.7695" gradientTransform="matrix(1 0 0 1 -1035.7051 -2781.6582)">
			<stop  offset="0" style="stop-color:#A5692A"/>
			<stop  offset="0.5394" style="stop-color:#FAA920"/>
			<stop  offset="1" style="stop-color:#FFF3E2"/>
		</linearGradient>
		<path id="path2946_9_" fill="url(#path2946_1_)" d="M4.326,29.074l0.484-0.902L4.39,27.38l0.255-0.678L4.448,25.48l0.369-0.844
			l-0.411-1.24l0.861-1.076l-0.941-1.473v-2.262H3.344v-1.624L3.066,16.77C2.868,16.631,2.68,16.474,2.509,16.3
			c-0.773-0.772-1.199-1.8-1.2-2.895c0-1.094,0.426-2.124,1.201-2.898c0.347-0.345,0.743-0.622,1.172-0.821
			c-0.258,0.354-0.41,0.787-0.409,1.254c0,0.574,0.222,1.11,0.625,1.516c0.404,0.403,0.942,0.625,1.515,0.625
			c1.174,0.001,2.135-0.958,2.137-2.136c0-0.46-0.144-0.894-0.405-1.254c0.428,0.199,0.823,0.474,1.166,0.818
			c0.774,0.773,1.199,1.803,1.199,2.898c0,1.337-0.656,2.596-1.758,3.362l-0.281,0.194v1.624H6.486L6.49,29.729l-1.083,0.806
			l-1.083-0.806L4.326,29.074z"/>
		
			<linearGradient id="rect3802_1_" gradientUnits="userSpaceOnUse" x1="-1917.1011" y1="3512.1875" x2="-1916.2891" y2="3512.1875" gradientTransform="matrix(-1.0994 0 0 1.0994 -2101.3569 -3836.8198)">
			<stop  offset="0" style="stop-color:#A5692A"/>
			<stop  offset="0.5394" style="stop-color:#FAA920"/>
			<stop  offset="1" style="stop-color:#2B2012"/>
		</linearGradient>
		<path id="rect3802_10_" fill="url(#rect3802_1_)" d="M6.01,19.305H5.695c-0.16,0-0.288,0.129-0.288,0.289v9.773
			c0,0.162,0.128,0.29,0.29,0.29h0.314c0.161,0,0.288-0.128,0.288-0.29v-9.775C6.298,19.436,6.17,19.305,6.01,19.305z"/>
	</g>
</g>
</svg>
