<?xml version="1.0" encoding="utf-8"?>
<!-- Generator: Adobe Illustrator 14.0.0, SVG Export Plug-In . SVG Version: 6.00 Build 43363)  -->
<!DOCTYPE svg PUBLIC "-//W3C//DTD SVG 1.1//EN" "http://www.w3.org/Graphics/SVG/1.1/DTD/svg11.dtd">
<svg version="1.1"
	 id="svg2" sodipodi:docbase="C:\Radix\dev\trunk\org.radixware\kernel\designer\src\common.resources\src\org\radixware\kernel\designer\resources\icons\ads\property" sodipodi:docname="property_dynamic_static.svg" inkscape:version="0.45.1" sodipodi:version="0.32" inkscape:output_extension="org.inkscape.output.svg.inkscape" xmlns:ns="http://creativecommons.org/ns#" xmlns:dc="http://purl.org/dc/elements/1.1/" xmlns:cc="http://web.resource.org/cc/" xmlns:rdf="http://www.w3.org/1999/02/22-rdf-syntax-ns#" xmlns:svg="http://www.w3.org/2000/svg" xmlns:sodipodi="http://sodipodi.sourceforge.net/DTD/sodipodi-0.dtd" xmlns:inkscape="http://www.inkscape.org/namespaces/inkscape"
	 xmlns="http://www.w3.org/2000/svg" xmlns:xlink="http://www.w3.org/1999/xlink" x="0px" y="0px" width="32px" height="32px"
	 viewBox="0 0 32 32" enable-background="new 0 0 32 32" xml:space="preserve">
<sodipodi:namedview  id="base" pagecolor="#ffffff" bordercolor="#000000" borderopacity="1.0" showgrid="true" inkscape:zoom="8.4712644" inkscape:cx="42.49461" inkscape:cy="0.5" inkscape:current-layer="layer1" inkscape:pageopacity="0.0" inkscape:pageshadow="2" inkscape:window-width="1280" inkscape:window-height="944" inkscape:window-x="-8" inkscape:window-y="-8" inkscape:document-units="px">
	</sodipodi:namedview>
<g>
	<g>
		<path d="M25.736,7.357c0-0.027-0.01-0.054-0.012-0.08c-0.006-0.061-0.012-0.121-0.026-0.179c-0.01-0.034-0.028-0.067-0.042-0.103
			c-0.02-0.049-0.036-0.096-0.063-0.139c-0.021-0.033-0.047-0.063-0.07-0.095c-0.029-0.038-0.057-0.077-0.092-0.11
			c-0.027-0.027-0.063-0.049-0.094-0.072c-0.031-0.022-0.059-0.053-0.09-0.071c-0.011-0.006-0.021-0.007-0.031-0.013
			c-0.008-0.006-0.017-0.014-0.024-0.02l-8.737-4.48c-0.143-0.073-0.3-0.109-0.455-0.109c-0.156,0-0.313,0.037-0.457,0.109
			l-8.738,4.48C6.797,6.482,6.789,6.49,6.78,6.496C6.771,6.5,6.76,6.503,6.752,6.509C6.717,6.529,6.688,6.558,6.657,6.582
			c-0.03,0.021-0.063,0.045-0.091,0.07C6.529,6.689,6.502,6.729,6.469,6.77C6.448,6.799,6.422,6.826,6.404,6.857
			C6.379,6.902,6.359,6.953,6.342,7.004c-0.015,0.031-0.03,0.063-0.039,0.097C6.284,7.158,6.281,7.219,6.275,7.281
			C6.273,7.306,6.264,7.332,6.264,7.359c0,0.002,0,0.002,0,0.004s0,0.004,0,0.006v17.024c0,0.367,0.201,0.705,0.523,0.882
			l8.737,4.719c0.046,0.022,0.096,0.039,0.146,0.056c0.025,0.011,0.051,0.022,0.078,0.03c0.082,0.021,0.168,0.033,0.254,0.033
			c0.084,0,0.17-0.013,0.252-0.033c0.026-0.008,0.053-0.021,0.08-0.03c0.047-0.017,0.098-0.03,0.143-0.056l8.738-4.719
			c0.32-0.177,0.521-0.515,0.521-0.882V7.367c0-0.002-0.001-0.004-0.001-0.006S25.736,7.359,25.736,7.357z"/>
		<polygon id="polygon4208_1_" fill="#7CC5D9" points="24.736,7.367 16,12.087 7.262,7.367 16,2.887 		"/>
		<polygon id="polygon4212_2_" fill="#006882" points="16,29.113 7.262,24.394 7.262,7.367 16,12.087 		"/>
		<polygon id="polygon4214_2_" fill="#02ABD8" points="16,29.113 24.736,24.394 24.736,7.367 16,12.087 		"/>
		
			<linearGradient id="polygon4214_3_" gradientUnits="userSpaceOnUse" x1="297.3047" y1="-391.2598" x2="309.1413" y2="-391.2598" gradientTransform="matrix(1 0 0 -1 -281.7207 -373.0195)">
			<stop  offset="0" style="stop-color:#B0D0DA;stop-opacity:0"/>
			<stop  offset="1" style="stop-color:#A0DCF4"/>
		</linearGradient>
		<polygon id="polygon4214_1_" fill="url(#polygon4214_3_)" points="16,29.113 24.736,24.394 24.736,7.367 16,12.087 		"/>
		
			<linearGradient id="polygon4212_3_" gradientUnits="userSpaceOnUse" x1="288.9434" y1="-391.2598" x2="297.9181" y2="-391.2598" gradientTransform="matrix(1 0 0 -1 -281.7207 -373.0195)">
			<stop  offset="0" style="stop-color:#0A485C"/>
			<stop  offset="1" style="stop-color:#B0D0DA;stop-opacity:0"/>
		</linearGradient>
		<polygon id="polygon4212_1_" fill="url(#polygon4212_3_)" points="16,29.113 7.262,24.394 7.262,7.367 16,12.087 		"/>
	</g>
</g>
</svg>
