<?xml version="1.0" encoding="utf-8"?>
<!-- Generator: Adobe Illustrator 14.0.0, SVG Export Plug-In . SVG Version: 6.00 Build 43363)  -->
<!DOCTYPE svg PUBLIC "-//W3C//DTD SVG 1.1//EN" "http://www.w3.org/Graphics/SVG/1.1/DTD/svg11.dtd">
<svg version="1.1"
	 id="svg2" sodipodi:docbase="C:\Radix\dev\trunk\org.radixware\kernel\designer\src\common.resources\src\org\radixware\kernel\designer\resources\icons\ads\property" sodipodi:docname="property_group.svg" inkscape:version="0.45.1" sodipodi:version="0.32" inkscape:output_extension="org.inkscape.output.svg.inkscape" xmlns:ns="http://creativecommons.org/ns#" xmlns:dc="http://purl.org/dc/elements/1.1/" xmlns:cc="http://web.resource.org/cc/" xmlns:rdf="http://www.w3.org/1999/02/22-rdf-syntax-ns#" xmlns:svg="http://www.w3.org/2000/svg" xmlns:sodipodi="http://sodipodi.sourceforge.net/DTD/sodipodi-0.dtd" xmlns:inkscape="http://www.inkscape.org/namespaces/inkscape"
	 xmlns="http://www.w3.org/2000/svg" xmlns:xlink="http://www.w3.org/1999/xlink" x="0px" y="0px" width="32px" height="32px"
	 viewBox="0 0 32 32" enable-background="new 0 0 32 32" xml:space="preserve">
<sodipodi:namedview  id="base" pagecolor="#ffffff" bordercolor="#000000" borderopacity="1.0" showgrid="true" inkscape:zoom="9.5861449" inkscape:cx="-6.0722908" inkscape:cy="-4.490314" inkscape:current-layer="layer1" inkscape:pageopacity="0.0" inkscape:pageshadow="2" inkscape:window-width="1280" inkscape:window-height="944" inkscape:window-x="-8" inkscape:window-y="-8" inkscape:document-units="px" inkscape:guide-bbox="true" showguides="true">
	</sodipodi:namedview>
<g>
	<path fill="#231F20" d="M2.568,27.299C1.151,27.299,0,26.051,0,24.52V6.542c0-1.447,1.028-2.637,2.335-2.765L2.525,2.8
		C3.042,0.481,4.11,0,4.917,0h5.644c1.154,0,1.948,0.931,2.356,2.773l0.193,0.994h16.324C30.848,3.767,32,5.013,32,6.542V24.52
		c0,1.531-1.152,2.775-2.566,2.775H2.568V27.299z"/>
	<path id="rect3169_1_" fill="#F9A620" d="M4.917,0.999c-0.769,0-1.184,0.978-1.409,1.988L3.164,4.765H2.568
		C1.697,4.765,1,5.554,1,6.54v17.98c0,0.986,0.697,1.777,1.568,1.777h26.866c0.867,0,1.566-0.791,1.566-1.777V6.542
		c0-0.987-0.698-1.775-1.566-1.775H12.286L11.939,2.99c-0.225-1.01-0.607-1.989-1.379-1.989H7.739h-0.03H4.917V0.999z"/>
	
		<linearGradient id="SVGID_1_" gradientUnits="userSpaceOnUse" x1="297.7207" y1="-374.9102" x2="297.7207" y2="-398.3865" gradientTransform="matrix(1 0 0 -1 -281.7207 -373.0195)">
		<stop  offset="0" style="stop-color:#FFF3DF"/>
		<stop  offset="0.5394" style="stop-color:#F9A620"/>
		<stop  offset="1" style="stop-color:#A36628"/>
	</linearGradient>
	<path fill="url(#SVGID_1_)" d="M2.568,25.299C2.259,25.299,2,24.941,2,24.52V6.542C2,6.12,2.26,5.766,2.568,5.766h1.419
		l0.501-2.586C4.71,2.186,4.982,1.983,4.985,1.981L7.71,2h2.842c-0.025,0.015,0.199,0.241,0.412,1.206l0.497,2.56h17.974
		c0.305,0,0.565,0.355,0.565,0.778v17.978c0,0.422-0.262,0.777-0.565,0.777H2.568L2.568,25.299z"/>
</g>
<g>
	<g>
		<path d="M32,12.651c0-0.023-0.008-0.045-0.01-0.068c-0.005-0.052-0.01-0.103-0.022-0.152c-0.009-0.029-0.024-0.058-0.036-0.087
			c-0.017-0.042-0.03-0.082-0.053-0.118c-0.018-0.028-0.04-0.053-0.06-0.081c-0.025-0.033-0.049-0.066-0.078-0.094
			c-0.023-0.023-0.054-0.042-0.08-0.062c-0.026-0.019-0.05-0.045-0.076-0.061c-0.009-0.005-0.019-0.006-0.026-0.011
			c-0.007-0.005-0.015-0.011-0.021-0.017l-7.429-3.81C23.987,8.031,23.854,8,23.722,8c-0.133,0-0.266,0.032-0.389,0.093l-7.429,3.81
			c-0.007,0.005-0.014,0.012-0.021,0.017c-0.007,0.003-0.018,0.006-0.024,0.011c-0.03,0.017-0.054,0.042-0.08,0.062
			c-0.026,0.019-0.054,0.038-0.077,0.06c-0.032,0.031-0.055,0.064-0.083,0.1c-0.018,0.025-0.04,0.048-0.055,0.075
			c-0.022,0.038-0.039,0.081-0.054,0.125c-0.012,0.026-0.025,0.053-0.033,0.082c-0.016,0.049-0.018,0.101-0.023,0.154
			c-0.001,0.021-0.01,0.043-0.01,0.066c0,0.001,0,0.001,0,0.003c0,0.001,0,0.003,0,0.005v14.475c0,0.313,0.171,0.6,0.445,0.75
			l7.429,4.012c0.039,0.02,0.081,0.033,0.124,0.048c0.021,0.009,0.043,0.019,0.066,0.025C23.577,31.989,23.65,32,23.724,32
			c0.071,0,0.145-0.011,0.214-0.028c0.022-0.007,0.045-0.019,0.068-0.025c0.04-0.015,0.083-0.026,0.121-0.048l7.43-4.012
			c0.272-0.15,0.443-0.438,0.443-0.75V12.66c0-0.001-0.001-0.003-0.001-0.005C31.999,12.653,32,12.653,32,12.651z"/>
		<polygon id="polygon4208_1_" fill="#7CC5D9" points="31.149,12.66 23.722,16.673 16.292,12.66 23.722,8.85 		"/>
		<polygon id="polygon4212_2_" fill="#006882" points="23.722,31.149 16.292,27.137 16.292,12.66 23.722,16.673 		"/>
		<polygon id="polygon4214_2_" fill="#02ABD8" points="23.722,31.149 31.149,27.137 31.149,12.66 23.722,16.673 		"/>
		
			<linearGradient id="polygon4214_3_" gradientUnits="userSpaceOnUse" x1="305.0879" y1="-394.9238" x2="315.1515" y2="-394.9238" gradientTransform="matrix(1 0 0 -1 -281.7207 -373.0195)">
			<stop  offset="0" style="stop-color:#B0D0DA;stop-opacity:0"/>
			<stop  offset="1" style="stop-color:#A0DCF4"/>
		</linearGradient>
		<polygon id="polygon4214_1_" fill="url(#polygon4214_3_)" points="23.722,31.149 31.149,27.137 31.149,12.66 23.722,16.673 		"/>
		
			<linearGradient id="polygon4212_3_" gradientUnits="userSpaceOnUse" x1="297.9785" y1="-394.9238" x2="305.6092" y2="-394.9238" gradientTransform="matrix(1 0 0 -1 -281.7207 -373.0195)">
			<stop  offset="0" style="stop-color:#0A485C"/>
			<stop  offset="1" style="stop-color:#B0D0DA;stop-opacity:0"/>
		</linearGradient>
		<polygon id="polygon4212_1_" fill="url(#polygon4212_3_)" points="23.722,31.149 16.292,27.137 16.292,12.66 23.722,16.673 		"/>
	</g>
</g>
</svg>
