<?xml version="1.0" encoding="utf-8"?>
<!-- Generator: Adobe Illustrator 14.0.0, SVG Export Plug-In . SVG Version: 6.00 Build 43363)  -->
<!DOCTYPE svg PUBLIC "-//W3C//DTD SVG 1.1//EN" "http://www.w3.org/Graphics/SVG/1.1/DTD/svg11.dtd">
<svg version="1.1"
	 id="svg2" sodipodi:docbase="C:\Radix\dev\trunk\org.radixware\kernel\designer\src\common.resources\src\org\radixware\kernel\designer\resources\icons\ads\property" sodipodi:docname="property_dynamic_private.svg" inkscape:version="0.45.1" sodipodi:version="0.32" inkscape:output_extension="org.inkscape.output.svg.inkscape" xmlns:ns="http://creativecommons.org/ns#" xmlns:dc="http://purl.org/dc/elements/1.1/" xmlns:cc="http://web.resource.org/cc/" xmlns:rdf="http://www.w3.org/1999/02/22-rdf-syntax-ns#" xmlns:svg="http://www.w3.org/2000/svg" xmlns:sodipodi="http://sodipodi.sourceforge.net/DTD/sodipodi-0.dtd" xmlns:inkscape="http://www.inkscape.org/namespaces/inkscape"
	 xmlns="http://www.w3.org/2000/svg" xmlns:xlink="http://www.w3.org/1999/xlink" x="0px" y="0px" width="32px" height="32px"
	 viewBox="0 0 32 32" enable-background="new 0 0 32 32" xml:space="preserve">
<sodipodi:namedview  id="base" pagecolor="#ffffff" bordercolor="#000000" borderopacity="1.0" showgrid="true" inkscape:zoom="8.4712644" inkscape:cx="42.49461" inkscape:cy="0.5" inkscape:current-layer="layer1" inkscape:pageopacity="0.0" inkscape:pageshadow="2" inkscape:window-width="1280" inkscape:window-height="944" inkscape:window-x="-8" inkscape:window-y="-8" inkscape:document-units="px">
	</sodipodi:namedview>
<g>
	
		<linearGradient id="rect5697_2_" gradientUnits="userSpaceOnUse" x1="302.2939" y1="3417.3691" x2="280.3912" y2="3417.6165" gradientTransform="matrix(1 0 0 0.2584 -278.9033 -858.6481)">
		<stop  offset="0" style="stop-color:#000000;stop-opacity:0.35"/>
		<stop  offset="0.1791" style="stop-color:#060706;stop-opacity:0.2873"/>
		<stop  offset="0.3265" style="stop-color:#0F120D;stop-opacity:0.2357"/>
		<stop  offset="0.4627" style="stop-color:#172214;stop-opacity:0.1881"/>
		<stop  offset="0.5921" style="stop-color:#24371B;stop-opacity:0.1428"/>
		<stop  offset="0.7168" style="stop-color:#345629;stop-opacity:0.0991"/>
		<stop  offset="0.8379" style="stop-color:#487D3B;stop-opacity:0.0567"/>
		<stop  offset="0.954" style="stop-color:#61A845;stop-opacity:0.0161"/>
		<stop  offset="1" style="stop-color:#6FBD46;stop-opacity:0"/>
	</linearGradient>
	<rect id="rect5697_1_" y="23.079" fill="url(#rect5697_2_)" width="21.662" height="2.715"/>
	
		<linearGradient id="rect5693_2_" gradientUnits="userSpaceOnUse" x1="302.25" y1="791.4346" x2="283.1035" y2="791.4346" gradientTransform="matrix(1 0 0 1.618 -279.4932 -1266.4324)">
		<stop  offset="0" style="stop-color:#000000;stop-opacity:0.35"/>
		<stop  offset="0.1791" style="stop-color:#060706;stop-opacity:0.2873"/>
		<stop  offset="0.3265" style="stop-color:#0F120D;stop-opacity:0.2357"/>
		<stop  offset="0.4627" style="stop-color:#172214;stop-opacity:0.1881"/>
		<stop  offset="0.5921" style="stop-color:#24371B;stop-opacity:0.1428"/>
		<stop  offset="0.7168" style="stop-color:#345629;stop-opacity:0.0991"/>
		<stop  offset="0.8379" style="stop-color:#487D3B;stop-opacity:0.0567"/>
		<stop  offset="0.954" style="stop-color:#61A845;stop-opacity:0.0161"/>
		<stop  offset="1" style="stop-color:#6FBD46;stop-opacity:0"/>
	</linearGradient>
	<rect id="rect5693_1_" x="-0.001" y="5.608" fill="url(#rect5693_2_)" width="21.073" height="16.999"/>
	
		<linearGradient id="rect5689_2_" gradientUnits="userSpaceOnUse" x1="-2.4609" y1="-111.9189" x2="19.8564" y2="-111.9189" gradientTransform="matrix(1 0 0 -1 2.46 -88.8398)">
		<stop  offset="0" style="stop-color:#6FBD46;stop-opacity:0"/>
		<stop  offset="0.046" style="stop-color:#61A845;stop-opacity:0.0161"/>
		<stop  offset="0.1621" style="stop-color:#487D3B;stop-opacity:0.0567"/>
		<stop  offset="0.2832" style="stop-color:#345629;stop-opacity:0.0991"/>
		<stop  offset="0.4079" style="stop-color:#24371B;stop-opacity:0.1428"/>
		<stop  offset="0.5373" style="stop-color:#172214;stop-opacity:0.1881"/>
		<stop  offset="0.6735" style="stop-color:#0F120D;stop-opacity:0.2357"/>
		<stop  offset="0.8209" style="stop-color:#060706;stop-opacity:0.2873"/>
		<stop  offset="1" style="stop-color:#000000;stop-opacity:0.35"/>
	</linearGradient>
	<rect id="rect5689_1_" x="-0.001" y="17.826" fill="url(#rect5689_2_)" width="22.317" height="10.506"/>
	
		<linearGradient id="rect5679_2_" gradientUnits="userSpaceOnUse" x1="303.1748" y1="1098.7666" x2="283.4167" y2="1099.0215" gradientTransform="matrix(1 0 0 1 -279.0801 -1093.6797)">
		<stop  offset="0" style="stop-color:#000000;stop-opacity:0.35"/>
		<stop  offset="0.1791" style="stop-color:#060706;stop-opacity:0.2873"/>
		<stop  offset="0.3265" style="stop-color:#0F120D;stop-opacity:0.2357"/>
		<stop  offset="0.4627" style="stop-color:#172214;stop-opacity:0.1881"/>
		<stop  offset="0.5921" style="stop-color:#24371B;stop-opacity:0.1428"/>
		<stop  offset="0.7168" style="stop-color:#345629;stop-opacity:0.0991"/>
		<stop  offset="0.8379" style="stop-color:#487D3B;stop-opacity:0.0567"/>
		<stop  offset="0.954" style="stop-color:#61A845;stop-opacity:0.0161"/>
		<stop  offset="1" style="stop-color:#6FBD46;stop-opacity:0"/>
	</linearGradient>
	<rect id="rect5679_1_" x="-0.001" fill="url(#rect5679_2_)" width="22.317" height="10.507"/>
	<g>
		<path d="M32,5.47c0-0.026-0.01-0.053-0.012-0.08c-0.006-0.06-0.012-0.121-0.026-0.178c-0.01-0.035-0.028-0.068-0.042-0.103
			c-0.02-0.048-0.036-0.095-0.063-0.138c-0.02-0.033-0.047-0.063-0.07-0.095c-0.029-0.038-0.057-0.077-0.092-0.11
			c-0.027-0.027-0.062-0.049-0.094-0.073c-0.031-0.022-0.058-0.052-0.09-0.071c-0.011-0.006-0.021-0.007-0.031-0.013
			c-0.008-0.005-0.016-0.013-0.024-0.019l-8.737-4.48C22.576,0.036,22.419,0,22.264,0c-0.156,0-0.313,0.037-0.457,0.11l-8.738,4.48
			c-0.008,0.006-0.016,0.014-0.025,0.019s-0.021,0.007-0.029,0.013c-0.035,0.021-0.063,0.049-0.094,0.073
			c-0.031,0.022-0.063,0.045-0.091,0.071c-0.037,0.037-0.065,0.076-0.097,0.117c-0.021,0.029-0.047,0.057-0.065,0.088
			c-0.026,0.045-0.045,0.096-0.063,0.146c-0.014,0.032-0.03,0.062-0.039,0.097c-0.018,0.058-0.021,0.118-0.027,0.18
			c-0.002,0.025-0.012,0.051-0.012,0.078c0,0.002,0,0.002,0,0.004s0,0.004,0,0.006v17.025c0,0.367,0.201,0.705,0.524,0.881
			l8.737,4.719c0.046,0.023,0.096,0.039,0.145,0.056c0.026,0.011,0.051,0.022,0.078,0.03c0.083,0.021,0.168,0.033,0.254,0.033
			c0.084,0,0.17-0.012,0.252-0.033c0.027-0.008,0.053-0.021,0.08-0.03c0.047-0.017,0.098-0.03,0.143-0.056l8.738-4.719
			C31.799,23.212,32,22.874,32,22.507V5.481c0-0.002-0.001-0.004-0.001-0.006S32,5.472,32,5.47z"/>
		<polygon id="polygon4208_1_" fill="#7CC5D9" points="31,5.481 22.264,10.2 13.525,5.481 22.264,1 		"/>
		<polygon id="polygon4212_2_" fill="#006882" points="22.264,27.226 13.525,22.507 13.525,5.481 22.264,10.2 		"/>
		<polygon id="polygon4214_2_" fill="#02ABD8" points="22.264,27.226 31,22.507 31,5.481 22.264,10.2 		"/>
		<linearGradient id="polygon4214_3_" gradientUnits="userSpaceOnUse" x1="21.8477" y1="16.3535" x2="33.6843" y2="16.3535">
			<stop  offset="0" style="stop-color:#B0D0DA;stop-opacity:0"/>
			<stop  offset="1" style="stop-color:#A0DCF4"/>
		</linearGradient>
		<polygon id="polygon4214_1_" fill="url(#polygon4214_3_)" points="22.264,27.226 31,22.507 31,5.481 22.264,10.2 		"/>
		<linearGradient id="polygon4212_3_" gradientUnits="userSpaceOnUse" x1="13.4858" y1="16.3535" x2="22.461" y2="16.3535">
			<stop  offset="0" style="stop-color:#0A485C"/>
			<stop  offset="1" style="stop-color:#B0D0DA;stop-opacity:0"/>
		</linearGradient>
		<polygon id="polygon4212_1_" fill="url(#polygon4212_3_)" points="22.264,27.226 13.525,22.507 13.525,5.481 22.264,10.2 		"/>
	</g>
</g>
<g>
	<path id="path3144" fill="#231F20" d="M16.553,31.064c0.148,0,0.295-0.053,0.411-0.15c0.144-0.121,0.228-0.301,0.228-0.488V13.575
		c0-0.18-0.075-0.351-0.209-0.473c-0.117-0.108-0.271-0.167-0.43-0.167c-0.021,0-0.039,0-0.059,0.002L3.39,14.123
		c-0.33,0.03-0.582,0.307-0.582,0.637v13.412c0,0.311,0.225,0.577,0.531,0.631l13.104,2.254
		C16.479,31.063,16.516,31.064,16.553,31.064L16.553,31.064z"/>
	<path id="path3897_3_" fill="#F9A620" d="M3.446,14.758V28.17l13.105,2.254V13.575L3.446,14.758z"/>
	
		<linearGradient id="polygon3155_1_" gradientUnits="userSpaceOnUse" x1="-268.0586" y1="547.8301" x2="-256.2334" y2="547.8301" gradientTransform="matrix(-1 0 0 1 -252.1465 -525.8594)">
		<stop  offset="0" style="stop-color:#A36628"/>
		<stop  offset="0.5394" style="stop-color:#F9A620"/>
		<stop  offset="1" style="stop-color:#FFF3DF"/>
	</linearGradient>
	<polygon id="polygon3155" fill="url(#polygon3155_1_)" points="4.087,27.629 15.912,29.665 15.912,14.274 4.087,15.343 	"/>
	
		<linearGradient id="path1710_1_" gradientUnits="userSpaceOnUse" x1="-5030.5371" y1="15021.3203" x2="-5020.9956" y2="15021.3203" gradientTransform="matrix(0.1243 0 0 0.108 638.8758 -1600.3024)">
		<stop  offset="0" style="stop-color:#F3F4EE"/>
		<stop  offset="1" style="stop-color:#B1B3AE"/>
	</linearGradient>
	<path id="path1710_2_" fill="url(#path1710_1_)" d="M1.107,14.968v13.062l11.739,1.929l2.303-0.424V14.389l-2.303-0.346
		L1.107,14.968z"/>
	<path id="path3164" fill="#231F20" d="M12.809,32c0.146,0,0.289-0.05,0.404-0.145c0.148-0.121,0.234-0.305,0.234-0.496V12.64
		c0-0.182-0.076-0.355-0.211-0.476C13.118,12.058,12.966,12,12.809,12c-0.022,0-0.045,0.001-0.067,0.004L0.571,13.32
		C0.246,13.356,0,13.629,0,13.956v14.901c0,0.305,0.213,0.564,0.511,0.627l12.168,2.502C12.723,31.996,12.766,32,12.809,32
		L12.809,32z"/>
	<path id="path2443_3_" fill="#F9A620" d="M0.64,13.955v14.902l12.168,2.502v-18.72L0.64,13.955z"/>
	
		<linearGradient id="polygon3175_1_" gradientUnits="userSpaceOnUse" x1="-264.3154" y1="547.7432" x2="-253.4253" y2="547.7432" gradientTransform="matrix(-1 0 0 1 -252.1465 -525.8594)">
		<stop  offset="0" style="stop-color:#A36628"/>
		<stop  offset="0.5394" style="stop-color:#F9A620"/>
		<stop  offset="1" style="stop-color:#FFF3DF"/>
	</linearGradient>
	<polygon id="polygon3175" fill="url(#polygon3175_1_)" points="1.279,28.257 12.169,30.494 12.169,13.273 1.279,14.451 	"/>
	
		<linearGradient id="path7549_1_" gradientUnits="userSpaceOnUse" x1="-5580.2813" y1="14365.5801" x2="-5582.2661" y2="14475.1504" gradientTransform="matrix(0.1119 0 0 0.1119 631.1758 -1600.0599)">
		<stop  offset="0" style="stop-color:#FFFFFF;stop-opacity:0.624"/>
		<stop  offset="1" style="stop-color:#FFFFFF;stop-opacity:0"/>
	</linearGradient>
	<path id="path7549_2_" fill="url(#path7549_1_)" d="M1.222,14.717v8.295c3.255-6.264,7.805-3.555,10.605,1.188V13.478L1.222,14.717
		z"/>
	
		<radialGradient id="path3736_1_" cx="-4020.6475" cy="8522.959" r="39.1684" gradientTransform="matrix(0.1648 0 0 0.1902 666.7775 -1603.9047)" gradientUnits="userSpaceOnUse">
		<stop  offset="0" style="stop-color:#FFFFFF;stop-opacity:0.3519"/>
		<stop  offset="1" style="stop-color:#FFFFFF;stop-opacity:0"/>
	</radialGradient>
	<path id="path3736_2_" fill="url(#path3736_1_)" d="M1.107,14.292v13.411l11.233,2.252V13.106L1.107,14.292z"/>
	<path id="path3191" fill="#231F20" d="M3.048,21.779c0.182,0,0.359-0.078,0.482-0.219l1.016-1.166l1.124,0.61
		c0.096,0.054,0.201,0.078,0.307,0.078c0.127,0,0.255-0.038,0.363-0.112c0.199-0.138,0.304-0.375,0.271-0.613
		c-0.106-0.771-0.369-2.926-0.313-3.646c0.044-0.527,0.533-2.269,0.831-3.243c0.063-0.203,0.02-0.424-0.114-0.589
		c-0.121-0.152-0.306-0.239-0.497-0.239c-0.018,0-0.036,0.001-0.053,0.002L3.761,12.87c-0.243,0.021-0.455,0.178-0.543,0.407
		c-0.158,0.407-0.95,2.479-1.03,3.226c-0.127,1.183,0.21,4.56,0.225,4.702c0.025,0.254,0.199,0.469,0.441,0.547
		C2.918,21.77,2.983,21.779,3.048,21.779L3.048,21.779z"/>
	<path id="path3193" fill="#EA2A29" d="M2.746,16.545c-0.124,1.176,0.236,4.758,0.236,4.758l1.406-1.615L6.03,20.58
		c0,0-0.407-2.954-0.329-3.939c0.065-0.827,0.893-3.52,0.893-3.52L3.78,13.356C3.781,13.354,2.824,15.813,2.746,16.545z"/>
	
		<linearGradient id="path3202_1_" gradientUnits="userSpaceOnUse" x1="-258.0576" y1="542.6514" x2="-255.3086" y2="542.6514" gradientTransform="matrix(-1 0 0 1 -252.1465 -525.8594)">
		<stop  offset="0" style="stop-color:#F5969A"/>
		<stop  offset="1" style="stop-color:#901A1E"/>
	</linearGradient>
	<path id="path3202" fill="url(#path3202_1_)" d="M4.216,19.131l1.163,0.633c-0.123-1.068-0.266-2.527-0.208-3.234
		c0.051-0.649,0.457-2.133,0.74-3.111l-1.769,0.148c-0.391,1.039-0.905,2.514-0.955,2.978c-0.072,0.688,0.024,2.313,0.128,3.622
		L4.216,19.131z"/>
</g>
</svg>
