<?xml version="1.0" encoding="utf-8"?>
<!-- Generator: Adobe Illustrator 14.0.0, SVG Export Plug-In . SVG Version: 6.00 Build 43363)  -->
<!DOCTYPE svg PUBLIC "-//W3C//DTD SVG 1.1//EN" "http://www.w3.org/Graphics/SVG/1.1/DTD/svg11.dtd">
<svg version="1.1"
	 id="svg2" sodipodi:docbase="C:\Radix\dev\trunk\org.radixware\kernel\designer\src\common.resources\src\org\radixware\kernel\designer\resources\icons\ads\property" sodipodi:docname="property_dynamic_protected.svg" inkscape:version="0.45.1" sodipodi:version="0.32" inkscape:output_extension="org.inkscape.output.svg.inkscape" xmlns:ns="http://creativecommons.org/ns#" xmlns:dc="http://purl.org/dc/elements/1.1/" xmlns:cc="http://web.resource.org/cc/" xmlns:rdf="http://www.w3.org/1999/02/22-rdf-syntax-ns#" xmlns:svg="http://www.w3.org/2000/svg" xmlns:sodipodi="http://sodipodi.sourceforge.net/DTD/sodipodi-0.dtd" xmlns:inkscape="http://www.inkscape.org/namespaces/inkscape"
	 xmlns="http://www.w3.org/2000/svg" xmlns:xlink="http://www.w3.org/1999/xlink" x="0px" y="0px" width="32px" height="32px"
	 viewBox="0 0 32 32" enable-background="new 0 0 32 32" xml:space="preserve">
<sodipodi:namedview  id="base" pagecolor="#ffffff" bordercolor="#000000" borderopacity="1.0" showgrid="true" inkscape:zoom="8.4712644" inkscape:cx="42.49461" inkscape:cy="0.5" inkscape:current-layer="layer1" inkscape:pageopacity="0.0" inkscape:pageshadow="2" inkscape:window-width="1280" inkscape:window-height="944" inkscape:window-x="-8" inkscape:window-y="-8" inkscape:document-units="px">
	</sodipodi:namedview>
<g>
	
		<linearGradient id="rect5697_2_" gradientUnits="userSpaceOnUse" x1="584.0156" y1="-4952.7832" x2="562.1129" y2="-4953.0303" gradientTransform="matrix(1 0 0 -0.2584 -560.623 -1255.3988)">
		<stop  offset="0" style="stop-color:#000000;stop-opacity:0.35"/>
		<stop  offset="0.1791" style="stop-color:#060706;stop-opacity:0.2873"/>
		<stop  offset="0.3265" style="stop-color:#0F120D;stop-opacity:0.2357"/>
		<stop  offset="0.4627" style="stop-color:#172214;stop-opacity:0.1881"/>
		<stop  offset="0.5921" style="stop-color:#24371B;stop-opacity:0.1428"/>
		<stop  offset="0.7168" style="stop-color:#345629;stop-opacity:0.0991"/>
		<stop  offset="0.8379" style="stop-color:#487D3B;stop-opacity:0.0567"/>
		<stop  offset="0.954" style="stop-color:#61A845;stop-opacity:0.0161"/>
		<stop  offset="1" style="stop-color:#6FBD46;stop-opacity:0"/>
	</linearGradient>
	<rect id="rect5697_1_" y="23.079" fill="url(#rect5697_2_)" width="21.662" height="2.715"/>
	
		<linearGradient id="rect5693_2_" gradientUnits="userSpaceOnUse" x1="583.9707" y1="-1009.7544" x2="564.8242" y2="-1009.7544" gradientTransform="matrix(1 0 0 -1.618 -561.2129 -1619.676)">
		<stop  offset="0" style="stop-color:#000000;stop-opacity:0.35"/>
		<stop  offset="0.1791" style="stop-color:#060706;stop-opacity:0.2873"/>
		<stop  offset="0.3265" style="stop-color:#0F120D;stop-opacity:0.2357"/>
		<stop  offset="0.4627" style="stop-color:#172214;stop-opacity:0.1881"/>
		<stop  offset="0.5921" style="stop-color:#24371B;stop-opacity:0.1428"/>
		<stop  offset="0.7168" style="stop-color:#345629;stop-opacity:0.0991"/>
		<stop  offset="0.8379" style="stop-color:#487D3B;stop-opacity:0.0567"/>
		<stop  offset="0.954" style="stop-color:#61A845;stop-opacity:0.0161"/>
		<stop  offset="1" style="stop-color:#6FBD46;stop-opacity:0"/>
	</linearGradient>
	<rect id="rect5693_1_" x="-0.001" y="5.608" fill="url(#rect5693_2_)" width="21.073" height="17"/>
	
		<linearGradient id="rect5689_2_" gradientUnits="userSpaceOnUse" x1="279.2598" y1="548.9385" x2="301.5762" y2="548.9385" gradientTransform="matrix(1 0 0 1 -279.2598 -525.8594)">
		<stop  offset="0" style="stop-color:#6FBD46;stop-opacity:0"/>
		<stop  offset="0.046" style="stop-color:#61A845;stop-opacity:0.0161"/>
		<stop  offset="0.1621" style="stop-color:#487D3B;stop-opacity:0.0567"/>
		<stop  offset="0.2832" style="stop-color:#345629;stop-opacity:0.0991"/>
		<stop  offset="0.4079" style="stop-color:#24371B;stop-opacity:0.1428"/>
		<stop  offset="0.5373" style="stop-color:#172214;stop-opacity:0.1881"/>
		<stop  offset="0.6735" style="stop-color:#0F120D;stop-opacity:0.2357"/>
		<stop  offset="0.8209" style="stop-color:#060706;stop-opacity:0.2873"/>
		<stop  offset="1" style="stop-color:#000000;stop-opacity:0.35"/>
	</linearGradient>
	<rect id="rect5689_1_" x="-0.001" y="17.826" fill="url(#rect5689_2_)" width="22.317" height="10.506"/>
	
		<linearGradient id="rect5679_2_" gradientUnits="userSpaceOnUse" x1="584.8945" y1="-1471.7861" x2="565.1364" y2="-1472.041" gradientTransform="matrix(1 0 0 -1 -560.8008 -1466.6992)">
		<stop  offset="0" style="stop-color:#000000;stop-opacity:0.35"/>
		<stop  offset="0.1791" style="stop-color:#060706;stop-opacity:0.2873"/>
		<stop  offset="0.3265" style="stop-color:#0F120D;stop-opacity:0.2357"/>
		<stop  offset="0.4627" style="stop-color:#172214;stop-opacity:0.1881"/>
		<stop  offset="0.5921" style="stop-color:#24371B;stop-opacity:0.1428"/>
		<stop  offset="0.7168" style="stop-color:#345629;stop-opacity:0.0991"/>
		<stop  offset="0.8379" style="stop-color:#487D3B;stop-opacity:0.0567"/>
		<stop  offset="0.954" style="stop-color:#61A845;stop-opacity:0.0161"/>
		<stop  offset="1" style="stop-color:#6FBD46;stop-opacity:0"/>
	</linearGradient>
	<rect id="rect5679_1_" x="-0.001" fill="url(#rect5679_2_)" width="22.317" height="10.507"/>
	<g>
		<path d="M32,5.47c0-0.026-0.01-0.053-0.012-0.08c-0.006-0.06-0.012-0.121-0.026-0.178c-0.01-0.035-0.028-0.068-0.042-0.103
			c-0.02-0.048-0.036-0.095-0.063-0.138c-0.021-0.033-0.047-0.063-0.07-0.095c-0.029-0.038-0.057-0.077-0.092-0.11
			c-0.027-0.027-0.063-0.049-0.094-0.073c-0.031-0.022-0.059-0.052-0.09-0.071c-0.011-0.006-0.021-0.007-0.031-0.013
			c-0.008-0.005-0.017-0.013-0.024-0.019l-8.737-4.48C22.576,0.036,22.419,0,22.264,0c-0.156,0-0.313,0.037-0.457,0.11l-8.738,4.48
			c-0.008,0.006-0.016,0.014-0.025,0.019c-0.009,0.005-0.021,0.007-0.029,0.013c-0.035,0.021-0.063,0.049-0.094,0.073
			C12.89,4.717,12.858,4.74,12.83,4.766c-0.037,0.037-0.065,0.076-0.097,0.117c-0.021,0.029-0.047,0.057-0.065,0.088
			c-0.026,0.045-0.045,0.096-0.063,0.146c-0.014,0.032-0.03,0.062-0.039,0.097c-0.018,0.058-0.021,0.118-0.027,0.18
			c-0.002,0.025-0.012,0.051-0.012,0.078c0,0.002,0,0.002,0,0.004s0,0.004,0,0.006v17.025c0,0.367,0.201,0.705,0.524,0.882
			l8.737,4.719c0.046,0.022,0.096,0.039,0.146,0.056c0.025,0.011,0.051,0.022,0.078,0.03c0.082,0.021,0.168,0.033,0.254,0.033
			c0.084,0,0.17-0.013,0.252-0.033c0.026-0.008,0.053-0.021,0.08-0.03c0.047-0.017,0.098-0.03,0.143-0.056l8.738-4.719
			C31.799,23.212,32,22.874,32,22.507V5.481c0-0.002-0.001-0.004-0.001-0.006S32,5.472,32,5.47z"/>
		<polygon id="polygon4208_1_" fill="#7CC5D9" points="31,5.481 22.264,10.2 13.525,5.481 22.264,1 		"/>
		<polygon id="polygon4212_2_" fill="#006882" points="22.264,27.227 13.525,22.507 13.525,5.481 22.264,10.2 		"/>
		<polygon id="polygon4214_2_" fill="#02ABD8" points="22.264,27.227 31,22.507 31,5.481 22.264,10.2 		"/>
		
			<linearGradient id="polygon4214_3_" gradientUnits="userSpaceOnUse" x1="303.5684" y1="-389.373" x2="315.405" y2="-389.373" gradientTransform="matrix(1 0 0 -1 -281.7207 -373.0195)">
			<stop  offset="0" style="stop-color:#B0D0DA;stop-opacity:0"/>
			<stop  offset="1" style="stop-color:#A0DCF4"/>
		</linearGradient>
		<polygon id="polygon4214_1_" fill="url(#polygon4214_3_)" points="22.264,27.227 31,22.507 31,5.481 22.264,10.2 		"/>
		
			<linearGradient id="polygon4212_3_" gradientUnits="userSpaceOnUse" x1="295.2061" y1="-389.373" x2="304.1818" y2="-389.373" gradientTransform="matrix(1 0 0 -1 -281.7207 -373.0195)">
			<stop  offset="0" style="stop-color:#0A485C"/>
			<stop  offset="1" style="stop-color:#B0D0DA;stop-opacity:0"/>
		</linearGradient>
		<polygon id="polygon4212_1_" fill="url(#polygon4212_3_)" points="22.264,27.227 13.525,22.507 13.525,5.481 22.264,10.2 		"/>
	</g>
</g>
<g>
	<path id="path2935_9_" fill="#231F20" d="M3.209,30.521c-0.121-0.123-0.191-0.289-0.19-0.463l0.001-1.146
		c-0.001-0.105,0.025-0.217,0.077-0.311l0.233-0.433l-0.233-0.44c-0.089-0.166-0.101-0.358-0.035-0.533l0.234-0.631l-0.172-1.066
		c-0.02-0.125-0.002-0.25,0.047-0.366l0.246-0.563l-0.365-1.1c-0.071-0.209-0.027-0.441,0.11-0.615l0.499-0.623l-0.541-0.84
		c-0.067-0.104-0.102-0.226-0.102-0.354v-1.143H2.691c-0.18,0-0.344-0.076-0.462-0.19c-0.119-0.118-0.19-0.279-0.192-0.459v-1.611
		c-0.158-0.127-0.312-0.263-0.455-0.403C0.563,16.208,0,14.851,0,13.408c0-1.445,0.564-2.803,1.583-3.825
		C2.605,8.561,3.962,8,5.407,8C6.854,8,8.209,8.563,9.23,9.583s1.584,2.377,1.584,3.823c-0.002,1.648-0.758,3.204-2.039,4.227v1.612
		c0,0.173-0.069,0.337-0.191,0.462c-0.121,0.121-0.289,0.189-0.461,0.189H7.795l0.001,10.162c0.001,0.205-0.099,0.401-0.264,0.525
		l-1.736,1.287c-0.231,0.172-0.547,0.173-0.78,0l-1.734-1.289C3.259,30.563,3.232,30.543,3.209,30.521L3.209,30.521z M5.996,10.354
		c-0.157-0.157-0.365-0.241-0.589-0.241c-0.456-0.001-0.829,0.37-0.83,0.829c0.001,0.226,0.086,0.432,0.242,0.587
		c0.157,0.159,0.366,0.244,0.588,0.244c0.458,0,0.829-0.375,0.831-0.832C6.238,10.721,6.152,10.511,5.996,10.354L5.996,10.354z"/>
	<path id="path3790_10_" fill="#FAA920" d="M5.407,8.655c2.626,0,4.753,2.126,4.753,4.751c0,1.616-0.807,3.039-2.037,3.899v1.938
		h-0.98l0.002,10.813l-1.736,1.289l-1.735-1.289v-1.144l0.398-0.74l-0.397-0.748l0.297-0.792l-0.2-1.236l0.349-0.793L3.674,23.27
		l0.793-0.99l-0.793-1.235v-1.798l-0.981,0.001v-1.938c-1.23-0.859-2.036-2.283-2.037-3.898C0.655,10.78,2.782,8.653,5.407,8.655
		L5.407,8.655z M5.407,9.458c-0.821,0-1.484,0.664-1.484,1.486c0,0.823,0.665,1.485,1.484,1.483c0.821,0,1.483-0.661,1.485-1.483
		C6.893,10.123,6.229,9.458,5.407,9.458z"/>
	
		<linearGradient id="path2946_1_" gradientUnits="userSpaceOnUse" x1="755.293" y1="-2364.749" x2="763.4941" y2="-2364.749" gradientTransform="matrix(1 0 0 -1 -753.9844 -2344.6387)">
		<stop  offset="0" style="stop-color:#A5692A"/>
		<stop  offset="0.5394" style="stop-color:#FAA920"/>
		<stop  offset="1" style="stop-color:#FFF3E2"/>
	</linearGradient>
	<path id="path2946_9_" fill="url(#path2946_1_)" d="M4.326,29.074l0.484-0.902L4.39,27.38l0.255-0.678L4.448,25.48l0.369-0.844
		l-0.411-1.24l0.861-1.076l-0.941-1.473v-2.261H3.344v-1.624L3.066,16.77c-0.198-0.139-0.386-0.297-0.557-0.47
		c-0.773-0.772-1.199-1.8-1.2-2.895c0-1.094,0.426-2.124,1.201-2.898c0.347-0.345,0.743-0.622,1.172-0.821
		c-0.258,0.354-0.41,0.787-0.409,1.254c0,0.574,0.222,1.11,0.625,1.516c0.404,0.403,0.942,0.625,1.515,0.625
		c1.174,0.001,2.135-0.958,2.137-2.136c0-0.46-0.144-0.894-0.405-1.254c0.428,0.199,0.823,0.474,1.166,0.818
		c0.774,0.773,1.199,1.803,1.199,2.898c0,1.337-0.656,2.596-1.758,3.362l-0.281,0.195v1.624H6.486l0.004,11.14l-1.083,0.806
		l-1.083-0.806L4.326,29.074z"/>
	
		<linearGradient id="rect3802_1_" gradientUnits="userSpaceOnUse" x1="-1660.8521" y1="-3111.7881" x2="-1660.04" y2="-3111.7881" gradientTransform="matrix(-1.0994 0 0 -1.0994 -1819.6372 -3396.6187)">
		<stop  offset="0" style="stop-color:#A5692A"/>
		<stop  offset="0.5394" style="stop-color:#FAA920"/>
		<stop  offset="1" style="stop-color:#2B2012"/>
	</linearGradient>
	<path id="rect3802_10_" fill="url(#rect3802_1_)" d="M6.01,19.305H5.695c-0.16,0-0.288,0.129-0.288,0.289v9.773
		c0,0.162,0.128,0.29,0.29,0.29h0.314c0.161,0,0.288-0.128,0.288-0.29v-9.775C6.298,19.436,6.17,19.305,6.01,19.305z"/>
</g>
</svg>
