<?xml version="1.0" encoding="utf-8"?>
<!-- Generator: Adobe Illustrator 14.0.0, SVG Export Plug-In . SVG Version: 6.00 Build 43363)  -->
<!DOCTYPE svg PUBLIC "-//W3C//DTD SVG 1.1//EN" "http://www.w3.org/Graphics/SVG/1.1/DTD/svg11.dtd">
<svg version="1.1"
	 id="svg2" sodipodi:docbase="C:\Radix\dev\trunk\org.radixware\kernel\designer\src\common.resources\src\org\radixware\kernel\designer\resources\icons\ads\property" sodipodi:docname="property_dynamic_static_private.svg" inkscape:version="0.45.1" sodipodi:version="0.32" inkscape:output_extension="org.inkscape.output.svg.inkscape" xmlns:ns="http://creativecommons.org/ns#" xmlns:dc="http://purl.org/dc/elements/1.1/" xmlns:cc="http://web.resource.org/cc/" xmlns:rdf="http://www.w3.org/1999/02/22-rdf-syntax-ns#" xmlns:svg="http://www.w3.org/2000/svg" xmlns:sodipodi="http://sodipodi.sourceforge.net/DTD/sodipodi-0.dtd" xmlns:inkscape="http://www.inkscape.org/namespaces/inkscape"
	 xmlns="http://www.w3.org/2000/svg" xmlns:xlink="http://www.w3.org/1999/xlink" x="0px" y="0px" width="32px" height="32px"
	 viewBox="0 0 32 32" enable-background="new 0 0 32 32" xml:space="preserve">
<sodipodi:namedview  id="base" pagecolor="#ffffff" bordercolor="#000000" borderopacity="1.0" showgrid="true" inkscape:zoom="8.4712644" inkscape:cx="42.49461" inkscape:cy="0.5" inkscape:current-layer="layer1" inkscape:pageopacity="0.0" inkscape:pageshadow="2" inkscape:window-width="1280" inkscape:window-height="944" inkscape:window-x="-8" inkscape:window-y="-8" inkscape:document-units="px">
	</sodipodi:namedview>
<g>
	<g>
		<path d="M32,5.471c0-0.027-0.01-0.054-0.012-0.08c-0.006-0.061-0.012-0.121-0.025-0.179c-0.01-0.034-0.029-0.067-0.043-0.103
			c-0.02-0.049-0.035-0.096-0.063-0.139c-0.02-0.033-0.047-0.063-0.07-0.095c-0.029-0.038-0.057-0.077-0.092-0.11
			c-0.027-0.027-0.063-0.049-0.094-0.072c-0.031-0.022-0.059-0.053-0.09-0.071C31.5,4.616,31.49,4.615,31.48,4.609
			c-0.008-0.006-0.016-0.014-0.023-0.02l-8.738-4.48C22.576,0.036,22.42,0,22.264,0s-0.313,0.037-0.457,0.109l-8.737,4.48
			c-0.008,0.006-0.016,0.014-0.025,0.02c-0.009,0.004-0.021,0.007-0.029,0.013c-0.035,0.021-0.063,0.049-0.094,0.073
			c-0.031,0.021-0.063,0.045-0.091,0.07c-0.037,0.037-0.065,0.076-0.097,0.117c-0.021,0.029-0.047,0.057-0.065,0.088
			c-0.026,0.045-0.045,0.096-0.063,0.146c-0.014,0.031-0.03,0.063-0.039,0.097c-0.018,0.058-0.021,0.118-0.027,0.181
			c-0.002,0.024-0.012,0.051-0.012,0.078c0,0.002,0,0.002,0,0.004s0,0.004,0,0.006v17.024c0,0.367,0.201,0.705,0.524,0.882
			l8.738,4.719c0.045,0.022,0.096,0.039,0.145,0.056c0.025,0.011,0.051,0.022,0.078,0.03c0.082,0.021,0.168,0.033,0.254,0.033
			c0.084,0,0.17-0.013,0.252-0.033c0.027-0.008,0.053-0.021,0.08-0.03c0.047-0.017,0.098-0.03,0.143-0.056l8.738-4.719
			C31.799,23.212,32,22.874,32,22.507V5.48c0-0.002,0-0.004,0-0.006S32,5.473,32,5.471z"/>
		<polygon id="polygon4208_1_" fill="#7CC5D9" points="31,5.48 22.264,10.2 13.525,5.48 22.264,1 		"/>
		<polygon id="polygon4212_2_" fill="#006882" points="22.264,27.227 13.525,22.507 13.525,5.48 22.264,10.2 		"/>
		<polygon id="polygon4214_2_" fill="#02ABD8" points="22.264,27.227 31,22.507 31,5.48 22.264,10.2 		"/>
		
			<linearGradient id="polygon4214_3_" gradientUnits="userSpaceOnUse" x1="303.5684" y1="-389.373" x2="315.405" y2="-389.373" gradientTransform="matrix(1 0 0 -1 -281.7207 -373.0195)">
			<stop  offset="0" style="stop-color:#B0D0DA;stop-opacity:0"/>
			<stop  offset="1" style="stop-color:#A0DCF4"/>
		</linearGradient>
		<polygon id="polygon4214_1_" fill="url(#polygon4214_3_)" points="22.264,27.227 31,22.507 31,5.48 22.264,10.2 		"/>
		
			<linearGradient id="polygon4212_3_" gradientUnits="userSpaceOnUse" x1="295.207" y1="-389.373" x2="304.1817" y2="-389.373" gradientTransform="matrix(1 0 0 -1 -281.7207 -373.0195)">
			<stop  offset="0" style="stop-color:#0A485C"/>
			<stop  offset="1" style="stop-color:#B0D0DA;stop-opacity:0"/>
		</linearGradient>
		<polygon id="polygon4212_1_" fill="url(#polygon4212_3_)" points="22.264,27.227 13.525,22.507 13.525,5.48 22.264,10.2 		"/>
	</g>
</g>
<g>
	<rect x="3.914" y="18.596" fill="#FFFFFF" width="8.809" height="11.904"/>
	<path fill="#231F20" d="M1.936,32C0.851,32,0,31.27,0,30.338V17.484c0-0.84,0.688-1.514,1.613-1.644v-1.204
		c0,0,0.031-0.74,0.034-0.761C2.033,10.527,4.86,8,8.226,8c3.364,0,6.192,2.527,6.577,5.879c0.006,0.035,0.033,0.688,0.033,0.688
		l0.002,1.341c0.771,0.219,1.314,0.834,1.314,1.577v12.854c0,0.934-0.854,1.662-1.938,1.662H1.936L1.936,32z M9.258,28.678
		l-0.873-4.934c-0.068-0.387,0.111-0.771,0.451-0.963c0.443-0.256,0.711-0.699,0.711-1.193c0-0.773-0.631-1.402-1.403-1.402
		s-1.4,0.629-1.4,1.402c0,0.467,0.241,0.902,0.646,1.166c0.307,0.197,0.468,0.557,0.41,0.918l-0.791,5.006H9.258z M11.241,15.822
		c0,0,0-1.348,0-1.35c-0.007-0.029-0.013-0.058-0.019-0.089c-0.231-1.637-1.521-2.87-2.998-2.87c-1.478,0-2.767,1.233-2.996,2.87
		c-0.005,0.033-0.011,0.063-0.019,0.097v1.342H11.241z"/>
	<path id="rect4086_6_" fill="#ED2C29" d="M8.226,8.924c-2.917,0-5.337,2.238-5.661,5.061v0.054L2.54,14.611v0.027v0.687v0.19v1.23
		H1.936c-0.566,0-1.014,0.33-1.014,0.738v12.854c0,0.412,0.446,0.74,1.014,0.74h12.281c0.565,0,1.014-0.328,1.014-0.74V17.484
		c0-0.408-0.445-0.738-1.014-0.738h-0.303v-1.23v-0.19v-0.687v-0.027l-0.027-0.573v-0.054C13.563,11.162,11.143,8.924,8.226,8.924z
		 M8.226,10.592c1.985,0,3.62,1.617,3.911,3.664h0.027v0.084c0.002,0.008-0.002,0.018,0,0.027c0,0.008,0,0.016,0,0.025v0.082v2.271
		H4.286v-2.271c0.003-0.011,0.003-0.019,0-0.025v-0.027c0.003-0.012,0.003-0.02,0-0.027c0.003-0.012,0.003-0.02,0-0.026V14.34
		v-0.082h0.028C4.604,12.209,6.242,10.592,8.226,10.592z M8.144,19.264c1.284,0,2.325,1.039,2.325,2.324
		c0,0.865-0.477,1.596-1.176,1.994l1.064,6.02H5.928l0.957-6.074C6.25,23.116,5.82,22.404,5.82,21.589
		C5.82,20.303,6.861,19.264,8.144,19.264z"/>
	
		<linearGradient id="SVGID_1_" gradientUnits="userSpaceOnUse" x1="844.5469" y1="1359.8096" x2="857.0059" y2="1359.8096" gradientTransform="matrix(1 0 0 1 -842.7012 -1335.8984)">
		<stop  offset="0" style="stop-color:#F4959A"/>
		<stop  offset="1" style="stop-color:#901D1E"/>
	</linearGradient>
	<path fill="url(#SVGID_1_)" d="M11.396,30.154l-1.094-6.162c0.691-0.605,1.09-1.467,1.09-2.404c0-1.791-1.457-3.248-3.249-3.248
		c-1.79,0-3.247,1.457-3.247,3.248c0,0.885,0.363,1.719,0.994,2.324l-0.984,6.242h-2.97c-0.034,0-0.064-0.004-0.09-0.01V17.676
		c0.024-0.004,0.056-0.008,0.09-0.008h12.281c0.033,0,0.063,0.004,0.088,0.008v12.469c-0.022,0.006-0.055,0.01-0.088,0.01H11.396
		L11.396,30.154z"/>
</g>
</svg>
