<?xml version="1.0" encoding="UTF-8" standalone="no"?>
<!-- Created with Inkscape (http://www.inkscape.org/) -->
<svg
   xmlns:ns="http://creativecommons.org/ns#"
   xmlns:dc="http://purl.org/dc/elements/1.1/"
   xmlns:cc="http://web.resource.org/cc/"
   xmlns:rdf="http://www.w3.org/1999/02/22-rdf-syntax-ns#"
   xmlns:svg="http://www.w3.org/2000/svg"
   xmlns="http://www.w3.org/2000/svg"
   xmlns:xlink="http://www.w3.org/1999/xlink"
   xmlns:sodipodi="http://sodipodi.sourceforge.net/DTD/sodipodi-0.dtd"
   xmlns:inkscape="http://www.inkscape.org/namespaces/inkscape"
   width="32"
   height="32"
   id="svg2"
   sodipodi:version="0.32"
   inkscape:version="0.45.1"
   sodipodi:docbase="C:\Radix\dev\trunk\org.radixware\kernel\designer\src\common.resources\src\org\radixware\kernel\designer\resources\icons\ads\property"
   sodipodi:docname="property_innate.svg"
   version="1.0"
   inkscape:output_extension="org.inkscape.output.svg.inkscape">
  <defs
     id="defs4">
    <linearGradient
       id="linearGradient5500">
      <stop
         style="stop-color:#d18eff;stop-opacity:1;"
         offset="0"
         id="stop5502" />
      <stop
         style="stop-color:#7300c6;stop-opacity:0;"
         offset="1"
         id="stop5504" />
    </linearGradient>
    <linearGradient
       id="linearGradient5506">
      <stop
         id="stop5508"
         offset="0"
         style="stop-color:#1f0035;stop-opacity:1;" />
      <stop
         id="stop5510"
         offset="1"
         style="stop-color:#ab37fc;stop-opacity:0;" />
    </linearGradient>
    <linearGradient
       inkscape:collect="always"
       xlink:href="#linearGradient5500"
       id="linearGradient33059"
       gradientUnits="userSpaceOnUse"
       x1="96.807571"
       y1="29.921"
       x2="60.337337"
       y2="29.921" />
    <linearGradient
       inkscape:collect="always"
       xlink:href="#linearGradient5506"
       id="linearGradient33061"
       gradientUnits="userSpaceOnUse"
       x1="51.839001"
       y1="75.352707"
       x2="83.239998"
       y2="68.565002" />
    <linearGradient
       inkscape:collect="always"
       xlink:href="#linearGradient5500"
       id="linearGradient33077"
       gradientUnits="userSpaceOnUse"
       x1="96.807571"
       y1="29.921"
       x2="60.337337"
       y2="29.921" />
    <linearGradient
       inkscape:collect="always"
       xlink:href="#linearGradient5506"
       id="linearGradient33079"
       gradientUnits="userSpaceOnUse"
       x1="51.839001"
       y1="75.352707"
       x2="83.239998"
       y2="68.565002" />
  </defs>
  <sodipodi:namedview
     id="base"
     pagecolor="#ffffff"
     bordercolor="#000000"
     borderopacity="1.0"
     inkscape:pageopacity="0.0"
     inkscape:pageshadow="2"
     inkscape:zoom="6.8076546"
     inkscape:cx="41.130654"
     inkscape:cy="16.955453"
     inkscape:document-units="px"
     inkscape:current-layer="layer1"
     inkscape:window-width="1280"
     inkscape:window-height="944"
     inkscape:window-x="-8"
     inkscape:window-y="-8"
     showgrid="true" />
  <metadata
     id="metadata7">
    <rdf:RDF>
      <ns:Work
         rdf:about="">
        <dc:format>image/svg+xml</dc:format>
        <dc:type
           rdf:resource="http://purl.org/dc/dcmitype/StillImage" />
      </ns:Work>
      <cc:Work
         rdf:about="">
        <dc:format>image/svg+xml</dc:format>
        <dc:type
           rdf:resource="http://purl.org/dc/dcmitype/StillImage" />
      </cc:Work>
    </rdf:RDF>
  </metadata>
  <g
     inkscape:label="Layer 1"
     inkscape:groupmode="layer"
     id="layer1">
    <g
       id="g33051"
       transform="translate(-30.847629,32.463457)">
      <polygon
         transform="matrix(0.2782586,0,0,0.2782586,25.284363,-33.447641)"
         id="polygon33025"
         points="114.639,29.492 83.24,46.453 51.839,29.492 83.24,13.389 114.639,29.492 "
         style="fill:#b244ff;fill-opacity:1" />
      <polygon
         transform="matrix(0.2782586,0,0,0.2782586,25.284363,-33.447641)"
         id="polygon33027"
         points="114.639,90.677 83.24,107.638 51.839,90.677 83.24,74.573 114.639,90.677 "
         style="fill:#808080" />
      <polygon
         transform="matrix(0.2782586,0,0,0.2782586,25.284363,-33.447641)"
         id="polygon33029"
         points="83.24,107.638 51.839,90.677 51.839,29.492 83.24,46.453 83.24,107.638 "
         style="fill:#8019c8;fill-opacity:1" />
      <polygon
         transform="matrix(0.2782586,0,0,0.2782586,25.284363,-33.447641)"
         id="polygon33031"
         points="83.24,107.638 114.639,90.677 114.639,29.492 83.24,46.453 83.24,107.638 "
         style="fill:#d9a1ff;fill-opacity:1" />
      <polygon
         transform="matrix(0.2782586,0,0,0.2782586,25.253447,-33.499325)"
         id="polygon33033"
         points="114.639,29.492 83.24,46.453 51.839,29.492 83.24,13.389 114.639,29.492 "
         style="fill:url(#linearGradient33059);fill-opacity:1" />
      <polygon
         transform="matrix(0.2782586,0,0,0.2782586,25.225414,-33.420954)"
         id="polygon33035"
         points="83.24,107.638 51.839,90.677 51.839,29.492 83.24,46.453 83.24,107.638 "
         style="fill:url(#linearGradient33061);fill-opacity:1" />
    </g>
    <g
       id="g2204"
       transform="matrix(1.225829,0,0,1.356328,-7.061143,-2.158985)" />
    <g
       id="g33063"
       transform="matrix(0.5894862,0,0,0.5894862,-4.2302005,32.873771)">
      <polygon
         transform="matrix(0.2782586,0,0,0.2782586,25.284363,-33.447641)"
         id="polygon33065"
         points="114.639,29.492 83.24,46.453 51.839,29.492 83.24,13.389 114.639,29.492 "
         style="fill:#b244ff;fill-opacity:1" />
      <polygon
         transform="matrix(0.2782586,0,0,0.2782586,25.284363,-33.447641)"
         id="polygon33067"
         points="114.639,90.677 83.24,107.638 51.839,90.677 83.24,74.573 114.639,90.677 "
         style="fill:#808080" />
      <polygon
         transform="matrix(0.2782586,0,0,0.2782586,25.284363,-33.447641)"
         id="polygon33069"
         points="83.24,107.638 51.839,90.677 51.839,29.492 83.24,46.453 83.24,107.638 "
         style="fill:#8019c8;fill-opacity:1" />
      <polygon
         transform="matrix(0.2782586,0,0,0.2782586,25.284363,-33.447641)"
         id="polygon33071"
         points="83.24,107.638 114.639,90.677 114.639,29.492 83.24,46.453 83.24,107.638 "
         style="fill:#d9a1ff;fill-opacity:1" />
      <polygon
         transform="matrix(0.2782586,0,0,0.2782586,25.253447,-33.499325)"
         id="polygon33073"
         points="114.639,29.492 83.24,46.453 51.839,29.492 83.24,13.389 114.639,29.492 "
         style="fill:url(#linearGradient33077);fill-opacity:1" />
      <polygon
         transform="matrix(0.2782586,0,0,0.2782586,25.225414,-33.420954)"
         id="polygon33075"
         points="83.24,107.638 51.839,90.677 51.839,29.492 83.24,46.453 83.24,107.638 "
         style="fill:url(#linearGradient33079);fill-opacity:1" />
    </g>
  </g>
</svg>
