<?xml version="1.0" encoding="UTF-8" standalone="no"?>
<!-- Created with Inkscape (http://www.inkscape.org/) -->
<svg
   xmlns:ns="http://creativecommons.org/ns#"
   xmlns:dc="http://purl.org/dc/elements/1.1/"
   xmlns:cc="http://web.resource.org/cc/"
   xmlns:rdf="http://www.w3.org/1999/02/22-rdf-syntax-ns#"
   xmlns:svg="http://www.w3.org/2000/svg"
   xmlns="http://www.w3.org/2000/svg"
   xmlns:xlink="http://www.w3.org/1999/xlink"
   xmlns:sodipodi="http://sodipodi.sourceforge.net/DTD/sodipodi-0.dtd"
   xmlns:inkscape="http://www.inkscape.org/namespaces/inkscape"
   width="32"
   height="32"
   id="svg2"
   sodipodi:version="0.32"
   inkscape:version="0.45.1"
   sodipodi:docbase="C:\Radix\dev\trunk\org.radixware\kernel\designer\src\common.resources\src\org\radixware\kernel\designer\resources\icons\ads\property"
   sodipodi:docname="property_innate_protected.svg"
   version="1.0"
   inkscape:output_extension="org.inkscape.output.svg.inkscape">
  <defs
     id="defs4">
    <linearGradient
       id="linearGradient5500">
      <stop
         style="stop-color:#d18eff;stop-opacity:1;"
         offset="0"
         id="stop5502" />
      <stop
         style="stop-color:#7300c6;stop-opacity:0;"
         offset="1"
         id="stop5504" />
    </linearGradient>
    <linearGradient
       id="linearGradient5506">
      <stop
         id="stop5508"
         offset="0"
         style="stop-color:#1f0035;stop-opacity:1;" />
      <stop
         id="stop5510"
         offset="1"
         style="stop-color:#ab37fc;stop-opacity:0;" />
    </linearGradient>
    <linearGradient
       id="linearGradient7026">
      <stop
         id="stop7028"
         offset="0"
         style="stop-color:#003048;stop-opacity:1;" />
      <stop
         id="stop7030"
         offset="1"
         style="stop-color:#0082c6;stop-opacity:0;" />
    </linearGradient>
    <linearGradient
       id="linearGradient7013">
      <stop
         style="stop-color:#8ed9ff;stop-opacity:1;"
         offset="0"
         id="stop7015" />
      <stop
         style="stop-color:#0082c6;stop-opacity:0;"
         offset="1"
         id="stop7018" />
    </linearGradient>
    <filter
       inkscape:collect="always"
       id="filter6597"
       x="-0.117"
       width="1.234"
       y="-0.052000001"
       height="1.104">
      <feGaussianBlur
         inkscape:collect="always"
         stdDeviation="0.30350355"
         id="feGaussianBlur6599" />
    </filter>
    <linearGradient
       inkscape:collect="always"
       xlink:href="#linearGradient7013"
       id="linearGradient10232"
       gradientUnits="userSpaceOnUse"
       gradientTransform="matrix(1.5561059,0,0,1.5561059,-13.69704,6.4830319)"
       x1="23.572748"
       y1="9.9137974"
       x2="26.470785"
       y2="9.2518435" />
    <linearGradient
       inkscape:collect="always"
       xlink:href="#linearGradient7026"
       id="linearGradient10234"
       gradientUnits="userSpaceOnUse"
       gradientTransform="matrix(1.5561059,0,0,1.5561059,-14.126237,6.4186519)"
       x1="29.301996"
       y1="9.2518425"
       x2="26.18914"
       y2="9.3621693" />
    <linearGradient
       inkscape:collect="always"
       xlink:href="#linearGradient5500"
       id="linearGradient33059"
       gradientUnits="userSpaceOnUse"
       x1="96.807571"
       y1="29.921"
       x2="60.337337"
       y2="29.921" />
    <linearGradient
       inkscape:collect="always"
       xlink:href="#linearGradient5506"
       id="linearGradient33061"
       gradientUnits="userSpaceOnUse"
       x1="51.839001"
       y1="75.352707"
       x2="83.239998"
       y2="68.565002" />
    <linearGradient
       inkscape:collect="always"
       xlink:href="#linearGradient5500"
       id="linearGradient33077"
       gradientUnits="userSpaceOnUse"
       x1="96.807571"
       y1="29.921"
       x2="60.337337"
       y2="29.921" />
    <linearGradient
       inkscape:collect="always"
       xlink:href="#linearGradient5506"
       id="linearGradient33079"
       gradientUnits="userSpaceOnUse"
       x1="51.839001"
       y1="75.352707"
       x2="83.239998"
       y2="68.565002" />
  </defs>
  <sodipodi:namedview
     id="base"
     pagecolor="#ffffff"
     bordercolor="#000000"
     borderopacity="1.0"
     inkscape:pageopacity="0.0"
     inkscape:pageshadow="2"
     inkscape:zoom="6.8076546"
     inkscape:cx="41.130654"
     inkscape:cy="16.955453"
     inkscape:document-units="px"
     inkscape:current-layer="layer1"
     inkscape:window-width="1280"
     inkscape:window-height="944"
     inkscape:window-x="-8"
     inkscape:window-y="-8"
     showgrid="true" />
  <metadata
     id="metadata7">
    <rdf:RDF>
      <ns:Work
         rdf:about="">
        <dc:format>image/svg+xml</dc:format>
        <dc:type
           rdf:resource="http://purl.org/dc/dcmitype/StillImage" />
      </ns:Work>
      <cc:Work
         rdf:about="">
        <dc:format>image/svg+xml</dc:format>
        <dc:type
           rdf:resource="http://purl.org/dc/dcmitype/StillImage" />
      </cc:Work>
    </rdf:RDF>
  </metadata>
  <g
     inkscape:label="Layer 1"
     inkscape:groupmode="layer"
     id="layer1">
    <g
       id="g33051"
       transform="translate(-30.847629,32.463457)">
      <polygon
         transform="matrix(0.2782586,0,0,0.2782586,25.284363,-33.447641)"
         id="polygon33025"
         points="114.639,29.492 83.24,46.453 51.839,29.492 83.24,13.389 114.639,29.492 "
         style="fill:#b244ff;fill-opacity:1" />
      <polygon
         transform="matrix(0.2782586,0,0,0.2782586,25.284363,-33.447641)"
         id="polygon33027"
         points="114.639,90.677 83.24,107.638 51.839,90.677 83.24,74.573 114.639,90.677 "
         style="fill:#808080" />
      <polygon
         transform="matrix(0.2782586,0,0,0.2782586,25.284363,-33.447641)"
         id="polygon33029"
         points="83.24,107.638 51.839,90.677 51.839,29.492 83.24,46.453 83.24,107.638 "
         style="fill:#8019c8;fill-opacity:1" />
      <polygon
         transform="matrix(0.2782586,0,0,0.2782586,25.284363,-33.447641)"
         id="polygon33031"
         points="83.24,107.638 114.639,90.677 114.639,29.492 83.24,46.453 83.24,107.638 "
         style="fill:#d9a1ff;fill-opacity:1" />
      <polygon
         transform="matrix(0.2782586,0,0,0.2782586,25.253447,-33.499325)"
         id="polygon33033"
         points="114.639,29.492 83.24,46.453 51.839,29.492 83.24,13.389 114.639,29.492 "
         style="fill:url(#linearGradient33059);fill-opacity:1" />
      <polygon
         transform="matrix(0.2782586,0,0,0.2782586,25.225414,-33.420954)"
         id="polygon33035"
         points="83.24,107.638 51.839,90.677 51.839,29.492 83.24,46.453 83.24,107.638 "
         style="fill:url(#linearGradient33061);fill-opacity:1" />
    </g>
    <g
       id="g2204"
       transform="matrix(1.225829,0,0,1.356328,-7.061143,-2.158985)" />
    <g
       id="g7032"
       transform="matrix(0.8162054,0,0,0.8162054,-17.148399,5.8867481)">
      <path
         transform="matrix(1.6388331,0,0,1.6388331,-0.5842055,-0.5445402)"
         sodipodi:nodetypes="cscccccccccccccsccsssc"
         id="path6580"
         d="M 16.824571,5.9766487 C 15.11144,5.9766487 13.711714,7.3495397 13.711714,9.0626706 C 13.711714,10.071122 14.200314,10.964498 14.946123,11.531488 L 14.946123,13.114751 L 15.348647,13.114751 L 15.348647,18.562251 L 16.744066,19.984505 L 18.300494,18.562251 L 17.458399,17.48016 L 18.256276,16.494438 L 17.466331,15.546523 L 18.246824,14.77852 L 18.273659,13.114751 L 18.703019,13.114751 L 18.703019,11.531488 C 19.448827,10.964498 19.937427,10.071122 19.937427,9.0626706 C 19.937427,7.3495396 18.537702,5.9766483 16.824571,5.9766487 z M 16.770901,6.5133481 C 17.540568,6.5133481 18.166319,7.1390992 18.166319,7.9087667 C 18.166319,8.6784342 17.540568,9.3041853 16.770901,9.3041853 C 16.001233,9.3041851 15.375482,8.6784343 15.375482,7.9087667 C 15.375482,7.1390992 16.001233,6.5133481 16.770901,6.5133481 z"
         style="opacity:0.5;fill:#000000;fill-opacity:1;fill-rule:nonzero;stroke:none;stroke-width:0.30000001;stroke-linecap:butt;stroke-miterlimit:4;stroke-dasharray:none;stroke-opacity:1;filter:url(#filter6597)" />
      <path
         sodipodi:nodetypes="cscccccccccccccsccsssc"
         id="path6595"
         d="M 26.712678,8.5646777 C 23.905143,8.5646777 21.611225,10.814617 21.611225,13.622153 C 21.611225,15.274836 22.411959,16.738929 23.634216,17.668131 L 23.634216,20.262837 L 24.293885,20.262837 L 24.293885,29.19038 L 26.580744,31.521217 L 29.13147,29.19038 L 27.751417,27.417013 L 29.059004,25.801579 L 27.764416,24.248105 L 29.043514,22.989475 L 29.087492,20.262837 L 29.791141,20.262837 L 29.791141,17.668131 C 31.013396,16.738929 31.81413,15.274836 31.81413,13.622153 C 31.81413,10.814617 29.520212,8.564677 26.712678,8.5646777 z M 26.624722,9.4442384 C 27.886078,9.4442384 28.911579,10.46974 28.911579,11.731097 C 28.911579,12.992453 27.886078,14.017955 26.624722,14.017955 C 25.363365,14.017955 24.337863,12.992453 24.337863,11.731097 C 24.337863,10.46974 25.363365,9.4442384 26.624722,9.4442384 z"
         style="fill:#0082c6;fill-opacity:1;fill-rule:nonzero;stroke:none;stroke-width:0.30000001;stroke-linecap:butt;stroke-miterlimit:4;stroke-dasharray:none;stroke-opacity:1" />
      <path
         sodipodi:nodetypes="cscccccccccccccsccsssc"
         id="path7011"
         d="M 27.056037,8.6934362 C 24.390224,8.6934362 22.212102,10.8298 22.212102,13.495614 C 22.212102,15.064869 22.972416,16.455057 24.132973,17.337354 L 24.132973,19.801079 L 24.759343,19.801079 L 24.759343,28.277968 L 26.930763,30.491146 L 29.35273,28.277968 L 28.042341,26.594121 L 29.283922,25.060232 L 28.054684,23.585176 L 29.269214,22.390081 L 29.310971,19.801079 L 29.9791,19.801079 L 29.9791,17.337354 C 31.139658,16.455057 31.89997,15.064869 31.89997,13.495614 C 31.89997,10.8298 29.72185,8.6934357 27.056037,8.6934362 z M 26.97252,9.5285973 C 28.170204,9.5285973 29.14394,10.502332 29.14394,11.700017 C 29.14394,12.8977 28.170204,13.871437 26.97252,13.871437 C 25.774836,13.871435 24.801101,12.897702 24.801101,11.700017 C 24.801101,10.502332 25.774836,9.5285973 26.97252,9.5285973 z"
         style="fill:url(#linearGradient10232);fill-opacity:1;fill-rule:nonzero;stroke:none;stroke-width:0.30000001;stroke-linecap:butt;stroke-miterlimit:4;stroke-dasharray:none;stroke-opacity:1" />
      <path
         sodipodi:nodetypes="cscccccccccccccsccsssc"
         id="path7022"
         d="M 26.62684,8.6290561 C 23.961027,8.6290561 21.782905,10.76542 21.782905,13.431234 C 21.782905,15.000489 22.543218,16.390677 23.703776,17.272974 L 23.703776,19.736698 L 24.330146,19.736698 L 24.330146,28.213586 L 26.329886,31.370996 L 28.751854,29.157818 L 27.441464,27.473971 L 28.683046,25.940082 L 27.453808,24.465026 L 28.668337,23.269931 L 28.881774,19.736698 L 29.549903,19.736698 L 29.549903,17.272974 C 30.710461,16.390677 31.470773,15.000489 31.470773,13.431234 C 31.470773,10.76542 29.292652,8.6290556 26.62684,8.6290561 z M 26.543323,9.4642173 C 27.741007,9.4642173 28.714742,10.437952 28.714742,11.635637 C 28.714742,12.83332 27.741007,13.807057 26.543323,13.807057 C 25.345639,13.807055 24.371904,12.833322 24.371904,11.635637 C 24.371904,10.437952 25.345639,9.4642173 26.543323,9.4642173 z"
         style="fill:url(#linearGradient10234);fill-opacity:1;fill-rule:nonzero;stroke:none;stroke-width:0.30000001;stroke-linecap:butt;stroke-miterlimit:4;stroke-dasharray:none;stroke-opacity:1" />
    </g>
    <g
       id="g33063"
       transform="matrix(0.5894862,0,0,0.5894862,-4.2302005,32.873771)">
      <polygon
         transform="matrix(0.2782586,0,0,0.2782586,25.284363,-33.447641)"
         id="polygon33065"
         points="114.639,29.492 83.24,46.453 51.839,29.492 83.24,13.389 114.639,29.492 "
         style="fill:#b244ff;fill-opacity:1" />
      <polygon
         transform="matrix(0.2782586,0,0,0.2782586,25.284363,-33.447641)"
         id="polygon33067"
         points="114.639,90.677 83.24,107.638 51.839,90.677 83.24,74.573 114.639,90.677 "
         style="fill:#808080" />
      <polygon
         transform="matrix(0.2782586,0,0,0.2782586,25.284363,-33.447641)"
         id="polygon33069"
         points="83.24,107.638 51.839,90.677 51.839,29.492 83.24,46.453 83.24,107.638 "
         style="fill:#8019c8;fill-opacity:1" />
      <polygon
         transform="matrix(0.2782586,0,0,0.2782586,25.284363,-33.447641)"
         id="polygon33071"
         points="83.24,107.638 114.639,90.677 114.639,29.492 83.24,46.453 83.24,107.638 "
         style="fill:#d9a1ff;fill-opacity:1" />
      <polygon
         transform="matrix(0.2782586,0,0,0.2782586,25.253447,-33.499325)"
         id="polygon33073"
         points="114.639,29.492 83.24,46.453 51.839,29.492 83.24,13.389 114.639,29.492 "
         style="fill:url(#linearGradient33077);fill-opacity:1" />
      <polygon
         transform="matrix(0.2782586,0,0,0.2782586,25.225414,-33.420954)"
         id="polygon33075"
         points="83.24,107.638 51.839,90.677 51.839,29.492 83.24,46.453 83.24,107.638 "
         style="fill:url(#linearGradient33079);fill-opacity:1" />
    </g>
  </g>
</svg>
