<?xml version="1.0" encoding="UTF-8" standalone="no"?>
<!-- Created with Inkscape (http://www.inkscape.org/) -->

<svg
   xmlns:dc="http://purl.org/dc/elements/1.1/"
   xmlns:cc="http://creativecommons.org/ns#"
   xmlns:rdf="http://www.w3.org/1999/02/22-rdf-syntax-ns#"
   xmlns:svg="http://www.w3.org/2000/svg"
   xmlns="http://www.w3.org/2000/svg"
   xmlns:xlink="http://www.w3.org/1999/xlink"
   xmlns:sodipodi="http://sodipodi.sourceforge.net/DTD/sodipodi-0.dtd"
   xmlns:inkscape="http://www.inkscape.org/namespaces/inkscape"
   width="32"
   height="32"
   id="svg2"
   sodipodi:version="0.32"
   inkscape:version="0.47 r22583"
   sodipodi:docname="property_innate_private.svg"
   version="1.0"
   inkscape:output_extension="org.inkscape.output.svg.inkscape">
  <defs
     id="defs4">
    <inkscape:perspective
       sodipodi:type="inkscape:persp3d"
       inkscape:vp_x="0 : 16 : 1"
       inkscape:vp_y="0 : 1000 : 0"
       inkscape:vp_z="32 : 16 : 1"
       inkscape:persp3d-origin="16 : 10.666667 : 1"
       id="perspective42" />
    <linearGradient
       id="linearGradient5500">
      <stop
         style="stop-color:#d18eff;stop-opacity:1;"
         offset="0"
         id="stop5502" />
      <stop
         style="stop-color:#7300c6;stop-opacity:0;"
         offset="1"
         id="stop5504" />
    </linearGradient>
    <linearGradient
       id="linearGradient5506">
      <stop
         id="stop5508"
         offset="0"
         style="stop-color:#1f0035;stop-opacity:1;" />
      <stop
         id="stop5510"
         offset="1"
         style="stop-color:#ab37fc;stop-opacity:0;" />
    </linearGradient>
    <linearGradient
       id="linearGradient5003">
      <stop
         style="stop-color:#e1c2c2;stop-opacity:1;"
         offset="0"
         id="stop5005" />
      <stop
         style="stop-color:#dce1c2;stop-opacity:0;"
         offset="1"
         id="stop5007" />
    </linearGradient>
    <linearGradient
       inkscape:collect="always"
       xlink:href="#linearGradient5500"
       id="linearGradient33059"
       gradientUnits="userSpaceOnUse"
       x1="96.807571"
       y1="29.921"
       x2="60.337337"
       y2="29.921" />
    <linearGradient
       inkscape:collect="always"
       xlink:href="#linearGradient5506"
       id="linearGradient33061"
       gradientUnits="userSpaceOnUse"
       x1="51.839001"
       y1="75.352707"
       x2="83.239998"
       y2="68.565002" />
    <linearGradient
       inkscape:collect="always"
       xlink:href="#linearGradient5500"
       id="linearGradient33077"
       gradientUnits="userSpaceOnUse"
       x1="96.807571"
       y1="29.921"
       x2="60.337337"
       y2="29.921" />
    <linearGradient
       inkscape:collect="always"
       xlink:href="#linearGradient5506"
       id="linearGradient33079"
       gradientUnits="userSpaceOnUse"
       x1="51.839001"
       y1="75.352707"
       x2="83.239998"
       y2="68.565002" />
    <linearGradient
       inkscape:collect="always"
       xlink:href="#linearGradient5003"
       id="linearGradient33187"
       gradientUnits="userSpaceOnUse"
       x1="14.777778"
       y1="15.861646"
       x2="15.555555"
       y2="18.93572" />
    <inkscape:perspective
       id="perspective2900"
       inkscape:persp3d-origin="0.5 : 0.33333333 : 1"
       inkscape:vp_z="1 : 0.5 : 1"
       inkscape:vp_y="0 : 1000 : 0"
       inkscape:vp_x="0 : 0.5 : 1"
       sodipodi:type="inkscape:persp3d" />
    <linearGradient
       id="SVGID_1_"
       gradientUnits="userSpaceOnUse"
       x1="9.3256998"
       y1="23.721701"
       x2="0.87550002"
       y2="23.721701">
      <stop
         offset="0"
         style="stop-color:#F4EA4C"
         id="stop63" />
      <stop
         offset="0.3812"
         style="stop-color:#9C9329"
         id="stop65" />
      <stop
         offset="1"
         style="stop-color:#F2E627"
         id="stop67" />
    </linearGradient>
    <linearGradient
       id="SVGID_2_"
       gradientUnits="userSpaceOnUse"
       x1="9.3256998"
       y1="23.721701"
       x2="17.7754"
       y2="23.721701">
      <stop
         offset="0"
         style="stop-color:#F4EA4C"
         id="stop72" />
      <stop
         offset="0.3812"
         style="stop-color:#9C9329"
         id="stop74" />
      <stop
         offset="1"
         style="stop-color:#F2E627"
         id="stop76" />
    </linearGradient>
  </defs>
  <sodipodi:namedview
     id="base"
     pagecolor="#ffffff"
     bordercolor="#000000"
     borderopacity="1.0"
     inkscape:pageopacity="0.0"
     inkscape:pageshadow="2"
     inkscape:zoom="22.4375"
     inkscape:cx="16"
     inkscape:cy="14.21727"
     inkscape:document-units="px"
     inkscape:current-layer="layer1"
     inkscape:window-width="1280"
     inkscape:window-height="944"
     inkscape:window-x="420"
     inkscape:window-y="45"
     showgrid="true"
     inkscape:window-maximized="0" />
  <metadata
     id="metadata7">
    <rdf:RDF>
      <cc:Work
         rdf:about="">
        <dc:format>image/svg+xml</dc:format>
        <dc:type
           rdf:resource="http://purl.org/dc/dcmitype/StillImage" />
        <dc:title></dc:title>
      </cc:Work>
      <cc:Work
         rdf:about="">
        <dc:format>image/svg+xml</dc:format>
        <dc:type
           rdf:resource="http://purl.org/dc/dcmitype/StillImage" />
      </cc:Work>
    </rdf:RDF>
  </metadata>
  <g
     inkscape:label="Layer 1"
     inkscape:groupmode="layer"
     id="layer1">
    <g
       id="g33051"
       transform="translate(-30.847629,32.463457)">
      <polygon
         transform="matrix(0.2782586,0,0,0.2782586,25.284363,-33.447641)"
         id="polygon33025"
         points="114.639,29.492 83.24,46.453 51.839,29.492 83.24,13.389 114.639,29.492 "
         style="fill:#b244ff;fill-opacity:1" />
      <polygon
         transform="matrix(0.2782586,0,0,0.2782586,25.284363,-33.447641)"
         id="polygon33027"
         points="114.639,90.677 83.24,107.638 51.839,90.677 83.24,74.573 114.639,90.677 "
         style="fill:#808080" />
      <polygon
         transform="matrix(0.2782586,0,0,0.2782586,25.284363,-33.447641)"
         id="polygon33029"
         points="83.24,107.638 51.839,90.677 51.839,29.492 83.24,46.453 83.24,107.638 "
         style="fill:#8019c8;fill-opacity:1" />
      <polygon
         transform="matrix(0.2782586,0,0,0.2782586,25.284363,-33.447641)"
         id="polygon33031"
         points="83.24,107.638 114.639,90.677 114.639,29.492 83.24,46.453 83.24,107.638 "
         style="fill:#d9a1ff;fill-opacity:1" />
      <polygon
         transform="matrix(0.2782586,0,0,0.2782586,25.253447,-33.499325)"
         id="polygon33033"
         points="114.639,29.492 83.24,46.453 51.839,29.492 83.24,13.389 114.639,29.492 "
         style="fill:url(#linearGradient33059);fill-opacity:1" />
      <polygon
         transform="matrix(0.2782586,0,0,0.2782586,25.225414,-33.420954)"
         id="polygon33035"
         points="83.24,107.638 51.839,90.677 51.839,29.492 83.24,46.453 83.24,107.638 "
         style="fill:url(#linearGradient33061);fill-opacity:1" />
    </g>
    <g
       id="g2204"
       transform="matrix(1.225829,0,0,1.356328,-7.061143,-2.158985)" />
    <g
       id="g33063"
       transform="matrix(0.5894862,0,0,0.5894862,-4.2302005,32.873771)">
      <polygon
         transform="matrix(0.2782586,0,0,0.2782586,25.284363,-33.447641)"
         id="polygon33065"
         points="114.639,29.492 83.24,46.453 51.839,29.492 83.24,13.389 114.639,29.492 "
         style="fill:#b244ff;fill-opacity:1" />
      <polygon
         transform="matrix(0.2782586,0,0,0.2782586,25.284363,-33.447641)"
         id="polygon33067"
         points="114.639,90.677 83.24,107.638 51.839,90.677 83.24,74.573 114.639,90.677 "
         style="fill:#808080" />
      <polygon
         transform="matrix(0.2782586,0,0,0.2782586,25.284363,-33.447641)"
         id="polygon33069"
         points="83.24,107.638 51.839,90.677 51.839,29.492 83.24,46.453 83.24,107.638 "
         style="fill:#8019c8;fill-opacity:1" />
      <polygon
         transform="matrix(0.2782586,0,0,0.2782586,25.284363,-33.447641)"
         id="polygon33071"
         points="83.24,107.638 114.639,90.677 114.639,29.492 83.24,46.453 83.24,107.638 "
         style="fill:#d9a1ff;fill-opacity:1" />
      <polygon
         transform="matrix(0.2782586,0,0,0.2782586,25.253447,-33.499325)"
         id="polygon33073"
         points="114.639,29.492 83.24,46.453 51.839,29.492 83.24,13.389 114.639,29.492 "
         style="fill:url(#linearGradient33077);fill-opacity:1" />
      <polygon
         transform="matrix(0.2782586,0,0,0.2782586,25.225414,-33.420954)"
         id="polygon33075"
         points="83.24,107.638 51.839,90.677 51.839,29.492 83.24,46.453 83.24,107.638 "
         style="fill:url(#linearGradient33079);fill-opacity:1" />
    </g>
    <g
       transform="translate(-0.17400408,-0.08562213)"
       id="g58">
      <path
         d="m 18.201,16.891 0.008,-0.223 -0.182,-0.134 c -0.688,-0.507 -1.538,-0.765 -2.529,-0.765 -2.552,0 -5.344,1.688 -6.172,2.229 -0.828,-0.54 -3.62,-2.229 -6.172,-2.229 -0.992,0 -1.843,0.257 -2.531,0.765 l -0.18,0.134 0.007,0.223 C 0.503,18.565 0.476,24.01 0.459,27.264 0.454,28.338 0.45,30.196 0.45,30.196 l 0.554,-0.175 c 0.554,-0.174 1.174,-0.262 1.841,-0.262 2.615,0 5.305,1.338 6.055,1.74 l 0.426,0.243 0.426,-0.243 c 0.75,-0.402 3.439,-1.74 6.055,-1.74 0.667,0 1.288,0.088 1.842,0.262 l 0.553,0.175 c 0,0 -0.004,-1.857 -0.01,-2.932 -0.016,-3.254 -0.044,-8.7 0.009,-10.373 z"
         id="path60" />
      <linearGradient
         id="linearGradient2914"
         gradientUnits="userSpaceOnUse"
         x1="9.3256998"
         y1="23.721701"
         x2="0.87550002"
         y2="23.721701">
        <stop
           offset="0"
           style="stop-color:#F4EA4C"
           id="stop2916" />
        <stop
           offset="0.3812"
           style="stop-color:#9C9329"
           id="stop2918" />
        <stop
           offset="1"
           style="stop-color:#F2E627"
           id="stop2920" />
      </linearGradient>
      <path
         style="fill:url(#SVGID_1_)"
         d="m 9.326,31.248 c 0,0 -4.757,-2.794 -8.45,-1.634 0,-1.729 0.071,-10.509 0,-12.737 2.982,-2.201 8.45,1.634 8.45,1.634 v 12.737 z"
         id="path69" />
      <linearGradient
         id="linearGradient2923"
         gradientUnits="userSpaceOnUse"
         x1="9.3256998"
         y1="23.721701"
         x2="17.7754"
         y2="23.721701">
        <stop
           offset="0"
           style="stop-color:#F4EA4C"
           id="stop2925" />
        <stop
           offset="0.3812"
           style="stop-color:#9C9329"
           id="stop2927" />
        <stop
           offset="1"
           style="stop-color:#F2E627"
           id="stop2929" />
      </linearGradient>
      <path
         style="fill:url(#SVGID_2_)"
         d="m 9.326,31.248 c 0,0 4.757,-2.794 8.45,-1.634 0,-1.729 -0.07,-10.509 0,-12.737 -2.983,-2.201 -8.45,1.634 -8.45,1.634 v 12.737 z"
         id="path78" />
      <line
         style="fill:none;stroke:#000000;stroke-width:0.5;stroke-miterlimit:10"
         stroke-miterlimit="10"
         x1="9.3260002"
         y1="18.120001"
         x2="9.3260002"
         y2="31.469999"
         id="line80" />
    </g>
  </g>
</svg>
