<?xml version="1.0" encoding="utf-8"?>
<!-- Generator: Adobe Illustrator 14.0.0, SVG Export Plug-In . SVG Version: 6.00 Build 43363)  -->
<!DOCTYPE svg PUBLIC "-//W3C//DTD SVG 1.1//EN" "http://www.w3.org/Graphics/SVG/1.1/DTD/svg11.dtd">
<svg version="1.1" id="Layer_1" xmlns="http://www.w3.org/2000/svg" xmlns:xlink="http://www.w3.org/1999/xlink" x="0px" y="0px"
	 width="32px" height="32px" viewBox="0 0 32 32" enable-background="new 0 0 32 32" xml:space="preserve">
<g>
	<g>
		<g>
			<path d="M21.993,7.372V7.355c0-0.032-0.008-0.063-0.012-0.096c-0.002-0.009,0.002-0.017,0-0.024c0-0.006-0.004-0.01-0.004-0.017
				c-0.006-0.021-0.012-0.042-0.018-0.063c-0.004-0.011-0.002-0.022-0.006-0.034c-0.006-0.017-0.018-0.029-0.023-0.045
				c-0.01-0.019-0.017-0.036-0.025-0.054c-0.008-0.014-0.016-0.022-0.022-0.034c-0.017-0.026-0.032-0.054-0.053-0.077
				c-0.017-0.02-0.037-0.036-0.058-0.054c-0.013-0.012-0.022-0.024-0.035-0.035c-0.049-0.038-0.1-0.067-0.155-0.092
				c-0.013-0.006-0.022-0.015-0.038-0.02c-0.07-0.026-0.146-0.043-0.223-0.045l-10.094-3.58c-0.075-0.025-0.152-0.04-0.23-0.04
				s-0.156,0.015-0.229,0.04L0.678,6.668c-0.011,0-0.021,0.004-0.029,0.004c-0.05,0.003-0.1,0.01-0.146,0.022
				C0.43,6.716,0.357,6.747,0.294,6.791C0.292,6.792,0.291,6.793,0.29,6.794C0.237,6.831,0.193,6.875,0.154,6.923
				c-0.007,0.011-0.013,0.021-0.021,0.03C0.102,7,0.074,7.049,0.054,7.102C0.05,7.108,0.045,7.113,0.043,7.12
				c-0.002,0.005,0,0.011-0.002,0.015c-0.024,0.07-0.042,0.144-0.042,0.221V20.7c0,0.291,0.184,0.551,0.458,0.647l10.312,3.659
				c0.003,0.002,0.008,0.001,0.012,0.003c0.07,0.023,0.144,0.037,0.218,0.037s0.147-0.014,0.218-0.037
				c0.004-0.002,0.009-0.001,0.013-0.003l10.309-3.659c0.274-0.098,0.457-0.356,0.457-0.647V7.391
				C21.993,7.384,21.993,7.378,21.993,7.372z"/>
			<polygon id="polygon5202_1_" fill="#AB3E25" points="0.688,7.355 10.998,11.013 10.998,24.359 0.688,20.7 			"/>
			<polygon id="polygon5204_1_" fill="#E9B7AF" points="21.306,7.355 10.998,11.013 10.998,24.359 21.306,20.7 			"/>
			<polygon id="polygon5206_1_" fill="#DF8178" points="21.203,7.355 10.998,3.735 0.795,7.355 0.688,7.355 0.735,7.373 
				0.688,7.394 0.795,7.394 10.998,11.013 21.203,7.394 21.306,7.394 21.256,7.373 21.306,7.355 			"/>
			
				<linearGradient id="polygon6538_2_" gradientUnits="userSpaceOnUse" x1="2051.1143" y1="2880.3506" x2="2063.5178" y2="2868.0613" gradientTransform="matrix(0.5772 0 0 0.5772 -1183.6444 -1641.2103)">
				<stop  offset="0" style="stop-color:#3A1914"/>
				<stop  offset="1" style="stop-color:#AB3E25;stop-opacity:0"/>
			</linearGradient>
			<polygon id="polygon6538_1_" fill="url(#polygon6538_2_)" points="1.075,7.902 10.638,11.292 10.638,23.662 1.075,20.271 			"/>
			
				<linearGradient id="polygon6548_2_" gradientUnits="userSpaceOnUse" x1="2162.3408" y1="2988.4932" x2="2148.2473" y2="2973.3201" gradientTransform="matrix(0.5627 0 0 0.5627 -1194.7811 -1659.3383)">
				<stop  offset="0" style="stop-color:#FEF1ED"/>
				<stop  offset="1" style="stop-color:#E9B7AF;stop-opacity:0"/>
			</linearGradient>
			<polygon id="polygon6548_1_" fill="url(#polygon6548_2_)" points="20.615,8.131 11.295,11.435 11.295,23.495 20.615,20.191 			
				"/>
			
				<linearGradient id="path6572_2_" gradientUnits="userSpaceOnUse" x1="-4550.0605" y1="-3847.4629" x2="-4566.1069" y2="-3847.5037" gradientTransform="matrix(0 -0.6226 -0.6226 0 -2384.5354 -2820.9209)">
				<stop  offset="0" style="stop-color:#FFFFFF"/>
				<stop  offset="1" style="stop-color:#FFFFFF;stop-opacity:0"/>
			</linearGradient>
			<path id="path6572_1_" fill="url(#path6572_2_)" d="M10.306,10.869l0.56,13.24h-0.011l0.625-13.427L10.306,10.869L10.306,10.869z
				"/>
			
				<linearGradient id="path6582_2_" gradientUnits="userSpaceOnUse" x1="-1934.2041" y1="3220.0557" x2="-1947.8738" y2="3220.0491" gradientTransform="matrix(-0.5857 0.2112 0.2112 0.5857 -1801.3838 -1466.6509)">
				<stop  offset="0" style="stop-color:#FFFFFF"/>
				<stop  offset="1" style="stop-color:#FFFFFF;stop-opacity:0"/>
			</linearGradient>
			<path id="path6582_1_" fill="url(#path6582_2_)" d="M11.033,11.644l10.274-4.289l-10.849,3.25L11.033,11.644z"/>
			
				<linearGradient id="path6586_2_" gradientUnits="userSpaceOnUse" x1="2985.46" y1="1445.9355" x2="2972.3037" y2="1445.9237" gradientTransform="matrix(0.5857 0.2112 -0.2112 0.5857 -1433.1641 -1466.6812)">
				<stop  offset="0" style="stop-color:#FFFFFF"/>
				<stop  offset="1" style="stop-color:#FFFFFF;stop-opacity:0"/>
			</linearGradient>
			<path id="path6586_1_" fill="url(#path6586_2_)" d="M10.711,11.598L0.689,7.354l10.599,3.209L10.711,11.598z"/>
		</g>
	</g>
	<path fill="#FFFFFF" d="M21.995,20.7V20.27c-1.63,0.096-3.864,0.33-4.369,0.905c-0.098,0.111-0.479,0.277-1.124,0.277
		c-0.134,0-0.268-0.007-0.398-0.021c-0.035-0.005-0.069-0.007-0.104-0.007s-0.068,0.002-0.104,0.007
		c-0.131,0.014-0.266,0.021-0.399,0.021c-0.646,0-1.025-0.166-1.125-0.278c-0.729-0.831-5.118-0.951-5.991-0.968l-0.444-0.015
		c0.187-0.244,0.361-0.584,0.339-0.984c-0.092-1.45-2.304-3.448-3.903-3.448c-0.001,0-0.002,0-0.002,0
		c-0.453,0.021-1.769,0.085-4.368,4.144V20.7c0,0.291,0.184,0.551,0.458,0.647l10.312,3.659c0.003,0.002,0.008,0.001,0.012,0.003
		c0.07,0.023,0.144,0.037,0.218,0.037s0.147-0.014,0.218-0.037c0.004-0.002,0.009-0.001,0.013-0.003l10.309-3.659
		C21.812,21.251,21.995,20.991,21.995,20.7z M3.801,20.102c-0.245,0-0.479,0.002-0.698,0.006c0.589-0.698,1.028-1.094,1.262-1.241
		c0.129,0.151,0.297,0.396,0.41,0.559c0.161,0.231,0.329,0.474,0.518,0.693C4.807,20.107,4.3,20.102,3.801,20.102z"/>
	<g>
		<g>
			<path fill="#010101" d="M31.999,21.827c0,0-0.005-0.009-0.006-0.011c-0.016-0.224-0.074-0.367-0.129-0.291
				c0.003-0.051-0.047-0.096-0.12-0.135c-0.726-1.217-2.843-4.572-4.157-4.633c-0.949-0.045-2.801,1.563-2.861,2.514
				c-0.012,0.209,0.352,0.615,0.562,0.627c0.764,0.035,1.467-2.104,2.231-2.096c1.032,0.014,2.801,2.436,3.474,3.41
				c-1.987-0.242-6.761-0.018-7.354-0.007c-1.304,0.022-4.966,0.293-5.259,0.627c-0.469,0.536-1.476,0.688-2.38,0.593
				c-0.903,0.096-1.911-0.057-2.38-0.593c-0.293-0.334-3.955-0.604-5.257-0.627c-0.594-0.011-5.358-0.235-7.35,0.007
				c0.672-0.979,2.438-3.396,3.471-3.41c0.767-0.008,1.47,2.131,2.232,2.096c0.21-0.012,0.571-0.418,0.561-0.627
				c-0.062-0.951-1.911-2.559-2.861-2.514c-1.313,0.061-3.43,3.412-4.156,4.629c-0.075,0.041-0.128,0.088-0.125,0.139
				c-0.056-0.077-0.112,0.07-0.13,0.3l-0.001,0.002h0.001c-0.012,0.171,0,0.385,0.061,0.584c0.351,0.256,0.836,0.172,1.069,0.771
				c0.374,0.942,0.142,3.813,1.677,4.813c0.84,0.547,2.535,0.933,4.467,0.955c1.162,0.015,4.848,0.029,5.932-1.188
				c0.734-0.825,1.161-3.797,2.708-3.731c0.005,0,0.011-0.002,0.016-0.002c0.023,0.002,0.045,0.002,0.067,0.004h0.001
				c0.024-0.002,0.045-0.002,0.069-0.004c0.005,0,0.009,0.002,0.013,0.002c1.548-0.063,1.975,2.906,2.71,3.731
				c1.084,1.22,4.771,1.201,5.933,1.188c1.93-0.022,3.627-0.408,4.465-0.955c1.535-1,1.305-3.869,1.678-4.813
				c0.232-0.599,0.721-0.515,1.068-0.771c0.061-0.2,0.07-0.414,0.061-0.585L31.999,21.827z M13.124,26.012
				c-0.438,0.897-1.063,1.453-1.969,1.813c-0.314,0.126-2.066,0.243-4.125,0.155c-2.949-0.125-3.508-0.742-4-1.438
				c-0.594-0.838-0.817-3.683-0.469-4.188c0.47-0.683,5.511-0.438,6.279-0.438c0.983,0,4.303,0.449,4.563,0.938
				C13.772,23.543,13.706,24.823,13.124,26.012z M28.97,26.542c-0.492,0.694-1.051,1.313-4,1.438
				c-2.059,0.088-3.811-0.029-4.125-0.156c-0.904-0.359-1.527-0.914-1.969-1.813c-0.582-1.188-0.65-2.469-0.281-3.155
				c0.262-0.487,3.578-0.938,4.563-0.938c0.771,0,5.812-0.245,6.28,0.438C29.786,22.859,29.562,25.704,28.97,26.542z"/>
			
				<linearGradient id="SVGID_1_" gradientUnits="userSpaceOnUse" x1="351.0156" y1="-1267.9902" x2="362.252" y2="-1267.9902" gradientTransform="matrix(1 0 0 -1 -332.6504 -1243.0488)">
				<stop  offset="0" style="stop-color:#B2D3DC"/>
				<stop  offset="1" style="stop-color:#157DA0"/>
			</linearGradient>
			<path fill="url(#SVGID_1_)" d="M23.157,21.917c-0.984,0-4.301,0.449-4.563,0.938c-0.369,0.688-0.304,1.969,0.278,3.154
				c0.438,0.897,1.063,1.453,1.972,1.813c0.313,0.127,2.063,0.243,4.125,0.155c2.946-0.125,3.506-0.742,4-1.438
				c0.592-0.838,0.813-3.682,0.469-4.188C28.968,21.672,23.927,21.917,23.157,21.917z"/>
			
				<linearGradient id="SVGID_2_" gradientUnits="userSpaceOnUse" x1="335.002" y1="-1267.9902" x2="346.2393" y2="-1267.9902" gradientTransform="matrix(1 0 0 -1 -332.6504 -1243.0488)">
				<stop  offset="0" style="stop-color:#B2D3DC"/>
				<stop  offset="1" style="stop-color:#157DA0"/>
			</linearGradient>
			<path fill="url(#SVGID_2_)" d="M8.797,21.917c0.984,0,4.303,0.449,4.563,0.938c0.369,0.688,0.301,1.969-0.281,3.154
				c-0.438,0.897-1.063,1.453-1.969,1.813c-0.314,0.127-2.066,0.243-4.125,0.155c-2.949-0.125-3.506-0.742-4-1.438
				c-0.592-0.838-0.816-3.682-0.469-4.188C2.985,21.672,8.026,21.917,8.797,21.917z"/>
		</g>
	</g>
</g>
</svg>
