<?xml version="1.0" encoding="utf-8"?>
<!-- Generator: Adobe Illustrator 14.0.0, SVG Export Plug-In . SVG Version: 6.00 Build 43363)  -->
<!DOCTYPE svg PUBLIC "-//W3C//DTD SVG 1.1//EN" "http://www.w3.org/Graphics/SVG/1.1/DTD/svg11.dtd">
<svg version="1.1" id="Layer_1" xmlns="http://www.w3.org/2000/svg" xmlns:xlink="http://www.w3.org/1999/xlink" x="0px" y="0px"
	 width="32px" height="32px" viewBox="0 0 32 32" enable-background="new 0 0 32 32" xml:space="preserve">
<g>
	<g>
		<path id="path4251_12_" fill="#030303" d="M22.25,28c-0.658,0-1.25-0.391-1.506-0.996l-0.475-1.111
			c-0.088,0.004-0.297,0.006-0.311,0.006l-0.453,1.117c-0.039,0.092-0.096,0.18-0.166,0.252l-0.459,0.467
			c-0.146,0.148-0.344,0.232-0.551,0.234c0,0-0.652,0.008-0.656,0.008c-0.1,0-0.201-0.02-0.293-0.057l-3.712-1.504
			c-0.621-0.252-1.022-0.848-1.022-1.518c0-0.217,0.044-0.424,0.124-0.619l0.457-1.133c-0.07-0.068-0.142-0.137-0.212-0.207
			l-0.77,0.328c-0.442,0.186-0.442,0.186-0.534,0.203c-0.045,0.01-0.089,0.016-0.139,0.016l-0.648,0.002
			c-0.205,0-0.4-0.082-0.546-0.225l-0.466-0.453c-0.074-0.074-0.133-0.158-0.173-0.254l-1.562-3.688
			c-0.04-0.096-0.061-0.197-0.063-0.301l-0.001-0.652c-0.001-0.207,0.081-0.406,0.225-0.553l0.455-0.465
			c0.072-0.072,0.158-0.131,0.252-0.174l1.1-0.465c-0.004-0.082-0.006-0.297-0.006-0.326c-0.499-0.199-1.038-0.42-1.096-0.441
			c-0.098-0.037-0.188-0.096-0.266-0.172l-0.46-0.455c-0.147-0.145-0.231-0.344-0.234-0.547l-0.004-0.652
			c-0.001-0.105,0.019-0.207,0.057-0.303L9.641,9.65c0.038-0.094,0.095-0.179,0.167-0.254l0.456-0.466
			c0.147-0.146,0.343-0.232,0.552-0.234c0,0,0.657-0.007,0.661-0.007c0.101,0,0.202,0.02,0.295,0.058l1.139,0.462
			c0.067-0.07,0.136-0.141,0.207-0.209c0,0-0.495-1.173-0.497-1.175c-0.031-0.083-0.048-0.173-0.048-0.263V7.508
			c-0.214-0.305-0.189-0.727,0.081-1l0.6-0.609c0.073-0.073,0.155-0.131,0.25-0.172l3.687-1.563
			c0.207-0.084,0.416-0.127,0.637-0.127c0.658,0,1.252,0.391,1.506,0.998l0.473,1.107c0.082-0.001,0.293-0.002,0.314-0.002
			l0.451-1.12C20.822,4.4,21.42,4,22.088,4c0.209,0,0.412,0.04,0.605,0.118l3.715,1.505c0.619,0.254,1.018,0.849,1.018,1.517
			c0,0.206-0.039,0.41-0.115,0.607l-0.465,1.146c0.07,0.068,0.141,0.137,0.209,0.207l1.133-0.479
			c0.096-0.041,0.195-0.063,0.301-0.063c0,0,0.654-0.006,0.656-0.006c0.207,0,0.402,0.08,0.547,0.224L30.16,9.23
			c0.072,0.073,0.133,0.158,0.172,0.254l1.563,3.689c0.043,0.096,0.063,0.199,0.064,0.301l0.002,0.65
			c0,0.207-0.08,0.404-0.225,0.553l-0.455,0.463c-0.074,0.074-0.158,0.133-0.252,0.174l-1.1,0.465
			c0.006,0.082,0.006,0.299,0.006,0.324l1.098,0.447c0.096,0.037,0.18,0.094,0.252,0.164l0.469,0.455
			c0.148,0.148,0.234,0.344,0.238,0.553L32,18.375c0,0.104-0.02,0.207-0.057,0.303l-1.502,3.713c-0.258,0.621-0.852,1.02-1.518,1.02
			c-0.211,0-0.412-0.039-0.605-0.117l-1.145-0.463c-0.07,0.07-0.141,0.143-0.211,0.211c0.238,0.557,0.492,1.156,0.506,1.197
			c0.025,0.078,0.041,0.16,0.041,0.244l0.002,0.643c0,0.205-0.082,0.402-0.225,0.547l-0.457,0.469
			c-0.07,0.074-0.158,0.133-0.254,0.174l-3.686,1.564C22.682,27.959,22.467,28,22.25,28L22.25,28z M17.48,25.197
			c0.211-0.512,0.586-1.441,0.586-1.441c0.121-0.301,0.408-0.492,0.725-0.492c0.027,0,0.057,0.002,0.084,0.006l0.371,0.039
			c0.268,0.029,0.533,0.043,0.797,0.043c0.301,0,0.604-0.016,0.896-0.055l0.377-0.047c0.033-0.006,0.063-0.008,0.094-0.008
			c0.311,0,0.6,0.188,0.721,0.479l0.605,1.434c0.584-0.246,1.398-0.594,1.984-0.84l-0.607-1.432
			c-0.137-0.322-0.045-0.697,0.229-0.916l0.295-0.234c0.439-0.354,0.838-0.76,1.188-1.209l0.229-0.293
			c0.15-0.197,0.381-0.305,0.619-0.305c0.098,0,0.197,0.018,0.293,0.057l1.447,0.584c0.166-0.408,0.807-1.998,0.807-1.998
			l-1.445-0.584c-0.322-0.131-0.521-0.461-0.482-0.809l0.041-0.371c0.029-0.268,0.045-0.525,0.045-0.785
			c0-0.313-0.021-0.617-0.057-0.904l-0.049-0.369c-0.051-0.35,0.146-0.688,0.471-0.822l1.436-0.609l-0.84-1.985
			c-0.631,0.268-1.436,0.608-1.436,0.608c-0.098,0.041-0.201,0.061-0.305,0.061c-0.232,0-0.459-0.104-0.611-0.293l-0.232-0.291
			c-0.354-0.439-0.762-0.839-1.207-1.187L24.25,9.999c-0.275-0.214-0.375-0.587-0.244-0.913l0.586-1.443l-1.998-0.809
			c-0.256,0.637-0.584,1.444-0.584,1.444c-0.119,0.298-0.408,0.489-0.727,0.489c-0.025,0-0.053-0.002-0.082-0.004l-0.375-0.039
			c-0.266-0.03-0.527-0.045-0.795-0.045c-0.299,0-0.604,0.018-0.9,0.055l-0.363,0.048c-0.035,0.005-0.068,0.007-0.102,0.007
			c-0.311,0-0.598-0.186-0.721-0.478l-0.607-1.433c-0.586,0.248-1.4,0.594-1.983,0.84l0.606,1.436
			c0.138,0.322,0.043,0.697-0.231,0.916l-0.293,0.234c-0.44,0.351-0.837,0.758-1.188,1.203l-0.226,0.293
			c-0.151,0.195-0.382,0.305-0.619,0.305c-0.099,0-0.199-0.02-0.293-0.057c0,0-0.803-0.326-1.444-0.585c0,0-0.619,1.528-0.808,1.997
			c0.635,0.256,1.442,0.584,1.442,0.584c0.326,0.131,0.523,0.461,0.485,0.811l-0.042,0.373c-0.027,0.26-0.043,0.523-0.043,0.785
			c0,0.299,0.017,0.604,0.055,0.91l0.047,0.373c0.043,0.346-0.15,0.68-0.472,0.816c0,0-0.798,0.338-1.432,0.604
			c0.247,0.586,0.593,1.4,0.841,1.984c0.628-0.268,1.43-0.609,1.43-0.609c0.1-0.043,0.206-0.063,0.308-0.063
			c0.232,0,0.46,0.104,0.611,0.293l0.235,0.293c0.353,0.441,0.758,0.84,1.201,1.186l0.297,0.229
			c0.277,0.213,0.378,0.588,0.247,0.914l-0.585,1.447L17.48,25.197z"/>
		<path id="path1817_17_" fill="#FFFFFF" d="M27.424,14.014c0.115,0.754,0.129,1.529,0.018,2.307l0.842,0.342
			c0.051-0.658,0.029-1.314-0.07-1.953l2.17-0.922L28.82,10.1l-0.539,0.229l1.189,2.816L27.424,14.014z"/>
		<path id="path1819_17_" fill="#FFFFFF" d="M26.021,19.82c-0.459,0.635-1.008,1.188-1.615,1.645l0.865,2.053l-3.473,1.475
			l-0.867-2.049c-0.756,0.115-1.533,0.127-2.309,0.018l-0.836,2.064l-3.059-1.238l-0.442,1.092l3.708,1.504l0.889-2.189
			c0.824,0.115,1.646,0.105,2.447-0.021l0.92,2.176l3.686-1.563l-0.922-2.172c0.648-0.486,1.23-1.074,1.717-1.746l2.189,0.885
			l1.504-3.709l-1.094-0.441l-1.236,3.057L26.021,19.82z"/>
		<path id="path1821_17_" fill="#FFFFFF" d="M13.472,19.924l-2.052,0.867l-1.19-2.813l-0.542,0.23l1.561,3.686l2.173-0.922
			c0.39,0.52,0.847,0.99,1.354,1.412l0.342-0.842C14.485,21.078,13.932,20.531,13.472,19.924z"/>
		
			<linearGradient id="path1830_1_" gradientUnits="userSpaceOnUse" x1="-709.2017" y1="99.6152" x2="-708.2082" y2="99.6152" gradientTransform="matrix(5.1929 22.7877 -22.7877 5.1929 5970.7056 15650.6426)">
			<stop  offset="0" style="stop-color:#FFF3E0"/>
			<stop  offset="0.5394" style="stop-color:#FAD79F"/>
			<stop  offset="1" style="stop-color:#A25424"/>
		</linearGradient>
		<path id="path1830_17_" fill="url(#path1830_1_)" d="M11.843,14.842c-0.082,0.566-0.098,1.137-0.06,1.697
			c0.016,0.248,0.04,0.502,0.08,0.75l-1.63,0.689l1.19,2.814l2.052-0.867c0.458,0.607,1.012,1.156,1.646,1.617l-0.342,0.842
			c0.128,0.105,0.257,0.211,0.39,0.307l-0.441,1.096l3.057,1.238l0.836-2.064c0.777,0.107,1.553,0.098,2.311-0.02l0.867,2.051
			l3.475-1.475l-0.869-2.053c0.611-0.457,1.158-1.01,1.619-1.645l2.066,0.836l1.236-3.059l-1.094-0.439
			c0.025-0.166,0.039-0.33,0.051-0.494l-0.84-0.344c0.111-0.777,0.098-1.553-0.018-2.307l2.051-0.869l-1.191-2.814l-1.631,0.694
			c-0.148-0.202-0.314-0.394-0.482-0.579c-0.377-0.416-0.799-0.799-1.258-1.137l0.885-2.19l-3.709-1.503l-0.891,2.19
			C20.371,7.688,19.549,7.7,18.75,7.823l-0.924-2.174l-0.105,0.045l-3.474,1.472l-0.105,0.045l0.923,2.174
			c-0.649,0.486-1.229,1.072-1.715,1.745l-2.192-0.886l-1.238,3.057l-0.264,0.652L11.843,14.842z M18.809,19.031
			c-1.215-0.492-1.972-1.635-2.036-2.863c-0.024-0.463,0.045-0.938,0.233-1.4c0.676-1.672,2.584-2.48,4.258-1.801
			c0.459,0.182,0.852,0.465,1.162,0.803c0.84,0.9,1.133,2.24,0.641,3.455C22.393,18.9,20.484,19.707,18.809,19.031z"/>
		<path id="path4266_12_" fill="#030303" d="M23.416,17.357c0.75-1.854-0.148-3.971-2.004-4.721
			c-1.852-0.75-3.969,0.146-4.719,2.002c-0.75,1.85,0.147,3.971,2.002,4.721C20.547,20.109,22.666,19.211,23.416,17.357z
			 M22.762,17.092c-0.604,1.492-2.309,2.211-3.799,1.611c-1.492-0.604-2.213-2.309-1.611-3.799c0.604-1.492,2.309-2.215,3.799-1.611
			C22.643,13.896,23.363,15.602,22.762,17.092z"/>
		<path id="path1834_21_" fill="#F9A720" d="M23.4,17.359c0.75-1.854-0.148-3.971-2.004-4.721c-1.854-0.751-3.969,0.146-4.72,2
			c-0.75,1.852,0.147,3.971,2.001,4.721C20.531,20.109,22.648,19.211,23.4,17.359z M22.742,17.094
			c-0.604,1.492-2.307,2.209-3.799,1.607s-2.213-2.309-1.609-3.799c0.604-1.49,2.307-2.213,3.797-1.609S23.344,15.604,22.742,17.094
			z"/>
		<path id="path1838_17_" fill="#F9A720" d="M22.6,27.15l3.686-1.563l0.457-0.469l-0.004-0.641c0-0.006-0.465-1.096-0.697-1.645
			c0.332-0.291,0.639-0.604,0.93-0.941c0.434,0.176,1.646,0.668,1.646,0.668c0.434,0.174,0.93-0.039,1.107-0.471l1.502-3.713
			l-0.008-0.652L30.75,17.27c0,0-1.066-0.436-1.619-0.656c0.014-0.201,0.033-0.398,0.033-0.594c0-0.25-0.023-0.498-0.049-0.746
			c0.445-0.189,1.615-0.686,1.615-0.686l0.457-0.465l-0.002-0.648l-1.564-3.689L29.156,9.33l-0.652,0.004
			c0,0-1.205,0.511-1.637,0.695c-0.293-0.334-0.605-0.645-0.941-0.93c0.176-0.434,0.666-1.647,0.666-1.647
			c0.045-0.104,0.063-0.212,0.063-0.317c0-0.337-0.201-0.656-0.527-0.791L22.412,4.84c-0.434-0.174-0.93,0.035-1.107,0.471
			c0,0-0.432,1.07-0.658,1.627c-0.443-0.031-0.893-0.022-1.34,0.013c-0.188-0.448-0.686-1.614-0.686-1.614
			c-0.18-0.432-0.68-0.636-1.115-0.456l-3.683,1.563l-0.456,0.463l-0.142,0.145l0.139-0.143l0.004,0.646
			c0.001,0.005,0.466,1.099,0.695,1.644c-0.329,0.288-0.64,0.604-0.926,0.941c-0.436-0.176-1.647-0.668-1.647-0.668l-0.653,0.006
			l-0.456,0.465l-1.502,3.713l0.006,0.652l0.462,0.455c0.001,0,1.071,0.434,1.626,0.656c-0.014,0.197-0.032,0.398-0.032,0.596
			c0,0.25,0.026,0.496,0.047,0.746c-0.449,0.191-1.615,0.686-1.615,0.686l-0.457,0.463l0.005,0.65l1.562,3.688l0.463,0.455h0.649
			c0.003-0.004,1.094-0.469,1.642-0.699c0.292,0.334,0.606,0.643,0.941,0.928c-0.175,0.436-0.668,1.648-0.668,1.648
			c-0.045,0.104-0.061,0.211-0.061,0.316c0,0.338,0.2,0.658,0.53,0.793l3.71,1.504l0.648-0.008l0.463-0.467
			c0,0,0.473-1.168,0.656-1.621c0.451,0.029,0.896,0.023,1.338-0.014c0.191,0.449,0.688,1.613,0.688,1.613
			C21.666,27.129,22.166,27.332,22.6,27.15z M18.67,24.395c0,0-0.645,1.594-0.736,1.82c-0.238-0.096-3.214-1.301-3.447-1.395
			c0.135-0.334,0.879-2.17,0.879-2.17l-0.298-0.229c-0.491-0.381-0.94-0.822-1.334-1.314l-0.235-0.295c0,0-1.927,0.82-2.155,0.916
			c-0.096-0.229-1.35-3.191-1.45-3.426c0.334-0.143,2.155-0.912,2.155-0.912L12,17.018c-0.042-0.332-0.061-0.668-0.061-1.004
			c0-0.291,0.017-0.58,0.048-0.869l0.042-0.373c0,0-1.94-0.787-2.168-0.881c0.098-0.236,1.299-3.211,1.396-3.443
			c0.337,0.135,2.167,0.877,2.167,0.877l0.229-0.297c0.387-0.497,0.829-0.944,1.315-1.334l0.293-0.234c0,0-0.819-1.932-0.914-2.156
			c0.22-0.092,3.19-1.351,3.426-1.45c0.141,0.333,0.912,2.154,0.912,2.154l0.373-0.048c0.625-0.076,1.256-0.082,1.873-0.014
			l0.375,0.039c0,0,0.785-1.94,0.875-2.168c0.238,0.094,3.215,1.301,3.449,1.395C25.494,7.545,24.75,9.38,24.75,9.38l0.299,0.229
			c0.488,0.382,0.938,0.825,1.334,1.316l0.234,0.289c0,0,1.928-0.815,2.156-0.912c0.1,0.24,1.354,3.193,1.451,3.426
			c-0.318,0.135-2.158,0.914-2.158,0.914l0.049,0.371c0.045,0.332,0.063,0.668,0.063,1.006c0,0.287-0.016,0.576-0.049,0.865
			l-0.037,0.373c0,0,1.939,0.785,2.166,0.877c-0.096,0.24-1.299,3.215-1.395,3.447c-0.229-0.09-2.168-0.877-2.168-0.877l-0.23,0.297
			c-0.387,0.496-0.828,0.947-1.314,1.334l-0.293,0.236c0,0,0.814,1.928,0.912,2.152c-0.232,0.098-3.188,1.354-3.424,1.451
			c-0.141-0.33-0.912-2.154-0.912-2.154l-0.373,0.047c-0.615,0.08-1.244,0.084-1.873,0.016l-0.375-0.043L18.67,24.395L18.67,24.395z
			"/>
	</g>
	<g>
		<g>
			<path fill="#010101" d="M32,10.973c0,0-0.006-0.008-0.006-0.01c-0.016-0.223-0.074-0.367-0.129-0.291
				c0.002-0.051-0.047-0.096-0.121-0.135c-0.725-1.217-2.842-4.572-4.156-4.633c-0.949-0.045-2.801,1.563-2.861,2.514
				c-0.012,0.209,0.35,0.615,0.561,0.627c0.764,0.035,1.467-2.104,2.232-2.096c1.031,0.014,2.801,2.436,3.473,3.41
				c-1.988-0.242-6.76-0.018-7.354-0.006c-1.305,0.021-4.967,0.293-5.26,0.627c-0.469,0.535-1.475,0.688-2.379,0.592
				c-0.904,0.096-1.911-0.057-2.38-0.592c-0.293-0.334-3.955-0.604-5.257-0.627c-0.594-0.012-5.358-0.236-7.35,0.006
				c0.672-0.977,2.438-3.396,3.471-3.41C5.25,6.941,5.954,9.08,6.717,9.045c0.21-0.012,0.571-0.418,0.56-0.627
				C7.216,7.467,5.366,5.859,4.416,5.904c-1.314,0.061-3.43,3.412-4.156,4.629c-0.076,0.041-0.128,0.088-0.125,0.139
				c-0.056-0.078-0.113,0.07-0.13,0.299l-0.001,0.002h0.001c-0.012,0.172,0,0.385,0.06,0.584c0.351,0.256,0.836,0.172,1.07,0.77
				c0.374,0.943,0.141,3.813,1.676,4.813c0.84,0.547,2.535,0.934,4.467,0.955c1.162,0.016,4.848,0.031,5.932-1.188
				c0.734-0.826,1.161-3.797,2.708-3.732c0.005,0,0.01-0.002,0.015-0.002c0.024,0.002,0.045,0.002,0.068,0.004H16
				c0.024-0.002,0.045-0.002,0.069-0.004c0.005,0,0.009,0.002,0.013,0.002c1.548-0.064,1.974,2.906,2.71,3.732
				c1.084,1.219,4.77,1.201,5.932,1.188c1.93-0.021,3.627-0.408,4.465-0.955c1.535-1,1.305-3.869,1.678-4.813
				c0.232-0.598,0.721-0.514,1.068-0.77c0.061-0.199,0.07-0.414,0.061-0.584H32z M13.125,15.158
				c-0.439,0.896-1.064,1.453-1.969,1.813c-0.314,0.127-2.066,0.244-4.125,0.156c-2.949-0.125-3.508-0.742-4-1.439
				C2.437,14.85,2.213,12.006,2.562,11.5c0.47-0.682,5.511-0.438,6.28-0.438c0.983,0,4.302,0.449,4.563,0.938
				C13.773,12.689,13.707,13.969,13.125,15.158z M28.971,15.688c-0.492,0.695-1.051,1.314-4,1.439
				c-2.059,0.088-3.811-0.029-4.125-0.156c-0.904-0.359-1.527-0.914-1.969-1.814c-0.582-1.188-0.65-2.469-0.281-3.154
				c0.262-0.488,3.578-0.939,4.563-0.939c0.771,0,5.813-0.244,6.281,0.439C29.787,12.006,29.563,14.85,28.971,15.688z"/>
			
				<linearGradient id="SVGID_1_" gradientUnits="userSpaceOnUse" x1="69.4775" y1="884.2969" x2="80.7139" y2="884.2969" gradientTransform="matrix(1 0 0 1 -51.1104 -870.209)">
				<stop  offset="0" style="stop-color:#B2D3DC"/>
				<stop  offset="1" style="stop-color:#157DA0"/>
			</linearGradient>
			<path fill="url(#SVGID_1_)" d="M23.158,11.063c-0.984,0-4.301,0.449-4.563,0.939c-0.369,0.688-0.303,1.969,0.279,3.154
				c0.438,0.898,1.063,1.453,1.971,1.814c0.313,0.127,2.064,0.244,4.125,0.156c2.947-0.125,3.506-0.742,4-1.439
				c0.592-0.838,0.814-3.682,0.469-4.188C28.969,10.818,23.928,11.063,23.158,11.063z"/>
			
				<linearGradient id="SVGID_2_" gradientUnits="userSpaceOnUse" x1="53.4629" y1="884.2969" x2="64.7002" y2="884.2969" gradientTransform="matrix(1 0 0 1 -51.1104 -870.209)">
				<stop  offset="0" style="stop-color:#B2D3DC"/>
				<stop  offset="1" style="stop-color:#157DA0"/>
			</linearGradient>
			<path fill="url(#SVGID_2_)" d="M8.797,11.063c0.984,0,4.302,0.449,4.563,0.939c0.369,0.688,0.301,1.969-0.281,3.154
				c-0.439,0.898-1.064,1.453-1.969,1.814c-0.314,0.127-2.066,0.244-4.125,0.156c-2.949-0.125-3.506-0.742-4-1.439
				C2.394,14.85,2.169,12.006,2.517,11.5C2.986,10.818,8.027,11.063,8.797,11.063z"/>
		</g>
	</g>
</g>
</svg>
