<?xml version="1.0" encoding="utf-8"?>
<!-- Generator: Adobe Illustrator 14.0.0, SVG Export Plug-In . SVG Version: 6.00 Build 43363)  -->
<!DOCTYPE svg PUBLIC "-//W3C//DTD SVG 1.1//EN" "http://www.w3.org/Graphics/SVG/1.1/DTD/svg11.dtd">
<svg version="1.1" id="Layer_1" xmlns="http://www.w3.org/2000/svg" xmlns:xlink="http://www.w3.org/1999/xlink" x="0px" y="0px"
	 width="32px" height="32px" viewBox="0 0 32 32" enable-background="new 0 0 32 32" xml:space="preserve">
<g>
	<path fill="#010101" d="M8.572,32c-0.552,0-1-0.447-1-1V1c0-0.552,0.448-1,1-1H31c0.553,0,1,0.448,1,1v22.684
		c0,0.269-0.104,0.521-0.293,0.707l-7.314,7.316C24.204,31.895,23.951,32,23.686,32H8.572z"/>
	<path fill="#03ADDB" d="M31,23.684V1H8.572v30h15.114L31,23.684z M29.463,1.977c0.487,0,0.883,0.396,0.883,0.882
		c0,0.487-0.396,0.882-0.883,0.882c-0.486,0-0.881-0.395-0.881-0.882C28.582,2.372,28.977,1.977,29.463,1.977z M26.549,1.977
		c0.485,0,0.881,0.396,0.881,0.882c0,0.487-0.396,0.882-0.881,0.882c-0.488,0-0.885-0.395-0.885-0.882
		C25.664,2.372,26.061,1.977,26.549,1.977z M10.604,3.741c-0.487,0-0.883-0.396-0.883-0.882c0-0.487,0.396-0.883,0.883-0.883
		s0.882,0.396,0.882,0.883C11.486,3.346,11.09,3.741,10.604,3.741z M13.793,3.741c-0.488,0-0.884-0.396-0.884-0.882
		c0-0.487,0.396-0.883,0.884-0.883c0.486,0,0.881,0.396,0.881,0.883C14.674,3.346,14.279,3.741,13.793,3.741z M16.98,3.741
		c-0.486,0-0.881-0.396-0.881-0.882c0-0.487,0.395-0.883,0.881-0.883s0.883,0.396,0.883,0.883
		C17.861,3.346,17.467,3.741,16.98,3.741z M20.17,3.741c-0.488,0-0.883-0.396-0.883-0.882c0-0.487,0.395-0.883,0.883-0.883
		c0.487,0,0.883,0.396,0.883,0.883C21.053,3.346,20.657,3.741,20.17,3.741z M22.477,2.858c0-0.487,0.396-0.882,0.881-0.882
		c0.49,0,0.886,0.396,0.886,0.882c0,0.487-0.396,0.882-0.886,0.882C22.87,3.741,22.477,3.346,22.477,2.858z"/>
	<polygon fill="#FFF3E1" points="29.854,23.971 29.854,4.811 9.719,4.811 9.719,29.852 23.686,29.852 	"/>
	<line fill="none" stroke="#939598" stroke-width="1.148" x1="10.862" y1="8.043" x2="28.943" y2="8.043"/>
	<line fill="none" stroke="#939598" stroke-width="1.148" x1="10.862" y1="12.29" x2="28.943" y2="12.29"/>
	<line fill="none" stroke="#939598" stroke-width="1.148" x1="10.862" y1="16.536" x2="28.943" y2="16.536"/>
	<line fill="none" stroke="#939598" stroke-width="1.148" x1="10.862" y1="20.784" x2="28.943" y2="20.784"/>
	<line fill="none" stroke="#939598" stroke-width="1.148" x1="10.862" y1="25.032" x2="26.865" y2="25.032"/>
	<path fill="#010101" d="M23.686,32c-0.129,0-0.26-0.023-0.383-0.076c-0.373-0.154-0.617-0.52-0.617-0.924v-7.316
		c0-0.553,0.447-1,1-1H31c0.404,0,0.771,0.244,0.924,0.617c0.155,0.375,0.069,0.805-0.217,1.09l-7.314,7.316
		C24.2,31.898,23.943,32,23.686,32L23.686,32z"/>
	<polygon fill="#03ADDB" points="23.686,31 31,23.684 23.686,23.684 	"/>
	
		<linearGradient id="SVGID_1_" gradientUnits="userSpaceOnUse" x1="617.3652" y1="-1125.2148" x2="621.2656" y2="-1125.2148" gradientTransform="matrix(1 0 0 -1 -592.6797 -1098.5801)">
		<stop  offset="0" style="stop-color:#B2D3DC"/>
		<stop  offset="1" style="stop-color:#157DA0"/>
	</linearGradient>
	<polygon fill="url(#SVGID_1_)" points="24.686,24.684 28.586,24.684 24.686,28.586 	"/>
</g>
<path fill="#FFFFFF" d="M32,13.047c-2.598-4.056-3.919-4.121-4.452-4.144c-1.512,0-3.726,1.998-3.82,3.462
	c-0.021,0.401,0.171,0.747,0.342,0.974l-0.448,0.015c-0.873,0.016-5.263,0.134-5.995,0.969c-0.097,0.111-0.478,0.276-1.126,0.276
	c-0.133,0-0.267-0.007-0.398-0.021c-0.034-0.003-0.068-0.005-0.103-0.005c-0.034,0-0.069,0.002-0.103,0.005
	c-0.131,0.014-0.265,0.021-0.398,0.021c-0.648,0-1.028-0.165-1.126-0.278c-0.731-0.833-5.119-0.952-5.99-0.967l-0.446-0.015
	c0.171-0.227,0.364-0.577,0.34-0.985c-0.03-0.48-0.307-1.018-0.703-1.526v5.207c0.25,0.005,0.483,0.011,0.676,0.016
	c0.273,0.007,0.48,0.012,0.596,0.012c0.876,0,3.046,0.331,3.745,0.589c0.1,0.417,0.053,1.218-0.362,2.065
	c-0.32,0.653-0.75,1.049-1.394,1.307c-0.158,0.041-0.977,0.132-2.376,0.132c-0.277,0-0.585-0.011-0.885-0.019v2.958l0.174,0.001
	c3.265,0,5.296-0.499,6.208-1.526c0.36-0.403,0.594-0.977,0.866-1.641c0.215-0.526,0.72-1.758,1.095-1.758
	c0,0,0.197-0.001,0.215-0.001c0.328,0,0.832,1.232,1.048,1.759c0.272,0.664,0.507,1.237,0.866,1.64
	c0.913,1.027,2.951,1.527,6.232,1.527l0.459-0.003c2.097-0.024,3.966-0.442,4.999-1.116c1.466-0.955,1.71-2.871,1.888-4.271
	c0.051-0.397,0.108-0.849,0.119-0.969c0.047-0.026,0.099-0.04,0.148-0.058c0.031-0.012,0.074-0.03,0.109-0.043V13.047z
	 M28.154,19.109c-0.315,0.446-0.643,0.908-3.227,1.018c-0.485,0.021-0.954,0.029-1.39,0.029c-1.396,0-2.212-0.09-2.323-0.115
	c-0.688-0.273-1.119-0.669-1.44-1.323c-0.416-0.849-0.462-1.649-0.362-2.063c0.699-0.259,2.871-0.59,3.747-0.59
	c0.116,0,0.324-0.005,0.597-0.012c0.491-0.012,1.205-0.031,1.961-0.031c1.759,0,2.547,0.104,2.88,0.175
	C28.664,16.952,28.448,18.694,28.154,19.109z M28.201,13.249c-0.498,0-1.003,0.006-1.487,0.015c0.186-0.219,0.354-0.461,0.515-0.692
	c0.109-0.159,0.272-0.394,0.4-0.546c0.258,0.159,0.696,0.551,1.271,1.228C28.679,13.25,28.445,13.249,28.201,13.249z"/>
<g>
	<path d="M32,14.973c0,0-0.005-0.008-0.006-0.009c-0.016-0.223-0.074-0.369-0.129-0.292c0.003-0.051-0.047-0.095-0.12-0.136
		c-0.726-1.215-2.843-4.57-4.157-4.631c-0.949-0.045-2.8,1.562-2.861,2.512c-0.011,0.209,0.351,0.618,0.561,0.628
		c0.763,0.034,1.466-2.103,2.232-2.094c1.032,0.011,2.8,2.433,3.472,3.41c-1.988-0.243-6.759-0.018-7.353-0.007
		c-1.305,0.023-4.967,0.293-5.26,0.627c-0.469,0.536-1.477,0.686-2.38,0.592c-0.904,0.094-1.911-0.056-2.38-0.592
		c-0.293-0.334-3.955-0.604-5.257-0.627c-0.594-0.011-5.356-0.236-7.348,0.006c0.672-0.978,2.438-3.398,3.471-3.409
		c0.766-0.009,1.469,2.128,2.233,2.094c0.21-0.01,0.571-0.419,0.559-0.628c-0.06-0.95-1.911-2.557-2.861-2.512
		c-1.314,0.061-3.429,3.411-4.156,4.629c-0.077,0.041-0.129,0.086-0.126,0.138c-0.098-0.137-0.209,0.419-0.07,0.885
		c0.35,0.256,0.836,0.172,1.07,0.768c0.374,0.944,0.141,3.813,1.676,4.813c0.84,0.547,2.535,0.932,4.466,0.954
		c1.163,0.015,4.848,0.031,5.932-1.188c0.735-0.825,1.161-3.797,2.708-3.733c0.005,0,0.01-0.002,0.014-0.002
		c0.025,0.002,0.045,0.002,0.069,0.004H16c0.024-0.002,0.045-0.002,0.07-0.004c0.004,0,0.008,0.002,0.012,0.002
		c1.548-0.063,1.975,2.908,2.71,3.733c1.084,1.22,4.771,1.201,5.933,1.188c1.93-0.022,3.627-0.407,4.465-0.954
		c1.535-1,1.304-3.869,1.677-4.813c0.233-0.596,0.721-0.512,1.069-0.768c0.06-0.2,0.071-0.414,0.06-0.585L32,14.973z M13.125,19.156
		c-0.44,0.898-1.065,1.453-1.969,1.813c-0.314,0.127-2.066,0.244-4.125,0.156c-2.949-0.125-3.507-0.742-4-1.438
		C2.438,18.85,2.214,16.006,2.563,15.5c0.47-0.683,5.511-0.438,6.281-0.438c0.983,0,4.301,0.449,4.563,0.938
		C13.774,16.689,13.707,17.969,13.125,19.156z M28.971,19.688c-0.492,0.695-1.051,1.313-4,1.438
		c-2.059,0.088-3.811-0.028-4.125-0.155c-0.904-0.359-1.527-0.914-1.969-1.813c-0.582-1.188-0.65-2.469-0.281-3.156
		c0.262-0.488,3.578-0.938,4.563-0.938c0.771,0,5.812-0.245,6.28,0.438C29.787,16.006,29.563,18.85,28.971,19.688z"/>
	
		<linearGradient id="SVGID_2_" gradientUnits="userSpaceOnUse" x1="215.9072" y1="-306.9277" x2="227.1436" y2="-306.9277" gradientTransform="matrix(1 0 0 -1 -197.54 -288.8398)">
		<stop  offset="0" style="stop-color:#B1D2DB"/>
		<stop  offset="1" style="stop-color:#0B7C9E"/>
	</linearGradient>
	<path fill="url(#SVGID_2_)" d="M23.158,15.063c-0.984,0-4.301,0.449-4.563,0.938c-0.369,0.688-0.303,1.968,0.279,3.156
		c0.438,0.897,1.063,1.452,1.971,1.813c0.313,0.127,2.064,0.242,4.125,0.154c2.947-0.125,3.506-0.742,4-1.438
		c0.592-0.838,0.814-3.682,0.469-4.188C28.969,14.818,23.928,15.063,23.158,15.063z"/>
	
		<linearGradient id="SVGID_3_" gradientUnits="userSpaceOnUse" x1="199.8916" y1="-306.9277" x2="211.1289" y2="-306.9277" gradientTransform="matrix(1 0 0 -1 -197.54 -288.8398)">
		<stop  offset="0" style="stop-color:#B1D2DB"/>
		<stop  offset="1" style="stop-color:#0B7C9E"/>
	</linearGradient>
	<path fill="url(#SVGID_3_)" d="M8.798,15.063c0.984,0,4.301,0.449,4.563,0.938c0.369,0.688,0.301,1.968-0.281,3.156
		c-0.439,0.897-1.064,1.452-1.969,1.813c-0.314,0.127-2.066,0.242-4.125,0.154c-2.949-0.125-3.506-0.742-4-1.438
		C2.394,18.85,2.169,16.006,2.517,15.5C2.987,14.818,8.028,15.063,8.798,15.063z"/>
</g>
</svg>
