<?xml version="1.0" encoding="utf-8"?>
<!-- Generator: Adobe Illustrator 17.1.0, SVG Export Plug-In . SVG Version: 6.00 Build 0)  -->
<!DOCTYPE svg PUBLIC "-//W3C//DTD SVG 1.1//EN" "http://www.w3.org/Graphics/SVG/1.1/DTD/svg11.dtd">
<svg version="1.1" id="Layer_1" xmlns="http://www.w3.org/2000/svg" xmlns:xlink="http://www.w3.org/1999/xlink" x="0px" y="0px"
	 viewBox="0 0 32 32" enable-background="new 0 0 32 32" xml:space="preserve">
<g>
	<g>
		<g>
			<g>
				<path fill="#070707" d="M10,19c-1.1,0-2-0.9-2-2V3c0-1.1,0.9-2,2-2h20c1.1,0,2,0.9,2,2v14c0,1.1-0.9,2-2,2H10z"/>
				<path fill="#2B89C5" d="M30,18H10c-0.6,0-1.1-0.4-1.1-1V3c0-0.6,0.5-1,1.1-1h20c0.6,0,1.1,0.4,1.1,1v14C31.1,17.6,30.6,18,30,18
					z"/>
				<g>
					
						<linearGradient id="SVGID_1_" gradientUnits="userSpaceOnUse" x1="20.018" y1="17" x2="20.018" y2="23.3865" gradientTransform="matrix(1 0 0 -1 0 34)">
						<stop  offset="0.2861" style="stop-color:#ADC3CC"/>
						<stop  offset="1" style="stop-color:#E9F6F6"/>
					</linearGradient>
					<path fill="url(#SVGID_1_)" d="M21.9,10.6L20,12.1l-1.9-1.5l-5.9,5.7c-0.3,0.2-0.1,0.7,0.3,0.7h15.1c0.3,0,0.5-0.4,0.3-0.7
						L21.9,10.6z"/>
					
						<linearGradient id="SVGID_2_" gradientUnits="userSpaceOnUse" x1="20.035" y1="24.6435" x2="20.035" y2="31" gradientTransform="matrix(1 0 0 -1 0 34)">
						<stop  offset="0.2861" style="stop-color:#ADC3CC"/>
						<stop  offset="1" style="stop-color:#E9F6F6"/>
					</linearGradient>
					<path fill="url(#SVGID_2_)" d="M27.1,3H12.9c-0.4,0-0.5,0.5-0.2,0.7l7.1,5.6c0.1,0.1,0.3,0.1,0.5,0l7.1-5.6
						C27.7,3.5,27.5,3,27.1,3z"/>
					
						<linearGradient id="SVGID_3_" gradientUnits="userSpaceOnUse" x1="13.1577" y1="19.0441" x2="13.1577" y2="29.2822" gradientTransform="matrix(1 0 0 -1 0 34)">
						<stop  offset="0.2861" style="stop-color:#ADC3CC"/>
						<stop  offset="1" style="stop-color:#E9F6F6"/>
					</linearGradient>
					<path fill="url(#SVGID_3_)" d="M16.1,9l-5.4-4.2c-0.3-0.2-0.6,0-0.6,0.3v9.5c0,0.3,0.4,0.5,0.6,0.3l5.4-5.2
						C16.3,9.5,16.2,9.2,16.1,9z"/>
					
						<linearGradient id="SVGID_4_" gradientUnits="userSpaceOnUse" x1="26.8423" y1="19.0435" x2="26.8423" y2="29.2828" gradientTransform="matrix(1 0 0 -1 0 34)">
						<stop  offset="0.2861" style="stop-color:#ADC3CC"/>
						<stop  offset="1" style="stop-color:#E9F6F6"/>
					</linearGradient>
					<path fill="url(#SVGID_4_)" d="M23.9,9.6l5.4,5.2c0.2,0.2,0.6,0.1,0.6-0.3V5c0-0.3-0.4-0.5-0.6-0.3L23.9,9
						C23.8,9.2,23.7,9.5,23.9,9.6z"/>
					
						<linearGradient id="SVGID_5_" gradientUnits="userSpaceOnUse" x1="30" y1="31" x2="30" y2="31" gradientTransform="matrix(1 0 0 -1 0 34)">
						<stop  offset="0" style="stop-color:#F7F9F8"/>
						<stop  offset="0.3462" style="stop-color:#C9EAFB"/>
					</linearGradient>
					<path fill="url(#SVGID_5_)" d="M30,3L30,3L30,3z"/>
				</g>
			</g>
			<path opacity="0.6" fill="#FFFFFF" d="M30,1H10C8.9,1,8,1.9,8,3v14c0,1.1,0.9,2,2,2h20c1.1,0,2-0.9,2-2V3C32,1.9,31.1,1,30,1z"/>
		</g>
		<g>
			<g>
				<path fill="#070707" d="M6,19c-1.1,0-2-0.9-2-2V3c0-1.1,0.9-2,2-2h20c1.1,0,2,0.9,2,2v14c0,1.1-0.9,2-2,2H6z"/>
				<path fill="#2B89C5" d="M26,18H6c-0.6,0-1.1-0.4-1.1-1V3c0-0.6,0.5-1,1.1-1h20c0.6,0,1.1,0.4,1.1,1v14C27.1,17.6,26.6,18,26,18z
					"/>
				<g>
					
						<linearGradient id="SVGID_6_" gradientUnits="userSpaceOnUse" x1="16.018" y1="17" x2="16.018" y2="23.3865" gradientTransform="matrix(1 0 0 -1 0 34)">
						<stop  offset="0.2861" style="stop-color:#ADC3CC"/>
						<stop  offset="1" style="stop-color:#E9F6F6"/>
					</linearGradient>
					<path fill="url(#SVGID_6_)" d="M17.9,10.6L16,12.1l-1.9-1.5l-5.9,5.7C7.9,16.5,8.1,17,8.5,17h15.1c0.3,0,0.5-0.4,0.3-0.7
						L17.9,10.6z"/>
					
						<linearGradient id="SVGID_7_" gradientUnits="userSpaceOnUse" x1="16.035" y1="24.6435" x2="16.035" y2="31" gradientTransform="matrix(1 0 0 -1 0 34)">
						<stop  offset="0.2861" style="stop-color:#ADC3CC"/>
						<stop  offset="1" style="stop-color:#E9F6F6"/>
					</linearGradient>
					<path fill="url(#SVGID_7_)" d="M23.1,3H8.9C8.5,3,8.4,3.5,8.7,3.7l7.1,5.6c0.1,0.1,0.3,0.1,0.5,0l7.1-5.6
						C23.7,3.5,23.5,3,23.1,3z"/>
					
						<linearGradient id="SVGID_8_" gradientUnits="userSpaceOnUse" x1="9.1577" y1="19.0441" x2="9.1577" y2="29.2822" gradientTransform="matrix(1 0 0 -1 0 34)">
						<stop  offset="0.2861" style="stop-color:#ADC3CC"/>
						<stop  offset="1" style="stop-color:#E9F6F6"/>
					</linearGradient>
					<path fill="url(#SVGID_8_)" d="M12.1,9L6.7,4.8c-0.3-0.2-0.6,0-0.6,0.3v9.5c0,0.3,0.4,0.5,0.6,0.3l5.4-5.2
						C12.3,9.5,12.2,9.2,12.1,9z"/>
					
						<linearGradient id="SVGID_9_" gradientUnits="userSpaceOnUse" x1="22.8423" y1="19.0435" x2="22.8423" y2="29.2828" gradientTransform="matrix(1 0 0 -1 0 34)">
						<stop  offset="0.2861" style="stop-color:#ADC3CC"/>
						<stop  offset="1" style="stop-color:#E9F6F6"/>
					</linearGradient>
					<path fill="url(#SVGID_9_)" d="M19.9,9.6l5.4,5.2c0.2,0.2,0.6,0.1,0.6-0.3V5c0-0.3-0.4-0.5-0.6-0.3L19.9,9
						C19.8,9.2,19.7,9.5,19.9,9.6z"/>
					
						<linearGradient id="SVGID_10_" gradientUnits="userSpaceOnUse" x1="26" y1="31" x2="26" y2="31" gradientTransform="matrix(1 0 0 -1 0 34)">
						<stop  offset="0" style="stop-color:#F7F9F8"/>
						<stop  offset="0.3462" style="stop-color:#C9EAFB"/>
					</linearGradient>
					<path fill="url(#SVGID_10_)" d="M26,3L26,3L26,3z"/>
				</g>
			</g>
			<path opacity="0.4" fill="#FFFFFF" d="M26,1H6C4.9,1,4,1.9,4,3v14c0,1.1,0.9,2,2,2h20c1.1,0,2-0.9,2-2V3C28,1.9,27.1,1,26,1z"/>
		</g>
		<g>
			<path fill="#070707" d="M2,19c-1.1,0-2-0.9-2-2V3c0-1.1,0.9-2,2-2h20c1.1,0,2,0.9,2,2v14c0,1.1-0.9,2-2,2H2z"/>
			<path fill="#2B89C5" d="M22,18H2c-0.6,0-1.1-0.4-1.1-1V3c0-0.6,0.5-1,1.1-1h20c0.6,0,1.1,0.4,1.1,1v14C23.1,17.6,22.6,18,22,18z"
				/>
			<g>
				
					<linearGradient id="SVGID_11_" gradientUnits="userSpaceOnUse" x1="12.018" y1="17" x2="12.018" y2="23.3865" gradientTransform="matrix(1 0 0 -1 0 34)">
					<stop  offset="0.2861" style="stop-color:#ADC3CC"/>
					<stop  offset="1" style="stop-color:#E9F6F6"/>
				</linearGradient>
				<path fill="url(#SVGID_11_)" d="M13.9,10.6L12,12.1l-1.9-1.5l-5.9,5.7C3.9,16.5,4.1,17,4.5,17h15.1c0.3,0,0.5-0.4,0.3-0.7
					L13.9,10.6z"/>
				
					<linearGradient id="SVGID_12_" gradientUnits="userSpaceOnUse" x1="12.035" y1="24.6435" x2="12.035" y2="31" gradientTransform="matrix(1 0 0 -1 0 34)">
					<stop  offset="0.2861" style="stop-color:#ADC3CC"/>
					<stop  offset="1" style="stop-color:#E9F6F6"/>
				</linearGradient>
				<path fill="url(#SVGID_12_)" d="M19.1,3H4.9C4.5,3,4.4,3.5,4.7,3.7l7.1,5.6c0.1,0.1,0.3,0.1,0.5,0l7.1-5.6
					C19.7,3.5,19.5,3,19.1,3z"/>
				
					<linearGradient id="SVGID_13_" gradientUnits="userSpaceOnUse" x1="5.1577" y1="19.0441" x2="5.1577" y2="29.2822" gradientTransform="matrix(1 0 0 -1 0 34)">
					<stop  offset="0.2861" style="stop-color:#ADC3CC"/>
					<stop  offset="1" style="stop-color:#E9F6F6"/>
				</linearGradient>
				<path fill="url(#SVGID_13_)" d="M8.1,9L2.7,4.8c-0.3-0.2-0.6,0-0.6,0.3v9.5c0,0.3,0.4,0.5,0.6,0.3l5.4-5.2
					C8.3,9.5,8.2,9.2,8.1,9z"/>
				
					<linearGradient id="SVGID_14_" gradientUnits="userSpaceOnUse" x1="18.8423" y1="19.0435" x2="18.8423" y2="29.2828" gradientTransform="matrix(1 0 0 -1 0 34)">
					<stop  offset="0.2861" style="stop-color:#ADC3CC"/>
					<stop  offset="1" style="stop-color:#E9F6F6"/>
				</linearGradient>
				<path fill="url(#SVGID_14_)" d="M15.9,9.6l5.4,5.2c0.2,0.2,0.6,0.1,0.6-0.3V5c0-0.3-0.4-0.5-0.6-0.3L15.9,9
					C15.8,9.2,15.7,9.5,15.9,9.6z"/>
				
					<linearGradient id="SVGID_15_" gradientUnits="userSpaceOnUse" x1="22" y1="31" x2="22" y2="31" gradientTransform="matrix(1 0 0 -1 0 34)">
					<stop  offset="0" style="stop-color:#F7F9F8"/>
					<stop  offset="0.3462" style="stop-color:#C9EAFB"/>
				</linearGradient>
				<path fill="url(#SVGID_15_)" d="M22,3L22,3L22,3z"/>
			</g>
		</g>
	</g>
	<g>
		<g>
			<g>
				<path fill="#010101" d="M0,22c0-0.2,0.1-0.5,0.3-0.7l7.8-8c0.3-0.3,0.7-0.4,1-0.2c0.3,0.1,0.6,0.5,0.6,0.9v3h9.4
					c0.5,0,0.9,0.5,0.9,1v8c0,0.5-0.4,1-0.9,1H9.7v3c0,0.4-0.2,0.7-0.6,0.9c-0.3,0.1-0.7,0.1-1-0.2l-7.8-8C0.1,22.5,0,22.2,0,22
					L0,22z"/>
				<polygon opacity="0.98" fill="#1B9E49" enable-background="new    " points="8.6,18.3 18.9,18.3 18.9,25.7 8.6,25.7 8.6,29.5 
					1.3,22 8.6,14.5 				"/>
				
					<linearGradient id="SVGID_16_" gradientUnits="userSpaceOnUse" x1="177.014" y1="-159.0034" x2="177.014" y2="-144.2034" gradientTransform="matrix(-4.489659e-011 1 1 4.489659e-011 161.9819 -154.9738)">
					<stop  offset="0" style="stop-color:#259145"/>
					<stop  offset="1" style="stop-color:#B2D78E"/>
				</linearGradient>
				<polygon fill="url(#SVGID_16_)" points="7.5,19.6 17.8,19.6 17.8,24.4 7.5,24.4 7.5,26.6 3,22 7.5,17.4 				"/>
			</g>
		</g>
	</g>
	<g>
		<g>
			<g>
				<g>
					<g>
						<path id="path4046_1_" fill="#020202" d="M13.3,31.8c-0.2,0-0.4,0-0.6-0.2c-0.4-0.2-0.6-0.8-0.4-1.2l6.2-13h-2.4
							c-0.4,0-0.6-0.2-0.8-0.4c0-0.4,0-0.6,0-1l5.6-15.2c0.2-0.4,0.6-0.6,1-0.6h9.2c0.4,0,0.8,0.2,0.8,0.6c0.2,0.4,0.2,0.8-0.2,1
							l-6.2,8h4c0.6,0,1,0.2,1,0.6c0.2,0.4,0.2,0.8-0.2,1l-16.4,20C13.9,31.6,13.5,31.8,13.3,31.8L13.3,31.8z"/>
						<path id="path5141_1_" fill="#F4A520" d="M16.3,16.4h4l-7,14.4l16.4-20h-6L31.1,1h-9.2L16.3,16.4z"/>
						
							<linearGradient id="polygon4061_2_" gradientUnits="userSpaceOnUse" x1="7.3479" y1="-111.3398" x2="13.0809" y2="-111.3398" gradientTransform="matrix(2 0 0 -2 2.92 -209.6796)">
							<stop  offset="0" style="stop-color:#FFF3E0"/>
							<stop  offset="0.5394" style="stop-color:#F4A520"/>
							<stop  offset="1" style="stop-color:#A2692A"/>
						</linearGradient>
						<polygon id="polygon4061_1_" fill="url(#polygon4061_2_)" points="17.7,23.8 21.7,15.2 17.7,15.4 22.7,2.2 29.1,2.2 21.7,12 
							27.5,11.8 						"/>
					</g>
				</g>
			</g>
		</g>
	</g>
</g>
</svg>
