<?xml version="1.0" encoding="utf-8"?>
<!-- Generator: Adobe Illustrator 15.0.0, SVG Export Plug-In . SVG Version: 6.00 Build 0)  -->
<!DOCTYPE svg PUBLIC "-//W3C//DTD SVG 1.1//EN" "http://www.w3.org/Graphics/SVG/1.1/DTD/svg11.dtd">
<svg version="1.1"
	 id="svg1" xmlns:dc="http://purl.org/dc/elements/1.1/" xmlns:cc="http://web.resource.org/cc/" xmlns:rdf="http://www.w3.org/1999/02/22-rdf-syntax-ns#" xmlns:svg="http://www.w3.org/2000/svg" xmlns:sodipodi="http://sodipodi.sourceforge.net/DTD/sodipodi-0.dtd" xmlns:inkscape="http://www.inkscape.org/namespaces/inkscape" inkscape:output_extension="org.inkscape.output.svg.inkscape" sodipodi:version="0.32" inkscape:version="0.45.1" sodipodi:docname="edit.svg" sodipodi:docbase="C:\Radix\dev\trunk\org.radixware\kernel\designer\src\common.resources\src\org\radixware\kernel\designer\resources\icons\edit"
	 xmlns="http://www.w3.org/2000/svg" xmlns:xlink="http://www.w3.org/1999/xlink" x="0px" y="0px" width="32px" height="32px"
	 viewBox="202.75 202.75 32 32" enable-background="new 202.75 202.75 32 32" xml:space="preserve">
<sodipodi:namedview  id="base" borderopacity="1.0" bordercolor="#666666" pagecolor="#ffffff" inkscape:window-height="480" inkscape:window-width="640" inkscape:pageshadow="2" inkscape:pageopacity="0.0">
	</sodipodi:namedview>
<g>
	<g>
		<g>
			<path id="path2924_21_" fill="#020202" d="M203.606,228.75c-0.476,0-0.855-0.383-0.855-0.855v-24.287
				c0-0.474,0.38-0.857,0.855-0.857h12.293c0.229,0,0.445,0.089,0.604,0.252l5.708,5.707c0.162,0.161,0.254,0.378,0.254,0.607
				v18.574c0,0.477-0.383,0.858-0.858,0.858L203.606,228.75L203.606,228.75z"/>
			<polygon id="polygon2926_21_" fill="#03AAD6" points="215.899,203.607 203.606,203.607 203.606,227.895 221.606,227.895 
				221.606,209.316 			"/>
			<polygon id="polygon2928_21_" fill="#FFFFFF" points="219.961,208.54 219.961,226.107 205.175,226.107 205.175,205.252 
				216.673,205.252 218.248,207.038 			"/>
			<rect x="206.733" y="207.889" fill="#808283" width="11.746" height="0.651"/>
			<path id="path2930_21_" fill="#020202" d="M215.899,210.173c-0.475,0-0.859-0.384-0.859-0.856v-5.709
				c0-0.348,0.211-0.659,0.529-0.793c0.107-0.043,0.219-0.064,0.33-0.064c0.224,0,0.441,0.089,0.604,0.252l5.708,5.707
				c0.246,0.246,0.319,0.614,0.188,0.934c-0.133,0.321-0.445,0.528-0.791,0.528L215.899,210.173L215.899,210.173z"/>
			<polygon id="polygon2932_21_" fill="#03AAD6" points="215.899,209.316 221.606,209.316 215.899,203.607 			"/>
			<rect x="206.868" y="211.898" fill="#808283" width="11.748" height="0.652"/>
			<rect x="206.868" y="216.232" fill="#808283" width="11.748" height="0.653"/>
			<rect x="206.868" y="220.938" fill="#808283" width="11.748" height="0.653"/>
		</g>
	</g>
	<g>
		<path d="M229.878,234.693c0.091-0.038,0.174-0.092,0.244-0.164l4.407-4.406c0.142-0.141,0.221-0.331,0.221-0.53
			c0-0.198-0.079-0.39-0.221-0.53l-15.109-15.107c-0.006-0.007-0.016-0.01-0.023-0.016c-0.061-0.057-0.127-0.107-0.205-0.142
			l-5.773-2.532c-0.01-0.002-0.02-0.002-0.029-0.007c-0.012-0.004-0.022-0.013-0.035-0.018l-1.365-0.453
			c-0.271-0.089-0.567-0.019-0.768,0.182l-0.22,0.22c-0.142,0.144-0.218,0.334-0.218,0.53c0,0.079,0.012,0.158,0.037,0.234
			l0.451,1.366c0.004,0.014,0.014,0.024,0.018,0.037c0.004,0.009,0.002,0.018,0.006,0.025l2.5,5.805
			c0.035,0.08,0.086,0.148,0.143,0.211c0.006,0.007,0.011,0.017,0.017,0.023l15.108,15.107c0.071,0.072,0.155,0.126,0.246,0.164
			C229.489,234.77,229.694,234.77,229.878,234.693z"/>
		
			<rect x="221.127" y="213.558" transform="matrix(-0.7073 0.7069 -0.7069 -0.7073 541.3699 224.345)" fill="#70BE46" width="6.233" height="21.366"/>
		
			<linearGradient id="SVGID_1_" gradientUnits="userSpaceOnUse" x1="347.385" y1="787.4775" x2="350.6616" y2="784.201" gradientTransform="matrix(0 1 1 0 -561.5398 -124.8401)">
			<stop  offset="0" style="stop-color:#ADD58A"/>
			<stop  offset="1" style="stop-color:#1E9046"/>
		</linearGradient>
		<polygon fill="url(#SVGID_1_)" points="218.889,215.545 232.94,229.593 229.592,232.938 215.544,218.893 		"/>
		<polygon fill="#F9A61C" points="213.115,211.953 211.985,213.086 214.485,218.893 218.889,214.484 		"/>
		
			<linearGradient id="SVGID_2_" gradientUnits="userSpaceOnUse" x1="337.7102" y1="777.8926" x2="340.8534" y2="774.7493" gradientTransform="matrix(0 1 1 0 -561.5398 -124.8401)">
			<stop  offset="0" style="stop-color:#FFF3DF"/>
			<stop  offset="0.5394" style="stop-color:#F9A61C"/>
			<stop  offset="1" style="stop-color:#A36628"/>
		</linearGradient>
		<polygon fill="url(#SVGID_2_)" points="213.285,212.846 217.583,214.73 214.735,217.579 212.875,213.256 		"/>
		<polygon fill="#231F20" points="213.115,211.953 211.985,213.086 211.533,211.72 211.751,211.5 		"/>
		
			<rect x="227.542" y="229.051" transform="matrix(-0.7071 0.7071 -0.7071 -0.7071 556.8574 230.6575)" fill="#ED2A2A" width="6.231" height="3.214"/>
		
			<linearGradient id="SVGID_3_" gradientUnits="userSpaceOnUse" x1="353.7092" y1="793.9893" x2="357.1832" y2="790.5153" gradientTransform="matrix(0 1 1 0 -561.5398 -124.8401)">
			<stop  offset="0" style="stop-color:#F49498"/>
			<stop  offset="1" style="stop-color:#8E1D1F"/>
		</linearGradient>
		<polygon fill="url(#SVGID_3_)" points="231.727,228.38 232.938,229.593 229.592,232.938 228.381,231.727 		"/>
	</g>
</g>
</svg>
