<?xml version="1.0" encoding="utf-8"?>
<!-- Generator: Adobe Illustrator 15.0.0, SVG Export Plug-In . SVG Version: 6.00 Build 0)  -->
<!DOCTYPE svg PUBLIC "-//W3C//DTD SVG 1.1//EN" "http://www.w3.org/Graphics/SVG/1.1/DTD/svg11.dtd">
<svg version="1.1"
	 id="Layer_1" xmlns:dc="http://purl.org/dc/elements/1.1/" xmlns:cc="http://creativecommons.org/ns#" xmlns:rdf="http://www.w3.org/1999/02/22-rdf-syntax-ns#" xmlns:svg="http://www.w3.org/2000/svg" xmlns:sodipodi="http://sodipodi.sourceforge.net/DTD/sodipodi-0.dtd" xmlns:inkscape="http://www.inkscape.org/namespaces/inkscape" inkscape:output_extension="org.inkscape.output.svg.inkscape" sodipodi:version="0.32" inkscape:version="0.46" sodipodi:docname="tool2.svg"
	 xmlns="http://www.w3.org/2000/svg" xmlns:xlink="http://www.w3.org/1999/xlink" x="0px" y="0px" width="32px" height="32px"
	 viewBox="0 0 32 32" enable-background="new 0 0 32 32" xml:space="preserve">
<defs>
	
	
		<inkscape:perspective  id="perspective3401" sodipodi:type="inkscape:persp3d" inkscape:vp_y="0 : 1000 : 0" inkscape:vp_x="0 : 64 : 1" inkscape:vp_z="128 : 64 : 1" inkscape:persp3d-origin="64 : 42.666667 : 1">
		</inkscape:perspective>
	
		<inkscape:perspective  id="perspective3935" sodipodi:type="inkscape:persp3d" inkscape:vp_y="0 : 1000 : 0" inkscape:vp_x="0 : 526.18109 : 1" inkscape:vp_z="744.09448 : 526.18109 : 1" inkscape:persp3d-origin="372.04724 : 350.78739 : 1">
		</inkscape:perspective>
	
		<inkscape:perspective  id="perspective3358" sodipodi:type="inkscape:persp3d" inkscape:vp_y="0 : 1000 : 0" inkscape:vp_x="0 : 526.18109 : 1" inkscape:vp_z="744.09448 : 526.18109 : 1" inkscape:persp3d-origin="372.04724 : 350.78739 : 1">
		</inkscape:perspective>
	
		<inkscape:perspective  id="perspective3371" sodipodi:type="inkscape:persp3d" inkscape:vp_y="0 : 1000 : 0" inkscape:vp_x="0 : 526.18109 : 1" inkscape:vp_z="744.09448 : 526.18109 : 1" inkscape:persp3d-origin="372.04724 : 350.78739 : 1">
		</inkscape:perspective>
</defs>
<sodipodi:namedview  id="base" inkscape:cy="-3.890437" inkscape:cx="22.5191" inkscape:zoom="8" guidetolerance="10.0" showgrid="false" gridtolerance="10.0" objecttolerance="10.0" borderopacity="1.0" bordercolor="#666666" pagecolor="#ffffff" inkscape:window-y="-8" inkscape:window-x="-8" inkscape:window-height="944" inkscape:window-width="1280" inkscape:pageshadow="2" inkscape:pageopacity="0.0" inkscape:current-layer="Layer_1">
	</sodipodi:namedview>
<g>
	<g>
		<path id="path5072" fill="#020202" d="M28.686,31.175c-0.277,0-0.543-0.111-0.735-0.315l-1.052-1.105
			c-0.207-0.039-0.399-0.145-0.544-0.297L13.953,16.436c-0.324-0.339-0.365-0.848-0.129-1.232l-2.379-2.498
			c-0.131,0.06-0.276,0.089-0.419,0.091c-0.018,0-2.714-0.131-2.714-0.131l0.133,0.143c0.373,0.393,0.373,1.008,0,1.401
			l-2.508,2.632c-0.192,0.201-0.458,0.315-0.738,0.315l0,0c-0.276,0-0.544-0.112-0.735-0.313l-4.185-4.398
			c-0.371-0.391-0.373-1.008,0-1.401L2.787,8.41c0.191-0.2,0.456-0.315,0.734-0.313c0.034,0,0.063,0.002,0.092,0.004
			C3.571,7.803,3.662,7.494,3.884,7.261l4.648-4.887C8.723,2.172,8.99,2.059,9.27,2.059c0.276,0,0.544,0.113,0.737,0.315
			l0.081,0.082c1.272-0.75,3.249-1.631,5.521-1.631c2.426,0,4.599,0.996,6.456,2.958c0.319,0.339,0.367,0.859,0.108,1.25
			c-0.19,0.296-0.516,0.464-0.851,0.464c-0.111,0-0.227-0.02-0.335-0.058c-0.848-0.297-1.683-0.448-2.482-0.448
			c-2.155,0-3.696,1.079-4.591,1.952l0.631,1.813c0.111,0.315,0.06,0.661-0.135,0.929l2.349,2.468
			c0.148-0.081,0.319-0.125,0.49-0.125c0.275,0,0.542,0.115,0.736,0.317l12.399,13.021c0.151,0.159,0.242,0.355,0.272,0.56
			l1.063,1.119c0.371,0.391,0.371,1.008,0,1.4l-2.298,2.415C29.229,31.062,28.966,31.177,28.686,31.175L28.686,31.175L28.686,31.175
			z"/>
		
			<linearGradient id="rect3338_1_" gradientUnits="userSpaceOnUse" x1="-809.293" y1="-981.3394" x2="-810.8616" y2="-982.7475" gradientTransform="matrix(-1.1868 -0.0315 -0.03 -1.2466 -984.4406 -1239.1273)">
			<stop  offset="0" style="stop-color:#B1D2DB"/>
			<stop  offset="1" style="stop-color:#0B7C9E"/>
		</linearGradient>
		<polygon id="rect3338" fill="url(#rect3338_1_)" points="4.151,10.481 6.294,8.231 8.493,10.541 6.35,12.791 		"/>
		
			<linearGradient id="rect3340_1_" gradientUnits="userSpaceOnUse" x1="-536.1177" y1="-762.4966" x2="-539.288" y2="-765.6986" gradientTransform="matrix(-1.2288 -0.3357 -0.3196 -1.2907 -900.217 -1154.0607)">
			<stop  offset="0" style="stop-color:#B1D2DB"/>
			<stop  offset="1" style="stop-color:#0B7C9E"/>
		</linearGradient>
		<polygon id="rect3340" fill="url(#rect3340_1_)" points="1.202,11.606 3.707,8.972 7.895,13.368 5.386,16.001 		"/>
		
			<linearGradient id="rect3342_1_" gradientUnits="userSpaceOnUse" x1="-816.3154" y1="-984.1172" x2="-817.9022" y2="-982.5362" gradientTransform="matrix(-1.1868 -0.0315 -0.03 -1.2466 -984.4406 -1239.1273)">
			<stop  offset="0" style="stop-color:#B1D2DB"/>
			<stop  offset="1" style="stop-color:#0B7C9E"/>
		</linearGradient>
		<polygon id="rect3342" fill="url(#rect3342_1_)" points="11.419,10.872 12.935,9.281 17.8,14.392 16.284,15.981 		"/>
		
			<linearGradient id="rect3344_1_" gradientUnits="userSpaceOnUse" x1="-824.5225" y1="-988.729" x2="-821.8735" y2="-991.1827" gradientTransform="matrix(-1.1868 -0.0315 -0.03 -1.2466 -984.4406 -1239.1273)">
			<stop  offset="0" style="stop-color:#A36628"/>
			<stop  offset="0.5394" style="stop-color:#F9A620"/>
			<stop  offset="1" style="stop-color:#FFF3DF"/>
		</linearGradient>
		<polygon id="rect3344" fill="url(#rect3344_1_)" points="14.874,15.597 17.433,12.908 29.831,25.929 27.273,28.619 		"/>
		
			<linearGradient id="rect3346_1_" gradientUnits="userSpaceOnUse" x1="-827.9854" y1="-996.5259" x2="-830.3436" y2="-994.2658" gradientTransform="matrix(-1.1868 -0.0315 -0.03 -1.2466 -984.4406 -1239.1273)">
			<stop  offset="0" style="stop-color:#B1D2DB"/>
			<stop  offset="1" style="stop-color:#0B7C9E"/>
		</linearGradient>
		<polygon id="rect3346" fill="url(#rect3346_1_)" points="27.404,28.48 29.699,26.068 31.166,27.605 28.866,30.021 		"/>
		
			<linearGradient id="path3348_1_" gradientUnits="userSpaceOnUse" x1="-818.0576" y1="-976.9136" x2="-815.2001" y2="-972.7598" gradientTransform="matrix(-1.1868 -0.0315 -0.03 -1.2466 -984.4406 -1239.1273)">
			<stop  offset="0" style="stop-color:#B1D2DB"/>
			<stop  offset="1" style="stop-color:#0B7C9E"/>
		</linearGradient>
		<path id="path3348" fill="url(#path3348_1_)" d="M21.504,4.345c-5.804-2.038-8.99,2.738-8.99,2.738L9.586,4.005
			C9.586,4.005,16.082-1.387,21.504,4.345L21.504,4.345z"/>
		<polygon id="polygon3350" fill="#00ACDA" points="4.804,7.821 9.454,2.936 12.957,6.619 13.771,8.954 11.21,11.642 8.309,11.501 
					"/>
		<g id="polygon3350_1_">
			
				<linearGradient id="SVGID_1_" gradientUnits="userSpaceOnUse" x1="285.2871" y1="1100.1875" x2="291.6875" y2="1100.1875" gradientTransform="matrix(1 0 0 1 -279.0801 -1092.6797)">
				<stop  offset="0" style="stop-color:#B1D2DB"/>
				<stop  offset="1" style="stop-color:#0B7C9E"/>
			</linearGradient>
			<polygon fill="url(#SVGID_1_)" points="8.764,10.505 6.207,7.821 9.454,4.41 12.07,7.16 12.607,8.702 10.796,10.604 			"/>
		</g>
	</g>
</g>
</svg>
