<?xml version="1.0" encoding="utf-8"?>
<!-- Generator: Adobe Illustrator 14.0.0, SVG Export Plug-In . SVG Version: 6.00 Build 43363)  -->
<!DOCTYPE svg PUBLIC "-//W3C//DTD SVG 1.1//EN" "http://www.w3.org/Graphics/SVG/1.1/DTD/svg11.dtd">
<svg version="1.1"
	 id="svg1" sodipodi:docbase="C:\Radix\dev\trunk\org.radixware\kernel\designer\src\common.resources\src\org\radixware\kernel\designer\resources\icons\ads" sodipodi:docname="image.svg" inkscape:version="0.45.1" sodipodi:version="0.32" inkscape:output_extension="org.inkscape.output.svg.inkscape" xmlns:ns="http://creativecommons.org/ns#" xmlns:dc="http://purl.org/dc/elements/1.1/" xmlns:cc="http://web.resource.org/cc/" xmlns:rdf="http://www.w3.org/1999/02/22-rdf-syntax-ns#" xmlns:svg="http://www.w3.org/2000/svg" xmlns:sodipodi="http://sodipodi.sourceforge.net/DTD/sodipodi-0.dtd" xmlns:inkscape="http://www.inkscape.org/namespaces/inkscape"
	 xmlns="http://www.w3.org/2000/svg" xmlns:xlink="http://www.w3.org/1999/xlink" x="0px" y="0px" width="32px" height="32px"
	 viewBox="0 0 32 32" enable-background="new 0 0 32 32" xml:space="preserve">
<sodipodi:namedview  id="base" pagecolor="#ffffff" bordercolor="#666666" borderopacity="1.0" showgrid="true" inkscape:zoom="8.0266175" inkscape:cx="18.993583" inkscape:cy="5.4058787" inkscape:current-layer="svg1" inkscape:pageopacity="0.0" inkscape:pageshadow="2" inkscape:window-width="1264" inkscape:window-height="988" inkscape:window-x="0" inkscape:window-y="0" snaptogrid="false">
	</sodipodi:namedview>
<path id="path2924_1_" fill="#020202" d="M4.921,32c-0.583,0-1.055-0.469-1.055-1.055V1.055C3.867,0.472,4.338,0,4.921,0H20.05
	c0.283,0,0.552,0.109,0.747,0.309l7.026,7.027c0.197,0.197,0.31,0.465,0.31,0.746v22.861c0,0.589-0.472,1.055-1.055,1.055H4.921V32z
	"/>
<polygon id="polygon2926_1_" fill="#FFFFFF" points="20.05,1.055 4.921,1.055 4.921,30.945 27.078,30.945 27.078,8.082 "/>
<polygon id="polygon2928_1_" fill="#FFFFFF" points="25.097,7.715 25.097,29.343 6.901,29.343 6.901,3.669 21.054,3.669 
	22.987,5.867 "/>
<linearGradient id="polygon11_1_" gradientUnits="userSpaceOnUse" x1="297.7188" y1="-402.2368" x2="297.7188" y2="-376.6073" gradientTransform="matrix(1 0 0 -1 -281.7207 -373.0195)">
	<stop  offset="0" style="stop-color:#B0D0DA"/>
	<stop  offset="1" style="stop-color:#0C7C9E"/>
</linearGradient>
<polygon id="polygon11" fill="url(#polygon11_1_)" points="20.636,3.669 6.901,3.669 6.901,29.343 25.097,29.343 25.097,8.132 "/>
<path id="path13" fill="#6FBD46" d="M25.097,29.343v-4.91c-1.374-0.003-2.67-0.523-3.943-0.924c-1.324-0.418-2.926-0.346-4.25,0.077
	c-1.065,0.341-1.953,1.075-3.108,1.172c-0.805,0.067-1.645-0.011-2.437-0.085c-0.826-0.076-1.917-0.259-2.724-0.005
	c-0.883,0.278-1.102,0.724-1.732,1.298v3.377H25.097z"/>
<circle id="circle15" fill="#F9A61E" cx="12.501" cy="12.918" r="3.5"/>
<path id="path17" fill="#FFFFFF" d="M17.315,8.958c-0.318,0-0.612,0.053-0.869,0.139c0.054-0.139,0.093-0.28,0.093-0.429
	c0-0.977-1.25-1.77-2.79-1.77c-0.967,0-1.814,0.311-2.316,0.784c-0.368-0.125-0.79-0.2-1.245-0.2c-1.393,0-2.521,0.662-2.521,1.479
	c0,0.655,0.732,1.203,1.738,1.399c0.141,0.424,0.873,0.748,1.762,0.748c0.119,0,0.236-0.006,0.348-0.018
	c0.387,0.496,1.367,0.851,2.528,0.851c1.322,0,2.42-0.46,2.657-1.068c0.194,0.042,0.398,0.068,0.615,0.068
	c0.954,0,1.727-0.443,1.727-0.99S18.27,8.958,17.315,8.958z"/>
<path id="path19" fill="#FFFFFF" d="M22.895,13.504c0-0.005,0.005-0.009,0.005-0.015c0-0.621-1.423-1.124-3.177-1.124
	c-0.181,0-0.358,0.008-0.527,0.019c-0.273-0.115-0.634-0.187-1.028-0.187c-0.8,0-1.448,0.281-1.539,0.643
	c-0.2-0.035-0.413-0.06-0.636-0.06c-1.146,0-2.076,0.504-2.076,1.126c0,0.432,0.458,0.804,1.12,0.991
	c-0.002,0.018-0.01,0.033-0.01,0.05c0,0.392,0.681,0.709,1.521,0.709c0.2,0,0.391-0.021,0.565-0.054
	c0.169,0.446,0.57,0.761,1.039,0.761c0.322,0,0.609-0.154,0.814-0.394c0.357,0.115,0.792,0.185,1.265,0.185
	c1.011,0,1.853-0.307,2.09-0.72c0.118,0.021,0.235,0.033,0.36,0.033c0.823,0,1.49-0.443,1.49-0.99
	C24.171,13.981,23.616,13.573,22.895,13.504z"/>
<path id="path2930_1_" fill="#020202" d="M20.05,9.136c-0.584,0-1.055-0.472-1.055-1.055V1.055c0-0.426,0.258-0.812,0.65-0.975
	C19.778,0.027,19.914,0,20.05,0c0.275,0,0.547,0.107,0.747,0.309l7.026,7.027c0.302,0.303,0.393,0.754,0.231,1.148
	c-0.164,0.396-0.552,0.651-0.974,0.651H20.05V9.136z"/>
<polygon id="polygon2932_1_" fill="#FFFFFF" points="20.05,8.082 27.078,8.082 20.05,1.055 "/>
</svg>
