<?xml version="1.0" encoding="utf-8"?>
<!-- Generator: Adobe Illustrator 15.0.0, SVG Export Plug-In . SVG Version: 6.00 Build 0)  -->
<!DOCTYPE svg PUBLIC "-//W3C//DTD SVG 1.1//EN" "http://www.w3.org/Graphics/SVG/1.1/DTD/svg11.dtd">
<svg version="1.1"
	 id="svg2160" xmlns:dc="http://purl.org/dc/elements/1.1/" xmlns:cc="http://web.resource.org/cc/" xmlns:rdf="http://www.w3.org/1999/02/22-rdf-syntax-ns#" xmlns:svg="http://www.w3.org/2000/svg" xmlns:sodipodi="http://sodipodi.sourceforge.net/DTD/sodipodi-0.dtd" xmlns:inkscape="http://www.inkscape.org/namespaces/inkscape" inkscape:output_extension="org.inkscape.output.svg.inkscape" sodipodi:version="0.32" inkscape:version="0.45.1" sodipodi:docname="insert_object.svg" sodipodi:docbase="C:\Radix\dev\trunk\org.radixware\kernel\designer\src\common.resources\src\org\radixware\kernel\designer\resources\icons\edit" xmlns:ns="http://creativecommons.org/ns#"
	 xmlns="http://www.w3.org/2000/svg" xmlns:xlink="http://www.w3.org/1999/xlink" x="0px" y="0px" width="32px" height="32px"
	 viewBox="0 0 32 32" enable-background="new 0 0 32 32" xml:space="preserve">
<sodipodi:namedview  id="base" inkscape:cy="11.598252" inkscape:cx="14.604444" inkscape:zoom="14" showgrid="true" borderopacity="1.0" bordercolor="#666666" pagecolor="#ffffff" inkscape:window-y="23" inkscape:window-x="0" inkscape:window-height="944" inkscape:window-width="1280" inkscape:pageshadow="2" inkscape:pageopacity="0.0" inkscape:current-layer="layer1" inkscape:document-units="px" inkscape:grid-bbox="true">
	</sodipodi:namedview>
<g>
	<g>
		<path d="M16,21.242c-4.939,0-8.957-4.018-8.957-8.957S11.06,3.328,16,3.328c4.938,0,8.958,4.018,8.958,8.958
			S20.938,21.242,16,21.242L16,21.242z"/>
		<circle fill="#02ABD8" cx="16" cy="12.285" r="8.36"/>
		
			<radialGradient id="SVGID_1_" cx="17.3428" cy="952.1445" r="10.6508" gradientTransform="matrix(1 0 0 1 2.4399 -942.7451)" gradientUnits="userSpaceOnUse">
			<stop  offset="0" style="stop-color:#B0D0DA"/>
			<stop  offset="0.8121" style="stop-color:#0C7C9E"/>
			<stop  offset="0.9879" style="stop-color:#033A4A"/>
		</radialGradient>
		<path fill="url(#SVGID_1_)" d="M16,20.049c-4.28,0-7.763-3.484-7.763-7.764c0-4.28,3.482-7.763,7.763-7.763
			c4.28,0,7.764,3.483,7.764,7.763C23.764,16.564,20.279,20.049,16,20.049L16,20.049z"/>
	</g>
	<g>
		<path d="M7.214,19.814L0,14.091v-3.602l7.214-5.733v4.31L2.83,12.297l4.385,3.232V19.814z"/>
	</g>
	<g>
		<path d="M24.785,15.529l4.385-3.232l-4.385-3.232v-4.31L32,10.489v3.602l-7.215,5.724V15.529z"/>
	</g>
</g>
<g>
	<path id="path4992_2_" fill="#020202" d="M21.554,15.976c-0.021,0.006-0.041,0.012-0.062,0.021c0.002,0-0.063,0.021-0.063,0.02
		c0.002,0-0.083,0.021-0.08,0.021c0.001,0-0.063,0.042-0.063,0.041c0.002,0-0.063,0.041-0.062,0.04c0.002,0-0.063,0.042-0.062,0.039
		c0.002,0-0.063,0.043-0.062,0.041c0.001,0-0.063,0.063-0.062,0.062c0,0-0.043,0.063-0.041,0.061c0,0-0.041,0.063-0.041,0.063
		l-0.041,0.062c0,0-0.041,0.083-0.041,0.081c0,0-0.021,0.063-0.021,0.063c0,0-0.021,0.083-0.021,0.081c0,0-0.021,0.082-0.021,0.08
		c0,0,0,0.063,0,0.061c0,0,0,0.04,0,0.062c0,0.009,0,0.021,0,0.021v3.938h-3.926c0,0-0.01,0-0.021,0c-0.011,0-0.02,0-0.02,0
		c0.002,0-0.042,0-0.041,0c-0.008,0-0.014,0-0.02,0h-0.041l-0.041,0.021c0.002-0.001-0.041,0-0.041,0
		c0.002-0.001-0.041,0.021-0.041,0.021c0.002,0-0.041,0.002-0.039,0c0,0-0.041,0.021-0.039,0.02c0,0-0.041,0.021-0.041,0.021
		c0.002,0-0.043,0.021-0.041,0.021c0,0-0.043,0.021-0.041,0.021l-0.021,0.018c0,0-0.042,0.021-0.04,0.021
		c0,0-0.042,0.021-0.041,0.021s-0.021,0.021-0.02,0.021c0,0-0.043,0.041-0.041,0.041c0.001,0-0.021,0.021-0.021,0.021
		c0.002,0-0.042,0.021-0.041,0.02c0.002,0-0.021,0.043-0.02,0.041c0.001,0-0.021,0.041-0.021,0.041s-0.021,0.021-0.02,0.021
		c0,0-0.041,0.042-0.041,0.041c0.001,0-0.021,0.041-0.02,0.04c0,0-0.021,0.041-0.021,0.04c0.001,0-0.001,0.021,0,0.02
		c0.001,0-0.021,0.042-0.021,0.041l-0.02,0.041v0.041l-0.02,0.041c0,0,0,0.041,0,0.04c0,0-0.021,0.042-0.021,0.041
		c0,0,0,0.041,0,0.04c0,0,0,0.042,0,0.041v0.041v4.522c0,0,0,0.043,0,0.041v0.041v0.041l0.021,0.041c0,0,0,0.041,0,0.039l0.02,0.063
		l0.02,0.041c0,0,0.002,0.041,0,0.04c0,0,0.021,0.04,0.021,0.039c-0.001,0,0.021,0.042,0.021,0.041c-0.002,0,0.021,0.041,0.02,0.041
		c0,0,0.021,0.021,0.02,0.02c0,0,0.043,0.041,0.041,0.041c0,0,0.021,0.041,0.021,0.04c-0.001,0,0.021,0.041,0.02,0.041
		c-0.001,0,0.043,0.021,0.041,0.021c-0.001,0,0.021,0.041,0.021,0.041c-0.002,0,0.041,0.021,0.041,0.019
		c-0.002,0,0.041,0.021,0.039,0.021c0,0,0.043,0.041,0.041,0.041l0.021,0.021c0,0,0.042,0.021,0.04,0.021
		c0-0.002,0.042,0.021,0.042,0.021c-0.002-0.001,0.041,0.021,0.04,0.021c-0.001-0.002,0.042,0,0.042,0
		c-0.002-0.002,0.041,0.021,0.04,0.02c-0.002,0,0.063,0.021,0.061,0.021h0.041c-0.002,0,0.041,0.021,0.041,0.02
		c-0.002,0,0.041,0,0.041,0c-0.002,0,0.041,0,0.041,0c-0.002,0,0.041,0,0.039,0h3.959v3.939v0.02c0,0.013,0,0.021,0,0.021v0.041
		c0,0.008,0,0.014,0,0.021v0.041l0.021,0.041c-0.002,0,0,0.041,0,0.04c-0.002,0,0.02,0.042,0.02,0.041v0.041
		c0,0,0.021,0.041,0.021,0.04c-0.002,0,0.02,0.041,0.02,0.041l0.021,0.041c-0.002,0,0.02,0.041,0.02,0.041l0.021,0.021
		c-0.002,0,0.02,0.041,0.02,0.039l0.021,0.04c-0.002,0,0.02,0.021,0.02,0.021l0.041,0.041l0.021,0.021
		c-0.001,0,0.021,0.041,0.021,0.041l0.041,0.021c-0.003,0,0.039,0.02,0.039,0.02c-0.001,0,0.021,0.021,0.021,0.021
		c-0.004,0,0.039,0.039,0.039,0.039l0.041,0.021c-0.002-0.001,0.041,0.021,0.041,0.021c-0.002-0.002,0.021,0,0.021,0
		c-0.001-0.002,0.042,0.021,0.041,0.019c-0.001,0,0.041,0.021,0.041,0.021c-0.002,0,0.041,0.002,0.04,0
		c-0.001,0,0.042,0.021,0.041,0.021s0.041,0,0.041,0c-0.001,0,0.041,0.021,0.04,0.021c-0.001,0,0.042,0,0.041,0s0.041,0,0.041,0
		c-0.001,0,0.041,0,0.04,0h4.523c-0.002,0,0.041,0,0.041,0c-0.004,0,0.041,0,0.041,0c-0.004,0,0.041,0,0.041,0
		c-0.004,0,0.041-0.021,0.039-0.021s0.043,0,0.041,0c0,0,0.063-0.021,0.063-0.021c-0.001,0.002,0.041-0.021,0.041-0.021
		c-0.001,0.002,0.041,0,0.04,0c-0.001,0.002,0.042-0.021,0.041-0.019c-0.001,0,0.041-0.021,0.041-0.021
		c-0.001,0,0.041-0.021,0.041-0.021c-0.001,0,0.021-0.021,0.021-0.021c-0.003,0,0.041-0.041,0.039-0.041
		c-0.001,0,0.04-0.021,0.04-0.02l0.041-0.021c0,0,0.021-0.041,0.021-0.04c-0.002,0,0.041-0.021,0.041-0.02
		c-0.002,0,0.021-0.043,0.021-0.041c-0.001,0,0.021-0.042,0.021-0.04c-0.002,0,0.041-0.042,0.041-0.041
		c-0.002,0,0.021-0.021,0.021-0.021c-0.002,0,0.021-0.04,0.021-0.04c-0.002,0,0.021-0.041,0.021-0.041
		c-0.001,0,0.021-0.041,0.021-0.041c-0.002,0,0-0.041,0-0.039c-0.002,0,0.021-0.043,0.021-0.041c-0.002,0,0.021-0.063,0.021-0.063
		c-0.002,0,0-0.041,0-0.04c-0.002,0,0.021-0.043,0.021-0.04c-0.002,0,0-0.042,0-0.041c0,0,0-0.043,0-0.041v-0.041v-3.959h3.95
		c-0.003,0,0.041,0,0.04,0c-0.002,0,0.042,0,0.041,0c-0.002,0,0.041,0,0.041,0c-0.002,0,0.041-0.021,0.041-0.021
		c-0.003,0,0.041-0.002,0.04,0c-0.002,0,0.063-0.021,0.063-0.021c-0.002,0,0.041-0.021,0.041-0.021c-0.002,0,0.041,0,0.039,0
		c-0.001,0,0.043-0.021,0.04-0.021c0,0,0.042-0.021,0.041-0.021c-0.001,0.002,0.041-0.021,0.041-0.021l0.021-0.021
		c-0.002,0,0.041-0.039,0.041-0.039c-0.002,0,0.041-0.021,0.041-0.021c-0.002,0,0.039-0.021,0.039-0.021s0.021-0.041,0.021-0.04
		c-0.002,0,0.041-0.021,0.041-0.021c-0.002,0,0.02-0.041,0.02-0.041l0.021-0.041c-0.002,0,0.041-0.041,0.041-0.041
		c-0.002,0,0.02-0.021,0.02-0.02c-0.002,0,0.021-0.041,0.021-0.041c-0.001,0,0.021-0.04,0.021-0.039l0.021-0.041
		c-0.002,0,0-0.041,0-0.041c-0.002,0,0.021-0.041,0.021-0.041l0.021-0.062c-0.001,0,0-0.04,0-0.04c-0.001,0,0.021-0.041,0.021-0.041
		s0-0.041,0-0.039c0,0,0-0.043,0-0.041v-0.041v-4.524c0,0,0-0.041,0-0.04c0,0,0-0.042,0-0.041c0,0,0-0.041,0-0.039
		c0,0-0.021-0.043-0.021-0.041c0,0-0.001-0.041,0-0.041c0,0-0.021-0.063-0.021-0.061c0,0-0.021-0.041-0.021-0.04
		c0,0-0.002-0.041,0-0.04l-0.021-0.041l-0.021-0.041c0,0-0.021-0.04-0.021-0.039c0,0-0.021-0.021-0.02-0.021
		c0,0-0.041-0.043-0.041-0.041l-0.021-0.041c0,0-0.021-0.041-0.02-0.041l-0.041-0.021l-0.021-0.041c0,0-0.041-0.021-0.039-0.021
		c0,0-0.043-0.021-0.041-0.021c0.003,0-0.041-0.041-0.041-0.04c0.003,0-0.021-0.021-0.021-0.021c0.003,0-0.041-0.021-0.041-0.021
		c0.001,0-0.041-0.021-0.041-0.021c0.003,0-0.04-0.021-0.04-0.021c0.002,0.001-0.041,0-0.039,0c0,0.001-0.043-0.021-0.041-0.021
		c0,0.002-0.063-0.021-0.063-0.021c0.001,0.001-0.041,0-0.04,0c0.001,0.001-0.042-0.021-0.041-0.021s-0.042,0-0.041,0
		s-0.042,0-0.041,0s-0.042,0-0.04,0h-3.963V16.87v-0.041v-0.041c0,0-0.001-0.041,0-0.039c0,0-0.021-0.043-0.021-0.04
		c0,0,0-0.044,0-0.041c0,0-0.021-0.063-0.02-0.063c0,0-0.021-0.043-0.02-0.041c0,0-0.002-0.041,0-0.041c0,0-0.021-0.041-0.021-0.039
		c0,0-0.021-0.041-0.02-0.041l-0.021-0.041c0,0-0.021-0.021-0.02-0.02c0,0-0.043-0.041-0.041-0.041l-0.021-0.04l-0.021-0.04
		c0,0-0.043-0.021-0.041-0.02l-0.021-0.041c0,0-0.042-0.021-0.041-0.021c0,0-0.041-0.021-0.041-0.02
		c0.001,0-0.041-0.042-0.041-0.041c0.002,0-0.021-0.021-0.021-0.021c0.002,0-0.041-0.021-0.041-0.02
		c0.002,0-0.041-0.021-0.041-0.021c0.002,0-0.041-0.021-0.041-0.021c0.002,0-0.041-0.001-0.039,0c0,0-0.043-0.021-0.041-0.021
		s-0.063-0.02-0.062-0.02c0.001,0-0.042,0-0.041,0l-0.039-0.019c0.003,0-0.041,0-0.038,0c0,0-0.044,0-0.041,0
		c0.002,0-0.043,0-0.041,0h-4.484c0.002,0-0.043,0-0.041,0s-0.043,0-0.04,0c0,0-0.009,0-0.021,0c0,0-0.014,0-0.021,0
		c0.002,0-0.043,0-0.04,0c-0.015,0-0.028,0-0.041,0V15.976L21.554,15.976L21.554,15.976z"/>
	<path id="rect4855-4_2_" fill="#6FBD46" d="M21.723,16.862v4.849h-4.846v4.522h4.846v4.849h4.523v-4.849h4.849V21.71h-4.849v-4.849
		L21.723,16.862L21.723,16.862z"/>
	
		<linearGradient id="path4903-3_1_" gradientUnits="userSpaceOnUse" x1="-1851.0928" y1="2331.0176" x2="-1838.002" y2="2331.0176" gradientTransform="matrix(0 -1 1 0 -2307.0313 -1820.5752)">
		<stop  offset="0" style="stop-color:#AED58A"/>
		<stop  offset="1" style="stop-color:#1E9046"/>
	</linearGradient>
	<path id="path4903-3_2_" fill="url(#path4903-3_1_)" d="M22.289,17.427v4.848h-4.848v3.396h4.848v4.848h3.395V25.67h4.847v-3.396
		h-4.847v-4.848H22.289z"/>
</g>
</svg>
