<?xml version="1.0" encoding="utf-8"?>
<!-- Generator: Adobe Illustrator 14.0.0, SVG Export Plug-In . SVG Version: 6.00 Build 43363)  -->
<!DOCTYPE svg PUBLIC "-//W3C//DTD SVG 1.1//EN" "http://www.w3.org/Graphics/SVG/1.1/DTD/svg11.dtd">
<svg version="1.1"
	 id="svg2" sodipodi:docbase="C:\Radix\dev\trunk\org.radixware\kernel\designer\src\common.resources\src\org\radixware\kernel\designer\resources\icons\edit" sodipodi:docname="not_defined.svg" inkscape:version="0.45.1" sodipodi:version="0.32" inkscape:output_extension="org.inkscape.output.svg.inkscape" xmlns:ns="http://creativecommons.org/ns#" xmlns:dc="http://purl.org/dc/elements/1.1/" xmlns:cc="http://web.resource.org/cc/" xmlns:rdf="http://www.w3.org/1999/02/22-rdf-syntax-ns#" xmlns:svg="http://www.w3.org/2000/svg" xmlns:sodipodi="http://sodipodi.sourceforge.net/DTD/sodipodi-0.dtd" xmlns:inkscape="http://www.inkscape.org/namespaces/inkscape"
	 xmlns="http://www.w3.org/2000/svg" xmlns:xlink="http://www.w3.org/1999/xlink" x="0px" y="0px" width="32px" height="32px"
	 viewBox="0 0 32 32" enable-background="new 0 0 32 32" xml:space="preserve">
<sodipodi:namedview  id="base" pagecolor="#ffffff" bordercolor="#666666" borderopacity="1.0" objecttolerance="10" gridtolerance="10000" showgrid="false" guidetolerance="10" inkscape:zoom="18.744133" inkscape:cx="15.599582" inkscape:cy="16.5183" inkscape:current-layer="layer1" inkscape:pageopacity="0.0" inkscape:pageshadow="2" inkscape:window-width="1280" inkscape:window-height="944" inkscape:window-x="-8" inkscape:window-y="-8" inkscape:document-units="px">
	</sodipodi:namedview>
<path d="M16,30C8.282,30,2.002,23.723,2,16.007c-0.001-3.746,1.454-7.261,4.098-9.905C8.742,3.458,12.257,2.001,15.996,2
	C23.718,2,29.998,8.277,30,15.992c0.001,3.747-1.454,7.262-4.098,9.906c-2.644,2.645-6.159,4.102-9.898,4.103H16z"/>
<path id="path3152" sodipodi:cy="15.594867" sodipodi:ry="12.243832" sodipodi:rx="12.243832" sodipodi:cx="14.751283" sodipodi:type="arc" fill="#00ACDA" d="
	M29,16c0.002,7.178-5.816,12.998-12.997,13C8.824,29.002,3.002,23.186,3,16.007C3,16.005,3,16.002,3,16
	C2.998,8.822,8.817,3.002,15.997,3C23.176,2.998,28.998,8.814,29,15.992C29,15.995,29,15.997,29,16z"/>
<radialGradient id="SVGID_1_" cx="20.75" cy="12.875" r="12.8879" gradientUnits="userSpaceOnUse">
	<stop  offset="0" style="stop-color:#B1D2DB"/>
	<stop  offset="1" style="stop-color:#0B7C9E"/>
</radialGradient>
<path fill="url(#SVGID_1_)" d="M16,28C9.385,28,4.002,22.62,4,16.006c-0.001-3.211,1.247-6.224,3.512-8.49
	C9.778,5.25,12.792,4.001,15.997,4C22.615,4,27.998,9.38,28,15.993c0.001,3.212-1.246,6.225-3.512,8.492
	c-2.267,2.266-5.279,3.515-8.485,3.516H16z"/>
<path d="M12.775,25.836c-0.552,0-1-0.447-1-1V20.58c0-0.281,0.116-0.534,0.302-0.716c-0.078-0.143-0.123-0.307-0.123-0.48v-0.45
	c0-0.91,0.125-1.648,0.383-2.257c0.253-0.598,0.631-1.146,1.124-1.632c0.441-0.435,1.364-1.151,2.822-2.188
	c0.622-0.435,0.704-0.665,0.705-0.667c-0.006-0.125-0.051-0.161-0.083-0.188c-0.029-0.023-0.2-0.14-0.732-0.14
	c-0.409,0-0.726,0.102-0.968,0.312c-0.133,0.115-0.372,0.438-0.485,1.317c-0.065,0.503-0.494,0.872-0.991,0.872
	c-0.035,0-0.071-0.002-0.106-0.005l-5.359-0.569C8,13.76,7.758,13.628,7.591,13.421c-0.167-0.207-0.244-0.472-0.215-0.736
	C7.588,10.735,8.431,9.138,9.88,7.94c1.426-1.178,3.571-1.776,6.375-1.776c2.176,0,3.982,0.408,5.365,1.214
	c1.997,1.159,3.011,2.758,3.011,4.752c0,0.875-0.278,1.721-0.826,2.513c-0.513,0.737-1.466,1.57-2.916,2.547
	c-1.134,0.771-1.417,1.137-1.477,1.231c-0.139,0.218-0.209,0.543-0.209,0.962c0,0.171-0.043,0.331-0.118,0.472
	c0.192,0.182,0.312,0.439,0.312,0.725v4.256c0,0.553-0.447,1-1,1H12.775z"/>
<path id="text3170" fill="#FFFFFF" d="M18.203,19.384h-5.248v-0.45c0-0.768,0.101-1.389,0.304-1.867
	c0.203-0.478,0.504-0.914,0.905-1.31c0.4-0.395,1.301-1.09,2.7-2.086c0.746-0.521,1.119-0.999,1.119-1.434s-0.15-0.772-0.449-1.014
	s-0.752-0.361-1.36-0.361c-0.654,0-1.195,0.186-1.623,0.557c-0.428,0.371-0.702,1.02-0.822,1.944L8.37,12.794
	c0.184-1.691,0.9-3.052,2.147-4.083s3.161-1.547,5.738-1.547c2.008,0,3.627,0.359,4.862,1.078c1.676,0.973,2.514,2.269,2.514,3.888
	c0,0.672-0.217,1.32-0.648,1.944c-0.434,0.624-1.316,1.387-2.652,2.287c-0.93,0.632-1.518,1.14-1.762,1.523
	C18.326,18.268,18.203,18.768,18.203,19.384L18.203,19.384z M12.775,20.58h5.621v4.256h-5.621V20.58z"/>
</svg>
