<?xml version="1.0" encoding="utf-8"?>
<!-- Generator: Adobe Illustrator 14.0.0, SVG Export Plug-In . SVG Version: 6.00 Build 43363)  -->
<!DOCTYPE svg PUBLIC "-//W3C//DTD SVG 1.1//EN" "http://www.w3.org/Graphics/SVG/1.1/DTD/svg11.dtd">
<svg version="1.1" id="Layer_1" xmlns="http://www.w3.org/2000/svg" xmlns:xlink="http://www.w3.org/1999/xlink" x="0px" y="0px"
	 width="32px" height="32px" viewBox="0 0 32 32" enable-background="new 0 0 32 32" xml:space="preserve">
<g>
	<path id="path4251_13_" fill="#020202" d="M13.822,23.417c-0.641,0-1.219-0.382-1.469-0.972l-0.461-1.084
		c-0.088,0.002-0.291,0.004-0.306,0.004l-0.442,1.09c-0.037,0.092-0.093,0.177-0.162,0.247l-0.447,0.454
		c-0.143,0.145-0.334,0.227-0.537,0.228c0,0-0.637,0.007-0.641,0.007c-0.099,0-0.195-0.019-0.285-0.056L5.45,21.868
		c-0.604-0.246-0.995-0.826-0.995-1.479c0-0.209,0.041-0.414,0.119-0.604l0.447-1.104c-0.068-0.067-0.14-0.134-0.205-0.201
		l-0.752,0.318c-0.435,0.184-0.435,0.184-0.521,0.199C3.5,19.006,3.455,19.01,3.408,19.01l-0.633,0.001
		c-0.199,0-0.392-0.079-0.533-0.218l-0.453-0.441C1.717,18.28,1.66,18.195,1.62,18.104l-1.524-3.599
		c-0.037-0.092-0.059-0.192-0.061-0.293l-0.003-0.635c-0.001-0.201,0.077-0.396,0.22-0.539l0.443-0.453
		c0.07-0.071,0.154-0.129,0.246-0.167l1.074-0.455c-0.004-0.08-0.007-0.291-0.007-0.316c-0.483-0.195-1.012-0.41-1.067-0.432
		c-0.096-0.037-0.186-0.095-0.26-0.168l-0.449-0.443c-0.145-0.142-0.226-0.334-0.229-0.535L0,9.432
		C-0.001,9.33,0.018,9.23,0.057,9.137l1.465-3.621c0.037-0.093,0.094-0.177,0.162-0.248l0.445-0.455
		c0.143-0.145,0.334-0.227,0.538-0.229c0,0,0.642-0.006,0.644-0.006c0.099,0,0.197,0.02,0.287,0.057l1.111,0.451
		c0.066-0.07,0.133-0.141,0.201-0.207c0,0-0.482-1.145-0.484-1.146C4.396,3.65,4.381,3.564,4.379,3.477V3.421
		c-0.208-0.296-0.184-0.708,0.08-0.976l0.584-0.594C5.115,1.78,5.197,1.725,5.289,1.686L8.887,0.16
		c0.199-0.083,0.406-0.124,0.617-0.124c0.645,0,1.223,0.382,1.471,0.975l0.461,1.081c0.082-0.001,0.287-0.003,0.307-0.003
		l0.441-1.092C12.432,0.391,13.012,0,13.664,0c0.205,0,0.402,0.039,0.593,0.116l3.623,1.468c0.604,0.249,0.995,0.828,0.995,1.479
		c0,0.201-0.039,0.401-0.113,0.594l-0.455,1.117c0.068,0.066,0.139,0.134,0.205,0.203l1.104-0.47c0.093-0.039,0.19-0.059,0.293-0.06
		c0,0,0.64-0.006,0.642-0.006c0.2,0,0.391,0.078,0.533,0.219l0.456,0.443c0.071,0.07,0.129,0.154,0.168,0.248l1.524,3.601
		c0.041,0.093,0.061,0.192,0.063,0.294l0.003,0.633c0,0.202-0.077,0.395-0.22,0.539l-0.444,0.453
		C22.563,10.943,22.48,11,22.389,11.04l-1.074,0.455c0.006,0.079,0.006,0.29,0.006,0.315l1.072,0.436
		c0.092,0.038,0.176,0.091,0.246,0.16l0.455,0.443c0.146,0.144,0.229,0.336,0.232,0.541l0.006,0.637
		c0.002,0.1-0.018,0.201-0.055,0.293l-1.467,3.623c-0.25,0.605-0.83,0.994-1.479,0.994c-0.204,0-0.402-0.039-0.592-0.113
		l-1.117-0.452c-0.066,0.069-0.137,0.137-0.204,0.206c0.231,0.541,0.479,1.127,0.493,1.167c0.025,0.078,0.04,0.157,0.04,0.239
		l0.001,0.625c0.002,0.199-0.078,0.393-0.219,0.535l-0.444,0.457c-0.069,0.071-0.153,0.129-0.247,0.17l-3.598,1.524
		C14.244,23.377,14.036,23.417,13.822,23.417L13.822,23.417z M9.17,20.684c0.204-0.5,0.572-1.408,0.572-1.408
		c0.117-0.291,0.398-0.479,0.707-0.479c0.025,0,0.055,0.002,0.08,0.005l0.363,0.038c0.26,0.028,0.519,0.042,0.774,0.042
		c0.295,0,0.59-0.018,0.875-0.055l0.369-0.045c0.03-0.006,0.063-0.006,0.092-0.006c0.304,0,0.584,0.182,0.703,0.467l0.592,1.398
		c0.569-0.242,1.364-0.58,1.937-0.82l-0.592-1.397c-0.136-0.313-0.043-0.678,0.223-0.893l0.285-0.229
		c0.43-0.345,0.82-0.74,1.16-1.178l0.223-0.287c0.146-0.191,0.371-0.297,0.604-0.297c0.096,0,0.192,0.018,0.286,0.055l1.411,0.571
		c0.161-0.399,0.787-1.95,0.787-1.95l-1.407-0.57c-0.315-0.127-0.509-0.449-0.473-0.787l0.04-0.361
		c0.027-0.26,0.042-0.516,0.042-0.768c0-0.305-0.021-0.601-0.056-0.881l-0.049-0.361c-0.046-0.34,0.145-0.67,0.459-0.803L20.58,9.09
		l-0.82-1.938c-0.615,0.262-1.4,0.594-1.4,0.594c-0.096,0.041-0.195,0.061-0.297,0.061c-0.227,0-0.447-0.102-0.596-0.287
		l-0.229-0.285c-0.346-0.426-0.743-0.817-1.178-1.155l-0.289-0.224c-0.27-0.209-0.367-0.573-0.237-0.892l0.569-1.407l-1.947-0.789
		c-0.252,0.621-0.569,1.408-0.569,1.408c-0.118,0.291-0.399,0.477-0.709,0.477c-0.024,0-0.053,0-0.079-0.002l-0.365-0.039
		c-0.261-0.028-0.517-0.043-0.775-0.043c-0.291,0-0.588,0.018-0.879,0.054l-0.355,0.047c-0.033,0.004-0.066,0.007-0.1,0.007
		c-0.303,0-0.581-0.182-0.701-0.467L9.029,2.811C8.459,3.053,7.664,3.389,7.093,3.63l0.593,1.4C7.82,5.346,7.727,5.711,7.461,5.924
		L7.174,6.152c-0.428,0.344-0.816,0.74-1.156,1.176L5.795,7.611C5.646,7.803,5.422,7.909,5.191,7.909
		c-0.099,0-0.194-0.019-0.287-0.056c0,0-0.784-0.317-1.409-0.57c0,0-0.604,1.492-0.788,1.949c0.618,0.25,1.406,0.568,1.406,0.568
		c0.318,0.129,0.511,0.45,0.474,0.791l-0.04,0.364c-0.027,0.253-0.041,0.51-0.041,0.767c0,0.291,0.018,0.588,0.055,0.887
		l0.045,0.363c0.041,0.338-0.146,0.664-0.461,0.797c0,0-0.777,0.328-1.397,0.59c0.241,0.572,0.579,1.365,0.819,1.936
		c0.613-0.261,1.396-0.594,1.396-0.594c0.098-0.041,0.199-0.061,0.299-0.061c0.227,0,0.449,0.101,0.598,0.285l0.229,0.286
		c0.345,0.431,0.739,0.819,1.173,1.155l0.289,0.224c0.271,0.208,0.37,0.573,0.241,0.892l-0.569,1.412L9.17,20.684z"/>
	<path id="path1817_19_" fill="#FFFFFF" d="M18.87,9.77c0.112,0.735,0.126,1.494,0.019,2.252l0.82,0.332
		c0.053-0.642,0.029-1.283-0.066-1.906l2.119-0.898l-1.525-3.598l-0.528,0.224l1.163,2.747L18.87,9.77z"/>
	<path id="path1819_19_" fill="#FFFFFF" d="M17.505,15.436c-0.448,0.619-0.983,1.16-1.579,1.606l0.848,2.002l-3.391,1.438
		l-0.848-2.002c-0.737,0.115-1.496,0.123-2.254,0.02l-0.815,2.016l-2.983-1.209l-0.432,1.066L9.67,21.84l0.867-2.138
		c0.802,0.114,1.605,0.104,2.387-0.021l0.896,2.121l3.597-1.522l-0.899-2.121c0.633-0.474,1.2-1.048,1.676-1.702l2.137,0.861
		l1.467-3.618l-1.068-0.433l-1.205,2.983L17.505,15.436z"/>
	<path id="path1821_19_" fill="#FFFFFF" d="M5.26,15.536l-2.003,0.847l-1.161-2.744l-0.527,0.227L3.09,17.46l2.12-0.897
		c0.38,0.506,0.826,0.965,1.321,1.375l0.334-0.821C6.248,16.664,5.708,16.13,5.26,15.536z"/>
	
		<linearGradient id="path1830_1_" gradientUnits="userSpaceOnUse" x1="-729.4907" y1="492.6953" x2="-728.5212" y2="492.6953" gradientTransform="matrix(5.1929 22.7877 22.7877 -5.1929 -7429.6802 19184.7402)">
		<stop  offset="0" style="stop-color:#F7F7FB"/>
		<stop  offset="0.5773" style="stop-color:#C9EAFB"/>
		<stop  offset="1" style="stop-color:#F8F8F7"/>
	</linearGradient>
	<path id="path1830_19_" fill="url(#path1830_1_)" d="M3.67,10.578c-0.08,0.554-0.096,1.109-0.061,1.656
		c0.016,0.244,0.039,0.49,0.078,0.731l-1.59,0.673l1.159,2.745l2.003-0.847c0.447,0.595,0.987,1.129,1.606,1.579l-0.333,0.821
		c0.126,0.104,0.251,0.205,0.38,0.299L6.48,19.305l2.982,1.209l0.816-2.015c0.758,0.104,1.517,0.097,2.254-0.021l0.848,2.002
		l3.393-1.438l-0.85-2.002c0.596-0.446,1.131-0.986,1.58-1.607l2.018,0.815l1.205-2.981l-1.066-0.433
		c0.023-0.162,0.035-0.321,0.049-0.481l-0.82-0.332c0.107-0.76,0.096-1.516-0.018-2.252l2.001-0.848l-1.164-2.746l-1.592,0.676
		c-0.146-0.196-0.306-0.383-0.47-0.563c-0.369-0.406-0.779-0.781-1.229-1.11l0.862-2.136l-3.617-1.466l-0.869,2.137
		c-0.805-0.115-1.607-0.104-2.389,0.018L9.507,1.607L9.404,1.652L6.014,3.088L5.911,3.132l0.899,2.121
		C6.178,5.729,5.613,6.3,5.137,6.957L3,6.091L1.793,9.075L1.534,9.712L3.67,10.578z M10.466,14.666
		c-1.187-0.479-1.925-1.594-1.987-2.793c-0.022-0.452,0.045-0.917,0.228-1.366c0.66-1.631,2.521-2.422,4.155-1.758
		c0.447,0.178,0.83,0.455,1.136,0.785c0.819,0.879,1.104,2.185,0.625,3.368C13.963,14.539,12.102,15.325,10.466,14.666z"/>
	<path id="path4266_13_" fill="#020202" d="M14.963,13.033c0.73-1.807-0.146-3.874-1.954-4.606C11.2,7.693,9.135,8.568,8.402,10.38
		c-0.732,1.806,0.144,3.874,1.951,4.606C12.163,15.718,14.23,14.841,14.963,13.033z M14.32,12.773
		c-0.59,1.457-2.252,2.158-3.705,1.569c-1.455-0.587-2.16-2.251-1.571-3.706s2.251-2.16,3.706-1.57S14.908,11.318,14.32,12.773z"/>
	<path id="path1834_24_" fill="#2788C5" d="M14.943,13.034c0.731-1.81-0.145-3.873-1.953-4.606C11.182,7.695,9.117,8.57,8.385,10.38
		c-0.732,1.806,0.143,3.874,1.951,4.606C12.146,15.718,14.213,14.842,14.943,13.034z M14.303,12.775
		c-0.588,1.457-2.252,2.156-3.707,1.569c-1.455-0.589-2.158-2.253-1.568-3.708c0.589-1.455,2.25-2.158,3.705-1.568
		C14.186,9.657,14.891,11.322,14.303,12.775z"/>
	<path id="path1838_19_" fill="#2788C5" d="M14.163,22.588l3.597-1.525l0.445-0.457l-0.003-0.625
		c-0.001-0.004-0.454-1.068-0.681-1.604c0.324-0.284,0.623-0.588,0.906-0.919c0.424,0.171,1.606,0.65,1.606,0.65
		c0.424,0.17,0.905-0.037,1.081-0.457l1.464-3.623l-0.006-0.637l-0.457-0.445c0,0-1.041-0.424-1.58-0.641
		c0.013-0.195,0.032-0.387,0.032-0.58c0-0.244-0.024-0.484-0.047-0.727c0.436-0.186,1.578-0.669,1.578-0.669l0.444-0.453
		l-0.003-0.632l-1.525-3.602L20.564,5.2l-0.638,0.005c0,0-1.177,0.499-1.597,0.678c-0.287-0.326-0.592-0.628-0.919-0.906
		c0.172-0.422,0.649-1.607,0.649-1.607c0.043-0.104,0.062-0.209,0.062-0.311c0-0.328-0.196-0.642-0.517-0.771L13.982,0.82
		c-0.424-0.172-0.907,0.033-1.082,0.457c0,0-0.422,1.046-0.643,1.589c-0.433-0.03-0.869-0.023-1.306,0.011
		c-0.185-0.436-0.669-1.574-0.669-1.574c-0.178-0.422-0.664-0.619-1.088-0.443L5.602,2.384l-0.444,0.45l-0.14,0.143l0.137-0.139
		l0.005,0.63C5.16,3.471,5.613,4.539,5.837,5.068c-0.319,0.283-0.625,0.59-0.903,0.92c-0.425-0.17-1.606-0.651-1.606-0.651
		l-0.64,0.006L2.244,5.797L0.777,9.419l0.007,0.638l0.45,0.442c0.002,0,1.047,0.424,1.588,0.644
		c-0.014,0.191-0.031,0.388-0.031,0.58c0,0.243,0.023,0.484,0.045,0.728c-0.438,0.187-1.576,0.669-1.576,0.669L0.813,13.57
		l0.006,0.634l1.522,3.598l0.453,0.443h0.633c0.005-0.003,1.068-0.457,1.603-0.683c0.283,0.326,0.592,0.627,0.918,0.905
		c-0.17,0.423-0.652,1.607-0.652,1.607c-0.041,0.103-0.059,0.208-0.059,0.31c0,0.33,0.195,0.643,0.517,0.772l3.622,1.468
		l0.633-0.008l0.45-0.453c0,0,0.462-1.141,0.642-1.584c0.439,0.027,0.875,0.021,1.308-0.014c0.186,0.438,0.669,1.578,0.669,1.578
		C13.254,22.566,13.742,22.766,14.163,22.588z M10.33,19.898c0,0-0.631,1.555-0.721,1.775c-0.229-0.093-3.135-1.269-3.361-1.359
		c0.131-0.325,0.857-2.119,0.857-2.119l-0.291-0.225c-0.479-0.369-0.918-0.801-1.303-1.281l-0.229-0.285
		c0,0-1.881,0.801-2.102,0.894c-0.096-0.225-1.318-3.114-1.416-3.342c0.325-0.138,2.102-0.89,2.102-0.89l-0.045-0.364
		c-0.04-0.324-0.061-0.652-0.061-0.979c0-0.283,0.018-0.566,0.047-0.849l0.039-0.364c0,0-1.894-0.767-2.115-0.859
		c0.096-0.23,1.27-3.133,1.363-3.361C3.423,6.421,5.21,7.145,5.21,7.145l0.224-0.289c0.377-0.484,0.809-0.922,1.282-1.301
		l0.285-0.229c0,0-0.798-1.886-0.892-2.104c0.216-0.09,3.113-1.318,3.343-1.414c0.139,0.324,0.891,2.103,0.891,2.103l0.364-0.048
		c0.607-0.072,1.225-0.078,1.825-0.012l0.364,0.037c0,0,0.769-1.892,0.855-2.115c0.232,0.093,3.137,1.269,3.366,1.361
		C16.984,3.458,16.26,5.25,16.26,5.25l0.29,0.225c0.478,0.373,0.916,0.803,1.302,1.281l0.229,0.285c0,0,1.88-0.796,2.103-0.891
		c0.1,0.232,1.321,3.115,1.416,3.343c-0.312,0.13-2.104,0.892-2.104,0.892l0.048,0.361c0.043,0.324,0.063,0.652,0.063,0.98
		c0,0.281-0.017,0.563-0.047,0.847l-0.037,0.362c0,0,1.891,0.767,2.112,0.856c-0.094,0.233-1.268,3.135-1.36,3.363
		c-0.224-0.089-2.114-0.855-2.114-0.855l-0.226,0.289c-0.377,0.484-0.808,0.923-1.281,1.304l-0.286,0.229
		c0,0,0.795,1.88,0.891,2.102c-0.228,0.096-3.11,1.32-3.342,1.416c-0.138-0.324-0.89-2.104-0.89-2.104L12.66,19.58
		c-0.6,0.076-1.212,0.082-1.826,0.018l-0.365-0.041L10.33,19.898L10.33,19.898z"/>
	<path id="path4735_5_" fill="#020202" d="M25.371,32c-0.523,0-0.994-0.313-1.197-0.794l-0.201-0.474l-0.193,0.479
		c-0.034,0.09-0.09,0.171-0.157,0.24l-0.302,0.305c-0.137,0.141-0.323,0.221-0.52,0.223c0,0-0.432,0.004-0.434,0.004
		c-0.094,0-0.189-0.018-0.277-0.053l-2.439-0.988c-0.491-0.2-0.809-0.674-0.809-1.205c0-0.174,0.033-0.34,0.098-0.496l0.188-0.467
		l-0.323,0.139c-0.142,0.061-0.234,0.094-0.234,0.094c-0.068,0.02-0.135,0.029-0.205,0.029l-0.426,0.001
		c-0.193,0-0.379-0.077-0.519-0.212l-0.308-0.299c-0.069-0.068-0.125-0.149-0.163-0.239l-1.026-2.423
		c-0.037-0.09-0.058-0.188-0.058-0.284l-0.003-0.429c0-0.195,0.076-0.385,0.212-0.522l0.3-0.305
		c0.066-0.069,0.148-0.124,0.238-0.163l0.475-0.201c-0.236-0.096-0.439-0.177-0.469-0.189c-0.094-0.037-0.18-0.093-0.252-0.164
		l-0.303-0.299c-0.14-0.137-0.217-0.324-0.221-0.52l-0.004-0.428c-0.001-0.099,0.018-0.194,0.055-0.284l0.985-2.439
		c0.036-0.088,0.091-0.17,0.159-0.239l0.299-0.305c0.137-0.14,0.324-0.223,0.521-0.224c0,0,0.434-0.005,0.436-0.005
		c0.096,0,0.191,0.019,0.279,0.055l0.473,0.193l-0.211-0.506c-0.027-0.073-0.045-0.148-0.047-0.228
		c-0.16-0.28-0.121-0.644,0.115-0.882l0.395-0.4c0.068-0.07,0.148-0.125,0.238-0.162l2.422-1.025
		c0.164-0.07,0.332-0.104,0.504-0.104c0.525,0,0.996,0.313,1.199,0.795l0.201,0.471l0.195-0.479c0.2-0.492,0.674-0.813,1.205-0.813
		c0.166,0,0.329,0.031,0.483,0.094l2.438,0.988c0.492,0.201,0.812,0.675,0.812,1.205c0,0.168-0.033,0.332-0.097,0.488l-0.192,0.477
		l0.474-0.2c0.09-0.04,0.188-0.06,0.284-0.06c0,0,0.433-0.004,0.435-0.004c0.192,0,0.379,0.076,0.516,0.211l0.307,0.297
		c0.07,0.068,0.127,0.15,0.164,0.24l1.027,2.424c0.039,0.092,0.061,0.188,0.061,0.287v0.426c0,0.195-0.074,0.383-0.211,0.521
		l-0.299,0.306c-0.068,0.07-0.15,0.125-0.24,0.164l-0.475,0.2l0.475,0.192c0.09,0.035,0.17,0.089,0.24,0.156l0.307,0.298
		c0.142,0.139,0.222,0.325,0.224,0.522L32,25.441c0,0.099-0.018,0.194-0.055,0.285l-0.986,2.438
		c-0.203,0.495-0.678,0.812-1.207,0.812c-0.168,0-0.328-0.031-0.482-0.094l-0.479-0.193c0.111,0.263,0.207,0.487,0.207,0.49
		c0.035,0.086,0.053,0.18,0.053,0.271l0.002,0.421c0,0.195-0.076,0.383-0.211,0.521L28.541,30.7
		c-0.068,0.069-0.148,0.125-0.24,0.164l-2.422,1.026C25.715,31.965,25.545,32,25.371,32L25.371,32z M22.115,29.637l0.299-0.736
		c0.113-0.282,0.387-0.465,0.686-0.465c0.027,0,0.053,0.002,0.078,0.006l0.246,0.024c0.166,0.017,0.33,0.026,0.496,0.026
		c0.188,0,0.375-0.012,0.559-0.036l0.252-0.03c0.031-0.004,0.062-0.005,0.09-0.005c0.293,0,0.566,0.175,0.683,0.45l0.312,0.732
		c0.278-0.117,0.604-0.256,0.885-0.375c-0.154-0.363-0.311-0.731-0.311-0.731c-0.13-0.306-0.041-0.659,0.217-0.865l0.192-0.155
		c0.272-0.22,0.522-0.474,0.744-0.756l0.147-0.19c0.144-0.188,0.361-0.288,0.586-0.288c0.095,0,0.188,0.016,0.277,0.053l0.738,0.299
		c0.109-0.273,0.359-0.892,0.359-0.892l-0.736-0.3c-0.307-0.125-0.494-0.437-0.457-0.764l0.025-0.244
		c0.018-0.17,0.024-0.328,0.024-0.49c0-0.188-0.01-0.377-0.034-0.563l-0.031-0.247c-0.043-0.329,0.139-0.646,0.445-0.778
		l0.735-0.312l-0.377-0.886l-0.731,0.313c-0.095,0.039-0.191,0.058-0.289,0.058c-0.222,0-0.437-0.099-0.578-0.277l-0.154-0.192
		c-0.223-0.272-0.479-0.524-0.756-0.742l-0.191-0.148c-0.264-0.202-0.357-0.556-0.232-0.863l0.299-0.735l-0.893-0.362l-0.297,0.739
		c-0.113,0.28-0.387,0.462-0.688,0.462c-0.025,0-0.051-0.002-0.078-0.003L24.41,19.34c-0.166-0.018-0.33-0.027-0.496-0.027
		c-0.188,0-0.377,0.013-0.566,0.035l-0.234,0.03c-0.032,0.004-0.063,0.007-0.098,0.007c-0.295,0-0.563-0.175-0.682-0.451
		l-0.311-0.732c-0.279,0.117-0.604,0.257-0.885,0.376l0.311,0.731c0.129,0.306,0.041,0.66-0.219,0.868l-0.193,0.153
		c-0.275,0.223-0.525,0.477-0.742,0.753l-0.146,0.192c-0.145,0.188-0.362,0.289-0.588,0.289c-0.092,0-0.186-0.018-0.276-0.055
		l-0.738-0.299c0,0-0.248,0.619-0.358,0.893c0.364,0.147,0.735,0.299,0.735,0.299c0.31,0.123,0.494,0.438,0.459,0.766l-0.024,0.246
		c-0.019,0.161-0.027,0.325-0.027,0.49c0,0.19,0.012,0.383,0.035,0.57l0.029,0.242c0.041,0.327-0.142,0.645-0.445,0.773l-0.732,0.31
		c0.119,0.281,0.256,0.603,0.375,0.884c0.363-0.152,0.73-0.312,0.73-0.312c0.096-0.039,0.193-0.06,0.291-0.06
		c0.221,0,0.436,0.1,0.578,0.277l0.154,0.193c0.223,0.275,0.475,0.525,0.752,0.738l0.194,0.149c0.263,0.203,0.356,0.558,0.231,0.865
		l-0.299,0.739L22.115,29.637z"/>
	<path id="path1817_18_" fill="#FFFFFF" d="M28.77,22.587c0.076,0.495,0.084,1.004,0.013,1.515l0.551,0.225
		c0.037-0.432,0.021-0.862-0.043-1.282l1.426-0.604l-1.024-2.422l-0.357,0.149l0.783,1.849L28.77,22.587z"/>
	<path id="path1819_18_" fill="#FFFFFF" d="M27.85,26.4c-0.303,0.416-0.662,0.781-1.063,1.08l0.57,1.349l-2.283,0.967l-0.57-1.347
		c-0.496,0.078-1.008,0.084-1.518,0.014l-0.551,1.355l-2.009-0.813l-0.29,0.72l2.438,0.987l0.584-1.438
		c0.539,0.078,1.08,0.069,1.607-0.016l0.604,1.43l2.422-1.024l-0.605-1.431c0.426-0.319,0.81-0.702,1.127-1.146l1.438,0.581
		l0.985-2.438l-0.719-0.291l-0.813,2.008L27.85,26.4L27.85,26.4z"/>
	<path id="path1821_18_" fill="#FFFFFF" d="M19.607,26.467l-1.349,0.571l-0.78-1.849l-0.355,0.152l1.023,2.422l1.428-0.604
		c0.256,0.341,0.557,0.649,0.891,0.926l0.225-0.553C20.271,27.227,19.908,26.867,19.607,26.467z"/>
	
		<linearGradient id="path1830_2_" gradientUnits="userSpaceOnUse" x1="-728.7383" y1="493.0918" x2="-728.0862" y2="493.0918" gradientTransform="matrix(5.1929 22.7877 22.7877 -5.1929 -7429.6802 19184.7402)">
		<stop  offset="0" style="stop-color:#F7F7FB"/>
		<stop  offset="0.5773" style="stop-color:#F8E6A3"/>
		<stop  offset="1" style="stop-color:#F8F8F7"/>
	</linearGradient>
	<path id="path1830_18_" fill="url(#path1830_2_)" d="M18.537,23.129c-0.053,0.373-0.064,0.748-0.041,1.115
		c0.012,0.165,0.027,0.33,0.053,0.494l-1.07,0.451l0.781,1.848l1.348-0.571c0.302,0.401,0.664,0.759,1.08,1.064l-0.225,0.553
		c0.086,0.069,0.17,0.14,0.256,0.201l-0.291,0.721l2.008,0.813l0.549-1.355c0.513,0.07,1.021,0.064,1.519-0.014l0.57,1.347
		l2.282-0.967l-0.571-1.349c0.401-0.299,0.764-0.664,1.063-1.08l1.357,0.548l0.813-2.009l-0.719-0.291
		c0.016-0.107,0.023-0.215,0.033-0.323l-0.551-0.224c0.072-0.511,0.063-1.021-0.016-1.517l1.348-0.571l-0.785-1.847l-1.07,0.452
		c-0.098-0.133-0.207-0.258-0.316-0.38c-0.248-0.272-0.522-0.524-0.828-0.748l0.582-1.437L25.26,17.07l-0.582,1.438
		c-0.543-0.078-1.084-0.07-1.607,0.012l-0.606-1.428l-0.067,0.028l-2.283,0.969l-0.07,0.028l0.607,1.43
		c-0.426,0.319-0.81,0.703-1.127,1.146l-1.438-0.582l-0.813,2.009L17.1,22.549L18.537,23.129L18.537,23.129z M23.111,25.881
		c-0.799-0.322-1.295-1.072-1.338-1.881c-0.017-0.303,0.031-0.615,0.151-0.918c0.445-1.098,1.697-1.63,2.798-1.186
		c0.301,0.123,0.559,0.308,0.766,0.53c0.551,0.593,0.744,1.47,0.42,2.269C25.465,25.796,24.213,26.326,23.111,25.881z"/>
	<path id="path4750_5_" fill="#020202" d="M26.139,24.783c0.494-1.217-0.098-2.609-1.313-3.102
		c-1.218-0.494-2.607,0.096-3.103,1.313c-0.492,1.215,0.098,2.606,1.313,3.101C24.254,26.59,25.645,26.001,26.139,24.783
		L26.139,24.783z M25.707,24.607c-0.398,0.98-1.516,1.453-2.496,1.058c-0.979-0.396-1.453-1.517-1.057-2.495
		c0.395-0.979,1.516-1.453,2.496-1.059C25.627,22.51,26.102,23.628,25.707,24.607z"/>
	<path id="path1834_23_" fill="#FACC36" d="M26.125,24.784c0.494-1.218-0.096-2.607-1.314-3.101c-1.217-0.494-2.604,0.094-3.1,1.313
		c-0.492,1.217,0.096,2.607,1.313,3.102C24.244,26.59,25.633,26.001,26.125,24.784z M25.695,24.609
		c-0.398,0.979-1.519,1.451-2.496,1.056c-0.979-0.396-1.453-1.517-1.057-2.495c0.395-0.979,1.516-1.452,2.494-1.057
		C25.617,22.512,26.09,23.63,25.695,24.609z"/>
	<path id="path1838_18_" fill="#FACC36" d="M25.6,31.215l2.422-1.027l0.302-0.308l-0.005-0.421c0-0.002-0.305-0.721-0.457-1.078
		c0.22-0.191,0.421-0.396,0.611-0.619c0.283,0.114,1.082,0.439,1.082,0.439c0.285,0.113,0.609-0.025,0.728-0.309l0.985-2.438
		l-0.004-0.429l-0.307-0.299c0,0-0.701-0.285-1.066-0.433c0.01-0.132,0.023-0.261,0.023-0.39c0-0.164-0.018-0.326-0.033-0.488
		c0.293-0.125,1.063-0.45,1.063-0.45l0.302-0.305l-0.002-0.427l-1.027-2.422l-0.305-0.299l-0.431,0.002c0,0-0.791,0.336-1.073,0.457
		c-0.191-0.22-0.396-0.421-0.617-0.609c0.114-0.283,0.438-1.082,0.438-1.082c0.028-0.069,0.041-0.141,0.041-0.207
		c0-0.223-0.133-0.432-0.347-0.521l-2.438-0.986c-0.285-0.113-0.609,0.022-0.728,0.31c0,0-0.284,0.703-0.434,1.065
		c-0.291-0.019-0.587-0.015-0.88,0.01c-0.125-0.293-0.45-1.061-0.45-1.061c-0.119-0.283-0.445-0.416-0.729-0.3l-2.423,1.028
		l-0.299,0.303l-0.094,0.096l0.092-0.094l0.002,0.424c0.002,0.004,0.31,0.723,0.459,1.077c-0.219,0.191-0.422,0.397-0.608,0.62
		c-0.285-0.115-1.082-0.439-1.082-0.439l-0.429,0.004l-0.301,0.306l-0.985,2.438l0.004,0.429l0.303,0.298
		c0,0,0.703,0.285,1.068,0.434c-0.011,0.129-0.021,0.26-0.021,0.389c0,0.166,0.016,0.328,0.029,0.49
		c-0.293,0.127-1.063,0.448-1.063,0.448l-0.299,0.306l0.003,0.427l1.024,2.423l0.307,0.298l0.426-0.001
		c0.002-0.001,0.719-0.307,1.078-0.458c0.191,0.22,0.398,0.422,0.619,0.608c-0.115,0.285-0.439,1.082-0.439,1.082
		c-0.027,0.069-0.041,0.141-0.041,0.209c0,0.223,0.133,0.432,0.35,0.521l2.438,0.986l0.429-0.005l0.299-0.305
		c0,0,0.313-0.77,0.434-1.065c0.295,0.018,0.588,0.015,0.879-0.011c0.125,0.295,0.451,1.063,0.451,1.063
		C24.988,31.2,25.316,31.334,25.6,31.215L25.6,31.215L25.6,31.215z M23.02,29.404c0,0-0.424,1.046-0.483,1.193
		c-0.154-0.063-2.109-0.853-2.265-0.914c0.088-0.22,0.576-1.427,0.576-1.427l-0.195-0.151c-0.321-0.248-0.618-0.539-0.877-0.861
		l-0.153-0.192c0,0-1.267,0.538-1.414,0.603c-0.063-0.15-0.888-2.098-0.953-2.25c0.218-0.094,1.412-0.6,1.412-0.6l-0.03-0.244
		c-0.025-0.22-0.039-0.44-0.039-0.662c0-0.189,0.012-0.381,0.03-0.569l0.024-0.245c0,0-1.272-0.514-1.424-0.576
		c0.064-0.154,0.854-2.109,0.918-2.264c0.222,0.089,1.427,0.576,1.427,0.576l0.147-0.196c0.256-0.324,0.543-0.619,0.863-0.876
		l0.193-0.154c0,0-0.537-1.268-0.603-1.414c0.146-0.062,2.097-0.889,2.248-0.953c0.095,0.219,0.604,1.414,0.604,1.414l0.244-0.031
		c0.408-0.049,0.824-0.053,1.229-0.008l0.246,0.024c0,0,0.516-1.274,0.574-1.425c0.156,0.063,2.111,0.854,2.266,0.916
		c-0.088,0.22-0.576,1.427-0.576,1.427l0.197,0.147c0.32,0.252,0.615,0.541,0.877,0.865l0.152,0.191c0,0,1.264-0.539,1.416-0.602
		c0.068,0.158,0.889,2.098,0.953,2.25c-0.209,0.088-1.418,0.603-1.418,0.603l0.033,0.243c0.028,0.217,0.043,0.438,0.043,0.658
		c0,0.189-0.013,0.381-0.033,0.572l-0.023,0.242c0,0,1.273,0.516,1.422,0.576c-0.064,0.156-0.854,2.111-0.916,2.266
		c-0.15-0.061-1.424-0.576-1.424-0.576l-0.15,0.195c-0.254,0.324-0.541,0.621-0.861,0.877l-0.192,0.155c0,0,0.535,1.265,0.601,1.413
		c-0.152,0.064-2.097,0.89-2.25,0.953c-0.093-0.219-0.599-1.415-0.599-1.415l-0.246,0.03c-0.401,0.05-0.817,0.055-1.229,0.011
		l-0.245-0.026L23.02,29.404L23.02,29.404z"/>
	<path id="path1834_22_" fill="#020202" d="M25.625,24.58c0.381-0.941-0.076-2.018-1.018-2.396
		c-0.939-0.383-2.017,0.073-2.396,1.016c-0.381,0.941,0.074,2.017,1.016,2.396C24.168,25.979,25.244,25.521,25.625,24.58z
		 M25.293,24.445c-0.309,0.757-1.174,1.123-1.93,0.818c-0.758-0.308-1.125-1.174-0.818-1.93c0.307-0.757,1.172-1.125,1.93-0.818
		C25.23,22.823,25.598,23.688,25.293,24.445z"/>
</g>
</svg>
