<?xml version="1.0" encoding="UTF-8" standalone="no"?>
<!-- Created with Inkscape (http://www.inkscape.org/) -->
<svg
   xmlns:dc="http://purl.org/dc/elements/1.1/"
   xmlns:cc="http://creativecommons.org/ns#"
   xmlns:rdf="http://www.w3.org/1999/02/22-rdf-syntax-ns#"
   xmlns:svg="http://www.w3.org/2000/svg"
   xmlns="http://www.w3.org/2000/svg"
   xmlns:xlink="http://www.w3.org/1999/xlink"
   xmlns:sodipodi="http://sodipodi.sourceforge.net/DTD/sodipodi-0.dtd"
   xmlns:inkscape="http://www.inkscape.org/namespaces/inkscape"
   width="32px"
   height="32px"
   id="svg2401"
   sodipodi:version="0.32"
   inkscape:version="0.46"
   sodipodi:docname="include.svg"
   inkscape:output_extension="org.inkscape.output.svg.inkscape">
  <defs
     id="defs2403">
    <linearGradient
       id="linearGradient3292">
      <stop
         style="stop-color:#20ea00;stop-opacity:1;"
         offset="0"
         id="stop3294" />
      <stop
         style="stop-color:#009607;stop-opacity:1;"
         offset="1"
         id="stop3296" />
    </linearGradient>
    <linearGradient
       id="linearGradient3310">
      <stop
         id="stop3312"
         offset="0"
         style="stop-color:#ffffff;stop-opacity:1;" />
      <stop
         style="stop-color:#f26666;stop-opacity:1;"
         offset="0.5"
         id="stop3314" />
      <stop
         id="stop3316"
         offset="1"
         style="stop-color:#af0000;stop-opacity:1;" />
    </linearGradient>
    <linearGradient
       id="linearGradient3244">
      <stop
         style="stop-color:#0068c6;stop-opacity:1;"
         offset="0"
         id="stop3246" />
      <stop
         style="stop-color:#ffffff;stop-opacity:1;"
         offset="1"
         id="stop3248" />
    </linearGradient>
    <linearGradient
       id="linearGradient3231">
      <stop
         style="stop-color:#00c611;stop-opacity:1;"
         offset="0"
         id="stop3233" />
      <stop
         style="stop-color:#ffffff;stop-opacity:1;"
         offset="1"
         id="stop3235" />
    </linearGradient>
    <inkscape:perspective
       sodipodi:type="inkscape:persp3d"
       inkscape:vp_x="0 : 16 : 1"
       inkscape:vp_y="0 : 1000 : 0"
       inkscape:vp_z="32 : 16 : 1"
       inkscape:persp3d-origin="16 : 10.666667 : 1"
       id="perspective2409" />
    <linearGradient
       inkscape:collect="always"
       xlink:href="#linearGradient3231"
       id="linearGradient3237"
       x1="19.459274"
       y1="24.587833"
       x2="31.353049"
       y2="24.587833"
       gradientUnits="userSpaceOnUse"
       gradientTransform="matrix(1.2273693,0,0,1.1775227,-68.110242,-6.9546932)" />
    <linearGradient
       inkscape:collect="always"
       xlink:href="#linearGradient3244"
       id="linearGradient3250"
       x1="1.5766381"
       y1="16.336681"
       x2="31.5625"
       y2="16.336681"
       gradientUnits="userSpaceOnUse"
       gradientTransform="matrix(0.7813286,0.229225,-0.229225,0.7813286,4.5610149,-3.3309604)" />
    <linearGradient
       inkscape:collect="always"
       xlink:href="#linearGradient3292"
       id="linearGradient3298"
       x1="16.818382"
       y1="21.241629"
       x2="30.690992"
       y2="29.011009"
       gradientUnits="userSpaceOnUse" />
  </defs>
  <sodipodi:namedview
     id="base"
     pagecolor="#ffffff"
     bordercolor="#666666"
     borderopacity="1.0"
     inkscape:pageopacity="0.0"
     inkscape:pageshadow="2"
     inkscape:zoom="11.197802"
     inkscape:cx="7.5560312"
     inkscape:cy="23.144259"
     inkscape:current-layer="layer1"
     showgrid="true"
     inkscape:grid-bbox="true"
     inkscape:document-units="px"
     inkscape:window-width="1280"
     inkscape:window-height="944"
     inkscape:window-x="-8"
     inkscape:window-y="-8" />
  <metadata
     id="metadata2406">
    <rdf:RDF>
      <cc:Work
         rdf:about="">
        <dc:format>image/svg+xml</dc:format>
        <dc:type
           rdf:resource="http://purl.org/dc/dcmitype/StillImage" />
      </cc:Work>
    </rdf:RDF>
  </metadata>
  <g
     id="layer1"
     inkscape:label="Layer 1"
     inkscape:groupmode="layer">
    <path
       style="opacity:0.2;fill:#000000;fill-opacity:1;fill-rule:nonzero;stroke:#000000;stroke-width:0.81425953;stroke-linecap:butt;stroke-linejoin:miter;stroke-miterlimit:4;stroke-dasharray:none;stroke-dashoffset:0;stroke-opacity:1"
       d="M 13.410679,1.1183207 L 8.4701275,6.2983867 C 7.9438427,5.6078493 7.4255836,4.8926284 7.216494,4.1538873 C 6.6025191,1.9846342 4.6777183,2.1959467 3.0490457,3.8063433 C 1.7401994,5.1005038 2.2165728,7.2991834 3.9291852,7.8566419 C 4.6066768,8.0771664 5.2995563,8.4925145 5.9876418,8.8848386 L 1.1389031,13.932732 L 5.0760399,17.686575 C 4.5278705,18.082749 3.9672538,18.463486 3.3951474,18.625413 C 1.2258941,19.239387 1.4443693,21.139773 3.0547666,22.768445 C 4.3489268,24.077291 6.5476055,23.600918 7.1050658,21.888306 C 7.2732202,21.371702 7.5536276,20.858027 7.8535869,20.331195 L 12.63421,24.915896 L 16.124015,21.246031 C 15.767003,21.05619 15.425786,20.866815 15.075414,20.752767 C 13.362801,20.195308 12.879265,18.021046 14.188111,16.726886 C 15.816783,15.11649 17.741586,14.905176 18.35556,17.074429 C 18.473164,17.489945 18.685037,17.903616 18.948023,18.308968 L 24.874406,12.118738 L 20.961685,8.3720587 C 20.80098,8.6838321 20.652775,9.0065957 20.553071,9.312903 C 19.99561,11.025516 17.779679,11.470308 16.485519,10.161462 C 14.875121,8.5327911 14.688225,6.6151524 16.857478,6.0011775 C 17.228265,5.8962319 17.602444,5.7033994 17.965699,5.477727 L 13.410679,1.1183207 z"
       id="path3252" />
    <path
       style="fill:url(#linearGradient3250);fill-opacity:1;fill-rule:nonzero;stroke:#000000;stroke-width:0.81425953;stroke-linecap:butt;stroke-linejoin:miter;stroke-miterlimit:4;stroke-dasharray:none;stroke-dashoffset:0;stroke-opacity:1"
       d="M 14.938955,1.0661258 L 9.9984038,6.2461918 C 9.4721194,5.5556544 8.9538603,4.8404335 8.7447707,4.1016924 C 8.1307958,1.9324393 6.205995,2.1437518 4.5773224,3.7541484 C 3.2684761,5.0483088 3.7448495,7.2469885 5.4574619,7.8044469 C 6.1349535,8.0249714 6.827833,8.4403197 7.5159185,8.8326438 L 2.6671797,13.880537 L 6.6043166,17.63438 C 6.0561472,18.030554 5.4955304,18.411291 4.9234241,18.573218 C 2.7541708,19.187192 2.972646,21.087578 4.5830433,22.71625 C 5.8772034,24.025096 8.0758821,23.548723 8.6333425,21.836111 C 8.8014969,21.319507 9.0819042,20.805832 9.3818636,20.279 L 14.162486,24.863701 L 17.652291,21.193836 C 17.295279,21.003995 16.954063,20.81462 16.60369,20.700572 C 14.891078,20.143113 14.407542,17.968851 15.716387,16.674691 C 17.345059,15.064295 19.269862,14.852981 19.883836,17.022234 C 20.00144,17.437751 20.213313,17.851421 20.476299,18.256773 L 26.402682,12.066543 L 22.489962,8.3198638 C 22.329256,8.6316373 22.181051,8.9544008 22.081347,9.2607081 C 21.523887,10.973321 19.307956,11.418113 18.013795,10.109267 C 16.403398,8.4805962 16.216502,6.5629575 18.385755,5.9489825 C 18.756541,5.8440369 19.130721,5.6512045 19.493976,5.4255321 L 14.938955,1.0661258 z"
       id="rect3181" />
    <path
       style="opacity:1;fill:url(#linearGradient3298);fill-opacity:1;fill-rule:evenodd;stroke:#000000;stroke-width:0.27733210000000003;stroke-linecap:square;stroke-linejoin:miter;stroke-miterlimit:4;stroke-dasharray:none;stroke-dashoffset:0;stroke-opacity:1"
       d="M 31.534662,26.174834 L 24.712727,20.887939 L 24.640207,24.496778 C 21.00691,24.805274 16.620516,22.924711 16.413174,18.361795 C 16.413174,18.361795 11.547235,28.098958 24.63527,28.370452 L 24.699276,31.444325 C 24.699276,31.444325 31.534662,26.174834 31.534662,26.174834 z"
       id="path7827"
       sodipodi:nodetypes="ccccccc" />
  </g>
</svg>
