<?xml version="1.0" encoding="utf-8"?>
<!-- Generator: Adobe Illustrator 14.0.0, SVG Export Plug-In . SVG Version: 6.00 Build 43363)  -->
<!DOCTYPE svg PUBLIC "-//W3C//DTD SVG 1.1//EN" "http://www.w3.org/Graphics/SVG/1.1/DTD/svg11.dtd">
<svg version="1.1"
	 id="svg2" sodipodi:docbase="C:\Radix\dev\trunk\org.radixware\kernel\designer\src\common.resources\src\org\radixware\kernel\designer\resources\icons\dds" sodipodi:docname="diagram.svg" inkscape:version="0.45.1" sodipodi:version="0.32" inkscape:output_extension="org.inkscape.output.svg.inkscape" xmlns:ns="http://creativecommons.org/ns#" xmlns:dc="http://purl.org/dc/elements/1.1/" xmlns:cc="http://web.resource.org/cc/" xmlns:rdf="http://www.w3.org/1999/02/22-rdf-syntax-ns#" xmlns:svg="http://www.w3.org/2000/svg" xmlns:sodipodi="http://sodipodi.sourceforge.net/DTD/sodipodi-0.dtd" xmlns:inkscape="http://www.inkscape.org/namespaces/inkscape"
	 xmlns="http://www.w3.org/2000/svg" xmlns:xlink="http://www.w3.org/1999/xlink" x="0px" y="0px" width="32px" height="32px"
	 viewBox="0 0 32 32" enable-background="new 0 0 32 32" xml:space="preserve">
<sodipodi:namedview  width="48px" height="48px" id="base" pagecolor="#ffffff" bordercolor="#000000" borderopacity="0.29411765" showgrid="false" inkscape:zoom="4.3352941" inkscape:cx="23.677394" inkscape:cy="4.9208935" inkscape:current-layer="g9137" inkscape:pageopacity="0.0" inkscape:pageshadow="2" inkscape:window-width="1264" inkscape:window-height="944" inkscape:window-x="0" inkscape:window-y="44" inkscape:document-units="px" inkscape:guide-bbox="true" showguides="true" showborder="true" inkscape:showpageshadow="false">
	</sodipodi:namedview>
<path id="path3628_1_" fill="none" stroke="#000000" stroke-width="0.7056" d="M6.688,14.922v10.141l0,0h12.187"/>
<path d="M1,17.986c-0.552,0-1-0.447-1-1V1.027c0-0.552,0.448-1,1-1h11.921c0.552,0,1,0.448,1,1v15.959c0,0.553-0.448,1-1,1H1z"/>
<rect id="rect3588" x="0.96" y="0.908" fill="#FFFFFF" width="12" height="16.064"/>
<path id="path3600" fill="none" stroke="#000000" stroke-width="0.7056" d="M4.957,4.688v12.724"/>
<linearGradient id="rect3602_2_" gradientUnits="userSpaceOnUse" x1="595.6084" y1="-370.2383" x2="621.9069" y2="-370.2383" gradientTransform="matrix(0.4751 0 0 -1.0169 -282.2613 -372.6874)">
	<stop  offset="0" style="stop-color:#F59699"/>
	<stop  offset="1" style="stop-color:#8F1A1D"/>
</linearGradient>
<rect id="rect3602" x="0.989" y="0.908" fill="url(#rect3602_2_)" width="12" height="5.825"/>
<path id="path3600_1_" fill="none" stroke="#000000" stroke-width="0.7056" d="M0.599,6.733h12.724"/>
<path d="M19.078,32c-0.552,0-1-0.447-1-1V15.041c0-0.552,0.448-1,1-1H31c0.553,0,1,0.448,1,1V31c0,0.553-0.447,1-1,1H19.078z"/>
<rect id="rect3588_1_" x="19.039" y="14.922" fill="#FFFFFF" width="12" height="16.064"/>
<path id="path3600_3_" fill="none" stroke="#000000" stroke-width="0.7056" d="M23.035,18.701v12.724"/>
<linearGradient id="rect3602_3_" gradientUnits="userSpaceOnUse" x1="633.6572" y1="-384.0186" x2="659.9547" y2="-384.0186" gradientTransform="matrix(0.4751 0 0 -1.0169 -282.2613 -372.6874)">
	<stop  offset="0" style="stop-color:#B0D68C"/>
	<stop  offset="1" style="stop-color:#1E9046"/>
</linearGradient>
<rect id="rect3602_1_" x="19.067" y="14.922" fill="url(#rect3602_3_)" width="12" height="5.824"/>
<path id="path3600_2_" fill="none" stroke="#000000" stroke-width="0.7056" d="M18.678,20.746H31.4"/>
</svg>
