<?xml version="1.0" encoding="utf-8"?>
<!-- Generator: Adobe Illustrator 14.0.0, SVG Export Plug-In . SVG Version: 6.00 Build 43363)  -->
<!DOCTYPE svg PUBLIC "-//W3C//DTD SVG 1.1//EN" "http://www.w3.org/Graphics/SVG/1.1/DTD/svg11.dtd">
<svg version="1.1"
	 id="svg2" sodipodi:docbase="C:\Radix\dev\trunk\org.radixware\kernel\designer\src\common.resources\src\org\radixware\kernel\designer\resources\icons\dds" sodipodi:docname="external_table.svg" inkscape:version="0.45.1" sodipodi:version="0.32" inkscape:output_extension="org.inkscape.output.svg.inkscape" xmlns:ns="http://creativecommons.org/ns#" xmlns:dc="http://purl.org/dc/elements/1.1/" xmlns:cc="http://web.resource.org/cc/" xmlns:rdf="http://www.w3.org/1999/02/22-rdf-syntax-ns#" xmlns:svg="http://www.w3.org/2000/svg" xmlns:sodipodi="http://sodipodi.sourceforge.net/DTD/sodipodi-0.dtd" xmlns:inkscape="http://www.inkscape.org/namespaces/inkscape"
	 xmlns="http://www.w3.org/2000/svg" xmlns:xlink="http://www.w3.org/1999/xlink" x="0px" y="0px" width="32px" height="32px"
	 viewBox="0 0 32 32" enable-background="new 0 0 32 32" xml:space="preserve">
<sodipodi:namedview  width="48px" height="48px" id="base" pagecolor="#ffffff" bordercolor="#000000" borderopacity="1.0" showgrid="false" inkscape:zoom="6.0072935" inkscape:cx="-11.093657" inkscape:cy="10.465712" inkscape:current-layer="g9137" inkscape:pageopacity="0.0" inkscape:pageshadow="2" inkscape:window-width="1280" inkscape:window-height="944" inkscape:window-x="0" inkscape:window-y="23" inkscape:document-units="px">
	</sodipodi:namedview>
<g>
	<path d="M0.851,22.324C0.382,22.324,0,21.943,0,21.475V0.853C0,0.383,0.382,0,0.851,0h24.299C25.619,0,26,0.381,26,0.853v20.622
		c0,0.469-0.381,0.852-0.851,0.852L0.851,22.324L0.851,22.324z"/>
	<rect x="0.851" y="0.853" fill="#DAEBF1" width="24.299" height="20.622"/>
	
		<linearGradient id="SVGID_1_" gradientUnits="userSpaceOnUse" x1="561.4707" y1="-901.2383" x2="585.7695" y2="-901.2383" gradientTransform="matrix(1 0 0 -1 -560.6201 -897.5195)">
		<stop  offset="0" style="stop-color:#B0D68C"/>
		<stop  offset="1" style="stop-color:#1E9046"/>
	</linearGradient>
	<rect x="0.851" y="0.853" fill="url(#SVGID_1_)" width="24.299" height="5.732"/>
	<line fill="none" stroke="#000000" x1="0.851" y1="6.585" x2="25.149" y2="6.585"/>
	<line fill="none" stroke="#000000" x1="0.851" y1="11.488" x2="25.149" y2="11.488"/>
	<line fill="none" stroke="#000000" x1="0.851" y1="16.877" x2="25.149" y2="16.877"/>
	<line fill="none" stroke="#000000" x1="8.703" y1="6.598" x2="8.703" y2="21.486"/>
	<line fill="none" stroke="#000000" x1="17.352" y1="6.626" x2="17.352" y2="21.516"/>
</g>
<g>
	<path d="M16.464,32c-1.19,0-2.313-0.463-3.155-1.305C12.464,29.854,12,28.73,12,27.539c0-1.193,0.464-2.313,1.307-3.156
		l2.658-2.689c0.826-0.824,1.92-1.275,3.086-1.275c0.389,0,0.771,0.049,1.145,0.146l0.393-0.381
		c-0.396-1.521,0.018-3.127,1.133-4.244l2.663-2.662c0.82-0.824,1.948-1.279,3.173-1.279c1.198,0,2.313,0.455,3.139,1.279
		C31.535,14.118,32,15.238,32,16.432c0,1.191-0.465,2.313-1.309,3.154l-2.66,2.663c-0.826,0.823-1.926,1.276-3.096,1.276l0,0
		c-0.439,0-0.883-0.065-1.308-0.193l-0.263,0.264c0.474,1.566,0.074,3.277-1.086,4.438l-2.663,2.662
		C18.775,31.536,17.654,32,16.464,32L16.464,32z M16.461,26.749c-0.334,0.335-0.346,0.739-0.164,0.921
		c0.1,0.1,0.248,0.114,0.328,0.114c0.221,0,0.447-0.103,0.625-0.279l0.627-0.627c-0.191-0.103-0.369-0.231-0.525-0.39
		c-0.106-0.107-0.201-0.225-0.283-0.348L16.461,26.749z M25.98,17.232c0.121,0.082,0.237,0.177,0.345,0.283
		c0.157,0.156,0.286,0.334,0.389,0.524l0.823-0.823c0.17-0.17,0.27-0.371,0.281-0.566c0.006-0.102-0.01-0.244-0.116-0.353
		c-0.089-0.088-0.204-0.137-0.325-0.137c-0.186,0.011-0.432,0.106-0.626,0.301L25.98,17.232z"/>
	<path id="path11610_6_" fill="#6FBD46" d="M27.555,12.996c-0.881,0-1.785,0.304-2.465,0.986l-2.662,2.662
		c-1.033,1.033-1.238,2.545-0.691,3.813l-1.279,1.249c-1.26-0.537-2.751-0.338-3.779,0.688l-2.662,2.694
		c-1.353,1.353-1.353,3.548,0,4.897c1.354,1.351,3.545,1.351,4.896,0l2.663-2.662c1.074-1.074,1.26-2.676,0.625-3.977l1.183-1.184
		c1.292,0.627,2.872,0.443,3.943-0.624l2.661-2.663c1.353-1.352,1.353-3.544,0-4.896C29.311,13.307,28.436,12.996,27.555,12.996z
		 M27.291,15.165c0.418-0.024,0.82,0.131,1.118,0.427c0.591,0.592,0.551,1.618-0.165,2.333l-1.872,1.874
		c-0.324,0.322-0.726,0.447-1.118,0.492l0.362-0.361c0.47-0.471,0.47-1.24,0-1.707c-0.462-0.464-1.216-0.464-1.677,0l-0.229,0.196
		c0.086-0.294,0.251-0.581,0.491-0.821l1.843-1.842C26.4,15.398,26.87,15.189,27.291,15.165z M18.482,23.678l-0.426,0.426
		c-0.464,0.461-0.461,1.215,0,1.678c0.471,0.47,1.238,0.47,1.707,0l0.561-0.525c-0.053,0.393-0.199,0.79-0.527,1.117l-1.84,1.84
		c-0.712,0.712-1.781,0.752-2.367,0.165c-0.59-0.59-0.551-1.618,0.164-2.335l1.874-1.873C17.881,23.919,18.182,23.766,18.482,23.678
		z"/>
</g>
</svg>
