<?xml version="1.0" encoding="utf-8"?>
<!-- Generator: Adobe Illustrator 14.0.0, SVG Export Plug-In . SVG Version: 6.00 Build 43363)  -->
<!DOCTYPE svg PUBLIC "-//W3C//DTD SVG 1.1//EN" "http://www.w3.org/Graphics/SVG/1.1/DTD/svg11.dtd">
<svg version="1.1"
	 id="svg2" sodipodi:docbase="C:\Radix\dev\trunk\org.radixware\kernel\designer\src\common.resources\src\org\radixware\kernel\designer\resources\icons\dds" sodipodi:docname="first_rows.svg" inkscape:version="0.45.1" sodipodi:version="0.32" inkscape:output_extension="org.inkscape.output.svg.inkscape" xmlns:ns="http://creativecommons.org/ns#" xmlns:dc="http://purl.org/dc/elements/1.1/" xmlns:cc="http://web.resource.org/cc/" xmlns:rdf="http://www.w3.org/1999/02/22-rdf-syntax-ns#" xmlns:svg="http://www.w3.org/2000/svg" xmlns:sodipodi="http://sodipodi.sourceforge.net/DTD/sodipodi-0.dtd" xmlns:inkscape="http://www.inkscape.org/namespaces/inkscape"
	 xmlns="http://www.w3.org/2000/svg" xmlns:xlink="http://www.w3.org/1999/xlink" x="0px" y="0px" width="32px" height="32px"
	 viewBox="0 0 32 32" enable-background="new 0 0 32 32" xml:space="preserve">
<sodipodi:namedview  id="base" pagecolor="#ffffff" bordercolor="#666666" borderopacity="1.0" objecttolerance="10" gridtolerance="10000" showgrid="false" guidetolerance="10" inkscape:zoom="10.747917" inkscape:cx="1.1862764" inkscape:cy="17.142857" inkscape:current-layer="g3223" inkscape:pageopacity="0.0" inkscape:pageshadow="2" inkscape:window-width="1280" inkscape:window-height="944" inkscape:window-x="-8" inkscape:window-y="-8" inkscape:document-units="px">
	</sodipodi:namedview>
<path d="M1.047,29.737C0.47,29.737,0,29.267,0,28.69V3.31c0-0.578,0.47-1.049,1.047-1.049h29.906C31.531,2.261,32,2.729,32,3.31
	V28.69c0,0.576-0.469,1.049-1.047,1.049L1.047,29.737L1.047,29.737z"/>
<rect x="1.047" y="3.31" fill="#DAEBF1" width="29.906" height="25.381"/>
<g id="layer1" inkscape:label="Layer 1" inkscape:groupmode="layer">
	<g id="g2440" transform="translate(-0.1320592,-0.1991401)" inkscape:label="Layer 1">
		<g id="g9137" transform="matrix(1.4296341,0,0,1.4048764,1.4536942,1.6572345)">
			<linearGradient id="rect9147_1_" gradientUnits="userSpaceOnUse" x1="-0.1922" y1="8.4874" x2="29.7141" y2="8.4874">
				<stop  offset="0" style="stop-color:#B1D2DB"/>
				<stop  offset="1" style="stop-color:#0B7C9E"/>
			</linearGradient>
			<rect id="rect9147" x="-0.192" y="6.339" fill="url(#rect9147_1_)" width="20.919" height="4.296"/>
		</g>
	</g>
</g>
<linearGradient id="SVGID_1_" gradientUnits="userSpaceOnUse" x1="561.667" y1="-904.3564" x2="591.5732" y2="-904.3564" gradientTransform="matrix(1 0 0 -1 -560.6201 -897.5195)">
	<stop  offset="0" style="stop-color:#B0D68C"/>
	<stop  offset="1" style="stop-color:#1E9046"/>
</linearGradient>
<rect x="1.047" y="3.31" fill="url(#SVGID_1_)" width="29.906" height="7.055"/>
<line fill="none" stroke="#000000" x1="1.047" y1="10.364" x2="30.953" y2="10.364"/>
<line fill="none" stroke="#000000" x1="1.047" y1="16.399" x2="30.953" y2="16.399"/>
<line fill="none" stroke="#000000" x1="1.047" y1="23.032" x2="30.953" y2="23.032"/>
<line fill="none" stroke="#000000" x1="10.711" y1="10.381" x2="10.711" y2="28.706"/>
<line fill="none" stroke="#000000" x1="21.355" y1="10.415" x2="21.355" y2="28.741"/>
</svg>
