<?xml version="1.0" encoding="utf-8"?>
<!-- Generator: Adobe Illustrator 14.0.0, SVG Export Plug-In . SVG Version: 6.00 Build 43363)  -->
<!DOCTYPE svg PUBLIC "-//W3C//DTD SVG 1.1//EN" "http://www.w3.org/Graphics/SVG/1.1/DTD/svg11.dtd">
<svg version="1.1"
	 id="svg2" sodipodi:docbase="C:\Radix\dev\trunk\org.radixware\kernel\designer\src\common.resources\src\org\radixware\kernel\designer\resources\icons\dds" sodipodi:docname="package.svg" inkscape:version="0.45.1" sodipodi:version="0.32" inkscape:output_extension="org.inkscape.output.svg.inkscape" xmlns:ns="http://creativecommons.org/ns#" xmlns:dc="http://purl.org/dc/elements/1.1/" xmlns:cc="http://web.resource.org/cc/" xmlns:rdf="http://www.w3.org/1999/02/22-rdf-syntax-ns#" xmlns:svg="http://www.w3.org/2000/svg" xmlns:sodipodi="http://sodipodi.sourceforge.net/DTD/sodipodi-0.dtd" xmlns:inkscape="http://www.inkscape.org/namespaces/inkscape"
	 xmlns="http://www.w3.org/2000/svg" xmlns:xlink="http://www.w3.org/1999/xlink" x="0px" y="0px" width="32px" height="32px"
	 viewBox="0 0 32 32" enable-background="new 0 0 32 32" xml:space="preserve">
<sodipodi:namedview  width="48px" height="48px" id="base" pagecolor="#ffffff" bordercolor="#000000" borderopacity="0.29411765" showgrid="false" inkscape:zoom="3.3562099" inkscape:cx="28.294246" inkscape:cy="25.298887" inkscape:current-layer="g162" inkscape:pageopacity="0.0" inkscape:pageshadow="2" inkscape:window-width="1280" inkscape:window-height="944" inkscape:window-x="0" inkscape:window-y="44" inkscape:document-units="px" showborder="true" inkscape:showpageshadow="false">
	</sodipodi:namedview>
<g>
	<g>
		<path d="M16.423,32c-0.181,0-0.362-0.053-0.521-0.148c-0.298-0.18-0.48-0.504-0.48-0.855V15.807c0-0.377,0.215-0.725,0.55-0.893
			l14.03-7.116c0.143-0.073,0.301-0.107,0.453-0.107c0.184,0,0.363,0.052,0.521,0.146c0.297,0.184,0.48,0.505,0.48,0.854v15.116
			c0,0.375-0.211,0.717-0.547,0.889l-14.031,7.193C16.738,31.961,16.582,32,16.423,32L16.423,32z"/>
		<polygon fill="#F9A71E" points="16.423,15.807 30.455,8.69 30.455,23.807 16.423,30.996 		"/>
		
			<linearGradient id="SVGID_1_" gradientUnits="userSpaceOnUse" x1="15.3584" y1="-108.6177" x2="26.6045" y2="-108.6177" gradientTransform="matrix(1 0 0 -1 2.46 -88.8398)">
			<stop  offset="0" style="stop-color:#FFF3E1"/>
			<stop  offset="0.5394" style="stop-color:#F9A71E"/>
			<stop  offset="1" style="stop-color:#A26829"/>
		</linearGradient>
		<polygon fill="url(#SVGID_1_)" points="17.818,16.609 29.064,10.907 29.064,22.955 17.818,28.648 		"/>
		<path d="M15.035,32c-0.156,0-0.314-0.039-0.457-0.111L0.544,24.695C0.209,24.523,0,24.182,0,23.807V8.69
			c0-0.349,0.18-0.67,0.476-0.854C0.636,7.738,0.818,7.69,1,7.69c0.153,0,0.308,0.034,0.452,0.107l14.032,7.086
			c0.337,0.168,0.55,0.515,0.55,0.893v15.22c0,0.352-0.181,0.676-0.479,0.855C15.396,31.947,15.215,32,15.035,32L15.035,32z"/>
		<polygon fill="#F9A71E" points="1,23.807 1,8.69 15.035,15.776 15.035,30.996 		"/>
		
			<linearGradient id="SVGID_2_" gradientUnits="userSpaceOnUse" x1="11.0298" y1="-108.6436" x2="-1.3995" y2="-108.6436" gradientTransform="matrix(1 0 0 -1 2.46 -88.8398)">
			<stop  offset="0" style="stop-color:#FFF3E1"/>
			<stop  offset="0.5394" style="stop-color:#F9A71E"/>
			<stop  offset="1" style="stop-color:#A26829"/>
		</linearGradient>
		<polygon fill="url(#SVGID_2_)" points="2.395,22.955 2.395,10.96 13.64,16.662 13.64,28.648 		"/>
		<path d="M15.72,15.563c-0.154,0-0.31-0.036-0.45-0.107L1.534,8.49c-0.34-0.174-0.555-0.524-0.55-0.905
			C0.99,7.206,1.208,6.86,1.551,6.695l13.747-6.597C15.433,0.032,15.581,0,15.729,0c0.147,0,0.298,0.032,0.438,0.099l13.728,6.638
			c0.342,0.167,0.561,0.512,0.564,0.894c0.002,0.379-0.213,0.729-0.553,0.899l-13.735,6.928
			C16.03,15.528,15.874,15.563,15.72,15.563L15.72,15.563z"/>
		<polygon fill="#F9A71E" points="1.983,7.599 15.729,1 29.457,7.638 15.72,14.563 		"/>
		
			<linearGradient id="SVGID_3_" gradientUnits="userSpaceOnUse" x1="13.2539" y1="-101.8662" x2="13.2539" y2="-91.3809" gradientTransform="matrix(1 0 0 -1 2.46 -88.8398)">
			<stop  offset="0" style="stop-color:#FFF3E1"/>
			<stop  offset="0.5394" style="stop-color:#F9A71E"/>
			<stop  offset="1" style="stop-color:#A26829"/>
		</linearGradient>
		<polygon fill="url(#SVGID_3_)" points="5.079,7.626 15.729,2.541 26.35,7.619 15.729,13.026 		"/>
	</g>
	<g>
		<polygon points="24.439,27.27 23.439,28.137 23.439,11.552 24.439,11.552 24.439,27.27 		"/>
	</g>
	<g>
		<polygon points="8.017,28.137 7.016,27.545 7.016,10.96 8.017,10.96 8.017,26.68 		"/>
	</g>
	<g>
		<polygon points="15.814,24.406 0.061,16.721 0.5,15.822 16.251,23.51 15.814,24.406 		"/>
	</g>
	<g>
		<polygon points="15.784,24.137 15.344,23.238 31.096,15.552 31.537,16.45 15.784,24.137 		"/>
	</g>
	<g>
		<polygon points="24.08,11.786 8.327,4.099 8.766,3.2 24.52,10.889 24.08,11.786 		"/>
	</g>
	<g>
		<polygon points="7.378,11.983 6.939,11.086 22.691,3.397 23.131,4.296 7.378,11.983 		"/>
	</g>
</g>
<g>
	<path id="path9190" fill="#020202" d="M25.67,32c-3.15,0-6.329-0.806-6.329-2.606v-2.899c0-0.138,0.021-0.312,0.092-0.503
		c-0.071-0.192-0.092-0.366-0.092-0.503v-2.901c0-0.15,0.023-0.336,0.105-0.542c-0.082-0.203-0.105-0.39-0.105-0.541v-2.899
		C19.344,16.805,22.521,16,25.67,16c3.149,0,6.327,0.805,6.33,2.604v2.9c0,0.151-0.023,0.336-0.105,0.542
		C31.977,22.251,32,22.438,32,22.587v2.901c0,0.137-0.02,0.311-0.092,0.502C31.98,26.182,32,26.355,32,26.495v2.899
		C32,31.194,28.821,32,25.67,32L25.67,32z"/>
	
		<linearGradient id="path8001_1_" gradientUnits="userSpaceOnUse" x1="1447.0938" y1="2798.0449" x2="1460.6688" y2="2798.0449" gradientTransform="matrix(0.6524 0 0 0.6524 -923.8828 -1796.686)">
		<stop  offset="0" style="stop-color:#BFDCEB"/>
		<stop  offset="0.0164" style="stop-color:#B7D2E2"/>
		<stop  offset="0.043" style="stop-color:#A2BBC8"/>
		<stop  offset="0.0667" style="stop-color:#8BA2AF"/>
		<stop  offset="0.5455" style="stop-color:#BFDCEB"/>
		<stop  offset="0.5614" style="stop-color:#C2DCEB"/>
		<stop  offset="0.6708" style="stop-color:#DAEBF3"/>
		<stop  offset="0.7715" style="stop-color:#ECF6F9"/>
		<stop  offset="0.8545" style="stop-color:#F1F9FA"/>
		<stop  offset="0.8593" style="stop-color:#EFF8FA"/>
		<stop  offset="0.8965" style="stop-color:#E8F5F7"/>
		<stop  offset="1" style="stop-color:#E7F5F8"/>
	</linearGradient>
	<path id="path8001_3_" fill="url(#path8001_1_)" d="M31.152,29.331V26.43c0,0.972-2.455,1.759-5.482,1.759
		c-3.026,0-5.482-0.787-5.482-1.759v2.901c0,0.971,2.454,1.757,5.482,1.757C28.697,31.088,31.152,30.302,31.152,29.331z"/>
	<ellipse id="ellipse8003_3_" fill="#BFDCEB" cx="25.67" cy="26.429" rx="5.482" ry="1.759"/>
	<ellipse id="ellipse8010_3_" fill="#020202" cx="25.67" cy="26.247" rx="5.195" ry="1.658"/>
	
		<linearGradient id="path8044_1_" gradientUnits="userSpaceOnUse" x1="1463.7949" y1="2795.9043" x2="1450.0645" y2="2795.9043" gradientTransform="matrix(0.6524 0 0 0.6524 -923.8828 -1796.686)">
		<stop  offset="0" style="stop-color:#BFDCEB"/>
		<stop  offset="0.0164" style="stop-color:#B7D2E2"/>
		<stop  offset="0.043" style="stop-color:#A2BBC8"/>
		<stop  offset="0.0667" style="stop-color:#8BA2AF"/>
		<stop  offset="0.5455" style="stop-color:#BFDCEB"/>
		<stop  offset="0.5614" style="stop-color:#C2DCEB"/>
		<stop  offset="0.6708" style="stop-color:#DAEBF3"/>
		<stop  offset="0.7715" style="stop-color:#ECF6F9"/>
		<stop  offset="0.8545" style="stop-color:#F1F9FA"/>
		<stop  offset="0.8593" style="stop-color:#EFF8FA"/>
		<stop  offset="0.8965" style="stop-color:#E8F5F7"/>
		<stop  offset="1" style="stop-color:#E7F5F8"/>
	</linearGradient>
	<path id="path8044_3_" fill="url(#path8044_1_)" d="M25.67,28.083c-2.918,0-5.303-0.731-5.471-1.653
		c-0.008,0.034-0.011,0.069-0.011,0.105c0,0.97,2.453,1.758,5.481,1.758c3.027,0,5.482-0.788,5.482-1.758
		c0-0.036-0.005-0.071-0.01-0.105C30.973,27.352,28.588,28.083,25.67,28.083z"/>
	
		<linearGradient id="path8087_1_" gradientUnits="userSpaceOnUse" x1="1447.0938" y1="2792.0586" x2="1460.6688" y2="2792.0586" gradientTransform="matrix(0.6524 0 0 0.6524 -923.8828 -1796.686)">
		<stop  offset="0" style="stop-color:#BFDCEB"/>
		<stop  offset="0.0164" style="stop-color:#B7D2E2"/>
		<stop  offset="0.043" style="stop-color:#A2BBC8"/>
		<stop  offset="0.0667" style="stop-color:#8BA2AF"/>
		<stop  offset="0.5455" style="stop-color:#BFDCEB"/>
		<stop  offset="0.5614" style="stop-color:#C2DCEB"/>
		<stop  offset="0.6708" style="stop-color:#DAEBF3"/>
		<stop  offset="0.7715" style="stop-color:#ECF6F9"/>
		<stop  offset="0.8545" style="stop-color:#F1F9FA"/>
		<stop  offset="0.8593" style="stop-color:#EFF8FA"/>
		<stop  offset="0.8965" style="stop-color:#E8F5F7"/>
		<stop  offset="1" style="stop-color:#E7F5F8"/>
	</linearGradient>
	<path id="path8087_3_" fill="url(#path8087_1_)" d="M31.152,25.423v-2.899c0,0.971-2.455,1.758-5.482,1.758
		c-3.026,0-5.482-0.787-5.482-1.758v2.899c0,0.971,2.454,1.76,5.482,1.76C28.697,27.181,31.152,26.395,31.152,25.423z"/>
	<ellipse id="ellipse8089_3_" fill="#BFDCEB" cx="25.67" cy="22.523" rx="5.482" ry="1.758"/>
	<ellipse id="ellipse8096_3_" fill="#020202" cx="25.67" cy="22.343" rx="5.195" ry="1.657"/>
	
		<linearGradient id="path8130_1_" gradientUnits="userSpaceOnUse" x1="1463.791" y1="2789.916" x2="1450.0604" y2="2789.916" gradientTransform="matrix(0.6524 0 0 0.6524 -923.8828 -1796.686)">
		<stop  offset="0" style="stop-color:#BFDCEB"/>
		<stop  offset="0.0164" style="stop-color:#B7D2E2"/>
		<stop  offset="0.043" style="stop-color:#A2BBC8"/>
		<stop  offset="0.0667" style="stop-color:#8BA2AF"/>
		<stop  offset="0.5455" style="stop-color:#BFDCEB"/>
		<stop  offset="0.5614" style="stop-color:#C2DCEB"/>
		<stop  offset="0.6708" style="stop-color:#DAEBF3"/>
		<stop  offset="0.7715" style="stop-color:#ECF6F9"/>
		<stop  offset="0.8545" style="stop-color:#F1F9FA"/>
		<stop  offset="0.8593" style="stop-color:#EFF8FA"/>
		<stop  offset="0.8965" style="stop-color:#E8F5F7"/>
		<stop  offset="1" style="stop-color:#E7F5F8"/>
	</linearGradient>
	<path id="path8130_3_" fill="url(#path8130_1_)" d="M25.67,24.177c-2.918,0-5.303-0.73-5.471-1.653
		c-0.008,0.035-0.011,0.068-0.011,0.104c0,0.971,2.453,1.758,5.481,1.758c3.027,0,5.482-0.787,5.482-1.758
		c0-0.036-0.005-0.071-0.01-0.104C30.973,23.445,28.588,24.177,25.67,24.177z"/>
	
		<linearGradient id="path8173_1_" gradientUnits="userSpaceOnUse" x1="1447.0938" y1="2785.958" x2="1460.6688" y2="2785.958" gradientTransform="matrix(0.6524 0 0 0.6524 -923.8828 -1796.686)">
		<stop  offset="0" style="stop-color:#BFDCEB"/>
		<stop  offset="0.0164" style="stop-color:#B7D2E2"/>
		<stop  offset="0.043" style="stop-color:#A2BBC8"/>
		<stop  offset="0.0667" style="stop-color:#8BA2AF"/>
		<stop  offset="0.5455" style="stop-color:#BFDCEB"/>
		<stop  offset="0.5614" style="stop-color:#C2DCEB"/>
		<stop  offset="0.6708" style="stop-color:#DAEBF3"/>
		<stop  offset="0.7715" style="stop-color:#ECF6F9"/>
		<stop  offset="0.8545" style="stop-color:#F1F9FA"/>
		<stop  offset="0.8593" style="stop-color:#EFF8FA"/>
		<stop  offset="0.8965" style="stop-color:#E8F5F7"/>
		<stop  offset="1" style="stop-color:#E7F5F8"/>
	</linearGradient>
	<path id="path8173_3_" fill="url(#path8173_1_)" d="M31.152,21.443v-2.901c0,0.972-2.455,1.759-5.482,1.759
		c-3.026,0-5.482-0.787-5.482-1.759v2.901c0,0.972,2.454,1.761,5.482,1.761C28.697,23.204,31.152,22.415,31.152,21.443z"/>
	<ellipse id="ellipse8175_3_" fill="#BFDCEB" cx="25.67" cy="18.543" rx="5.482" ry="1.758"/>
	
		<linearGradient id="path8202_1_" gradientUnits="userSpaceOnUse" x1="1463.7949" y1="2783.8613" x2="1450.0645" y2="2783.8613" gradientTransform="matrix(0.6524 0 0 0.6524 -923.8828 -1796.686)">
		<stop  offset="0" style="stop-color:#BFDCEB"/>
		<stop  offset="0.0164" style="stop-color:#B7D2E2"/>
		<stop  offset="0.043" style="stop-color:#A2BBC8"/>
		<stop  offset="0.0667" style="stop-color:#8BA2AF"/>
		<stop  offset="0.5455" style="stop-color:#BFDCEB"/>
		<stop  offset="0.5614" style="stop-color:#C2DCEB"/>
		<stop  offset="0.6708" style="stop-color:#DAEBF3"/>
		<stop  offset="0.7715" style="stop-color:#ECF6F9"/>
		<stop  offset="0.8545" style="stop-color:#F1F9FA"/>
		<stop  offset="0.8593" style="stop-color:#EFF8FA"/>
		<stop  offset="0.8965" style="stop-color:#E8F5F7"/>
		<stop  offset="1" style="stop-color:#E7F5F8"/>
	</linearGradient>
	<path id="path8202_4_" fill="url(#path8202_1_)" d="M25.67,20.227c-2.918,0-5.303-0.729-5.471-1.653
		c-0.008,0.035-0.011,0.069-0.011,0.104c0,0.973,2.453,1.759,5.481,1.759c3.027,0,5.482-0.788,5.482-1.759
		c0-0.035-0.005-0.071-0.01-0.105C30.973,19.497,28.588,20.227,25.67,20.227L25.67,20.227z"/>
</g>
</svg>
