<?xml version="1.0" encoding="utf-8"?>
<!-- Generator: Adobe Illustrator 14.0.0, SVG Export Plug-In . SVG Version: 6.00 Build 43363)  -->
<!DOCTYPE svg PUBLIC "-//W3C//DTD SVG 1.1//EN" "http://www.w3.org/Graphics/SVG/1.1/DTD/svg11.dtd">
<svg version="1.1"
	 id="svg2" sodipodi:docbase="C:\Radix\dev\trunk\org.radixware\kernel\designer\src\common.resources\src\org\radixware\kernel\designer\resources\icons\dds" sodipodi:docname="primary_key.svg" inkscape:version="0.45.1" sodipodi:version="0.32" inkscape:output_extension="org.inkscape.output.svg.inkscape" xmlns:dc="http://purl.org/dc/elements/1.1/" xmlns:cc="http://web.resource.org/cc/" xmlns:rdf="http://www.w3.org/1999/02/22-rdf-syntax-ns#" xmlns:svg="http://www.w3.org/2000/svg" xmlns:sodipodi="http://sodipodi.sourceforge.net/DTD/sodipodi-0.dtd" xmlns:inkscape="http://www.inkscape.org/namespaces/inkscape"
	 xmlns="http://www.w3.org/2000/svg" xmlns:xlink="http://www.w3.org/1999/xlink" x="0px" y="0px" width="32px" height="32px"
	 viewBox="8 8 32 32" enable-background="new 8 8 32 32" xml:space="preserve">
<sodipodi:namedview  id="base" pagecolor="#ffffff" bordercolor="#000000" borderopacity="1.0" showgrid="true" inkscape:zoom="12" inkscape:cx="10" inkscape:cy="26.666667" inkscape:current-layer="layer1" inkscape:pageopacity="0.0" inkscape:pageshadow="2" inkscape:window-width="1080" inkscape:window-height="798" inkscape:window-x="115" inkscape:window-y="115" inkscape:document-units="px">
	</sodipodi:namedview>
<g>
	<path d="M39.998,19.741c0-0.004,0.002-0.008,0.002-0.012s-0.002-0.011-0.002-0.016v-0.188c0-0.004,0.002-0.008,0.002-0.012
		C40,17.101,35.142,16,30.625,16c-4.515,0-9.373,1.101-9.376,3.515l0,0v4.563c0,0.304,0.077,0.587,0.221,0.85
		c-0.144,0.261-0.221,0.546-0.221,0.847v0.002l0,0v4.563c0,0.282,0.072,0.545,0.196,0.791c-0.124,0.247-0.196,0.51-0.196,0.792
		v4.563c0,2.414,4.86,3.516,9.375,3.516c4.516,0,9.374-1.102,9.374-3.516v-4.384c0-0.004,0.002-0.009,0.002-0.013
		c0-0.005-0.002-0.011-0.002-0.016v-0.14c0-0.005,0.002-0.009,0.002-0.013c0-0.282-0.071-0.546-0.196-0.794
		c0.123-0.246,0.194-0.508,0.194-0.789v-4.384c0-0.004,0.002-0.009,0.002-0.013s-0.002-0.01-0.002-0.016v-0.138
		c0-0.004,0.002-0.009,0.002-0.013c0-0.303-0.078-0.586-0.222-0.849c0.144-0.262,0.22-0.545,0.22-0.848V19.741z"/>
	
		<linearGradient id="path8001_2_" gradientUnits="userSpaceOnUse" x1="2024.4453" y1="4329.0605" x2="2045.7998" y2="4329.0605" gradientTransform="matrix(0.6524 0 0 0.6524 -1298.7271 -2788.6936)">
		<stop  offset="0" style="stop-color:#BFDEEC"/>
		<stop  offset="0.0164" style="stop-color:#B8D3E2"/>
		<stop  offset="0.043" style="stop-color:#A3BCC8"/>
		<stop  offset="0.0667" style="stop-color:#8BA2AF"/>
		<stop  offset="0.5455" style="stop-color:#BFDEEC"/>
		<stop  offset="0.5614" style="stop-color:#C2DCEB"/>
		<stop  offset="0.6708" style="stop-color:#DAEBF3"/>
		<stop  offset="0.7715" style="stop-color:#EDF7F9"/>
		<stop  offset="0.8545" style="stop-color:#F1F8F9"/>
		<stop  offset="0.8593" style="stop-color:#F0F8FA"/>
		<stop  offset="0.8965" style="stop-color:#E9F5F7"/>
		<stop  offset="1" style="stop-color:#E8F5F7"/>
	</linearGradient>
	<path id="path8001_1_" fill="url(#path8001_2_)" d="M39.248,36.484v-4.563c0,1.528-3.859,2.769-8.624,2.769
		c-4.762,0-8.625-1.238-8.625-2.769v4.563c0,1.526,3.861,2.766,8.625,2.766C35.389,39.25,39.248,38.014,39.248,36.484z"/>
	<ellipse id="ellipse8003_1_" fill="#BFDEEC" cx="30.625" cy="31.921" rx="8.625" ry="2.768"/>
	<ellipse id="ellipse8010_1_" fill="#020202" cx="30.625" cy="31.634" rx="8.17" ry="2.607"/>
	
		<linearGradient id="path8044_2_" gradientUnits="userSpaceOnUse" x1="2050.7207" y1="4325.6895" x2="2029.12" y2="4325.6895" gradientTransform="matrix(0.6524 0 0 0.6524 -1298.7271 -2788.6936)">
		<stop  offset="0" style="stop-color:#BFDEEC"/>
		<stop  offset="0.0164" style="stop-color:#B8D3E2"/>
		<stop  offset="0.043" style="stop-color:#A3BCC8"/>
		<stop  offset="0.0667" style="stop-color:#8BA2AF"/>
		<stop  offset="0.5455" style="stop-color:#BFDEEC"/>
		<stop  offset="0.5614" style="stop-color:#C2DCEB"/>
		<stop  offset="0.6708" style="stop-color:#DAEBF3"/>
		<stop  offset="0.7715" style="stop-color:#EDF7F9"/>
		<stop  offset="0.8545" style="stop-color:#F1F8F9"/>
		<stop  offset="0.8593" style="stop-color:#F0F8FA"/>
		<stop  offset="0.8965" style="stop-color:#E9F5F7"/>
		<stop  offset="1" style="stop-color:#E8F5F7"/>
	</linearGradient>
	<path id="path8044_1_" fill="url(#path8044_2_)" d="M30.625,34.521c-4.59,0-8.342-1.149-8.605-2.602
		c-0.012,0.056-0.018,0.108-0.018,0.167c0,1.524,3.859,2.765,8.623,2.765c4.761,0,8.625-1.237,8.625-2.765
		c0-0.059-0.009-0.111-0.017-0.167C38.964,33.372,35.214,34.521,30.625,34.521z"/>
	
		<linearGradient id="path8087_2_" gradientUnits="userSpaceOnUse" x1="2024.4453" y1="4319.6416" x2="2045.7998" y2="4319.6416" gradientTransform="matrix(0.6524 0 0 0.6524 -1298.7271 -2788.6936)">
		<stop  offset="0" style="stop-color:#BFDEEC"/>
		<stop  offset="0.0164" style="stop-color:#B8D3E2"/>
		<stop  offset="0.043" style="stop-color:#A3BCC8"/>
		<stop  offset="0.0667" style="stop-color:#8BA2AF"/>
		<stop  offset="0.5455" style="stop-color:#BFDEEC"/>
		<stop  offset="0.5614" style="stop-color:#C2DCEB"/>
		<stop  offset="0.6708" style="stop-color:#DAEBF3"/>
		<stop  offset="0.7715" style="stop-color:#EDF7F9"/>
		<stop  offset="0.8545" style="stop-color:#F1F8F9"/>
		<stop  offset="0.8593" style="stop-color:#F0F8FA"/>
		<stop  offset="0.8965" style="stop-color:#E9F5F7"/>
		<stop  offset="1" style="stop-color:#E8F5F7"/>
	</linearGradient>
	<path id="path8087_1_" fill="url(#path8087_2_)" d="M39.248,30.339v-4.563c0,1.527-3.859,2.767-8.624,2.767
		c-4.762,0-8.625-1.237-8.625-2.767v4.563c0,1.527,3.861,2.767,8.625,2.767C35.389,33.104,39.248,31.867,39.248,30.339z"/>
	<ellipse id="ellipse8089_1_" fill="#BFDEEC" cx="30.625" cy="25.777" rx="8.625" ry="2.766"/>
	<ellipse id="ellipse8096_1_" fill="#020202" cx="30.625" cy="25.493" rx="8.17" ry="2.607"/>
	
		<linearGradient id="path8130_2_" gradientUnits="userSpaceOnUse" x1="2050.7148" y1="4316.2715" x2="2029.114" y2="4316.2715" gradientTransform="matrix(0.6524 0 0 0.6524 -1298.7271 -2788.6936)">
		<stop  offset="0" style="stop-color:#BFDEEC"/>
		<stop  offset="0.0164" style="stop-color:#B8D3E2"/>
		<stop  offset="0.043" style="stop-color:#A3BCC8"/>
		<stop  offset="0.0667" style="stop-color:#8BA2AF"/>
		<stop  offset="0.5455" style="stop-color:#BFDEEC"/>
		<stop  offset="0.5614" style="stop-color:#C2DCEB"/>
		<stop  offset="0.6708" style="stop-color:#DAEBF3"/>
		<stop  offset="0.7715" style="stop-color:#EDF7F9"/>
		<stop  offset="0.8545" style="stop-color:#F1F8F9"/>
		<stop  offset="0.8593" style="stop-color:#F0F8FA"/>
		<stop  offset="0.8965" style="stop-color:#E9F5F7"/>
		<stop  offset="1" style="stop-color:#E8F5F7"/>
	</linearGradient>
	<path id="path8130_1_" fill="url(#path8130_2_)" d="M30.625,28.379c-4.59,0-8.342-1.149-8.605-2.603
		c-0.013,0.057-0.018,0.108-0.018,0.164c0,1.527,3.859,2.767,8.623,2.767c4.761,0,8.625-1.238,8.625-2.767
		c0-0.057-0.009-0.11-0.017-0.164C38.964,27.229,35.214,28.379,30.625,28.379z"/>
	
		<linearGradient id="path8173_2_" gradientUnits="userSpaceOnUse" x1="2024.4453" y1="4310.0469" x2="2045.7998" y2="4310.0469" gradientTransform="matrix(0.6524 0 0 0.6524 -1298.7271 -2788.6936)">
		<stop  offset="0" style="stop-color:#C1DFA5"/>
		<stop  offset="0.1515" style="stop-color:#1E9046"/>
		<stop  offset="0.4909" style="stop-color:#BFDEA2"/>
		<stop  offset="0.7758" style="stop-color:#FFFFFF"/>
		<stop  offset="1" style="stop-color:#B0D68C"/>
	</linearGradient>
	<path id="path8173_1_" fill="url(#path8173_2_)" d="M39.248,24.078v-4.563c0,1.528-3.859,2.769-8.624,2.769
		c-4.762,0-8.625-1.239-8.625-2.769v4.563c0,1.528,3.861,2.771,8.625,2.771C35.389,26.849,39.248,25.606,39.248,24.078z"/>
	<ellipse id="ellipse8175_1_" fill="#A3EB7F" cx="30.625" cy="19.516" rx="8.625" ry="2.766"/>
	
		<linearGradient id="path8202_2_" gradientUnits="userSpaceOnUse" x1="2050.7207" y1="4306.748" x2="2029.12" y2="4306.748" gradientTransform="matrix(0.6524 0 0 0.6524 -1298.7271 -2788.6936)">
		<stop  offset="0" style="stop-color:#C1DFA5"/>
		<stop  offset="0.1515" style="stop-color:#1E9046"/>
		<stop  offset="0.4909" style="stop-color:#BFDEA2"/>
		<stop  offset="0.7758" style="stop-color:#FFFFFF"/>
		<stop  offset="1" style="stop-color:#B0D68C"/>
	</linearGradient>
	<path id="path8202_1_" fill="url(#path8202_2_)" d="M30.625,22.165c-4.59,0-8.342-1.148-8.605-2.602
		c-0.013,0.054-0.018,0.111-0.018,0.166c0,1.527,3.859,2.766,8.623,2.766c4.761,0,8.625-1.241,8.625-2.766
		c0-0.058-0.009-0.112-0.017-0.168C38.964,21.017,35.214,22.165,30.625,22.165L30.625,22.165z"/>
</g>
<g>
	<path id="path2935_12_" fill="#231F20" d="M12.28,38.027c-0.161-0.162-0.256-0.383-0.254-0.615v-1.527
		c0-0.143,0.035-0.285,0.104-0.41l0.311-0.58l-0.311-0.586c-0.118-0.222-0.136-0.479-0.047-0.713l0.314-0.841l-0.229-1.423
		c-0.025-0.165-0.004-0.334,0.063-0.488l0.328-0.75l-0.488-1.465c-0.094-0.279-0.037-0.589,0.146-0.818l0.664-0.832l-0.719-1.125
		c-0.09-0.141-0.137-0.304-0.137-0.471l-0.002-1.523h-0.436c-0.24,0-0.459-0.099-0.615-0.256c-0.158-0.158-0.255-0.375-0.258-0.613
		v-2.147c-0.212-0.169-0.416-0.35-0.605-0.54C8.751,18.943,8.001,17.134,8,15.21c0.001-1.927,0.751-3.735,2.112-5.099
		C11.474,8.75,13.285,8,15.211,8c1.926,0,3.735,0.751,5.096,2.111c1.361,1.359,2.111,3.171,2.111,5.098
		c0,2.197-1.008,4.27-2.717,5.632v2.149c0,0.23-0.092,0.451-0.256,0.615c-0.162,0.164-0.385,0.256-0.615,0.256h-0.438l0.004,13.55
		c0,0.274-0.131,0.536-0.354,0.7l-2.314,1.717c-0.31,0.229-0.73,0.229-1.039,0l-2.313-1.717
		C12.345,38.086,12.312,38.059,12.28,38.027L12.28,38.027z M15.995,11.141c-0.209-0.209-0.486-0.322-0.784-0.322
		c-0.61-0.002-1.106,0.496-1.108,1.106c0.002,0.298,0.116,0.576,0.324,0.785c0.21,0.21,0.488,0.324,0.784,0.323
		c0.61,0,1.106-0.497,1.108-1.108C16.319,11.629,16.204,11.35,15.995,11.141L15.995,11.141z"/>
	<path id="path3790_14_" fill="#6EBD46" d="M15.211,8.874c3.502,0,6.336,2.836,6.336,6.337c0,2.154-1.074,4.053-2.715,5.196v2.585
		h-1.311l0.004,14.42L15.21,39.13l-2.313-1.717v-1.527l0.528-0.987l-0.528-0.996l0.396-1.055l-0.266-1.65l0.463-1.057l-0.594-1.783
		l1.056-1.321l-1.056-1.649v-2.396l-1.311,0.002V20.41c-1.641-1.145-2.715-3.043-2.715-5.198
		C8.874,11.709,11.711,8.872,15.211,8.874L15.211,8.874z M15.211,9.945c-1.095,0-1.979,0.886-1.979,1.979
		c0,1.097,0.886,1.981,1.98,1.98c1.095,0,1.976-0.884,1.978-1.979C17.19,10.83,16.307,9.945,15.211,9.945z"/>
	
		<linearGradient id="path2946_1_" gradientUnits="userSpaceOnUse" x1="7.2822" y1="-96.9868" x2="18.2163" y2="-96.9868" gradientTransform="matrix(1 0 0 -1 2.46 -72.8398)">
		<stop  offset="0" style="stop-color:#B0D68C"/>
		<stop  offset="1" style="stop-color:#1E9046"/>
	</linearGradient>
	<path id="path2946_12_" fill="url(#path2946_1_)" d="M13.769,36.104l0.646-1.205l-0.563-1.059l0.34-0.904l-0.262-1.625l0.491-1.127
		l-0.548-1.653l1.15-1.438l-1.256-1.961v-3.013h-1.31l-0.001-2.165l-0.372-0.26c-0.265-0.186-0.515-0.395-0.743-0.623
		c-1.031-1.03-1.599-2.402-1.601-3.86c0-1.46,0.569-2.833,1.602-3.865c0.462-0.461,0.989-0.827,1.563-1.095
		c-0.344,0.471-0.547,1.048-0.547,1.674c0,0.764,0.297,1.479,0.834,2.02c0.539,0.537,1.257,0.834,2.019,0.832
		c1.567,0.002,2.846-1.275,2.85-2.848c-0.002-0.611-0.191-1.191-0.541-1.674c0.57,0.266,1.096,0.633,1.555,1.092
		c1.031,1.031,1.6,2.404,1.6,3.865c0,1.783-0.877,3.459-2.342,4.482l-0.375,0.26v2.167l-1.311-0.001l0.006,14.854l-1.445,1.071
		l-1.443-1.069L13.769,36.104z"/>
	
		<linearGradient id="rect3802_1_" gradientUnits="userSpaceOnUse" x1="-967.6772" y1="-998.3477" x2="-966.5928" y2="-998.3477" gradientTransform="matrix(-1.0994 0 0 -1.0994 -1047.4514 -1067.6077)">
		<stop  offset="0" style="stop-color:#B0D68C"/>
		<stop  offset="1" style="stop-color:#1E9046"/>
	</linearGradient>
	<path id="rect3802_14_" fill="url(#rect3802_1_)" d="M16.014,23.074h-0.42c-0.213,0-0.384,0.171-0.384,0.384l-0.001,13.033
		c0,0.215,0.172,0.386,0.385,0.386h0.422c0.213,0,0.385-0.171,0.385-0.386l-0.002-13.035C16.399,23.247,16.227,23.074,16.014,23.074
		z"/>
</g>
</svg>
