<?xml version="1.0" encoding="UTF-8" standalone="no"?>
<!-- Generator: Adobe Illustrator 14.0.0, SVG Export Plug-In . SVG Version: 6.00 Build 43363)  -->

<svg
   xmlns:dc="http://purl.org/dc/elements/1.1/"
   xmlns:cc="http://creativecommons.org/ns#"
   xmlns:rdf="http://www.w3.org/1999/02/22-rdf-syntax-ns#"
   xmlns:svg="http://www.w3.org/2000/svg"
   xmlns="http://www.w3.org/2000/svg"
   xmlns:xlink="http://www.w3.org/1999/xlink"
   xmlns:sodipodi="http://sodipodi.sourceforge.net/DTD/sodipodi-0.dtd"
   xmlns:inkscape="http://www.inkscape.org/namespaces/inkscape"
   version="1.1"
   id="svg2"
   sodipodi:docname="table_ok.svg"
   inkscape:version="0.48.0 r9654"
   sodipodi:version="0.32"
   inkscape:output_extension="org.inkscape.output.svg.inkscape"
   x="0px"
   y="0px"
   width="32px"
   height="32px"
   viewBox="0 0 32 32"
   enable-background="new 0 0 32 32"
   xml:space="preserve"><metadata
   id="metadata3041"><rdf:RDF><cc:Work
       rdf:about=""><dc:format>image/svg+xml</dc:format><dc:type
         rdf:resource="http://purl.org/dc/dcmitype/StillImage" /><dc:title></dc:title></cc:Work></rdf:RDF></metadata><defs
   id="defs3039"><linearGradient
     id="SVGID_1_-1"
     gradientUnits="userSpaceOnUse"
     x1="4.5072999"
     y1="16.091801"
     x2="26.941401"
     y2="16.091801"><stop
       offset="0"
       style="stop-color:#B0D68C"
       id="stop3069" /><stop
       offset="1"
       style="stop-color:#1E9046"
       id="stop3071" /></linearGradient><linearGradient
     id="linearGradient2187"><stop
       style="stop-color:#000000;stop-opacity:1;"
       offset="0"
       id="stop2189" /><stop
       style="stop-color:#000000;stop-opacity:0;"
       offset="1"
       id="stop2191" /></linearGradient><linearGradient
     inkscape:collect="always"
     xlink:href="#linearGradient2200"
     id="linearGradient3151"
     gradientUnits="userSpaceOnUse"
     gradientTransform="matrix(0.884091,0,0,0.90013,6.155682,1.664457)"
     x1="37.682518"
     y1="38.369419"
     x2="24.297237"
     y2="20.785847" /><linearGradient
     id="linearGradient2200"><stop
       style="stop-color:#ffce0c;stop-opacity:1;"
       offset="0"
       id="stop2202" /><stop
       style="stop-color:#f9f9ff;stop-opacity:1;"
       offset="1"
       id="stop2204" /></linearGradient><linearGradient
     inkscape:collect="always"
     xlink:href="#linearGradient2187-1"
     id="linearGradient1321"
     gradientUnits="userSpaceOnUse"
     gradientTransform="matrix(0.868794,0,0,0.898591,0.329344,0.771127)"
     x1="22.5"
     y1="24.0625"
     x2="47.625"
     y2="42.8125" /><linearGradient
     id="linearGradient2187-1"><stop
       style="stop-color:#000000;stop-opacity:1;"
       offset="0"
       id="stop2189-7" /><stop
       style="stop-color:#000000;stop-opacity:0;"
       offset="1"
       id="stop2191-4" /></linearGradient><linearGradient
     inkscape:collect="always"
     xlink:href="#linearGradient2178"
     id="linearGradient1323"
     gradientUnits="userSpaceOnUse"
     gradientTransform="matrix(0.884091,0,0,0.90013,0.405682,0.789457)"
     x1="37.682518"
     y1="38.369419"
     x2="24.297237"
     y2="20.785847" /><linearGradient
     id="linearGradient2178"><stop
       style="stop-color:#17ac1e;stop-opacity:1;"
       offset="0"
       id="stop2180" /><stop
       id="stop2186"
       offset="0.16975892"
       style="stop-color:#18c15b;stop-opacity:0.99607843;" /><stop
       style="stop-color:#0ee71a;stop-opacity:0.99215686;"
       offset="0.61537606"
       id="stop2188" /><stop
       id="stop2190"
       offset="0.94612068"
       style="stop-color:#efeeec;stop-opacity:0.99215686;" /><stop
       style="stop-color:#fbfaf5;stop-opacity:0.99215686;"
       offset="1"
       id="stop2182" /></linearGradient><linearGradient
     y2="20.785847"
     x2="24.297237"
     y1="38.369419"
     x1="37.682518"
     gradientTransform="matrix(0.884091,0,0,0.90013,0.405682,0.789457)"
     gradientUnits="userSpaceOnUse"
     id="linearGradient6032"
     xlink:href="#linearGradient2178"
     inkscape:collect="always" /><linearGradient
     id="SVGID_1_-0"
     gradientUnits="userSpaceOnUse"
     x1="-5.2188001"
     y1="-110.1543"
     x2="19.334"
     y2="-110.1543"
     gradientTransform="matrix(1,0,0,-1,2.46,-100.8398)"><stop
       offset="0"
       style="stop-color:#B0D0DA"
       id="stop15171" /><stop
       offset="1"
       style="stop-color:#0C7C9E"
       id="stop15173" /></linearGradient></defs>
<sodipodi:namedview
   width="48px"
   height="48px"
   id="base"
   pagecolor="#ffffff"
   bordercolor="#000000"
   borderopacity="1.0"
   showgrid="false"
   inkscape:zoom="16.991192"
   inkscape:cx="15.858678"
   inkscape:cy="20.87779"
   inkscape:current-layer="svg2"
   inkscape:pageopacity="0.0"
   inkscape:pageshadow="2"
   inkscape:window-width="1680"
   inkscape:window-height="988"
   inkscape:window-x="-8"
   inkscape:window-y="-8"
   inkscape:document-units="px"
   inkscape:window-maximized="1">
	</sodipodi:namedview>
<g
   id="g3016">
	<path
   d="M1.047,29.737C0.47,29.737,0,29.267,0,28.69V3.31c0-0.578,0.47-1.049,1.047-1.049h29.906C31.531,2.261,32,2.729,32,3.31   V28.69c0,0.576-0.469,1.049-1.047,1.049L1.047,29.737L1.047,29.737z"
   id="path3018" />
	<rect
   x="1.047"
   y="3.31"
   fill="#DAEBF1"
   width="29.906"
   height="25.381"
   id="rect3020" />
	
		<linearGradient
   id="SVGID_1_"
   gradientUnits="userSpaceOnUse"
   x1="561.667"
   y1="-904.3564"
   x2="591.5732"
   y2="-904.3564"
   gradientTransform="matrix(1 0 0 -1 -560.6201 -897.5195)">
		<stop
   offset="0"
   style="stop-color:#B0D68C"
   id="stop3023" />
		<stop
   offset="1"
   style="stop-color:#1E9046"
   id="stop3025" />
	</linearGradient>
	<rect
   x="1.047"
   y="3.31"
   fill="url(#SVGID_1_)"
   width="29.906"
   height="7.055"
   id="rect3027" />
	<line
   fill="none"
   stroke="#000000"
   x1="1.047"
   y1="10.364"
   x2="30.953"
   y2="10.364"
   id="line3029" />
	<line
   fill="none"
   stroke="#000000"
   x1="1.047"
   y1="16.399"
   x2="30.953"
   y2="16.399"
   id="line3031" />
	<line
   fill="none"
   stroke="#000000"
   x1="1.047"
   y1="23.032"
   x2="30.953"
   y2="23.032"
   id="line3033" />
	<line
   fill="none"
   stroke="#000000"
   x1="10.711"
   y1="10.381"
   x2="10.711"
   y2="28.706"
   id="line3035" />
	<line
   fill="none"
   stroke="#000000"
   x1="21.355"
   y1="10.415"
   x2="21.355"
   y2="28.741"
   id="line3037" />
</g>
<g
   transform="matrix(1.0706274,0,0,0.73876828,5.2429875,14.678876)"
   id="g15163"><g
     id="g15165"><path
       inkscape:connector-curvature="0"
       d="m 7.171,23.567 c -0.37,0 -0.71,-0.22 -0.858,-0.563 C 6.259,22.884 0.914,10.742 -4.491,7.955 -4.72,7.839 -4.891,7.633 -4.962,7.387 c -0.071,-0.245 -0.04,-0.51 0.088,-0.732 1.308,-2.266 4.223,-5.589 4.346,-5.729 0.179,-0.204 0.436,-0.32 0.705,-0.32 0.011,0 0.021,0 0.029,0 0.283,0.009 0.545,0.143 0.714,0.367 0.168,0.218 3.625,4.743 5.824,9.303 4.664,-11.178 7.407,-13.529 7.527,-13.629 0.169,-0.14 0.383,-0.214 0.596,-0.214 0.103,0 0.203,0.017 0.302,0.049 0.795,0.269 7.815,2.669 9.458,3.916 0.278,0.21 0.417,0.557 0.36,0.898 C 24.93,1.639 24.692,1.921 24.361,2.032 17.87,4.223 13.122,8.347 8.058,22.938 7.931,23.302 7.594,23.551 7.208,23.566 7.196,23.567 7.184,23.567 7.171,23.567 l 0,0 z"
       id="path15167" /><path
       style="fill:#02abd8"
       inkscape:connector-curvature="0"
       id="path8498_2_"
       d="M -4.063,7.121 C 1.709,10.097 7.171,22.63 7.171,22.63 12.442,7.441 17.504,3.357 24.063,1.145 c -1.569,-1.191 -9.195,-3.774 -9.195,-3.774 0,0 -2.948,2.432 -8.096,15.318 C 4.829,7.603 0.177,1.542 0.177,1.542 c 0,0 -2.965,3.368 -4.24,5.579 z" /><linearGradient
       id="linearGradient16454"
       gradientUnits="userSpaceOnUse"
       x1="-5.2188001"
       y1="-110.1543"
       x2="19.334"
       y2="-110.1543"
       gradientTransform="matrix(1,0,0,-1,2.46,-100.8398)"><stop
         offset="0"
         style="stop-color:#B0D0DA"
         id="stop16456" /><stop
         offset="1"
         style="stop-color:#0C7C9E"
         id="stop16458" /></linearGradient><path
       style="fill:url(#SVGID_1_-0)"
       inkscape:connector-curvature="0"
       d="M 7.056,20.176 C 5.318,16.646 1.48,9.624 -2.759,6.806 -1.891,5.5 -0.662,3.984 0.123,3.051 c 1.352,1.875 4.344,6.232 5.773,9.975 0.138,0.359 0.483,0.599 0.868,0.603 0.004,0 0.007,0 0.009,0 0.383,0 0.73,-0.234 0.87,-0.59 3.951,-9.896 6.592,-13.528 7.492,-14.585 2.101,0.725 4.848,1.74 6.659,2.546 -5.73,2.431 -10.199,6.951 -14.738,19.176 l 0,0 z"
       id="path15175" /></g></g></svg>