<?xml version="1.0" encoding="utf-8"?>
<!-- Generator: Adobe Illustrator 14.0.0, SVG Export Plug-In . SVG Version: 6.00 Build 43363)  -->
<!DOCTYPE svg PUBLIC "-//W3C//DTD SVG 1.1//EN" "http://www.w3.org/Graphics/SVG/1.1/DTD/svg11.dtd">
<svg version="1.1"
	 id="Layer_1" sodipodi:docbase="C:\Radix\dev\trunk\org.radixware\kernel\designer\src\common.resources\src\org\radixware\kernel\designer\resources\icons\dds" sodipodi:docname="type.svg" inkscape:version="0.45.1" sodipodi:version="0.32" inkscape:output_extension="org.inkscape.output.svg.inkscape" xmlns:ns="http://creativecommons.org/ns#" xmlns:dc="http://purl.org/dc/elements/1.1/" xmlns:cc="http://web.resource.org/cc/" xmlns:rdf="http://www.w3.org/1999/02/22-rdf-syntax-ns#" xmlns:svg="http://www.w3.org/2000/svg" xmlns:sodipodi="http://sodipodi.sourceforge.net/DTD/sodipodi-0.dtd" xmlns:inkscape="http://www.inkscape.org/namespaces/inkscape"
	 xmlns="http://www.w3.org/2000/svg" xmlns:xlink="http://www.w3.org/1999/xlink" x="0px" y="0px" width="32px" height="32px"
	 viewBox="0 0 32 32" enable-background="new 0 0 32 32" xml:space="preserve">
<sodipodi:namedview  id="base" pagecolor="#ffffff" bordercolor="#666666" borderopacity="1.0" objecttolerance="10.0" gridtolerance="10.0" showgrid="false" guidetolerance="10.0" inkscape:zoom="5.1044271" inkscape:cx="11.392936" inkscape:cy="19.432936" inkscape:current-layer="g162" inkscape:pageopacity="0.0" inkscape:pageshadow="2" inkscape:window-width="1280" inkscape:window-height="944" inkscape:window-x="-8" inkscape:window-y="-8">
	</sodipodi:namedview>
<g>
	<g>
		<g>
			<path fill="#231F20" d="M29.992,5.896V5.873c0-0.045-0.01-0.085-0.015-0.128c-0.003-0.013,0.003-0.024,0-0.034
				c-0.001-0.008-0.007-0.016-0.007-0.021c-0.007-0.029-0.015-0.059-0.022-0.088c-0.006-0.016-0.003-0.032-0.008-0.045
				c-0.008-0.024-0.024-0.04-0.033-0.064c-0.013-0.024-0.021-0.048-0.035-0.072c-0.009-0.016-0.021-0.032-0.03-0.048
				C29.819,5.337,29.798,5.3,29.77,5.268c-0.022-0.026-0.051-0.048-0.077-0.075c-0.018-0.016-0.032-0.032-0.049-0.045
				c-0.065-0.053-0.135-0.093-0.212-0.128c-0.018-0.008-0.032-0.019-0.052-0.024c-0.098-0.038-0.199-0.059-0.304-0.062L15.312,0.053
				C15.21,0.016,15.104,0,14.998,0s-0.212,0.016-0.313,0.053L0.924,4.935c-0.013,0-0.027,0.005-0.04,0.005
				C0.818,4.946,0.75,4.954,0.687,4.973c-0.101,0.026-0.198,0.069-0.285,0.13C0.399,5.105,0.398,5.105,0.397,5.105
				C0.325,5.156,0.265,5.217,0.212,5.284c-0.009,0.013-0.018,0.026-0.028,0.04c-0.045,0.064-0.083,0.13-0.111,0.202
				C0.069,5.535,0.063,5.542,0.059,5.55c-0.002,0.008,0,0.014-0.002,0.021C0.024,5.667,0,5.769,0,5.873v18.199
				c0,0.396,0.25,0.751,0.624,0.885l14.061,4.988c0.004,0.002,0.011,0.002,0.016,0.005C14.796,29.981,14.896,30,14.998,30
				c0.101,0,0.202-0.019,0.298-0.051c0.005-0.003,0.01-0.003,0.016-0.005l14.058-4.988c0.374-0.134,0.623-0.488,0.623-0.885V5.918
				C29.992,5.913,29.992,5.905,29.992,5.896z"/>
			<polygon id="polygon5202_18_" fill="#AA3D25" points="0.938,5.873 14.998,10.858 14.998,29.063 0.938,24.071 			"/>
			<polygon id="polygon5204_18_" fill="#E9B6AE" points="29.055,5.873 14.998,10.858 14.998,29.063 29.055,24.071 			"/>
			<polygon id="polygon5206_18_" fill="#DF8078" points="28.915,5.873 14.998,0.938 1.085,5.873 0.938,5.873 1.004,5.896 
				0.938,5.923 1.085,5.923 14.998,10.858 28.915,5.923 29.055,5.923 28.986,5.896 29.055,5.873 			"/>
			
				<linearGradient id="polygon6538_1_" gradientUnits="userSpaceOnUse" x1="1563.875" y1="-2154.5664" x2="1580.7888" y2="-2137.8083" gradientTransform="matrix(0.5772 0 0 -0.5772 -902.3153 -1218.6886)">
				<stop  offset="0" style="stop-color:#3A1813"/>
				<stop  offset="1" style="stop-color:#AA3D25;stop-opacity:0"/>
			</linearGradient>
			<polygon id="polygon6538_12_" fill="url(#polygon6538_1_)" points="1.468,6.619 14.506,11.242 14.506,28.109 1.468,23.488 			"/>
			
				<linearGradient id="polygon6548_1_" gradientUnits="userSpaceOnUse" x1="1676.5898" y1="-2245.4351" x2="1657.3717" y2="-2224.7449" gradientTransform="matrix(0.5627 0 0 -0.5627 -913.4598 -1237.2736)">
				<stop  offset="0" style="stop-color:#FDF0ED"/>
				<stop  offset="1" style="stop-color:#E9B6AE;stop-opacity:0"/>
			</linearGradient>
			<polygon id="polygon6548_12_" fill="url(#polygon6548_1_)" points="28.113,6.93 15.405,11.434 15.405,27.883 28.113,23.376 			
				"/>
			
				<linearGradient id="path6572_1_" gradientUnits="userSpaceOnUse" x1="-3901.4248" y1="3433.9297" x2="-3923.3076" y2="3433.9854" gradientTransform="matrix(0 -0.6226 0.6226 0 -2123.1072 -2416.8921)">
				<stop  offset="0" style="stop-color:#FFFFFF"/>
				<stop  offset="1" style="stop-color:#FFFFFF;stop-opacity:0"/>
			</linearGradient>
			<path id="path6572_18_" fill="url(#path6572_1_)" d="M14.053,10.664l0.763,18.058H14.8l0.854-18.311L14.053,10.664L14.053,10.664
				z"/>
			
				<linearGradient id="path6582_1_" gradientUnits="userSpaceOnUse" x1="-1736.8442" y1="-2426.4824" x2="-1755.4836" y2="-2426.4734" gradientTransform="matrix(-0.5857 0.2112 -0.2112 -0.5857 -1513.9834 -1043.7557)">
				<stop  offset="0" style="stop-color:#FFFFFF"/>
				<stop  offset="1" style="stop-color:#FFFFFF;stop-opacity:0"/>
			</linearGradient>
			<path id="path6582_25_" fill="url(#path6582_1_)" d="M15.047,11.719L29.058,5.87l-14.792,4.435L15.047,11.719z"/>
			
				<linearGradient id="path6586_1_" gradientUnits="userSpaceOnUse" x1="2345.4229" y1="-954.2607" x2="2327.4814" y2="-954.2445" gradientTransform="matrix(0.5857 0.2112 0.2112 -0.5857 -1158.4844 -1043.786)">
				<stop  offset="0" style="stop-color:#FFFFFF"/>
				<stop  offset="1" style="stop-color:#FFFFFF;stop-opacity:0"/>
			</linearGradient>
			<path id="path6586_18_" fill="url(#path6586_1_)" d="M14.608,11.658L0.94,5.87l14.454,4.376L14.608,11.658z"/>
		</g>
	</g>
</g>
<g>
	<g>
		<path d="M31.998,18.494c0-0.004,0.002-0.004,0.002-0.008s-0.002-0.008-0.002-0.01v-0.125c0-0.002,0.002-0.006,0.002-0.008
			C32,16.732,28.76,16,25.75,16c-3.011,0-6.249,0.732-6.251,2.342v0.002v3.042c0,0.202,0.052,0.391,0.146,0.566
			c-0.095,0.174-0.146,0.363-0.146,0.564c0,0,0,0,0,0.002l0,0v3.041c0,0.188,0.048,0.363,0.13,0.527
			c-0.082,0.164-0.13,0.34-0.13,0.527v3.042c0,1.609,3.239,2.344,6.249,2.344c3.011,0,6.25-0.734,6.25-2.344v-2.923
			c0-0.003,0.002-0.006,0.002-0.008c0-0.004-0.002-0.008-0.002-0.011v-0.094c0-0.003,0.002-0.005,0.002-0.008
			c0-0.188-0.049-0.364-0.132-0.529c0.082-0.164,0.13-0.339,0.13-0.526v-2.922c0-0.003,0.002-0.006,0.002-0.008
			c0-0.004-0.002-0.007-0.002-0.012v-0.092c0-0.002,0.002-0.005,0.002-0.008c0-0.203-0.053-0.391-0.148-0.566
			c0.096-0.174,0.146-0.363,0.146-0.564V18.494z"/>
		
			<linearGradient id="path8001_2_" gradientUnits="userSpaceOnUse" x1="2025.6309" y1="4323.3164" x2="2039.8661" y2="4323.3164" gradientTransform="matrix(0.6524 0 0 0.6524 -1301.5078 -2791.4744)">
			<stop  offset="0" style="stop-color:#BFDEEC"/>
			<stop  offset="0.0164" style="stop-color:#B8D3E2"/>
			<stop  offset="0.043" style="stop-color:#A3BCC8"/>
			<stop  offset="0.0667" style="stop-color:#8BA2AF"/>
			<stop  offset="0.5455" style="stop-color:#BFDEEC"/>
			<stop  offset="0.5614" style="stop-color:#C2DCEB"/>
			<stop  offset="0.6708" style="stop-color:#DAEBF3"/>
			<stop  offset="0.7715" style="stop-color:#EDF7F9"/>
			<stop  offset="0.8545" style="stop-color:#F1F8F9"/>
			<stop  offset="0.8593" style="stop-color:#F0F8FA"/>
			<stop  offset="0.8965" style="stop-color:#E9F5F7"/>
			<stop  offset="1" style="stop-color:#E8F5F7"/>
		</linearGradient>
		<path id="path8001_1_" fill="url(#path8001_2_)" d="M31.498,29.656v-3.042c0,1.019-2.573,1.846-5.75,1.846
			c-3.174,0-5.749-0.826-5.749-1.846v3.042c0,1.018,2.573,1.844,5.749,1.844C28.925,31.5,31.498,30.676,31.498,29.656z"/>
		<ellipse id="ellipse8003_1_" fill="#BFDEEC" cx="25.75" cy="26.615" rx="5.75" ry="1.845"/>
		<ellipse id="ellipse8010_1_" fill="#020202" cx="25.75" cy="26.423" rx="5.446" ry="1.738"/>
		
			<linearGradient id="path8044_2_" gradientUnits="userSpaceOnUse" x1="2043.1475" y1="4321.0693" x2="2028.7469" y2="4321.0693" gradientTransform="matrix(0.6524 0 0 0.6524 -1301.5078 -2791.4744)">
			<stop  offset="0" style="stop-color:#BFDEEC"/>
			<stop  offset="0.0164" style="stop-color:#B8D3E2"/>
			<stop  offset="0.043" style="stop-color:#A3BCC8"/>
			<stop  offset="0.0667" style="stop-color:#8BA2AF"/>
			<stop  offset="0.5455" style="stop-color:#BFDEEC"/>
			<stop  offset="0.5614" style="stop-color:#C2DCEB"/>
			<stop  offset="0.6708" style="stop-color:#DAEBF3"/>
			<stop  offset="0.7715" style="stop-color:#EDF7F9"/>
			<stop  offset="0.8545" style="stop-color:#F1F8F9"/>
			<stop  offset="0.8593" style="stop-color:#F0F8FA"/>
			<stop  offset="0.8965" style="stop-color:#E9F5F7"/>
			<stop  offset="1" style="stop-color:#E8F5F7"/>
		</linearGradient>
		<path id="path8044_1_" fill="url(#path8044_2_)" d="M25.75,28.348c-3.061,0-5.562-0.767-5.738-1.734
			c-0.007,0.036-0.011,0.073-0.011,0.111c0,1.017,2.572,1.843,5.749,1.843c3.173,0,5.75-0.824,5.75-1.843
			c0-0.038-0.007-0.075-0.012-0.111C31.309,27.581,28.809,28.348,25.75,28.348z"/>
		
			<linearGradient id="path8087_2_" gradientUnits="userSpaceOnUse" x1="2025.6309" y1="4317.0371" x2="2039.8661" y2="4317.0371" gradientTransform="matrix(0.6524 0 0 0.6524 -1301.5078 -2791.4744)">
			<stop  offset="0" style="stop-color:#BFDEEC"/>
			<stop  offset="0.0164" style="stop-color:#B8D3E2"/>
			<stop  offset="0.043" style="stop-color:#A3BCC8"/>
			<stop  offset="0.0667" style="stop-color:#8BA2AF"/>
			<stop  offset="0.5455" style="stop-color:#BFDEEC"/>
			<stop  offset="0.5614" style="stop-color:#C2DCEB"/>
			<stop  offset="0.6708" style="stop-color:#DAEBF3"/>
			<stop  offset="0.7715" style="stop-color:#EDF7F9"/>
			<stop  offset="0.8545" style="stop-color:#F1F8F9"/>
			<stop  offset="0.8593" style="stop-color:#F0F8FA"/>
			<stop  offset="0.8965" style="stop-color:#E9F5F7"/>
			<stop  offset="1" style="stop-color:#E8F5F7"/>
		</linearGradient>
		<path id="path8087_1_" fill="url(#path8087_2_)" d="M31.498,25.56v-3.041c0,1.018-2.573,1.844-5.75,1.844
			c-3.174,0-5.749-0.826-5.749-1.844v3.041c0,1.018,2.573,1.844,5.749,1.844C28.925,27.402,31.498,26.578,31.498,25.56z"/>
		<ellipse id="ellipse8089_1_" fill="#BFDEEC" cx="25.75" cy="22.518" rx="5.75" ry="1.844"/>
		<ellipse id="ellipse8096_1_" fill="#020202" cx="25.75" cy="22.329" rx="5.446" ry="1.738"/>
		
			<linearGradient id="path8130_2_" gradientUnits="userSpaceOnUse" x1="2043.1436" y1="4314.792" x2="2028.743" y2="4314.792" gradientTransform="matrix(0.6524 0 0 0.6524 -1301.5078 -2791.4744)">
			<stop  offset="0" style="stop-color:#BFDEEC"/>
			<stop  offset="0.0164" style="stop-color:#B8D3E2"/>
			<stop  offset="0.043" style="stop-color:#A3BCC8"/>
			<stop  offset="0.0667" style="stop-color:#8BA2AF"/>
			<stop  offset="0.5455" style="stop-color:#BFDEEC"/>
			<stop  offset="0.5614" style="stop-color:#C2DCEB"/>
			<stop  offset="0.6708" style="stop-color:#DAEBF3"/>
			<stop  offset="0.7715" style="stop-color:#EDF7F9"/>
			<stop  offset="0.8545" style="stop-color:#F1F8F9"/>
			<stop  offset="0.8593" style="stop-color:#F0F8FA"/>
			<stop  offset="0.8965" style="stop-color:#E9F5F7"/>
			<stop  offset="1" style="stop-color:#E8F5F7"/>
		</linearGradient>
		<path id="path8130_1_" fill="url(#path8130_2_)" d="M25.75,24.253c-3.061,0-5.562-0.766-5.738-1.734
			c-0.008,0.037-0.011,0.071-0.011,0.109c0,1.018,2.572,1.844,5.749,1.844c3.173,0,5.75-0.826,5.75-1.844
			c0-0.039-0.007-0.074-0.012-0.109C31.309,23.485,28.809,24.253,25.75,24.253z"/>
		
			<linearGradient id="path8173_2_" gradientUnits="userSpaceOnUse" x1="2025.6309" y1="4310.6406" x2="2039.8661" y2="4310.6406" gradientTransform="matrix(0.6524 0 0 0.6524 -1301.5078 -2791.4744)">
			<stop  offset="0" style="stop-color:#BFDEEC"/>
			<stop  offset="0.0164" style="stop-color:#B8D3E2"/>
			<stop  offset="0.043" style="stop-color:#A3BCC8"/>
			<stop  offset="0.0667" style="stop-color:#8BA2AF"/>
			<stop  offset="0.5455" style="stop-color:#BFDEEC"/>
			<stop  offset="0.5614" style="stop-color:#C2DCEB"/>
			<stop  offset="0.6708" style="stop-color:#DAEBF3"/>
			<stop  offset="0.7715" style="stop-color:#EDF7F9"/>
			<stop  offset="0.8545" style="stop-color:#F1F8F9"/>
			<stop  offset="0.8593" style="stop-color:#F0F8FA"/>
			<stop  offset="0.8965" style="stop-color:#E9F5F7"/>
			<stop  offset="1" style="stop-color:#E8F5F7"/>
		</linearGradient>
		<path id="path8173_1_" fill="url(#path8173_2_)" d="M31.498,21.386v-3.042c0,1.018-2.573,1.846-5.75,1.846
			c-3.174,0-5.749-0.826-5.749-1.846v3.042c0,1.018,2.573,1.846,5.749,1.846C28.925,23.231,31.498,22.403,31.498,21.386z"/>
		<ellipse id="ellipse8175_1_" fill="#BFDEEC" cx="25.75" cy="18.344" rx="5.75" ry="1.844"/>
		
			<linearGradient id="path8202_2_" gradientUnits="userSpaceOnUse" x1="2043.1475" y1="4308.4424" x2="2028.7469" y2="4308.4424" gradientTransform="matrix(0.6524 0 0 0.6524 -1301.5078 -2791.4744)">
			<stop  offset="0" style="stop-color:#BFDEEC"/>
			<stop  offset="0.0164" style="stop-color:#B8D3E2"/>
			<stop  offset="0.043" style="stop-color:#A3BCC8"/>
			<stop  offset="0.0667" style="stop-color:#8BA2AF"/>
			<stop  offset="0.5455" style="stop-color:#BFDEEC"/>
			<stop  offset="0.5614" style="stop-color:#C2DCEB"/>
			<stop  offset="0.6708" style="stop-color:#DAEBF3"/>
			<stop  offset="0.7715" style="stop-color:#EDF7F9"/>
			<stop  offset="0.8545" style="stop-color:#F1F8F9"/>
			<stop  offset="0.8593" style="stop-color:#F0F8FA"/>
			<stop  offset="0.8965" style="stop-color:#E9F5F7"/>
			<stop  offset="1" style="stop-color:#E8F5F7"/>
		</linearGradient>
		<path id="path8202_1_" fill="url(#path8202_2_)" d="M25.75,20.109c-3.061,0-5.562-0.764-5.738-1.734
			c-0.008,0.037-0.011,0.074-0.011,0.111c0,1.018,2.572,1.844,5.749,1.844c3.173,0,5.75-0.828,5.75-1.844
			c0-0.039-0.007-0.074-0.012-0.111C31.309,19.346,28.809,20.109,25.75,20.109L25.75,20.109z"/>
	</g>
</g>
</svg>
