<?xml version="1.0" encoding="utf-8"?>
<!-- Generator: Adobe Illustrator 14.0.0, SVG Export Plug-In . SVG Version: 6.00 Build 43363)  -->
<!DOCTYPE svg PUBLIC "-//W3C//DTD SVG 1.1//EN" "http://www.w3.org/Graphics/SVG/1.1/DTD/svg11.dtd">
<svg version="1.1"
	 id="svg3456" sodipodi:docname="Р СњР С•Р Р†РЎвЂ№Р в„– Р Т‘Р С•Р С”РЎС“Р СР ВµР Р…РЎвЂљ 2" inkscape:version="0.47pre4 " xmlns:dc="http://purl.org/dc/elements/1.1/" xmlns:cc="http://creativecommons.org/ns#" xmlns:rdf="http://www.w3.org/1999/02/22-rdf-syntax-ns#" xmlns:svg="http://www.w3.org/2000/svg" xmlns:sodipodi="http://sodipodi.sourceforge.net/DTD/sodipodi-0.dtd" xmlns:inkscape="http://www.inkscape.org/namespaces/inkscape"
	 xmlns="http://www.w3.org/2000/svg" xmlns:xlink="http://www.w3.org/1999/xlink" x="0px" y="0px" width="32px" height="32px"
	 viewBox="0 0 32 32" enable-background="new 0 0 32 32" xml:space="preserve">
<path id="path3144" fill="#231F20" d="M30.977,30.505c0.238,0,0.474-0.084,0.659-0.24C31.866,30.07,32,29.782,32,29.48V2.52
	c0-0.288-0.122-0.562-0.334-0.755c-0.19-0.173-0.436-0.268-0.689-0.268c-0.032,0-0.063,0.001-0.093,0.004L9.917,3.396
	c-0.528,0.048-0.932,0.491-0.932,1.02v21.46c0,0.498,0.36,0.924,0.85,1.008l20.967,3.606C30.858,30.5,30.917,30.505,30.977,30.505
	L30.977,30.505z"/>
<path id="path3897_3_" fill="#F9A620" d="M10.008,4.414v21.458l20.969,3.606V2.519L10.008,4.414z"/>
<linearGradient id="polygon3155_1_" gradientUnits="userSpaceOnUse" x1="-0.4121" y1="-104.792" x2="18.5088" y2="-104.792" gradientTransform="matrix(-1 0 0 -1 29.54 -88.8398)">
	<stop  offset="0" style="stop-color:#A36628"/>
	<stop  offset="0.5394" style="stop-color:#F9A620"/>
	<stop  offset="1" style="stop-color:#FFF3DF"/>
</linearGradient>
<polygon id="polygon3155" fill="url(#polygon3155_1_)" points="11.031,25.008 29.952,28.266 29.952,3.639 11.031,5.348 "/>
<linearGradient id="path1710_1_" gradientUnits="userSpaceOnUse" x1="-7195.0313" y1="-11183.5801" x2="-7179.7656" y2="-11183.5801" gradientTransform="matrix(0.1243 0 0 -0.108 920.5632 -1191.826)">
	<stop  offset="0" style="stop-color:#F3F4EE"/>
	<stop  offset="1" style="stop-color:#B1B3AE"/>
</linearGradient>
<path id="path1710_2_" fill="url(#path1710_1_)" d="M6.265,4.749v20.9l18.781,3.085l3.685-0.68V3.822l-3.685-0.554L6.265,4.749z"/>
<path id="path3164" fill="#231F20" d="M24.987,32c0.232,0,0.463-0.08,0.646-0.229c0.239-0.194,0.377-0.486,0.377-0.794V1.023
	c0-0.291-0.124-0.568-0.34-0.762C25.481,0.092,25.238,0,24.987,0c-0.037,0-0.073,0.002-0.109,0.006L5.407,2.112
	C4.887,2.169,4.492,2.607,4.492,3.13v23.842c0,0.487,0.342,0.905,0.818,1.004l19.47,4.005C24.849,31.994,24.918,32,24.987,32
	L24.987,32z"/>
<path id="path2443_3_" fill="#F9A620" d="M5.516,3.128v23.844l19.471,4.003V1.022L5.516,3.128z"/>
<linearGradient id="polygon3175_1_" gradientUnits="userSpaceOnUse" x1="5.5771" y1="-104.6543" x2="23" y2="-104.6543" gradientTransform="matrix(-1 0 0 -1 29.54 -88.8398)">
	<stop  offset="0" style="stop-color:#A36628"/>
	<stop  offset="0.5394" style="stop-color:#F9A620"/>
	<stop  offset="1" style="stop-color:#FFF3DF"/>
</linearGradient>
<polygon id="polygon3175" fill="url(#polygon3175_1_)" points="6.54,26.012 23.963,29.593 23.963,2.036 6.54,3.921 "/>
<linearGradient id="path7549_1_" gradientUnits="userSpaceOnUse" x1="-8021.293" y1="-10582.4658" x2="-8024.4688" y2="-10757.7705" gradientTransform="matrix(0.1119 0 0 -0.1119 912.8628 -1191.459)">
	<stop  offset="0" style="stop-color:#FFFFFF;stop-opacity:0.624"/>
	<stop  offset="1" style="stop-color:#FFFFFF;stop-opacity:0"/>
</linearGradient>
<path id="path7549_2_" fill="url(#path7549_1_)" d="M6.448,4.347v13.272c5.208-10.022,12.487-5.688,16.969,1.897V2.364L6.448,4.347z
	"/>
<radialGradient id="path3736_1_" cx="-5687.4502" cy="-6314.709" r="62.6708" gradientTransform="matrix(0.1648 0 0 -0.1902 948.4641 -1192.7985)" gradientUnits="userSpaceOnUse">
	<stop  offset="0" style="stop-color:#FFFFFF;stop-opacity:0.3519"/>
	<stop  offset="1" style="stop-color:#FFFFFF;stop-opacity:0"/>
</radialGradient>
<path id="path3736_2_" fill="url(#path3736_1_)" d="M6.265,3.667v21.457l17.974,3.605V1.771L6.265,3.667z"/>
<path id="path3191" fill="#231F20" d="M9.37,15.646c0.291,0,0.575-0.125,0.772-0.35l1.625-1.865l1.799,0.979
	c0.153,0.084,0.321,0.125,0.49,0.125c0.204,0,0.408-0.062,0.582-0.181c0.318-0.221,0.485-0.6,0.432-0.981
	c-0.17-1.234-0.589-4.683-0.499-5.833c0.069-0.843,0.852-3.631,1.33-5.189c0.101-0.325,0.03-0.678-0.184-0.941
	c-0.194-0.243-0.489-0.382-0.796-0.382c-0.028,0-0.058,0.001-0.085,0.003l-4.325,0.362c-0.39,0.034-0.728,0.285-0.87,0.651
	c-0.252,0.652-1.52,3.966-1.647,5.161C7.791,9.096,8.329,14.5,8.352,14.729c0.041,0.406,0.319,0.75,0.707,0.873
	C9.162,15.633,9.267,15.646,9.37,15.646L9.37,15.646z"/>
<path id="path3193" fill="#EA2A29" d="M8.887,7.271c-0.199,1.882,0.378,7.614,0.378,7.614l2.249-2.585l2.627,1.427
	c0,0-0.652-4.727-0.526-6.304c0.104-1.323,1.427-5.631,1.427-5.631l-4.502,0.377C10.542,2.167,9.011,6.101,8.887,7.271z"/>
<linearGradient id="path3202_1_" gradientUnits="userSpaceOnUse" x1="15.5884" y1="-96.5054" x2="19.9873" y2="-96.5054" gradientTransform="matrix(-1 0 0 -1 29.54 -88.8398)">
	<stop  offset="0" style="stop-color:#F5969A"/>
	<stop  offset="1" style="stop-color:#901A1E"/>
</linearGradient>
<path id="path3202" fill="url(#path3202_1_)" d="M11.238,11.41l1.861,1.011c-0.198-1.708-0.426-4.042-0.334-5.175
	c0.082-1.039,0.732-3.413,1.186-4.979l-2.831,0.237c-0.625,1.661-1.448,4.021-1.528,4.764c-0.116,1.101,0.039,3.704,0.205,5.795
	L11.238,11.41z"/>
<path id="path4992" fill="#020202" d="M5.576,16.006c-0.021,0.006-0.042,0.013-0.061,0.02c0.002,0-0.063,0.021-0.061,0.02
	c0.001,0-0.083,0.021-0.081,0.021c0.001,0-0.064,0.041-0.062,0.041s-0.063,0.041-0.061,0.04c0.001,0-0.063,0.042-0.061,0.039
	c0.001,0-0.063,0.043-0.061,0.041c0.001,0-0.063,0.064-0.061,0.062c0.001,0-0.043,0.063-0.04,0.061c0.001,0-0.042,0.063-0.042,0.061
	c0.001,0-0.04,0.063-0.04,0.062c0,0-0.042,0.083-0.041,0.081c0,0-0.021,0.063-0.021,0.061c0,0-0.021,0.084-0.02,0.081
	c0,0-0.021,0.083-0.02,0.081c0,0,0,0.063,0,0.061c0,0,0,0.04,0,0.061c0,0.008,0,0.021,0,0.021v3.938H0.91c0,0-0.009,0-0.02,0
	c-0.013,0-0.021,0-0.021,0c0.001,0-0.042,0-0.04,0c-0.008,0-0.014,0-0.021,0c0.001,0-0.042,0-0.041,0l-0.042,0.02
	c0.001,0-0.041,0-0.041,0c0.001,0-0.042,0.021-0.04,0.02c0,0-0.042,0.001-0.041,0c0,0-0.041,0.02-0.039,0.02
	c0.001-0.001-0.042,0.021-0.041,0.02c0.001,0-0.042,0.021-0.042,0.02c0.001,0-0.041,0.021-0.041,0.02
	c0.001,0-0.021,0.021-0.02,0.021c0.001,0-0.042,0.02-0.041,0.02c0,0-0.042,0.021-0.041,0.021c0.001,0-0.021,0.021-0.02,0.02
	c0.001,0-0.042,0.041-0.041,0.04c0.001,0-0.021,0.021-0.02,0.02c0.001,0-0.042,0.021-0.042,0.021c0.001,0-0.02,0.042-0.019,0.04
	c0.001,0-0.021,0.041-0.021,0.041c0,0-0.021,0.021-0.02,0.021l-0.041,0.041c0,0-0.021,0.04-0.02,0.04c0,0-0.021,0.041-0.021,0.039
	c0,0-0.001,0.021,0,0.021c0,0-0.02,0.042-0.02,0.04l-0.02,0.042v0.041l-0.021,0.04v0.04c0,0-0.02,0.042-0.02,0.041v0.041V21.7
	c0,0,0,0.041,0,0.04v4.524c0,0,0,0.042,0,0.041c0,0,0,0.041,0,0.04v0.042l0.02,0.04c0,0,0,0.042,0,0.041
	c0,0,0.021,0.062,0.021,0.061l0.02,0.041v0.041c-0.001,0,0.02,0.04,0.02,0.039c-0.001,0,0.021,0.041,0.021,0.04
	c-0.001,0,0.02,0.042,0.02,0.042c-0.001,0,0.021,0.02,0.019,0.019l0.042,0.042c-0.001,0,0.021,0.04,0.021,0.04
	c-0.001,0,0.02,0.04,0.019,0.04c-0.001,0,0.042,0.021,0.042,0.021c-0.001,0,0.021,0.042,0.02,0.04c-0.001,0,0.041,0.021,0.041,0.02
	c-0.001,0,0.042,0.021,0.041,0.021c-0.001,0,0.042,0.041,0.04,0.04c-0.001,0,0.021,0.021,0.021,0.021c-0.001,0,0.042,0.02,0.04,0.02
	c-0.001-0.001,0.042,0.021,0.042,0.021c-0.001-0.001,0.042,0.021,0.04,0.021c-0.001-0.002,0.042,0,0.041,0
	c-0.001-0.002,0.042,0.02,0.042,0.019c-0.002,0,0.062,0.021,0.061,0.021c-0.001,0,0.04,0,0.04,0c-0.002,0,0.042,0.02,0.041,0.019
	c-0.001,0,0.042,0,0.042,0c-0.002,0,0.041,0,0.041,0c-0.002,0,0.041,0,0.041,0h3.958v3.939v0.02c-0.001,0.013,0,0.02,0,0.02v0.042
	c0,0.007,0,0.013,0,0.02v0.041c-0.001,0,0.02,0.041,0.02,0.041c-0.001,0,0,0.041,0,0.04c-0.001,0,0.021,0.042,0.021,0.04
	c-0.001,0,0,0.042,0,0.042c-0.001,0,0.02,0.04,0.02,0.04c-0.001,0,0.019,0.041,0.019,0.041c-0.001,0,0.02,0.041,0.02,0.041
	C4.95,31.518,4.971,31.56,4.971,31.56c-0.001,0,0.02,0.021,0.02,0.02c-0.001,0,0.02,0.041,0.02,0.039
	c-0.001,0,0.021,0.042,0.021,0.041c-0.001,0,0.02,0.021,0.02,0.02c-0.001,0,0.041,0.042,0.041,0.041c-0.001,0,0.02,0.021,0.02,0.021
	c-0.001,0,0.021,0.041,0.021,0.04c-0.001,0,0.04,0.021,0.04,0.021c-0.001,0,0.041,0.02,0.041,0.02c-0.001,0,0.02,0.021,0.02,0.021
	c-0.001,0,0.042,0.04,0.041,0.04l0.042,0.021c-0.001-0.001,0.041,0.021,0.041,0.021c-0.001-0.002,0.021,0,0.021,0
	c-0.001-0.002,0.04,0.02,0.04,0.019c-0.001,0,0.042,0.021,0.041,0.021c-0.001,0,0.042,0.001,0.041,0
	c-0.001,0,0.042,0.021,0.042,0.02c-0.001,0,0.041,0,0.041,0c-0.001,0,0.042,0.021,0.041,0.02c-0.001,0,0.042,0,0.04,0h0.042
	c-0.001,0,0.04,0,0.04,0h4.524c-0.002,0,0.042,0,0.041,0c-0.003,0,0.042,0,0.04,0c-0.002,0,0.042,0,0.042,0
	c-0.003,0,0.042-0.02,0.04-0.02c-0.002,0,0.042,0,0.041,0c0,0,0.062-0.02,0.061-0.02c-0.001,0.001,0.042-0.021,0.042-0.021
	c-0.001,0.001,0.041,0,0.041,0c-0.001,0.001,0.042-0.021,0.041-0.019c-0.001,0,0.042-0.021,0.041-0.021
	c-0.001,0,0.042-0.021,0.042-0.021c-0.001,0,0.021-0.021,0.02-0.02c-0.001,0,0.041-0.041,0.041-0.041
	c-0.001,0,0.041-0.021,0.041-0.02c-0.001,0,0.04-0.021,0.04-0.021c-0.001,0,0.021-0.04,0.021-0.039
	c-0.001,0,0.041-0.021,0.041-0.021c-0.001,0,0.02-0.042,0.02-0.042c-0.001,0.002,0.02-0.04,0.02-0.039
	c-0.001,0,0.041-0.041,0.041-0.041c-0.001,0,0.02-0.021,0.02-0.02c-0.001,0,0.021-0.041,0.021-0.041c-0.001,0,0.02-0.041,0.02-0.041
	c-0.001,0,0.02-0.041,0.02-0.04c-0.001,0,0-0.042,0-0.039c-0.001,0,0.021-0.043,0.021-0.042c-0.001,0,0.02-0.062,0.02-0.061
	c-0.001,0,0-0.041,0-0.04c-0.001,0,0.021-0.043,0.021-0.041c-0.001,0,0-0.041,0-0.041s0-0.042,0-0.041c0,0,0-0.041,0-0.04v-3.959
	h3.95c-0.002,0,0.042,0,0.041,0c-0.003,0,0.042-0.001,0.04,0c-0.002,0,0.042-0.001,0.042,0c-0.003,0,0.04-0.021,0.04-0.02
	c-0.002,0,0.042-0.002,0.041,0c-0.001,0,0.062-0.021,0.061-0.021c-0.001,0,0.042-0.021,0.042-0.021c-0.001,0,0.041-0.001,0.041,0
	c-0.001,0,0.042-0.02,0.041-0.02c0,0,0.042-0.02,0.041-0.02c-0.001,0.002,0.042-0.02,0.042-0.02c-0.001,0,0.02-0.021,0.019-0.021
	c-0.001,0,0.042-0.04,0.042-0.039c-0.001,0,0.041-0.021,0.041-0.021c-0.001,0,0.04-0.021,0.04-0.021
	c-0.001,0,0.021-0.041,0.021-0.04c-0.001,0,0.041-0.021,0.041-0.021c-0.001,0,0.02-0.041,0.02-0.041c-0.001,0,0.02-0.041,0.02-0.041
	c-0.001,0,0.041-0.04,0.041-0.04c-0.001,0,0.02-0.021,0.02-0.021c-0.001,0,0.021-0.041,0.021-0.04c-0.001,0,0.02-0.04,0.02-0.039
	c-0.001,0,0.02-0.042,0.02-0.042c-0.001,0,0-0.04,0-0.04c-0.001,0,0.021-0.042,0.021-0.04c-0.001,0,0.02-0.063,0.02-0.061
	c-0.001,0,0-0.042,0-0.042c-0.001,0,0.019-0.041,0.019-0.041c-0.001,0,0-0.041,0-0.04c0,0,0-0.042,0-0.04v-0.042V21.74
	c0,0,0-0.042,0-0.04c0,0,0-0.042,0-0.041c0,0-0.001-0.041,0-0.04c0,0-0.02-0.042-0.019-0.04c0,0-0.001-0.042,0-0.041
	c0,0-0.021-0.063-0.02-0.062c0,0-0.021-0.041-0.021-0.039c0,0-0.001-0.041,0-0.041c0,0-0.021-0.041-0.02-0.04
	c0,0-0.021-0.042-0.02-0.041c0,0-0.021-0.041-0.021-0.04c0,0-0.021-0.021-0.02-0.02l-0.041-0.041c0,0-0.021-0.041-0.02-0.04
	c0,0-0.021-0.042-0.02-0.041c0,0-0.041-0.021-0.041-0.02c0,0-0.021-0.042-0.021-0.041c0,0-0.042-0.021-0.04-0.02
	c0,0-0.042-0.021-0.041-0.021c0.001,0-0.042-0.04-0.042-0.04c0.001,0-0.021-0.021-0.019-0.02c0.001,0-0.042-0.021-0.042-0.02
	c0.001,0-0.041-0.021-0.041-0.021c0.001,0-0.042-0.021-0.041-0.021c0.001,0.002-0.042,0-0.041,0c0.001,0.002-0.042-0.02-0.042-0.02
	c0.001,0.001-0.062-0.021-0.061-0.02c0.001,0-0.042,0-0.041,0c0.001,0-0.042-0.021-0.04-0.02c0.001,0-0.042,0-0.042,0
	c0.001,0-0.042,0-0.04,0c0.001,0-0.043,0-0.041,0H11.15v-3.959c0,0,0-0.042,0-0.041v-0.041c0,0-0.001-0.042,0-0.04
	c0,0-0.021-0.042-0.02-0.041c0,0-0.001-0.042,0-0.041c0,0-0.021-0.062-0.02-0.061c0,0-0.021-0.042-0.021-0.041
	c0,0-0.001-0.041,0-0.04c0,0-0.021-0.041-0.02-0.041c0,0-0.021-0.04-0.019-0.039c0,0-0.021-0.041-0.02-0.041
	c0,0-0.021-0.021-0.02-0.021c0,0-0.042-0.04-0.041-0.04c0,0-0.021-0.041-0.021-0.041c0,0-0.021-0.04-0.02-0.039
	c0,0-0.042-0.021-0.041-0.021c0,0-0.021-0.041-0.02-0.04c0,0-0.042-0.021-0.042-0.021c0,0-0.041-0.021-0.041-0.02
	c0.001,0-0.042-0.041-0.041-0.041c0.001,0-0.021-0.02-0.02-0.02c0.001,0-0.042-0.021-0.041-0.02c0,0-0.042-0.021-0.042-0.02
	c0.002,0-0.041-0.021-0.041-0.02c0.001,0-0.042-0.001-0.041,0c0.001,0-0.042-0.021-0.04-0.02c0.001,0-0.062-0.021-0.061-0.021
	c0.001,0-0.042,0-0.042,0c0.001,0-0.039-0.018-0.038-0.018c0.001,0-0.043,0-0.041,0c0.001,0-0.043,0-0.041,0
	c0.001,0-0.043,0-0.042,0H5.776c0.001,0-0.043,0-0.041,0c0.001,0-0.043,0-0.04,0c0,0-0.01,0-0.021,0c0,0-0.014,0-0.02,0
	c0.001,0-0.043,0-0.041,0c-0.014,0-0.028,0-0.042,0v-0.005H5.576z"/>
<path id="rect4855-4" fill="#6EBD46" d="M5.745,16.893v4.848H0.899v4.523h4.846v4.848h4.524v-4.848h4.847V21.74h-4.847v-4.848H5.745
	z"/>
<linearGradient id="path4903-3_1_" gradientUnits="userSpaceOnUse" x1="-1458.9736" y1="1616.8672" x2="-1445.8857" y2="1616.8672" gradientTransform="matrix(0 -1 1 0 -1608.8594 -1428.4277)">
	<stop  offset="0" style="stop-color:#B0D68C"/>
	<stop  offset="1" style="stop-color:#1E9046"/>
</linearGradient>
<path id="path4903-3" fill="url(#path4903-3_1_)" d="M6.311,17.458v4.848H1.464v3.393h4.846v4.848h3.393v-4.848h4.847v-3.393H9.704
	v-4.848H6.311z"/>
</svg>
