<?xml version="1.0" encoding="utf-8"?>
<!-- Generator: Adobe Illustrator 16.0.0, SVG Export Plug-In . SVG Version: 6.00 Build 0)  -->
<!DOCTYPE svg PUBLIC "-//W3C//DTD SVG 1.1//EN" "http://www.w3.org/Graphics/SVG/1.1/DTD/svg11.dtd">
<svg version="1.1" id="Layer_1" xmlns="http://www.w3.org/2000/svg" xmlns:xlink="http://www.w3.org/1999/xlink" x="0px" y="0px"
	 width="32px" height="32px" viewBox="0 0 32 32" enable-background="new 0 0 32 32" xml:space="preserve">
<g id="Layer_1_2_" display="none">
	<g id="Layer_1_1_" display="inline">
		<g id="Layer_2">
			<g>
				<path d="M1.681,27.384c-0.532,0-0.964-0.431-0.964-0.964V1.642c0-0.532,0.432-0.963,0.964-0.963h28.928
					c0.535,0,0.965,0.431,0.965,0.963V26.42c0,0.533-0.43,0.964-0.965,0.964H1.681z"/>
				<rect x="1.681" y="1.642" fill="#FFFFFF" width="28.928" height="24.778"/>
				<line fill="none" stroke="#929497" x1="26.773" y1="6.698" x2="26.773" y2="26.42"/>
				<line fill="none" stroke="#929497" x1="22.516" y1="6.78" x2="22.516" y2="26.42"/>
				<line fill="none" stroke="#929497" x1="18.578" y1="6.7" x2="18.578" y2="26.42"/>
				<line fill="none" stroke="#929497" x1="14.238" y1="6.78" x2="14.238" y2="26.42"/>
				<line fill="none" stroke="#929497" x1="9.979" y1="6.7" x2="9.979" y2="26.42"/>
				<line fill="none" stroke="#929497" x1="5.72" y1="6.698" x2="5.72" y2="26.42"/>
				<line fill="none" stroke="#929497" x1="1.681" y1="11.157" x2="30.609" y2="11.157"/>
				<line fill="none" stroke="#929497" x1="1.681" y1="15.016" x2="30.609" y2="15.016"/>
				<line fill="none" stroke="#929497" x1="1.681" y1="18.952" x2="30.609" y2="18.952"/>
				<line fill="none" stroke="#929497" x1="1.681" y1="22.891" x2="30.609" y2="22.891"/>
				
					<linearGradient id="SVGID_1_" gradientUnits="userSpaceOnUse" x1="284.6621" y1="2147.2129" x2="313.5898" y2="2147.2129" gradientTransform="matrix(1 0 0 1 -282.9805 -2143.123)">
					<stop  offset="0" style="stop-color:#B0D68C"/>
					<stop  offset="1" style="stop-color:#219046"/>
				</linearGradient>
				<rect x="1.681" y="1.642" fill="url(#SVGID_1_)" width="28.928" height="4.896"/>
				<rect x="2.646" y="2.606" fill="#6FBD46" width="27" height="2.969"/>
				<line fill="none" stroke="#000000" x1="0.738" y1="6.78" x2="31.596" y2="6.78"/>
				<rect x="9.979" y="11.157" fill="none" stroke="#EA2A29" stroke-width="2" width="4.259" height="3.859"/>
				<rect x="9.979" y="11.157" fill="#FFFFFF" width="4.259" height="3.859"/>
				
					<linearGradient id="SVGID_2_" gradientUnits="userSpaceOnUse" x1="312.3369" y1="2168.4492" x2="285.6971" y2="2150.6091" gradientTransform="matrix(1 0 0 1 -282.9805 -2143.123)">
					<stop  offset="0" style="stop-color:#000000;stop-opacity:0.25"/>
					<stop  offset="1" style="stop-color:#000000;stop-opacity:0"/>
				</linearGradient>
				<rect x="2.646" y="7.503" fill="url(#SVGID_2_)" width="27" height="17.953"/>
				<path display="none" d="M21.952,31.535c-5.317,0-9.643-4.325-9.643-9.645c0-5.315,4.325-9.646,9.643-9.646
					c5.317,0,9.644,4.321,9.644,9.646C31.596,27.21,27.27,31.535,21.952,31.535L21.952,31.535z"/>
				<circle display="none" fill="#FAA81E" cx="21.952" cy="21.893" r="8.653"/>
				<path display="none" fill="#FFFFFF" d="M21.952,29.311c-4.093,0-7.417-3.326-7.417-7.418c0-4.09,3.324-7.417,7.417-7.417
					c4.091,0,7.418,3.329,7.418,7.417C29.37,25.982,26.043,29.311,21.952,29.311L21.952,29.311z"/>
				<polygon display="none" points="22.775,22.189 21.129,22.189 21.952,14.475 				"/>
				<polygon display="none" points="20.95,22.354 22.118,21.188 25.43,25.663 				"/>
				<circle display="none" cx="21.952" cy="22.188" r="1.236"/>
				<path id="path3938_20_" fill="#020202" d="M21.82,12.278c-2.621,0-4.996,1.061-6.715,2.787c-0.194,0.195-0.4,0.404-0.612,0.658
					c-0.033,0.043-0.031,0.075-0.056,0.114c-0.158,0.19-0.324,0.383-0.48,0.622c-0.363,0.531-0.625,1.081-0.863,1.639
					c-0.112,0.264-0.225,0.543-0.324,0.863c-0.096,0.303-0.182,0.614-0.248,0.943c-0.127,0.604-0.203,1.211-0.203,1.879
					c0,0.011,0,0.021,0,0.037c0,0.01,0,0.02,0,0.033c0,0.006,0,0.008,0,0.01c0.004,0.58,0.057,1.156,0.166,1.717
					c0.052,0.271,0.075,0.318,0.037,0.13c0.124,0.649,0.336,1.233,0.572,1.796c0.102,0.24,0.204,0.52,0.371,0.823
					c1.165,2.167,3.131,3.833,5.534,4.575c0.058,0.021,0.037,0.002,0.08,0.013c0.578,0.172,1.185,0.302,1.799,0.358
					c0.34,0.037,0.668,0.047,0.979,0.047c2.606-0.008,4.998-1.077,6.718-2.786c0.42-0.419,0.821-0.858,1.188-1.39
					c0.184-0.271,0.34-0.547,0.485-0.826c0.167-0.305,0.271-0.568,0.373-0.814c0.239-0.566,0.438-1.16,0.567-1.809
					c-0.031,0.188-0.016,0.15,0.035-0.121c0.113-0.577,0.172-1.151,0.172-1.758c0-0.668-0.082-1.317-0.207-1.928
					c-0.064-0.324-0.15-0.625-0.246-0.938c-0.104-0.317-0.219-0.603-0.321-0.856c-0.213-0.5-0.479-0.978-0.771-1.434
					c-0.021-0.064-0.035-0.125-0.09-0.213c-0.365-0.533-0.771-0.973-1.188-1.389C26.85,13.335,24.445,12.278,21.82,12.278z"/>
				
					<linearGradient id="path3914_1_" gradientUnits="userSpaceOnUse" x1="575.2949" y1="3257.6006" x2="592.5449" y2="3257.6006" gradientTransform="matrix(1 0 0 1 -562.0605 -3235.8027)">
					<stop  offset="0" style="stop-color:#A36628"/>
					<stop  offset="0.5394" style="stop-color:#F9A61E"/>
					<stop  offset="1" style="stop-color:#FFF3DF"/>
				</linearGradient>
				<path id="path3914_22_" fill="url(#path3914_1_)" d="M30.484,21.801c0,4.76-3.858,8.624-8.625,8.624
					c-4.764,0.003-8.625-3.854-8.625-8.622c0,0,0-0.002,0-0.004c-0.001-4.766,3.856-8.624,8.622-8.627
					c4.769-0.004,8.625,3.855,8.629,8.62C30.484,21.799,30.484,21.799,30.484,21.801z"/>
				<path id="path3910_21_" fill="#F9A61E" d="M21.84,13.185c-4.76,0-8.598,3.875-8.598,8.633c0,4.762,3.838,8.598,8.598,8.598
					s8.637-3.836,8.637-8.598C30.479,17.061,26.602,13.185,21.84,13.185z M21.84,14.631c3.965,0,7.188,3.223,7.188,7.188
					c0,3.971-3.223,7.188-7.188,7.188c-3.966,0-7.188-3.222-7.188-7.188C14.651,17.854,17.874,14.631,21.84,14.631z"/>
				<path id="text3921_22_" fill="#020202" d="M21.479,27.563v-1.158c-0.576-0.071-1.049-0.2-1.412-0.391
					c-0.359-0.185-0.674-0.486-0.938-0.904c-0.268-0.42-0.421-0.924-0.466-1.522l1.171-0.218c0.086,0.615,0.245,1.072,0.475,1.365
					c0.322,0.416,0.717,0.646,1.166,0.688v-3.69c-0.471-0.09-0.963-0.271-1.461-0.555c-0.371-0.207-0.654-0.488-0.854-0.857
					c-0.202-0.361-0.299-0.773-0.299-1.237c0-0.821,0.289-1.491,0.871-2.001c0.395-0.35,0.972-0.563,1.738-0.633v-0.553h0.688v0.553
					c0.672,0.073,1.208,0.264,1.604,0.594c0.508,0.421,0.813,0.996,0.913,1.729l-1.196,0.182c-0.067-0.455-0.211-0.805-0.426-1.047
					c-0.22-0.24-0.519-0.402-0.893-0.479v3.342c0.583,0.146,0.97,0.265,1.158,0.344c0.361,0.158,0.654,0.355,0.88,0.578
					c0.229,0.228,0.403,0.498,0.524,0.813c0.125,0.313,0.182,0.649,0.182,1.021c0,0.802-0.256,1.468-0.768,2.011
					c-0.514,0.534-1.174,0.819-1.979,0.862v1.166h-0.681l0,0h0.002V27.563L21.479,27.563z M21.479,17.419
					c-0.443,0.069-0.803,0.245-1.063,0.539c-0.264,0.292-0.393,0.638-0.393,1.035c0,0.396,0.105,0.726,0.33,0.989
					c0.225,0.271,0.597,0.479,1.123,0.637L21.479,17.419L21.479,17.419z M22.162,25.428c0.454-0.057,0.824-0.252,1.12-0.587
					c0.293-0.331,0.44-0.749,0.44-1.241c0-0.424-0.104-0.762-0.314-1.017c-0.207-0.255-0.621-0.481-1.246-0.685V25.428z"/>
			</g>
		</g>
		<g id="Layer_3">
			<g>
				<path d="M16.751-0.132c0.347,0,0.683,0.139,0.927,0.384l11.104,11.106c0.375,0.375,0.485,0.939,0.284,1.43
					c-0.207,0.49-0.688,0.81-1.215,0.81h-4.238v13.576c0.003,0.727-0.59,1.313-1.313,1.313H11.196c-0.728,0-1.313-0.586-1.313-1.313
					V13.599l-4.238-0.001c-0.53,0-1.009-0.321-1.213-0.81c-0.205-0.492-0.09-1.055,0.285-1.431L15.821,0.255
					C16.066,0.007,16.402-0.132,16.751-0.132L16.751-0.132z"/>
				<polygon fill="#6CBD45" points="16.751,1.181 5.647,12.285 11.196,12.287 11.196,27.174 22.301,27.174 22.301,12.287 
					27.854,12.287 				"/>
				
					<linearGradient id="SVGID_3_" gradientUnits="userSpaceOnUse" x1="-1981.9102" y1="-514.7773" x2="-1966.0435" y2="-514.7773" gradientTransform="matrix(-1 0 0 -1 -1957.2266 -500.3281)">
					<stop  offset="0" style="stop-color:#AED58A"/>
					<stop  offset="1" style="stop-color:#1D8D45"/>
				</linearGradient>
				<polygon fill="url(#SVGID_3_)" points="24.684,10.972 20.986,10.972 20.986,25.859 12.51,25.859 12.51,10.972 8.817,10.972 
					16.751,3.039 				"/>
			</g>
			<g id="g16_2_">
				<path id="path18_11_" fill="#231F20" d="M7.721,31.654c-0.685,0-1.125-0.248-1.172-0.65l-1.468-5.453L0.663,21
					c-0.094-0.092-0.146-0.219-0.147-0.35V17.27c-0.001-0.271,0.218-0.492,0.491-0.494c0.001,0,0.001,0,0.001,0
					c0.272,0,0.492,0.225,0.493,0.492v3.172l4.375,4.516c0.067,0.063,0.115,0.146,0.136,0.236l1.468,5.455
					c0.121,0.023,0.363,0.023,0.482,0.002l1.463-5.457c0.021-0.094,0.07-0.178,0.138-0.244l4.37-4.449l0.008-3.229
					c0-0.271,0.221-0.492,0.492-0.494l0,0c0.271,0,0.494,0.225,0.494,0.492l-0.008,3.438c0,0.133-0.055,0.263-0.152,0.354
					l-4.414,4.496l-1.46,5.436C8.854,31.4,8.413,31.654,7.721,31.654L7.721,31.654z"/>
				<path id="path1874_4_" fill="#06ABD8" d="M1.008,17.268v3.379l4.521,4.654l1.507,5.629l0,0c0,0.125,0.306,0.23,0.683,0.23
					c0.377,0,0.683-0.105,0.683-0.23c0-0.004,0-0.004,0-0.006l1.501-5.623l4.52-4.596l0.01-3.438"/>
				
					<linearGradient id="path1888_1_" gradientUnits="userSpaceOnUse" x1="3.9258" y1="2453.7354" x2="-1.7769" y2="2455.5776" gradientTransform="matrix(1 0 0 1 5.0801 -2431.0625)">
					<stop  offset="0" style="stop-color:#B0D0DA;stop-opacity:0"/>
					<stop  offset="1" style="stop-color:#0B4B5E"/>
				</linearGradient>
				<path id="path1888_4_" fill="url(#path1888_1_)" d="M1.008,17.268v3.379l4.521,4.654l1.535,5.689c0,0,0.334,0.145,0.518,0.133
					l-0.366-5.322l-1.693-4.422l0.011-3.334"/>
				
					<linearGradient id="path1890_1_" gradientUnits="userSpaceOnUse" x1="3.689" y1="2455.0332" x2="7.0555" y2="2455.3613" gradientTransform="matrix(1 0 0 1 5.0801 -2431.0625)">
					<stop  offset="0" style="stop-color:#B0D0DA;stop-opacity:0"/>
					<stop  offset="1" style="stop-color:#80D1EC"/>
				</linearGradient>
				<path id="path1890_4_" fill="url(#path1890_1_)" d="M14.433,17.268l-0.01,3.438l-4.53,4.633l-1.504,5.64
					c0,0-0.253,0.185-0.437,0.172l0.965-5.672l1.559-4.099l0.008-3.334"/>
				<path id="path33_9_" fill="#231F20" d="M7.718,18.539c-7.203,0-7.203-0.922-7.203-1.27c0-0.352,0-1.271,7.203-1.271
					c7.202,0,7.202,0.922,7.202,1.271C14.919,17.615,14.919,18.539,7.718,18.539L7.718,18.539z"/>
				
					<linearGradient id="ellipse1925_1_" gradientUnits="userSpaceOnUse" x1="-8.8594" y1="3269.3711" x2="2.9819" y2="3269.3711" gradientTransform="matrix(1.133 0 0 1.0789 11.0469 -3510.0571)">
					<stop  offset="0" style="stop-color:#838E8C"/>
					<stop  offset="0.0727" style="stop-color:#020202"/>
					<stop  offset="0.2061" style="stop-color:#D2D5D4"/>
					<stop  offset="0.6242" style="stop-color:#B4B4B5"/>
					<stop  offset="0.6657" style="stop-color:#8A9190"/>
					<stop  offset="0.7103" style="stop-color:#677370"/>
					<stop  offset="0.7466" style="stop-color:#525F5D"/>
					<stop  offset="0.7697" style="stop-color:#4A5856"/>
					<stop  offset="0.7719" style="stop-color:#505E5D"/>
					<stop  offset="0.7845" style="stop-color:#6E7976"/>
					<stop  offset="0.7983" style="stop-color:#868D8B"/>
					<stop  offset="0.8136" style="stop-color:#9B9F9E"/>
					<stop  offset="0.8311" style="stop-color:#A8ABAC"/>
					<stop  offset="0.8527" style="stop-color:#B2B2B2"/>
					<stop  offset="0.8909" style="stop-color:#B4B4B5"/>
					<stop  offset="1" style="stop-color:#4A5856"/>
				</linearGradient>
				<ellipse id="ellipse1925_4_" fill="url(#ellipse1925_1_)" cx="7.718" cy="17.269" rx="6.708" ry="0.776"/>
				<path id="path1927_4_" fill="none" stroke="#020202" stroke-width="0.5822" d="M14.681,20.467c0,0.531-3.26,0.967-6.966,0.967
					c-3.705,0-6.962-0.436-6.962-0.967"/>
				<path id="path1929_4_" fill="none" stroke="#020202" stroke-width="0.5822" d="M10.113,25.377c0,0.275-1.191,0.502-2.399,0.502
					s-2.346-0.227-2.346-0.502"/>
				
					<linearGradient id="ellipse1936_1_" gradientUnits="userSpaceOnUse" x1="-8.8594" y1="3269.3711" x2="2.9819" y2="3269.3711" gradientTransform="matrix(1.133 0 0 1.0789 11.0469 -3510.0571)">
					<stop  offset="0" style="stop-color:#020202"/>
					<stop  offset="1" style="stop-color:#020202;stop-opacity:0"/>
				</linearGradient>
				
					<ellipse id="ellipse1936_4_" opacity="0.61" fill="url(#ellipse1936_1_)" enable-background="new    " cx="7.718" cy="17.269" rx="6.708" ry="0.776"/>
			</g>
		</g>
	</g>
	<g id="Layer_2_1_" display="inline">
		<g>
			<path d="M3.871,29.745c-0.502,0-0.912-0.407-0.912-0.911V1.49c0-0.504,0.41-0.912,0.912-0.912h20.443
				c0.504,0,0.91,0.408,0.91,0.912v20.675c0,0.241-0.097,0.474-0.269,0.646l-6.668,6.668c-0.171,0.172-0.399,0.27-0.646,0.27
				L3.871,29.745L3.871,29.745z"/>
			<path fill="#00ACDA" d="M24.313,22.165V1.49H3.871v27.344h13.775L24.313,22.165z M22.912,2.379c0.443,0,0.805,0.36,0.805,0.804
				c0,0.445-0.359,0.805-0.805,0.805c-0.446,0-0.805-0.36-0.805-0.805C22.107,2.74,22.468,2.379,22.912,2.379z M20.256,2.379
				c0.443,0,0.803,0.36,0.803,0.804c0,0.445-0.356,0.805-0.803,0.805c-0.445,0-0.806-0.36-0.806-0.805
				C19.45,2.74,19.811,2.379,20.256,2.379z M5.722,3.988c-0.443,0-0.804-0.36-0.804-0.803c0-0.445,0.361-0.805,0.804-0.805
				c0.443,0,0.805,0.361,0.805,0.805C6.526,3.628,6.166,3.988,5.722,3.988z M8.629,3.988c-0.444,0-0.805-0.36-0.805-0.803
				c0-0.445,0.36-0.805,0.805-0.805c0.443,0,0.804,0.361,0.804,0.805C9.433,3.628,9.072,3.988,8.629,3.988z M11.536,3.988
				c-0.445,0-0.805-0.36-0.805-0.803c0-0.445,0.359-0.805,0.805-0.805c0.443,0,0.803,0.361,0.803,0.805
				C12.339,3.628,11.979,3.988,11.536,3.988z M14.441,3.988c-0.444,0-0.805-0.36-0.805-0.803c0-0.445,0.36-0.805,0.805-0.805
				c0.445,0,0.805,0.361,0.805,0.805C15.246,3.628,14.886,3.988,14.441,3.988z M16.544,3.183c0-0.443,0.36-0.804,0.804-0.804
				c0.446,0,0.807,0.36,0.807,0.804c0,0.445-0.357,0.805-0.807,0.805C16.902,3.988,16.544,3.628,16.544,3.183z"/>
			<polygon fill="#FFF3E1" points="23.268,22.428 23.268,4.963 4.917,4.963 4.917,27.787 17.646,27.787 			"/>
			<line fill="none" stroke="#929497" stroke-width="1.148" x1="5.958" y1="7.91" x2="22.438" y2="7.91"/>
			<line fill="none" stroke="#929497" stroke-width="1.148" x1="5.958" y1="11.78" x2="22.438" y2="11.78"/>
			<line fill="none" stroke="#929497" stroke-width="1.148" x1="5.958" y1="15.649" x2="22.438" y2="15.649"/>
			<line fill="none" stroke="#929497" stroke-width="1.148" x1="5.958" y1="19.521" x2="22.438" y2="19.521"/>
			<line fill="none" stroke="#929497" stroke-width="1.148" x1="5.958" y1="23.395" x2="20.544" y2="23.395"/>
			<path d="M17.646,29.745c-0.117,0-0.235-0.021-0.352-0.069c-0.34-0.141-0.563-0.474-0.563-0.842v-6.669
				c0-0.504,0.406-0.911,0.91-0.911h6.668c0.369,0,0.703,0.223,0.842,0.563c0.144,0.345,0.063,0.733-0.195,0.994l-6.668,6.668
				C18.115,29.652,17.883,29.745,17.646,29.745L17.646,29.745z"/>
			<polygon fill="#00ACDA" points="17.646,28.834 24.313,22.165 17.646,22.165 			"/>
			
				<linearGradient id="SVGID_4_" gradientUnits="userSpaceOnUse" x1="15.9785" y1="1766.2314" x2="19.5332" y2="1766.2314" gradientTransform="matrix(1 0 0 1 2.5801 -1741.377)">
				<stop  offset="0" style="stop-color:#B1D2DB"/>
				<stop  offset="1" style="stop-color:#107D9F"/>
			</linearGradient>
			<polygon fill="url(#SVGID_4_)" points="18.559,23.076 22.113,23.076 18.559,26.634 			"/>
		</g>
		<path opacity="0.7" fill="#FFFFFF" enable-background="new    " d="M3.451,29.299c-0.502,0-0.492,0.039-0.492-0.465V1.49
			c0-0.504,0.41-0.912,0.912-0.912h20.443c0.504,0,0.207,0.075,0.207,0.579L24.164,1.66c-0.229,0.307-0.328,0.496-0.5,0.667
			L3.751,28.748c-0.171,0.171-0.283,0.551-0.525,0.551H3.451z"/>
	</g>
</g>
<g id="Layer_2_2_">
	
		<linearGradient id="SVGID_5_" gradientUnits="userSpaceOnUse" x1="2.6758" y1="826.4326" x2="21.9788" y2="832.3926" gradientTransform="matrix(1 0 0 1 0.0801 -810.6914)">
		<stop  offset="0" style="stop-color:#F0DBCB"/>
		<stop  offset="1" style="stop-color:#E2B8A0"/>
	</linearGradient>
	<path fill="url(#SVGID_5_)" stroke="#000000" stroke-miterlimit="10" d="M23.5,16c0,0-4.479-5.658-11.75-4.667
		c-3.667,0.5-4.417,1.964-4.417,1.964l-5,6.285c0,0-1.667,3.168,1.917,3.334c0,0,1.25,0.749,1.417,1.666s2.083,1.084,3.667,0.334
		S12.39,23.5,12.39,23.5s3.37-0.531,8.604,1.385"/>
	<polygon fill="none" stroke="#231F20" stroke-miterlimit="10" points="30.625,15.536 23.268,15.536 20.336,24.566 27,27.787 	"/>
	
		<linearGradient id="SVGID_6_" gradientUnits="userSpaceOnUse" x1="22.4307" y1="830.4482" x2="27.9344" y2="832.1475" gradientTransform="matrix(1 0 0 1 0.0801 -810.6914)">
		<stop  offset="0" style="stop-color:#F3F3F3"/>
		<stop  offset="1" style="stop-color:#868686"/>
	</linearGradient>
	<polygon fill="url(#SVGID_6_)" stroke="#393A3A" stroke-miterlimit="10" points="29.5,16.396 23.75,16.396 21.359,24.25 
		26.438,26.488 	"/>
	<g>
		<g>
			<path fill="#231F20" d="M3.24,27.695c-0.259,0.021-0.145,0.135-0.35-0.039l-0.082-0.049c-0.29-0.246-0.414-0.633-0.323-1
				l0.348-1.414l2.124-6.106c0.04-0.118,0.104-0.228,0.184-0.321L19.18,2.345c0.18-0.21,0.426-0.327,0.682-0.347
				c0.258-0.02,0.52,0.058,0.729,0.237l4.26,3.743c0.418,0.359,0.467,0.989,0.107,1.41L10.919,23.807
				c-0.083,0.098-0.182,0.178-0.295,0.235l-5.655,2.979l-1.42,0.6c-0.099,0.043,0.013-0.18,0,0L3.24,27.695z"/>
		</g>
		
			<linearGradient id="SVGID_7_" gradientUnits="userSpaceOnUse" x1="-2258.6934" y1="675.3984" x2="-2253.0762" y2="675.3984" gradientTransform="matrix(-0.7601 -0.6498 -0.6498 0.7601 -1260.7933 -1966.1887)">
			<stop  offset="0" style="stop-color:#AED58A"/>
			<stop  offset="1" style="stop-color:#1D8D45"/>
		</linearGradient>
		<polygon fill="url(#SVGID_7_)" points="19.939,2.994 24.16,6.696 10.125,23.116 5.902,19.413 		"/>
		<polygon fill="#6CBD45" points="7.424,19.294 20.059,4.517 22.59,6.884 9.957,21.662 		"/>
		
			<linearGradient id="SVGID_8_" gradientUnits="userSpaceOnUse" x1="-2252.998" y1="689.168" x2="-2258.6133" y2="689.168" gradientTransform="matrix(-0.7601 -0.6498 -0.6498 0.7601 -1260.7933 -1966.1887)">
			<stop  offset="0" style="stop-color:#A36628"/>
			<stop  offset="0.5394" style="stop-color:#F9A61E"/>
			<stop  offset="1" style="stop-color:#FFF3DF"/>
		</linearGradient>
		<polygon fill="url(#SVGID_8_)" points="3.806,25.436 4.469,26.096 10.125,23.116 5.902,19.413 		"/>
		<polygon fill="#F9A61E" points="8.779,23.296 5.182,25.188 5.068,25.094 6.402,21.264 		"/>
		<polygon fill="#231F20" points="3.806,25.436 4.798,26.238 3.458,26.801 3.458,26.848 		"/>
		
			<linearGradient id="SVGID_9_" gradientUnits="userSpaceOnUse" x1="-2258.7715" y1="666.2227" x2="-2253.1572" y2="666.2227" gradientTransform="matrix(-0.7601 -0.6498 -0.6498 0.7601 -1260.7933 -1966.1887)">
			<stop  offset="0" style="stop-color:#F49598"/>
			<stop  offset="1" style="stop-color:#8C191D"/>
		</linearGradient>
		<polygon fill="url(#SVGID_9_)" points="17.828,5.464 22.047,9.166 24.16,6.696 19.939,2.994 		"/>
	</g>
	
		<linearGradient id="SVGID_10_" gradientUnits="userSpaceOnUse" x1="6.6982" y1="827.9463" x2="21.0857" y2="832.3884" gradientTransform="matrix(1 0 0 1 0.0801 -810.6914)">
		<stop  offset="0" style="stop-color:#F0DBCB"/>
		<stop  offset="1" style="stop-color:#E2B8A0"/>
	</linearGradient>
	<path fill="url(#SVGID_10_)" stroke="#000000" stroke-miterlimit="10" d="M20.055,24.537c0,0-3.221-1.313-5.719-1.086
		c-2.115,0.191-2.724,0.404-2.724,0.404l-1.487,0.688C6.75,26.34,6.333,25,6.333,25S4.167,22.716,7,21.441
		c2.833-1.275,4.667-1.941,4.667-1.941s1.75-0.667,2.75-2s5.229-4.41,5.229-4.41l1.713,0.994c0,0,0.928,0.606,1.701,1.278"/>
	<path fill="none" stroke="#F0DBCB" stroke-miterlimit="10" d="M19.5,14.188l3.014,2.027l-2.605,7.379c0,0-3.918-2.049-8.688-0.478
		c-3.794,1.25-3.264,1.167-3.264,1.167"/>
</g>
<g id="Layer_2_3_">
	<path opacity="0.65" fill="#FFFFFF" enable-background="new    " d="M4.716,27.154c0,0-1.438,0.638-1.598,0.597
		c-0.248-0.063-0.67-0.461-0.571-1.144c0.125-0.857,0.997-3.28,0.997-3.28s-1.794-0.212-2.023-1.886c0,0-0.161-0.892,0.487-2.205
		l4.914-6.146c0,0,0.266-0.59,1.375-1.215c1.109-0.625,2.672-0.938,3.724-1.083l7.029-8.222c0,0,0.646-1.018,1.563-0.364
		l4.298,3.772c0,0,0.705,0.696,0,1.536c-1.107,1.318-2.725,3.16-4.446,5.2c-0.113,0.134,0.638,0.076,3.019,2.224
		c0.043,0.039,3.047,0.094,3.047,0.094l4.781,0.031l-4,13.453l-6.422-3.128c0,0-2.984-1.138-6.359-1.356
		c-1.749-0.113-3.303,0.511-4.793,1.242c-1.988,0.977-2.62,0.648-2.62,0.648L4.716,27.154z"/>
</g>
<g id="Layer_3_1_" display="none">
	<polygon display="inline" fill="#231F20" points="4.089,29.68 4.604,30.167 26.183,1.52 25.443,1.093 	"/>
</g>
<g id="Layer_4" display="none">
	<g display="inline">
		<path fill="#FFFFFF" d="M29.875,28.814c0,0.254-0.215,0.459-0.482,0.459H12.802v1.479c0,0.188-0.119,0.354-0.299,0.426
			c-0.18,0.07-0.389,0.029-0.525-0.102l-4.084-3.875c-0.091-0.086-0.142-0.532-0.142-0.653c0-0.12,0.051-0.237,0.142-0.323
			l4.084-3.875c0.137-0.131,0.345-0.172,0.525-0.101c0.18,0.069,0.299,0.237,0.299,0.422v1.479h16.591
			c0.271,0.002,0.482,0.207,0.482,0.459V28.814z"/>
		<path d="M28.751,29.273c0,0.254-0.204,0.459-0.458,0.459H12.545v1.479c0,0.188-0.112,0.354-0.283,0.426
			c-0.171,0.07-0.369,0.029-0.499-0.102L7.886,27.66c-0.086-0.086-0.135-0.203-0.135-0.324S7.8,27.1,7.886,27.014l3.877-3.875
			c0.13-0.132,0.327-0.173,0.499-0.101c0.171,0.069,0.283,0.237,0.283,0.422v1.479h15.748c0.254,0.002,0.458,0.207,0.458,0.459
			V29.273z"/>
		<polygon fill="#E92C2B" points="8.211,27.337 12.086,31.212 12.086,29.273 28.293,29.273 28.293,25.396 12.086,25.396 
			12.086,23.462 		"/>
		
			<linearGradient id="SVGID_11_" gradientUnits="userSpaceOnUse" x1="27.7773" y1="1648.7764" x2="8.8494" y2="1648.7764" gradientTransform="matrix(1 0 0 1 0.1001 -1621.4414)">
			<stop  offset="0" style="stop-color:#F4959A"/>
			<stop  offset="1" style="stop-color:#901A1E"/>
		</linearGradient>
		<polygon fill="url(#SVGID_11_)" points="27.835,28.816 11.628,28.816 11.628,30.105 8.858,27.337 11.628,24.566 11.628,25.857 
			27.835,25.857 		"/>
	</g>
</g>
<g display="none">
	<path display="inline" d="M22.078,0c0.275,0,0.546,0.111,0.74,0.307l8.877,8.877c0.302,0.303,0.39,0.754,0.229,1.146
		c-0.165,0.391-0.548,0.646-0.971,0.646h-3.391v12.75c0.002,0.58-0.473,1.051-1.051,1.051h-8.877c-0.582,0-1.05-0.471-1.05-1.051
		v-12.75l-3.388-0.002c-0.423,0-0.807-0.256-0.97-0.646c-0.164-0.395-0.072-0.844,0.228-1.145l8.877-8.876
		C21.529,0.111,21.799,0,22.078,0L22.078,0z"/>
	<polygon display="inline" fill="#6CBD45" points="22.078,1.05 13.2,9.929 17.637,9.931 17.637,23.729 26.516,23.729 26.516,9.931 
		30.954,9.931 	"/>
	
		<linearGradient id="SVGID_12_" gradientUnits="userSpaceOnUse" x1="-1985.6465" y1="-512.9355" x2="-1972.9614" y2="-512.9355" gradientTransform="matrix(-1 0 0 -1 -1957.2266 -500.3281)">
		<stop  offset="0" style="stop-color:#AED58A"/>
		<stop  offset="1" style="stop-color:#1D8D45"/>
	</linearGradient>
	<polygon display="inline" fill="url(#SVGID_12_)" points="28.42,8.878 25.464,8.878 25.464,22.68 18.688,22.68 18.688,8.878 
		15.735,8.878 22.078,2.535 	"/>
</g>
</svg>
