<?xml version="1.0" encoding="utf-8"?>
<!-- Generator: Adobe Illustrator 14.0.0, SVG Export Plug-In . SVG Version: 6.00 Build 43363)  -->
<!DOCTYPE svg PUBLIC "-//W3C//DTD SVG 1.1//EN" "http://www.w3.org/Graphics/SVG/1.1/DTD/svg11.dtd">
<svg version="1.1"
	 id="svg2" sodipodi:docname="child_ref.svg" inkscape:version="0.45.1" sodipodi:version="0.32" sodipodi:docbase="C:\Radix\dev\trunk\org.radixware\kernel\designer\src\common.resources\src\org\radixware\kernel\designer\resources\icons\ads\exploreritem" inkscape:output_extension="org.inkscape.output.svg.inkscape" xmlns:ns="http://creativecommons.org/ns#" xmlns:dc="http://purl.org/dc/elements/1.1/" xmlns:cc="http://web.resource.org/cc/" xmlns:rdf="http://www.w3.org/1999/02/22-rdf-syntax-ns#" xmlns:svg="http://www.w3.org/2000/svg" xmlns:sodipodi="http://sodipodi.sourceforge.net/DTD/sodipodi-0.dtd" xmlns:inkscape="http://www.inkscape.org/namespaces/inkscape"
	 xmlns="http://www.w3.org/2000/svg" xmlns:xlink="http://www.w3.org/1999/xlink" x="0px" y="0px" width="32px" height="32px"
	 viewBox="0 0 32 32" enable-background="new 0 0 32 32" xml:space="preserve">
<sodipodi:namedview  id="base" pagecolor="#ffffff" bordercolor="#000000" borderopacity="1.0" showgrid="true" inkscape:zoom="11" inkscape:cx="15.203136" inkscape:cy="17.659623" inkscape:current-layer="layer1" inkscape:pageopacity="0.0" inkscape:pageshadow="2" inkscape:window-width="1161" inkscape:window-height="892" inkscape:window-x="273" inkscape:window-y="73" inkscape:document-units="px">
	</sodipodi:namedview>
<g>
	<path d="M24.352,29.992l-14.38-1.848c-0.402-0.053-0.742-0.326-0.879-0.709c-0.136-0.383-0.043-0.812,0.238-1.104l2.878-3.007
		c-4.163-4.732-6.09-9.281-5.729-13.529c0.414-4.872,3.726-7.465,3.869-7.574C10.538,2.075,10.77,2,11,2
		c0.218,0,0.437,0.066,0.622,0.198c0.386,0.273,0.548,0.765,0.4,1.214c-1.938,5.936,1.863,10.138,6.208,13.883l3.666-3.531
		c0.203-0.197,0.474-0.301,0.746-0.301c0.121,0,0.242,0.02,0.357,0.061c0.385,0.137,0.66,0.477,0.711,0.879l1.844,14.385
		c0.041,0.331-0.072,0.663-0.308,0.896C25.045,29.889,24.771,30,24.484,30C24.484,30,24.396,29.997,24.352,29.992z"/>
	<path id="path7827_72_" fill="#00ACDA" d="M10.108,27.076l3.57-3.729C1.596,10.294,11,3.078,11,3.078
		c-2.254,6.902,2.592,11.727,7.277,15.67l4.367-4.208l1.842,14.382L10.108,27.076z"/>
	
		<linearGradient id="SVGID_1_" gradientUnits="userSpaceOnUse" x1="572.1143" y1="811.373" x2="586.7676" y2="811.373" gradientTransform="matrix(1 0 0 1 -563.4414 -794.0391)">
		<stop  offset="0" style="stop-color:#B1D2DB"/>
		<stop  offset="1" style="stop-color:#0B7C9E"/>
	</linearGradient>
	<path fill="url(#SVGID_1_)" d="M12.445,26.248l2.797-2.92l-0.689-0.744c-4.189-4.523-6.156-8.762-5.848-12.596
		C8.796,8.846,9.09,7.854,9.462,7.021c0.314,5.875,5.284,10.057,8.206,12.518l0.742,0.625l3.522-3.395l1.395,10.877L12.445,26.248z"
		/>
</g>
</svg>
