<?xml version="1.0" encoding="utf-8"?>
<!-- Generator: Adobe Illustrator 14.0.0, SVG Export Plug-In . SVG Version: 6.00 Build 43363)  -->
<!DOCTYPE svg PUBLIC "-//W3C//DTD SVG 1.1//EN" "http://www.w3.org/Graphics/SVG/1.1/DTD/svg11.dtd">
<svg version="1.1"
	 id="svg2" sodipodi:docname="Р СњР С•Р Р†РЎвЂ№Р в„– Р Т‘Р С•Р С”РЎС“Р СР ВµР Р…РЎвЂљ 1" inkscape:version="0.47pre4 " xmlns:dc="http://purl.org/dc/elements/1.1/" xmlns:cc="http://creativecommons.org/ns#" xmlns:rdf="http://www.w3.org/1999/02/22-rdf-syntax-ns#" xmlns:svg="http://www.w3.org/2000/svg" xmlns:sodipodi="http://sodipodi.sourceforge.net/DTD/sodipodi-0.dtd" xmlns:inkscape="http://www.inkscape.org/namespaces/inkscape"
	 xmlns="http://www.w3.org/2000/svg" xmlns:xlink="http://www.w3.org/1999/xlink" x="0px" y="0px" width="32px" height="32px"
	 viewBox="0 0 32 32" enable-background="new 0 0 32 32" xml:space="preserve">
<path id="path3144" fill="#231F20" d="M30.977,30.505c0.238,0,0.474-0.084,0.659-0.24C31.866,30.07,32,29.782,32,29.48V2.52
	c0-0.288-0.122-0.562-0.334-0.755c-0.19-0.173-0.436-0.268-0.689-0.268c-0.032,0-0.063,0.001-0.093,0.004L9.917,3.396
	c-0.528,0.048-0.932,0.491-0.932,1.02v21.46c0,0.498,0.36,0.924,0.85,1.008l20.967,3.606C30.858,30.5,30.917,30.505,30.977,30.505
	L30.977,30.505z"/>
<path id="path3897_3_" fill="#F9A620" d="M10.008,4.414v21.458l20.969,3.606V2.519L10.008,4.414z"/>
<linearGradient id="polygon3155_1_" gradientUnits="userSpaceOnUse" x1="-0.4121" y1="-104.792" x2="18.5088" y2="-104.792" gradientTransform="matrix(-1 0 0 -1 29.54 -88.8398)">
	<stop  offset="0" style="stop-color:#A36628"/>
	<stop  offset="0.5394" style="stop-color:#F9A620"/>
	<stop  offset="1" style="stop-color:#FFF3DF"/>
</linearGradient>
<polygon id="polygon3155" fill="url(#polygon3155_1_)" points="11.031,25.008 29.952,28.266 29.952,3.639 11.031,5.348 "/>
<linearGradient id="path1710_1_" gradientUnits="userSpaceOnUse" x1="-7195.0313" y1="-11183.5801" x2="-7179.7656" y2="-11183.5801" gradientTransform="matrix(0.1243 0 0 -0.108 920.5632 -1191.826)">
	<stop  offset="0" style="stop-color:#F3F4EE"/>
	<stop  offset="1" style="stop-color:#B1B3AE"/>
</linearGradient>
<path id="path1710_2_" fill="url(#path1710_1_)" d="M6.265,4.749v20.9l18.781,3.085l3.685-0.68V3.822l-3.685-0.554L6.265,4.749z"/>
<path id="path3164" fill="#231F20" d="M24.987,32c0.232,0,0.463-0.08,0.646-0.229c0.239-0.194,0.377-0.486,0.377-0.794V1.023
	c0-0.291-0.124-0.568-0.34-0.762C25.481,0.092,25.238,0,24.987,0c-0.037,0-0.073,0.002-0.109,0.006L5.407,2.112
	C4.887,2.169,4.492,2.607,4.492,3.13v23.842c0,0.487,0.342,0.905,0.818,1.004l19.47,4.005C24.849,31.994,24.918,32,24.987,32
	L24.987,32z"/>
<path id="path2443_3_" fill="#F9A620" d="M5.516,3.128v23.844l19.471,4.003V1.022L5.516,3.128z"/>
<linearGradient id="polygon3175_1_" gradientUnits="userSpaceOnUse" x1="5.5771" y1="-104.6543" x2="23" y2="-104.6543" gradientTransform="matrix(-1 0 0 -1 29.54 -88.8398)">
	<stop  offset="0" style="stop-color:#A36628"/>
	<stop  offset="0.5394" style="stop-color:#F9A620"/>
	<stop  offset="1" style="stop-color:#FFF3DF"/>
</linearGradient>
<polygon id="polygon3175" fill="url(#polygon3175_1_)" points="6.54,26.012 23.963,29.593 23.963,2.036 6.54,3.921 "/>
<linearGradient id="path7549_1_" gradientUnits="userSpaceOnUse" x1="-8021.293" y1="-10582.4658" x2="-8024.4688" y2="-10757.7705" gradientTransform="matrix(0.1119 0 0 -0.1119 912.8628 -1191.459)">
	<stop  offset="0" style="stop-color:#FFFFFF;stop-opacity:0.624"/>
	<stop  offset="1" style="stop-color:#FFFFFF;stop-opacity:0"/>
</linearGradient>
<path id="path7549_2_" fill="url(#path7549_1_)" d="M6.448,4.347v13.272c5.208-10.022,12.487-5.688,16.969,1.897V2.364L6.448,4.347z
	"/>
<radialGradient id="path3736_1_" cx="-5687.4502" cy="-6314.709" r="62.6708" gradientTransform="matrix(0.1648 0 0 -0.1902 948.4641 -1192.7985)" gradientUnits="userSpaceOnUse">
	<stop  offset="0" style="stop-color:#FFFFFF;stop-opacity:0.3519"/>
	<stop  offset="1" style="stop-color:#FFFFFF;stop-opacity:0"/>
</radialGradient>
<path id="path3736_2_" fill="url(#path3736_1_)" d="M6.265,3.667v21.457l17.974,3.605V1.771L6.265,3.667z"/>
<path id="path3191" fill="#231F20" d="M9.37,15.646c0.291,0,0.575-0.125,0.772-0.35l1.625-1.865l1.799,0.979
	c0.153,0.084,0.321,0.125,0.49,0.125c0.204,0,0.408-0.062,0.582-0.181c0.318-0.221,0.485-0.6,0.432-0.981
	c-0.17-1.234-0.589-4.683-0.499-5.833c0.069-0.843,0.852-3.631,1.33-5.189c0.101-0.325,0.03-0.678-0.184-0.941
	c-0.194-0.243-0.489-0.382-0.796-0.382c-0.028,0-0.058,0.001-0.085,0.003l-4.325,0.362c-0.39,0.034-0.728,0.285-0.87,0.651
	c-0.252,0.652-1.52,3.966-1.647,5.161C7.791,9.096,8.329,14.5,8.352,14.729c0.041,0.406,0.319,0.75,0.707,0.873
	C9.162,15.633,9.267,15.646,9.37,15.646L9.37,15.646z"/>
<path id="path3193" fill="#EA2A29" d="M8.887,7.271c-0.199,1.882,0.378,7.614,0.378,7.614l2.249-2.585l2.627,1.427
	c0,0-0.652-4.727-0.526-6.304c0.104-1.323,1.427-5.631,1.427-5.631l-4.502,0.377C10.542,2.167,9.011,6.101,8.887,7.271z"/>
<linearGradient id="path3202_1_" gradientUnits="userSpaceOnUse" x1="15.5884" y1="-96.5054" x2="19.9873" y2="-96.5054" gradientTransform="matrix(-1 0 0 -1 29.54 -88.8398)">
	<stop  offset="0" style="stop-color:#F5969A"/>
	<stop  offset="1" style="stop-color:#901A1E"/>
</linearGradient>
<path id="path3202" fill="url(#path3202_1_)" d="M11.238,11.41l1.861,1.011c-0.198-1.708-0.426-4.042-0.334-5.175
	c0.082-1.039,0.732-3.413,1.186-4.979l-2.831,0.237c-0.625,1.661-1.448,4.021-1.528,4.764c-0.116,1.101,0.039,3.704,0.205,5.795
	L11.238,11.41z"/>
<path fill="#020202" d="M15.985,20.381c0.001,0,0.011-0.012,0.015-0.016c0.002-0.002-0.015-0.014-0.015-0.014v-0.03V20.29L16,20.275
	c-0.003-0.006-0.014-0.014-0.015-0.016c-0.002-0.008-0.016-0.016-0.016-0.016l0.016-0.016c0-0.008-0.016-0.014-0.016-0.014
	c0.002-0.002,0-0.031,0-0.031c0.002-0.002,0.001-0.029,0.001-0.029s-0.013-0.01-0.016-0.016c-0.003-0.007-0.015-0.016-0.014-0.015
	c-0.005-0.011,0-0.03,0-0.03s0.005-0.018,0-0.031c-0.007-0.008-0.015-0.011-0.016-0.015c-0.003-0.007,0.016-0.015,0.016-0.015
	s-0.012-0.004-0.016-0.016c-0.003-0.012-0.016-0.045-0.015-0.046c0,0-0.013-0.008-0.016-0.015c-0.003-0.006,0.001-0.025,0.001-0.029
	c-0.008-0.008-0.013-0.013-0.015-0.016c-0.004-0.006-0.015-0.016-0.015-0.016c-0.003-0.008-0.016-0.016-0.016-0.016l0.016-0.015
	c-0.004-0.005-0.012-0.007-0.016-0.015c0,0-0.013-0.009-0.015-0.016c-0.006-0.005-0.012-0.012-0.015-0.014
	c-0.005-0.01,0-0.031,0-0.031s-0.014-0.014-0.015-0.015c-0.006-0.007-0.012-0.013-0.015-0.016c0,0-0.023-0.022-0.03-0.03
	c-0.005-0.005-0.014-0.012-0.016-0.016c-0.021-0.021-0.007-0.007-0.015-0.016l-3.431-3.429c-0.01-0.009,0.006,0.005-0.015-0.015
	c-0.006-0.005-0.013-0.012-0.015-0.015c-0.007-0.008-0.03-0.031-0.031-0.032c-0.006-0.004-0.011-0.011-0.014-0.014l-0.016-0.015
	l-0.016,0.015c0,0-0.012-0.012-0.015-0.015c-0.004-0.005-0.011-0.011-0.014-0.015c0,0-0.008-0.011-0.016-0.015
	c-0.006-0.003-0.015-0.016-0.015-0.016c-0.009-0.001-0.016,0.016-0.016,0.016s-0.01-0.015-0.016-0.016c0,0-0.01-0.012-0.015-0.015
	c0,0.001-0.045-0.015-0.045-0.015c-0.007-0.003-0.015-0.014-0.015-0.014c-0.001,0-0.048-0.021-0.064-0.029l-0.013,0.014
	c0,0-0.012-0.014-0.015-0.015c0,0-0.021,0.002-0.031,0c0,0-0.01-0.014-0.015-0.015c-0.007,0.005-0.011,0.01-0.015,0.015
	c-0.009-0.001-0.013-0.015-0.016-0.015l-0.024-0.022c0,0-0.012-0.015-0.016-0.016c-0.008-0.001-0.015,0.015-0.015,0.016
	c-0.009-0.002-0.012-0.015-0.014-0.015c-0.003,0.002-0.016,0.016-0.016,0.016c-0.001,0-0.015-0.014-0.015-0.016
	c-0.001,0-0.016,0.016-0.016,0.016s-0.009-0.014-0.014-0.015c-0.002,0.001-0.011-0.014-0.016-0.015
	c-0.001,0-0.015,0.015-0.015,0.015h-0.031h-0.031c0,0-0.012-0.016-0.015-0.015c-0.004,0.003-0.014,0.014-0.015,0.015
	c-0.005,0.005-0.012,0.012-0.015,0.016c-0.002,0.001-0.014-0.016-0.016-0.016c-0.002,0.002-0.013,0.014-0.015,0.016
	c0.002,0-0.011-0.015-0.015-0.015c-0.009-0.001-0.015,0.015-0.015,0.015c-0.003,0.003-0.031,0-0.031,0s-0.011,0.01-0.015,0.016
	c-0.001,0-0.013,0.012-0.016,0.015c0,0-0.011-0.015-0.014-0.015c-0.002,0.001-0.008,0.018-0.015,0.016c-0.003,0.002-0.024,0-0.031,0
	c0,0-0.006,0.016-0.015,0.016c-0.01,0-0.022-0.016-0.022-0.016c-0.001,0-0.004,0.014-0.016,0.015c-0.002,0.004-0.025-0.001-0.029,0
	c0,0-0.011,0.01-0.015,0.016c-0.007,0.005-0.013,0.012-0.016,0.016c-0.002,0.001-0.013-0.016-0.016-0.016
	c-0.002,0.001-0.013,0.013-0.016,0.016c-0.009,0.008-0.013,0.013-0.016,0.016c0,0-0.011,0.012-0.015,0.016
	c-0.004,0.002-0.015,0.015-0.015,0.015s-0.01-0.016-0.016-0.015c0.001,0-0.01,0.012-0.014,0.015l-0.063,0.031
	c-0.001,0.001-0.023,0.024-0.03,0.03c0,0-0.018,0.019-0.015,0.016c-0.001,0.001-0.009,0.009-0.016,0.015
	c-0.005,0.005-0.011,0.011-0.014,0.016l-0.016,0.016L8,19.315L4.954,16.27l-0.016-0.016c-0.004-0.006-0.009-0.01-0.014-0.016
	c-0.007-0.006-0.015-0.014-0.016-0.015c0.003,0.003-0.014-0.016-0.014-0.016c-0.007-0.006-0.03-0.029-0.031-0.03l-0.061-0.031
	c-0.006-0.002-0.017-0.015-0.015-0.015c-0.007-0.001-0.016,0.015-0.016,0.015s-0.011-0.012-0.014-0.015
	c-0.004-0.004-0.016-0.016-0.016-0.016c-0.002-0.003-0.007-0.007-0.016-0.016c-0.005-0.002-0.016-0.014-0.017-0.016
	c-0.003,0-0.014,0.017-0.016,0.016c-0.004-0.004-0.01-0.01-0.015-0.016s-0.015-0.016-0.015-0.016c-0.004-0.001-0.027,0.004-0.03,0
	c-0.012-0.001-0.015-0.014-0.016-0.015c0,0-0.006,0.015-0.016,0.015c-0.009,0-0.014-0.015-0.014-0.015
	c-0.007-0.001-0.029,0.002-0.031,0c-0.007,0.002-0.013-0.014-0.014-0.015c-0.005,0-0.015,0.015-0.015,0.014
	c-0.003-0.002-0.015-0.014-0.015-0.015C4.509,16.034,4.5,16.023,4.5,16.023s-0.028,0.003-0.031,0c0,0-0.007-0.017-0.015-0.016
	c-0.004,0-0.016,0.016-0.015,0.015c-0.001-0.002-0.014-0.014-0.015-0.016c-0.002,0-0.013,0.018-0.015,0.016
	c-0.004-0.005-0.011-0.012-0.015-0.016c0-0.001-0.012-0.012-0.015-0.015c-0.003-0.001-0.015,0.015-0.015,0.015H4.333H4.302
	c0,0-0.014-0.014-0.014-0.015c-0.005,0.001-0.015,0.016-0.016,0.015c-0.007,0-0.014,0.015-0.014,0.015s-0.015-0.015-0.016-0.016
	c-0.001,0.001-0.014,0.017-0.014,0.016c0,0-0.014-0.013-0.016-0.016c-0.004,0-0.007,0.013-0.014,0.015
	c-0.001,0-0.008-0.018-0.015-0.016c-0.012,0.001-0.024,0.016-0.024,0.016l-0.016,0.015c-0.002,0-0.007,0.014-0.014,0.016
	c-0.005-0.005-0.01-0.01-0.016-0.016C4.109,16.039,4.1,16.053,4.1,16.053c-0.01,0.002-0.031,0-0.031,0
	c-0.003,0.002-0.014,0.014-0.014,0.014l-0.013-0.013c-0.017,0.008-0.064,0.03-0.065,0.029c0,0-0.007,0.012-0.015,0.015
	c0-0.001-0.045,0.015-0.045,0.014c-0.006,0.003-0.015,0.016-0.015,0.016c-0.006,0.001-0.015,0.015-0.015,0.015
	s-0.008-0.018-0.016-0.015c0,0-0.01,0.011-0.014,0.015c-0.008,0.004-0.016,0.015-0.016,0.015c-0.006,0.005-0.013,0.011-0.017,0.016
	c-0.004,0.003-0.016,0.015-0.016,0.015l-0.016-0.015l-0.016,0.015c-0.003,0.004-0.009,0.011-0.014,0.015
	c-0.001,0.001-0.024,0.024-0.031,0.031c-0.003,0.003-0.01,0.011-0.017,0.015c-0.02,0.021-0.005,0.007-0.014,0.016l-3.431,3.43
	c-0.008,0.008,0.005-0.006-0.015,0.016c-0.003,0.002-0.011,0.011-0.015,0.016c-0.008,0.008-0.031,0.03-0.031,0.03
	c-0.003,0.003-0.01,0.011-0.016,0.015c-0.001,0.003-0.014,0.016-0.014,0.016c0,0,0.006,0.021,0,0.029
	c-0.003,0.006-0.009,0.011-0.016,0.016c-0.002,0.008-0.014,0.016-0.014,0.016c-0.005,0.008-0.011,0.01-0.016,0.016l0.016,0.016
	c0,0-0.013,0.008-0.016,0.015c0,0-0.011,0.009-0.014,0.015c-0.003,0.003-0.008,0.008-0.016,0.016c0,0.005,0.004,0.023,0.001,0.029
	c-0.004,0.008-0.016,0.016-0.016,0.016c0.001,0.002-0.011,0.034-0.014,0.045c-0.004,0.012-0.016,0.016-0.016,0.016
	s0.019,0.009,0.016,0.016c-0.003,0.004-0.009,0.007-0.016,0.016c-0.005,0.012,0,0.029,0,0.029s0.005,0.021,0,0.031
	c0.001-0.002-0.011,0.008-0.014,0.014c-0.004,0.009-0.018,0.018-0.018,0.018s-0.001,0.029,0,0.029c0,0-0.001,0.03,0,0.031
	c0.001,0-0.014,0.007-0.016,0.015l0.016,0.016c0,0-0.014,0.007-0.016,0.016c0,0.001-0.012,0.009-0.015,0.015
	c0.001,0.001,0.015,0.016,0.015,0.016s0.001,0.029,0,0.031l0.001,0.029c0,0-0.018,0.014-0.016,0.015
	c0.004,0.003,0.014,0.015,0.016,0.015c-0.002,0.008,0.017,0.008,0.014,0.016c0,0,0,0.029,0.001,0.03c-0.001,0.005,0,0.03,0,0.03
	c0,0.006,0,0.031,0,0.031s0.011,0.01,0.015,0.015c0.001,0.001,0.013,0.013,0.015,0.015c0.001,0.006-0.014,0.01-0.015,0.018
	c0.004,0.004,0.015,0.016,0.015,0.016s-0.005,0.016,0,0.031c0.002,0.012,0.015,0.015,0.015,0.015
	c0.003,0.007-0.015,0.015-0.015,0.015c0.002,0.003,0.015,0.044,0.016,0.046c0.005,0.007,0.01,0.011,0.014,0.016
	c0,0,0.012,0.011,0.016,0.015c0,0,0.016,0.048,0.015,0.047c0.001,0.002,0.018,0.006,0.015,0.016c0.005,0.006-0.003,0.026,0,0.029
	c0,0.01,0.031,0.029,0.031,0.029s0.011,0.013,0.015,0.016c0.008,0.015,0,0.031,0,0.031c0.001,0,0.014,0.014,0.015,0.015
	c0.004,0.004,0.011,0.013,0.015,0.015c0.001,0.002,0.008,0.008,0.016,0.016c0.008,0.01,0.008,0.01,0.014,0.016
	c0.021,0.021,0.016,0.017,0.016,0.015c0,0,0.004,0.005,0.016,0.016l3.045,3.046l-3.04,3.045c-0.018,0.019-0.018,0.018-0.015,0.015
	c-0.008,0.008-0.019,0.021-0.015,0.016c-0.016,0.016-0.008,0.009-0.015,0.014c-0.008,0.009-0.015,0.016-0.015,0.016
	s-0.009,0.011-0.016,0.018c-0.008,0.007,0-0.002-0.015,0.015c-0.001,0.001-0.016,0.015-0.016,0.015
	c-0.011,0.009-0.022,0.02-0.03,0.03l0.001,0.002l-0.001,0.029c-0.002,0.002-0.011,0.013-0.015,0.016
	c-0.001,0.003-0.01,0.011-0.015,0.015c-0.004,0.005-0.015,0.047-0.015,0.047s-0.014,0.013-0.015,0.014
	c-0.004,0.004-0.015,0.015-0.015,0.015s0.017,0.014,0.015,0.016c-0.005,0.004-0.009,0.01-0.015,0.016
	c-0.007,0.006-0.015,0.014-0.015,0.014c-0.002,0.003,0.016,0.013,0.015,0.016c-0.005,0.005-0.015,0.015-0.015,0.015
	c-0.004,0.004-0.015,0.016-0.015,0.016s0.006,0.016,0,0.03c-0.003,0.013-0.015,0.016-0.015,0.016
	c0.004,0.005,0.009,0.011,0.015,0.015c-0.007,0.005-0.012,0.01-0.015,0.015c0,0-0.014,0.014-0.016,0.015
	c-0.002,0.003,0.014,0.014,0.014,0.016c-0.002,0.002-0.013,0.014-0.014,0.014c-0.002,0.003,0.014,0.015,0.014,0.016
	c-0.002,0.003-0.013,0.014-0.014,0.015c-0.002,0.002,0.016,0.014,0.014,0.016c-0.002,0.002-0.012,0.014-0.014,0.014
	c-0.001,0.002,0,0.024,0,0.031c-0.002,0.001,0.014,0.015,0.014,0.015c-0.001,0.035-0.016,0.009-0.014,0.016
	c0.001,0.009,0.014,0.035,0.014,0.016c-0.001,0.015-0.016,0.006-0.014,0.014c-0.002,0.002,0.014,0.015,0.014,0.016
	c0,0-0.016-0.004-0.014,0.015c-0.001,0.013-0.001,0.03,0,0.03c0.001,0.009-0.001,0.029,0,0.03c0.005,0.006,0.009,0.012,0.015,0.016
	c-0.001,0.001-0.013,0.014-0.015,0.014c-0.002,0.004,0.015,0.012,0.015,0.016c-0.001,0.001-0.018,0.009-0.016,0.016
	c0.003,0.008,0.016,0.015,0.016,0.015c-0.002,0.001,0,0.03,0,0.03c0.003,0.009,0.015,0.016,0.015,0.016
	c-0.001,0-0.015,0.014-0.015,0.015c0.002,0.008,0.015,0.015,0.015,0.015s0.011,0.011,0.015,0.016c-0.001,0,0.012,0.005,0.014,0.015
	c0.003,0.007-0.02,0.004-0.014,0.015c0,0,0.01,0.006,0.014,0.014c0.008,0.015,0,0.031,0,0.031s0.012,0.012,0.015,0.015
	c0.002,0.007,0.016,0.015,0.016,0.015c0.002,0.007-0.002,0.026,0,0.031c-0.002,0,0.011,0.01,0.014,0.015
	c0,0,0.014,0.014,0.016,0.016c0,0-0.005,0.025-0.001,0.03c0,0,0.012,0.012,0.016,0.015c0.004,0.005,0.014,0.014,0.014,0.015
	c0.004,0.006,0.015,0.014,0.016,0.014c0.005,0.011,0,0.032,0,0.032s0.013,0.012,0.014,0.014c0.005,0.006,0.014,0.015,0.016,0.016
	c0.006,0.006,0.011,0.012,0.014,0.016c0.008,0.007,0.015,0.014,0.015,0.015c0.019,0.021,0.012,0.012,0.015,0.014
	c0.007,0.007-0.009-0.007,0.015,0.015l3.43,3.431c0.008,0.009-0.005-0.004,0.015,0.016c0.005,0.004,0.012,0.012,0.015,0.015
	c0.008,0.009,0.03,0.029,0.031,0.031c0.005,0.004,0.011,0.011,0.015,0.015l0.015,0.014c0,0,0.021-0.005,0.031,0
	c0.004,0.006,0.015,0.015,0.015,0.015s0.011,0.012,0.014,0.016c0.013,0.007,0.031,0,0.031,0s0.009,0.014,0.014,0.015
	c0,0,0.01,0.01,0.016,0.015c0.005,0.004,0.007,0.01,0.014,0.015c0.007,0.003,0.026-0.001,0.031,0
	c0.007,0.003,0.011,0.016,0.015,0.016c0,0,0.035,0.012,0.045,0.014c0.012,0.004,0.014,0.015,0.015,0.015
	c0,0,0.008-0.016,0.015-0.015c0.007,0.003,0.016,0.015,0.016,0.015s0.011,0.016,0.015,0.016c0.001-0.001,0.014-0.013,0.016-0.016
	c0.007,0.004,0.012,0.017,0.015,0.016c0.008,0.002,0.014-0.013,0.015-0.016c0.007,0.003,0.011,0.016,0.014,0.015
	c0.007,0.004,0.016,0.017,0.016,0.017s0.026-0.002,0.03-0.002c0.001-0.001,0.012,0.016,0.015,0.016
	C4.192,31.971,4.2,31.952,4.2,31.952h0.031c0.007,0.003,0.008,0.015,0.014,0.016c0.001-0.001,0.009,0.015,0.016,0.015
	c0-0.002,0.015-0.015,0.015-0.015h0.031l0.03-0.001c0,0,0.013,0.016,0.015,0.016c0.003-0.003,0.014-0.014,0.015-0.016
	c0.015,0,0.029,0.001,0.03,0c0.001-0.002,0.015-0.015,0.016-0.016c0,0.001,0.012,0.016,0.016,0.016
	c0.007,0.001,0.014-0.015,0.014-0.016c0.002-0.001,0.03,0.001,0.03,0c0,0,0.011-0.011,0.015-0.015
	c0.005-0.005,0.005-0.014,0.016-0.016c0.009,0,0.03,0,0.03,0s0.016,0.007,0.03,0c0.012-0.002,0.016-0.014,0.016-0.014
	c0.008,0,0.014,0.014,0.014,0.014c0.002-0.002,0.044-0.014,0.045-0.016c0.005-0.004,0.01-0.009,0.015-0.014
	c0.001-0.002,0.015-0.015,0.015-0.015c0.003-0.004,0.026,0.002,0.031,0c0.005-0.006,0.015-0.017,0.015-0.017
	c0.005-0.004,0.014-0.013,0.015-0.015c0.005-0.004,0.027,0.003,0.03,0c0.01,0,0.031-0.031,0.031-0.031s0.011-0.011,0.015-0.015
	c0.016-0.005,0.031,0,0.031,0s0.012-0.013,0.015-0.016c0.003-0.004,0.012-0.011,0.015-0.015c0.008-0.007,0.014-0.015,0.015-0.015
	c0.008-0.008,0.01-0.009,0.015-0.015c0.007-0.007,0.018-0.018,0.015-0.016c0,0,0.003-0.002,0.015-0.015L8,28.669l3.059,3.059
	c0.013,0.013,0.016,0.015,0.016,0.015c-0.003-0.003,0.009,0.009,0.014,0.016c0.007,0.007,0.009,0.007,0.016,0.015
	c0,0.001,0.007,0.008,0.016,0.015c0.003,0.004,0.012,0.012,0.015,0.015s0.015,0.016,0.015,0.016s0.015-0.006,0.03,0
	c0.005,0.005,0.016,0.015,0.016,0.015s0.021,0.031,0.03,0.031c0.003,0.003,0.025-0.005,0.031,0c0.001,0.003,0.01,0.012,0.014,0.015
	c0,0,0.012,0.011,0.016,0.017c0.006,0.001,0.027-0.004,0.03,0c0,0,0.015,0.014,0.016,0.014c0.006,0.006,0.01,0.012,0.015,0.015
	c0.003,0.001,0.044,0.015,0.045,0.016c0,0,0.007-0.015,0.015-0.015c0,0,0.005,0.014,0.016,0.015c0.015,0.007,0.031,0,0.031,0
	s0.02,0,0.029,0c0.012,0.002,0.012,0.012,0.016,0.016c0.005,0.005,0.016,0.015,0.016,0.015c0,0.001,0.028-0.002,0.029,0
	c0.002,0.001,0.009,0.017,0.016,0.015c0.004,0,0.015-0.014,0.015-0.015c0.002,0.001,0.015,0.015,0.016,0.015
	c0.001,0.002,0.014,0,0.03,0c0.001,0.003,0.013,0.014,0.015,0.016c0.003,0.001,0.016-0.016,0.016-0.016l0.029,0.002h0.031
	c0,0,0.015,0.014,0.015,0.015c0.007-0.002,0.015-0.017,0.015-0.015c0.007-0.002,0.009-0.014,0.016-0.016h0.03
	c0.001,0.001,0.009,0.018,0.016,0.016c0.003,0,0.014-0.018,0.015-0.016c0.004,0,0.03,0.001,0.03,0.001s0.008-0.013,0.015-0.016
	c0.004,0.001,0.008-0.013,0.015-0.015c0.002,0.003,0.008,0.018,0.015,0.016c0.004,0,0.009-0.013,0.016-0.016
	c0.002,0.003,0.015,0.015,0.015,0.016c0.004,0,0.015-0.016,0.015-0.016s0.01-0.013,0.015-0.015c0.009-0.002,0.017,0.015,0.017,0.015
	c0.001,0,0.003-0.011,0.014-0.015c0.012-0.003,0.046-0.015,0.046-0.015c0.004,0,0.008-0.013,0.015-0.015
	c0.006-0.001,0.023,0.003,0.03,0c0.008-0.005,0.011-0.011,0.015-0.015c0.007-0.006,0.016-0.015,0.016-0.015
	c0.006-0.001,0.014-0.016,0.014-0.016s0.019,0.008,0.031,0c0.004-0.004,0.016-0.015,0.016-0.015s0.011-0.011,0.015-0.015
	c0.009-0.005,0.031,0,0.031,0l0.014-0.015c0.005-0.004,0.012-0.011,0.016-0.015c0-0.001,0.023-0.022,0.03-0.03
	c0.004-0.004,0.011-0.012,0.016-0.015c0.021-0.021,0.007-0.008,0.016-0.016l3.43-3.431c0.022-0.021,0.009-0.008,0.014-0.015
	c0.004-0.003-0.003,0.008,0.016-0.015c0-0.001,0.008-0.008,0.015-0.014c0.003-0.004,0.009-0.011,0.014-0.016
	c0.003-0.002,0.012-0.011,0.016-0.016c0.003-0.003,0.015-0.015,0.015-0.015s-0.004-0.021,0-0.031c0.001,0,0.012-0.009,0.016-0.014
	c0.001-0.002,0.012-0.011,0.014-0.015c0.005-0.004,0.016-0.016,0.016-0.016c0.005-0.005,0-0.029,0-0.029
	c0.002-0.003,0.015-0.016,0.015-0.016c0.004-0.006,0.017-0.015,0.015-0.015c0.002-0.006-0.003-0.024,0-0.031
	c0,0,0.014-0.009,0.015-0.015c0.005-0.004,0.016-0.015,0.016-0.016c0,0-0.008-0.016,0-0.03c0.005-0.009,0.015-0.015,0.015-0.015
	c0.005-0.011-0.019-0.008-0.015-0.015c0.002-0.009,0.015-0.014,0.015-0.014c0.005-0.006,0.014-0.016,0.014-0.016
	s0.015-0.008,0.016-0.016c-0.001-0.002-0.015-0.015-0.016-0.015c0,0,0.014-0.007,0.016-0.016c0,0,0.002-0.028,0-0.029
	c0,0,0.014-0.008,0.016-0.016s-0.015-0.015-0.016-0.016c0-0.004,0.017-0.012,0.015-0.015c-0.002-0.001-0.015-0.014-0.016-0.014
	c0.007-0.005,0.012-0.01,0.016-0.016c0.001-0.001-0.001-0.021-0.001-0.03c0.002,0,0.002-0.018,0-0.03
	c0.002-0.019-0.015-0.015-0.015-0.016c0.001,0,0.018-0.014,0.015-0.016c0.002-0.008-0.014,0.002-0.015-0.014
	c0.001,0.02,0.015-0.007,0.015-0.016c0.003-0.007-0.014,0.019-0.015-0.015c0-0.002,0.018-0.014,0.015-0.016
	c0.001-0.007,0.002-0.029,0-0.03c-0.002-0.002-0.012-0.013-0.015-0.015c-0.001-0.001,0.017-0.015,0.015-0.015
	c-0.001-0.002-0.012-0.013-0.015-0.016c0.001,0,0.018-0.013,0.015-0.015c-0.001-0.002-0.012-0.013-0.015-0.015
	c0-0.002,0.018-0.013,0.015-0.015c-0.002-0.002-0.015-0.015-0.015-0.015c-0.004-0.005-0.01-0.011-0.016-0.015
	c0.008-0.006,0.012-0.011,0.016-0.016c0,0-0.012-0.003-0.016-0.015c-0.006-0.015,0-0.03,0-0.03s-0.012-0.012-0.014-0.016
	c0,0-0.012-0.011-0.016-0.015c-0.001-0.003,0.018-0.014,0.016-0.016c0,0-0.01-0.009-0.016-0.014
	c-0.006-0.007-0.011-0.012-0.015-0.016c-0.003-0.002,0.015-0.016,0.015-0.016s-0.012-0.011-0.015-0.015
	c-0.003-0.002-0.016-0.015-0.016-0.015s-0.012-0.042-0.016-0.046c-0.004-0.005-0.013-0.013-0.014-0.015
	c-0.005-0.004-0.015-0.015-0.016-0.016v-0.03l0.001-0.001c-0.008-0.011-0.019-0.021-0.031-0.03c0,0-0.014-0.015-0.015-0.016
	c-0.015-0.016-0.008-0.007-0.015-0.014c-0.008-0.008-0.016-0.016-0.016-0.016s-0.008-0.008-0.015-0.016
	c-0.007-0.007,0.002,0.001-0.016-0.015c0.004,0.004-0.007-0.009-0.014-0.016c0.002,0.003,0.002,0.005-0.016-0.015l-3.044-3.043
	l3.046-3.046c0.012-0.012,0.015-0.016,0.015-0.016c0,0.002-0.005,0.006,0.016-0.016c0.007-0.006,0.007-0.006,0.015-0.014
	c0.009-0.009,0.015-0.016,0.015-0.016c0.005-0.004,0.012-0.012,0.016-0.016c0.002-0.002,0.015-0.015,0.015-0.016
	c0,0-0.008-0.016,0-0.03c0.004-0.003,0.016-0.016,0.016-0.016s0.031-0.021,0.029-0.03c0.003-0.003-0.004-0.023,0.002-0.029
	c-0.003-0.009,0.014-0.014,0.014-0.016c0,0.001,0.016-0.046,0.016-0.046c0.005-0.005,0.016-0.016,0.016-0.016
	c0.005-0.004,0.011-0.009,0.015-0.015c0.002-0.002,0.014-0.043,0.016-0.046c0,0-0.018-0.009-0.016-0.015
	c0,0,0.014-0.004,0.016-0.016c0.005-0.015,0-0.031,0-0.031s0.012-0.012,0.015-0.015c-0.001-0.009-0.016-0.013-0.015-0.015
	c0.003-0.004,0.015-0.016,0.015-0.016c0.005-0.005,0.016-0.016,0.016-0.016s-0.001-0.025,0-0.03c0,0,0-0.026,0-0.03
	c0-0.001,0-0.03,0-0.03C15.966,20.389,15.986,20.389,15.985,20.381z"/>
<polygon fill="#ED2526" points="15.107,27.674 11.429,23.998 15.104,20.324 11.673,16.893 8,20.566 4.326,16.893 0.896,20.324 
	4.57,23.998 0.893,27.674 4.322,31.104 8,27.428 11.677,31.104 "/>
<linearGradient id="SVGID_1_" gradientUnits="userSpaceOnUse" x1="-0.71" y1="-112.8384" x2="11.7896" y2="-112.8384" gradientTransform="matrix(1 0 0 -1 2.46 -88.8398)">
	<stop  offset="0" style="stop-color:#F59699"/>
	<stop  offset="1" style="stop-color:#8F1A1D"/>
</linearGradient>
<polygon fill="url(#SVGID_1_)" points="14.25,27.674 10.573,23.998 14.247,20.324 11.673,17.75 8,21.424 4.326,17.75 1.753,20.324 
	5.426,23.998 1.75,27.674 4.322,30.247 8,26.57 11.677,30.247 "/>
</svg>
