<?xml version="1.0" encoding="utf-8"?>
<!-- Generator: Adobe Illustrator 14.0.0, SVG Export Plug-In . SVG Version: 6.00 Build 43363)  -->
<!DOCTYPE svg PUBLIC "-//W3C//DTD SVG 1.1//EN" "http://www.w3.org/Graphics/SVG/1.1/DTD/svg11.dtd">
<svg version="1.1"
	 id="svg3440" sodipodi:docname="internet-web-browser.svg" inkscape:version="0.42+devel" sodipodi:version="0.32" sodipodi:docbase="/home/jimmac/src/cvs/tango-icon-theme/scalable/apps" xmlns:dc="http://purl.org/dc/elements/1.1/" xmlns:cc="http://web.resource.org/cc/" xmlns:rdf="http://www.w3.org/1999/02/22-rdf-syntax-ns#" xmlns:svg="http://www.w3.org/2000/svg" xmlns:sodipodi="http://inkscape.sourceforge.net/DTD/sodipodi-0.dtd" xmlns:inkscape="http://www.inkscape.org/namespaces/inkscape"
	 xmlns="http://www.w3.org/2000/svg" xmlns:xlink="http://www.w3.org/1999/xlink" x="0px" y="0px" width="32px" height="32px"
	 viewBox="8 8 32 32" enable-background="new 8 8 32 32" xml:space="preserve">
<path id="path9215" fill="#020202" d="M24,8.86c-8.35,0-15.137,6.787-15.137,15.135C8.863,32.344,15.65,39.14,24,39.14
	s15.137-6.796,15.137-15.146C39.137,15.644,32.35,8.86,24,8.86z"/>
<circle id="circle4677" sodipodi:cy="16.021" sodipodi:ry="14.351" sodipodi:rx="14.351" sodipodi:cx="16.17" fill="#4469AF" cx="24.154" cy="24.068" r="14.351">
</circle>
<path id="path4979" fill="#5BB947" d="M30.629,34.454c-0.096,0.121-0.184,0.283-0.303,0.357c-0.078,0.051-0.186,0.049-0.266,0.096
	c-0.307,0.179-0.404,0.482-0.488,0.812c-0.264,0.039-0.354,0.25-0.453,0.453c0.373,0.288,0.867-0.054,1.096-0.304v-0.166
	c0.459-0.383,1.043-0.736,0.867-1.646C30.861,34.043,30.779,34.263,30.629,34.454L30.629,34.454z M38.287,26.438
	c0.008,0,0.014,0,0.021,0c0.021-0.149,0.047-0.299,0.064-0.447C38.275,26.071,38.219,26.291,38.287,26.438z M10.52,19.586
	c-0.049,0.149-0.097,0.299-0.141,0.45c-0.033,0.135-0.056,0.27-0.047,0.4C10.434,20.208,10.512,19.856,10.52,19.586z M38.477,23.946
	c0.015,0.023,0.021,0.056,0.027,0.086c-0.002-0.69-0.055-1.371-0.15-2.036c-0.02-0.015-0.037-0.028-0.047-0.048
	c-0.037-0.283-0.117-0.523-0.152-0.813c0.009-0.022,0.023-0.027,0.041-0.029c-0.332-1.59-0.93-3.086-1.743-4.434
	c-0.007-0.001-0.009-0.006-0.015-0.006c-0.045,0.016,0.031,0.074-0.02,0.112c-0.064-0.132-0.123-0.271-0.164-0.423
	c-0.877-1.375-1.982-2.59-3.262-3.592c-0.422-0.25-0.826-0.537-1.215-0.853c0,0-0.004-0.001-0.004-0.002
	c-1.383-0.869-2.924-1.507-4.568-1.865c0.322,0.087,0.686,0.165,0.912,0.282c0.26,0.134,0.463,0.26,0.732,0.34
	c0.021,0.117,0.162,0.114,0.244,0.17c0.018,0.131,0.145,0.148,0.188,0.245c0.211,0.022,0.276,0.199,0.396,0.303
	c0.215,0.187,0.516,0.265,0.641,0.528c-0.051,0.074-0.153,0.097-0.17,0.207c0.07,0.119,0.104,0.275,0.15,0.415
	c-0.016,0.026-0.045,0.041-0.094,0.038c0.035,0.146,0.168,0.195,0.17,0.377c-0.217,0.015-0.346-0.352-0.545-0.359
	c-0.135-0.005-0.242,0.117-0.283,0.283c0.064,0.145,0.205,0.208,0.246,0.377c-0.096,0.105-0.238,0.167-0.285,0.321
	c0.176,0.276,0.098,0.692,0.244,0.999c-0.027,0.004-0.068-0.006-0.074,0.02c0.096,0.115,0.227,0.061,0.301,0.133
	c-0.194,0.086-0.203,0.361-0.547,0.301c0.068,0.14,0.256,0.26,0.264,0.396c-0.229-0.123-0.438-0.266-0.659-0.396
	c-0.021,0.408,0.272,0.604,0.416,0.906c-0.147,0.1-0.313,0.127-0.511,0.057c-0.147,0.059-0.256,0.156-0.28,0.34
	c-0.224,0.049-0.274,0.267-0.528,0.283c-0.162,0.177-0.423,0.257-0.584,0.435c-0.117-0.022-0.285-0.094-0.378-0.076
	c0.033,0.165,0.149,0.272,0.149,0.416c-0.239-0.015-0.258,0.194-0.452,0.226c-0.037,0.195-0.263,0.203-0.321,0.377
	c-0.204-0.071-0.402-0.148-0.488-0.34c0.125-0.008-0.021-0.086,0.037-0.131c0.331,0.049,0.729,0.012,0.867-0.189
	c-0.095-0.063-0.113-0.219-0.244-0.266c-0.078-0.028-0.195,0.002-0.283-0.019c-0.307-0.069-0.644-0.228-0.963-0.188
	c-0.226-0.256-0.459-0.176-0.791-0.112c-0.354,0.067-0.5,0.208-0.623,0.415c-0.404,0.023-0.412,0.441-0.811,0.471
	c-0.16,0.415-0.564,0.58-1,0.719c-0.156,0.235-0.268,0.455-0.189,0.848c0.178,0.072,0.391,0.113,0.603,0.15
	c0.135,0.256,0.298,0.481,0.416,0.754c0.135-0.002,0.267-0.002,0.376,0.02c0.236-0.211,0.64-0.432,0.566-0.829h0.094
	c-0.096-0.187-0.246-0.333-0.206-0.565c0.036-0.225,0.237-0.332,0.396-0.49c0.152-0.153,0.25-0.291,0.452-0.319
	c-0.041,0.331-0.259,0.483-0.435,0.679c0.058,0.271,0.228,0.426,0.453,0.528c0.031,0.163,0.027,0.389-0.035,0.51
	c-0.35-0.032-0.334,0.295-0.377,0.565c-0.297-0.038-0.563,0.225-0.85,0.244c-0.097,0.008-0.195-0.041-0.302-0.057
	c-0.209-0.029-0.541,0.012-0.642-0.15c0.024-0.094,0.111-0.129,0.207-0.149c-0.058-0.194-0.207-0.297-0.227-0.528
	c-0.234,0.137-0.188,0.555-0.339,0.773c-0.069-0.014-0.129-0.037-0.208-0.038c-0.199,0.179-0.402,0.118-0.622,0.228
	c-0.305,0.147-0.42,0.58-0.813,0.641c-0.26,0.04-0.533-0.057-0.754,0.132c0.078,0.271,0.209,0.483,0.227,0.812
	c-0.211,0.5-0.949,0.178-1.434,0.151c-0.135,0.211-0.269,0.423-0.416,0.622c-0.016,0.303-0.025,0.495-0.057,0.771
	c0.282,0.031,0.458,0.396,0.756,0.455c0.209,0.041,0.399-0.037,0.527-0.076c0.118-0.035,0.277-0.035,0.359-0.075
	c0.233-0.111,0.32-0.36,0.416-0.565c0.123-0.08,0.24-0.063,0.375-0.17c0.134-0.103,0.201-0.334,0.341-0.378
	c0.133-0.041,0.282,0.021,0.415,0.019c0.24,0,0.431-0.067,0.66-0.11c0.053,0.2,0.23,0.287,0.396,0.433
	c0.132,0.117,0.233,0.262,0.34,0.321c0.185,0.106,0.429,0.118,0.565,0.301c0.078,0.239-0.021,0.384,0.057,0.55
	c0.079,0.002,0.092-0.061,0.17-0.058c0.049-0.158,0.016-0.399,0.131-0.492c0.094-0.004,0.058,0.12,0.17,0.097
	c0.068-0.166-0.108-0.354-0.301-0.377c-0.138-0.233-0.408-0.336-0.642-0.472c-0.031-0.14-0.104-0.235-0.113-0.396
	c0.125,0.044,0.271,0.002,0.396,0.057c0.113,0.046,0.177,0.209,0.283,0.283c0.219,0.146,0.566,0.21,0.643,0.471
	c-0.03,0.083-0.102,0.125-0.113,0.227c0.031,0.229,0.337,0.279,0.436,0.435c0.111,0.181,0.076,0.423,0.227,0.603
	c0.146-0.045,0.154,0.03,0.266,0.06c0.078-0.088,0.176-0.077,0.303-0.06c0.017-0.153-0.164-0.11-0.17-0.244
	c0.037-0.059,0.129,0.045,0.131-0.057c-0.129-0.128-0.174-0.341-0.227-0.547c0.131-0.342,0.705-0.029,0.926-0.283
	c-0.108,0.121-0.179,0.287-0.17,0.528c0.168,0.142,0.239,0.377,0.34,0.585c0.511-0.107,1.127,0.084,1.509-0.133
	c0.266,0.474-0.056,0.912-0.244,1.207c-0.062-0.021-0.119-0.043-0.188-0.057c-0.136,0.127-0.343,0.066-0.527,0.094
	c-0.121,0.021-0.225,0.107-0.34,0.113c-0.57,0.025-1.123-0.342-1.68-0.375c-0.102,0.063-0.229,0.098-0.32,0.168
	c-0.037,0.172-0.071,0.346-0.189,0.436c-0.154-0.15-0.318-0.109-0.547-0.208c-0.227-0.097-0.396-0.394-0.586-0.433
	c-0.284-0.063-0.48,0.086-0.622-0.17c-0.076-0.139-0.032-0.299-0.076-0.455c-0.048-0.174-0.172-0.291-0.226-0.49
	c-0.154-0.018-0.285,0.041-0.434,0.035c-0.275-0.006-0.549-0.111-0.85-0.148c-0.301-0.039-0.729-0.009-0.98,0.037
	c-0.16,0.027-0.307,0.15-0.433,0.133c-0.146-0.021-0.271-0.31-0.437-0.302c-0.141,0.006-0.277,0.291-0.414,0.356
	c-0.108,0.054-0.236,0.026-0.34,0.056c-0.123,0.034-0.199,0.11-0.32,0.114c-0.045,0.043,0.045,0.05,0.02,0.131
	c-0.13,0.189-0.25,0.414-0.453,0.548c-0.252,0.165-0.556,0.202-0.796,0.342c-0.346,0.198-0.631,0.575-0.735,1.001
	c-0.066,0.275-0.094,0.591-0.17,0.923c-0.349,0.345,0.054,0.771-0.076,1.245c0.181,0.303,0.435,0.406,0.566,0.682
	c0.077,0.156,0.042,0.345,0.112,0.547c0.058,0.164,0.269,0.357,0.397,0.488c0.148,0.153,0.283,0.346,0.453,0.437
	c0.355,0.188,0.815,0.155,1.244,0.243c0.285,0.061,0.496,0.188,0.83,0.17c0.205-0.012,0.461-0.112,0.68-0.094
	c0.166,0.015,0.28,0.162,0.471,0.188c0.164,0.275,0.523,0.355,0.979,0.34c0.112,0.096,0.226,0.188,0.302,0.32
	c-0.158,0.205-0.317,0.488-0.319,0.793c0.51,0.488,0.911,1.086,1.376,1.621c-0.094,0.125-0.174,0.267-0.15,0.508
	c-0.086,0.082-0.219,0.093-0.264,0.207c-0.064,0.168,0.018,0.436-0.094,0.604c0.137,0.254,0.494,0.373,0.621,0.643
	c0.076,0.156,0.086,0.285,0.17,0.396c0.185,0.243,0.537,0.438,0.813,0.585c0.025,0.037,0.018,0.107,0.037,0.151
	c0.584,0.215,1.314,0.028,1.831-0.075c0.599-0.122,1.19-0.32,1.472-0.697c0.024-0.035-0.017-0.097,0.02-0.151
	c0.129-0.142,0.283-0.257,0.453-0.357c-0.021-0.216,0.072-0.313,0.131-0.454c0.447-0.318,1.039-0.498,1.359-0.941
	c-0.086-0.576-0.019-1.184-0.189-1.604c0.211-0.188,0.324-0.475,0.566-0.68c0.108-0.093,0.268-0.129,0.377-0.229
	c0.246-0.214,0.494-0.666,0.83-0.94c0.188-0.154,0.446-0.355,0.547-0.548c0.063-0.127,0.063-0.308,0.113-0.452
	c0.04-0.123,0.122-0.289,0.188-0.435c0.108-0.246,0.305-0.396,0.168-0.662c-0.109-0.017-0.22-0.03-0.339-0.037
	c-0.354,0.115-1.021,0.763-1.396,0.451v-0.187c0.339-0.103,0.685-0.362,0.943-0.548c0.271-0.189,0.582-0.33,0.774-0.51
	c0.153-0.145,0.215-0.373,0.396-0.472c0.291-0.155,0.614-0.172,0.771-0.508c0.029-0.463,0.174-0.808,0.301-1.172
	c-0.125-0.106-0.151-0.265-0.28-0.375c-0.123-0.106-0.39-0.111-0.396-0.34c0.254-0.125,0.549-0.12,0.849-0.037
	c0.206-0.261,0.448-0.485,0.813-0.586c-0.009,0.075,0.047,0.093,0.075,0.132c0.433,0.02,0.586,0.316,0.886,0.471
	c0.094-0.023,0.1-0.141,0.188-0.17c0.284,0.188,0.301,0.646,0.358,1.059c0.062,0.096,0.166,0.147,0.228,0.244
	c0,0.113,0.03,0.193,0.021,0.32c0.116,0.126,0.262,0.229,0.301,0.436c0.102,0.029,0.242,0.021,0.244,0.149
	c0.164-0.438,0.34-0.856,0.321-1.377c-0.006-0.178-0.077-0.36-0.075-0.547c0.006-0.349,0.219-0.659,0.358-1.06
	c0.047-0.133,0.008-0.313,0.035-0.451c0.026-0.122,0.098-0.223,0.114-0.342c0.052-0.334,0.123-0.492,0.226-0.734
	c0.396,0.016,0.437,0.381,0.604,0.622c0.358-0.371,0.309,0.474,0.34,0.942c0.016,0.209,0.057,0.371,0.121,0.486
	c0.014-0.148,0.022-0.299,0.031-0.447c0,0-0.002,0-0.002-0.002C38.414,24.632,38.379,24.199,38.477,23.946L38.477,23.946z
	 M30.836,22.569c-0.07-0.004-0.072-0.077-0.094-0.133C30.805,22.451,30.844,22.487,30.836,22.569z M30.686,22.42
	c0.037-0.01,0.062,0.087,0.021,0.093C30.637,22.531,30.67,22.433,30.686,22.42z M27.252,23.154
	c-0.105,0.007-0.191,0.069-0.281,0.095c-0.373,0.098-0.762,0.143-0.982,0.284c-0.053-0.063,0.059-0.119,0.074-0.17
	c-0.02-0.315,0.049-0.646,0.021-0.906c0.101-0.072,0.173-0.207,0.283-0.226c0.231-0.041,0.351,0.258,0.565,0.283
	c0.049,0.08-0.125,0.08-0.095,0.207c0.081,0.063,0.241,0.047,0.341,0.094c0.129-0.078,0.225-0.188,0.338-0.281
	c-0.076-0.014-0.334,0.064-0.434-0.02c0.115-0.273,0.352-0.429,0.586-0.584c0.219,0.125,0.014,0.338-0.039,0.508
	c0.092,0.098,0.275,0.045,0.416,0.096c0.137,0.049,0.486,0.313,0.49,0.396c0.008,0.117-0.201,0.202-0.34,0.226
	C27.908,23.201,27.459,23.144,27.252,23.154z M27.195,33.097c-0.029-0.092-0.092-0.111-0.057-0.227
	c0.045-0.037,0.151-0.014,0.227-0.02c0.041,0.002,0.01-0.066,0.021-0.097c0.09-0.014,0.098-0.014,0.188,0
	C27.543,32.966,27.445,33.106,27.195,33.097z M29.365,29.286c-0.08-0.096-0.17-0.184-0.227-0.303
	c-0.414-0.123-0.871-0.551-0.604-1.057c-0.031-0.09-0.107-0.133-0.171-0.188c-0.375,0.064-0.486-0.229-0.622-0.475
	c-0.119-0.213-0.33-0.439-0.32-0.564c0.024-0.327,0.492-0.014,0.66,0.097c0.196,0.876,0.905,1.243,1.437,1.791
	c0.053,0.267,0.147,0.493,0.207,0.754C29.607,29.319,29.494,29.294,29.365,29.286L29.365,29.286z M30.158,23.099
	c0.019-0.082,0.064-0.136,0.095-0.207c-0.244-0.363-0.707-0.621-0.604-1.17c0.107-0.111,0.203-0.236,0.322-0.34
	c0.066,0.002,0.084,0.055,0.15,0.059c0.031-0.041,0.066-0.069,0.076-0.133c0.051-0.016,0.037,0.035,0.07,0.036
	c-0.082,0.173-0.121,0.392-0.279,0.49c0.107,0.326,0.299,0.567,0.604,0.698c0.145,0.265,0.307,0.512,0.434,0.793
	c-0.01,0.079-0.073,0.104-0.075,0.188c-0.123,0.033-0.289,0.024-0.414,0.059C30.396,23.425,30.223,23.317,30.158,23.099
	L30.158,23.099z M32.043,26.269c-0.158,0.022-0.295,0.067-0.453,0.097c-0.451-0.14-0.609-0.574-0.998-0.775
	c-0.002-0.059,0.021-0.089,0.037-0.133c0.105-0.021,0.207,0.021,0.225-0.11c0.222,0.223,0.408,0.475,0.72,0.604
	c0.17-0.059,0.366-0.088,0.563-0.111C32.125,26.009,32.117,26.127,32.043,26.269z M12.688,31.417
	c-0.055-0.514-0.246-0.794-0.471-1.169c-0.152-0.253-0.279-0.55-0.436-0.755c-0.129-0.172-0.354-0.288-0.471-0.473
	c-0.174-0.273-0.258-0.576-0.396-0.867c-0.05-0.104-0.14-0.189-0.17-0.283c-0.087-0.271-0.099-0.58-0.17-0.866
	c-0.063-0.263-0.144-0.548-0.245-0.792c-0.059-0.139-0.245-0.344-0.266-0.51c-0.008-0.084,0.021-0.184,0.021-0.264
	c-0.015-0.76-0.108-1.617-0.228-2.209c-0.016,0.07-0.027,0.144-0.041,0.213c-0.008,0.209-0.015,0.416-0.015,0.625
	c0,3.242,1.076,6.231,2.89,8.637c0.041,0.02,0.082,0.029,0.129,0.033c-0.131-0.172-0.166-0.494-0.244-0.758
	C12.486,31.683,12.387,31.511,12.688,31.417z M10.292,20.665c-0.099,0.285-0.216,0.652-0.188,1
	C10.188,21.362,10.279,20.974,10.292,20.665z M10.287,20.367c-0.023,0.092-0.049,0.182-0.07,0.274c0,0.002,0,0.004,0.001,0.004
	C10.236,20.567,10.284,20.461,10.287,20.367L10.287,20.367z M10.123,21.702c-0.032,0.105-0.09,0.288-0.036,0.415
	C10.202,22.084,10.221,21.776,10.123,21.702z M19.594,16.892c-0.207-0.078-0.498-0.041-0.699-0.149
	c-0.039,0.099-0.109,0.168-0.129,0.282c0.073,0.207,0.211,0.354,0.414,0.436c0.203-0.124,0.469-0.188,0.736-0.245
	C19.826,17.104,19.747,16.95,19.594,16.892z M27.762,16.063c0.116,0.058,0.293,0.059,0.471,0.056
	c0.025-0.245-0.233-0.205-0.282-0.378c0.038-0.146,0.082-0.318,0.021-0.471c0.119-0.112,0.207-0.258,0.244-0.453
	c0.064,0,0.11-0.028,0.17-0.036c-0.056-0.269-0.455-0.026-0.585,0.036c0,0.082-0.008,0.172,0.021,0.228
	C27.488,15.162,27.521,15.862,27.762,16.063z M25.479,25.042c0.033-0.084-0.117-0.129-0.188-0.17
	c-0.032,0.035-0.013,0.126-0.019,0.188C25.391,25.06,25.375,24.976,25.479,25.042z M23.234,24.325
	c-0.098-0.199-0.312-0.212-0.489-0.076c-0.058-0.025-0.072-0.092-0.152-0.095c-0.022,0.062-0.032,0.131-0.056,0.188
	c0.207,0.057,0.354,0.176,0.509,0.284C23.077,24.495,23.156,24.41,23.234,24.325z M21.706,23.589
	c0.043,0.178,0.114,0.325,0.245,0.414c-0.025-0.257,0.203-0.283,0.093-0.527C21.913,23.364,21.781,23.485,21.706,23.589z
	 M22.027,23.117c-0.041-0.03-0.037-0.103-0.114-0.095c-0.002,0.082-0.048,0.164,0.037,0.188
	C21.971,23.174,22.035,23.181,22.027,23.117L22.027,23.117z M29.309,12.873c-0.127,0.041-0.256-0.074-0.322,0.058
	c0.087,0.051,0.195,0.146,0.304,0.112C29.297,12.955,29.25,12.919,29.309,12.873L29.309,12.873z M36.703,27.211
	c-0.105,0.354,0.035,0.56,0.094,0.812c0.201-0.159,0.166-0.75,0.02-0.942C36.811,27.155,36.746,27.172,36.703,27.211z
	 M20.707,10.459c0.01,0.131-0.105,0.133-0.15,0.207c0.129-0.021,0.271-0.028,0.377-0.075c-0.011-0.08,0.01-0.129,0.037-0.17
	C20.861,10.376,20.811,10.449,20.707,10.459z M28.498,13.063c0.135,0.054,0.189,0.185,0.338,0.226
	c0.072-0.077,0.238-0.063,0.301-0.149C29.055,12.958,28.574,12.808,28.498,13.063z M28.969,11.176
	c0.041,0.15,0.25,0.306,0.416,0.208C29.213,11.36,29.129,11.091,28.969,11.176z M18.462,11.647c0.287-0.059,0.531-0.159,0.718-0.319
	C18.871,11.187,18.59,11.438,18.462,11.647z M19.216,11.385c0.24,0.031,0.304-0.112,0.452-0.17
	C19.497,11.067,19.352,11.317,19.216,11.385z M19.234,20.401c0.289-0.109,0.945-0.651,0.472-0.905
	c-0.237,0.214-0.507,0.399-0.66,0.698C19.083,20.289,19.166,20.336,19.234,20.401z M18.857,11.667
	c-0.059-0.023,0.026-0.072-0.02-0.095c-0.129,0.054-0.314,0.05-0.359,0.188C18.66,11.794,18.75,11.745,18.857,11.667z
	 M24.254,15.042c-0.104-0.073-0.203-0.148-0.32-0.206c-0.136,0.041-0.3,0.054-0.416,0.113c-0.06,0.231,0.215,0.364,0.303,0.565
	c0.256-0.055,0.479-0.138,0.509-0.416c0.067,0.034,0.149,0.051,0.226,0.075c0.063-0.102,0.148-0.181,0.209-0.284
	C24.537,14.84,24.254,14.743,24.254,15.042z M21.895,14.288c-0.203,0.021-0.227-0.303-0.474-0.301
	c0.002-0.139,0.077-0.201,0.058-0.359c-0.313-0.057-0.518-0.224-0.641-0.471c-0.097-0.016-0.137,0.025-0.227,0.019
	c-0.051-0.038,0.005-0.095-0.057-0.094c-0.216,0.006-0.224-0.192-0.357-0.265c-0.122,0.022-0.248,0.041-0.359,0.074
	c-0.005-0.069-0.083-0.067-0.057-0.17c-0.182,0.021-0.23-0.097-0.396-0.095c0.038-0.065-0.006-0.103-0.056-0.132
	c-0.361,0.063-0.572,0.271-0.661,0.604c0.004,0.061,0.102,0.024,0.096,0.096c-0.164,0.371-0.496,0.574-0.755,0.849
	c-0.017,0.078,0.028,0.097,0.019,0.17c-0.028,0.011-0.049,0.027-0.076,0.037c-0.105,0.032-0.064-0.083-0.169-0.056
	c-0.173,0.047-0.058,0.382-0.265,0.396c-0.045-0.012-0.086-0.025-0.15-0.02c-0.346,0.128-0.584,0.359-0.813,0.604
	c-0.061,0.432-0.406,0.576-0.396,1.076c0.517,0.577,0.769-0.393,1.247-0.415c0.061,0.046,0.132,0.081,0.187,0.131
	c0.228,0.052,0.396-0.052,0.566-0.073c0.396-0.054,0.628,0.184,0.999,0.246c0.168-0.039,0.294-0.175,0.436-0.267
	c0.049-0.03,0.108-0.035,0.149-0.074c0.052-0.048,0.063-0.133,0.114-0.188c0.145-0.161,0.39-0.199,0.547-0.34
	c0.17-0.152,0.257-0.465,0.547-0.435c0.008-0.048,0.025-0.087,0.056-0.112c0.019-0.068-0.085-0.018-0.075-0.076
	c0.26-0.117,0.586-0.17,0.905-0.227C21.834,14.366,21.945,14.329,21.895,14.288L21.895,14.288z M19.99,21.024
	c0.25-0.217,0.787-0.145,0.98-0.416c0.049-0.243-0.219-0.406-0.264-0.604c-0.081-0.334,0.104-0.637,0.02-1
	c-0.222-0.263-0.441,0.096-0.584,0.245c0.08,0.081,0.19,0.135,0.262,0.228c-0.082,0.576-0.418,0.9-0.658,1.319
	C19.79,20.908,19.918,20.937,19.99,21.024L19.99,21.024z M19.631,11.026c0.186-0.098,0.344,0.004,0.452-0.15
	c0-0.029-0.052-0.011-0.056-0.038c0.139-0.082,0.306-0.134,0.451-0.208C20.135,10.624,19.854,10.845,19.631,11.026z M19.915,11.308
	c0.104-0.049,0.315-0.082,0.339-0.149C20.229,11.099,19.773,11.149,19.915,11.308z M15.141,14.873
	c0.018-0.396,0.506-0.522,0.721-0.828c0.014-0.022,0.027-0.045,0.043-0.065c0.07-0.125,0.125-0.305,0.048-0.484
	c-0.188,0.117-0.37,0.206-0.604,0.34c-0.146,0.085-0.397,0.378-0.527,0.415c-0.098,0.026-0.198-0.021-0.283,0
	c-0.206,0.049-0.299,0.255-0.51,0.319c0.115-0.301,0.461-0.354,0.68-0.547c0.105-0.092,0.2-0.271,0.32-0.414
	c0.172-0.196,0.355-0.328,0.416-0.564c0.356-0.232,0.638-0.604,1.15-0.621c-0.066,0.094,0.061,0.133,0.112,0.169
	c-0.203,0.048-0.338,0.163-0.435,0.32c0.028,0.011,0.099-0.022,0.097,0.019c-0.042,0.061-0.101,0.103-0.132,0.17
	c0.301-0.132,0.437-0.431,0.772-0.527c0.003,0.093-0.028,0.111,0.019,0.17c0.222,0.07,0.332-0.192,0.548-0.076
	c-0.343,0.225-0.351,0.78-0.962,0.734c-0.086-0.031-0.078-0.159-0.151-0.207c-0.04,0.035-0.137,0.013-0.171,0.057
	c0.01,0.35-0.239,0.521-0.389,0.729c-0.008,0.017-0.016,0.033-0.026,0.045c-0.003,0.007-0.008,0.015-0.015,0.021
	c-0.047,0.086-0.077,0.182-0.06,0.301c0.444,0.141,0.503-0.343,0.812-0.453c-0.03,0.153-0.156,0.289-0.076,0.396
	c0.092-0.047,0.195-0.079,0.303-0.113c0.154-0.112,0.18-0.301,0.283-0.452c0.143-0.216,0.434-0.322,0.564-0.547
	c0.027-0.072-0.084-0.003-0.057-0.074c0.178-0.149,0.367-0.289,0.564-0.416c0.062-0.201,0.207-0.319,0.303-0.489
	c-0.063-0.027-0.184,0.021-0.227,0c0.125-0.058,0.26-0.104,0.283-0.265c-0.492,0.01-0.813,0.19-0.98,0.526
	c-0.088-0.006-0.147-0.04-0.188-0.094c0.271-0.276,0.646-0.448,1-0.642c-0.313-0.026-0.49,0.271-0.736,0.188
	c0.146-0.093,0.426-0.052,0.472-0.245c0.008-0.072-0.086-0.04-0.112-0.077c0.232-0.176,0.41-0.405,0.696-0.528
	c-0.104,0.147-0.334,0.17-0.377,0.377c0.392-0.174,0.866-0.266,1.228-0.473c0.287-0.354,0.916-0.367,1.303-0.621
	c-0.387-0.047-0.582,0.1-0.793,0.227c0.033,0.004,0.094-0.021,0.076,0.037c-0.219-0.02-0.474,0.111-0.677,0.113
	c-0.002,0-0.002,0-0.004,0.002h-0.019c0.007,0,0.015-0.002,0.022-0.002c0.011-0.002,0.019-0.004,0.015-0.019
	c0.4-0.128,0.699-0.354,1.17-0.414c0.98-0.444,2.328-0.524,3.709-0.567c-0.066,0-0.137-0.003-0.205-0.003
	c-1.934,0-3.781,0.384-5.465,1.077c-0.135,0.064-0.267,0.13-0.397,0.191c-0.313,0.146-0.624,0.293-0.931,0.439
	c-0.777,0.417-1.51,0.904-2.189,1.452c-0.111,0.099-0.222,0.198-0.332,0.298c-0.214,0.192-0.443,0.381-0.662,0.578
	c-0.678,0.655-1.291,1.376-1.83,2.153c-0.166,0.28-0.332,0.557-0.52,0.809c-0.057,0.095-0.11,0.187-0.163,0.28
	c-0.079,0.203-0.2,0.384-0.306,0.564c-0.047,0.095-0.094,0.188-0.139,0.283c-0.017,0.041-0.031,0.082-0.041,0.123
	c0.086-0.166,0.176-0.328,0.303-0.451c-0.006,0.049,0.024,0.061,0.074,0.056c0.315-0.146,0.434-0.486,0.68-0.698
	c0.002,0.116,0.033,0.206,0.076,0.282c0.035-0.239,0.396-0.251,0.564-0.111c-0.045,0.099-0.152,0.138-0.17,0.265
	c0.145-0.006,0.188,0.09,0.266,0.149c0.123-0.36,0.295-0.672,0.545-0.903c0.023-0.168,0.004-0.375,0.135-0.436
	c0.123,0.14,0.07,0.456,0.188,0.604c0.035,0.107,0.135-0.072,0.188,0c-0.131,0.186-0.381,0.246-0.527,0.416
	c-0.038,0.336-0.148,0.711,0.113,0.887c0.143-0.236,0.365-0.465,0.34-0.812c0.136-0.286,0.307-0.536,0.566-0.698
	c0.06-0.216,0.162-0.344,0.244-0.529c0.063-0.139,0.12-0.286,0.188-0.414c0.139-0.266,0.364-0.444,0.471-0.68
	C15.389,14.863,15.203,14.926,15.141,14.873z M12.67,16.101c-0.023-0.113,0.04-0.136,0.077-0.189
	c0.067,0.02-0.087,0.113,0.019,0.111C12.741,16.056,12.727,16.099,12.67,16.101z M12.934,15.552
	c0.049-0.164,0.188-0.238,0.283-0.357C13.199,15.315,13.063,15.481,12.934,15.552z M12.992,15.212
	c0.051-0.148,0.285-0.339,0.434-0.396C13.376,14.972,13.133,15.092,12.992,15.212z M13.596,14.741
	c0.053-0.168,0.163-0.439,0.303-0.585C13.994,14.41,13.702,14.569,13.596,14.741z M18.462,12.326
	c0.228-0.017,0.261-0.229,0.474-0.265c-0.02,0.071-0.131,0.049-0.115,0.15c0.146,0.145,0.6-0.098,0.586,0.229
	c0.271,0.084,0.578,0.02,0.886,0.058c-0.063-0.124,0.06-0.114,0.076-0.208c-0.013-0.037-0.113,0.011-0.097-0.057
	c0.053-0.105,0.115-0.199,0.151-0.32c-0.032-0.018-0.094-0.006-0.112-0.037c0.019-0.07,0.09-0.087,0.094-0.17
	c-0.059-0.117-0.191-0.161-0.283-0.245c-0.227,0.044-0.411,0.129-0.564,0.245c0.019,0.184,0.293,0.036,0.377,0.075
	c-0.121-0.005-0.021,0.092,0.02,0.095c-0.172,0.061-0.346-0.061-0.528,0c-0.085-0.216-0.397,0.001-0.452,0.036
	c0.078-0.263,0.426-0.253,0.547-0.472c-0.068-0.035-0.148-0.01-0.172,0.057c-0.384,0.113-0.769,0.32-0.811,0.717
	C18.516,12.255,18.475,12.276,18.462,12.326z"/>
<linearGradient id="path11453_1_" gradientUnits="userSpaceOnUse" x1="289.708" y1="1117.7002" x2="316.4092" y2="1117.7002" gradientTransform="matrix(1 0 0 1 -279.0967 -1093.6318)">
	<stop  offset="0" style="stop-color:#B1D1DA;stop-opacity:0"/>
	<stop  offset="1" style="stop-color:#FFFFFF;stop-opacity:0.38"/>
</linearGradient>
<path id="path11453" fill="url(#path11453_1_)" d="M23.962,37.419c-7.362,0-13.351-5.988-13.351-13.352
	c0-7.361,5.988-13.35,13.351-13.35c7.36,0,13.351,5.989,13.351,13.352C37.313,31.431,31.324,37.419,23.962,37.419L23.962,37.419z"/>
</svg>
