<?xml version="1.0" encoding="utf-8"?>
<!-- Generator: Adobe Illustrator 14.0.0, SVG Export Plug-In . SVG Version: 6.00 Build 43363)  -->
<!DOCTYPE svg PUBLIC "-//W3C//DTD SVG 1.1//EN" "http://www.w3.org/Graphics/SVG/1.1/DTD/svg11.dtd">
<svg version="1.1"
	 id="svg2" sodipodi:docname="right.svg" inkscape:version="0.46" sodipodi:version="0.32" sodipodi:docbase="C:\Radix\dev\trunk\org.radixware\kernel\designer\src\common.resources\src\org\radixware\kernel\designer\resources\icons\arrow" inkscape:output_extension="org.inkscape.output.svg.inkscape" xmlns:dc="http://purl.org/dc/elements/1.1/" xmlns:cc="http://creativecommons.org/ns#" xmlns:rdf="http://www.w3.org/1999/02/22-rdf-syntax-ns#" xmlns:svg="http://www.w3.org/2000/svg" xmlns:sodipodi="http://sodipodi.sourceforge.net/DTD/sodipodi-0.dtd" xmlns:inkscape="http://www.inkscape.org/namespaces/inkscape"
	 xmlns="http://www.w3.org/2000/svg" xmlns:xlink="http://www.w3.org/1999/xlink" x="0px" y="0px" width="32px" height="32px"
	 viewBox="0 0 32 32" enable-background="new 0 0 32 32" xml:space="preserve">
<defs>
	
	
		<inkscape:perspective  id="perspective15" sodipodi:type="inkscape:persp3d" inkscape:vp_z="32 : 16 : 1" inkscape:vp_x="0 : 16 : 1" inkscape:vp_y="0 : 1000 : 0" inkscape:persp3d-origin="16 : 10.666667 : 1">
		</inkscape:perspective>
</defs>
<sodipodi:namedview  height="48px" width="48px" id="base" pagecolor="#ffffff" bordercolor="#000000" borderopacity="0.29411765" showgrid="false" inkscape:zoom="8.6823691" inkscape:cx="28.485883" inkscape:cy="18.553887" inkscape:current-layer="g9137" inkscape:pageopacity="0.0" inkscape:pageshadow="2" inkscape:window-width="823" inkscape:window-height="722" inkscape:window-x="850" inkscape:window-y="46" inkscape:document-units="px" showguides="true" showborder="true" inkscape:guide-bbox="true" inkscape:showpageshadow="false">
	</sodipodi:namedview>
<g id="g2836_1_">
	<g id="g20887-2_6_" transform="translate(-5.5755111,29.767864)">
		<g id="g4">
			<g id="g6">
				<path id="path8_20_" d="M20.231-1.715c-0.141,0-0.282-0.029-0.415-0.09c-0.355-0.164-0.585-0.52-0.585-0.91V-7.09h-9.065
					c-0.551,0-1-0.447-1-1v-11.447c0-0.552,0.449-1,1-1h9.065v-4.283c0-0.391,0.228-0.746,0.584-0.908
					c0.134-0.061,0.275-0.092,0.416-0.092c0.235,0,0.47,0.084,0.654,0.244L33.64-14.551c0.219,0.189,0.346,0.465,0.346,0.755
					s-0.125,0.567-0.345,0.756L20.887-1.961C20.701-1.799,20.467-1.715,20.231-1.715L20.231-1.715z"/>
			</g>
		</g>
	</g>
	<g id="g20887-2_5_" transform="translate(-5.5755111,29.767864)">
		<path id="path4348-2-1_6_" fill="#00ACDA" d="M20.231-2.715l12.755-11.08L20.231-24.82v5.283H10.165V-8.09H20.23L20.231-2.715
			L20.231-2.715z"/>
	</g>
	<g id="g20887-2_4_" transform="translate(-5.5755111,29.767864)">
		<g id="g13">
			<g id="g15">
				
					<linearGradient id="polygon22_1_" gradientUnits="userSpaceOnUse" x1="24.4281" y1="-113.5706" x2="24.4281" y2="-96.7772" gradientTransform="matrix(1 0 0 -1 -3.1157 -118.608)">
					<stop  offset="0" style="stop-color:#B1D2DB"/>
					<stop  offset="1" style="stop-color:#0C7C9E"/>
				</linearGradient>
				<polygon id="polygon22" fill="url(#polygon22_1_)" points="21.231,-9.09 11.165,-9.09 11.165,-18.537 21.231,-18.537 
					21.231,-22.634 31.458,-13.793 21.231,-4.908 				"/>
			</g>
		</g>
	</g>
</g>
</svg>
