<?xml version="1.0" encoding="UTF-8" standalone="no"?>
<!-- Generator: Adobe Illustrator 14.0.0, SVG Export Plug-In . SVG Version: 6.00 Build 43363)  -->

<svg
   xmlns:dc="http://purl.org/dc/elements/1.1/"
   xmlns:cc="http://creativecommons.org/ns#"
   xmlns:rdf="http://www.w3.org/1999/02/22-rdf-syntax-ns#"
   xmlns:svg="http://www.w3.org/2000/svg"
   xmlns="http://www.w3.org/2000/svg"
   xmlns:xlink="http://www.w3.org/1999/xlink"
   xmlns:sodipodi="http://sodipodi.sourceforge.net/DTD/sodipodi-0.dtd"
   xmlns:inkscape="http://www.inkscape.org/namespaces/inkscape"
   version="1.1"
   id="svg3333"
   sodipodi:docname="spellcheck.svg"
   inkscape:version="0.91 r13725"
   x="0px"
   y="0px"
   width="32px"
   height="32px"
   viewBox="0 0 32 32"
   enable-background="new 0 0 32 32"
   xml:space="preserve"><metadata
     id="metadata55"><rdf:RDF><cc:Work
         rdf:about=""><dc:format>image/svg+xml</dc:format><dc:type
           rdf:resource="http://purl.org/dc/dcmitype/StillImage" /><dc:title></dc:title></cc:Work></rdf:RDF></metadata><defs
     id="defs53"><linearGradient
       inkscape:collect="always"
       xlink:href="#linearGradient2187"
       id="linearGradient1321"
       gradientUnits="userSpaceOnUse"
       gradientTransform="matrix(0.868794,0,0,0.898591,0.329344,0.771127)"
       x1="22.5"
       y1="24.0625"
       x2="47.625"
       y2="42.8125" /><linearGradient
       id="linearGradient2187"><stop
         style="stop-color:#000000;stop-opacity:1;"
         offset="0"
         id="stop2189" /><stop
         style="stop-color:#000000;stop-opacity:0;"
         offset="1"
         id="stop2191" /></linearGradient><linearGradient
       inkscape:collect="always"
       xlink:href="#linearGradient2178"
       id="linearGradient1323"
       gradientUnits="userSpaceOnUse"
       gradientTransform="matrix(0.884091,0,0,0.90013,0.405682,0.789457)"
       x1="37.682518"
       y1="38.369419"
       x2="24.297237"
       y2="20.785847" /><linearGradient
       id="linearGradient2178"><stop
         style="stop-color:#17ac1e;stop-opacity:1;"
         offset="0"
         id="stop2180" /><stop
         id="stop2186"
         offset="0.16975892"
         style="stop-color:#18c15b;stop-opacity:0.99607843;" /><stop
         style="stop-color:#0ee71a;stop-opacity:0.99215686;"
         offset="0.61537606"
         id="stop2188" /><stop
         id="stop2190"
         offset="0.94612068"
         style="stop-color:#efeeec;stop-opacity:0.99215686;" /><stop
         style="stop-color:#fbfaf5;stop-opacity:0.99215686;"
         offset="1"
         id="stop2182" /></linearGradient></defs><sodipodi:namedview
     pagecolor="#ffffff"
     bordercolor="#666666"
     borderopacity="1"
     objecttolerance="10"
     gridtolerance="10"
     guidetolerance="10"
     inkscape:pageopacity="0"
     inkscape:pageshadow="2"
     inkscape:window-width="640"
     inkscape:window-height="480"
     id="namedview51"
     showgrid="false"
     inkscape:zoom="7.375"
     inkscape:cx="16"
     inkscape:cy="16"
     inkscape:window-x="0"
     inkscape:window-y="0"
     inkscape:window-maximized="0"
     inkscape:current-layer="svg3333" /><g
     id="g3"><path
       id="path3144"
       fill="#231F20"
       d="M28.73,30.505c0.238,0,0.474-0.084,0.659-0.24c0.23-0.194,0.364-0.482,0.364-0.784V2.52   c0-0.288-0.122-0.562-0.334-0.755c-0.19-0.173-0.436-0.268-0.689-0.268c-0.032,0-0.063,0.001-0.093,0.004L7.67,3.396   c-0.528,0.048-0.932,0.491-0.932,1.02v21.46c0,0.498,0.36,0.924,0.85,1.008l20.967,3.606C28.612,30.5,28.671,30.505,28.73,30.505   L28.73,30.505z" /><path
       id="path3897_3_"
       fill="#F9A620"
       d="M7.762,4.414v21.458l20.969,3.606V2.519L7.762,4.414z" /><linearGradient
       id="polygon3155_1_"
       gradientUnits="userSpaceOnUse"
       x1="1.834"
       y1="-104.792"
       x2="20.7549"
       y2="-104.792"
       gradientTransform="matrix(-1 0 0 -1 29.54 -88.8398)"><stop
         offset="0"
         style="stop-color:#A36628"
         id="stop8" /><stop
         offset="0.5394"
         style="stop-color:#F9A620"
         id="stop10" /><stop
         offset="1"
         style="stop-color:#FFF3DF"
         id="stop12" /></linearGradient><polygon
       id="polygon3155"
       fill="url(#polygon3155_1_)"
       points="8.785,25.008 27.706,28.266 27.706,3.639 8.785,5.348  " /><linearGradient
       id="path1710_1_"
       gradientUnits="userSpaceOnUse"
       x1="-7213.1011"
       y1="-11183.5801"
       x2="-7197.8354"
       y2="-11183.5801"
       gradientTransform="matrix(0.1243 0 0 -0.108 920.5632 -1191.826)"><stop
         offset="0"
         style="stop-color:#F3F4EE"
         id="stop16" /><stop
         offset="1"
         style="stop-color:#B1B3AE"
         id="stop18" /></linearGradient><path
       id="path1710_2_"
       fill="url(#path1710_1_)"
       d="M4.019,4.749v20.9L22.8,28.733l3.685-0.68V3.822L22.8,3.268L4.019,4.749z" /><path
       id="path3164"
       fill="#231F20"
       d="M22.741,32c0.232,0,0.463-0.08,0.646-0.229c0.239-0.194,0.377-0.486,0.377-0.794V1.023   c0-0.291-0.124-0.568-0.34-0.762C23.235,0.092,22.992,0,22.741,0c-0.037,0-0.073,0.002-0.109,0.006L3.161,2.112   C2.641,2.169,2.246,2.607,2.246,3.13v23.842c0,0.487,0.342,0.905,0.818,1.004l19.47,4.005C22.603,31.994,22.672,32,22.741,32   L22.741,32z" /><path
       id="path2443_3_"
       fill="#F9A620"
       d="M3.27,3.128v23.844l19.471,4.003V1.022L3.27,3.128z" /><linearGradient
       id="polygon3175_1_"
       gradientUnits="userSpaceOnUse"
       x1="7.8232"
       y1="-104.6543"
       x2="25.2461"
       y2="-104.6543"
       gradientTransform="matrix(-1 0 0 -1 29.54 -88.8398)"><stop
         offset="0"
         style="stop-color:#A36628"
         id="stop24" /><stop
         offset="0.5394"
         style="stop-color:#F9A620"
         id="stop26" /><stop
         offset="1"
         style="stop-color:#FFF3DF"
         id="stop28" /></linearGradient><polygon
       id="polygon3175"
       fill="url(#polygon3175_1_)"
       points="4.293,26.012 21.717,29.593 21.717,2.036 4.293,3.921  " /><linearGradient
       id="path7549_1_"
       gradientUnits="userSpaceOnUse"
       x1="-8041.3652"
       y1="-10582.4658"
       x2="-8044.541"
       y2="-10757.7705"
       gradientTransform="matrix(0.1119 0 0 -0.1119 912.8628 -1191.459)"><stop
         offset="0"
         style="stop-color:#FFFFFF;stop-opacity:0.624"
         id="stop32" /><stop
         offset="1"
         style="stop-color:#FFFFFF;stop-opacity:0"
         id="stop34" /></linearGradient><path
       id="path7549_2_"
       fill="url(#path7549_1_)"
       d="M4.202,4.347v13.272c5.208-10.022,12.487-5.688,16.969,1.897V2.364L4.202,4.347   z" /><radialGradient
       id="path3736_1_"
       cx="-5701.0791"
       cy="-6314.709"
       r="62.6706"
       gradientTransform="matrix(0.1648 0 0 -0.1902 948.4641 -1192.7985)"
       gradientUnits="userSpaceOnUse"><stop
         offset="0"
         style="stop-color:#FFFFFF;stop-opacity:0.3519"
         id="stop38" /><stop
         offset="1"
         style="stop-color:#FFFFFF;stop-opacity:0"
         id="stop40" /></radialGradient><path
       id="path3736_2_"
       fill="url(#path3736_1_)"
       d="M4.019,3.667v21.457l17.974,3.605V1.771L4.019,3.667z" /><path
       id="path3191"
       fill="#231F20"
       d="M7.124,15.647c0.291,0,0.575-0.125,0.772-0.351l1.625-1.865l1.799,0.979   c0.153,0.084,0.321,0.124,0.49,0.124c0.204,0,0.408-0.061,0.582-0.18c0.318-0.221,0.485-0.6,0.432-0.981   c-0.17-1.234-0.589-4.683-0.499-5.833c0.069-0.843,0.852-3.631,1.33-5.189c0.101-0.325,0.031-0.678-0.183-0.941   c-0.194-0.243-0.489-0.382-0.796-0.382c-0.028,0-0.058,0.001-0.085,0.003L8.265,1.393c-0.39,0.034-0.728,0.285-0.87,0.651   c-0.252,0.652-1.52,3.966-1.647,5.161C5.544,9.096,6.083,14.5,6.106,14.729c0.041,0.406,0.319,0.75,0.707,0.874   C6.916,15.632,7.021,15.647,7.124,15.647L7.124,15.647z" /><path
       id="path3193"
       fill="#EA2A29"
       d="M6.641,7.271c-0.199,1.882,0.378,7.614,0.378,7.614l2.249-2.585l2.627,1.427   c0,0-0.652-4.727-0.526-6.304c0.104-1.323,1.427-5.631,1.427-5.631L8.294,2.168C8.296,2.167,6.765,6.101,6.641,7.271z" /><linearGradient
       id="path3202_1_"
       gradientUnits="userSpaceOnUse"
       x1="17.834"
       y1="-96.5054"
       x2="22.2334"
       y2="-96.5054"
       gradientTransform="matrix(-1 0 0 -1 29.54 -88.8398)"><stop
         offset="0"
         style="stop-color:#F5969A"
         id="stop46" /><stop
         offset="1"
         style="stop-color:#901A1E"
         id="stop48" /></linearGradient><path
       id="path3202"
       fill="url(#path3202_1_)"
       d="M8.992,11.41l1.861,1.011c-0.198-1.708-0.426-4.042-0.334-5.175   c0.082-1.039,0.732-3.413,1.186-4.979L8.875,2.504C8.25,4.166,7.427,6.526,7.347,7.269c-0.116,1.101,0.039,3.704,0.205,5.795   L8.992,11.41z" /></g><g
     id="check"
     transform="matrix(0.29360325,0,0,0.26575953,4.5933934,10.97282)"
     inkscape:label="#g1317"><path
       sodipodi:nodetypes="cccccc"
       id="path1312"
       d="M 21.375,53.017958 23.573581,58.625 c 5.190348,-14.610601 9.38918,-23.246547 27.85727,-32.178521 L 54.5,10.25 47.016844,14.117958 27.696365,32.446479"
       style="fill:url(#linearGradient1321);fill-opacity:1;fill-rule:evenodd;stroke:none;stroke-width:1px;stroke-linecap:butt;stroke-linejoin:miter;stroke-opacity:1"
       inkscape:connector-curvature="0" /><path
       sodipodi:nodetypes="ccccccc"
       id="path1304"
       d="M 0.3170455,33.382219 12.061932,27.831144 c 4.564153,1.3704 7.386198,4.488163 9.038352,9.089015 C 31.429343,19.191291 35.161809,15.377551 52.307955,3.2030482 L 48.394602,20.705655 C 38.342028,25.651822 25.973458,37.198988 20.344886,55.171952 17.51126,44.089424 10.387703,37.272076 0.3170455,33.382219 Z"
       style="fill:url(#linearGradient1323);fill-opacity:1;fill-rule:evenodd;stroke:#000000;stroke-width:0.89207458px;stroke-linecap:butt;stroke-linejoin:miter;stroke-opacity:1"
       inkscape:connector-curvature="0" /></g></svg>