<?xml version="1.0" encoding="UTF-8" standalone="no"?>
<!-- Generator: Adobe Illustrator 14.0.0, SVG Export Plug-In . SVG Version: 6.00 Build 43363)  -->

<svg
   xmlns:dc="http://purl.org/dc/elements/1.1/"
   xmlns:cc="http://creativecommons.org/ns#"
   xmlns:rdf="http://www.w3.org/1999/02/22-rdf-syntax-ns#"
   xmlns:svg="http://www.w3.org/2000/svg"
   xmlns="http://www.w3.org/2000/svg"
   xmlns:sodipodi="http://sodipodi.sourceforge.net/DTD/sodipodi-0.dtd"
   xmlns:inkscape="http://www.inkscape.org/namespaces/inkscape"
   version="1.1"
   id="Layer_1"
   x="0px"
   y="0px"
   width="32px"
   height="32px"
   viewBox="0 0 32 32"
   enable-background="new 0 0 32 32"
   xml:space="preserve"
   inkscape:version="0.91 r13725"
   sodipodi:docname="serch.svg"><metadata
     id="metadata42"><rdf:RDF><cc:Work
         rdf:about=""><dc:format>image/svg+xml</dc:format><dc:type
           rdf:resource="http://purl.org/dc/dcmitype/StillImage" /></cc:Work></rdf:RDF></metadata><defs
     id="defs40"><linearGradient
       id="SVGID_1_"
       gradientUnits="userSpaceOnUse"
       x1="4.8085999"
       y1="-104.4805"
       x2="22.8438"
       y2="-104.4805"
       gradientTransform="matrix(1,0,0,-1,2.46,-88.8398)"><stop
         offset="0"
         style="stop-color:#F59699"
         id="stop14-2" /><stop
         offset="1"
         style="stop-color:#8F1A1D"
         id="stop16-7" /></linearGradient></defs><sodipodi:namedview
     pagecolor="#ffffff"
     bordercolor="#666666"
     borderopacity="1"
     objecttolerance="10"
     gridtolerance="10"
     guidetolerance="10"
     inkscape:pageopacity="0"
     inkscape:pageshadow="2"
     inkscape:window-width="640"
     inkscape:window-height="480"
     id="namedview38"
     showgrid="false"
     inkscape:zoom="7.375"
     inkscape:cx="16"
     inkscape:cy="16"
     inkscape:window-x="530"
     inkscape:window-y="23"
     inkscape:window-maximized="0"
     inkscape:current-layer="Layer_1" /><g
     id="g3"><path
       id="path4948"
       fill="#020202"
       d="M18.166,21.354c-0.313,0.315-0.771,0.442-1.202,0.346c-0.437-0.096-0.787-0.412-0.938-0.829   l-1.183-3.358c-0.168-0.472-0.046-0.995,0.304-1.345l0.916-0.915c0.348-0.347,0.861-0.468,1.329-0.311l3.403,1.138   c0.426,0.143,0.748,0.496,0.851,0.933c0.101,0.436-0.027,0.895-0.346,1.212L18.166,21.354L18.166,21.354z" /><path
       id="path4951"
       fill="#020202"
       d="M27.406,30.62c-0.508,0.507-1.324,0.506-1.832,0l-8.71-8.711   c-0.244-0.244-0.382-0.571-0.379-0.915c0.002-0.343,0.134-0.671,0.379-0.916l3.216-3.211c0.507-0.507,1.325-0.506,1.831,0   l8.708,8.708c0.245,0.245,0.384,0.572,0.38,0.915c0,0.344-0.135,0.671-0.38,0.915L27.406,30.62z" /><linearGradient
       id="rect3806_1_"
       gradientUnits="userSpaceOnUse"
       x1="226.0977"
       y1="-2175.9541"
       x2="230.5313"
       y2="-2175.9541"
       gradientTransform="matrix(0.7071 -0.7071 -0.7071 -0.7071 -1682.3701 -1359.4808)"><stop
         offset="0"
         style="stop-color:#59CAEE"
         id="stop8" /><stop
         offset="1"
         style="stop-color:#097A94"
         id="stop10" /></linearGradient><path
       id="rect3806_3_"
       fill="url(#rect3806_1_)"
       d="M16.091,17.053l0.913-0.917l3.405,1.143l-3.135,3.135L16.091,17.053   L16.091,17.053z" /><linearGradient
       id="rect3809_1_"
       gradientUnits="userSpaceOnUse"
       x1="230.6475"
       y1="-2184.6362"
       x2="225.4715"
       y2="-2184.6362"
       gradientTransform="matrix(0.7071 -0.7071 -0.7071 -0.7071 -1682.4741 -1359.5863)"><stop
         offset="0"
         style="stop-color:#A56629"
         id="stop14" /><stop
         offset="0.5"
         style="stop-color:#FAA820"
         id="stop16" /><stop
         offset="1"
         style="stop-color:#FFF3E0"
         id="stop18" /></linearGradient><polygon
       id="rect3809_3_"
       fill="url(#rect3809_1_)"
       points="17.806,20.97 21.019,17.754 29.729,26.465 26.514,29.678  " /><rect
       id="rect4968"
       x="22.789"
       y="18.851"
       transform="matrix(-0.7066 0.7076 -0.7076 -0.7066 57.3461 23.6574)"
       fill="#FAA820"
       width="1.96"
       height="9.732" /><path
       id="path4971"
       fill="#020202"
       d="M18.435,18.431c-1.927,1.928-4.493,2.991-7.223,2.991c-5.63,0.001-10.213-4.582-10.211-10.21   c0-2.728,1.061-5.294,2.988-7.223C5.917,2.063,8.481,0.998,11.211,1c5.629,0.006,10.211,4.586,10.212,10.211   C21.423,13.94,20.359,16.505,18.435,18.431L18.435,18.431z" /><path
       id="path3707_6_"
       fill="#03ADDB"
       d="M20.135,11.208c0.001,4.92-3.995,8.917-8.914,8.916c-4.924-0.001-8.919-3.996-8.918-8.915   c-0.002-4.921,3.994-8.917,8.917-8.917C16.14,2.293,20.132,6.285,20.135,11.208z" /><linearGradient
       id="path4980_1_"
       gradientUnits="userSpaceOnUse"
       x1="583.3418"
       y1="-881.6533"
       x2="598.5752"
       y2="-881.6533"
       gradientTransform="matrix(0.7071 -0.7071 -0.7071 -0.7071 -1030.0586 -194.3656)"><stop
         offset="0"
         style="stop-color:#B2D3DC"
         id="stop25" /><stop
         offset="1"
         style="stop-color:#117C9F"
         id="stop27" /></linearGradient><path
       id="path4980"
       fill="url(#path4980_1_)"
       d="M16.627,16.577c-1.437,1.438-3.354,2.23-5.392,2.232   c-4.202-0.003-7.623-3.419-7.623-7.619c0.003-2.037,0.794-3.955,2.231-5.392c1.441-1.441,3.355-2.236,5.392-2.231   c4.203,0.002,7.62,3.42,7.621,7.622C18.859,13.222,18.068,15.136,16.627,16.577L16.627,16.577z" /><radialGradient
       id="path3747_1_"
       cx="1416.7021"
       cy="-38.5903"
       r="7.8262"
       gradientTransform="matrix(1.0901 0.4253 0.5098 -1.3173 -1517.3539 -646.4901)"
       gradientUnits="userSpaceOnUse"><stop
         offset="0"
         style="stop-color:#FFFFFF"
         id="stop31" /><stop
         offset="0.4706"
         style="stop-color:#FFFFFF;stop-opacity:0.7866"
         id="stop33" /><stop
         offset="1"
         style="stop-color:#FFFFFF;stop-opacity:0"
         id="stop35" /></radialGradient><path
       id="path3747_3_"
       fill="url(#path3747_1_)"
       d="M10.719,3.594C8.29,3.763,5.968,5.134,4.65,7.431   c-1.664,2.895-1.247,6.357,0.788,8.748c1.395-1.051,3.214-2.696,5.478-6.966c1.196-2.257,2.314-3.874,3.348-4.988   C13.11,3.722,11.907,3.513,10.719,3.594z" /></g><g
     transform="matrix(0.80617793,0,0,0.74756461,-3.7064915,11.970988)"
     id="g7"><path
       style="fill:#020202"
       inkscape:connector-curvature="0"
       d="m 27.808,10.421 c 0.002,-10e-4 0.017,-0.017 0.021,-0.022 0.003,-0.003 -0.021,-0.021 -0.021,-0.021 l 0,-0.043 0,-0.045 c 0,0 0.021,-0.021 0.022,-0.021 -0.005,-0.009 -0.021,-0.02 -0.022,-0.021 -0.002,-0.012 -0.021,-0.022 -0.021,-0.022 l 0.021,-0.022 c 0,-0.013 -0.022,-0.021 -0.021,-0.021 0.002,-10e-4 0,-0.044 0,-0.044 0.003,-0.003 0.001,-0.043 0.001,-0.043 0,0 -0.019,-0.013 -0.022,-0.022 -0.003,-0.009 -0.021,-0.022 -0.021,-0.021 -0.007,-0.015 0,-0.044 0,-0.044 0,0 0.008,-0.025 0,-0.045 -0.01,-0.012 -0.021,-0.016 -0.022,-0.021 -0.004,-0.009 0.022,-0.021 0.022,-0.021 0,0 -0.017,-0.006 -0.022,-0.022 C 27.718,9.88 27.7,9.832 27.701,9.83 c 0,0 -0.019,-0.012 -0.022,-0.021 C 27.675,9.8 27.681,9.772 27.681,9.766 27.669,9.756 27.662,9.748 27.659,9.745 27.654,9.736 27.638,9.723 27.638,9.723 27.634,9.712 27.616,9.701 27.616,9.701 L 27.638,9.68 C 27.632,9.672 27.621,9.67 27.616,9.659 c 0,0 -0.019,-0.013 -0.021,-0.022 C 27.586,9.63 27.577,9.62 27.574,9.616 c -0.008,-0.014 0,-0.045 0,-0.045 -0.001,0 -0.02,-0.019 -0.021,-0.021 -0.008,-0.009 -0.018,-0.019 -0.021,-0.022 0,0 -0.033,-0.033 -0.044,-0.044 C 27.481,9.477 27.469,9.466 27.466,9.462 27.437,9.433 27.456,9.452 27.445,9.441 L 22.495,4.492 C 22.481,4.479 22.504,4.5 22.474,4.471 22.466,4.463 22.456,4.453 22.453,4.45 22.443,4.439 22.41,4.406 22.409,4.404 22.4,4.397 22.392,4.387 22.388,4.383 L 22.366,4.361 22.344,4.383 c 0,0 -0.017,-0.018 -0.021,-0.021 -0.007,-0.007 -0.017,-0.016 -0.021,-0.021 0,0 -0.012,-0.016 -0.022,-0.022 -0.009,-0.005 -0.021,-0.022 -0.021,-0.022 -0.013,-0.002 -0.022,0.022 -0.022,0.022 0,0 -0.015,-0.021 -0.022,-0.022 0,0 -0.015,-0.018 -0.021,-0.021 0,0.001 -0.065,-0.021 -0.065,-0.021 C 22.119,4.251 22.108,4.234 22.108,4.234 22.106,4.235 22.039,4.204 22.014,4.192 l -0.019,0.02 c 0,0 -0.017,-0.02 -0.021,-0.021 0,0 -0.031,0.003 -0.045,0 0,0 -0.015,-0.02 -0.021,-0.021 -0.01,0.008 -0.016,0.015 -0.021,0.021 C 21.875,4.189 21.869,4.17 21.866,4.17 L 21.83,4.139 c 0,0 -0.017,-0.021 -0.022,-0.022 C 21.797,4.115 21.787,4.138 21.787,4.139 21.774,4.135 21.77,4.118 21.766,4.118 21.762,4.122 21.744,4.14 21.744,4.14 21.743,4.141 21.723,4.119 21.723,4.118 21.721,4.119 21.701,4.14 21.701,4.14 c 0,0 -0.013,-0.021 -0.021,-0.021 C 21.678,4.12 21.664,4.099 21.658,4.098 21.653,4.09 21.634,4.11 21.634,4.11 l -0.045,0 -0.045,0 c 0,0 -0.018,-0.022 -0.021,-0.021 C 21.517,4.094 21.502,4.11 21.502,4.11 21.495,4.117 21.485,4.127 21.481,4.132 21.479,4.134 21.461,4.11 21.46,4.11 21.457,4.113 21.44,4.131 21.439,4.132 21.441,4.133 21.423,4.111 21.418,4.111 21.405,4.109 21.397,4.133 21.397,4.133 c -0.004,0.004 -0.045,0 -0.045,0 0,0 -0.015,0.015 -0.021,0.022 -0.002,0 -0.019,0.018 -0.022,0.021 0,10e-4 -0.016,-0.021 -0.021,-0.021 -0.003,0.002 -0.011,0.025 -0.021,0.022 -0.004,0.003 -0.035,-10e-4 -0.045,0 0,0 -0.009,0.022 -0.021,0.022 -0.014,0 -0.032,-0.023 -0.032,-0.023 -0.002,0 -0.006,0.02 -0.022,0.021 -0.004,0.006 -0.037,-0.002 -0.043,0 0,0 -0.015,0.015 -0.021,0.022 C 21.074,4.227 21.065,4.236 21.062,4.241 21.058,4.243 21.043,4.218 21.04,4.219 21.037,4.221 21.021,4.238 21.018,4.241 21,4.256 20.993,4.263 20.99,4.267 c 0,0 -0.017,0.017 -0.022,0.022 -0.005,0.004 -0.021,0.021 -0.021,0.021 0,0 -0.015,-0.023 -0.022,-0.021 0.002,0 -0.015,0.018 -0.021,0.021 l -0.089,0.045 c -0.002,10e-4 -0.034,0.035 -0.045,0.044 0,0 -0.024,0.026 -0.021,0.022 -0.002,10e-4 -0.013,0.013 -0.022,0.021 -0.008,0.008 -0.016,0.016 -0.021,0.022 L 20.684,4.486 16.286,8.881 11.891,4.486 11.869,4.464 C 11.863,4.455 11.856,4.449 11.848,4.442 11.837,4.433 11.827,4.421 11.826,4.421 11.83,4.425 11.805,4.399 11.805,4.399 11.794,4.389 11.762,4.356 11.76,4.355 L 11.672,4.31 C 11.664,4.306 11.649,4.289 11.651,4.289 11.641,4.287 11.629,4.31 11.629,4.31 c 0,0 -0.017,-0.018 -0.021,-0.021 C 11.602,4.283 11.586,4.267 11.586,4.267 11.582,4.263 11.575,4.256 11.564,4.245 11.556,4.241 11.541,4.224 11.54,4.223 11.535,4.222 11.519,4.247 11.518,4.245 11.512,4.239 11.504,4.23 11.497,4.223 11.49,4.216 11.476,4.201 11.476,4.201 11.47,4.199 11.437,4.207 11.433,4.201 11.415,4.199 11.412,4.18 11.411,4.18 c 0,0 -0.009,0.021 -0.022,0.021 -0.013,0 -0.021,-0.021 -0.021,-0.021 -0.011,-10e-4 -0.042,0.003 -0.045,0 C 11.312,4.183 11.304,4.16 11.302,4.159 11.295,4.159 11.281,4.18 11.281,4.18 11.277,4.176 11.26,4.159 11.26,4.158 11.252,4.151 11.239,4.137 11.239,4.137 c 0,0 -0.04,0.004 -0.045,0 0,0 -0.01,-0.024 -0.021,-0.022 -0.007,0 -0.023,0.022 -0.021,0.021 -0.002,-0.003 -0.02,-0.021 -0.021,-0.022 -0.003,0 -0.02,0.025 -0.021,0.022 C 11.104,4.129 11.094,4.119 11.089,4.114 11.088,4.113 11.071,4.097 11.068,4.093 11.064,4.091 11.047,4.114 11.047,4.114 l -0.045,0 -0.044,0 c 0,0 -0.021,-0.021 -0.021,-0.021 -0.008,0.002 -0.021,0.022 -0.022,0.021 -0.011,0.001 -0.021,0.021 -0.021,0.021 0,0 -0.021,-0.021 -0.022,-0.022 -0.002,0.002 -0.021,0.023 -0.021,0.022 0,0 -0.021,-0.02 -0.022,-0.022 -0.007,0 -0.011,0.019 -0.021,0.021 C 10.8,4.129 10.79,4.104 10.78,4.107 10.762,4.109 10.746,4.13 10.746,4.13 l -0.022,0.021 c -0.004,0 -0.011,0.021 -0.021,0.022 C 10.696,4.166 10.688,4.158 10.681,4.151 10.673,4.153 10.66,4.173 10.66,4.173 c -0.014,0.003 -0.044,0 -0.044,0 -0.005,0.003 -0.021,0.021 -0.021,0.021 l -0.02,-0.019 c -0.023,0.012 -0.092,0.043 -0.094,0.042 0,0 -0.01,0.017 -0.021,0.021 0,-0.002 -0.065,0.021 -0.065,0.021 -0.008,0.005 -0.021,0.022 -0.021,0.022 -0.009,0.002 -0.021,0.021 -0.021,0.021 0,0 -0.012,-0.025 -0.022,-0.021 0,0 -0.015,0.017 -0.021,0.021 -0.012,0.006 -0.022,0.021 -0.022,0.021 -0.009,0.008 -0.019,0.017 -0.024,0.023 -0.006,0.005 -0.022,0.021 -0.022,0.021 L 10.218,4.35 10.196,4.371 C 10.191,4.377 10.183,4.387 10.175,4.392 10.173,4.394 10.14,4.427 10.13,4.437 10.125,4.442 10.115,4.453 10.107,4.458 10.078,4.489 10.099,4.469 10.086,4.48 L 5.136,9.43 C 5.124,9.442 5.144,9.423 5.114,9.453 5.11,9.457 5.099,9.469 5.093,9.476 5.081,9.486 5.048,9.52 5.048,9.52 5.043,9.524 5.033,9.535 5.024,9.541 5.022,9.545 5.004,9.562 5.003,9.562 c 0,0 0.009,0.031 0,0.044 C 4.999,9.613 4.99,9.621 4.981,9.629 4.978,9.639 4.961,9.65 4.961,9.65 4.954,9.662 4.944,9.664 4.938,9.673 L 4.96,9.695 c 0,0 -0.019,0.012 -0.022,0.021 0,0 -0.016,0.014 -0.021,0.021 C 4.913,9.742 4.906,9.75 4.896,9.761 4.896,9.768 4.902,9.795 4.898,9.804 4.892,9.814 4.875,9.826 4.875,9.826 4.876,9.828 4.858,9.875 4.854,9.89 4.849,9.908 4.832,9.912 4.832,9.912 c 0,0 0.026,0.014 0.022,0.022 -0.003,0.006 -0.013,0.011 -0.022,0.023 -0.008,0.019 0,0.043 0,0.043 0,0 0.007,0.031 0,0.045 0.002,-0.002 -0.017,0.012 -0.021,0.021 -0.006,0.013 -0.025,0.025 -0.025,0.025 0,0 -0.002,0.041 0.001,0.043 0,0 -0.002,0.043 0,0.044 0.001,10e-4 -0.021,0.01 -0.022,0.021 l 0.022,0.022 c 0,0 -0.021,0.011 -0.022,0.022 0,0.002 -0.018,0.013 -0.021,0.021 0.002,0.001 0.021,0.021 0.021,0.021 0,0 0.002,0.043 0,0.045 l 0.002,0.043 c 0,0 -0.025,0.02 -0.022,0.021 0.006,0.005 0.021,0.021 0.022,0.021 -0.004,0.012 0.024,0.011 0.021,0.022 0,0 0,0.042 10e-4,0.043 -10e-4,0.007 0,0.044 0,0.044 0.001,0.008 0,0.045 0,0.045 0,0 0.016,0.014 0.021,0.021 0.002,10e-4 0.019,0.018 0.021,0.021 0.002,0.008 -0.02,0.014 -0.021,0.025 0.006,0.005 0.021,0.021 0.021,0.021 0,0 -0.007,0.023 0,0.045 0.003,0.017 0.021,0.021 0.021,0.021 0.004,0.01 -0.021,0.021 -0.021,0.021 0.003,0.004 0.021,0.063 0.023,0.066 0.007,0.01 0.015,0.016 0.021,0.022 0,0 0.017,0.015 0.022,0.021 0,0 0.022,0.068 0.021,0.066 0.002,0.003 0.025,0.01 0.021,0.022 0.007,0.01 -0.004,0.039 0,0.043 0,0.015 0.045,0.043 0.045,0.043 0,0 0.017,0.018 0.021,0.022 0.012,0.021 0,0.044 0,0.044 0.002,10e-4 0.021,0.02 0.021,0.021 0.006,0.006 0.017,0.018 0.021,0.022 0.002,0.001 0.012,0.011 0.022,0.022 0.012,0.013 0.012,0.013 0.021,0.021 0.03,0.031 0.023,0.024 0.022,0.021 0,0 0.006,0.006 0.022,0.022 l 4.395,4.396 -4.387,4.393 C 5.117,20.038 5.116,20.036 5.121,20.032 5.11,20.044 5.094,20.061 5.1,20.054 5.077,20.076 5.088,20.067 5.079,20.075 5.07,20.099 5.06,20.108 5.06,20.108 c 0,0 -0.014,0.015 -0.023,0.024 -0.012,0.011 0,-0.002 -0.021,0.021 -0.002,0.002 -0.022,0.021 -0.022,0.021 -0.017,0.013 -0.032,0.027 -0.044,0.044 l 0.002,0.002 -0.001,0.043 c -0.003,0.003 -0.017,0.019 -0.022,0.022 -0.002,0.004 -0.015,0.015 -0.021,0.021 -0.007,0.006 -0.022,0.066 -0.022,0.066 0,0 -0.02,0.019 -0.021,0.021 -0.006,0.006 -0.021,0.021 -0.021,0.021 0,0 0.024,0.021 0.021,0.022 -0.008,0.007 -0.014,0.015 -0.021,0.022 -0.01,0.01 -0.021,0.021 -0.021,0.021 -0.004,0.004 0.023,0.019 0.021,0.022 -0.007,0.007 -0.021,0.021 -0.021,0.021 -0.006,0.006 -0.021,0.021 -0.021,0.021 0,0 0.01,0.023 0,0.045 -0.005,0.018 -0.021,0.021 -0.021,0.021 0.006,0.008 0.013,0.016 0.021,0.021 -0.01,0.007 -0.017,0.015 -0.021,0.021 0,0 -0.02,0.02 -0.022,0.021 -0.004,0.004 0.021,0.02 0.021,0.021 -0.004,0.004 -0.02,0.02 -0.021,0.021 -0.003,0.004 0.021,0.021 0.021,0.022 -0.004,0.004 -0.02,0.02 -0.021,0.021 -0.003,0.002 0.022,0.02 0.021,0.021 -0.004,0.004 -0.018,0.02 -0.021,0.021 -0.002,0.002 -0.001,0.035 0,0.045 -0.003,0.002 0.021,0.021 0.021,0.021 -0.002,0.051 -0.023,0.013 -0.021,0.022 10e-4,0.013 0.021,0.052 0.021,0.022 -0.002,0.021 -0.022,0.01 -0.021,0.021 -0.003,0.003 0.021,0.021 0.021,0.022 0,0 -0.022,-0.006 -0.021,0.021 -0.002,0.018 -0.002,0.043 0,0.043 10e-4,0.014 -0.002,0.043 -0.001,0.044 0.008,0.009 0.014,0.017 0.021,0.022 -0.002,0.002 -0.02,0.02 -0.021,0.021 -0.003,0.005 0.021,0.017 0.021,0.021 -0.002,0.002 -0.026,0.013 -0.022,0.022 0.005,0.012 0.022,0.021 0.022,0.021 -0.004,0.002 0,0.044 0,0.044 0.004,0.013 0.021,0.022 0.021,0.022 -0.002,0 -0.021,0.02 -0.021,0.021 0.003,0.012 0.021,0.022 0.021,0.022 0,0 0.016,0.015 0.021,0.021 -0.002,10e-4 0.018,0.008 0.021,0.021 0.005,0.01 -0.028,0.006 -0.021,0.021 0,0 0.014,0.009 0.021,0.021 0.011,0.021 0,0.045 0,0.045 0,0 0.017,0.018 0.021,0.021 0.004,0.01 0.022,0.021 0.022,0.021 0.004,0.01 -0.003,0.037 0,0.045 -0.003,0 0.016,0.014 0.021,0.021 0,0 0.021,0.021 0.022,0.022 0,0 -0.008,0.037 -0.002,0.044 0,0 0.018,0.017 0.022,0.021 0.006,0.008 0.021,0.021 0.021,0.021 0.006,0.009 0.021,0.021 0.022,0.021 0.007,0.015 0,0.046 0,0.046 0,0 0.019,0.018 0.021,0.021 0.008,0.008 0.021,0.021 0.022,0.022 0.009,0.008 0.017,0.017 0.021,0.021 0.012,0.01 0.021,0.02 0.021,0.021 0.027,0.031 0.018,0.018 0.021,0.021 0.01,0.01 -0.013,-0.011 0.021,0.021 l 4.949,4.95 c 0.012,0.013 -0.008,-0.006 0.021,0.022 0.008,0.006 0.018,0.017 0.022,0.021 0.011,0.013 0.043,0.043 0.044,0.046 0.007,0.006 0.017,0.016 0.021,0.021 l 0.021,0.021 c 0,0 0.031,-0.008 0.045,0 0.007,0.008 0.021,0.021 0.021,0.021 0,0 0.016,0.016 0.021,0.021 0.019,0.01 0.045,0 0.045,0 0,0 0.013,0.021 0.021,0.021 0,0 0.015,0.014 0.022,0.021 0.007,0.006 0.011,0.014 0.021,0.021 0.011,0.004 0.037,-0.002 0.045,0 0.011,0.004 0.017,0.021 0.021,0.021 0,0 0.051,0.018 0.064,0.021 0.018,0.006 0.021,0.021 0.021,0.021 0,0 0.012,-0.022 0.021,-0.021 0.011,0.004 0.022,0.021 0.022,0.021 0,0 0.017,0.023 0.021,0.023 0.002,-0.002 0.02,-0.02 0.022,-0.023 0.01,0.006 0.018,0.024 0.021,0.023 0.011,0.002 0.02,-0.02 0.021,-0.023 0.01,0.004 0.016,0.023 0.021,0.021 0.011,0.006 0.022,0.023 0.022,0.023 0,0 0.037,-0.002 0.043,-0.002 0.002,-0.002 0.018,0.022 0.021,0.021 0.01,0.005 0.021,-0.021 0.021,-0.021 l 0.045,0 c 0.01,0.004 0.012,0.021 0.021,0.021 0.002,-10e-4 0.013,0.021 0.022,0.021 0,-0.002 0.021,-0.021 0.021,-0.021 l 0.044,0 0.048,0.011 c 0,0 0.019,0.022 0.022,0.022 0.004,-0.004 0.02,-0.02 0.021,-0.022 0.021,0 0.042,10e-4 0.043,0 0.002,-0.002 0.021,-0.021 0.022,-0.022 10e-4,0.002 0.018,0.022 0.022,0.022 0.01,0.002 0.021,-0.021 0.021,-0.022 0.003,-0.002 0.043,0.002 0.044,0 0,0 0.016,-0.015 0.021,-0.021 0.008,-0.006 0.008,-0.02 0.022,-0.021 0.014,0 0.044,0 0.044,0 0,0 0.023,0.01 0.044,0 0.017,-0.003 0.022,-0.021 0.022,-0.021 0.012,0 0.021,0.021 0.021,0.021 0.003,-0.003 0.063,-0.021 0.065,-0.022 0.008,-0.007 0.015,-0.013 0.021,-0.021 0.002,-0.003 0.021,-0.021 0.021,-0.021 0.005,-0.006 0.037,0.003 0.045,0 0.007,-0.008 0.021,-0.023 0.021,-0.023 0.008,-0.006 0.02,-0.019 0.021,-0.021 0.007,-0.007 0.039,0.004 0.044,0 0.015,0 0.044,-0.046 0.044,-0.046 0,0 0.016,-0.016 0.021,-0.021 0.022,-0.008 0.045,0 0.045,0 0,0 0.018,-0.019 0.021,-0.022 0.005,-0.006 0.018,-0.017 0.021,-0.021 0.012,-0.011 0.021,-0.021 0.021,-0.021 0.012,-0.012 0.014,-0.013 0.021,-0.021 0.01,-0.01 0.025,-0.025 0.021,-0.021 0,0 0.004,-0.004 0.021,-0.021 l 4.436,-4.389 4.413,4.414 c 0.019,0.018 0.022,0.021 0.022,0.021 -0.004,-0.004 0.013,0.013 0.021,0.022 0.01,0.01 0.012,0.011 0.022,0.021 0,10e-4 0.01,0.012 0.021,0.021 0.005,0.006 0.018,0.017 0.021,0.021 0.004,0.004 0.021,0.022 0.021,0.022 0,0 0.021,-0.009 0.044,0 0.007,0.006 0.022,0.021 0.022,0.021 0,0 0.029,0.045 0.043,0.045 0.005,0.004 0.037,-0.007 0.045,0 0.002,0.004 0.015,0.017 0.021,0.021 0,0 0.017,0.016 0.022,0.023 0.008,0.002 0.039,-0.006 0.044,0 0,0 0.021,0.02 0.022,0.021 0.008,0.009 0.014,0.017 0.021,0.021 0.004,0.002 0.063,0.021 0.065,0.023 0,0 0.01,-0.021 0.021,-0.021 0,0 0.006,0.02 0.021,0.021 0.021,0.01 0.045,0 0.045,0 0,0 0.029,0 0.043,0 0.017,0.002 0.017,0.016 0.022,0.021 0.007,0.008 0.022,0.021 0.022,0.021 0,0.001 0.041,-0.003 0.043,0 0.002,0.001 0.012,0.023 0.021,0.021 0.006,0 0.021,-0.021 0.021,-0.021 0.003,0.001 0.021,0.021 0.022,0.021 0.001,0.002 0.021,0 0.044,0 0.002,0.004 0.018,0.02 0.021,0.022 0.004,0.001 0.021,-0.022 0.021,-0.022 l 0.043,0.002 0.045,0 c 0,0 0.021,0.021 0.021,0.021 0.01,-0.002 0.021,-0.023 0.021,-0.021 0.01,-0.002 0.013,-0.019 0.021,-0.022 l 0.044,0 c 0.002,0.002 0.013,0.026 0.022,0.022 0.004,0 0.02,-0.024 0.021,-0.022 0.005,0 0.043,0.002 0.043,0.002 0,0 0.012,-0.019 0.021,-0.022 0.006,0.002 0.012,-0.019 0.021,-0.021 0.003,0.004 0.012,0.025 0.021,0.023 0.005,0 0.013,-0.02 0.021,-0.023 0.004,0.004 0.021,0.021 0.021,0.023 0.006,0 0.021,-0.023 0.021,-0.023 0,0 0.014,-0.018 0.021,-0.021 0.012,-0.002 0.023,0.021 0.023,0.021 0.002,0 0.004,-0.016 0.021,-0.021 0.016,-0.004 0.065,-0.021 0.065,-0.021 0.006,0 0.012,-0.019 0.021,-0.021 0.008,-0.002 0.033,0.004 0.044,0 0.011,-0.008 0.015,-0.017 0.021,-0.021 0.01,-0.009 0.022,-0.021 0.022,-0.021 0.009,-0.002 0.021,-0.022 0.021,-0.022 0,0 0.026,0.011 0.045,0 0.006,-0.006 0.021,-0.021 0.021,-0.021 0,0 0.016,-0.016 0.021,-0.021 0.014,-0.008 0.045,0 0.045,0 l 0.021,-0.021 c 0.007,-0.006 0.017,-0.016 0.022,-0.021 0,-0.002 0.033,-0.033 0.043,-0.045 0.006,-0.005 0.017,-0.017 0.022,-0.021 0.03,-0.029 0.011,-0.012 0.022,-0.022 l 4.949,-4.95 c 0.033,-0.031 0.013,-0.012 0.021,-0.021 0.005,-0.004 -0.005,0.012 0.022,-0.021 0,-0.002 0.011,-0.012 0.021,-0.021 0.005,-0.006 0.013,-0.015 0.021,-0.022 0.004,-0.003 0.017,-0.015 0.022,-0.022 0.004,-0.004 0.021,-0.021 0.021,-0.021 0,0 -0.006,-0.031 0,-0.045 0.002,-0.001 0.018,-0.013 0.022,-0.021 0.002,-0.002 0.017,-0.015 0.021,-0.021 0.006,-0.005 0.022,-0.021 0.022,-0.021 0.007,-0.007 -0.001,-0.043 -0.001,-0.043 0.003,-0.004 0.021,-0.022 0.021,-0.022 0.006,-0.009 0.023,-0.021 0.021,-0.021 0.002,-0.008 -0.004,-0.034 0,-0.045 0,0 0.02,-0.012 0.021,-0.021 0.006,-0.006 0.021,-0.021 0.021,-0.022 0,0 -0.011,-0.022 0,-0.044 0.008,-0.013 0.021,-0.021 0.021,-0.021 0.007,-0.015 -0.026,-0.012 -0.021,-0.021 0.004,-0.014 0.021,-0.021 0.021,-0.021 0.007,-0.008 0.021,-0.022 0.021,-0.022 0,0 0.021,-0.011 0.022,-0.022 -0.002,-0.002 -0.021,-0.021 -0.022,-0.021 0,0 0.019,-0.01 0.022,-0.022 0,0 0.003,-0.041 0,-0.043 0,0 0.019,-0.012 0.021,-0.022 0.004,-0.011 -0.021,-0.021 -0.021,-0.022 0,-0.006 0.023,-0.018 0.021,-0.021 -0.003,-0.002 -0.021,-0.021 -0.022,-0.021 0.01,-0.007 0.017,-0.015 0.022,-0.022 10e-4,-10e-4 -0.002,-0.03 -0.001,-0.044 0.002,0 0.002,-0.025 0,-0.043 0.002,-0.027 -0.021,-0.021 -0.021,-0.022 0.002,-0.001 0.025,-0.02 0.021,-0.022 0.002,-0.012 -0.02,0.002 -0.021,-0.021 0.002,0.028 0.021,-0.01 0.021,-0.022 0.004,-0.01 -0.02,0.027 -0.021,-0.021 0,-0.002 0.025,-0.02 0.021,-0.021 0.001,-0.01 0.002,-0.043 0,-0.045 -0.003,-0.002 -0.018,-0.018 -0.021,-0.021 -0.002,-0.002 0.023,-0.021 0.021,-0.021 -0.002,-0.004 -0.018,-0.019 -0.021,-0.022 0.002,-0.001 0.025,-0.019 0.021,-0.022 -0.002,-0.002 -0.018,-0.018 -0.021,-0.021 0,-0.003 0.025,-0.019 0.021,-0.021 -0.003,-0.004 -0.021,-0.021 -0.021,-0.021 -0.006,-0.008 -0.014,-0.016 -0.022,-0.021 0.011,-0.008 0.017,-0.016 0.022,-0.022 0,0 -0.018,-0.004 -0.022,-0.021 -0.009,-0.021 0,-0.045 0,-0.045 0,0 -0.017,-0.017 -0.021,-0.021 0,0 -0.016,-0.016 -0.022,-0.021 -0.001,-0.005 0.026,-0.02 0.022,-0.022 0,0 -0.014,-0.013 -0.022,-0.021 -0.008,-0.009 -0.015,-0.017 -0.021,-0.022 -0.004,-0.003 0.021,-0.022 0.021,-0.022 0,0 -0.017,-0.016 -0.021,-0.021 -0.004,-0.003 -0.022,-0.021 -0.022,-0.021 0,0 -0.017,-0.061 -0.022,-0.065 C 27.616,20.335 27.603,20.324 27.601,20.321 27.594,20.316 27.58,20.3 27.579,20.299 l 0,-0.043 0.002,-0.002 c -0.012,-0.016 -0.027,-0.03 -0.045,-0.043 0,0 -0.021,-0.021 -0.021,-0.022 -0.021,-0.022 -0.012,-0.011 -0.021,-0.021 -0.011,-0.011 -0.021,-0.022 -0.021,-0.022 0,0 -0.012,-0.011 -0.021,-0.022 -0.011,-0.01 0.002,0.002 -0.022,-0.021 0.006,0.006 -0.011,-0.013 -0.021,-0.022 0.004,0.004 0.004,0.006 -0.022,-0.021 l -4.392,-4.391 4.395,-4.396 c 0.018,-0.017 0.021,-0.022 0.021,-0.022 0,0.002 -0.008,0.008 0.022,-0.021 0.01,-0.01 0.01,-0.01 0.021,-0.021 0.013,-0.012 0.021,-0.021 0.022,-0.022 0.006,-0.005 0.017,-0.017 0.022,-0.022 0.002,-0.003 0.021,-0.021 0.021,-0.021 0,0 -0.012,-0.022 0,-0.044 0.006,-0.005 0.022,-0.022 0.022,-0.022 0,0 0.045,-0.029 0.043,-0.044 0.004,-0.004 -0.006,-0.034 0.002,-0.043 -0.004,-0.012 0.02,-0.019 0.021,-0.022 -10e-4,0.002 0.022,-0.065 0.022,-0.065 0.007,-0.007 0.021,-0.022 0.021,-0.022 0.008,-0.006 0.016,-0.013 0.021,-0.021 0.003,-0.003 0.021,-0.063 0.023,-0.066 0,0 -0.025,-0.012 -0.022,-0.021 0,0 0.02,-0.006 0.022,-0.021 0.006,-0.021 0,-0.045 0,-0.045 0,0 0.016,-0.017 0.021,-0.021 -0.001,-0.014 -0.022,-0.018 -0.021,-0.022 0.004,-0.004 0.021,-0.021 0.021,-0.022 0.007,-0.006 0.022,-0.021 0.022,-0.021 0,0 -0.002,-0.037 0,-0.044 0,0 0,-0.038 0,-0.044 0,-0.001 0,-0.043 0,-0.043 0.044,-0.059 0.073,-0.059 0.071,-0.07 z"
       id="path9" /><polygon
       style="fill:#ed2526"
       points="10.979,25.894 16.286,20.588 21.593,25.894 26.541,20.943 21.235,15.639 26.537,10.338 21.587,5.388 16.286,10.688 10.985,5.388 6.035,10.338 11.337,15.639 6.031,20.943 "
       id="polygon11" /><linearGradient
       id="linearGradient3425"
       gradientUnits="userSpaceOnUse"
       x1="4.8085999"
       y1="-104.4805"
       x2="22.8438"
       y2="-104.4805"
       gradientTransform="matrix(1,0,0,-1,2.46,-88.8398)"><stop
         offset="0"
         style="stop-color:#F59699"
         id="stop3427" /><stop
         offset="1"
         style="stop-color:#8F1A1D"
         id="stop3429" /></linearGradient><polygon
       style="fill:url(#SVGID_1_)"
       points="10.979,24.656 16.286,19.351 21.593,24.656 25.304,20.943 19.999,15.639 25.3,10.338 21.587,6.625 16.286,11.926 10.985,6.625 7.272,10.338 12.573,15.639 7.269,20.943 "
       id="polygon18" /></g></svg>