<?xml version="1.0" encoding="UTF-8" standalone="no"?>
<!-- Created with Inkscape (http://www.inkscape.org/) -->
<svg
   xmlns:dc="http://purl.org/dc/elements/1.1/"
   xmlns:cc="http://web.resource.org/cc/"
   xmlns:rdf="http://www.w3.org/1999/02/22-rdf-syntax-ns#"
   xmlns:svg="http://www.w3.org/2000/svg"
   xmlns="http://www.w3.org/2000/svg"
   xmlns:xlink="http://www.w3.org/1999/xlink"
   xmlns:sodipodi="http://sodipodi.sourceforge.net/DTD/sodipodi-0.dtd"
   xmlns:inkscape="http://www.inkscape.org/namespaces/inkscape"
   id="svg1161"
   sodipodi:version="0.32"
   inkscape:version="0.45.1"
   width="48"
   height="48"
   sodipodi:docname="add_svg.svg"
   sodipodi:docbase="C:\Radix\dev\trunk\org.radixware\kernel\designer\src\common.resources\src\org\radixware\kernel\designer\resources\icons\unused"
   version="1.0"
   inkscape:output_extension="org.inkscape.output.svg.inkscape">
  <defs
     id="defs1163">
    <linearGradient
       id="linearGradient2191">
      <stop
         style="stop-color:#00ff00;stop-opacity:1;"
         offset="0"
         id="stop3082" />
      <stop
         style="stop-color:#ffffff;stop-opacity:1;"
         offset="1"
         id="stop2195" />
    </linearGradient>
    <linearGradient
       inkscape:collect="always"
       xlink:href="#linearGradient2191"
       id="linearGradient1346"
       gradientUnits="userSpaceOnUse"
       x1="47.161366"
       y1="47.935448"
       x2="15.299191"
       y2="11.544352"
       gradientTransform="matrix(0.401061,-1.736944e-3,-2.235034e-5,0.353525,24.70934,-2.396463)" />
    <linearGradient
       id="linearGradient826">
      <stop
         style="stop-color:#000000;stop-opacity:0.95294118;"
         offset="0.00000000"
         id="stop827" />
      <stop
         style="stop-color:#000000;stop-opacity:0.76078433;"
         offset="0.36585677"
         id="stop830" />
      <stop
         style="stop-color:#000000;stop-opacity:0.52941179;"
         offset="0.47107276"
         id="stop847" />
      <stop
         style="stop-color:#ffffff;stop-opacity:0.00000000;"
         offset="1.0000000"
         id="stop828" />
    </linearGradient>
    <linearGradient
       id="linearGradient1323">
      <stop
         style="stop-color:#000000;stop-opacity:0.77685952;"
         offset="0.00000000"
         id="stop1324" />
      <stop
         style="stop-color:#000000;stop-opacity:0.00000000;"
         offset="1.0000000"
         id="stop1325" />
    </linearGradient>
    <linearGradient
       id="linearGradient1273">
      <stop
         style="stop-color:#ffffff;stop-opacity:1.0000000;"
         offset="0.00000000"
         id="stop1274" />
      <stop
         style="stop-color:#ffffff;stop-opacity:0.00000000;"
         offset="1.0000000"
         id="stop1275" />
    </linearGradient>
    <linearGradient
       id="linearGradient1222">
      <stop
         style="stop-color:#000000;stop-opacity:0.32231405;"
         offset="0.00000000"
         id="stop1223" />
      <stop
         style="stop-color:#000000;stop-opacity:0.00000000;"
         offset="1.0000000"
         id="stop1224" />
    </linearGradient>
    <linearGradient
       id="linearGradient1218">
      <stop
         style="stop-color:#000000;stop-opacity:1.0000000;"
         offset="0.00000000"
         id="stop1219" />
      <stop
         style="stop-color:#323232;stop-opacity:1.0000000;"
         offset="0.073255815"
         id="stop1321" />
      <stop
         style="stop-color:#000000;stop-opacity:1.0000000;"
         offset="0.65260679"
         id="stop1320" />
      <stop
         style="stop-color:#fff;stop-opacity:1;"
         offset="1"
         id="stop1220" />
    </linearGradient>
    <radialGradient
       inkscape:collect="always"
       xlink:href="#linearGradient826"
       id="radialGradient1372"
       cx="296.2963"
       cy="281.25"
       fx="303.7037"
       fy="93.75"
       r="248.40302"
       gradientUnits="userSpaceOnUse" />
    <radialGradient
       inkscape:collect="always"
       xlink:href="#linearGradient826"
       id="radialGradient1374"
       cx="296.2963"
       cy="281.25"
       fx="303.7037"
       fy="93.75"
       r="248.40302"
       gradientUnits="userSpaceOnUse" />
    <linearGradient
       inkscape:collect="always"
       xlink:href="#linearGradient1222"
       id="linearGradient1376"
       x1="27.318817"
       y1="170.27164"
       x2="130.70354"
       y2="28.120695"
       gradientTransform="scale(1.021116,0.97932)"
       gradientUnits="userSpaceOnUse" />
    <linearGradient
       inkscape:collect="always"
       xlink:href="#linearGradient1222"
       id="linearGradient1378"
       x1="33.34417"
       y1="164.17809"
       x2="131.82117"
       y2="28.775105"
       gradientTransform="scale(1.016208,0.98405)"
       gradientUnits="userSpaceOnUse" />
    <linearGradient
       inkscape:collect="always"
       xlink:href="#linearGradient1222"
       id="linearGradient1380"
       gradientUnits="userSpaceOnUse"
       gradientTransform="scale(1.021116,0.97932)"
       x1="27.318817"
       y1="170.27164"
       x2="130.70354"
       y2="28.120695" />
    <linearGradient
       inkscape:collect="always"
       xlink:href="#linearGradient1222"
       id="linearGradient1382"
       gradientUnits="userSpaceOnUse"
       gradientTransform="scale(1.021116,0.97932)"
       x1="27.318817"
       y1="170.27164"
       x2="130.70354"
       y2="28.120695" />
    <linearGradient
       inkscape:collect="always"
       xlink:href="#linearGradient1222"
       id="linearGradient1384"
       gradientUnits="userSpaceOnUse"
       gradientTransform="scale(1.021116,0.97932)"
       x1="27.318817"
       y1="170.27164"
       x2="130.70354"
       y2="28.120695" />
    <linearGradient
       inkscape:collect="always"
       xlink:href="#linearGradient1222"
       id="linearGradient1386"
       gradientUnits="userSpaceOnUse"
       gradientTransform="scale(1.021116,0.97932)"
       x1="27.318817"
       y1="170.27164"
       x2="130.70354"
       y2="28.120695" />
    <linearGradient
       inkscape:collect="always"
       xlink:href="#linearGradient1222"
       id="linearGradient1388"
       gradientUnits="userSpaceOnUse"
       gradientTransform="scale(1.021116,0.97932)"
       x1="27.318817"
       y1="170.27164"
       x2="130.70354"
       y2="28.120695" />
    <linearGradient
       inkscape:collect="always"
       xlink:href="#linearGradient1218"
       id="linearGradient1390"
       x1="77.599106"
       y1="20.687101"
       x2="53.030739"
       y2="114.57422"
       gradientTransform="scale(1.016208,0.98405)"
       gradientUnits="userSpaceOnUse" />
    <linearGradient
       inkscape:collect="always"
       xlink:href="#linearGradient1323"
       id="linearGradient1392"
       x1="17.696665"
       y1="120.74315"
       x2="94.698936"
       y2="120.74315"
       gradientTransform="scale(1.394315,0.717198)"
       gradientUnits="userSpaceOnUse" />
    <linearGradient
       inkscape:collect="always"
       xlink:href="#linearGradient1273"
       id="linearGradient1394"
       x1="118.66497"
       y1="45.700581"
       x2="90.285629"
       y2="62.49313"
       gradientTransform="scale(1.118063,0.894404)"
       gradientUnits="userSpaceOnUse" />
    <linearGradient
       inkscape:collect="always"
       xlink:href="#linearGradient1273"
       id="linearGradient1396"
       x1="11.967844"
       y1="119.11808"
       x2="51.413383"
       y2="80.482086"
       gradientTransform="scale(1.206369,0.828933)"
       gradientUnits="userSpaceOnUse" />
    <linearGradient
       inkscape:collect="always"
       xlink:href="#linearGradient1273"
       id="linearGradient1398"
       x1="59.491886"
       y1="30.563196"
       x2="33.266399"
       y2="58.199242"
       gradientTransform="scale(1.337417,0.74771)"
       gradientUnits="userSpaceOnUse" />
  </defs>
  <sodipodi:namedview
     id="base"
     pagecolor="#ffffff"
     bordercolor="#666666"
     borderopacity="1.0"
     inkscape:pageopacity="0.0"
     inkscape:pageshadow="2"
     inkscape:zoom="8.8655743"
     inkscape:cx="10.446955"
     inkscape:cy="5.8466806"
     inkscape:window-width="1280"
     inkscape:window-height="998"
     inkscape:window-x="-4"
     inkscape:window-y="-4"
     showborder="true"
     showgrid="true"
     inkscape:current-layer="svg1161" />
  <g
     id="g1355"
     transform="matrix(0.310928,0,0,0.310928,-2.694442,1.851212)">
    <g
       transform="matrix(0.875802,0,0,0.869278,1.048583,-7.965682)"
       id="g1394">
      <path
         transform="matrix(0.394071,0,0,8.155385e-2,-31.69751,94.5886)"
         style="opacity:0.69398911;fill:url(#radialGradient1372);stroke-width:4.43095684;stroke-dasharray:17.723827, 17.723827;stroke-dashoffset:0"
         d="M 600 300 A 300 300 0 1 1  0,300 A 300 300 0 1 1  600 300 z"
         sodipodi:ry="300"
         sodipodi:rx="300"
         sodipodi:cy="300"
         sodipodi:cx="300"
         id="path898"
         sodipodi:type="arc" />
      <path
         transform="matrix(0.280658,0,0,0.148676,4.082687,91.98483)"
         style="fill:url(#radialGradient1374);stroke-width:4.43095684;stroke-dasharray:17.723827, 17.723827;stroke-dashoffset:0"
         d="M 600 300 A 300 300 0 1 1  0,300 A 300 300 0 1 1  600 300 z"
         sodipodi:ry="300"
         sodipodi:rx="300"
         sodipodi:cy="300"
         sodipodi:cx="300"
         id="ball1"
         sodipodi:type="arc" />
    </g>
    <g
       style="fill:url(#linearGradient1376)"
       transform="matrix(1.822197,0,0,1.662749,-180.0082,12.26653)"
       id="g1310">
      <path
         id="path1278"
         d="M 139.27138,11.077118 C 137.22042,11.077119 135.15548,11.84927 133.58388,13.420868 L 105.67763,41.358368 C 104.13725,42.898711 103.33325,44.910828 103.30263,46.920868 C 103.3022,46.954601 103.30263,47.012134 103.30263,47.045868 L 103.36513,47.045868 C 103.89976,49.079999 117.69889,51.660911 119.24013,53.202118 C 121.56768,55.529685 110.31886,57.249538 112.64638,59.577118 C 114.97392,61.904658 126.72486,64.062038 129.05263,66.38962 C 131.38019,68.71717 124.28755,71.18707 126.61513,73.51462 C 128.94268,75.842201 136.74995,72.94344 135.33388,79.014621 C 138.47707,82.157811 145.03666,80.657811 149.42763,77.514621 C 151.75518,75.18707 144.97506,75.40467 147.30263,73.07712 C 149.63018,70.74954 155.50836,70.7386 160.45888,65.170868 C 158.46624,62.071818 151.94381,60.748438 154.27138,58.420868 C 156.59893,56.093323 161.10115,57.261288 170.86513,52.827118 C 175.6315,50.662408 175.25838,49.039285 175.24013,47.045868 C 175.23975,47.003922 175.24013,46.963136 175.24013,46.920868 L 175.20888,46.920868 C 175.17827,44.91083 174.40547,42.898714 172.86513,41.358368 L 144.92763,13.420868 C 143.35604,11.849272 141.32234,11.077118 139.27138,11.077118 z M 139.02138,14.702118 C 139.93315,14.725869 140.67125,15.422422 142.11513,16.358368 L 155.30263,26.139618 C 155.44708,26.233292 155.58252,26.320552 155.70888,26.420868 C 155.83525,26.521171 155.97562,26.627132 156.08388,26.733368 C 156.19214,26.83941 156.27479,26.966073 156.36513,27.077118 C 156.45527,27.188145 156.5431,27.305955 156.61513,27.420868 C 156.68737,27.535969 156.74853,27.646585 156.80263,27.764618 C 156.85677,27.882866 156.89163,27.98792 156.92763,28.108368 C 156.96385,28.228632 157.00329,28.361823 157.02138,28.483368 C 157.03948,28.60513 157.05263,28.736271 157.05263,28.858368 L 149.24013,25.077118 L 148.45888,30.983368 L 144.14638,28.952118 L 137.52138,33.389618 L 134.95888,24.639618 L 131.70888,32.295868 L 122.55263,33.202118 L 122.64638,29.139618 C 122.64638,28.162533 127.93872,21.330614 131.14638,19.702118 L 137.02138,15.483368 C 137.88771,14.9218 138.47431,14.687867 139.02138,14.702118 z M 126.89638,54.639618 C 131.05584,55.718333 135.68346,57.114312 139.39638,57.139618 L 139.55263,58.827118 C 136.37321,58.499388 129.63884,56.949888 128.05263,56.139618 L 126.89638,54.639618 z M 170.24013,62.045868 C 169.60518,62.025518 169.0043,62.089178 168.55263,62.202118 C 167.70107,62.414898 163.56419,62.512928 163.89638,65.170868 C 167.55118,66.49919 173.20097,67.5165 173.86513,64.858368 C 174.36366,62.865308 172.14497,62.106908 170.24013,62.045868 z M 122.45888,67.45212 C 121.88389,67.38511 121.32136,67.45598 120.77138,67.73337 C 118.57203,68.84276 117.09168,71.30772 119.14638,72.32712 C 121.20129,73.34652 122.65747,72.1858 124.45888,70.92087 C 126.2605,69.65614 126.21414,69.4088 126.08388,68.92087 C 125.83449,68.98738 124.18386,67.65315 122.45888,67.45212 z M 162.64638,67.88962 C 160.98514,68.55396 161.00465,70.86186 162.33388,71.85837 C 163.66277,72.85508 165.32597,72.2104 165.99013,71.54587 C 166.65484,70.88153 165.96848,68.55397 162.64638,67.88962 z "
         style="fill:url(#linearGradient1378);fill-opacity:0.07438019;fill-rule:evenodd;stroke-width:1pt" />
      <path
         id="path1283"
         d="M 137.96875,10.71875 C 134.70402,11.060845 132.45341,13.855395 130.1579,15.940974 C 121.77155,24.50391 113.19525,32.911552 104.88478,41.529122 C 103.53165,43.257666 102.98133,45.293623 102.71875,47.4375 C 107.43946,50.886242 113.69835,50.905815 118.71875,53.78125 C 117.30484,56.014138 113.86394,55.927723 112.30534,58.153586 C 110.95047,59.066432 112.87438,60.562599 113.8839,60.907202 C 118.07998,63.025863 122.80956,63.838835 126.97834,66.068813 C 129.14039,66.223477 128.99465,68.39741 127.55968,69.46554 C 126.42313,70.610466 124.66557,72.512182 126.40386,73.938766 C 128.52893,75.415674 131.34635,75.011355 133.71875,75.875 C 135.38587,76.789177 134.20286,78.442002 135.34375,79.59375 C 138.20878,81.840481 142.17613,81.444087 145.3698,80.162063 C 147.01184,79.679133 148.50293,78.612108 149.9375,77.78125 C 151.32137,76.168445 149.16317,75.014407 147.9375,74.34375 C 147.13207,73.007556 149.81258,72.471472 150.72621,71.835396 C 154.22932,70.415525 157.63139,68.772275 160.32323,66.076023 C 162.00146,65.040055 159.53684,63.566475 158.75,62.75 C 157.29555,61.671425 155.38495,61.005736 154.46875,59.34375 C 156.83166,56.736844 160.77991,57.222943 163.82692,55.886662 C 167.48614,54.95606 170.96688,53.327613 174.19128,51.441061 C 176.31894,49.85542 175.75931,47.094289 175.34438,44.858149 C 173.82714,40.146659 169.32671,37.346121 166.14614,33.782162 C 159.00255,26.737555 151.96598,19.558149 144.75603,12.597114 C 142.83187,11.117125 140.40461,10.324926 137.96875,10.71875 z M 140.15625,15.71875 C 145.33185,19.512142 150.51925,23.291773 155.6875,27.09375 C 155.79568,28.12833 152.96647,25.994412 151.88519,25.704486 C 150.56126,25.31055 148.23232,22.990502 148.6016,25.735802 C 148.03383,26.854222 148.89364,30.614243 147.25375,29.748789 C 145.77079,28.952048 143.79956,27.767016 142.39696,29.393778 C 140.87922,30.408352 139.36149,31.422926 137.84375,32.4375 C 136.92659,29.270978 136.01364,26.10323 135.09375,22.9375 C 133.83186,25.869891 132.59553,28.813265 131.34375,31.75 C 128.60417,32.020833 125.86458,32.291667 123.125,32.5625 C 122.93577,30.531586 123.37937,28.49209 124.78964,27.051727 C 127.83705,22.165897 132.91432,19.181067 137.48762,15.928279 C 138.3808,15.399443 139.18306,15.465846 140.15625,15.71875 z M 132.0625,56.5625 C 134.25968,57.1318 136.54653,57.244809 138.78125,57.625 C 137.93164,58.641801 135.8349,57.320885 134.50134,57.277133 C 132.75919,56.896272 131.01731,56.527068 129.375,55.8125 C 130.27083,56.0625 131.16667,56.3125 132.0625,56.5625 z M 168.5,61.625 C 166.4798,62.09519 163.59992,62.369201 163.34375,64.96875 C 164.00781,65.934196 166.11962,66.292948 167.47626,66.551501 C 169.6091,66.891924 172.52463,67.659468 174.01886,65.672524 C 175.29513,63.892929 173.38643,61.628153 171.4054,61.754929 C 170.44376,61.426788 169.48969,61.503021 168.5,61.625 z M 120.65625,67.15625 C 119.17864,68.173454 117.17273,69.706513 117.8125,71.75 C 119.3236,73.943032 122.44871,73.328157 124.17581,71.744685 C 125.31806,71.095411 127.22708,69.849349 126.34375,68.40625 C 124.53029,67.617814 122.70705,66.421404 120.65625,67.15625 z M 162.25,67.46875 C 160.98536,68.304844 160.47655,70.055902 161.35305,71.321264 C 162.02451,73.004295 164.27223,73.179865 165.64672,72.26308 C 167.48408,71.70036 166.67812,69.347513 165.33731,68.658474 C 164.66189,67.81525 163.12029,67.40631 162.25,67.46875 z "
         style="fill:url(#linearGradient1380);fill-opacity:0.07438019;fill-rule:evenodd;stroke-width:1pt" />
      <path
         id="path1286"
         d="M 137.09375,12.0625 C 133.45264,13.658306 130.8951,17.054651 128.02763,19.760075 C 120.64992,27.277135 113.11748,34.668181 105.81675,42.244521 C 104.77302,43.58383 104.19848,45.113312 103.9375,46.78125 C 108.025,49.661848 113.35464,49.814484 117.77247,52.034312 C 119.23732,52.180074 120.83004,53.663696 119.4753,54.914506 C 117.72685,56.714093 114.64707,56.868986 113.1875,58.9375 C 116.98689,61.678185 121.72461,62.314645 125.91888,64.199775 C 127.35246,65.248996 129.93899,65.341959 130,67.53125 C 129.61283,69.469175 127.68115,70.594821 126.84375,72.34375 C 128.66657,74.916318 132.41661,73.52677 134.81763,75.194505 C 136.1215,75.998634 135.76289,77.719238 136.33739,78.786112 C 139.34189,80.984126 143.56705,80.023489 146.59979,78.26286 C 147.57821,77.931235 150.25551,76.737683 148.25234,75.86657 C 146.79311,75.539319 145.57083,73.791727 146.98575,72.676315 C 150.59379,69.928273 155.52636,69.30023 158.75379,65.912819 C 160.44061,64.636839 157.51978,63.512312 156.64603,62.784855 C 155.31686,61.805358 153.02074,60.86477 153.3125,58.90625 C 155.52467,55.836091 159.7635,56.249927 162.98171,54.909139 C 166.64088,54.011598 170.1788,52.442724 173.39619,50.585767 C 175.44759,48.766928 174.40312,45.854433 173.70402,43.674602 C 170.01715,38.505895 164.93468,34.52853 160.6064,29.906454 C 155.05848,24.484276 149.68028,18.831089 144.02714,13.552135 C 142.01313,12.267231 139.68457,11.155741 137.26959,12.030263 L 137.09375,12.0625 z M 139.25,14.15625 C 144.36849,16.573687 148.44456,20.615673 153.06166,23.857057 C 154.79682,25.417824 157.75256,26.462276 157.65625,29.21875 C 155.98301,29.620934 154.51821,27.909197 152.92283,27.467153 C 151.47889,26.979622 149.05912,24.688826 149.4649,27.619328 C 148.95092,28.676042 149.67609,32.096323 148.3043,31.52887 C 146.86362,30.916675 145.25114,29.742049 143.73062,29.880583 C 141.56112,31.359522 139.38321,32.826259 137.21875,34.3125 C 136.40063,31.654144 135.63994,28.977747 134.84375,26.3125 C 133.78712,28.431959 132.98467,30.961875 131.78125,32.84375 C 128.52084,33.166779 125.26035,33.488957 122,33.8125 C 122.02692,31.439278 121.5882,28.751334 123.45144,26.900643 C 126.3865,21.928911 131.54097,18.937382 135.96875,15.53125 C 137.055,15.131227 138.17386,14.35607 139.25,14.15625 z M 126.34375,53.90625 C 130.81931,55.099287 135.33348,56.080112 139.9375,56.625 C 140.81508,58.380031 139.61654,59.889689 137.75155,59.030564 C 134.35469,58.342143 130.95451,57.411091 127.625,56.5 C 127.37596,56.018046 124.72663,53.333015 126.34375,53.90625 z M 168.6875,62.75 C 167.26725,63.145732 165.19352,63.022642 164.6875,64.75 C 167.41558,65.272026 170.36127,66.626958 173.03125,65.1875 C 173.94813,63.333514 171.22391,62.807999 169.92452,62.707344 C 169.51218,62.721563 169.09984,62.735781 168.6875,62.75 z M 120.96875,68.25 C 119.88102,69.094191 117.71809,71.141191 120.00567,71.86766 C 122.11744,72.377527 123.71955,70.573549 125.28125,69.46875 C 124.1701,68.379529 122.48301,67.967608 120.96875,68.25 z M 162.25,68.9375 C 161.26655,70.838341 164.03769,72.707639 165.32625,71.028976 C 165.98639,69.968138 163.10932,68.105539 162.25,68.9375 z "
         style="fill:url(#linearGradient1382);fill-opacity:0.07438019;fill-rule:evenodd;stroke-width:1pt" />
      <path
         id="path1295"
         d="M 137.5,12.5625 C 131.56402,15.884438 127.47918,21.513076 122.59316,26.106819 C 117.07494,31.800872 111.33765,37.333066 105.955,43.127274 C 105.27016,44.232264 103.90274,46.716455 105.88806,47.110513 C 110.48303,49.525949 116.07018,49.897473 120.25,52.9375 C 121.19557,55.258014 118.31954,56.204644 116.77699,57.135076 C 115.14828,57.646504 113.25757,59.174666 115.98524,59.736007 C 120.5165,62.179113 125.90956,62.812244 130.0625,65.96875 C 131.4044,68.155882 128.87852,70.088345 127.96429,71.81694 C 127.97548,73.606583 130.61198,73.210238 131.85374,73.694589 C 134.00698,73.861384 136.31306,75.067306 136.52629,77.437982 C 137.2477,79.315251 139.82104,79.377347 141.5625,79.375 C 143.88381,79.081698 145.88731,77.848938 148,76.9375 C 147.89289,75.48428 145.47385,75.343455 145.78125,73.5625 C 147.65028,70.568783 151.46696,69.934698 154.32757,68.211442 C 155.95166,67.507534 157.40819,66.436524 158.5,65.03125 C 156.69534,62.893495 153.11684,62.207207 152.76893,59.02553 C 153.13476,57.911585 154.90043,56.856141 156.14992,56.314935 C 161.47352,54.305871 167.29666,53.530281 172.18291,50.436255 C 174.75469,49.3971 173.90347,46.181096 173.15013,44.168122 C 170.9974,41.14385 168.08639,38.542958 165.64236,35.681332 C 163.12371,33.09379 160.49665,30.610931 157.9375,28.0625 C 158.99092,29.594714 157.00835,30.333418 155.8631,29.376751 C 153.95887,28.546062 152.06033,27.726589 150.125,26.96875 C 150.04976,28.6338 149.69671,30.253091 149.34375,31.875 C 146.94959,32.517021 144.6251,29.359512 142.44997,31.405021 C 140.65579,32.399012 139.25573,34.074138 137.34005,34.698602 C 135.96867,34.449689 136.15225,31.65745 135.44638,30.368996 C 135.0322,27.477998 134.31032,28.114323 133.4372,30.484434 C 132.63691,31.983328 132.2936,34.079093 130.12469,33.57656 C 127.22896,33.863646 124.33317,34.149933 121.4375,34.4375 C 121.45635,31.45839 121.16984,28.094375 123.52595,25.839572 C 126.82257,21.188668 131.69023,18.019711 136.23357,14.793262 C 137.75437,14.087412 139.64327,13.037594 141.05071,14.536711 C 144.77608,17.093755 148.56965,19.491887 152.0625,22.34375 C 149.06655,19.513772 146.25485,16.420638 143.14594,13.751994 C 141.38445,12.871744 139.5202,11.7899 137.5,12.5625 z M 126.40625,53.34375 C 131.09445,54.266714 135.77718,55.221773 140.46875,56.125 C 140.66311,57.4906 140.904,59.768414 138.90019,59.717011 C 134.99279,58.970773 131.04202,57.882901 127.1875,56.875 C 126.61048,55.955764 124.83534,54.55662 125.40625,53.625 C 125.73497,53.577157 126.08499,53.29247 126.40625,53.34375 z M 166.53125,63.8125 C 164.90117,64.830649 168.72302,64.87955 169.60036,65.161786 C 170.82454,65.513571 173.80209,64.644903 171.5,63.59375 C 169.78209,63.21703 168.2114,63.255613 166.53125,63.8125 z M 120.8125,69.1875 C 118.77488,70.497531 120.63987,72.049766 122.29985,70.780747 C 124.22011,70.547064 124.25797,68.584075 122.13849,68.857155 C 121.6259,68.786616 121.20364,68.80569 120.8125,69.1875 z M 162.78125,70.25 C 165.04372,72.410337 164.50416,68.582957 162.78125,69.787913 C 162.78125,69.883882 162.78125,70.191942 162.78125,70.25 z "
         style="fill:url(#linearGradient1384);fill-opacity:0.07438019;fill-rule:evenodd;stroke-width:1pt" />
      <path
         id="path1300"
         d="M 137.25,10.3125 C 134.57328,10.811904 132.67255,13.05078 130.64866,14.715585 C 121.77957,23.451854 113.11785,32.437236 104.375,41.28125 C 103.17019,43.288146 102.47259,45.456013 102.0625,47.75 C 105.83476,49.628698 109.64657,51.368815 113.75481,52.377095 C 114.74672,53.000901 118.15181,53.211596 117.03125,54.625 C 114.87625,55.770623 112.18432,56.545814 111.25,59.0625 C 113.07397,62.261249 117.13309,62.448994 120.14188,63.972108 C 122.6675,64.970987 125.19313,65.969869 127.71875,66.96875 C 127.79709,69.608591 127.12737,68.724937 125.79671,67.54217 C 123.7615,66.508388 120.74167,65.559916 119.14266,67.799744 C 117.6891,68.68533 116.55779,70.940149 117.66673,72.361712 C 119.74129,74.610002 123.29896,73.558599 125.22361,71.631365 C 125.39044,71.451948 124.94524,74.329263 126.55554,74.625682 C 128.75187,75.888131 131.56113,75.535204 133.75,76.78125 C 134.17453,78.637203 134.92263,80.73875 137.10053,81.029661 C 140.5397,82.420114 144.41944,81.397273 147.50485,79.584682 C 148.8154,78.872018 151.32795,78.343669 150.75195,76.374975 C 150.70713,75.080531 147.53803,74.300613 149.3125,73.09375 C 153.55943,71.203594 157.9123,69.20983 161.1875,65.84375 C 161.99115,63.731003 159.07145,62.849633 157.9375,61.5625 C 156.57653,60.417748 154.30116,59.195844 157.1701,58.407983 C 162.44672,56.428116 168.30037,55.651561 173.14,52.53601 C 175.69933,51.724285 176.75286,48.825627 176.01594,46.3822 C 175.99204,43.921497 174.3645,41.88443 172.99509,39.973772 C 168.23708,34.553265 162.7331,29.839073 157.72691,24.648245 C 153.37676,20.454464 149.19589,15.998891 144.74248,11.964991 C 142.49218,10.519398 139.90204,10.047325 137.25,10.3125 z M 140.40625,16.625 C 144.3818,19.41521 148.26381,22.371245 152.21875,25.21875 C 151.00059,24.471219 149.71107,24.008458 148.28125,23.90625 C 148.08169,25.616789 147.84012,27.322499 147.625,29.03125 C 145.77312,28.480352 143.67622,27.36382 142.02088,28.944411 C 140.79579,29.321785 138.71876,32.02933 138.02739,30.946881 C 137.09069,27.714729 136.15797,24.48142 135.21875,21.25 C 133.79126,24.568262 132.38708,27.896549 130.96875,31.21875 C 128.5625,31.458333 126.15625,31.697917 123.75,31.9375 C 123.73611,28.504117 126.40867,25.941624 128.50533,23.538181 C 131.6034,20.877921 134.84009,18.280137 138.371,16.26612 C 139.05687,15.927768 139.72649,16.50138 140.40625,16.625 z M 165.125,61.9375 C 163.94994,62.683294 162.04675,64.163789 163.3125,65.625 C 165.77599,67.237331 168.8498,67.346191 171.68759,67.438839 C 173.79767,67.380039 175.87709,64.882603 174.44068,62.966319 C 173.1019,60.663393 170.0534,61.177216 167.81605,61.201002 C 166.91904,61.446503 166.02202,61.692001 165.125,61.9375 z M 162.03125,67.03125 C 160.83535,68.000188 160.29043,69.695123 160.76346,71.258236 C 161.1673,73.03905 163.22496,73.494707 164.78719,72.992478 C 167.13879,73.181332 168.09248,69.825149 166.13394,68.653373 C 164.9696,67.668728 163.65541,66.689296 162.03125,67.03125 z "
         style="fill:url(#linearGradient1386);fill-opacity:0.07438019;fill-rule:evenodd;stroke-width:1pt" />
      <path
         id="path1304"
         d="M 136.875,9.5625 C 131.65304,11.769127 128.14544,16.384624 124.15881,20.216605 C 117.35142,27.117414 110.49657,33.984328 103.71875,40.90625 C 102.85273,43.332808 101.99819,45.763562 101.125,48.1875 C 105.93068,50.283305 110.76347,52.276496 115.75,53.90625 C 115.44333,55.363555 112.9977,55.191635 112.24058,56.587946 C 110.89606,57.445273 110.01695,59.785906 111.89556,60.56782 C 114.8649,63.357428 118.93991,64.36302 122.625,65.875 C 119.72774,65.033632 117.8075,68.090788 116.6875,70.25 C 116.01105,72.95042 119.11437,74.651083 121.43923,74.259441 C 122.88425,74.778519 124.87048,71.894366 125.06555,74.129447 C 127.21708,76.574392 131.35224,75.998123 133.59751,78.288768 C 134.32398,80.302303 135.99246,81.986172 138.23383,82.006618 C 140.25772,82.589257 142.23898,82.31448 144.19142,81.61426 C 146.47188,81.09871 148.64271,79.959926 150.63761,78.824244 C 152.14711,77.754911 151.81527,75.346631 150.4375,74.3125 C 150.23406,72.704926 152.73875,72.682794 153.75639,71.819616 C 156.49819,70.56402 158.906,68.80405 161.21875,66.90625 C 160.19643,68.376408 159.81043,70.31597 160.38112,71.987759 C 161.34634,74.267655 164.2221,73.656108 166.15625,73.53125 C 168.08949,72.61073 168.83732,69.631414 166.875,68.34375 C 164.02568,66.581529 166.47357,67.403459 168.27836,67.911665 C 170.51415,68.044548 173.31226,68.74761 174.83495,66.581402 C 176.52328,64.952843 175.46252,62.386049 173.84375,61.125 C 171.82924,60.052772 169.41179,60.364713 167.22781,60.468857 C 165.26732,60.816302 163.77932,61.981088 162.5625,63.5 C 161.07416,64.693238 164.27576,66.891706 162.51264,66.451187 C 161.23611,66.670932 162.80138,64.122782 161.27178,63.293106 C 160.27477,61.829766 158.59216,60.917429 157.34375,59.65625 C 163.3732,56.7399 170.41697,55.950383 175.8125,51.75 C 177.79054,49.403625 176.89111,46.297658 176.3125,43.625 C 172.71709,37.077334 166.7268,32.381991 161.58112,27.092054 C 156.10204,21.754721 150.65568,16.371055 145.15625,11.0625 C 142.76062,10.099303 140.31053,9.4347862 137.70606,9.5684113 C 137.4382,9.5943662 137.13013,9.4705862 136.875,9.5625 z M 144,20.125 C 145.41913,21.217458 146.85549,22.290152 148.28125,23.375 C 146.9714,24.376925 147.43473,26.30666 146.96875,27.71875 C 145.01335,27.18802 142.88412,27.117042 141.28969,28.567875 C 140.30436,29.400862 138.46017,30.323076 138.31032,28.383898 C 137.43025,25.351664 136.5947,22.304201 135.6875,19.28125 C 137.21838,18.817776 138.78213,16.344334 140.2825,17.745803 C 141.52167,18.538869 142.76083,19.331934 144,20.125 z M 130.53125,30.40625 C 128.6875,30.59375 126.84375,30.78125 125,30.96875 C 125.70615,27.451641 128.61722,24.9902 131.09307,22.632488 C 132.44877,21.648343 133.72082,20.53192 135.125,19.625 C 133.59375,23.21875 132.0625,26.8125 130.53125,30.40625 z "
         style="fill:url(#linearGradient1388);fill-opacity:0.07438019;fill-rule:evenodd;stroke-width:1pt" />
    </g>
    <path
       transform="matrix(1.220396,0,0,1.220396,-20.19444,7.307033)"
       sodipodi:nodetypes="cccccccccccccccccccccccccccccccccccccccccc"
       id="path1217"
       d="M 78.468542,10.216821 C 75.406213,10.216823 72.32301,11.369737 69.976423,13.716321 L 28.309048,55.430356 C 26.009076,57.730272 24.808608,60.734604 24.762888,63.735835 C 24.762246,63.786202 24.762888,63.872106 24.762888,63.922475 L 24.856208,63.922475 C 25.654475,66.959676 46.25823,70.813287 48.559486,73.114494 C 52.034797,76.58983 35.23896,79.157777 38.714227,82.633131 C 42.189523,86.108431 59.735084,89.329652 63.210724,92.805012 C 66.68605,96.280332 56.095888,99.968182 59.571244,103.44349 C 63.046555,106.91885 74.703745,102.59065 72.589383,111.65565 C 77.282542,116.34881 87.076796,114.10913 93.633042,109.41597 C 97.108353,105.94066 86.98482,106.26556 90.46016,102.79025 C 93.935473,99.314902 102.7123,99.298562 110.10402,90.985272 C 107.12876,86.358021 97.39,84.382051 100.86534,80.906713 C 104.34065,77.431409 111.063,79.175321 125.64179,72.554574 C 132.75855,69.322402 132.20143,66.898885 132.17419,63.922475 C 132.17362,63.859844 132.17419,63.798946 132.17419,63.735835 L 132.12753,63.735835 C 132.08182,60.734607 130.92794,57.730277 128.62803,55.430356 L 86.914001,13.716321 C 84.567429,11.36974 81.530871,10.216821 78.468542,10.216821 z M 59.991184,75.260853 C 66.201756,76.871504 73.111347,78.955868 78.655182,78.993653 L 78.888482,81.513293 C 74.141227,81.023952 64.086006,78.710363 61.717604,77.500533 L 59.991184,75.260853 z M 124.70859,86.319271 C 123.76053,86.288891 122.86335,86.383941 122.18895,86.552571 C 120.91747,86.870282 114.74061,87.016652 115.23661,90.985272 C 120.69367,92.968622 129.12948,94.487582 130.12115,90.518672 C 130.86551,87.542792 127.55274,86.410411 124.70859,86.319271 z M 53.365465,94.391452 C 52.506936,94.291402 51.667011,94.397222 50.845825,94.811392 C 47.561932,96.467852 45.351592,100.14833 48.419506,101.67041 C 51.487732,103.1925 53.661984,101.45941 56.351705,99.570712 C 59.041739,97.682322 58.972518,97.313012 58.778024,96.584472 C 58.405655,96.683782 55.941067,94.691622 53.365465,94.391452 z M 113.37021,95.044692 C 110.88978,96.036632 110.91892,99.482602 112.90361,100.97051 C 114.8878,102.45872 117.37116,101.49614 118.36283,100.50391 C 119.35532,99.511972 118.33051,96.036652 113.37021,95.044692 z "
       style="fill:url(#linearGradient1390);fill-rule:evenodd;stroke-width:1pt" />
    <path
       transform="matrix(1.220396,0,0,1.220396,-20.19444,7.307033)"
       sodipodi:nodetypes="ccccccccccccccccccccccccccccccccccccccccccccccccccccccccccc"
       id="path1269"
       d="M 25.748195,58.983802 C 25.069168,60.48482 24.699511,62.088386 24.675015,63.696461 C 24.674375,63.746824 24.675015,63.832738 24.675015,63.883101 L 24.768335,63.883101 C 25.532194,66.789384 44.034284,70.422637 47.678393,72.7485 C 49.285306,71.792649 50.340763,70.791543 49.264832,69.7156 C 46.963576,67.414389 26.359823,63.560781 25.561555,60.523581 L 25.468235,60.523581 C 25.468235,60.473204 25.467595,60.387304 25.468235,60.336942 C 25.47528,59.874537 25.686531,59.443757 25.748195,58.983802 z M 132.03964,65.049601 C 131.22443,66.340254 129.65777,67.652109 126.34713,69.15568 C 111.76835,75.77642 105.046,74.032516 101.57069,77.507812 C 100.51786,78.560641 100.8935,79.461052 101.71067,80.354072 C 105.38973,77.752669 112.01329,78.664472 125.55391,72.5152 C 131.70333,69.722349 132.05669,67.513308 132.03964,65.049601 z M 60.696531,71.86196 L 62.422951,74.101632 C 64.791352,75.311463 74.846572,77.625067 79.593829,78.114392 L 79.360529,75.594752 C 73.816694,75.556961 66.907102,73.472618 60.696531,71.86196 z M 40.119473,79.607512 C 38.565476,80.548088 37.568913,81.536279 38.626354,82.593751 C 42.101651,86.069051 59.647211,89.290272 63.122851,92.765632 C 63.275692,92.918462 63.255326,93.078602 63.356151,93.232232 C 64.435614,91.947532 65.165573,90.655612 63.916071,89.406112 C 60.566937,86.057251 44.419333,82.939151 40.119473,79.607512 z M 117.10845,87.866332 C 115.91482,88.486362 114.95058,89.360392 115.14873,90.945882 C 120.60578,92.929232 129.04159,94.448192 130.03326,90.479292 C 130.22625,89.707762 130.12018,89.057262 129.84662,88.519572 C 127.48913,90.422432 121.65703,89.359992 117.10845,87.866332 z M 108.52303,89.546092 C 101.68539,95.627832 94.291059,96.265772 91.165507,99.391352 C 89.908251,100.6486 90.617583,101.33525 91.632107,101.95765 C 95.62016,99.286262 103.30109,98.498152 110.01615,90.945882 C 109.67197,90.410612 109.01729,90.016842 108.52303,89.546092 z M 112.3958,95.705212 C 110.96059,97.100002 111.14367,99.677592 112.81574,100.93113 C 114.79992,102.41933 117.28328,101.45675 118.27495,100.46453 C 118.78497,99.954792 118.71737,98.812252 117.90167,97.664932 C 116.69163,98.288052 115.10107,98.690742 113.60896,97.571612 C 112.97842,97.098902 112.61381,96.431702 112.3958,95.705212 z M 57.383671,95.891852 C 57.217332,96.012982 57.251127,96.035572 57.057051,96.171812 C 54.36733,98.060502 52.193078,99.793612 49.124852,98.271512 C 48.483305,97.953222 48.223383,97.480502 48.005012,97.011692 C 46.64074,98.694072 46.307086,100.62659 48.331632,101.63103 C 51.399861,103.15311 53.574111,101.42002 56.263832,99.531332 C 58.953868,97.642932 58.884645,97.273622 58.690151,96.545092 C 58.562389,96.579162 57.924006,96.197372 57.383671,95.891852 z M 60.043291,99.577992 C 58.963831,100.86268 58.233858,102.1546 59.483371,103.4041 C 62.958684,106.87946 74.615872,102.55126 72.50151,111.61626 C 77.19467,116.30942 86.988927,114.06974 93.545171,109.37658 C 94.825402,108.09634 94.082889,107.39241 93.031907,106.76362 C 86.53425,110.87138 77.700406,112.66245 73.294729,108.25674 C 75.409092,99.191752 63.751901,103.51996 60.276591,100.04459 C 60.123748,99.891752 60.144117,99.731612 60.043291,99.577992 z "
       style="fill:url(#linearGradient1392);fill-rule:evenodd;stroke-width:1pt" />
    <path
       transform="matrix(1.220396,0,0,1.220396,-20.19444,7.307033)"
       sodipodi:nodetypes="cccccc"
       id="path1271"
       d="M 99.186075,30.398236 L 124.44205,57.534989 C 124.44205,57.534989 131.96512,65.595411 126.05415,68.819579 C 120.14317,72.043747 102.14157,76.880001 102.14157,76.880001 L 69.422516,29.764596 L 99.186075,30.398236 z "
       style="fill:url(#linearGradient1394);fill-opacity:1;fill-rule:evenodd;stroke-width:1pt" />
    <path
       transform="matrix(1.40165,0,0,1.40165,-35.26049,-4.181157)"
       sodipodi:nodetypes="cccccc"
       id="path1276"
       d="M 63.243695,31.078988 L 42.657304,54.706552 C 42.657304,54.706552 34.703472,61.724642 39.85007,64.531876 C 44.996668,67.339111 78.917426,78.80199 102.77892,74.591136 L 75.408382,33.652287 L 63.243695,31.078988 z "
       style="fill:url(#linearGradient1396);fill-opacity:1;fill-rule:evenodd;stroke-width:1pt" />
    <path
       transform="matrix(1.220396,0,0,1.220396,-20.19444,7.307033)"
       sodipodi:nodetypes="ccccccccccczz"
       id="path1317"
       d="M 79.571944,14.847933 C 83.032254,14.873506 97.565101,29.009298 101.72458,31.925491 C 105.88407,34.841684 104.90857,36.754316 104.90857,36.936622 L 93.243582,31.290763 L 92.077082,40.109502 L 85.638002,37.076602 L 75.746078,43.702321 L 71.919958,30.637523 L 67.067318,42.069221 L 53.395938,43.422361 L 53.535918,37.356562 L 73.73057,17.473723 C 75.195738,16.031178 76.175081,14.82236 79.571944,14.847933 z "
       style="fill:url(#linearGradient1398);fill-rule:evenodd;stroke-width:1pt" />
  </g>
  <metadata
     id="metadata56">
    <rdf:RDF>
      <cc:Work
         rdf:about="">
        <dc:title>Etiquette Icons</dc:title>
        <dc:description />
        <dc:subject>
          <rdf:Bag>
            <rdf:li>computer</rdf:li>
            <rdf:li>theme</rdf:li>
            <rdf:li />
            <rdf:li>icons</rdf:li>
            <rdf:li>hash</rdf:li>
            <rdf:li>application</rdf:li>
          </rdf:Bag>
        </dc:subject>
        <dc:publisher>
          <cc:Agent
             rdf:about="http://www.openclipart.org">
            <dc:title>Andy Fitzsimon</dc:title>
          </cc:Agent>
        </dc:publisher>
        <dc:creator>
          <cc:Agent
             rdf:about="">
            <dc:title>Andy Fitzsimon</dc:title>
          </cc:Agent>
        </dc:creator>
        <dc:rights>
          <cc:Agent
             rdf:about="">
            <dc:title>Andy Fitzsimon</dc:title>
          </cc:Agent>
        </dc:rights>
        <dc:date />
        <dc:format>image/svg+xml</dc:format>
        <dc:type
           rdf:resource="http://purl.org/dc/dcmitype/StillImage" />
        <cc:license
           rdf:resource="http://web.resource.org/cc/PublicDomain">
          <dc:date />
        </cc:license>
        <dc:language>en</dc:language>
      </cc:Work>
      <cc:License
         rdf:about="http://web.resource.org/cc/PublicDomain">
        <cc:permits
           rdf:resource="http://web.resource.org/cc/Reproduction" />
        <cc:permits
           rdf:resource="http://web.resource.org/cc/Distribution" />
        <cc:permits
           rdf:resource="http://web.resource.org/cc/DerivativeWorks" />
      </cc:License>
    </rdf:RDF>
  </metadata>
  <path
     style="fill:url(#linearGradient1346);fill-opacity:1;fill-rule:evenodd;stroke:#000000;stroke-width:1.00000012;stroke-linecap:butt;stroke-linejoin:miter;stroke-miterlimit:4;stroke-dasharray:none;stroke-opacity:1"
     d="M 29.632989,6.5648835 L 29.533323,12.498609 L 35.608085,12.455276 L 35.603828,18.397393 L 41.670095,18.407793 L 41.571762,12.563926 L 47.43708,12.510229 L 47.486998,6.6165369 L 41.675171,6.540356 L 41.678888,0.61123533 L 35.505853,0.55603051 L 35.604646,6.5316373 L 29.632989,6.5648835 z "
     id="path1308"
     sodipodi:nodetypes="ccccccccccccc" />
</svg>
