<?xml version="1.0" encoding="UTF-8" standalone="no"?>
<!-- Generator: Adobe Illustrator 14.0.0, SVG Export Plug-In . SVG Version: 6.00 Build 43363)  -->

<svg
   xmlns:dc="http://purl.org/dc/elements/1.1/"
   xmlns:cc="http://creativecommons.org/ns#"
   xmlns:rdf="http://www.w3.org/1999/02/22-rdf-syntax-ns#"
   xmlns:svg="http://www.w3.org/2000/svg"
   xmlns="http://www.w3.org/2000/svg"
   xmlns:xlink="http://www.w3.org/1999/xlink"
   xmlns:sodipodi="http://sodipodi.sourceforge.net/DTD/sodipodi-0.dtd"
   xmlns:inkscape="http://www.inkscape.org/namespaces/inkscape"
   version="1.1"
   id="svg3205"
   sodipodi:docname="down.svg"
   inkscape:version="0.48.0 r9654"
   sodipodi:version="0.32"
   inkscape:output_extension="org.inkscape.output.svg.inkscape"
   x="0px"
   y="0px"
   width="32px"
   height="32px"
   viewBox="0 0 32 32"
   enable-background="new 0 0 32 32"
   xml:space="preserve"><metadata
   id="metadata26918"><rdf:RDF><cc:Work
       rdf:about=""><dc:format>image/svg+xml</dc:format><dc:type
         rdf:resource="http://purl.org/dc/dcmitype/StillImage" /><dc:title></dc:title></cc:Work></rdf:RDF></metadata><defs
   id="defs26916">
		
	<linearGradient
   inkscape:collect="always"
   xlink:href="#polygon2871_1_"
   id="linearGradient28927"
   gradientUnits="userSpaceOnUse"
   gradientTransform="matrix(0,1,1,0,-935.0355,114.2064)"
   x1="-128.23801"
   y1="965.34149"
   x2="-128.23801"
   y2="948.54797" />
				
					<linearGradient
   id="polygon2871_1_"
   gradientUnits="userSpaceOnUse"
   x1="-128.23801"
   y1="965.34149"
   x2="-128.23801"
   y2="948.54797"
   gradientTransform="matrix(0,1,1,0,-935.0355,114.2064)">
					<stop
   offset="0"
   style="stop-color:#f4959a;stop-opacity:1;"
   id="stop26911" />
					<stop
   offset="1"
   style="stop-color:#901d1e;stop-opacity:1;"
   id="stop26913" />
				</linearGradient>
				
			</defs>
<sodipodi:namedview
   id="base"
   pagecolor="#ffffff"
   bordercolor="#666666"
   borderopacity="1.0"
   objecttolerance="10"
   gridtolerance="10000"
   showgrid="false"
   guidetolerance="10"
   inkscape:zoom="24.006275"
   inkscape:cx="23.203366"
   inkscape:cy="18.792807"
   inkscape:current-layer="g2862"
   inkscape:pageopacity="0.0"
   inkscape:pageshadow="2"
   inkscape:window-width="1280"
   inkscape:window-height="659"
   inkscape:window-x="247"
   inkscape:window-y="169"
   inkscape:document-units="px"
   inkscape:window-maximized="0">
	</sodipodi:namedview>
<g
   id="g2881">
	<g
   id="g20887-2_2_"
   transform="translate(-5.5755111,29.767864)">
		<g
   id="g2853">
			<g
   id="g2855">
				<path
   id="path2857"
   d="M33.626-15.115c0,0.236-0.084,0.471-0.244,0.656L22.304-1.702c-0.189,0.22-0.465,0.346-0.755,0.345      c-0.291,0-0.564-0.126-0.756-0.347L9.768-14.46c-0.159-0.186-0.243-0.418-0.243-0.654c0-0.141,0.029-0.282,0.09-0.416      c0.164-0.354,0.519-0.584,0.91-0.584h4.282v-9.063c0-0.553,0.447-1,1-1h11.446c0.553,0,1,0.447,1,1v9.065h4.373      c0.393,0,0.748,0.229,0.91,0.584C33.599-15.396,33.626-15.254,33.626-15.115L33.626-15.115z" />
			</g>
		</g>
	</g>
	<g
   id="g20887-2_1_"
   transform="translate(-5.5755111,29.767864)">
		<path
   id="path4348-2-1_2_"
   fill="#00ACDA"
   d="M32.626-15.115L21.55-2.358L10.525-15.115h5.282v-10.064h11.446v10.064H32.626z"
   style="fill:#ed2c29;fill-opacity:1" />
	</g>
	<g
   id="g2862"
   transform="translate(-5.5755111,29.767864)">
			<polygon
   id="polygon2871"
   points="26.253,-24.179 26.253,-14.113 30.435,-14.113 21.552,-3.885 12.711,-14.113 16.807,-14.113 16.807,-24.179 "
   style="fill:url(#linearGradient28927)" />
		</g>
</g>
</svg>