<?xml version="1.0" encoding="utf-8"?>
<!-- Generator: Adobe Illustrator 14.0.0, SVG Export Plug-In . SVG Version: 6.00 Build 43363)  -->
<!DOCTYPE svg PUBLIC "-//W3C//DTD SVG 1.1//EN" "http://www.w3.org/Graphics/SVG/1.1/DTD/svg11.dtd">
<svg version="1.1"
	 id="svg2" sodipodi:docbase="C:\Radix\dev\trunk\org.radixware\kernel\designer\src\common.resources\src\org\radixware\kernel\designer\resources\icons\arrow" sodipodi:docname="left.svg" inkscape:version="0.45.1" sodipodi:version="0.32" inkscape:output_extension="org.inkscape.output.svg.inkscape" xmlns:ns="http://creativecommons.org/ns#" xmlns:dc="http://purl.org/dc/elements/1.1/" xmlns:cc="http://web.resource.org/cc/" xmlns:rdf="http://www.w3.org/1999/02/22-rdf-syntax-ns#" xmlns:svg="http://www.w3.org/2000/svg" xmlns:sodipodi="http://sodipodi.sourceforge.net/DTD/sodipodi-0.dtd" xmlns:inkscape="http://www.inkscape.org/namespaces/inkscape"
	 xmlns="http://www.w3.org/2000/svg" xmlns:xlink="http://www.w3.org/1999/xlink" x="0px" y="0px" width="32px" height="32px"
	 viewBox="0 0 32 32" enable-background="new 0 0 32 32" xml:space="preserve">
<sodipodi:namedview  width="48px" height="48px" id="base" pagecolor="#ffffff" bordercolor="#000000" borderopacity="0.29411765" showgrid="false" inkscape:zoom="8.6823691" inkscape:cx="8.2289805" inkscape:cy="27.649079" inkscape:current-layer="g9137" inkscape:pageopacity="0.0" inkscape:pageshadow="2" inkscape:window-width="1280" inkscape:window-height="944" inkscape:window-x="-8" inkscape:window-y="-8" inkscape:document-units="px" inkscape:guide-bbox="true" showguides="true" showborder="true" inkscape:showpageshadow="false">
	</sodipodi:namedview>
<g id="g2881_1_">
	<g id="g20887-2_9_" transform="translate(-5.5755111,29.767864)">
		<g id="g2853_1_">
			<g id="g2855_2_">
				<path id="path2857_1_" d="M22.92-1.715c-0.236,0-0.47-0.084-0.656-0.246L9.51-13.039c-0.22-0.189-0.345-0.466-0.345-0.756
					c0-0.291,0.127-0.565,0.347-0.755l12.755-11.025c0.186-0.16,0.418-0.244,0.654-0.244c0.141,0,0.283,0.031,0.416,0.092
					c0.355,0.163,0.584,0.518,0.584,0.908v4.283h9.064c0.553,0,1,0.448,1,1V-8.09c0,0.553-0.447,1-1,1H23.92v4.375
					c0,0.391-0.229,0.746-0.585,0.91C23.202-1.744,23.061-1.715,22.92-1.715L22.92-1.715z"/>
			</g>
		</g>
	</g>
	<g id="g20887-2_8_" transform="translate(-5.5755111,29.767864)">
		<path id="path4348-2-1_10_" fill="#00ACDA" d="M22.92-2.715l-12.755-11.08L22.92-24.82v5.283h10.065V-8.09H22.92V-2.715z"/>
	</g>
	<g id="g20887-2_7_" transform="translate(-5.5755111,29.767864)">
		<g id="g2862_1_">
			<g id="g2864_2_">
				
					<linearGradient id="polygon2871_2_" gradientUnits="userSpaceOnUse" x1="-538.653" y1="-113.5706" x2="-538.653" y2="-96.7762" gradientTransform="matrix(-1 0 0 -1 -516.8138 -118.608)">
					<stop  offset="0" style="stop-color:#B1D2DB"/>
					<stop  offset="1" style="stop-color:#0C7C9E"/>
				</linearGradient>
				<polygon id="polygon2871_1_" fill="url(#polygon2871_2_)" points="11.693,-13.793 21.92,-22.634 21.92,-18.537 31.986,-18.537 
					31.986,-9.09 21.92,-9.09 21.92,-4.908 				"/>
			</g>
		</g>
	</g>
</g>
</svg>
