<?xml version="1.0" encoding="UTF-8" standalone="no"?>
<!-- Generator: Adobe Illustrator 14.0.0, SVG Export Plug-In . SVG Version: 6.00 Build 43363)  -->

<svg
   xmlns:dc="http://purl.org/dc/elements/1.1/"
   xmlns:cc="http://creativecommons.org/ns#"
   xmlns:rdf="http://www.w3.org/1999/02/22-rdf-syntax-ns#"
   xmlns:svg="http://www.w3.org/2000/svg"
   xmlns="http://www.w3.org/2000/svg"
   xmlns:xlink="http://www.w3.org/1999/xlink"
   xmlns:sodipodi="http://sodipodi.sourceforge.net/DTD/sodipodi-0.dtd"
   xmlns:inkscape="http://www.inkscape.org/namespaces/inkscape"
   version="1.1"
   id="svg2"
   sodipodi:docname="right_blocked_2.svg"
   inkscape:version="0.91 r13725"
   sodipodi:version="0.32"
   inkscape:output_extension="org.inkscape.output.svg.inkscape"
   x="0px"
   y="0px"
   width="32px"
   height="32px"
   viewBox="0 0 32 32"
   enable-background="new 0 0 32 32"
   xml:space="preserve"><metadata
     id="metadata22"><rdf:RDF><cc:Work
         rdf:about=""><dc:format>image/svg+xml</dc:format><dc:type
           rdf:resource="http://purl.org/dc/dcmitype/StillImage" /></cc:Work></rdf:RDF></metadata><defs
     id="defs20"><linearGradient
       id="polygon2961_1_-4"
       gradientUnits="userSpaceOnUse"
       x1="24.4193"
       y1="-113.5716"
       x2="24.4193"
       y2="-96.776802"
       gradientTransform="matrix(1,0,0,-1,-3.1157,-118.608)"><stop
         offset="0"
         style="stop-color:#B1D2DB"
         id="stop15-0" /><stop
         offset="1"
         style="stop-color:#0C7C9E"
         id="stop17-5" /></linearGradient><linearGradient
       inkscape:collect="always"
       id="linearGradient3492"><stop
         style="stop-color:#666666;stop-opacity:1;"
         offset="0"
         id="stop3494" /><stop
         style="stop-color:#666666;stop-opacity:0;"
         offset="1"
         id="stop3496" /></linearGradient><linearGradient
       inkscape:collect="always"
       xlink:href="#linearGradient3492"
       id="linearGradient4174"
       x1="57.865387"
       y1="31.832352"
       x2="57.980564"
       y2="-5.9453554"
       gradientUnits="userSpaceOnUse" /><linearGradient
       y2="-5.9453554"
       x2="57.980564"
       y1="31.832352"
       x1="57.865387"
       gradientUnits="userSpaceOnUse"
       id="linearGradient4198"
       xlink:href="#linearGradient3492"
       inkscape:collect="always" /><linearGradient
       inkscape:collect="always"
       xlink:href="#linearGradient3492"
       id="linearGradient3498-5"
       x1="21.609148"
       y1="-22.409195"
       x2="21.724323"
       y2="7.9972525"
       gradientUnits="userSpaceOnUse" /><linearGradient
       inkscape:collect="always"
       xlink:href="#linearGradient3492"
       id="linearGradient3498-8"
       x1="21.609148"
       y1="-22.409195"
       x2="21.724323"
       y2="7.9972525"
       gradientUnits="userSpaceOnUse" /><linearGradient
       inkscape:collect="always"
       xlink:href="#linearGradient3492"
       id="linearGradient4188"
       x1="57.865387"
       y1="31.832352"
       x2="57.980564"
       y2="-5.9453554"
       gradientUnits="userSpaceOnUse" /><linearGradient
       y2="-5.9453554"
       x2="57.980564"
       y1="31.832352"
       x1="57.865387"
       gradientUnits="userSpaceOnUse"
       id="linearGradient4198-8"
       xlink:href="#linearGradient3492"
       inkscape:collect="always" /></defs><sodipodi:namedview
     width="48px"
     height="48px"
     id="base"
     pagecolor="#ffffff"
     bordercolor="#000000"
     borderopacity="0.29411765"
     showgrid="false"
     inkscape:zoom="12.278724"
     inkscape:cx="-2.8510117"
     inkscape:cy="14.088046"
     inkscape:current-layer="g2986"
     inkscape:pageopacity="0.0"
     inkscape:pageshadow="2"
     inkscape:window-width="1920"
     inkscape:window-height="1017"
     inkscape:window-x="-8"
     inkscape:window-y="-8"
     inkscape:document-units="px"
     inkscape:guide-bbox="true"
     showguides="true"
     showborder="true"
     inkscape:showpageshadow="false"
     inkscape:window-maximized="1" /><g
     id="g2986"
     transform="matrix(0.58550295,0,0,0.66381778,-0.86804066,5.3786739)"><g
       id="g2881_1_"
       transform="matrix(-1.0321774,0.00480661,-0.00598549,-0.99994457,58.262535,31.797825)"><g
         id="g20887-2_9_"
         transform="translate(-5.5755111,29.767864)"><g
           id="g2853_1_"><g
             id="g2855_2_"><path
               id="path2857_1_"
               d="m 22.92,-1.715 c -0.236,0 -0.47,-0.084 -0.656,-0.246 L 9.51,-13.039 c -0.22,-0.189 -0.345,-0.466 -0.345,-0.756 0,-0.291 0.127,-0.565 0.347,-0.755 l 12.755,-11.025 c 0.186,-0.16 0.418,-0.244 0.654,-0.244 0.141,0 0.283,0.031 0.416,0.092 0.355,0.163 0.584,0.518 0.584,0.908 l 0,4.283 9.064,0 c 0.553,0 1,0.448 1,1 l 0,11.446 c 0,0.553 -0.447,1 -1,1 l -9.065,0 0,4.375 c 0,0.391 -0.229,0.746 -0.585,0.91 -0.133,0.061 -0.274,0.09 -0.415,0.09 l 0,0 z"
               inkscape:connector-curvature="0" /></g></g></g><g
         id="g20887-2_8_"
         transform="translate(-5.5755111,29.767864)"><g
           id="g20887-2_9_-0"
           transform="translate(24.82,2.6025186e-7)"><g
             id="g2853_1_-7"><g
               id="g2855_2_-8"><path
                 id="path2857_1_-0"
                 d="m 22.92,-1.715 c -0.236,0 -0.47,-0.084 -0.656,-0.246 L 9.51,-13.039 c -0.22,-0.189 -0.345,-0.466 -0.345,-0.756 0,-0.291 0.127,-0.565 0.347,-0.755 l 12.755,-11.025 c 0.186,-0.16 0.418,-0.244 0.654,-0.244 0.141,0 0.283,0.031 0.416,0.092 0.355,0.163 0.584,0.518 0.584,0.908 l 0,4.283 9.064,0 c 0.553,0 1,0.448 1,1 l 0,11.446 c 0,0.553 -0.447,1 -1,1 l -9.065,0 0,4.375 c 0,0.391 -0.229,0.746 -0.585,0.91 -0.133,0.061 -0.274,0.09 -0.415,0.09 l 0,0 z"
                 inkscape:connector-curvature="0" /></g></g></g><g
           id="g20887-2_7_-5-8"
           transform="matrix(1.0113622,0,0,1.0072819,-91.242984,16.846221)"
           style="fill:#666666"><g
             id="g2862_1_-0-0"
             style="fill:#666666"><g
               id="g2864_2_-7-5"
               style="fill:#666666"
               transform="translate(67.931444,-12.660977)"><linearGradient
                 id="linearGradient4279"
                 gradientUnits="userSpaceOnUse"
                 x1="-538.65302"
                 y1="-113.5706"
                 x2="-538.65302"
                 y2="-96.776199"
                 gradientTransform="matrix(-1,0,0,-1,-516.8138,-118.608)"><stop
                   offset="0"
                   style="stop-color:#B1D2DB"
                   id="stop3442-3-6" /><stop
                   offset="1"
                   style="stop-color:#0C7C9E"
                   id="stop3444-5" /></linearGradient><polygon
                 style="fill:url(#linearGradient3498-8);fill-opacity:1"
                 id="polygon2871_1_-6-0"
                 points="21.92,-22.634 21.92,-18.537 31.986,-18.537 31.986,-9.09 21.92,-9.09 21.92,-4.908 11.693,-13.793 "
                 transform="translate(46.876607,-4.1463337)" /></g></g></g><g
           id="g20887-2_8_-3-7"
           transform="matrix(0.98238306,0,0,0.96881125,-9.1286959,-34.296387)"
           style="fill:url(#linearGradient4188);fill-opacity:1"><path
             id="path4348-2-1_10_-7-1"
             d="m 58.048661,32.183309 -12.755,-11.08 12.755,-11.025 0,5.283 10.065,0 0,11.447 -10.065,0 0,5.375 z"
             style="fill:url(#linearGradient4198-8);fill-opacity:1"
             inkscape:connector-curvature="0" /></g></g></g><g
       id="g4273"
       transform="matrix(-0.99995647,-0.00823001,0.01057888,-0.99995647,-30.935967,54.162788)"><g
         style="fill:#666666"
         transform="matrix(1.0439197,0,0,1.0072401,-214.25067,69.488446)"
         id="g20887-2_7_-5-9"><g
           style="fill:#666666"
           id="g2862_1_-0-6"><g
             transform="translate(67.931444,-12.660977)"
             style="fill:#666666"
             id="g2864_2_-7-24"><linearGradient
               gradientTransform="matrix(-1,0,0,-1,-516.8138,-118.608)"
               y2="-96.776199"
               x2="-538.65302"
               y1="-113.5706"
               x1="-538.65302"
               gradientUnits="userSpaceOnUse"
               id="linearGradient4266"><stop
                 id="stop3442-8"
                 style="stop-color:#B1D2DB"
                 offset="0" /><stop
                 id="stop3444-4"
                 style="stop-color:#0C7C9E"
                 offset="1" /></linearGradient><polygon
               transform="translate(46.876607,-4.1463337)"
               points="11.693,-13.793 21.92,-22.634 21.92,-18.537 31.986,-18.537 31.986,-9.09 21.92,-9.09 21.92,-4.908 "
               id="polygon2871_1_-6-4"
               style="fill:url(#linearGradient3498-5);fill-opacity:1" /></g></g></g><g
         style="fill:url(#linearGradient4174);fill-opacity:1"
         transform="matrix(1.0140077,0,0,0.96877105,-129.49297,18.347959)"
         id="g20887-2_8_-3"><path
           inkscape:connector-curvature="0"
           style="fill:url(#linearGradient4198);fill-opacity:1"
           d="m 58.048661,32.183309 -12.755,-11.08 12.755,-11.025 0,5.283 10.065,0 0,11.447 -10.065,0 0,5.375 z"
           id="path4348-2-1_10_-7" /></g></g></g></svg>