<?xml version="1.0" encoding="UTF-8" standalone="no"?>
<!-- Generator: Adobe Illustrator 14.0.0, SVG Export Plug-In . SVG Version: 6.00 Build 43363)  -->

<svg
   xmlns:dc="http://purl.org/dc/elements/1.1/"
   xmlns:cc="http://creativecommons.org/ns#"
   xmlns:rdf="http://www.w3.org/1999/02/22-rdf-syntax-ns#"
   xmlns:svg="http://www.w3.org/2000/svg"
   xmlns="http://www.w3.org/2000/svg"
   xmlns:xlink="http://www.w3.org/1999/xlink"
   xmlns:sodipodi="http://sodipodi.sourceforge.net/DTD/sodipodi-0.dtd"
   xmlns:inkscape="http://www.inkscape.org/namespaces/inkscape"
   version="1.1"
   id="svg2"
   sodipodi:docname="right_blocked_1.svg"
   inkscape:version="0.91 r13725"
   sodipodi:version="0.32"
   inkscape:output_extension="org.inkscape.output.svg.inkscape"
   x="0px"
   y="0px"
   width="32px"
   height="32px"
   viewBox="0 0 32 32"
   enable-background="new 0 0 32 32"
   xml:space="preserve"><metadata
     id="metadata22"><rdf:RDF><cc:Work
         rdf:about=""><dc:format>image/svg+xml</dc:format><dc:type
           rdf:resource="http://purl.org/dc/dcmitype/StillImage" /></cc:Work></rdf:RDF></metadata><defs
     id="defs20"><linearGradient
       inkscape:collect="always"
       id="linearGradient3492"><stop
         style="stop-color:#666666;stop-opacity:1;"
         offset="0"
         id="stop3494" /><stop
         style="stop-color:#666666;stop-opacity:0;"
         offset="1"
         id="stop3496" /></linearGradient><linearGradient
       inkscape:collect="always"
       xlink:href="#linearGradient3492"
       id="linearGradient4174"
       x1="57.865387"
       y1="31.832352"
       x2="57.980564"
       y2="-5.9453554"
       gradientUnits="userSpaceOnUse" /><linearGradient
       inkscape:collect="always"
       xlink:href="#linearGradient3492"
       id="linearGradient4240"
       x1="57.865387"
       y1="31.832352"
       x2="57.980564"
       y2="-5.9453554"
       gradientUnits="userSpaceOnUse" /><linearGradient
       y2="37.879349"
       x2="57.896107"
       y1="10.467027"
       x1="57.937511"
       gradientUnits="userSpaceOnUse"
       id="linearGradient4261"
       xlink:href="#linearGradient3492"
       inkscape:collect="always"
       gradientTransform="matrix(-0.99999797,-0.00201501,0.00201501,-0.99999797,84.109942,38.171911)" /><linearGradient
       inkscape:collect="always"
       xlink:href="#linearGradient3492"
       id="linearGradient4204"
       gradientUnits="userSpaceOnUse"
       x1="22.024548"
       y1="-4.8482666"
       x2="21.607485"
       y2="-35.885986" /></defs><sodipodi:namedview
     width="48px"
     height="48px"
     id="base"
     pagecolor="#ffffff"
     bordercolor="#000000"
     borderopacity="0.29411765"
     showgrid="false"
     inkscape:zoom="17.364738"
     inkscape:cx="21.496609"
     inkscape:cy="16.736463"
     inkscape:current-layer="g2986"
     inkscape:pageopacity="0.0"
     inkscape:pageshadow="2"
     inkscape:window-width="1920"
     inkscape:window-height="1017"
     inkscape:window-x="-8"
     inkscape:window-y="-8"
     inkscape:document-units="px"
     inkscape:guide-bbox="true"
     showguides="true"
     showborder="true"
     inkscape:showpageshadow="false"
     inkscape:window-maximized="1" /><g
     id="g2986"><g
       id="g20887-2_15_"
       transform="translate(-5.5755111,29.767864)"><g
         id="g2943"><g
           id="g2945"><path
             id="path2947"
             d="M20.186-1.716c-0.145,0-0.29-0.027-0.428-0.09c-0.368-0.162-0.604-0.518-0.604-0.91v-4.373H9.798      c-0.571,0-1.032-0.447-1.032-1v-11.447c0-0.553,0.461-1,1.032-1h9.356v-4.283c0-0.391,0.236-0.746,0.603-0.908      c0.137-0.061,0.284-0.092,0.429-0.092c0.243,0,0.484,0.084,0.675,0.244L34.029-14.55c0.226,0.189,0.356,0.465,0.356,0.754      c0,0.291-0.129,0.566-0.356,0.758L20.864-1.96C20.672-1.8,20.431-1.716,20.186-1.716L20.186-1.716z" /></g></g></g><g
       id="g20887-2_8_"
       transform="translate(-11.612281,-0.99443075)"
       style="fill:url(#linearGradient4174);fill-opacity:1"><path
         id="path4348-2-1_10_"
         d="m 26.126247,5.8716992 12.732647,11.1056788 -12.777189,10.999276 0.01064,-5.282989 -10.064979,-0.02028 0.02307,-11.446977 10.06498,0.02028 0.01083,-5.3749888 z"
         style="fill:url(#linearGradient4261);fill-opacity:1"
         inkscape:connector-curvature="0" /></g><g
       id="g20887-2_7_-5-9"
       transform="matrix(-0.9999445,-0.01053614,0.01053614,-0.9999445,152.51089,-42.705706)"
       style="fill:#666666"><g
         id="g2862_1_-0-7"
         style="fill:#666666"
         transform="translate(67.953803,-42.384745)"><g
           id="g2864_2_-7-5"
           style="fill:#666666"><linearGradient
             id="linearGradient4199"
             gradientUnits="userSpaceOnUse"
             x1="-538.65302"
             y1="-113.5706"
             x2="-538.65302"
             y2="-96.776199"
             gradientTransform="matrix(-1,0,0,-1,-516.8138,-118.608)"><stop
               offset="0"
               style="stop-color:#B1D2DB"
               id="stop3442-9" /><stop
               offset="1"
               style="stop-color:#0C7C9E"
               id="stop3444-2" /></linearGradient><polygon
             style="fill:url(#linearGradient4204);fill-opacity:1"
             id="polygon2871_1_-6-1"
             points="21.92,-18.537 31.986,-18.537 31.986,-9.09 21.92,-9.09 21.92,-4.908 11.693,-13.793 21.92,-22.634 "
             transform="translate(46.876607,-4.1463337)" /></g></g></g></g></svg>