<?xml version="1.0" encoding="utf-8"?>
<!-- Generator: Adobe Illustrator 14.0.0, SVG Export Plug-In . SVG Version: 6.00 Build 43363)  -->
<!DOCTYPE svg PUBLIC "-//W3C//DTD SVG 1.1//EN" "http://www.w3.org/Graphics/SVG/1.1/DTD/svg11.dtd">
<svg version="1.1"
	 id="svg1307" sodipodi:docbase="D:\radix\dev\trunk\org.radixware\kernel\designer\src\common.resources\src\org\radixware\kernel\designer\resources\icons\arrow" sodipodi:docname="up_right.svg" inkscape:version="0.45.1" sodipodi:version="0.32" inkscape:output_extension="org.inkscape.output.svg.inkscape" xmlns:ns="http://creativecommons.org/ns#" xmlns:dc="http://purl.org/dc/elements/1.1/" xmlns:cc="http://web.resource.org/cc/" xmlns:rdf="http://www.w3.org/1999/02/22-rdf-syntax-ns#" xmlns:svg="http://www.w3.org/2000/svg" xmlns:sodipodi="http://sodipodi.sourceforge.net/DTD/sodipodi-0.dtd" xmlns:inkscape="http://www.inkscape.org/namespaces/inkscape"
	 xmlns="http://www.w3.org/2000/svg" xmlns:xlink="http://www.w3.org/1999/xlink" x="0px" y="0px" width="32px" height="32px"
	 viewBox="0 0 32 32" enable-background="new 0 0 32 32" xml:space="preserve">
<sodipodi:namedview  id="base" pagecolor="#ffffff" bordercolor="#666666" borderopacity="1.0" showgrid="true" inkscape:zoom="7" inkscape:cx="36.573721" inkscape:cy="17.267812" inkscape:current-layer="layer1" inkscape:pageopacity="0.0" inkscape:pageshadow="2" inkscape:window-width="1280" inkscape:window-height="974" inkscape:window-x="-8" inkscape:window-y="-8" inkscape:document-units="px" inkscape:grid-bbox="true">
	</sodipodi:namedview>
<g>
	<path id="path4235_23_" opacity="0.98" fill="#020202" enable-background="new    " d="M18.423,5.997
		c-0.183,0-0.368,0.039-0.538,0.123c-0.427,0.204-0.7,0.629-0.709,1.102l-0.09,4.856c-1.099,0.079-2.014,0.113-2.874,0.113
		c-5.588,0-8.928-1.661-10.82-5.383C3.176,6.384,2.743,6.126,2.28,6.126c-0.07,0-0.142,0.005-0.212,0.017
		C1.528,6.235,1.114,6.67,1.043,7.209C1.02,7.387,0.512,11.592,3.68,15.344c2.727,3.228,7.23,5.076,13.407,5.5l0.088,3.941
		c0.01,0.471,0.286,0.896,0.71,1.096c0.173,0.08,0.353,0.122,0.538,0.122c0.27,0,0.54-0.087,0.762-0.259l11.331-8.754
		C30.82,16.755,31,16.39,31,16.003c0-0.388-0.18-0.752-0.484-0.986L19.185,6.26C18.963,6.084,18.695,5.997,18.423,5.997
		L18.423,5.997z"/>
	<path id="path7827_43_" fill="#00ACDA" d="M29.756,16.001L18.425,7.245l-0.114,5.986c-6.027,0.519-12.776,0.536-16.028-5.86
		c0,0-1.522,11.611,16.028,12.288l0.114,5.098L29.756,16.001L29.756,16.001z"/>
	
		<linearGradient id="path4246_1_" gradientUnits="userSpaceOnUse" x1="4.4087" y1="-8.2896" x2="27.7148" y2="-8.2896" gradientTransform="matrix(1 0 0 -1 0 7.7129)">
		<stop  offset="0" style="stop-color:#B1D2DB"/>
		<stop  offset="1" style="stop-color:#0B7C9E"/>
	</linearGradient>
	<path id="path4246_21_" fill="url(#path4246_1_)" d="M19.535,14.375l-1.116,0.096c-1.697,0.146-2.996,0.21-4.206,0.21
		c-2.938,0-6.746-0.354-9.805-2.743c0.297,0.604,0.693,1.225,1.212,1.832c2.429,2.848,6.715,4.412,12.741,4.643l1.17,0.045
		l0.083,3.801l8.101-6.259l-8.091-6.256L19.535,14.375z"/>
</g>
</svg>
