<?xml version="1.0" encoding="UTF-8" standalone="no"?>
<!-- Generator: Adobe Illustrator 14.0.0, SVG Export Plug-In . SVG Version: 6.00 Build 43363)  -->

<svg
   xmlns:dc="http://purl.org/dc/elements/1.1/"
   xmlns:cc="http://creativecommons.org/ns#"
   xmlns:rdf="http://www.w3.org/1999/02/22-rdf-syntax-ns#"
   xmlns:svg="http://www.w3.org/2000/svg"
   xmlns="http://www.w3.org/2000/svg"
   xmlns:xlink="http://www.w3.org/1999/xlink"
   xmlns:sodipodi="http://sodipodi.sourceforge.net/DTD/sodipodi-0.dtd"
   xmlns:inkscape="http://www.inkscape.org/namespaces/inkscape"
   version="1.1"
   id="Layer_1"
   x="0px"
   y="0px"
   width="32px"
   height="32px"
   viewBox="0 0 32 32"
   enable-background="new 0 0 32 32"
   xml:space="preserve"
   inkscape:version="0.47pre4 "
   sodipodi:docname="user.svg"><metadata
   id="metadata2869"><rdf:RDF><cc:Work
       rdf:about=""><dc:format>image/svg+xml</dc:format><dc:type
         rdf:resource="http://purl.org/dc/dcmitype/StillImage" /></cc:Work></rdf:RDF></metadata><defs
   id="defs2867"><inkscape:perspective
   sodipodi:type="inkscape:persp3d"
   inkscape:vp_x="0 : 16 : 1"
   inkscape:vp_y="0 : 1000 : 0"
   inkscape:vp_z="32 : 16 : 1"
   inkscape:persp3d-origin="16 : 10.666667 : 1"
   id="perspective2871" />
	
	
	
		<linearGradient
   gradientTransform="matrix(1,0,0,-1,-844.6201,-1180.5195)"
   y2="-1206.3472"
   x2="872.3828"
   y1="-1206.3472"
   x1="848.8564"
   gradientUnits="userSpaceOnUse"
   id="path5823_1_">
		<stop
   id="stop2845"
   style="stop-color:#B1D2DB"
   offset="0" />
		<stop
   id="stop2847"
   style="stop-color:#107D9F"
   offset="1" />
	</linearGradient>
	
	
	
	
	
	
	
	
	
		<linearGradient
   gradientTransform="matrix(1,0,0,-1,-844.6201,-1180.5195)"
   y2="-1192.8711"
   x2="869.3447"
   y1="-1192.8711"
   x1="851.8955"
   gradientUnits="userSpaceOnUse"
   id="path5850_1_">
		<stop
   id="stop2858"
   style="stop-color:#E0B59C;stop-opacity:0"
   offset="0" />
		<stop
   id="stop2860"
   style="stop-color:#E0B59C"
   offset="1" />
	</linearGradient>
	
	
	
<linearGradient
   inkscape:collect="always"
   xlink:href="#path5850_1_"
   id="linearGradient2882"
   gradientUnits="userSpaceOnUse"
   gradientTransform="matrix(1,0,0,-1,-844.6201,-1180.5195)"
   x1="851.8955"
   y1="-1192.8711"
   x2="869.3447"
   y2="-1192.8711" /><linearGradient
   inkscape:collect="always"
   xlink:href="#path5823_1_"
   id="linearGradient2892"
   gradientUnits="userSpaceOnUse"
   gradientTransform="matrix(1,0,0,-1,-844.6201,-1180.5195)"
   x1="848.8564"
   y1="-1206.3472"
   x2="872.3828"
   y2="-1206.3472" /></defs><sodipodi:namedview
   pagecolor="#ffffff"
   bordercolor="#666666"
   borderopacity="1"
   objecttolerance="10"
   gridtolerance="10"
   guidetolerance="10"
   inkscape:pageopacity="0"
   inkscape:pageshadow="2"
   inkscape:window-width="640"
   inkscape:window-height="481"
   id="namedview2865"
   showgrid="false"
   inkscape:zoom="7.375"
   inkscape:cx="16"
   inkscape:cy="16"
   inkscape:window-x="0"
   inkscape:window-y="0"
   inkscape:window-maximized="0"
   inkscape:current-layer="Layer_1" />
<path
   style="fill:#231f20"
   d="m 1.9,32 0.094,-1.123 c 0.525,-6.293 6.68,-11.222 14.008,-11.222 7.326,0 13.478,4.929 14.001,11.222 L 30.1,32 H 1.9 z"
   id="path5812_2_" /><path
   style="fill:#00acda"
   d="M 28.972,30.962 C 28.493,25.227 22.877,20.693 16.002,20.693 9.124,20.693 3.51,25.226 3.029,30.962 h 25.943 z"
   id="path5814_2_" /><path
   style="fill:url(#linearGradient2892)"
   d="m 4.237,29.924 c 1.038,-4.675 5.967,-8.192 11.766,-8.192 5.799,0 10.725,3.518 11.76,8.192 H 4.237 z"
   id="path5823_2_" /><path
   style="fill:#231f20"
   d="m 14.1,30.779 c -0.574,0 -1.041,-0.464 -1.041,-1.043 v -7.621 c 0,-0.572 0.464,-1.038 1.041,-1.038 h 3.34 c 0.573,0 1.037,0.461 1.037,1.038 v 7.621 c 0,0.576 -0.461,1.043 -1.037,1.043 H 14.1 z"
   id="path5827_2_" /><rect
   style="fill:#faa81e"
   height="7.6220002"
   width="3.3399999"
   y="22.117001"
   x="14.1"
   id="rect5829_2_" /><rect
   style="fill:#231f20"
   height="1.2640001"
   width="4.7649999"
   y="24.563999"
   x="13.488"
   id="rect5831_2_" /><path
   style="fill:#231f20"
   d="m 16.002,23.155 c -4.87,0 -9.125,-3.282 -10.409,-7.91 -1.326,-0.295 -2.322,-1.481 -2.322,-2.894 0,-1.415 0.993,-2.6 2.322,-2.893 1.281,-4.628 5.536,-7.91 10.409,-7.91 4.869,0 9.124,3.282 10.407,7.91 1.324,0.293 2.319,1.479 2.319,2.893 0,1.412 -0.993,2.598 -2.319,2.894 -1.283,4.631 -5.538,7.91 -10.407,7.91 l 0,0 z"
   id="path5835_2_" /><path
   style="fill:#efdacb"
   d="m 25.765,12.352 c 0,5.394 -4.372,9.764 -9.762,9.764 -5.393,0 -9.765,-4.37 -9.765,-9.764 0,-5.393 4.373,-9.762 9.765,-9.762 5.39,-0.003 9.762,4.367 9.762,9.762 z"
   id="path5837_2_" /><circle
   style="fill:#efdacb"
   sodipodi:ry="1.925"
   sodipodi:rx="1.925"
   sodipodi:cy="12.352"
   sodipodi:cx="6.237"
   r="1.925"
   cy="12.352"
   cx="6.237"
   id="circle5839_2_" /><circle
   style="fill:#efdacb"
   sodipodi:ry="1.925"
   sodipodi:rx="1.925"
   sodipodi:cy="12.352"
   sodipodi:cx="25.764999"
   r="1.925"
   cy="12.352"
   cx="25.764999"
   id="circle5841_2_" /><path
   style="fill:url(#linearGradient2882)"
   d="m 16.002,21.077 c -4.813,0 -8.727,-3.917 -8.727,-8.726 0,-4.811 3.915,-8.726 8.727,-8.726 4.808,0 8.722,3.915 8.722,8.726 0.001,4.809 -3.913,8.726 -8.722,8.726 l 0,0 z"
   id="path5850_2_" /><path
   style="fill:#231f20"
   d="m 6.443,10.504 c -0.085,0.981 0.13,2.916 0.317,3.87 -0.01,-1.197 -0.186,-3.151 0.377,-4.203 0.783,-1.471 9.133,0.28 12.26,-6.032 -0.128,1.839 -0.424,3.527 4.703,7.248 0.266,0.189 1.437,3.164 1.357,3.406 -0.082,-0.771 0.328,-2.704 0.323,-3.516 C 25.763,9.596 25.598,8.504 25.086,7.743 24.502,6.88 23.01,5.237 22.261,4.502 19.7,1.995 15.708,1.451 12.346,2.672 10.604,3.303 9.466,4.703 8.272,5.863 7.793,6.327 5.168,9.967 6.207,10.268"
   id="path5852_2_" /><path
   style="fill:#231f20"
   d="m 18.808,2.33 c 0,-0.776 0,-1.555 -0.005,-2.33 0.728,1.936 1.186,2.175 2.688,1.106 C 20.966,2.272 20.919,2.687 20.919,2.687 21.721,2.329 21.658,2.232 22.538,2.291 22.118,2.475 21.374,2.99 21,3.259 21,3.4 20.639,3.109 20.616,3.25 19.545,2.567 20.346,2.759 19.043,2.449"
   id="path5854_2_" />
</svg>