<?xml version="1.0" encoding="utf-8"?>
<!-- Generator: Adobe Illustrator 14.0.0, SVG Export Plug-In . SVG Version: 6.00 Build 43363)  -->
<!DOCTYPE svg PUBLIC "-//W3C//DTD SVG 1.1//EN" "http://www.w3.org/Graphics/SVG/1.1/DTD/svg11.dtd">
<svg version="1.1" id="Layer_1" xmlns="http://www.w3.org/2000/svg" xmlns:xlink="http://www.w3.org/1999/xlink" x="0px" y="0px"
	 width="32px" height="32px" viewBox="0 0 32 32" enable-background="new 0 0 32 32" xml:space="preserve">
<g>
	<path id="path4760_4_" fill="#020202" d="M9.796,32c-1.391,0-2.523-1.133-2.523-2.525V2.523C7.272,1.134,8.401,0,9.796,0h12.408
		c1.391,0.001,2.523,1.133,2.523,2.523v26.953c0,1.391-1.131,2.523-2.523,2.523H9.796L9.796,32z"/>
	
		<linearGradient id="rect24553_1_" gradientUnits="userSpaceOnUse" x1="850.4893" y1="1349.1602" x2="865.8311" y2="1349.1602" gradientTransform="matrix(1 0 0 1 -842.1602 -1333.3594)">
		<stop  offset="0" style="stop-color:#BEDBEB"/>
		<stop  offset="0.0164" style="stop-color:#B7D1E1"/>
		<stop  offset="0.043" style="stop-color:#A3BBC7"/>
		<stop  offset="0.0667" style="stop-color:#8AA1AE"/>
		<stop  offset="0.5455" style="stop-color:#BEDBEB"/>
		<stop  offset="0.5614" style="stop-color:#C2DCEB"/>
		<stop  offset="0.6708" style="stop-color:#DAEBF2"/>
		<stop  offset="0.7715" style="stop-color:#ECF6F9"/>
		<stop  offset="0.8545" style="stop-color:#F0F8F9"/>
		<stop  offset="0.8593" style="stop-color:#EFF8F9"/>
		<stop  offset="0.8965" style="stop-color:#E8F5F7"/>
		<stop  offset="1" style="stop-color:#E7F4F7"/>
	</linearGradient>
	<path id="rect24553_5_" fill="url(#rect24553_1_)" d="M9.796,0.857h12.408c0.811,0,1.467,0.657,1.467,1.469v26.949
		c0,0.813-0.656,1.469-1.467,1.469H9.796c-0.813,0-1.467-0.656-1.467-1.469V2.325C8.329,1.515,8.985,0.857,9.796,0.857z"/>
	
		<linearGradient id="rect24579_1_" gradientUnits="userSpaceOnUse" x1="866.8857" y1="-1201.4873" x2="854.1851" y2="-1201.4873" gradientTransform="matrix(1 0 0 -1 -844.6201 -1181.5195)">
		<stop  offset="0" style="stop-color:#BEDBEB"/>
		<stop  offset="0.0164" style="stop-color:#B7D1E1"/>
		<stop  offset="0.043" style="stop-color:#A3BBC7"/>
		<stop  offset="0.0667" style="stop-color:#8AA1AE"/>
		<stop  offset="0.5455" style="stop-color:#BEDBEB"/>
		<stop  offset="0.5614" style="stop-color:#C2DCEB"/>
		<stop  offset="0.6708" style="stop-color:#DAEBF2"/>
		<stop  offset="0.7715" style="stop-color:#ECF6F9"/>
		<stop  offset="0.8545" style="stop-color:#F0F8F9"/>
		<stop  offset="0.8593" style="stop-color:#EFF8F9"/>
		<stop  offset="0.8965" style="stop-color:#E8F5F7"/>
		<stop  offset="1" style="stop-color:#E7F4F7"/>
	</linearGradient>
	<path id="rect24579_5_" fill="url(#rect24579_1_)" d="M11.337,10.529h9.326c0.926,0,1.674,0.75,1.674,1.676v15.529
		c0,0.926-0.748,1.674-1.674,1.674h-9.326c-0.926,0-1.676-0.748-1.676-1.674V12.205C9.661,11.279,10.411,10.529,11.337,10.529z"/>
	
		<linearGradient id="rect24583_1_" gradientUnits="userSpaceOnUse" x1="866.6221" y1="-1184.9619" x2="854.6506" y2="-1184.9619" gradientTransform="matrix(1 0 0 -1 -844.6201 -1181.5195)">
		<stop  offset="0" style="stop-color:#BEDBEB"/>
		<stop  offset="0.0164" style="stop-color:#B7D1E1"/>
		<stop  offset="0.043" style="stop-color:#A3BBC7"/>
		<stop  offset="0.0667" style="stop-color:#8AA1AE"/>
		<stop  offset="0.5455" style="stop-color:#BEDBEB"/>
		<stop  offset="0.5614" style="stop-color:#C2DCEB"/>
		<stop  offset="0.6708" style="stop-color:#DAEBF2"/>
		<stop  offset="0.7715" style="stop-color:#ECF6F9"/>
		<stop  offset="0.8545" style="stop-color:#F0F8F9"/>
		<stop  offset="0.8593" style="stop-color:#EFF8F9"/>
		<stop  offset="0.8965" style="stop-color:#E8F5F7"/>
		<stop  offset="1" style="stop-color:#E7F4F7"/>
	</linearGradient>
	<path id="rect24583_5_" fill="url(#rect24583_1_)" d="M11.128,1.857h9.742c0.813,0,1.469,0.657,1.469,1.468v0.236
		c0,0.812-0.656,1.468-1.469,1.468h-9.742c-0.811,0-1.467-0.656-1.467-1.468V3.324C9.661,2.515,10.317,1.857,11.128,1.857z"/>
	
		<linearGradient id="rect24585_1_" gradientUnits="userSpaceOnUse" x1="866.6221" y1="-1189.2461" x2="854.6506" y2="-1189.2461" gradientTransform="matrix(1 0 0 -1 -844.6201 -1181.5195)">
		<stop  offset="0" style="stop-color:#BEDBEB"/>
		<stop  offset="0.0164" style="stop-color:#B7D1E1"/>
		<stop  offset="0.043" style="stop-color:#A3BBC7"/>
		<stop  offset="0.0667" style="stop-color:#8AA1AE"/>
		<stop  offset="0.5455" style="stop-color:#BEDBEB"/>
		<stop  offset="0.5614" style="stop-color:#C2DCEB"/>
		<stop  offset="0.6708" style="stop-color:#DAEBF2"/>
		<stop  offset="0.7715" style="stop-color:#ECF6F9"/>
		<stop  offset="0.8545" style="stop-color:#F0F8F9"/>
		<stop  offset="0.8593" style="stop-color:#EFF8F9"/>
		<stop  offset="0.8965" style="stop-color:#E8F5F7"/>
		<stop  offset="1" style="stop-color:#E7F4F7"/>
	</linearGradient>
	<path id="rect24585_5_" fill="url(#rect24585_1_)" d="M11.128,6.143h9.742c0.813,0,1.469,0.657,1.469,1.469v0.233
		c0,0.813-0.656,1.468-1.469,1.468h-9.742c-0.811,0-1.467-0.655-1.467-1.468V7.611C9.661,6.801,10.317,6.143,11.128,6.143z"/>
	<path id="path24587_5_" fill="#345629" d="M21.603,12.73c0,0.698-0.566,1.268-1.266,1.268s-1.27-0.567-1.27-1.266V12.73
		c0-0.699,0.568-1.266,1.268-1.268C21.036,11.462,21.603,12.029,21.603,12.73L21.603,12.73z"/>
	<path id="path24589_4_" fill="#E92C2B" d="M21.603,15.999c0,0.7-0.566,1.271-1.266,1.271s-1.27-0.57-1.27-1.269v-0.002
		c0-0.7,0.568-1.267,1.268-1.267C21.036,14.732,21.603,15.299,21.603,15.999L21.603,15.999z"/>
	
		<linearGradient id="path4874_1_" gradientUnits="userSpaceOnUse" x1="864.2148" y1="-1197.5181" x2="865.6934" y2="-1197.5181" gradientTransform="matrix(1 0 0 -1 -844.6201 -1181.5195)">
		<stop  offset="0" style="stop-color:#F4959A"/>
		<stop  offset="1" style="stop-color:#901A1E"/>
	</linearGradient>
	<path id="path4874_4_" fill="url(#path4874_1_)" d="M20.339,16.736c-0.41,0-0.744-0.331-0.744-0.735c0-0.412,0.332-0.74,0.74-0.74
		c0.41,0,0.738,0.33,0.738,0.738C21.075,16.406,20.745,16.736,20.339,16.736L20.339,16.736L20.339,16.736z"/>
	
		<linearGradient id="path4882_1_" gradientUnits="userSpaceOnUse" x1="864.2148" y1="-1194.1626" x2="865.6934" y2="-1194.1626" gradientTransform="matrix(1 0 0 -1 -844.6201 -1181.5195)">
		<stop  offset="0" style="stop-color:#AED58A"/>
		<stop  offset="1" style="stop-color:#219046"/>
	</linearGradient>
	<path id="path4882_4_" fill="url(#path4882_1_)" d="M20.339,13.382c-0.41,0-0.744-0.331-0.744-0.737c0-0.411,0.332-0.74,0.74-0.74
		c0.41,0,0.738,0.33,0.738,0.737C21.075,13.05,20.745,13.382,20.339,13.382L20.339,13.382L20.339,13.382z"/>
</g>
</svg>
