<?xml version="1.0" encoding="utf-8"?>
<!-- Generator: Adobe Illustrator 14.0.0, SVG Export Plug-In . SVG Version: 6.00 Build 43363)  -->
<!DOCTYPE svg PUBLIC "-//W3C//DTD SVG 1.1//EN" "http://www.w3.org/Graphics/SVG/1.1/DTD/svg11.dtd">
<svg version="1.1" id="Layer_1" xmlns="http://www.w3.org/2000/svg" xmlns:xlink="http://www.w3.org/1999/xlink" x="0px" y="0px"
	 width="32px" height="32px" viewBox="0 0 32 32" enable-background="new 0 0 32 32" xml:space="preserve">
<g>
	<g>
		<path id="path4760_4_" fill="#020202" d="M17.068,32c-1.391,0-2.523-1.133-2.523-2.525V2.523c0-1.39,1.129-2.523,2.523-2.523
			h12.408C30.867,0.001,32,1.133,32,2.523v26.953C32,30.867,30.869,32,29.477,32H17.068L17.068,32z"/>
		
			<linearGradient id="rect24553_1_" gradientUnits="userSpaceOnUse" x1="857.7617" y1="1349.1602" x2="873.1035" y2="1349.1602" gradientTransform="matrix(1 0 0 1 -842.1602 -1333.3594)">
			<stop  offset="0" style="stop-color:#BEDBEB"/>
			<stop  offset="0.0164" style="stop-color:#B7D1E1"/>
			<stop  offset="0.043" style="stop-color:#A3BBC7"/>
			<stop  offset="0.0667" style="stop-color:#8AA1AE"/>
			<stop  offset="0.5455" style="stop-color:#BEDBEB"/>
			<stop  offset="0.5614" style="stop-color:#C2DCEB"/>
			<stop  offset="0.6708" style="stop-color:#DAEBF2"/>
			<stop  offset="0.7715" style="stop-color:#ECF6F9"/>
			<stop  offset="0.8545" style="stop-color:#F0F8F9"/>
			<stop  offset="0.8593" style="stop-color:#EFF8F9"/>
			<stop  offset="0.8965" style="stop-color:#E8F5F7"/>
			<stop  offset="1" style="stop-color:#E7F4F7"/>
		</linearGradient>
		<path id="rect24553_5_" fill="url(#rect24553_1_)" d="M17.068,0.857h12.408c0.811,0,1.467,0.657,1.467,1.469v26.949
			c0,0.813-0.656,1.469-1.467,1.469H17.068c-0.813,0-1.467-0.656-1.467-1.469V2.325C15.602,1.515,16.258,0.857,17.068,0.857z"/>
		
			<linearGradient id="rect24579_1_" gradientUnits="userSpaceOnUse" x1="874.1582" y1="-1201.4873" x2="861.4576" y2="-1201.4873" gradientTransform="matrix(1 0 0 -1 -844.6201 -1181.5195)">
			<stop  offset="0" style="stop-color:#BEDBEB"/>
			<stop  offset="0.0164" style="stop-color:#B7D1E1"/>
			<stop  offset="0.043" style="stop-color:#A3BBC7"/>
			<stop  offset="0.0667" style="stop-color:#8AA1AE"/>
			<stop  offset="0.5455" style="stop-color:#BEDBEB"/>
			<stop  offset="0.5614" style="stop-color:#C2DCEB"/>
			<stop  offset="0.6708" style="stop-color:#DAEBF2"/>
			<stop  offset="0.7715" style="stop-color:#ECF6F9"/>
			<stop  offset="0.8545" style="stop-color:#F0F8F9"/>
			<stop  offset="0.8593" style="stop-color:#EFF8F9"/>
			<stop  offset="0.8965" style="stop-color:#E8F5F7"/>
			<stop  offset="1" style="stop-color:#E7F4F7"/>
		</linearGradient>
		<path id="rect24579_5_" fill="url(#rect24579_1_)" d="M18.609,10.529h9.326c0.926,0,1.674,0.75,1.674,1.676v15.529
			c0,0.926-0.748,1.674-1.674,1.674h-9.326c-0.926,0-1.676-0.748-1.676-1.674V12.205C16.934,11.279,17.684,10.529,18.609,10.529z"/>
		
			<linearGradient id="rect24583_1_" gradientUnits="userSpaceOnUse" x1="873.8945" y1="-1184.9619" x2="861.923" y2="-1184.9619" gradientTransform="matrix(1 0 0 -1 -844.6201 -1181.5195)">
			<stop  offset="0" style="stop-color:#BEDBEB"/>
			<stop  offset="0.0164" style="stop-color:#B7D1E1"/>
			<stop  offset="0.043" style="stop-color:#A3BBC7"/>
			<stop  offset="0.0667" style="stop-color:#8AA1AE"/>
			<stop  offset="0.5455" style="stop-color:#BEDBEB"/>
			<stop  offset="0.5614" style="stop-color:#C2DCEB"/>
			<stop  offset="0.6708" style="stop-color:#DAEBF2"/>
			<stop  offset="0.7715" style="stop-color:#ECF6F9"/>
			<stop  offset="0.8545" style="stop-color:#F0F8F9"/>
			<stop  offset="0.8593" style="stop-color:#EFF8F9"/>
			<stop  offset="0.8965" style="stop-color:#E8F5F7"/>
			<stop  offset="1" style="stop-color:#E7F4F7"/>
		</linearGradient>
		<path id="rect24583_5_" fill="url(#rect24583_1_)" d="M18.4,1.857h9.742c0.813,0,1.469,0.657,1.469,1.468v0.236
			c0,0.812-0.656,1.468-1.469,1.468H18.4c-0.811,0-1.467-0.656-1.467-1.468V3.324C16.934,2.515,17.59,1.857,18.4,1.857z"/>
		
			<linearGradient id="rect24585_1_" gradientUnits="userSpaceOnUse" x1="873.8945" y1="-1189.2461" x2="861.923" y2="-1189.2461" gradientTransform="matrix(1 0 0 -1 -844.6201 -1181.5195)">
			<stop  offset="0" style="stop-color:#BEDBEB"/>
			<stop  offset="0.0164" style="stop-color:#B7D1E1"/>
			<stop  offset="0.043" style="stop-color:#A3BBC7"/>
			<stop  offset="0.0667" style="stop-color:#8AA1AE"/>
			<stop  offset="0.5455" style="stop-color:#BEDBEB"/>
			<stop  offset="0.5614" style="stop-color:#C2DCEB"/>
			<stop  offset="0.6708" style="stop-color:#DAEBF2"/>
			<stop  offset="0.7715" style="stop-color:#ECF6F9"/>
			<stop  offset="0.8545" style="stop-color:#F0F8F9"/>
			<stop  offset="0.8593" style="stop-color:#EFF8F9"/>
			<stop  offset="0.8965" style="stop-color:#E8F5F7"/>
			<stop  offset="1" style="stop-color:#E7F4F7"/>
		</linearGradient>
		<path id="rect24585_5_" fill="url(#rect24585_1_)" d="M18.4,6.143h9.742c0.813,0,1.469,0.657,1.469,1.469v0.233
			c0,0.813-0.656,1.468-1.469,1.468H18.4c-0.811,0-1.467-0.655-1.467-1.468V7.611C16.934,6.801,17.59,6.143,18.4,6.143z"/>
		<path id="path24587_5_" fill="#345629" d="M28.875,12.73c0,0.698-0.566,1.268-1.266,1.268s-1.27-0.567-1.27-1.266V12.73
			c0-0.699,0.568-1.266,1.268-1.268C28.309,11.462,28.875,12.029,28.875,12.73L28.875,12.73z"/>
		<path id="path24589_4_" fill="#E92C2B" d="M28.875,15.999c0,0.7-0.566,1.271-1.266,1.271s-1.27-0.57-1.27-1.269v-0.002
			c0-0.7,0.568-1.267,1.268-1.267C28.309,14.732,28.875,15.299,28.875,15.999L28.875,15.999z"/>
		
			<linearGradient id="path4874_1_" gradientUnits="userSpaceOnUse" x1="871.4873" y1="-1197.5181" x2="872.9658" y2="-1197.5181" gradientTransform="matrix(1 0 0 -1 -844.6201 -1181.5195)">
			<stop  offset="0" style="stop-color:#F4959A"/>
			<stop  offset="1" style="stop-color:#901A1E"/>
		</linearGradient>
		<path id="path4874_4_" fill="url(#path4874_1_)" d="M27.611,16.736c-0.41,0-0.744-0.331-0.744-0.735c0-0.412,0.332-0.74,0.74-0.74
			c0.41,0,0.738,0.33,0.738,0.738C28.348,16.406,28.018,16.736,27.611,16.736L27.611,16.736L27.611,16.736z"/>
		
			<linearGradient id="path4882_1_" gradientUnits="userSpaceOnUse" x1="871.4873" y1="-1194.1626" x2="872.9658" y2="-1194.1626" gradientTransform="matrix(1 0 0 -1 -844.6201 -1181.5195)">
			<stop  offset="0" style="stop-color:#AED58A"/>
			<stop  offset="1" style="stop-color:#219046"/>
		</linearGradient>
		<path id="path4882_4_" fill="url(#path4882_1_)" d="M27.611,13.382c-0.41,0-0.744-0.331-0.744-0.737c0-0.411,0.332-0.74,0.74-0.74
			c0.41,0,0.738,0.33,0.738,0.737C28.348,13.05,28.018,13.382,27.611,13.382L27.611,13.382L27.611,13.382z"/>
	</g>
	<g>
		<path id="path4588_4_" fill="#020202" d="M4.187,32c-0.554,0-1-0.445-1-1v-1.375c0-0.553,0.446-1,1-1H8.75v-0.289H1
			c-0.553,0-1-0.447-1-1V11.68c0-0.551,0.447-1,1-1h23.375c0.553,0,1,0.449,1,1v15.656c0,0.553-0.447,1-1,1h-7.751v0.289h4.563
			c0.553,0,1,0.447,1,1V31c0,0.555-0.447,1-1,1H4.187z"/>
		<path id="rect24612_5_" fill="#FFFFFF" d="M0.998,11.68v15.656h8.75v2.289H4.186V31h17.002v-1.375h-5.565v-2.289h8.751V11.68
			H0.998z"/>
		<rect id="rect4591_4_" x="9.748" y="27.336" fill="#B3B2B3" width="5.876" height="2.289"/>
		<rect id="rect4593_4_" x="4.187" y="29.625" fill="#FFFFFF" width="16.999" height="1.375"/>
		<rect id="rect24614_5_" x="2.115" y="12.853" fill="#02ABD8" width="21.145" height="13.323"/>
		<linearGradient id="SVGID_1_" gradientUnits="userSpaceOnUse" x1="5.1841" y1="24.3486" x2="21.7494" y2="13.6758">
			<stop  offset="0" style="stop-color:#3BACD9"/>
			<stop  offset="0.5" style="stop-color:#A7CDDD"/>
			<stop  offset="1" style="stop-color:#2175BB"/>
		</linearGradient>
		<rect x="3.115" y="13.853" fill="url(#SVGID_1_)" width="19.145" height="11.323"/>
	</g>
</g>
</svg>
