<?xml version="1.0" encoding="utf-8"?>
<!-- Generator: Adobe Illustrator 14.0.0, SVG Export Plug-In . SVG Version: 6.00 Build 43363)  -->
<!DOCTYPE svg PUBLIC "-//W3C//DTD SVG 1.1//EN" "http://www.w3.org/Graphics/SVG/1.1/DTD/svg11.dtd">
<svg version="1.1"
	 id="Layer_1" xmlns:dc="http://purl.org/dc/elements/1.1/" xmlns:svg="http://www.w3.org/2000/svg" xmlns:rdf="http://www.w3.org/1999/02/22-rdf-syntax-ns#" xmlns:inkscape="http://www.inkscape.org/namespaces/inkscape" xmlns:cc="http://creativecommons.org/ns#" xmlns:sodipodi="http://sodipodi.sourceforge.net/DTD/sodipodi-0.dtd" inkscape:version="0.47pre4 " sodipodi:docname="role.svg"
	 xmlns="http://www.w3.org/2000/svg" xmlns:xlink="http://www.w3.org/1999/xlink" x="0px" y="0px" width="32px" height="32px"
	 viewBox="0 0 32 32" enable-background="new 0 0 32 32" xml:space="preserve">
<defs>
	
	
		<inkscape:perspective  id="perspective41" sodipodi:type="inkscape:persp3d" inkscape:vp_x="0 : 16 : 1" inkscape:vp_y="0 : 1000 : 0" inkscape:vp_z="32 : 16 : 1" inkscape:persp3d-origin="16 : 10.666667 : 1">
		</inkscape:perspective>
</defs>
<sodipodi:namedview  id="namedview35" inkscape:window-maximized="0" objecttolerance="10" inkscape:cx="16" guidetolerance="10" bordercolor="#666666" inkscape:cy="16" borderopacity="1" showgrid="false" gridtolerance="10" inkscape:zoom="7.375" pagecolor="#ffffff" inkscape:current-layer="Layer_1" inkscape:window-y="0" inkscape:window-x="0" inkscape:window-height="481" inkscape:window-width="640" inkscape:pageshadow="2" inkscape:pageopacity="0">
	</sodipodi:namedview>
<g id="g2847">
	<polygon fill="#FFFFFF" points="27.271,27.869 14.614,27.568 13.565,10.068 30.947,10.068 	"/>
	<path id="path3" d="M21.261,32c-3.752,0-7.12-2.79-9.238-7.654c-1.416-3.879-1.466-10.4-1.313-16.878
		c0.008-0.327,0.164-0.631,0.424-0.828c0.188-0.141,0.414-0.215,0.643-0.215c0.089,0,0.18,0.012,0.269,0.034
		c3.482,0.906,6.512,1.329,9.534,1.329c3.03,0,5.997-0.433,9.071-1.321c0.098-0.028,0.197-0.042,0.296-0.042
		c0.237,0,0.471,0.079,0.662,0.229c0.27,0.213,0.422,0.544,0.404,0.888c-0.051,1.072-0.087,2.215-0.123,3.39
		c-0.155,4.979-0.333,10.621-1.788,13.772C28.159,29.329,24.93,32,21.261,32L21.261,32z M21.116,23.646
		c1.106,0,2.213,0.188,3.371,0.582c-0.873-1.065-1.994-1.668-3.21-1.668c-1.188,0-2.302,0.571-3.197,1.581
		C19.099,23.81,20.107,23.646,21.116,23.646L21.116,23.646z M17.919,13.83c-0.902,0-2.472,1.326-2.691,1.869
		c-0.549,1.096-0.415,2.503-0.135,2.737c0.585-0.092,1.232-0.667,1.803-1.176c0.457-0.406,0.855-0.76,1.315-0.948
		c0.244-0.342,0.511-1.689-0.133-2.438C18.064,13.857,18.041,13.83,17.919,13.83L17.919,13.83z M24.17,16.402
		c0.786,0.219,1.932,0.537,3.049,1.576c0.169-0.685,0.198-1.783-0.103-2.214c-0.684-0.982-2.21-2.061-2.917-2.061
		c-0.047,0-0.066,0.006-0.066,0.006c-0.532,0.849-0.499,2.172-0.314,2.592C23.819,16.302,24.045,16.367,24.17,16.402z"/>
	<path id="path3236" fill="#01ADDB" d="M11.777,7.493c-0.119,5.021-0.222,12.461,1.224,16.426
		c4.039,9.278,12.357,9.313,16.131,0.337c1.692-3.658,1.551-11.185,1.815-16.763C23.729,9.58,17.639,9.019,11.777,7.493z
		 M14.237,15.298c0.468-1.157,3.479-3.483,4.651-2.119c1.171,1.364,0.579,3.838-0.218,4.102c-0.809,0.269-1.948,2.023-3.508,2.192
		C13.646,19.635,13.439,16.88,14.237,15.298z M23.256,13.124c0.916-1.423,3.727,0.577,4.738,2.03c0.97,1.395,0.127,5.389-1.144,3.97
		c-1.313-1.464-2.737-1.568-3.551-1.872C22.499,16.953,22.341,14.548,23.256,13.124z M15.554,26.54
		c2.222-6.699,9.216-6.745,11.287-0.056C22.831,24.194,19.506,24.034,15.554,26.54z"/>
	
		<linearGradient id="path11_1_" gradientUnits="userSpaceOnUse" x1="311.4033" y1="-392.1948" x2="294.3623" y2="-392.1948" gradientTransform="matrix(1 0 0 -1 -281.54 -372.8398)">
		<stop  offset="0" style="stop-color:#B2D3DC"/>
		<stop  offset="1" style="stop-color:#0A7C9F"/>
	</linearGradient>
	<path id="path11" fill="url(#path11_1_)" d="M21.261,29.865c-1.748,0-3.457-0.914-4.918-2.559c1.68-1.026,3.245-1.524,4.774-1.524
		c1.54,0,3.131,0.481,4.986,1.514C24.706,28.964,23.036,29.865,21.261,29.865L21.261,29.865z M14.887,25.283
		c-0.326-0.554-0.628-1.15-0.907-1.791c-0.407-1.117-0.683-2.586-0.865-4.201c0.036,0.068,0.074,0.139,0.114,0.204
		c0.417,0.679,1.06,1.052,1.807,1.052c0.078,0,0.157-0.004,0.239-0.014c1.311-0.141,2.312-1.03,3.04-1.68
		c0.242-0.214,0.572-0.51,0.702-0.563c0.647-0.215,1.156-0.863,1.422-1.821c0.301-1.089,0.289-2.786-0.74-3.987
		c-0.444-0.515-1.059-0.789-1.78-0.789c-1.865,0-4.16,1.939-4.672,3.204c-0.158,0.312-0.289,0.685-0.382,1.087
		c-0.117-2.553-0.09-5.147-0.05-7.137c3.128,0.731,5.944,1.074,8.766,1.074c2.761,0,5.472-0.335,8.241-1.023
		c-0.024,0.641-0.044,1.298-0.066,1.965c-0.063,1.984-0.128,4.079-0.274,6.046c0.003-0.862-0.171-1.734-0.612-2.368
		c-0.834-1.2-2.896-2.977-4.669-2.977c-0.781,0-1.437,0.348-1.843,0.978c-0.87,1.357-0.949,3.266-0.58,4.372
		c0.283,0.855,0.779,1.197,1.146,1.335c0.197,0.073,0.424,0.138,0.675,0.206c0.762,0.213,1.627,0.453,2.456,1.378
		c0.485,0.541,0.987,0.654,1.323,0.654c0.374,0,1.075-0.143,1.576-1.102c0.192-0.367,0.348-0.868,0.439-1.424
		c-0.219,2.347-0.581,4.438-1.229,5.842c-0.204,0.488-0.424,0.95-0.656,1.383c-1.229-2.965-3.549-4.767-6.229-4.767
		C18.569,20.425,16.185,22.262,14.887,25.283L14.887,25.283z"/>
	<polygon fill="#FFFFFF" points="15.824,20.426 3.167,20.125 2.118,2.625 19.5,2.625 	"/>
	<path id="path25" d="M10.417,25.13c-3.69,0-7-2.74-9.081-7.522C-0.055,13.802-0.104,7.402,0.047,1.043
		C0.053,0.716,0.21,0.412,0.471,0.215C0.658,0.074,0.884,0,1.114,0c0.089,0,0.18,0.012,0.269,0.034
		c3.414,0.889,6.383,1.304,9.347,1.304c2.97,0,5.878-0.424,8.892-1.295C19.72,0.015,19.82,0,19.918,0
		c0.238,0,0.472,0.079,0.662,0.229c0.271,0.214,0.422,0.545,0.404,0.889c-0.05,1.049-0.085,2.17-0.119,3.32
		c-0.154,4.888-0.328,10.427-1.759,13.523C17.199,22.505,14.026,25.13,10.417,25.13L10.417,25.13z M6.021,16.859
		c1.222,1.759,2.686,2.728,4.208,2.728c1.499,0,3.003-0.927,4.38-2.662c-1.288,0.327-2.712,0.503-4.182,0.503
		C8.849,17.428,7.355,17.23,6.021,16.859L6.021,16.859z M15.956,7.227c-0.845,0-2.109,0.679-2.554,1.372
		c-0.736,1.144-0.667,1.542-0.658,1.583c0.008,0.034,0.081,0.078,0.112,0.096c0.031,0.019,0.088,0.042,0.227,0.042
		c0.253,0,0.608-0.082,0.985-0.167c0.559-0.127,1.192-0.27,1.907-0.27c0.27,0,0.537,0.021,0.793,0.063
		c0.214-0.455,0.082-1.958-0.422-2.616C16.3,7.265,16.153,7.227,15.956,7.227L15.956,7.227z M3.999,9.583
		c0.948,0,1.78,0.204,2.449,0.368c0.454,0.111,0.849,0.208,1.155,0.217c0.088-0.211,0.109-0.834-0.411-1.439
		c-0.78-0.909-2.196-1.72-2.822-1.76C3.565,7.774,3.495,9.34,3.76,9.627C3.796,9.584,3.899,9.583,3.999,9.583L3.999,9.583z"/>
	<path id="path1304" fill="#EC2727" d="M1.114,1.068C0.998,5.994,0.896,13.292,2.315,17.181c3.963,9.102,12.124,9.136,15.824,0.333
		c1.66-3.591,1.521-10.972,1.78-16.446C12.84,3.117,6.863,2.565,1.114,1.068z M3.658,6.17C4.33,5.295,6.853,6.693,8.002,8.032
		c1.15,1.339,0.803,3.155-0.255,3.201c-1.06,0.046-2.346-0.655-4.005-0.578C2.127,10.73,2.225,7.548,3.658,6.17z M12.505,8.021
		c0.898-1.397,3.739-2.58,4.692-1.342c0.949,1.238,1.197,4.637-0.56,4.326c-1.766-0.311-3.25,0.801-4.306,0.201
		C11.273,10.604,11.606,9.418,12.505,8.021z M3.65,14.673c3.565,2.307,10.215,2.188,13.632,0.004
		C12.975,23.09,6.762,22.19,3.65,14.673z"/>
	
		<linearGradient id="path33_1_" gradientUnits="userSpaceOnUse" x1="283.6582" y1="-385.5493" x2="300.334" y2="-385.5493" gradientTransform="matrix(1 0 0 -1 -281.54 -372.8398)">
		<stop  offset="0" style="stop-color:#F6979A"/>
		<stop  offset="1" style="stop-color:#901A1D"/>
	</linearGradient>
	<path id="path33" fill="url(#path33_1_)" d="M10.417,22.995c-2.759,0-5.423-2.332-7.123-6.24c-0.098-0.266-0.186-0.552-0.268-0.855
		c1.753,3.712,4.345,5.822,7.204,5.822c2.562,0,5.012-1.703,7.022-4.842c-0.026,0.063-0.055,0.125-0.082,0.187
		C15.58,20.846,13.125,22.995,10.417,22.995L10.417,22.995z M10.426,15.292c-2.449,0-4.707-0.553-6.196-1.515
		c-0.177-0.114-0.378-0.171-0.58-0.171c-0.244,0-0.487,0.083-0.684,0.247c-0.131,0.11-0.23,0.245-0.295,0.395
		c-0.16-0.946-0.277-1.983-0.36-3.057c0.371,0.343,0.848,0.534,1.377,0.534L4,11.719c0.69,0,1.325,0.156,1.94,0.306
		c0.584,0.145,1.135,0.279,1.706,0.279c0.016,0,0.133-0.002,0.149-0.003c0.772-0.033,1.431-0.509,1.762-1.273
		c0.487-1.123,0.188-2.606-0.743-3.691C7.779,6.131,5.768,4.83,4.324,4.83c-0.598,0-1.11,0.219-1.453,0.619
		C2.58,5.739,2.328,6.086,2.124,6.471C2.109,5,2.127,3.604,2.151,2.424c3.062,0.713,5.817,1.049,8.58,1.049
		c2.703,0,5.354-0.328,8.063-0.998c-0.022,0.619-0.043,1.253-0.063,1.897c-0.029,0.916-0.06,1.855-0.097,2.794
		c-0.157-0.443-0.361-0.836-0.593-1.137c-0.466-0.604-1.205-0.938-2.086-0.938c-1.565,0-3.516,1.055-4.35,2.353
		c-0.855,1.329-1.152,2.361-0.935,3.247c0.15,0.608,0.54,1.107,1.13,1.442c0.38,0.216,0.8,0.322,1.285,0.322
		c0.492,0,0.983-0.112,1.458-0.22c0.471-0.106,0.958-0.218,1.434-0.218c0.155,0,0.313,0.012,0.474,0.04
		c0.142,0.024,0.275,0.036,0.401,0.036l0,0c0.606,0,1.138-0.254,1.518-0.712c-0.086,0.897-0.192,1.755-0.328,2.549
		c-0.014-0.015-0.028-0.028-0.043-0.042c-0.202-0.184-0.461-0.277-0.719-0.277c-0.199,0-0.399,0.055-0.575,0.167
		C15.225,14.727,12.877,15.292,10.426,15.292L10.426,15.292z"/>
</g>
</svg>
