<?xml version="1.0" encoding="UTF-8" standalone="no"?>
<!-- Generator: Adobe Illustrator 14.0.0, SVG Export Plug-In . SVG Version: 6.00 Build 43363)  -->

<svg
   xmlns:dc="http://purl.org/dc/elements/1.1/"
   xmlns:cc="http://creativecommons.org/ns#"
   xmlns:rdf="http://www.w3.org/1999/02/22-rdf-syntax-ns#"
   xmlns:svg="http://www.w3.org/2000/svg"
   xmlns="http://www.w3.org/2000/svg"
   xmlns:xlink="http://www.w3.org/1999/xlink"
   xmlns:sodipodi="http://sodipodi.sourceforge.net/DTD/sodipodi-0.dtd"
   xmlns:inkscape="http://www.inkscape.org/namespaces/inkscape"
   version="1.1"
   id="Layer_1"
   x="0px"
   y="0px"
   width="32px"
   height="32px"
   viewBox="0 0 32 32"
   enable-background="new 0 0 32 32"
   xml:space="preserve"
   inkscape:version="0.47pre4 "
   sodipodi:docname="user group.svg"><metadata
   id="metadata2951"><rdf:RDF><cc:Work
       rdf:about=""><dc:format>image/svg+xml</dc:format><dc:type
         rdf:resource="http://purl.org/dc/dcmitype/StillImage" /></cc:Work></rdf:RDF></metadata><defs
   id="defs2949"><inkscape:perspective
   sodipodi:type="inkscape:persp3d"
   inkscape:vp_x="0 : 16 : 1"
   inkscape:vp_y="0 : 1000 : 0"
   inkscape:vp_z="32 : 16 : 1"
   inkscape:persp3d-origin="16 : 10.666667 : 1"
   id="perspective2953" />
	
	
	
		<linearGradient
   gradientTransform="translate(-563.0801,-808.6797)"
   y2="828.8027"
   x2="593.2598"
   y1="828.8027"
   x1="574.9307"
   gradientUnits="userSpaceOnUse"
   id="path5775_1_">
		<stop
   id="stop2902"
   style="stop-color:#B0D68C"
   offset="0" />
		<stop
   id="stop2904"
   style="stop-color:#219046"
   offset="1" />
	</linearGradient>
	
	
	
	
	
	
	
		
	
		
	
		<linearGradient
   gradientTransform="translate(-563.0801,-808.6797)"
   y2="818.3047"
   x2="590.8926"
   y1="818.3047"
   x1="577.2979"
   gradientUnits="userSpaceOnUse"
   id="path5802_1_">
		<stop
   id="stop2915"
   style="stop-color:#E1B59C;stop-opacity:0"
   offset="0" />
		<stop
   id="stop2917"
   style="stop-color:#E1B59C"
   offset="1" />
	</linearGradient>
	
	
	
<linearGradient
   inkscape:collect="always"
   xlink:href="#path5802_1_"
   id="linearGradient2964"
   gradientUnits="userSpaceOnUse"
   gradientTransform="translate(-563.0801,-808.6797)"
   x1="577.2979"
   y1="818.3047"
   x2="590.8926"
   y2="818.3047" /><linearGradient
   inkscape:collect="always"
   xlink:href="#path5775_1_"
   id="linearGradient2974"
   gradientUnits="userSpaceOnUse"
   gradientTransform="translate(-563.0801,-808.6797)"
   x1="574.9307"
   y1="828.8027"
   x2="593.2598"
   y2="828.8027" />
	
	
	
		<linearGradient
   gradientTransform="translate(-563.0801,-808.6797)"
   y2="835.8701"
   x2="583.2305"
   y1="835.8701"
   x1="564.9014"
   gradientUnits="userSpaceOnUse"
   id="path5823_2_">
		<stop
   id="stop2927"
   style="stop-color:#B1D2DB"
   offset="0" />
		<stop
   id="stop2929"
   style="stop-color:#0B7C9E"
   offset="1" />
	</linearGradient>
	
	
	
	
	
	
	
		
	
		
	
		<linearGradient
   gradientTransform="translate(-563.0801,-808.6797)"
   y2="825.373"
   x2="580.8633"
   y1="825.373"
   x1="567.2676"
   gradientUnits="userSpaceOnUse"
   id="path5850_2_">
		<stop
   id="stop2940"
   style="stop-color:#E1B59C;stop-opacity:0"
   offset="0" />
		<stop
   id="stop2942"
   style="stop-color:#E1B59C"
   offset="1" />
	</linearGradient>
	
	
	
<linearGradient
   inkscape:collect="always"
   xlink:href="#path5850_2_"
   id="linearGradient2987"
   gradientUnits="userSpaceOnUse"
   gradientTransform="translate(-563.0801,-808.6797)"
   x1="567.2676"
   y1="825.373"
   x2="580.8633"
   y2="825.373" /><linearGradient
   inkscape:collect="always"
   xlink:href="#path5823_2_"
   id="linearGradient2997"
   gradientUnits="userSpaceOnUse"
   gradientTransform="translate(-563.0801,-808.6797)"
   x1="564.9014"
   y1="835.8701"
   x2="583.2305"
   y2="835.8701" /></defs><sodipodi:namedview
   pagecolor="#ffffff"
   bordercolor="#666666"
   borderopacity="1"
   objecttolerance="10"
   gridtolerance="10"
   guidetolerance="10"
   inkscape:pageopacity="0"
   inkscape:pageshadow="2"
   inkscape:window-width="640"
   inkscape:window-height="481"
   id="namedview2947"
   showgrid="false"
   inkscape:zoom="7.375"
   inkscape:cx="-4.4745763"
   inkscape:cy="16"
   inkscape:window-x="0"
   inkscape:window-y="0"
   inkscape:window-maximized="0"
   inkscape:current-layer="Layer_1" />
<path
   style="fill:#231f20"
   d="m 10.031,24.932 0.074,-0.875 c 0.408,-4.904 5.203,-8.743 10.912,-8.743 5.709,0 10.5,3.839 10.91,8.743 L 32,24.932 H 10.031 z"
   id="path5764" /><path
   style="fill:#6fbd46"
   d="m 31.121,24.123 c -0.373,-4.469 -4.748,-8 -10.104,-8 -5.357,0 -9.732,3.531 -10.105,8 h 20.209 z"
   id="path5766" /><path
   style="fill:url(#linearGradient2974)"
   d="m 11.851,23.313 c 0.81,-3.641 4.647,-6.378 9.167,-6.378 4.516,0 8.354,2.74 9.162,6.378 H 11.851 z"
   id="path5775" /><path
   style="fill:#231f20"
   d="m 19.535,23.979 c -0.447,0 -0.811,-0.359 -0.811,-0.811 V 17.23 c 0,-0.447 0.362,-0.808 0.811,-0.808 h 2.603 c 0.447,0 0.81,0.361 0.81,0.808 v 5.938 c 0,0.449 -0.361,0.811 -0.81,0.811 h -2.603 z"
   id="path5779" /><rect
   style="fill:#ea2a29"
   height="5.9380002"
   width="2.6029999"
   y="17.23"
   x="19.535"
   id="rect5781" /><rect
   style="fill:#231f20"
   height="0.98400003"
   width="3.7130001"
   y="19.139"
   x="19.059"
   id="rect5783" /><path
   style="fill:#231f20"
   d="m 21.018,18.041 c -3.796,0 -7.111,-2.557 -8.111,-6.162 -1.033,-0.229 -1.808,-1.153 -1.808,-2.254 0,-1.103 0.774,-2.025 1.808,-2.254 1,-3.606 4.314,-6.162 8.111,-6.162 3.793,0 7.107,2.556 8.105,6.162 1.033,0.229 1.809,1.152 1.809,2.254 0,1.102 -0.775,2.024 -1.809,2.256 -0.996,3.603 -4.312,6.16 -8.105,6.16 l 0,0 z"
   id="path5787" /><path
   style="fill:#efdacb"
   d="m 28.623,9.625 c 0,4.201 -3.406,7.605 -7.604,7.605 -4.202,0 -7.608,-3.404 -7.608,-7.605 0,-4.201 3.406,-7.605 7.608,-7.605 4.198,-0.002 7.604,3.402 7.604,7.605 z"
   id="path5789" /><circle
   style="fill:#efdacb"
   sodipodi:ry="1.5"
   sodipodi:rx="1.5"
   sodipodi:cy="9.625"
   sodipodi:cx="13.41"
   r="1.5"
   rx="1.5"
   ry="1.5"
   cy="9.625"
   cx="13.41"
   id="circle5791">
	</circle><circle
   style="fill:#efdacb"
   sodipodi:ry="1.5"
   sodipodi:rx="1.5"
   sodipodi:cy="9.625"
   sodipodi:cx="28.622999"
   r="1.5"
   rx="1.5"
   ry="1.5"
   cy="9.625"
   cx="28.622999"
   id="circle5793_1_">
	</circle><path
   style="fill:url(#linearGradient2964)"
   d="m 21.018,16.422 c -3.75,0 -6.8,-3.051 -6.8,-6.797 0,-3.748 3.05,-6.797 6.8,-6.797 3.746,0 6.795,3.049 6.795,6.797 0,3.748 -3.049,6.797 -6.795,6.797 l 0,0 z"
   id="path5802" /><path
   style="fill:#231f20"
   d="m 13.57,8.186 c -0.066,0.764 0.102,2.271 0.248,3.016 -0.009,-0.933 -0.145,-2.457 0.293,-3.277 0.61,-1.144 7.116,0.22 9.551,-4.698 -0.098,1.433 -0.33,2.749 3.664,5.646 0.207,0.149 1.121,2.467 1.057,2.656 C 28.32,10.927 28.641,9.422 28.635,8.789 28.623,7.48 28.494,6.629 28.094,6.037 27.639,5.364 26.477,4.084 25.894,3.512 23.899,1.558 20.79,1.133 18.169,2.086 16.813,2.576 15.926,3.668 14.996,4.572 14.623,4.934 12.578,7.77 13.387,8.004"
   id="path5804" /><path
   style="fill:#231f20"
   d="m 23.203,1.816 c 0,-0.605 0,-1.211 -0.004,-1.816 0.567,1.508 0.924,1.695 2.095,0.863 -0.41,0.908 -0.447,1.23 -0.447,1.23 C 25.472,1.815 25.422,1.739 26.11,1.786 25.782,1.929 25.2,2.331 24.909,2.54 24.909,2.649 24.628,2.423 24.61,2.534 23.775,2.002 24.4,2.151 23.386,1.91"
   id="path5806" />
<path
   style="fill:#231f20"
   d="m 0,32 0.074,-0.875 c 0.409,-4.904 5.204,-8.744 10.914,-8.744 5.707,0 10.5,3.84 10.908,8.744 L 21.971,32 H 0 z"
   id="path5812_1_" /><path
   style="fill:#00acda"
   d="m 21.09,31.191 c -0.373,-4.469 -4.746,-8 -10.102,-8 -5.359,0 -9.732,3.531 -10.107,8 H 21.09 z"
   id="path5814_1_" /><path
   style="fill:url(#linearGradient2997)"
   d="M 1.821,30.381 C 2.629,26.74 6.469,24 10.988,24 c 4.516,0 8.354,2.74 9.162,6.381 H 1.821 z"
   id="path5823_1_" /><path
   style="fill:#231f20"
   d="m 9.504,31.047 c -0.447,0 -0.809,-0.361 -0.809,-0.811 v -5.938 c 0,-0.447 0.361,-0.809 0.809,-0.809 h 2.604 c 0.447,0 0.809,0.359 0.809,0.809 v 5.938 c 0,0.449 -0.361,0.811 -0.809,0.811 H 9.504 z"
   id="path5827_1_" /><rect
   style="fill:#f9a620"
   height="5.9380002"
   width="2.6040001"
   y="24.299"
   x="9.5039997"
   id="rect5829_1_" /><rect
   style="fill:#231f20"
   height="0.98400003"
   width="3.7130001"
   y="26.207001"
   x="9.0290003"
   id="rect5831_1_" /><path
   style="fill:#231f20"
   d="m 10.988,25.109 c -3.795,0 -7.111,-2.557 -8.111,-6.162 -1.033,-0.23 -1.808,-1.154 -1.808,-2.254 0,-1.102 0.774,-2.026 1.808,-2.254 1,-3.605 4.314,-6.162 8.111,-6.162 3.793,0 7.107,2.557 8.105,6.162 1.033,0.229 1.809,1.152 1.809,2.254 0,1.1 -0.775,2.023 -1.809,2.254 -0.997,3.606 -4.312,6.162 -8.105,6.162 l 0,0 z"
   id="path5835_1_" /><path
   style="fill:#efdacb"
   d="m 18.592,16.693 c 0,4.201 -3.406,7.605 -7.604,7.605 -4.201,0 -7.607,-3.404 -7.607,-7.605 0,-4.202 3.406,-7.606 7.607,-7.606 4.198,-0.002 7.604,3.403 7.604,7.606 z"
   id="path5837_1_" /><circle
   style="fill:#efdacb"
   sodipodi:ry="1.5"
   sodipodi:rx="1.5"
   sodipodi:cy="16.693001"
   sodipodi:cx="3.3789999"
   r="1.5"
   rx="1.5"
   ry="1.5"
   cy="16.693001"
   cx="3.3789999"
   id="circle5839_1_">
	</circle><circle
   style="fill:#efdacb"
   sodipodi:ry="1.5"
   sodipodi:rx="1.5"
   sodipodi:cy="16.693001"
   sodipodi:cx="18.591999"
   r="1.5"
   rx="1.5"
   ry="1.5"
   cy="16.693001"
   cx="18.591999"
   id="circle5841_1_">
	</circle><path
   style="fill:url(#linearGradient2987)"
   d="m 10.988,23.49 c -3.75,0 -6.801,-3.051 -6.801,-6.797 0,-3.749 3.051,-6.797 6.801,-6.797 3.746,0 6.795,3.05 6.795,6.797 0,3.746 -3.049,6.797 -6.795,6.797 l 0,0 z"
   id="path5850_1_" /><path
   style="fill:#231f20"
   d="m 3.539,15.253 c -0.066,0.764 0.102,2.272 0.248,3.014 -0.008,-0.932 -0.145,-2.456 0.293,-3.276 0.611,-1.144 7.117,0.219 9.553,-4.699 -0.1,1.434 -0.332,2.75 3.664,5.646 0.205,0.148 1.119,2.465 1.055,2.655 -0.061,-0.6 0.258,-2.107 0.252,-2.739 -0.012,-1.309 -0.141,-2.16 -0.541,-2.753 C 17.61,12.429 16.448,11.148 15.864,10.577 13.87,8.622 10.76,8.198 8.139,9.151 6.784,9.643 5.895,10.734 4.967,11.638 4.594,12 2.547,14.836 3.358,15.069"
   id="path5852_1_" /><path
   style="fill:#231f20"
   d="m 13.172,8.884 c 0,-0.604 0,-1.211 -0.004,-1.815 0.568,1.509 0.926,1.695 2.096,0.863 -0.41,0.907 -0.447,1.231 -0.447,1.231 C 15.442,8.884 15.391,8.809 16.079,8.855 15.75,8.998 15.168,9.4 14.879,9.61 14.879,9.718 14.596,9.492 14.58,9.603 13.746,9.071 14.371,9.22 13.355,8.979"
   id="path5854_1_" />
</svg>