<?xml version="1.0" encoding="utf-8"?>
<!-- Generator: Adobe Illustrator 14.0.0, SVG Export Plug-In . SVG Version: 6.00 Build 43363)  -->
<!DOCTYPE svg PUBLIC "-//W3C//DTD SVG 1.1//EN" "http://www.w3.org/Graphics/SVG/1.1/DTD/svg11.dtd">
<svg version="1.1"
	 id="svg2" inkscape:output_extension="org.inkscape.output.svg.inkscape" sodipodi:docname="key.svg" inkscape:version="0.45.1" sodipodi:version="0.32" sodipodi:docbase="C:\Radix\dev\trunk\org.radixware\kernel\designer\src\common.resources\src\org\radixware\kernel\designer\resources\icons\security" xmlns:dc="http://purl.org/dc/elements/1.1/" xmlns:sodipodi="http://sodipodi.sourceforge.net/DTD/sodipodi-0.dtd" xmlns:cc="http://web.resource.org/cc/" xmlns:inkscape="http://www.inkscape.org/namespaces/inkscape" xmlns:rdf="http://www.w3.org/1999/02/22-rdf-syntax-ns#" xmlns:svg="http://www.w3.org/2000/svg"
	 xmlns="http://www.w3.org/2000/svg" xmlns:xlink="http://www.w3.org/1999/xlink" x="0px" y="0px" width="32px" height="32px"
	 viewBox="8 8 32 32" enable-background="new 8 8 32 32" xml:space="preserve">
<sodipodi:namedview  id="base" pagecolor="#ffffff" bordercolor="#666666" borderopacity="1.0" showgrid="true" inkscape:zoom="8.65625" inkscape:cx="24" inkscape:cy="17.465006" inkscape:window-x="-4" inkscape:window-y="-4" inkscape:current-layer="layer1" inkscape:pageopacity="0.0" inkscape:pageshadow="2" inkscape:window-width="1280" inkscape:window-height="998" inkscape:document-units="px">
	</sodipodi:namedview>
<g>
	<path id="path2935_9_" fill="#231F20" d="M34.783,40c-0.287,0-0.568-0.113-0.774-0.32l-1.358-1.361
		c-0.129-0.125-0.224-0.283-0.273-0.457l-0.238-0.793l-0.8-0.243c-0.303-0.093-0.548-0.308-0.677-0.595l-0.471-1.027l-1.469-1.063
		c-0.171-0.125-0.301-0.295-0.38-0.49l-0.376-0.959l-1.738-0.871c-0.332-0.164-0.557-0.49-0.599-0.858l-0.147-1.331l-1.643-0.361
		c-0.205-0.045-0.392-0.147-0.541-0.297l-1.356-1.355l-0.387,0.387c-0.213,0.214-0.496,0.321-0.775,0.321
		c-0.281,0-0.561-0.108-0.774-0.318l-1.912-1.911c-0.339,0.038-0.682,0.061-1.021,0.061c-2.42-0.002-4.698-0.945-6.412-2.657
		C8.944,21.78,8,19.5,8,17.077c0-2.425,0.944-4.703,2.659-6.418C12.374,8.943,14.653,8.001,17.077,8
		c2.422-0.001,4.701,0.943,6.418,2.659c1.954,1.957,2.902,4.7,2.594,7.433l1.914,1.913c0.204,0.205,0.319,0.484,0.32,0.776
		c0.001,0.289-0.116,0.57-0.32,0.775l-0.39,0.389l12.064,12.061c0.246,0.243,0.362,0.594,0.311,0.938l-0.533,3.591
		c-0.07,0.479-0.443,0.854-0.926,0.926l-3.588,0.529C34.893,39.995,34.838,40,34.783,40L34.783,40z M14.153,12.756
		c-0.373,0-0.721,0.146-0.985,0.412c-0.544,0.541-0.545,1.425-0.001,1.971c0.268,0.266,0.616,0.411,0.986,0.411
		c0.375,0,0.724-0.146,0.986-0.409c0.543-0.543,0.543-1.429,0-1.974C14.876,12.902,14.524,12.756,14.153,12.756L14.153,12.756z"/>
	<path id="path3790_10_" fill="#FAA920" d="M11.438,11.438c3.117-3.119,8.166-3.117,11.283,0c1.917,1.918,2.651,4.564,2.207,7.043
		l2.303,2.302l-1.166,1.166l12.84,12.834l-0.53,3.591l-3.588,0.531l-1.359-1.359l-0.407-1.352l-1.357-0.416l-0.586-1.291
		l-1.708-1.231L28.842,31.9l-2.117-1.059l-0.236-2.117l-2.408-0.526l-2.133-2.134l-1.164,1.168l-2.301-2.299
		c-2.479,0.441-5.125-0.293-7.045-2.211C8.319,19.602,8.319,14.551,11.438,11.438L11.438,11.438z M12.391,12.391
		c-0.976,0.975-0.975,2.549,0,3.525c0.977,0.977,2.553,0.975,3.524-0.001c0.976-0.976,0.976-2.546,0-3.522
		S13.367,11.415,12.391,12.391z"/>
	
		<linearGradient id="path2946_1_" gradientUnits="userSpaceOnUse" x1="-73.8613" y1="1202.1182" x2="-60.0952" y2="1202.1182" gradientTransform="matrix(0.7071 -0.7071 0.7071 0.7071 -777.6235 -872.3442)">
		<stop  offset="0" style="stop-color:#A5692A"/>
		<stop  offset="0.5394" style="stop-color:#FAA920"/>
		<stop  offset="1" style="stop-color:#FFF3E2"/>
	</linearGradient>
	<path id="path2946_9_" fill="url(#path2946_1_)" d="M34.395,36.962l-0.496-1.647l-1.443-0.44l-0.501-1.108l-1.681-1.215
		l-0.565-1.439l-1.96-0.985l-0.258-2.302l-2.863-0.631l-2.681-2.682L20.78,25.68l-1.93-1.93l-0.563,0.1
		c-0.398,0.071-0.809,0.106-1.217,0.105c-1.834,0.002-3.561-0.715-4.86-2.012c-1.299-1.299-2.017-3.028-2.015-4.866
		c0-0.821,0.144-1.618,0.416-2.365c0.113,0.726,0.445,1.419,1.004,1.976c0.68,0.681,1.58,1.054,2.539,1.057
		c0.959-0.002,1.861-0.376,2.539-1.057c1.396-1.393,1.398-3.67,0.002-5.072c-0.547-0.545-1.231-0.891-1.971-1.008
		c0.743-0.271,1.539-0.414,2.354-0.412c1.837-0.002,3.565,0.716,4.866,2.016c1.587,1.587,2.299,3.861,1.904,6.077l-0.103,0.563
		l1.928,1.93l-1.166,1.166l13.229,13.22l-0.331,2.238l-2.238,0.333L34.395,36.962z"/>
	
		<linearGradient id="rect3802_1_" gradientUnits="userSpaceOnUse" x1="-894.4824" y1="2060.5605" x2="-893.1182" y2="2060.5605" gradientTransform="matrix(-0.7774 0.7774 0.7774 0.7774 -2265.9526 -877.3611)">
		<stop  offset="0" style="stop-color:#A5692A"/>
		<stop  offset="0.5394" style="stop-color:#FAA920"/>
		<stop  offset="1" style="stop-color:#2B2012"/>
	</linearGradient>
	<path id="rect3802_10_" fill="url(#rect3802_1_)" d="M24.794,23.363l-0.374,0.375c-0.189,0.189-0.189,0.494,0,0.684l11.603,11.604
		c0.191,0.19,0.496,0.189,0.686,0l0.376-0.375c0.19-0.19,0.19-0.495-0.002-0.687L25.479,23.359
		C25.291,23.175,24.984,23.174,24.794,23.363z"/>
</g>
</svg>
