<?xml version="1.0" encoding="UTF-8" standalone="no"?>
<!-- Created with Inkscape (http://www.inkscape.org/) -->
<svg
   xmlns:dc="http://purl.org/dc/elements/1.1/"
   xmlns:cc="http://creativecommons.org/ns#"
   xmlns:rdf="http://www.w3.org/1999/02/22-rdf-syntax-ns#"
   xmlns:svg="http://www.w3.org/2000/svg"
   xmlns="http://www.w3.org/2000/svg"
   xmlns:xlink="http://www.w3.org/1999/xlink"
   xmlns:sodipodi="http://sodipodi.sourceforge.net/DTD/sodipodi-0.dtd"
   xmlns:inkscape="http://www.inkscape.org/namespaces/inkscape"
   width="32"
   height="32"
   id="svg2"
   sodipodi:version="0.32"
   inkscape:version="0.46"
   sodipodi:docbase="C:\Radix\dev\trunk\org.radixware\kernel\designer\src\common.resources\src\org\radixware\kernel\designer\resources\icons\clipboard"
   sodipodi:docname="cut2.svg"
   version="1.0"
   inkscape:output_extension="org.inkscape.output.svg.inkscape">
  <defs
     id="defs4">
    <linearGradient
       id="linearGradient3257">
      <stop
         style="stop-color:#3675c4;stop-opacity:1;"
         offset="0"
         id="stop3259" />
      <stop
         style="stop-color:#96b8e2;stop-opacity:1;"
         offset="1"
         id="stop3261" />
    </linearGradient>
    <linearGradient
       id="linearGradient3247">
      <stop
         style="stop-color:#ffffff;stop-opacity:1;"
         offset="0"
         id="stop3249" />
      <stop
         style="stop-color:#96b8e2;stop-opacity:1;"
         offset="1"
         id="stop3251" />
    </linearGradient>
    <linearGradient
       id="linearGradient3231">
      <stop
         style="stop-color:#95b8e2;stop-opacity:1;"
         offset="0"
         id="stop3233" />
      <stop
         style="stop-color:#8aaab2;stop-opacity:1"
         offset="1"
         id="stop3235" />
    </linearGradient>
    <inkscape:perspective
       sodipodi:type="inkscape:persp3d"
       inkscape:vp_x="0 : 13 : 1"
       inkscape:vp_y="0 : 1000 : 0"
       inkscape:vp_z="26 : 13 : 1"
       inkscape:persp3d-origin="13 : 8.6666667 : 1"
       id="perspective41" />
    <linearGradient
       id="linearGradient3156">
      <stop
         style="stop-color:#ffb900;stop-opacity:1;"
         offset="0"
         id="stop3158" />
      <stop
         style="stop-color:#ffffff;stop-opacity:1;"
         offset="1"
         id="stop3160" />
    </linearGradient>
    <linearGradient
       inkscape:collect="always"
       xlink:href="#linearGradient3247"
       id="linearGradient3253"
       x1="10.186824"
       y1="14.727272"
       x2="25.358631"
       y2="18.727272"
       gradientUnits="userSpaceOnUse"
       gradientTransform="matrix(0.9561138,0,0,0.9432196,1.6700003,3.0876961e-3)" />
    <linearGradient
       inkscape:collect="always"
       xlink:href="#linearGradient3257"
       id="linearGradient3263"
       x1="5.4281402"
       y1="12.909091"
       x2="31.480951"
       y2="12.909091"
       gradientUnits="userSpaceOnUse"
       gradientTransform="matrix(0.9561138,0,0,0.9432196,1.6700003,3.0876961e-3)" />
  </defs>
  <sodipodi:namedview
     id="base"
     pagecolor="#ffffff"
     bordercolor="#000000"
     borderopacity="1.0"
     inkscape:pageopacity="0.0"
     inkscape:pageshadow="2"
     inkscape:zoom="11"
     inkscape:cx="0.67184502"
     inkscape:cy="14.566067"
     inkscape:document-units="px"
     inkscape:current-layer="layer1"
     inkscape:window-width="1280"
     inkscape:window-height="944"
     inkscape:window-x="-8"
     inkscape:window-y="-8"
     showgrid="true" />
  <metadata
     id="metadata7">
    <rdf:RDF>
      <cc:Work
         rdf:about="">
        <dc:format>image/svg+xml</dc:format>
        <dc:type
           rdf:resource="http://purl.org/dc/dcmitype/StillImage" />
      </cc:Work>
    </rdf:RDF>
  </metadata>
  <g
     inkscape:label="Layer 1"
     inkscape:groupmode="layer"
     id="layer1">
    <path
       style="fill:#96b8e2;fill-opacity:1;fill-rule:evenodd;stroke:#95b8e2;stroke-width:0.48639977;stroke-linecap:butt;stroke-linejoin:miter;stroke-miterlimit:4;stroke-dasharray:none;stroke-opacity:1"
       d="M 11.462319,22.936238 C 11.65257,22.698509 13.758616,21.753048 14.025066,21.374448 C 17.527981,16.397147 17.46874,15.320559 17.517204,14.916479 C 17.560434,14.556056 17.047516,13.021341 17.299269,12.576911 C 18.873542,9.7977812 21.942931,6.3036499 22.283219,5.9063282 C 22.969816,5.1046539 28.053063,-0.13320991 27.59,0.29324843 C 27.326766,0.53567555 19.173778,14.957607 18.784606,15.515366 C 18.393744,16.075541 15.607339,20.5967 15.502813,22.094124 C 15.405592,23.486893 15.790298,24.76605 15.811765,24.978892 C 15.847977,25.337972 15.114659,23.739672 14.460382,23.368661 C 14.090359,23.158839 12.185486,22.608571 11.462319,22.936238 z"
       id="path3239"
       sodipodi:nodetypes="csssssssssc" />
    <path
       style="fill:#96b8e2;fill-opacity:1;fill-rule:evenodd;stroke:#95b8e2;stroke-width:0.48639977;stroke-linecap:butt;stroke-linejoin:miter;stroke-miterlimit:4;stroke-dasharray:none;stroke-opacity:1"
       d="M 8.9779129,20.086162 C 9.2177751,19.898438 10.18443,17.804513 10.566084,17.542032 C 15.583542,14.091328 16.661123,14.160617 17.06624,14.116029 C 17.42759,14.076257 18.959688,14.602842 19.407131,14.355658 C 22.205087,12.809955 25.733154,9.7781518 26.134253,9.442126 C 26.943546,8.7641238 32.236822,3.7379548 31.805388,4.1962949 C 31.560135,4.4568459 17.040653,12.461598 16.478425,12.844927 C 15.913761,13.229916 11.35985,15.9695 9.8592835,16.059767 C 8.4635934,16.143729 7.1862137,15.747566 6.9732672,15.72413 C 6.6140127,15.684592 8.2077103,16.431839 8.5730948,17.088607 C 8.7797365,17.460041 9.3128615,19.367185 8.9779129,20.086162 z"
       id="path3205"
       sodipodi:nodetypes="csssssssssc" />
    <path
       style="fill:url(#linearGradient3263);fill-opacity:1;fill-rule:evenodd;stroke:none;stroke-width:0.51219124;stroke-linecap:butt;stroke-linejoin:miter;stroke-miterlimit:4;stroke-dasharray:none;stroke-opacity:1"
       d="M 8.9169354,20.138873 C 9.1567976,19.951149 10.123452,17.857224 10.505106,17.594743 C 15.522564,14.144039 16.600146,14.213328 17.005263,14.16874 C 17.366613,14.128968 18.898711,14.655553 19.346153,14.408369 C 22.14411,12.862666 25.672176,9.8308627 26.073276,9.4948369 C 26.882569,8.8168346 32.175845,3.7906663 31.744411,4.2490059 C 31.499158,4.5095571 16.979676,12.514309 16.417448,12.897638 C 15.852784,13.282627 11.298873,16.022211 9.798306,16.112478 C 8.4026157,16.19644 7.1252359,15.800277 6.9122894,15.776841 C 6.5530349,15.737303 8.1467325,16.48455 8.512117,17.141318 C 8.7187587,17.512752 9.251884,19.419896 8.9169354,20.138873 z"
       id="path3255"
       sodipodi:nodetypes="csssssssssc" />
    <path
       style="fill:url(#linearGradient3253);fill-opacity:1;fill-rule:evenodd;stroke:none;stroke-width:0.51219124;stroke-linecap:butt;stroke-linejoin:miter;stroke-miterlimit:4;stroke-dasharray:none;stroke-opacity:1"
       d="M 11.409763,23.065824 C 11.600015,22.828095 13.70606,21.882634 13.972511,21.504034 C 17.475425,16.526734 17.416184,15.450145 17.464649,15.046065 C 17.507878,14.685642 16.994961,13.150927 17.246713,12.706497 C 18.820986,9.9273673 21.890375,6.4332365 22.230663,6.0359147 C 22.917261,5.2342402 28.000508,-0.0036233883 27.537445,0.4228345 C 27.27421,0.66526175 19.121222,15.087193 18.73205,15.644952 C 18.341188,16.205127 15.554784,20.726286 15.450257,22.22371 C 15.353036,23.616479 15.737743,24.895636 15.759209,25.108479 C 15.795421,25.467559 15.062103,23.869258 14.407827,23.498247 C 14.037804,23.288425 12.132931,22.738157 11.409763,23.065824 z"
       id="path3245"
       sodipodi:nodetypes="csssssssssc" />
    <path
       style="fill:#a29707;fill-opacity:1;fill-rule:evenodd;stroke:#a49706;stroke-width:0.51200002;stroke-linecap:square;stroke-linejoin:miter;stroke-miterlimit:4;stroke-dasharray:none;stroke-dashoffset:0;stroke-opacity:1"
       d="M 7.8700836,28.116214 C 7.9920718,30.655053 9.9569546,32.188758 12.266924,31.548201 C 14.576892,30.907647 16.375592,28.330301 16.253601,25.791462 C 16.131613,23.252619 14.135793,21.727495 11.825827,22.36805 C 9.5158558,23.008604 7.7480944,25.57737 7.8700836,28.116214 z M 8.9528271,27.815968 C 8.8623174,25.932314 10.169157,24.033318 11.883005,23.558069 C 13.596852,23.082817 15.080352,24.208052 15.17086,26.091704 C 15.261367,27.975362 13.925228,29.916932 12.21138,30.392184 C 10.497528,30.867433 9.0433338,29.699623 8.9528271,27.815968 z"
       id="path3219" />
    <path
       sodipodi:type="arc"
       style="opacity:1;fill:#1e3287;fill-opacity:1;fill-rule:evenodd;stroke:none;stroke-width:0.5;stroke-linecap:square;stroke-linejoin:miter;stroke-miterlimit:4;stroke-dasharray:none;stroke-dashoffset:0;stroke-opacity:1"
       id="path3221"
       sodipodi:cx="-16.454546"
       sodipodi:cy="-2.909091"
       sodipodi:rx="0.81818181"
       sodipodi:ry="0.81818181"
       d="M -15.636364,-2.909091 A 0.81818181,0.81818181 0 1 1 -17.272728,-2.909091 A 0.81818181,0.81818181 0 1 1 -15.636364,-2.909091 z"
       transform="matrix(-0.5314949,-0.814453,0.8156214,-0.5306804,12.186619,-1.9147275)" />
    <path
       style="fill:#a29707;fill-opacity:1;fill-rule:evenodd;stroke:#a49706;stroke-width:0.51200002;stroke-linecap:square;stroke-linejoin:miter;stroke-miterlimit:4;stroke-dasharray:none;stroke-dashoffset:0;stroke-opacity:1"
       d="M 1.0587943,18.322823 C -0.2189453,20.528687 0.60901773,22.857058 2.9115391,23.533042 C 5.2140577,24.209029 8.1375384,22.982029 9.4152764,20.776164 C 10.693018,18.570298 9.8342178,16.232875 7.5316999,15.556892 C 5.2291783,14.880902 2.3365362,16.116956 1.0587943,18.322823 z M 2.1380462,18.639675 C 3.0860454,17.003065 5.2244696,16.089295 6.9327896,16.590835 C 8.6411107,17.092373 9.2840279,18.822704 8.3360283,20.459311 C 7.3880253,22.095922 5.2016584,23.030178 3.493338,22.52864 C 1.7850143,22.027099 1.1900455,20.276283 2.1380462,18.639675 z"
       id="path3265" />
  </g>
</svg>
