<?xml version="1.0" encoding="UTF-8" standalone="no"?>
<!-- Generator: Adobe Illustrator 14.0.0, SVG Export Plug-In . SVG Version: 6.00 Build 43363)  -->

<svg
   xmlns:dc="http://purl.org/dc/elements/1.1/"
   xmlns:cc="http://creativecommons.org/ns#"
   xmlns:rdf="http://www.w3.org/1999/02/22-rdf-syntax-ns#"
   xmlns:svg="http://www.w3.org/2000/svg"
   xmlns="http://www.w3.org/2000/svg"
   xmlns:xlink="http://www.w3.org/1999/xlink"
   xmlns:sodipodi="http://sodipodi.sourceforge.net/DTD/sodipodi-0.dtd"
   xmlns:inkscape="http://www.inkscape.org/namespaces/inkscape"
   version="1.1"
   id="svg2"
   inkscape:version="0.48.0 r9654"
   sodipodi:version="0.32"
   sodipodi:docname="splitter (copy).svg"
   inkscape:output_extension="org.inkscape.output.svg.inkscape"
   x="0px"
   y="0px"
   width="24px"
   height="24px"
   viewBox="0 0 24 24"
   enable-background="new 0 0 24 24"
   xml:space="preserve"><metadata
   id="metadata28"><rdf:RDF><cc:Work
       rdf:about=""><dc:format>image/svg+xml</dc:format><dc:type
         rdf:resource="http://purl.org/dc/dcmitype/StillImage" /></cc:Work></rdf:RDF></metadata><defs
   id="defs26">
	
	
	
	
	
	
	<linearGradient
   y2="12"
   x2="13"
   y1="12"
   x1="10.9995"
   gradientUnits="userSpaceOnUse"
   id="SVGID_1_">
		<stop
   id="stop3842"
   style="stop-color:#d8f127;stop-opacity:0.74901962;"
   offset="0" /><stop
   offset="1"
   style="stop-color:#40a412;stop-opacity:0.78039217;"
   id="stop3854" />
		
	</linearGradient>
	
<linearGradient
   inkscape:collect="always"
   xlink:href="#SVGID_1_"
   id="linearGradient3060"
   gradientUnits="userSpaceOnUse"
   x1="10.9995"
   y1="12"
   x2="13"
   y2="12" /></defs><sodipodi:namedview
   pagecolor="#ffffff"
   bordercolor="#666666"
   borderopacity="1"
   objecttolerance="10"
   gridtolerance="10"
   guidetolerance="10"
   inkscape:pageopacity="0"
   inkscape:pageshadow="2"
   inkscape:window-width="1280"
   inkscape:window-height="951"
   id="namedview24"
   showgrid="false"
   inkscape:zoom="7.7781746"
   inkscape:cx="-12.006976"
   inkscape:cy="2.4140234"
   inkscape:window-x="0"
   inkscape:window-y="26"
   inkscape:window-maximized="1"
   inkscape:current-layer="svg2" />
<path
   inkscape:connector-curvature="0"
   id="path5"
   d="m 11,24 c -0.553,0 -1,-0.447 -1,-1 V 1 c 0,-0.552 0.447,-1 1,-1 h 2 c 0.553,0 1,0.448 1,1 v 22 c 0,0.553 -0.447,1 -1,1 h -2 z" /><rect
   style="fill:#ffffff"
   id="rect7"
   height="22"
   width="2"
   y="1"
   x="11" /><path
   style="fill:#231f20"
   inkscape:connector-curvature="0"
   id="path9"
   d="m 18,15.056 c -0.158,0 -0.318,-0.038 -0.465,-0.115 C 17.207,14.768 17,14.427 17,14.056 V 9.944 C 17,9.573 17.205,9.233 17.533,9.059 17.68,8.982 17.84,8.944 18,8.944 c 0.199,0 0.396,0.059 0.564,0.175 l 3,2.054 c 0.274,0.185 0.436,0.494 0.436,0.824 0,0.33 -0.162,0.639 -0.434,0.825 l -3,2.058 c -0.17,0.117 -0.367,0.176 -0.566,0.176 l 0,0 z" /><polygon
   style="fill:#ffffff"
   id="polygon11"
   points="18,14.056 18,9.944 21,11.997 " /><path
   style="fill:#231f20"
   inkscape:connector-curvature="0"
   id="path13"
   d="m 6,8.944 c 0.159,0 0.319,0.038 0.466,0.115 C 6.793,9.232 7,9.573 7,9.944 v 4.111 C 7,14.426 6.795,14.766 6.467,14.94 6.32,15.018 6.16,15.056 6,15.056 c -0.198,0 -0.396,-0.059 -0.564,-0.175 l -3,-2.053 C 2.163,12.642 2,12.333 2,12.003 2,11.673 2.162,11.364 2.435,11.178 l 3,-2.058 C 5.603,9.003 5.801,8.944 6,8.944 l 0,0 z" /><polygon
   style="fill:#ffffff"
   id="polygon15"
   points="6,9.944 6,14.056 3,12.003 " /><rect
   style="fill:url(#linearGradient3060)"
   id="rect22"
   height="22"
   width="2"
   y="1"
   x="11" />
<path
   style="fill:#b5de55;fill-opacity:1"
   d="M 4.5393231,12.959935 C 3.8322163,12.471156 3.260624,12.031533 3.2691179,11.982994 c 0.00849,-0.04854 0.5870358,-0.479095 1.2856487,-0.956792 l 1.2702052,-0.868539 0.037655,0.963133 c 0.02071,0.529723 0.02071,1.360189 0,1.84548 l -0.037655,0.882348 -1.2856487,-0.888689 z"
   id="path3856"
   inkscape:connector-curvature="0" /><path
   style="fill:#b5de55;fill-opacity:1"
   d="m 18.102917,12.007944 c 0,-1.469445 0.03506,-1.858302 0.160706,-1.782625 0.342074,0.206026 2.539156,1.740013 2.539156,1.772821 0,0.01907 -0.607469,0.451939 -1.349931,0.961942 l -1.349931,0.927277 0,-1.879415 z"
   id="path3858"
   inkscape:connector-curvature="0" /></svg>