<?xml version="1.0" encoding="utf-8"?>
<!-- Generator: Adobe Illustrator 14.0.0, SVG Export Plug-In . SVG Version: 6.00 Build 43363)  -->
<!DOCTYPE svg PUBLIC "-//W3C//DTD SVG 1.1//EN" "http://www.w3.org/Graphics/SVG/1.1/DTD/svg11.dtd">
<svg version="1.1"
	 id="svg2" sodipodi:docbase="C:\Radix\dev\trunk\org.radixware\kernel\designer\src\common.resources\src\org\radixware\kernel\designer\resources\icons\widgets" inkscape:version="0.46" sodipodi:docname="dateedit.svg" sodipodi:version="0.32" inkscape:output_extension="org.inkscape.output.svg.inkscape" xmlns:sodipodi="http://sodipodi.sourceforge.net/DTD/sodipodi-0.dtd" xmlns:cc="http://creativecommons.org/ns#" xmlns:dc="http://purl.org/dc/elements/1.1/" xmlns:rdf="http://www.w3.org/1999/02/22-rdf-syntax-ns#" xmlns:svg="http://www.w3.org/2000/svg" xmlns:inkscape="http://www.inkscape.org/namespaces/inkscape"
	 xmlns="http://www.w3.org/2000/svg" xmlns:xlink="http://www.w3.org/1999/xlink" x="0px" y="0px" width="24px" height="24px"
	 viewBox="4 4 24 24" enable-background="new 4 4 24 24" xml:space="preserve">
<g>
	<g>
		<g>
			<path d="M5,20.857c-0.552,0-1-0.447-1-1V5c0-0.552,0.448-1,1-1h17.143c0.553,0,1,0.448,1,1v14.857c0,0.553-0.447,1-1,1H5z"/>
			<rect x="5" y="5" fill="#FFFFFF" width="17.143" height="14.857"/>
			
				<linearGradient id="SVGID_1_" gradientUnits="userSpaceOnUse" x1="295.1123" y1="-378.5386" x2="295.1123" y2="-391.86" gradientTransform="matrix(1 0 0 -1 -281.54 -372.8398)">
				<stop  offset="0" style="stop-color:#CFCFCF;stop-opacity:0"/>
				<stop  offset="1" style="stop-color:#949494"/>
			</linearGradient>
			<rect x="5.697" y="5.677" fill="url(#SVGID_1_)" width="15.75" height="13.504"/>
		</g>
		<g>
			
				<linearGradient id="SVGID_2_" gradientUnits="userSpaceOnUse" x1="295.1123" y1="-379.3691" x2="295.1123" y2="-390.6846" gradientTransform="matrix(1 0 0 -1 -281.54 -372.8398)">
				<stop  offset="0" style="stop-color:#CFCFCF"/>
				<stop  offset="1" style="stop-color:#727274"/>
			</linearGradient>
			<polygon fill="url(#SVGID_2_)" points="19.307,15.395 16.338,12.428 19.305,9.463 16.535,6.695 13.572,9.66 10.607,6.695 
				7.84,9.463 10.805,12.428 7.838,15.395 10.605,18.162 13.572,15.195 16.539,18.162 			"/>
			<polygon fill="#E23627" points="18.615,15.395 15.648,12.428 18.611,9.463 16.535,7.389 13.572,10.352 10.607,7.389 8.531,9.463 
				11.496,12.428 8.529,15.395 10.605,17.471 13.572,14.504 16.539,17.471 			"/>
		</g>
	</g>
	<g>
		<g>
			<path d="M9.857,28c-0.552,0-1-0.447-1-1V12.143c0-0.552,0.448-1,1-1H27c0.553,0,1,0.448,1,1V27c0,0.553-0.447,1-1,1H9.857z"/>
			<rect x="9.857" y="12.143" fill="#FFFFFF" width="17.143" height="14.857"/>
			
				<linearGradient id="SVGID_3_" gradientUnits="userSpaceOnUse" x1="299.9697" y1="-385.6812" x2="299.9697" y2="-399.0026" gradientTransform="matrix(1 0 0 -1 -281.54 -372.8398)">
				<stop  offset="0" style="stop-color:#CFCFCF;stop-opacity:0"/>
				<stop  offset="1" style="stop-color:#949494"/>
			</linearGradient>
			<rect x="10.555" y="12.819" fill="url(#SVGID_3_)" width="15.75" height="13.504"/>
		</g>
		<g>
			
				<linearGradient id="SVGID_4_" gradientUnits="userSpaceOnUse" x1="299.9688" y1="-386.6543" x2="299.9688" y2="-397.9568" gradientTransform="matrix(1 0 0 -1 -281.54 -372.8398)">
				<stop  offset="0" style="stop-color:#CFCFCF"/>
				<stop  offset="1" style="stop-color:#727274"/>
			</linearGradient>
			<polygon fill="url(#SVGID_4_)" points="19.145,25.406 19.633,24.56 19.629,24.557 24.779,15.639 21.484,13.734 17.434,20.751 
				15.375,17.185 12.078,19.089 15.727,25.403 			"/>
			<polygon fill="#5EB546" points="15.973,24.904 12.656,19.165 15.219,17.686 17.434,21.521 21.639,14.235 24.201,15.717 
				19.125,24.506 19.129,24.51 18.9,24.905 			"/>
		</g>
	</g>
</g>
</svg>
