<?xml version="1.0" encoding="UTF-8" standalone="no"?>
<!-- Created with Inkscape (http://www.inkscape.org/) -->
<svg
   xmlns:ns="http://creativecommons.org/ns#"
   xmlns:dc="http://purl.org/dc/elements/1.1/"
   xmlns:cc="http://web.resource.org/cc/"
   xmlns:rdf="http://www.w3.org/1999/02/22-rdf-syntax-ns#"
   xmlns:svg="http://www.w3.org/2000/svg"
   xmlns="http://www.w3.org/2000/svg"
   xmlns:xlink="http://www.w3.org/1999/xlink"
   xmlns:sodipodi="http://sodipodi.sourceforge.net/DTD/sodipodi-0.dtd"
   xmlns:inkscape="http://www.inkscape.org/namespaces/inkscape"
   width="13"
   height="13"
   id="svg2"
   sodipodi:version="0.32"
   inkscape:version="0.45.1"
   sodipodi:docbase="C:\Radix\dev\trunk\org.radixware\kernel\designer\src\common.resources\src\org\radixware\kernel\designer\resources\icons\widgets"
   sodipodi:docname="checkbox_checked.svg"
   version="1.0"
   inkscape:output_extension="org.inkscape.output.svg.inkscape">
  <defs
     id="defs4">
    <linearGradient
       id="linearGradient2386">
      <stop
         style="stop-color:#646464;stop-opacity:1;"
         offset="0"
         id="stop2388" />
      <stop
         style="stop-color:#ffffff;stop-opacity:0;"
         offset="1"
         id="stop2390" />
    </linearGradient>
    <linearGradient
       inkscape:collect="always"
       xlink:href="#linearGradient2386"
       id="linearGradient3171"
       x1="7.022222"
       y1="11.977777"
       x2="7"
       y2="10.022223"
       gradientUnits="userSpaceOnUse" />
  </defs>
  <sodipodi:namedview
     id="base"
     pagecolor="#ffffff"
     bordercolor="#000000"
     borderopacity="1.0"
     inkscape:pageopacity="0.0"
     inkscape:pageshadow="2"
     inkscape:zoom="45"
     inkscape:cx="6.9949853"
     inkscape:cy="6.4888889"
     inkscape:document-units="px"
     inkscape:current-layer="layer1"
     inkscape:window-width="1479"
     inkscape:window-height="881"
     inkscape:window-x="191"
     inkscape:window-y="62"
     showgrid="true">
    <inkscape:grid
       type="xygrid"
       id="grid2380" />
  </sodipodi:namedview>
  <metadata
     id="metadata7">
    <rdf:RDF>
      <ns:Work
         rdf:about="">
        <dc:format>image/svg+xml</dc:format>
        <dc:type
           rdf:resource="http://purl.org/dc/dcmitype/StillImage" />
      </ns:Work>
      <cc:Work
         rdf:about="">
        <dc:format>image/svg+xml</dc:format>
        <dc:type
           rdf:resource="http://purl.org/dc/dcmitype/StillImage" />
      </cc:Work>
    </rdf:RDF>
  </metadata>
  <g
     inkscape:label="Layer 1"
     inkscape:groupmode="layer"
     id="layer1">
    <path
       style="fill:#ffffff;fill-rule:evenodd;stroke:#000000;stroke-width:0.918;stroke-linecap:butt;stroke-linejoin:miter;stroke-opacity:1;fill-opacity:1;stroke-miterlimit:4;stroke-dasharray:none"
       d="M 0.5996097,12.424612 C 0.5587641,0.55689825 0.5587641,0.53654192 0.5587641,0.53654192 L 12.465257,0.57725435 L 12.48568,12.48568 L 0.5996097,12.424612 z"
       id="path3198" />
    <path
       style="opacity:1;fill:#999999;fill-opacity:0.58222213000000000;stroke:#faf6f6;stroke-width:0;stroke-opacity:1;stroke-miterlimit:4;stroke-dasharray:none"
       d="M 6.4640413,12.907029 C 2.9990413,12.889124 0.16216552,12.873009 0.15987285,12.871217 C 0.15268819,12.865603 0.10567819,0.097572444 0.11281908,0.091413111 C 0.12134996,0.084054222 12.895139,0.12767689 12.903572,0.13509356 C 12.906981,0.13809133 12.916132,3.021922 12.923906,6.5436056 L 12.938041,12.946667 L 12.851041,12.943125 C 12.80319,12.941177 9.9290413,12.924934 6.4640413,12.907029 z M 12.034388,9.4855556 C 12.026266,8.0830556 12.019612,5.6086682 12.019608,3.9869171 L 12.019597,1.0382791 L 11.925152,1.0267224 C 11.873208,1.0203669 9.39667,1.0090193 6.4217344,1.0015062 L 1.0127609,0.98784578 L 1.0290302,6.4727002 C 1.0379793,9.4893709 1.0503484,11.962606 1.0565177,11.968778 C 1.0658673,11.978132 7.4219762,12.018243 11.039935,12.03178 L 12.049161,12.035556 L 12.034388,9.4855556 z"
       id="path3248" />
    <path
       style="opacity:0.87999998;fill:#ffffff;fill-opacity:0.88235294;stroke:#fdfeff;stroke-width:0.0204;stroke-miterlimit:4;stroke-dasharray:none;stroke-opacity:1"
       d="M 5.4047639,11.981507 C 3.0316053,11.968456 1.0848108,11.95265 1.0785537,11.946383 C 1.0722961,11.940115 1.0613933,9.7051153 1.0543246,6.979716 C 1.0472559,4.2543162 1.0358848,1.7959209 1.0290559,1.5166144 L 1.0166399,1.0087842 L 6.5014524,1.0248969 C 9.518099,1.0337591 11.987397,1.0422827 11.988779,1.0438382 C 11.990163,1.045394 11.998086,3.5141667 12.006386,6.53 L 12.021472,12.013333 L 10.870535,12.009285 C 10.237519,12.007057 7.7779213,11.994557 5.4047635,11.981506 L 5.4047639,11.981507 z M 8.1401679,7.151776 C 9.7859213,4.8751407 11.136735,3.0001407 11.141977,2.9851087 C 11.151486,2.9578467 9.8476235,2.0022222 9.800919,2.0022222 C 9.7877613,2.0022222 8.7464946,3.4272222 7.4869946,5.1688889 C 6.2274924,6.9105555 5.1883077,8.3384793 5.1776917,8.3420529 C 5.1670759,8.3456271 4.7208733,7.6633507 4.1861308,6.825884 C 3.5119017,5.769966 3.2053535,5.308174 3.1860826,5.3193867 C 2.9209855,5.4736311 1.7999924,6.20825 1.805007,6.2244444 C 1.8087921,6.2366667 2.5461226,7.3981158 3.4435204,8.8054424 C 4.9557381,11.176949 5.0778141,11.361543 5.1115221,11.327665 C 5.1315253,11.30756 6.4944168,9.42841 8.1401679,7.1517753 L 8.1401679,7.151776 z"
       id="path3160" />
    <path
       style="opacity:0.87999998000000001;fill:#ffffff;fill-opacity:0.88235293999999997;stroke:#fdfeff;stroke-width:0.02040000000000000;stroke-miterlimit:4;stroke-dasharray:none;stroke-opacity:1"
       d="M 5.1084857,11.985101 C 2.9023746,11.973952 1.0907257,11.958244 1.0825993,11.950193 C 1.0744737,11.942142 1.0619421,10.115556 1.0547533,7.8911111 C 1.0475644,5.6666667 1.0356926,3.2077393 1.0283717,2.426828 L 1.0150613,1.0069898 L 6.5006613,1.0233953 C 9.5177435,1.0324191 11.987735,1.0413464 11.989535,1.0432342 C 11.991335,1.0451218 12.000183,3.5141667 12.009203,6.53 L 12.025599,12.013333 L 10.572599,12.009352 C 9.7734479,12.007162 7.3145968,11.996249 5.1084857,11.985101 L 5.1084857,11.985101 z M 6.8353835,8.946314 C 10.148108,4.3676753 11.141803,2.9886204 11.139346,2.9732498 C 11.136786,2.9572484 9.8171213,1.9927627 9.7973746,1.9924624 C 9.7912635,1.9923693 9.7422435,2.0545273 9.6884413,2.1305911 C 9.2139235,2.8014415 5.1862188,8.3466667 5.1734717,8.3466667 C 5.1643364,8.3466667 4.8763333,7.9091667 4.5334644,7.3744444 C 4.1905959,6.8397222 3.7561375,6.1622222 3.5680019,5.8688889 C 3.3504641,5.5297122 3.2134228,5.33655 3.1915606,5.3382875 C 3.1588213,5.3408898 1.8275664,6.1817962 1.8105293,6.2106367 C 1.8060426,6.2182307 1.9687481,6.4849264 2.1720959,6.8032931 C 2.375443,7.1216593 3.1115226,8.2742587 3.807827,9.3646238 C 4.5041317,10.45499 5.0812355,11.344507 5.0902806,11.341331 C 5.0993253,11.338154 5.8846213,10.260397 6.8353835,8.9463144 L 6.8353835,8.946314 z"
       id="path3162" />
    <path
       style="opacity:1;fill:#ffffff;fill-opacity:1;stroke:#fdfeff;stroke-width:0.04222222;stroke-miterlimit:4;stroke-dasharray:none;stroke-opacity:1"
       d="M 5.8753982,11.989896 C 4.598176,11.981876 2.9968562,11.973868 2.31691,11.972101 L 1.0806445,11.968889 L 1.0670473,11.396667 C 1.0569256,10.97072 1.0198427,2.990644 1.0198427,1.2385333 L 1.0198427,1.008178 L 3.2642871,1.0106553 C 4.4987316,1.0120175 6.9712316,1.0197442 8.7587316,1.0278258 L 12.008732,1.0425189 L 12.008732,4.3909151 C 12.008732,6.2325329 12.01538,8.700966 12.023507,9.8763222 L 12.038287,12.013333 L 10.117952,12.008906 C 9.0617693,12.006471 7.1526205,11.997917 5.8753982,11.989896 L 5.8753982,11.989896 z M 8.3525449,7.3296162 C 9.9375649,5.0163498 11.231125,3.1143107 11.227123,3.1028629 C 11.220574,3.0841364 9.7347049,2.0577778 9.7141449,2.0577778 C 9.7094249,2.0577778 8.7262805,3.4875418 7.5293716,5.2350313 C 6.3324649,6.9825207 5.3458818,8.4100207 5.3369667,8.4072535 C 5.328052,8.4044855 4.8449898,7.7972222 4.2634962,7.0577778 C 3.6820022,6.3183333 3.1977545,5.7103193 3.1873898,5.7066355 C 3.1770251,5.7029515 2.8425042,5.9562698 2.4440107,6.2695644 L 1.7194765,6.8391904 L 1.7585485,6.8887091 C 1.780038,6.9159438 2.6172327,7.9800135 3.6189807,9.2533087 C 4.6207296,10.526604 5.4471682,11.561003 5.4555125,11.551973 C 5.4638565,11.542944 6.7675205,9.6428829 8.3525427,7.3296162 L 8.3525449,7.3296162 z"
       id="path3167" />
    <path
       style="fill:none;fill-rule:evenodd;stroke:#000000;stroke-width:2.0999999;stroke-linecap:butt;stroke-linejoin:miter;stroke-miterlimit:4;stroke-dasharray:none;stroke-opacity:1"
       d="M 2.5333333,5.9333334 L 5.4888889,9.9333334 L 10.555555,1.9555556"
       id="path3161" />
    <path
       style="opacity:1;fill:url(#linearGradient3171);fill-opacity:1.0;stroke:#fdfeff;stroke-width:0.04666666000000000;stroke-miterlimit:4;stroke-dasharray:none;stroke-opacity:1"
       d="M 6.412763,12.009593 C 3.6444297,11.999309 1.308517,11.985239 1.2218461,11.978326 L 1.064263,11.965758 L 1.0496621,10.18399 C 1.0416328,9.2040178 1.0284359,6.7341415 1.0203366,4.6953764 L 1.0056097,0.98853066 L 5.1480753,1.0013704 C 7.4264315,1.008432 9.9016741,1.0201955 10.648615,1.0275113 L 12.00669,1.0408133 L 12.020587,5.5215175 C 12.02823,7.9859051 12.037096,10.457222 12.04029,11.013333 L 12.046096,12.024444 L 11.746096,12.026368 C 11.581096,12.027425 9.1810964,12.019876 6.412763,12.009593 z M 8.5154839,7.1469122 L 11.456792,2.5157775 L 11.262554,2.3913147 C 9.968421,1.5620613 9.675793,1.3852744 9.647469,1.4155847 C 9.6314939,1.4326795 8.6856939,2.9166667 7.5456908,4.7133333 C 6.4056877,6.51 5.4612584,7.997092 5.4469588,8.0179824 C 5.4246199,8.0506167 5.2777786,7.8621062 4.404023,6.6790935 C 3.8447084,5.9218138 3.3829653,5.3022222 3.3779277,5.3022222 C 3.3728897,5.3022222 2.9885968,5.582984 2.5239421,5.9261371 C 1.9238088,6.3693431 1.6839884,6.5585293 1.6959395,6.5793211 C 1.7599099,6.6906151 5.5390717,11.787338 5.554581,11.783233 C 5.5653579,11.780381 6.897765,9.6940367 8.5154841,7.1469122 L 8.5154839,7.1469122 z"
       id="path3163" />
  </g>
</svg>
