<?xml version="1.0" encoding="utf-8"?>
<!-- Generator: Adobe Illustrator 14.0.0, SVG Export Plug-In . SVG Version: 6.00 Build 43363)  -->
<!DOCTYPE svg PUBLIC "-//W3C//DTD SVG 1.1//EN" "http://www.w3.org/Graphics/SVG/1.1/DTD/svg11.dtd">
<svg version="1.1"
	 id="svg2" sodipodi:docbase="C:\Radix\dev\trunk\org.radixware\kernel\designer\src\common.resources\src\org\radixware\kernel\designer\resources\icons\widgets" inkscape:version="0.46" sodipodi:docname="dateedit.svg" sodipodi:version="0.32" inkscape:output_extension="org.inkscape.output.svg.inkscape" xmlns:sodipodi="http://sodipodi.sourceforge.net/DTD/sodipodi-0.dtd" xmlns:cc="http://creativecommons.org/ns#" xmlns:dc="http://purl.org/dc/elements/1.1/" xmlns:rdf="http://www.w3.org/1999/02/22-rdf-syntax-ns#" xmlns:svg="http://www.w3.org/2000/svg" xmlns:inkscape="http://www.inkscape.org/namespaces/inkscape"
	 xmlns="http://www.w3.org/2000/svg" xmlns:xlink="http://www.w3.org/1999/xlink" x="0px" y="0px" width="24px" height="24px"
	 viewBox="4 4 24 24" enable-background="new 4 4 24 24" xml:space="preserve">
<g>
	<path d="M5.059,27.217C4.473,27.217,4,26.743,4,26.158V10.956c0-0.585,0.473-1.059,1.059-1.059h18.184
		c0.586,0,1.061,0.474,1.061,1.059v15.203c0,0.585-0.475,1.059-1.061,1.059H5.059z"/>
	<rect x="5.059" y="10.956" fill="#FFFFFF" width="18.184" height="15.203"/>
	<linearGradient id="SVGID_1_" gradientUnits="userSpaceOnUse" x1="5.6924" y1="18.7275" x2="22.2949" y2="18.7275">
		<stop  offset="0" style="stop-color:#CFCFCF;stop-opacity:0"/>
		<stop  offset="1" style="stop-color:#CFCFCF"/>
	</linearGradient>
	<rect x="5.692" y="11.956" fill="url(#SVGID_1_)" width="16.603" height="13.544"/>
	<path d="M5.119,11.992c-0.585,0-1.059-0.474-1.059-1.059V5.842c0-0.585,0.474-1.059,1.059-1.059h21.82
		C27.525,4.783,28,5.257,28,5.842v5.091c0,0.585-0.475,1.059-1.061,1.059H5.119z"/>
	<rect x="5.119" y="5.842" fill="#FFFFFF" width="21.82" height="5.091"/>
	<line fill="none" stroke="#000000" stroke-width="1.0591" x1="21.166" y1="5.549" x2="21.166" y2="11.228"/>
	
		<linearGradient id="SVGID_2_" gradientUnits="userSpaceOnUse" x1="303.8896" y1="-381.229" x2="307.8135" y2="-381.229" gradientTransform="matrix(1 0 0 -1 -281.54 -372.8398)">
		<stop  offset="0" style="stop-color:#CFCFCF;stop-opacity:0"/>
		<stop  offset="1" style="stop-color:#CFCFCF"/>
	</linearGradient>
	<rect x="22.35" y="6.315" fill="url(#SVGID_2_)" width="3.924" height="4.148"/>
	<polygon points="25.9,7.738 24.311,10.057 22.723,7.738 	"/>
	<line fill="none" stroke="#000000" stroke-width="1.0591" x1="6.133" y1="14.862" x2="21.855" y2="14.862"/>
	<line fill="none" stroke="#000000" stroke-width="1.0591" x1="6.133" y1="19.099" x2="21.855" y2="19.099"/>
	<line fill="none" stroke="#000000" stroke-width="1.0591" x1="6.133" y1="23.247" x2="21.855" y2="23.247"/>
</g>
</svg>
