<?xml version="1.0" encoding="utf-8"?>
<!-- Generator: Adobe Illustrator 14.0.0, SVG Export Plug-In . SVG Version: 6.00 Build 43363)  -->
<!DOCTYPE svg PUBLIC "-//W3C//DTD SVG 1.1//EN" "http://www.w3.org/Graphics/SVG/1.1/DTD/svg11.dtd">
<svg version="1.1"
	 id="svg2" sodipodi:docbase="C:\Radix\dev\trunk\org.radixware\kernel\designer\src\common.resources\src\org\radixware\kernel\designer\resources\icons\widgets" inkscape:version="0.46" sodipodi:docname="dateedit.svg" sodipodi:version="0.32" inkscape:output_extension="org.inkscape.output.svg.inkscape" xmlns:sodipodi="http://sodipodi.sourceforge.net/DTD/sodipodi-0.dtd" xmlns:cc="http://creativecommons.org/ns#" xmlns:dc="http://purl.org/dc/elements/1.1/" xmlns:rdf="http://www.w3.org/1999/02/22-rdf-syntax-ns#" xmlns:svg="http://www.w3.org/2000/svg" xmlns:inkscape="http://www.inkscape.org/namespaces/inkscape"
	 xmlns="http://www.w3.org/2000/svg" xmlns:xlink="http://www.w3.org/1999/xlink" x="0px" y="0px" width="24px" height="24px"
	 viewBox="4 4 24 24" enable-background="new 4 4 24 24" xml:space="preserve">
<g>
	<g>
		<path fill="#02ABD8" stroke="#000000" stroke-width="0.9461" d="M11.392,27.516c-0.515,0-0.933-0.429-0.933-0.96V5.438
			c0-0.531,0.418-0.96,0.933-0.96h10.382c0.247,0,0.484,0.101,0.658,0.281l4.822,4.965c0.174,0.18,0.273,0.424,0.273,0.679v16.153
			c0,0.531-0.418,0.96-0.934,0.96H11.392z"/>
		<polygon id="polygon2926_13_" fill="#02ABD8" points="21.773,5.438 11.392,5.438 11.392,26.556 26.594,26.556 26.594,10.402 		"/>
		<polygon id="polygon2928_13_" fill="#FFFFFF" points="25.238,9.786 25.238,25.066 12.749,25.066 12.749,6.927 22.463,6.927 
			23.789,8.479 		"/>
		<path fill="#02ABD8" stroke="#000000" stroke-width="0.9461" d="M21.771,11.362c-0.516,0-0.932-0.43-0.932-0.96V5.437
			c0-0.389,0.227-0.739,0.574-0.887c0.116-0.05,0.237-0.073,0.357-0.073c0.242,0,0.48,0.098,0.658,0.281l4.824,4.966
			c0.266,0.274,0.348,0.688,0.201,1.046c-0.143,0.359-0.484,0.593-0.861,0.593H21.771z"/>
		<polygon id="polygon2932_13_" fill="#02ABD8" points="21.771,10.402 26.594,10.402 21.771,5.437 		"/>
	</g>
	<g>
		<path fill="#02ABD8" stroke="#000000" stroke-width="0.8896" d="M5.334,27.552c-0.248,0-0.486-0.104-0.654-0.287
			c-0.169-0.184-0.252-0.429-0.232-0.677c0.307-3.659,3.864-6.525,8.1-6.525c4.236,0,7.793,2.866,8.098,6.525
			c0.021,0.248-0.063,0.493-0.23,0.677c-0.169,0.183-0.407,0.287-0.655,0.287H5.334z"/>
		<path id="path5814_21_" fill="#02ABD8" d="M19.759,26.662c-0.266-3.189-3.39-5.71-7.212-5.71c-3.824,0-6.945,2.521-7.213,5.71
			H19.759z"/>
		
			<linearGradient id="path5823_1_" gradientUnits="userSpaceOnUse" x1="848.166" y1="1925.166" x2="861.2471" y2="1925.166" gradientTransform="matrix(1 0 0 1 -842.1602 -1901.3594)">
			<stop  offset="0" style="stop-color:#B0D0DA"/>
			<stop  offset="1" style="stop-color:#147D9E"/>
		</linearGradient>
		<path id="path5823_18_" fill="url(#path5823_1_)" d="M6.006,26.084c0.576-2.599,3.318-4.554,6.542-4.554s5.963,1.955,6.539,4.554
			H6.006z"/>
		<path id="path5827_18_" d="M11.489,26.561c-0.318,0-0.578-0.259-0.578-0.58v-4.237c0-0.318,0.258-0.577,0.578-0.577h1.856
			c0.32,0,0.577,0.256,0.577,0.577v4.237c0,0.32-0.256,0.58-0.577,0.58H11.489z"/>
		<rect id="rect5829_18_" x="11.489" y="21.744" fill="#FAA81D" width="1.856" height="4.237"/>
		<path d="M19.935,16.314c0-0.866-0.567-1.594-1.347-1.853c-0.795-2.582-3.2-4.465-6.04-4.465s-5.247,1.883-6.042,4.465
			c-0.779,0.258-1.348,0.986-1.348,1.853c0,0.865,0.568,1.594,1.348,1.853c0.795,2.583,3.202,4.466,6.042,4.466
			c2.839,0,5.245-1.884,6.04-4.466C19.367,17.908,19.935,17.18,19.935,16.314z"/>
		<rect id="rect5831_18_" x="11.149" y="23.104" width="2.649" height="0.703"/>
		<path id="path5837_24_" fill="#EFD9CA" d="M17.976,16.314c0,2.999-2.432,5.429-5.428,5.429c-2.999,0-5.431-2.43-5.431-5.429
			c0-2.998,2.432-5.428,5.431-5.428C15.544,10.885,17.976,13.314,17.976,16.314z"/>
		
			<circle id="circle5839_24_" sodipodi:cy="12.352" sodipodi:ry="1.925" sodipodi:rx="1.925" sodipodi:cx="6.237" fill="#EFD9CA" cx="7.117" cy="16.314" r="1.07">
		</circle>
		
			<circle id="circle5841_24_" sodipodi:cy="12.352" sodipodi:ry="1.925" sodipodi:rx="1.925" sodipodi:cx="25.764999" fill="#EFD9CA" cx="17.976" cy="16.314" r="1.07">
		</circle>
		
			<linearGradient id="path5850_1_" gradientUnits="userSpaceOnUse" x1="849.8555" y1="1917.6738" x2="859.5576" y2="1917.6738" gradientTransform="matrix(1 0 0 1 -842.1602 -1901.3594)">
			<stop  offset="0" style="stop-color:#E0B59B;stop-opacity:0"/>
			<stop  offset="1" style="stop-color:#E0B59B"/>
		</linearGradient>
		<path id="path5850_22_" fill="url(#path5850_1_)" d="M12.547,21.166c-2.676,0-4.852-2.179-4.852-4.852
			c0-2.676,2.177-4.853,4.852-4.853c2.674,0,4.851,2.177,4.851,4.853C17.397,18.987,15.221,21.166,12.547,21.166L12.547,21.166z"/>
		<path id="path5852_24_" d="M7.232,15.287c-0.048,0.545,0.072,1.621,0.176,2.151c-0.006-0.666-0.104-1.752,0.21-2.337
			c0.435-0.817,5.078,0.156,6.816-3.354c-0.071,1.022-0.236,1.961,2.615,4.029c0.147,0.106,0.799,1.76,0.754,1.895
			c-0.045-0.43,0.183-1.504,0.18-1.955c-0.009-0.936-0.102-1.542-0.386-1.965c-0.324-0.48-1.154-1.395-1.569-1.803
			c-1.425-1.394-3.645-1.695-5.514-1.018c-0.969,0.352-1.603,1.13-2.266,1.775c-0.267,0.258-1.726,2.281-1.148,2.448"/>
	</g>
</g>
</svg>
