<?xml version="1.0" encoding="utf-8"?>
<!-- Generator: Adobe Illustrator 14.0.0, SVG Export Plug-In . SVG Version: 6.00 Build 43363)  -->
<!DOCTYPE svg PUBLIC "-//W3C//DTD SVG 1.1//EN" "http://www.w3.org/Graphics/SVG/1.1/DTD/svg11.dtd">
<svg version="1.1"
	 id="svg2" sodipodi:docbase="C:\Radix\dev\trunk\org.radixware\kernel\designer\src\common.resources\src\org\radixware\kernel\designer\resources\icons\widgets" inkscape:version="0.46" sodipodi:version="0.32" sodipodi:docname="dateedit.svg" inkscape:output_extension="org.inkscape.output.svg.inkscape" xmlns:sodipodi="http://sodipodi.sourceforge.net/DTD/sodipodi-0.dtd" xmlns:cc="http://creativecommons.org/ns#" xmlns:dc="http://purl.org/dc/elements/1.1/" xmlns:rdf="http://www.w3.org/1999/02/22-rdf-syntax-ns#" xmlns:svg="http://www.w3.org/2000/svg" xmlns:inkscape="http://www.inkscape.org/namespaces/inkscape"
	 xmlns="http://www.w3.org/2000/svg" xmlns:xlink="http://www.w3.org/1999/xlink" x="0px" y="0px" width="24px" height="24px"
	 viewBox="0 0 24 24" enable-background="new 0 0 24 24" xml:space="preserve">
<g>
	<path d="M1,6C0.447,6,0,5.552,0,5V1c0-0.552,0.447-1,1-1h4c0.554,0,1,0.448,1,1v4c0,0.552-0.446,1-1,1H1z"/>
	<rect x="1" y="1" fill="#6EBD46" width="4" height="4"/>
	
		<linearGradient id="SVGID_1_" gradientUnits="userSpaceOnUse" x1="565.0801" y1="820.6797" x2="567.0801" y2="820.6797" gradientTransform="matrix(1 0 0 1 -563.0801 -817.6797)">
		<stop  offset="0" style="stop-color:#B0D68C"/>
		<stop  offset="1" style="stop-color:#1E9046"/>
	</linearGradient>
	<rect x="2" y="2" fill="url(#SVGID_1_)" width="2" height="2"/>
	<path d="M10,6C9.447,6,9,5.552,9,5V1c0-0.552,0.447-1,1-1h4c0.554,0,1,0.448,1,1v4c0,0.552-0.446,1-1,1H10z"/>
	<rect x="10" y="1" fill="#6EBD46" width="4" height="4"/>
	
		<linearGradient id="SVGID_2_" gradientUnits="userSpaceOnUse" x1="574.0801" y1="820.6797" x2="576.0801" y2="820.6797" gradientTransform="matrix(1 0 0 1 -563.0801 -817.6797)">
		<stop  offset="0" style="stop-color:#B0D68C"/>
		<stop  offset="1" style="stop-color:#1E9046"/>
	</linearGradient>
	<rect x="11" y="2" fill="url(#SVGID_2_)" width="2" height="2"/>
	<path d="M19,6c-0.553,0-1-0.448-1-1V1c0-0.552,0.447-1,1-1h4c0.554,0,1,0.448,1,1v4c0,0.552-0.446,1-1,1H19z"/>
	<rect x="19" y="1" fill="#6EBD46" width="4" height="4"/>
	
		<linearGradient id="SVGID_3_" gradientUnits="userSpaceOnUse" x1="583.0801" y1="820.6797" x2="585.0801" y2="820.6797" gradientTransform="matrix(1 0 0 1 -563.0801 -817.6797)">
		<stop  offset="0" style="stop-color:#B0D68C"/>
		<stop  offset="1" style="stop-color:#1E9046"/>
	</linearGradient>
	<rect x="20" y="2" fill="url(#SVGID_3_)" width="2" height="2"/>
	<path d="M1,24c-0.553,0-1-0.446-1-1v-4c0-0.553,0.447-1,1-1h4c0.554,0,1,0.447,1,1v4c0,0.554-0.446,1-1,1H1z"/>
	<rect x="1" y="19" fill="#6EBD46" width="4" height="4"/>
	
		<linearGradient id="SVGID_4_" gradientUnits="userSpaceOnUse" x1="565.0801" y1="838.6797" x2="567.0801" y2="838.6797" gradientTransform="matrix(1 0 0 1 -563.0801 -817.6797)">
		<stop  offset="0" style="stop-color:#B0D68C"/>
		<stop  offset="1" style="stop-color:#1E9046"/>
	</linearGradient>
	<rect x="2" y="20" fill="url(#SVGID_4_)" width="2" height="2"/>
	<path d="M10,24c-0.553,0-1-0.446-1-1v-4c0-0.553,0.447-1,1-1h4c0.554,0,1,0.447,1,1v4c0,0.554-0.446,1-1,1H10z"/>
	<rect x="10" y="19" fill="#6EBD46" width="4" height="4"/>
	
		<linearGradient id="SVGID_5_" gradientUnits="userSpaceOnUse" x1="574.0801" y1="838.6797" x2="576.0801" y2="838.6797" gradientTransform="matrix(1 0 0 1 -563.0801 -817.6797)">
		<stop  offset="0" style="stop-color:#B0D68C"/>
		<stop  offset="1" style="stop-color:#1E9046"/>
	</linearGradient>
	<rect x="11" y="20" fill="url(#SVGID_5_)" width="2" height="2"/>
	<path d="M19,24c-0.553,0-1-0.446-1-1v-4c0-0.553,0.447-1,1-1h4c0.554,0,1,0.447,1,1v4c0,0.554-0.446,1-1,1H19z"/>
	<rect x="19" y="19" fill="#6EBD46" width="4" height="4"/>
	
		<linearGradient id="SVGID_6_" gradientUnits="userSpaceOnUse" x1="583.0801" y1="838.6797" x2="585.0801" y2="838.6797" gradientTransform="matrix(1 0 0 1 -563.0801 -817.6797)">
		<stop  offset="0" style="stop-color:#B0D68C"/>
		<stop  offset="1" style="stop-color:#1E9046"/>
	</linearGradient>
	<rect x="20" y="20" fill="url(#SVGID_6_)" width="2" height="2"/>
	<path d="M1,15c-0.553,0-1-0.446-1-1v-4c0-0.553,0.447-1,1-1h4c0.554,0,1,0.447,1,1v4c0,0.554-0.446,1-1,1H1z"/>
	<rect x="1" y="10" fill="#6EBD46" width="4" height="4"/>
	
		<linearGradient id="SVGID_7_" gradientUnits="userSpaceOnUse" x1="565.0801" y1="829.6797" x2="567.0801" y2="829.6797" gradientTransform="matrix(1 0 0 1 -563.0801 -817.6797)">
		<stop  offset="0" style="stop-color:#B0D68C"/>
		<stop  offset="1" style="stop-color:#1E9046"/>
	</linearGradient>
	<rect x="2" y="11" fill="url(#SVGID_7_)" width="2" height="2"/>
	<path d="M10,15c-0.553,0-1-0.446-1-1v-4c0-0.553,0.447-1,1-1h4c0.554,0,1,0.447,1,1v4c0,0.554-0.446,1-1,1H10z"/>
	<rect x="10" y="10" fill="#6EBD46" width="4" height="4"/>
	
		<linearGradient id="SVGID_8_" gradientUnits="userSpaceOnUse" x1="574.0801" y1="829.6797" x2="576.0801" y2="829.6797" gradientTransform="matrix(1 0 0 1 -563.0801 -817.6797)">
		<stop  offset="0" style="stop-color:#B0D68C"/>
		<stop  offset="1" style="stop-color:#1E9046"/>
	</linearGradient>
	<rect x="11" y="11" fill="url(#SVGID_8_)" width="2" height="2"/>
	<path d="M19,15c-0.553,0-1-0.446-1-1v-4c0-0.553,0.447-1,1-1h4c0.554,0,1,0.447,1,1v4c0,0.554-0.446,1-1,1H19z"/>
	<rect x="19" y="10" fill="#6EBD46" width="4" height="4"/>
	
		<linearGradient id="SVGID_9_" gradientUnits="userSpaceOnUse" x1="583.0801" y1="829.6797" x2="585.0801" y2="829.6797" gradientTransform="matrix(1 0 0 1 -563.0801 -817.6797)">
		<stop  offset="0" style="stop-color:#B0D68C"/>
		<stop  offset="1" style="stop-color:#1E9046"/>
	</linearGradient>
	<rect x="20" y="11" fill="url(#SVGID_9_)" width="2" height="2"/>
</g>
</svg>
