<?xml version="1.0" encoding="utf-8"?>
<!-- Generator: Adobe Illustrator 14.0.0, SVG Export Plug-In . SVG Version: 6.00 Build 43363)  -->
<!DOCTYPE svg PUBLIC "-//W3C//DTD SVG 1.1//EN" "http://www.w3.org/Graphics/SVG/1.1/DTD/svg11.dtd">
<svg version="1.1"
	 id="svg2" sodipodi:docbase="C:\Radix\dev\trunk\org.radixware\kernel\designer\src\common.resources\src\org\radixware\kernel\designer\resources\icons\widgets" inkscape:version="0.46" sodipodi:version="0.32" sodipodi:docname="dateedit.svg" inkscape:output_extension="org.inkscape.output.svg.inkscape" xmlns:sodipodi="http://sodipodi.sourceforge.net/DTD/sodipodi-0.dtd" xmlns:cc="http://creativecommons.org/ns#" xmlns:dc="http://purl.org/dc/elements/1.1/" xmlns:rdf="http://www.w3.org/1999/02/22-rdf-syntax-ns#" xmlns:svg="http://www.w3.org/2000/svg" xmlns:inkscape="http://www.inkscape.org/namespaces/inkscape"
	 xmlns="http://www.w3.org/2000/svg" xmlns:xlink="http://www.w3.org/1999/xlink" x="0px" y="0px" width="24px" height="24px"
	 viewBox="0 0 24 24" enable-background="new 0 0 24 24" xml:space="preserve">
<g>
	<path fill="#231F20" d="M2.193,24c-0.553,0-1-0.447-1-1V1c0-0.552,0.447-1,1-1h19.613c0.553,0,1,0.448,1,1v22c0,0.553-0.447,1-1,1
		H2.193z"/>
	<polygon fill="#FFFFFF" points="2.193,1 2.193,6.602 2.193,23 21.807,23 21.807,6.602 21.807,1 	"/>
	<linearGradient id="SVGID_1_" gradientUnits="userSpaceOnUse" x1="3.1934" y1="12" x2="20.8066" y2="12">
		<stop  offset="0" style="stop-color:#CFCFCF;stop-opacity:0"/>
		<stop  offset="1" style="stop-color:#CFCFCF"/>
	</linearGradient>
	<rect x="3.193" y="2" fill="url(#SVGID_1_)" width="17.613" height="20"/>
	<g>
		<line fill="none" stroke="#000000" stroke-width="1.0591" x1="3.984" y1="4.871" x2="19.705" y2="4.871"/>
		<line fill="none" stroke="#000000" stroke-width="1.0591" x1="3.984" y1="9.726" x2="19.705" y2="9.726"/>
		<line fill="none" stroke="#000000" stroke-width="1.0591" x1="3.984" y1="15.072" x2="19.705" y2="15.072"/>
		<line fill="none" stroke="#000000" stroke-width="1.0591" x1="3.984" y1="19.988" x2="19.705" y2="19.988"/>
	</g>
</g>
</svg>
