<?xml version="1.0" encoding="utf-8"?>
<!-- Generator: Adobe Illustrator 14.0.0, SVG Export Plug-In . SVG Version: 6.00 Build 43363)  -->
<!DOCTYPE svg PUBLIC "-//W3C//DTD SVG 1.1//EN" "http://www.w3.org/Graphics/SVG/1.1/DTD/svg11.dtd">
<svg version="1.1"
	 id="svg2588" xmlns:ns="http://creativecommons.org/ns#" xmlns:svg="http://www.w3.org/2000/svg" xmlns:cc="http://web.resource.org/cc/" xmlns:dc="http://purl.org/dc/elements/1.1/" xmlns:rdf="http://www.w3.org/1999/02/22-rdf-syntax-ns#" xmlns:inkscape="http://www.inkscape.org/namespaces/inkscape" xmlns:sodipodi="http://sodipodi.sourceforge.net/DTD/sodipodi-0.dtd" sodipodi:version="0.32" inkscape:version="0.45.1" sodipodi:docname="var.svg" sodipodi:docbase="C:\Radix\dev\trunk\org.radixware\kernel\designer\src\common.resources\src\org\radixware\kernel\designer\resources\icons\workflow\palette" inkscape:output_extension="org.inkscape.output.svg.inkscape"
	 xmlns="http://www.w3.org/2000/svg" xmlns:xlink="http://www.w3.org/1999/xlink" x="0px" y="0px" width="32px" height="32px"
	 viewBox="0 0 32 32" enable-background="new 0 0 32 32" xml:space="preserve">
<sodipodi:namedview  id="base" inkscape:cy="16" inkscape:cx="0.68449433" inkscape:zoom="11.197802" showgrid="true" borderopacity="1.0" bordercolor="#666666" pagecolor="#ffffff" inkscape:window-height="944" inkscape:window-width="1280" inkscape:pageshadow="2" inkscape:pageopacity="0.0" inkscape:current-layer="layer1" inkscape:window-y="-8" inkscape:window-x="-8" inkscape:document-units="px" inkscape:grid-bbox="true">
	</sodipodi:namedview>
<path d="M10.999,22C4.934,22,0,17.065,0,10.999C0,4.934,4.934,0,10.999,0C17.065,0,22,4.934,22,10.999
	C22,17.065,17.065,22,10.999,22L10.999,22z"/>
<radialGradient id="SVGID_1_" cx="11.0376" cy="-97.1152" r="13.0211" gradientTransform="matrix(1 0 0 -1 2.46 -88.8398)" gradientUnits="userSpaceOnUse">
	<stop  offset="0" style="stop-color:#FFFFFF"/>
	<stop  offset="0.2485" style="stop-color:#B0D68C"/>
	<stop  offset="0.7394" style="stop-color:#1E9046"/>
	<stop  offset="1" style="stop-color:#135E2F"/>
</radialGradient>
<path fill="url(#SVGID_1_)" d="M10.999,21C5.484,21,1,16.513,1,10.999C1,5.486,5.484,1,10.999,1C16.512,1,21,5.486,21,10.999
	C21,16.513,16.512,21,10.999,21L10.999,21z"/>
<path d="M32,14.542v-0.035c0-0.051-0.011-0.1-0.018-0.149c-0.002-0.013,0.002-0.025,0-0.038c-0.002-0.008-0.006-0.014-0.008-0.021
	c-0.006-0.03-0.016-0.059-0.025-0.088c-0.004-0.014-0.001-0.027-0.006-0.041c-0.007-0.02-0.021-0.034-0.029-0.053
	c-0.013-0.03-0.023-0.062-0.039-0.091c-0.012-0.021-0.027-0.037-0.039-0.058c-0.004-0.004-0.006-0.008-0.01-0.013
	c-0.019-0.028-0.035-0.058-0.057-0.083c-0.021-0.027-0.048-0.051-0.073-0.075c-0.022-0.021-0.044-0.042-0.067-0.062
	c-0.016-0.012-0.027-0.026-0.043-0.038c-0.036-0.026-0.077-0.043-0.117-0.063c-0.038-0.021-0.075-0.042-0.116-0.058
	c-0.058-0.021-0.117-0.033-0.179-0.044c-0.032-0.006-0.062-0.021-0.095-0.023l-9.742-3.454c-0.108-0.039-0.221-0.058-0.334-0.058
	s-0.226,0.019-0.334,0.058l-9.742,3.454c-0.061,0.005-0.119,0.02-0.176,0.035c-0.048,0.013-0.093,0.032-0.139,0.052
	c-0.042,0.02-0.086,0.037-0.126,0.063c-0.017,0.01-0.037,0.016-0.054,0.026c-0.002,0.002-0.005,0.003-0.008,0.004
	c-0.076,0.054-0.14,0.119-0.197,0.19c-0.013,0.016-0.022,0.033-0.035,0.05c-0.044,0.063-0.082,0.13-0.111,0.202
	c-0.005,0.013-0.015,0.021-0.019,0.034c-0.003,0.01-0.001,0.019-0.004,0.028c-0.033,0.1-0.057,0.204-0.057,0.313v12.942
	c0,0.424,0.267,0.801,0.666,0.942l10,3.551c0.006,0.002,0.012,0.001,0.018,0.003C20.788,31.979,20.895,32,21.003,32
	s0.214-0.021,0.317-0.055c0.006-0.002,0.012-0.001,0.018-0.003l9.996-3.551C31.733,28.25,32,27.873,32,27.449V14.554
	C32,14.55,32,14.546,32,14.542z"/>
<polygon id="polygon5202_13_" fill="#007D9E" points="11.002,14.507 21.003,18.055 21.003,31 11.002,27.449 "/>
<polygon id="polygon5204_13_" fill="#71C4DA" points="31,14.507 21.003,18.055 21.003,31 31,27.449 "/>
<polygon id="polygon5206_13_" fill="#00ACDA" points="30.898,14.507 21.003,10.998 11.107,14.507 11.002,14.507 11.049,14.525 
	11.002,14.544 11.107,14.544 21.003,18.055 30.898,14.544 31,14.544 30.953,14.525 31,14.507 "/>
<linearGradient id="polygon6538_1_" gradientUnits="userSpaceOnUse" x1="1094.2051" y1="2058.9697" x2="1106.2322" y2="2047.0532" gradientTransform="matrix(0.5772 0 0 0.5772 -620.9862 -1160.3798)">
	<stop  offset="0" style="stop-color:#004B5E"/>
	<stop  offset="1" style="stop-color:#004B5E;stop-opacity:0"/>
</linearGradient>
<polygon id="polygon6538_5_" fill="url(#polygon6538_1_)" points="11.382,15.037 20.65,18.326 20.65,30.322 11.382,27.035 "/>
<linearGradient id="polygon6548_1_" gradientUnits="userSpaceOnUse" x1="1179.6328" y1="2131.2607" x2="1165.9662" y2="2116.5471" gradientTransform="matrix(0.5627 0 0 0.5627 -632.1385 -1170.2723)">
	<stop  offset="0" style="stop-color:#D4F6FF"/>
	<stop  offset="1" style="stop-color:#D4F6FF;stop-opacity:0"/>
</linearGradient>
<polygon id="polygon6548_5_" fill="url(#polygon6548_1_)" points="30.33,15.261 21.291,18.464 21.291,30.162 30.33,26.955 "/>
<linearGradient id="path6572_1_" gradientUnits="userSpaceOnUse" x1="-3263.4546" y1="-2392.7373" x2="-3279.0166" y2="-2392.7769" gradientTransform="matrix(0 -0.6226 -0.6226 0 -1468.8159 -2012.8638)">
	<stop  offset="0" style="stop-color:#FFFFFF"/>
	<stop  offset="1" style="stop-color:#FFFFFF;stop-opacity:0"/>
</linearGradient>
<path id="path6572_13_" fill="url(#path6572_1_)" d="M20.33,17.915l0.542,12.843h-0.011l0.607-13.022L20.33,17.915L20.33,17.915z"/>
<linearGradient id="path6582_1_" gradientUnits="userSpaceOnUse" x1="-1537.792" y1="2276.0791" x2="-1551.0509" y2="2276.0728" gradientTransform="matrix(-0.5857 0.2112 0.2112 0.5857 -1359.8506 -990.4374)">
	<stop  offset="0" style="stop-color:#FFFFFF"/>
	<stop  offset="1" style="stop-color:#FFFFFF;stop-opacity:0"/>
</linearGradient>
<path id="path6582_15_" fill="url(#path6582_1_)" d="M21.037,18.668l9.965-4.161L20.479,17.66L21.037,18.668z"/>
<linearGradient id="path6586_1_" gradientUnits="userSpaceOnUse" x1="1713.6289" y1="1103.5225" x2="1700.87" y2="1103.511" gradientTransform="matrix(0.5857 0.2112 -0.2112 0.5857 -750.5371 -990.4677)">
	<stop  offset="0" style="stop-color:#FFFFFF"/>
	<stop  offset="1" style="stop-color:#FFFFFF;stop-opacity:0"/>
</linearGradient>
<path id="path6586_13_" fill="url(#path6586_1_)" d="M20.725,18.622l-9.721-4.115l10.28,3.112L20.725,18.622z"/>
</svg>
