<?xml version="1.0" encoding="utf-8"?>
<!-- Generator: Adobe Illustrator 14.0.0, SVG Export Plug-In . SVG Version: 6.00 Build 43363)  -->
<!DOCTYPE svg PUBLIC "-//W3C//DTD SVG 1.1//EN" "http://www.w3.org/Graphics/SVG/1.1/DTD/svg11.dtd">
<svg version="1.1"
	 id="svg2" sodipodi:docbase="C:\Radix\dev\trunk\org.radixware\kernel\designer\src\common.resources\src\org\radixware\kernel\designer\resources\icons\widgets" inkscape:version="0.46" sodipodi:version="0.32" sodipodi:docname="dateedit.svg" inkscape:output_extension="org.inkscape.output.svg.inkscape" xmlns:sodipodi="http://sodipodi.sourceforge.net/DTD/sodipodi-0.dtd" xmlns:cc="http://creativecommons.org/ns#" xmlns:dc="http://purl.org/dc/elements/1.1/" xmlns:rdf="http://www.w3.org/1999/02/22-rdf-syntax-ns#" xmlns:svg="http://www.w3.org/2000/svg" xmlns:inkscape="http://www.inkscape.org/namespaces/inkscape"
	 xmlns="http://www.w3.org/2000/svg" xmlns:xlink="http://www.w3.org/1999/xlink" x="0px" y="0px" width="24px" height="24px"
	 viewBox="0 0 24 24" enable-background="new 0 0 24 24" xml:space="preserve">
<g>
	<path d="M11,24c-0.553,0-1-0.447-1-1V1c0-0.552,0.447-1,1-1h2c0.553,0,1,0.448,1,1v22c0,0.553-0.447,1-1,1H11z"/>
	<rect x="11" y="1" fill="#FFFFFF" width="2" height="22"/>
	<path fill="#231F20" d="M18,15.056c-0.158,0-0.318-0.038-0.465-0.115C17.207,14.768,17,14.427,17,14.056V9.944
		c0-0.371,0.205-0.711,0.533-0.885C17.68,8.982,17.84,8.944,18,8.944c0.199,0,0.396,0.059,0.564,0.175l3,2.054
		C21.838,11.358,22,11.667,22,11.997s-0.162,0.639-0.434,0.825l-3,2.058C18.396,14.997,18.199,15.056,18,15.056L18,15.056z"/>
	<polygon fill="#FFFFFF" points="18,9.944 21,11.997 18,14.056 	"/>
	<path fill="#231F20" d="M6,8.944c0.159,0,0.319,0.038,0.466,0.115C6.793,9.232,7,9.573,7,9.944v4.111
		c0,0.371-0.205,0.711-0.533,0.885C6.32,15.018,6.16,15.056,6,15.056c-0.198,0-0.396-0.059-0.564-0.175l-3-2.053
		C2.163,12.642,2,12.333,2,12.003s0.162-0.639,0.435-0.825l3-2.058C5.603,9.003,5.801,8.944,6,8.944L6,8.944z"/>
	<polygon fill="#FFFFFF" points="6,14.056 3,12.003 6,9.944 	"/>
	<linearGradient id="SVGID_1_" gradientUnits="userSpaceOnUse" x1="10.9995" y1="12" x2="13" y2="12">
		<stop  offset="0" style="stop-color:#CFCFCF;stop-opacity:0"/>
		<stop  offset="1" style="stop-color:#949494"/>
	</linearGradient>
	<rect x="11" y="1" fill="url(#SVGID_1_)" width="2" height="22"/>
</g>
</svg>
