<?xml version="1.0" encoding="utf-8"?>
<!-- Generator: Adobe Illustrator 14.0.0, SVG Export Plug-In . SVG Version: 6.00 Build 43363)  -->
<!DOCTYPE svg PUBLIC "-//W3C//DTD SVG 1.1//EN" "http://www.w3.org/Graphics/SVG/1.1/DTD/svg11.dtd">
<svg version="1.1"
	 id="svg2" sodipodi:docbase="C:\Radix\dev\trunk\org.radixware\kernel\designer\src\common.resources\src\org\radixware\kernel\designer\resources\icons\widgets" inkscape:version="0.46" sodipodi:docname="dateedit.svg" sodipodi:version="0.32" inkscape:output_extension="org.inkscape.output.svg.inkscape" xmlns:sodipodi="http://sodipodi.sourceforge.net/DTD/sodipodi-0.dtd" xmlns:cc="http://creativecommons.org/ns#" xmlns:dc="http://purl.org/dc/elements/1.1/" xmlns:rdf="http://www.w3.org/1999/02/22-rdf-syntax-ns#" xmlns:svg="http://www.w3.org/2000/svg" xmlns:inkscape="http://www.inkscape.org/namespaces/inkscape"
	 xmlns="http://www.w3.org/2000/svg" xmlns:xlink="http://www.w3.org/1999/xlink" x="0px" y="0px" width="24px" height="24px"
	 viewBox="4 4 24 24" enable-background="new 4 4 24 24" xml:space="preserve">
<g>
	<path d="M5,26.335c-0.553,0-1-0.447-1-1V6.665c0-0.553,0.447-1,1-1h22c0.553,0,1,0.447,1,1v18.67c0,0.553-0.447,1-1,1H5z"/>
	<rect x="5" y="6.665" fill="#DAEBF1" width="22" height="18.67"/>
	
		<linearGradient id="SVGID_1_" gradientUnits="userSpaceOnUse" x1="565.6201" y1="-906.7793" x2="587.6201" y2="-906.7793" gradientTransform="matrix(1 0 0 -1 -560.6201 -897.5195)">
		<stop  offset="0" style="stop-color:#AECFD9"/>
		<stop  offset="1" style="stop-color:#0C7C9E"/>
	</linearGradient>
	<rect x="5" y="6.665" fill="url(#SVGID_1_)" width="22" height="5.189"/>
	<line fill="none" stroke="#000000" x1="5" y1="11.854" x2="27" y2="11.854"/>
	<line fill="none" stroke="#000000" x1="5" y1="16.294" x2="27" y2="16.294"/>
	<line fill="none" stroke="#000000" x1="5" y1="21.173" x2="27" y2="21.173"/>
	<line fill="none" stroke="#000000" x1="12.109" y1="11.866" x2="12.109" y2="25.347"/>
	<line fill="none" stroke="#000000" x1="19.939" y1="11.892" x2="19.939" y2="25.372"/>
</g>
</svg>
