<?xml version="1.0" encoding="utf-8"?>
<!-- Generator: Adobe Illustrator 14.0.0, SVG Export Plug-In . SVG Version: 6.00 Build 43363)  -->
<!DOCTYPE svg PUBLIC "-//W3C//DTD SVG 1.1//EN" "http://www.w3.org/Graphics/SVG/1.1/DTD/svg11.dtd">
<svg version="1.1"
	 id="svg2" sodipodi:docbase="C:\Radix\dev\trunk\org.radixware\kernel\designer\src\common.resources\src\org\radixware\kernel\designer\resources\icons\widgets" inkscape:version="0.46" sodipodi:docname="dateedit.svg" sodipodi:version="0.32" inkscape:output_extension="org.inkscape.output.svg.inkscape" xmlns:sodipodi="http://sodipodi.sourceforge.net/DTD/sodipodi-0.dtd" xmlns:cc="http://creativecommons.org/ns#" xmlns:dc="http://purl.org/dc/elements/1.1/" xmlns:rdf="http://www.w3.org/1999/02/22-rdf-syntax-ns#" xmlns:svg="http://www.w3.org/2000/svg" xmlns:inkscape="http://www.inkscape.org/namespaces/inkscape"
	 xmlns="http://www.w3.org/2000/svg" xmlns:xlink="http://www.w3.org/1999/xlink" x="0px" y="0px" width="24px" height="24px"
	 viewBox="4 4 24 24" enable-background="new 4 4 24 24" xml:space="preserve">
<g>
	<polyline id="line9" fill="none" stroke="#000000" points="8.195,18.81 8.195,16 23.831,16 23.831,19.221 	"/>
	<g>
		<path d="M10.811,13.72c-1.019,0-1.848-0.833-1.848-1.858V6.705c0-1.014,0.822-1.84,1.835-1.847C11.046,4.459,11.454,4,12.228,4
			h1.22c0.784,0,1.188,0.487,1.413,0.858h3.286c1.018,0,1.845,0.829,1.845,1.847v5.157c0,1.024-0.827,1.858-1.845,1.858H10.811z"/>
		<path id="rect5504_2_" fill="#A56A29" d="M12.228,5c-0.392,0-0.534,0.288-0.721,0.634l-0.123,0.225h-0.573
			c-0.472,0-0.848,0.375-0.848,0.847v5.157c0,0.473,0.376,0.858,0.848,0.858h7.336c0.472,0,0.845-0.385,0.845-0.858V6.705
			c0-0.472-0.373-0.847-0.845-0.847h-3.876l-0.123-0.225C13.96,5.288,13.839,5,13.447,5h-0.34h-0.54H12.228z"/>
		<path d="M10.942,14.12c-0.571,0-1.046-0.254-1.301-0.696c-0.256-0.442-0.238-0.98,0.048-1.475l2.358-4.075
			c0.39-0.678,1.244-1.171,2.03-1.171h7.477c0.572,0,1.047,0.254,1.303,0.698s0.236,0.98-0.049,1.475l-2.359,4.075
			c-0.395,0.679-1.248,1.17-2.03,1.17H10.942z"/>
		<path id="rect5498_2_" fill="#FAA91E" d="M14.078,7.703h7.477c0.43,0,0.604,0.3,0.389,0.671l-2.359,4.075
			c-0.216,0.371-0.736,0.671-1.165,0.671h-7.477c-0.429,0-0.602-0.3-0.388-0.671l2.358-4.074
			C13.127,8.003,13.649,7.703,14.078,7.703z"/>
		
			<linearGradient id="path44_2_" gradientUnits="userSpaceOnUse" x1="8.4131" y1="-99.2524" x2="19.165" y2="-99.2524" gradientTransform="matrix(1 0 0 -1 2.46 -88.8398)">
			<stop  offset="0" style="stop-color:#A56929"/>
			<stop  offset="0.5394" style="stop-color:#FAA91E"/>
			<stop  offset="1" style="stop-color:#FFF3E2"/>
		</linearGradient>
		<path id="path44_1_" fill="url(#path44_2_)" d="M10.942,12.718c-0.03,0-0.052-0.001-0.069-0.005
			c0.006-0.017,0.016-0.037,0.03-0.061l2.357-4.074c0.144-0.248,0.532-0.473,0.818-0.473h7.476c0.029,0,0.051,0.005,0.07,0.007
			c-0.006,0.016-0.016,0.037-0.029,0.062l-2.358,4.073c-0.145,0.247-0.534,0.472-0.818,0.472h-7.477V12.718z"/>
	</g>
	<g>
		<path d="M20.661,28c-0.553,0-1-0.447-1-1v-8.804c0-0.552,0.447-1,1-1h4.329c0.271,0,0.529,0.109,0.718,0.304l2.01,2.068
			C27.898,19.756,28,20.006,28,20.266V27c0,0.553-0.447,1-1,1H20.661z"/>
		<polygon id="polygon2926_1_" fill="#02ABD8" points="24.99,18.196 20.661,18.196 20.661,27 27,27 27,20.266 		"/>
		<polygon id="polygon2928_1_" fill="#FFFFFF" points="26.435,20.009 26.435,26.379 21.228,26.379 21.228,18.816 25.277,18.816 
			25.83,19.464 		"/>
		<path d="M24.989,21.266c-0.553,0-1-0.447-1-1v-2.07c0-0.407,0.247-0.773,0.624-0.927c0.122-0.05,0.249-0.073,0.376-0.073
			c0.265,0,0.525,0.105,0.718,0.303l2.011,2.07c0.279,0.289,0.359,0.717,0.203,1.087s-0.52,0.61-0.921,0.61H24.989z"/>
		<polygon id="polygon2932_1_" fill="#02ABD8" points="24.989,20.266 27,20.266 24.989,18.195 		"/>
	</g>
	<g>
		<path d="M5.025,28c-0.553,0-1-0.447-1-1v-8.804c0-0.553,0.447-1,1-1h4.329c0.271,0,0.529,0.109,0.718,0.304l2.01,2.069
			c0.181,0.187,0.282,0.437,0.282,0.696V27c0,0.553-0.447,1-1,1H5.025z"/>
		<polygon id="polygon2926_2_" fill="#02ABD8" points="9.354,18.196 5.025,18.196 5.025,27 11.364,27 11.364,20.266 		"/>
		<polygon id="polygon2928_2_" fill="#FFFFFF" points="10.799,20.009 10.799,26.379 5.592,26.379 5.592,18.816 9.642,18.816 
			10.194,19.464 		"/>
		<path d="M9.354,21.266c-0.553,0-1-0.447-1-1v-2.07c0-0.407,0.247-0.773,0.624-0.927c0.122-0.049,0.249-0.073,0.376-0.073
			c0.265,0,0.525,0.105,0.718,0.304l2.011,2.07c0.279,0.288,0.359,0.716,0.203,1.086s-0.52,0.61-0.921,0.61H9.354z"/>
		<polygon id="polygon2932_2_" fill="#02ABD8" points="9.354,20.266 11.364,20.266 9.354,18.195 		"/>
	</g>
	<line fill="none" stroke="#000000" x1="16.013" y1="15.585" x2="16.013" y2="13.72"/>
</g>
</svg>
