<?xml version="1.0" encoding="UTF-8" standalone="no"?>
<!-- Generator: Adobe Illustrator 15.0.0, SVG Export Plug-In . SVG Version: 6.00 Build 0)  -->

<svg
   xmlns:dc="http://purl.org/dc/elements/1.1/"
   xmlns:cc="http://creativecommons.org/ns#"
   xmlns:rdf="http://www.w3.org/1999/02/22-rdf-syntax-ns#"
   xmlns:svg="http://www.w3.org/2000/svg"
   xmlns="http://www.w3.org/2000/svg"
   xmlns:sodipodi="http://sodipodi.sourceforge.net/DTD/sodipodi-0.dtd"
   xmlns:inkscape="http://www.inkscape.org/namespaces/inkscape"
   version="1.1"
   id="svg2"
   sodipodi:version="0.32"
   inkscape:version="0.91 r13725"
   sodipodi:docname="attribute.svg"
   x="0px"
   y="0px"
   width="32px"
   height="32px"
   viewBox="-6.2 -6.2 32 32"
   enable-background="new -6.2 -6.2 32 32"
   xml:space="preserve"><metadata
     id="metadata21"><rdf:RDF><cc:Work
         rdf:about=""><dc:format>image/svg+xml</dc:format><dc:type
           rdf:resource="http://purl.org/dc/dcmitype/StillImage" /><dc:title /></cc:Work></rdf:RDF></metadata><defs
     id="defs19"><linearGradient
       id="SVGID_1_-9"
       gradientUnits="userSpaceOnUse"
       x1="20.1252"
       y1="9.7995996"
       x2="0.2018"
       y2="9.7995996"
       gradientTransform="translate(-3.7589471,-48.030073)"><stop
         offset="0"
         style="stop-color:#000000;stop-opacity:0.21"
         id="stop13-7" /><stop
         offset="1"
         style="stop-color:#000000;stop-opacity:0.03846154"
         id="stop15-7" /></linearGradient><linearGradient
       y2="0.17424928"
       x2="0.17509341"
       y1="19.425749"
       x1="19.425905"
       gradientUnits="userSpaceOnUse"
       id="SVGID_1_-95"
       gradientTransform="matrix(1.1428129,0,0,1.1427721,-1.400103,-1.3991312)"><stop
         id="stop4163"
         style="stop-color:#000000;stop-opacity:0.16239317"
         offset="0" /><stop
         id="stop4165"
         style="stop-color:#000000;stop-opacity:0.03921569"
         offset="1" /></linearGradient></defs><sodipodi:namedview
     id="base"
     inkscape:cy="16.397144"
     inkscape:cx="26.5625"
     inkscape:zoom="8"
     showgrid="true"
     borderopacity="1.0"
     bordercolor="#000000"
     pagecolor="#ffffff"
     inkscape:window-y="-8"
     inkscape:window-x="-8"
     inkscape:window-height="1017"
     inkscape:window-width="1920"
     inkscape:pageshadow="2"
     inkscape:pageopacity="0.0"
     inkscape:current-layer="g4"
     inkscape:document-units="px"
     inkscape:window-maximized="1"><inkscape:grid
       type="xygrid"
       id="grid4142" /></sodipodi:namedview><g
     id="g4"><g
       id="g4143"
       transform="matrix(0.78125,0,0,0.78125,2.1437502,2.1437494)"><path
         style="fill:#231f20"
         inkscape:connector-curvature="0"
         d="m -4.083518,25.800001 c -1.169098,5e-6 -2.116486,-0.948493 -2.116482,-2.115263 l 9.7e-5,-27.7693616 c 4e-6,-1.167913 0.946256,-2.1152746 2.116497,-2.1152787 l 27.766924,-9.68e-5 c 1.169097,-4e-6 2.116486,0.9462075 2.116482,2.1152641 l -9.7e-5,27.769361 c -4e-6,1.166771 -0.946257,2.115275 -2.116497,2.11528 l -27.766924,9.5e-5 z"
         id="path4158" /><path
         style="fill:#f9c20a;fill-opacity:1"
         inkscape:connector-curvature="0"
         d="m -2.731413,24.243969 c -1.055403,5e-6 -1.910658,-0.856251 -1.910655,-1.909553 l 8.8e-5,-25.0687904 c 4e-6,-1.0543339 0.854233,-1.9095652 1.910668,-1.9095676 l 25.066591,-8.83e-5 c 1.055402,-3.5e-6 1.910657,0.8541893 1.910654,1.9095553 l -8.8e-5,25.06879 c -3e-6,1.053303 -0.854233,1.909565 -1.910667,1.90957 l -25.066591,8.4e-5 z"
         id="path4158-8" /><rect
         ry="1.7694496"
         transform="matrix(1,-3.4789654e-6,-3.4789653e-6,1,0,0)"
         x="-1.9692243"
         y="-1.9693744"
         width="23.537376"
         height="23.538818"
         id="rect4167"
         style="fill:url(#SVGID_1_-95)" /></g></g></svg>