<?xml version="1.0" encoding="UTF-8" standalone="no"?>
<!-- Generator: Adobe Illustrator 15.0.0, SVG Export Plug-In . SVG Version: 6.00 Build 0)  -->

<svg
   xmlns:dc="http://purl.org/dc/elements/1.1/"
   xmlns:cc="http://creativecommons.org/ns#"
   xmlns:rdf="http://www.w3.org/1999/02/22-rdf-syntax-ns#"
   xmlns:svg="http://www.w3.org/2000/svg"
   xmlns="http://www.w3.org/2000/svg"
   xmlns:sodipodi="http://sodipodi.sourceforge.net/DTD/sodipodi-0.dtd"
   xmlns:inkscape="http://www.inkscape.org/namespaces/inkscape"
   version="1.1"
   id="svg9606"
   inkscape:output_extension="org.inkscape.output.svg.inkscape"
   sodipodi:version="0.32"
   inkscape:version="0.91 r13725"
   sodipodi:docname="changelog.svg"
   x="0px"
   y="0px"
   width="32px"
   height="32px"
   viewBox="0 0 32 32"
   enable-background="new 0 0 32 32"
   xml:space="preserve"><metadata
     id="metadata41"><rdf:RDF><cc:Work
         rdf:about=""><dc:format>image/svg+xml</dc:format><dc:type
           rdf:resource="http://purl.org/dc/dcmitype/StillImage" /><dc:title></dc:title></cc:Work></rdf:RDF></metadata><defs
     id="defs39" /><sodipodi:namedview
     id="base"
     inkscape:cy="19.338097"
     inkscape:cx="-15.390089"
     inkscape:zoom="11.197802"
     showgrid="true"
     borderopacity="1.0"
     bordercolor="#666666"
     pagecolor="#ffffff"
     inkscape:window-y="-8"
     inkscape:window-x="-8"
     inkscape:window-height="1017"
     inkscape:window-width="1920"
     inkscape:pageshadow="2"
     inkscape:pageopacity="0.0"
     inkscape:current-layer="g4171"
     inkscape:document-units="px"
     inkscape:grid-bbox="true"
     inkscape:window-maximized="1" /><g
     id="g4"
     transform="translate(0,3.2635)"><g
       id="g6"><path
         id="path4993"
         d="M 3.477,25.473 C 1.561,25.473 0,23.791 0,21.725 L 0,3.749 C 0,2.768 0.348,1.84 0.98,1.137 1.641,0.404 2.525,0 3.48,0 L 28.527,0 C 30.443,0 32,1.68 32,3.749 l 0,17.976 c 0,2.066 -1.557,3.748 -3.473,3.748 l -25.05,0 z"
         inkscape:connector-curvature="0"
         style="fill:#020202" /><path
         id="rect26074"
         d="m 3.477,1.046 25.047,0 c 1.345,0 2.429,1.204 2.429,2.702 l 0,17.977 c 0,1.495 -1.084,2.7 -2.429,2.7 l -25.047,0 c -1.347,0 -2.43,-1.205 -2.43,-2.7 l 0,-17.976 C 1.046,2.254 2.13,1.046 3.477,1.046 Z"
         inkscape:connector-curvature="0"
         style="fill:#ffffff" /><linearGradient
         id="SVGID_1_"
         gradientUnits="userSpaceOnUse"
         x1="309.22559"
         y1="-1085.0249"
         x2="286.30161"
         y2="-1069.276"
         gradientTransform="matrix(1,0,0,-1,-279.1001,-1062.585)"><stop
           offset="0"
           style="stop-color:#000000;stop-opacity:0.21"
           id="stop11" /><stop
           offset="1"
           style="stop-color:#000000;stop-opacity:0"
           id="stop13" /></linearGradient><path
         d="m 3.477,23.379 c -0.763,0 -1.384,-0.742 -1.384,-1.654 l 0,-17.976 c 0,-0.914 0.621,-1.656 1.384,-1.656 l 25.047,0 c 0.763,0 1.381,0.742 1.381,1.656 l 0,17.976 c 0,0.912 -0.62,1.654 -1.381,1.654 l -25.047,0 z"
         id="path15"
         style="fill:url(#SVGID_1_)"
         inkscape:connector-curvature="0" /><linearGradient
         id="path26098_1_"
         gradientUnits="userSpaceOnUse"
         x1="1601.3926"
         y1="-3804.7969"
         x2="1601.3926"
         y2="-3801.948"
         gradientTransform="matrix(1,0,0,-1,-1585.3945,-3800.249)"><stop
           offset="0"
           style="stop-color:#295FAA"
           id="stop18" /><stop
           offset="1"
           style="stop-color:#B1D5F0"
           id="stop20" /></linearGradient><path
         id="path26098"
         d="m 3.49,1.046 c -1.346,0 -2.455,1.11 -2.455,2.455 l 0,1.047 29.925,0 0,-1.047 c 0,-1.345 -1.11,-2.455 -2.455,-2.455 l -25.015,0 z"
         style="fill:url(#path26098_1_)"
         inkscape:connector-curvature="0" /></g><line
       x1="29.586"
       y1="7.369"
       x2="2.0929999"
       y2="7.369"
       id="line23"
       style="fill:none;stroke:#808284;stroke-linecap:round" /><line
       stroke-miterlimit="10"
       x1="29.586"
       y1="11.75"
       x2="2.0929999"
       y2="11.75"
       id="line25"
       style="fill:none;stroke:#ed2526;stroke-miterlimit:10" /><line
       x1="29.586"
       y1="16"
       x2="2.0929999"
       y2="16"
       id="line27"
       style="fill:none;stroke:#808284;stroke-linecap:round" /><line
       x1="29.586"
       y1="20.368999"
       x2="2.0929999"
       y2="20.368999"
       id="line29"
       style="fill:none;stroke:#808284;stroke-linecap:round" /></g><g
     id="g4171"
     transform="translate(-35.73491,-22.579)"><linearGradient
       gradientTransform="translate(-279.0801,-1093.6797)"
       y2="1113.2979"
       x2="286.7363"
       y1="1113.2979"
       x1="280.43549"
       gradientUnits="userSpaceOnUse"
       id="SVGID_2_"><stop
         id="stop4193"
         style="stop-color:#B0D68C"
         offset="0" /><stop
         id="stop4195"
         style="stop-color:#1E9046"
         offset="1" /></linearGradient><linearGradient
       gradientTransform="translate(-279.0801,-1093.6797)"
       y2="1099.5273"
       x2="280.52539"
       y1="1099.5273"
       x1="286.8262"
       gradientUnits="userSpaceOnUse"
       id="SVGID_3_"><stop
         id="stop4202"
         style="stop-color:#A46729"
         offset="0" /><stop
         id="stop4204"
         style="stop-color:#FAA81E"
         offset="0.5394" /><stop
         id="stop4206"
         style="stop-color:#FFF3E1"
         offset="1" /></linearGradient><linearGradient
       gradientTransform="translate(-279.0801,-1093.6797)"
       y2="1122.4746"
       x2="286.64551"
       y1="1122.4746"
       x1="280.3447"
       gradientUnits="userSpaceOnUse"
       id="SVGID_4_"><stop
         id="stop4215"
         style="stop-color:#F59699"
         offset="0" /><stop
         id="stop4217"
         style="stop-color:#8F1A1D"
         offset="1" /></linearGradient><g
       id="g4254"
       transform="translate(35.37991,23.159)"><path
         inkscape:connector-curvature="0"
         d="m 1.355,31.42 c -0.552,0 -1,-0.447 -1,-1 l 0,-21.604 c 0,-0.125 0.023,-0.252 0.07,-0.369 L 2.789,2.51 3.478,1.13 C 3.648,0.793 3.994,0.58 4.371,0.58 l 0.314,0 c 0.378,0 0.725,0.213 0.895,0.552 l 0.651,1.3 2.356,6.022 C 8.633,8.57 8.656,8.693 8.656,8.816 l 0,21.604 c 0,0.553 -0.447,1 -1,1 l -6.301,0 z"
         id="path4190" /><rect
         style="fill:url(#SVGID_2_)"
         x="1.355"
         y="8.816"
         width="6.3010001"
         height="21.604"
         id="rect4197" /><rect
         style="fill:#6ebd46"
         x="2.4360001"
         y="9.8959999"
         width="4.1409998"
         height="19.441999"
         id="rect4199" /><polygon
         style="fill:url(#SVGID_3_)"
         points="5.338,2.879 3.717,2.879 1.355,8.816 7.656,8.816 "
         id="polygon4208" /><polygon
         style="fill:#faa81e"
         points="2.947,7.736 4.451,3.959 4.601,3.959 6.076,7.736 "
         id="polygon4210" /><polygon
         points="5.338,2.879 3.717,2.879 4.373,1.58 4.687,1.58 "
         id="polygon4212" /><rect
         style="fill:url(#SVGID_4_)"
         x="1.355"
         y="27.17"
         width="6.3010001"
         height="3.25"
         id="rect4219" /></g></g></svg>