<?xml version="1.0" encoding="UTF-8" standalone="no"?>
<!-- Generator: Adobe Illustrator 14.0.0, SVG Export Plug-In . SVG Version: 6.00 Build 43363)  -->

<svg
   xmlns:dc="http://purl.org/dc/elements/1.1/"
   xmlns:cc="http://creativecommons.org/ns#"
   xmlns:rdf="http://www.w3.org/1999/02/22-rdf-syntax-ns#"
   xmlns:svg="http://www.w3.org/2000/svg"
   xmlns="http://www.w3.org/2000/svg"
   xmlns:sodipodi="http://sodipodi.sourceforge.net/DTD/sodipodi-0.dtd"
   xmlns:inkscape="http://www.inkscape.org/namespaces/inkscape"
   version="1.1"
   id="svg2"
   sodipodi:version="0.32"
   inkscape:version="0.91 r13725"
   sodipodi:docname="imported_schema.svg"
   inkscape:output_extension="org.inkscape.output.svg.inkscape"
   x="0px"
   y="0px"
   width="32px"
   height="32px"
   viewBox="8 8 32 32"
   enable-background="new 8 8 32 32"
   xml:space="preserve"><metadata
     id="metadata34"><rdf:RDF><cc:Work
         rdf:about=""><dc:format>image/svg+xml</dc:format><dc:type
           rdf:resource="http://purl.org/dc/dcmitype/StillImage" /><dc:title></dc:title></cc:Work></rdf:RDF></metadata><defs
     id="defs32"><linearGradient
       id="path4246_1_"
       gradientUnits="userSpaceOnUse"
       x1="4.4087"
       y1="-8.2896004"
       x2="27.7148"
       y2="-8.2896004"
       gradientTransform="matrix(1.0702465,0,0,-1.6061581,-63.744477,-1.8687332)"><stop
         offset="0"
         style="stop-color:#b1d2b5;stop-opacity:1"
         id="stop4279" /><stop
         id="stop4314"
         style="stop-color:#5ca650;stop-opacity:1"
         offset="0.53770173" /><stop
         offset="1"
         style="stop-color:#0c853a;stop-opacity:1"
         id="stop4281" /></linearGradient></defs><sodipodi:namedview
     id="base"
     inkscape:cy="30.233382"
     inkscape:cx="-20.767596"
     inkscape:zoom="8"
     showgrid="true"
     borderopacity="1.0"
     bordercolor="#000000"
     pagecolor="#ffffff"
     inkscape:window-height="1017"
     inkscape:window-width="1920"
     inkscape:pageshadow="2"
     inkscape:pageopacity="0.0"
     inkscape:current-layer="g2986"
     inkscape:window-y="-8"
     inkscape:window-x="-8"
     inkscape:document-units="px"
     inkscape:window-maximized="1"
     showguides="false" /><g
     id="g4"><g
       id="g6"><path
         id="path2924_30_"
         fill="#020202"
         d="M16.848,40c-0.584,0-1.055-0.469-1.055-1.055V9.056C15.793,8.472,16.264,8,16.848,8    h15.126c0.283,0,0.551,0.11,0.746,0.31l7.027,7.026c0.197,0.198,0.309,0.466,0.309,0.746v22.863c0,0.586-0.473,1.055-1.055,1.055    H16.848L16.848,40z" /><polygon
         id="polygon2926_30_"
         fill="#02ABD8"
         points="31.975,9.056 16.848,9.056 16.848,38.945 39.002,38.945 39.002,16.082   " /><polygon
         id="polygon2928_30_"
         fill="#FFFFFF"
         points="36.977,15.125 36.977,36.752 18.778,36.752 18.778,11.081 32.932,11.081     34.867,13.278   " /><path
         id="path2930_30_"
         fill="#020202"
         d="M31.975,17.136c-0.582,0-1.055-0.472-1.055-1.055V9.056c0-0.426,0.258-0.813,0.65-0.976    C31.703,8.026,31.84,8,31.975,8c0.275,0,0.545,0.108,0.746,0.311l7.025,7.025c0.301,0.303,0.393,0.756,0.229,1.15    c-0.162,0.395-0.549,0.65-0.975,0.65H31.975L31.975,17.136z" /><polygon
         id="polygon2932_30_"
         fill="#02ABD8"
         points="31.975,16.082 39.002,16.082 31.975,9.056   " /></g><path
       d="M8.944,35.223c-0.553,0-1-0.447-1-1V21.819c0-0.554,0.447-1,1-1h27.003c0.553,0,1,0.446,1,1v12.404c0,0.553-0.447,1-1,1   H8.944z"
       id="path13" /><linearGradient
       id="SVGID_1_"
       gradientUnits="userSpaceOnUse"
       x1="6.4839"
       y1="-100.8604"
       x2="33.4873"
       y2="-100.8604"
       gradientTransform="matrix(1 0 0 -1 2.46 -72.8398)"><stop
         offset="0"
         style="stop-color:#FFF3DF"
         id="stop16" /><stop
         offset="0.5394"
         style="stop-color:#F9A61E"
         id="stop18" /><stop
         offset="1"
         style="stop-color:#A36628"
         id="stop20" /></linearGradient><rect
       x="8.944"
       y="21.819"
       fill="url(#SVGID_1_)"
       width="27.003"
       height="12.404"
       id="rect22" /><g
       id="g24"><path
         d="M15.194,32.037c-0.16,0-0.311-0.08-0.396-0.215l-1.107-1.697l-1.109,1.697c-0.088,0.135-0.238,0.215-0.396,0.215H10.54    c-0.174,0-0.332-0.094-0.416-0.246c-0.082-0.15-0.076-0.336,0.016-0.48l2.16-3.395l-1.951-3.191    c-0.09-0.146-0.094-0.331-0.01-0.48s0.242-0.242,0.414-0.242h1.6c0.166,0,0.32,0.087,0.406,0.229l0.955,1.575l0.924-1.57    c0.086-0.146,0.242-0.233,0.408-0.233h1.588c0.17,0,0.328,0.092,0.412,0.24s0.082,0.331-0.006,0.479l-1.953,3.248l2.156,3.336    c0.096,0.145,0.102,0.33,0.02,0.482c-0.084,0.152-0.244,0.248-0.418,0.248H15.194L15.194,32.037z"
         id="path26" /><path
         d="M24.963,32.037c-0.262,0-0.474-0.211-0.474-0.473v-1.607l-0.41,1.717c-0.051,0.215-0.242,0.363-0.461,0.363h-1.318    c-0.219,0-0.41-0.148-0.461-0.363l-0.408-1.705v1.596c0,0.262-0.211,0.475-0.473,0.475h-1.273c-0.262,0-0.473-0.213-0.473-0.475    v-7.088c0-0.262,0.211-0.474,0.473-0.474h2.049c0.219,0,0.408,0.149,0.461,0.361l0.768,3.134l0.76-3.133    c0.051-0.212,0.242-0.362,0.459-0.362h2.056c0.264,0,0.475,0.212,0.475,0.474v7.088c0,0.262-0.211,0.475-0.475,0.475h-1.273    V32.037z"
         id="path28" /><path
         d="M29.535,32.037c-0.264,0-0.475-0.211-0.475-0.473v-7.088c0-0.262,0.211-0.475,0.475-0.475h1.369    c0.262,0,0.475,0.213,0.475,0.475v5.336h2.93c0.262,0,0.475,0.211,0.475,0.473v1.279c0,0.262-0.213,0.473-0.475,0.473H29.535z"
         id="path30" /></g></g><g
     id="g2986"
     transform="matrix(0.58750161,0,0,0.29251727,6.2983223,12.580913)"><g
       id="g4316"
       transform="translate(65.531735,0.85465039)"><path
         d="m -44.027326,-4.6247399 c -0.195855,0 -0.39385,0.06264 -0.575792,0.1975575 -0.456996,0.3276562 -0.749173,1.0102734 -0.758805,1.7699862 l -0.09632,7.7995037 c -1.176201,0.1268865 -2.155477,0.1814959 -3.075889,0.1814959 -5.980537,0 -9.55516,-2.6678286 -11.580067,-8.6459491 -0.231173,-0.681011 -0.69459,-1.0953998 -1.190114,-1.0953998 -0.07492,0 -0.151975,0.00803 -0.226892,0.027305 -0.577933,0.1477666 -1.021015,0.8464453 -1.097003,1.7121645 -0.02462,0.2858962 -0.568301,7.039791 2.82224,13.066096 2.918562,5.184678 7.737882,8.152858 14.348795,8.833869 l 0.09418,6.32987 c 0.0107,0.7565 0.30609,1.439117 0.759875,1.760349 0.185152,0.128492 0.377797,0.195951 0.575792,0.195951 0.288967,0 0.577933,-0.139736 0.815528,-0.415995 l 12.126963,-14.060308 c 0.325355,-0.377447 0.517999,-0.963695 0.517999,-1.585278 0,-0.623189 -0.192644,-1.207831 -0.517999,-1.5836715 L -43.211798,-4.2023203 c -0.237595,-0.2826838 -0.524421,-0.4224196 -0.815528,-0.4224196 l 0,0 z"
         enable-background="new    "
         id="path4235_23_"
         inkscape:connector-curvature="0"
         style="opacity:0.98000004;fill:#020202" /><path
         d="m -31.898222,11.443266 -12.126963,-14.0635206 -0.122008,9.6144624 c -6.450376,0.8335961 -13.67347,0.8609008 -17.153911,-9.4120864 0,0 -1.628915,18.6491016 17.153911,19.7364706 l 0.122008,8.188194 12.126963,-14.06352 0,0 z"
         id="path7827_43_"
         inkscape:connector-curvature="0"
         style="fill:#00ac31;fill-opacity:1" /><path
         d="m -42.837212,8.8316527 -1.194395,0.1541912 c -1.816208,0.234499 -3.206458,0.3372932 -4.501456,0.3372932 -3.144385,0 -7.219883,-0.56858 -10.493767,-4.4056917 0.317863,0.9701195 0.74168,1.9675437 1.297138,2.9424816 2.599629,4.574338 7.186706,7.08637 13.636011,7.457392 l 1.252188,0.07228 0.08883,6.105007 8.670067,-10.052943 -8.659365,-10.0481255 -0.09525,7.4381182 z"
         id="path4246_21_"
         inkscape:connector-curvature="0"
         style="fill:url(#path4246_1_)" /></g></g></svg>