<?xml version="1.0" encoding="UTF-8" standalone="no"?>
<!-- Generator: Adobe Illustrator 15.0.0, SVG Export Plug-In . SVG Version: 6.00 Build 0)  -->

<svg
   xmlns:dc="http://purl.org/dc/elements/1.1/"
   xmlns:cc="http://creativecommons.org/ns#"
   xmlns:rdf="http://www.w3.org/1999/02/22-rdf-syntax-ns#"
   xmlns:svg="http://www.w3.org/2000/svg"
   xmlns="http://www.w3.org/2000/svg"
   xmlns:sodipodi="http://sodipodi.sourceforge.net/DTD/sodipodi-0.dtd"
   xmlns:inkscape="http://www.inkscape.org/namespaces/inkscape"
   version="1.1"
   id="svg2"
   sodipodi:version="0.32"
   inkscape:version="0.91 r13725"
   sodipodi:docname="simple_type.svg"
   x="0px"
   y="0px"
   width="32px"
   height="32px"
   viewBox="-6.2 -6.2 32 32"
   enable-background="new -6.2 -6.2 32 32"
   xml:space="preserve"><metadata
     id="metadata21"><rdf:RDF><cc:Work
         rdf:about=""><dc:format>image/svg+xml</dc:format><dc:type
           rdf:resource="http://purl.org/dc/dcmitype/StillImage" /><dc:title /></cc:Work></rdf:RDF></metadata><defs
     id="defs19"><linearGradient
       id="SVGID_1_-9"
       gradientUnits="userSpaceOnUse"
       x1="20.1252"
       y1="9.7995996"
       x2="0.2018"
       y2="9.7995996"
       gradientTransform="translate(-3.7589471,-48.030073)"><stop
         offset="0"
         style="stop-color:#000000;stop-opacity:0.21"
         id="stop13-7" /><stop
         offset="1"
         style="stop-color:#000000;stop-opacity:0.03846154"
         id="stop15-7" /></linearGradient><linearGradient
       y2="9.7995996"
       x2="0.2018"
       y1="9.7995996"
       x1="20.1252"
       gradientUnits="userSpaceOnUse"
       id="SVGID_1_-95"
       gradientTransform="matrix(0.84065265,0,0,0.84062263,-8.2388468,5.6214279)"><stop
         id="stop4163"
         style="stop-color:#000000;stop-opacity:0.21"
         offset="0" /><stop
         id="stop4165"
         style="stop-color:#000000;stop-opacity:0.03921569"
         offset="1" /></linearGradient></defs><sodipodi:namedview
     id="base"
     inkscape:cy="9.6431769"
     inkscape:cx="3.5135664"
     inkscape:zoom="11.313708"
     showgrid="true"
     borderopacity="1.0"
     bordercolor="#000000"
     pagecolor="#ffffff"
     inkscape:window-y="-8"
     inkscape:window-x="-8"
     inkscape:window-height="1017"
     inkscape:window-width="1920"
     inkscape:pageshadow="2"
     inkscape:pageopacity="0.0"
     inkscape:current-layer="g4"
     inkscape:document-units="px"
     inkscape:window-maximized="1"><inkscape:grid
       type="xygrid"
       id="grid4142" /></sodipodi:namedview><g
     id="g4"><g
       id="g4144"
       transform="matrix(0.78125,0,0,0.78124999,2.14375,2.1437502)"><path
         style="fill:#231f20"
         inkscape:connector-curvature="0"
         d="m 10.900994,25.344058 c -0.608101,0.608106 -1.5942409,0.607529 -2.2011313,6.34e-4 L -5.744249,10.90048 C -6.3517339,10.292991 -6.3523107,9.3080324 -5.7436153,8.6993328 L 8.699229,-5.7436122 c 0.608101,-0.6081052 1.593052,-0.6087172 2.201132,-6.337e-4 L 25.344472,8.6999664 c 0.606891,0.6068947 0.608062,1.5924476 -6.33e-4,2.2011476 L 10.900994,25.344058 Z"
         id="path4158" /><path
         style="fill:#00acda;fill-opacity:1"
         inkscape:connector-curvature="0"
         d="m 10.794922,23.831398 c -0.548963,0.548968 -1.4392007,0.548447 -1.9870715,5.73e-4 L -4.2315707,10.792459 C -4.7799778,10.244048 -4.7804988,9.3548763 -4.2309983,8.8053733 L 8.807279,-4.2329959 c 0.5489632,-0.5489668 1.438128,-0.5495193 1.987072,-5.714e-4 L 23.833772,8.8059448 c 0.547871,0.5478744 0.548928,1.4375822 -5.71e-4,1.9870862 L 10.794922,23.831398 Z"
         id="path4158-8" /><rect
         transform="matrix(0.70710432,-0.70710924,0.70710432,0.70710924,0,0)"
         x="-8.6574917"
         y="5.2019572"
         width="17.314083"
         height="17.315144"
         id="rect4167"
         style="fill:url(#SVGID_1_-95)" /></g></g></svg>