<?xml version="1.0" encoding="utf-8"?>
<!-- Generator: Adobe Illustrator 14.0.0, SVG Export Plug-In . SVG Version: 6.00 Build 43363)  -->
<!DOCTYPE svg PUBLIC "-//W3C//DTD SVG 1.1//EN" "http://www.w3.org/Graphics/SVG/1.1/DTD/svg11.dtd">
<svg version="1.1"
	 id="svg1" xmlns:svg="http://www.w3.org/2000/svg" xmlns:cc="http://web.resource.org/cc/" xmlns:dc="http://purl.org/dc/elements/1.1/" xmlns:rdf="http://www.w3.org/1999/02/22-rdf-syntax-ns#" xmlns:inkscape="http://www.inkscape.org/namespaces/inkscape" xmlns:sodipodi="http://sodipodi.sourceforge.net/DTD/sodipodi-0.dtd" sodipodi:version="0.32" inkscape:version="0.45.1" sodipodi:docname="catch.svg" sodipodi:docbase="D:\palette" inkscape:output_extension="org.inkscape.output.svg.inkscape"
	 xmlns="http://www.w3.org/2000/svg" xmlns:xlink="http://www.w3.org/1999/xlink" x="0px" y="0px" width="32px" height="32px"
	 viewBox="0 0 32 32" enable-background="new 0 0 32 32" xml:space="preserve">
<sodipodi:namedview  id="base" inkscape:cy="218.75" inkscape:cx="218.75" inkscape:zoom="0.86171429" borderopacity="1.0" bordercolor="#666666" pagecolor="#ffffff" inkscape:window-height="974" inkscape:window-width="1280" inkscape:pageshadow="2" inkscape:pageopacity="0.0" inkscape:current-layer="svg1" inkscape:window-y="-8" inkscape:window-x="-8">
	</sodipodi:namedview>
<g>
	<g>
		<path d="M31.926,6.508c-0.05-0.121-0.123-0.232-0.218-0.326l-5.875-5.877c-0.188-0.188-0.44-0.293-0.707-0.293
			s-0.521,0.104-0.707,0.293L4.271,20.45c-0.008,0.009-0.012,0.021-0.021,0.031c-0.075,0.079-0.144,0.17-0.188,0.272l-3.375,7.698
			c-0.004,0.015-0.004,0.024-0.01,0.039c-0.006,0.017-0.017,0.031-0.023,0.047l-0.604,1.82c-0.119,0.358-0.025,0.756,0.243,1.022
			l0.292,0.291c0.189,0.188,0.446,0.293,0.707,0.293c0.105,0,0.211-0.019,0.313-0.052l1.822-0.603
			c0.018-0.006,0.032-0.018,0.049-0.022c0.012-0.004,0.022-0.002,0.033-0.008l7.741-3.332c0.106-0.047,0.197-0.114,0.28-0.19
			c0.009-0.008,0.021-0.013,0.031-0.021L31.707,7.592c0.096-0.095,0.168-0.207,0.218-0.328C32.023,7.024,32.023,6.75,31.926,6.508z"
			/>
		
			<rect x="13.82" y="-0.225" transform="matrix(-0.707 -0.7072 0.7072 -0.707 20.7675 36.6433)" fill="#6FBD46" width="8.31" height="28.49"/>
		
			<linearGradient id="SVGID_1_" gradientUnits="userSpaceOnUse" x1="294.9902" y1="132.1201" x2="299.3584" y2="136.4882" gradientTransform="matrix(1 0 0 1 -279.2598 -120.3594)">
			<stop  offset="0" style="stop-color:#AED58A"/>
			<stop  offset="1" style="stop-color:#1E9046"/>
		</linearGradient>
		<polygon fill="url(#SVGID_1_)" points="6.395,21.157 25.126,2.426 29.587,6.889 10.855,25.618 		"/>
		<polygon fill="#F9A61E" points="1.604,28.856 3.113,30.366 10.855,27.032 4.979,21.157 		"/>
		
			<linearGradient id="SVGID_2_" gradientUnits="userSpaceOnUse" x1="282.0859" y1="144.9004" x2="286.2776" y2="149.0921" gradientTransform="matrix(1 0 0 1 -279.2598 -120.3594)">
			<stop  offset="0" style="stop-color:#FFF3DF"/>
			<stop  offset="0.5394" style="stop-color:#F9A61E"/>
			<stop  offset="1" style="stop-color:#A36628"/>
		</linearGradient>
		<polygon fill="url(#SVGID_2_)" points="2.794,28.633 5.309,22.899 9.105,26.698 3.342,29.18 		"/>
		<polygon fill="#231F20" points="1.604,28.856 3.113,30.366 1.292,30.969 1,30.676 		"/>
		
			<rect x="22.395" y="3.32" transform="matrix(-0.7071 -0.7071 0.7071 -0.7071 41.4604 28.0973)" fill="#ED2828" width="8.309" height="4.285"/>
		
			<linearGradient id="SVGID_3_" gradientUnits="userSpaceOnUse" x1="303.4229" y1="123.4404" x2="308.0546" y2="128.0721" gradientTransform="matrix(1 0 0 1 -279.2598 -120.3594)">
			<stop  offset="0" style="stop-color:#F49599"/>
			<stop  offset="1" style="stop-color:#8E1B1E"/>
		</linearGradient>
		<polygon fill="url(#SVGID_3_)" points="23.509,4.045 25.126,2.428 29.587,6.889 27.969,8.504 		"/>
	</g>
	
		<rect x="15.291" y="14.571" transform="matrix(-0.7072 -0.707 0.707 -0.7072 17.6313 43.4843)" fill="#FFFFFF" width="5.058" height="7.041"/>
	<g id="layer1" inkscape:label="Layer 1" inkscape:groupmode="layer">
		<g id="g3334" transform="translate(-3.217707e-2,0.3222173)">
			<path fill="#231F20" d="M22.031,31.666c-5.513,0-9.998-4.482-9.999-9.994c0-2.676,1.04-5.187,2.928-7.076
				c1.887-1.889,4.398-2.929,7.07-2.93c5.515,0,10.001,4.485,10.002,9.995c0.001,2.677-1.039,5.187-2.928,7.074
				c-1.89,1.89-4.4,2.93-7.07,2.931H22.031L22.031,31.666z M17.989,27.391l3.572-3.571c0.129-0.13,0.299-0.195,0.471-0.195
				c0.171,0,0.342,0.065,0.471,0.195l3.573,3.571l1.68-1.68l-3.571-3.574c-0.262-0.26-0.262-0.681,0-0.94l3.571-3.572l-1.68-1.681
				l-3.573,3.572c-0.124,0.125-0.294,0.195-0.471,0.195l0,0c-0.178,0-0.348-0.07-0.471-0.195l-3.572-3.572l-1.68,1.68l3.571,3.573
				c0.125,0.124,0.195,0.294,0.195,0.471s-0.07,0.347-0.195,0.472l-3.571,3.572L17.989,27.391z"/>
			<path fill="#ED2526" d="M22.03,12.333c-5.154,0.003-9.333,4.181-9.332,9.333c0,0.002,0,0.004,0,0.006
				c0.001,5.152,4.182,9.33,9.335,9.327c5.153-0.001,9.333-4.181,9.332-9.333c0-0.001,0-0.002,0-0.005
				C31.364,16.508,27.185,12.33,22.03,12.333z M28.698,25.711l-2.622,2.621l-4.044-4.043l-4.043,4.043l-2.624-2.621l4.045-4.045
				l-4.045-4.044l2.624-2.623l4.043,4.044l4.044-4.044l2.622,2.623l-4.043,4.044L28.698,25.711z"/>
			
				<linearGradient id="SVGID_4_" gradientUnits="userSpaceOnUse" x1="576.8701" y1="426.2051" x2="594.204" y2="426.2051" gradientTransform="matrix(1 0 0 1 -563.5039 -404.5391)">
				<stop  offset="0" style="stop-color:#F59699"/>
				<stop  offset="1" style="stop-color:#8F1A1D"/>
			</linearGradient>
			<path fill="url(#SVGID_4_)" d="M22.031,30.333c-4.776,0-8.664-3.886-8.666-8.661c0-2.32,0.901-4.496,2.536-6.134
				c1.638-1.637,3.813-2.538,6.129-2.539c4.779,0,8.668,3.888,8.669,8.662c0,2.32-0.901,4.494-2.538,6.132
				c-1.637,1.639-3.813,2.539-6.127,2.54H22.031z M26.076,29.275l3.565-3.564l-4.043-4.045l4.043-4.043l-3.565-3.566l-4.044,4.045
				l-4.043-4.045l-3.567,3.566l4.043,4.043l-4.043,4.045l3.567,3.564l4.043-4.043L26.076,29.275z"/>
		</g>
	</g>
</g>
</svg>
