<?xml version="1.0" encoding="utf-8"?>
<!-- Generator: Adobe Illustrator 14.0.0, SVG Export Plug-In . SVG Version: 6.00 Build 43363)  -->
<!DOCTYPE svg PUBLIC "-//W3C//DTD SVG 1.1//EN" "http://www.w3.org/Graphics/SVG/1.1/DTD/svg11.dtd">
<svg version="1.1"
	 id="svg2440" xmlns:ns="http://creativecommons.org/ns#" xmlns:svg="http://www.w3.org/2000/svg" xmlns:cc="http://web.resource.org/cc/" xmlns:dc="http://purl.org/dc/elements/1.1/" xmlns:rdf="http://www.w3.org/1999/02/22-rdf-syntax-ns#" xmlns:inkscape="http://www.inkscape.org/namespaces/inkscape" xmlns:sodipodi="http://sodipodi.sourceforge.net/DTD/sodipodi-0.dtd" sodipodi:version="0.32" inkscape:version="0.45.1" sodipodi:docname="fork.svg" sodipodi:docbase="C:\Radix\dev\trunk\org.radixware\kernel\designer\src\common.resources\src\org\radixware\kernel\designer\resources\icons\workflow\palette" inkscape:output_extension="org.inkscape.output.svg.inkscape"
	 xmlns="http://www.w3.org/2000/svg" xmlns:xlink="http://www.w3.org/1999/xlink" x="0px" y="0px" width="32px" height="32px"
	 viewBox="0 0 32 32" enable-background="new 0 0 32 32" xml:space="preserve">
<sodipodi:namedview  id="base" inkscape:cy="16" inkscape:cx="10.885192" inkscape:zoom="11.197802" showgrid="true" borderopacity="1.0" bordercolor="#666666" pagecolor="#ffffff" inkscape:window-height="944" inkscape:window-width="1280" inkscape:pageshadow="2" inkscape:pageopacity="0.0" inkscape:current-layer="layer1" inkscape:window-y="44" inkscape:window-x="0" inkscape:document-units="px" inkscape:grid-bbox="true">
	</sodipodi:namedview>
<path d="M0.941,19.5C0.422,19.5,0,19.053,0,18.5v-5c0-0.553,0.422-1,0.941-1h30.117c0.52,0,0.941,0.447,0.941,1v5
	c0,0.553-0.422,1-0.941,1H0.941z"/>
<rect x="0.941" y="13.5" fill="#ED2526" width="30.117" height="5"/>
<linearGradient id="SVGID_1_" gradientUnits="userSpaceOnUse" x1="1.8828" y1="16" x2="30.1172" y2="16">
	<stop  offset="0" style="stop-color:#F59699"/>
	<stop  offset="1" style="stop-color:#8F1A1D"/>
</linearGradient>
<rect x="1.883" y="14.5" fill="url(#SVGID_1_)" width="28.234" height="3"/>
<path fill="#FFFFFF" d="M8.553,15.8H3.428c-1.012,0-1.834,0.822-1.834,1.833V19.5h8.793v-1.867C10.387,16.622,9.564,15.8,8.553,15.8
	z"/>
<path d="M5.959,32c-0.213,0-0.427-0.082-0.589-0.244l-5.126-5.125c-0.238-0.238-0.31-0.596-0.181-0.908
	c0.129-0.311,0.434-0.514,0.771-0.514h1.729v-7.376c0-0.46,0.373-0.833,0.834-0.833h5.125c0.461,0,0.834,0.373,0.834,0.833v7.376
	h1.729c0.337,0,0.642,0.203,0.771,0.514c0.129,0.313,0.058,0.67-0.181,0.908l-5.126,5.125C6.386,31.918,6.172,32,5.959,32L5.959,32z
	"/>
<polygon fill="#00ACDA" points="5.959,31.166 11.084,26.041 8.521,26.041 8.521,17.833 3.396,17.833 3.396,26.041 0.834,26.041 "/>
<linearGradient id="SVGID_2_" gradientUnits="userSpaceOnUse" x1="2.8457" y1="24.3281" x2="9.0723" y2="24.3281">
	<stop  offset="0" style="stop-color:#B1D2DB"/>
	<stop  offset="1" style="stop-color:#0B7C9E"/>
</linearGradient>
<polygon fill="url(#SVGID_2_)" points="2.846,26.875 4.229,26.875 4.229,18.667 7.688,18.667 7.688,26.875 9.072,26.875 
	5.959,29.988 "/>
<path fill="#FFFFFF" d="M11.912,12.503l2.789,2.789c0.346,0.348,0.807,0.539,1.299,0.539s0.953-0.191,1.296-0.537l2.792-2.791
	H11.912z"/>
<path d="M16,15c-0.213,0-0.427-0.081-0.589-0.244l-5.126-5.124c-0.238-0.239-0.31-0.597-0.181-0.908s0.434-0.515,0.771-0.515h1.729
	V0.833c0-0.46,0.373-0.833,0.834-0.833h5.125c0.461,0,0.834,0.373,0.834,0.833v7.376h1.729c0.337,0,0.642,0.203,0.771,0.515
	s0.058,0.669-0.181,0.908l-5.126,5.124C16.427,14.919,16.213,15,16,15L16,15z"/>
<polygon fill="#00ACDA" points="16,14.167 21.125,9.042 18.563,9.042 18.563,0.833 13.438,0.833 13.438,9.042 10.875,9.042 "/>
<linearGradient id="SVGID_3_" gradientUnits="userSpaceOnUse" x1="12.8867" y1="7.3276" x2="19.1133" y2="7.3276">
	<stop  offset="0" style="stop-color:#B1D2DB"/>
	<stop  offset="1" style="stop-color:#0B7C9E"/>
</linearGradient>
<polygon fill="url(#SVGID_3_)" points="12.887,9.876 14.271,9.876 14.271,1.667 17.729,1.667 17.729,9.876 19.113,9.876 16,12.988 
	"/>
<path fill="#FFFFFF" d="M28.635,15.8H23.51c-1.012,0-1.834,0.822-1.834,1.833V19.5h8.793v-1.867
	C30.469,16.622,29.646,15.8,28.635,15.8z"/>
<path d="M26.041,32c-0.213,0-0.427-0.082-0.589-0.244l-5.126-5.125c-0.238-0.238-0.31-0.596-0.181-0.908
	c0.129-0.311,0.434-0.514,0.771-0.514h1.729v-7.376c0-0.46,0.373-0.833,0.834-0.833h5.125c0.461,0,0.834,0.373,0.834,0.833v7.376
	h1.729c0.337,0,0.642,0.203,0.771,0.514c0.129,0.313,0.058,0.67-0.181,0.908l-5.126,5.125C26.468,31.918,26.254,32,26.041,32
	L26.041,32z"/>
<polygon fill="#00ACDA" points="26.041,31.166 31.166,26.041 28.604,26.041 28.604,17.833 23.479,17.833 23.479,26.041 
	20.916,26.041 "/>
<linearGradient id="SVGID_4_" gradientUnits="userSpaceOnUse" x1="22.9277" y1="24.3281" x2="29.1543" y2="24.3281">
	<stop  offset="0" style="stop-color:#B1D2DB"/>
	<stop  offset="1" style="stop-color:#0B7C9E"/>
</linearGradient>
<polygon fill="url(#SVGID_4_)" points="22.928,26.875 24.312,26.875 24.312,18.667 27.771,18.667 27.771,26.875 29.154,26.875 
	26.041,29.988 "/>
</svg>
