<?xml version="1.0" encoding="utf-8"?>
<!-- Generator: Adobe Illustrator 14.0.0, SVG Export Plug-In . SVG Version: 6.00 Build 43363)  -->
<!DOCTYPE svg PUBLIC "-//W3C//DTD SVG 1.1//EN" "http://www.w3.org/Graphics/SVG/1.1/DTD/svg11.dtd">
<svg version="1.1" id="Layer_1" xmlns="http://www.w3.org/2000/svg" xmlns:xlink="http://www.w3.org/1999/xlink" x="0px" y="0px"
	 width="32px" height="32px" viewBox="0 0 32 32" enable-background="new 0 0 32 32" xml:space="preserve">
<g>
	<path d="M16,32C7.178,32,0,24.823,0,16C0,7.178,7.178,0,16,0c8.823,0,16,7.178,16,16C32,24.823,24.823,32,16,32L16,32z
		 M19.2,26.222V15.117c-0.956,0.563-2.053,0.866-3.2,0.866c-1.148,0-2.244-0.303-3.2-0.866v11.105H19.2z M16,4.711
		c-1.764,0-3.2,1.436-3.2,3.2c0,1.764,1.436,3.2,3.2,3.2c1.765,0,3.2-1.436,3.2-3.2C19.2,6.147,17.765,4.711,16,4.711L16,4.711z"/>
	<path fill="#00ACDA" d="M16,1.067C7.752,1.067,1.067,7.753,1.067,16c0,8.248,6.686,14.934,14.933,14.934
		c8.248,0,14.934-6.686,14.934-14.934C30.934,7.753,24.248,1.067,16,1.067z M20.267,27.288h-8.533v-14.54
		c0.973,1.307,2.514,2.165,4.267,2.165c1.752,0,3.294-0.86,4.267-2.165V27.288z M16,12.178c-2.356,0-4.267-1.911-4.267-4.267
		c0-2.356,1.91-4.267,4.267-4.267s4.267,1.91,4.267,4.267C20.267,10.267,18.356,12.178,16,12.178z"/>
	
		<linearGradient id="SVGID_1_" gradientUnits="userSpaceOnUse" x1="846.7539" y1="-1198.5195" x2="874.4863" y2="-1198.5195" gradientTransform="matrix(1 0 0 -1 -844.6201 -1182.5195)">
		<stop  offset="0" style="stop-color:#B1D2DB"/>
		<stop  offset="1" style="stop-color:#0B7C9E"/>
	</linearGradient>
	<path fill="url(#SVGID_1_)" d="M16,29.866C8.354,29.866,2.133,23.646,2.133,16C2.133,8.354,8.354,2.133,16,2.133
		c7.646,0,13.866,6.221,13.866,13.867C29.866,23.646,23.646,29.866,16,29.866L16,29.866z M10.667,28.355h10.667V9.531l-0.548,0.737
		c0.351-0.711,0.548-1.511,0.548-2.356c0-2.941-2.392-5.333-5.333-5.333c-2.939,0-5.333,2.393-5.333,5.333
		c0,0.845,0.196,1.644,0.549,2.353l-0.549-0.736V28.355z M16,13.846c-1.349,0-2.592-0.631-3.413-1.735l-0.223-0.302
		c0.953,0.891,2.231,1.436,3.635,1.436c1.404,0,2.684-0.544,3.638-1.436l-0.226,0.302C18.592,13.216,17.348,13.846,16,13.846
		L16,13.846z"/>
</g>
</svg>
