<?xml version="1.0" encoding="utf-8"?>
<!-- Generator: Adobe Illustrator 14.0.0, SVG Export Plug-In . SVG Version: 6.00 Build 43363)  -->
<!DOCTYPE svg PUBLIC "-//W3C//DTD SVG 1.1//EN" "http://www.w3.org/Graphics/SVG/1.1/DTD/svg11.dtd">
<svg version="1.1"
	 id="svg2440" xmlns:ns="http://creativecommons.org/ns#" xmlns:svg="http://www.w3.org/2000/svg" xmlns:cc="http://web.resource.org/cc/" xmlns:dc="http://purl.org/dc/elements/1.1/" xmlns:rdf="http://www.w3.org/1999/02/22-rdf-syntax-ns#" xmlns:inkscape="http://www.inkscape.org/namespaces/inkscape" xmlns:sodipodi="http://sodipodi.sourceforge.net/DTD/sodipodi-0.dtd" sodipodi:version="0.32" inkscape:version="0.45.1" sodipodi:docname="merge.svg" sodipodi:docbase="C:\Radix\dev\trunk\org.radixware\kernel\designer\src\common.resources\src\org\radixware\kernel\designer\resources\icons\workflow\palette" inkscape:output_extension="org.inkscape.output.svg.inkscape"
	 xmlns="http://www.w3.org/2000/svg" xmlns:xlink="http://www.w3.org/1999/xlink" x="0px" y="0px" width="32px" height="32px"
	 viewBox="0 0 32 32" enable-background="new 0 0 32 32" xml:space="preserve">
<sodipodi:namedview  id="base" inkscape:cy="16" inkscape:cx="10.885192" inkscape:zoom="11.197802" showgrid="true" borderopacity="1.0" bordercolor="#666666" pagecolor="#ffffff" inkscape:window-height="944" inkscape:window-width="1280" inkscape:pageshadow="2" inkscape:pageopacity="0.0" inkscape:current-layer="layer1" inkscape:window-y="44" inkscape:window-x="0" inkscape:document-units="px" inkscape:grid-bbox="true">
	</sodipodi:namedview>
<path d="M0.941,19.5C0.421,19.5,0,19.053,0,18.5v-5c0-0.552,0.421-1,0.941-1h30.117c0.52,0,0.941,0.448,0.941,1v5
	c0,0.553-0.422,1-0.941,1H0.941z"/>
<rect x="0.941" y="13.5" fill="#ED2526" width="30.117" height="5"/>
<linearGradient id="SVGID_1_" gradientUnits="userSpaceOnUse" x1="1.8823" y1="16" x2="30.1172" y2="16">
	<stop  offset="0" style="stop-color:#F59699"/>
	<stop  offset="1" style="stop-color:#8F1A1D"/>
</linearGradient>
<rect x="1.882" y="14.5" fill="url(#SVGID_1_)" width="28.235" height="3"/>
<path fill="#FFFFFF" d="M18.594,15.8h-5.125c-1.012,0-1.834,0.822-1.834,1.833V19.5h8.793v-1.867
	C20.428,16.622,19.605,15.8,18.594,15.8z"/>
<path d="M16,32c-0.213,0-0.427-0.081-0.589-0.244l-5.126-5.124c-0.238-0.239-0.31-0.597-0.181-0.908s0.434-0.515,0.771-0.515h1.729
	v-7.376c0-0.46,0.373-0.833,0.834-0.833h5.125c0.461,0,0.834,0.373,0.834,0.833v7.376h1.729c0.337,0,0.642,0.203,0.771,0.515
	s0.058,0.669-0.181,0.908l-5.126,5.124C16.427,31.919,16.213,32,16,32L16,32z"/>
<polygon fill="#00ACDA" points="16,31.167 21.125,26.042 18.563,26.042 18.563,17.833 13.438,17.833 13.438,26.042 10.875,26.042 
	"/>
<linearGradient id="SVGID_2_" gradientUnits="userSpaceOnUse" x1="12.8867" y1="24.3281" x2="19.1133" y2="24.3281">
	<stop  offset="0" style="stop-color:#B1D2DB"/>
	<stop  offset="1" style="stop-color:#0B7C9E"/>
</linearGradient>
<polygon fill="url(#SVGID_2_)" points="12.887,26.876 14.271,26.876 14.271,18.667 17.729,18.667 17.729,26.876 19.113,26.876 
	16,29.988 "/>
<path fill="#FFFFFF" d="M1.871,12.503l2.789,2.789c0.346,0.348,0.807,0.539,1.299,0.539s0.953-0.191,1.296-0.537l2.792-2.791H1.871z
	"/>
<path fill="#FFFFFF" d="M21.953,12.503l2.789,2.789c0.346,0.348,0.807,0.539,1.299,0.539s0.953-0.191,1.296-0.537l2.792-2.791
	H21.953z"/>
<path d="M5.959,15c-0.213,0-0.427-0.081-0.589-0.244L0.244,9.632c-0.238-0.239-0.31-0.597-0.181-0.908s0.434-0.515,0.771-0.515
	h1.729V0.833C2.563,0.373,2.936,0,3.396,0h5.125c0.461,0,0.834,0.373,0.834,0.833v7.376h1.729c0.337,0,0.642,0.203,0.771,0.515
	s0.058,0.669-0.181,0.908l-5.126,5.124C6.386,14.919,6.172,15,5.959,15L5.959,15z"/>
<polygon fill="#00ACDA" points="5.959,14.167 11.084,9.042 8.521,9.042 8.521,0.833 3.396,0.833 3.396,9.042 0.834,9.042 "/>
<linearGradient id="SVGID_3_" gradientUnits="userSpaceOnUse" x1="2.8457" y1="7.3276" x2="9.0723" y2="7.3276">
	<stop  offset="0" style="stop-color:#B1D2DB"/>
	<stop  offset="1" style="stop-color:#0B7C9E"/>
</linearGradient>
<polygon fill="url(#SVGID_3_)" points="2.846,9.876 4.229,9.876 4.229,1.667 7.688,1.667 7.688,9.876 9.072,9.876 5.959,12.988 "/>
<path d="M26.041,15c-0.213,0-0.427-0.081-0.589-0.244l-5.126-5.124c-0.238-0.239-0.31-0.597-0.181-0.908s0.434-0.515,0.771-0.515
	h1.729V0.833c0-0.46,0.373-0.833,0.834-0.833h5.125c0.461,0,0.834,0.373,0.834,0.833v7.376h1.729c0.337,0,0.642,0.203,0.771,0.515
	s0.058,0.669-0.181,0.908l-5.126,5.124C26.468,14.919,26.254,15,26.041,15L26.041,15z"/>
<polygon fill="#00ACDA" points="26.041,14.167 31.166,9.042 28.604,9.042 28.604,0.833 23.479,0.833 23.479,9.042 20.916,9.042 "/>
<linearGradient id="SVGID_4_" gradientUnits="userSpaceOnUse" x1="22.9277" y1="7.3276" x2="29.1543" y2="7.3276">
	<stop  offset="0" style="stop-color:#B1D2DB"/>
	<stop  offset="1" style="stop-color:#0B7C9E"/>
</linearGradient>
<polygon fill="url(#SVGID_4_)" points="22.928,9.876 24.312,9.876 24.312,1.667 27.771,1.667 27.771,9.876 29.154,9.876 
	26.041,12.988 "/>
</svg>
