<?xml version="1.0" encoding="utf-8"?>
<!-- Generator: Adobe Illustrator 14.0.0, SVG Export Plug-In . SVG Version: 6.00 Build 43363)  -->
<!DOCTYPE svg PUBLIC "-//W3C//DTD SVG 1.1//EN" "http://www.w3.org/Graphics/SVG/1.1/DTD/svg11.dtd">
<svg version="1.1"
	 id="svg10319" xmlns:ns="http://creativecommons.org/ns#" xmlns:svg="http://www.w3.org/2000/svg" xmlns:cc="http://web.resource.org/cc/" xmlns:dc="http://purl.org/dc/elements/1.1/" xmlns:rdf="http://www.w3.org/1999/02/22-rdf-syntax-ns#" xmlns:inkscape="http://www.inkscape.org/namespaces/inkscape" xmlns:sodipodi="http://sodipodi.sourceforge.net/DTD/sodipodi-0.dtd" sodipodi:version="0.32" inkscape:version="0.45.1" sodipodi:docname="note.svg" sodipodi:docbase="C:\Radix\dev\trunk\org.radixware\kernel\designer\src\common.resources\src\org\radixware\kernel\designer\resources\icons\workflow\palette" inkscape:output_extension="org.inkscape.output.svg.inkscape"
	 xmlns="http://www.w3.org/2000/svg" xmlns:xlink="http://www.w3.org/1999/xlink" x="0px" y="0px" width="32px" height="32px"
	 viewBox="0 0 32 32" enable-background="new 0 0 32 32" xml:space="preserve">
<sodipodi:namedview  id="base" inkscape:cy="17.573035" inkscape:cx="10.531659" inkscape:zoom="15.975832" showgrid="true" borderopacity="1.0" bordercolor="#666666" pagecolor="#ffffff" inkscape:window-height="944" inkscape:window-width="1280" inkscape:pageshadow="2" inkscape:pageopacity="0.0" inkscape:current-layer="g3206" inkscape:window-y="44" inkscape:window-x="0" inkscape:showpageshadow="false" inkscape:document-units="px" inkscape:grid-bbox="true" borderlayer="false">
	</sodipodi:namedview>
<g>
	<path d="M2.61,31.952c-0.363,0-0.699-0.198-0.875-0.519c-0.176-0.317-0.164-0.707,0.031-1.017
		c8.452-13.394,5.411-29.015,5.379-29.17c-0.06-0.294,0.017-0.599,0.207-0.832c0.189-0.233,0.474-0.367,0.773-0.367h21.259
		c0.55,0,0.995,0.443,1,0.992c0.005,0.625,0.112,15.358-1.163,19.153c-1.307,3.879-6.014,10.404-13.082,11.396
		C15.015,31.746,4.88,31.952,2.61,31.952L2.61,31.952z"/>
	<path fill="#F9A61E" d="M2.61,30.952C11.376,17.064,8.126,1.049,8.126,1.049h21.259c0,0,0.126,15.146-1.11,18.825
		c-1.301,3.86-5.922,9.835-12.273,10.728C15.008,30.736,5.101,30.952,2.61,30.952z"/>
	
		<linearGradient id="SVGID_1_" gradientUnits="userSpaceOnUse" x1="6.9917" y1="-90.9609" x2="19.2418" y2="-115.4611" gradientTransform="matrix(1 0 0 -1 2.46 -88.8398)">
		<stop  offset="0" style="stop-color:#FFF3DF"/>
		<stop  offset="0.5394" style="stop-color:#F9A61E"/>
		<stop  offset="1" style="stop-color:#A36628"/>
	</linearGradient>
	<path fill="url(#SVGID_1_)" d="M4.384,29.936C10.95,18.332,9.862,5.917,9.306,2.049H28.39c0.008,4.758-0.162,14.825-1.064,17.506
		c-1.239,3.682-5.615,9.234-11.465,10.057C15.134,29.711,8.165,29.883,4.384,29.936L4.384,29.936z"/>
	<path fill="#F9A61E" d="M15.567,30.564c3.135-1.379,3.783-7.842,3.477-9.35c3.307,1.439,5.989,0.895,9.229-1.341"/>
	<path d="M15.479,31.641c-0.438-0.007-0.821-0.297-0.945-0.718c-0.125-0.421,0.04-0.873,0.404-1.116
		c3.459-2.301,3.272-7.662,3.125-8.394c-0.074-0.365,0.062-0.741,0.352-0.976c0.182-0.146,0.404-0.224,0.629-0.224
		c0.135,0,0.271,0.027,0.398,0.083c1.192,0.52,2.172,0.762,3.082,0.762c1.426,0,2.937-0.588,5.213-2.029
		c0.164-0.104,0.35-0.155,0.535-0.155c0.224,0,0.445,0.075,0.629,0.223c0.334,0.271,0.457,0.724,0.309,1.125
		c-3.456,9.32-11.223,11.419-13.669,11.419C15.541,31.641,15.485,31.641,15.479,31.641z"/>
	<path fill="#F9A61E" d="M19.044,21.215c0.246,1.215,0.249,6.896-3.551,9.426c2.326,0.028,9.566-2.102,12.779-10.767
		C24.472,22.282,22.351,22.654,19.044,21.215z"/>
</g>
</svg>
