<?xml version="1.0" encoding="utf-8"?>
<!-- Generator: Adobe Illustrator 14.0.0, SVG Export Plug-In . SVG Version: 6.00 Build 43363)  -->
<!DOCTYPE svg PUBLIC "-//W3C//DTD SVG 1.1//EN" "http://www.w3.org/Graphics/SVG/1.1/DTD/svg11.dtd">
<svg version="1.1"
	 id="svg1" xmlns:svg="http://www.w3.org/2000/svg" xmlns:cc="http://web.resource.org/cc/" xmlns:dc="http://purl.org/dc/elements/1.1/" xmlns:rdf="http://www.w3.org/1999/02/22-rdf-syntax-ns#" xmlns:inkscape="http://www.inkscape.org/namespaces/inkscape" xmlns:sodipodi="http://sodipodi.sourceforge.net/DTD/sodipodi-0.dtd" sodipodi:version="0.32" inkscape:version="0.45.1" sodipodi:docname="program.svg" sodipodi:docbase="C:\Radix\dev\trunk\org.radixware\kernel\designer\src\common.resources\src\org\radixware\kernel\designer\resources\icons\workflow\palette" inkscape:output_extension="org.inkscape.output.svg.inkscape"
	 xmlns="http://www.w3.org/2000/svg" xmlns:xlink="http://www.w3.org/1999/xlink" x="0px" y="0px" width="32px" height="32px"
	 viewBox="202.75 202.75 32 32" enable-background="new 202.75 202.75 32 32" xml:space="preserve">
<sodipodi:namedview  id="base" borderopacity="1.0" bordercolor="#666666" pagecolor="#ffffff" inkscape:window-height="480" inkscape:window-width="640" inkscape:pageshadow="2" inkscape:pageopacity="0.0">
	</sodipodi:namedview>
<g>
	<g>
		<path id="path2924_3_" fill="#020202" d="M203.804,234.75c-0.586,0-1.054-0.472-1.054-1.054v-29.893
			c0-0.582,0.468-1.054,1.054-1.054h15.129c0.281,0,0.549,0.109,0.743,0.31l7.026,7.023c0.199,0.199,0.311,0.466,0.311,0.748v22.861
			c0,0.586-0.471,1.058-1.056,1.058H203.804L203.804,234.75z"/>
		<polygon id="polygon2926_3_" fill="#00ACDA" points="218.933,203.804 203.804,203.804 203.804,233.697 225.958,233.697 
			225.958,210.831 		"/>
		<polygon id="polygon2928_3_" fill="#FFFFFF" points="223.932,209.875 223.932,231.499 205.734,231.499 205.734,205.83 
			219.887,205.83 221.823,208.028 		"/>
		<rect x="207.652" y="209.073" fill="#808284" width="14.458" height="0.802"/>
		<path id="path2930_3_" fill="#020202" d="M218.933,211.886c-0.585,0-1.058-0.473-1.058-1.055v-7.027
			c0-0.426,0.26-0.811,0.651-0.976c0.133-0.053,0.269-0.078,0.406-0.078c0.274,0,0.544,0.107,0.743,0.31l7.026,7.023
			c0.301,0.304,0.393,0.758,0.23,1.151c-0.163,0.395-0.55,0.649-0.975,0.649h-7.025V211.886z"/>
		<polygon id="polygon2932_3_" fill="#00ACDA" points="218.933,210.831 225.958,210.831 218.933,203.804 		"/>
		<rect x="207.819" y="214.009" fill="#808284" width="14.458" height="0.805"/>
		<rect x="207.819" y="219.345" fill="#808284" width="14.458" height="0.803"/>
		<rect x="207.819" y="225.135" fill="#808284" width="14.458" height="0.804"/>
	</g>
	<g>
		<path d="M234.676,209.269c-0.05-0.121-0.123-0.232-0.218-0.326l-5.875-5.877c-0.188-0.188-0.441-0.293-0.707-0.293
			s-0.52,0.105-0.707,0.293l-20.147,20.146c-0.008,0.008-0.012,0.021-0.021,0.031c-0.075,0.08-0.144,0.17-0.188,0.273l-3.375,7.698
			c-0.004,0.015-0.004,0.025-0.01,0.039c-0.006,0.017-0.017,0.031-0.023,0.047l-0.604,1.82c-0.119,0.358-0.025,0.756,0.243,1.022
			l0.292,0.291c0.189,0.189,0.446,0.293,0.707,0.293c0.105,0,0.211-0.018,0.313-0.051l1.822-0.602
			c0.018-0.006,0.032-0.018,0.049-0.023c0.012-0.004,0.022-0.002,0.033-0.008l7.741-3.332c0.106-0.047,0.197-0.115,0.28-0.191
			c0.009-0.008,0.021-0.012,0.031-0.021l20.145-20.144c0.095-0.095,0.168-0.207,0.218-0.328
			C234.774,209.786,234.774,209.512,234.676,209.269z"/>
		
			<rect x="216.588" y="202.539" transform="matrix(0.707 0.7072 -0.7072 0.707 217.9691 -92.5943)" fill="#6FBD46" width="8.309" height="28.49"/>
		
			<linearGradient id="SVGID_1_" gradientUnits="userSpaceOnUse" x1="216.0193" y1="102.1384" x2="220.3868" y2="97.771" gradientTransform="matrix(1 0 0 -1 2.46 316.6606)">
			<stop  offset="0" style="stop-color:#AED58A"/>
			<stop  offset="1" style="stop-color:#1E9046"/>
		</linearGradient>
		<polygon fill="url(#SVGID_1_)" points="209.145,223.919 227.876,205.187 232.337,209.65 213.606,228.38 		"/>
		<polygon fill="#F9A61E" points="204.354,231.618 205.864,233.128 213.606,229.794 207.729,223.919 		"/>
		
			<linearGradient id="SVGID_2_" gradientUnits="userSpaceOnUse" x1="203.116" y1="89.3586" x2="207.3077" y2="85.1669" gradientTransform="matrix(1 0 0 -1 2.46 316.6606)">
			<stop  offset="0" style="stop-color:#FFF3DF"/>
			<stop  offset="0.5394" style="stop-color:#F9A61E"/>
			<stop  offset="1" style="stop-color:#A36628"/>
		</linearGradient>
		<polygon fill="url(#SVGID_2_)" points="205.544,231.394 208.059,225.661 211.856,229.46 206.092,231.941 		"/>
		<polygon fill="#231F20" points="204.354,231.618 205.864,233.128 204.042,233.73 203.75,233.437 		"/>
		
			<rect x="225.145" y="206.084" transform="matrix(0.7071 0.7071 -0.7071 0.7071 214.3984 -101.1508)" fill="#ED2828" width="8.309" height="4.285"/>
		
			<linearGradient id="SVGID_3_" gradientUnits="userSpaceOnUse" x1="224.4519" y1="110.8191" x2="229.0837" y2="106.1874" gradientTransform="matrix(1 0 0 -1 2.46 316.6606)">
			<stop  offset="0" style="stop-color:#F49599"/>
			<stop  offset="1" style="stop-color:#8E1B1E"/>
		</linearGradient>
		<polygon fill="url(#SVGID_3_)" points="226.259,206.806 227.876,205.189 232.337,209.65 230.719,211.265 		"/>
	</g>
</g>
</svg>
