<?xml version="1.0" encoding="utf-8"?>
<!-- Generator: Adobe Illustrator 14.0.0, SVG Export Plug-In . SVG Version: 6.00 Build 43363)  -->
<!DOCTYPE svg PUBLIC "-//W3C//DTD SVG 1.1//EN" "http://www.w3.org/Graphics/SVG/1.1/DTD/svg11.dtd">
<svg version="1.1"
	 id="svg1" xmlns:svg="http://www.w3.org/2000/svg" xmlns:cc="http://web.resource.org/cc/" xmlns:dc="http://purl.org/dc/elements/1.1/" xmlns:rdf="http://www.w3.org/1999/02/22-rdf-syntax-ns#" xmlns:inkscape="http://www.inkscape.org/namespaces/inkscape" xmlns:sodipodi="http://sodipodi.sourceforge.net/DTD/sodipodi-0.dtd" sodipodi:version="0.32" inkscape:version="0.45.1" sodipodi:docname="scope.svg" sodipodi:docbase="D:\palette" inkscape:output_extension="org.inkscape.output.svg.inkscape"
	 xmlns="http://www.w3.org/2000/svg" xmlns:xlink="http://www.w3.org/1999/xlink" x="0px" y="0px" width="32px" height="32px"
	 viewBox="0 0 32 32" enable-background="new 0 0 32 32" xml:space="preserve">
<sodipodi:namedview  id="base" inkscape:cy="218.75" inkscape:cx="218.75" inkscape:zoom="0.86171429" borderopacity="1.0" bordercolor="#666666" pagecolor="#ffffff" inkscape:window-height="974" inkscape:window-width="1280" inkscape:pageshadow="2" inkscape:pageopacity="0.0" inkscape:current-layer="g2176" inkscape:window-y="-8" inkscape:window-x="-8">
	</sodipodi:namedview>
<g>
	<g>
		<path d="M31.926,6.508c-0.05-0.121-0.123-0.232-0.218-0.326l-5.875-5.877c-0.188-0.188-0.44-0.293-0.707-0.293
			s-0.521,0.104-0.707,0.293L4.271,20.45c-0.008,0.009-0.012,0.021-0.021,0.031c-0.075,0.079-0.144,0.17-0.188,0.272l-3.375,7.698
			c-0.004,0.015-0.004,0.024-0.01,0.039c-0.006,0.017-0.017,0.031-0.023,0.047l-0.604,1.82c-0.119,0.358-0.025,0.756,0.243,1.022
			l0.292,0.291c0.189,0.188,0.446,0.293,0.707,0.293c0.105,0,0.211-0.019,0.313-0.052l1.822-0.603
			c0.018-0.006,0.032-0.018,0.049-0.022c0.012-0.004,0.022-0.002,0.033-0.008l7.741-3.332c0.106-0.047,0.197-0.114,0.28-0.19
			c0.009-0.008,0.021-0.013,0.031-0.021L31.707,7.592c0.096-0.095,0.168-0.207,0.218-0.328C32.023,7.024,32.023,6.75,31.926,6.508z"
			/>
		
			<rect x="13.82" y="-0.225" transform="matrix(-0.707 -0.7072 0.7072 -0.707 20.7675 36.6433)" fill="#6FBD46" width="8.31" height="28.49"/>
		
			<linearGradient id="SVGID_1_" gradientUnits="userSpaceOnUse" x1="294.9902" y1="132.1201" x2="299.3584" y2="136.4882" gradientTransform="matrix(1 0 0 1 -279.2598 -120.3594)">
			<stop  offset="0" style="stop-color:#AED58A"/>
			<stop  offset="1" style="stop-color:#1E9046"/>
		</linearGradient>
		<polygon fill="url(#SVGID_1_)" points="6.395,21.157 25.126,2.426 29.587,6.889 10.855,25.618 		"/>
		<polygon fill="#F9A61E" points="1.604,28.856 3.113,30.366 10.855,27.032 4.979,21.157 		"/>
		
			<linearGradient id="SVGID_2_" gradientUnits="userSpaceOnUse" x1="282.0859" y1="144.9004" x2="286.2776" y2="149.0921" gradientTransform="matrix(1 0 0 1 -279.2598 -120.3594)">
			<stop  offset="0" style="stop-color:#FFF3DF"/>
			<stop  offset="0.5394" style="stop-color:#F9A61E"/>
			<stop  offset="1" style="stop-color:#A36628"/>
		</linearGradient>
		<polygon fill="url(#SVGID_2_)" points="2.794,28.633 5.309,22.899 9.105,26.698 3.342,29.18 		"/>
		<polygon fill="#231F20" points="1.604,28.856 3.113,30.366 1.292,30.969 1,30.676 		"/>
		
			<rect x="22.395" y="3.32" transform="matrix(-0.7071 -0.7071 0.7071 -0.7071 41.4604 28.0973)" fill="#ED2828" width="8.309" height="4.285"/>
		
			<linearGradient id="SVGID_3_" gradientUnits="userSpaceOnUse" x1="303.4229" y1="123.4404" x2="308.0546" y2="128.0721" gradientTransform="matrix(1 0 0 1 -279.2598 -120.3594)">
			<stop  offset="0" style="stop-color:#F49599"/>
			<stop  offset="1" style="stop-color:#8E1B1E"/>
		</linearGradient>
		<polygon fill="url(#SVGID_3_)" points="23.509,4.045 25.126,2.428 29.587,6.889 27.969,8.504 		"/>
	</g>
	<g>
		<path fill="#231F20" d="M20.587,31.988c-0.116,0-0.233-0.023-0.344-0.074c-0.296-0.136-0.486-0.432-0.486-0.756v-18.34
			c0-0.325,0.19-0.62,0.485-0.755c0.109-0.052,0.229-0.075,0.345-0.075c0.195,0,0.39,0.068,0.544,0.202l10.582,9.147
			C31.895,21.494,32,21.725,32,21.965c0,0.239-0.104,0.469-0.286,0.627l-10.582,9.191C20.977,31.92,20.784,31.988,20.587,31.988
			L20.587,31.988z"/>
		<polygon fill="#00ACDA" points="20.587,12.818 20.587,31.158 31.17,21.967 		"/>
		
			<linearGradient id="SVGID_4_" gradientUnits="userSpaceOnUse" x1="303.1367" y1="-395.0059" x2="311.623" y2="-395.0059" gradientTransform="matrix(1 0 0 -1 -281.7207 -373.0195)">
			<stop  offset="0" style="stop-color:#B1D2DB"/>
			<stop  offset="1" style="stop-color:#0B7C9E"/>
		</linearGradient>
		<polygon fill="url(#SVGID_4_)" points="21.417,14.633 29.902,21.967 21.417,29.34 		"/>
	</g>
</g>
</svg>
