<?xml version="1.0" encoding="utf-8"?>
<!-- Generator: Adobe Illustrator 14.0.0, SVG Export Plug-In . SVG Version: 6.00 Build 43363)  -->
<!DOCTYPE svg PUBLIC "-//W3C//DTD SVG 1.1//EN" "http://www.w3.org/Graphics/SVG/1.1/DTD/svg11.dtd">
<svg version="1.1"
	 id="svg2488" xmlns:ns="http://creativecommons.org/ns#" xmlns:svg="http://www.w3.org/2000/svg" xmlns:cc="http://web.resource.org/cc/" xmlns:dc="http://purl.org/dc/elements/1.1/" xmlns:rdf="http://www.w3.org/1999/02/22-rdf-syntax-ns#" xmlns:inkscape="http://www.inkscape.org/namespaces/inkscape" xmlns:sodipodi="http://sodipodi.sourceforge.net/DTD/sodipodi-0.dtd" sodipodi:version="0.32" inkscape:version="0.45.1" sodipodi:docname="start.svg" sodipodi:docbase="C:\Radix\dev\trunk\org.radixware\kernel\designer\src\common.resources\src\org\radixware\kernel\designer\resources\icons\workflow\widget" inkscape:output_extension="org.inkscape.output.svg.inkscape"
	 xmlns="http://www.w3.org/2000/svg" xmlns:xlink="http://www.w3.org/1999/xlink" x="0px" y="0px" width="32px" height="32px"
	 viewBox="0 0 32 32" enable-background="new 0 0 32 32" xml:space="preserve">
<sodipodi:namedview  id="base" inkscape:cy="1.8012316" inkscape:cx="-0.093325731" inkscape:zoom="11.197802" showgrid="true" borderopacity="1.0" bordercolor="#666666" pagecolor="#ffffff" inkscape:window-height="944" inkscape:window-width="1280" inkscape:pageshadow="2" inkscape:pageopacity="0.0" inkscape:current-layer="layer1" inkscape:window-y="-8" inkscape:window-x="-8" inkscape:document-units="px" inkscape:grid-bbox="true">
	</sodipodi:namedview>
<path fill="#231F20" d="M15.998,31.167C7.73,31.167,1.002,24.441,1,16.175c-0.001-4.014,1.559-7.78,4.391-10.613
	s6.599-4.394,10.605-4.395c8.273,0,15.002,6.726,15.004,14.992c0.001,4.013-1.559,7.778-4.391,10.612
	c-2.834,2.834-6.601,4.395-10.605,4.396H15.998z M16,22.669l8.488-8.487H7.51L16,22.669z"/>
<path fill="#00ACDA" d="M15.997,2.167C8.265,2.169,1.998,8.437,2,16.167c0,0.002,0,0.005,0,0.007
	c0.002,7.73,6.272,13.996,14.003,13.993c7.731-0.002,13.999-6.271,13.997-14c0-0.002,0-0.005,0-0.007
	C29.998,8.429,23.729,2.164,15.997,2.167z M16,24.083L5.095,13.182h21.809L16,24.083z"/>
<linearGradient id="SVGID_1_" gradientUnits="userSpaceOnUse" x1="284.7207" y1="-389.1865" x2="310.7207" y2="-389.1865" gradientTransform="matrix(1 0 0 -1 -281.7207 -373.0195)">
	<stop  offset="0" style="stop-color:#B1D2DB"/>
	<stop  offset="1" style="stop-color:#0B7C9E"/>
</linearGradient>
<path fill="url(#SVGID_1_)" d="M15.998,29.167C8.833,29.167,3.002,23.338,3,16.174c0-1.116,0.139-2.21,0.409-3.263L16,25.497
	l12.588-12.584C28.855,13.951,29,15.039,29,16.16c0.001,3.479-1.352,6.742-3.807,9.197c-2.453,2.455-5.719,3.809-9.19,3.81H15.998z
	 M3.619,12.182c0.623-1.943,1.703-3.723,3.187-5.206c2.455-2.456,5.719-3.808,9.192-3.809c5.781,0,10.693,3.791,12.379,9.015H3.619z
	"/>
</svg>
