<?xml version="1.0" encoding="utf-8"?>
<!-- Generator: Adobe Illustrator 14.0.0, SVG Export Plug-In . SVG Version: 6.00 Build 43363)  -->
<!DOCTYPE svg PUBLIC "-//W3C//DTD SVG 1.1//EN" "http://www.w3.org/Graphics/SVG/1.1/DTD/svg11.dtd">
<svg version="1.1"
	 id="svg2488" xmlns:ns="http://creativecommons.org/ns#" xmlns:svg="http://www.w3.org/2000/svg" xmlns:cc="http://web.resource.org/cc/" xmlns:dc="http://purl.org/dc/elements/1.1/" xmlns:rdf="http://www.w3.org/1999/02/22-rdf-syntax-ns#" xmlns:inkscape="http://www.inkscape.org/namespaces/inkscape" xmlns:sodipodi="http://sodipodi.sourceforge.net/DTD/sodipodi-0.dtd" sodipodi:version="0.32" inkscape:version="0.45.1" sodipodi:docname="throw.svg" sodipodi:docbase="C:\Radix\dev\trunk\org.radixware\kernel\designer\src\common.resources\src\org\radixware\kernel\designer\resources\icons\workflow\widget" inkscape:output_extension="org.inkscape.output.svg.inkscape"
	 xmlns="http://www.w3.org/2000/svg" xmlns:xlink="http://www.w3.org/1999/xlink" x="0px" y="0px" width="32px" height="32px"
	 viewBox="0 0 32 32" enable-background="new 0 0 32 32" xml:space="preserve">
<sodipodi:namedview  id="base" inkscape:cy="5.7459813" inkscape:cx="39.766733" inkscape:zoom="11.197802" showgrid="true" borderopacity="1.0" bordercolor="#666666" pagecolor="#ffffff" inkscape:window-height="944" inkscape:window-width="1280" inkscape:pageshadow="2" inkscape:pageopacity="0.0" inkscape:current-layer="layer1" inkscape:window-y="44" inkscape:window-x="0" inkscape:document-units="px" inkscape:grid-bbox="true">
	</sodipodi:namedview>
<g id="layer1" inkscape:label="Layer 1" inkscape:groupmode="layer">
	<g id="g3334" transform="translate(-3.217707e-2,0.3222173)">
		<path fill="#231F20" d="M16.03,30.678c-8.268,0-14.996-6.726-14.998-14.992c-0.001-4.013,1.559-7.78,4.391-10.613
			c2.832-2.833,6.599-4.394,10.605-4.395c8.273,0,15.002,6.726,15.004,14.992c0.001,4.013-1.559,7.779-4.391,10.612
			c-2.833,2.834-6.6,4.395-10.605,4.396H16.03z M9.967,24.264l5.358-5.358c0.195-0.195,0.451-0.293,0.707-0.293
			s0.512,0.098,0.708,0.293l5.358,5.358l2.52-2.521l-5.358-5.358c-0.391-0.391-0.391-1.023,0-1.414l5.358-5.358l-2.52-2.521
			l-5.358,5.359c-0.188,0.188-0.442,0.293-0.708,0.293l0,0c-0.265,0-0.52-0.105-0.707-0.293L9.967,7.092L7.447,9.612l5.359,5.358
			c0.188,0.188,0.293,0.442,0.293,0.707s-0.105,0.52-0.293,0.707l-5.359,5.358L9.967,24.264z"/>
		<path fill="#ED2526" d="M16.029,1.678c-7.732,0.002-13.999,6.27-13.997,14c0,0.002,0,0.005,0,0.007
			c0.002,7.73,6.272,13.996,14.003,13.993c7.732-0.002,13.999-6.271,13.997-14c0-0.002,0-0.005,0-0.007
			C30.03,7.94,23.76,1.675,16.029,1.678z M26.032,21.743l-3.934,3.935l-6.066-6.065l-6.065,6.065l-3.935-3.935l6.066-6.065
			L6.032,9.612l3.935-3.935l6.065,6.066l6.066-6.066l3.934,3.935l-6.065,6.065L26.032,21.743z"/>
		<linearGradient id="SVGID_1_" gradientUnits="userSpaceOnUse" x1="3.0322" y1="15.6778" x2="29.0322" y2="15.6778">
			<stop  offset="0" style="stop-color:#F59699"/>
			<stop  offset="1" style="stop-color:#8F1A1D"/>
		</linearGradient>
		<path fill="url(#SVGID_1_)" d="M16.03,28.678c-7.166,0-12.996-5.829-12.998-12.993c-0.001-3.479,1.351-6.743,3.805-9.198
			c2.455-2.456,5.719-3.808,9.192-3.809c7.17,0,13.001,5.829,13.003,12.993c0.001,3.479-1.351,6.742-3.806,9.197
			c-2.454,2.456-5.719,3.809-9.191,3.81H16.03z M22.099,27.092l5.348-5.349l-6.065-6.065l6.065-6.065l-5.348-5.349l-6.066,6.066
			L9.967,4.264l-5.35,5.349l6.066,6.065l-6.066,6.065l5.35,5.349l6.065-6.065L22.099,27.092z"/>
	</g>
</g>
</svg>
