<?xml version="1.0" encoding="UTF-8" standalone="no"?>
<!-- Generator: Adobe Illustrator 14.0.0, SVG Export Plug-In . SVG Version: 6.00 Build 43363)  -->

<svg
   xmlns:dc="http://purl.org/dc/elements/1.1/"
   xmlns:cc="http://creativecommons.org/ns#"
   xmlns:rdf="http://www.w3.org/1999/02/22-rdf-syntax-ns#"
   xmlns:svg="http://www.w3.org/2000/svg"
   xmlns="http://www.w3.org/2000/svg"
   xmlns:sodipodi="http://sodipodi.sourceforge.net/DTD/sodipodi-0.dtd"
   xmlns:inkscape="http://www.inkscape.org/namespaces/inkscape"
   version="1.1"
   id="Layer_1"
   x="0px"
   y="0px"
   width="32px"
   height="32px"
   viewBox="0 0 32 32"
   enable-background="new 0 0 32 32"
   xml:space="preserve"
   inkscape:version="0.47pre4 "
   sodipodi:docname="test_cases.svg"><metadata
   id="metadata24"><rdf:RDF><cc:Work
       rdf:about=""><dc:format>image/svg+xml</dc:format><dc:type
         rdf:resource="http://purl.org/dc/dcmitype/StillImage" /></cc:Work></rdf:RDF></metadata><defs
   id="defs22"><inkscape:perspective
     sodipodi:type="inkscape:persp3d"
     inkscape:vp_x="0 : 16 : 1"
     inkscape:vp_y="0 : 1000 : 0"
     inkscape:vp_z="32 : 16 : 1"
     inkscape:persp3d-origin="16 : 10.666667 : 1"
     id="perspective26" /></defs><sodipodi:namedview
   pagecolor="#ffffff"
   bordercolor="#666666"
   borderopacity="1"
   objecttolerance="10"
   gridtolerance="10"
   guidetolerance="10"
   inkscape:pageopacity="0"
   inkscape:pageshadow="2"
   inkscape:window-width="640"
   inkscape:window-height="481"
   id="namedview20"
   showgrid="false"
   inkscape:zoom="7.375"
   inkscape:cx="16"
   inkscape:cy="16"
   inkscape:window-x="0"
   inkscape:window-y="0"
   inkscape:window-maximized="0"
   inkscape:current-layer="Layer_1" />


<linearGradient
   id="SVGID_1_"
   gradientUnits="userSpaceOnUse"
   x1="2.2544"
   y1="16.7285"
   x2="29.7451"
   y2="16.7285">
	<stop
   offset="0"
   style="stop-color:#B1D2DB"
   id="stop8" />
	<stop
   offset="1"
   style="stop-color:#107D9F"
   id="stop10" />
</linearGradient>





<g
   id="g2832"><path
     id="path3"
     d="M1.127,29.635C0.504,29.635,0,29.131,0,28.508V7.78c0-0.623,0.505-1.128,1.127-1.128h5.14l2.999-3.348  c0.081-0.09,0.176-0.167,0.281-0.227l0.986-0.564c0.17-0.097,0.364-0.148,0.56-0.148h9.816c0.196,0,0.388,0.052,0.56,0.148  l0.986,0.564c0.105,0.06,0.2,0.137,0.279,0.227l2.999,3.348h5.14C31.495,6.652,32,7.157,32,7.78v20.728  c0,0.623-0.505,1.127-1.128,1.127H1.127z M20.047,8.749l0.463-0.967l-0.733-1.519h-7.554L11.49,7.782l0.462,0.967H20.047z" /><path
     id="path5"
     d="M25.229,7.78l-3.334-3.724l-0.986-0.563H16H16h-4.908l-0.986,0.563L6.771,7.78H1.127v20.728h29.745V7.78  H25.229z M20.759,9.876h-9.517L10.24,7.78l1.275-2.644h8.971l1.275,2.644l0,0L20.759,9.876z"
     fill="#00AEEF" /><polygon
     id="polygon12"
     points="2.254,27.38 2.254,8.907 7.274,8.907 9.81,6.077 8.989,7.778 10.531,11.003 21.468,11.003   23.011,7.778 22.192,6.079 24.725,8.907 29.745,8.907 29.745,27.38 "
     fill="url(#SVGID_1_)" /><path
     id="path14"
     d="M15.993,26.806c-2.115-0.003-4.105-0.8-5.604-2.246c-1.513-1.46-2.345-3.404-2.345-5.475  C8.049,14.828,11.618,11.37,16,11.37c2.124,0.002,4.114,0.799,5.614,2.246c1.513,1.46,2.345,3.404,2.343,5.476  c-0.002,4.256-3.572,7.714-7.957,7.714H15.993z"
     fill="#010101" /><path
     d="  M22.61,19.087c0-3.516-2.959-6.367-6.607-6.368L16,19.087H22.61z"
     fill="#010101"
     end="4.712389"
     start="3.1415927"
     type="arc"
     cx="-90.374878"
     cy="-71.055939"
     ry="14.109912"
     rx="14.645731"
     id="path5748_1_" /><path
     d="  M9.39,19.087c0,3.517,2.959,6.368,6.608,6.371L16,19.09L9.39,19.087z"
     fill="#010101"
     end="4.712389"
     start="3.1415927"
     type="arc"
     cx="-90.374878"
     cy="-71.055939"
     ry="14.109912"
     rx="14.645731"
     id="path5750_1_" /><path
     d="  M9.39,19.087c0-3.516,2.959-6.367,6.608-6.368L16,19.087H9.39z"
     fill="#FBEE2A"
     end="4.712389"
     start="3.1415927"
     type="arc"
     cx="-90.374878"
     cy="-71.055939"
     ry="14.109912"
     rx="14.645731"
     id="path5752_1_" /><path
     d="  M22.61,19.087c0,3.517-2.959,6.368-6.607,6.371L16,19.09L22.61,19.087z"
     fill="#FBEE2A"
     end="4.712389"
     start="3.1415927"
     type="arc"
     cx="-90.374878"
     cy="-71.055939"
     ry="14.109912"
     rx="14.645731"
     id="path5754_1_" /></g>
</svg>