<?xml version="1.0" encoding="UTF-8" standalone="no"?>
<!-- Generator: Adobe Illustrator 14.0.0, SVG Export Plug-In . SVG Version: 6.00 Build 43363)  -->

<svg
   xmlns:dc="http://purl.org/dc/elements/1.1/"
   xmlns:cc="http://creativecommons.org/ns#"
   xmlns:rdf="http://www.w3.org/1999/02/22-rdf-syntax-ns#"
   xmlns:svg="http://www.w3.org/2000/svg"
   xmlns="http://www.w3.org/2000/svg"
   xmlns:xlink="http://www.w3.org/1999/xlink"
   xmlns:sodipodi="http://sodipodi.sourceforge.net/DTD/sodipodi-0.dtd"
   xmlns:inkscape="http://www.inkscape.org/namespaces/inkscape"
   version="1.1"
   id="Layer_1"
   x="0px"
   y="0px"
   width="32px"
   height="32px"
   viewBox="0 0 32 32"
   enable-background="new 0 0 32 32"
   xml:space="preserve"
   inkscape:version="0.48.4 r9939"
   sodipodi:docname="qu.svg"><metadata
   id="metadata3023"><rdf:RDF><cc:Work
       rdf:about=""><dc:format>image/svg+xml</dc:format><dc:type
         rdf:resource="http://purl.org/dc/dcmitype/StillImage" /></cc:Work></rdf:RDF></metadata><defs
   id="defs3021"><linearGradient
   id="linearGradient3807"
   gradientUnits="userSpaceOnUse"
   x1="281.0801"
   y1="1109.3848"
   x2="309.0801"
   y2="1109.3848"
   gradientTransform="translate(-279.0801,-1093.6797)">
		<stop
   offset="0"
   style="stop-color:#f8c5c5;stop-opacity:1;"
   id="stop3809" />
		<stop
   offset="1"
   style="stop-color:#d3022f;stop-opacity:1;"
   id="stop3811" />
	</linearGradient>
	
	
	
		<linearGradient
   gradientTransform="translate(-279.0801,-1093.6797)"
   y2="1109.3848"
   x2="309.0801"
   y1="1109.3848"
   x1="281.0801"
   gradientUnits="userSpaceOnUse"
   id="SVGID_1_">
		<stop
   id="stop3013"
   style="stop-color:#B0D68C"
   offset="0" />
		<stop
   id="stop3015"
   style="stop-color:#219146"
   offset="1" />
	</linearGradient>
	
<linearGradient
   inkscape:collect="always"
   xlink:href="#linearGradient3807"
   id="linearGradient3029"
   gradientUnits="userSpaceOnUse"
   gradientTransform="translate(-279.0801,-1093.6797)"
   x1="281.08011"
   y1="1109.3848"
   x2="309.08011"
   y2="1109.3848" /></defs><sodipodi:namedview
   pagecolor="#ffffff"
   bordercolor="#666666"
   borderopacity="1"
   objecttolerance="10"
   gridtolerance="10"
   guidetolerance="10"
   inkscape:pageopacity="0"
   inkscape:pageshadow="2"
   inkscape:window-width="2471"
   inkscape:window-height="1567"
   id="namedview3019"
   showgrid="false"
   inkscape:zoom="20.85965"
   inkscape:cx="-12.271186"
   inkscape:cy="21.423729"
   inkscape:window-x="-11"
   inkscape:window-y="-11"
   inkscape:window-maximized="1"
   inkscape:current-layer="Layer_1" />
<path
   style="fill:#010101"
   inkscape:connector-curvature="0"
   id="path3008"
   d="M 16,32 C 7.178,32 0,24.822 0,16 0,7.178 7.178,0 16,0 c 8.822,0 16,7.178 16,16 0,8.822 -7.178,16 -16,16 l 0,0 z m 2.025,-4 V 23.74 H 12.928 V 28 h 5.097 z m -0.179,-8.021 c 0.086,-0.645 0.26,-1.209 0.521,-1.687 0.381,-0.696 1.168,-1.506 2.479,-2.544 1.584,-1.246 2.629,-2.285 3.109,-3.092 0.457,-0.77 0.68,-1.537 0.68,-2.35 0,-2.048 -0.895,-3.647 -2.732,-4.891 C 20.518,4.477 18.641,4 16.323,4 13.351,4 11.146,4.671 9.771,5.996 8.567,7.155 7.817,8.607 7.491,10.415 l 4.803,0.594 c 0.228,-1.086 0.611,-1.894 1.164,-2.452 0.733,-0.74 1.662,-1.117 2.76,-1.117 1.025,0 1.834,0.271 2.402,0.804 0.401,0.377 0.882,1.069 0.882,2.22 0,0.965 -0.582,1.909 -1.779,2.885 -2.133,1.769 -2.966,2.582 -3.288,2.95 -0.422,0.485 -0.744,1.028 -0.957,1.612 -0.19,0.523 -0.297,1.218 -0.319,2.066 h 4.687 v 0.002 z" /><path
   style="fill:#fd8383;fill-opacity:1"
   inkscape:connector-curvature="0"
   id="path3010"
   d="M 16,1 C 7.716,1 1,7.716 1,16 1,24.284 7.716,31 16,31 24.284,31 31,24.284 31,16 31,7.716 24.284,1 16,1 z m 3.025,28 h -7.097 v -6.26 h 7.097 V 29 z m 5.789,-15.833 c -0.547,0.918 -1.662,2.04 -3.35,3.365 -1.174,0.93 -1.915,1.677 -2.223,2.241 -0.311,0.563 -0.465,1.3 -0.465,2.205 h -6.625 v -0.662 c 0,-1.127 0.128,-2.043 0.384,-2.746 0.256,-0.703 0.637,-1.346 1.142,-1.928 0.506,-0.582 1.642,-1.604 3.409,-3.068 0.939,-0.768 1.412,-1.471 1.412,-2.11 0,-0.639 -0.188,-1.136 -0.564,-1.491 -0.379,-0.354 -0.951,-0.531 -1.72,-0.531 -0.825,0 -1.508,0.272 -2.049,0.819 -0.541,0.548 -0.886,1.5 -1.038,2.86 L 6.361,11.284 C 6.596,8.796 7.5,6.794 9.075,5.277 10.65,3.76 13.067,3 16.323,3 c 2.534,0 4.579,0.529 6.138,1.587 2.115,1.431 3.174,3.336 3.174,5.72 0,0.987 -0.274,1.941 -0.821,2.86 z" /><path
   inkscape:connector-curvature="0"
   style="fill:url(#linearGradient3029);fill-opacity:1;opacity:1"
   id="path3017"
   d="m 20.025,21.74 h -0.244 v -0.762 c 0,-0.733 0.113,-1.313 0.34,-1.728 0.137,-0.25 0.572,-0.833 1.967,-1.938 1.799,-1.414 2.973,-2.604 3.586,-3.639 0.639,-1.07 0.961,-2.205 0.961,-3.371 0,-2.306 -0.871,-4.238 -2.594,-5.761 C 27.643,7.081 30,11.271 30,16 c 0,6.32 -4.211,11.677 -9.975,13.41 v -7.67 z m -9.097,7.31 C 5.708,27.014 2,21.932 2,16 2,10.327 5.393,5.43 10.255,3.232 9.547,3.595 8.923,4.036 8.383,4.557 6.638,6.237 5.625,8.469 5.37,11.19 l -0.09,0.967 8.733,1.08 0.112,-1.006 c 0.156,-1.4 0.497,-2.006 0.755,-2.267 0.353,-0.356 0.778,-0.522 1.338,-0.522 0.494,0 0.853,0.09 1.033,0.262 0.108,0.102 0.251,0.29 0.251,0.761 0,0.234 -0.273,0.708 -1.044,1.334 -1.832,1.519 -2.985,2.56 -3.532,3.188 -0.584,0.671 -1.031,1.425 -1.328,2.24 -0.299,0.822 -0.444,1.834 -0.444,3.09 v 1.425 h -0.227 v 7.31 l 0.001,-0.002 0,0 z M 14.114,2.126 C 14.73,2.043 15.361,2 16,2 c 0.048,0 0.097,0 0.145,10e-4 -0.712,0.006 -1.39,0.048 -2.031,0.125 l 0,0 z" />
<path
   style="opacity:0;fill:#d40000;fill-opacity:1;stroke:#000000;stroke-width:0.21694915;stroke-linecap:round;stroke-linejoin:round;stroke-miterlimit:4;stroke-opacity:0.57727272;stroke-dasharray:none"
   d="m 24.623729,21.062006 0,-5.847685 0.611548,-0.83073 0.611549,-0.83073 -0.03528,6.202658 -0.03528,6.202657 -0.576271,0.475757 -0.576271,0.475758 0,-5.847685 z"
   id="path3033"
   inkscape:connector-curvature="0" /></svg>