<?xml version="1.0" encoding="UTF-8" standalone="no"?>
<svg
   xmlns:dc="http://purl.org/dc/elements/1.1/"
   xmlns:cc="http://creativecommons.org/ns#"
   xmlns:rdf="http://www.w3.org/1999/02/22-rdf-syntax-ns#"
   xmlns:svg="http://www.w3.org/2000/svg"
   xmlns="http://www.w3.org/2000/svg"
   xmlns:xlink="http://www.w3.org/1999/xlink"
   xmlns:sodipodi="http://sodipodi.sourceforge.net/DTD/sodipodi-0.dtd"
   xmlns:inkscape="http://www.inkscape.org/namespaces/inkscape"
   xml:space="preserve"
   enable-background="new 0 0 32 32"
   viewBox="0 0 32 32"
   height="32px"
   width="32px"
   y="0px"
   x="0px"
   id="Layer_1"
   version="1.1"
   inkscape:version="0.91 r13725"
   sodipodi:docname="imgCDXJNVBUBNBFND7NZN6XWA33K4.svg"><sodipodi:namedview
     pagecolor="#ffffff"
     bordercolor="#666666"
     borderopacity="1"
     objecttolerance="10"
     gridtolerance="10"
     guidetolerance="10"
     inkscape:pageopacity="0"
     inkscape:pageshadow="2"
     inkscape:window-width="1920"
     inkscape:window-height="1017"
     id="namedview5478"
     showgrid="true"
     inkscape:zoom="22.627417"
     inkscape:cx="17.709236"
     inkscape:cy="16.640752"
     inkscape:window-x="-8"
     inkscape:window-y="-8"
     inkscape:window-maximized="1"
     inkscape:current-layer="Layer_1"
     inkscape:snap-to-guides="true"
     inkscape:object-paths="true"
     showguides="true"
     inkscape:snap-grids="false"><inkscape:grid
       type="xygrid"
       id="grid4294" /></sodipodi:namedview><metadata
     id="metadata4187"><rdf:RDF><cc:Work
         rdf:about=""><dc:format>image/svg+xml</dc:format><dc:type
           rdf:resource="http://purl.org/dc/dcmitype/StillImage" /><dc:title /></cc:Work></rdf:RDF></metadata><defs
     id="defs4185"><linearGradient
       id="linearGradient4840"
       gradientUnits="userSpaceOnUse"
       x1="855.64838"
       y1="-1202.7705"
       x2="872.50781"
       y2="-1202.7705"
       gradientTransform="matrix(1,0,0,-1,-844.6201,-1182.5195)"><stop
         offset="0"
         style="stop-color:#f6979a;stop-opacity:1"
         id="stop4842" /><stop
         offset="1"
         style="stop-color:#901a1d;stop-opacity:1"
         id="stop4844" /></linearGradient><linearGradient
       gradientTransform="matrix(1,0,0,-1,-844.6201,-1182.5195)"
       y2="-1202.7705"
       x2="872.50781"
       y1="-1202.7705"
       x1="855.64838"
       gradientUnits="userSpaceOnUse"
       id="linearGradient4789"><stop
         id="stop4164-5"
         style="stop-color:#B2D78E"
         offset="0" /><stop
         id="stop4166-2"
         style="stop-color:#219146"
         offset="1" /></linearGradient><linearGradient
       gradientTransform="matrix(1,0,0,-1,-844.6201,-1182.5195)"
       y2="-1194.7441"
       x2="865.59381"
       y1="-1194.7441"
       x1="848.73242"
       gradientUnits="userSpaceOnUse"
       id="linearGradient4793"><stop
         id="stop4177-4"
         style="stop-color:#B2D78E"
         offset="0" /><stop
         id="stop4179-5"
         style="stop-color:#219146"
         offset="1" /></linearGradient><linearGradient
       y2="-1202.7705"
       x2="872.50781"
       y1="-1202.7705"
       x1="855.64838"
       gradientTransform="matrix(1,0,0,-1,-844.6201,-1182.5195)"
       gradientUnits="userSpaceOnUse"
       id="linearGradient4812"
       xlink:href="#linearGradient4840" /><linearGradient
       id="SVGID_1_-3"
       gradientUnits="userSpaceOnUse"
       x1="288.52151"
       y1="-387.84381"
       x2="306.55759"
       y2="-387.84381"
       gradientTransform="matrix(1,0,0,-1,-281.54,-371.8398)"><stop
         offset="0"
         style="stop-color:#F6979A"
         id="stop4144" /><stop
         offset="1"
         style="stop-color:#901A1D"
         id="stop4146" /></linearGradient></defs><g
     id="g4169"
     transform="translate(-0.83968931,0)"><g
       transform="matrix(0.8005454,0,0,0.8005454,-3.8595596,6.0923923)"
       id="g4157"><path
         style="fill:#231f20"
         id="path4159"
         d="m 15.117,30.684 c -0.464,0 -0.893,-0.246 -1.123,-0.648 L 8.132,19.886 C 7.961,19.589 7.914,19.235 8.002,18.9 8.09,18.567 8.308,18.284 8.606,18.114 l 5.293,-3.057 c 0.204,-0.117 0.428,-0.175 0.649,-0.175 0.45,0 0.887,0.235 1.125,0.648 l 2.186,3.784 5.383,-9.324 c 0.24,-0.417 0.677,-0.649 1.125,-0.649 0.22,0 0.443,0.056 0.646,0.174 l 5.295,3.056 c 0.299,0.172 0.517,0.459 0.604,0.788 0.089,0.335 0.042,0.685 -0.129,0.986 l -8.212,14.22 c -0.018,0.038 -0.037,0.076 -0.059,0.114 l -0.783,1.358 c -0.231,0.399 -0.66,0.648 -1.125,0.648 l -5.487,-10e-4 z"
         inkscape:connector-curvature="0" /><polygon
         style="fill:#6dbe46"
         id="polygon4161"
         points="9.255,19.236 15.117,29.386 20.606,29.389 21.392,28.031 21.388,28.022 29.66,13.696 24.366,10.637 17.858,21.91 14.549,16.18 " /><linearGradient
         gradientTransform="matrix(1,0,0,-1,-844.6201,-1182.5195)"
         y2="-1202.7705"
         x2="872.50781"
         y1="-1202.7705"
         x1="855.64838"
         gradientUnits="userSpaceOnUse"
         id="SVGID_1_"><stop
           id="stop4164"
           style="stop-color:#B2D78E"
           offset="0" /><stop
           id="stop4166"
           style="stop-color:#219146"
           offset="1" /></linearGradient><path
         style="fill:url(#SVGID_1_)"
         id="path4168"
         d="m 15.867,28.089 -4.839,-8.38 3.046,-1.756 2.659,4.604 c 0.232,0.405 0.66,0.647 1.125,0.647 0.461,0 0.892,-0.242 1.123,-0.647 l 5.86,-10.146 3.046,1.756 -7.625,13.208 c -0.021,0.035 -0.039,0.076 -0.058,0.117 l -0.347,0.599 -3.99,-0.002 z"
         inkscape:connector-curvature="0" /></g><g
       transform="matrix(0.8005454,0,0,0.8005454,0.88620339,-0.1448957)"
       id="g4170"><path
         style="fill:#231f20"
         id="path4172"
         d="m 8.203,22.657 c -0.465,0 -0.894,-0.246 -1.123,-0.648 L 1.217,11.859 C 1.046,11.563 1,11.208 1.087,10.873 1.175,10.54 1.393,10.257 1.691,10.087 L 6.984,7.03 C 7.188,6.913 7.413,6.855 7.633,6.855 c 0.45,0 0.886,0.235 1.125,0.647 l 2.185,3.784 5.384,-9.324 c 0.24,-0.417 0.677,-0.649 1.125,-0.649 0.22,0 0.444,0.056 0.647,0.174 l 5.295,3.056 c 0.299,0.172 0.516,0.459 0.604,0.788 0.09,0.335 0.043,0.685 -0.129,0.986 l -8.211,14.22 c -0.018,0.038 -0.037,0.076 -0.059,0.114 l -0.783,1.358 c -0.231,0.399 -0.66,0.648 -1.125,0.648 l -5.488,0 z"
         inkscape:connector-curvature="0" /><polygon
         style="fill:#6dbe46"
         id="polygon4174"
         points="7.634,8.153 2.34,11.21 8.203,21.359 13.692,21.362 14.477,20.005 14.473,19.996 22.745,5.669 17.451,2.61 10.944,13.884 " /><linearGradient
         gradientTransform="matrix(1,0,0,-1,-844.6201,-1182.5195)"
         y2="-1194.7441"
         x2="865.59381"
         y1="-1194.7441"
         x1="848.73242"
         gradientUnits="userSpaceOnUse"
         id="SVGID_2_"><stop
           id="stop4177"
           style="stop-color:#B2D78E"
           offset="0" /><stop
           id="stop4179"
           style="stop-color:#219146"
           offset="1" /></linearGradient><path
         style="fill:url(#SVGID_2_)"
         id="path4181"
         d="m 8.953,20.063 -4.84,-8.38 3.047,-1.756 2.659,4.604 c 0.232,0.405 0.66,0.647 1.124,0.647 0.461,0 0.893,-0.242 1.123,-0.647 l 5.861,-10.146 3.047,1.756 -7.625,13.208 c -0.021,0.035 -0.039,0.076 -0.058,0.117 l -0.348,0.599 -3.99,-0.002 z"
         inkscape:connector-curvature="0" /></g></g><g
     transform="matrix(0.55901802,0,0,0.55894539,16.415957,15.271967)"
     id="g4137"><path
       style="fill:#020202"
       inkscape:connector-curvature="0"
       d="m 27.521,10.785 c 0.002,-0.002 0.016,-0.018 0.021,-0.022 0.002,-0.003 -0.021,-0.022 -0.021,-0.022 l 0,-0.043 0,-0.043 c 0,0 0.021,-0.021 0.021,-0.022 -0.004,-0.009 -0.02,-0.019 -0.021,-0.022 C 27.519,10.6 27.5,10.59 27.5,10.59 l 0.021,-0.021 c 0,-0.014 -0.023,-0.021 -0.021,-0.022 0.002,-0.001 0,-0.044 0,-0.044 0.002,-0.003 0,-0.043 0,-0.043 0,0 -0.018,-0.014 -0.021,-0.021 -0.004,-0.011 -0.021,-0.023 -0.021,-0.021 -0.006,-0.016 0,-0.044 0,-0.044 0,0 0.008,-0.025 0,-0.044 -0.01,-0.014 -0.02,-0.018 -0.021,-0.022 -0.004,-0.009 0.021,-0.022 0.021,-0.022 0,0 -0.016,-0.004 -0.021,-0.021 -0.004,-0.016 -0.021,-0.063 -0.021,-0.064 0,0 -0.018,-0.012 -0.021,-0.022 -0.004,-0.009 0.002,-0.037 0.002,-0.043 -0.012,-0.01 -0.02,-0.019 -0.023,-0.022 -0.004,-0.008 -0.02,-0.021 -0.02,-0.021 -0.004,-0.01 -0.023,-0.021 -0.023,-0.021 l 0.023,-0.022 c -0.006,-0.009 -0.018,-0.011 -0.023,-0.022 0,0 -0.018,-0.012 -0.02,-0.021 -0.01,-0.008 -0.018,-0.018 -0.021,-0.021 -0.008,-0.013 0,-0.043 0,-0.043 -0.002,0 -0.02,-0.02 -0.021,-0.021 C 27.261,9.914 27.251,9.904 27.248,9.9 c 0,0 -0.033,-0.032 -0.045,-0.044 C 27.197,9.849 27.185,9.838 27.182,9.835 27.153,9.805 27.172,9.825 27.161,9.813 L 22.212,4.863 C 22.198,4.851 22.22,4.873 22.191,4.842 22.183,4.835 22.173,4.825 22.17,4.82 22.16,4.81 22.127,4.777 22.125,4.775 22.117,4.768 22.109,4.758 22.105,4.754 L 22.076,4.72 22.055,4.741 c 0,0 -0.018,-0.016 -0.021,-0.021 -0.006,-0.007 -0.016,-0.016 -0.02,-0.022 0,0 -0.012,-0.016 -0.023,-0.021 -0.008,-0.005 -0.02,-0.021 -0.02,-0.021 -0.014,-0.004 -0.023,0.021 -0.023,0.021 0,0 -0.014,-0.02 -0.021,-0.021 0,0 -0.016,-0.019 -0.021,-0.022 0,10e-4 -0.066,-0.022 -0.066,-0.021 C 21.83,4.607 21.82,4.592 21.82,4.592 21.818,4.593 21.75,4.563 21.726,4.55 l -0.02,0.019 c 0,0 -0.016,-0.019 -0.02,-0.021 0,0 -0.031,0.003 -0.045,0 0,0 -0.016,-0.021 -0.021,-0.022 C 21.61,4.534 21.604,4.542 21.599,4.548 21.587,4.546 21.581,4.526 21.578,4.526 l -0.037,-0.03 c 0,0 -0.016,-0.021 -0.021,-0.022 -0.012,-0.002 -0.021,0.021 -0.021,0.022 -0.012,-0.003 -0.016,-0.021 -0.02,-0.021 -0.004,0.003 -0.023,0.022 -0.023,0.022 0,0.001 -0.02,-0.02 -0.02,-0.022 -0.002,0.001 -0.023,0.022 -0.023,0.022 0,0 -0.012,-0.02 -0.02,-0.021 -0.002,0.002 -0.016,-0.02 -0.023,-0.021 0,0.001 -0.02,0.021 -0.02,0.021 l -0.045,0 -0.045,0 c 0,0 -0.018,-0.023 -0.021,-0.021 C 21.233,4.46 21.218,4.476 21.218,4.476 21.21,4.484 21.2,4.494 21.197,4.498 21.195,4.5 21.177,4.476 21.176,4.476 21.172,4.48 21.156,4.497 21.155,4.498 21.157,4.499 21.139,4.477 21.134,4.477 21.12,4.474 21.113,4.498 21.113,4.498 c -0.004,0.004 -0.045,0 -0.045,0 0,0 -0.016,0.015 -0.021,0.021 -0.002,0.002 -0.018,0.019 -0.021,0.022 0,10e-4 -0.016,-0.021 -0.021,-0.021 -0.002,0.002 -0.01,0.024 -0.02,0.021 -0.004,0.003 -0.035,-0.001 -0.045,0 0,0 -0.01,0.021 -0.021,0.021 -0.014,0 -0.033,-0.022 -0.033,-0.022 -0.002,0 -0.006,0.021 -0.021,0.022 -0.004,0.004 -0.037,-0.002 -0.043,0 0,0 -0.016,0.014 -0.021,0.021 -0.01,0.008 -0.018,0.018 -0.021,0.021 -0.004,0.002 -0.02,-0.022 -0.023,-0.021 -0.002,0.002 -0.018,0.02 -0.021,0.023 -0.014,0.011 -0.02,0.018 -0.023,0.021 0,0 -0.016,0.018 -0.021,0.021 -0.006,0.006 -0.021,0.022 -0.021,0.022 0,0 -0.014,-0.024 -0.021,-0.022 0.002,0.002 -0.016,0.019 -0.021,0.022 l -0.088,0.045 c -0.002,0.001 -0.035,0.035 -0.045,0.044 0,0 -0.025,0.026 -0.021,0.022 -0.002,0.001 -0.012,0.013 -0.021,0.022 -0.008,0.008 -0.016,0.014 -0.021,0.021 L 20.412,4.845 16,9.247 11.605,4.851 11.583,4.83 C 11.577,4.822 11.57,4.814 11.562,4.809 11.551,4.799 11.541,4.788 11.54,4.787 11.544,4.791 11.519,4.765 11.519,4.765 11.508,4.755 11.476,4.722 11.474,4.721 L 11.385,4.676 C 11.378,4.672 11.364,4.655 11.364,4.654 c -0.01,-0.002 -0.022,0.022 -0.022,0.022 0,0 -0.017,-0.017 -0.021,-0.022 C 11.315,4.65 11.299,4.633 11.299,4.633 11.295,4.629 11.288,4.622 11.277,4.612 11.269,4.608 11.254,4.591 11.253,4.589 11.248,4.588 11.232,4.614 11.231,4.61 11.225,4.604 11.217,4.596 11.21,4.589 11.203,4.582 11.189,4.568 11.189,4.568 11.183,4.566 11.15,4.572 11.146,4.568 11.128,4.566 11.125,4.547 11.124,4.546 c 0,0 -0.009,0.022 -0.022,0.022 -0.013,0 -0.021,-0.022 -0.021,-0.022 -0.011,-0.001 -0.042,0.003 -0.045,0 -0.011,0.003 -0.019,-0.021 -0.021,-0.022 -0.007,0 -0.021,0.022 -0.021,0.021 C 10.99,4.541 10.973,4.524 10.973,4.524 10.965,4.516 10.952,4.502 10.952,4.502 c 0,0 -0.04,0.004 -0.045,0 0,0 -0.01,-0.024 -0.021,-0.022 -0.007,0 -0.023,0.022 -0.021,0.021 -0.002,-0.004 -0.02,-0.02 -0.021,-0.022 -0.003,0 -0.02,0.025 -0.021,0.022 C 10.817,4.495 10.807,4.485 10.802,4.479 10.801,4.478 10.784,4.462 10.781,4.457 c -0.004,0 -0.021,0.022 -0.021,0.022 l -0.045,0 -0.044,0 c 0,0 -0.021,-0.021 -0.021,-0.022 C 10.641,4.46 10.629,4.48 10.628,4.479 10.617,4.48 10.607,4.5 10.607,4.5 c 0,0 -0.021,-0.021 -0.022,-0.022 -0.002,0.002 -0.021,0.023 -0.021,0.022 0,0 -0.021,-0.019 -0.022,-0.022 -0.007,0 -0.011,0.02 -0.021,0.021 C 10.519,4.497 10.509,4.474 10.5,4.477 10.482,4.479 10.466,4.5 10.466,4.5 l -0.022,0.022 c -0.004,0 -0.011,0.02 -0.021,0.021 C 10.416,4.535 10.408,4.529 10.401,4.522 10.393,4.524 10.38,4.543 10.38,4.543 c -0.014,0.003 -0.044,0 -0.044,0 -0.005,0.003 -0.021,0.021 -0.021,0.021 l -0.02,-0.02 c -0.023,0.012 -0.092,0.043 -0.094,0.042 0,0 -0.01,0.017 -0.021,0.021 0,0 -0.065,0.022 -0.065,0.021 -0.008,0.005 -0.021,0.021 -0.021,0.021 -0.009,0.002 -0.021,0.022 -0.021,0.022 0,0 -0.012,-0.024 -0.022,-0.022 0,0 -0.015,0.018 -0.021,0.022 C 10.01,4.674 10,4.691 10,4.691 9.992,4.697 9.982,4.707 9.976,4.713 9.97,4.718 9.954,4.736 9.954,4.736 L 9.931,4.713 9.909,4.736 C 9.904,4.74 9.896,4.75 9.888,4.756 9.886,4.758 9.853,4.792 9.843,4.801 9.838,4.806 9.829,4.816 9.82,4.824 9.791,4.855 9.812,4.834 9.799,4.845 l -4.95,4.95 C 4.837,9.806 4.857,9.787 4.828,9.818 4.824,9.822 4.812,9.833 4.806,9.839 4.794,9.851 4.761,9.883 4.761,9.883 4.756,9.888 4.747,9.898 4.739,9.906 4.736,9.908 4.718,9.926 4.718,9.926 c 0,0 0.008,0.032 -0.001,0.044 C 4.712,9.976 4.704,9.986 4.695,9.992 4.691,10.003 4.674,10.014 4.674,10.014 4.667,10.027 4.657,10.029 4.652,10.036 l 0.022,0.021 c 0,0 -0.019,0.014 -0.022,0.022 0,0 -0.017,0.014 -0.021,0.022 -0.005,0.004 -0.012,0.012 -0.022,0.021 0,0.007 0.006,0.033 0.002,0.043 -0.006,0.011 -0.022,0.021 -0.022,0.021 10e-4,0.002 -0.017,0.049 -0.021,0.065 -0.006,0.017 -0.022,0.022 -0.022,0.022 0,0 0.026,0.013 0.022,0.021 -0.004,0.006 -0.014,0.01 -0.022,0.021 -0.008,0.02 0,0.045 0,0.045 0,0 0.007,0.029 0,0.043 0.002,0 -0.017,0.013 -0.021,0.021 -0.006,0.017 -0.025,0.031 -0.025,0.031 0,0 -0.002,0.041 0,0.043 0,0 -0.002,0.043 0,0.044 0.001,10e-4 -0.021,0.01 -0.022,0.022 L 4.5,10.585 c 0,0 -0.021,0.011 -0.022,0.021 0,0.004 -0.018,0.014 -0.021,0.022 0.002,10e-4 0.021,0.022 0.021,0.022 0,0 0.002,0.043 0,0.043 l 0.002,0.043 c 0,0 -0.025,0.021 -0.022,0.022 0.006,0.005 0.021,0.021 0.022,0.022 -0.004,0.011 0.024,0.01 0.021,0.021 0,0 0,0.042 10e-4,0.043 -10e-4,0.006 0,0.045 0,0.045 0.001,0.006 0,0.043 0,0.043 0,0 0.016,0.016 0.021,0.022 0.002,10e-4 0.019,0.019 0.021,0.022 0.002,0.008 -0.02,0.012 -0.021,0.024 0.006,0.005 0.021,0.022 0.021,0.022 0,0 -0.007,0.022 0,0.043 0.003,0.018 0.021,0.022 0.021,0.022 0.004,0.011 -0.021,0.022 -0.021,0.022 0.003,0.002 0.021,0.063 0.023,0.065 0.007,0.009 0.015,0.017 0.021,0.022 0,0 0.017,0.015 0.022,0.021 0,0 0.022,0.068 0.021,0.066 0.002,0.003 0.025,0.01 0.021,0.021 0.007,0.01 -0.004,0.041 0,0.043 0,0.016 0.045,0.045 0.045,0.045 0,0 0.017,0.017 0.021,0.021 0.012,0.021 0,0.044 0,0.044 0.002,10e-4 0.021,0.021 0.021,0.022 0.006,0.004 0.017,0.017 0.021,0.021 0.002,10e-4 0.012,0.012 0.022,0.021 0.012,0.014 0.012,0.014 0.021,0.022 0.03,0.031 0.023,0.024 0.022,0.022 0,0 0.006,0.005 0.022,0.021 l 4.395,4.395 -4.387,4.393 c -0.025,0.027 -0.026,0.025 -0.021,0.021 -0.011,0.012 -0.027,0.029 -0.021,0.023 -0.023,0.021 -0.012,0.012 -0.021,0.02 -0.011,0.014 -0.021,0.023 -0.021,0.023 0,0 -0.014,0.014 -0.023,0.023 -0.012,0.012 0,-0.002 -0.021,0.021 -0.002,0.002 -0.022,0.021 -0.022,0.021 -0.017,0.014 -0.032,0.027 -0.044,0.045 l 0.002,0.002 -0.001,0.043 c -0.002,0.015 -0.016,0.03 -0.022,0.034 -0.002,0.004 -0.015,0.016 -0.021,0.021 -0.007,0.006 -0.022,0.066 -0.022,0.066 0,0 -0.02,0.02 -0.021,0.021 -0.006,0.006 -0.021,0.02 -0.021,0.02 0,0 0.024,0.021 0.021,0.023 -0.008,0.006 -0.014,0.014 -0.021,0.021 -0.01,0.01 -0.021,0.021 -0.021,0.021 -0.004,0.004 0.023,0.018 0.021,0.021 -0.007,0.008 -0.021,0.021 -0.021,0.021 -0.006,0.006 -0.021,0.021 -0.021,0.021 0,0 0.01,0.023 0,0.045 -0.005,0.018 -0.021,0.021 -0.021,0.021 0.006,0.008 0.013,0.016 0.021,0.021 -0.01,0.008 -0.017,0.016 -0.021,0.021 0,0 -0.02,0.02 -0.022,0.021 -0.004,0.004 0.021,0.02 0.021,0.021 -0.005,0.004 -0.021,0.02 -0.021,0.021 -0.003,0.004 0.021,0.02 0.021,0.021 -0.005,0.004 -0.021,0.02 -0.021,0.021 -0.003,0.002 0.022,0.02 0.021,0.021 -0.005,0.004 -0.019,0.02 -0.021,0.021 -0.002,0.002 -10e-4,0.035 0,0.045 -0.003,0.002 0.021,0.02 0.021,0.02 -0.003,0.051 -0.024,0.014 -0.021,0.023 0.001,0.012 0.021,0.051 0.021,0.021 -0.003,0.021 -0.023,0.01 -0.021,0.021 -0.003,0.002 0.021,0.02 0.021,0.021 -10e-4,0 -0.023,-0.006 -0.021,0.021 -0.002,0.018 -0.002,0.043 0,0.043 0.001,0.014 -0.002,0.043 -10e-4,0.045 0.008,0.008 0.014,0.016 0.022,0.021 -0.003,0.002 -0.021,0.02 -0.022,0.021 -0.003,0.004 0.021,0.016 0.021,0.021 -0.002,0.002 -0.026,0.012 -0.022,0.021 0.005,0.012 0.022,0.021 0.022,0.021 -0.004,0.002 0,0.045 0,0.045 0.004,0.012 0.021,0.021 0.021,0.021 -0.002,0 -0.021,0.02 -0.021,0.021 0.003,0.012 0.021,0.021 0.021,0.021 0,0 0.016,0.016 0.021,0.021 -0.002,0.002 0.018,0.008 0.021,0.021 0.005,0.01 -0.028,0.006 -0.021,0.021 0,0 0.014,0.008 0.021,0.02 0.011,0.021 0,0.045 0,0.045 0,0 0.017,0.018 0.021,0.021 0.004,0.01 0.022,0.021 0.022,0.021 0.004,0.01 -0.003,0.037 0,0.045 -0.003,0 0.016,0.014 0.021,0.021 0,0 0.02,0.02 0.022,0.021 0,0 -0.008,0.037 -0.002,0.045 0,0 0.018,0.016 0.022,0.02 0.006,0.008 0.021,0.02 0.021,0.021 0.006,0.01 0.021,0.021 0.022,0.021 0.007,0.014 0,0.045 0,0.045 0,0 0.019,0.018 0.021,0.021 0.008,0.008 0.021,0.02 0.022,0.021 0.009,0.008 0.017,0.018 0.021,0.021 0.012,0.01 0.021,0.02 0.021,0.021 0.027,0.031 0.018,0.018 0.021,0.021 0.01,0.01 -0.013,-0.012 0.021,0.02 l 4.949,4.951 c 0.013,0.031 -0.007,0.014 0.022,0.041 0.008,0.006 0.018,0.018 0.022,0.021 0.011,0.012 0.043,0.043 0.044,0.045 0.007,0.006 0.017,0.016 0.021,0.021 l 0.021,0.02 c 0,0 0.031,-0.008 0.045,0 0.007,0.008 0.021,0.021 0.021,0.021 0,0 0.016,0.016 0.021,0.021 0.019,0.01 0.045,0 0.045,0 0,0 0.013,0.021 0.021,0.021 0,0 0.015,0.014 0.022,0.021 0.007,0.006 0.011,0.014 0.021,0.021 0.011,0.004 0.037,-0.002 0.045,0 0.011,0.004 0.017,0.021 0.021,0.021 0,0 0.051,0.018 0.064,0.021 0.018,0.006 0.021,0.02 0.021,0.02 0,0 0.013,-0.021 0.022,-0.02 0.011,0.004 0.022,0.02 0.022,0.02 0,0 0.017,0.023 0.021,0.023 0.002,-0.002 0.02,-0.02 0.022,-0.023 0.01,0.006 0.018,0.025 0.021,0.023 0.011,0.002 0.019,-0.02 0.021,-0.023 0.01,0.004 0.016,0.023 0.021,0.021 0.011,0.006 0.022,0.023 0.022,0.023 0,0 0.037,-0.002 0.043,-0.002 0.002,-0.002 0.018,0.023 0.021,0.021 0.01,0.006 0.021,-0.021 0.021,-0.021 l 0.045,0 c 0.01,0.004 0.012,0.021 0.021,0.021 0.002,0 0.013,0.021 0.022,0.021 0,-0.002 0.021,-0.021 0.021,-0.021 l 0.044,0 0.043,0 c 0,0 0.019,0.021 0.022,0.021 0.004,-0.004 0.02,-0.02 0.021,-0.021 0.021,0 0.042,0 0.043,0 0.002,-0.002 0.021,-0.021 0.022,-0.023 10e-4,0.002 0.018,0.023 0.022,0.023 0.01,0.002 0.021,-0.021 0.021,-0.023 0.003,-0.002 0.043,0.002 0.044,0 0,0 0.016,-0.014 0.021,-0.021 0.008,-0.006 0.008,-0.02 0.022,-0.021 0.014,0 0.044,0 0.044,0 0,0 0.023,0.01 0.044,0 0.017,-0.002 0.022,-0.02 0.022,-0.02 0.012,0 0.021,0.02 0.021,0.02 0.003,-0.002 0.063,-0.02 0.065,-0.021 0.008,-0.008 0.015,-0.014 0.021,-0.021 0.002,-0.002 0.021,-0.021 0.021,-0.021 0.005,-0.006 0.037,0.004 0.045,0 0.007,-0.008 0.021,-0.023 0.021,-0.023 0.008,-0.006 0.02,-0.018 0.021,-0.021 0.007,-0.006 0.039,0.006 0.044,0 0.015,0 0.044,-0.045 0.044,-0.045 0,0 0.016,-0.016 0.021,-0.02 0.022,-0.008 0.045,0 0.045,0 0,0 0.018,-0.02 0.021,-0.023 0.005,-0.006 0.018,-0.016 0.021,-0.021 0.012,-0.01 0.021,-0.021 0.021,-0.021 0.012,-0.012 0.014,-0.012 0.021,-0.021 0.01,-0.01 0.025,-0.025 0.021,-0.021 0,0 0.004,-0.004 0.021,-0.021 l 4.449,-4.39 4.413,4.414 c 0.02,0.018 0.023,0.021 0.023,0.021 -0.004,-0.004 0.012,0.012 0.02,0.021 0.01,0.01 0.012,0.012 0.023,0.021 0,0.002 0.01,0.012 0.021,0.021 0.004,0.006 0.018,0.018 0.021,0.021 0.003,0.003 0.021,0.023 0.021,0.023 0,0 0.021,-0.01 0.043,0 0.008,0.006 0.023,0.02 0.023,0.02 0,0 0.029,0.045 0.043,0.045 0.004,0.004 0.037,-0.006 0.045,0 0.002,0.004 0.014,0.018 0.02,0.021 0,0 0.018,0.016 0.023,0.023 0.008,0.002 0.039,-0.006 0.043,0 0,0 0.021,0.02 0.023,0.021 0.008,0.008 0.014,0.016 0.02,0.02 0.004,0.002 0.064,0.021 0.066,0.023 0,0 0.01,-0.021 0.021,-0.021 0,0 0.006,0.02 0.021,0.021 0.021,0.01 0.045,0 0.045,0 0,0 0.029,0 0.043,0 0.016,0.002 0.016,0.016 0.021,0.021 0.008,0.008 0.023,0.021 0.023,0.021 0,0.002 0.041,-0.002 0.043,0 0.002,0.002 0.012,0.023 0.021,0.021 0.006,0 0.021,-0.02 0.021,-0.021 0.002,0.002 0.021,0.021 0.021,0.021 0.002,0.002 0.021,0 0.045,0 0.002,0.004 0.018,0.02 0.021,0.023 0.004,0 0.021,-0.023 0.021,-0.023 l 0.043,0.002 0.045,0 c 0,0 0.02,0.021 0.021,0.021 0.01,-0.002 0.021,-0.023 0.021,-0.021 0.01,-0.002 0.012,-0.018 0.021,-0.021 l 0.043,0 c 0.002,0.002 0.014,0.025 0.023,0.021 0.004,0 0.02,-0.023 0.021,-0.021 0.004,0 0.043,0.002 0.043,0.002 0,0 0.012,-0.02 0.021,-0.023 0.006,0.002 0.012,-0.018 0.021,-0.021 0.002,0.004 0.012,0.025 0.021,0.023 0.004,0 0.012,-0.02 0.021,-0.023 0.002,0.004 0.021,0.021 0.021,0.023 0.006,0 0.021,-0.023 0.021,-0.023 0,0 0.014,-0.018 0.021,-0.021 0.012,-0.002 0.023,0.021 0.023,0.021 0.002,0 0.004,-0.016 0.02,-0.021 0.016,-0.004 0.066,-0.02 0.066,-0.02 0.006,0 0.012,-0.02 0.021,-0.021 0.008,-0.002 0.033,0.004 0.043,0 0.012,-0.008 0.016,-0.016 0.021,-0.021 0.01,-0.008 0.021,-0.021 0.021,-0.021 0.01,-0.002 0.021,-0.021 0.021,-0.021 0,0 0.025,0.01 0.045,0 0.006,-0.006 0.021,-0.021 0.021,-0.021 0,0 0.016,-0.016 0.021,-0.021 0.014,-0.008 0.045,0 0.045,0 l 0.02,-0.021 c 0.008,-0.006 0.018,-0.016 0.023,-0.02 0,-0.002 0.033,-0.033 0.043,-0.045 0.006,-0.006 0.016,-0.018 0.021,-0.021 0.031,-0.029 0.012,-0.012 0.023,-0.021 l 4.949,-4.951 c 0.033,-0.031 0.012,-0.012 0.02,-0.021 0.006,-0.004 -0.004,0.012 0.023,-0.02 0,-0.002 0.01,-0.014 0.02,-0.021 0.006,-0.006 0.014,-0.014 0.021,-0.021 0.004,-0.004 0.016,-0.016 0.021,-0.023 0.004,-0.004 0.021,-0.02 0.021,-0.02 0,0 -0.006,-0.031 0,-0.045 0.002,-0.002 0.018,-0.014 0.021,-0.021 0.002,-0.002 0.018,-0.014 0.021,-0.021 0.006,-0.004 0.021,-0.021 0.021,-0.021 0.008,-0.006 0,-0.043 0,-0.043 0.002,-0.004 0.021,-0.021 0.021,-0.021 0.006,-0.01 0.023,-0.021 0.021,-0.021 0.002,-0.008 -0.004,-0.035 0,-0.045 0,0 0.02,-0.012 0.021,-0.021 0.006,-0.006 0.021,-0.021 0.021,-0.021 0,0 -0.012,-0.023 0,-0.045 0.008,-0.012 0.021,-0.021 0.021,-0.021 0.006,-0.014 -0.027,-0.012 -0.021,-0.02 0.004,-0.014 0.021,-0.021 0.021,-0.021 0.006,-0.008 0.02,-0.021 0.02,-0.021 0,0 0.021,-0.012 0.023,-0.023 -0.002,-0.002 -0.021,-0.02 -0.021,-0.02 0,0 0.018,-0.01 0.021,-0.023 0,0 0.002,-0.041 0,-0.043 0,0 0.018,-0.012 0.021,-0.021 0.004,-0.012 -0.021,-0.021 -0.021,-0.023 0,-0.006 0.023,-0.018 0.02,-0.02 -0.002,-0.002 -0.02,-0.021 -0.021,-0.021 0.01,-0.006 0.016,-0.014 0.021,-0.021 0.002,-0.002 -0.002,-0.031 0,-0.045 0.002,0 0.002,-0.025 0,-0.043 0.002,-0.027 -0.021,-0.021 -0.021,-0.021 0.002,-0.002 0.025,-0.02 0.021,-0.023 0.002,-0.012 -0.02,0.002 -0.021,-0.02 0.002,0.027 0.021,-0.01 0.021,-0.023 0.004,-0.01 -0.02,0.027 -0.021,-0.021 0,-0.002 0.025,-0.02 0.021,-0.021 0,-0.01 0.002,-0.043 0,-0.045 -0.004,-0.002 -0.018,-0.018 -0.021,-0.02 -0.002,-0.002 0.023,-0.021 0.021,-0.021 -0.002,-0.004 -0.018,-0.018 -0.021,-0.021 0.002,-0.002 0.025,-0.02 0.021,-0.023 -0.002,-0.002 -0.018,-0.018 -0.021,-0.02 0,-0.004 0.025,-0.02 0.021,-0.021 -0.004,-0.004 -0.021,-0.021 -0.021,-0.021 -0.006,-0.008 -0.014,-0.016 -0.023,-0.021 0.012,-0.008 0.018,-0.016 0.023,-0.021 0,0 -0.018,-0.004 -0.023,-0.021 -0.008,-0.021 0,-0.045 0,-0.045 0,0 -0.016,-0.016 -0.02,-0.021 0,0 -0.016,-0.016 -0.023,-0.021 0,-0.004 0.027,-0.02 0.023,-0.021 0,0 -0.014,-0.014 -0.023,-0.021 -0.008,-0.008 -0.014,-0.016 -0.02,-0.021 -0.004,-0.004 0.02,-0.023 0.02,-0.023 0,0 -0.016,-0.016 -0.02,-0.02 -0.004,-0.004 -0.023,-0.021 -0.023,-0.021 0,0 -0.016,-0.061 -0.021,-0.066 -0.006,-0.008 -0.02,-0.018 -0.021,-0.021 -0.006,-0.006 -0.02,-0.021 -0.021,-0.023 l 0,-0.043 0.002,-0.002 C 27.287,20.607 27.272,20.594 27.254,20.58 l -0.021,-0.021 c -0.021,-0.023 -0.012,-0.012 -0.021,-0.021 -0.012,-0.01 -0.021,-0.021 -0.021,-0.021 0,0 -0.012,-0.012 -0.021,-0.023 -0.012,-0.01 0.002,0.002 -0.023,-0.02 0.006,0.006 -0.01,-0.014 -0.02,-0.023 0.004,0.004 0.004,0.006 -0.023,-0.021 l -4.391,-4.391 4.395,-4.395 c 0.018,-0.018 0.021,-0.021 0.021,-0.021 0,0.002 -0.008,0.008 0.021,-0.022 0.01,-0.009 0.01,-0.009 0.021,-0.022 0.012,-0.011 0.021,-0.021 0.021,-0.021 0.006,-0.006 0.018,-0.018 0.023,-0.021 0.002,-0.004 0.02,-0.021 0.02,-0.022 0,0 -0.012,-0.022 0,-0.044 0.006,-0.006 0.023,-0.022 0.023,-0.022 0,0 0.045,-0.03 0.043,-0.044 0.004,-0.004 -0.006,-0.033 0.002,-0.043 -0.004,-0.012 0.02,-0.02 0.02,-0.021 l 0.023,-0.066 c 0.006,-0.007 0.021,-0.021 0.021,-0.021 0.008,-0.006 0.016,-0.014 0.021,-0.022 0.002,-0.003 0.02,-0.063 0.023,-0.065 0,0 -0.025,-0.013 -0.023,-0.022 0,0 0.02,-0.005 0.023,-0.022 0.006,-0.021 0,-0.044 0,-0.044 0,0 0.016,-0.017 0.02,-0.022 0,-0.012 -0.021,-0.016 -0.02,-0.021 0.004,-0.004 0.02,-0.021 0.02,-0.021 0.008,-0.008 0.023,-0.022 0.023,-0.022 0,0 -0.002,-0.037 0,-0.044 0,0 0,-0.038 0,-0.044 0,-10e-4 0,-0.043 0,-0.043 0.04,-0.067 0.069,-0.067 0.067,-0.077 z"
       id="path4139" /><polygon
       style="fill:#ec2727"
       points="21.301,5.751 16,11.052 10.699,5.751 5.749,10.701 11.05,16.002 5.745,21.307 10.693,26.258 16,20.951 21.307,26.258 26.254,21.307 20.949,16.002 26.25,10.701 "
       id="polygon4141" /><linearGradient
       id="linearGradient4740"
       gradientUnits="userSpaceOnUse"
       x1="288.52151"
       y1="-387.84381"
       x2="306.55759"
       y2="-387.84381"
       gradientTransform="matrix(1,0,0,-1,-281.54,-371.8398)"><stop
         offset="0"
         style="stop-color:#F6979A"
         id="stop4742" /><stop
         offset="1"
         style="stop-color:#901A1D"
         id="stop4744" /></linearGradient><polygon
       style="fill:url(#SVGID_1_-3)"
       points="21.301,6.988 16,12.29 10.699,6.988 6.986,10.701 12.287,16.002 6.982,21.307 10.693,25.02 16,19.715 21.307,25.02 25.018,21.307 19.713,16.002 25.014,10.701 "
       id="polygon4148" /></g></svg>