<?xml version="1.0" encoding="UTF-8" standalone="no"?>
<svg
   xmlns:dc="http://purl.org/dc/elements/1.1/"
   xmlns:cc="http://creativecommons.org/ns#"
   xmlns:rdf="http://www.w3.org/1999/02/22-rdf-syntax-ns#"
   xmlns:svg="http://www.w3.org/2000/svg"
   xmlns="http://www.w3.org/2000/svg"
   xmlns:xlink="http://www.w3.org/1999/xlink"
   xml:space="preserve"
   enable-background="new 0 0 32 32"
   viewBox="0 0 32 32"
   height="32px"
   width="32px"
   y="0px"
   x="0px"
   id="Layer_1"
   version="1.1"><metadata
     id="metadata3341"><rdf:RDF><cc:Work
         rdf:about=""><dc:format>image/svg+xml</dc:format><dc:type
           rdf:resource="http://purl.org/dc/dcmitype/StillImage" /><dc:title></dc:title></cc:Work></rdf:RDF></metadata><defs
     id="defs3339"><linearGradient
       gradientTransform="matrix(5.1929,22.7877,-22.7877,5.1929,-1989.2791,10645.424)"
       y2="-184.8896"
       x2="-424.49719"
       y1="-184.8896"
       x1="-423.65579"
       gradientUnits="userSpaceOnUse"
       id="path1830_1_"><stop
         id="stop3407"
         style="stop-color:#B1D2DB"
         offset="0" /><stop
         id="stop3409"
         style="stop-color:#C3DCE3"
         offset="1" /></linearGradient><linearGradient
       y2="13.0249"
       x2="28.9688"
       y1="13.0249"
       x1="17.431601"
       gradientUnits="userSpaceOnUse"
       id="polygon4061_1_"><stop
         id="stop3559"
         style="stop-color:#FFF3E0"
         offset="0" /><stop
         id="stop3561"
         style="stop-color:#FAA820"
         offset="0.5394" /><stop
         id="stop3563"
         style="stop-color:#A56629"
         offset="1" /></linearGradient><linearGradient
       y2="13.0249"
       x2="28.9688"
       y1="13.0249"
       x1="17.431601"
       gradientUnits="userSpaceOnUse"
       id="polygon4061_1_-6"
       xlink:href="#path1830_1_"><stop
         id="stop3559-4"
         style="stop-color:#8dd1ec;stop-opacity:1"
         offset="0" /><stop
         id="stop3561-4"
         style="stop-color:#08acda;stop-opacity:1"
         offset="0.5394" /><stop
         id="stop3563-3"
         style="stop-color:#062cff;stop-opacity:1"
         offset="1" /></linearGradient><linearGradient
       id="linearGradient4765"
       gradientUnits="userSpaceOnUse"
       x1="17.431601"
       y1="13.0249"
       x2="28.9688"
       y2="13.0249"><stop
         offset="0"
         style="stop-color:#FFF3E0"
         id="stop4767" /><stop
         offset="0.5394"
         style="stop-color:#FAA820"
         id="stop4769" /><stop
         offset="1"
         style="stop-color:#A56629"
         id="stop4771" /></linearGradient></defs><g
     transform="matrix(1.0307296,0,0,0.78756463,-8.0969728,6.8730628)"
     id="g3288"><g
       id="g3290"><path
         id="path3292"
         d="m 19.264,32 c -0.1,0 -0.199,-0.025 -0.287,-0.076 L 10.345,27.059 C 10.16,26.955 10.047,26.76 10.047,26.547 l 0,-5.516 -1.282,0.41 C 8.705,21.461 8.646,21.47 8.586,21.47 8.413,21.47 8.244,21.392 8.131,21.253 7.979,21.065 7.957,20.804 8.076,20.593 l 2.047,-3.596 c 0.072,-0.127 0.187,-0.221 0.322,-0.266 l 7.854,-2.66 c 0.061,-0.02 0.124,-0.031 0.188,-0.031 0.058,0 0.116,0.01 0.172,0.027 l 9.895,3.039 c 0.113,0.033 0.215,0.104 0.288,0.197 l 3.032,3.84 c 0.115,0.145 0.154,0.336 0.107,0.514 -0.049,0.18 -0.179,0.326 -0.352,0.395 l -2.58,1.021 0.063,4.135 c 0.004,0.234 -0.131,0.447 -0.344,0.543 l -9.262,4.195 C 19.43,31.982 19.346,32 19.264,32 l 0,0 z" /><polygon
         style="fill:#8f6326"
         id="polygon3294"
         points="8.586,20.883 17.636,17.988 18.485,14.627 10.633,17.287 " /><polygon
         style="fill:#8f6326"
         id="polygon3296"
         points="18.485,14.627 28.381,17.666 28.524,27.217 18.485,23.889 " /><polygon
         style="fill:#5c3f17"
         id="polygon3298"
         points="10.633,17.287 18.485,14.627 18.485,23.889 10.633,26.547 " /><polygon
         style="fill:#f9a61e"
         id="polygon3300"
         points="19.264,19.982 28.381,17.666 28.524,27.217 19.264,31.412 " /><linearGradient
         gradientTransform="matrix(1,0,0,-1,-281.54,-371.8398)"
         y2="-395.24329"
         x2="305.6221"
         y1="-401.6792"
         x1="305.6221"
         gradientUnits="userSpaceOnUse"
         id="SVGID_10_"><stop
           id="stop3303"
           style="stop-color:#FFF3DF"
           offset="0" /><stop
           id="stop3305"
           style="stop-color:#F9A61E"
           offset="0.5394" /><stop
           id="stop3307"
           style="stop-color:#A36628"
           offset="1" /></linearGradient><polygon
         style="fill:url(#SVGID_10_)"
         id="polygon3309"
         points="27.767,26.736 20.562,30.129 20.397,20.359 27.645,18.627 " /><path
         id="path3311"
         d="m 19.264,32 c -0.099,0 -0.199,-0.025 -0.287,-0.076 L 10.345,27.059 C 10.16,26.955 10.047,26.76 10.047,26.547 l 0,-9.26 c 0,-0.188 0.089,-0.361 0.238,-0.473 0.103,-0.076 0.225,-0.113 0.348,-0.113 0.059,0 0.117,0.008 0.174,0.025 l 8.631,2.695 c 0.246,0.076 0.412,0.303 0.412,0.561 l 0,11.43 c 0,0.209 -0.109,0.402 -0.29,0.508 C 19.468,31.973 19.366,32 19.264,32 l 0,0 z" /><polygon
         style="fill:#f9a61e"
         id="polygon3313"
         points="10.633,17.287 19.264,19.982 19.264,31.412 10.633,26.547 " /><linearGradient
         gradientTransform="matrix(1,0,0,-1,-281.54,-371.8398)"
         y2="-393.2254"
         x2="300.51501"
         y1="-398.4126"
         x1="293.14059"
         gradientUnits="userSpaceOnUse"
         id="SVGID_11_"><stop
           id="stop3316"
           style="stop-color:#FFF3DF"
           offset="0" /><stop
           id="stop3318"
           style="stop-color:#F9A61E"
           offset="0.5394" /><stop
           id="stop3320"
           style="stop-color:#A36628"
           offset="1" /></linearGradient><polygon
         style="fill:url(#SVGID_11_)"
         id="polygon3322"
         points="18.514,20.533 18.514,30.129 11.383,26.109 11.383,18.307 " /><path
         id="path3324"
         d="m 22.802,25.5 c -0.194,0 -0.382,-0.096 -0.491,-0.266 l -3.047,-5.102 c -0.104,-0.158 -0.068,-0.244 0,-0.422 0.068,-0.176 -0.009,-0.242 0.174,-0.289 l 8.798,-2.324 c 0.048,-0.012 0.097,-0.018 0.145,-0.018 0.176,0 0.347,0.08 0.46,0.223 l 3.032,3.84 c 0.114,0.146 0.153,0.338 0.106,0.516 -0.048,0.18 -0.178,0.324 -0.352,0.393 l -8.609,3.408 C 22.947,25.486 22.875,25.5 22.802,25.5 l 0,0 z" /><polygon
         style="fill:#f9a61e"
         id="polygon3326"
         points="22.802,24.914 31.412,21.506 28.381,17.666 19.545,19.91 " /><linearGradient
         gradientTransform="matrix(1,0,0,-1,-281.54,-371.8398)"
         y2="-391.30649"
         x2="306.50189"
         y1="-394.68161"
         x1="307.81451"
         gradientUnits="userSpaceOnUse"
         id="SVGID_12_"><stop
           id="stop3329"
           style="stop-color:#FFF3DF"
           offset="0" /><stop
           id="stop3331"
           style="stop-color:#F9A61E"
           offset="0.5394" /><stop
           id="stop3333"
           style="stop-color:#A36628"
           offset="1" /></linearGradient><polygon
         style="fill:url(#SVGID_12_)"
         id="polygon3335"
         points="30.199,21.18 23.096,23.992 20.744,20.379 28.093,18.514 " /></g></g><g
     id="g3398"
     transform="matrix(0.77529314,0,0,0.78756463,-4.4411006,-2.2395364)"><circle
       id="circle3400"
       r="3.75"
       cy="21.837999"
       cx="21.871"
       style="fill:#ffffff" /><path
       d="m 23.745,32 c -0.556,0 -1.058,-0.331 -1.274,-0.843 l -0.4,-0.941 c -0.076,0.002 -0.253,0.004 -0.266,0.004 l -0.384,0.946 c -0.032,0.079 -0.081,0.152 -0.141,0.213 l -0.388,0.396 c -0.125,0.125 -0.291,0.196 -0.467,0.196 0,0 -0.553,0.007 -0.557,0.007 -0.086,0 -0.169,-0.017 -0.247,-0.049 l -3.145,-1.273 c -0.524,-0.214 -0.863,-0.717 -0.863,-1.283 0,-0.182 0.035,-0.359 0.103,-0.524 l 0.388,-0.958 c -0.059,-0.059 -0.122,-0.116 -0.178,-0.174 l -0.653,0.274 c -0.378,0.161 -0.378,0.161 -0.453,0.173 -0.037,0.009 -0.076,0.012 -0.117,0.012 l -0.549,0 c -0.173,0 -0.341,-0.067 -0.463,-0.188 L 13.3,27.604 C 13.237,27.541 13.188,27.469 13.153,27.389 L 11.831,24.264 C 11.799,24.185 11.78,24.098 11.778,24.01 l -0.003,-0.551 c 0,-0.175 0.067,-0.343 0.191,-0.469 l 0.385,-0.393 c 0.061,-0.061 0.134,-0.111 0.213,-0.145 l 0.933,-0.395 C 13.492,21.987 13.49,21.804 13.49,21.782 13.072,21.613 12.612,21.426 12.564,21.408 12.481,21.376 12.403,21.325 12.339,21.262 l -0.39,-0.385 c -0.125,-0.124 -0.197,-0.291 -0.2,-0.466 l -0.001,-0.553 c -0.002,-0.087 0.015,-0.174 0.049,-0.255 l 1.271,-3.144 c 0.032,-0.081 0.081,-0.153 0.141,-0.215 l 0.386,-0.394 c 0.124,-0.125 0.29,-0.197 0.466,-0.198 0,0 0.558,-0.005 0.56,-0.005 0.085,0 0.171,0.017 0.249,0.049 l 0.965,0.392 c 0.058,-0.062 0.115,-0.122 0.174,-0.18 0,0 -0.418,-0.994 -0.42,-0.995 -0.025,-0.072 -0.039,-0.146 -0.041,-0.223 l 0,-0.048 c -0.181,-0.256 -0.159,-0.613 0.069,-0.846 l 0.507,-0.516 c 0.063,-0.062 0.134,-0.11 0.213,-0.144 l 3.121,-1.323 c 0.176,-0.073 0.355,-0.109 0.538,-0.109 0.56,0 1.062,0.333 1.276,0.846 l 0.4,0.939 c 0.07,-0.001 0.249,-0.003 0.266,-0.003 l 0.383,-0.948 c 0.216,-0.526 0.719,-0.865 1.285,-0.865 0.178,0 0.35,0.034 0.514,0.1 l 3.145,1.275 c 0.526,0.215 0.865,0.719 0.865,1.283 0,0.175 -0.033,0.348 -0.1,0.516 l -0.394,0.969 c 0.06,0.059 0.12,0.116 0.178,0.176 l 0.958,-0.408 c 0.082,-0.034 0.166,-0.051 0.254,-0.052 0,0 0.557,-0.004 0.559,-0.004 0.172,0 0.338,0.068 0.463,0.19 l 0.395,0.384 c 0.063,0.062 0.111,0.135 0.146,0.215 l 1.322,3.125 c 0.037,0.081 0.053,0.168 0.055,0.256 l 0.002,0.55 c 0,0.174 -0.066,0.342 -0.189,0.467 l -0.387,0.395 c -0.061,0.062 -0.133,0.111 -0.211,0.146 l -0.934,0.396 c 0.006,0.068 0.006,0.252 0.006,0.273 l 0.93,0.379 c 0.08,0.031 0.152,0.078 0.215,0.139 l 0.395,0.385 c 0.127,0.124 0.197,0.291 0.201,0.469 L 32,23.85 c 0.002,0.088 -0.016,0.175 -0.049,0.254 L 30.68,27.25 c -0.219,0.525 -0.721,0.862 -1.285,0.862 -0.178,0 -0.348,-0.033 -0.514,-0.098 L 27.91,27.622 c -0.056,0.059 -0.118,0.118 -0.176,0.178 0.199,0.47 0.415,0.978 0.428,1.014 0.021,0.067 0.035,0.136 0.035,0.207 l 0,0.542 c 0.002,0.173 -0.068,0.341 -0.189,0.465 l -0.386,0.396 c -0.06,0.061 -0.134,0.112 -0.216,0.147 l -3.12,1.322 C 24.111,31.966 23.93,32 23.745,32 l 0,0 z m -4.038,-2.372 c 0.176,-0.434 0.496,-1.223 0.496,-1.223 0.102,-0.252 0.346,-0.415 0.614,-0.415 0.022,0 0.048,0.002 0.069,0.003 l 0.315,0.035 c 0.226,0.023 0.449,0.035 0.671,0.035 0.256,0 0.513,-0.016 0.76,-0.048 l 0.32,-0.039 c 0.027,-0.005 0.057,-0.005 0.08,-0.005 0.264,0 0.507,0.158 0.61,0.405 l 0.514,1.214 c 0.495,-0.21 1.185,-0.504 1.682,-0.712 l -0.514,-1.213 c -0.118,-0.271 -0.037,-0.588 0.193,-0.775 l 0.247,-0.199 c 0.373,-0.3 0.713,-0.643 1.008,-1.021 l 0.193,-0.25 c 0.127,-0.166 0.321,-0.258 0.525,-0.258 0.082,0 0.166,0.016 0.247,0.048 l 1.224,0.495 c 0.141,-0.346 0.684,-1.691 0.684,-1.691 l -1.221,-0.496 c -0.273,-0.11 -0.442,-0.389 -0.41,-0.683 l 0.033,-0.313 c 0.024,-0.227 0.038,-0.447 0.038,-0.668 0,-0.263 -0.019,-0.521 -0.05,-0.764 l -0.042,-0.314 c -0.04,-0.295 0.126,-0.58 0.398,-0.695 l 1.218,-0.516 -0.713,-1.682 c -0.533,0.228 -1.215,0.516 -1.215,0.516 -0.084,0.035 -0.17,0.053 -0.258,0.053 -0.197,0 -0.389,-0.088 -0.518,-0.25 l -0.197,-0.247 c -0.301,-0.37 -0.646,-0.71 -1.023,-1.003 l -0.25,-0.194 C 25.201,16.577 25.116,16.26 25.228,15.984 l 0.494,-1.221 -1.689,-0.685 c -0.219,0.538 -0.495,1.222 -0.495,1.222 -0.102,0.252 -0.346,0.414 -0.615,0.414 -0.021,0 -0.046,-0.001 -0.067,-0.002 l -0.318,-0.034 c -0.227,-0.025 -0.449,-0.037 -0.672,-0.037 -0.253,0 -0.511,0.015 -0.764,0.046 l -0.309,0.041 c -0.028,0.003 -0.057,0.007 -0.086,0.007 -0.263,0 -0.506,-0.158 -0.609,-0.405 l -0.515,-1.215 c -0.495,0.211 -1.185,0.503 -1.682,0.711 l 0.515,1.215 c 0.117,0.275 0.036,0.592 -0.194,0.776 l -0.249,0.197 c -0.371,0.3 -0.709,0.643 -1.004,1.021 l -0.193,0.246 c -0.129,0.166 -0.324,0.258 -0.524,0.258 -0.086,0 -0.169,-0.016 -0.249,-0.047 0,0 -0.682,-0.277 -1.224,-0.496 0,0 -0.524,1.296 -0.683,1.691 0.536,0.217 1.221,0.494 1.221,0.494 0.276,0.111 0.442,0.391 0.41,0.687 l -0.034,0.315 c -0.024,0.221 -0.036,0.442 -0.036,0.666 0,0.252 0.015,0.511 0.047,0.77 l 0.039,0.316 c 0.036,0.293 -0.127,0.576 -0.4,0.69 0,0 -0.674,0.286 -1.213,0.512 0.21,0.497 0.503,1.187 0.712,1.681 0.532,-0.227 1.212,-0.516 1.212,-0.516 0.085,-0.035 0.173,-0.053 0.259,-0.053 0.197,0 0.39,0.088 0.519,0.248 l 0.198,0.248 c 0.301,0.375 0.643,0.712 1.018,1.004 l 0.253,0.192 c 0.235,0.182 0.32,0.499 0.208,0.774 l -0.493,1.227 1.691,0.686 z"
       id="path4251_4_"
       style="fill:#030303" /><path
       d="m 28.126,20.154 c 0.099,0.638 0.11,1.297 0.017,1.954 l 0.713,0.289 c 0.043,-0.558 0.025,-1.114 -0.059,-1.655 l 1.838,-0.779 -1.322,-3.123 -0.457,0.193 1.008,2.386 -1.738,0.735 z"
       id="path1817_8_"
       style="fill:#ffffff" /><path
       d="m 26.941,25.072 c -0.389,0.538 -0.854,1.008 -1.371,1.395 l 0.736,1.737 -2.943,1.249 -0.735,-1.737 c -0.641,0.101 -1.298,0.106 -1.956,0.017 l -0.709,1.75 -2.589,-1.05 -0.374,0.925 3.141,1.273 0.753,-1.856 c 0.695,0.1 1.394,0.092 2.071,-0.018 l 0.779,1.84 3.12,-1.32 -0.78,-1.842 c 0.55,-0.41 1.041,-0.908 1.455,-1.477 l 1.855,0.748 1.273,-3.142 -0.926,-0.376 -1.047,2.59 -1.753,-0.706 z"
       id="path1819_8_"
       style="fill:#ffffff" /><path
       d="m 16.313,25.159 -1.739,0.735 -1.007,-2.383 -0.458,0.197 1.321,3.12 1.839,-0.778 c 0.331,0.439 0.717,0.838 1.147,1.193 l 0.291,-0.712 c -0.536,-0.392 -1.006,-0.857 -1.394,-1.372 z"
       id="path1821_8_"
       style="fill:#ffffff" /><linearGradient
       gradientTransform="matrix(5.1929,22.7877,-22.7877,5.1929,-1989.2791,10645.424)"
       y2="-184.8896"
       x2="-424.49719"
       y1="-184.8896"
       x1="-423.65579"
       gradientUnits="userSpaceOnUse"
       id="linearGradient3440"><stop
         id="stop3442"
         style="stop-color:#B1D2DB"
         offset="0" /><stop
         id="stop3444"
         style="stop-color:#C3DCE3"
         offset="1" /></linearGradient><path
       d="m 14.933,20.856 c -0.07,0.479 -0.083,0.962 -0.053,1.438 0.014,0.212 0.034,0.426 0.068,0.634 l -1.38,0.586 1.005,2.381 1.739,-0.734 c 0.388,0.516 0.856,0.98 1.394,1.371 l -0.289,0.713 c 0.109,0.09 0.217,0.178 0.329,0.26 l -0.374,0.927 2.588,1.05 0.709,-1.75 c 0.658,0.09 1.315,0.086 1.957,-0.018 l 0.734,1.737 2.945,-1.248 -0.737,-1.737 c 0.517,-0.387 0.981,-0.857 1.372,-1.396 l 1.75,0.707 1.047,-2.588 -0.926,-0.376 c 0.02,-0.141 0.031,-0.277 0.043,-0.416 l -0.711,-0.289 c 0.092,-0.659 0.083,-1.315 -0.018,-1.955 l 1.738,-0.735 -1.01,-2.384 -1.383,0.587 c -0.127,-0.171 -0.266,-0.332 -0.408,-0.489 -0.32,-0.353 -0.676,-0.679 -1.066,-0.963 l 0.748,-1.855 -3.141,-1.271 -0.754,1.855 c -0.698,-0.101 -1.395,-0.091 -2.073,0.014 l -0.78,-1.84 -0.088,0.039 -2.943,1.247 -0.09,0.038 0.782,1.841 c -0.55,0.414 -1.04,0.909 -1.453,1.479 l -1.854,-0.752 -1.048,2.59 -0.226,0.553 1.857,0.749 z m 5.898,3.548 c -1.029,-0.416 -1.67,-1.384 -1.724,-2.424 -0.021,-0.393 0.039,-0.797 0.196,-1.187 0.573,-1.415 2.188,-2.103 3.607,-1.526 0.388,0.154 0.72,0.396 0.985,0.682 0.711,0.764 0.959,1.897 0.542,2.925 -0.57,1.421 -2.185,2.103 -3.606,1.53 z"
       id="path1830_8_"
       style="fill:url(#path1830_1_)" /><path
       d="m 24.735,22.987 c 0.634,-1.569 -0.128,-3.363 -1.697,-3.999 -1.569,-0.636 -3.362,0.124 -3.997,1.695 -0.637,1.568 0.123,3.363 1.693,3.998 1.57,0.635 3.366,-0.125 4.001,-1.694 z m -0.557,-0.225 c -0.512,1.266 -1.955,1.873 -3.217,1.361 -1.263,-0.508 -1.875,-1.953 -1.364,-3.216 0.513,-1.264 1.954,-1.875 3.218,-1.364 1.263,0.514 1.873,1.956 1.363,3.219 z"
       id="path4266_4_"
       style="fill:#030303" /><path
       d="m 24.719,22.987 c 0.633,-1.569 -0.126,-3.361 -1.695,-3.997 -1.57,-0.636 -3.362,0.123 -3.998,1.693 -0.636,1.568 0.124,3.363 1.693,3.998 1.572,0.635 3.365,-0.124 4,-1.694 z m -0.557,-0.224 c -0.51,1.265 -1.955,1.872 -3.218,1.363 -1.263,-0.511 -1.873,-1.956 -1.361,-3.219 0.511,-1.263 1.953,-1.874 3.216,-1.362 1.262,0.512 1.873,1.957 1.363,3.218 z"
       id="path1834_11_"
       style="fill:#047fa1" /><path
       d="m 24.04,31.281 3.123,-1.324 0.386,-0.396 -0.003,-0.543 c 0,-0.003 -0.394,-0.927 -0.59,-1.392 0.281,-0.247 0.541,-0.511 0.784,-0.799 0.37,0.149 1.396,0.565 1.396,0.565 0.367,0.146 0.785,-0.033 0.938,-0.397 l 1.271,-3.145 -0.006,-0.553 -0.396,-0.388 c 0,0 -0.904,-0.367 -1.371,-0.555 0.01,-0.17 0.027,-0.336 0.027,-0.504 0,-0.212 -0.021,-0.42 -0.041,-0.631 0.377,-0.16 1.369,-0.581 1.369,-0.581 L 31.312,20.244 31.31,19.697 29.986,16.57 29.597,16.185 29.042,16.19 c 0,0 -1.022,0.432 -1.387,0.588 -0.25,-0.284 -0.512,-0.546 -0.797,-0.788 0.149,-0.366 0.563,-1.395 0.563,-1.395 0.037,-0.09 0.055,-0.181 0.055,-0.27 0,-0.285 -0.172,-0.558 -0.449,-0.669 l -3.143,-1.274 c -0.369,-0.148 -0.789,0.03 -0.939,0.398 0,0 -0.367,0.907 -0.559,1.378 -0.376,-0.025 -0.754,-0.02 -1.134,0.01 -0.159,-0.379 -0.579,-1.366 -0.579,-1.366 -0.154,-0.366 -0.577,-0.539 -0.945,-0.386 l -3.119,1.323 -0.387,0.392 -0.121,0.124 0.119,-0.12 0.003,0.546 c 0.002,0.003 0.395,0.931 0.588,1.389 -0.276,0.246 -0.542,0.513 -0.783,0.798 -0.37,-0.147 -1.395,-0.565 -1.395,-0.565 l -0.555,0.005 -0.385,0.395 -1.273,3.143 0.005,0.553 0.392,0.385 c 0.002,0 0.909,0.367 1.378,0.559 -0.012,0.167 -0.027,0.336 -0.027,0.504 0,0.211 0.021,0.421 0.039,0.631 -0.379,0.163 -1.368,0.582 -1.368,0.582 l -0.388,0.391 0.005,0.55 1.32,3.122 0.394,0.386 0.549,0 c 0.005,-0.002 0.927,-0.397 1.392,-0.592 0.246,0.283 0.514,0.544 0.797,0.784 -0.147,0.368 -0.566,1.396 -0.566,1.396 -0.035,0.089 -0.051,0.18 -0.051,0.269 0,0.286 0.169,0.56 0.448,0.671 l 3.145,1.273 0.549,-0.007 0.391,-0.394 c 0,0 0.402,-0.99 0.558,-1.375 0.382,0.024 0.76,0.019 1.134,-0.012 0.162,0.38 0.582,1.37 0.582,1.37 0.154,0.371 0.578,0.544 0.942,0.389 z m -3.326,-2.335 c 0,0 -0.548,1.35 -0.626,1.539 -0.199,-0.079 -2.721,-1.102 -2.917,-1.178 0.113,-0.283 0.744,-1.839 0.744,-1.839 l -0.253,-0.195 c -0.416,-0.32 -0.796,-0.697 -1.13,-1.112 l -0.198,-0.249 c 0,0 -1.633,0.695 -1.824,0.776 -0.083,-0.195 -1.145,-2.703 -1.229,-2.901 0.281,-0.119 1.824,-0.772 1.824,-0.772 L 15.066,22.7 c -0.036,-0.281 -0.055,-0.566 -0.055,-0.85 0,-0.247 0.017,-0.493 0.042,-0.737 l 0.034,-0.317 c 0,0 -1.645,-0.664 -1.836,-0.744 0.083,-0.201 1.102,-2.72 1.183,-2.919 0.283,0.115 1.834,0.744 1.834,0.744 l 0.195,-0.251 c 0.327,-0.42 0.702,-0.8 1.112,-1.129 l 0.247,-0.199 c 0,0 -0.691,-1.636 -0.772,-1.826 0.186,-0.078 2.702,-1.144 2.9,-1.228 0.12,0.282 0.773,1.825 0.773,1.825 l 0.316,-0.041 c 0.527,-0.063 1.063,-0.068 1.584,-0.01 l 0.316,0.032 c 0,0 0.666,-1.643 0.742,-1.837 0.202,0.081 2.723,1.101 2.922,1.183 -0.115,0.281 -0.744,1.838 -0.744,1.838 l 0.25,0.194 c 0.416,0.324 0.795,0.697 1.131,1.113 l 0.199,0.247 c 0,0 1.633,-0.691 1.826,-0.774 0.086,0.203 1.145,2.705 1.229,2.902 -0.271,0.113 -1.826,0.774 -1.826,0.774 l 0.041,0.313 c 0.037,0.281 0.057,0.566 0.057,0.851 0,0.245 -0.016,0.489 -0.041,0.735 l -0.033,0.314 c 0,0 1.641,0.665 1.832,0.743 -0.08,0.202 -1.1,2.721 -1.18,2.919 -0.193,-0.076 -1.836,-0.742 -1.836,-0.742 l -0.194,0.25 c -0.327,0.421 -0.702,0.803 -1.112,1.133 l -0.249,0.199 c 0,0 0.69,1.632 0.772,1.825 -0.196,0.083 -2.698,1.145 -2.9,1.229 -0.118,-0.281 -0.771,-1.827 -0.771,-1.827 l -0.318,0.038 c -0.521,0.066 -1.053,0.071 -1.585,0.016 l -0.317,-0.036 -0.12,0.296 0,0 z"
       id="path1838_8_"
       style="fill:#08acda" /></g><g
     id="g4198"><path
       style="fill:#020202"
       d="m 10.47569,32.035296 c -0.208287,0 -0.417706,-0.05122 -0.6056171,-0.154653 C 9.3855796,31.608492 9.2089885,31.060174 9.4580272,30.601233 L 16.600908,17.350209 c 0,0 -2.637545,0.03716 -2.643205,0.03716 -0.366766,0 -0.712025,-0.155658 -0.922575,-0.423792 -0.215079,-0.272151 -0.267151,-0.617611 -0.136972,-0.928928 L 19.327881,0.62650164 c 0.164139,-0.39366439 0.586373,-0.65476833 1.059546,-0.65476833 l 10.502639,-0.0070297 c 0.433553,0 0.825223,0.21792136 1.014266,0.56036922 0.190175,0.34244785 0.147159,0.75218019 -0.117727,1.05646669 l -7.110053,8.2227654 c 0,0 4.537031,-0.035149 4.539295,-0.035149 0.438082,0 0.833147,0.2219384 1.021058,0.5694077 0.190175,0.35249 0.132444,0.770256 -0.146027,1.069522 L 11.356381,31.670755 c -0.225267,0.237002 -0.551281,0.364541 -0.880691,0.364541 l 0,0 z"
       id="path4046_2_" /><path
       style="fill:#08acda;fill-opacity:1"
       d="m 13.955439,16.379103 4.456659,-0.06327 -7.933012,14.715216 18.735629,-20.260662 -6.85309,0.05523 8.525045,-9.85466501 -10.503771,0.006025 -6.42746,15.40211954 z"
       id="path5141_3_" /><polygon
       style="fill:url(#polygon4061_1_-6);fill-opacity:1.0"
       points="17.432,23.982 21.573,15.321 17.484,15.387 22.414,2.071 28.969,2.067 21.424,11.898 27.389,11.845 "
       id="polygon4061_2_"
       transform="matrix(1.1319938,0,0,1.0042459,-4.201742,-0.10057239)" /></g></svg>