<?xml version="1.0" encoding="UTF-8" standalone="no"?>
<!-- Generator: Adobe Illustrator 14.0.0, SVG Export Plug-In . SVG Version: 6.00 Build 43363)  -->

<svg
   xmlns:dc="http://purl.org/dc/elements/1.1/"
   xmlns:cc="http://creativecommons.org/ns#"
   xmlns:rdf="http://www.w3.org/1999/02/22-rdf-syntax-ns#"
   xmlns:svg="http://www.w3.org/2000/svg"
   xmlns="http://www.w3.org/2000/svg"
   xmlns:xlink="http://www.w3.org/1999/xlink"
   xmlns:sodipodi="http://sodipodi.sourceforge.net/DTD/sodipodi-0.dtd"
   xmlns:inkscape="http://www.inkscape.org/namespaces/inkscape"
   sodipodi:docname="c.svg"
   inkscape:version="0.48.4 r9939"
   xml:space="preserve"
   enable-background="new 0 0 32 32"
   viewBox="0 0 32 32"
   height="32px"
   width="32px"
   y="0px"
   x="0px"
   id="Layer_1"
   version="1.1"><metadata
   id="metadata3017"><rdf:RDF><cc:Work
       rdf:about=""><dc:format>image/svg+xml</dc:format><dc:type
         rdf:resource="http://purl.org/dc/dcmitype/StillImage" /></cc:Work></rdf:RDF></metadata><defs
   id="defs3015"><linearGradient
   inkscape:collect="always"
   xlink:href="#path4903-3_1_"
   id="linearGradient3163"
   gradientUnits="userSpaceOnUse"
   gradientTransform="matrix(0,-1,1,0,-1324.8594,-1143.4277)"
   x1="-1169.5508"
   y1="1340.8711"
   x2="-1149.3013"
   y2="1340.8711" /><linearGradient
   inkscape:collect="always"
   xlink:href="#path4903-3_1_"
   id="linearGradient3172"
   gradientUnits="userSpaceOnUse"
   gradientTransform="matrix(0,-1,1,0,-1324.8594,-1143.4277)"
   x1="-1169.5508"
   y1="1340.8711"
   x2="-1149.3013"
   y2="1340.8711" />
	
	
	
		<linearGradient
   gradientTransform="matrix(0,-1,1,0,-1324.8594,-1143.4277)"
   y2="1340.8711"
   x2="-1149.3013"
   y1="1340.8711"
   x1="-1169.5508"
   gradientUnits="userSpaceOnUse"
   id="path4903-3_1_">
		<stop
   id="stop3008"
   style="stop-color:#B2D78E"
   offset="0" />
		<stop
   id="stop3010"
   style="stop-color:#219146"
   offset="1" />
	</linearGradient>
	
<linearGradient
   inkscape:collect="always"
   xlink:href="#path4903-3_1_"
   id="linearGradient3178"
   gradientUnits="userSpaceOnUse"
   gradientTransform="matrix(0,-1,1,0,-1324.8594,-1143.4277)"
   x1="-1169.5508"
   y1="1340.8711"
   x2="-1149.3013"
   y2="1340.8711" /><linearGradient
   inkscape:collect="always"
   xlink:href="#path4903-3_1_"
   id="linearGradient3187"
   gradientUnits="userSpaceOnUse"
   gradientTransform="matrix(0,-1,1,0,-1324.8594,-1143.4277)"
   x1="-1169.5508"
   y1="1340.8711"
   x2="-1149.3013"
   y2="1340.8711" /></defs><sodipodi:namedview
   pagecolor="#ffffff"
   bordercolor="#666666"
   borderopacity="1"
   objecttolerance="10"
   gridtolerance="10"
   guidetolerance="10"
   inkscape:pageopacity="0"
   inkscape:pageshadow="2"
   inkscape:window-width="2471"
   inkscape:window-height="1567"
   id="namedview3013"
   showgrid="false"
   inkscape:zoom="29.5"
   inkscape:cx="16"
   inkscape:cy="16"
   inkscape:window-x="-11"
   inkscape:window-y="-11"
   inkscape:window-maximized="1"
   inkscape:current-layer="Layer_1" />
<path
   d="m 12.248,3.626 c -0.033,0.009 -0.063,0.019 -0.094,0.03 0.004,0 -0.098,0.033 -0.094,0.031 0.002,0 -0.129,0.033 -0.125,0.031 0.002,0 -0.099,0.064 -0.095,0.063 0.003,0 -0.098,0.064 -0.094,0.062 0.002,0 -0.098,0.065 -0.094,0.062 0.002,0 -0.098,0.065 -0.094,0.063 0.002,0 -0.099,0.098 -0.095,0.094 0.002,0 -0.065,0.098 -0.063,0.094 0.002,0 -0.064,0.098 -0.063,0.095 0.002,0 -0.063,0.097 -0.063,0.094 0,0 -0.064,0.129 -0.063,0.125 0,0 -0.032,0.097 -0.03,0.095 0,0 -0.033,0.128 -0.031,0.125 0,0 -0.033,0.128 -0.031,0.125 0,0 0,0.097 0,0.094 0,0 0,0.061 0,0.094 0,0.011 0,0.031 0,0.031 v 6.094 h -6.09 c 0.001,0 -0.013,0 -0.031,0 -0.019,-10e-4 -0.032,0 -0.031,0 0.003,0 -0.064,0 -0.063,0 -0.011,0 -0.021,0 -0.031,0 0.002,0 -0.063,0 -0.063,0 0,0 -0.064,0.032 -0.063,0.032 0.002,-10e-4 -0.063,0 -0.063,0 0.002,-10e-4 -0.064,0.031 -0.063,0.03 10e-4,-10e-4 -0.063,0.001 -0.063,0 0,-10e-4 -0.063,0.03 -0.061,0.029 0.002,-10e-4 -0.063,0.032 -0.063,0.03 0.002,0 -0.064,0.033 -0.063,0.031 0.002,0 -0.063,0.032 -0.063,0.031 0.002,0 -0.033,0.032 -0.031,0.031 0.002,0 -0.064,0.031 -0.063,0.031 10e-4,0 -0.063,0.033 -0.063,0.031 0.002,0 -0.033,0.032 -0.031,0.03 0.002,0 -0.063,0.063 -0.063,0.062 0.002,0 -0.033,0.033 -0.031,0.031 0.002,0 -0.064,0.033 -0.063,0.031 0.002,0 -0.032,0.064 -0.03,0.063 0.002,0 -0.033,0.063 -0.031,0.063 10e-4,0 -0.032,0.033 -0.031,0.031 10e-4,0 -0.063,0.064 -0.063,0.063 0.001,0 -0.032,0.063 -0.031,0.062 10e-4,0 -0.032,0.063 -0.031,0.062 10e-4,0 -10e-4,0.033 0,0.031 10e-4,0 -0.031,0.064 -0.031,0.063 0,0 -0.03,0.064 -0.03,0.063 0,0 0,0.064 0,0.063 0,0 -0.031,0.064 -0.031,0.063 0,0 0,0.064 0,0.063 l -0.031,0.063 v 0.063 c 0,0 0,0.064 0,0.063 0,0 0,0.064 0,0.063 v 7 c 0,0 0,0.064 0,0.063 0,0 0,0.064 0,0.063 v 0.064 l 0.031,0.063 c 0,0 0,0.064 0,0.063 0,0 0.031,0.096 0.031,0.094 l 0.03,0.064 c 0,0 0.001,0.063 0,0.063 -10e-4,0 0.032,0.063 0.031,0.061 -10e-4,0 0.032,0.064 0.031,0.063 -0.001,0 0.032,0.064 0.031,0.064 -10e-4,0 0.031,0.031 0.03,0.029 -10e-4,0 0.064,0.064 0.063,0.064 -10e-4,0 0.033,0.063 0.031,0.063 -0.002,0 0.032,0.063 0.03,0.063 -0.002,0 0.064,0.033 0.063,0.031 -0.002,0 0.033,0.064 0.031,0.063 -0.002,0 0.063,0.031 0.063,0.029 -0.002,0 0.064,0.033 0.063,0.031 -0.002,0 0.063,0.064 0.063,0.063 -0.002,0 0.033,0.031 0.031,0.031 -0.002,0 0.063,0.031 0.063,0.031 -0.002,-0.002 0.064,0.031 0.063,0.031 -0.002,-0.002 0.064,0.031 0.063,0.031 -0.002,-0.002 0.064,0 0.064,0 -0.003,-0.002 0.063,0.031 0.063,0.029 -0.003,0 0.096,0.033 0.094,0.031 -0.002,0 0.063,0 0.063,0 -0.003,0 0.064,0.031 0.063,0.029 -0.003,0 0.063,0 0.063,0 -0.003,0 0.064,0 0.063,0 -0.003,0 0.063,0 0.063,0 h 6.125 v 6.096 0.029 c -0.002,0.02 0,0.031 0,0.031 v 0.064 c 0,0.01 0,0.02 0,0.029 v 0.064 c -0.002,0 0.031,0.063 0.031,0.063 -0.002,0 0,0.064 0,0.063 -0.002,0 0.031,0.064 0.031,0.063 -0.002,0 0,0.064 0,0.064 -0.002,0 0.031,0.063 0.031,0.063 -0.002,0 0.03,0.063 0.03,0.063 -0.002,0 0.031,0.064 0.031,0.063 -0.002,0 0.031,0.064 0.031,0.064 -0.002,0 0.031,0.033 0.031,0.031 -0.003,0 0.03,0.063 0.03,0.061 -0.002,0 0.031,0.064 0.031,0.063 -0.002,0 0.031,0.033 0.031,0.031 -0.002,0 0.063,0.064 0.063,0.063 -0.002,0 0.031,0.033 0.031,0.031 -0.002,0 0.031,0.064 0.031,0.063 -0.002,0 0.063,0.033 0.063,0.031 -0.002,0 0.063,0.031 0.063,0.031 -0.002,0 0.031,0.031 0.031,0.031 -0.003,0 0.063,0.063 0.063,0.063 0,0 0.064,0.031 0.063,0.031 -0.002,-0.002 0.063,0.031 0.063,0.031 -0.002,-0.002 0.033,0 0.031,0 -0.002,-0.002 0.063,0.031 0.063,0.029 -0.002,0 0.064,0.033 0.063,0.031 -0.002,0 0.063,0.002 0.063,0 -0.002,0 0.064,0.033 0.063,0.031 -0.002,0 0.063,0 0.063,0 0,0 0.064,0.031 0.063,0.029 -0.002,0 0.063,0 0.063,0 0,0 0.064,0 0.063,0 -10e-4,0 0.063,0 0.063,0 h 7.001 c -0.004,0 0.064,0 0.063,0 -0.004,0 0.064,0 0.063,0 -0.004,0 0.064,0 0.064,0 -0.004,0 0.063,-0.029 0.063,-0.029 -0.004,0 0.064,0 0.063,0 0,0 0.096,-0.031 0.094,-0.031 -0.002,0.002 0.064,-0.031 0.064,-0.031 -0.002,0.002 0.063,0 0.063,0 -0.002,0.002 0.064,-0.031 0.063,-0.029 -0.002,0 0.064,-0.033 0.063,-0.031 -0.002,0 0.064,-0.033 0.064,-0.031 -0.002,0 0.033,-0.033 0.031,-0.031 -0.004,0 0.063,-0.063 0.063,-0.063 -0.002,0 0.063,-0.033 0.063,-0.031 -0.002,0 0.063,-0.033 0.063,-0.031 -0.002,0 0.031,-0.063 0.031,-0.061 -0.002,0 0.063,-0.033 0.063,-0.031 -0.002,0 0.031,-0.064 0.031,-0.063 -0.002,0 0.031,-0.064 0.031,-0.063 -0.002,0 0.063,-0.064 0.063,-0.064 -0.002,0 0.031,-0.031 0.031,-0.029 -0.002,0 0.031,-0.064 0.031,-0.064 -0.002,0 0.031,-0.063 0.031,-0.063 -0.002,0 0.031,-0.064 0.031,-0.063 -0.002,0 0,-0.064 0,-0.061 -0.002,0 0.031,-0.066 0.031,-0.064 -0.002,0 0.031,-0.096 0.031,-0.094 -0.002,0 0,-0.064 0,-0.063 -0.002,0 0.031,-0.066 0.031,-0.063 -0.004,0 0,-0.064 0,-0.064 0,0 0,-0.064 0,-0.063 V 27 20.875 h 6.111 c -0.004,0 0.064,0 0.063,0 -0.004,0 0.064,-0.002 0.063,0 -0.004,0 0.064,-0.002 0.064,0 -0.004,0 0.063,-0.033 0.063,-0.031 -0.004,0 0.064,-0.002 0.063,0 -0.002,0 0.096,-0.033 0.094,-0.031 -0.002,0 0.064,-0.033 0.064,-0.031 -0.002,0 0.063,-0.002 0.063,0 -0.002,0 0.064,-0.031 0.063,-0.031 l 0.063,-0.029 c -0.002,0.002 0.064,-0.031 0.064,-0.031 -0.002,0 0.031,-0.033 0.029,-0.031 -0.002,0 0.064,-0.063 0.064,-0.061 -0.002,0 0.063,-0.033 0.063,-0.031 -0.002,0 0.063,-0.033 0.063,-0.031 -0.002,0 0.031,-0.064 0.031,-0.063 -0.002,0 0.063,-0.033 0.063,-0.031 -0.002,0 0.031,-0.064 0.031,-0.064 -0.002,0 0.031,-0.063 0.031,-0.063 -0.002,0 0.063,-0.063 0.063,-0.063 -0.002,0 0.031,-0.033 0.031,-0.031 -0.002,0 0.031,-0.064 0.031,-0.063 -0.002,0 0.031,-0.063 0.031,-0.061 -0.002,0 0.031,-0.064 0.031,-0.064 -0.002,0 0,-0.063 0,-0.063 -0.002,0 0.031,-0.064 0.031,-0.063 -0.002,0 0.031,-0.096 0.031,-0.094 -0.002,0 0,-0.064 0,-0.064 -0.002,0 0.029,-0.063 0.029,-0.063 -0.002,0 0,-0.064 0,-0.064 0,0 0,-0.063 0,-0.061 v -0.064 -7 c 0,0 0,-0.064 0,-0.062 0,0 0,-0.065 0,-0.063 0,0 -0.002,-0.064 0,-0.062 0,0 -0.031,-0.065 -0.029,-0.063 0,0 -0.002,-0.064 0,-0.062 0,0 -0.033,-0.097 -0.031,-0.095 0,0 -0.033,-0.064 -0.031,-0.062 0,0 -0.002,-0.063 0,-0.062 0,0 -0.033,-0.064 -0.031,-0.063 0,0 -0.033,-0.064 -0.031,-0.063 0,0 -0.033,-0.063 -0.031,-0.062 0,0 -0.033,-0.032 -0.031,-0.03 L 28.1,11.686 c 0,0 -0.033,-0.064 -0.031,-0.063 0,0 -0.033,-0.064 -0.031,-0.063 0,0 -0.063,-0.033 -0.063,-0.031 0,0 -0.033,-0.064 -0.031,-0.063 0,0 -0.064,-0.032 -0.063,-0.03 0,0 -0.064,-0.033 -0.063,-0.031 0.002,0 -0.064,-0.063 -0.064,-0.062 0.002,0 -0.031,-0.032 -0.029,-0.031 0.002,0 -0.064,-0.032 -0.064,-0.031 0.002,10e-4 -0.063,-0.031 -0.063,-0.031 0.002,0 -0.064,-0.031 -0.063,-0.031 0.002,0.002 -0.064,0 -0.063,0 0.002,0.002 -0.064,-0.031 -0.064,-0.03 0.002,10e-4 -0.096,-0.032 -0.094,-0.031 0.002,0.001 -0.064,0 -0.063,0 0.002,0.001 -0.064,-0.032 -0.063,-0.03 0.002,0 -0.064,-10e-4 -0.064,0 0.002,0 -0.064,0 -0.063,0 0.001,0 -0.066,0 -0.063,0 H 20.873 V 5.002 c 0,0 0,-0.065 0,-0.063 0,0 0,-0.064 0,-0.063 0,0 -0.002,-0.065 0,-0.063 0,0 -0.033,-0.064 -0.031,-0.063 0,0 -0.002,-0.065 0,-0.063 0,0 -0.033,-0.096 -0.031,-0.094 0,0 -0.033,-0.065 -0.031,-0.063 0,0 -0.002,-0.064 0,-0.063 0,0 -0.033,-0.063 -0.031,-0.062 0,0 -0.033,-0.063 -0.029,-0.062 0,0 -0.033,-0.064 -0.031,-0.063 0,0 -0.033,-0.033 -0.031,-0.031 0,0 -0.064,-0.063 -0.063,-0.062 0,0 -0.033,-0.063 -0.031,-0.063 0,0 -0.033,-0.063 -0.031,-0.062 0,0 -0.064,-0.033 -0.063,-0.031 0,0 -0.033,-0.063 -0.031,-0.062 0,0 -0.064,-0.033 -0.064,-0.031 0,0 -0.063,-0.033 -0.063,-0.031 0.002,0 -0.064,-0.064 -0.063,-0.063 0.002,0 -0.033,-0.031 -0.031,-0.03 0.002,0 -0.064,-0.032 -0.063,-0.031 0,10e-4 -0.064,-0.032 -0.064,-0.03 0.004,0 -0.063,-0.033 -0.063,-0.031 0.002,0 -0.064,-10e-4 -0.063,0 0.002,0 -0.064,-0.032 -0.063,-0.031 0.002,0 -0.096,-0.032 -0.094,-0.031 0.002,0 -0.064,0 -0.064,0 0.002,0 -0.061,-0.027 -0.059,-0.027 0.002,0 -0.066,0 -0.063,0 0.002,0 -0.066,0 -0.063,0 0.002,0 -0.066,0 -0.064,0 H 12.56 c 0.002,0 -0.066,0 -0.063,0 0.002,0 -0.065,0 -0.063,0 0,0 -0.015,0 -0.031,0 0,0 -0.021,0 -0.031,0 0.002,0 -0.065,0 -0.063,0 -0.021,0 -0.043,0 -0.063,0 V 3.626 h 0.002 z"
   id="path4992_2_"
   inkscape:connector-curvature="0"
   style="fill:#020202" /><path
   d="m 12.511,4.999 v 7.5 H 5.012 v 7 h 7.499 v 7.5 h 7 v -7.5 h 7.5 v -7 h -7.5 v -7.5 h -7 z"
   id="rect4855-4_2_"
   inkscape:connector-curvature="0"
   style="fill:#de8787" /><path
   d="m 13.386,5.874 v 7.5 H 5.887 v 5.25 h 7.499 v 7.5 h 5.25 v -7.5 h 7.5 v -5.25 h -7.5 v -7.5 h -5.25 z"
   id="path4903-3_2_"
   style="fill:#ff5555"
   inkscape:connector-curvature="0" />
</svg>