<?xml version="1.0" encoding="utf-8"?>
<!-- Generator: Adobe Illustrator 14.0.0, SVG Export Plug-In . SVG Version: 6.00 Build 43363)  -->
<!DOCTYPE svg PUBLIC "-//W3C//DTD SVG 1.1//EN" "http://www.w3.org/Graphics/SVG/1.1/DTD/svg11.dtd">
<svg version="1.1"
	 id="svg2160" inkscape:output_extension="org.inkscape.output.svg.inkscape" sodipodi:docname="module.svg" inkscape:version="0.45.1" sodipodi:version="0.32" sodipodi:docbase="C:\Radix\dev\trunk\org.radixware\kernel\designer\src\common.resources\src\org\radixware\kernel\designer\resources\icons\ads" xmlns:dc="http://purl.org/dc/elements/1.1/" xmlns:ns="http://creativecommons.org/ns#" xmlns:sodipodi="http://sodipodi.sourceforge.net/DTD/sodipodi-0.dtd" xmlns:cc="http://web.resource.org/cc/" xmlns:inkscape="http://www.inkscape.org/namespaces/inkscape" xmlns:rdf="http://www.w3.org/1999/02/22-rdf-syntax-ns#" xmlns:svg="http://www.w3.org/2000/svg"
	 xmlns="http://www.w3.org/2000/svg" xmlns:xlink="http://www.w3.org/1999/xlink" x="0px" y="0px" width="32px" height="32px"
	 viewBox="0 0 32 32" enable-background="new 0 0 32 32" xml:space="preserve">
<sodipodi:namedview  id="base" pagecolor="#ffffff" bordercolor="#666666" borderopacity="1.0" showgrid="true" inkscape:zoom="7" inkscape:cx="-22.285714" inkscape:cy="24" inkscape:window-x="-8" inkscape:window-y="-8" inkscape:current-layer="layer1" inkscape:pageopacity="0.0" inkscape:pageshadow="2" inkscape:window-width="1280" inkscape:window-height="944" inkscape:document-units="px" inkscape:grid-bbox="true">
	</sodipodi:namedview>
<g>
	<g id="g2905">
		<path id="path16_7_" d="M4.637,10.284C7.1,7.821,7.713,7.677,8.257,7.745c2.012,0.252,2.164,1.563,2.265,2.429
			c0.077,0.643,0.146,1.254,0.776,1.932c0.358,0.385,0.854,0.605,1.401,0.612c0.609,0.012,1.2-0.232,1.634-0.666
			c0.837-0.837,0.84-2.192,0.006-3.085c-0.282-0.302-0.887-0.488-1.467-0.664c-1.113-0.339-2.792-0.848-2.68-2.793
			c0.026-0.411,0.134-0.739,2.168-2.773c0.855-0.855,1.833-1.79,2.559-2.477C15.102,0.088,15.35-0.007,15.6,0
			c0.256,0.01,0.496,0.117,0.67,0.303c2.7,2.89,4.388,4.537,4.933,4.957c0.095-0.015,0.134-0.054,0.161-0.082
			c0.207-0.207,0.368-0.733,0.523-1.241c0.231-0.756,0.492-1.616,1.119-2.243c1.716-1.602,4.236-1.58,5.803-0.014
			c1.597,1.597,1.646,4.148,0.106,5.686l-0.1,0.099c-1.139,1.055-2.268,1.186-3.014,1.273c-0.207,0.023-0.559,0.065-0.619,0.118
			c0,0-0.063,0.066-0.11,0.316c0.518,0.907,3.751,4.02,6.59,6.511c0.198,0.172,0.313,0.422,0.323,0.686
			c0.007,0.266-0.092,0.518-0.281,0.707L17.061,31.72c-0.372,0.373-0.976,0.374-1.348,0.001L0.294,16.303
			C-0.062,15.947-0.08,15.375,0.25,15c0.02-0.024,2.362-2.691,4.382-4.711L4.637,10.284z"/>
		<path id="path18_9_" fill="#ED2526" d="M31.031,16.403c0,0-7.058-6.194-6.935-7.173c0.292-2.335,2.072-0.613,4.065-2.461
			c1.255-1.169,1.197-3.187-0.031-4.415c-1.226-1.226-3.154-1.195-4.409-0.026c-1.233,1.149-0.765,4.01-2.752,3.893
			c-0.479-0.029-4.436-4.235-5.394-5.265c-1.592,1.504-4.407,4.217-4.429,4.612c-0.114,1.986,2.746,1.517,3.894,2.75
			c1.168,1.25,1.197,3.181-0.029,4.406c-1.228,1.228-3.246,1.287-4.412,0.034c-1.852-1.992-0.127-3.772-2.462-4.066
			c-0.982-0.123-7.17,6.936-7.17,6.936l15.419,15.419L31.031,16.403z"/>
		
			<linearGradient id="path27_1_" gradientUnits="userSpaceOnUse" x1="-227.1313" y1="539.6973" x2="-207.0024" y2="539.6973" gradientTransform="matrix(-0.7071 -0.7071 -0.7071 0.7071 246.8394 -521.9678)">
			<stop  offset="0" style="stop-color:#F59699"/>
			<stop  offset="1" style="stop-color:#8F1A1D"/>
		</linearGradient>
		<path id="path27_4_" fill="url(#path27_1_)" d="M5.985,11.633c1.405-1.405,2.002-1.838,2.212-1.968
			C8.442,9.714,8.508,9.772,8.51,9.774c0.053,0.061,0.095,0.412,0.119,0.618c0.087,0.744,0.219,1.874,1.273,3.011
			c0.713,0.767,1.691,1.199,2.763,1.22c1.123,0.021,2.221-0.425,3.018-1.221c1.567-1.567,1.589-4.083,0.055-5.735
			c-0.635-0.677-1.524-0.947-2.309-1.185c-1.034-0.314-1.281-0.46-1.326-0.677c0.152-0.195,0.555-0.668,1.604-1.718
			c0.592-0.592,1.245-1.219,1.83-1.782c4.528,4.817,4.96,4.843,5.379,4.867c0.709,0.042,1.331-0.183,1.796-0.647
			c0.546-0.546,0.773-1.3,0.996-2.033c0.175-0.571,0.355-1.16,0.645-1.449c0.912-0.855,2.27-0.853,3.108-0.014
			c0.837,0.837,0.886,2.209,0.104,2.991c-0.73,0.682-1.34,0.748-1.987,0.824c-0.573,0.066-1.227,0.143-1.746,0.661
			c-0.368,0.369-0.592,0.895-0.682,1.607c-0.056,0.462-0.173,1.411,6.49,7.333L16.386,29.697l-14.11-14.11
			c0.815-0.911,2.339-2.583,3.706-3.95L5.985,11.633z"/>
		<path d="M24.242,24.538c-0.172,0.172-0.41,0.279-0.674,0.279L9.271,24.818c-0.253,0-0.495-0.1-0.674-0.279
			c-0.179-0.179-0.279-0.421-0.279-0.674V9.568c0-0.253,0.101-0.495,0.279-0.674s0.421-0.279,0.674-0.279h0.18
			c0.419,0,0.789,0.274,0.912,0.675c0.089,0.293,0.125,0.593,0.158,0.883c0.075,0.645,0.146,1.255,0.779,1.935
			c0.356,0.382,0.853,0.598,1.4,0.608c0.606,0.011,1.204-0.232,1.639-0.668c0.576-0.576,0.768-1.395,0.515-2.192
			c-0.092-0.29-0.041-0.606,0.139-0.851c0.029-0.04,0.061-0.077,0.096-0.111c0.177-0.177,0.419-0.279,0.674-0.279h7.806
			c0.254,0,0.495,0.101,0.674,0.279c0.18,0.179,0.279,0.421,0.279,0.674v14.296C24.521,24.127,24.415,24.365,24.242,24.538
			L24.242,24.538z"/>
		<path fill="#00ACDA" d="M23.568,9.567h-7.806c0.342,1.079,0.115,2.291-0.75,3.155c-1.228,1.228-3.246,1.287-4.412,0.034
			c-1.164-1.252-0.916-2.42-1.15-3.188h-0.18v14.297l14.295-0.001l0.002-0.001V9.567z"/>
		
			<linearGradient id="SVGID_1_" gradientUnits="userSpaceOnUse" x1="15.3511" y1="24.7256" x2="15.3511" y2="10.268" gradientTransform="matrix(0.7071 -0.7071 0.7071 0.7071 -6.188 15.8169)">
			<stop  offset="0" style="stop-color:#B1D2DB"/>
			<stop  offset="1" style="stop-color:#0B7C9E"/>
		</linearGradient>
		<path fill="url(#SVGID_1_)" d="M10.225,22.912v-9.199c0.673,0.573,1.525,0.894,2.441,0.91c1.121,0.02,2.222-0.427,3.021-1.227
			c0.773-0.773,1.184-1.808,1.18-2.876h5.748v12.39L10.225,22.912z"/>
	</g>
</g>
</svg>
