<?xml version="1.0" encoding="utf-8"?>
<!-- Generator: Adobe Illustrator 14.0.0, SVG Export Plug-In . SVG Version: 6.00 Build 43363)  -->
<!DOCTYPE svg PUBLIC "-//W3C//DTD SVG 1.1//EN" "http://www.w3.org/Graphics/SVG/1.1/DTD/svg11.dtd">
<svg version="1.1"
	 id="svg2160" inkscape:output_extension="org.inkscape.output.svg.inkscape" sodipodi:docname="segment.svg" inkscape:version="0.45.1" sodipodi:version="0.32" sodipodi:docbase="C:\Radix\dev\trunk\org.radixware\kernel\designer\src\common.resources\src\org\radixware\kernel\designer\resources\icons\ads" xmlns:dc="http://purl.org/dc/elements/1.1/" xmlns:ns="http://creativecommons.org/ns#" xmlns:sodipodi="http://sodipodi.sourceforge.net/DTD/sodipodi-0.dtd" xmlns:cc="http://web.resource.org/cc/" xmlns:inkscape="http://www.inkscape.org/namespaces/inkscape" xmlns:rdf="http://www.w3.org/1999/02/22-rdf-syntax-ns#" xmlns:svg="http://www.w3.org/2000/svg"
	 xmlns="http://www.w3.org/2000/svg" xmlns:xlink="http://www.w3.org/1999/xlink" x="0px" y="0px" width="32px" height="32px"
	 viewBox="0 0 32 32" enable-background="new 0 0 32 32" xml:space="preserve">
<g>
	<path d="M5.36,7.589C5.093,7.863,4.843,8.146,4.594,8.427c-0.088,0.1-0.181,0.196-0.265,0.297C4.05,9.05,3.79,9.383,3.537,9.717
		C3.491,9.779,3.44,9.839,3.394,9.902c-0.281,0.38-0.542,0.765-0.792,1.151c-0.011,0.019-0.024,0.038-0.036,0.054
		C-0.389,15.76-0.93,20.83,1.668,24.122l3.055,3.913l0.001,0.001c0.001,0.001,0.002,0.002,0.001,0.003
		c3.707,4.698,12.164,4.131,19.254-1.294l0.289-0.223c3.355-2.647,5.847-5.999,7.017-9.439c1.218-3.584,0.869-6.855-0.983-9.207
		c-0.001-0.001-0.001-0.002-0.002-0.003l-0.002-0.002V7.87c0,0,0,0-0.001-0.001l-3.053-3.91C24.95,1.048,20.83,0.162,16.343,1.195
		c-0.054,0.003-0.11,0.002-0.164,0.015c-2.795,0.678-5.604,2.057-8.126,3.985L7.763,5.42C7.319,5.772,6.891,6.138,6.476,6.512
		C6.282,6.687,6.102,6.871,5.916,7.05C5.73,7.229,5.539,7.405,5.36,7.589z"/>
	
		<linearGradient id="SVGID_1_" gradientUnits="userSpaceOnUse" x1="131.3672" y1="115.4863" x2="162.2605" y2="115.4863" gradientTransform="matrix(-0.7852 0.6192 -0.6192 -0.7852 201.2426 13.8155)">
		<stop  offset="0" style="stop-color:#F59699"/>
		<stop  offset="1" style="stop-color:#8F1A1D"/>
	</linearGradient>
	<path fill="url(#SVGID_1_)" d="M5.65,25.746c4.031,1.438,9.918,0.052,14.949-3.915c5.033-3.968,7.749-9.37,7.292-13.625
		l1.628,0.277l-3.053-3.91C23.074,0.271,14.948,1.026,8.316,6.256c-6.63,5.229-9.257,12.956-5.866,17.255l3.056,3.911L5.65,25.746z"
		/>
	<path d="M11.048,9.159c7.088-5.423,15.545-5.989,19.25-1.289c1.856,2.353,2.206,5.626,0.987,9.213
		c-1.17,3.44-3.661,6.792-7.017,9.439l-0.289,0.223C16.89,32.17,8.433,32.737,4.726,28.039c-1.855-2.354-2.207-5.626-0.988-9.215
		c1.17-3.438,3.662-6.792,7.02-9.44L11.048,9.159z"/>
	
		<ellipse transform="matrix(-0.7852 0.6193 -0.6193 -0.7852 42.3808 21.2039)" fill="#ED2526" cx="17.512" cy="17.953" rx="15.291" ry="9.918"/>
	
		<linearGradient id="SVGID_2_" gradientUnits="userSpaceOnUse" x1="-41.9961" y1="0.4043" x2="-67.7326" y2="0.4043" gradientTransform="matrix(0.992 -0.1264 0.1264 0.992 72.7881 10.5042)">
		<stop  offset="0" style="stop-color:#F59699"/>
		<stop  offset="1" style="stop-color:#8F1A1D"/>
	</linearGradient>
	<path fill="url(#SVGID_2_)" d="M13.741,29.175c-3.27,0.418-6.006-0.433-7.502-2.328C4.8,25.021,4.56,22.395,5.563,19.443
		c1.051-3.089,3.319-6.126,6.386-8.546c2.905-2.29,6.219-3.768,9.334-4.166c3.271-0.417,6.007,0.432,7.503,2.331
		c1.438,1.823,1.678,4.452,0.676,7.402c-1.053,3.09-3.317,6.127-6.387,8.544C20.171,27.299,16.858,28.779,13.741,29.175
		L13.741,29.175z"/>
	<path d="M4.596,20.132c-0.251-0.033-0.484-0.163-0.645-0.369l-3.057-3.917c-0.203-0.259-0.262-0.603-0.157-0.915
		c1.157-3.463,3.655-6.837,7.034-9.502c2.594-2.046,5.502-3.502,8.41-4.208c0.12-0.03,0.243-0.035,0.361-0.019
		c0.25,0.033,0.483,0.163,0.645,0.369l3.059,3.916c0.205,0.263,0.263,0.612,0.153,0.927c-0.109,0.315-0.371,0.552-0.695,0.631
		c-2.637,0.639-5.285,1.967-7.659,3.84c-3.08,2.429-5.349,5.477-6.388,8.585c-0.115,0.342-0.409,0.594-0.765,0.655
		C4.792,20.144,4.693,20.145,4.596,20.132L4.596,20.132z"/>
	
		<linearGradient id="SVGID_3_" gradientUnits="userSpaceOnUse" x1="137.8281" y1="121.4531" x2="157.7054" y2="121.4531" gradientTransform="matrix(-0.7852 0.6192 -0.6192 -0.7852 201.2426 13.8155)">
		<stop  offset="0" style="stop-color:#B1D2DB"/>
		<stop  offset="1" style="stop-color:#0B7C9E"/>
	</linearGradient>
	<path fill="url(#SVGID_3_)" d="M16.413,2.175C13.751,2.822,10.954,4.168,8.379,6.2c-3.338,2.633-5.66,5.899-6.71,9.042l3.057,3.917
		c1.052-3.146,3.371-6.411,6.71-9.044c2.575-2.032,5.375-3.379,8.036-4.024L16.413,2.175z"/>
	<path d="M11.126,9.098c2.518-1.928,5.317-3.306,8.094-3.986c0.323-0.08,0.667,0.008,0.912,0.233
		c0.244,0.224,0.36,0.557,0.311,0.885l-1.868,11.815c-0.042,0.258-0.181,0.481-0.377,0.633c-0.145,0.109-0.317,0.18-0.505,0.199
		L4.83,20.153c-0.335,0.034-0.663-0.104-0.874-0.367c-0.208-0.262-0.272-0.614-0.166-0.934c1.153-3.47,3.658-6.856,7.047-9.531
		L11.126,9.098z"/>
	<path fill="#00ACDA" d="M4.731,19.165l12.861-1.276l1.869-11.813l-0.004,0c-2.651,0.649-5.439,2.001-8.005,4.024
		C8.107,12.74,5.779,16.016,4.731,19.165L4.731,19.165z"/>
	
		<linearGradient id="SVGID_4_" gradientUnits="userSpaceOnUse" x1="-52.3789" y1="-5.2915" x2="-65.098" y2="-5.2915" gradientTransform="matrix(0.992 -0.1264 0.1264 0.992 72.7881 10.5042)">
		<stop  offset="0" style="stop-color:#B1D2DB"/>
		<stop  offset="1" style="stop-color:#0B7C9E"/>
	</linearGradient>
	<path fill="url(#SVGID_4_)" d="M6.156,18.088c1.188-2.635,3.233-5.17,5.875-7.254c1.966-1.549,4.112-2.729,6.279-3.454
		l-1.524,9.652L6.156,18.088z"/>
</g>
</svg>
