<?xml version="1.0" encoding="UTF-8" standalone="no"?>
<!-- Created with Inkscape (http://www.inkscape.org/) -->
<svg
   xmlns:dc="http://purl.org/dc/elements/1.1/"
   xmlns:cc="http://web.resource.org/cc/"
   xmlns:rdf="http://www.w3.org/1999/02/22-rdf-syntax-ns#"
   xmlns:svg="http://www.w3.org/2000/svg"
   xmlns="http://www.w3.org/2000/svg"
   xmlns:xlink="http://www.w3.org/1999/xlink"
   xmlns:sodipodi="http://sodipodi.sourceforge.net/DTD/sodipodi-0.dtd"
   xmlns:inkscape="http://www.inkscape.org/namespaces/inkscape"
   width="64"
   height="64"
   id="svg2"
   sodipodi:version="0.32"
   inkscape:version="0.45.1"
   sodipodi:docbase="C:\Radix\dev\trunk\org.radixware\kernel\designer\src\common.resources\src\org\radixware\kernel\designer\resources\icons\unused\file"
   sodipodi:docname="save_all.svg"
   version="1.0"
   inkscape:output_extension="org.inkscape.output.svg.inkscape">
  <defs
     id="defs4">
    <linearGradient
       inkscape:collect="always"
       id="linearGradient2209">
      <stop
         style="stop-color:#000000;stop-opacity:1;"
         offset="0"
         id="stop2211" />
      <stop
         style="stop-color:#000000;stop-opacity:0;"
         offset="1"
         id="stop2213" />
    </linearGradient>
    <linearGradient
       id="linearGradient2204">
      <stop
         style="stop-color:#484e93;stop-opacity:1;"
         offset="0"
         id="stop2206" />
      <stop
         style="stop-color:#c5d3e2;stop-opacity:1;"
         offset="1"
         id="stop2208" />
    </linearGradient>
    <linearGradient
       id="linearGradient2196">
      <stop
         style="stop-color:#000000;stop-opacity:1;"
         offset="0"
         id="stop2198" />
      <stop
         style="stop-color:#598de1;stop-opacity:1;"
         offset="1"
         id="stop2200" />
    </linearGradient>
    <linearGradient
       id="linearGradient3073">
      <stop
         style="stop-color:#ffde7c;stop-opacity:1;"
         offset="0"
         id="stop3075" />
      <stop
         style="stop-color:#fbfaef;stop-opacity:1;"
         offset="1"
         id="stop3077" />
    </linearGradient>
    <linearGradient
       id="linearGradient3065">
      <stop
         style="stop-color:#2b2d3b;stop-opacity:1;"
         offset="0"
         id="stop3067" />
      <stop
         style="stop-color:#afbfc9;stop-opacity:1;"
         offset="1"
         id="stop3069" />
    </linearGradient>
    <linearGradient
       id="linearGradient2182">
      <stop
         style="stop-color:#421864;stop-opacity:1;"
         offset="0"
         id="stop2184" />
      <stop
         id="stop2190"
         offset="0.5"
         style="stop-color:#474692;stop-opacity:1;" />
      <stop
         style="stop-color:#4d75ff;stop-opacity:1;"
         offset="1"
         id="stop2186" />
    </linearGradient>
    <linearGradient
       inkscape:collect="always"
       xlink:href="#linearGradient2209"
       id="linearGradient2215"
       x1="16.25"
       y1="53.988407"
       x2="73.427307"
       y2="55.245132"
       gradientUnits="userSpaceOnUse"
       gradientTransform="matrix(1.016575,0,0,1.690903,-6.769337,-46.61325)" />
    <linearGradient
       inkscape:collect="always"
       xlink:href="#linearGradient2204"
       id="linearGradient1441"
       gradientUnits="userSpaceOnUse"
       x1="56.125"
       y1="3"
       x2="10.75"
       y2="13.75" />
    <linearGradient
       inkscape:collect="always"
       xlink:href="#linearGradient2196"
       id="linearGradient1443"
       gradientUnits="userSpaceOnUse"
       x1="16"
       y1="61.125"
       x2="8.25"
       y2="14.5" />
    <linearGradient
       inkscape:collect="always"
       xlink:href="#linearGradient2182"
       id="linearGradient1445"
       gradientUnits="userSpaceOnUse"
       x1="53.75"
       y1="44.3125"
       x2="21.625"
       y2="21.8125" />
    <linearGradient
       inkscape:collect="always"
       xlink:href="#linearGradient3065"
       id="linearGradient1447"
       gradientUnits="userSpaceOnUse"
       x1="45.25"
       y1="47"
       x2="25.75"
       y2="40.125" />
    <linearGradient
       inkscape:collect="always"
       xlink:href="#linearGradient3073"
       id="linearGradient1449"
       gradientUnits="userSpaceOnUse"
       x1="48.625"
       y1="24"
       x2="20.25"
       y2="13.75" />
    <linearGradient
       inkscape:collect="always"
       xlink:href="#linearGradient2204"
       id="linearGradient1491"
       gradientUnits="userSpaceOnUse"
       x1="56.125"
       y1="3"
       x2="10.75"
       y2="13.75" />
    <linearGradient
       inkscape:collect="always"
       xlink:href="#linearGradient2196"
       id="linearGradient1493"
       gradientUnits="userSpaceOnUse"
       x1="16"
       y1="61.125"
       x2="8.25"
       y2="14.5" />
    <linearGradient
       inkscape:collect="always"
       xlink:href="#linearGradient2182"
       id="linearGradient1495"
       gradientUnits="userSpaceOnUse"
       x1="53.75"
       y1="44.3125"
       x2="21.625"
       y2="21.8125" />
    <linearGradient
       inkscape:collect="always"
       xlink:href="#linearGradient3065"
       id="linearGradient1497"
       gradientUnits="userSpaceOnUse"
       x1="45.25"
       y1="47"
       x2="25.75"
       y2="40.125" />
    <linearGradient
       inkscape:collect="always"
       xlink:href="#linearGradient3073"
       id="linearGradient1499"
       gradientUnits="userSpaceOnUse"
       x1="48.625"
       y1="24"
       x2="20.25"
       y2="13.75" />
    <linearGradient
       inkscape:collect="always"
       xlink:href="#linearGradient2204"
       id="linearGradient1501"
       gradientUnits="userSpaceOnUse"
       x1="56.125"
       y1="3"
       x2="10.75"
       y2="13.75" />
    <linearGradient
       inkscape:collect="always"
       xlink:href="#linearGradient2196"
       id="linearGradient1503"
       gradientUnits="userSpaceOnUse"
       x1="16"
       y1="61.125"
       x2="8.25"
       y2="14.5" />
    <linearGradient
       inkscape:collect="always"
       xlink:href="#linearGradient2182"
       id="linearGradient1505"
       gradientUnits="userSpaceOnUse"
       x1="53.75"
       y1="44.3125"
       x2="21.625"
       y2="21.8125" />
    <linearGradient
       inkscape:collect="always"
       xlink:href="#linearGradient3065"
       id="linearGradient1507"
       gradientUnits="userSpaceOnUse"
       x1="45.25"
       y1="47"
       x2="25.75"
       y2="40.125" />
    <linearGradient
       inkscape:collect="always"
       xlink:href="#linearGradient3073"
       id="linearGradient1509"
       gradientUnits="userSpaceOnUse"
       x1="48.625"
       y1="24"
       x2="20.25"
       y2="13.75" />
  </defs>
  <sodipodi:namedview
     id="base"
     pagecolor="#ffffff"
     bordercolor="#000000"
     borderopacity="1.0"
     inkscape:pageopacity="0.0"
     inkscape:pageshadow="2"
     inkscape:zoom="8"
     inkscape:cx="39.470026"
     inkscape:cy="31.254861"
     inkscape:document-units="px"
     inkscape:current-layer="layer1"
     inkscape:window-width="1046"
     inkscape:window-height="753"
     inkscape:window-x="100"
     inkscape:window-y="0" />
  <metadata
     id="metadata7">
    <rdf:RDF>
      <cc:Work
         rdf:about="">
        <dc:format>image/svg+xml</dc:format>
        <dc:type
           rdf:resource="http://purl.org/dc/dcmitype/StillImage" />
      </cc:Work>
    </rdf:RDF>
  </metadata>
  <g
     inkscape:label="Layer 1"
     inkscape:groupmode="layer"
     id="layer1">
    <g
       id="g1430"
       transform="matrix(0.65625,0,0,0.719335,-0.824219,1.561331)">
      <path
         sodipodi:nodetypes="ccccc"
         id="path1304"
         d="M 10.25,13.75 C 14.375,15.25 14.625,15.25 14.625,15.25 L 56.375,2.875 L 53.125,2.5 C 38.588339,5.6375149 24.129298,8.9690785 10.25,13.75 z "
         style="fill:url(#linearGradient1441);fill-opacity:1;fill-rule:evenodd;stroke:#000000;stroke-width:1px;stroke-linecap:butt;stroke-linejoin:miter;stroke-opacity:1" />
      <path
         sodipodi:nodetypes="cccc"
         id="path1306"
         d="M 14.625,15.875 C 14.795962,31.083333 15.414238,46.291667 16.25,61.5 L 13.125,60 C 11.183011,44.583333 9.9840592,29.166667 9.375,13.75"
         style="fill:url(#linearGradient1443);fill-opacity:1;fill-rule:evenodd;stroke:#000000;stroke-width:1px;stroke-linecap:butt;stroke-linejoin:miter;stroke-opacity:1" />
      <path
         sodipodi:nodetypes="cccccc"
         id="path1308"
         d="M 16.5,61.625 C 27.39279,56.279963 38.171524,51.277094 49.375,45 C 50.824422,43.632948 51.129575,41.50305 51.625,39.5 C 54.084762,27.552441 55.213327,15.272082 56.375,3 L 14.875,15.25 C 14.709142,30.708333 15.333596,46.166667 16.5,61.625 z "
         style="fill:url(#linearGradient1445);fill-opacity:1;fill-rule:evenodd;stroke:#000000;stroke-width:1px;stroke-linecap:butt;stroke-linejoin:miter;stroke-opacity:1" />
      <path
         sodipodi:nodetypes="ccccc"
         id="path1310"
         d="M 45.125,46.875 L 46.125,31.25 L 25.5,40.125 L 24.875,57.75 L 24.875,57.375"
         style="fill:url(#linearGradient1447);fill-opacity:1;fill-rule:evenodd;stroke:#000000;stroke-width:1px;stroke-linecap:butt;stroke-linejoin:miter;stroke-opacity:1" />
      <path
         sodipodi:nodetypes="cccc"
         id="path1312"
         d="M 20.875,13.875 L 21.25,34.75 L 48.625,24 L 51,4.625"
         style="fill:url(#linearGradient1449);fill-opacity:1;fill-rule:evenodd;stroke:#000000;stroke-width:1px;stroke-linecap:butt;stroke-linejoin:miter;stroke-opacity:1" />
      <path
         sodipodi:nodetypes="ccccc"
         id="path3081"
         d="M 38.875,37.875 L 42.875,35.875 L 42,46 L 37.875,48.25 L 38.875,37.875 z "
         style="fill:#000000;fill-opacity:1;fill-rule:evenodd;stroke:#000000;stroke-width:1px;stroke-linecap:butt;stroke-linejoin:miter;stroke-opacity:1" />
      <path
         id="path2212"
         d="M 24,17.75 C 47.125,10.375 47.25,10.375 47.25,10.375 L 47.25,10.375"
         style="fill:none;fill-opacity:0.75;fill-rule:evenodd;stroke:#000000;stroke-width:1px;stroke-linecap:butt;stroke-linejoin:miter;stroke-opacity:1" />
      <path
         id="path2214"
         d="M 24.375,22.125 C 46.625,14.75 46.75,14.75 46.75,14.75"
         style="fill:none;fill-opacity:0.75;fill-rule:evenodd;stroke:#000000;stroke-width:1px;stroke-linecap:butt;stroke-linejoin:miter;stroke-opacity:1" />
      <path
         id="path2216"
         d="M 24.75,27.375 C 45.75,19.375 45.75,19.375 45.75,19.375"
         style="fill:none;fill-opacity:0.75;fill-rule:evenodd;stroke:#000000;stroke-width:1px;stroke-linecap:butt;stroke-linejoin:miter;stroke-opacity:1" />
    </g>
    <path
       style="fill:url(#linearGradient2215);fill-opacity:1;fill-rule:evenodd;stroke:none;stroke-width:1px;stroke-linecap:butt;stroke-linejoin:miter;stroke-opacity:1"
       d="M 9.5,46.175008 C 9.7828192,46.475457 24.602942,56.637571 26.858509,57.676455 C 32.417275,60.236749 31.347366,59.88362 38.107735,60.375 C 54.144286,51.365274 50.665165,53.454811 61.25,45.831923 C 57.872438,42.319052 48.02784,41.855083 45.911022,39.221247 C 41.894192,34.223333 46.847759,28.863759 44.186464,29.688746 L 43.93232,29.26602"
       id="path1334"
       sodipodi:nodetypes="csccscc" />
    <g
       transform="matrix(0.65625,0,0,0.719335,7.425781,7.186331)"
       id="g1451">
      <path
         style="fill:url(#linearGradient1501);fill-opacity:1;fill-rule:evenodd;stroke:#000000;stroke-width:1px;stroke-linecap:butt;stroke-linejoin:miter;stroke-opacity:1"
         d="M 10.25,13.75 C 14.375,15.25 14.625,15.25 14.625,15.25 L 56.375,2.875 L 53.125,2.5 C 38.588339,5.6375149 24.129298,8.9690785 10.25,13.75 z "
         id="path1453"
         sodipodi:nodetypes="ccccc" />
      <path
         style="fill:url(#linearGradient1503);fill-opacity:1;fill-rule:evenodd;stroke:#000000;stroke-width:1px;stroke-linecap:butt;stroke-linejoin:miter;stroke-opacity:1"
         d="M 14.625,15.875 C 14.795962,31.083333 15.414238,46.291667 16.25,61.5 L 13.125,60 C 11.183011,44.583333 9.9840592,29.166667 9.375,13.75"
         id="path1455"
         sodipodi:nodetypes="cccc" />
      <path
         style="fill:url(#linearGradient1505);fill-opacity:1;fill-rule:evenodd;stroke:#000000;stroke-width:1px;stroke-linecap:butt;stroke-linejoin:miter;stroke-opacity:1"
         d="M 16.5,61.625 C 27.39279,56.279963 38.171524,51.277094 49.375,45 C 50.824422,43.632948 51.129575,41.50305 51.625,39.5 C 54.084762,27.552441 55.213327,15.272082 56.375,3 L 14.875,15.25 C 14.709142,30.708333 15.333596,46.166667 16.5,61.625 z "
         id="path1457"
         sodipodi:nodetypes="cccccc" />
      <path
         style="fill:url(#linearGradient1507);fill-opacity:1;fill-rule:evenodd;stroke:#000000;stroke-width:1px;stroke-linecap:butt;stroke-linejoin:miter;stroke-opacity:1"
         d="M 45.125,46.875 L 46.125,31.25 L 25.5,40.125 L 24.875,57.75 L 24.875,57.375"
         id="path1459"
         sodipodi:nodetypes="ccccc" />
      <path
         style="fill:url(#linearGradient1509);fill-opacity:1;fill-rule:evenodd;stroke:#000000;stroke-width:1px;stroke-linecap:butt;stroke-linejoin:miter;stroke-opacity:1"
         d="M 20.875,13.875 L 21.25,34.75 L 48.625,24 L 51,4.625"
         id="path1461"
         sodipodi:nodetypes="cccc" />
      <path
         style="fill:#000000;fill-opacity:1;fill-rule:evenodd;stroke:#000000;stroke-width:1px;stroke-linecap:butt;stroke-linejoin:miter;stroke-opacity:1"
         d="M 38.875,37.875 L 42.875,35.875 L 42,46 L 37.875,48.25 L 38.875,37.875 z "
         id="path1463"
         sodipodi:nodetypes="ccccc" />
      <path
         style="fill:none;fill-opacity:0.75;fill-rule:evenodd;stroke:#000000;stroke-width:1px;stroke-linecap:butt;stroke-linejoin:miter;stroke-opacity:1"
         d="M 24,17.75 C 47.125,10.375 47.25,10.375 47.25,10.375 L 47.25,10.375"
         id="path1465" />
      <path
         style="fill:none;fill-opacity:0.75;fill-rule:evenodd;stroke:#000000;stroke-width:1px;stroke-linecap:butt;stroke-linejoin:miter;stroke-opacity:1"
         d="M 24.375,22.125 C 46.625,14.75 46.75,14.75 46.75,14.75"
         id="path1467" />
      <path
         style="fill:none;fill-opacity:0.75;fill-rule:evenodd;stroke:#000000;stroke-width:1px;stroke-linecap:butt;stroke-linejoin:miter;stroke-opacity:1"
         d="M 24.75,27.375 C 45.75,19.375 45.75,19.375 45.75,19.375"
         id="path1469" />
    </g>
    <g
       id="g1471"
       transform="matrix(0.65625,0,0,0.719335,15.92578,13.06133)">
      <path
         sodipodi:nodetypes="ccccc"
         id="path1473"
         d="M 10.25,13.75 C 14.375,15.25 14.625,15.25 14.625,15.25 L 56.375,2.875 L 53.125,2.5 C 38.588339,5.6375149 24.129298,8.9690785 10.25,13.75 z "
         style="fill:url(#linearGradient1491);fill-opacity:1;fill-rule:evenodd;stroke:#000000;stroke-width:1px;stroke-linecap:butt;stroke-linejoin:miter;stroke-opacity:1" />
      <path
         sodipodi:nodetypes="cccc"
         id="path1475"
         d="M 14.625,15.875 C 14.795962,31.083333 15.414238,46.291667 16.25,61.5 L 13.125,60 C 11.183011,44.583333 9.9840592,29.166667 9.375,13.75"
         style="fill:url(#linearGradient1493);fill-opacity:1;fill-rule:evenodd;stroke:#000000;stroke-width:1px;stroke-linecap:butt;stroke-linejoin:miter;stroke-opacity:1" />
      <path
         sodipodi:nodetypes="cccccc"
         id="path1477"
         d="M 16.5,61.625 C 27.39279,56.279963 38.171524,51.277094 49.375,45 C 50.824422,43.632948 51.129575,41.50305 51.625,39.5 C 54.084762,27.552441 55.213327,15.272082 56.375,3 L 14.875,15.25 C 14.709142,30.708333 15.333596,46.166667 16.5,61.625 z "
         style="fill:url(#linearGradient1495);fill-opacity:1;fill-rule:evenodd;stroke:#000000;stroke-width:1px;stroke-linecap:butt;stroke-linejoin:miter;stroke-opacity:1" />
      <path
         sodipodi:nodetypes="ccccc"
         id="path1479"
         d="M 45.125,46.875 L 46.125,31.25 L 25.5,40.125 L 24.875,57.75 L 24.875,57.375"
         style="fill:url(#linearGradient1497);fill-opacity:1;fill-rule:evenodd;stroke:#000000;stroke-width:1px;stroke-linecap:butt;stroke-linejoin:miter;stroke-opacity:1" />
      <path
         sodipodi:nodetypes="cccc"
         id="path1481"
         d="M 20.875,13.875 L 21.25,34.75 L 48.625,24 L 51,4.625"
         style="fill:url(#linearGradient1499);fill-opacity:1;fill-rule:evenodd;stroke:#000000;stroke-width:1px;stroke-linecap:butt;stroke-linejoin:miter;stroke-opacity:1" />
      <path
         sodipodi:nodetypes="ccccc"
         id="path1483"
         d="M 38.875,37.875 L 42.875,35.875 L 42,46 L 37.875,48.25 L 38.875,37.875 z "
         style="fill:#000000;fill-opacity:1;fill-rule:evenodd;stroke:#000000;stroke-width:1px;stroke-linecap:butt;stroke-linejoin:miter;stroke-opacity:1" />
      <path
         id="path1485"
         d="M 24,17.75 C 47.125,10.375 47.25,10.375 47.25,10.375 L 47.25,10.375"
         style="fill:none;fill-opacity:0.75;fill-rule:evenodd;stroke:#000000;stroke-width:1px;stroke-linecap:butt;stroke-linejoin:miter;stroke-opacity:1" />
      <path
         id="path1487"
         d="M 24.375,22.125 C 46.625,14.75 46.75,14.75 46.75,14.75"
         style="fill:none;fill-opacity:0.75;fill-rule:evenodd;stroke:#000000;stroke-width:1px;stroke-linecap:butt;stroke-linejoin:miter;stroke-opacity:1" />
      <path
         id="path1489"
         d="M 24.75,27.375 C 45.75,19.375 45.75,19.375 45.75,19.375"
         style="fill:none;fill-opacity:0.75;fill-rule:evenodd;stroke:#000000;stroke-width:1px;stroke-linecap:butt;stroke-linejoin:miter;stroke-opacity:1" />
    </g>
  </g>
</svg>
