<?xml version="1.0" encoding="UTF-8" standalone="no"?>
<!-- Created with Inkscape (http://www.inkscape.org/) -->
<svg
   xmlns:dc="http://purl.org/dc/elements/1.1/"
   xmlns:cc="http://web.resource.org/cc/"
   xmlns:rdf="http://www.w3.org/1999/02/22-rdf-syntax-ns#"
   xmlns:svg="http://www.w3.org/2000/svg"
   xmlns="http://www.w3.org/2000/svg"
   xmlns:xlink="http://www.w3.org/1999/xlink"
   xmlns:sodipodi="http://sodipodi.sourceforge.net/DTD/sodipodi-0.dtd"
   xmlns:inkscape="http://www.inkscape.org/namespaces/inkscape"
   id="svg1"
   sodipodi:version="0.32"
   inkscape:version="0.45.1"
   width="48"
   height="48"
   sodipodi:docbase="C:\Radix\dev\trunk\org.radixware\kernel\designer\src\common.resources\src\org\radixware\kernel\designer\resources\icons\unused\file"
   sodipodi:docname="save_image.svg"
   version="1.0"
   inkscape:output_extension="org.inkscape.output.svg.inkscape">
  <defs
     id="defs3">
    <linearGradient
       id="linearGradient2350">
      <stop
         style="stop-color:#cecece;stop-opacity:1;"
         offset="0"
         id="stop2352" />
      <stop
         id="stop2356"
         offset="0.5"
         style="stop-color:#cbcbcb;stop-opacity:1;" />
      <stop
         style="stop-color:#6b6b6b;stop-opacity:1;"
         offset="1"
         id="stop2354" />
    </linearGradient>
    <linearGradient
       y2="42.46875"
       x2="28.5625"
       y1="21.84375"
       x1="20.125"
       gradientTransform="matrix(0.581735,1.046508e-32,1.862401e-32,0.611067,-13.45822,-7.380867)"
       gradientUnits="userSpaceOnUse"
       id="linearGradient3273"
       xlink:href="#linearGradient2350"
       inkscape:collect="always" />
    <linearGradient
       id="linearGradient2263">
      <stop
         id="stop2265"
         offset="0"
         style="stop-color:#1e2d69;stop-opacity:1;" />
      <stop
         id="stop2267"
         offset="1"
         style="stop-color:#78a7e0;stop-opacity:1;" />
    </linearGradient>
    <linearGradient
       y2="-0.38931385"
       x2="16.879831"
       y1="71.869133"
       x1="40.884724"
       gradientTransform="matrix(0.532107,9.572291e-33,1.892715e-32,0.621014,-12.40494,-6.125912)"
       gradientUnits="userSpaceOnUse"
       id="linearGradient3269"
       xlink:href="#linearGradient2263"
       inkscape:collect="always" />
    <linearGradient
       id="linearGradient1918">
      <stop
         style="stop-color:#000000;stop-opacity:0.31638417;"
         offset="0.0000000"
         id="stop1919" />
      <stop
         style="stop-color:#000000;stop-opacity:0.079096042;"
         offset="0.50000000"
         id="stop1920" />
      <stop
         style="stop-color:#000000;stop-opacity:0.0000000;"
         offset="1.0000000"
         id="stop1921" />
    </linearGradient>
    <linearGradient
       id="linearGradient1501">
      <stop
         style="stop-color:#ffffff;stop-opacity:1.0000000;"
         offset="0.0000000"
         id="stop1502" />
      <stop
         style="stop-color:#ffffff;stop-opacity:0.0000000;"
         offset="1.0000000"
         id="stop1504" />
    </linearGradient>
    <linearGradient
       id="linearGradient1507">
      <stop
         style="stop-color:#000000;stop-opacity:0.095505618;"
         offset="0.0000000"
         id="stop1508" />
      <stop
         style="stop-color:#000000;stop-opacity:0.0000000;"
         offset="1.0000000"
         id="stop1510" />
    </linearGradient>
    <linearGradient
       id="linearGradient1492">
      <stop
         style="stop-color:#dadada;stop-opacity:1.0000000;"
         offset="0.0000000"
         id="stop1493" />
      <stop
         style="stop-color:#f1f1f1;stop-opacity:1.0000000;"
         offset="0.34923077"
         id="stop1496" />
      <stop
         style="stop-color:#f0f0f0;stop-opacity:1.0000000;"
         offset="1.0000000"
         id="stop1494" />
    </linearGradient>
    <linearGradient
       xlink:href="#linearGradient1507"
       id="linearGradient1506"
       x1="201.38963"
       y1="843.20789"
       x2="547.80804"
       y2="383.76529"
       gradientTransform="scale(0.944689,1.05855)"
       gradientUnits="userSpaceOnUse" />
    <linearGradient
       inkscape:collect="always"
       xlink:href="#linearGradient1507"
       id="linearGradient1843"
       gradientUnits="userSpaceOnUse"
       gradientTransform="scale(0.944689,1.05855)"
       x1="201.38963"
       y1="843.20789"
       x2="547.80804"
       y2="383.76529" />
    <linearGradient
       inkscape:collect="always"
       xlink:href="#linearGradient1507"
       id="linearGradient1845"
       gradientUnits="userSpaceOnUse"
       gradientTransform="scale(0.944689,1.05855)"
       x1="201.38963"
       y1="843.20789"
       x2="547.80804"
       y2="383.76529" />
    <linearGradient
       inkscape:collect="always"
       xlink:href="#linearGradient1507"
       id="linearGradient1847"
       gradientUnits="userSpaceOnUse"
       gradientTransform="scale(0.944689,1.05855)"
       x1="201.38963"
       y1="843.20789"
       x2="547.80804"
       y2="383.76529" />
    <linearGradient
       inkscape:collect="always"
       xlink:href="#linearGradient1492"
       id="linearGradient1849"
       gradientUnits="userSpaceOnUse"
       gradientTransform="matrix(3.890967e-2,0,0,4.936154e-2,-8.253663,-5.152297)"
       x1="732.87689"
       y1="227.04758"
       x2="346.16904"
       y2="698.34778" />
    <linearGradient
       inkscape:collect="always"
       xlink:href="#linearGradient1501"
       id="linearGradient1851"
       gradientUnits="userSpaceOnUse"
       gradientTransform="matrix(4.023256e-2,0,0,4.773848e-2,-8.25366,-5.152296)"
       x1="1001.8117"
       y1="-75.327576"
       x2="330.88034"
       y2="418.53635" />
    <linearGradient
       inkscape:collect="always"
       xlink:href="#linearGradient1492"
       id="linearGradient1853"
       gradientUnits="userSpaceOnUse"
       gradientTransform="matrix(3.886102e-2,0,0,4.942339e-2,-8.405977,-5.019714)"
       x1="741.63898"
       y1="169.4436"
       x2="622.33325"
       y2="287.73825" />
    <radialGradient
       inkscape:collect="always"
       xlink:href="#linearGradient1918"
       id="radialGradient1855"
       gradientUnits="userSpaceOnUse"
       cx="41.875938"
       cy="37.865574"
       fx="33.845612"
       fy="37.342125"
       r="12.562782" />
  </defs>
  <sodipodi:namedview
     id="base"
     pagecolor="#ffffff"
     bordercolor="#666666"
     borderopacity="1.0"
     inkscape:pageopacity="0.0"
     inkscape:pageshadow="2"
     inkscape:zoom="8"
     inkscape:cx="15.625271"
     inkscape:cy="12.642646"
     inkscape:window-width="1280"
     inkscape:window-height="998"
     inkscape:window-x="-4"
     inkscape:window-y="-4"
     showgrid="true"
     snaptogrid="false"
     inkscape:current-layer="svg1" />
  <metadata
     id="metadata113">
    <rdf:RDF>
      <cc:Work
         rdf:about="">
        <dc:title>Etiquette Icons</dc:title>
        <dc:description />
        <dc:subject>
          <rdf:Bag>
            <rdf:li>computer</rdf:li>
            <rdf:li />
            <rdf:li>mime-types</rdf:li>
            <rdf:li>icons</rdf:li>
            <rdf:li>hash</rdf:li>
          </rdf:Bag>
        </dc:subject>
        <dc:publisher>
          <cc:Agent
             rdf:about="http://www.openclipart.org">
            <dc:title>Andy Fitzsimon</dc:title>
          </cc:Agent>
        </dc:publisher>
        <dc:creator>
          <cc:Agent
             rdf:about="">
            <dc:title>Andy Fitzsimon</dc:title>
          </cc:Agent>
        </dc:creator>
        <dc:rights>
          <cc:Agent
             rdf:about="">
            <dc:title>Andy Fitzsimon</dc:title>
          </cc:Agent>
        </dc:rights>
        <dc:date />
        <dc:format>image/svg+xml</dc:format>
        <dc:type
           rdf:resource="http://purl.org/dc/dcmitype/StillImage" />
        <cc:license
           rdf:resource="http://web.resource.org/cc/PublicDomain">
          <dc:date />
        </cc:license>
        <dc:language>en</dc:language>
      </cc:Work>
      <cc:License
         rdf:about="http://web.resource.org/cc/PublicDomain">
        <cc:permits
           rdf:resource="http://web.resource.org/cc/Reproduction" />
        <cc:permits
           rdf:resource="http://web.resource.org/cc/Distribution" />
        <cc:permits
           rdf:resource="http://web.resource.org/cc/DerivativeWorks" />
      </cc:License>
    </rdf:RDF>
  </metadata>
  <g
     id="g1789"
     transform="matrix(1.630945,0,0,1.630945,-4.602657,-0.62641)">
    <path
       sodipodi:nodetypes="cccccccccccccccc"
       id="path930"
       d="M 3.8609395,1.2747941 L 3.8609395,7.1213155 L 3.8609395,12.967838 L 3.8609395,18.814359 L 3.8609395,24.660879 L 8.4579888,24.660879 L 13.055037,24.660879 L 17.652085,24.660879 L 22.249133,24.660879 L 22.249133,18.814359 L 22.249133,12.967838 L 22.249133,7.1213155 L 17.652085,1.2747941 L 13.055037,1.2747941 L 8.4579888,1.2747941 L 3.8609395,1.2747941 z "
       style="fill:#ffffff;fill-rule:evenodd;stroke-width:0.42649043;stroke-opacity:0.36477984" />
    <g
       style="fill:url(#linearGradient1506)"
       transform="matrix(4.170555e-2,0,0,4.735431e-2,-3.52439,-17.63327)"
       id="g1552">
      <path
         sodipodi:nodetypes="cccccccccccccccc"
         id="path1505"
         d="M 173.35959,408.8126 L 173.35959,531.0736 L 173.35959,653.3346 L 173.35959,775.5956 L 173.35959,897.8566 L 282.12187,897.8566 L 390.88417,897.8566 L 499.64646,897.8566 L 608.40874,897.8566 L 608.40874,775.5956 L 608.40874,653.3346 L 608.40874,531.0736 L 499.64646,408.8126 L 390.88417,408.8126 L 282.12187,408.8126 L 173.35959,408.8126 z "
         style="fill:url(#linearGradient1843);fill-opacity:0.75;fill-rule:evenodd;stroke-width:0.95407495pt" />
      <path
         id="path1538"
         d="M 170.125,407.1875 C 170.125,571.82292 170.125,736.45833 170.125,901.09375 C 317.30208,901.09375 464.47917,901.09375 611.65625,901.09375 C 611.65625,777.33333 611.65625,653.57292 611.65625,529.8125 C 574.80918,488.38978 537.97604,446.95335 501.09375,405.5625 C 390.77083,405.5625 280.44792,405.5625 170.125,405.5625 C 170.125,405.89583 170.125,406.97917 170.125,407.1875 z "
         style="fill:url(#linearGradient1845);fill-opacity:0.75;fill-rule:evenodd;stroke-width:0.95407495pt" />
      <path
         id="path1543"
         d="M 166.875,403.9375 C 166.875,570.73958 166.875,737.54167 166.875,904.34375 C 316.21875,904.34375 465.5625,904.34375 614.90625,904.34375 C 614.90625,779.08333 614.90625,653.82292 614.90625,528.5625 C 577.45517,486.47298 540.01754,444.37017 502.53125,402.3125 C 390.64583,402.3125 278.76042,402.3125 166.875,402.3125 C 166.875,402.64583 166.875,403.72917 166.875,403.9375 z "
         style="fill:url(#linearGradient1847);fill-opacity:0.75;fill-rule:evenodd;stroke-width:0.95407495pt" />
    </g>
    <path
       sodipodi:nodetypes="cccccccccccccccc"
       id="rect900"
       d="M 3.8684893,1.3037901 L 3.8684893,7.1503108 L 3.8684893,12.996831 L 3.8684893,18.843352 L 3.8684893,24.689875 L 8.4655378,24.689875 L 13.062585,24.689875 L 17.659633,24.689875 L 22.256682,24.689875 L 22.256682,18.843352 L 22.256682,12.996831 L 22.256682,7.1503108 L 17.659633,1.3037901 L 13.062585,1.3037901 L 8.4655378,1.3037901 L 3.8684893,1.3037901 z "
       style="fill:url(#linearGradient1849);fill-opacity:1;fill-rule:evenodd;stroke:#000000;stroke-width:0.6131413;stroke-miterlimit:4;stroke-dasharray:none;stroke-opacity:0.99519228" />
    <g
       transform="matrix(0.150037,0,0,0.174137,-18.92773,-31.79888)"
       id="g2383">
      <rect
         transform="translate(124.0158,425.1969)"
         y="-194.3307"
         x="53.149605"
         height="17.716536"
         width="17.716536"
         id="rect1696"
         style="fill:#6ca8c7;fill-rule:evenodd" />
      <rect
         transform="translate(124.0158,425.1969)"
         y="-158.89764"
         x="35.433071"
         height="17.716536"
         width="17.716536"
         id="rect1697"
         style="fill:#409f40;fill-rule:evenodd" />
      <rect
         transform="translate(124.0158,425.1969)"
         y="-176.6142"
         x="70.866142"
         height="17.716536"
         width="17.716536"
         id="rect1698"
         style="fill:#84c189;fill-rule:evenodd" />
      <rect
         transform="translate(124.0158,425.1969)"
         y="-176.61417"
         x="53.149605"
         height="17.716536"
         width="17.716536"
         id="rect1699"
         style="fill:#6eb680;fill-rule:evenodd" />
      <rect
         transform="translate(124.0158,425.1969)"
         y="-158.89764"
         x="70.866142"
         height="17.716536"
         width="17.716536"
         id="rect1700"
         style="fill:#44a144;fill-rule:evenodd" />
      <rect
         transform="translate(124.0158,425.1969)"
         y="-176.61417"
         x="88.58268"
         height="17.716536"
         width="17.716536"
         id="rect1701"
         style="fill:#7ebe7e;fill-rule:evenodd" />
      <rect
         transform="translate(124.0158,425.1969)"
         y="-229.76378"
         x="35.433071"
         height="17.716536"
         width="17.716536"
         id="rect1702"
         style="fill:#8cc1e3;fill-rule:evenodd" />
      <rect
         transform="translate(124.0158,425.1969)"
         y="-176.61417"
         x="35.433071"
         height="17.716536"
         width="17.716536"
         id="rect1703"
         style="fill:#65b08e;fill-rule:evenodd" />
      <rect
         transform="translate(124.0158,425.1969)"
         y="-212.04724"
         x="70.866142"
         height="17.716536"
         width="17.716536"
         id="rect1704"
         style="fill:#8cc1e3;fill-rule:evenodd" />
      <rect
         transform="translate(124.0158,425.1969)"
         y="-194.3307"
         x="88.58268"
         height="17.716536"
         width="17.716536"
         id="rect1705"
         style="fill:#83b4d4;fill-rule:evenodd" />
      <rect
         transform="translate(124.0158,425.1969)"
         y="-158.89764"
         x="106.29921"
         height="17.716536"
         width="17.716536"
         id="rect1706"
         style="fill:#7ebe7e;fill-rule:evenodd" />
      <rect
         transform="translate(124.0158,425.1969)"
         y="-229.76378"
         x="88.58268"
         height="17.716536"
         width="17.716536"
         id="rect1707"
         style="fill:#9dc8e3;fill-rule:evenodd" />
      <rect
         transform="translate(124.0158,425.1969)"
         y="-212.04724"
         x="106.29921"
         height="17.716536"
         width="17.716536"
         id="rect1708"
         style="fill:#81bbe0;fill-rule:evenodd" />
      <rect
         transform="translate(124.0158,425.1969)"
         y="-158.89764"
         x="88.58268"
         height="17.716536"
         width="17.716536"
         id="rect1709"
         style="fill:#44a144;fill-rule:evenodd" />
      <rect
         transform="translate(124.0158,425.1969)"
         y="-141.18111"
         x="88.58268"
         height="17.716536"
         width="17.716536"
         id="rect1710"
         style="fill:#419a41;fill-rule:evenodd" />
      <rect
         transform="translate(124.0158,425.1969)"
         y="-141.18111"
         x="53.149609"
         height="17.716536"
         width="17.716536"
         id="rect1711"
         style="fill:#419a41;fill-rule:evenodd" />
      <rect
         transform="translate(124.0158,425.1969)"
         y="-123.46457"
         x="35.433075"
         height="17.716536"
         width="17.716536"
         id="rect1712"
         style="fill:#419a41;fill-rule:evenodd" />
      <rect
         transform="translate(124.0158,425.1969)"
         y="-123.46457"
         x="70.866142"
         height="17.716536"
         width="17.716536"
         id="rect1713"
         style="fill:#419a41;fill-rule:evenodd" />
      <rect
         transform="translate(124.0158,425.1969)"
         y="-123.46457"
         x="106.29922"
         height="17.716536"
         width="17.716536"
         id="rect1714"
         style="fill:#419a41;fill-rule:evenodd" />
      <rect
         transform="translate(124.0158,425.1969)"
         y="-141.18111"
         x="70.866142"
         height="17.716536"
         width="17.716536"
         id="rect1715"
         style="fill:#44a144;fill-rule:evenodd" />
      <rect
         transform="translate(124.0158,425.1969)"
         y="-141.18111"
         x="35.433071"
         height="17.716536"
         width="17.716536"
         id="rect1716"
         style="fill:#44a144;fill-rule:evenodd" />
      <rect
         transform="translate(124.0158,425.1969)"
         y="-123.46457"
         x="53.149605"
         height="17.716536"
         width="17.716536"
         id="rect1717"
         style="fill:#44a144;fill-rule:evenodd" />
      <rect
         transform="translate(124.0158,425.1969)"
         y="-123.46457"
         x="88.58268"
         height="17.716536"
         width="17.716536"
         id="rect1718"
         style="fill:#44a144;fill-rule:evenodd" />
      <rect
         transform="translate(124.0158,425.1969)"
         y="-141.18111"
         x="106.29922"
         height="17.716536"
         width="17.716536"
         id="rect1719"
         style="fill:#44a144;fill-rule:evenodd" />
      <rect
         transform="translate(124.0158,425.1969)"
         y="-158.89764"
         x="53.149605"
         height="17.716536"
         width="17.716536"
         id="rect1720"
         style="fill:#63ac63;fill-rule:evenodd" />
      <rect
         transform="translate(124.0158,425.1969)"
         y="-176.6142"
         x="106.29921"
         height="17.716536"
         width="17.716536"
         id="rect1721"
         style="fill:#84c189;fill-rule:evenodd" />
      <rect
         transform="translate(124.0158,425.1969)"
         y="-212.04724"
         x="35.433071"
         height="17.716536"
         width="17.716536"
         id="rect1722"
         style="fill:#8cc1e3;fill-rule:evenodd" />
      <rect
         transform="translate(124.0158,425.1969)"
         y="-229.76378"
         x="53.149609"
         height="17.716536"
         width="17.716536"
         id="rect1723"
         style="fill:#8cc1e3;fill-rule:evenodd" />
      <rect
         transform="translate(124.0158,425.1969)"
         y="-212.04724"
         x="53.149605"
         height="17.716536"
         width="17.716536"
         id="rect1724"
         style="fill:#7db5d9;fill-rule:evenodd" />
      <rect
         transform="translate(124.0158,425.1969)"
         y="-229.76378"
         x="70.866142"
         height="17.716536"
         width="17.716536"
         id="rect1725"
         style="fill:#81bbe0;fill-rule:evenodd" />
      <rect
         transform="translate(124.0158,425.1969)"
         y="-194.3307"
         x="106.29921"
         height="17.716536"
         width="17.716536"
         id="rect1726"
         style="fill:#81bbe0;fill-rule:evenodd" />
      <rect
         transform="translate(52.83709,-18.02908)"
         y="284.32825"
         x="195.1944"
         height="17.716536"
         width="17.716536"
         id="rect2018"
         style="fill:#44a144;fill-rule:evenodd" />
      <path
         sodipodi:nodetypes="cccccc"
         id="rect2019"
         d="M 195.1944,231.17865 L 195.1944,248.89519 L 212.91093,248.89519 L 212.91093,235.60778 L 208.4818,231.17865 L 195.1944,231.17865 z "
         style="fill:#8cc1e3;fill-rule:evenodd"
         transform="translate(52.83709,-18.02908)" />
      <rect
         transform="translate(52.83709,-18.02908)"
         y="319.76132"
         x="195.1944"
         height="17.716536"
         width="17.716536"
         id="rect2020"
         style="fill:#419a41;fill-rule:evenodd" />
      <rect
         transform="translate(52.83709,-18.02908)"
         y="302.0448"
         x="195.1944"
         height="17.716536"
         width="17.716536"
         id="rect2021"
         style="fill:#44a144;fill-rule:evenodd" />
      <rect
         transform="translate(-17.71655,-35.43305)"
         y="266.29919"
         x="177.16537"
         height="17.716536"
         width="17.716536"
         id="rect2208"
         style="fill:#81bbe0;fill-rule:evenodd" />
      <rect
         transform="translate(-17.71655,-35.43305)"
         y="266.29919"
         x="212.59843"
         height="17.716536"
         width="17.716536"
         id="rect2209"
         style="fill:#81bbe0;fill-rule:evenodd" />
      <rect
         transform="translate(-17.71655,-35.43305)"
         y="248.58266"
         x="230.31497"
         height="17.716536"
         width="17.716536"
         id="rect2210"
         style="fill:#81bbe0;fill-rule:evenodd" />
      <rect
         transform="translate(-17.71655,-35.43305)"
         y="266.29919"
         x="265.74805"
         height="17.716536"
         width="17.716536"
         id="rect2211"
         style="fill:#81bbe0;fill-rule:evenodd" />
      <rect
         transform="translate(-17.71655,-35.43305)"
         y="230.86612"
         x="248.03151"
         height="17.716536"
         width="17.716536"
         id="rect2212"
         style="fill:#81bbe0;fill-rule:evenodd" />
      <rect
         transform="translate(-17.71655,-35.43305)"
         y="284.01575"
         x="265.74805"
         height="17.716536"
         width="17.716536"
         id="rect2213"
         style="fill:#65b08e;fill-rule:evenodd" />
      <path
         sodipodi:nodetypes="cccc"
         id="rect2381"
         d="M 248.03151,195.43307 L 248.03151,213.14961 L 264.34825,213.14961 L 248.03151,195.43307 z "
         style="fill:#81bbe0;fill-rule:evenodd" />
    </g>
    <path
       sodipodi:nodetypes="cccczc"
       id="path1500"
       d="M 4.0033916,3.1057988 L 3.9205742,24.540663 L 21.974882,24.540663 L 21.985235,19.242018 C 21.581497,19.422244 17.502715,12.717842 12.368003,13.006203 C 7.2286295,13.294826 8.5583783,3.9708834 4.0033916,3.1057988 z "
       style="fill:url(#linearGradient1851);fill-opacity:1;fill-rule:evenodd;stroke-width:1pt" />
    <path
       sodipodi:nodetypes="cccc"
       id="path906"
       d="M 22.104373,7.2828881 C 20.718426,6.8066756 18.922552,6.8742018 17.565886,7.1456297 C 17.800131,5.4011327 17.829412,3.2148479 17.507325,1.4363667 L 22.104373,7.2828881 z "
       style="fill:url(#linearGradient1853);fill-opacity:1;fill-rule:evenodd;stroke:#000000;stroke-width:0.6131413;stroke-linecap:round;stroke-linejoin:round;stroke-miterlimit:4;stroke-dasharray:none;stroke-opacity:1" />
    <path
       sodipodi:type="arc"
       style="fill:url(#radialGradient1855);fill-opacity:1;fill-rule:evenodd;stroke-width:1pt"
       id="path1934"
       sodipodi:cx="41.875938"
       sodipodi:cy="37.865574"
       sodipodi:rx="12.562782"
       sodipodi:ry="12.562782"
       d="M 54.438721 37.865574 A 12.562782 12.562782 0 1 1  29.313156,37.865574 A 12.562782 12.562782 0 1 1  54.438721 37.865574 z"
       transform="matrix(0.71346,0,0,0.148988,-15.17096,17.1043)" />
  </g>
  <g
     inkscape:label="Layer 1"
     id="g2985"
     transform="matrix(1.874118,0,0,1.897515,17.78345,18.19943)">
    <g
       transform="matrix(-0.617288,5.663655e-17,-5.750304e-17,-0.626732,8.158527,13.28976)"
       id="g3257">
      <path
         style="fill:url(#linearGradient3269);fill-opacity:1;stroke:#25375f;stroke-width:0.72013777;stroke-linecap:round;stroke-linejoin:round;stroke-miterlimit:4;stroke-dasharray:none;stroke-dashoffset:0;stroke-opacity:1"
         d="M -10.229055,-2.3998263 L 10.960317,-2.3998263 C 11.281394,-2.3998263 11.539878,-2.1413419 11.539878,-1.8202649 L 11.539878,18.7561 C 11.539878,19.077177 11.281394,19.335662 10.960317,19.335662 L -9.1393555,19.335662 C -9.1393555,19.335662 -10.808616,17.666401 -10.808616,17.666401 L -10.808616,-1.8202649 C -10.808616,-2.1413419 -10.550132,-2.3998263 -10.229055,-2.3998263 z "
         id="rect2259"
         sodipodi:nodetypes="ccccccccc" />
      <rect
         style="fill:#ffffff;fill-opacity:1;stroke:none;stroke-width:1;stroke-linecap:butt;stroke-linejoin:miter;stroke-miterlimit:4;stroke-dashoffset:0;stroke-opacity:1"
         id="rect2328"
         width="16.345493"
         height="12.531545"
         x="-7.8087015"
         y="-2.1642222" />
      <rect
         ry="0.10612532"
         rx="0.1090941"
         y="-2.1642222"
         x="-7.8087015"
         height="2.179399"
         width="16.345493"
         id="rect2330"
         style="fill:#d31c00;fill-opacity:1;stroke:none;stroke-width:1;stroke-linecap:butt;stroke-linejoin:miter;stroke-miterlimit:4;stroke-dashoffset:0;stroke-opacity:1" />
      <rect
         style="opacity:0.73863639;fill:#000000;fill-opacity:1;stroke:none;stroke-width:1;stroke-linecap:butt;stroke-linejoin:miter;stroke-miterlimit:4;stroke-dashoffset:0;stroke-opacity:1"
         id="rect2332"
         width="1.0896995"
         height="1.0896995"
         x="-9.4432507"
         y="-1.0745225"
         rx="0.1090941"
         ry="0.10612532" />
      <path
         style="opacity:0.13068177;fill:#000000;fill-opacity:1;stroke:#000000;stroke-width:0.24404912;stroke-linecap:butt;stroke-linejoin:miter;stroke-miterlimit:4;stroke-dashoffset:0;stroke-opacity:1"
         d="M -6.7190023,2.4670007 L 7.4470913,2.4670007"
         id="path2334" />
      <path
         id="path2336"
         d="M -6.7190023,5.1912495 L 7.4470913,5.1912495"
         style="opacity:0.13068177;fill:#000000;fill-opacity:1;stroke:#000000;stroke-width:0.24404912;stroke-linecap:butt;stroke-linejoin:miter;stroke-miterlimit:4;stroke-dashoffset:0;stroke-opacity:1" />
      <path
         style="opacity:0.13068177;fill:#000000;fill-opacity:1;stroke:#000000;stroke-width:0.24404912;stroke-linecap:butt;stroke-linejoin:miter;stroke-miterlimit:4;stroke-dashoffset:0;stroke-opacity:1"
         d="M -6.7190023,7.9154984 L 7.4470913,7.9154984"
         id="path2338" />
      <path
         style="opacity:0.59659095;fill:none;fill-opacity:1;stroke:#ffffff;stroke-width:0.24404912;stroke-linecap:round;stroke-linejoin:miter;stroke-miterlimit:4;stroke-dashoffset:0;stroke-opacity:1"
         d="M -10.19573,-1.8767242 L 10.927267,-1.8767242 C 10.965362,-1.8767242 10.996031,-1.8460554 10.996031,-1.80796 L 10.996031,18.704673 C 10.996031,18.742769 10.965362,18.773438 10.927267,18.773438 L -8.937477,18.773438 C -8.937477,18.773438 -10.264495,17.470499 -10.264495,17.470499 L -10.264495,-1.80796 C -10.264495,-1.8460554 -10.233826,-1.8767242 -10.19573,-1.8767242 z "
         id="rect2273"
         sodipodi:nodetypes="ccccccccc" />
      <path
         style="fill:url(#linearGradient3273);fill-opacity:1;stroke:#525252;stroke-width:0.24404898;stroke-linecap:butt;stroke-linejoin:miter;stroke-miterlimit:4;stroke-dashoffset:0;stroke-opacity:1"
         d="M -5.0223582,11.218477 L 5.7383286,11.218477 C 6.2221394,11.218477 6.6116334,11.62761 6.6116334,12.135815 L 6.6116334,19.328677 C 6.6116334,19.328677 -5.895663,19.328677 -5.895663,19.328677 L -5.895663,12.135815 C -5.895663,11.62761 -5.5061689,11.218477 -5.0223582,11.218477 z "
         id="rect2340"
         sodipodi:nodetypes="ccccccc" />
      <rect
         style="fill:#4967a2;fill-opacity:1;stroke:#525252;stroke-width:0.244049;stroke-linecap:butt;stroke-linejoin:miter;stroke-miterlimit:4;stroke-dashoffset:0;stroke-opacity:1"
         id="rect2359"
         width="2.7404594"
         height="5.4844413"
         x="-3.7417912"
         y="12.25065"
         rx="0.64934427"
         ry="0.63167429" />
    </g>
  </g>
</svg>
