<?xml version="1.0" encoding="UTF-8" standalone="no"?>
<!-- Created with Inkscape (http://www.inkscape.org/) -->
<svg
   xmlns:dc="http://purl.org/dc/elements/1.1/"
   xmlns:cc="http://web.resource.org/cc/"
   xmlns:rdf="http://www.w3.org/1999/02/22-rdf-syntax-ns#"
   xmlns:svg="http://www.w3.org/2000/svg"
   xmlns="http://www.w3.org/2000/svg"
   xmlns:xlink="http://www.w3.org/1999/xlink"
   xmlns:sodipodi="http://sodipodi.sourceforge.net/DTD/sodipodi-0.dtd"
   xmlns:inkscape="http://www.inkscape.org/namespaces/inkscape"
   id="svg1"
   sodipodi:version="0.32"
   inkscape:version="0.45.1"
   width="1.0000000cm"
   height="1.0000000cm"
   sodipodi:docbase="C:\Radix\dev\trunk\org.radixware\kernel\designer\src\common.resources\src\org\radixware\kernel\designer\resources\icons\unused"
   sodipodi:docname="designer.svg"
   inkscape:output_extension="org.inkscape.output.svg.inkscape">
  <defs
     id="defs3">
    <linearGradient
       id="linearGradient2267">
      <stop
         style="stop-color:#000000;stop-opacity:1.0000000;"
         offset="0.0000000"
         id="stop2268" />
      <stop
         style="stop-color:#000000;stop-opacity:0.0000000;"
         offset="1.0000000"
         id="stop2271" />
    </linearGradient>
    <linearGradient
       id="linearGradient2064">
      <stop
         style="stop-color:#c31f1f;stop-opacity:1.0000000;"
         offset="0.0000000"
         id="stop2065" />
      <stop
         style="stop-color:#e86d6d;stop-opacity:1.0000000;"
         offset="1.0000000"
         id="stop2066" />
    </linearGradient>
    <linearGradient
       id="linearGradient2053">
      <stop
         style="stop-color:#7c0000;stop-opacity:1.0000000;"
         offset="0.0000000"
         id="stop2054" />
      <stop
         style="stop-color:#901111;stop-opacity:1.0000000;"
         offset="1.0000000"
         id="stop2059" />
    </linearGradient>
    <linearGradient
       id="linearGradient2038">
      <stop
         style="stop-color:#996600;stop-opacity:1.0000000;"
         offset="0.0000000"
         id="stop2039" />
      <stop
         style="stop-color:#996400;stop-opacity:1.0000000;"
         offset="0.25000000"
         id="stop2040" />
      <stop
         style="stop-color:#be7c00;stop-opacity:1.0000000;"
         offset="0.50000000"
         id="stop2041" />
      <stop
         style="stop-color:#ffa800;stop-opacity:1.0000000;"
         offset="1.0000000"
         id="stop2042" />
    </linearGradient>
    <linearGradient
       id="linearGradient1543">
      <stop
         style="stop-color:#690000;stop-opacity:1.0000000;"
         offset="0.0000000"
         id="stop1544" />
      <stop
         style="stop-color:#850000;stop-opacity:1.0000000;"
         offset="0.25000000"
         id="stop1548" />
      <stop
         style="stop-color:#a40000;stop-opacity:1.0000000;"
         offset="0.50000000"
         id="stop1547" />
      <stop
         style="stop-color:#de3a3a;stop-opacity:1.0000000;"
         offset="0.70218045"
         id="stop2048" />
      <stop
         style="stop-color:#f39f9f;stop-opacity:1.0000000;"
         offset="0.87500000"
         id="stop2049" />
      <stop
         style="stop-color:#ad0000;stop-opacity:1.0000000;"
         offset="1.0000000"
         id="stop1545" />
    </linearGradient>
    <linearGradient
       inkscape:collect="always"
       xlink:href="#linearGradient1543"
       id="linearGradient2047"
       x1="0.74719101"
       y1="0.70056498"
       x2="0.33707866"
       y2="0.29378530"
       spreadMethod="pad" />
    <linearGradient
       inkscape:collect="always"
       xlink:href="#linearGradient2064"
       id="linearGradient2062"
       x1="-5.4956040e-15"
       y1="0.50000000"
       x2="1.0000000"
       y2="0.50000000"
       spreadMethod="pad" />
    <linearGradient
       inkscape:collect="always"
       xlink:href="#linearGradient2053"
       id="linearGradient2067"
       x1="5.7592819e-16"
       y1="0.50000000"
       x2="1.0000000"
       y2="0.50000000" />
    <radialGradient
       inkscape:collect="always"
       xlink:href="#linearGradient2267"
       id="radialGradient2266"
       cx="0.50000000"
       cy="0.50000000"
       r="0.59605122"
       fx="0.50000000"
       fy="0.50000000" />
    <linearGradient
       inkscape:collect="always"
       xlink:href="#linearGradient2038"
       id="linearGradient1580"
       x1="0.44186047"
       y1="0.55468750"
       x2="0.53488374"
       y2="0.46093750" />
  </defs>
  <sodipodi:namedview
     id="base"
     pagecolor="#ffffff"
     bordercolor="#666666"
     borderopacity="1.0"
     inkscape:pageopacity="0.0"
     inkscape:pageshadow="2"
     inkscape:zoom="19.647765"
     inkscape:cx="19.915920"
     inkscape:cy="15.296684"
     inkscape:window-width="1046"
     inkscape:window-height="848"
     inkscape:window-x="21"
     inkscape:window-y="19"
     showgrid="false"
     inkscape:grid-bbox="false"
     showguides="false"
     inkscape:guide-bbox="false" />
  <metadata
     id="metadata4">
    <rdf:RDF>
      <cc:Work
         rdf:about="">
        <dc:format>image/svg+xml</dc:format>
        <dc:type
           rdf:resource="http://purl.org/dc/dcmitype/StillImage" />
      </cc:Work>
    </rdf:RDF>
  </metadata>
  <path
     sodipodi:type="inkscape:offset"
     inkscape:radius="0.22475418"
     inkscape:original="M 22.687500 -2.6250000 L 18.687500 1.3437500 L 18.187500 0.84375000 C 17.491420 0.14415999 16.574480 -0.040970004 16.125000 0.40625000 L 13.812500 2.6875000 C 13.363010 3.1347201 13.553930 4.0504100 14.250000 4.7500000 L 14.750000 5.2500000 L 11.562500 8.4062500 L 11.656250 11.937500 L 14.187500 14.125000 L 18.906250 9.4375000 L 23.812500 14.343750 L 22.187500 15.843750 C 21.283220 15.146510 20.197090 14.656250 18.968750 14.656250 C 16.683520 14.656250 14.750600 16.115180 13.968750 18.125000 L 18.843750 18.125000 L 20.812500 20.187500 L 18.843750 22.156250 L 14.000000 22.156250 C 14.817950 24.089050 16.739060 25.437500 18.968750 25.437500 C 21.941670 25.437500 24.343750 23.035430 24.343750 20.062500 C 24.343740 19.972820 24.285570 19.901140 24.281250 19.812500 L 26.875000 17.406250 L 30.218750 20.781250 L 29.500000 21.125000 L 23.218750 27.343750 L 27.218750 31.375000 L 33.468750 25.156250 L 33.843750 24.437500 L 38.843750 29.437500 C 39.539810 30.137080 40.456770 30.353470 40.906250 29.906250 L 43.218750 27.625000 C 43.668230 27.177770 43.446070 26.262090 42.750000 25.562500 L 36.812500 19.593750 L 41.718750 14.562500 L 43.531250 14.343750 L 44.187500 11.718750 L 43.031250 10.562500 L 40.406250 11.375000 L 40.312500 13.218750 L 35.125000 17.906250 L 30.937500 13.656250 L 33.125000 11.625000 C 34.074460 12.478110 35.313010 13.031250 36.687500 13.031250 C 38.982260 13.031250 40.912230 11.585610 41.687500 9.5625000 L 36.843750 9.5625000 L 34.843750 7.5937500 L 36.843750 5.5312500 L 41.625000 5.4687500 C 40.791900 3.5706798 38.892040 2.2500000 36.687500 2.2500000 C 33.825620 2.2500001 31.545300 4.4941400 31.375000 7.3125000 L 27.843750 10.562500 L 22.843750 5.5312500 L 26.937500 1.4687500 L 22.687500 -2.6250000 z "
     style="fill:url(#radialGradient2266);fill-opacity:1.0000000;fill-rule:evenodd;stroke:none;stroke-width:1.0000000pt;stroke-linecap:butt;stroke-linejoin:miter;stroke-opacity:1.0000000;"
     id="path1642"
     d="M 22.593750,-2.8437500 C 22.582332,-2.8343851 22.571865,-2.8239179 22.562500,-2.8125000 C 22.551082,-2.8031351 22.540615,-2.7926679 22.531250,-2.7812500 L 18.687500,1.0312500 L 18.343750,0.68750000 C 17.967898,0.30975282 17.549091,0.057374574 17.125000,-0.031250000 C 16.700909,-0.11987457 16.258652,-0.038444478 15.968750,0.25000000 L 13.656250,2.5312500 C 13.365856,2.8201774 13.285585,3.2324971 13.375000,3.6562500 C 13.464415,4.0800029 13.718380,4.5289820 14.093750,4.9062500 L 14.437500,5.2500000 L 11.406250,8.2500000 C 11.372664,8.2839671 11.350772,8.3277508 11.343750,8.3750000 C 11.343025,8.3854041 11.343025,8.3958459 11.343750,8.4062500 L 11.437500,11.937500 C 11.434589,11.958232 11.434589,11.979268 11.437500,12.000000 C 11.444595,12.022335 11.455139,12.043423 11.468750,12.062500 C 11.478115,12.073918 11.488582,12.084385 11.500000,12.093750 L 14.031250,14.281250 C 14.040615,14.292668 14.051082,14.303135 14.062500,14.312500 C 14.081577,14.326111 14.102665,14.336655 14.125000,14.343750 C 14.155903,14.350339 14.187847,14.350339 14.218750,14.343750 C 14.265999,14.336728 14.309783,14.314836 14.343750,14.281250 L 18.906250,9.7500000 L 23.500000,14.343750 L 22.156250,15.562500 C 21.252051,14.901469 20.190025,14.437500 18.968750,14.437500 C 16.587862,14.437500 14.563904,15.939033 13.750000,18.031250 C 13.747089,18.051982 13.747089,18.073018 13.750000,18.093750 C 13.743411,18.124653 13.743411,18.156597 13.750000,18.187500 C 13.757095,18.209835 13.767639,18.230923 13.781250,18.250000 C 13.790615,18.261418 13.801082,18.271885 13.812500,18.281250 C 13.821865,18.292668 13.832332,18.303135 13.843750,18.312500 C 13.862827,18.326111 13.883915,18.336655 13.906250,18.343750 C 13.926982,18.346661 13.948018,18.346661 13.968750,18.343750 L 18.750000,18.343750 L 20.500000,20.187500 L 18.750000,21.937500 L 14.000000,21.937500 C 13.989596,21.936775 13.979154,21.936775 13.968750,21.937500 C 13.921501,21.944522 13.877717,21.966414 13.843750,22.000000 C 13.832332,22.009365 13.821865,22.019832 13.812500,22.031250 C 13.795258,22.059795 13.784583,22.091819 13.781250,22.125000 C 13.774661,22.155903 13.774661,22.187847 13.781250,22.218750 C 13.780525,22.229154 13.780525,22.239596 13.781250,22.250000 C 14.633804,24.264569 16.648444,25.656250 18.968750,25.656250 C 22.062735,25.656250 24.562500,23.156495 24.562500,20.062500 C 24.562491,19.982152 24.547110,19.917561 24.531250,19.875000 L 26.875000,17.718750 L 29.843750,20.718750 L 29.406250,20.937500 C 29.395846,20.936775 29.385404,20.936775 29.375000,20.937500 C 29.363582,20.946865 29.353115,20.957332 29.343750,20.968750 L 23.062500,27.187500 C 23.028914,27.221467 23.007022,27.265251 23.000000,27.312500 C 22.997089,27.333232 22.997089,27.354268 23.000000,27.375000 C 23.003333,27.408181 23.014008,27.440205 23.031250,27.468750 C 23.040615,27.480168 23.051082,27.490635 23.062500,27.500000 L 27.062500,31.531250 C 27.096467,31.564836 27.140251,31.586728 27.187500,31.593750 C 27.218403,31.600339 27.250347,31.600339 27.281250,31.593750 C 27.303585,31.586655 27.324673,31.576111 27.343750,31.562500 C 27.355168,31.553135 27.365635,31.542668 27.375000,31.531250 L 33.625000,25.312500 C 33.638611,25.293423 33.649155,25.272335 33.656250,25.250000 L 33.906250,24.812500 L 38.687500,29.593750 C 39.062163,29.970308 39.483074,30.215189 39.906250,30.312500 C 40.329426,30.409811 40.770741,30.352792 41.062500,30.062500 L 43.375000,27.781250 C 43.667231,27.490481 43.723092,27.047826 43.625000,26.625000 C 43.526908,26.202174 43.280434,25.782326 42.906250,25.406250 L 37.125000,19.593750 L 41.812500,14.781250 L 43.562500,14.562500 C 43.572904,14.563225 43.583346,14.563225 43.593750,14.562500 C 43.616085,14.555405 43.637173,14.544861 43.656250,14.531250 C 43.667668,14.521885 43.678135,14.511418 43.687500,14.500000 C 43.698918,14.490635 43.709385,14.480168 43.718750,14.468750 C 43.732361,14.449673 43.742905,14.428585 43.750000,14.406250 L 44.406250,11.781250 C 44.409161,11.760518 44.409161,11.739482 44.406250,11.718750 C 44.408255,11.674927 44.397391,11.631474 44.375000,11.593750 C 44.365635,11.582332 44.355168,11.571865 44.343750,11.562500 L 43.187500,10.406250 C 43.153533,10.372664 43.109749,10.350772 43.062500,10.343750 C 43.031597,10.337161 42.999653,10.337161 42.968750,10.343750 L 41.218750,10.875000 C 41.489352,10.491902 41.735638,10.101470 41.906250,9.6562500 C 41.912839,9.6253474 41.912839,9.5934026 41.906250,9.5625000 C 41.909161,9.5417683 41.909161,9.5207317 41.906250,9.5000000 C 41.899155,9.4776650 41.888611,9.4565769 41.875000,9.4375000 C 41.865635,9.4260821 41.855168,9.4156149 41.843750,9.4062500 C 41.834385,9.3948321 41.823918,9.3843649 41.812500,9.3750000 C 41.793423,9.3613890 41.772335,9.3508449 41.750000,9.3437500 C 41.729268,9.3408395 41.708232,9.3408395 41.687500,9.3437500 L 36.937500,9.3437500 L 35.156250,7.5937500 L 36.937500,5.7500000 L 41.625000,5.6875000 C 41.645732,5.6904105 41.666768,5.6904105 41.687500,5.6875000 C 41.709835,5.6804051 41.730923,5.6698610 41.750000,5.6562500 C 41.761418,5.6468851 41.771885,5.6364179 41.781250,5.6250000 C 41.792668,5.6156351 41.803135,5.6051679 41.812500,5.5937500 C 41.834891,5.5560256 41.845755,5.5125734 41.843750,5.4687500 C 41.846661,5.4480183 41.846661,5.4269817 41.843750,5.4062500 C 41.844475,5.3958459 41.844475,5.3854041 41.843750,5.3750000 C 40.975530,3.3969150 38.981803,2.0312500 36.687500,2.0312500 C 33.751327,2.0312501 31.424717,4.3154697 31.187500,7.1875000 L 27.843750,10.250000 L 23.156250,5.5312500 L 27.093750,1.6250000 C 27.127336,1.5910329 27.149228,1.5472492 27.156250,1.5000000 C 27.162839,1.4690974 27.162839,1.4371526 27.156250,1.4062500 C 27.149155,1.3839150 27.138611,1.3628269 27.125000,1.3437500 C 27.115635,1.3323321 27.105168,1.3218649 27.093750,1.3125000 L 22.843750,-2.7812500 C 22.834385,-2.7926679 22.823918,-2.8031351 22.812500,-2.8125000 C 22.774776,-2.8348915 22.731323,-2.8457545 22.687500,-2.8437500 C 22.666768,-2.8466605 22.645732,-2.8466605 22.625000,-2.8437500 C 22.614596,-2.8444750 22.604154,-2.8444750 22.593750,-2.8437500 z M 33.125000,11.906250 C 34.090775,12.719630 35.322717,13.250000 36.687500,13.250000 C 38.008080,13.250000 39.205465,12.798766 40.156250,12.031250 L 40.093750,13.125000 L 35.125000,17.593750 L 31.250000,13.656250 L 33.125000,11.906250 z "
     transform="matrix(0.960694,0.000000,0.000000,0.960694,-8.735471,4.550289)" />
  <g
     id="Hammer"
     transform="matrix(0.960694,0.000000,0.000000,0.960694,-5.645861e-2,-0.522653)">
    <path
       style="fill:url(#linearGradient1580);fill-opacity:1.0000000;fill-rule:nonzero;stroke:none;stroke-width:1.0000000pt;stroke-linecap:butt;stroke-linejoin:miter;stroke-opacity:1.0000000;"
       d="M 8.5144393,4.7847801 C 7.7915781,4.0548957 6.8321082,3.8411952 6.3631594,4.3056306 L 4.1275418,6.5197379 C 3.6585930,6.9841733 3.8630067,7.9456654 4.5858679,8.6755498 L 29.004336,33.331260 C 29.727197,34.061144 30.686668,34.274845 31.155615,33.810409 L 33.391234,31.596303 C 33.860181,31.131867 33.655769,30.170374 32.932906,29.440490 L 8.5144393,4.7847801 z "
       id="rect1542" />
    <path
       style="fill:#000000;fill-opacity:1.0000000;fill-rule:evenodd;stroke:none;stroke-width:1.0000000pt;stroke-linecap:butt;stroke-linejoin:miter;stroke-opacity:1.0000000;"
       d="M 12.932218,1.2702994 L 1.8007722,12.315200 L 1.9020243,15.853068 L 4.4325451,18.041343 L 17.183503,5.3769300 L 12.932218,1.2702994 z "
       id="rect919"
       sodipodi:nodetypes="cccccc" />
  </g>
  <g
     id="Screwdriver"
     transform="matrix(0.960694,0.000000,0.000000,0.960694,0.134403,-1.368925e-2)">
    <path
       style="fill:#ffffff;fill-opacity:1.0000000;fill-rule:evenodd;stroke:#676767;stroke-width:0.62500000;stroke-linecap:butt;stroke-linejoin:miter;stroke-miterlimit:4.0000000;stroke-opacity:1.0000000;"
       d="M 23.099957,23.849307 L 30.568008,17.121341 L 30.652916,15.273915 L 33.286630,14.482442 L 34.442586,15.621171 L 33.793802,18.248941 L 31.954913,18.478822 L 24.949976,25.689262 L 23.099957,23.849307 z "
       id="path2032"
       sodipodi:nodetypes="ccccccccc" />
    <path
       style="fill:url(#linearGradient2047);fill-opacity:1.0000000;fill-rule:evenodd;stroke:none;stroke-width:1.0000000pt;stroke-linecap:butt;stroke-linejoin:miter;stroke-opacity:1.0000000;"
       d="M 23.088436,23.332974 L 19.755971,25.029384 L 13.478419,31.236446 L 17.455224,35.275579 L 23.732776,29.068516 L 25.487144,25.769276 L 23.088436,23.332974 z "
       id="rect2030"
       sodipodi:nodetypes="ccccccc" />
    <path
       style="fill:none;fill-opacity:0.75000000;fill-rule:evenodd;stroke:#000000;stroke-width:0.43750000;stroke-linecap:butt;stroke-linejoin:miter;stroke-miterlimit:4.0000000;stroke-opacity:1.0000000;"
       d="M 23.248675,23.245145 L 25.580036,25.576505"
       id="path2050" />
    <rect
       style="fill:url(#linearGradient2062);fill-opacity:1.0000000;fill-rule:evenodd;stroke:none;stroke-width:1.0000000pt;stroke-linecap:butt;stroke-linejoin:miter;stroke-opacity:1.0000000;"
       id="rect2051"
       width="1.0179269"
       height="7.8253131"
       x="33.090748"
       y="3.4059072"
       transform="matrix(0.703059,0.711132,-0.711132,0.703059,0.000000,0.000000)"
       ry="0.52978730"
       rx="0.52978730" />
    <rect
       style="fill:url(#linearGradient2067);fill-opacity:1.0000000;fill-rule:evenodd;stroke:none;stroke-width:1.0000000pt;stroke-linecap:butt;stroke-linejoin:miter;stroke-opacity:1.0000000;"
       id="rect2063"
       width="0.83772790"
       height="7.7813601"
       x="35.699944"
       y="3.3910148"
       transform="matrix(0.703059,0.711132,-0.711132,0.703059,0.000000,0.000000)"
       ry="0.52978766"
       rx="0.43600151" />
  </g>
  <path
     style="fill:#ffffff;fill-opacity:1.0000000;fill-rule:evenodd;stroke:#000000;stroke-width:0.96069378;stroke-linecap:butt;stroke-linejoin:miter;stroke-miterlimit:4.0000000;stroke-opacity:1.0000000;"
     d="M 25.944469,5.6822123 C 23.195087,5.6822123 21.004386,7.8381461 20.840784,10.545725 L 12.014409,18.741644 C 11.145681,18.071813 10.102240,17.600820 8.9221762,17.600820 C 6.7267778,17.600820 4.8698256,19.002400 4.1187072,20.933226 L 8.8020895,20.933226 L 10.693455,22.914657 L 8.8020895,24.806023 L 4.1487289,24.806023 C 4.9345368,26.662858 6.7801222,27.958300 8.9221762,27.958300 C 11.778248,27.958300 14.085905,25.650643 14.085905,22.794571 C 14.085905,22.708422 14.030013,22.639552 14.025862,22.554397 L 22.521998,14.688717 C 23.434150,15.508299 24.624007,16.039692 25.944469,16.039692 C 28.149037,16.039692 30.003144,14.650870 30.747938,12.707286 L 26.094578,12.707286 L 24.173190,10.815920 L 26.094578,8.8344888 L 30.687895,8.7744454 C 29.887546,6.9509836 28.062361,5.6822123 25.944469,5.6822123 z "
     id="path1975" />
  <path
     style="fill:none;fill-opacity:0.75000000;fill-rule:evenodd;stroke:#000000;stroke-width:0.60043365;stroke-linecap:butt;stroke-linejoin:miter;stroke-miterlimit:4.0000000;stroke-opacity:1.0000000;"
     d="M 20.944216,12.288221 L 13.243914,19.359240"
     id="path2024" />
  <path
     style="fill:none;fill-opacity:0.75000000;fill-rule:evenodd;stroke:#000000;stroke-width:0.60043365;stroke-linecap:butt;stroke-linejoin:miter;stroke-miterlimit:4.0000000;stroke-opacity:1.0000000;"
     d="M 21.939341,13.401814 L 14.239039,20.472832"
     id="path2025" />
</svg>
