<?xml version="1.0" encoding="UTF-8" standalone="no"?>
<!-- Created with Inkscape (http://www.inkscape.org/) -->
<svg
   xmlns:dc="http://purl.org/dc/elements/1.1/"
   xmlns:cc="http://web.resource.org/cc/"
   xmlns:rdf="http://www.w3.org/1999/02/22-rdf-syntax-ns#"
   xmlns:svg="http://www.w3.org/2000/svg"
   xmlns="http://www.w3.org/2000/svg"
   xmlns:sodipodi="http://sodipodi.sourceforge.net/DTD/sodipodi-0.dtd"
   xmlns:inkscape="http://www.inkscape.org/namespaces/inkscape"
   width="32px"
   height="32px"
   id="svg1307"
   sodipodi:version="0.32"
   inkscape:version="0.45.1"
   sodipodi:docbase="C:\Radix\dev\trunk\org.radixware\kernel\designer\src\common.resources\src\org\radixware\kernel\designer\resources\icons\unused"
   sodipodi:docname="java.svg"
   inkscape:output_extension="org.inkscape.output.svg.inkscape">
  <defs
     id="defs1309" />
  <sodipodi:namedview
     id="base"
     pagecolor="#ffffff"
     bordercolor="#666666"
     borderopacity="1.0"
     inkscape:pageopacity="0.0"
     inkscape:pageshadow="2"
     inkscape:zoom="11.197802"
     inkscape:cx="16"
     inkscape:cy="13.767449"
     inkscape:current-layer="layer1"
     showgrid="true"
     inkscape:grid-bbox="true"
     inkscape:document-units="px"
     showguides="true"
     inkscape:guide-bbox="true"
     inkscape:window-width="859"
     inkscape:window-height="540"
     inkscape:window-x="176"
     inkscape:window-y="232">
    <sodipodi:guide
       orientation="horizontal"
       position="0.41100917"
       id="guide5702" />
  </sodipodi:namedview>
  <metadata
     id="metadata1312">
    <rdf:RDF>
      <cc:Work
         rdf:about="">
        <dc:format>image/svg+xml</dc:format>
        <dc:type
           rdf:resource="http://purl.org/dc/dcmitype/StillImage" />
      </cc:Work>
    </rdf:RDF>
  </metadata>
  <g
     id="layer1"
     inkscape:label="Layer 1"
     inkscape:groupmode="layer">
    <path
       style="fill:#2c006c;fill-opacity:1;fill-rule:evenodd;stroke:#2c006c;stroke-width:0.5;stroke-linecap:butt;stroke-linejoin:miter;stroke-miterlimit:4;stroke-dasharray:none;stroke-opacity:1"
       d="M 5.9488601,24.79112 C 3.8909935,24.95739 1.0043201,25.141663 0.59656657,26.616808 C 0.63521267,28.381704 4.3808937,30.010225 8.6228597,30.410698 C 11.86689,30.856641 14.906645,30.849191 18.564144,30.469414 C 21.333599,30.238389 25.26265,27.643875 25.359869,26.205799 C 22.897168,28.094883 21.212222,28.503427 18.536016,28.967266 C 14.556811,29.203236 13.337239,29.082752 8.5947317,28.732404 C 4.2279603,28.138887 3.8021744,27.963794 3.0662913,27.027817 C 2.756113,25.644411 4.3472738,25.705179 5.9488601,24.79112 z "
       id="path1315"
       sodipodi:nodetypes="ccccccccc" />
    <path
       style="fill:#2c006c;fill-opacity:1;fill-rule:evenodd;stroke:#2c006c;stroke-width:0.5;stroke-linecap:butt;stroke-linejoin:miter;stroke-miterlimit:4;stroke-dasharray:none;stroke-opacity:1"
       d="M 7.7844766,22.425056 C 5.8740062,23.516857 5.0118858,24.541227 8.4340176,26.190193 C 10.127421,27.009525 15.18711,27.182815 17.490899,26.36634 C 19.101785,25.669162 21.853596,24.983991 19.393651,23.97368 C 18.62976,24.964166 14.018094,26.349181 9.5514499,25.03056 C 6.0372965,23.923161 6.7584991,23.295103 7.7844766,22.425056 z "
       id="path3071"
       sodipodi:nodetypes="cccccc" />
    <path
       style="fill:#2c006c;fill-opacity:1;fill-rule:evenodd;stroke:#2c006c;stroke-width:0.55235022;stroke-linecap:butt;stroke-linejoin:miter;stroke-miterlimit:4;stroke-dasharray:none;stroke-opacity:1"
       d="M 6.2808075,18.276175 C 1.696283,19.661554 6.0171931,21.860236 8.9036599,22.804615 C 12.474969,23.741379 16.031253,23.327512 18.842712,22.511037 C 20.808578,21.813859 23.665207,20.952541 20.66318,19.94223 C 19.730956,20.932716 14.871346,22.728741 9.4204179,21.41012 C 7.1381966,20.71373 4.5311754,20.085672 6.2808075,18.276175 z "
       id="path3946"
       sodipodi:nodetypes="cccccc" />
    <path
       style="fill:#2c006c;fill-opacity:1;fill-rule:evenodd;stroke:#2c006c;stroke-width:0.5;stroke-linecap:butt;stroke-linejoin:miter;stroke-miterlimit:4;stroke-dasharray:none;stroke-opacity:1"
       d="M 9.0395959,14.25 C -0.092892878,15.987673 3.5660877,17.540483 6.6359263,18.543577 C 9.797219,19.597772 20.258742,20.240787 23.619412,15.96009 C 19.945894,17.670253 14.605702,18.145333 7.2249176,17.149082 C 4.9437919,16.687555 3.7273799,15.531056 9.0395959,14.25 z "
       id="path3948"
       sodipodi:nodetypes="ccccc" />
    <path
       style="fill:#2c006c;fill-opacity:1;fill-rule:evenodd;stroke:#2c006c;stroke-width:0.5;stroke-linecap:butt;stroke-linejoin:miter;stroke-miterlimit:4;stroke-dasharray:none;stroke-opacity:1"
       d="M 23.182642,14.823221 C 33.450756,15.573419 27.009623,21.580938 22.437688,24.342487 C 28.934436,23.286781 35.921415,13.65493 23.182642,14.823221 z "
       id="path3950"
       sodipodi:nodetypes="ccc" />
    <path
       style="fill:#990808;fill-opacity:1;fill-rule:evenodd;stroke:#990808;stroke-width:0.5;stroke-linecap:butt;stroke-linejoin:miter;stroke-miterlimit:4;stroke-dasharray:none;stroke-opacity:1"
       d="M 16.011541,16.699493 C 19.28503,15.226399 22.123589,13.520499 19.187688,10.697658 C 17.772306,8.2410584 21.468916,6.9788958 24.011541,5.1086674 C 18.465738,6.3403312 17.365965,7.5053848 16.950991,9.6371078 C 16.568526,13.701358 18.515543,13.644984 16.011541,16.699493 z "
       id="path3952"
       sodipodi:nodetypes="ccccc" />
    <path
       style="fill:#990808;fill-opacity:1;fill-rule:evenodd;stroke:#990808;stroke-width:0.5;stroke-linecap:butt;stroke-linejoin:miter;stroke-miterlimit:4;stroke-dasharray:none;stroke-opacity:1"
       d="M 15.106495,16.739401 C 13.389159,13.739702 11.941479,13.677838 12.117505,11.20729 C 12.111297,8.6919755 18.332678,5.0224733 17.704661,1.1559147 C 15.446931,6.4389546 9.826057,8.4847422 10.174385,11.732061 C 9.793871,12.965828 12.329534,15.140351 15.106495,16.739401 z "
       id="path5700"
       sodipodi:nodetypes="ccccc" />
  </g>
</svg>
