<?xml version="1.0" encoding="utf-8"?>
<!-- Generator: Adobe Illustrator 14.0.0, SVG Export Plug-In . SVG Version: 6.00 Build 43363)  -->
<!DOCTYPE svg PUBLIC "-//W3C//DTD SVG 1.1//EN" "http://www.w3.org/Graphics/SVG/1.1/DTD/svg11.dtd">
<svg version="1.1"
	 id="svg1307" sodipodi:docbase="C:\Radix\dev\trunk\org.radixware\kernel\designer\src\common.resources\src\org\radixware\kernel\designer\resources\icons\template" sodipodi:docname="inherit.svg" inkscape:version="0.45.1" sodipodi:version="0.32" inkscape:output_extension="org.inkscape.output.svg.inkscape" xmlns:ns="http://creativecommons.org/ns#" xmlns:dc="http://purl.org/dc/elements/1.1/" xmlns:cc="http://web.resource.org/cc/" xmlns:rdf="http://www.w3.org/1999/02/22-rdf-syntax-ns#" xmlns:svg="http://www.w3.org/2000/svg" xmlns:sodipodi="http://sodipodi.sourceforge.net/DTD/sodipodi-0.dtd" xmlns:inkscape="http://www.inkscape.org/namespaces/inkscape"
	 xmlns="http://www.w3.org/2000/svg" xmlns:xlink="http://www.w3.org/1999/xlink" x="0px" y="0px" width="32px" height="32px"
	 viewBox="0 0 32 32" enable-background="new 0 0 32 32" xml:space="preserve">
<sodipodi:namedview  id="base" pagecolor="#ffffff" bordercolor="#666666" borderopacity="1.0" showgrid="true" inkscape:zoom="7" inkscape:cx="36.573721" inkscape:cy="17.267812" inkscape:current-layer="layer1" inkscape:pageopacity="0.0" inkscape:pageshadow="2" inkscape:window-width="1280" inkscape:window-height="944" inkscape:window-x="-8" inkscape:window-y="-8" inkscape:document-units="px" inkscape:grid-bbox="true">
	</sodipodi:namedview>
<g>
	<path id="path6086_3_" fill="#211F1F" d="M6.533,13.068c-0.09,0-0.18-0.017-0.264-0.046l-5.746-2.04C0.21,10.871,0,10.574,0,10.242
		v-7.44c0-0.402,0.305-0.734,0.695-0.778l5.576-1.979C6.355,0.016,6.443,0,6.534,0c0.089,0,0.179,0.017,0.262,0.045l5.644,2.002
		c0.346,0.093,0.629,0.396,0.629,0.756v7.439c0,0.333-0.209,0.63-0.522,0.74l-5.749,2.04C6.711,13.052,6.622,13.068,6.533,13.068
		L6.533,13.068z"/>
	<polygon id="polygon5202_8_" fill="#AA3D25" points="0.793,2.802 6.541,4.841 6.541,12.282 0.793,10.242 	"/>
	<polygon id="polygon5204_8_" fill="#E9B6AE" points="12.287,2.802 6.541,4.841 6.541,12.282 12.287,10.242 	"/>
	<polygon id="polygon5206_8_" fill="#DF8078" points="12.229,2.802 6.541,0.786 0.854,2.802 0.793,2.802 0.82,2.813 0.793,2.824 
		0.854,2.824 6.541,4.841 12.229,2.824 12.287,2.824 12.26,2.813 12.287,2.802 	"/>
	
		<linearGradient id="polygon6538_1_" gradientUnits="userSpaceOnUse" x1="1564.2246" y1="-2129.729" x2="1571.1379" y2="-2122.8794" gradientTransform="matrix(0.5772 0 0 -0.5772 -902.3153 -1218.6886)">
		<stop  offset="0" style="stop-color:#3A1813"/>
		<stop  offset="1" style="stop-color:#AA3D25;stop-opacity:0"/>
	</linearGradient>
	<polygon id="polygon6538_6_" fill="url(#polygon6538_1_)" points="1.012,3.107 6.339,4.998 6.339,11.893 1.012,10.003 	"/>
	
		<linearGradient id="polygon6548_1_" gradientUnits="userSpaceOnUse" x1="1645.8447" y1="-2218.5894" x2="1637.9878" y2="-2210.1304" gradientTransform="matrix(0.5627 0 0 -0.5627 -913.4598 -1237.2736)">
		<stop  offset="0" style="stop-color:#FDF0EC"/>
		<stop  offset="1" style="stop-color:#E9B6AE;stop-opacity:0"/>
	</linearGradient>
	<polygon id="polygon6548_6_" fill="url(#polygon6548_1_)" points="11.902,3.236 6.707,5.077 6.707,11.8 11.902,9.958 	"/>
	
		<linearGradient id="path6572_1_" gradientUnits="userSpaceOnUse" x1="-3890.5488" y1="3420.4805" x2="-3899.4941" y2="3420.5032" gradientTransform="matrix(0 -0.6226 0.6226 0 -2123.1072 -2416.8921)">
		<stop  offset="0" style="stop-color:#FFFFFF"/>
		<stop  offset="1" style="stop-color:#FFFFFF;stop-opacity:0"/>
	</linearGradient>
	<path id="path6572_8_" fill="url(#path6572_1_)" d="M6.154,4.761l0.312,7.382H6.46l0.349-7.484L6.154,4.761L6.154,4.761z"/>
	
		<linearGradient id="path6582_1_" gradientUnits="userSpaceOnUse" x1="-1726.5825" y1="-2412.7588" x2="-1734.2031" y2="-2412.7551" gradientTransform="matrix(-0.5857 0.2112 -0.2112 -0.5857 -1513.9834 -1043.7557)">
		<stop  offset="0" style="stop-color:#FFFFFF"/>
		<stop  offset="1" style="stop-color:#FFFFFF;stop-opacity:0"/>
	</linearGradient>
	<path id="path6582_10_" fill="url(#path6582_1_)" d="M6.561,5.194l5.729-2.393L6.24,4.615L6.561,5.194z"/>
	
		<linearGradient id="path6586_1_" gradientUnits="userSpaceOnUse" x1="2330.6563" y1="-949.6943" x2="2323.3235" y2="-949.6877" gradientTransform="matrix(0.5857 0.2112 0.2112 -0.5857 -1158.4844 -1043.786)">
		<stop  offset="0" style="stop-color:#FFFFFF"/>
		<stop  offset="1" style="stop-color:#FFFFFF;stop-opacity:0"/>
	</linearGradient>
	<path id="path6586_8_" fill="url(#path6586_1_)" d="M6.381,5.167L0.794,2.802l5.908,1.789L6.381,5.167z"/>
	<circle fill="#211F1F" cx="17.708" cy="10.277" r="6.292"/>
	
		<radialGradient id="SVGID_1_" cx="298.1641" cy="1100.6953" r="6.572" gradientTransform="matrix(1 0 0 1 -279.0801 -1092.6797)" gradientUnits="userSpaceOnUse">
		<stop  offset="0.0061" style="stop-color:#FFF3E2"/>
		<stop  offset="0.5394" style="stop-color:#FAA81C"/>
		<stop  offset="1" style="stop-color:#A26929"/>
	</radialGradient>
	<path fill="url(#SVGID_1_)" d="M17.708,15.783c-3.036,0-5.505-2.471-5.505-5.506s2.469-5.505,5.505-5.505
		c3.035,0,5.506,2.47,5.506,5.505S20.743,15.783,17.708,15.783L17.708,15.783z"/>
	<line fill="none" x1="10.527" y1="20.004" x2="10.527" y2="9.521"/>
	<path fill="#211F1F" d="M10.516,23.613c-0.15,0-0.302-0.043-0.433-0.129c-0.222-0.146-0.354-0.394-0.354-0.656V9.521
		c0-0.334,0.213-0.633,0.528-0.743c0.084-0.029,0.173-0.044,0.259-0.044c0.235,0,0.463,0.104,0.615,0.297l7.862,9.908
		c0.151,0.191,0.207,0.441,0.146,0.681c-0.059,0.235-0.226,0.435-0.451,0.53l-7.859,3.398
		C10.727,23.592,10.621,23.613,10.516,23.613L10.516,23.613z"/>
	<path fill="#211F1F" d="M10.527,23.613c-0.105,0-0.211-0.021-0.313-0.063l-8.176-3.54c-0.229-0.1-0.395-0.297-0.453-0.539
		c-0.057-0.242,0.003-0.498,0.163-0.686l8.177-9.77c0.152-0.183,0.375-0.281,0.604-0.281c0.091,0,0.182,0.016,0.27,0.047
		c0.313,0.113,0.52,0.408,0.52,0.74v13.307c0,0.266-0.133,0.514-0.354,0.656C10.83,23.57,10.68,23.613,10.527,23.613L10.527,23.613z
		"/>
	<polygon fill="#03AAD6" points="10.527,9.521 2.352,19.289 10.527,22.828 	"/>
	
		<linearGradient id="SVGID_2_" gradientUnits="userSpaceOnUse" x1="290.3711" y1="1109.1621" x2="283.3467" y2="1109.1531" gradientTransform="matrix(1 0 0 1 -279.0801 -1092.6797)">
		<stop  offset="0" style="stop-color:#AECFD9;stop-opacity:0"/>
		<stop  offset="1" style="stop-color:#0E7C9C"/>
	</linearGradient>
	<polygon fill="url(#SVGID_2_)" points="3.031,19.156 10.052,10.768 10.052,22.195 	"/>
	<polygon fill="#03AAD6" points="10.516,9.521 18.377,19.428 10.516,22.828 	"/>
	
		<linearGradient id="SVGID_3_" gradientUnits="userSpaceOnUse" x1="296.3857" y1="1109.0762" x2="287.5417" y2="1109.2341" gradientTransform="matrix(1 0 0 1 -279.0801 -1092.6797)">
		<stop  offset="0" style="stop-color:#AECFD9"/>
		<stop  offset="1" style="stop-color:#0E7C9C;stop-opacity:0"/>
	</linearGradient>
	<polygon fill="url(#SVGID_3_)" points="10.99,10.824 17.707,19.291 10.99,22.195 	"/>
	
		<linearGradient id="path6582_2_" gradientUnits="userSpaceOnUse" x1="170.9229" y1="-1176.1675" x2="155.7819" y2="-1176.1603" gradientTransform="matrix(0.2112 0.5857 -0.5857 0.2112 -712.752 169.3995)">
		<stop  offset="0" style="stop-color:#FFFFFF"/>
		<stop  offset="1" style="stop-color:#FFFFFF;stop-opacity:0"/>
	</linearGradient>
	<path id="path6582_9_" fill="url(#path6582_2_)" d="M10.779,22.746L10.527,9.521L10.34,22.746H10.779z"/>
	<path id="path4235_17_" opacity="0.98" fill="#020202" enable-background="new    " d="M15.951,21.91
		c0,0.219,0.07,0.434,0.212,0.611l7.024,9.09C23.375,31.855,23.669,32,23.979,32c0.312,0,0.604-0.145,0.791-0.389l7.023-9.09
		C31.93,22.344,32,22.127,32,21.91c0-0.148-0.033-0.293-0.098-0.434c-0.16-0.341-0.502-0.562-0.879-0.568l-3.162-0.07
		c-0.34-4.954-1.822-8.567-4.412-10.756c-3.01-2.541-6.383-2.133-6.525-2.113c-0.431,0.057-0.781,0.389-0.855,0.82
		c-0.01,0.061-0.014,0.114-0.014,0.17c0,0.372,0.207,0.723,0.547,0.895c2.986,1.518,4.318,4.196,4.318,8.681
		c0,0.688-0.027,1.424-0.09,2.305l-3.896,0.072c-0.379,0.006-0.719,0.228-0.883,0.567C15.982,21.615,15.951,21.764,15.951,21.91
		L15.951,21.91z"/>
	<path id="path7827_37_" fill="#71BB45" d="M23.977,31.002L31,21.912l-4.089-0.092C26.368,7.74,17.055,8.961,17.055,8.961
		c5.131,2.609,5.116,8.023,4.7,12.859l-4.801,0.092L23.977,31.002L23.977,31.002z"/>
	
		<linearGradient id="path4246_1_" gradientUnits="userSpaceOnUse" x1="298.04" y1="288.1309" x2="308.0801" y2="288.1309" gradientTransform="matrix(1 0 0 -1 -279.0801 308.1484)">
		<stop  offset="0" style="stop-color:#ADD58A"/>
		<stop  offset="1" style="stop-color:#1E9046"/>
	</linearGradient>
	<path id="path4246_15_" fill="url(#path4246_1_)" d="M18.96,22.875l5.019,6.49L29,22.867l-3.049-0.066l-0.037-0.938
		c-0.188-4.836-1.439-8.274-3.727-10.222c-0.485-0.416-0.983-0.733-1.469-0.973c1.916,2.453,2.199,5.508,2.199,7.866
		c0,0.971-0.051,2.012-0.168,3.373l-0.078,0.895L18.96,22.875z"/>
</g>
</svg>
