<?xml version="1.0" encoding="utf-8"?>
<!-- Generator: Adobe Illustrator 14.0.0, SVG Export Plug-In . SVG Version: 6.00 Build 43363)  -->
<!DOCTYPE svg PUBLIC "-//W3C//DTD SVG 1.1//EN" "http://www.w3.org/Graphics/SVG/1.1/DTD/svg11.dtd">
<svg version="1.1" id="Layer_1" xmlns="http://www.w3.org/2000/svg" xmlns:xlink="http://www.w3.org/1999/xlink" x="0px" y="0px"
	 width="32px" height="32px" viewBox="0 0 32 32" enable-background="new 0 0 32 32" xml:space="preserve">
<g>
	<path fill="#010101" d="M24.53,31.983c-0.159,0-0.319-0.036-0.469-0.11l-7.118-3.586l-3.932,0.002
		c-0.276,0-0.541-0.109-0.736-0.305c-0.194-0.195-0.305-0.459-0.305-0.734v-7.066c0-0.575,0.466-1.04,1.041-1.04h3.932l7.119-3.583
		c0.147-0.074,0.31-0.111,0.468-0.111c0.19,0,0.38,0.052,0.547,0.155c0.308,0.189,0.494,0.525,0.494,0.886l0.002,1.715h4.697
		c0.575,0,1.041,0.465,1.041,1.041v1.256c0,0.574-0.466,1.041-1.041,1.041h-4.697l-0.002,4.291h4.699
		c0.575,0,1.041,0.467,1.041,1.041v1.313c0,0.575-0.466,1.041-1.041,1.041h-4.697l-0.002,1.714c0,0.361-0.188,0.697-0.494,0.887
		C24.91,31.932,24.721,31.983,24.53,31.983L24.53,31.983z"/>
	<polygon fill="#03ADDB" points="13.012,20.184 17.19,20.184 24.53,16.49 24.532,19.246 30.271,19.246 30.271,20.502 24.532,20.502 
		24.53,26.875 30.271,26.875 30.271,28.188 24.532,28.188 24.53,30.942 17.19,27.248 13.012,27.25 	"/>
	
		<linearGradient id="SVGID_1_" gradientUnits="userSpaceOnUse" x1="305.0869" y1="-396.5547" x2="295.6475" y2="-396.5547" gradientTransform="matrix(1 0 0 -1 -281.54 -372.8398)">
		<stop  offset="0" style="stop-color:#B2D3DC"/>
		<stop  offset="1" style="stop-color:#117C9F"/>
	</linearGradient>
	<polygon fill="url(#SVGID_1_)" points="17.437,26.207 14.052,26.209 14.052,21.225 17.437,21.225 23.491,18.178 23.491,29.254 	"/>
	<path id="path4046_2_" fill="#030303" d="M1.687,31.95c-0.185,0-0.369-0.051-0.535-0.153c-0.428-0.271-0.584-0.817-0.364-1.274
		l6.31-13.195c0,0-2.33,0.037-2.336,0.037c-0.324,0-0.629-0.155-0.814-0.422c-0.189-0.271-0.235-0.615-0.12-0.925l5.68-15.343
		c0.145-0.392,0.518-0.652,0.936-0.652l9.279-0.006c0.383,0,0.73,0.217,0.896,0.558c0.168,0.341,0.131,0.749-0.104,1.052
		l-6.282,8.187c0,0,4.007-0.035,4.01-0.035c0.387,0,0.735,0.221,0.901,0.566c0.168,0.352,0.117,0.768-0.129,1.065L2.465,31.588
		C2.266,31.823,1.979,31.95,1.687,31.95L1.687,31.95z"/>
	
		<linearGradient id="path5141_1_" gradientUnits="userSpaceOnUse" x1="408.9492" y1="-790.981" x2="402.0098" y2="-781.8041" gradientTransform="matrix(2.1007 0.0132 0.0116 -1.8436 -835.3506 -1443.1394)">
		<stop  offset="0" style="stop-color:#C0922E"/>
		<stop  offset="0.1636" style="stop-color:#FCCF38"/>
		<stop  offset="0.5" style="stop-color:#CFA549"/>
		<stop  offset="1" style="stop-color:#F4E09C"/>
	</linearGradient>
	<path id="path5141_3_" fill="url(#path5141_1_)" d="M4.76,16.36l3.938-0.063L1.689,30.95l16.553-20.175l-6.055,0.056l7.531-9.813
		l-9.28,0.005L4.76,16.36z"/>
	<polygon id="polygon4061_2_" fill="#FCCF38" points="6.151,23.933 10.294,15.271 6.205,15.337 11.135,2.021 17.688,2.018 
		10.145,11.849 16.108,11.796 	"/>
</g>
</svg>
