<?xml version="1.0" encoding="utf-8"?>
<!-- Generator: Adobe Illustrator 15.0.0, SVG Export Plug-In . SVG Version: 6.00 Build 0)  -->
<!DOCTYPE svg PUBLIC "-//W3C//DTD SVG 1.1//EN" "http://www.w3.org/Graphics/SVG/1.1/DTD/svg11.dtd">
<svg version="1.1"
	 id="svg2" xmlns:dc="http://purl.org/dc/elements/1.1/" xmlns:cc="http://web.resource.org/cc/" xmlns:rdf="http://www.w3.org/1999/02/22-rdf-syntax-ns#" xmlns:svg="http://www.w3.org/2000/svg" xmlns:sodipodi="http://sodipodi.sourceforge.net/DTD/sodipodi-0.dtd" xmlns:inkscape="http://www.inkscape.org/namespaces/inkscape" inkscape:output_extension="org.inkscape.output.svg.inkscape" sodipodi:version="0.32" inkscape:version="0.45.1" sodipodi:docname="child_ref.svg" sodipodi:docbase="C:\Radix\dev\trunk\org.radixware\kernel\designer\src\common.resources\src\org\radixware\kernel\designer\resources\icons\ads\exploreritem" xmlns:ns="http://creativecommons.org/ns#"
	 xmlns="http://www.w3.org/2000/svg" xmlns:xlink="http://www.w3.org/1999/xlink" x="0px" y="0px" width="32px" height="32px"
	 viewBox="0 0 32 32" enable-background="new 0 0 32 32" xml:space="preserve">
<path d="M24.352,29.992L9.97,28.145c-0.402-0.053-0.742-0.326-0.878-0.709c-0.136-0.383-0.043-0.812,0.238-1.104l2.878-3.007
	c-4.163-4.732-6.09-9.281-5.729-13.529c0.414-4.872,3.726-7.465,3.868-7.574C10.537,2.075,10.769,2,10.999,2
	c0.218,0,0.436,0.066,0.622,0.198c0.386,0.273,0.548,0.765,0.401,1.214c-1.938,5.936,1.863,10.138,6.208,13.883l3.666-3.531
	c0.203-0.197,0.474-0.301,0.746-0.301c0.121,0,0.242,0.02,0.357,0.061c0.385,0.136,0.66,0.476,0.711,0.879l1.844,14.384
	c0.041,0.331-0.072,0.663-0.308,0.896C25.045,29.889,24.771,30,24.484,30C24.484,30,24.396,29.997,24.352,29.992z"/>
<path id="path7827_72_" fill="#00ACDA" d="M10.108,27.076l3.57-3.729C1.595,10.294,11,3.078,11,3.078
	c-2.254,6.903,2.592,11.726,7.277,15.67l4.367-4.208l1.842,14.382L10.108,27.076z"/>
<linearGradient id="SVGID_1_" gradientUnits="userSpaceOnUse" x1="290.4141" y1="1232.3008" x2="305.0664" y2="1232.3008" gradientTransform="matrix(1 0 0 1 -281.7407 -1214.9248)">
	<stop  offset="0" style="stop-color:#B1D2DB"/>
	<stop  offset="1" style="stop-color:#0B7C9E"/>
</linearGradient>
<path fill="url(#SVGID_1_)" d="M12.445,26.289l2.796-2.92l-0.689-0.744c-4.188-4.523-6.156-8.762-5.848-12.596
	c0.091-1.142,0.385-2.133,0.757-2.966c0.315,5.875,5.284,10.057,8.206,12.518l0.742,0.625l3.521-3.396l1.396,10.877L12.445,26.289z"
	/>
</svg>
