<?xml version="1.0" encoding="utf-8"?>
<!-- Generator: Adobe Illustrator 14.0.0, SVG Export Plug-In . SVG Version: 6.00 Build 43363)  -->
<!DOCTYPE svg PUBLIC "-//W3C//DTD SVG 1.1//EN" "http://www.w3.org/Graphics/SVG/1.1/DTD/svg11.dtd">
<svg version="1.1"
	 id="svg2" sodipodi:docname="parent_ref.svg" inkscape:version="0.45.1" sodipodi:version="0.32" sodipodi:docbase="C:\Radix\dev\trunk\org.radixware\kernel\designer\src\common.resources\src\org\radixware\kernel\designer\resources\icons\ads\exploreritem" inkscape:output_extension="org.inkscape.output.svg.inkscape" xmlns:ns="http://creativecommons.org/ns#" xmlns:dc="http://purl.org/dc/elements/1.1/" xmlns:cc="http://web.resource.org/cc/" xmlns:rdf="http://www.w3.org/1999/02/22-rdf-syntax-ns#" xmlns:svg="http://www.w3.org/2000/svg" xmlns:sodipodi="http://sodipodi.sourceforge.net/DTD/sodipodi-0.dtd" xmlns:inkscape="http://www.inkscape.org/namespaces/inkscape"
	 xmlns="http://www.w3.org/2000/svg" xmlns:xlink="http://www.w3.org/1999/xlink" x="0px" y="0px" width="32px" height="32px"
	 viewBox="8 8 32 32" enable-background="new 8 8 32 32" xml:space="preserve">
<path d="M15.649,10.008l14.38,1.847c0.402,0.053,0.742,0.326,0.878,0.71c0.136,0.383,0.044,0.81-0.237,1.104l-2.878,3.006
	c4.163,4.733,6.091,9.281,5.729,13.529c-0.414,4.871-3.726,7.465-3.866,7.573C29.463,37.926,29.231,38,29,38
	c-0.218,0-0.436-0.066-0.623-0.197c-0.385-0.273-0.548-0.765-0.401-1.214c1.938-5.936-1.862-10.139-6.208-13.883l-3.666,3.531
	c-0.204,0.197-0.472,0.302-0.747,0.302c-0.12,0-0.241-0.021-0.357-0.062c-0.384-0.136-0.66-0.476-0.711-0.879l-1.843-14.384
	c-0.042-0.331,0.072-0.663,0.307-0.898C14.954,10.112,15.229,10,15.512,10C15.512,10,15.604,10.003,15.649,10.008z"/>
<path id="path7827_72_" fill="#00ACDA" d="M29.893,12.924l-3.57,3.729C38.406,29.706,29,36.923,29,36.923
	c2.254-6.903-2.592-11.724-7.277-15.67l-4.368,4.208l-1.843-14.384L29.893,12.924z"/>
<linearGradient id="SVGID_1_" gradientUnits="userSpaceOnUse" x1="20.5898" y1="25.3652" x2="35.2422" y2="25.3652" gradientTransform="matrix(-1 0 0 -1 52 48)">
	<stop  offset="0" style="stop-color:#B1D2DB"/>
	<stop  offset="1" style="stop-color:#0B7C9E"/>
</linearGradient>
<path fill="url(#SVGID_1_)" d="M27.639,13.72l-2.795,2.92l0.688,0.745c4.188,4.524,6.156,8.762,5.848,12.595
	c-0.092,1.144-0.387,2.136-0.758,2.968c-0.315-5.874-5.283-10.058-8.204-12.518l-0.743-0.625l-3.523,3.394l-1.393-10.876
	L27.639,13.72z"/>
</svg>
