<?xml version="1.0" encoding="utf-8"?>
<!-- Generator: Adobe Illustrator 14.0.0, SVG Export Plug-In . SVG Version: 6.00 Build 43363)  -->
<!DOCTYPE svg PUBLIC "-//W3C//DTD SVG 1.1//EN" "http://www.w3.org/Graphics/SVG/1.1/DTD/svg11.dtd">
<svg version="1.1" id="Layer_1" xmlns="http://www.w3.org/2000/svg" xmlns:xlink="http://www.w3.org/1999/xlink" x="0px" y="0px"
	 width="32px" height="32px" viewBox="0 0 32 32" enable-background="new 0 0 32 32" xml:space="preserve">
<g>
	<path id="path10819_8_" fill="#030303" d="M8.858,32c-0.191,0-0.381-0.027-0.563-0.081c-0.273-0.037-0.537-0.129-0.776-0.274
		c-2.082-1.267-2.002-4.062-1.975-4.976c0.057-2.262,0.69-5.083,1.355-8.065c0.771-3.44,1.568-6.992,1.613-10.128
		c-0.039,0-0.079,0-0.12,0c-0.442,0-0.975,0.047-1.539,0.139C6.747,8.627,6.64,8.636,6.535,8.636c-0.813,0-1.559-0.491-1.868-1.265
		c-0.393-0.983-0.869-2.39-0.913-3.534C3.705,2.52,4.701,0.336,6.317,0.031C6.438,0.01,6.562,0,6.685,0
		c0.073,0,0.147,0.004,0.216,0.012C7.317,0.05,15.528,0.61,20.352,0.61c1.243,0,1.945-0.04,2.313-0.073
		c0.113-0.01,0.232-0.018,0.354-0.018c1.291,0,2.611,0.637,3.723,1.787c1.834,1.911,2.857,4.951,2.73,8.126
		c-0.047,1.382-0.309,2.787-0.771,4.165c-1.066,3.182-1.598,5.621-1.618,7.465c0,0.049,0,0.099,0,0.146
		c0.853-0.035,1.655-0.063,2.25-0.063l0.229,0.002c0.512,0.008,1.002,0.213,1.371,0.566c1.057,1.027,1.234,3.251,0.943,5.006
		c-0.411,2.451-1.646,3.971-3.223,3.971c-0.188,0-0.383-0.021-0.572-0.063c-1.176-0.272-2.998-0.411-5.418-0.411
		c-2.241,0-4.906,0.114-8.151,0.348c-2.052,0.238-3.87,0.389-5.053,0.406L8.987,32C8.943,32,8.901,32,8.858,32L8.858,32z"/>
	<path id="path3443_8_" fill="#FFFFFF" d="M9.986,7.755c0.179-1.998-0.696-5.63-3.178-6.665C5.503,0.545,4.719,2.705,4.76,3.792
		c0.063,1.604,1.172,3.964,1.172,3.964S8.774,7.089,9.986,7.755z"/>
	<path id="path3445_8_" fill="#FFFFFF" d="M27.746,14.221c-4.281,12.792,0.99,11.289,1.089,12.638
		c0.151,2.146-19.493,4.582-20.666,3.945C2.384,27.662,14.526,7.766,6.943,1.003c2.452,0.14,12.146,0.854,15.815,0.524
		C26.201,1.22,30.129,7.105,27.746,14.221z"/>
	
		<linearGradient id="path10830_1_" gradientUnits="userSpaceOnUse" x1="1141.3945" y1="-2278.1479" x2="1141.3945" y2="-2302.5557" gradientTransform="matrix(1 0 0 -1 -1123.8809 -2275.3789)">
		<stop  offset="0" style="stop-color:#FFFFFF"/>
		<stop  offset="1" style="stop-color:#231F20"/>
	</linearGradient>
	<path id="path10830_8_" fill="url(#path10830_1_)" d="M9.179,29.945c-0.352,0-0.529-0.018-0.607-0.025
		c-1.871-1.163-0.771-6.079,0.295-10.834c1.332-5.946,2.818-12.574,0.297-16.892c2.957,0.187,7.693,0.47,11.05,0.47l0,0
		c1.085,0,1.972-0.032,2.632-0.089c0.061-0.006,0.113-0.01,0.176-0.01c0.938,0,1.992,0.692,2.826,1.846
		c1.366,1.897,2.332,5.394,0.947,9.535c-3.02,9.018-1.574,11.667,0.588,13C24.572,28.254,13.342,29.945,9.179,29.945L9.179,29.945z"
		/>
	<path id="path3447_9_" fill="#FFFFFF" d="M29.781,23.146c2.117,0.728,1.359,8.133-1.473,7.484
		c-4.955-1.138-18.143,0.318-19.597,0.367c3.117-1.152,1.92-7.012,0.383-7.902C14.733,24.212,26.875,23.033,29.781,23.146z"/>
	
		<linearGradient id="path10840_1_" gradientUnits="userSpaceOnUse" x1="581.3682" y1="-1491.1475" x2="581.3682" y2="-1495.9076" gradientTransform="matrix(1 0 0 -1 -560.8008 -1466.6992)">
		<stop  offset="0" style="stop-color:#FFFFFF"/>
		<stop  offset="1" style="stop-color:#231F20"/>
	</linearGradient>
	<path id="path10840_8_" fill="url(#path10840_1_)" d="M11.235,29.787c0.214-0.514,0.352-1.102,0.409-1.752
		c0.098-1.146-0.083-2.502-0.498-3.643c1.384,0.129,3.041,0.192,5.003,0.192c3.098,0,6.38-0.159,9.02-0.287
		c1.735-0.083,3.233-0.155,4.151-0.155c0.072,0,0.144,0,0.209,0.002c0.277,0.273,0.643,1.535,0.356,3.227
		c-0.237,1.438-0.817,2.292-1.237,2.292l0,0c-0.035,0-0.074-0.004-0.117-0.015c-1.344-0.311-3.266-0.459-5.873-0.459
		C18.689,29.191,14.101,29.549,11.235,29.787L11.235,29.787z"/>
	
		<linearGradient id="path10849_1_" gradientUnits="userSpaceOnUse" x1="1130.3701" y1="-2280.8105" x2="1132.6337" y2="-2278.5471" gradientTransform="matrix(1 0 0 -1 -1123.8809 -2275.3789)">
		<stop  offset="0" style="stop-color:#FFFFFF"/>
		<stop  offset="1" style="stop-color:#231F20"/>
	</linearGradient>
	<path id="path10849_8_" fill="url(#path10849_1_)" d="M6.537,6.616C6.209,5.792,5.8,4.59,5.766,3.752
		C5.739,3.066,6.179,2.105,6.429,2.005C7.95,2.656,8.778,4.744,8.964,6.473C8.784,6.46,8.597,6.452,8.398,6.452
		C7.726,6.452,7.048,6.534,6.537,6.616L6.537,6.616z"/>
</g>
<g>
	<path d="M11.404,0c0.461,0,0.834,0.373,0.834,0.833v10.453h2.688c0.337,0,0.641,0.203,0.77,0.514
		c0.13,0.312,0.059,0.67-0.181,0.908l-7.046,7.048C8.313,19.912,8.102,20,7.88,20s-0.433-0.088-0.589-0.244l-7.048-7.048
		c-0.237-0.238-0.31-0.597-0.181-0.908s0.435-0.514,0.77-0.514h2.69V0.833C3.523,0.373,3.896,0,4.357,0H11.404z"/>
	<polygon fill="#00ACDA" points="7.88,19.166 14.926,12.119 11.404,12.119 11.404,0.833 4.357,0.833 4.357,12.119 0.833,12.119 	"/>
	
		<linearGradient id="SVGID_1_" gradientUnits="userSpaceOnUse" x1="32.8633" y1="-123.0122" x2="42.9336" y2="-123.0122" gradientTransform="matrix(-1 0 0 1 45.7773 132.8398)">
		<stop  offset="0" style="stop-color:#B1D2DB"/>
		<stop  offset="1" style="stop-color:#0B7C9E"/>
	</linearGradient>
	<polygon fill="url(#SVGID_1_)" points="10.571,1.667 10.571,12.952 12.915,12.952 7.88,17.988 2.844,12.952 5.19,12.952 
		5.19,1.667 	"/>
</g>
</svg>
