<?xml version="1.0" encoding="utf-8"?>
<!-- Generator: Adobe Illustrator 14.0.0, SVG Export Plug-In . SVG Version: 6.00 Build 43363)  -->
<!DOCTYPE svg PUBLIC "-//W3C//DTD SVG 1.1//EN" "http://www.w3.org/Graphics/SVG/1.1/DTD/svg11.dtd">
<svg version="1.1" id="Layer_1" xmlns="http://www.w3.org/2000/svg" xmlns:xlink="http://www.w3.org/1999/xlink" x="0px" y="0px"
	 width="32px" height="32px" viewBox="0 0 32 32" enable-background="new 0 0 32 32" xml:space="preserve">
<g>
	<path id="path10819_8_" fill="#030303" d="M5.106,32c-0.191,0-0.381-0.027-0.563-0.081c-0.273-0.037-0.537-0.129-0.776-0.274
		c-2.082-1.267-2.002-4.062-1.975-4.976c0.057-2.262,0.69-5.083,1.355-8.065c0.771-3.439,1.568-6.992,1.613-10.127
		c-0.039,0-0.079,0-0.12,0c-0.442,0-0.975,0.047-1.539,0.139C2.995,8.627,2.888,8.636,2.783,8.636c-0.813,0-1.559-0.491-1.868-1.265
		c-0.393-0.983-0.869-2.39-0.913-3.534C-0.047,2.52,0.949,0.336,2.565,0.031C2.686,0.01,2.81,0,2.933,0
		C3.006,0,3.08,0.004,3.149,0.012C3.565,0.05,11.776,0.61,16.6,0.61c1.243,0,1.945-0.04,2.313-0.073
		c0.112-0.01,0.231-0.018,0.354-0.018c1.291,0,2.61,0.637,3.723,1.787c1.834,1.911,2.857,4.951,2.73,8.126
		c-0.048,1.382-0.31,2.787-0.771,4.165c-1.066,3.182-1.598,5.621-1.618,7.465c0,0.049,0,0.099,0,0.146
		c0.853-0.035,1.655-0.063,2.25-0.063l0.229,0.002c0.512,0.008,1.002,0.213,1.371,0.566c1.057,1.027,1.233,3.251,0.942,5.006
		c-0.411,2.451-1.646,3.971-3.224,3.971c-0.188,0-0.383-0.021-0.571-0.063c-1.177-0.271-2.998-0.411-5.418-0.411
		c-2.241,0-4.906,0.114-8.151,0.349c-2.052,0.238-3.87,0.389-5.053,0.406L5.235,32C5.191,32,5.149,32,5.106,32L5.106,32z"/>
	<path id="path3443_8_" fill="#FFFFFF" d="M6.234,7.755c0.179-1.998-0.696-5.63-3.178-6.665C1.751,0.545,0.967,2.705,1.008,3.792
		C1.071,5.396,2.18,7.756,2.18,7.756S5.022,7.089,6.234,7.755z"/>
	<path id="path3445_8_" fill="#FFFFFF" d="M23.994,14.221c-4.281,12.792,0.99,11.289,1.089,12.638
		c0.151,2.146-19.493,4.582-20.666,3.945c-5.785-3.144,6.357-23.04-1.226-29.803c2.452,0.14,12.146,0.854,15.815,0.524
		C22.449,1.22,26.377,7.105,23.994,14.221z"/>
	
		<linearGradient id="path10830_1_" gradientUnits="userSpaceOnUse" x1="1419.3643" y1="2715.1689" x2="1419.3643" y2="2739.5767" gradientTransform="matrix(1 0 0 1 -1405.6016 -2712.3984)">
		<stop  offset="0" style="stop-color:#FFFFFF"/>
		<stop  offset="1" style="stop-color:#231F20"/>
	</linearGradient>
	<path id="path10830_8_" fill="url(#path10830_1_)" d="M5.427,29.945c-0.352,0-0.529-0.018-0.607-0.025
		c-1.871-1.163-0.771-6.079,0.295-10.834C6.447,13.14,7.933,6.512,5.412,2.194c2.957,0.187,7.694,0.47,11.05,0.47l0,0
		c1.084,0,1.972-0.032,2.631-0.089c0.062-0.006,0.113-0.01,0.177-0.01c0.938,0,1.992,0.692,2.826,1.846
		c1.365,1.897,2.332,5.394,0.946,9.535c-3.021,9.018-1.573,11.667,0.588,13C20.82,28.254,9.59,29.945,5.427,29.945L5.427,29.945z"/>
	<path id="path3447_9_" fill="#FFFFFF" d="M26.029,23.146c2.117,0.728,1.359,8.133-1.473,7.483
		c-4.955-1.138-18.144,0.317-19.598,0.367c3.117-1.151,1.92-7.013,0.383-7.901C10.981,24.212,23.123,23.033,26.029,23.146z"/>
	
		<linearGradient id="path10840_1_" gradientUnits="userSpaceOnUse" x1="859.3369" y1="1928.168" x2="859.3369" y2="1932.9272" gradientTransform="matrix(1 0 0 1 -842.5215 -1903.7188)">
		<stop  offset="0" style="stop-color:#FFFFFF"/>
		<stop  offset="1" style="stop-color:#231F20"/>
	</linearGradient>
	<path id="path10840_8_" fill="url(#path10840_1_)" d="M7.483,29.787c0.214-0.514,0.352-1.102,0.409-1.752
		c0.098-1.146-0.083-2.502-0.498-3.643c1.384,0.129,3.041,0.191,5.003,0.191c3.099,0,6.38-0.159,9.02-0.287
		c1.735-0.083,3.233-0.154,4.151-0.154c0.072,0,0.144,0,0.209,0.002c0.277,0.272,0.643,1.535,0.355,3.227
		c-0.236,1.438-0.816,2.292-1.236,2.292l0,0c-0.035,0-0.074-0.004-0.117-0.015c-1.344-0.312-3.266-0.459-5.873-0.459
		C14.938,29.191,10.349,29.549,7.483,29.787L7.483,29.787z"/>
	
		<linearGradient id="path10849_1_" gradientUnits="userSpaceOnUse" x1="1408.3398" y1="2717.832" x2="1410.604" y2="2715.5679" gradientTransform="matrix(1 0 0 1 -1405.6016 -2712.3984)">
		<stop  offset="0" style="stop-color:#FFFFFF"/>
		<stop  offset="1" style="stop-color:#231F20"/>
	</linearGradient>
	<path id="path10849_8_" fill="url(#path10849_1_)" d="M2.785,6.616C2.457,5.792,2.048,4.59,2.014,3.752
		C1.987,3.066,2.427,2.105,2.677,2.005c1.521,0.651,2.349,2.739,2.535,4.468C5.032,6.46,4.845,6.452,4.646,6.452
		C3.974,6.452,3.296,6.534,2.785,6.616L2.785,6.616z"/>
</g>
<g>
	<path d="M20.596,32c-0.461,0-0.834-0.373-0.834-0.833V20.714h-2.688c-0.338,0-0.641-0.202-0.77-0.514
		c-0.13-0.312-0.059-0.671,0.181-0.908l7.046-7.048C23.688,12.087,23.896,12,24.119,12c0.222,0,0.434,0.087,0.589,0.244l7.048,7.048
		c0.237,0.237,0.311,0.597,0.182,0.908s-0.436,0.514-0.771,0.514h-2.69v10.453c0,0.46-0.373,0.833-0.834,0.833H20.596z"/>
	<polygon fill="#6FBD46" points="24.119,12.833 17.072,19.881 20.596,19.881 20.596,31.167 27.643,31.167 27.643,19.881 
		31.167,19.881 	"/>
	
		<linearGradient id="SVGID_1_" gradientUnits="userSpaceOnUse" x1="298.3457" y1="548.0332" x2="308.4141" y2="548.0332" gradientTransform="matrix(1 0 0 1 -279.2598 -525.8594)">
		<stop  offset="0" style="stop-color:#B0D68C"/>
		<stop  offset="1" style="stop-color:#219046"/>
	</linearGradient>
	<polygon fill="url(#SVGID_1_)" points="21.43,30.333 21.43,19.048 19.085,19.048 24.119,14.012 29.154,19.048 26.811,19.048 
		26.811,30.333 	"/>
</g>
</svg>
