<?xml version="1.0" encoding="utf-8"?>
<!-- Generator: Adobe Illustrator 14.0.0, SVG Export Plug-In . SVG Version: 6.00 Build 43363)  -->
<!DOCTYPE svg PUBLIC "-//W3C//DTD SVG 1.1//EN" "http://www.w3.org/Graphics/SVG/1.1/DTD/svg11.dtd">
<svg version="1.1" id="Layer_1" xmlns="http://www.w3.org/2000/svg" xmlns:xlink="http://www.w3.org/1999/xlink" x="0px" y="0px"
	 width="32px" height="32px" viewBox="0 0 32 32" enable-background="new 0 0 32 32" xml:space="preserve">
<g>
	<path id="path10819_8_" fill="#030303" d="M8.858,32c-0.191,0-0.381-0.027-0.563-0.081c-0.273-0.037-0.537-0.129-0.776-0.274
		c-2.082-1.267-2.002-4.062-1.975-4.976c0.057-2.262,0.69-5.083,1.355-8.065c0.771-3.44,1.568-6.992,1.613-10.128
		c-0.039,0-0.079,0-0.12,0c-0.442,0-0.975,0.047-1.539,0.139C6.747,8.627,6.64,8.636,6.535,8.636c-0.813,0-1.559-0.491-1.868-1.265
		c-0.393-0.983-0.869-2.39-0.913-3.534C3.705,2.52,4.701,0.336,6.317,0.031C6.438,0.01,6.562,0,6.685,0
		c0.073,0,0.147,0.004,0.216,0.012C7.317,0.05,15.528,0.61,20.352,0.61c1.243,0,1.945-0.04,2.313-0.073
		c0.113-0.01,0.232-0.018,0.354-0.018c1.291,0,2.611,0.637,3.723,1.787c1.834,1.911,2.857,4.951,2.73,8.126
		c-0.047,1.382-0.309,2.787-0.771,4.165c-1.066,3.182-1.598,5.621-1.618,7.465c0,0.049,0,0.099,0,0.146
		c0.853-0.035,1.655-0.063,2.25-0.063l0.229,0.002c0.512,0.008,1.002,0.213,1.371,0.566c1.057,1.027,1.234,3.251,0.943,5.006
		c-0.411,2.451-1.646,3.971-3.223,3.971c-0.188,0-0.383-0.021-0.572-0.063c-1.176-0.272-2.998-0.411-5.418-0.411
		c-2.241,0-4.906,0.114-8.151,0.348c-2.052,0.238-3.87,0.389-5.053,0.406L8.987,32C8.943,32,8.901,32,8.858,32L8.858,32z"/>
	<path id="path3443_8_" fill="#FFFFFF" d="M9.986,7.755c0.179-1.998-0.696-5.63-3.178-6.665C5.503,0.545,4.719,2.705,4.76,3.792
		c0.063,1.604,1.172,3.964,1.172,3.964S8.774,7.089,9.986,7.755z"/>
	<path id="path3445_8_" fill="#FFFFFF" d="M27.746,14.221c-4.281,12.792,0.99,11.289,1.089,12.638
		c0.151,2.146-19.493,4.582-20.666,3.945C2.384,27.662,14.526,7.766,6.943,1.003c2.452,0.14,12.146,0.854,15.815,0.524
		C26.201,1.22,30.129,7.105,27.746,14.221z"/>
	
		<linearGradient id="path10830_1_" gradientUnits="userSpaceOnUse" x1="1141.3945" y1="-2278.1479" x2="1141.3945" y2="-2302.5557" gradientTransform="matrix(1 0 0 -1 -1123.8809 -2275.3789)">
		<stop  offset="0" style="stop-color:#FFFFFF"/>
		<stop  offset="1" style="stop-color:#231F20"/>
	</linearGradient>
	<path id="path10830_8_" fill="url(#path10830_1_)" d="M9.179,29.945c-0.352,0-0.529-0.018-0.607-0.025
		c-1.871-1.163-0.771-6.079,0.295-10.834c1.332-5.946,2.818-12.574,0.297-16.892c2.957,0.187,7.693,0.47,11.05,0.47l0,0
		c1.085,0,1.972-0.032,2.632-0.089c0.061-0.006,0.113-0.01,0.176-0.01c0.938,0,1.992,0.692,2.826,1.846
		c1.366,1.897,2.332,5.394,0.947,9.535c-3.02,9.018-1.574,11.667,0.588,13C24.572,28.254,13.342,29.945,9.179,29.945L9.179,29.945z"
		/>
	<path id="path3447_9_" fill="#FFFFFF" d="M29.781,23.146c2.117,0.728,1.359,8.133-1.473,7.484
		c-4.955-1.138-18.143,0.318-19.597,0.367c3.117-1.152,1.92-7.012,0.383-7.902C14.733,24.212,26.875,23.033,29.781,23.146z"/>
	
		<linearGradient id="path10840_1_" gradientUnits="userSpaceOnUse" x1="581.3682" y1="-1491.1475" x2="581.3682" y2="-1495.9076" gradientTransform="matrix(1 0 0 -1 -560.8008 -1466.6992)">
		<stop  offset="0" style="stop-color:#FFFFFF"/>
		<stop  offset="1" style="stop-color:#231F20"/>
	</linearGradient>
	<path id="path10840_8_" fill="url(#path10840_1_)" d="M11.235,29.787c0.214-0.514,0.352-1.102,0.409-1.752
		c0.098-1.146-0.083-2.502-0.498-3.643c1.384,0.129,3.041,0.192,5.003,0.192c3.098,0,6.38-0.159,9.02-0.287
		c1.735-0.083,3.233-0.155,4.151-0.155c0.072,0,0.144,0,0.209,0.002c0.277,0.273,0.643,1.535,0.356,3.227
		c-0.237,1.438-0.817,2.292-1.237,2.292l0,0c-0.035,0-0.074-0.004-0.117-0.015c-1.344-0.311-3.266-0.459-5.873-0.459
		C18.689,29.191,14.101,29.549,11.235,29.787L11.235,29.787z"/>
	
		<linearGradient id="path10849_1_" gradientUnits="userSpaceOnUse" x1="1130.3701" y1="-2280.8105" x2="1132.6337" y2="-2278.5471" gradientTransform="matrix(1 0 0 -1 -1123.8809 -2275.3789)">
		<stop  offset="0" style="stop-color:#FFFFFF"/>
		<stop  offset="1" style="stop-color:#231F20"/>
	</linearGradient>
	<path id="path10849_8_" fill="url(#path10849_1_)" d="M6.537,6.616C6.209,5.792,5.8,4.59,5.766,3.752
		C5.739,3.066,6.179,2.105,6.429,2.005C7.95,2.656,8.778,4.744,8.964,6.473C8.784,6.46,8.597,6.452,8.398,6.452
		C7.726,6.452,7.048,6.534,6.537,6.616L6.537,6.616z"/>
</g>
<g>
	<g>
		<path fill="#010101" d="M12.943,1.183V1.119c0.001-0.267-0.104-0.521-0.292-0.711c-0.188-0.188-0.441-0.294-0.708-0.294
			L5.793,0.117c-0.287,0-0.543,0.127-0.727,0.321c-0.008-0.008-0.01-0.018-0.018-0.024C4.862,0.226,4.608,0.119,4.34,0.119
			L1.023,0.121c-0.551,0-0.996,0.444-1,0.996L0,6.649C-0.002,6.916,0.104,7.171,0.291,7.36C0.479,7.549,0.734,7.653,1,7.653
			l3.316-0.002c0.526,0,0.948-0.409,0.985-0.928l1.551,1.707C6.954,8.54,7.078,8.62,7.211,8.677l-0.014,3.053
			c-0.398,0.129-0.691,0.492-0.693,0.935L6.432,29.06c-0.002,0.188,0.068,0.366,0.17,0.524l-0.006,1.412
			c-0.002,0.267,0.104,0.521,0.291,0.709C7.076,31.894,7.33,32,7.596,32l3.041-0.002c0.552,0,0.998-0.444,1-0.996l0.006-1.41
			c0.101-0.153,0.174-0.327,0.175-0.524l0.071-16.396c0-0.269-0.104-0.521-0.293-0.711c-0.108-0.11-0.248-0.185-0.394-0.231
			l0.015-3.006c0.287-0.072,0.537-0.267,0.666-0.541l0.697-1.484c1.545,0.074,4.022,0.705,5.512,3.711
			c0.172,0.348,0.521,0.557,0.896,0.557c0.073,0,0.148-0.008,0.227-0.025c0.449-0.104,0.771-0.504,0.773-0.967
			C20.032,4.522,15.98,2.021,12.943,1.183z"/>
		
			<linearGradient id="rect3338_2_" gradientUnits="userSpaceOnUse" x1="26.4053" y1="-1424.9951" x2="29.4224" y2="-1424.9951" gradientTransform="matrix(1.0252 -4.000000e-004 0.0045 -1.026 -17.1153 -1458.2181)">
			<stop  offset="0" style="stop-color:#E6E6E5"/>
			<stop  offset="0.7255" style="stop-color:#99BFCC"/>
			<stop  offset="1" style="stop-color:#B2D8E5"/>
		</linearGradient>
		<polygon id="rect3338_1_" fill="url(#rect3338_2_)" points="3.678,2.362 6.512,2.36 6.502,5.269 3.666,5.271 		"/>
		
			<linearGradient id="rect3340_2_" gradientUnits="userSpaceOnUse" x1="142.7676" y1="-1155.0762" x2="142.7676" y2="-1159.5132" gradientTransform="matrix(0.8057 -3.000000e-004 0.0058 -1.3055 -105.6452 -1506.9197)">
			<stop  offset="0" style="stop-color:#DBEEF2"/>
			<stop  offset="1" style="stop-color:#358296"/>
		</linearGradient>
		<polygon id="rect3340_1_" fill="url(#rect3340_2_)" points="1.023,1.119 4.34,1.119 4.316,6.651 1,6.653 		"/>
		
			<linearGradient id="rect3342_2_" gradientUnits="userSpaceOnUse" x1="30.8545" y1="-1431.6367" x2="33.0622" y2="-1431.6367" gradientTransform="matrix(1.0252 -4.000000e-004 0.0045 -1.026 -17.1153 -1458.2181)">
			<stop  offset="0" style="stop-color:#E6E6E5"/>
			<stop  offset="0.7255" style="stop-color:#99BFCC"/>
			<stop  offset="1" style="stop-color:#B2D8E5"/>
		</linearGradient>
		<polygon id="rect3342_1_" fill="url(#rect3342_2_)" points="8.217,7.412 10.223,7.41 10.195,13.845 8.191,13.847 		"/>
		
			<linearGradient id="rect3344_2_" gradientUnits="userSpaceOnUse" x1="33.7344" y1="-1441.6138" x2="30.1824" y2="-1441.6138" gradientTransform="matrix(1.0252 -4.000000e-004 0.0045 -1.026 -17.1153 -1458.2181)">
			<stop  offset="0" style="stop-color:#F89B42"/>
			<stop  offset="0.2217" style="stop-color:#F47A20"/>
			<stop  offset="1" style="stop-color:#FFFFFF"/>
		</linearGradient>
		<polygon id="rect3344_1_" fill="url(#rect3344_2_)" points="7.506,12.668 10.889,12.666 10.818,29.062 7.432,29.063 		"/>
		
			<linearGradient id="rect3346_2_" gradientUnits="userSpaceOnUse" x1="30.3506" y1="-1450.5479" x2="33.566" y2="-1450.5479" gradientTransform="matrix(1.0252 -4.000000e-004 0.0045 -1.026 -17.1153 -1458.2181)">
			<stop  offset="0" style="stop-color:#E6E6E5"/>
			<stop  offset="0.7255" style="stop-color:#99BFCC"/>
			<stop  offset="1" style="stop-color:#B2D8E5"/>
		</linearGradient>
		<polygon id="rect3346_1_" fill="url(#rect3346_2_)" points="7.605,29.063 10.646,29.062 10.637,30.998 7.596,31 		"/>
		
			<linearGradient id="path3348_2_" gradientUnits="userSpaceOnUse" x1="37.5732" y1="-1427.3184" x2="40.3861" y2="-1423.2294" gradientTransform="matrix(1.0252 -4.000000e-004 0.0045 -1.026 -17.1153 -1458.2181)">
			<stop  offset="0" style="stop-color:#E6E6E5"/>
			<stop  offset="0.7255" style="stop-color:#99BFCC"/>
			<stop  offset="1" style="stop-color:#B2D8E5"/>
		</linearGradient>
		<path id="path3348_1_" fill="url(#path3348_2_)" d="M18.99,9.967c-2.536-5.118-7.652-4.217-7.652-4.217l0.016-3.875
			C11.352,1.875,19.046,2.771,18.99,9.967z"/>
		<polygon id="polygon3350_2_" fill="#B0E1F9" points="5.771,5.752 5.793,1.117 11.943,1.114 11.924,5.748 11.924,5.748 
			10.98,7.756 7.592,7.758 		"/>
	</g>
</g>
</svg>
